<?xml version="1.0" encoding="UTF-8" standalone="no"?>
<!DOCTYPE svg PUBLIC "-//W3C//DTD SVG 1.1//EN"
 "http://www.w3.org/Graphics/SVG/1.1/DTD/svg11.dtd">
<!-- Generated by graphviz version 2.43.0 (0)
 -->
<!-- Title: src/include/execution/plans/window_plan.h Pages: 1 -->
<svg width="2274pt" height="181pt"
 viewBox="0.00 0.00 2273.84 181.00" xmlns="http://www.w3.org/2000/svg" xmlns:xlink="http://www.w3.org/1999/xlink">
<g id="graph0" class="graph" transform="scale(1 1) rotate(0) translate(4 177)">
<title>src/include/execution/plans/window_plan.h</title>
<!-- Node1 -->
<g id="Node000001" class="node">
<title>Node1</title>
<g id="a_Node000001"><a xlink:title=" ">
<polygon fill="#999999" stroke="#666666" points="497.34,-173 375.34,-173 375.34,-143 497.34,-143 497.34,-173"/>
<text text-anchor="start" x="383.34" y="-161" font-family="Helvetica,sans-Serif" font-size="10.00">src/include/execution</text>
<text text-anchor="middle" x="436.34" y="-150" font-family="Helvetica,sans-Serif" font-size="10.00">/plans/window_plan.h</text>
</a>
</g>
</g>
<!-- Node2 -->
<g id="Node000002" class="node">
<title>Node2</title>
<g id="a_Node000002"><a xlink:href="../../d3/d3e/executor__factory_8cpp.html" target="_top" xlink:title=" ">
<polygon fill="white" stroke="#666666" points="176.34,-30 50.34,-30 50.34,0 176.34,0 176.34,-30"/>
<text text-anchor="start" x="58.34" y="-18" font-family="Helvetica,sans-Serif" font-size="10.00">src/execution/executor</text>
<text text-anchor="middle" x="113.34" y="-7" font-family="Helvetica,sans-Serif" font-size="10.00">_factory.cpp</text>
</a>
</g>
</g>
<!-- Node1&#45;&gt;Node2 -->
<g id="edge1_Node000001_Node000002" class="edge">
<title>Node1&#45;&gt;Node2</title>
<g id="a_edge1_Node000001_Node000002"><a xlink:title=" ">
<path fill="none" stroke="#63b8ff" d="M365.08,-153.76C249.49,-147.78 31.6,-133.14 8.34,-107 -3.77,-93.39 -1.39,-81.41 8.34,-66 19.12,-48.93 37.5,-37.56 55.9,-30.05"/>
<polygon fill="#63b8ff" stroke="#63b8ff" points="365.09,-157.27 375.26,-154.28 365.45,-150.28 365.09,-157.27"/>
</a>
</g>
</g>
<!-- Node3 -->
<g id="Node000003" class="node">
<title>Node3</title>
<g id="a_Node000003"><a xlink:href="../../dd/def/execution_2fmt__impl_8cpp.html" target="_top" xlink:title=" ">
<polygon fill="white" stroke="#666666" points="166.84,-96 17.84,-96 17.84,-77 166.84,-77 166.84,-96"/>
<text text-anchor="middle" x="92.34" y="-84" font-family="Helvetica,sans-Serif" font-size="10.00">src/execution/fmt_impl.cpp</text>
</a>
</g>
</g>
<!-- Node1&#45;&gt;Node3 -->
<g id="edge2_Node000001_Node000003" class="edge">
<title>Node1&#45;&gt;Node3</title>
<g id="a_edge2_Node000001_Node000003"><a xlink:title=" ">
<path fill="none" stroke="#63b8ff" d="M365.39,-144.23C312.81,-134.57 239.46,-120.67 175.34,-107 159.56,-103.64 142.17,-99.6 127.4,-96.08"/>
<polygon fill="#63b8ff" stroke="#63b8ff" points="364.82,-147.68 375.29,-146.04 366.08,-140.8 364.82,-147.68"/>
</a>
</g>
</g>
<!-- Node4 -->
<g id="Node000004" class="node">
<title>Node4</title>
<g id="a_Node000004"><a xlink:href="../../dc/dbe/plan__node_8cpp.html" target="_top" xlink:title=" ">
<polygon fill="white" stroke="#666666" points="289.84,-101.5 184.84,-101.5 184.84,-71.5 289.84,-71.5 289.84,-101.5"/>
<text text-anchor="start" x="192.84" y="-89.5" font-family="Helvetica,sans-Serif" font-size="10.00">src/execution/plan</text>
<text text-anchor="middle" x="237.34" y="-78.5" font-family="Helvetica,sans-Serif" font-size="10.00">_node.cpp</text>
</a>
</g>
</g>
<!-- Node1&#45;&gt;Node4 -->
<g id="edge3_Node000001_Node000004" class="edge">
<title>Node1&#45;&gt;Node4</title>
<g id="a_edge3_Node000001_Node000004"><a xlink:title=" ">
<path fill="none" stroke="#63b8ff" d="M386.42,-139.57C352.77,-127.81 308.96,-112.51 277.55,-101.54"/>
<polygon fill="#63b8ff" stroke="#63b8ff" points="385.47,-142.94 396.07,-142.94 387.78,-136.33 385.47,-142.94"/>
</a>
</g>
</g>
<!-- Node5 -->
<g id="Node000005" class="node">
<title>Node5</title>
<g id="a_Node000005"><a xlink:href="../../db/d06/window__function__executor_8cpp.html" target="_top" xlink:title=" ">
<polygon fill="white" stroke="#666666" points="444.34,-30 316.34,-30 316.34,0 444.34,0 444.34,-30"/>
<text text-anchor="start" x="324.34" y="-18" font-family="Helvetica,sans-Serif" font-size="10.00">src/execution/window</text>
<text text-anchor="middle" x="380.34" y="-7" font-family="Helvetica,sans-Serif" font-size="10.00">_function_executor.cpp</text>
</a>
</g>
</g>
<!-- Node1&#45;&gt;Node5 -->
<g id="edge4_Node000001_Node000005" class="edge">
<title>Node1&#45;&gt;Node5</title>
<g id="a_edge4_Node000001_Node000005"><a xlink:title=" ">
<path fill="none" stroke="#63b8ff" d="M454.94,-134.64C468.39,-115.59 482.15,-87.89 469.34,-66 459.58,-49.33 442,-37.79 425.02,-30.03"/>
<polygon fill="#63b8ff" stroke="#63b8ff" points="452.07,-132.64 448.87,-142.74 457.67,-136.83 452.07,-132.64"/>
</a>
</g>
</g>
<!-- Node6 -->
<g id="Node000006" class="node">
<title>Node6</title>
<g id="a_Node000006"><a xlink:href="../../dd/d30/window__function__executor_8h.html" target="_top" xlink:title=" ">
<polygon fill="white" stroke="#666666" points="460.34,-107 308.34,-107 308.34,-66 460.34,-66 460.34,-107"/>
<text text-anchor="start" x="316.34" y="-95" font-family="Helvetica,sans-Serif" font-size="10.00">src/include/execution</text>
<text text-anchor="start" x="316.34" y="-84" font-family="Helvetica,sans-Serif" font-size="10.00">/executors/window_function</text>
<text text-anchor="middle" x="384.34" y="-73" font-family="Helvetica,sans-Serif" font-size="10.00">_executor.h</text>
</a>
</g>
</g>
<!-- Node1&#45;&gt;Node6 -->
<g id="edge5_Node000001_Node000006" class="edge">
<title>Node1&#45;&gt;Node6</title>
<g id="a_edge5_Node000001_Node000006"><a xlink:title=" ">
<path fill="none" stroke="#63b8ff" d="M419.78,-134.86C413.1,-125.94 405.46,-115.72 398.99,-107.07"/>
<polygon fill="#63b8ff" stroke="#63b8ff" points="417.02,-137.03 425.82,-142.94 422.63,-132.83 417.02,-137.03"/>
</a>
</g>
</g>
<!-- Node7 -->
<g id="Node000007" class="node">
<title>Node7</title>
<g id="a_Node000007"><a xlink:href="../../d7/d8c/planner_8h.html" target="_top" xlink:title=" ">
<polygon fill="white" stroke="#666666" points="1395.84,-101.5 1286.84,-101.5 1286.84,-71.5 1395.84,-71.5 1395.84,-101.5"/>
<text text-anchor="start" x="1294.84" y="-89.5" font-family="Helvetica,sans-Serif" font-size="10.00">src/include/planner</text>
<text text-anchor="middle" x="1341.34" y="-78.5" font-family="Helvetica,sans-Serif" font-size="10.00">/planner.h</text>
</a>
</g>
</g>
<!-- Node1&#45;&gt;Node7 -->
<g id="edge8_Node000001_Node000007" class="edge">
<title>Node1&#45;&gt;Node7</title>
<g id="a_edge8_Node000001_Node000007"><a xlink:title=" ">
<path fill="none" stroke="#63b8ff" d="M507.61,-151.53C682.61,-138.09 1130.56,-103.69 1286.69,-91.7"/>
<polygon fill="#63b8ff" stroke="#63b8ff" points="507.18,-148.05 497.48,-152.3 507.72,-155.03 507.18,-148.05"/>
</a>
</g>
</g>
<!-- Node10 -->
<g id="Node000010" class="node">
<title>Node10</title>
<g id="a_Node000010"><a xlink:href="../../df/dfb/expression__factory_8cpp.html" target="_top" xlink:title=" ">
<polygon fill="white" stroke="#666666" points="589.84,-30 462.84,-30 462.84,0 589.84,0 589.84,-30"/>
<text text-anchor="start" x="470.84" y="-18" font-family="Helvetica,sans-Serif" font-size="10.00">src/planner/expression</text>
<text text-anchor="middle" x="526.34" y="-7" font-family="Helvetica,sans-Serif" font-size="10.00">_factory.cpp</text>
</a>
</g>
</g>
<!-- Node1&#45;&gt;Node10 -->
<g id="edge20_Node000001_Node000010" class="edge">
<title>Node1&#45;&gt;Node10</title>
<g id="a_edge20_Node000001_Node000010"><a xlink:title=" ">
<path fill="none" stroke="#63b8ff" d="M461.16,-135.73C469.88,-127.39 479.27,-117.35 486.34,-107 503.39,-82.07 515.82,-48.7 521.98,-30.08"/>
<polygon fill="#63b8ff" stroke="#63b8ff" points="458.7,-133.23 453.73,-142.59 463.45,-138.37 458.7,-133.23"/>
</a>
</g>
</g>
<!-- Node17 -->
<g id="Node000017" class="node">
<title>Node17</title>
<g id="a_Node000017"><a xlink:href="../../d4/d79/plan__window__function_8cpp.html" target="_top" xlink:title=" ">
<polygon fill="white" stroke="#666666" points="2265.84,-30 2128.84,-30 2128.84,0 2265.84,0 2265.84,-30"/>
<text text-anchor="start" x="2136.84" y="-18" font-family="Helvetica,sans-Serif" font-size="10.00">src/planner/plan_window</text>
<text text-anchor="middle" x="2197.34" y="-7" font-family="Helvetica,sans-Serif" font-size="10.00">_function.cpp</text>
</a>
</g>
</g>
<!-- Node1&#45;&gt;Node17 -->
<g id="edge21_Node000001_Node000017" class="edge">
<title>Node1&#45;&gt;Node17</title>
<g id="a_edge21_Node000001_Node000017"><a xlink:title=" ">
<path fill="none" stroke="#63b8ff" d="M507.79,-154.67C668.28,-149.14 1069.48,-133.66 1404.34,-107 1722.95,-81.64 1802.96,-75.37 2119.34,-30 2122.34,-29.57 2125.39,-29.11 2128.48,-28.63"/>
<polygon fill="#63b8ff" stroke="#63b8ff" points="507.45,-151.18 497.57,-155.02 507.69,-158.18 507.45,-151.18"/>
</a>
</g>
</g>
<!-- Node6&#45;&gt;Node2 -->
<g id="edge6_Node000006_Node000002" class="edge">
<title>Node6&#45;&gt;Node2</title>
<g id="a_edge6_Node000006_Node000002"><a xlink:title=" ">
<path fill="none" stroke="#63b8ff" d="M298.3,-63.43C255.6,-52.48 205.3,-39.58 167.95,-30"/>
<polygon fill="#63b8ff" stroke="#63b8ff" points="297.57,-66.86 308.13,-65.96 299.31,-60.08 297.57,-66.86"/>
</a>
</g>
</g>
<!-- Node6&#45;&gt;Node5 -->
<g id="edge7_Node000006_Node000005" class="edge">
<title>Node6&#45;&gt;Node5</title>
<g id="a_edge7_Node000006_Node000005"><a xlink:title=" ">
<path fill="none" stroke="#63b8ff" d="M382.62,-55.66C382.11,-46.76 381.57,-37.42 381.15,-30.04"/>
<polygon fill="#63b8ff" stroke="#63b8ff" points="379.14,-55.99 383.2,-65.77 386.12,-55.59 379.14,-55.99"/>
</a>
</g>
</g>
<!-- Node8 -->
<g id="Node000008" class="node">
<title>Node8</title>
<g id="a_Node000008"><a xlink:href="../../dc/de0/bustub__ddl_8cpp.html" target="_top" xlink:title=" ">
<polygon fill="white" stroke="#666666" points="760.84,-24.5 607.84,-24.5 607.84,-5.5 760.84,-5.5 760.84,-24.5"/>
<text text-anchor="middle" x="684.34" y="-12.5" font-family="Helvetica,sans-Serif" font-size="10.00">src/common/bustub_ddl.cpp</text>
</a>
</g>
</g>
<!-- Node7&#45;&gt;Node8 -->
<g id="edge9_Node000007_Node000008" class="edge">
<title>Node7&#45;&gt;Node8</title>
<g id="a_edge9_Node000007_Node000008"><a xlink:title=" ">
<path fill="none" stroke="#63b8ff" d="M1276.55,-80.63C1170.35,-72.32 952.69,-53.97 769.34,-30 757.48,-28.45 744.73,-26.5 732.8,-24.55"/>
<polygon fill="#63b8ff" stroke="#63b8ff" points="1276.54,-84.14 1286.78,-81.42 1277.09,-77.16 1276.54,-84.14"/>
</a>
</g>
</g>
<!-- Node9 -->
<g id="Node000009" class="node">
<title>Node9</title>
<g id="a_Node000009"><a xlink:href="../../da/d08/bustub__instance_8cpp.html" target="_top" xlink:title=" ">
<polygon fill="white" stroke="#666666" points="957.84,-24.5 778.84,-24.5 778.84,-5.5 957.84,-5.5 957.84,-24.5"/>
<text text-anchor="middle" x="868.34" y="-12.5" font-family="Helvetica,sans-Serif" font-size="10.00">src/common/bustub_instance.cpp</text>
</a>
</g>
</g>
<!-- Node7&#45;&gt;Node9 -->
<g id="edge10_Node000007_Node000009" class="edge">
<title>Node7&#45;&gt;Node9</title>
<g id="a_edge10_Node000007_Node000009"><a xlink:title=" ">
<path fill="none" stroke="#63b8ff" d="M1276.53,-75.98C1183.87,-62.36 1014.95,-37.54 926.25,-24.51"/>
<polygon fill="#63b8ff" stroke="#63b8ff" points="1276.22,-79.47 1286.62,-77.46 1277.23,-72.54 1276.22,-79.47"/>
</a>
</g>
</g>
<!-- Node7&#45;&gt;Node10 -->
<g id="edge11_Node000007_Node000010" class="edge">
<title>Node7&#45;&gt;Node10</title>
<g id="a_edge11_Node000007_Node000010"><a xlink:title=" ">
<path fill="none" stroke="#63b8ff" d="M1276.44,-83.22C1146.99,-78.1 847.68,-63.44 598.34,-30 595.56,-29.63 592.73,-29.22 589.88,-28.77"/>
<polygon fill="#63b8ff" stroke="#63b8ff" points="1276.45,-86.72 1286.58,-83.61 1276.72,-79.73 1276.45,-86.72"/>
</a>
</g>
</g>
<!-- Node11 -->
<g id="Node000011" class="node">
<title>Node11</title>
<g id="a_Node000011"><a xlink:href="../../da/de4/plan__aggregation_8cpp.html" target="_top" xlink:title=" ">
<polygon fill="white" stroke="#666666" points="1154.84,-24.5 975.84,-24.5 975.84,-5.5 1154.84,-5.5 1154.84,-24.5"/>
<text text-anchor="middle" x="1065.34" y="-12.5" font-family="Helvetica,sans-Serif" font-size="10.00">src/planner/plan_aggregation.cpp</text>
</a>
</g>
</g>
<!-- Node7&#45;&gt;Node11 -->
<g id="edge12_Node000007_Node000011" class="edge">
<title>Node7&#45;&gt;Node11</title>
<g id="a_edge12_Node000007_Node000011"><a xlink:title=" ">
<path fill="none" stroke="#63b8ff" d="M1277.07,-69.32C1221.55,-55.33 1143.48,-35.68 1099.31,-24.55"/>
<polygon fill="#63b8ff" stroke="#63b8ff" points="1276.26,-72.72 1286.81,-71.77 1277.97,-65.93 1276.26,-72.72"/>
</a>
</g>
</g>
<!-- Node12 -->
<g id="Node000012" class="node">
<title>Node12</title>
<g id="a_Node000012"><a xlink:href="../../d0/d29/plan__expression_8cpp.html" target="_top" xlink:title=" ">
<polygon fill="white" stroke="#666666" points="1345.84,-24.5 1172.84,-24.5 1172.84,-5.5 1345.84,-5.5 1345.84,-24.5"/>
<text text-anchor="middle" x="1259.34" y="-12.5" font-family="Helvetica,sans-Serif" font-size="10.00">src/planner/plan_expression.cpp</text>
</a>
</g>
</g>
<!-- Node7&#45;&gt;Node12 -->
<g id="edge13_Node000007_Node000012" class="edge">
<title>Node7&#45;&gt;Node12</title>
<g id="a_edge13_Node000007_Node000012"><a xlink:title=" ">
<path fill="none" stroke="#63b8ff" d="M1316.93,-64.81C1301.17,-51.45 1281.48,-34.76 1269.68,-24.77"/>
<polygon fill="#63b8ff" stroke="#63b8ff" points="1314.85,-67.64 1324.75,-71.44 1319.38,-62.3 1314.85,-67.64"/>
</a>
</g>
</g>
<!-- Node13 -->
<g id="Node000013" class="node">
<title>Node13</title>
<g id="a_Node000013"><a xlink:href="../../d6/da3/plan__func__call_8cpp.html" target="_top" xlink:title=" ">
<polygon fill="white" stroke="#666666" points="1484.84,-30 1363.84,-30 1363.84,0 1484.84,0 1484.84,-30"/>
<text text-anchor="start" x="1371.84" y="-18" font-family="Helvetica,sans-Serif" font-size="10.00">src/planner/plan_func</text>
<text text-anchor="middle" x="1424.34" y="-7" font-family="Helvetica,sans-Serif" font-size="10.00">_call.cpp</text>
</a>
</g>
</g>
<!-- Node7&#45;&gt;Node13 -->
<g id="edge14_Node000007_Node000013" class="edge">
<title>Node7&#45;&gt;Node13</title>
<g id="a_edge14_Node000007_Node000013"><a xlink:title=" ">
<path fill="none" stroke="#63b8ff" d="M1366.05,-64.81C1379.45,-53.59 1395.65,-40.02 1407.57,-30.04"/>
<polygon fill="#63b8ff" stroke="#63b8ff" points="1363.56,-62.33 1358.14,-71.44 1368.05,-67.7 1363.56,-62.33"/>
</a>
</g>
</g>
<!-- Node14 -->
<g id="Node000014" class="node">
<title>Node14</title>
<g id="a_Node000014"><a xlink:href="../../d2/dbb/plan__insert_8cpp.html" target="_top" xlink:title=" ">
<polygon fill="white" stroke="#666666" points="1651.34,-24.5 1503.34,-24.5 1503.34,-5.5 1651.34,-5.5 1651.34,-24.5"/>
<text text-anchor="middle" x="1577.34" y="-12.5" font-family="Helvetica,sans-Serif" font-size="10.00">src/planner/plan_insert.cpp</text>
</a>
</g>
</g>
<!-- Node7&#45;&gt;Node14 -->
<g id="edge15_Node000007_Node000014" class="edge">
<title>Node7&#45;&gt;Node14</title>
<g id="a_edge15_Node000007_Node000014"><a xlink:title=" ">
<path fill="none" stroke="#63b8ff" d="M1398.9,-68.55C1446.16,-54.63 1511.15,-35.49 1548.25,-24.57"/>
<polygon fill="#63b8ff" stroke="#63b8ff" points="1397.7,-65.25 1389.1,-71.44 1399.68,-71.97 1397.7,-65.25"/>
</a>
</g>
</g>
<!-- Node15 -->
<g id="Node000015" class="node">
<title>Node15</title>
<g id="a_Node000015"><a xlink:href="../../d9/df0/plan__select_8cpp.html" target="_top" xlink:title=" ">
<polygon fill="white" stroke="#666666" points="1818.84,-24.5 1669.84,-24.5 1669.84,-5.5 1818.84,-5.5 1818.84,-24.5"/>
<text text-anchor="middle" x="1744.34" y="-12.5" font-family="Helvetica,sans-Serif" font-size="10.00">src/planner/plan_select.cpp</text>
</a>
</g>
</g>
<!-- Node7&#45;&gt;Node15 -->
<g id="edge16_Node000007_Node000015" class="edge">
<title>Node7&#45;&gt;Node15</title>
<g id="a_edge16_Node000007_Node000015"><a xlink:title=" ">
<path fill="none" stroke="#63b8ff" d="M1406.12,-74.33C1486.58,-60.45 1622.09,-37.08 1694.76,-24.55"/>
<polygon fill="#63b8ff" stroke="#63b8ff" points="1405.37,-70.91 1396.11,-76.05 1406.56,-77.8 1405.37,-70.91"/>
</a>
</g>
</g>
<!-- Node16 -->
<g id="Node000016" class="node">
<title>Node16</title>
<g id="a_Node000016"><a xlink:href="../../d8/d40/plan__table__ref_8cpp.html" target="_top" xlink:title=" ">
<polygon fill="white" stroke="#666666" points="1961.84,-30 1836.84,-30 1836.84,0 1961.84,0 1961.84,-30"/>
<text text-anchor="start" x="1844.84" y="-18" font-family="Helvetica,sans-Serif" font-size="10.00">src/planner/plan_table</text>
<text text-anchor="middle" x="1899.34" y="-7" font-family="Helvetica,sans-Serif" font-size="10.00">_ref.cpp</text>
</a>
</g>
</g>
<!-- Node7&#45;&gt;Node16 -->
<g id="edge17_Node000007_Node000016" class="edge">
<title>Node7&#45;&gt;Node16</title>
<g id="a_edge17_Node000007_Node000016"><a xlink:title=" ">
<path fill="none" stroke="#63b8ff" d="M1406.1,-79.81C1499.62,-71.2 1677.79,-53.38 1828.34,-30 1831.07,-29.58 1833.86,-29.12 1836.67,-28.64"/>
<polygon fill="#63b8ff" stroke="#63b8ff" points="1405.59,-76.34 1395.95,-80.74 1406.22,-83.31 1405.59,-76.34"/>
</a>
</g>
</g>
<!-- Node7&#45;&gt;Node17 -->
<g id="edge18_Node000007_Node000017" class="edge">
<title>Node7&#45;&gt;Node17</title>
<g id="a_edge18_Node000007_Node000017"><a xlink:title=" ">
<path fill="none" stroke="#63b8ff" d="M1406.33,-83.2C1540.18,-77.95 1856.12,-62.92 2119.34,-30 2122.34,-29.62 2125.41,-29.21 2128.5,-28.77"/>
<polygon fill="#63b8ff" stroke="#63b8ff" points="1406.1,-79.71 1396.24,-83.59 1406.37,-86.7 1406.1,-79.71"/>
</a>
</g>
</g>
<!-- Node18 -->
<g id="Node000018" class="node">
<title>Node18</title>
<g id="a_Node000018"><a xlink:href="../../de/d3d/planner_8cpp.html" target="_top" xlink:title=" ">
<polygon fill="white" stroke="#666666" points="2110.34,-24.5 1980.34,-24.5 1980.34,-5.5 2110.34,-5.5 2110.34,-24.5"/>
<text text-anchor="middle" x="2045.34" y="-12.5" font-family="Helvetica,sans-Serif" font-size="10.00">src/planner/planner.cpp</text>
</a>
</g>
</g>
<!-- Node7&#45;&gt;Node18 -->
<g id="edge19_Node000007_Node000018" class="edge">
<title>Node7&#45;&gt;Node18</title>
<g id="a_edge19_Node000007_Node000018"><a xlink:title=" ">
<path fill="none" stroke="#63b8ff" d="M1405.89,-81.93C1520.24,-75.14 1765.73,-58.44 1971.34,-30 1982.09,-28.51 1993.65,-26.52 2004.36,-24.5"/>
<polygon fill="#63b8ff" stroke="#63b8ff" points="1405.68,-78.44 1395.9,-82.52 1406.09,-85.43 1405.68,-78.44"/>
</a>
</g>
</g>
</g>
</svg>
