<?xml version="1.0" encoding="UTF-8" standalone="no"?>
<!DOCTYPE svg PUBLIC "-//W3C//DTD SVG 1.1//EN"
 "http://www.w3.org/Graphics/SVG/1.1/DTD/svg11.dtd">
<!-- Generated by graphviz version 2.43.0 (0)
 -->
<!-- Title: bustub::Exception Pages: 1 -->
<svg width="364pt" height="137pt"
 viewBox="0.00 0.00 363.50 137.00" xmlns="http://www.w3.org/2000/svg" xmlns:xlink="http://www.w3.org/1999/xlink">
<g id="graph0" class="graph" transform="scale(1 1) rotate(0) translate(4 133)">
<title>bustub::Exception</title>
<!-- Node1 -->
<g id="Node000001" class="node">
<title>Node1</title>
<g id="a_Node000001"><a xlink:title=" ">
<polygon fill="#999999" stroke="#666666" points="220.5,-74 116.5,-74 116.5,-55 220.5,-55 220.5,-74"/>
<text text-anchor="middle" x="168.5" y="-62" font-family="Helvetica,sans-Serif" font-size="10.00">bustub::Exception</text>
</a>
</g>
</g>
<!-- Node3 -->
<g id="Node000003" class="node">
<title>Node3</title>
<g id="a_Node000003"><a xlink:href="../../d2/d07/classbustub_1_1ExecutionException.html" target="_top" xlink:title=" ">
<polygon fill="white" stroke="#666666" points="151,-19 0,-19 0,0 151,0 151,-19"/>
<text text-anchor="middle" x="75.5" y="-7" font-family="Helvetica,sans-Serif" font-size="10.00">bustub::ExecutionException</text>
</a>
</g>
</g>
<!-- Node1&#45;&gt;Node3 -->
<g id="edge2_Node000001_Node000003" class="edge">
<title>Node1&#45;&gt;Node3</title>
<g id="a_edge2_Node000001_Node000003"><a xlink:title=" ">
<path fill="none" stroke="#63b8ff" d="M144.75,-49.97C127.75,-40.28 105.37,-27.52 90.71,-19.17"/>
<polygon fill="#63b8ff" stroke="#63b8ff" points="143.14,-53.07 153.56,-54.98 146.6,-46.99 143.14,-53.07"/>
</a>
</g>
</g>
<!-- Node4 -->
<g id="Node000004" class="node">
<title>Node4</title>
<g id="a_Node000004"><a xlink:href="../../d9/df6/classbustub_1_1NotImplementedException.html" target="_top" xlink:title=" ">
<polygon fill="white" stroke="#666666" points="355.5,-19 169.5,-19 169.5,0 355.5,0 355.5,-19"/>
<text text-anchor="middle" x="262.5" y="-7" font-family="Helvetica,sans-Serif" font-size="10.00">bustub::NotImplementedException</text>
</a>
</g>
</g>
<!-- Node1&#45;&gt;Node4 -->
<g id="edge3_Node000001_Node000004" class="edge">
<title>Node1&#45;&gt;Node4</title>
<g id="a_edge3_Node000001_Node000004"><a xlink:title=" ">
<path fill="none" stroke="#63b8ff" d="M192.5,-49.97C209.69,-40.28 232.31,-27.52 247.12,-19.17"/>
<polygon fill="#63b8ff" stroke="#63b8ff" points="190.59,-47.02 183.6,-54.98 194.03,-53.12 190.59,-47.02"/>
</a>
</g>
</g>
<!-- Node2 -->
<g id="Node000002" class="node">
<title>Node2</title>
<g id="a_Node000002"><a xlink:title=" ">
<polygon fill="white" stroke="#666666" points="220.5,-129 116.5,-129 116.5,-110 220.5,-110 220.5,-129"/>
<text text-anchor="middle" x="168.5" y="-117" font-family="Helvetica,sans-Serif" font-size="10.00">std::runtime_error</text>
</a>
</g>
</g>
<!-- Node2&#45;&gt;Node1 -->
<g id="edge1_Node000001_Node000002" class="edge">
<title>Node2&#45;&gt;Node1</title>
<g id="a_edge1_Node000001_Node000002"><a xlink:title=" ">
<path fill="none" stroke="#63b8ff" d="M168.5,-99.66C168.5,-90.93 168.5,-80.99 168.5,-74.09"/>
<polygon fill="#63b8ff" stroke="#63b8ff" points="165,-99.75 168.5,-109.75 172,-99.75 165,-99.75"/>
</a>
</g>
</g>
</g>
</svg>
