<?xml version="1.0" encoding="UTF-8" standalone="no"?>
<!DOCTYPE svg PUBLIC "-//W3C//DTD SVG 1.1//EN"
 "http://www.w3.org/Graphics/SVG/1.1/DTD/svg11.dtd">
<!-- Generated by graphviz version 2.43.0 (0)
 -->
<!-- Title: src/storage/page/extendible_htable_directory_page.cpp Pages: 1 -->
<svg width="1621pt" height="500pt"
 viewBox="0.00 0.00 1620.50 500.00" xmlns="http://www.w3.org/2000/svg" xmlns:xlink="http://www.w3.org/1999/xlink">
<g id="graph0" class="graph" transform="scale(1 1) rotate(0) translate(4 496)">
<title>src/storage/page/extendible_htable_directory_page.cpp</title>
<!-- Node1 -->
<g id="Node000001" class="node">
<title>Node1</title>
<g id="a_Node000001"><a xlink:title=" ">
<polygon fill="#999999" stroke="#666666" points="1506,-492 1354,-492 1354,-462 1506,-462 1506,-492"/>
<text text-anchor="start" x="1362" y="-480" font-family="Helvetica,sans-Serif" font-size="10.00">src/storage/page/extendible</text>
<text text-anchor="middle" x="1430" y="-469" font-family="Helvetica,sans-Serif" font-size="10.00">_htable_directory_page.cpp</text>
</a>
</g>
</g>
<!-- Node2 -->
<g id="Node000002" class="node">
<title>Node2</title>
<g id="a_Node000002"><a xlink:href="../../da/d0c/extendible__htable__directory__page_8h.html" target="_top" xlink:title=" ">
<polygon fill="white" stroke="#666666" points="1317,-426 1177,-426 1177,-396 1317,-396 1317,-426"/>
<text text-anchor="start" x="1185" y="-414" font-family="Helvetica,sans-Serif" font-size="10.00">storage/page/extendible</text>
<text text-anchor="middle" x="1247" y="-403" font-family="Helvetica,sans-Serif" font-size="10.00">_htable_directory_page.h</text>
</a>
</g>
</g>
<!-- Node1&#45;&gt;Node2 -->
<g id="edge1_Node000001_Node000002" class="edge">
<title>Node1&#45;&gt;Node2</title>
<g id="a_edge1_Node000001_Node000002"><a xlink:title=" ">
<path fill="none" stroke="#63b8ff" d="M1389.84,-461.95C1362.43,-452.37 1325.92,-439.6 1296.68,-429.37"/>
<polygon fill="#63b8ff" stroke="#63b8ff" points="1297.66,-426.01 1287.07,-426.01 1295.35,-432.62 1297.66,-426.01"/>
</a>
</g>
</g>
<!-- Node3 -->
<g id="Node000003" class="node">
<title>Node3</title>
<g id="a_Node000003"><a xlink:title=" ">
<polygon fill="#e0e0e0" stroke="#999999" points="118,-74 66,-74 66,-55 118,-55 118,-74"/>
<text text-anchor="middle" x="92" y="-62" font-family="Helvetica,sans-Serif" font-size="10.00">cassert</text>
</a>
</g>
</g>
<!-- Node1&#45;&gt;Node3 -->
<g id="edge65_Node000001_Node000003" class="edge">
<title>Node1&#45;&gt;Node3</title>
<g id="a_edge65_Node000001_Node000003"><a xlink:title=" ">
<path fill="none" stroke="#63b8ff" d="M1353.87,-473.11C1057.89,-461.37 0,-414.61 0,-346 0,-346 0,-346 0,-173.5 0,-131.45 40.91,-97.46 68.17,-79.48"/>
<polygon fill="#63b8ff" stroke="#63b8ff" points="70.23,-82.31 76.81,-74 66.49,-76.4 70.23,-82.31"/>
</a>
</g>
</g>
<!-- Node7 -->
<g id="Node000007" class="node">
<title>Node7</title>
<g id="a_Node000007"><a xlink:href="../../db/d16/config_8h.html" target="_top" xlink:title=" ">
<polygon fill="white" stroke="#666666" points="1297.5,-184 1196.5,-184 1196.5,-165 1297.5,-165 1297.5,-184"/>
<text text-anchor="middle" x="1247" y="-172" font-family="Helvetica,sans-Serif" font-size="10.00">common/config.h</text>
</a>
</g>
</g>
<!-- Node1&#45;&gt;Node7 -->
<g id="edge68_Node000001_Node000007" class="edge">
<title>Node1&#45;&gt;Node7</title>
<g id="a_edge68_Node000001_Node000007"><a xlink:title=" ">
<path fill="none" stroke="#63b8ff" d="M1422.54,-461.7C1408.66,-435.31 1377.7,-377.34 1349,-330 1318.01,-278.89 1278.22,-220.5 1258.76,-192.38"/>
<polygon fill="#63b8ff" stroke="#63b8ff" points="1261.57,-190.28 1252.99,-184.06 1255.82,-194.27 1261.57,-190.28"/>
</a>
</g>
</g>
<!-- Node10 -->
<g id="Node000010" class="node">
<title>Node10</title>
<g id="a_Node000010"><a xlink:title=" ">
<polygon fill="#e0e0e0" stroke="#999999" points="1239,-19 1189,-19 1189,0 1239,0 1239,-19"/>
<text text-anchor="middle" x="1214" y="-7" font-family="Helvetica,sans-Serif" font-size="10.00">cstdint</text>
</a>
</g>
</g>
<!-- Node1&#45;&gt;Node10 -->
<g id="edge67_Node000001_Node000010" class="edge">
<title>Node1&#45;&gt;Node10</title>
<g id="a_edge67_Node000001_Node000010"><a xlink:title=" ">
<path fill="none" stroke="#63b8ff" d="M1433.48,-461.67C1438.97,-437.83 1449,-388.43 1449,-346 1449,-346 1449,-346 1449,-118.5 1449,-31.73 1315.1,-14.42 1249.44,-11.15"/>
<polygon fill="#63b8ff" stroke="#63b8ff" points="1249.29,-7.64 1239.15,-10.72 1249,-14.63 1249.29,-7.64"/>
</a>
</g>
</g>
<!-- Node35 -->
<g id="Node000035" class="node">
<title>Node35</title>
<g id="a_Node000035"><a xlink:title=" ">
<polygon fill="#e0e0e0" stroke="#999999" points="1541,-420.5 1477,-420.5 1477,-401.5 1541,-401.5 1541,-420.5"/>
<text text-anchor="middle" x="1509" y="-408.5" font-family="Helvetica,sans-Serif" font-size="10.00">algorithm</text>
</a>
</g>
</g>
<!-- Node1&#45;&gt;Node35 -->
<g id="edge64_Node000001_Node000035" class="edge">
<title>Node1&#45;&gt;Node35</title>
<g id="a_edge64_Node000001_Node000035"><a xlink:title=" ">
<path fill="none" stroke="#63b8ff" d="M1447.53,-461.8C1460.21,-451.53 1477.32,-437.67 1490.26,-427.18"/>
<polygon fill="#63b8ff" stroke="#63b8ff" points="1492.52,-429.86 1498.08,-420.84 1488.11,-424.42 1492.52,-429.86"/>
</a>
</g>
</g>
<!-- Node36 -->
<g id="Node000036" class="node">
<title>Node36</title>
<g id="a_Node000036"><a xlink:title=" ">
<polygon fill="#e0e0e0" stroke="#999999" points="1612.5,-420.5 1559.5,-420.5 1559.5,-401.5 1612.5,-401.5 1612.5,-420.5"/>
<text text-anchor="middle" x="1586" y="-408.5" font-family="Helvetica,sans-Serif" font-size="10.00">cstddef</text>
</a>
</g>
</g>
<!-- Node1&#45;&gt;Node36 -->
<g id="edge66_Node000001_Node000036" class="edge">
<title>Node1&#45;&gt;Node36</title>
<g id="a_edge66_Node000001_Node000036"><a xlink:title=" ">
<path fill="none" stroke="#63b8ff" d="M1464.23,-461.95C1491.59,-450.73 1529.57,-435.15 1555.81,-424.39"/>
<polygon fill="#63b8ff" stroke="#63b8ff" points="1557.32,-427.55 1565.24,-420.52 1554.66,-421.07 1557.32,-427.55"/>
</a>
</g>
</g>
<!-- Node2&#45;&gt;Node3 -->
<g id="edge2_Node000002_Node000003" class="edge">
<title>Node2&#45;&gt;Node3</title>
<g id="a_edge2_Node000002_Node000003"><a xlink:title=" ">
<path fill="none" stroke="#63b8ff" d="M1176.87,-409.9C925.43,-408.61 84,-396.04 84,-285.5 84,-285.5 84,-285.5 84,-173.5 84,-142.1 87.4,-105.71 89.77,-84.2"/>
<polygon fill="#63b8ff" stroke="#63b8ff" points="93.26,-84.5 90.92,-74.16 86.31,-83.7 93.26,-84.5"/>
</a>
</g>
</g>
<!-- Node4 -->
<g id="Node000004" class="node">
<title>Node4</title>
<g id="a_Node000004"><a xlink:title=" ">
<polygon fill="#e0e0e0" stroke="#999999" points="1373,-74 1323,-74 1323,-55 1373,-55 1373,-74"/>
<text text-anchor="middle" x="1348" y="-62" font-family="Helvetica,sans-Serif" font-size="10.00">climits</text>
</a>
</g>
</g>
<!-- Node2&#45;&gt;Node4 -->
<g id="edge3_Node000002_Node000004" class="edge">
<title>Node2&#45;&gt;Node4</title>
<g id="a_edge3_Node000002_Node000004"><a xlink:title=" ">
<path fill="none" stroke="#63b8ff" d="M1297.77,-395.9C1316.55,-388.22 1336.33,-376.75 1349,-360 1416.79,-270.36 1426.57,-215.19 1387,-110 1382.82,-98.89 1374.48,-88.75 1366.57,-80.96"/>
<polygon fill="#63b8ff" stroke="#63b8ff" points="1368.72,-78.19 1358.99,-74.01 1363.99,-83.35 1368.72,-78.19"/>
</a>
</g>
</g>
<!-- Node5 -->
<g id="Node000005" class="node">
<title>Node5</title>
<g id="a_Node000005"><a xlink:title=" ">
<polygon fill="#e0e0e0" stroke="#999999" points="1104.5,-74 1055.5,-74 1055.5,-55 1104.5,-55 1104.5,-74"/>
<text text-anchor="middle" x="1080" y="-62" font-family="Helvetica,sans-Serif" font-size="10.00">cstdlib</text>
</a>
</g>
</g>
<!-- Node2&#45;&gt;Node5 -->
<g id="edge4_Node000002_Node000005" class="edge">
<title>Node2&#45;&gt;Node5</title>
<g id="a_edge4_Node000002_Node000005"><a xlink:title=" ">
<path fill="none" stroke="#63b8ff" d="M1257.62,-395.86C1291.28,-349.23 1389.17,-198.25 1316,-110 1303.26,-94.64 1177.62,-77.37 1115.04,-69.63"/>
<polygon fill="#63b8ff" stroke="#63b8ff" points="1115.2,-66.13 1104.85,-68.39 1114.35,-73.08 1115.2,-66.13"/>
</a>
</g>
</g>
<!-- Node6 -->
<g id="Node000006" class="node">
<title>Node6</title>
<g id="a_Node000006"><a xlink:title=" ">
<polygon fill="#e0e0e0" stroke="#999999" points="539,-19 495,-19 495,0 539,0 539,-19"/>
<text text-anchor="middle" x="517" y="-7" font-family="Helvetica,sans-Serif" font-size="10.00">string</text>
</a>
</g>
</g>
<!-- Node2&#45;&gt;Node6 -->
<g id="edge5_Node000002_Node000006" class="edge">
<title>Node2&#45;&gt;Node6</title>
<g id="a_edge5_Node000002_Node000006"><a xlink:title=" ">
<path fill="none" stroke="#63b8ff" d="M1176.64,-409.12C948.79,-405.93 240.24,-393.43 143,-360 88.89,-341.39 38,-342.72 38,-285.5 38,-285.5 38,-285.5 38,-118.5 38,-89.04 34.25,-73.71 57,-55 89.96,-27.89 385.83,-15.11 484.87,-11.56"/>
<polygon fill="#63b8ff" stroke="#63b8ff" points="485.02,-15.06 494.89,-11.21 484.77,-8.06 485.02,-15.06"/>
</a>
</g>
</g>
<!-- Node2&#45;&gt;Node7 -->
<g id="edge6_Node000002_Node000007" class="edge">
<title>Node2&#45;&gt;Node7</title>
<g id="a_edge6_Node000002_Node000007"><a xlink:title=" ">
<path fill="none" stroke="#63b8ff" d="M1247,-395.68C1247,-355.25 1247,-240.17 1247,-194.51"/>
<polygon fill="#63b8ff" stroke="#63b8ff" points="1250.5,-194.26 1247,-184.26 1243.5,-194.26 1250.5,-194.26"/>
</a>
</g>
</g>
<!-- Node11 -->
<g id="Node000011" class="node">
<title>Node11</title>
<g id="a_Node000011"><a xlink:href="../../da/d28/generic__key_8h.html" target="_top" xlink:title=" ">
<polygon fill="white" stroke="#666666" points="1087,-360 965,-360 965,-330 1087,-330 1087,-360"/>
<text text-anchor="start" x="973" y="-348" font-family="Helvetica,sans-Serif" font-size="10.00">storage/index/generic</text>
<text text-anchor="middle" x="1026" y="-337" font-family="Helvetica,sans-Serif" font-size="10.00">_key.h</text>
</a>
</g>
</g>
<!-- Node2&#45;&gt;Node11 -->
<g id="edge10_Node000002_Node000011" class="edge">
<title>Node2&#45;&gt;Node11</title>
<g id="a_edge10_Node000002_Node000011"><a xlink:title=" ">
<path fill="none" stroke="#63b8ff" d="M1198.5,-395.95C1164.82,-386.2 1119.78,-373.16 1084.16,-362.84"/>
<polygon fill="#63b8ff" stroke="#63b8ff" points="1084.97,-359.43 1074.39,-360.01 1083.02,-366.16 1084.97,-359.43"/>
</a>
</g>
</g>
<!-- Node8 -->
<g id="Node000008" class="node">
<title>Node8</title>
<g id="a_Node000008"><a xlink:title=" ">
<polygon fill="#e0e0e0" stroke="#999999" points="972,-74 922,-74 922,-55 972,-55 972,-74"/>
<text text-anchor="middle" x="947" y="-62" font-family="Helvetica,sans-Serif" font-size="10.00">atomic</text>
</a>
</g>
</g>
<!-- Node7&#45;&gt;Node8 -->
<g id="edge7_Node000007_Node000008" class="edge">
<title>Node7&#45;&gt;Node8</title>
<g id="a_edge7_Node000007_Node000008"><a xlink:title=" ">
<path fill="none" stroke="#63b8ff" d="M1223.21,-164.94C1170.04,-145.79 1041.47,-99.51 980.35,-77.51"/>
<polygon fill="#63b8ff" stroke="#63b8ff" points="981.39,-74.16 970.79,-74.07 979.02,-80.75 981.39,-74.16"/>
</a>
</g>
</g>
<!-- Node9 -->
<g id="Node000009" class="node">
<title>Node9</title>
<g id="a_Node000009"><a xlink:title=" ">
<polygon fill="#e0e0e0" stroke="#999999" points="1307,-129 1257,-129 1257,-110 1307,-110 1307,-129"/>
<text text-anchor="middle" x="1282" y="-117" font-family="Helvetica,sans-Serif" font-size="10.00">chrono</text>
</a>
</g>
</g>
<!-- Node7&#45;&gt;Node9 -->
<g id="edge8_Node000007_Node000009" class="edge">
<title>Node7&#45;&gt;Node9</title>
<g id="a_edge8_Node000007_Node000009"><a xlink:title=" ">
<path fill="none" stroke="#63b8ff" d="M1252.78,-164.75C1257.62,-157.42 1264.68,-146.73 1270.64,-137.7"/>
<polygon fill="#63b8ff" stroke="#63b8ff" points="1273.74,-139.36 1276.33,-129.09 1267.9,-135.5 1273.74,-139.36"/>
</a>
</g>
</g>
<!-- Node7&#45;&gt;Node10 -->
<g id="edge9_Node000007_Node000010" class="edge">
<title>Node7&#45;&gt;Node10</title>
<g id="a_edge9_Node000007_Node000010"><a xlink:title=" ">
<path fill="none" stroke="#63b8ff" d="M1272.29,-164.87C1320.84,-146.95 1419.18,-103.32 1382,-55 1365.94,-34.14 1293.71,-21.04 1249.35,-14.81"/>
<polygon fill="#63b8ff" stroke="#63b8ff" points="1249.64,-11.32 1239.26,-13.45 1248.7,-18.26 1249.64,-11.32"/>
</a>
</g>
</g>
<!-- Node12 -->
<g id="Node000012" class="node">
<title>Node12</title>
<g id="a_Node000012"><a xlink:title=" ">
<polygon fill="#e0e0e0" stroke="#999999" points="640,-129 590,-129 590,-110 640,-110 640,-129"/>
<text text-anchor="middle" x="615" y="-117" font-family="Helvetica,sans-Serif" font-size="10.00">cstring</text>
</a>
</g>
</g>
<!-- Node11&#45;&gt;Node12 -->
<g id="edge11_Node000011_Node000012" class="edge">
<title>Node11&#45;&gt;Node12</title>
<g id="a_edge11_Node000011_Node000012"><a xlink:title=" ">
<path fill="none" stroke="#63b8ff" d="M964.96,-342.98C785.77,-338.48 268.23,-314.25 179,-184 174.23,-177.03 173.34,-171.27 179,-165 185.72,-157.56 476.98,-132.2 579.64,-123.48"/>
<polygon fill="#63b8ff" stroke="#63b8ff" points="580.14,-126.95 589.81,-122.62 579.55,-119.97 580.14,-126.95"/>
</a>
</g>
</g>
<!-- Node13 -->
<g id="Node000013" class="node">
<title>Node13</title>
<g id="a_Node000013"><a xlink:href="../../d2/d20/tuple_8h.html" target="_top" xlink:title=" ">
<polygon fill="white" stroke="#666666" points="1012,-294 894,-294 894,-275 1012,-275 1012,-294"/>
<text text-anchor="middle" x="953" y="-282" font-family="Helvetica,sans-Serif" font-size="10.00">storage/table/tuple.h</text>
</a>
</g>
</g>
<!-- Node11&#45;&gt;Node13 -->
<g id="edge12_Node000011_Node000013" class="edge">
<title>Node11&#45;&gt;Node13</title>
<g id="a_edge12_Node000011_Node000013"><a xlink:title=" ">
<path fill="none" stroke="#63b8ff" d="M1008.33,-329.84C997.3,-321 983.11,-309.63 971.87,-300.62"/>
<polygon fill="#63b8ff" stroke="#63b8ff" points="973.93,-297.79 963.94,-294.27 969.55,-303.25 973.93,-297.79"/>
</a>
</g>
</g>
<!-- Node31 -->
<g id="Node000031" class="node">
<title>Node31</title>
<g id="a_Node000031"><a xlink:href="../../d4/d3f/value_8h.html" target="_top" xlink:title=" ">
<polygon fill="white" stroke="#666666" points="1104.5,-184 1027.5,-184 1027.5,-165 1104.5,-165 1104.5,-184"/>
<text text-anchor="middle" x="1066" y="-172" font-family="Helvetica,sans-Serif" font-size="10.00">type/value.h</text>
</a>
</g>
</g>
<!-- Node11&#45;&gt;Node31 -->
<g id="edge63_Node000011_Node000031" class="edge">
<title>Node11&#45;&gt;Node31</title>
<g id="a_edge63_Node000011_Node000031"><a xlink:title=" ">
<path fill="none" stroke="#63b8ff" d="M1029.34,-329.92C1036.53,-299.65 1053.45,-228.35 1061.54,-194.27"/>
<polygon fill="#63b8ff" stroke="#63b8ff" points="1065.02,-194.79 1063.92,-184.25 1058.21,-193.18 1065.02,-194.79"/>
</a>
</g>
</g>
<!-- Node13&#45;&gt;Node6 -->
<g id="edge13_Node000013_Node000006" class="edge">
<title>Node13&#45;&gt;Node6</title>
<g id="a_edge13_Node000013_Node000006"><a xlink:title=" ">
<path fill="none" stroke="#63b8ff" d="M893.97,-281.6C758.6,-276.86 429.15,-263.17 321,-239 254.95,-224.24 217.25,-239.83 179,-184 159.11,-154.97 85.18,-163.4 188,-55 228.08,-12.75 409.86,-9.47 484.68,-9.97"/>
<polygon fill="#63b8ff" stroke="#63b8ff" points="484.88,-13.47 494.91,-10.06 484.94,-6.47 484.88,-13.47"/>
</a>
</g>
</g>
<!-- Node13&#45;&gt;Node7 -->
<g id="edge45_Node000013_Node000007" class="edge">
<title>Node13&#45;&gt;Node7</title>
<g id="a_edge45_Node000013_Node000007"><a xlink:title=" ">
<path fill="none" stroke="#63b8ff" d="M976.56,-274.84C1028.73,-255.68 1154.09,-209.63 1214.02,-187.62"/>
<polygon fill="#63b8ff" stroke="#63b8ff" points="1215.55,-190.78 1223.73,-184.05 1213.14,-184.21 1215.55,-190.78"/>
</a>
</g>
</g>
<!-- Node14 -->
<g id="Node000014" class="node">
<title>Node14</title>
<g id="a_Node000014"><a xlink:title=" ">
<polygon fill="#e0e0e0" stroke="#999999" points="235.5,-184 188.5,-184 188.5,-165 235.5,-165 235.5,-184"/>
<text text-anchor="middle" x="212" y="-172" font-family="Helvetica,sans-Serif" font-size="10.00">vector</text>
</a>
</g>
</g>
<!-- Node13&#45;&gt;Node14 -->
<g id="edge14_Node000013_Node000014" class="edge">
<title>Node13&#45;&gt;Node14</title>
<g id="a_edge14_Node000013_Node000014"><a xlink:title=" ">
<path fill="none" stroke="#63b8ff" d="M893.8,-283.96C790.25,-283.63 570.02,-277.88 389,-239 334.67,-227.33 274.35,-203.11 240.01,-188.19"/>
<polygon fill="#63b8ff" stroke="#63b8ff" points="241.2,-184.88 230.64,-184.06 238.38,-191.29 241.2,-184.88"/>
</a>
</g>
</g>
<!-- Node15 -->
<g id="Node000015" class="node">
<title>Node15</title>
<g id="a_Node000015"><a xlink:href="../../d7/de3/schema_8h.html" target="_top" xlink:title=" ">
<polygon fill="white" stroke="#666666" points="501.5,-239 398.5,-239 398.5,-220 501.5,-220 501.5,-239"/>
<text text-anchor="middle" x="450" y="-227" font-family="Helvetica,sans-Serif" font-size="10.00">catalog/schema.h</text>
</a>
</g>
</g>
<!-- Node13&#45;&gt;Node15 -->
<g id="edge15_Node000013_Node000015" class="edge">
<title>Node13&#45;&gt;Node15</title>
<g id="a_edge15_Node000013_Node000015"><a xlink:title=" ">
<path fill="none" stroke="#63b8ff" d="M893.82,-277.26C797.88,-267.16 609.33,-247.29 511.76,-237.01"/>
<polygon fill="#63b8ff" stroke="#63b8ff" points="512.06,-233.52 501.75,-235.95 511.33,-240.48 512.06,-233.52"/>
</a>
</g>
</g>
<!-- Node29 -->
<g id="Node000029" class="node">
<title>Node29</title>
<g id="a_Node000029"><a xlink:href="../../d8/d5f/rid_8h.html" target="_top" xlink:title=" ">
<polygon fill="white" stroke="#666666" points="995,-239 911,-239 911,-220 995,-220 995,-239"/>
<text text-anchor="middle" x="953" y="-227" font-family="Helvetica,sans-Serif" font-size="10.00">common/rid.h</text>
</a>
</g>
</g>
<!-- Node13&#45;&gt;Node29 -->
<g id="edge46_Node000013_Node000029" class="edge">
<title>Node13&#45;&gt;Node29</title>
<g id="a_edge46_Node000013_Node000029"><a xlink:title=" ">
<path fill="none" stroke="#63b8ff" d="M953,-274.75C953,-267.8 953,-257.85 953,-249.13"/>
<polygon fill="#63b8ff" stroke="#63b8ff" points="956.5,-249.09 953,-239.09 949.5,-249.09 956.5,-249.09"/>
</a>
</g>
</g>
<!-- Node13&#45;&gt;Node31 -->
<g id="edge51_Node000013_Node000031" class="edge">
<title>Node13&#45;&gt;Node31</title>
<g id="a_edge51_Node000013_Node000031"><a xlink:title=" ">
<path fill="none" stroke="#63b8ff" d="M963.37,-274.87C973.83,-266.07 990.34,-251.92 1004,-239 1020.5,-223.4 1038.56,-204.71 1050.9,-191.66"/>
<polygon fill="#63b8ff" stroke="#63b8ff" points="1053.49,-194.03 1057.79,-184.35 1048.39,-189.23 1053.49,-194.03"/>
</a>
</g>
</g>
<!-- Node15&#45;&gt;Node6 -->
<g id="edge18_Node000015_Node000006" class="edge">
<title>Node15&#45;&gt;Node6</title>
<g id="a_edge18_Node000015_Node000006"><a xlink:title=" ">
<path fill="none" stroke="#63b8ff" d="M416.54,-219.98C355.02,-203.56 227.9,-165.88 203,-129 184.59,-101.74 181.44,-79.83 203,-55 239.22,-13.28 411.64,-9.62 484.44,-9.99"/>
<polygon fill="#63b8ff" stroke="#63b8ff" points="484.81,-13.5 494.83,-10.08 484.86,-6.5 484.81,-13.5"/>
</a>
</g>
</g>
<!-- Node15&#45;&gt;Node14 -->
<g id="edge19_Node000015_Node000014" class="edge">
<title>Node15&#45;&gt;Node14</title>
<g id="a_edge19_Node000015_Node000014"><a xlink:title=" ">
<path fill="none" stroke="#63b8ff" d="M411.66,-219.98C371.39,-211.03 306.24,-196.55 250,-184 248.56,-183.68 247.08,-183.35 245.59,-183.02"/>
<polygon fill="#63b8ff" stroke="#63b8ff" points="246.24,-179.57 235.72,-180.81 244.71,-186.41 246.24,-179.57"/>
</a>
</g>
</g>
<!-- Node16 -->
<g id="Node000016" class="node">
<title>Node16</title>
<g id="a_Node000016"><a xlink:title=" ">
<polygon fill="#e0e0e0" stroke="#999999" points="617,-74 559,-74 559,-55 617,-55 617,-74"/>
<text text-anchor="middle" x="588" y="-62" font-family="Helvetica,sans-Serif" font-size="10.00">memory</text>
</a>
</g>
</g>
<!-- Node15&#45;&gt;Node16 -->
<g id="edge16_Node000015_Node000016" class="edge">
<title>Node15&#45;&gt;Node16</title>
<g id="a_edge16_Node000015_Node000016"><a xlink:title=" ">
<path fill="none" stroke="#63b8ff" d="M435.71,-219.84C404.39,-199.81 334.93,-148.99 367,-110 417.7,-48.35 465.22,-87.85 549.11,-73.93"/>
<polygon fill="#63b8ff" stroke="#63b8ff" points="549.79,-77.36 558.97,-72.07 548.5,-70.48 549.79,-77.36"/>
</a>
</g>
</g>
<!-- Node17 -->
<g id="Node000017" class="node">
<title>Node17</title>
<g id="a_Node000017"><a xlink:title=" ">
<polygon fill="#e0e0e0" stroke="#999999" points="506,-184 450,-184 450,-165 506,-165 506,-184"/>
<text text-anchor="middle" x="478" y="-172" font-family="Helvetica,sans-Serif" font-size="10.00">optional</text>
</a>
</g>
</g>
<!-- Node15&#45;&gt;Node17 -->
<g id="edge17_Node000015_Node000017" class="edge">
<title>Node15&#45;&gt;Node17</title>
<g id="a_edge17_Node000015_Node000017"><a xlink:title=" ">
<path fill="none" stroke="#63b8ff" d="M454.62,-219.75C458.46,-212.49 464.02,-201.95 468.76,-192.98"/>
<polygon fill="#63b8ff" stroke="#63b8ff" points="471.89,-194.57 473.46,-184.09 465.7,-191.3 471.89,-194.57"/>
</a>
</g>
</g>
<!-- Node18 -->
<g id="Node000018" class="node">
<title>Node18</title>
<g id="a_Node000018"><a xlink:href="../../dc/df8/column_8h.html" target="_top" xlink:title=" ">
<polygon fill="white" stroke="#666666" points="625.5,-184 524.5,-184 524.5,-165 625.5,-165 625.5,-184"/>
<text text-anchor="middle" x="575" y="-172" font-family="Helvetica,sans-Serif" font-size="10.00">catalog/column.h</text>
</a>
</g>
</g>
<!-- Node15&#45;&gt;Node18 -->
<g id="edge20_Node000015_Node000018" class="edge">
<title>Node15&#45;&gt;Node18</title>
<g id="a_edge20_Node000015_Node000018"><a xlink:title=" ">
<path fill="none" stroke="#63b8ff" d="M470.08,-219.98C490.37,-211.38 521.96,-197.99 545.17,-188.15"/>
<polygon fill="#63b8ff" stroke="#63b8ff" points="546.71,-191.3 554.55,-184.17 543.98,-184.85 546.71,-191.3"/>
</a>
</g>
</g>
<!-- Node21 -->
<g id="Node000021" class="node">
<title>Node21</title>
<g id="a_Node000021"><a xlink:href="../../dd/d2d/exception_8h.html" target="_top" xlink:title=" ">
<polygon fill="white" stroke="#666666" points="495.5,-129 376.5,-129 376.5,-110 495.5,-110 495.5,-129"/>
<text text-anchor="middle" x="436" y="-117" font-family="Helvetica,sans-Serif" font-size="10.00">common/exception.h</text>
</a>
</g>
</g>
<!-- Node15&#45;&gt;Node21 -->
<g id="edge43_Node000015_Node000021" class="edge">
<title>Node15&#45;&gt;Node21</title>
<g id="a_edge43_Node000015_Node000021"><a xlink:title=" ">
<path fill="none" stroke="#63b8ff" d="M447.89,-219.69C445.83,-210.75 442.75,-196.49 441,-184 438.91,-169.07 437.63,-152.04 436.89,-139.38"/>
<polygon fill="#63b8ff" stroke="#63b8ff" points="440.37,-138.97 436.35,-129.16 433.38,-139.33 440.37,-138.97"/>
</a>
</g>
</g>
<!-- Node25 -->
<g id="Node000025" class="node">
<title>Node25</title>
<g id="a_Node000025"><a xlink:href="../../df/def/type_8h.html" target="_top" xlink:title=" ">
<polygon fill="white" stroke="#666666" points="811,-74 739,-74 739,-55 811,-55 811,-74"/>
<text text-anchor="middle" x="775" y="-62" font-family="Helvetica,sans-Serif" font-size="10.00">type/type.h</text>
</a>
</g>
</g>
<!-- Node15&#45;&gt;Node25 -->
<g id="edge44_Node000015_Node000025" class="edge">
<title>Node15&#45;&gt;Node25</title>
<g id="a_edge44_Node000015_Node000025"><a xlink:title=" ">
<path fill="none" stroke="#63b8ff" d="M501.88,-224.52C606.65,-215.29 837.56,-188.52 885,-129 906.58,-101.93 860.33,-84.18 821.33,-74.5"/>
<polygon fill="#63b8ff" stroke="#63b8ff" points="821.64,-70.98 811.1,-72.1 820.04,-77.79 821.64,-70.98"/>
</a>
</g>
</g>
<!-- Node18&#45;&gt;Node6 -->
<g id="edge23_Node000018_Node000006" class="edge">
<title>Node18&#45;&gt;Node6</title>
<g id="a_edge23_Node000018_Node000006"><a xlink:title=" ">
<path fill="none" stroke="#63b8ff" d="M573.77,-164.67C572.41,-151.81 571.53,-127.54 581,-110 596.01,-82.21 643.61,-81.22 626,-55 608.97,-29.65 574.69,-18.73 549.09,-14.04"/>
<polygon fill="#63b8ff" stroke="#63b8ff" points="549.51,-10.56 539.08,-12.43 548.4,-17.47 549.51,-10.56"/>
</a>
</g>
</g>
<!-- Node18&#45;&gt;Node10 -->
<g id="edge21_Node000018_Node000010" class="edge">
<title>Node18&#45;&gt;Node10</title>
<g id="a_edge21_Node000018_Node000010"><a xlink:title=" ">
<path fill="none" stroke="#63b8ff" d="M600.06,-164.85C623.62,-156.48 659.69,-143.02 690,-129 706.06,-121.57 708.64,-116.75 725,-110 886.33,-43.5 1096.51,-20.05 1178.8,-13.07"/>
<polygon fill="#63b8ff" stroke="#63b8ff" points="1179.18,-16.55 1188.86,-12.25 1178.61,-9.57 1179.18,-16.55"/>
</a>
</g>
</g>
<!-- Node18&#45;&gt;Node16 -->
<g id="edge22_Node000018_Node000016" class="edge">
<title>Node18&#45;&gt;Node16</title>
<g id="a_edge22_Node000018_Node000016"><a xlink:title=" ">
<path fill="none" stroke="#63b8ff" d="M566.88,-164.95C556.4,-152.83 540.37,-129.91 548,-110 552.24,-98.94 560.64,-88.91 568.64,-81.18"/>
<polygon fill="#63b8ff" stroke="#63b8ff" points="571.25,-83.55 576.36,-74.27 566.58,-78.33 571.25,-83.55"/>
</a>
</g>
</g>
<!-- Node19 -->
<g id="Node000019" class="node">
<title>Node19</title>
<g id="a_Node000019"><a xlink:title=" ">
<polygon fill="#e0e0e0" stroke="#999999" points="876.5,-129 831.5,-129 831.5,-110 876.5,-110 876.5,-129"/>
<text text-anchor="middle" x="854" y="-117" font-family="Helvetica,sans-Serif" font-size="10.00">utility</text>
</a>
</g>
</g>
<!-- Node18&#45;&gt;Node19 -->
<g id="edge24_Node000018_Node000019" class="edge">
<title>Node18&#45;&gt;Node19</title>
<g id="a_edge24_Node000018_Node000019"><a xlink:title=" ">
<path fill="none" stroke="#63b8ff" d="M625.86,-165.58C673.81,-157.83 747.88,-145.15 821.43,-128.97"/>
<polygon fill="#63b8ff" stroke="#63b8ff" points="822.33,-132.35 831.33,-126.77 820.81,-125.52 822.33,-132.35"/>
</a>
</g>
</g>
<!-- Node20 -->
<g id="Node000020" class="node">
<title>Node20</title>
<g id="a_Node000020"><a xlink:title=" ">
<polygon fill="#e0e0e0" stroke="#999999" points="813.5,-129 734.5,-129 734.5,-110 813.5,-110 813.5,-129"/>
<text text-anchor="middle" x="774" y="-117" font-family="Helvetica,sans-Serif" font-size="10.00">fmt/format.h</text>
</a>
</g>
</g>
<!-- Node18&#45;&gt;Node20 -->
<g id="edge25_Node000018_Node000020" class="edge">
<title>Node18&#45;&gt;Node20</title>
<g id="a_edge25_Node000018_Node000020"><a xlink:title=" ">
<path fill="none" stroke="#63b8ff" d="M606.97,-164.98C640.82,-155.97 694.4,-141.7 731.71,-131.76"/>
<polygon fill="#63b8ff" stroke="#63b8ff" points="733.01,-135.04 741.78,-129.08 731.21,-128.27 733.01,-135.04"/>
</a>
</g>
</g>
<!-- Node18&#45;&gt;Node21 -->
<g id="edge26_Node000018_Node000021" class="edge">
<title>Node18&#45;&gt;Node21</title>
<g id="a_edge26_Node000018_Node000021"><a xlink:title=" ">
<path fill="none" stroke="#63b8ff" d="M552.67,-164.98C529.8,-156.27 494.04,-142.63 468.14,-132.75"/>
<polygon fill="#63b8ff" stroke="#63b8ff" points="469.33,-129.46 458.74,-129.17 466.84,-136 469.33,-129.46"/>
</a>
</g>
</g>
<!-- Node18&#45;&gt;Node25 -->
<g id="edge42_Node000018_Node000025" class="edge">
<title>Node18&#45;&gt;Node25</title>
<g id="a_edge42_Node000018_Node000025"><a xlink:title=" ">
<path fill="none" stroke="#63b8ff" d="M590.88,-164.85C613.37,-152.6 655.79,-129.53 692,-110 711.49,-99.49 733.58,-87.64 750.08,-78.82"/>
<polygon fill="#63b8ff" stroke="#63b8ff" points="751.91,-81.81 759.08,-74.01 748.61,-75.64 751.91,-81.81"/>
</a>
</g>
</g>
<!-- Node27 -->
<g id="Node000027" class="node">
<title>Node27</title>
<g id="a_Node000027"><a xlink:href="../../de/d3c/macros_8h.html" target="_top" xlink:title=" ">
<polygon fill="white" stroke="#666666" points="319.5,-129 212.5,-129 212.5,-110 319.5,-110 319.5,-129"/>
<text text-anchor="middle" x="266" y="-117" font-family="Helvetica,sans-Serif" font-size="10.00">common/macros.h</text>
</a>
</g>
</g>
<!-- Node18&#45;&gt;Node27 -->
<g id="edge38_Node000018_Node000027" class="edge">
<title>Node18&#45;&gt;Node27</title>
<g id="a_edge38_Node000018_Node000027"><a xlink:title=" ">
<path fill="none" stroke="#63b8ff" d="M525.35,-164.98C471.04,-155.67 383.98,-140.74 325.91,-130.78"/>
<polygon fill="#63b8ff" stroke="#63b8ff" points="326.23,-127.28 315.78,-129.04 325.04,-134.18 326.23,-127.28"/>
</a>
</g>
</g>
<!-- Node21&#45;&gt;Node5 -->
<g id="edge29_Node000021_Node000005" class="edge">
<title>Node21&#45;&gt;Node5</title>
<g id="a_edge29_Node000021_Node000005"><a xlink:title=" ">
<path fill="none" stroke="#63b8ff" d="M495.68,-113.71C595.95,-105.64 804.57,-88.78 981,-74 1002.32,-72.21 1026.22,-70.16 1045.2,-68.52"/>
<polygon fill="#63b8ff" stroke="#63b8ff" points="1045.52,-72.01 1055.18,-67.66 1044.92,-65.03 1045.52,-72.01"/>
</a>
</g>
</g>
<!-- Node21&#45;&gt;Node6 -->
<g id="edge33_Node000021_Node000006" class="edge">
<title>Node21&#45;&gt;Node6</title>
<g id="a_edge33_Node000021_Node000006"><a xlink:title=" ">
<path fill="none" stroke="#63b8ff" d="M426.86,-109.79C414.66,-97.08 395.91,-73 408,-55 425.03,-29.65 459.31,-18.73 484.91,-14.04"/>
<polygon fill="#63b8ff" stroke="#63b8ff" points="485.6,-17.47 494.92,-12.43 484.49,-10.56 485.6,-17.47"/>
</a>
</g>
</g>
<!-- Node21&#45;&gt;Node8 -->
<g id="edge27_Node000021_Node000008" class="edge">
<title>Node21&#45;&gt;Node8</title>
<g id="a_edge27_Node000021_Node000008"><a xlink:title=" ">
<path fill="none" stroke="#63b8ff" d="M495.62,-112.32C602.9,-101.19 825.35,-78.12 911.68,-69.16"/>
<polygon fill="#63b8ff" stroke="#63b8ff" points="912.16,-72.63 921.75,-68.12 911.44,-65.67 912.16,-72.63"/>
</a>
</g>
</g>
<!-- Node21&#45;&gt;Node16 -->
<g id="edge31_Node000021_Node000016" class="edge">
<title>Node21&#45;&gt;Node16</title>
<g id="a_edge31_Node000021_Node000016"><a xlink:title=" ">
<path fill="none" stroke="#63b8ff" d="M460.42,-109.98C485.72,-101.16 525.45,-87.31 553.86,-77.41"/>
<polygon fill="#63b8ff" stroke="#63b8ff" points="555.1,-80.68 563.39,-74.08 552.79,-74.07 555.1,-80.68"/>
</a>
</g>
</g>
<!-- Node22 -->
<g id="Node000022" class="node">
<title>Node22</title>
<g id="a_Node000022"><a xlink:title=" ">
<polygon fill="#e0e0e0" stroke="#999999" points="463,-74 417,-74 417,-55 463,-55 463,-74"/>
<text text-anchor="middle" x="440" y="-62" font-family="Helvetica,sans-Serif" font-size="10.00">cstdio</text>
</a>
</g>
</g>
<!-- Node21&#45;&gt;Node22 -->
<g id="edge28_Node000021_Node000022" class="edge">
<title>Node21&#45;&gt;Node22</title>
<g id="a_edge28_Node000021_Node000022"><a xlink:title=" ">
<path fill="none" stroke="#63b8ff" d="M436.66,-109.75C437.18,-102.8 437.94,-92.85 438.59,-84.13"/>
<polygon fill="#63b8ff" stroke="#63b8ff" points="442.09,-84.32 439.35,-74.09 435.11,-83.8 442.09,-84.32"/>
</a>
</g>
</g>
<!-- Node23 -->
<g id="Node000023" class="node">
<title>Node23</title>
<g id="a_Node000023"><a xlink:title=" ">
<polygon fill="#e0e0e0" stroke="#999999" points="541,-74 481,-74 481,-55 541,-55 541,-74"/>
<text text-anchor="middle" x="511" y="-62" font-family="Helvetica,sans-Serif" font-size="10.00">iostream</text>
</a>
</g>
</g>
<!-- Node21&#45;&gt;Node23 -->
<g id="edge30_Node000021_Node000023" class="edge">
<title>Node21&#45;&gt;Node23</title>
<g id="a_edge30_Node000021_Node000023"><a xlink:title=" ">
<path fill="none" stroke="#63b8ff" d="M448.05,-109.98C459.46,-101.92 476.83,-89.65 490.43,-80.03"/>
<polygon fill="#63b8ff" stroke="#63b8ff" points="492.58,-82.8 498.73,-74.17 488.54,-77.08 492.58,-82.8"/>
</a>
</g>
</g>
<!-- Node24 -->
<g id="Node000024" class="node">
<title>Node24</title>
<g id="a_Node000024"><a xlink:title=" ">
<polygon fill="#e0e0e0" stroke="#999999" points="360.5,-74 295.5,-74 295.5,-55 360.5,-55 360.5,-74"/>
<text text-anchor="middle" x="328" y="-62" font-family="Helvetica,sans-Serif" font-size="10.00">stdexcept</text>
</a>
</g>
</g>
<!-- Node21&#45;&gt;Node24 -->
<g id="edge32_Node000021_Node000024" class="edge">
<title>Node21&#45;&gt;Node24</title>
<g id="a_edge32_Node000021_Node000024"><a xlink:title=" ">
<path fill="none" stroke="#63b8ff" d="M418.65,-109.98C401.43,-101.54 374.8,-88.47 354.85,-78.68"/>
<polygon fill="#63b8ff" stroke="#63b8ff" points="356.19,-75.43 345.67,-74.17 353.1,-81.72 356.19,-75.43"/>
</a>
</g>
</g>
<!-- Node21&#45;&gt;Node25 -->
<g id="edge34_Node000021_Node000025" class="edge">
<title>Node21&#45;&gt;Node25</title>
<g id="a_edge34_Node000021_Node000025"><a xlink:title=" ">
<path fill="none" stroke="#63b8ff" d="M490.47,-109.98C556.6,-99.65 666.96,-82.39 729.01,-72.69"/>
<polygon fill="#63b8ff" stroke="#63b8ff" points="729.57,-76.15 738.91,-71.14 728.49,-69.23 729.57,-76.15"/>
</a>
</g>
</g>
<!-- Node25&#45;&gt;Node6 -->
<g id="edge36_Node000025_Node000006" class="edge">
<title>Node25&#45;&gt;Node6</title>
<g id="a_edge36_Node000025_Node000006"><a xlink:title=" ">
<path fill="none" stroke="#63b8ff" d="M738.85,-56.07C688.34,-45.7 597.4,-27.02 549.13,-17.1"/>
<polygon fill="#63b8ff" stroke="#63b8ff" points="549.73,-13.65 539.23,-15.07 548.32,-20.51 549.73,-13.65"/>
</a>
</g>
</g>
<!-- Node25&#45;&gt;Node10 -->
<g id="edge35_Node000025_Node000010" class="edge">
<title>Node25&#45;&gt;Node10</title>
<g id="a_edge35_Node000025_Node000010"><a xlink:title=" ">
<path fill="none" stroke="#63b8ff" d="M811.01,-57.14C815.71,-56.38 820.47,-55.64 825,-55 955,-36.53 1110.29,-20.6 1178.69,-13.89"/>
<polygon fill="#63b8ff" stroke="#63b8ff" points="1179.3,-17.35 1188.91,-12.89 1178.62,-10.38 1179.3,-17.35"/>
</a>
</g>
</g>
<!-- Node26 -->
<g id="Node000026" class="node">
<title>Node26</title>
<g id="a_Node000026"><a xlink:href="../../dc/df2/type__id_8h.html" target="_top" xlink:title=" ">
<polygon fill="white" stroke="#666666" points="818,-19 732,-19 732,0 818,0 818,-19"/>
<text text-anchor="middle" x="775" y="-7" font-family="Helvetica,sans-Serif" font-size="10.00">type/type_id.h</text>
</a>
</g>
</g>
<!-- Node25&#45;&gt;Node26 -->
<g id="edge37_Node000025_Node000026" class="edge">
<title>Node25&#45;&gt;Node26</title>
<g id="a_edge37_Node000025_Node000026"><a xlink:title=" ">
<path fill="none" stroke="#63b8ff" d="M775,-54.75C775,-47.8 775,-37.85 775,-29.13"/>
<polygon fill="#63b8ff" stroke="#63b8ff" points="778.5,-29.09 775,-19.09 771.5,-29.09 778.5,-29.09"/>
</a>
</g>
</g>
<!-- Node27&#45;&gt;Node3 -->
<g id="edge39_Node000027_Node000003" class="edge">
<title>Node27&#45;&gt;Node3</title>
<g id="a_edge39_Node000027_Node000003"><a xlink:title=" ">
<path fill="none" stroke="#63b8ff" d="M238.04,-109.98C208.1,-100.86 160.47,-86.36 127.8,-76.41"/>
<polygon fill="#63b8ff" stroke="#63b8ff" points="128.76,-73.04 118.18,-73.47 126.73,-79.74 128.76,-73.04"/>
</a>
</g>
</g>
<!-- Node27&#45;&gt;Node24 -->
<g id="edge41_Node000027_Node000024" class="edge">
<title>Node27&#45;&gt;Node24</title>
<g id="a_edge41_Node000027_Node000024"><a xlink:title=" ">
<path fill="none" stroke="#63b8ff" d="M275.96,-109.98C285.13,-102.15 298.94,-90.34 310.03,-80.86"/>
<polygon fill="#63b8ff" stroke="#63b8ff" points="312.53,-83.33 317.86,-74.17 307.98,-78.01 312.53,-83.33"/>
</a>
</g>
</g>
<!-- Node28 -->
<g id="Node000028" class="node">
<title>Node28</title>
<g id="a_Node000028"><a xlink:title=" ">
<polygon fill="#e0e0e0" stroke="#999999" points="277.5,-74 212.5,-74 212.5,-55 277.5,-55 277.5,-74"/>
<text text-anchor="middle" x="245" y="-62" font-family="Helvetica,sans-Serif" font-size="10.00">exception</text>
</a>
</g>
</g>
<!-- Node27&#45;&gt;Node28 -->
<g id="edge40_Node000027_Node000028" class="edge">
<title>Node27&#45;&gt;Node28</title>
<g id="a_edge40_Node000027_Node000028"><a xlink:title=" ">
<path fill="none" stroke="#63b8ff" d="M262.53,-109.75C259.72,-102.65 255.66,-92.4 252.15,-83.56"/>
<polygon fill="#63b8ff" stroke="#63b8ff" points="255.34,-82.1 248.4,-74.09 248.83,-84.68 255.34,-82.1"/>
</a>
</g>
</g>
<!-- Node29&#45;&gt;Node6 -->
<g id="edge49_Node000029_Node000006" class="edge">
<title>Node29&#45;&gt;Node6</title>
<g id="a_edge49_Node000029_Node000006"><a xlink:title=" ">
<path fill="none" stroke="#63b8ff" d="M950.63,-219.72C944.16,-197.54 924.03,-139 885,-110 828.23,-67.82 798.36,-92.11 730,-74 665.22,-56.84 590.3,-33.73 548.81,-20.65"/>
<polygon fill="#63b8ff" stroke="#63b8ff" points="549.85,-17.31 539.26,-17.63 547.74,-23.98 549.85,-17.31"/>
</a>
</g>
</g>
<!-- Node29&#45;&gt;Node7 -->
<g id="edge50_Node000029_Node000007" class="edge">
<title>Node29&#45;&gt;Node7</title>
<g id="a_edge50_Node000029_Node000007"><a xlink:title=" ">
<path fill="none" stroke="#63b8ff" d="M995.12,-220.91C1046.2,-211.7 1132.52,-196.14 1189.64,-185.84"/>
<polygon fill="#63b8ff" stroke="#63b8ff" points="1190.38,-189.26 1199.6,-184.05 1189.14,-182.37 1190.38,-189.26"/>
</a>
</g>
</g>
<!-- Node29&#45;&gt;Node10 -->
<g id="edge47_Node000029_Node000010" class="edge">
<title>Node29&#45;&gt;Node10</title>
<g id="a_edge47_Node000029_Node000010"><a xlink:title=" ">
<path fill="none" stroke="#63b8ff" d="M995.25,-227.61C1031.14,-224.58 1081.67,-214.64 1113,-184 1155.82,-142.12 1117.15,-103.72 1152,-55 1161.09,-42.29 1174.96,-31.85 1187.28,-24.28"/>
<polygon fill="#63b8ff" stroke="#63b8ff" points="1189.4,-27.1 1196.3,-19.06 1185.89,-21.04 1189.4,-27.1"/>
</a>
</g>
</g>
<!-- Node30 -->
<g id="Node000030" class="node">
<title>Node30</title>
<g id="a_Node000030"><a xlink:title=" ">
<polygon fill="#e0e0e0" stroke="#999999" points="1009,-184 953,-184 953,-165 1009,-165 1009,-184"/>
<text text-anchor="middle" x="981" y="-172" font-family="Helvetica,sans-Serif" font-size="10.00">sstream</text>
</a>
</g>
</g>
<!-- Node29&#45;&gt;Node30 -->
<g id="edge48_Node000029_Node000030" class="edge">
<title>Node29&#45;&gt;Node30</title>
<g id="a_edge48_Node000029_Node000030"><a xlink:title=" ">
<path fill="none" stroke="#63b8ff" d="M957.62,-219.75C961.46,-212.49 967.02,-201.95 971.76,-192.98"/>
<polygon fill="#63b8ff" stroke="#63b8ff" points="974.89,-194.57 976.46,-184.09 968.7,-191.3 974.89,-194.57"/>
</a>
</g>
</g>
<!-- Node31&#45;&gt;Node6 -->
<g id="edge54_Node000031_Node000006" class="edge">
<title>Node31&#45;&gt;Node6</title>
<g id="a_edge54_Node000031_Node000006"><a xlink:title=" ">
<path fill="none" stroke="#63b8ff" d="M1062.9,-164.91C1054.17,-142.12 1026.96,-80.19 981,-55 943.26,-34.31 647.79,-17.28 549.03,-12.11"/>
<polygon fill="#63b8ff" stroke="#63b8ff" points="549.2,-8.61 539.04,-11.59 548.84,-15.61 549.2,-8.61"/>
</a>
</g>
</g>
<!-- Node31&#45;&gt;Node12 -->
<g id="edge52_Node000031_Node000012" class="edge">
<title>Node31&#45;&gt;Node12</title>
<g id="a_edge52_Node000031_Node000012"><a xlink:title=" ">
<path fill="none" stroke="#63b8ff" d="M1027.26,-166.42C1024.13,-165.91 1021.02,-165.43 1018,-165 882.47,-145.54 720.23,-129.96 650.12,-123.6"/>
<polygon fill="#63b8ff" stroke="#63b8ff" points="650.34,-120.11 640.07,-122.69 649.71,-127.08 650.34,-120.11"/>
</a>
</g>
</g>
<!-- Node31&#45;&gt;Node16 -->
<g id="edge53_Node000031_Node000016" class="edge">
<title>Node31&#45;&gt;Node16</title>
<g id="a_edge53_Node000031_Node000016"><a xlink:title=" ">
<path fill="none" stroke="#63b8ff" d="M1045.75,-164.98C1012.69,-151.39 944.8,-124.83 885,-110 794.01,-87.44 684.32,-74.62 627.08,-68.98"/>
<polygon fill="#63b8ff" stroke="#63b8ff" points="627.31,-65.49 617.02,-68.01 626.64,-72.46 627.31,-65.49"/>
</a>
</g>
</g>
<!-- Node31&#45;&gt;Node19 -->
<g id="edge55_Node000031_Node000019" class="edge">
<title>Node31&#45;&gt;Node19</title>
<g id="a_edge55_Node000031_Node000019"><a xlink:title=" ">
<path fill="none" stroke="#63b8ff" d="M1031.94,-164.98C991.86,-154.97 925.81,-138.45 886.45,-128.61"/>
<polygon fill="#63b8ff" stroke="#63b8ff" points="887.12,-125.17 876.57,-126.14 885.42,-131.96 887.12,-125.17"/>
</a>
</g>
</g>
<!-- Node31&#45;&gt;Node20 -->
<g id="edge56_Node000031_Node000020" class="edge">
<title>Node31&#45;&gt;Node20</title>
<g id="a_edge56_Node000031_Node000020"><a xlink:title=" ">
<path fill="none" stroke="#63b8ff" d="M1027.22,-166.46C974.83,-156.95 881.38,-139.99 823.83,-129.55"/>
<polygon fill="#63b8ff" stroke="#63b8ff" points="824.34,-126.08 813.87,-127.74 823.09,-132.97 824.34,-126.08"/>
</a>
</g>
</g>
<!-- Node31&#45;&gt;Node25 -->
<g id="edge62_Node000031_Node000025" class="edge">
<title>Node31&#45;&gt;Node25</title>
<g id="a_edge62_Node000031_Node000025"><a xlink:title=" ">
<path fill="none" stroke="#63b8ff" d="M1059.15,-164.94C1047.52,-151.06 1022.5,-123.78 995,-110 939.29,-82.08 867.34,-71.68 821.18,-67.8"/>
<polygon fill="#63b8ff" stroke="#63b8ff" points="821.4,-64.31 811.16,-67.03 820.86,-71.29 821.4,-64.31"/>
</a>
</g>
</g>
<!-- Node32 -->
<g id="Node000032" class="node">
<title>Node32</title>
<g id="a_Node000032"><a xlink:href="../../d9/d86/limits_8h.html" target="_top" xlink:title=" ">
<polygon fill="white" stroke="#666666" points="1239,-129 1161,-129 1161,-110 1239,-110 1239,-129"/>
<text text-anchor="middle" x="1200" y="-117" font-family="Helvetica,sans-Serif" font-size="10.00">type/limits.h</text>
</a>
</g>
</g>
<!-- Node31&#45;&gt;Node32 -->
<g id="edge57_Node000031_Node000032" class="edge">
<title>Node31&#45;&gt;Node32</title>
<g id="a_edge57_Node000031_Node000032"><a xlink:title=" ">
<path fill="none" stroke="#63b8ff" d="M1087.53,-164.98C1109.47,-156.3 1143.74,-142.75 1168.69,-132.88"/>
<polygon fill="#63b8ff" stroke="#63b8ff" points="1170.07,-136.1 1178.08,-129.17 1167.49,-129.59 1170.07,-136.1"/>
</a>
</g>
</g>
<!-- Node32&#45;&gt;Node4 -->
<g id="edge59_Node000032_Node000004" class="edge">
<title>Node32&#45;&gt;Node4</title>
<g id="a_edge59_Node000032_Node000004"><a xlink:title=" ">
<path fill="none" stroke="#63b8ff" d="M1223.78,-109.98C1248.23,-101.23 1286.53,-87.51 1314.15,-77.62"/>
<polygon fill="#63b8ff" stroke="#63b8ff" points="1315.55,-80.84 1323.79,-74.17 1313.19,-74.25 1315.55,-80.84"/>
</a>
</g>
</g>
<!-- Node32&#45;&gt;Node10 -->
<g id="edge60_Node000032_Node000010" class="edge">
<title>Node32&#45;&gt;Node10</title>
<g id="a_edge60_Node000032_Node000010"><a xlink:title=" ">
<path fill="none" stroke="#63b8ff" d="M1228.39,-109.92C1245.46,-103.13 1265.81,-91.77 1276,-74 1287.53,-53.88 1264.08,-35.47 1242.79,-23.71"/>
<polygon fill="#63b8ff" stroke="#63b8ff" points="1244.39,-20.6 1233.9,-19.1 1241.16,-26.81 1244.39,-20.6"/>
</a>
</g>
</g>
<!-- Node33 -->
<g id="Node000033" class="node">
<title>Node33</title>
<g id="a_Node000033"><a xlink:title=" ">
<polygon fill="#e0e0e0" stroke="#999999" points="1205,-74 1161,-74 1161,-55 1205,-55 1205,-74"/>
<text text-anchor="middle" x="1183" y="-62" font-family="Helvetica,sans-Serif" font-size="10.00">cfloat</text>
</a>
</g>
</g>
<!-- Node32&#45;&gt;Node33 -->
<g id="edge58_Node000032_Node000033" class="edge">
<title>Node32&#45;&gt;Node33</title>
<g id="a_edge58_Node000032_Node000033"><a xlink:title=" ">
<path fill="none" stroke="#63b8ff" d="M1197.19,-109.75C1194.94,-102.72 1191.7,-92.62 1188.88,-83.84"/>
<polygon fill="#63b8ff" stroke="#63b8ff" points="1192.14,-82.54 1185.75,-74.09 1185.48,-84.68 1192.14,-82.54"/>
</a>
</g>
</g>
<!-- Node34 -->
<g id="Node000034" class="node">
<title>Node34</title>
<g id="a_Node000034"><a xlink:title=" ">
<polygon fill="#e0e0e0" stroke="#999999" points="1267,-74 1223,-74 1223,-55 1267,-55 1267,-74"/>
<text text-anchor="middle" x="1245" y="-62" font-family="Helvetica,sans-Serif" font-size="10.00">limits</text>
</a>
</g>
</g>
<!-- Node32&#45;&gt;Node34 -->
<g id="edge61_Node000032_Node000034" class="edge">
<title>Node32&#45;&gt;Node34</title>
<g id="a_edge61_Node000032_Node000034"><a xlink:title=" ">
<path fill="none" stroke="#63b8ff" d="M1207.43,-109.75C1213.85,-102.18 1223.31,-91.05 1231.12,-81.84"/>
<polygon fill="#63b8ff" stroke="#63b8ff" points="1233.9,-83.98 1237.71,-74.09 1228.57,-79.45 1233.9,-83.98"/>
</a>
</g>
</g>
</g>
</svg>
