<?xml version="1.0" encoding="UTF-8" standalone="no"?>
<!DOCTYPE svg PUBLIC "-//W3C//DTD SVG 1.1//EN"
 "http://www.w3.org/Graphics/SVG/1.1/DTD/svg11.dtd">
<!-- Generated by graphviz version 2.43.0 (0)
 -->
<!-- Title: src/include/binder/statement/set_show_statement.h Pages: 1 -->
<svg width="1873pt" height="181pt"
 viewBox="0.00 0.00 1872.50 181.00" xmlns="http://www.w3.org/2000/svg" xmlns:xlink="http://www.w3.org/1999/xlink">
<g id="graph0" class="graph" transform="scale(1 1) rotate(0) translate(4 177)">
<title>src/include/binder/statement/set_show_statement.h</title>
<!-- Node1 -->
<g id="Node000001" class="node">
<title>Node1</title>
<g id="a_Node000001"><a xlink:title=" ">
<polygon fill="#999999" stroke="#666666" points="446.5,-173 327.5,-173 327.5,-132 446.5,-132 446.5,-173"/>
<text text-anchor="start" x="335.5" y="-161" font-family="Helvetica,sans-Serif" font-size="10.00">src/include/binder</text>
<text text-anchor="start" x="335.5" y="-150" font-family="Helvetica,sans-Serif" font-size="10.00">/statement/set_show</text>
<text text-anchor="middle" x="387" y="-139" font-family="Helvetica,sans-Serif" font-size="10.00">_statement.h</text>
</a>
</g>
</g>
<!-- Node2 -->
<g id="Node000002" class="node">
<title>Node2</title>
<g id="a_Node000002"><a xlink:href="../../db/db0/bind__variable_8cpp.html" target="_top" xlink:title=" ">
<polygon fill="white" stroke="#666666" points="154,-24.5 0,-24.5 0,-5.5 154,-5.5 154,-24.5"/>
<text text-anchor="middle" x="77" y="-12.5" font-family="Helvetica,sans-Serif" font-size="10.00">src/binder/bind_variable.cpp</text>
</a>
</g>
</g>
<!-- Node1&#45;&gt;Node2 -->
<g id="edge1_Node000001_Node000002" class="edge">
<title>Node1&#45;&gt;Node2</title>
<g id="a_edge1_Node000001_Node000002"><a xlink:title=" ">
<path fill="none" stroke="#63b8ff" d="M332.66,-127.75C262.31,-97 143.2,-44.94 96.56,-24.55"/>
<polygon fill="#63b8ff" stroke="#63b8ff" points="331.69,-131.14 342.25,-131.94 334.49,-124.73 331.69,-131.14"/>
</a>
</g>
</g>
<!-- Node3 -->
<g id="Node000003" class="node">
<title>Node3</title>
<g id="a_Node000003"><a xlink:href="../../dc/de0/bustub__ddl_8cpp.html" target="_top" xlink:title=" ">
<polygon fill="white" stroke="#666666" points="325.5,-24.5 172.5,-24.5 172.5,-5.5 325.5,-5.5 325.5,-24.5"/>
<text text-anchor="middle" x="249" y="-12.5" font-family="Helvetica,sans-Serif" font-size="10.00">src/common/bustub_ddl.cpp</text>
</a>
</g>
</g>
<!-- Node1&#45;&gt;Node3 -->
<g id="edge2_Node000001_Node000003" class="edge">
<title>Node1&#45;&gt;Node3</title>
<g id="a_edge2_Node000001_Node000003"><a xlink:title=" ">
<path fill="none" stroke="#63b8ff" d="M359.73,-124.73C328.2,-93.76 278.04,-44.51 257.85,-24.69"/>
<polygon fill="#63b8ff" stroke="#63b8ff" points="357.35,-127.29 366.93,-131.8 362.25,-122.29 357.35,-127.29"/>
</a>
</g>
</g>
<!-- Node4 -->
<g id="Node000004" class="node">
<title>Node4</title>
<g id="a_Node000004"><a xlink:href="../../da/d08/bustub__instance_8cpp.html" target="_top" xlink:title=" ">
<polygon fill="white" stroke="#666666" points="522.5,-24.5 343.5,-24.5 343.5,-5.5 522.5,-5.5 522.5,-24.5"/>
<text text-anchor="middle" x="433" y="-12.5" font-family="Helvetica,sans-Serif" font-size="10.00">src/common/bustub_instance.cpp</text>
</a>
</g>
</g>
<!-- Node1&#45;&gt;Node4 -->
<g id="edge3_Node000001_Node000004" class="edge">
<title>Node1&#45;&gt;Node4</title>
<g id="a_edge3_Node000001_Node000004"><a xlink:title=" ">
<path fill="none" stroke="#63b8ff" d="M397.04,-121.94C407.58,-90.88 423.52,-43.92 430.05,-24.69"/>
<polygon fill="#63b8ff" stroke="#63b8ff" points="393.59,-121.2 393.69,-131.8 400.22,-123.45 393.59,-121.2"/>
</a>
</g>
</g>
<!-- Node5 -->
<g id="Node000005" class="node">
<title>Node5</title>
<g id="a_Node000005"><a xlink:href="../../d3/d2f/binder_8h.html" target="_top" xlink:title=" ">
<polygon fill="white" stroke="#666666" points="987.5,-96 884.5,-96 884.5,-66 987.5,-66 987.5,-96"/>
<text text-anchor="start" x="892.5" y="-84" font-family="Helvetica,sans-Serif" font-size="10.00">src/include/binder</text>
<text text-anchor="middle" x="936" y="-73" font-family="Helvetica,sans-Serif" font-size="10.00">/binder.h</text>
</a>
</g>
</g>
<!-- Node1&#45;&gt;Node5 -->
<g id="edge4_Node000001_Node000005" class="edge">
<title>Node1&#45;&gt;Node5</title>
<g id="a_edge4_Node000001_Node000005"><a xlink:title=" ">
<path fill="none" stroke="#63b8ff" d="M456.69,-142.68C568.44,-128.53 785.22,-101.09 884.31,-88.54"/>
<polygon fill="#63b8ff" stroke="#63b8ff" points="456.02,-139.23 446.54,-143.96 456.9,-146.18 456.02,-139.23"/>
</a>
</g>
</g>
<!-- Node5&#45;&gt;Node2 -->
<g id="edge8_Node000005_Node000002" class="edge">
<title>Node5&#45;&gt;Node2</title>
<g id="a_edge8_Node000005_Node000002"><a xlink:title=" ">
<path fill="none" stroke="#63b8ff" d="M874.02,-78.03C742.61,-73.4 426.45,-59.89 163,-30 150.37,-28.57 136.77,-26.57 124.2,-24.53"/>
<polygon fill="#63b8ff" stroke="#63b8ff" points="874.17,-81.53 884.28,-78.38 874.41,-74.54 874.17,-81.53"/>
</a>
</g>
</g>
<!-- Node5&#45;&gt;Node3 -->
<g id="edge15_Node000005_Node000003" class="edge">
<title>Node5&#45;&gt;Node3</title>
<g id="a_edge15_Node000005_Node000003"><a xlink:title=" ">
<path fill="none" stroke="#63b8ff" d="M874.14,-76.51C764.86,-69.97 530.62,-54.32 334,-30 321.83,-28.49 308.73,-26.52 296.56,-24.52"/>
<polygon fill="#63b8ff" stroke="#63b8ff" points="874.13,-80.01 884.32,-77.11 874.54,-73.03 874.13,-80.01"/>
</a>
</g>
</g>
<!-- Node5&#45;&gt;Node4 -->
<g id="edge16_Node000005_Node000004" class="edge">
<title>Node5&#45;&gt;Node4</title>
<g id="a_edge16_Node000005_Node000004"><a xlink:title=" ">
<path fill="none" stroke="#63b8ff" d="M874.01,-72.67C794.67,-63.2 653.03,-46.05 532,-30 519.09,-28.29 505.25,-26.38 492.13,-24.53"/>
<polygon fill="#63b8ff" stroke="#63b8ff" points="873.96,-76.19 884.31,-73.89 874.79,-69.23 873.96,-76.19"/>
</a>
</g>
</g>
<!-- Node6 -->
<g id="Node000006" class="node">
<title>Node6</title>
<g id="a_Node000006"><a xlink:href="../../db/d4b/bind__create_8cpp.html" target="_top" xlink:title=" ">
<polygon fill="white" stroke="#666666" points="685.5,-24.5 540.5,-24.5 540.5,-5.5 685.5,-5.5 685.5,-24.5"/>
<text text-anchor="middle" x="613" y="-12.5" font-family="Helvetica,sans-Serif" font-size="10.00">src/binder/bind_create.cpp</text>
</a>
</g>
</g>
<!-- Node5&#45;&gt;Node6 -->
<g id="edge5_Node000005_Node000006" class="edge">
<title>Node5&#45;&gt;Node6</title>
<g id="a_edge5_Node000005_Node000006"><a xlink:title=" ">
<path fill="none" stroke="#63b8ff" d="M874.51,-67.82C810.58,-55.15 712.18,-35.65 656.09,-24.54"/>
<polygon fill="#63b8ff" stroke="#63b8ff" points="873.97,-71.28 884.46,-69.79 875.33,-64.41 873.97,-71.28"/>
</a>
</g>
</g>
<!-- Node7 -->
<g id="Node000007" class="node">
<title>Node7</title>
<g id="a_Node000007"><a xlink:href="../../d9/d88/bind__insert_8cpp.html" target="_top" xlink:title=" ">
<polygon fill="white" stroke="#666666" points="846,-24.5 704,-24.5 704,-5.5 846,-5.5 846,-24.5"/>
<text text-anchor="middle" x="775" y="-12.5" font-family="Helvetica,sans-Serif" font-size="10.00">src/binder/bind_insert.cpp</text>
</a>
</g>
</g>
<!-- Node5&#45;&gt;Node7 -->
<g id="edge6_Node000005_Node000007" class="edge">
<title>Node5&#45;&gt;Node7</title>
<g id="a_edge6_Node000005_Node000007"><a xlink:title=" ">
<path fill="none" stroke="#63b8ff" d="M891.37,-62.26C860.41,-49.95 820.55,-34.11 796.43,-24.52"/>
<polygon fill="#63b8ff" stroke="#63b8ff" points="890.08,-65.51 900.67,-65.95 892.67,-59.01 890.08,-65.51"/>
</a>
</g>
</g>
<!-- Node8 -->
<g id="Node000008" class="node">
<title>Node8</title>
<g id="a_Node000008"><a xlink:href="../../d7/d35/bind__select_8cpp.html" target="_top" xlink:title=" ">
<polygon fill="white" stroke="#666666" points="1007.5,-24.5 864.5,-24.5 864.5,-5.5 1007.5,-5.5 1007.5,-24.5"/>
<text text-anchor="middle" x="936" y="-12.5" font-family="Helvetica,sans-Serif" font-size="10.00">src/binder/bind_select.cpp</text>
</a>
</g>
</g>
<!-- Node5&#45;&gt;Node8 -->
<g id="edge7_Node000005_Node000008" class="edge">
<title>Node5&#45;&gt;Node8</title>
<g id="a_edge7_Node000005_Node000008"><a xlink:title=" ">
<path fill="none" stroke="#63b8ff" d="M936,-55.6C936,-44.8 936,-32.78 936,-24.84"/>
<polygon fill="#63b8ff" stroke="#63b8ff" points="932.5,-55.8 936,-65.8 939.5,-55.8 932.5,-55.8"/>
</a>
</g>
</g>
<!-- Node9 -->
<g id="Node000009" class="node">
<title>Node9</title>
<g id="a_Node000009"><a xlink:href="../../dc/de9/binder_8cpp.html" target="_top" xlink:title=" ">
<polygon fill="white" stroke="#666666" points="1144,-24.5 1026,-24.5 1026,-5.5 1144,-5.5 1144,-24.5"/>
<text text-anchor="middle" x="1085" y="-12.5" font-family="Helvetica,sans-Serif" font-size="10.00">src/binder/binder.cpp</text>
</a>
</g>
</g>
<!-- Node5&#45;&gt;Node9 -->
<g id="edge9_Node000005_Node000009" class="edge">
<title>Node5&#45;&gt;Node9</title>
<g id="a_edge9_Node000005_Node000009"><a xlink:title=" ">
<path fill="none" stroke="#63b8ff" d="M978.04,-61.94C1006.59,-49.68 1043.04,-34.02 1065.17,-24.52"/>
<polygon fill="#63b8ff" stroke="#63b8ff" points="976.51,-58.79 968.7,-65.95 979.27,-65.22 976.51,-58.79"/>
</a>
</g>
</g>
<!-- Node10 -->
<g id="Node000010" class="node">
<title>Node10</title>
<g id="a_Node000010"><a xlink:href="../../d9/d02/binder_2fmt__impl_8cpp.html" target="_top" xlink:title=" ">
<polygon fill="white" stroke="#666666" points="1294,-24.5 1162,-24.5 1162,-5.5 1294,-5.5 1294,-24.5"/>
<text text-anchor="middle" x="1228" y="-12.5" font-family="Helvetica,sans-Serif" font-size="10.00">src/binder/fmt_impl.cpp</text>
</a>
</g>
</g>
<!-- Node5&#45;&gt;Node10 -->
<g id="edge10_Node000005_Node000010" class="edge">
<title>Node5&#45;&gt;Node10</title>
<g id="a_edge10_Node000005_Node000010"><a xlink:title=" ">
<path fill="none" stroke="#63b8ff" d="M997.64,-66.49C1055.46,-53.82 1140.15,-35.25 1189.11,-24.52"/>
<polygon fill="#63b8ff" stroke="#63b8ff" points="996.55,-63.15 987.53,-68.71 998.05,-69.98 996.55,-63.15"/>
</a>
</g>
</g>
<!-- Node11 -->
<g id="Node000011" class="node">
<title>Node11</title>
<g id="a_Node000011"><a xlink:href="../../d3/d6b/keyword__helper_8cpp.html" target="_top" xlink:title=" ">
<polygon fill="white" stroke="#666666" points="1421.5,-30 1312.5,-30 1312.5,0 1421.5,0 1421.5,-30"/>
<text text-anchor="start" x="1320.5" y="-18" font-family="Helvetica,sans-Serif" font-size="10.00">src/binder/keyword</text>
<text text-anchor="middle" x="1367" y="-7" font-family="Helvetica,sans-Serif" font-size="10.00">_helper.cpp</text>
</a>
</g>
</g>
<!-- Node5&#45;&gt;Node11 -->
<g id="edge11_Node000005_Node000011" class="edge">
<title>Node5&#45;&gt;Node11</title>
<g id="a_edge11_Node000005_Node000011"><a xlink:title=" ">
<path fill="none" stroke="#63b8ff" d="M997.52,-73.14C1070.61,-64.64 1196.11,-48.94 1303,-30 1306.02,-29.46 1309.12,-28.89 1312.24,-28.28"/>
<polygon fill="#63b8ff" stroke="#63b8ff" points="997.09,-69.67 987.56,-74.29 997.9,-76.62 997.09,-69.67"/>
</a>
</g>
</g>
<!-- Node12 -->
<g id="Node000012" class="node">
<title>Node12</title>
<g id="a_Node000012"><a xlink:href="../../d5/db7/node__tag__to__string_8cpp.html" target="_top" xlink:title=" ">
<polygon fill="white" stroke="#666666" points="1552.5,-30 1439.5,-30 1439.5,0 1552.5,0 1552.5,-30"/>
<text text-anchor="start" x="1447.5" y="-18" font-family="Helvetica,sans-Serif" font-size="10.00">src/binder/node_tag</text>
<text text-anchor="middle" x="1496" y="-7" font-family="Helvetica,sans-Serif" font-size="10.00">_to_string.cpp</text>
</a>
</g>
</g>
<!-- Node5&#45;&gt;Node12 -->
<g id="edge12_Node000005_Node000012" class="edge">
<title>Node5&#45;&gt;Node12</title>
<g id="a_edge12_Node000005_Node000012"><a xlink:title=" ">
<path fill="none" stroke="#63b8ff" d="M997.73,-75.99C1091.67,-69.38 1275.98,-54.45 1431,-30 1433.74,-29.57 1436.53,-29.09 1439.35,-28.59"/>
<polygon fill="#63b8ff" stroke="#63b8ff" points="997.28,-72.51 987.55,-76.69 997.77,-79.49 997.28,-72.51"/>
</a>
</g>
</g>
<!-- Node13 -->
<g id="Node000013" class="node">
<title>Node13</title>
<g id="a_Node000013"><a xlink:href="../../d1/d11/explain__statement_8cpp.html" target="_top" xlink:title=" ">
<polygon fill="white" stroke="#666666" points="1701.5,-30 1570.5,-30 1570.5,0 1701.5,0 1701.5,-30"/>
<text text-anchor="start" x="1578.5" y="-18" font-family="Helvetica,sans-Serif" font-size="10.00">src/binder/statement</text>
<text text-anchor="middle" x="1636" y="-7" font-family="Helvetica,sans-Serif" font-size="10.00">/explain_statement.cpp</text>
</a>
</g>
</g>
<!-- Node5&#45;&gt;Node13 -->
<g id="edge13_Node000005_Node000013" class="edge">
<title>Node5&#45;&gt;Node13</title>
<g id="a_edge13_Node000005_Node000013"><a xlink:title=" ">
<path fill="none" stroke="#63b8ff" d="M997.88,-77.26C1110.51,-71.79 1356.35,-57.58 1562,-30 1564.72,-29.63 1567.49,-29.24 1570.29,-28.81"/>
<polygon fill="#63b8ff" stroke="#63b8ff" points="997.55,-73.77 987.73,-77.75 997.88,-80.77 997.55,-73.77"/>
</a>
</g>
</g>
<!-- Node14 -->
<g id="Node000014" class="node">
<title>Node14</title>
<g id="a_Node000014"><a xlink:href="../../df/d93/transformer_8cpp.html" target="_top" xlink:title=" ">
<polygon fill="white" stroke="#666666" points="1864.5,-24.5 1719.5,-24.5 1719.5,-5.5 1864.5,-5.5 1864.5,-24.5"/>
<text text-anchor="middle" x="1792" y="-12.5" font-family="Helvetica,sans-Serif" font-size="10.00">src/binder/transformer.cpp</text>
</a>
</g>
</g>
<!-- Node5&#45;&gt;Node14 -->
<g id="edge14_Node000005_Node000014" class="edge">
<title>Node5&#45;&gt;Node14</title>
<g id="a_edge14_Node000005_Node000014"><a xlink:title=" ">
<path fill="none" stroke="#63b8ff" d="M998.17,-78.24C1129.96,-74.02 1447.01,-61.24 1711,-30 1722.9,-28.59 1735.72,-26.6 1747.56,-24.56"/>
<polygon fill="#63b8ff" stroke="#63b8ff" points="997.76,-74.75 987.87,-78.57 997.98,-81.75 997.76,-74.75"/>
</a>
</g>
</g>
</g>
</svg>
