<?xml version="1.0" encoding="UTF-8" standalone="no"?>
<!DOCTYPE svg PUBLIC "-//W3C//DTD SVG 1.1//EN"
 "http://www.w3.org/Graphics/SVG/1.1/DTD/svg11.dtd">
<!-- Generated by graphviz version 2.43.0 (0)
 -->
<!-- Title: src/include/binder/table_ref/bound_subquery_ref.h Pages: 1 -->
<svg width="2663pt" height="236pt"
 viewBox="0.00 0.00 2662.84 236.00" xmlns="http://www.w3.org/2000/svg" xmlns:xlink="http://www.w3.org/1999/xlink">
<g id="graph0" class="graph" transform="scale(1 1) rotate(0) translate(4 232)">
<title>src/include/binder/table_ref/bound_subquery_ref.h</title>
<!-- Node1 -->
<g id="Node000001" class="node">
<title>Node1</title>
<g id="a_Node000001"><a xlink:title=" ">
<polygon fill="#999999" stroke="#666666" points="1190.5,-228 1017.5,-228 1017.5,-198 1190.5,-198 1190.5,-228"/>
<text text-anchor="start" x="1025.5" y="-216" font-family="Helvetica,sans-Serif" font-size="10.00">src/include/binder</text>
<text text-anchor="middle" x="1104" y="-205" font-family="Helvetica,sans-Serif" font-size="10.00">/table_ref/bound_subquery_ref.h</text>
</a>
</g>
</g>
<!-- Node2 -->
<g id="Node000002" class="node">
<title>Node2</title>
<g id="a_Node000002"><a xlink:href="../../d7/d35/bind__select_8cpp.html" target="_top" xlink:title=" ">
<polygon fill="white" stroke="#666666" points="293.5,-24.5 150.5,-24.5 150.5,-5.5 293.5,-5.5 293.5,-24.5"/>
<text text-anchor="middle" x="222" y="-12.5" font-family="Helvetica,sans-Serif" font-size="10.00">src/binder/bind_select.cpp</text>
</a>
</g>
</g>
<!-- Node1&#45;&gt;Node2 -->
<g id="edge1_Node000001_Node000002" class="edge">
<title>Node1&#45;&gt;Node2</title>
<g id="a_edge1_Node000001_Node000002"><a xlink:title=" ">
<path fill="none" stroke="#63b8ff" d="M1007.01,-205.4C867.06,-193.85 601.62,-164.36 386,-96 327.42,-77.43 263.44,-41.06 235.89,-24.54"/>
<polygon fill="#63b8ff" stroke="#63b8ff" points="1007.03,-208.91 1017.28,-206.23 1007.6,-201.93 1007.03,-208.91"/>
</a>
</g>
</g>
<!-- Node3 -->
<g id="Node000003" class="node">
<title>Node3</title>
<g id="a_Node000003"><a xlink:href="../../d9/d02/binder_2fmt__impl_8cpp.html" target="_top" xlink:title=" ">
<polygon fill="white" stroke="#666666" points="132,-24.5 0,-24.5 0,-5.5 132,-5.5 132,-24.5"/>
<text text-anchor="middle" x="66" y="-12.5" font-family="Helvetica,sans-Serif" font-size="10.00">src/binder/fmt_impl.cpp</text>
</a>
</g>
</g>
<!-- Node1&#45;&gt;Node3 -->
<g id="edge2_Node000001_Node000003" class="edge">
<title>Node1&#45;&gt;Node3</title>
<g id="a_edge2_Node000001_Node000003"><a xlink:title=" ">
<path fill="none" stroke="#63b8ff" d="M1006.75,-211.25C843.91,-207.31 507.68,-187.62 241,-96 180.34,-75.16 112.23,-40.58 81.97,-24.59"/>
<polygon fill="#63b8ff" stroke="#63b8ff" points="1007.15,-214.76 1017.22,-211.49 1007.31,-207.76 1007.15,-214.76"/>
</a>
</g>
</g>
<!-- Node4 -->
<g id="Node000004" class="node">
<title>Node4</title>
<g id="a_Node000004"><a xlink:href="../../d7/d14/select__statement_8h.html" target="_top" xlink:title=" ">
<polygon fill="white" stroke="#666666" points="1187.5,-162 1020.5,-162 1020.5,-132 1187.5,-132 1187.5,-162"/>
<text text-anchor="start" x="1028.5" y="-150" font-family="Helvetica,sans-Serif" font-size="10.00">src/include/binder</text>
<text text-anchor="middle" x="1104" y="-139" font-family="Helvetica,sans-Serif" font-size="10.00">/statement/select_statement.h</text>
</a>
</g>
</g>
<!-- Node1&#45;&gt;Node4 -->
<g id="edge3_Node000001_Node000004" class="edge">
<title>Node1&#45;&gt;Node4</title>
<g id="a_edge3_Node000001_Node000004"><a xlink:title=" ">
<path fill="none" stroke="#63b8ff" d="M1104,-187.54C1104,-178.96 1104,-169.61 1104,-162.16"/>
<polygon fill="#63b8ff" stroke="#63b8ff" points="1100.5,-187.8 1104,-197.8 1107.5,-187.8 1100.5,-187.8"/>
</a>
</g>
</g>
<!-- Node24 -->
<g id="Node000024" class="node">
<title>Node24</title>
<g id="a_Node000024"><a xlink:href="../../d8/d40/plan__table__ref_8cpp.html" target="_top" xlink:title=" ">
<polygon fill="white" stroke="#666666" points="2605.5,-96 2480.5,-96 2480.5,-66 2605.5,-66 2605.5,-96"/>
<text text-anchor="start" x="2488.5" y="-84" font-family="Helvetica,sans-Serif" font-size="10.00">src/planner/plan_table</text>
<text text-anchor="middle" x="2543" y="-73" font-family="Helvetica,sans-Serif" font-size="10.00">_ref.cpp</text>
</a>
</g>
</g>
<!-- Node1&#45;&gt;Node24 -->
<g id="edge49_Node000001_Node000024" class="edge">
<title>Node1&#45;&gt;Node24</title>
<g id="a_edge49_Node000001_Node000024"><a xlink:title=" ">
<path fill="none" stroke="#63b8ff" d="M1200.65,-210.42C1373.92,-206.81 1748.69,-195.52 2063,-162 2213.79,-145.92 2389.11,-113.06 2480.42,-94.85"/>
<polygon fill="#63b8ff" stroke="#63b8ff" points="1200.46,-206.92 1190.54,-210.62 1200.61,-213.92 1200.46,-206.92"/>
</a>
</g>
</g>
<!-- Node27 -->
<g id="Node000027" class="node">
<title>Node27</title>
<g id="a_Node000027"><a xlink:href="../../d7/d8c/planner_8h.html" target="_top" xlink:title=" ">
<polygon fill="white" stroke="#666666" points="2054.5,-162 1945.5,-162 1945.5,-132 2054.5,-132 2054.5,-162"/>
<text text-anchor="start" x="1953.5" y="-150" font-family="Helvetica,sans-Serif" font-size="10.00">src/include/planner</text>
<text text-anchor="middle" x="2000" y="-139" font-family="Helvetica,sans-Serif" font-size="10.00">/planner.h</text>
</a>
</g>
</g>
<!-- Node1&#45;&gt;Node27 -->
<g id="edge37_Node000001_Node000027" class="edge">
<title>Node1&#45;&gt;Node27</title>
<g id="a_edge37_Node000001_Node000027"><a xlink:title=" ">
<path fill="none" stroke="#63b8ff" d="M1200.88,-205.08C1388.89,-191.65 1797.72,-162.45 1945.4,-151.9"/>
<polygon fill="#63b8ff" stroke="#63b8ff" points="1200.45,-201.6 1190.73,-205.81 1200.95,-208.58 1200.45,-201.6"/>
</a>
</g>
</g>
<!-- Node4&#45;&gt;Node2 -->
<g id="edge6_Node000004_Node000002" class="edge">
<title>Node4&#45;&gt;Node2</title>
<g id="a_edge6_Node000004_Node000002"><a xlink:title=" ">
<path fill="none" stroke="#63b8ff" d="M1010.09,-144.47C888.76,-141.11 671.46,-130.36 489,-96 464.98,-91.48 312.63,-44.28 249.42,-24.57"/>
<polygon fill="#63b8ff" stroke="#63b8ff" points="1010.36,-147.98 1020.45,-144.75 1010.55,-140.98 1010.36,-147.98"/>
</a>
</g>
</g>
<!-- Node4&#45;&gt;Node3 -->
<g id="edge8_Node000004_Node000003" class="edge">
<title>Node4&#45;&gt;Node3</title>
<g id="a_edge8_Node000004_Node000003"><a xlink:title=" ">
<path fill="none" stroke="#63b8ff" d="M1010.18,-144.7C872.49,-141.62 607.99,-131.2 386,-96 275.99,-78.56 148.43,-41.44 93.48,-24.61"/>
<polygon fill="#63b8ff" stroke="#63b8ff" points="1010.2,-148.2 1020.27,-144.92 1010.35,-141.21 1010.2,-148.2"/>
</a>
</g>
</g>
<!-- Node5 -->
<g id="Node000005" class="node">
<title>Node5</title>
<g id="a_Node000005"><a xlink:href="../../db/d4b/bind__create_8cpp.html" target="_top" xlink:title=" ">
<polygon fill="white" stroke="#666666" points="456.5,-24.5 311.5,-24.5 311.5,-5.5 456.5,-5.5 456.5,-24.5"/>
<text text-anchor="middle" x="384" y="-12.5" font-family="Helvetica,sans-Serif" font-size="10.00">src/binder/bind_create.cpp</text>
</a>
</g>
</g>
<!-- Node4&#45;&gt;Node5 -->
<g id="edge4_Node000004_Node000005" class="edge">
<title>Node4&#45;&gt;Node5</title>
<g id="a_edge4_Node000004_Node000005"><a xlink:title=" ">
<path fill="none" stroke="#63b8ff" d="M1010.13,-145.26C904.2,-142.53 727.43,-132.29 580,-96 510.41,-78.87 433.11,-41.42 400.23,-24.54"/>
<polygon fill="#63b8ff" stroke="#63b8ff" points="1010.08,-148.76 1020.16,-145.5 1010.25,-141.76 1010.08,-148.76"/>
</a>
</g>
</g>
<!-- Node6 -->
<g id="Node000006" class="node">
<title>Node6</title>
<g id="a_Node000006"><a xlink:href="../../d9/d88/bind__insert_8cpp.html" target="_top" xlink:title=" ">
<polygon fill="white" stroke="#666666" points="617,-24.5 475,-24.5 475,-5.5 617,-5.5 617,-24.5"/>
<text text-anchor="middle" x="546" y="-12.5" font-family="Helvetica,sans-Serif" font-size="10.00">src/binder/bind_insert.cpp</text>
</a>
</g>
</g>
<!-- Node4&#45;&gt;Node6 -->
<g id="edge5_Node000004_Node000006" class="edge">
<title>Node4&#45;&gt;Node6</title>
<g id="a_edge5_Node000004_Node000006"><a xlink:title=" ">
<path fill="none" stroke="#63b8ff" d="M1009.68,-144C888.86,-140.12 687.14,-128.8 621,-96 587.74,-79.51 561.63,-41.72 551.08,-24.65"/>
<polygon fill="#63b8ff" stroke="#63b8ff" points="1009.93,-147.51 1020.04,-144.32 1010.15,-140.52 1009.93,-147.51"/>
</a>
</g>
</g>
<!-- Node7 -->
<g id="Node000007" class="node">
<title>Node7</title>
<g id="a_Node000007"><a xlink:href="../../dc/de9/binder_8cpp.html" target="_top" xlink:title=" ">
<polygon fill="white" stroke="#666666" points="753,-24.5 635,-24.5 635,-5.5 753,-5.5 753,-24.5"/>
<text text-anchor="middle" x="694" y="-12.5" font-family="Helvetica,sans-Serif" font-size="10.00">src/binder/binder.cpp</text>
</a>
</g>
</g>
<!-- Node4&#45;&gt;Node7 -->
<g id="edge7_Node000004_Node000007" class="edge">
<title>Node4&#45;&gt;Node7</title>
<g id="a_edge7_Node000004_Node000007"><a xlink:title=" ">
<path fill="none" stroke="#63b8ff" d="M1010.39,-142.71C879.75,-137.13 655.86,-123.63 631,-96 608.77,-71.29 653.17,-39.73 678.32,-24.71"/>
<polygon fill="#63b8ff" stroke="#63b8ff" points="1010.27,-146.2 1020.4,-143.12 1010.56,-139.21 1010.27,-146.2"/>
</a>
</g>
</g>
<!-- Node8 -->
<g id="Node000008" class="node">
<title>Node8</title>
<g id="a_Node000008"><a xlink:href="../../d1/d11/explain__statement_8cpp.html" target="_top" xlink:title=" ">
<polygon fill="white" stroke="#666666" points="902.5,-30 771.5,-30 771.5,0 902.5,0 902.5,-30"/>
<text text-anchor="start" x="779.5" y="-18" font-family="Helvetica,sans-Serif" font-size="10.00">src/binder/statement</text>
<text text-anchor="middle" x="837" y="-7" font-family="Helvetica,sans-Serif" font-size="10.00">/explain_statement.cpp</text>
</a>
</g>
</g>
<!-- Node4&#45;&gt;Node8 -->
<g id="edge9_Node000004_Node000008" class="edge">
<title>Node4&#45;&gt;Node8</title>
<g id="a_edge9_Node000004_Node000008"><a xlink:title=" ">
<path fill="none" stroke="#63b8ff" d="M1010.15,-142.46C881.97,-136.64 665.17,-122.93 641,-96 632.09,-86.08 632.82,-76.53 641,-66 649.24,-55.39 717.64,-39.6 771.35,-28.62"/>
<polygon fill="#63b8ff" stroke="#63b8ff" points="1010.22,-145.97 1020.37,-142.92 1010.53,-138.97 1010.22,-145.97"/>
</a>
</g>
</g>
<!-- Node9 -->
<g id="Node000009" class="node">
<title>Node9</title>
<g id="a_Node000009"><a xlink:href="../../d8/d89/insert__statement_8cpp.html" target="_top" xlink:title=" ">
<polygon fill="white" stroke="#666666" points="894.5,-96 771.5,-96 771.5,-66 894.5,-66 894.5,-96"/>
<text text-anchor="start" x="779.5" y="-84" font-family="Helvetica,sans-Serif" font-size="10.00">src/binder/statement</text>
<text text-anchor="middle" x="833" y="-73" font-family="Helvetica,sans-Serif" font-size="10.00">/insert_statement.cpp</text>
</a>
</g>
</g>
<!-- Node4&#45;&gt;Node9 -->
<g id="edge10_Node000004_Node000009" class="edge">
<title>Node4&#45;&gt;Node9</title>
<g id="a_edge10_Node000004_Node000009"><a xlink:title=" ">
<path fill="none" stroke="#63b8ff" d="M1034.76,-129.65C990.73,-119.25 934.31,-105.93 892.33,-96.01"/>
<polygon fill="#63b8ff" stroke="#63b8ff" points="1033.99,-133.06 1044.53,-131.95 1035.6,-126.25 1033.99,-133.06"/>
</a>
</g>
</g>
<!-- Node10 -->
<g id="Node000010" class="node">
<title>Node10</title>
<g id="a_Node000010"><a xlink:href="../../df/d6e/select__statement_8cpp.html" target="_top" xlink:title=" ">
<polygon fill="white" stroke="#666666" points="1037.5,-96 912.5,-96 912.5,-66 1037.5,-66 1037.5,-96"/>
<text text-anchor="start" x="920.5" y="-84" font-family="Helvetica,sans-Serif" font-size="10.00">src/binder/statement</text>
<text text-anchor="middle" x="975" y="-73" font-family="Helvetica,sans-Serif" font-size="10.00">/select_statement.cpp</text>
</a>
</g>
</g>
<!-- Node4&#45;&gt;Node10 -->
<g id="edge11_Node000004_Node000010" class="edge">
<title>Node4&#45;&gt;Node10</title>
<g id="a_edge11_Node000004_Node000010"><a xlink:title=" ">
<path fill="none" stroke="#63b8ff" d="M1066.46,-127.38C1046.28,-117.36 1021.8,-105.22 1003.24,-96.01"/>
<polygon fill="#63b8ff" stroke="#63b8ff" points="1065.18,-130.65 1075.69,-131.95 1068.29,-124.38 1065.18,-130.65"/>
</a>
</g>
</g>
<!-- Node11 -->
<g id="Node000011" class="node">
<title>Node11</title>
<g id="a_Node000011"><a xlink:href="../../df/d93/transformer_8cpp.html" target="_top" xlink:title=" ">
<polygon fill="white" stroke="#666666" points="1496.5,-24.5 1351.5,-24.5 1351.5,-5.5 1496.5,-5.5 1496.5,-24.5"/>
<text text-anchor="middle" x="1424" y="-12.5" font-family="Helvetica,sans-Serif" font-size="10.00">src/binder/transformer.cpp</text>
</a>
</g>
</g>
<!-- Node4&#45;&gt;Node11 -->
<g id="edge12_Node000004_Node000011" class="edge">
<title>Node4&#45;&gt;Node11</title>
<g id="a_edge12_Node000004_Node000011"><a xlink:title=" ">
<path fill="none" stroke="#63b8ff" d="M1090.85,-122.68C1082.89,-105.1 1076.59,-81.46 1090,-66 1127.06,-23.27 1286.11,-38.76 1342,-30 1352.84,-28.3 1364.48,-26.38 1375.47,-24.51"/>
<polygon fill="#63b8ff" stroke="#63b8ff" points="1087.76,-124.32 1095.33,-131.73 1094.03,-121.22 1087.76,-124.32"/>
</a>
</g>
</g>
<!-- Node12 -->
<g id="Node000012" class="node">
<title>Node12</title>
<g id="a_Node000012"><a xlink:href="../../dc/de0/bustub__ddl_8cpp.html" target="_top" xlink:title=" ">
<polygon fill="white" stroke="#666666" points="1667.5,-24.5 1514.5,-24.5 1514.5,-5.5 1667.5,-5.5 1667.5,-24.5"/>
<text text-anchor="middle" x="1591" y="-12.5" font-family="Helvetica,sans-Serif" font-size="10.00">src/common/bustub_ddl.cpp</text>
</a>
</g>
</g>
<!-- Node4&#45;&gt;Node12 -->
<g id="edge13_Node000004_Node000012" class="edge">
<title>Node4&#45;&gt;Node12</title>
<g id="a_edge13_Node000004_Node000012"><a xlink:title=" ">
<path fill="none" stroke="#63b8ff" d="M1104.44,-121.67C1106.16,-103.43 1111.68,-79.39 1128,-66 1193.05,-12.61 1421.53,-40.77 1505,-30 1517,-28.45 1529.9,-26.5 1541.97,-24.56"/>
<polygon fill="#63b8ff" stroke="#63b8ff" points="1100.93,-121.68 1103.8,-131.88 1107.91,-122.11 1100.93,-121.68"/>
</a>
</g>
</g>
<!-- Node13 -->
<g id="Node000013" class="node">
<title>Node13</title>
<g id="a_Node000013"><a xlink:href="../../da/d08/bustub__instance_8cpp.html" target="_top" xlink:title=" ">
<polygon fill="white" stroke="#666666" points="1864.5,-24.5 1685.5,-24.5 1685.5,-5.5 1864.5,-5.5 1864.5,-24.5"/>
<text text-anchor="middle" x="1775" y="-12.5" font-family="Helvetica,sans-Serif" font-size="10.00">src/common/bustub_instance.cpp</text>
</a>
</g>
</g>
<!-- Node4&#45;&gt;Node13 -->
<g id="edge14_Node000004_Node000013" class="edge">
<title>Node4&#45;&gt;Node13</title>
<g id="a_edge14_Node000004_Node000013"><a xlink:title=" ">
<path fill="none" stroke="#63b8ff" d="M1113.77,-122.6C1122.98,-103.78 1138.7,-78.49 1161,-66 1261.08,-9.92 1561.91,-42.04 1676,-30 1690.24,-28.5 1705.59,-26.51 1719.84,-24.5"/>
<polygon fill="#63b8ff" stroke="#63b8ff" points="1110.56,-121.2 1109.55,-131.74 1116.92,-124.13 1110.56,-121.2"/>
</a>
</g>
</g>
<!-- Node14 -->
<g id="Node000014" class="node">
<title>Node14</title>
<g id="a_Node000014"><a xlink:href="../../d3/d2f/binder_8h.html" target="_top" xlink:title=" ">
<polygon fill="white" stroke="#666666" points="753.5,-96 650.5,-96 650.5,-66 753.5,-66 753.5,-96"/>
<text text-anchor="start" x="658.5" y="-84" font-family="Helvetica,sans-Serif" font-size="10.00">src/include/binder</text>
<text text-anchor="middle" x="702" y="-73" font-family="Helvetica,sans-Serif" font-size="10.00">/binder.h</text>
</a>
</g>
</g>
<!-- Node4&#45;&gt;Node14 -->
<g id="edge15_Node000004_Node000014" class="edge">
<title>Node4&#45;&gt;Node14</title>
<g id="a_edge15_Node000004_Node000014"><a xlink:title=" ">
<path fill="none" stroke="#63b8ff" d="M1010.42,-134.48C941.49,-125.46 845.59,-111.83 762,-96 759.27,-95.48 756.47,-94.93 753.65,-94.34"/>
<polygon fill="#63b8ff" stroke="#63b8ff" points="1010.03,-137.95 1020.39,-135.77 1010.93,-131.01 1010.03,-137.95"/>
</a>
</g>
</g>
<!-- Node18 -->
<g id="Node000018" class="node">
<title>Node18</title>
<g id="a_Node000018"><a xlink:href="../../df/dfb/expression__factory_8cpp.html" target="_top" xlink:title=" ">
<polygon fill="white" stroke="#666666" points="1297.5,-96 1170.5,-96 1170.5,-66 1297.5,-66 1297.5,-96"/>
<text text-anchor="start" x="1178.5" y="-84" font-family="Helvetica,sans-Serif" font-size="10.00">src/planner/expression</text>
<text text-anchor="middle" x="1234" y="-73" font-family="Helvetica,sans-Serif" font-size="10.00">_factory.cpp</text>
</a>
</g>
</g>
<!-- Node4&#45;&gt;Node18 -->
<g id="edge28_Node000004_Node000018" class="edge">
<title>Node4&#45;&gt;Node18</title>
<g id="a_edge28_Node000004_Node000018"><a xlink:title=" ">
<path fill="none" stroke="#63b8ff" d="M1141.55,-127.51C1161.95,-117.47 1186.76,-105.26 1205.54,-96.01"/>
<polygon fill="#63b8ff" stroke="#63b8ff" points="1139.95,-124.4 1132.53,-131.95 1143.05,-130.68 1139.95,-124.4"/>
</a>
</g>
</g>
<!-- Node19 -->
<g id="Node000019" class="node">
<title>Node19</title>
<g id="a_Node000019"><a xlink:href="../../da/de4/plan__aggregation_8cpp.html" target="_top" xlink:title=" ">
<polygon fill="white" stroke="#666666" points="1494.5,-90.5 1315.5,-90.5 1315.5,-71.5 1494.5,-71.5 1494.5,-90.5"/>
<text text-anchor="middle" x="1405" y="-78.5" font-family="Helvetica,sans-Serif" font-size="10.00">src/planner/plan_aggregation.cpp</text>
</a>
</g>
</g>
<!-- Node4&#45;&gt;Node19 -->
<g id="edge29_Node000004_Node000019" class="edge">
<title>Node4&#45;&gt;Node19</title>
<g id="a_edge29_Node000004_Node000019"><a xlink:title=" ">
<path fill="none" stroke="#63b8ff" d="M1180.05,-129.83C1238.84,-117.33 1317.9,-100.52 1364.94,-90.52"/>
<polygon fill="#63b8ff" stroke="#63b8ff" points="1179.11,-126.45 1170.06,-131.95 1180.57,-133.3 1179.11,-126.45"/>
</a>
</g>
</g>
<!-- Node20 -->
<g id="Node000020" class="node">
<title>Node20</title>
<g id="a_Node000020"><a xlink:href="../../d0/d29/plan__expression_8cpp.html" target="_top" xlink:title=" ">
<polygon fill="white" stroke="#666666" points="1685.5,-90.5 1512.5,-90.5 1512.5,-71.5 1685.5,-71.5 1685.5,-90.5"/>
<text text-anchor="middle" x="1599" y="-78.5" font-family="Helvetica,sans-Serif" font-size="10.00">src/planner/plan_expression.cpp</text>
</a>
</g>
</g>
<!-- Node4&#45;&gt;Node20 -->
<g id="edge30_Node000004_Node000020" class="edge">
<title>Node4&#45;&gt;Node20</title>
<g id="a_edge30_Node000004_Node000020"><a xlink:title=" ">
<path fill="none" stroke="#63b8ff" d="M1197.91,-134.77C1278.81,-124.97 1398.68,-110.14 1503,-96 1515.6,-94.29 1529.12,-92.37 1541.92,-90.52"/>
<polygon fill="#63b8ff" stroke="#63b8ff" points="1197.25,-131.33 1187.75,-136 1198.09,-138.28 1197.25,-131.33"/>
</a>
</g>
</g>
<!-- Node21 -->
<g id="Node000021" class="node">
<title>Node21</title>
<g id="a_Node000021"><a xlink:href="../../d6/da3/plan__func__call_8cpp.html" target="_top" xlink:title=" ">
<polygon fill="white" stroke="#666666" points="1824.5,-96 1703.5,-96 1703.5,-66 1824.5,-66 1824.5,-96"/>
<text text-anchor="start" x="1711.5" y="-84" font-family="Helvetica,sans-Serif" font-size="10.00">src/planner/plan_func</text>
<text text-anchor="middle" x="1764" y="-73" font-family="Helvetica,sans-Serif" font-size="10.00">_call.cpp</text>
</a>
</g>
</g>
<!-- Node4&#45;&gt;Node21 -->
<g id="edge31_Node000004_Node000021" class="edge">
<title>Node4&#45;&gt;Node21</title>
<g id="a_edge31_Node000004_Node000021"><a xlink:title=" ">
<path fill="none" stroke="#63b8ff" d="M1198.2,-141.3C1314.97,-134.72 1519.87,-120.71 1694,-96 1697.07,-95.56 1700.2,-95.08 1703.37,-94.56"/>
<polygon fill="#63b8ff" stroke="#63b8ff" points="1197.66,-137.83 1187.87,-141.88 1198.05,-144.82 1197.66,-137.83"/>
</a>
</g>
</g>
<!-- Node22 -->
<g id="Node000022" class="node">
<title>Node22</title>
<g id="a_Node000022"><a xlink:href="../../d2/dbb/plan__insert_8cpp.html" target="_top" xlink:title=" ">
<polygon fill="white" stroke="#666666" points="1991,-90.5 1843,-90.5 1843,-71.5 1991,-71.5 1991,-90.5"/>
<text text-anchor="middle" x="1917" y="-78.5" font-family="Helvetica,sans-Serif" font-size="10.00">src/planner/plan_insert.cpp</text>
</a>
</g>
</g>
<!-- Node4&#45;&gt;Node22 -->
<g id="edge32_Node000004_Node000022" class="edge">
<title>Node4&#45;&gt;Node22</title>
<g id="a_edge32_Node000004_Node000022"><a xlink:title=" ">
<path fill="none" stroke="#63b8ff" d="M1197.8,-142.47C1336.86,-136.58 1605.75,-122.67 1833,-96 1845.33,-94.55 1858.62,-92.55 1870.9,-90.51"/>
<polygon fill="#63b8ff" stroke="#63b8ff" points="1197.45,-138.98 1187.61,-142.9 1197.74,-145.97 1197.45,-138.98"/>
</a>
</g>
</g>
<!-- Node23 -->
<g id="Node000023" class="node">
<title>Node23</title>
<g id="a_Node000023"><a xlink:href="../../d9/df0/plan__select_8cpp.html" target="_top" xlink:title=" ">
<polygon fill="white" stroke="#666666" points="2158.5,-90.5 2009.5,-90.5 2009.5,-71.5 2158.5,-71.5 2158.5,-90.5"/>
<text text-anchor="middle" x="2084" y="-78.5" font-family="Helvetica,sans-Serif" font-size="10.00">src/planner/plan_select.cpp</text>
</a>
</g>
</g>
<!-- Node4&#45;&gt;Node23 -->
<g id="edge33_Node000004_Node000023" class="edge">
<title>Node4&#45;&gt;Node23</title>
<g id="a_edge33_Node000004_Node000023"><a xlink:title=" ">
<path fill="none" stroke="#63b8ff" d="M1197.65,-144.14C1360.99,-140.15 1708.41,-128.34 2000,-96 2012.49,-94.61 2025.95,-92.61 2038.35,-90.54"/>
<polygon fill="#63b8ff" stroke="#63b8ff" points="1197.55,-140.65 1187.63,-144.38 1197.72,-147.64 1197.55,-140.65"/>
</a>
</g>
</g>
<!-- Node4&#45;&gt;Node24 -->
<g id="edge34_Node000004_Node000024" class="edge">
<title>Node4&#45;&gt;Node24</title>
<g id="a_edge34_Node000004_Node000024"><a xlink:title=" ">
<path fill="none" stroke="#63b8ff" d="M1197.78,-144.47C1464.43,-139.82 2223.65,-124.4 2471,-96 2474.04,-95.65 2477.14,-95.25 2480.26,-94.8"/>
<polygon fill="#63b8ff" stroke="#63b8ff" points="1197.67,-140.97 1187.74,-144.64 1197.79,-147.97 1197.67,-140.97"/>
</a>
</g>
</g>
<!-- Node25 -->
<g id="Node000025" class="node">
<title>Node25</title>
<g id="a_Node000025"><a xlink:href="../../d4/d79/plan__window__function_8cpp.html" target="_top" xlink:title=" ">
<polygon fill="white" stroke="#666666" points="2313.5,-96 2176.5,-96 2176.5,-66 2313.5,-66 2313.5,-96"/>
<text text-anchor="start" x="2184.5" y="-84" font-family="Helvetica,sans-Serif" font-size="10.00">src/planner/plan_window</text>
<text text-anchor="middle" x="2245" y="-73" font-family="Helvetica,sans-Serif" font-size="10.00">_function.cpp</text>
</a>
</g>
</g>
<!-- Node4&#45;&gt;Node25 -->
<g id="edge35_Node000004_Node000025" class="edge">
<title>Node4&#45;&gt;Node25</title>
<g id="a_edge35_Node000004_Node000025"><a xlink:title=" ">
<path fill="none" stroke="#63b8ff" d="M1197.95,-145.69C1383.67,-144.18 1810.69,-136.18 2167,-96 2170.01,-95.66 2173.07,-95.28 2176.17,-94.86"/>
<polygon fill="#63b8ff" stroke="#63b8ff" points="1197.65,-142.19 1187.67,-145.77 1197.7,-149.19 1197.65,-142.19"/>
</a>
</g>
</g>
<!-- Node26 -->
<g id="Node000026" class="node">
<title>Node26</title>
<g id="a_Node000026"><a xlink:href="../../de/d3d/planner_8cpp.html" target="_top" xlink:title=" ">
<polygon fill="white" stroke="#666666" points="2462,-90.5 2332,-90.5 2332,-71.5 2462,-71.5 2462,-90.5"/>
<text text-anchor="middle" x="2397" y="-78.5" font-family="Helvetica,sans-Serif" font-size="10.00">src/planner/planner.cpp</text>
</a>
</g>
</g>
<!-- Node4&#45;&gt;Node26 -->
<g id="edge36_Node000004_Node000026" class="edge">
<title>Node4&#45;&gt;Node26</title>
<g id="a_edge36_Node000004_Node000026"><a xlink:title=" ">
<path fill="none" stroke="#63b8ff" d="M1197.87,-146.72C1402.69,-147.3 1904.78,-143.26 2322,-96 2333.45,-94.7 2345.78,-92.67 2357.07,-90.55"/>
<polygon fill="#63b8ff" stroke="#63b8ff" points="1197.76,-143.22 1187.75,-146.69 1197.74,-150.22 1197.76,-143.22"/>
</a>
</g>
</g>
<!-- Node14&#45;&gt;Node2 -->
<g id="edge18_Node000014_Node000002" class="edge">
<title>Node14&#45;&gt;Node2</title>
<g id="a_edge18_Node000014_Node000002"><a xlink:title=" ">
<path fill="none" stroke="#63b8ff" d="M640.21,-73.22C561.51,-64.38 421.39,-47.9 302,-30 291.12,-28.37 279.45,-26.43 268.47,-24.53"/>
<polygon fill="#63b8ff" stroke="#63b8ff" points="640.1,-76.73 650.43,-74.37 640.88,-69.78 640.1,-76.73"/>
</a>
</g>
</g>
<!-- Node14&#45;&gt;Node3 -->
<g id="edge21_Node000014_Node000003" class="edge">
<title>Node14&#45;&gt;Node3</title>
<g id="a_edge21_Node000014_Node000003"><a xlink:title=" ">
<path fill="none" stroke="#63b8ff" d="M640.1,-76.43C536.49,-70.01 321.52,-54.83 141,-30 130.24,-28.52 118.68,-26.55 107.93,-24.56"/>
<polygon fill="#63b8ff" stroke="#63b8ff" points="640.18,-79.94 650.38,-77.06 640.61,-72.95 640.18,-79.94"/>
</a>
</g>
</g>
<!-- Node14&#45;&gt;Node5 -->
<g id="edge16_Node000014_Node000005" class="edge">
<title>Node14&#45;&gt;Node5</title>
<g id="a_edge16_Node000014_Node000005"><a xlink:title=" ">
<path fill="none" stroke="#63b8ff" d="M640.01,-67.52C577.12,-54.87 481.44,-35.61 426.61,-24.57"/>
<polygon fill="#63b8ff" stroke="#63b8ff" points="639.71,-71.03 650.2,-69.57 641.09,-64.17 639.71,-71.03"/>
</a>
</g>
</g>
<!-- Node14&#45;&gt;Node6 -->
<g id="edge17_Node000014_Node000006" class="edge">
<title>Node14&#45;&gt;Node6</title>
<g id="a_edge17_Node000014_Node000006"><a xlink:title=" ">
<path fill="none" stroke="#63b8ff" d="M658.37,-62.1C628.42,-49.82 590.03,-34.06 566.76,-24.52"/>
<polygon fill="#63b8ff" stroke="#63b8ff" points="657.18,-65.4 667.77,-65.95 659.84,-58.92 657.18,-65.4"/>
</a>
</g>
</g>
<!-- Node14&#45;&gt;Node7 -->
<g id="edge20_Node000014_Node000007" class="edge">
<title>Node14&#45;&gt;Node7</title>
<g id="a_edge20_Node000014_Node000007"><a xlink:title=" ">
<path fill="none" stroke="#63b8ff" d="M698.95,-55.6C697.6,-44.8 696.1,-32.78 695.11,-24.84"/>
<polygon fill="#63b8ff" stroke="#63b8ff" points="695.51,-56.31 700.22,-65.8 702.46,-55.44 695.51,-56.31"/>
</a>
</g>
</g>
<!-- Node14&#45;&gt;Node8 -->
<g id="edge24_Node000014_Node000008" class="edge">
<title>Node14&#45;&gt;Node8</title>
<g id="a_edge24_Node000014_Node000008"><a xlink:title=" ">
<path fill="none" stroke="#63b8ff" d="M740.71,-61.65C761.94,-51.58 787.85,-39.3 807.44,-30.01"/>
<polygon fill="#63b8ff" stroke="#63b8ff" points="739.16,-58.51 731.63,-65.95 742.16,-64.83 739.16,-58.51"/>
</a>
</g>
</g>
<!-- Node14&#45;&gt;Node11 -->
<g id="edge25_Node000014_Node000011" class="edge">
<title>Node14&#45;&gt;Node11</title>
<g id="a_edge25_Node000014_Node000011"><a xlink:title=" ">
<path fill="none" stroke="#63b8ff" d="M763.56,-65.93C1019.3,-29.31 1088.71,-59.4 1342,-30 1354.19,-28.58 1367.33,-26.57 1379.44,-24.5"/>
<polygon fill="#63b8ff" stroke="#63b8ff" points="763,-62.48 753.61,-67.38 764,-69.41 763,-62.48"/>
</a>
</g>
</g>
<!-- Node14&#45;&gt;Node12 -->
<g id="edge26_Node000014_Node000012" class="edge">
<title>Node14&#45;&gt;Node12</title>
<g id="a_edge26_Node000014_Node000012"><a xlink:title=" ">
<path fill="none" stroke="#63b8ff" d="M763.85,-65.92C1091.23,-21.15 1179.58,-64.26 1505,-30 1517.94,-28.64 1531.89,-26.61 1544.71,-24.52"/>
<polygon fill="#63b8ff" stroke="#63b8ff" points="763.02,-62.5 753.6,-67.34 763.98,-69.43 763.02,-62.5"/>
</a>
</g>
</g>
<!-- Node14&#45;&gt;Node13 -->
<g id="edge27_Node000014_Node000013" class="edge">
<title>Node14&#45;&gt;Node13</title>
<g id="a_edge27_Node000014_Node000013"><a xlink:title=" ">
<path fill="none" stroke="#63b8ff" d="M763.77,-65.94C1166.66,-12.47 1274.47,-66.21 1676,-30 1690.95,-28.65 1707.11,-26.62 1721.94,-24.51"/>
<polygon fill="#63b8ff" stroke="#63b8ff" points="763.04,-62.51 753.6,-67.31 763.97,-69.45 763.04,-62.51"/>
</a>
</g>
</g>
<!-- Node15 -->
<g id="Node000015" class="node">
<title>Node15</title>
<g id="a_Node000015"><a xlink:href="../../db/db0/bind__variable_8cpp.html" target="_top" xlink:title=" ">
<polygon fill="white" stroke="#666666" points="1075,-24.5 921,-24.5 921,-5.5 1075,-5.5 1075,-24.5"/>
<text text-anchor="middle" x="998" y="-12.5" font-family="Helvetica,sans-Serif" font-size="10.00">src/binder/bind_variable.cpp</text>
</a>
</g>
</g>
<!-- Node14&#45;&gt;Node15 -->
<g id="edge19_Node000014_Node000015" class="edge">
<title>Node14&#45;&gt;Node15</title>
<g id="a_edge19_Node000014_Node000015"><a xlink:title=" ">
<path fill="none" stroke="#63b8ff" d="M763.55,-65.68C836.83,-49.44 911.45,-33.84 956.59,-24.51"/>
<polygon fill="#63b8ff" stroke="#63b8ff" points="762.7,-62.28 753.7,-67.87 764.22,-69.11 762.7,-62.28"/>
</a>
</g>
</g>
<!-- Node16 -->
<g id="Node000016" class="node">
<title>Node16</title>
<g id="a_Node000016"><a xlink:href="../../d3/d6b/keyword__helper_8cpp.html" target="_top" xlink:title=" ">
<polygon fill="white" stroke="#666666" points="1202.5,-30 1093.5,-30 1093.5,0 1202.5,0 1202.5,-30"/>
<text text-anchor="start" x="1101.5" y="-18" font-family="Helvetica,sans-Serif" font-size="10.00">src/binder/keyword</text>
<text text-anchor="middle" x="1148" y="-7" font-family="Helvetica,sans-Serif" font-size="10.00">_helper.cpp</text>
</a>
</g>
</g>
<!-- Node14&#45;&gt;Node16 -->
<g id="edge22_Node000014_Node000016" class="edge">
<title>Node14&#45;&gt;Node16</title>
<g id="a_edge22_Node000014_Node000016"><a xlink:title=" ">
<path fill="none" stroke="#63b8ff" d="M763.59,-65.85C905.68,-42.11 945.11,-52.89 1084,-30 1087.03,-29.5 1090.13,-28.95 1093.26,-28.37"/>
<polygon fill="#63b8ff" stroke="#63b8ff" points="762.9,-62.42 753.63,-67.55 764.08,-69.32 762.9,-62.42"/>
</a>
</g>
</g>
<!-- Node17 -->
<g id="Node000017" class="node">
<title>Node17</title>
<g id="a_Node000017"><a xlink:href="../../d5/db7/node__tag__to__string_8cpp.html" target="_top" xlink:title=" ">
<polygon fill="white" stroke="#666666" points="1333.5,-30 1220.5,-30 1220.5,0 1333.5,0 1333.5,-30"/>
<text text-anchor="start" x="1228.5" y="-18" font-family="Helvetica,sans-Serif" font-size="10.00">src/binder/node_tag</text>
<text text-anchor="middle" x="1277" y="-7" font-family="Helvetica,sans-Serif" font-size="10.00">_to_string.cpp</text>
</a>
</g>
</g>
<!-- Node14&#45;&gt;Node17 -->
<g id="edge23_Node000014_Node000017" class="edge">
<title>Node14&#45;&gt;Node17</title>
<g id="a_edge23_Node000014_Node000017"><a xlink:title=" ">
<path fill="none" stroke="#63b8ff" d="M763.76,-65.88C961.61,-35.94 1016.18,-58.35 1211,-30 1214.01,-29.56 1217.1,-29.07 1220.2,-28.53"/>
<polygon fill="#63b8ff" stroke="#63b8ff" points="762.97,-62.46 753.61,-67.44 764.03,-69.38 762.97,-62.46"/>
</a>
</g>
</g>
<!-- Node27&#45;&gt;Node12 -->
<g id="edge38_Node000027_Node000012" class="edge">
<title>Node27&#45;&gt;Node12</title>
<g id="a_edge38_Node000027_Node000012"><a xlink:title=" ">
<path fill="none" stroke="#63b8ff" d="M2064.76,-145.57C2215.01,-143.91 2577.33,-135.78 2614,-96 2623.04,-86.2 2623.25,-75.61 2614,-66 2577.84,-28.42 1727.88,-35.25 1676,-30 1663.05,-28.69 1649.09,-26.65 1636.3,-24.54"/>
<polygon fill="#63b8ff" stroke="#63b8ff" points="2064.71,-142.07 2054.75,-145.68 2064.79,-149.07 2064.71,-142.07"/>
</a>
</g>
</g>
<!-- Node27&#45;&gt;Node13 -->
<g id="edge39_Node000027_Node000013" class="edge">
<title>Node27&#45;&gt;Node13</title>
<g id="a_edge39_Node000027_Node000013"><a xlink:title=" ">
<path fill="none" stroke="#63b8ff" d="M2064.93,-145.87C2221.33,-144.89 2608.94,-138.19 2648,-96 2657.06,-86.22 2657.15,-75.69 2648,-66 2621.4,-37.84 2082.18,-22.8 1864.74,-17.86"/>
<polygon fill="#63b8ff" stroke="#63b8ff" points="2064.5,-142.38 2054.52,-145.93 2064.54,-149.38 2064.5,-142.38"/>
</a>
</g>
</g>
<!-- Node27&#45;&gt;Node18 -->
<g id="edge40_Node000027_Node000018" class="edge">
<title>Node27&#45;&gt;Node18</title>
<g id="a_edge40_Node000027_Node000018"><a xlink:title=" ">
<path fill="none" stroke="#63b8ff" d="M1935.33,-143.93C1812.32,-139.43 1536.33,-126.58 1306,-96 1303.22,-95.63 1300.39,-95.22 1297.54,-94.78"/>
<polygon fill="#63b8ff" stroke="#63b8ff" points="1935.22,-147.43 1945.34,-144.29 1935.47,-140.44 1935.22,-147.43"/>
</a>
</g>
</g>
<!-- Node27&#45;&gt;Node19 -->
<g id="edge41_Node000027_Node000019" class="edge">
<title>Node27&#45;&gt;Node19</title>
<g id="a_edge41_Node000027_Node000019"><a xlink:title=" ">
<path fill="none" stroke="#63b8ff" d="M1935.48,-140.37C1840.6,-131.9 1657.9,-114.85 1503,-96 1489.61,-94.37 1475.21,-92.42 1461.69,-90.51"/>
<polygon fill="#63b8ff" stroke="#63b8ff" points="1935.23,-143.86 1945.5,-141.26 1935.85,-136.89 1935.23,-143.86"/>
</a>
</g>
</g>
<!-- Node27&#45;&gt;Node20 -->
<g id="edge42_Node000027_Node000020" class="edge">
<title>Node27&#45;&gt;Node20</title>
<g id="a_edge42_Node000027_Node000020"><a xlink:title=" ">
<path fill="none" stroke="#63b8ff" d="M1934.81,-135.6C1856.1,-123.03 1725.25,-102.15 1652.3,-90.51"/>
<polygon fill="#63b8ff" stroke="#63b8ff" points="1934.66,-139.12 1945.08,-137.24 1935.76,-132.2 1934.66,-139.12"/>
</a>
</g>
</g>
<!-- Node27&#45;&gt;Node21 -->
<g id="edge43_Node000027_Node000021" class="edge">
<title>Node27&#45;&gt;Node21</title>
<g id="a_edge43_Node000027_Node000021"><a xlink:title=" ">
<path fill="none" stroke="#63b8ff" d="M1938.25,-129.25C1900.12,-118.91 1851.76,-105.8 1815.67,-96.01"/>
<polygon fill="#63b8ff" stroke="#63b8ff" points="1937.64,-132.72 1948.21,-131.95 1939.47,-125.96 1937.64,-132.72"/>
</a>
</g>
</g>
<!-- Node27&#45;&gt;Node22 -->
<g id="edge44_Node000027_Node000022" class="edge">
<title>Node27&#45;&gt;Node22</title>
<g id="a_edge44_Node000027_Node000022"><a xlink:title=" ">
<path fill="none" stroke="#63b8ff" d="M1973.52,-125.58C1958.34,-113.87 1940.05,-99.77 1928.47,-90.84"/>
<polygon fill="#63b8ff" stroke="#63b8ff" points="1971.52,-128.46 1981.58,-131.8 1975.8,-122.92 1971.52,-128.46"/>
</a>
</g>
</g>
<!-- Node27&#45;&gt;Node23 -->
<g id="edge45_Node000027_Node000023" class="edge">
<title>Node27&#45;&gt;Node23</title>
<g id="a_edge45_Node000027_Node000023"><a xlink:title=" ">
<path fill="none" stroke="#63b8ff" d="M2026.79,-125.58C2042.16,-113.87 2060.67,-99.77 2072.39,-90.84"/>
<polygon fill="#63b8ff" stroke="#63b8ff" points="2024.48,-122.95 2018.64,-131.8 2028.72,-128.52 2024.48,-122.95"/>
</a>
</g>
</g>
<!-- Node27&#45;&gt;Node24 -->
<g id="edge46_Node000027_Node000024" class="edge">
<title>Node27&#45;&gt;Node24</title>
<g id="a_edge46_Node000027_Node000024"><a xlink:title=" ">
<path fill="none" stroke="#63b8ff" d="M2064.75,-140.91C2155.75,-133.34 2326.53,-117.67 2471,-96 2474.02,-95.55 2477.11,-95.06 2480.23,-94.54"/>
<polygon fill="#63b8ff" stroke="#63b8ff" points="2064.27,-137.43 2054.59,-141.74 2064.84,-144.41 2064.27,-137.43"/>
</a>
</g>
</g>
<!-- Node27&#45;&gt;Node25 -->
<g id="edge47_Node000027_Node000025" class="edge">
<title>Node27&#45;&gt;Node25</title>
<g id="a_edge47_Node000027_Node000025"><a xlink:title=" ">
<path fill="none" stroke="#63b8ff" d="M2063.6,-129.39C2103.26,-119.03 2153.73,-105.84 2191.36,-96.01"/>
<polygon fill="#63b8ff" stroke="#63b8ff" points="2062.56,-126.04 2053.77,-131.95 2064.33,-132.81 2062.56,-126.04"/>
</a>
</g>
</g>
<!-- Node27&#45;&gt;Node26 -->
<g id="edge48_Node000027_Node000026" class="edge">
<title>Node27&#45;&gt;Node26</title>
<g id="a_edge48_Node000027_Node000026"><a xlink:title=" ">
<path fill="none" stroke="#63b8ff" d="M2064.89,-136.52C2129.99,-126.87 2233.07,-111.2 2322,-96 2331.92,-94.3 2342.56,-92.38 2352.62,-90.52"/>
<polygon fill="#63b8ff" stroke="#63b8ff" points="2064.16,-133.09 2054.78,-138.01 2065.18,-140.01 2064.16,-133.09"/>
</a>
</g>
</g>
</g>
</svg>
