<?xml version="1.0" encoding="UTF-8" standalone="no"?>
<!DOCTYPE svg PUBLIC "-//W3C//DTD SVG 1.1//EN"
 "http://www.w3.org/Graphics/SVG/1.1/DTD/svg11.dtd">
<!-- Generated by graphviz version 2.43.0 (0)
 -->
<!-- Title: bustub::BoundStatement Pages: 1 -->
<svg width="354pt" height="360pt"
 viewBox="0.00 0.00 354.00 360.00" xmlns="http://www.w3.org/2000/svg" xmlns:xlink="http://www.w3.org/1999/xlink">
<g id="graph0" class="graph" transform="scale(1 1) rotate(0) translate(4 356)">
<title>bustub::BoundStatement</title>
<!-- Node1 -->
<g id="Node000001" class="node">
<title>Node1</title>
<g id="a_Node000001"><a xlink:title=" ">
<polygon fill="#999999" stroke="#666666" points="137,-185 0,-185 0,-166 137,-166 137,-185"/>
<text text-anchor="middle" x="68.5" y="-173" font-family="Helvetica,sans-Serif" font-size="10.00">bustub::BoundStatement</text>
</a>
</g>
</g>
<!-- Node2 -->
<g id="Node000002" class="node">
<title>Node2</title>
<g id="a_Node000002"><a xlink:href="../../d3/dfd/classbustub_1_1CreateStatement.html" target="_top" xlink:title=" ">
<polygon fill="white" stroke="#666666" points="329,-352 190,-352 190,-333 329,-333 329,-352"/>
<text text-anchor="middle" x="259.5" y="-340" font-family="Helvetica,sans-Serif" font-size="10.00">bustub::CreateStatement</text>
</a>
</g>
</g>
<!-- Node1&#45;&gt;Node2 -->
<g id="edge1_Node000001_Node000002" class="edge">
<title>Node1&#45;&gt;Node2</title>
<g id="a_edge1_Node000001_Node000002"><a xlink:title=" ">
<path fill="none" stroke="#63b8ff" d="M77.13,-194.64C91.04,-226.91 123.71,-291.81 173,-324.5 178.18,-327.94 183.9,-330.74 189.84,-333.01"/>
<polygon fill="#63b8ff" stroke="#63b8ff" points="80.21,-192.93 73.14,-185.04 73.75,-195.62 80.21,-192.93"/>
</a>
</g>
</g>
<!-- Node3 -->
<g id="Node000003" class="node">
<title>Node3</title>
<g id="a_Node000003"><a xlink:href="../../da/dc8/classbustub_1_1DeleteStatement.html" target="_top" xlink:title=" ">
<polygon fill="white" stroke="#666666" points="329,-315 190,-315 190,-296 329,-296 329,-315"/>
<text text-anchor="middle" x="259.5" y="-303" font-family="Helvetica,sans-Serif" font-size="10.00">bustub::DeleteStatement</text>
</a>
</g>
</g>
<!-- Node1&#45;&gt;Node3 -->
<g id="edge2_Node000001_Node000003" class="edge">
<title>Node1&#45;&gt;Node3</title>
<g id="a_edge2_Node000001_Node000003"><a xlink:title=" ">
<path fill="none" stroke="#63b8ff" d="M80.99,-193.78C97.9,-219.06 131.96,-264.21 173,-287.5 179.07,-290.94 185.72,-293.73 192.54,-295.99"/>
<polygon fill="#63b8ff" stroke="#63b8ff" points="83.76,-191.62 75.37,-185.15 77.89,-195.44 83.76,-191.62"/>
</a>
</g>
</g>
<!-- Node4 -->
<g id="Node000004" class="node">
<title>Node4</title>
<g id="a_Node000004"><a xlink:href="../../dc/dca/classbustub_1_1ExplainStatement.html" target="_top" xlink:title=" ">
<polygon fill="white" stroke="#666666" points="331,-278 188,-278 188,-259 331,-259 331,-278"/>
<text text-anchor="middle" x="259.5" y="-266" font-family="Helvetica,sans-Serif" font-size="10.00">bustub::ExplainStatement</text>
</a>
</g>
</g>
<!-- Node1&#45;&gt;Node4 -->
<g id="edge3_Node000001_Node000004" class="edge">
<title>Node1&#45;&gt;Node4</title>
<g id="a_edge3_Node000001_Node000004"><a xlink:title=" ">
<path fill="none" stroke="#63b8ff" d="M87.24,-192C106.76,-209.24 139.81,-235.78 173,-250.5 180.63,-253.88 188.92,-256.64 197.25,-258.89"/>
<polygon fill="#63b8ff" stroke="#63b8ff" points="89.51,-189.34 79.74,-185.24 84.82,-194.54 89.51,-189.34"/>
</a>
</g>
</g>
<!-- Node5 -->
<g id="Node000005" class="node">
<title>Node5</title>
<g id="a_Node000005"><a xlink:href="../../d0/d74/classbustub_1_1IndexStatement.html" target="_top" xlink:title=" ">
<polygon fill="white" stroke="#666666" points="326.5,-241 192.5,-241 192.5,-222 326.5,-222 326.5,-241"/>
<text text-anchor="middle" x="259.5" y="-229" font-family="Helvetica,sans-Serif" font-size="10.00">bustub::IndexStatement</text>
</a>
</g>
</g>
<!-- Node1&#45;&gt;Node5 -->
<g id="edge4_Node000001_Node000005" class="edge">
<title>Node1&#45;&gt;Node5</title>
<g id="a_edge4_Node000001_Node000005"><a xlink:title=" ">
<path fill="none" stroke="#63b8ff" d="M101.97,-188.79C122.17,-196.72 148.81,-206.55 173,-213.5 183.93,-216.64 195.8,-219.49 207.11,-221.94"/>
<polygon fill="#63b8ff" stroke="#63b8ff" points="103.2,-185.52 92.61,-185.08 100.61,-192.02 103.2,-185.52"/>
</a>
</g>
</g>
<!-- Node6 -->
<g id="Node000006" class="node">
<title>Node6</title>
<g id="a_Node000006"><a xlink:href="../../d3/de6/classbustub_1_1InsertStatement.html" target="_top" xlink:title=" ">
<polygon fill="white" stroke="#666666" points="326.5,-204 192.5,-204 192.5,-185 326.5,-185 326.5,-204"/>
<text text-anchor="middle" x="259.5" y="-192" font-family="Helvetica,sans-Serif" font-size="10.00">bustub::InsertStatement</text>
</a>
</g>
</g>
<!-- Node1&#45;&gt;Node6 -->
<g id="edge5_Node000001_Node000006" class="edge">
<title>Node1&#45;&gt;Node6</title>
<g id="a_edge5_Node000001_Node000006"><a xlink:title=" ">
<path fill="none" stroke="#63b8ff" d="M147.4,-183.33C162.29,-184.83 177.74,-186.38 192.22,-187.84"/>
<polygon fill="#63b8ff" stroke="#63b8ff" points="147.5,-179.82 137.2,-182.31 146.8,-186.79 147.5,-179.82"/>
</a>
</g>
</g>
<!-- Node7 -->
<g id="Node000007" class="node">
<title>Node7</title>
<g id="a_Node000007"><a xlink:href="../../dd/db4/classbustub_1_1SelectStatement.html" target="_top" xlink:title=" ">
<polygon fill="white" stroke="#666666" points="328,-167 191,-167 191,-148 328,-148 328,-167"/>
<text text-anchor="middle" x="259.5" y="-155" font-family="Helvetica,sans-Serif" font-size="10.00">bustub::SelectStatement</text>
</a>
</g>
</g>
<!-- Node1&#45;&gt;Node7 -->
<g id="edge6_Node000001_Node000007" class="edge">
<title>Node1&#45;&gt;Node7</title>
<g id="a_edge6_Node000001_Node000007"><a xlink:title=" ">
<path fill="none" stroke="#63b8ff" d="M147.57,-168.06C161.97,-166.69 176.9,-165.27 190.96,-163.93"/>
<polygon fill="#63b8ff" stroke="#63b8ff" points="146.82,-164.62 137.2,-169.05 147.49,-171.59 146.82,-164.62"/>
</a>
</g>
</g>
<!-- Node8 -->
<g id="Node000008" class="node">
<title>Node8</title>
<g id="a_Node000008"><a xlink:href="../../db/dca/classbustub_1_1TransactionStatement.html" target="_top" xlink:title=" ">
<polygon fill="white" stroke="#666666" points="340.5,-130 178.5,-130 178.5,-111 340.5,-111 340.5,-130"/>
<text text-anchor="middle" x="259.5" y="-118" font-family="Helvetica,sans-Serif" font-size="10.00">bustub::TransactionStatement</text>
</a>
</g>
</g>
<!-- Node1&#45;&gt;Node8 -->
<g id="edge7_Node000001_Node000008" class="edge">
<title>Node1&#45;&gt;Node8</title>
<g id="a_edge7_Node000001_Node000008"><a xlink:title=" ">
<path fill="none" stroke="#63b8ff" d="M103.93,-162.4C123.92,-155.08 149.67,-146.12 173,-139.5 185.14,-136.05 198.4,-132.84 210.77,-130.08"/>
<polygon fill="#63b8ff" stroke="#63b8ff" points="102.5,-159.19 94.34,-165.95 104.93,-165.76 102.5,-159.19"/>
</a>
</g>
</g>
<!-- Node9 -->
<g id="Node000009" class="node">
<title>Node9</title>
<g id="a_Node000009"><a xlink:href="../../d7/d51/classbustub_1_1UpdateStatement.html" target="_top" xlink:title=" ">
<polygon fill="white" stroke="#666666" points="330.5,-93 188.5,-93 188.5,-74 330.5,-74 330.5,-93"/>
<text text-anchor="middle" x="259.5" y="-81" font-family="Helvetica,sans-Serif" font-size="10.00">bustub::UpdateStatement</text>
</a>
</g>
</g>
<!-- Node1&#45;&gt;Node9 -->
<g id="edge8_Node000001_Node000009" class="edge">
<title>Node1&#45;&gt;Node9</title>
<g id="a_edge8_Node000001_Node000009"><a xlink:title=" ">
<path fill="none" stroke="#63b8ff" d="M87.67,-159.26C107.33,-142.55 140.27,-116.98 173,-102.5 181.76,-98.62 191.39,-95.51 200.92,-93.01"/>
<polygon fill="#63b8ff" stroke="#63b8ff" points="85.36,-156.63 80.09,-165.82 89.94,-161.92 85.36,-156.63"/>
</a>
</g>
</g>
<!-- Node10 -->
<g id="Node000010" class="node">
<title>Node10</title>
<g id="a_Node000010"><a xlink:href="../../d5/dd3/classbustub_1_1VariableSetStatement.html" target="_top" xlink:title=" ">
<polygon fill="white" stroke="#666666" points="340.5,-56 178.5,-56 178.5,-37 340.5,-37 340.5,-56"/>
<text text-anchor="middle" x="259.5" y="-44" font-family="Helvetica,sans-Serif" font-size="10.00">bustub::VariableSetStatement</text>
</a>
</g>
</g>
<!-- Node1&#45;&gt;Node10 -->
<g id="edge9_Node000001_Node000010" class="edge">
<title>Node1&#45;&gt;Node10</title>
<g id="a_edge9_Node000001_Node000010"><a xlink:title=" ">
<path fill="none" stroke="#63b8ff" d="M81.36,-157.24C98.49,-132.42 132.58,-88.5 173,-65.5 179.87,-61.59 187.48,-58.48 195.24,-56.02"/>
<polygon fill="#63b8ff" stroke="#63b8ff" points="78.32,-155.48 75.65,-165.73 84.13,-159.39 78.32,-155.48"/>
</a>
</g>
</g>
<!-- Node11 -->
<g id="Node000011" class="node">
<title>Node11</title>
<g id="a_Node000011"><a xlink:href="../../df/d9a/classbustub_1_1VariableShowStatement.html" target="_top" xlink:title=" ">
<polygon fill="white" stroke="#666666" points="346,-19 173,-19 173,0 346,0 346,-19"/>
<text text-anchor="middle" x="259.5" y="-7" font-family="Helvetica,sans-Serif" font-size="10.00">bustub::VariableShowStatement</text>
</a>
</g>
</g>
<!-- Node1&#45;&gt;Node11 -->
<g id="edge10_Node000001_Node000011" class="edge">
<title>Node1&#45;&gt;Node11</title>
<g id="a_edge10_Node000001_Node000011"><a xlink:title=" ">
<path fill="none" stroke="#63b8ff" d="M77.45,-156.21C91.64,-124.3 124.47,-60.85 173,-28.5 178.82,-24.62 185.31,-21.52 192.04,-19.05"/>
<polygon fill="#63b8ff" stroke="#63b8ff" points="74.09,-155.16 73.35,-165.73 80.52,-157.93 74.09,-155.16"/>
</a>
</g>
</g>
</g>
</svg>
