<?xml version="1.0" encoding="UTF-8" standalone="no"?>
<!DOCTYPE svg PUBLIC "-//W3C//DTD SVG 1.1//EN"
 "http://www.w3.org/Graphics/SVG/1.1/DTD/svg11.dtd">
<!-- Generated by graphviz version 2.43.0 (0)
 -->
<!-- Title: bustub::AbstractPlanNode Pages: 1 -->
<!--zoomable 656 -->

<svg id="main" version="1.1" xmlns="http://www.w3.org/2000/svg" xmlns:xlink="http://www.w3.org/1999/xlink" xml:space="preserve" onload="init(evt)">
<style type="text/css"><![CDATA[
.node, .edge {opacity: 0.7;}
.node.selected, .edge.selected {opacity: 1;}
.edge:hover path { stroke: red; }
.edge:hover polygon { stroke: red; fill: red; }
]]></style>

<defs>
  <circle id="rim" cx="0" cy="0" r="7"/>
  <circle id="rim2" cx="0" cy="0" r="3.5"/>
  <g id="zoomPlus">
    <use xlink:href="#rim" fill="#404040"><set attributeName="fill" to="#808080" begin="zoomplus.mouseover" end="zoomplus.mouseout"/></use>
    <path d="M-4,0h8M0,-4v8" fill="none" stroke="white" stroke-width="1.5" pointer-events="none"/>
  </g>
  <g id="zoomMin">
    <use xlink:href="#rim" fill="#404040"><set attributeName="fill" to="#808080" begin="zoomminus.mouseover" end="zoomminus.mouseout"/></use>
    <path d="M-4,0h8" fill="none" stroke="white" stroke-width="1.5" pointer-events="none"/>
  </g>
  <g id="arrowUp" transform="translate(30 24)">
    <use xlink:href="#rim"/>
    <path pointer-events="none" fill="none" stroke="white" stroke-width="1.5" d="M0,-3.0v7 M-2.5,-0.5L0,-3.0L2.5,-0.5"/>
  </g>
  <g id="arrowRight" transform="rotate(90) translate(36 -43)">
    <use xlink:href="#rim"/>
    <path pointer-events="none" fill="none" stroke="white" stroke-width="1.5" d="M0,-3.0v7 M-2.5,-0.5L0,-3.0L2.5,-0.5"/>
  </g>
  <g id="arrowDown" transform="rotate(180) translate(-30 -48)">
    <use xlink:href="#rim"/>
    <path pointer-events="none" fill="none" stroke="white" stroke-width="1.5" d="M0,-3.0v7 M-2.5,-0.5L0,-3.0L2.5,-0.5"/>
  </g>
  <g id="arrowLeft" transform="rotate(270) translate(-36 17)">
    <use xlink:href="#rim"/>
    <path pointer-events="none" fill="none" stroke="white" stroke-width="1.5" d="M0,-3.0v7 M-2.5,-0.5L0,-3.0L2.5,-0.5"/>
  </g>
  <g id="resetDef">
    <use xlink:href="#rim2" fill="#404040"><set attributeName="fill" to="#808080" begin="reset.mouseover" end="reset.mouseout"/></use>
  </g>
</defs>
<script type="application/ecmascript">
var viewWidth = 369;
var viewHeight = 656;
var sectionId = 'dynsection-0';
</script>
<script type="application/ecmascript" xlink:href="../../svg.min.js"/>
<svg id="graph" class="graph">
<g id="viewport">
<title>bustub::AbstractPlanNode</title>
<!-- Node1 -->
<g id="Node000001" class="node">
<title>Node1</title>
<g id="a_Node000001"><a xlink:title=" ">
<polygon fill="#999999" stroke="#666666" points="143,-333 0,-333 0,-314 143,-314 143,-333"/>
<text text-anchor="middle" x="71.5" y="-321" font-family="Helvetica,sans-Serif" font-size="10.00">bustub::AbstractPlanNode</text>
</a>
</g>
</g>
<!-- Node2 -->
<g id="Node000002" class="node">
<title>Node2</title>
<g id="a_Node000002"><a xlink:href="../../db/ddc/classbustub_1_1AggregationPlanNode.html" target="_top" xlink:title=" ">
<polygon fill="white" stroke="#666666" points="350.5,-648 189.5,-648 189.5,-629 350.5,-629 350.5,-648"/>
<text text-anchor="middle" x="270" y="-636" font-family="Helvetica,sans-Serif" font-size="10.00">bustub::AggregationPlanNode</text>
</a>
</g>
</g>
<!-- Node1&#45;&gt;Node2 -->
<g id="edge1_Node000001_Node000002" class="edge">
<title>Node1&#45;&gt;Node2</title>
<g id="a_edge1_Node000001_Node000002"><a xlink:title=" ">
<path fill="none" stroke="#63b8ff" d="M73.24,-343.25C76.38,-396.87 92.84,-546.15 179,-620.5 182.86,-623.83 187.16,-626.61 191.73,-628.92"/>
<polygon fill="#63b8ff" stroke="#63b8ff" points="76.73,-342.87 72.74,-333.05 69.74,-343.21 76.73,-342.87"/>
</a>
</g>
</g>
<!-- Node3 -->
<g id="Node000003" class="node">
<title>Node3</title>
<g id="a_Node000003"><a xlink:href="../../de/d9e/classbustub_1_1DeletePlanNode.html" target="_top" xlink:title=" ">
<polygon fill="white" stroke="#666666" points="337,-611 203,-611 203,-592 337,-592 337,-611"/>
<text text-anchor="middle" x="270" y="-599" font-family="Helvetica,sans-Serif" font-size="10.00">bustub::DeletePlanNode</text>
</a>
</g>
</g>
<!-- Node1&#45;&gt;Node3 -->
<g id="edge2_Node000001_Node000003" class="edge">
<title>Node1&#45;&gt;Node3</title>
<g id="a_edge2_Node000001_Node000003"><a xlink:title=" ">
<path fill="none" stroke="#63b8ff" d="M74.38,-343.39C80.16,-392.51 102.19,-520.14 179,-583.5 185.88,-589.18 194.06,-593.23 202.64,-596.1"/>
<polygon fill="#63b8ff" stroke="#63b8ff" points="77.83,-342.73 73.29,-333.16 70.87,-343.48 77.83,-342.73"/>
</a>
</g>
</g>
<!-- Node4 -->
<g id="Node000004" class="node">
<title>Node4</title>
<g id="a_Node000004"><a xlink:href="../../dc/dea/classbustub_1_1FilterPlanNode.html" target="_top" xlink:title=" ">
<polygon fill="white" stroke="#666666" points="333.5,-574 206.5,-574 206.5,-555 333.5,-555 333.5,-574"/>
<text text-anchor="middle" x="270" y="-562" font-family="Helvetica,sans-Serif" font-size="10.00">bustub::FilterPlanNode</text>
</a>
</g>
</g>
<!-- Node1&#45;&gt;Node4 -->
<g id="edge3_Node000001_Node000004" class="edge">
<title>Node1&#45;&gt;Node4</title>
<g id="a_edge3_Node000001_Node000004"><a xlink:title=" ">
<path fill="none" stroke="#63b8ff" d="M75.89,-343.53C84.47,-387.74 111.41,-493.9 179,-546.5 186.92,-552.67 196.4,-556.89 206.18,-559.75"/>
<polygon fill="#63b8ff" stroke="#63b8ff" points="79.29,-342.68 74.05,-333.47 72.4,-343.94 79.29,-342.68"/>
</a>
</g>
</g>
<!-- Node5 -->
<g id="Node000005" class="node">
<title>Node5</title>
<g id="a_Node000005"><a xlink:href="../../df/dfc/classbustub_1_1HashJoinPlanNode.html" target="_top" xlink:title=" ">
<polygon fill="white" stroke="#666666" points="342.5,-537 197.5,-537 197.5,-518 342.5,-518 342.5,-537"/>
<text text-anchor="middle" x="270" y="-525" font-family="Helvetica,sans-Serif" font-size="10.00">bustub::HashJoinPlanNode</text>
</a>
</g>
</g>
<!-- Node1&#45;&gt;Node5 -->
<g id="edge4_Node000001_Node000005" class="edge">
<title>Node1&#45;&gt;Node5</title>
<g id="a_edge4_Node000001_Node000005"><a xlink:title=" ">
<path fill="none" stroke="#63b8ff" d="M77.77,-343.06C89.22,-381.57 120.19,-467.15 179,-509.5 184.56,-513.5 190.79,-516.67 197.31,-519.17"/>
<polygon fill="#63b8ff" stroke="#63b8ff" points="81.04,-341.78 74.94,-333.12 74.31,-343.7 81.04,-341.78"/>
</a>
</g>
</g>
<!-- Node6 -->
<g id="Node000006" class="node">
<title>Node6</title>
<g id="a_Node000006"><a xlink:href="../../d0/da2/classbustub_1_1IndexScanPlanNode.html" target="_top" xlink:title=" ">
<polygon fill="white" stroke="#666666" points="346,-500 194,-500 194,-481 346,-481 346,-500"/>
<text text-anchor="middle" x="270" y="-488" font-family="Helvetica,sans-Serif" font-size="10.00">bustub::IndexScanPlanNode</text>
</a>
</g>
</g>
<!-- Node1&#45;&gt;Node6 -->
<g id="edge5_Node000001_Node000006" class="edge">
<title>Node1&#45;&gt;Node6</title>
<g id="a_edge5_Node000001_Node000006"><a xlink:title=" ">
<path fill="none" stroke="#63b8ff" d="M80.29,-342.28C94.68,-374.5 128.64,-439.95 179,-472.5 184.22,-475.87 189.94,-478.64 195.88,-480.9"/>
<polygon fill="#63b8ff" stroke="#63b8ff" points="83.49,-340.86 76.31,-333.07 77.06,-343.64 83.49,-340.86"/>
</a>
</g>
</g>
<!-- Node7 -->
<g id="Node000007" class="node">
<title>Node7</title>
<g id="a_Node000007"><a xlink:href="../../dc/dc1/classbustub_1_1InsertPlanNode.html" target="_top" xlink:title=" ">
<polygon fill="white" stroke="#666666" points="335,-463 205,-463 205,-444 335,-444 335,-463"/>
<text text-anchor="middle" x="270" y="-451" font-family="Helvetica,sans-Serif" font-size="10.00">bustub::InsertPlanNode</text>
</a>
</g>
</g>
<!-- Node1&#45;&gt;Node7 -->
<g id="edge6_Node000001_Node000007" class="edge">
<title>Node1&#45;&gt;Node7</title>
<g id="a_edge6_Node000001_Node000007"><a xlink:title=" ">
<path fill="none" stroke="#63b8ff" d="M84.19,-341.5C101.63,-366.78 136.94,-412.3 179,-435.5 186.95,-439.89 195.83,-443.21 204.82,-445.73"/>
<polygon fill="#63b8ff" stroke="#63b8ff" points="87.08,-339.53 78.6,-333.18 81.27,-343.43 87.08,-339.53"/>
</a>
</g>
</g>
<!-- Node8 -->
<g id="Node000008" class="node">
<title>Node8</title>
<g id="a_Node000008"><a xlink:href="../../d5/da3/classbustub_1_1LimitPlanNode.html" target="_top" xlink:title=" ">
<polygon fill="white" stroke="#666666" points="333.5,-426 206.5,-426 206.5,-407 333.5,-407 333.5,-426"/>
<text text-anchor="middle" x="270" y="-414" font-family="Helvetica,sans-Serif" font-size="10.00">bustub::LimitPlanNode</text>
</a>
</g>
</g>
<!-- Node1&#45;&gt;Node8 -->
<g id="edge7_Node000001_Node000008" class="edge">
<title>Node1&#45;&gt;Node8</title>
<g id="a_edge7_Node000001_Node000008"><a xlink:title=" ">
<path fill="none" stroke="#63b8ff" d="M90.49,-339.77C110.59,-357.04 144.82,-383.83 179,-398.5 187.64,-402.21 197.08,-405.16 206.49,-407.52"/>
<polygon fill="#63b8ff" stroke="#63b8ff" points="92.61,-336.97 82.78,-333.01 87.99,-342.24 92.61,-336.97"/>
</a>
</g>
</g>
<!-- Node9 -->
<g id="Node000009" class="node">
<title>Node9</title>
<g id="a_Node000009"><a xlink:href="../../de/d42/classbustub_1_1MockScanPlanNode.html" target="_top" xlink:title=" ">
<polygon fill="white" stroke="#666666" points="346,-389 194,-389 194,-370 346,-370 346,-389"/>
<text text-anchor="middle" x="270" y="-377" font-family="Helvetica,sans-Serif" font-size="10.00">bustub::MockScanPlanNode</text>
</a>
</g>
</g>
<!-- Node1&#45;&gt;Node9 -->
<g id="edge8_Node000001_Node000009" class="edge">
<title>Node1&#45;&gt;Node9</title>
<g id="a_edge8_Node000001_Node000009"><a xlink:title=" ">
<path fill="none" stroke="#63b8ff" d="M105.64,-336.73C126.46,-344.69 154.01,-354.58 179,-361.5 190.36,-364.65 202.68,-367.48 214.44,-369.91"/>
<polygon fill="#63b8ff" stroke="#63b8ff" points="106.88,-333.46 96.29,-333.11 104.35,-339.98 106.88,-333.46"/>
</a>
</g>
</g>
<!-- Node10 -->
<g id="Node000010" class="node">
<title>Node10</title>
<g id="a_Node000010"><a xlink:href="../../d3/d16/classbustub_1_1NestedIndexJoinPlanNode.html" target="_top" xlink:title=" ">
<polygon fill="white" stroke="#666666" points="361,-352 179,-352 179,-333 361,-333 361,-352"/>
<text text-anchor="middle" x="270" y="-340" font-family="Helvetica,sans-Serif" font-size="10.00">bustub::NestedIndexJoinPlanNode</text>
</a>
</g>
</g>
<!-- Node1&#45;&gt;Node10 -->
<g id="edge9_Node000001_Node000010" class="edge">
<title>Node1&#45;&gt;Node10</title>
<g id="a_edge9_Node000001_Node000010"><a xlink:title=" ">
<path fill="none" stroke="#63b8ff" d="M153.3,-331.31C161.7,-332.13 170.28,-332.95 178.77,-333.78"/>
<polygon fill="#63b8ff" stroke="#63b8ff" points="153.45,-327.81 143.16,-330.33 152.78,-334.78 153.45,-327.81"/>
</a>
</g>
</g>
<!-- Node11 -->
<g id="Node000011" class="node">
<title>Node11</title>
<g id="a_Node000011"><a xlink:href="../../d0/dd8/classbustub_1_1NestedLoopJoinPlanNode.html" target="_top" xlink:title=" ">
<polygon fill="white" stroke="#666666" points="359,-315 181,-315 181,-296 359,-296 359,-315"/>
<text text-anchor="middle" x="270" y="-303" font-family="Helvetica,sans-Serif" font-size="10.00">bustub::NestedLoopJoinPlanNode</text>
</a>
</g>
</g>
<!-- Node1&#45;&gt;Node11 -->
<g id="edge10_Node000001_Node000011" class="edge">
<title>Node1&#45;&gt;Node11</title>
<g id="a_edge10_Node000001_Node000011"><a xlink:title=" ">
<path fill="none" stroke="#63b8ff" d="M153.3,-316.1C162.38,-315.27 171.66,-314.42 180.82,-313.58"/>
<polygon fill="#63b8ff" stroke="#63b8ff" points="152.8,-312.63 143.16,-317.03 153.44,-319.6 152.8,-312.63"/>
</a>
</g>
</g>
<!-- Node12 -->
<g id="Node000012" class="node">
<title>Node12</title>
<g id="a_Node000012"><a xlink:href="../../d3/d1f/classbustub_1_1ProjectionPlanNode.html" target="_top" xlink:title=" ">
<polygon fill="white" stroke="#666666" points="345.5,-278 194.5,-278 194.5,-259 345.5,-259 345.5,-278"/>
<text text-anchor="middle" x="270" y="-266" font-family="Helvetica,sans-Serif" font-size="10.00">bustub::ProjectionPlanNode</text>
</a>
</g>
</g>
<!-- Node1&#45;&gt;Node12 -->
<g id="edge11_Node000001_Node000012" class="edge">
<title>Node1&#45;&gt;Node12</title>
<g id="a_edge11_Node000001_Node000012"><a xlink:title=" ">
<path fill="none" stroke="#63b8ff" d="M107.65,-310.45C128.26,-303.1 154.89,-294.09 179,-287.5 191.78,-284 205.74,-280.78 218.76,-278.01"/>
<polygon fill="#63b8ff" stroke="#63b8ff" points="106.28,-307.23 98.06,-313.91 108.66,-313.81 106.28,-307.23"/>
</a>
</g>
</g>
<!-- Node13 -->
<g id="Node000013" class="node">
<title>Node13</title>
<g id="a_Node000013"><a xlink:href="../../db/d74/classbustub_1_1SeqScanPlanNode.html" target="_top" xlink:title=" ">
<polygon fill="white" stroke="#666666" points="341.5,-241 198.5,-241 198.5,-222 341.5,-222 341.5,-241"/>
<text text-anchor="middle" x="270" y="-229" font-family="Helvetica,sans-Serif" font-size="10.00">bustub::SeqScanPlanNode</text>
</a>
</g>
</g>
<!-- Node1&#45;&gt;Node13 -->
<g id="edge12_Node000001_Node000013" class="edge">
<title>Node1&#45;&gt;Node13</title>
<g id="a_edge12_Node000001_Node000013"><a xlink:title=" ">
<path fill="none" stroke="#63b8ff" d="M91.25,-307.21C111.52,-290.46 145.46,-264.86 179,-250.5 187.96,-246.67 197.75,-243.58 207.48,-241.1"/>
<polygon fill="#63b8ff" stroke="#63b8ff" points="88.83,-304.67 83.44,-313.79 93.34,-310.03 88.83,-304.67"/>
</a>
</g>
</g>
<!-- Node14 -->
<g id="Node000014" class="node">
<title>Node14</title>
<g id="a_Node000014"><a xlink:href="../../de/db5/classbustub_1_1SortPlanNode.html" target="_top" xlink:title=" ">
<polygon fill="white" stroke="#666666" points="331,-204 209,-204 209,-185 331,-185 331,-204"/>
<text text-anchor="middle" x="270" y="-192" font-family="Helvetica,sans-Serif" font-size="10.00">bustub::SortPlanNode</text>
</a>
</g>
</g>
<!-- Node1&#45;&gt;Node14 -->
<g id="edge13_Node000001_Node000014" class="edge">
<title>Node1&#45;&gt;Node14</title>
<g id="a_edge13_Node000001_Node000014"><a xlink:title=" ">
<path fill="none" stroke="#63b8ff" d="M84.8,-305.19C102.54,-280.3 137.74,-236.3 179,-213.5 188.09,-208.48 198.36,-204.78 208.63,-202.06"/>
<polygon fill="#63b8ff" stroke="#63b8ff" points="81.71,-303.49 78.88,-313.7 87.46,-307.49 81.71,-303.49"/>
</a>
</g>
</g>
<!-- Node15 -->
<g id="Node000015" class="node">
<title>Node15</title>
<g id="a_Node000015"><a xlink:href="../../d1/d98/classbustub_1_1TopNPerGroupPlanNode.html" target="_top" xlink:title=" ">
<polygon fill="white" stroke="#666666" points="355.5,-167 184.5,-167 184.5,-148 355.5,-148 355.5,-167"/>
<text text-anchor="middle" x="270" y="-155" font-family="Helvetica,sans-Serif" font-size="10.00">bustub::TopNPerGroupPlanNode</text>
</a>
</g>
</g>
<!-- Node1&#45;&gt;Node15 -->
<g id="edge14_Node000001_Node000015" class="edge">
<title>Node1&#45;&gt;Node15</title>
<g id="a_edge14_Node000001_Node000015"><a xlink:title=" ">
<path fill="none" stroke="#63b8ff" d="M80.61,-304.57C95.28,-272.71 129.39,-208.71 179,-176.5 184.89,-172.67 191.42,-169.6 198.19,-167.14"/>
<polygon fill="#63b8ff" stroke="#63b8ff" points="77.41,-303.14 76.53,-313.7 83.8,-305.99 77.41,-303.14"/>
</a>
</g>
</g>
<!-- Node16 -->
<g id="Node000016" class="node">
<title>Node16</title>
<g id="a_Node000016"><a xlink:href="../../dd/d79/classbustub_1_1TopNPlanNode.html" target="_top" xlink:title=" ">
<polygon fill="white" stroke="#666666" points="333,-130 207,-130 207,-111 333,-111 333,-130"/>
<text text-anchor="middle" x="270" y="-118" font-family="Helvetica,sans-Serif" font-size="10.00">bustub::TopNPlanNode</text>
</a>
</g>
</g>
<!-- Node1&#45;&gt;Node16 -->
<g id="edge15_Node000001_Node000016" class="edge">
<title>Node1&#45;&gt;Node16</title>
<g id="a_edge15_Node000001_Node000016"><a xlink:title=" ">
<path fill="none" stroke="#63b8ff" d="M78.04,-303.66C89.8,-265.4 121.06,-181.49 179,-139.5 187.15,-133.6 196.73,-129.45 206.56,-126.55"/>
<polygon fill="#63b8ff" stroke="#63b8ff" points="74.59,-302.99 75.12,-313.57 81.3,-304.97 74.59,-302.99"/>
</a>
</g>
</g>
<!-- Node17 -->
<g id="Node000017" class="node">
<title>Node17</title>
<g id="a_Node000017"><a xlink:href="../../da/dd0/classbustub_1_1UpdatePlanNode.html" target="_top" xlink:title=" ">
<polygon fill="white" stroke="#666666" points="338.5,-93 201.5,-93 201.5,-74 338.5,-74 338.5,-93"/>
<text text-anchor="middle" x="270" y="-81" font-family="Helvetica,sans-Serif" font-size="10.00">bustub::UpdatePlanNode</text>
</a>
</g>
</g>
<!-- Node1&#45;&gt;Node17 -->
<g id="edge16_Node000001_Node000017" class="edge">
<title>Node1&#45;&gt;Node17</title>
<g id="a_edge16_Node000001_Node000017"><a xlink:title=" ">
<path fill="none" stroke="#63b8ff" d="M75.99,-303.7C84.77,-259.98 112.09,-154.96 179,-102.5 185.54,-97.38 193.13,-93.55 201.08,-90.71"/>
<polygon fill="#63b8ff" stroke="#63b8ff" points="72.52,-303.17 74.1,-313.65 79.4,-304.47 72.52,-303.17"/>
</a>
</g>
</g>
<!-- Node18 -->
<g id="Node000018" class="node">
<title>Node18</title>
<g id="a_Node000018"><a xlink:href="../../dd/d5e/classbustub_1_1ValuesPlanNode.html" target="_top" xlink:title=" ">
<polygon fill="white" stroke="#666666" points="337,-56 203,-56 203,-37 337,-37 337,-56"/>
<text text-anchor="middle" x="270" y="-44" font-family="Helvetica,sans-Serif" font-size="10.00">bustub::ValuesPlanNode</text>
</a>
</g>
</g>
<!-- Node1&#45;&gt;Node18 -->
<g id="edge17_Node000001_Node000018" class="edge">
<title>Node1&#45;&gt;Node18</title>
<g id="a_edge17_Node000001_Node000018"><a xlink:title=" ">
<path fill="none" stroke="#63b8ff" d="M74.48,-303.81C80.46,-255.18 102.94,-128.75 179,-65.5 185.88,-59.78 194.05,-55.66 202.63,-52.7"/>
<polygon fill="#63b8ff" stroke="#63b8ff" points="70.98,-303.6 73.34,-313.93 77.93,-304.39 70.98,-303.6"/>
</a>
</g>
</g>
<!-- Node19 -->
<g id="Node000019" class="node">
<title>Node19</title>
<g id="a_Node000019"><a xlink:href="../../da/da1/classbustub_1_1WindowFunctionPlanNode.html" target="_top" xlink:title=" ">
<polygon fill="white" stroke="#666666" points="361,-19 179,-19 179,0 361,0 361,-19"/>
<text text-anchor="middle" x="270" y="-7" font-family="Helvetica,sans-Serif" font-size="10.00">bustub::WindowFunctionPlanNode</text>
</a>
</g>
</g>
<!-- Node1&#45;&gt;Node19 -->
<g id="edge18_Node000001_Node000019" class="edge">
<title>Node1&#45;&gt;Node19</title>
<g id="a_edge18_Node000001_Node000019"><a xlink:title=" ">
<path fill="none" stroke="#63b8ff" d="M73.35,-303.57C76.77,-250.12 93.86,-102.6 179,-28.5 183.34,-24.73 188.23,-21.64 193.45,-19.12"/>
<polygon fill="#63b8ff" stroke="#63b8ff" points="69.85,-303.58 72.8,-313.75 76.84,-303.96 69.85,-303.58"/>
</a>
</g>
</g>
</g>
</svg>

<g id="navigator" transform="translate(0 0)" fill="#404254">
  <rect fill="#f2f5e9" fill-opacity="0.5" stroke="#606060" stroke-width=".5" x="0" y="0" width="60" height="60"/>
  <use id="zoomplus" xlink:href="#zoomPlus" x="17" y="9" onmousedown="handleZoom(evt,'in')"/>
  <use id="zoomminus" xlink:href="#zoomMin" x="42" y="9" onmousedown="handleZoom(evt,'out')"/>
  <use id="reset" xlink:href="#resetDef" x="30" y="36" onmousedown="handleReset()"/>
   <use id="arrowup" xlink:href="#arrowUp" x="0" y="0" onmousedown="handlePan(0,-1)"/>
  <use id="arrowright" xlink:href="#arrowRight" x="0" y="0" onmousedown="handlePan(1,0)"/>
  <use id="arrowdown" xlink:href="#arrowDown" x="0" y="0" onmousedown="handlePan(0,1)"/>
  <use id="arrowleft" xlink:href="#arrowLeft" x="0" y="0" onmousedown="handlePan(-1,0)"/>
</g>
<svg viewBox="0 0 15 15" width="100%" height="30px" preserveAspectRatio="xMaxYMin meet">
 <g id="arrow_out" transform="scale(0.3 0.3)">
  <a xlink:href="classbustub_1_1AbstractPlanNode__inherit__graph_org.svg" target="_base">
   <rect id="button" ry="5" rx="5" y="6" x="6" height="38" width="38"
        fill="#f2f5e9" fill-opacity="0.5" stroke="#606060" stroke-width="1.0"/>
   <path id="arrow"
     d="M 11.500037,31.436501 C 11.940474,20.09759 22.043105,11.32322 32.158766,21.979434 L 37.068811,17.246167 C 37.068811,17.246167 37.088388,32 37.088388,32 L 22.160133,31.978069 C 22.160133,31.978069 26.997745,27.140456 26.997745,27.140456 C 18.528582,18.264221 13.291696,25.230495 11.500037,31.436501 z"
     style="fill:#404040;"/>
  </a>
 </g>
</svg>

<style type='text/css'>
<![CDATA[
[data-mouse-over-selected='false'] { opacity: 0.7; }
[data-mouse-over-selected='true']  { opacity: 1.0; }
]]>
</style>
<script type="application/ecmascript"><![CDATA[
document.addEventListener('DOMContentLoaded', (event) => {
  highlightEdges();
  highlightAdjacentNodes();
});
]]></script>
</svg>
