<?xml version="1.0" encoding="UTF-8" standalone="no"?>
<!DOCTYPE svg PUBLIC "-//W3C//DTD SVG 1.1//EN"
 "http://www.w3.org/Graphics/SVG/1.1/DTD/svg11.dtd">
<!-- Generated by graphviz version 2.43.0 (0)
 -->
<!-- Title: bustub::IndexScanExecutor Pages: 1 -->
<!--zoomable 291 -->

<svg id="main" version="1.1" xmlns="http://www.w3.org/2000/svg" xmlns:xlink="http://www.w3.org/1999/xlink" xml:space="preserve" onload="init(evt)">
<style type="text/css"><![CDATA[
.node, .edge {opacity: 0.7;}
.node.selected, .edge.selected {opacity: 1;}
.edge:hover path { stroke: red; }
.edge:hover polygon { stroke: red; fill: red; }
]]></style>

<defs>
  <circle id="rim" cx="0" cy="0" r="7"/>
  <circle id="rim2" cx="0" cy="0" r="3.5"/>
  <g id="zoomPlus">
    <use xlink:href="#rim" fill="#404040"><set attributeName="fill" to="#808080" begin="zoomplus.mouseover" end="zoomplus.mouseout"/></use>
    <path d="M-4,0h8M0,-4v8" fill="none" stroke="white" stroke-width="1.5" pointer-events="none"/>
  </g>
  <g id="zoomMin">
    <use xlink:href="#rim" fill="#404040"><set attributeName="fill" to="#808080" begin="zoomminus.mouseover" end="zoomminus.mouseout"/></use>
    <path d="M-4,0h8" fill="none" stroke="white" stroke-width="1.5" pointer-events="none"/>
  </g>
  <g id="arrowUp" transform="translate(30 24)">
    <use xlink:href="#rim"/>
    <path pointer-events="none" fill="none" stroke="white" stroke-width="1.5" d="M0,-3.0v7 M-2.5,-0.5L0,-3.0L2.5,-0.5"/>
  </g>
  <g id="arrowRight" transform="rotate(90) translate(36 -43)">
    <use xlink:href="#rim"/>
    <path pointer-events="none" fill="none" stroke="white" stroke-width="1.5" d="M0,-3.0v7 M-2.5,-0.5L0,-3.0L2.5,-0.5"/>
  </g>
  <g id="arrowDown" transform="rotate(180) translate(-30 -48)">
    <use xlink:href="#rim"/>
    <path pointer-events="none" fill="none" stroke="white" stroke-width="1.5" d="M0,-3.0v7 M-2.5,-0.5L0,-3.0L2.5,-0.5"/>
  </g>
  <g id="arrowLeft" transform="rotate(270) translate(-36 17)">
    <use xlink:href="#rim"/>
    <path pointer-events="none" fill="none" stroke="white" stroke-width="1.5" d="M0,-3.0v7 M-2.5,-0.5L0,-3.0L2.5,-0.5"/>
  </g>
  <g id="resetDef">
    <use xlink:href="#rim2" fill="#404040"><set attributeName="fill" to="#808080" begin="reset.mouseover" end="reset.mouseout"/></use>
  </g>
</defs>
<script type="application/ecmascript">
var viewWidth = 2103;
var viewHeight = 291;
var sectionId = 'dynsection-1';
</script>
<script type="application/ecmascript" xlink:href="../../svg.min.js"/>
<svg id="graph" class="graph">
<g id="viewport">
<title>bustub::IndexScanExecutor</title>
<!-- Node1 -->
<g id="Node000001" class="node">
<title>Node1</title>
<g id="a_Node000001"><a xlink:title=" ">
<polygon fill="#999999" stroke="#666666" points="2095,-74 1947,-74 1947,-55 2095,-55 2095,-74"/>
<text text-anchor="middle" x="2021" y="-62" font-family="Helvetica,sans-Serif" font-size="10.00">bustub::IndexScanExecutor</text>
</a>
</g>
</g>
<!-- Node2 -->
<g id="Node000002" class="node">
<title>Node2</title>
<g id="a_Node000002"><a xlink:href="../../d2/d28/classbustub_1_1AbstractExecutor.html" target="_top" xlink:title=" ">
<polygon fill="white" stroke="#666666" points="1874,-114 1736,-114 1736,-95 1874,-95 1874,-114"/>
<text text-anchor="middle" x="1805" y="-102" font-family="Helvetica,sans-Serif" font-size="10.00">bustub::AbstractExecutor</text>
</a>
</g>
</g>
<!-- Node2&#45;&gt;Node1 -->
<g id="edge1_Node000001_Node000002" class="edge">
<title>Node2&#45;&gt;Node1</title>
<g id="a_edge1_Node000001_Node000002"><a xlink:title=" ">
<path fill="none" stroke="#63b8ff" d="M1867.19,-93.06C1899.41,-87.04 1938.47,-79.74 1969.03,-74.03"/>
<polygon fill="#63b8ff" stroke="#63b8ff" points="1866.17,-89.69 1856.99,-94.97 1867.46,-96.57 1866.17,-89.69"/>
</a>
</g>
</g>
<!-- Node3 -->
<g id="Node000003" class="node">
<title>Node3</title>
<g id="a_Node000003"><a xlink:href="../../dd/d02/classbustub_1_1ExecutorContext.html" target="_top" xlink:title=" ">
<polygon fill="white" stroke="#666666" points="1618.5,-198 1482.5,-198 1482.5,-179 1618.5,-179 1618.5,-198"/>
<text text-anchor="middle" x="1550.5" y="-186" font-family="Helvetica,sans-Serif" font-size="10.00">bustub::ExecutorContext</text>
</a>
</g>
</g>
<!-- Node3&#45;&gt;Node2 -->
<g id="edge2_Node000002_Node000003" class="edge">
<title>Node3&#45;&gt;Node2</title>
<g id="a_edge2_Node000002_Node000003"><a xlink:title=" ">
<path fill="none" stroke="#9a32cd" stroke-dasharray="5,2" d="M1590.15,-175.64C1641.19,-158.66 1729.92,-129.14 1775.37,-114.02"/>
<polygon fill="#9a32cd" stroke="#9a32cd" points="1588.85,-172.39 1580.46,-178.86 1591.06,-179.03 1588.85,-172.39"/>
</a>
</g>
<text text-anchor="middle" x="1684.5" y="-154.5" font-family="Helvetica,sans-Serif" font-size="10.00" fill="grey"> exec_ctx_</text>
</g>
<!-- Node4 -->
<g id="Node000004" class="node">
<title>Node4</title>
<g id="a_Node000004"><a xlink:href="../../db/d88/classbustub_1_1Transaction.html" target="_top" xlink:title=" ">
<polygon fill="white" stroke="#666666" points="1342,-217 1231,-217 1231,-198 1342,-198 1342,-217"/>
<text text-anchor="middle" x="1286.5" y="-205" font-family="Helvetica,sans-Serif" font-size="10.00">bustub::Transaction</text>
</a>
</g>
</g>
<!-- Node4&#45;&gt;Node3 -->
<g id="edge3_Node000003_Node000004" class="edge">
<title>Node4&#45;&gt;Node3</title>
<g id="a_edge3_Node000003_Node000004"><a xlink:title=" ">
<path fill="none" stroke="#9a32cd" stroke-dasharray="5,2" d="M1352.18,-202.81C1391.78,-199.94 1442.36,-196.27 1482.4,-193.37"/>
<polygon fill="#9a32cd" stroke="#9a32cd" points="1351.83,-199.33 1342.1,-203.54 1352.33,-206.31 1351.83,-199.33"/>
</a>
</g>
<text text-anchor="middle" x="1411" y="-203.5" font-family="Helvetica,sans-Serif" font-size="10.00" fill="grey"> transaction_</text>
</g>
<!-- Node5 -->
<g id="Node000005" class="node">
<title>Node5</title>
<g id="a_Node000005"><a xlink:href="../../d7/ddd/classbustub_1_1Catalog.html" target="_top" xlink:title=" ">
<polygon fill="white" stroke="#666666" points="832.5,-184 739.5,-184 739.5,-165 832.5,-165 832.5,-184"/>
<text text-anchor="middle" x="786" y="-172" font-family="Helvetica,sans-Serif" font-size="10.00">bustub::Catalog</text>
</a>
</g>
</g>
<!-- Node5&#45;&gt;Node3 -->
<g id="edge4_Node000003_Node000005" class="edge">
<title>Node5&#45;&gt;Node3</title>
<g id="a_edge4_Node000003_Node000005"><a xlink:title=" ">
<path fill="none" stroke="#9a32cd" stroke-dasharray="5,2" d="M842.99,-175.53C980.42,-178.05 1333.95,-184.54 1482.34,-187.27"/>
<polygon fill="#9a32cd" stroke="#9a32cd" points="842.76,-172.02 832.7,-175.34 842.63,-179.02 842.76,-172.02"/>
</a>
</g>
<text text-anchor="middle" x="1157.5" y="-184.5" font-family="Helvetica,sans-Serif" font-size="10.00" fill="grey"> catalog_</text>
</g>
<!-- Node14 -->
<g id="Node000014" class="node">
<title>Node14</title>
<g id="a_Node000014"><a xlink:href="../../dc/ddc/classbustub_1_1TransactionManager.html" target="_top" xlink:title=" ">
<polygon fill="white" stroke="#666666" points="1103,-254 949,-254 949,-235 1103,-235 1103,-254"/>
<text text-anchor="middle" x="1026" y="-242" font-family="Helvetica,sans-Serif" font-size="10.00">bustub::TransactionManager</text>
</a>
</g>
</g>
<!-- Node5&#45;&gt;Node14 -->
<g id="edge16_Node000014_Node000005" class="edge">
<title>Node5&#45;&gt;Node14</title>
<g id="a_edge16_Node000014_Node000005"><a xlink:title=" ">
<path fill="none" stroke="#9a32cd" stroke-dasharray="5,2" d="M829.4,-186.97C876.07,-200.7 950.08,-222.47 992.42,-234.92"/>
<polygon fill="#9a32cd" stroke="#9a32cd" points="830.18,-183.55 819.59,-184.09 828.2,-190.27 830.18,-183.55"/>
</a>
</g>
<text text-anchor="middle" x="895" y="-218.5" font-family="Helvetica,sans-Serif" font-size="10.00" fill="grey"> catalog_</text>
</g>
<!-- Node6 -->
<g id="Node000006" class="node">
<title>Node6</title>
<g id="a_Node000006"><a xlink:href="../../df/d04/structbustub_1_1TableInfo.html" target="_top" xlink:title=" ">
<polygon fill="white" stroke="#666666" points="576.5,-233 476.5,-233 476.5,-214 576.5,-214 576.5,-233"/>
<text text-anchor="middle" x="526.5" y="-221" font-family="Helvetica,sans-Serif" font-size="10.00">bustub::TableInfo</text>
</a>
</g>
</g>
<!-- Node6&#45;&gt;Node5 -->
<g id="edge5_Node000005_Node000006" class="edge">
<title>Node6&#45;&gt;Node5</title>
<g id="a_edge5_Node000005_Node000006"><a xlink:title=" ">
<path fill="none" stroke="#9a32cd" stroke-dasharray="5,2" d="M586.71,-217.21C623.35,-212.74 671.2,-205.87 713,-196.5 727.79,-193.18 743.96,-188.36 757.23,-184.07"/>
<polygon fill="#9a32cd" stroke="#9a32cd" points="586.21,-213.74 576.69,-218.4 587.04,-220.7 586.21,-213.74"/>
</a>
</g>
<text text-anchor="middle" x="666" y="-215.5" font-family="Helvetica,sans-Serif" font-size="10.00" fill="grey"> NULL_TABLE_INFO</text>
</g>
<!-- Node7 -->
<g id="Node000007" class="node">
<title>Node7</title>
<g id="a_Node000007"><a xlink:href="../../da/d36/classbustub_1_1Schema.html" target="_top" xlink:title=" ">
<polygon fill="white" stroke="#666666" points="332.5,-214 237.5,-214 237.5,-195 332.5,-195 332.5,-214"/>
<text text-anchor="middle" x="285" y="-202" font-family="Helvetica,sans-Serif" font-size="10.00">bustub::Schema</text>
</a>
</g>
</g>
<!-- Node7&#45;&gt;Node6 -->
<g id="edge6_Node000006_Node000007" class="edge">
<title>Node7&#45;&gt;Node6</title>
<g id="a_edge6_Node000006_Node000007"><a xlink:title=" ">
<path fill="none" stroke="#9a32cd" stroke-dasharray="5,2" d="M342.77,-209C383.42,-212.23 437.61,-216.53 476.4,-219.6"/>
<polygon fill="#9a32cd" stroke="#9a32cd" points="342.99,-205.51 332.75,-208.21 342.44,-212.49 342.99,-205.51"/>
</a>
</g>
<text text-anchor="middle" x="397.5" y="-218.5" font-family="Helvetica,sans-Serif" font-size="10.00" fill="grey"> schema_</text>
</g>
<!-- Node8 -->
<g id="Node000008" class="node">
<title>Node8</title>
<g id="a_Node000008"><a xlink:href="../../d4/d5c/structbustub_1_1IndexInfo.html" target="_top" xlink:title=" ">
<polygon fill="white" stroke="#666666" points="577,-196 476,-196 476,-177 577,-177 577,-196"/>
<text text-anchor="middle" x="526.5" y="-184" font-family="Helvetica,sans-Serif" font-size="10.00">bustub::IndexInfo</text>
</a>
</g>
</g>
<!-- Node7&#45;&gt;Node8 -->
<g id="edge8_Node000008_Node000007" class="edge">
<title>Node7&#45;&gt;Node8</title>
<g id="a_edge8_Node000008_Node000007"><a xlink:title=" ">
<path fill="none" stroke="#9a32cd" stroke-dasharray="5,2" d="M336.74,-193.08C344.82,-191.63 353.11,-190.35 361,-189.5 399.34,-185.35 442.99,-184.74 475.68,-185.1"/>
<polygon fill="#9a32cd" stroke="#9a32cd" points="335.84,-189.68 326.67,-194.99 337.14,-196.56 335.84,-189.68"/>
</a>
</g>
<text text-anchor="middle" x="397.5" y="-192.5" font-family="Helvetica,sans-Serif" font-size="10.00" fill="grey"> key_schema_</text>
</g>
<!-- Node8&#45;&gt;Node5 -->
<g id="edge7_Node000005_Node000008" class="edge">
<title>Node8&#45;&gt;Node5</title>
<g id="a_edge7_Node000005_Node000008"><a xlink:title=" ">
<path fill="none" stroke="#9a32cd" stroke-dasharray="5,2" d="M587.37,-183.71C633.76,-181.55 697.05,-178.6 739.39,-176.63"/>
<polygon fill="#9a32cd" stroke="#9a32cd" points="586.97,-180.22 577.15,-184.19 587.3,-187.22 586.97,-180.22"/>
</a>
</g>
<text text-anchor="middle" x="666" y="-184.5" font-family="Helvetica,sans-Serif" font-size="10.00" fill="grey"> NULL_INDEX_INFO</text>
</g>
<!-- Node9 -->
<g id="Node000009" class="node">
<title>Node9</title>
<g id="a_Node000009"><a xlink:href="../../d6/d5d/classbustub_1_1BufferPoolManager.html" target="_top" xlink:title=" ">
<polygon fill="white" stroke="#666666" points="601,-104 452,-104 452,-85 601,-85 601,-104"/>
<text text-anchor="middle" x="526.5" y="-92" font-family="Helvetica,sans-Serif" font-size="10.00">bustub::BufferPoolManager</text>
</a>
</g>
</g>
<!-- Node9&#45;&gt;Node3 -->
<g id="edge18_Node000003_Node000009" class="edge">
<title>Node9&#45;&gt;Node3</title>
<g id="a_edge18_Node000003_Node000009"><a xlink:title=" ">
<path fill="none" stroke="#9a32cd" stroke-dasharray="5,2" d="M611.21,-91.56C661.57,-90.04 726.95,-88.5 785,-88.5 785,-88.5 785,-88.5 1287.5,-88.5 1388.28,-88.5 1497.38,-153.88 1535.46,-178.91"/>
<polygon fill="#9a32cd" stroke="#9a32cd" points="610.91,-88.07 601.02,-91.88 611.13,-95.07 610.91,-88.07"/>
</a>
</g>
<text text-anchor="middle" x="1026" y="-91.5" font-family="Helvetica,sans-Serif" font-size="10.00" fill="grey"> bpm_</text>
</g>
<!-- Node9&#45;&gt;Node5 -->
<g id="edge9_Node000005_Node000009" class="edge">
<title>Node9&#45;&gt;Node5</title>
<g id="a_edge9_Node000005_Node000009"><a xlink:title=" ">
<path fill="none" stroke="#9a32cd" stroke-dasharray="5,2" d="M611.4,-98.68C644.04,-102.46 681.17,-109.5 713,-122.5 737.55,-132.53 761.61,-152.55 774.76,-164.62"/>
<polygon fill="#9a32cd" stroke="#9a32cd" points="611.74,-95.19 601.42,-97.6 610.99,-102.15 611.74,-95.19"/>
</a>
</g>
<text text-anchor="middle" x="666" y="-125.5" font-family="Helvetica,sans-Serif" font-size="10.00" fill="grey"> bpm_</text>
</g>
<!-- Node10 -->
<g id="Node000010" class="node">
<title>Node10</title>
<g id="a_Node000010"><a xlink:href="../../d4/d87/classbustub_1_1Page.html" target="_top" xlink:title=" ">
<polygon fill="white" stroke="#666666" points="324.5,-97 245.5,-97 245.5,-78 324.5,-78 324.5,-97"/>
<text text-anchor="middle" x="285" y="-85" font-family="Helvetica,sans-Serif" font-size="10.00">bustub::Page</text>
</a>
</g>
</g>
<!-- Node10&#45;&gt;Node9 -->
<g id="edge10_Node000009_Node000010" class="edge">
<title>Node10&#45;&gt;Node9</title>
<g id="a_edge10_Node000009_Node000010"><a xlink:title=" ">
<path fill="none" stroke="#9a32cd" stroke-dasharray="5,2" d="M334.88,-87.11C363.73,-87.06 400.95,-87.31 434,-88.5 439.73,-88.71 445.65,-88.97 451.61,-89.28"/>
<polygon fill="#9a32cd" stroke="#9a32cd" points="334.64,-83.61 324.65,-87.14 334.66,-90.61 334.64,-83.61"/>
</a>
</g>
<text text-anchor="middle" x="397.5" y="-91.5" font-family="Helvetica,sans-Serif" font-size="10.00" fill="grey"> pages_</text>
</g>
<!-- Node11 -->
<g id="Node000011" class="node">
<title>Node11</title>
<g id="a_Node000011"><a xlink:href="../../d8/dbd/classbustub_1_1ReaderWriterLatch.html" target="_top" xlink:title=" ">
<polygon fill="white" stroke="#666666" points="146,-97 0,-97 0,-78 146,-78 146,-97"/>
<text text-anchor="middle" x="73" y="-85" font-family="Helvetica,sans-Serif" font-size="10.00">bustub::ReaderWriterLatch</text>
</a>
</g>
</g>
<!-- Node11&#45;&gt;Node10 -->
<g id="edge11_Node000010_Node000011" class="edge">
<title>Node11&#45;&gt;Node10</title>
<g id="a_edge11_Node000010_Node000011"><a xlink:title=" ">
<path fill="none" stroke="#9a32cd" stroke-dasharray="5,2" d="M156.53,-87.5C187.12,-87.5 220.38,-87.5 245.25,-87.5"/>
<polygon fill="#9a32cd" stroke="#9a32cd" points="156.27,-84 146.27,-87.5 156.27,-91 156.27,-84"/>
</a>
</g>
<text text-anchor="middle" x="186.5" y="-90.5" font-family="Helvetica,sans-Serif" font-size="10.00" fill="grey"> rwlatch_</text>
</g>
<!-- Node12 -->
<g id="Node000012" class="node">
<title>Node12</title>
<g id="a_Node000012"><a xlink:href="../../d7/d4e/classbustub_1_1LogManager.html" target="_top" xlink:title=" ">
<polygon fill="white" stroke="#666666" points="343,-146 227,-146 227,-127 343,-127 343,-146"/>
<text text-anchor="middle" x="285" y="-134" font-family="Helvetica,sans-Serif" font-size="10.00">bustub::LogManager</text>
</a>
</g>
</g>
<!-- Node12&#45;&gt;Node5 -->
<g id="edge17_Node000005_Node000012" class="edge">
<title>Node12&#45;&gt;Node5</title>
<g id="a_edge17_Node000005_Node000012"><a xlink:title=" ">
<path fill="none" stroke="#9a32cd" stroke-dasharray="5,2" d="M353.55,-140.5C417.36,-144.4 515.73,-150.72 601,-157.5 648.17,-161.25 702.07,-166.32 739.28,-169.95"/>
<polygon fill="#9a32cd" stroke="#9a32cd" points="353.42,-136.99 343.22,-139.87 352.99,-143.98 353.42,-136.99"/>
</a>
</g>
<text text-anchor="middle" x="526.5" y="-160.5" font-family="Helvetica,sans-Serif" font-size="10.00" fill="grey"> log_manager_</text>
</g>
<!-- Node12&#45;&gt;Node9 -->
<g id="edge12_Node000009_Node000012" class="edge">
<title>Node12&#45;&gt;Node9</title>
<g id="a_edge12_Node000009_Node000012"><a xlink:title=" ">
<path fill="none" stroke="#9a32cd" stroke-dasharray="5,2" d="M346.48,-125.12C351.39,-124.23 356.28,-123.34 361,-122.5 396.51,-116.16 436.38,-109.37 467.98,-104.06"/>
<polygon fill="#9a32cd" stroke="#9a32cd" points="345.61,-121.73 336.41,-126.98 346.88,-128.61 345.61,-121.73"/>
</a>
</g>
<text text-anchor="middle" x="397.5" y="-125.5" font-family="Helvetica,sans-Serif" font-size="10.00" fill="grey"> log_manager_</text>
</g>
<!-- Node13 -->
<g id="Node000013" class="node">
<title>Node13</title>
<g id="a_Node000013"><a xlink:href="../../df/d43/classbustub_1_1LockManager.html" target="_top" xlink:title=" ">
<polygon fill="white" stroke="#666666" points="1347,-254 1226,-254 1226,-235 1347,-235 1347,-254"/>
<text text-anchor="middle" x="1286.5" y="-242" font-family="Helvetica,sans-Serif" font-size="10.00">bustub::LockManager</text>
</a>
</g>
</g>
<!-- Node13&#45;&gt;Node3 -->
<g id="edge20_Node000003_Node000013" class="edge">
<title>Node13&#45;&gt;Node3</title>
<g id="a_edge20_Node000003_Node000013"><a xlink:title=" ">
<path fill="none" stroke="#9a32cd" stroke-dasharray="5,2" d="M1353.44,-233.16C1381.17,-228.15 1413.74,-221.93 1443,-215.5 1466.85,-210.26 1493.47,-203.51 1514.13,-198.07"/>
<polygon fill="#9a32cd" stroke="#9a32cd" points="1352.68,-229.75 1343.45,-234.96 1353.91,-236.64 1352.68,-229.75"/>
</a>
</g>
<text text-anchor="middle" x="1411" y="-230.5" font-family="Helvetica,sans-Serif" font-size="10.00" fill="grey"> lock_mgr_</text>
</g>
<!-- Node13&#45;&gt;Node5 -->
<g id="edge13_Node000005_Node000013" class="edge">
<title>Node13&#45;&gt;Node5</title>
<g id="a_edge13_Node000005_Node000013"><a xlink:title=" ">
<path fill="none" stroke="#9a32cd" stroke-dasharray="5,2" d="M1217.18,-230.99C1215.35,-229.62 1213.61,-228.13 1212,-226.5 1187.28,-201.52 1221.53,-171.34 1194,-149.5 1075.59,-55.57 871.6,-135.7 807.14,-164.9"/>
<polygon fill="#9a32cd" stroke="#9a32cd" points="1215.41,-234.01 1225.78,-236.19 1219.04,-228.02 1215.41,-234.01"/>
</a>
</g>
<text text-anchor="middle" x="1026" y="-118.5" font-family="Helvetica,sans-Serif" font-size="10.00" fill="grey"> lock_manager_</text>
</g>
<!-- Node14&#45;&gt;Node3 -->
<g id="edge19_Node000003_Node000014" class="edge">
<title>Node14&#45;&gt;Node3</title>
<g id="a_edge19_Node000003_Node000014"><a xlink:title=" ">
<path fill="none" stroke="#9a32cd" stroke-dasharray="5,2" d="M1081.36,-255.88C1162.93,-270.43 1320.49,-288.61 1443,-242.5 1476.37,-229.94 1512.98,-209.88 1533.4,-198.07"/>
<polygon fill="#9a32cd" stroke="#9a32cd" points="1081.78,-252.4 1071.32,-254.04 1080.52,-259.29 1081.78,-252.4"/>
</a>
</g>
<text text-anchor="middle" x="1286.5" y="-274.5" font-family="Helvetica,sans-Serif" font-size="10.00" fill="grey"> txn_mgr_</text>
</g>
<!-- Node14&#45;&gt;Node13 -->
<g id="edge14_Node000013_Node000014" class="edge">
<title>Node14&#45;&gt;Node13</title>
<g id="a_edge14_Node000013_Node000014"><a xlink:title=" ">
<path fill="none" stroke="#9a32cd" stroke-dasharray="5,2" d="M1113.42,-244.5C1150.34,-244.5 1192.51,-244.5 1225.86,-244.5"/>
<polygon fill="#9a32cd" stroke="#9a32cd" points="1113.16,-241 1103.16,-244.5 1113.16,-248 1113.16,-241"/>
</a>
</g>
<text text-anchor="middle" x="1157.5" y="-247.5" font-family="Helvetica,sans-Serif" font-size="10.00" fill="grey"> txn_manager_</text>
</g>
<!-- Node15 -->
<g id="Node000015" class="node">
<title>Node15</title>
<g id="a_Node000015"><a xlink:href="../../d8/d96/classbustub_1_1Watermark.html" target="_top" xlink:title="tracks all the read timestamps.">
<polygon fill="white" stroke="#666666" points="841,-254 731,-254 731,-235 841,-235 841,-254"/>
<text text-anchor="middle" x="786" y="-242" font-family="Helvetica,sans-Serif" font-size="10.00">bustub::Watermark</text>
</a>
</g>
</g>
<!-- Node15&#45;&gt;Node14 -->
<g id="edge15_Node000014_Node000015" class="edge">
<title>Node15&#45;&gt;Node14</title>
<g id="a_edge15_Node000014_Node000015"><a xlink:title=" ">
<path fill="none" stroke="#9a32cd" stroke-dasharray="5,2" d="M851.35,-244.5C881.36,-244.5 917.28,-244.5 948.65,-244.5"/>
<polygon fill="#9a32cd" stroke="#9a32cd" points="851.01,-241 841.01,-244.5 851.01,-248 851.01,-241"/>
</a>
</g>
<text text-anchor="middle" x="895" y="-247.5" font-family="Helvetica,sans-Serif" font-size="10.00" fill="grey"> running_txns_</text>
</g>
<!-- Node16 -->
<g id="Node000016" class="node">
<title>Node16</title>
<g id="a_Node000016"><a xlink:href="../../d0/da2/classbustub_1_1IndexScanPlanNode.html" target="_top" xlink:title=" ">
<polygon fill="white" stroke="#666666" points="1881,-56 1729,-56 1729,-37 1881,-37 1881,-56"/>
<text text-anchor="middle" x="1805" y="-44" font-family="Helvetica,sans-Serif" font-size="10.00">bustub::IndexScanPlanNode</text>
</a>
</g>
</g>
<!-- Node16&#45;&gt;Node1 -->
<g id="edge21_Node000001_Node000016" class="edge">
<title>Node16&#45;&gt;Node1</title>
<g id="a_edge21_Node000001_Node000016"><a xlink:title=" ">
<path fill="none" stroke="#9a32cd" stroke-dasharray="5,2" d="M1891.24,-52.45C1903.9,-53.42 1916.8,-54.45 1929,-55.5 1934.69,-55.99 1940.59,-56.52 1946.51,-57.07"/>
<polygon fill="#9a32cd" stroke="#9a32cd" points="1891.39,-48.95 1881.15,-51.69 1890.86,-55.93 1891.39,-48.95"/>
</a>
</g>
<text text-anchor="middle" x="1914" y="-58.5" font-family="Helvetica,sans-Serif" font-size="10.00" fill="grey"> plan_</text>
</g>
<!-- Node17 -->
<g id="Node000017" class="node">
<title>Node17</title>
<g id="a_Node000017"><a xlink:href="../../d6/d8c/classbustub_1_1AbstractPlanNode.html" target="_top" xlink:title=" ">
<polygon fill="white" stroke="#666666" points="1622,-19 1479,-19 1479,0 1622,0 1622,-19"/>
<text text-anchor="middle" x="1550.5" y="-7" font-family="Helvetica,sans-Serif" font-size="10.00">bustub::AbstractPlanNode</text>
</a>
</g>
</g>
<!-- Node17&#45;&gt;Node16 -->
<g id="edge22_Node000016_Node000017" class="edge">
<title>Node17&#45;&gt;Node16</title>
<g id="a_edge22_Node000016_Node000017"><a xlink:title=" ">
<path fill="none" stroke="#63b8ff" d="M1626.86,-20.54C1662.46,-25.76 1704.54,-31.93 1738.76,-36.94"/>
<polygon fill="#63b8ff" stroke="#63b8ff" points="1626.93,-17.02 1616.53,-19.03 1625.91,-23.94 1626.93,-17.02"/>
</a>
</g>
</g>
<!-- Node18 -->
<g id="Node000018" class="node">
<title>Node18</title>
<g id="a_Node000018"><a xlink:href="../../d2/dd8/classbustub_1_1ConstantValueExpression.html" target="_top" xlink:title=" ">
<polygon fill="white" stroke="#666666" points="1640,-56 1461,-56 1461,-37 1640,-37 1640,-56"/>
<text text-anchor="middle" x="1550.5" y="-44" font-family="Helvetica,sans-Serif" font-size="10.00">bustub::ConstantValueExpression</text>
</a>
</g>
</g>
<!-- Node18&#45;&gt;Node16 -->
<g id="edge23_Node000016_Node000018" class="edge">
<title>Node18&#45;&gt;Node16</title>
<g id="a_edge23_Node000016_Node000018"><a xlink:title=" ">
<path fill="none" stroke="#9a32cd" stroke-dasharray="5,2" d="M1650.47,-46.5C1676.58,-46.5 1704.32,-46.5 1728.94,-46.5"/>
<polygon fill="#9a32cd" stroke="#9a32cd" points="1650.17,-43 1640.17,-46.5 1650.17,-50 1650.17,-43"/>
</a>
</g>
<text text-anchor="middle" x="1684.5" y="-49.5" font-family="Helvetica,sans-Serif" font-size="10.00" fill="grey"> pred_key_</text>
</g>
<!-- Node19 -->
<g id="Node000019" class="node">
<title>Node19</title>
<g id="a_Node000019"><a xlink:href="../../da/dd5/classbustub_1_1AbstractExpression.html" target="_top" xlink:title=" ">
<polygon fill="white" stroke="#666666" points="1361,-19 1212,-19 1212,0 1361,0 1361,-19"/>
<text text-anchor="middle" x="1286.5" y="-7" font-family="Helvetica,sans-Serif" font-size="10.00">bustub::AbstractExpression</text>
</a>
</g>
</g>
<!-- Node19&#45;&gt;Node18 -->
<g id="edge24_Node000018_Node000019" class="edge">
<title>Node19&#45;&gt;Node18</title>
<g id="a_edge24_Node000018_Node000019"><a xlink:title=" ">
<path fill="none" stroke="#63b8ff" d="M1365.22,-20.48C1402.26,-25.71 1446.15,-31.9 1481.8,-36.94"/>
<polygon fill="#63b8ff" stroke="#63b8ff" points="1365.36,-16.96 1354.97,-19.03 1364.38,-23.89 1365.36,-16.96"/>
</a>
</g>
</g>
<!-- Node20 -->
<g id="Node000020" class="node">
<title>Node20</title>
<g id="a_Node000020"><a xlink:href="../../d4/df7/classbustub_1_1Value.html" target="_top" xlink:title=" ">
<polygon fill="white" stroke="#666666" points="1328,-56 1245,-56 1245,-37 1328,-37 1328,-56"/>
<text text-anchor="middle" x="1286.5" y="-44" font-family="Helvetica,sans-Serif" font-size="10.00">bustub::Value</text>
</a>
</g>
</g>
<!-- Node20&#45;&gt;Node18 -->
<g id="edge25_Node000018_Node000020" class="edge">
<title>Node20&#45;&gt;Node18</title>
<g id="a_edge25_Node000018_Node000020"><a xlink:title=" ">
<path fill="none" stroke="#9a32cd" stroke-dasharray="5,2" d="M1338.53,-46.5C1373.28,-46.5 1420.21,-46.5 1460.97,-46.5"/>
<polygon fill="#9a32cd" stroke="#9a32cd" points="1338.15,-43 1328.15,-46.5 1338.15,-50 1338.15,-43"/>
</a>
</g>
<text text-anchor="middle" x="1411" y="-49.5" font-family="Helvetica,sans-Serif" font-size="10.00" fill="grey"> val_</text>
</g>
<!-- Node21 -->
<g id="Node000021" class="node">
<title>Node21</title>
<g id="a_Node000021"><a xlink:href="../../d7/db9/unionbustub_1_1Value_1_1Val.html" target="_top" xlink:title=" ">
<polygon fill="white" stroke="#666666" points="1078,-52 974,-52 974,-33 1078,-33 1078,-52"/>
<text text-anchor="middle" x="1026" y="-40" font-family="Helvetica,sans-Serif" font-size="10.00">bustub::Value::Val</text>
</a>
</g>
</g>
<!-- Node21&#45;&gt;Node20 -->
<g id="edge26_Node000020_Node000021" class="edge">
<title>Node21&#45;&gt;Node20</title>
<g id="a_edge26_Node000020_Node000021"><a xlink:title=" ">
<path fill="none" stroke="#9a32cd" stroke-dasharray="5,2" d="M1088.1,-43.45C1136.46,-44.19 1202.63,-45.22 1244.73,-45.87"/>
<polygon fill="#9a32cd" stroke="#9a32cd" points="1088.12,-39.95 1078.07,-43.29 1088.02,-46.94 1088.12,-39.95"/>
</a>
</g>
<text text-anchor="middle" x="1157.5" y="-48.5" font-family="Helvetica,sans-Serif" font-size="10.00" fill="grey"> value_</text>
</g>
</g>
</svg>

<g id="navigator" transform="translate(0 0)" fill="#404254">
  <rect fill="#f2f5e9" fill-opacity="0.5" stroke="#606060" stroke-width=".5" x="0" y="0" width="60" height="60"/>
  <use id="zoomplus" xlink:href="#zoomPlus" x="17" y="9" onmousedown="handleZoom(evt,'in')"/>
  <use id="zoomminus" xlink:href="#zoomMin" x="42" y="9" onmousedown="handleZoom(evt,'out')"/>
  <use id="reset" xlink:href="#resetDef" x="30" y="36" onmousedown="handleReset()"/>
   <use id="arrowup" xlink:href="#arrowUp" x="0" y="0" onmousedown="handlePan(0,-1)"/>
  <use id="arrowright" xlink:href="#arrowRight" x="0" y="0" onmousedown="handlePan(1,0)"/>
  <use id="arrowdown" xlink:href="#arrowDown" x="0" y="0" onmousedown="handlePan(0,1)"/>
  <use id="arrowleft" xlink:href="#arrowLeft" x="0" y="0" onmousedown="handlePan(-1,0)"/>
</g>
<svg viewBox="0 0 15 15" width="100%" height="30px" preserveAspectRatio="xMaxYMin meet">
 <g id="arrow_out" transform="scale(0.3 0.3)">
  <a xlink:href="classbustub_1_1IndexScanExecutor__coll__graph_org.svg" target="_base">
   <rect id="button" ry="5" rx="5" y="6" x="6" height="38" width="38"
        fill="#f2f5e9" fill-opacity="0.5" stroke="#606060" stroke-width="1.0"/>
   <path id="arrow"
     d="M 11.500037,31.436501 C 11.940474,20.09759 22.043105,11.32322 32.158766,21.979434 L 37.068811,17.246167 C 37.068811,17.246167 37.088388,32 37.088388,32 L 22.160133,31.978069 C 22.160133,31.978069 26.997745,27.140456 26.997745,27.140456 C 18.528582,18.264221 13.291696,25.230495 11.500037,31.436501 z"
     style="fill:#404040;"/>
  </a>
 </g>
</svg>

<style type='text/css'>
<![CDATA[
[data-mouse-over-selected='false'] { opacity: 0.7; }
[data-mouse-over-selected='true']  { opacity: 1.0; }
]]>
</style>
<script type="application/ecmascript"><![CDATA[
document.addEventListener('DOMContentLoaded', (event) => {
  highlightEdges();
  highlightAdjacentNodes();
});
]]></script>
</svg>
