<?xml version="1.0" encoding="UTF-8" standalone="no"?>
<!DOCTYPE svg PUBLIC "-//W3C//DTD SVG 1.1//EN"
 "http://www.w3.org/Graphics/SVG/1.1/DTD/svg11.dtd">
<!-- Generated by graphviz version 2.43.0 (0)
 -->
<!-- Title: src/include/execution/plans/filter_plan.h Pages: 1 -->
<svg width="1889pt" height="170pt"
 viewBox="0.00 0.00 1889.00 170.00" xmlns="http://www.w3.org/2000/svg" xmlns:xlink="http://www.w3.org/1999/xlink">
<g id="graph0" class="graph" transform="scale(1 1) rotate(0) translate(4 166)">
<title>src/include/execution/plans/filter_plan.h</title>
<!-- Node1 -->
<g id="Node000001" class="node">
<title>Node1</title>
<g id="a_Node000001"><a xlink:title=" ">
<polygon fill="#999999" stroke="#666666" points="917.5,-162 798.5,-162 798.5,-132 917.5,-132 917.5,-162"/>
<text text-anchor="start" x="806.5" y="-150" font-family="Helvetica,sans-Serif" font-size="10.00">src/include/execution</text>
<text text-anchor="middle" x="858" y="-139" font-family="Helvetica,sans-Serif" font-size="10.00">/plans/filter_plan.h</text>
</a>
</g>
</g>
<!-- Node2 -->
<g id="Node000002" class="node">
<title>Node2</title>
<g id="a_Node000002"><a xlink:href="../../d3/d3e/executor__factory_8cpp.html" target="_top" xlink:title=" ">
<polygon fill="white" stroke="#666666" points="126,-30 0,-30 0,0 126,0 126,-30"/>
<text text-anchor="start" x="8" y="-18" font-family="Helvetica,sans-Serif" font-size="10.00">src/execution/executor</text>
<text text-anchor="middle" x="63" y="-7" font-family="Helvetica,sans-Serif" font-size="10.00">_factory.cpp</text>
</a>
</g>
</g>
<!-- Node1&#45;&gt;Node2 -->
<g id="edge1_Node000001_Node000002" class="edge">
<title>Node1&#45;&gt;Node2</title>
<g id="a_edge1_Node000001_Node000002"><a xlink:title=" ">
<path fill="none" stroke="#63b8ff" d="M788.13,-146.16C607.48,-145.92 135.26,-140.95 82,-96 62.91,-79.89 61.04,-48.42 61.77,-30.12"/>
<polygon fill="#63b8ff" stroke="#63b8ff" points="788.32,-149.66 798.32,-146.17 788.32,-142.66 788.32,-149.66"/>
</a>
</g>
</g>
<!-- Node3 -->
<g id="Node000003" class="node">
<title>Node3</title>
<g id="a_Node000003"><a xlink:href="../../d6/d7f/filter__executor_8h.html" target="_top" xlink:title=" ">
<polygon fill="white" stroke="#666666" points="239,-96 91,-96 91,-66 239,-66 239,-96"/>
<text text-anchor="start" x="99" y="-84" font-family="Helvetica,sans-Serif" font-size="10.00">src/include/execution</text>
<text text-anchor="middle" x="165" y="-73" font-family="Helvetica,sans-Serif" font-size="10.00">/executors/filter_executor.h</text>
</a>
</g>
</g>
<!-- Node1&#45;&gt;Node3 -->
<g id="edge2_Node000001_Node000003" class="edge">
<title>Node1&#45;&gt;Node3</title>
<g id="a_edge2_Node000001_Node000003"><a xlink:title=" ">
<path fill="none" stroke="#63b8ff" d="M787.78,-142.2C674.09,-135.6 442.78,-120.36 248,-96 245.1,-95.64 242.15,-95.25 239.17,-94.83"/>
<polygon fill="#63b8ff" stroke="#63b8ff" points="787.9,-145.71 798.08,-142.79 788.3,-138.72 787.9,-145.71"/>
</a>
</g>
</g>
<!-- Node5 -->
<g id="Node000005" class="node">
<title>Node5</title>
<g id="a_Node000005"><a xlink:href="../../d8/dd7/eliminate__true__filter_8cpp.html" target="_top" xlink:title=" ">
<polygon fill="white" stroke="#666666" points="387,-96 257,-96 257,-66 387,-66 387,-96"/>
<text text-anchor="start" x="265" y="-84" font-family="Helvetica,sans-Serif" font-size="10.00">src/optimizer/eliminate</text>
<text text-anchor="middle" x="322" y="-73" font-family="Helvetica,sans-Serif" font-size="10.00">_true_filter.cpp</text>
</a>
</g>
</g>
<!-- Node1&#45;&gt;Node5 -->
<g id="edge5_Node000001_Node000005" class="edge">
<title>Node1&#45;&gt;Node5</title>
<g id="a_edge5_Node000001_Node000005"><a xlink:title=" ">
<path fill="none" stroke="#63b8ff" d="M788,-140.09C697.47,-132.06 535.04,-116.34 397,-96 393.85,-95.54 390.64,-95.04 387.4,-94.51"/>
<polygon fill="#63b8ff" stroke="#63b8ff" points="787.87,-143.59 798.14,-140.98 788.48,-136.62 787.87,-143.59"/>
</a>
</g>
</g>
<!-- Node6 -->
<g id="Node000006" class="node">
<title>Node6</title>
<g id="a_Node000006"><a xlink:href="../../dc/d4f/merge__filter__nlj_8cpp.html" target="_top" xlink:title=" ">
<polygon fill="white" stroke="#666666" points="520.5,-96 405.5,-96 405.5,-66 520.5,-66 520.5,-96"/>
<text text-anchor="start" x="413.5" y="-84" font-family="Helvetica,sans-Serif" font-size="10.00">src/optimizer/merge</text>
<text text-anchor="middle" x="463" y="-73" font-family="Helvetica,sans-Serif" font-size="10.00">_filter_nlj.cpp</text>
</a>
</g>
</g>
<!-- Node1&#45;&gt;Node6 -->
<g id="edge6_Node000001_Node000006" class="edge">
<title>Node1&#45;&gt;Node6</title>
<g id="a_edge6_Node000001_Node000006"><a xlink:title=" ">
<path fill="none" stroke="#63b8ff" d="M788.33,-136.51C721.81,-127.18 618.83,-112.04 530,-96 526.96,-95.45 523.85,-94.87 520.7,-94.27"/>
<polygon fill="#63b8ff" stroke="#63b8ff" points="787.9,-139.98 798.28,-137.9 788.87,-133.05 787.9,-139.98"/>
</a>
</g>
</g>
<!-- Node7 -->
<g id="Node000007" class="node">
<title>Node7</title>
<g id="a_Node000007"><a xlink:href="../../d0/d46/merge__filter__scan_8cpp.html" target="_top" xlink:title=" ">
<polygon fill="white" stroke="#666666" points="653.5,-96 538.5,-96 538.5,-66 653.5,-66 653.5,-96"/>
<text text-anchor="start" x="546.5" y="-84" font-family="Helvetica,sans-Serif" font-size="10.00">src/optimizer/merge</text>
<text text-anchor="middle" x="596" y="-73" font-family="Helvetica,sans-Serif" font-size="10.00">_filter_scan.cpp</text>
</a>
</g>
</g>
<!-- Node1&#45;&gt;Node7 -->
<g id="edge7_Node000001_Node000007" class="edge">
<title>Node1&#45;&gt;Node7</title>
<g id="a_edge7_Node000001_Node000007"><a xlink:title=" ">
<path fill="none" stroke="#63b8ff" d="M790.52,-129.52C748.03,-119.14 693.77,-105.88 653.36,-96.01"/>
<polygon fill="#63b8ff" stroke="#63b8ff" points="789.96,-132.98 800.5,-131.95 791.62,-126.18 789.96,-132.98"/>
</a>
</g>
</g>
<!-- Node8 -->
<g id="Node000008" class="node">
<title>Node8</title>
<g id="a_Node000008"><a xlink:href="../../d5/d99/nlj__as__hash__join_8cpp.html" target="_top" xlink:title=" ">
<polygon fill="white" stroke="#666666" points="784,-96 672,-96 672,-66 784,-66 784,-96"/>
<text text-anchor="start" x="680" y="-84" font-family="Helvetica,sans-Serif" font-size="10.00">src/optimizer/nlj_as</text>
<text text-anchor="middle" x="728" y="-73" font-family="Helvetica,sans-Serif" font-size="10.00">_hash_join.cpp</text>
</a>
</g>
</g>
<!-- Node1&#45;&gt;Node8 -->
<g id="edge8_Node000001_Node000008" class="edge">
<title>Node1&#45;&gt;Node8</title>
<g id="a_edge8_Node000001_Node000008"><a xlink:title=" ">
<path fill="none" stroke="#63b8ff" d="M820.45,-127.51C800.05,-117.47 775.24,-105.26 756.46,-96.01"/>
<polygon fill="#63b8ff" stroke="#63b8ff" points="818.95,-130.68 829.47,-131.95 822.05,-124.4 818.95,-130.68"/>
</a>
</g>
</g>
<!-- Node9 -->
<g id="Node000009" class="node">
<title>Node9</title>
<g id="a_Node000009"><a xlink:href="../../d0/de1/nlj__as__index__join_8cpp.html" target="_top" xlink:title=" ">
<polygon fill="white" stroke="#666666" points="914,-96 802,-96 802,-66 914,-66 914,-96"/>
<text text-anchor="start" x="810" y="-84" font-family="Helvetica,sans-Serif" font-size="10.00">src/optimizer/nlj_as</text>
<text text-anchor="middle" x="858" y="-73" font-family="Helvetica,sans-Serif" font-size="10.00">_index_join.cpp</text>
</a>
</g>
</g>
<!-- Node1&#45;&gt;Node9 -->
<g id="edge9_Node000001_Node000009" class="edge">
<title>Node1&#45;&gt;Node9</title>
<g id="a_edge9_Node000001_Node000009"><a xlink:title=" ">
<path fill="none" stroke="#63b8ff" d="M858,-121.54C858,-112.96 858,-103.61 858,-96.16"/>
<polygon fill="#63b8ff" stroke="#63b8ff" points="854.5,-121.8 858,-131.8 861.5,-121.8 854.5,-121.8"/>
</a>
</g>
</g>
<!-- Node10 -->
<g id="Node000010" class="node">
<title>Node10</title>
<g id="a_Node000010"><a xlink:href="../../d9/db2/order__by__index__scan_8cpp.html" target="_top" xlink:title=" ">
<polygon fill="white" stroke="#666666" points="1046,-96 932,-96 932,-66 1046,-66 1046,-96"/>
<text text-anchor="start" x="940" y="-84" font-family="Helvetica,sans-Serif" font-size="10.00">src/optimizer/order</text>
<text text-anchor="middle" x="989" y="-73" font-family="Helvetica,sans-Serif" font-size="10.00">_by_index_scan.cpp</text>
</a>
</g>
</g>
<!-- Node1&#45;&gt;Node10 -->
<g id="edge10_Node000001_Node000010" class="edge">
<title>Node1&#45;&gt;Node10</title>
<g id="a_edge10_Node000001_Node000010"><a xlink:title=" ">
<path fill="none" stroke="#63b8ff" d="M895.84,-127.51C916.39,-117.47 941.39,-105.26 960.32,-96.01"/>
<polygon fill="#63b8ff" stroke="#63b8ff" points="894.2,-124.42 886.75,-131.95 897.27,-130.71 894.2,-124.42"/>
</a>
</g>
</g>
<!-- Node11 -->
<g id="Node000011" class="node">
<title>Node11</title>
<g id="a_Node000011"><a xlink:href="../../da/de4/plan__aggregation_8cpp.html" target="_top" xlink:title=" ">
<polygon fill="white" stroke="#666666" points="1243.5,-90.5 1064.5,-90.5 1064.5,-71.5 1243.5,-71.5 1243.5,-90.5"/>
<text text-anchor="middle" x="1154" y="-78.5" font-family="Helvetica,sans-Serif" font-size="10.00">src/planner/plan_aggregation.cpp</text>
</a>
</g>
</g>
<!-- Node1&#45;&gt;Node11 -->
<g id="edge11_Node000001_Node000011" class="edge">
<title>Node1&#45;&gt;Node11</title>
<g id="a_edge11_Node000001_Node000011"><a xlink:title=" ">
<path fill="none" stroke="#63b8ff" d="M927.41,-130.99C985.62,-118.41 1066.67,-100.88 1114.41,-90.56"/>
<polygon fill="#63b8ff" stroke="#63b8ff" points="926.58,-127.59 917.54,-133.13 928.06,-134.43 926.58,-127.59"/>
</a>
</g>
</g>
<!-- Node12 -->
<g id="Node000012" class="node">
<title>Node12</title>
<g id="a_Node000012"><a xlink:href="../../d2/dbb/plan__insert_8cpp.html" target="_top" xlink:title=" ">
<polygon fill="white" stroke="#666666" points="1410,-90.5 1262,-90.5 1262,-71.5 1410,-71.5 1410,-90.5"/>
<text text-anchor="middle" x="1336" y="-78.5" font-family="Helvetica,sans-Serif" font-size="10.00">src/planner/plan_insert.cpp</text>
</a>
</g>
</g>
<!-- Node1&#45;&gt;Node12 -->
<g id="edge12_Node000001_Node000012" class="edge">
<title>Node1&#45;&gt;Node12</title>
<g id="a_edge12_Node000001_Node000012"><a xlink:title=" ">
<path fill="none" stroke="#63b8ff" d="M927.98,-138.02C1007.03,-128.81 1139.45,-112.76 1253,-96 1264.13,-94.36 1276.08,-92.44 1287.34,-90.55"/>
<polygon fill="#63b8ff" stroke="#63b8ff" points="927.19,-134.59 917.66,-139.22 928,-141.55 927.19,-134.59"/>
</a>
</g>
</g>
<!-- Node13 -->
<g id="Node000013" class="node">
<title>Node13</title>
<g id="a_Node000013"><a xlink:href="../../d9/df0/plan__select_8cpp.html" target="_top" xlink:title=" ">
<polygon fill="white" stroke="#666666" points="1577.5,-90.5 1428.5,-90.5 1428.5,-71.5 1577.5,-71.5 1577.5,-90.5"/>
<text text-anchor="middle" x="1503" y="-78.5" font-family="Helvetica,sans-Serif" font-size="10.00">src/planner/plan_select.cpp</text>
</a>
</g>
</g>
<!-- Node1&#45;&gt;Node13 -->
<g id="edge13_Node000001_Node000013" class="edge">
<title>Node1&#45;&gt;Node13</title>
<g id="a_edge13_Node000001_Node000013"><a xlink:title=" ">
<path fill="none" stroke="#63b8ff" d="M927.8,-141.5C1034.09,-134.25 1242.76,-118.51 1419,-96 1430.88,-94.48 1443.65,-92.52 1455.56,-90.56"/>
<polygon fill="#63b8ff" stroke="#63b8ff" points="927.27,-138.02 917.53,-142.19 927.74,-145.01 927.27,-138.02"/>
</a>
</g>
</g>
<!-- Node14 -->
<g id="Node000014" class="node">
<title>Node14</title>
<g id="a_Node000014"><a xlink:href="../../d4/d79/plan__window__function_8cpp.html" target="_top" xlink:title=" ">
<polygon fill="white" stroke="#666666" points="1732.5,-96 1595.5,-96 1595.5,-66 1732.5,-66 1732.5,-96"/>
<text text-anchor="start" x="1603.5" y="-84" font-family="Helvetica,sans-Serif" font-size="10.00">src/planner/plan_window</text>
<text text-anchor="middle" x="1664" y="-73" font-family="Helvetica,sans-Serif" font-size="10.00">_function.cpp</text>
</a>
</g>
</g>
<!-- Node1&#45;&gt;Node14 -->
<g id="edge14_Node000001_Node000014" class="edge">
<title>Node1&#45;&gt;Node14</title>
<g id="a_edge14_Node000001_Node000014"><a xlink:title=" ">
<path fill="none" stroke="#63b8ff" d="M927.97,-143.79C1058.14,-139.12 1346.16,-126.06 1587,-96 1589.7,-95.66 1592.44,-95.29 1595.21,-94.9"/>
<polygon fill="#63b8ff" stroke="#63b8ff" points="927.62,-140.3 917.75,-144.16 927.87,-147.3 927.62,-140.3"/>
</a>
</g>
</g>
<!-- Node15 -->
<g id="Node000015" class="node">
<title>Node15</title>
<g id="a_Node000015"><a xlink:href="../../de/d3d/planner_8cpp.html" target="_top" xlink:title=" ">
<polygon fill="white" stroke="#666666" points="1881,-90.5 1751,-90.5 1751,-71.5 1881,-71.5 1881,-90.5"/>
<text text-anchor="middle" x="1816" y="-78.5" font-family="Helvetica,sans-Serif" font-size="10.00">src/planner/planner.cpp</text>
</a>
</g>
</g>
<!-- Node1&#45;&gt;Node15 -->
<g id="edge15_Node000001_Node000015" class="edge">
<title>Node1&#45;&gt;Node15</title>
<g id="a_edge15_Node000001_Node000015"><a xlink:title=" ">
<path fill="none" stroke="#63b8ff" d="M928.16,-145.14C1078.09,-142.61 1440.64,-132.87 1742,-96 1753.16,-94.63 1765.17,-92.61 1776.21,-90.52"/>
<polygon fill="#63b8ff" stroke="#63b8ff" points="927.68,-141.64 917.73,-145.31 927.79,-148.64 927.68,-141.64"/>
</a>
</g>
</g>
<!-- Node3&#45;&gt;Node2 -->
<g id="edge3_Node000003_Node000002" class="edge">
<title>Node3&#45;&gt;Node2</title>
<g id="a_edge3_Node000003_Node000002"><a xlink:title=" ">
<path fill="none" stroke="#63b8ff" d="M133.79,-60.42C118.14,-50.6 99.54,-38.93 85.33,-30.01"/>
<polygon fill="#63b8ff" stroke="#63b8ff" points="132.28,-63.6 142.62,-65.95 136.01,-57.68 132.28,-63.6"/>
</a>
</g>
</g>
<!-- Node4 -->
<g id="Node000004" class="node">
<title>Node4</title>
<g id="a_Node000004"><a xlink:href="../../d2/d5a/filter__executor_8cpp.html" target="_top" xlink:title=" ">
<polygon fill="white" stroke="#666666" points="251.5,-30 144.5,-30 144.5,0 251.5,0 251.5,-30"/>
<text text-anchor="start" x="152.5" y="-18" font-family="Helvetica,sans-Serif" font-size="10.00">src/execution/filter</text>
<text text-anchor="middle" x="198" y="-7" font-family="Helvetica,sans-Serif" font-size="10.00">_executor.cpp</text>
</a>
</g>
</g>
<!-- Node3&#45;&gt;Node4 -->
<g id="edge4_Node000003_Node000004" class="edge">
<title>Node3&#45;&gt;Node4</title>
<g id="a_edge4_Node000003_Node000004"><a xlink:title=" ">
<path fill="none" stroke="#63b8ff" d="M177.02,-56.68C181.61,-47.79 186.68,-37.95 190.7,-30.16"/>
<polygon fill="#63b8ff" stroke="#63b8ff" points="173.8,-55.3 172.32,-65.8 180.02,-58.51 173.8,-55.3"/>
</a>
</g>
</g>
</g>
</svg>
