<?xml version="1.0" encoding="UTF-8" standalone="no"?>
<!DOCTYPE svg PUBLIC "-//W3C//DTD SVG 1.1//EN"
 "http://www.w3.org/Graphics/SVG/1.1/DTD/svg11.dtd">
<!-- Generated by graphviz version 2.43.0 (0)
 -->
<!-- Title: src/include/type/value_factory.h Pages: 1 -->
<svg width="1315pt" height="324pt"
 viewBox="0.00 0.00 1315.00 324.00" xmlns="http://www.w3.org/2000/svg" xmlns:xlink="http://www.w3.org/1999/xlink">
<g id="graph0" class="graph" transform="scale(1 1) rotate(0) translate(4 320)">
<title>src/include/type/value_factory.h</title>
<!-- Node1 -->
<g id="Node000001" class="node">
<title>Node1</title>
<g id="a_Node000001"><a xlink:title=" ">
<polygon fill="#999999" stroke="#666666" points="585,-316 461,-316 461,-286 585,-286 585,-316"/>
<text text-anchor="start" x="469" y="-304" font-family="Helvetica,sans-Serif" font-size="10.00">src/include/type/value</text>
<text text-anchor="middle" x="523" y="-293" font-family="Helvetica,sans-Serif" font-size="10.00">_factory.h</text>
</a>
</g>
</g>
<!-- Node2 -->
<g id="Node000002" class="node">
<title>Node2</title>
<g id="a_Node000002"><a xlink:title=" ">
<polygon fill="#e0e0e0" stroke="#999999" points="64,-244.5 0,-244.5 0,-225.5 64,-225.5 64,-244.5"/>
<text text-anchor="middle" x="32" y="-232.5" font-family="Helvetica,sans-Serif" font-size="10.00">algorithm</text>
</a>
</g>
</g>
<!-- Node1&#45;&gt;Node2 -->
<g id="edge1_Node000001_Node000002" class="edge">
<title>Node1&#45;&gt;Node2</title>
<g id="a_edge1_Node000001_Node000002"><a xlink:title=" ">
<path fill="none" stroke="#63b8ff" d="M460.89,-296.63C374.36,-291.12 212.95,-277.87 78,-250 74.35,-249.25 70.58,-248.33 66.83,-247.33"/>
<polygon fill="#63b8ff" stroke="#63b8ff" points="67.67,-243.93 57.09,-244.55 65.75,-250.66 67.67,-243.93"/>
</a>
</g>
</g>
<!-- Node3 -->
<g id="Node000003" class="node">
<title>Node3</title>
<g id="a_Node000003"><a xlink:title=" ">
<polygon fill="#e0e0e0" stroke="#999999" points="223.5,-74 158.5,-74 158.5,-55 223.5,-55 223.5,-74"/>
<text text-anchor="middle" x="191" y="-62" font-family="Helvetica,sans-Serif" font-size="10.00">stdexcept</text>
</a>
</g>
</g>
<!-- Node1&#45;&gt;Node3 -->
<g id="edge2_Node000001_Node000003" class="edge">
<title>Node1&#45;&gt;Node3</title>
<g id="a_edge2_Node000001_Node000003"><a xlink:title=" ">
<path fill="none" stroke="#63b8ff" d="M460.69,-296.82C352.31,-290.64 138.44,-275.36 116,-250 70.61,-198.69 140.39,-116.3 174.27,-81.66"/>
<polygon fill="#63b8ff" stroke="#63b8ff" points="177.05,-83.84 181.65,-74.29 172.1,-78.88 177.05,-83.84"/>
</a>
</g>
</g>
<!-- Node4 -->
<g id="Node000004" class="node">
<title>Node4</title>
<g id="a_Node000004"><a xlink:title=" ">
<polygon fill="#e0e0e0" stroke="#999999" points="726,-19 682,-19 682,0 726,0 726,-19"/>
<text text-anchor="middle" x="704" y="-7" font-family="Helvetica,sans-Serif" font-size="10.00">string</text>
</a>
</g>
</g>
<!-- Node1&#45;&gt;Node4 -->
<g id="edge3_Node000001_Node000004" class="edge">
<title>Node1&#45;&gt;Node4</title>
<g id="a_edge3_Node000001_Node000004"><a xlink:title=" ">
<path fill="none" stroke="#63b8ff" d="M460.83,-295.97C377.79,-289.68 235.9,-275.54 191,-250 153.8,-228.84 130,-218.29 130,-175.5 130,-175.5 130,-175.5 130,-118.5 130,-89.04 126.09,-73.52 149,-55 189.73,-22.06 559.38,-13 671.75,-10.99"/>
<polygon fill="#63b8ff" stroke="#63b8ff" points="671.86,-14.49 681.8,-10.82 671.74,-7.49 671.86,-14.49"/>
</a>
</g>
</g>
<!-- Node5 -->
<g id="Node000005" class="node">
<title>Node5</title>
<g id="a_Node000005"><a xlink:href="../../de/d3c/macros_8h.html" target="_top" xlink:title=" ">
<polygon fill="white" stroke="#666666" points="307.5,-244.5 200.5,-244.5 200.5,-225.5 307.5,-225.5 307.5,-244.5"/>
<text text-anchor="middle" x="254" y="-232.5" font-family="Helvetica,sans-Serif" font-size="10.00">common/macros.h</text>
</a>
</g>
</g>
<!-- Node1&#45;&gt;Node5 -->
<g id="edge4_Node000001_Node000005" class="edge">
<title>Node1&#45;&gt;Node5</title>
<g id="a_edge4_Node000001_Node000005"><a xlink:title=" ">
<path fill="none" stroke="#63b8ff" d="M463.97,-285.95C414.51,-274.19 344.91,-257.63 299.64,-246.86"/>
<polygon fill="#63b8ff" stroke="#63b8ff" points="300.34,-243.43 289.8,-244.52 298.72,-250.24 300.34,-243.43"/>
</a>
</g>
</g>
<!-- Node8 -->
<g id="Node000008" class="node">
<title>Node8</title>
<g id="a_Node000008"><a xlink:href="../../dd/d70/string__util_8h.html" target="_top" xlink:title=" ">
<polygon fill="white" stroke="#666666" points="451.5,-250 342.5,-250 342.5,-220 451.5,-220 451.5,-250"/>
<text text-anchor="start" x="350.5" y="-238" font-family="Helvetica,sans-Serif" font-size="10.00">common/util/string</text>
<text text-anchor="middle" x="397" y="-227" font-family="Helvetica,sans-Serif" font-size="10.00">_util.h</text>
</a>
</g>
</g>
<!-- Node1&#45;&gt;Node8 -->
<g id="edge8_Node000001_Node000008" class="edge">
<title>Node1&#45;&gt;Node8</title>
<g id="a_edge8_Node000001_Node000008"><a xlink:title=" ">
<path fill="none" stroke="#63b8ff" d="M495.35,-285.95C477.21,-276.74 453.3,-264.6 433.59,-254.59"/>
<polygon fill="#63b8ff" stroke="#63b8ff" points="435.09,-251.42 424.59,-250.01 431.92,-257.66 435.09,-251.42"/>
</a>
</g>
</g>
<!-- Node10 -->
<g id="Node000010" class="node">
<title>Node10</title>
<g id="a_Node000010"><a xlink:href="../../d0/d9d/abstract__pool_8h.html" target="_top" xlink:title=" ">
<polygon fill="white" stroke="#666666" points="396,-129 280,-129 280,-110 396,-110 396,-129"/>
<text text-anchor="middle" x="338" y="-117" font-family="Helvetica,sans-Serif" font-size="10.00">type/abstract_pool.h</text>
</a>
</g>
</g>
<!-- Node1&#45;&gt;Node10 -->
<g id="edge11_Node000001_Node000010" class="edge">
<title>Node1&#45;&gt;Node10</title>
<g id="a_edge11_Node000001_Node000010"><a xlink:title=" ">
<path fill="none" stroke="#63b8ff" d="M518.16,-285.77C508.31,-258.73 483.42,-199.54 444,-165 426.58,-149.74 403.18,-139.17 382.8,-132.18"/>
<polygon fill="#63b8ff" stroke="#63b8ff" points="383.67,-128.78 373.07,-129.03 381.51,-135.44 383.67,-128.78"/>
</a>
</g>
</g>
<!-- Node12 -->
<g id="Node000012" class="node">
<title>Node12</title>
<g id="a_Node000012"><a xlink:href="../../d2/d37/boolean__type_8h.html" target="_top" xlink:title=" ">
<polygon fill="white" stroke="#666666" points="624,-184 508,-184 508,-165 624,-165 624,-184"/>
<text text-anchor="middle" x="566" y="-172" font-family="Helvetica,sans-Serif" font-size="10.00">type/boolean_type.h</text>
</a>
</g>
</g>
<!-- Node1&#45;&gt;Node12 -->
<g id="edge13_Node000001_Node000012" class="edge">
<title>Node1&#45;&gt;Node12</title>
<g id="a_edge13_Node000001_Node000012"><a xlink:title=" ">
<path fill="none" stroke="#63b8ff" d="M527.93,-285.72C535.77,-263.02 551.07,-218.72 559.7,-193.75"/>
<polygon fill="#63b8ff" stroke="#63b8ff" points="563.08,-194.66 563.04,-184.07 556.47,-192.38 563.08,-194.66"/>
</a>
</g>
</g>
<!-- Node21 -->
<g id="Node000021" class="node">
<title>Node21</title>
<g id="a_Node000021"><a xlink:href="../../d4/d3f/value_8h.html" target="_top" xlink:title=" ">
<polygon fill="white" stroke="#666666" points="863.5,-129 786.5,-129 786.5,-110 863.5,-110 863.5,-129"/>
<text text-anchor="middle" x="825" y="-117" font-family="Helvetica,sans-Serif" font-size="10.00">type/value.h</text>
</a>
</g>
</g>
<!-- Node1&#45;&gt;Node21 -->
<g id="edge50_Node000001_Node000021" class="edge">
<title>Node1&#45;&gt;Node21</title>
<g id="a_edge50_Node000001_Node000021"><a xlink:title=" ">
<path fill="none" stroke="#63b8ff" d="M541.69,-285.8C576.39,-259.81 653.66,-203.72 724,-165 746.36,-152.69 772.79,-141.14 793.01,-132.9"/>
<polygon fill="#63b8ff" stroke="#63b8ff" points="794.42,-136.1 802.39,-129.13 791.81,-129.61 794.42,-136.1"/>
</a>
</g>
</g>
<!-- Node29 -->
<g id="Node000029" class="node">
<title>Node29</title>
<g id="a_Node000029"><a xlink:href="../../d6/dcc/decimal__type_8h.html" target="_top" xlink:title=" ">
<polygon fill="white" stroke="#666666" points="796,-244.5 680,-244.5 680,-225.5 796,-225.5 796,-244.5"/>
<text text-anchor="middle" x="738" y="-232.5" font-family="Helvetica,sans-Serif" font-size="10.00">type/decimal_type.h</text>
</a>
</g>
</g>
<!-- Node1&#45;&gt;Node29 -->
<g id="edge40_Node000001_Node000029" class="edge">
<title>Node1&#45;&gt;Node29</title>
<g id="a_edge40_Node000001_Node000029"><a xlink:title=" ">
<path fill="none" stroke="#63b8ff" d="M570.18,-285.95C609.05,-274.38 663.47,-258.18 699.68,-247.41"/>
<polygon fill="#63b8ff" stroke="#63b8ff" points="700.8,-250.72 709.39,-244.52 698.8,-244.02 700.8,-250.72"/>
</a>
</g>
</g>
<!-- Node30 -->
<g id="Node000030" class="node">
<title>Node30</title>
<g id="a_Node000030"><a xlink:href="../../d4/d5c/numeric__type_8h.html" target="_top" xlink:title=" ">
<polygon fill="white" stroke="#666666" points="883.5,-184 766.5,-184 766.5,-165 883.5,-165 883.5,-184"/>
<text text-anchor="middle" x="825" y="-172" font-family="Helvetica,sans-Serif" font-size="10.00">type/numeric_type.h</text>
</a>
</g>
</g>
<!-- Node1&#45;&gt;Node30 -->
<g id="edge45_Node000001_Node000030" class="edge">
<title>Node1&#45;&gt;Node30</title>
<g id="a_edge45_Node000001_Node000030"><a xlink:title=" ">
<path fill="none" stroke="#63b8ff" d="M585.26,-296.63C658.37,-291.39 773.66,-278.73 805,-250 820.32,-235.96 824.42,-211.56 825.27,-194.53"/>
<polygon fill="#63b8ff" stroke="#63b8ff" points="828.77,-194.18 825.43,-184.13 821.77,-194.07 828.77,-194.18"/>
</a>
</g>
</g>
<!-- Node32 -->
<g id="Node000032" class="node">
<title>Node32</title>
<g id="a_Node000032"><a xlink:href="../../d3/d95/timestamp__type_8h.html" target="_top" xlink:title=" ">
<polygon fill="white" stroke="#666666" points="1032.5,-184 901.5,-184 901.5,-165 1032.5,-165 1032.5,-184"/>
<text text-anchor="middle" x="967" y="-172" font-family="Helvetica,sans-Serif" font-size="10.00">type/timestamp_type.h</text>
</a>
</g>
</g>
<!-- Node1&#45;&gt;Node32 -->
<g id="edge46_Node000001_Node000032" class="edge">
<title>Node1&#45;&gt;Node32</title>
<g id="a_edge46_Node000001_Node000032"><a xlink:title=" ">
<path fill="none" stroke="#63b8ff" d="M585.21,-295.82C647.89,-290.23 746.7,-277.6 828,-250 872.3,-234.96 919.38,-206.81 945.8,-189.75"/>
<polygon fill="#63b8ff" stroke="#63b8ff" points="947.8,-192.63 954.24,-184.22 943.96,-186.77 947.8,-192.63"/>
</a>
</g>
</g>
<!-- Node33 -->
<g id="Node000033" class="node">
<title>Node33</title>
<g id="a_Node000033"><a xlink:href="../../d5/dbc/varlen__type_8h.html" target="_top" xlink:title=" ">
<polygon fill="white" stroke="#666666" points="1159,-184 1051,-184 1051,-165 1159,-165 1159,-184"/>
<text text-anchor="middle" x="1105" y="-172" font-family="Helvetica,sans-Serif" font-size="10.00">type/varlen_type.h</text>
</a>
</g>
</g>
<!-- Node1&#45;&gt;Node33 -->
<g id="edge51_Node000001_Node000033" class="edge">
<title>Node1&#45;&gt;Node33</title>
<g id="a_edge51_Node000001_Node000033"><a xlink:title=" ">
<path fill="none" stroke="#63b8ff" d="M585.27,-294.43C656.09,-287.34 774.87,-273.15 875,-250 947.27,-233.29 1029.38,-204.15 1073.29,-187.7"/>
<polygon fill="#63b8ff" stroke="#63b8ff" points="1074.71,-190.9 1082.83,-184.1 1072.24,-184.35 1074.71,-190.9"/>
</a>
</g>
</g>
<!-- Node5&#45;&gt;Node3 -->
<g id="edge7_Node000005_Node000003" class="edge">
<title>Node5&#45;&gt;Node3</title>
<g id="a_edge7_Node000005_Node000003"><a xlink:title=" ">
<path fill="none" stroke="#63b8ff" d="M234.07,-225.39C218.08,-217.28 196.76,-203.46 187,-184 170.84,-151.77 178.67,-108.16 185.22,-83.84"/>
<polygon fill="#63b8ff" stroke="#63b8ff" points="188.61,-84.71 188.05,-74.13 181.89,-82.75 188.61,-84.71"/>
</a>
</g>
</g>
<!-- Node6 -->
<g id="Node000006" class="node">
<title>Node6</title>
<g id="a_Node000006"><a xlink:title=" ">
<polygon fill="#e0e0e0" stroke="#999999" points="248,-184 196,-184 196,-165 248,-165 248,-184"/>
<text text-anchor="middle" x="222" y="-172" font-family="Helvetica,sans-Serif" font-size="10.00">cassert</text>
</a>
</g>
</g>
<!-- Node5&#45;&gt;Node6 -->
<g id="edge5_Node000005_Node000006" class="edge">
<title>Node5&#45;&gt;Node6</title>
<g id="a_edge5_Node000005_Node000006"><a xlink:title=" ">
<path fill="none" stroke="#63b8ff" d="M249.28,-225.37C244.65,-216.9 237.45,-203.74 231.61,-193.07"/>
<polygon fill="#63b8ff" stroke="#63b8ff" points="234.61,-191.26 226.74,-184.17 228.47,-194.62 234.61,-191.26"/>
</a>
</g>
</g>
<!-- Node7 -->
<g id="Node000007" class="node">
<title>Node7</title>
<g id="a_Node000007"><a xlink:title=" ">
<polygon fill="#e0e0e0" stroke="#999999" points="331.5,-184 266.5,-184 266.5,-165 331.5,-165 331.5,-184"/>
<text text-anchor="middle" x="299" y="-172" font-family="Helvetica,sans-Serif" font-size="10.00">exception</text>
</a>
</g>
</g>
<!-- Node5&#45;&gt;Node7 -->
<g id="edge6_Node000005_Node000007" class="edge">
<title>Node5&#45;&gt;Node7</title>
<g id="a_edge6_Node000005_Node000007"><a xlink:title=" ">
<path fill="none" stroke="#63b8ff" d="M260.64,-225.37C267.29,-216.73 277.69,-203.2 285.99,-192.42"/>
<polygon fill="#63b8ff" stroke="#63b8ff" points="289.01,-194.23 292.33,-184.17 283.46,-189.96 289.01,-194.23"/>
</a>
</g>
</g>
<!-- Node8&#45;&gt;Node4 -->
<g id="edge9_Node000008_Node000004" class="edge">
<title>Node8&#45;&gt;Node4</title>
<g id="a_edge9_Node000008_Node000004"><a xlink:title=" ">
<path fill="none" stroke="#63b8ff" d="M387.88,-219.88C377.63,-204.84 359.8,-181.04 340,-165 313.12,-143.23 288.93,-158.58 271,-129 253.95,-100.88 248.96,-79.42 271,-55 297.75,-25.36 575.47,-14.33 671.53,-11.38"/>
<polygon fill="#63b8ff" stroke="#63b8ff" points="671.91,-14.87 681.8,-11.08 671.7,-7.88 671.91,-14.87"/>
</a>
</g>
</g>
<!-- Node9 -->
<g id="Node000009" class="node">
<title>Node9</title>
<g id="a_Node000009"><a xlink:title=" ">
<polygon fill="#e0e0e0" stroke="#999999" points="435.5,-184 388.5,-184 388.5,-165 435.5,-165 435.5,-184"/>
<text text-anchor="middle" x="412" y="-172" font-family="Helvetica,sans-Serif" font-size="10.00">vector</text>
</a>
</g>
</g>
<!-- Node8&#45;&gt;Node9 -->
<g id="edge10_Node000008_Node000009" class="edge">
<title>Node8&#45;&gt;Node9</title>
<g id="a_edge10_Node000008_Node000009"><a xlink:title=" ">
<path fill="none" stroke="#63b8ff" d="M400.63,-219.84C402.61,-212.13 405.08,-202.49 407.21,-194.17"/>
<polygon fill="#63b8ff" stroke="#63b8ff" points="410.66,-194.82 409.75,-184.27 403.88,-193.08 410.66,-194.82"/>
</a>
</g>
</g>
<!-- Node11 -->
<g id="Node000011" class="node">
<title>Node11</title>
<g id="a_Node000011"><a xlink:title=" ">
<polygon fill="#e0e0e0" stroke="#999999" points="329.5,-74 280.5,-74 280.5,-55 329.5,-55 329.5,-74"/>
<text text-anchor="middle" x="305" y="-62" font-family="Helvetica,sans-Serif" font-size="10.00">cstdlib</text>
</a>
</g>
</g>
<!-- Node10&#45;&gt;Node11 -->
<g id="edge12_Node000010_Node000011" class="edge">
<title>Node10&#45;&gt;Node11</title>
<g id="a_edge12_Node000010_Node000011"><a xlink:title=" ">
<path fill="none" stroke="#63b8ff" d="M332.55,-109.75C327.99,-102.42 321.33,-91.73 315.71,-82.7"/>
<polygon fill="#63b8ff" stroke="#63b8ff" points="318.6,-80.73 310.35,-74.09 312.66,-84.43 318.6,-80.73"/>
</a>
</g>
</g>
<!-- Node12&#45;&gt;Node4 -->
<g id="edge14_Node000012_Node000004" class="edge">
<title>Node12&#45;&gt;Node4</title>
<g id="a_edge14_Node000012_Node000004"><a xlink:title=" ">
<path fill="none" stroke="#63b8ff" d="M534.69,-164.95C476.68,-147.66 362.22,-105.8 406,-55 440.02,-15.52 601.64,-10.54 671.6,-10.27"/>
<polygon fill="#63b8ff" stroke="#63b8ff" points="671.62,-13.77 681.62,-10.26 671.61,-6.77 671.62,-13.77"/>
</a>
</g>
</g>
<!-- Node13 -->
<g id="Node000013" class="node">
<title>Node13</title>
<g id="a_Node000013"><a xlink:href="../../dd/d2d/exception_8h.html" target="_top" xlink:title=" ">
<polygon fill="white" stroke="#666666" points="574.5,-129 455.5,-129 455.5,-110 574.5,-110 574.5,-129"/>
<text text-anchor="middle" x="515" y="-117" font-family="Helvetica,sans-Serif" font-size="10.00">common/exception.h</text>
</a>
</g>
</g>
<!-- Node12&#45;&gt;Node13 -->
<g id="edge15_Node000012_Node000013" class="edge">
<title>Node12&#45;&gt;Node13</title>
<g id="a_edge15_Node000012_Node000013"><a xlink:title=" ">
<path fill="none" stroke="#63b8ff" d="M557.58,-164.75C550.23,-157.11 539.37,-145.82 530.46,-136.56"/>
<polygon fill="#63b8ff" stroke="#63b8ff" points="532.72,-133.87 523.26,-129.09 527.68,-138.72 532.72,-133.87"/>
</a>
</g>
</g>
<!-- Node18 -->
<g id="Node000018" class="node">
<title>Node18</title>
<g id="a_Node000018"><a xlink:href="../../df/def/type_8h.html" target="_top" xlink:title=" ">
<polygon fill="white" stroke="#666666" points="782,-74 710,-74 710,-55 782,-55 782,-74"/>
<text text-anchor="middle" x="746" y="-62" font-family="Helvetica,sans-Serif" font-size="10.00">type/type.h</text>
</a>
</g>
</g>
<!-- Node12&#45;&gt;Node18 -->
<g id="edge27_Node000012_Node000018" class="edge">
<title>Node12&#45;&gt;Node18</title>
<g id="a_edge27_Node000012_Node000018"><a xlink:title=" ">
<path fill="none" stroke="#63b8ff" d="M580.43,-164.84C611.5,-146.2 684.98,-102.11 722.73,-79.46"/>
<polygon fill="#63b8ff" stroke="#63b8ff" points="724.73,-82.34 731.51,-74.2 721.13,-76.34 724.73,-82.34"/>
</a>
</g>
</g>
<!-- Node12&#45;&gt;Node21 -->
<g id="edge28_Node000012_Node000021" class="edge">
<title>Node12&#45;&gt;Node21</title>
<g id="a_edge28_Node000012_Node000021"><a xlink:title=" ">
<path fill="none" stroke="#63b8ff" d="M607.61,-164.98C653.67,-155.56 727.81,-140.39 776.47,-130.43"/>
<polygon fill="#63b8ff" stroke="#63b8ff" points="777.35,-133.82 786.45,-128.39 775.95,-126.96 777.35,-133.82"/>
</a>
</g>
</g>
<!-- Node13&#45;&gt;Node3 -->
<g id="edge21_Node000013_Node000003" class="edge">
<title>Node13&#45;&gt;Node3</title>
<g id="a_edge21_Node000013_Node000003"><a xlink:title=" ">
<path fill="none" stroke="#63b8ff" d="M462.94,-109.98C399.33,-99.58 292.88,-82.16 233.79,-72.5"/>
<polygon fill="#63b8ff" stroke="#63b8ff" points="234.12,-69.01 223.68,-70.85 232.99,-75.91 234.12,-69.01"/>
</a>
</g>
</g>
<!-- Node13&#45;&gt;Node4 -->
<g id="edge22_Node000013_Node000004" class="edge">
<title>Node13&#45;&gt;Node4</title>
<g id="a_edge22_Node000013_Node000004"><a xlink:title=" ">
<path fill="none" stroke="#63b8ff" d="M478.04,-109.99C441.13,-99.8 392.84,-80.83 415,-55 447.79,-16.78 603.31,-11.07 671.66,-10.44"/>
<polygon fill="#63b8ff" stroke="#63b8ff" points="671.87,-13.94 681.85,-10.38 671.82,-6.94 671.87,-13.94"/>
</a>
</g>
</g>
<!-- Node13&#45;&gt;Node11 -->
<g id="edge18_Node000013_Node000011" class="edge">
<title>Node13&#45;&gt;Node11</title>
<g id="a_edge18_Node000013_Node000011"><a xlink:title=" ">
<path fill="none" stroke="#63b8ff" d="M481.26,-109.98C442.41,-100.18 378.93,-84.16 339.68,-74.25"/>
<polygon fill="#63b8ff" stroke="#63b8ff" points="340.33,-70.81 329.78,-71.75 338.62,-77.59 340.33,-70.81"/>
</a>
</g>
</g>
<!-- Node14 -->
<g id="Node000014" class="node">
<title>Node14</title>
<g id="a_Node000014"><a xlink:title=" ">
<polygon fill="#e0e0e0" stroke="#999999" points="474,-74 424,-74 424,-55 474,-55 474,-74"/>
<text text-anchor="middle" x="449" y="-62" font-family="Helvetica,sans-Serif" font-size="10.00">atomic</text>
</a>
</g>
</g>
<!-- Node13&#45;&gt;Node14 -->
<g id="edge16_Node000013_Node000014" class="edge">
<title>Node13&#45;&gt;Node14</title>
<g id="a_edge16_Node000013_Node000014"><a xlink:title=" ">
<path fill="none" stroke="#63b8ff" d="M504.4,-109.98C494.54,-102.07 479.65,-90.11 467.78,-80.58"/>
<polygon fill="#63b8ff" stroke="#63b8ff" points="469.79,-77.7 459.8,-74.17 465.4,-83.16 469.79,-77.7"/>
</a>
</g>
</g>
<!-- Node15 -->
<g id="Node000015" class="node">
<title>Node15</title>
<g id="a_Node000015"><a xlink:title=" ">
<polygon fill="#e0e0e0" stroke="#999999" points="538,-74 492,-74 492,-55 538,-55 538,-74"/>
<text text-anchor="middle" x="515" y="-62" font-family="Helvetica,sans-Serif" font-size="10.00">cstdio</text>
</a>
</g>
</g>
<!-- Node13&#45;&gt;Node15 -->
<g id="edge17_Node000013_Node000015" class="edge">
<title>Node13&#45;&gt;Node15</title>
<g id="a_edge17_Node000013_Node000015"><a xlink:title=" ">
<path fill="none" stroke="#63b8ff" d="M515,-109.75C515,-102.8 515,-92.85 515,-84.13"/>
<polygon fill="#63b8ff" stroke="#63b8ff" points="518.5,-84.09 515,-74.09 511.5,-84.09 518.5,-84.09"/>
</a>
</g>
</g>
<!-- Node16 -->
<g id="Node000016" class="node">
<title>Node16</title>
<g id="a_Node000016"><a xlink:title=" ">
<polygon fill="#e0e0e0" stroke="#999999" points="616,-74 556,-74 556,-55 616,-55 616,-74"/>
<text text-anchor="middle" x="586" y="-62" font-family="Helvetica,sans-Serif" font-size="10.00">iostream</text>
</a>
</g>
</g>
<!-- Node13&#45;&gt;Node16 -->
<g id="edge19_Node000013_Node000016" class="edge">
<title>Node13&#45;&gt;Node16</title>
<g id="a_edge19_Node000013_Node000016"><a xlink:title=" ">
<path fill="none" stroke="#63b8ff" d="M526.41,-109.98C537.11,-102 553.34,-89.88 566.16,-80.31"/>
<polygon fill="#63b8ff" stroke="#63b8ff" points="568.47,-82.96 574.39,-74.17 564.28,-77.35 568.47,-82.96"/>
</a>
</g>
</g>
<!-- Node17 -->
<g id="Node000017" class="node">
<title>Node17</title>
<g id="a_Node000017"><a xlink:title=" ">
<polygon fill="#e0e0e0" stroke="#999999" points="692,-74 634,-74 634,-55 692,-55 692,-74"/>
<text text-anchor="middle" x="663" y="-62" font-family="Helvetica,sans-Serif" font-size="10.00">memory</text>
</a>
</g>
</g>
<!-- Node13&#45;&gt;Node17 -->
<g id="edge20_Node000013_Node000017" class="edge">
<title>Node13&#45;&gt;Node17</title>
<g id="a_edge20_Node000013_Node000017"><a xlink:title=" ">
<path fill="none" stroke="#63b8ff" d="M538.78,-109.98C563.23,-101.23 601.53,-87.51 629.15,-77.62"/>
<polygon fill="#63b8ff" stroke="#63b8ff" points="630.55,-80.84 638.79,-74.17 628.19,-74.25 630.55,-80.84"/>
</a>
</g>
</g>
<!-- Node13&#45;&gt;Node18 -->
<g id="edge23_Node000013_Node000018" class="edge">
<title>Node13&#45;&gt;Node18</title>
<g id="a_edge23_Node000013_Node000018"><a xlink:title=" ">
<path fill="none" stroke="#63b8ff" d="M552.11,-109.98C592.26,-100.77 656.32,-86.08 699.72,-76.12"/>
<polygon fill="#63b8ff" stroke="#63b8ff" points="700.78,-79.47 709.74,-73.82 699.21,-72.64 700.78,-79.47"/>
</a>
</g>
</g>
<!-- Node18&#45;&gt;Node4 -->
<g id="edge25_Node000018_Node000004" class="edge">
<title>Node18&#45;&gt;Node4</title>
<g id="a_edge25_Node000018_Node000004"><a xlink:title=" ">
<path fill="none" stroke="#63b8ff" d="M739.06,-54.75C733.13,-47.26 724.43,-36.28 717.18,-27.13"/>
<polygon fill="#63b8ff" stroke="#63b8ff" points="719.76,-24.75 710.81,-19.09 714.27,-29.1 719.76,-24.75"/>
</a>
</g>
</g>
<!-- Node19 -->
<g id="Node000019" class="node">
<title>Node19</title>
<g id="a_Node000019"><a xlink:title=" ">
<polygon fill="#e0e0e0" stroke="#999999" points="986,-19 936,-19 936,0 986,0 986,-19"/>
<text text-anchor="middle" x="961" y="-7" font-family="Helvetica,sans-Serif" font-size="10.00">cstdint</text>
</a>
</g>
</g>
<!-- Node18&#45;&gt;Node19 -->
<g id="edge24_Node000018_Node000019" class="edge">
<title>Node18&#45;&gt;Node19</title>
<g id="a_edge24_Node000018_Node000019"><a xlink:title=" ">
<path fill="none" stroke="#63b8ff" d="M780.54,-54.98C820.51,-45.13 885.95,-29 926.08,-19.11"/>
<polygon fill="#63b8ff" stroke="#63b8ff" points="927.07,-22.47 935.95,-16.68 925.4,-15.67 927.07,-22.47"/>
</a>
</g>
</g>
<!-- Node20 -->
<g id="Node000020" class="node">
<title>Node20</title>
<g id="a_Node000020"><a xlink:href="../../dc/df2/type__id_8h.html" target="_top" xlink:title=" ">
<polygon fill="white" stroke="#666666" points="830,-19 744,-19 744,0 830,0 830,-19"/>
<text text-anchor="middle" x="787" y="-7" font-family="Helvetica,sans-Serif" font-size="10.00">type/type_id.h</text>
</a>
</g>
</g>
<!-- Node18&#45;&gt;Node20 -->
<g id="edge26_Node000018_Node000020" class="edge">
<title>Node18&#45;&gt;Node20</title>
<g id="a_edge26_Node000018_Node000020"><a xlink:title=" ">
<path fill="none" stroke="#63b8ff" d="M752.77,-54.75C758.56,-47.26 767.06,-36.28 774.14,-27.13"/>
<polygon fill="#63b8ff" stroke="#63b8ff" points="777.01,-29.14 780.36,-19.09 771.47,-24.86 777.01,-29.14"/>
</a>
</g>
</g>
<!-- Node21&#45;&gt;Node4 -->
<g id="edge31_Node000021_Node000004" class="edge">
<title>Node21&#45;&gt;Node4</title>
<g id="a_edge31_Node000021_Node000004"><a xlink:title=" ">
<path fill="none" stroke="#63b8ff" d="M822.19,-109.65C817.58,-96.31 807.24,-70.94 791,-55 775.47,-39.76 753.67,-28.62 735.77,-21.3"/>
<polygon fill="#63b8ff" stroke="#63b8ff" points="736.89,-17.98 726.3,-17.62 734.35,-24.5 736.89,-17.98"/>
</a>
</g>
</g>
<!-- Node21&#45;&gt;Node17 -->
<g id="edge30_Node000021_Node000017" class="edge">
<title>Node21&#45;&gt;Node17</title>
<g id="a_edge30_Node000021_Node000017"><a xlink:title=" ">
<path fill="none" stroke="#63b8ff" d="M798.97,-109.98C771.89,-101.13 729.29,-87.19 698.99,-77.28"/>
<polygon fill="#63b8ff" stroke="#63b8ff" points="699.82,-73.87 689.23,-74.08 697.65,-80.52 699.82,-73.87"/>
</a>
</g>
</g>
<!-- Node21&#45;&gt;Node18 -->
<g id="edge39_Node000021_Node000018" class="edge">
<title>Node21&#45;&gt;Node18</title>
<g id="a_edge39_Node000021_Node000018"><a xlink:title=" ">
<path fill="none" stroke="#63b8ff" d="M812.31,-109.98C800.17,-101.84 781.64,-89.41 767.25,-79.76"/>
<polygon fill="#63b8ff" stroke="#63b8ff" points="769.18,-76.84 758.92,-74.17 765.28,-82.65 769.18,-76.84"/>
</a>
</g>
</g>
<!-- Node22 -->
<g id="Node000022" class="node">
<title>Node22</title>
<g id="a_Node000022"><a xlink:title=" ">
<polygon fill="#e0e0e0" stroke="#999999" points="888,-74 838,-74 838,-55 888,-55 888,-74"/>
<text text-anchor="middle" x="863" y="-62" font-family="Helvetica,sans-Serif" font-size="10.00">cstring</text>
</a>
</g>
</g>
<!-- Node21&#45;&gt;Node22 -->
<g id="edge29_Node000021_Node000022" class="edge">
<title>Node21&#45;&gt;Node22</title>
<g id="a_edge29_Node000021_Node000022"><a xlink:title=" ">
<path fill="none" stroke="#63b8ff" d="M831.27,-109.75C836.59,-102.34 844.36,-91.5 850.88,-82.41"/>
<polygon fill="#63b8ff" stroke="#63b8ff" points="853.86,-84.26 856.84,-74.09 848.17,-80.18 853.86,-84.26"/>
</a>
</g>
</g>
<!-- Node23 -->
<g id="Node000023" class="node">
<title>Node23</title>
<g id="a_Node000023"><a xlink:title=" ">
<polygon fill="#e0e0e0" stroke="#999999" points="951.5,-74 906.5,-74 906.5,-55 951.5,-55 951.5,-74"/>
<text text-anchor="middle" x="929" y="-62" font-family="Helvetica,sans-Serif" font-size="10.00">utility</text>
</a>
</g>
</g>
<!-- Node21&#45;&gt;Node23 -->
<g id="edge32_Node000021_Node000023" class="edge">
<title>Node21&#45;&gt;Node23</title>
<g id="a_edge32_Node000021_Node000023"><a xlink:title=" ">
<path fill="none" stroke="#63b8ff" d="M841.71,-109.98C858.21,-101.57 883.7,-88.59 902.88,-78.81"/>
<polygon fill="#63b8ff" stroke="#63b8ff" points="904.67,-81.83 911.99,-74.17 901.49,-75.59 904.67,-81.83"/>
</a>
</g>
</g>
<!-- Node24 -->
<g id="Node000024" class="node">
<title>Node24</title>
<g id="a_Node000024"><a xlink:title=" ">
<polygon fill="#e0e0e0" stroke="#999999" points="1048.5,-74 969.5,-74 969.5,-55 1048.5,-55 1048.5,-74"/>
<text text-anchor="middle" x="1009" y="-62" font-family="Helvetica,sans-Serif" font-size="10.00">fmt/format.h</text>
</a>
</g>
</g>
<!-- Node21&#45;&gt;Node24 -->
<g id="edge33_Node000021_Node000024" class="edge">
<title>Node21&#45;&gt;Node24</title>
<g id="a_edge33_Node000021_Node000024"><a xlink:title=" ">
<path fill="none" stroke="#63b8ff" d="M854.56,-109.98C885.72,-101.01 934.97,-86.82 969.46,-76.89"/>
<polygon fill="#63b8ff" stroke="#63b8ff" points="970.57,-80.21 979.21,-74.08 968.63,-73.49 970.57,-80.21"/>
</a>
</g>
</g>
<!-- Node25 -->
<g id="Node000025" class="node">
<title>Node25</title>
<g id="a_Node000025"><a xlink:href="../../d9/d86/limits_8h.html" target="_top" xlink:title=" ">
<polygon fill="white" stroke="#666666" points="1259,-74 1181,-74 1181,-55 1259,-55 1259,-74"/>
<text text-anchor="middle" x="1220" y="-62" font-family="Helvetica,sans-Serif" font-size="10.00">type/limits.h</text>
</a>
</g>
</g>
<!-- Node21&#45;&gt;Node25 -->
<g id="edge34_Node000021_Node000025" class="edge">
<title>Node21&#45;&gt;Node25</title>
<g id="a_edge34_Node000021_Node000025"><a xlink:title=" ">
<path fill="none" stroke="#63b8ff" d="M863.59,-113.32C935.77,-103.64 1091.07,-82.8 1170.7,-72.11"/>
<polygon fill="#63b8ff" stroke="#63b8ff" points="1171.51,-75.54 1180.96,-70.74 1170.58,-68.6 1171.51,-75.54"/>
</a>
</g>
</g>
<!-- Node25&#45;&gt;Node19 -->
<g id="edge37_Node000025_Node000019" class="edge">
<title>Node25&#45;&gt;Node19</title>
<g id="a_edge37_Node000025_Node000019"><a xlink:title=" ">
<path fill="none" stroke="#63b8ff" d="M1180.94,-55.51C1130.78,-45.24 1044.46,-27.58 996.23,-17.71"/>
<polygon fill="#63b8ff" stroke="#63b8ff" points="996.75,-14.24 986.25,-15.67 995.35,-21.1 996.75,-14.24"/>
</a>
</g>
</g>
<!-- Node26 -->
<g id="Node000026" class="node">
<title>Node26</title>
<g id="a_Node000026"><a xlink:title=" ">
<polygon fill="#e0e0e0" stroke="#999999" points="1177,-19 1133,-19 1133,0 1177,0 1177,-19"/>
<text text-anchor="middle" x="1155" y="-7" font-family="Helvetica,sans-Serif" font-size="10.00">cfloat</text>
</a>
</g>
</g>
<!-- Node25&#45;&gt;Node26 -->
<g id="edge35_Node000025_Node000026" class="edge">
<title>Node25&#45;&gt;Node26</title>
<g id="a_edge35_Node000025_Node000026"><a xlink:title=" ">
<path fill="none" stroke="#63b8ff" d="M1209.56,-54.98C1199.85,-47.07 1185.18,-35.11 1173.5,-25.58"/>
<polygon fill="#63b8ff" stroke="#63b8ff" points="1175.6,-22.78 1165.63,-19.17 1171.17,-28.2 1175.6,-22.78"/>
</a>
</g>
</g>
<!-- Node27 -->
<g id="Node000027" class="node">
<title>Node27</title>
<g id="a_Node000027"><a xlink:title=" ">
<polygon fill="#e0e0e0" stroke="#999999" points="1245,-19 1195,-19 1195,0 1245,0 1245,-19"/>
<text text-anchor="middle" x="1220" y="-7" font-family="Helvetica,sans-Serif" font-size="10.00">climits</text>
</a>
</g>
</g>
<!-- Node25&#45;&gt;Node27 -->
<g id="edge36_Node000025_Node000027" class="edge">
<title>Node25&#45;&gt;Node27</title>
<g id="a_edge36_Node000025_Node000027"><a xlink:title=" ">
<path fill="none" stroke="#63b8ff" d="M1220,-54.75C1220,-47.8 1220,-37.85 1220,-29.13"/>
<polygon fill="#63b8ff" stroke="#63b8ff" points="1223.5,-29.09 1220,-19.09 1216.5,-29.09 1223.5,-29.09"/>
</a>
</g>
</g>
<!-- Node28 -->
<g id="Node000028" class="node">
<title>Node28</title>
<g id="a_Node000028"><a xlink:title=" ">
<polygon fill="#e0e0e0" stroke="#999999" points="1307,-19 1263,-19 1263,0 1307,0 1307,-19"/>
<text text-anchor="middle" x="1285" y="-7" font-family="Helvetica,sans-Serif" font-size="10.00">limits</text>
</a>
</g>
</g>
<!-- Node25&#45;&gt;Node28 -->
<g id="edge38_Node000025_Node000028" class="edge">
<title>Node25&#45;&gt;Node28</title>
<g id="a_edge38_Node000025_Node000028"><a xlink:title=" ">
<path fill="none" stroke="#63b8ff" d="M1230.44,-54.98C1240.15,-47.07 1254.82,-35.11 1266.5,-25.58"/>
<polygon fill="#63b8ff" stroke="#63b8ff" points="1268.83,-28.2 1274.37,-19.17 1264.4,-22.78 1268.83,-28.2"/>
</a>
</g>
</g>
<!-- Node29&#45;&gt;Node4 -->
<g id="edge41_Node000029_Node000004" class="edge">
<title>Node29&#45;&gt;Node4</title>
<g id="a_edge41_Node000029_Node000004"><a xlink:title=" ">
<path fill="none" stroke="#63b8ff" d="M737.88,-225.07C738.18,-210.5 740.92,-181.6 757,-165 794.55,-126.22 822.81,-148.88 873,-129 890.93,-121.9 893.87,-116.57 912,-110 974.84,-87.24 1016.79,-126.61 1058,-74 1063.21,-67.35 1063.63,-61.29 1058,-55 1011.72,-3.28 821.62,-30.27 736.14,-18.66"/>
<polygon fill="#63b8ff" stroke="#63b8ff" points="736.69,-15.21 726.25,-17.05 735.56,-22.12 736.69,-15.21"/>
</a>
</g>
</g>
<!-- Node29&#45;&gt;Node30 -->
<g id="edge42_Node000029_Node000030" class="edge">
<title>Node29&#45;&gt;Node30</title>
<g id="a_edge42_Node000029_Node000030"><a xlink:title=" ">
<path fill="none" stroke="#63b8ff" d="M750.84,-225.37C764.72,-216.04 787.07,-201.01 803.61,-189.88"/>
<polygon fill="#63b8ff" stroke="#63b8ff" points="805.76,-192.65 812.11,-184.17 801.86,-186.84 805.76,-192.65"/>
</a>
</g>
</g>
<!-- Node30&#45;&gt;Node21 -->
<g id="edge44_Node000030_Node000021" class="edge">
<title>Node30&#45;&gt;Node21</title>
<g id="a_edge44_Node000030_Node000021"><a xlink:title=" ">
<path fill="none" stroke="#63b8ff" d="M825,-164.75C825,-157.8 825,-147.85 825,-139.13"/>
<polygon fill="#63b8ff" stroke="#63b8ff" points="828.5,-139.09 825,-129.09 821.5,-139.09 828.5,-139.09"/>
</a>
</g>
</g>
<!-- Node31 -->
<g id="Node000031" class="node">
<title>Node31</title>
<g id="a_Node000031"><a xlink:title=" ">
<polygon fill="#e0e0e0" stroke="#999999" points="967.5,-129 920.5,-129 920.5,-110 967.5,-110 967.5,-129"/>
<text text-anchor="middle" x="944" y="-117" font-family="Helvetica,sans-Serif" font-size="10.00">cmath</text>
</a>
</g>
</g>
<!-- Node30&#45;&gt;Node31 -->
<g id="edge43_Node000030_Node000031" class="edge">
<title>Node30&#45;&gt;Node31</title>
<g id="a_edge43_Node000030_Node000031"><a xlink:title=" ">
<path fill="none" stroke="#63b8ff" d="M844.12,-164.98C863.35,-156.42 893.23,-143.11 915.31,-133.28"/>
<polygon fill="#63b8ff" stroke="#63b8ff" points="916.82,-136.44 924.53,-129.17 913.97,-130.04 916.82,-136.44"/>
</a>
</g>
</g>
<!-- Node32&#45;&gt;Node4 -->
<g id="edge47_Node000032_Node000004" class="edge">
<title>Node32&#45;&gt;Node4</title>
<g id="a_edge47_Node000032_Node000004"><a xlink:title=" ">
<path fill="none" stroke="#63b8ff" d="M988.96,-164.89C1034.25,-145.94 1130.64,-98.85 1091,-55 1039.6,1.85 829.17,-30.98 736.19,-18.66"/>
<polygon fill="#63b8ff" stroke="#63b8ff" points="736.67,-15.19 726.25,-17.08 735.57,-22.11 736.67,-15.19"/>
</a>
</g>
</g>
<!-- Node32&#45;&gt;Node10 -->
<g id="edge48_Node000032_Node000010" class="edge">
<title>Node32&#45;&gt;Node10</title>
<g id="a_edge48_Node000032_Node000010"><a xlink:title=" ">
<path fill="none" stroke="#63b8ff" d="M901.24,-165.83C898.46,-165.54 895.7,-165.26 893,-165 869.14,-162.67 549.03,-137.23 406.1,-125.9"/>
<polygon fill="#63b8ff" stroke="#63b8ff" points="406.37,-122.41 396.12,-125.11 405.81,-129.39 406.37,-122.41"/>
</a>
</g>
</g>
<!-- Node32&#45;&gt;Node21 -->
<g id="edge49_Node000032_Node000021" class="edge">
<title>Node32&#45;&gt;Node21</title>
<g id="a_edge49_Node000032_Node000021"><a xlink:title=" ">
<path fill="none" stroke="#63b8ff" d="M944.19,-164.98C920.83,-156.27 884.3,-142.63 857.83,-132.75"/>
<polygon fill="#63b8ff" stroke="#63b8ff" points="858.82,-129.39 848.23,-129.17 856.37,-135.95 858.82,-129.39"/>
</a>
</g>
</g>
<!-- Node33&#45;&gt;Node4 -->
<g id="edge52_Node000033_Node000004" class="edge">
<title>Node33&#45;&gt;Node4</title>
<g id="a_edge52_Node000033_Node000004"><a xlink:title=" ">
<path fill="none" stroke="#63b8ff" d="M1108.79,-164.98C1117.74,-143.43 1137.37,-86.24 1109,-55 1054.83,4.63 833.47,-31.35 736.35,-18.68"/>
<polygon fill="#63b8ff" stroke="#63b8ff" points="736.67,-15.18 726.25,-17.09 735.58,-22.1 736.67,-15.18"/>
</a>
</g>
</g>
<!-- Node33&#45;&gt;Node21 -->
<g id="edge53_Node000033_Node000021" class="edge">
<title>Node33&#45;&gt;Node21</title>
<g id="a_edge53_Node000033_Node000021"><a xlink:title=" ">
<path fill="none" stroke="#63b8ff" d="M1060.01,-164.98C1009,-155.33 926.12,-139.64 873.64,-129.71"/>
<polygon fill="#63b8ff" stroke="#63b8ff" points="874.04,-126.22 863.57,-127.8 872.74,-133.1 874.04,-126.22"/>
</a>
</g>
</g>
</g>
</svg>
