<?xml version="1.0" encoding="UTF-8" standalone="no"?>
<!DOCTYPE svg PUBLIC "-//W3C//DTD SVG 1.1//EN"
 "http://www.w3.org/Graphics/SVG/1.1/DTD/svg11.dtd">
<!-- Generated by graphviz version 2.43.0 (0)
 -->
<!-- Title: src/include/type/integer_parent_type.h Pages: 1 -->
<svg width="993pt" height="258pt"
 viewBox="0.00 0.00 992.64 258.00" xmlns="http://www.w3.org/2000/svg" xmlns:xlink="http://www.w3.org/1999/xlink">
<g id="graph0" class="graph" transform="scale(1 1) rotate(0) translate(4 254)">
<title>src/include/type/integer_parent_type.h</title>
<!-- Node1 -->
<g id="Node000001" class="node">
<title>Node1</title>
<g id="a_Node000001"><a xlink:title=" ">
<polygon fill="#999999" stroke="#666666" points="361.14,-250 230.14,-250 230.14,-220 361.14,-220 361.14,-250"/>
<text text-anchor="start" x="238.14" y="-238" font-family="Helvetica,sans-Serif" font-size="10.00">src/include/type/integer</text>
<text text-anchor="middle" x="295.64" y="-227" font-family="Helvetica,sans-Serif" font-size="10.00">_parent_type.h</text>
</a>
</g>
</g>
<!-- Node2 -->
<g id="Node000002" class="node">
<title>Node2</title>
<g id="a_Node000002"><a xlink:title=" ">
<polygon fill="#e0e0e0" stroke="#999999" points="467.64,-19 423.64,-19 423.64,0 467.64,0 467.64,-19"/>
<text text-anchor="middle" x="445.64" y="-7" font-family="Helvetica,sans-Serif" font-size="10.00">string</text>
</a>
</g>
</g>
<!-- Node1&#45;&gt;Node2 -->
<g id="edge1_Node000001_Node000002" class="edge">
<title>Node1&#45;&gt;Node2</title>
<g id="a_edge1_Node000001_Node000002"><a xlink:title=" ">
<path fill="none" stroke="#63b8ff" d="M232.11,-219.93C129.11,-194.38 -55.91,-135.46 16.64,-55 43.1,-25.65 317.67,-14.44 413.14,-11.42"/>
<polygon fill="#63b8ff" stroke="#63b8ff" points="413.46,-14.91 423.35,-11.1 413.25,-7.91 413.46,-14.91"/>
</a>
</g>
</g>
<!-- Node3 -->
<g id="Node000003" class="node">
<title>Node3</title>
<g id="a_Node000003"><a xlink:href="../../dd/d2d/exception_8h.html" target="_top" xlink:title=" ">
<polygon fill="white" stroke="#666666" points="355.14,-129 236.14,-129 236.14,-110 355.14,-110 355.14,-129"/>
<text text-anchor="middle" x="295.64" y="-117" font-family="Helvetica,sans-Serif" font-size="10.00">common/exception.h</text>
</a>
</g>
</g>
<!-- Node1&#45;&gt;Node3 -->
<g id="edge2_Node000001_Node000003" class="edge">
<title>Node1&#45;&gt;Node3</title>
<g id="a_edge2_Node000001_Node000003"><a xlink:title=" ">
<path fill="none" stroke="#63b8ff" d="M295.64,-219.63C295.64,-199.21 295.64,-161.81 295.64,-139.24"/>
<polygon fill="#63b8ff" stroke="#63b8ff" points="299.14,-139.23 295.64,-129.23 292.14,-139.23 299.14,-139.23"/>
</a>
</g>
</g>
<!-- Node13 -->
<g id="Node000013" class="node">
<title>Node13</title>
<g id="a_Node000013"><a xlink:href="../../d4/d5c/numeric__type_8h.html" target="_top" xlink:title=" ">
<polygon fill="white" stroke="#666666" points="673.14,-184 556.14,-184 556.14,-165 673.14,-165 673.14,-184"/>
<text text-anchor="middle" x="614.64" y="-172" font-family="Helvetica,sans-Serif" font-size="10.00">type/numeric_type.h</text>
</a>
</g>
</g>
<!-- Node1&#45;&gt;Node13 -->
<g id="edge14_Node000001_Node000013" class="edge">
<title>Node1&#45;&gt;Node13</title>
<g id="a_edge14_Node000001_Node000013"><a xlink:title=" ">
<path fill="none" stroke="#63b8ff" d="M361.35,-221.95C419.38,-211.31 503.11,-195.95 558.18,-185.85"/>
<polygon fill="#63b8ff" stroke="#63b8ff" points="558.92,-189.28 568.12,-184.03 557.65,-182.39 558.92,-189.28"/>
</a>
</g>
</g>
<!-- Node3&#45;&gt;Node2 -->
<g id="edge9_Node000003_Node000002" class="edge">
<title>Node3&#45;&gt;Node2</title>
<g id="a_edge9_Node000003_Node000002"><a xlink:title=" ">
<path fill="none" stroke="#63b8ff" d="M314.68,-109.88C331.83,-101.72 357.4,-88.58 377.64,-74 397.39,-59.77 417.46,-40.29 430.62,-26.67"/>
<polygon fill="#63b8ff" stroke="#63b8ff" points="433.51,-28.7 437.86,-19.04 428.43,-23.88 433.51,-28.7"/>
</a>
</g>
</g>
<!-- Node4 -->
<g id="Node000004" class="node">
<title>Node4</title>
<g id="a_Node000004"><a xlink:title=" ">
<polygon fill="#e0e0e0" stroke="#999999" points="75.64,-74 25.64,-74 25.64,-55 75.64,-55 75.64,-74"/>
<text text-anchor="middle" x="50.64" y="-62" font-family="Helvetica,sans-Serif" font-size="10.00">atomic</text>
</a>
</g>
</g>
<!-- Node3&#45;&gt;Node4 -->
<g id="edge3_Node000003_Node000004" class="edge">
<title>Node3&#45;&gt;Node4</title>
<g id="a_edge3_Node000003_Node000004"><a xlink:title=" ">
<path fill="none" stroke="#63b8ff" d="M252.7,-109.93C212.08,-101.71 149.16,-88.71 85.65,-74.17"/>
<polygon fill="#63b8ff" stroke="#63b8ff" points="86.39,-70.75 75.86,-71.92 84.82,-77.57 86.39,-70.75"/>
</a>
</g>
</g>
<!-- Node5 -->
<g id="Node000005" class="node">
<title>Node5</title>
<g id="a_Node000005"><a xlink:title=" ">
<polygon fill="#e0e0e0" stroke="#999999" points="139.64,-74 93.64,-74 93.64,-55 139.64,-55 139.64,-74"/>
<text text-anchor="middle" x="116.64" y="-62" font-family="Helvetica,sans-Serif" font-size="10.00">cstdio</text>
</a>
</g>
</g>
<!-- Node3&#45;&gt;Node5 -->
<g id="edge4_Node000003_Node000005" class="edge">
<title>Node3&#45;&gt;Node5</title>
<g id="a_edge4_Node000003_Node000005"><a xlink:title=" ">
<path fill="none" stroke="#63b8ff" d="M266.88,-109.98C234.9,-100.52 183.35,-85.25 149.73,-75.3"/>
<polygon fill="#63b8ff" stroke="#63b8ff" points="150.49,-71.87 139.91,-72.39 148.5,-78.59 150.49,-71.87"/>
</a>
</g>
</g>
<!-- Node6 -->
<g id="Node000006" class="node">
<title>Node6</title>
<g id="a_Node000006"><a xlink:title=" ">
<polygon fill="#e0e0e0" stroke="#999999" points="207.14,-74 158.14,-74 158.14,-55 207.14,-55 207.14,-74"/>
<text text-anchor="middle" x="182.64" y="-62" font-family="Helvetica,sans-Serif" font-size="10.00">cstdlib</text>
</a>
</g>
</g>
<!-- Node3&#45;&gt;Node6 -->
<g id="edge5_Node000003_Node000006" class="edge">
<title>Node3&#45;&gt;Node6</title>
<g id="a_edge5_Node000003_Node000006"><a xlink:title=" ">
<path fill="none" stroke="#63b8ff" d="M277.48,-109.98C259.39,-101.5 231.35,-88.35 210.45,-78.54"/>
<polygon fill="#63b8ff" stroke="#63b8ff" points="211.66,-75.25 201.12,-74.17 208.69,-81.59 211.66,-75.25"/>
</a>
</g>
</g>
<!-- Node7 -->
<g id="Node000007" class="node">
<title>Node7</title>
<g id="a_Node000007"><a xlink:title=" ">
<polygon fill="#e0e0e0" stroke="#999999" points="285.64,-74 225.64,-74 225.64,-55 285.64,-55 285.64,-74"/>
<text text-anchor="middle" x="255.64" y="-62" font-family="Helvetica,sans-Serif" font-size="10.00">iostream</text>
</a>
</g>
</g>
<!-- Node3&#45;&gt;Node7 -->
<g id="edge6_Node000003_Node000007" class="edge">
<title>Node3&#45;&gt;Node7</title>
<g id="a_edge6_Node000003_Node000007"><a xlink:title=" ">
<path fill="none" stroke="#63b8ff" d="M289.03,-109.75C283.38,-102.26 275.09,-91.28 268.19,-82.13"/>
<polygon fill="#63b8ff" stroke="#63b8ff" points="270.94,-79.96 262.12,-74.09 265.35,-84.18 270.94,-79.96"/>
</a>
</g>
</g>
<!-- Node8 -->
<g id="Node000008" class="node">
<title>Node8</title>
<g id="a_Node000008"><a xlink:title=" ">
<polygon fill="#e0e0e0" stroke="#999999" points="483.64,-74 425.64,-74 425.64,-55 483.64,-55 483.64,-74"/>
<text text-anchor="middle" x="454.64" y="-62" font-family="Helvetica,sans-Serif" font-size="10.00">memory</text>
</a>
</g>
</g>
<!-- Node3&#45;&gt;Node8 -->
<g id="edge7_Node000003_Node000008" class="edge">
<title>Node3&#45;&gt;Node8</title>
<g id="a_edge7_Node000003_Node000008"><a xlink:title=" ">
<path fill="none" stroke="#63b8ff" d="M321.18,-109.98C347.76,-101.13 389.57,-87.19 419.31,-77.28"/>
<polygon fill="#63b8ff" stroke="#63b8ff" points="420.51,-80.56 428.89,-74.08 418.3,-73.92 420.51,-80.56"/>
</a>
</g>
</g>
<!-- Node9 -->
<g id="Node000009" class="node">
<title>Node9</title>
<g id="a_Node000009"><a xlink:title=" ">
<polygon fill="#e0e0e0" stroke="#999999" points="369.14,-74 304.14,-74 304.14,-55 369.14,-55 369.14,-74"/>
<text text-anchor="middle" x="336.64" y="-62" font-family="Helvetica,sans-Serif" font-size="10.00">stdexcept</text>
</a>
</g>
</g>
<!-- Node3&#45;&gt;Node9 -->
<g id="edge8_Node000003_Node000009" class="edge">
<title>Node3&#45;&gt;Node9</title>
<g id="a_edge8_Node000003_Node000009"><a xlink:title=" ">
<path fill="none" stroke="#63b8ff" d="M302.41,-109.75C308.2,-102.26 316.7,-91.28 323.77,-82.13"/>
<polygon fill="#63b8ff" stroke="#63b8ff" points="326.64,-84.14 329.99,-74.09 321.11,-79.86 326.64,-84.14"/>
</a>
</g>
</g>
<!-- Node10 -->
<g id="Node000010" class="node">
<title>Node10</title>
<g id="a_Node000010"><a xlink:href="../../df/def/type_8h.html" target="_top" xlink:title=" ">
<polygon fill="white" stroke="#666666" points="611.64,-74 539.64,-74 539.64,-55 611.64,-55 611.64,-74"/>
<text text-anchor="middle" x="575.64" y="-62" font-family="Helvetica,sans-Serif" font-size="10.00">type/type.h</text>
</a>
</g>
</g>
<!-- Node3&#45;&gt;Node10 -->
<g id="edge10_Node000003_Node000010" class="edge">
<title>Node3&#45;&gt;Node10</title>
<g id="a_edge10_Node000003_Node000010"><a xlink:title=" ">
<path fill="none" stroke="#63b8ff" d="M340.62,-109.98C392.36,-100.19 476.88,-84.19 529.22,-74.29"/>
<polygon fill="#63b8ff" stroke="#63b8ff" points="530.06,-77.69 539.24,-72.39 528.76,-70.81 530.06,-77.69"/>
</a>
</g>
</g>
<!-- Node10&#45;&gt;Node2 -->
<g id="edge12_Node000010_Node000002" class="edge">
<title>Node10&#45;&gt;Node2</title>
<g id="a_edge12_Node000010_Node000002"><a xlink:title=" ">
<path fill="none" stroke="#63b8ff" d="M554.75,-54.98C533.55,-46.34 500.51,-32.87 476.34,-23.02"/>
<polygon fill="#63b8ff" stroke="#63b8ff" points="477.49,-19.7 466.9,-19.17 474.84,-26.19 477.49,-19.7"/>
</a>
</g>
</g>
<!-- Node11 -->
<g id="Node000011" class="node">
<title>Node11</title>
<g id="a_Node000011"><a xlink:title=" ">
<polygon fill="#e0e0e0" stroke="#999999" points="739.64,-19 689.64,-19 689.64,0 739.64,0 739.64,-19"/>
<text text-anchor="middle" x="714.64" y="-7" font-family="Helvetica,sans-Serif" font-size="10.00">cstdint</text>
</a>
</g>
</g>
<!-- Node10&#45;&gt;Node11 -->
<g id="edge11_Node000010_Node000011" class="edge">
<title>Node10&#45;&gt;Node11</title>
<g id="a_edge11_Node000010_Node000011"><a xlink:title=" ">
<path fill="none" stroke="#63b8ff" d="M597.97,-54.98C620.83,-46.27 656.59,-32.63 682.5,-22.75"/>
<polygon fill="#63b8ff" stroke="#63b8ff" points="683.8,-26 691.9,-19.17 681.31,-19.46 683.8,-26"/>
</a>
</g>
</g>
<!-- Node12 -->
<g id="Node000012" class="node">
<title>Node12</title>
<g id="a_Node000012"><a xlink:href="../../dc/df2/type__id_8h.html" target="_top" xlink:title=" ">
<polygon fill="white" stroke="#666666" points="618.64,-19 532.64,-19 532.64,0 618.64,0 618.64,-19"/>
<text text-anchor="middle" x="575.64" y="-7" font-family="Helvetica,sans-Serif" font-size="10.00">type/type_id.h</text>
</a>
</g>
</g>
<!-- Node10&#45;&gt;Node12 -->
<g id="edge13_Node000010_Node000012" class="edge">
<title>Node10&#45;&gt;Node12</title>
<g id="a_edge13_Node000010_Node000012"><a xlink:title=" ">
<path fill="none" stroke="#63b8ff" d="M575.64,-54.75C575.64,-47.8 575.64,-37.85 575.64,-29.13"/>
<polygon fill="#63b8ff" stroke="#63b8ff" points="579.14,-29.09 575.64,-19.09 572.14,-29.09 579.14,-29.09"/>
</a>
</g>
</g>
<!-- Node14 -->
<g id="Node000014" class="node">
<title>Node14</title>
<g id="a_Node000014"><a xlink:title=" ">
<polygon fill="#e0e0e0" stroke="#999999" points="718.14,-129 671.14,-129 671.14,-110 718.14,-110 718.14,-129"/>
<text text-anchor="middle" x="694.64" y="-117" font-family="Helvetica,sans-Serif" font-size="10.00">cmath</text>
</a>
</g>
</g>
<!-- Node13&#45;&gt;Node14 -->
<g id="edge15_Node000013_Node000014" class="edge">
<title>Node13&#45;&gt;Node14</title>
<g id="a_edge15_Node000013_Node000014"><a xlink:title=" ">
<path fill="none" stroke="#63b8ff" d="M627.49,-164.98C639.78,-156.84 658.54,-144.41 673.11,-134.76"/>
<polygon fill="#63b8ff" stroke="#63b8ff" points="675.15,-137.61 681.55,-129.17 671.28,-131.78 675.15,-137.61"/>
</a>
</g>
</g>
<!-- Node15 -->
<g id="Node000015" class="node">
<title>Node15</title>
<g id="a_Node000015"><a xlink:href="../../d4/d3f/value_8h.html" target="_top" xlink:title=" ">
<polygon fill="white" stroke="#666666" points="653.14,-129 576.14,-129 576.14,-110 653.14,-110 653.14,-129"/>
<text text-anchor="middle" x="614.64" y="-117" font-family="Helvetica,sans-Serif" font-size="10.00">type/value.h</text>
</a>
</g>
</g>
<!-- Node13&#45;&gt;Node15 -->
<g id="edge16_Node000013_Node000015" class="edge">
<title>Node13&#45;&gt;Node15</title>
<g id="a_edge16_Node000013_Node000015"><a xlink:title=" ">
<path fill="none" stroke="#63b8ff" d="M614.64,-164.75C614.64,-157.8 614.64,-147.85 614.64,-139.13"/>
<polygon fill="#63b8ff" stroke="#63b8ff" points="618.14,-139.09 614.64,-129.09 611.14,-139.09 618.14,-139.09"/>
</a>
</g>
</g>
<!-- Node15&#45;&gt;Node2 -->
<g id="edge19_Node000015_Node000002" class="edge">
<title>Node15&#45;&gt;Node2</title>
<g id="a_edge19_Node000015_Node000002"><a xlink:title=" ">
<path fill="none" stroke="#63b8ff" d="M596.49,-109.9C579.16,-101.46 552.53,-87.86 530.64,-74 506.65,-58.81 480.73,-38.89 463.91,-25.45"/>
<polygon fill="#63b8ff" stroke="#63b8ff" points="465.98,-22.62 456,-19.07 461.58,-28.07 465.98,-22.62"/>
</a>
</g>
</g>
<!-- Node15&#45;&gt;Node8 -->
<g id="edge18_Node000015_Node000008" class="edge">
<title>Node15&#45;&gt;Node8</title>
<g id="a_edge18_Node000015_Node000008"><a xlink:title=" ">
<path fill="none" stroke="#63b8ff" d="M588.93,-109.98C562.18,-101.13 520.11,-87.19 490.19,-77.28"/>
<polygon fill="#63b8ff" stroke="#63b8ff" points="491.14,-73.9 480.55,-74.08 488.94,-80.55 491.14,-73.9"/>
</a>
</g>
</g>
<!-- Node15&#45;&gt;Node10 -->
<g id="edge27_Node000015_Node000010" class="edge">
<title>Node15&#45;&gt;Node10</title>
<g id="a_edge27_Node000015_Node000010"><a xlink:title=" ">
<path fill="none" stroke="#63b8ff" d="M608.2,-109.75C602.75,-102.34 594.77,-91.5 588.08,-82.41"/>
<polygon fill="#63b8ff" stroke="#63b8ff" points="590.7,-80.07 581.96,-74.09 585.07,-84.22 590.7,-80.07"/>
</a>
</g>
</g>
<!-- Node16 -->
<g id="Node000016" class="node">
<title>Node16</title>
<g id="a_Node000016"><a xlink:title=" ">
<polygon fill="#e0e0e0" stroke="#999999" points="679.64,-74 629.64,-74 629.64,-55 679.64,-55 679.64,-74"/>
<text text-anchor="middle" x="654.64" y="-62" font-family="Helvetica,sans-Serif" font-size="10.00">cstring</text>
</a>
</g>
</g>
<!-- Node15&#45;&gt;Node16 -->
<g id="edge17_Node000015_Node000016" class="edge">
<title>Node15&#45;&gt;Node16</title>
<g id="a_edge17_Node000015_Node000016"><a xlink:title=" ">
<path fill="none" stroke="#63b8ff" d="M621.24,-109.75C626.89,-102.26 635.18,-91.28 642.09,-82.13"/>
<polygon fill="#63b8ff" stroke="#63b8ff" points="644.92,-84.18 648.15,-74.09 639.34,-79.96 644.92,-84.18"/>
</a>
</g>
</g>
<!-- Node17 -->
<g id="Node000017" class="node">
<title>Node17</title>
<g id="a_Node000017"><a xlink:title=" ">
<polygon fill="#e0e0e0" stroke="#999999" points="743.14,-74 698.14,-74 698.14,-55 743.14,-55 743.14,-74"/>
<text text-anchor="middle" x="720.64" y="-62" font-family="Helvetica,sans-Serif" font-size="10.00">utility</text>
</a>
</g>
</g>
<!-- Node15&#45;&gt;Node17 -->
<g id="edge20_Node000015_Node000017" class="edge">
<title>Node15&#45;&gt;Node17</title>
<g id="a_edge20_Node000015_Node000017"><a xlink:title=" ">
<path fill="none" stroke="#63b8ff" d="M631.67,-109.98C648.57,-101.54 674.7,-88.47 694.28,-78.68"/>
<polygon fill="#63b8ff" stroke="#63b8ff" points="695.92,-81.77 703.3,-74.17 692.79,-75.51 695.92,-81.77"/>
</a>
</g>
</g>
<!-- Node18 -->
<g id="Node000018" class="node">
<title>Node18</title>
<g id="a_Node000018"><a xlink:title=" ">
<polygon fill="#e0e0e0" stroke="#999999" points="840.14,-74 761.14,-74 761.14,-55 840.14,-55 840.14,-74"/>
<text text-anchor="middle" x="800.64" y="-62" font-family="Helvetica,sans-Serif" font-size="10.00">fmt/format.h</text>
</a>
</g>
</g>
<!-- Node15&#45;&gt;Node18 -->
<g id="edge21_Node000015_Node000018" class="edge">
<title>Node15&#45;&gt;Node18</title>
<g id="a_edge21_Node000015_Node000018"><a xlink:title=" ">
<path fill="none" stroke="#63b8ff" d="M644.52,-109.98C676.02,-101.01 725.81,-86.82 760.66,-76.89"/>
<polygon fill="#63b8ff" stroke="#63b8ff" points="761.86,-80.19 770.52,-74.08 759.94,-73.46 761.86,-80.19"/>
</a>
</g>
</g>
<!-- Node19 -->
<g id="Node000019" class="node">
<title>Node19</title>
<g id="a_Node000019"><a xlink:href="../../d9/d86/limits_8h.html" target="_top" xlink:title=" ">
<polygon fill="white" stroke="#666666" points="936.64,-74 858.64,-74 858.64,-55 936.64,-55 936.64,-74"/>
<text text-anchor="middle" x="897.64" y="-62" font-family="Helvetica,sans-Serif" font-size="10.00">type/limits.h</text>
</a>
</g>
</g>
<!-- Node15&#45;&gt;Node19 -->
<g id="edge22_Node000015_Node000019" class="edge">
<title>Node15&#45;&gt;Node19</title>
<g id="a_edge22_Node000015_Node000019"><a xlink:title=" ">
<path fill="none" stroke="#63b8ff" d="M653.39,-111.24C704.13,-101.74 793.09,-85.08 848.5,-74.7"/>
<polygon fill="#63b8ff" stroke="#63b8ff" points="849.26,-78.12 858.44,-72.84 847.97,-71.24 849.26,-78.12"/>
</a>
</g>
</g>
<!-- Node19&#45;&gt;Node11 -->
<g id="edge25_Node000019_Node000011" class="edge">
<title>Node19&#45;&gt;Node11</title>
<g id="a_edge25_Node000019_Node000011"><a xlink:title=" ">
<path fill="none" stroke="#63b8ff" d="M868.24,-54.98C835.87,-45.61 783.87,-30.55 749.48,-20.59"/>
<polygon fill="#63b8ff" stroke="#63b8ff" points="750.42,-17.22 739.84,-17.8 748.47,-23.94 750.42,-17.22"/>
</a>
</g>
</g>
<!-- Node20 -->
<g id="Node000020" class="node">
<title>Node20</title>
<g id="a_Node000020"><a xlink:title=" ">
<polygon fill="#e0e0e0" stroke="#999999" points="854.64,-19 810.64,-19 810.64,0 854.64,0 854.64,-19"/>
<text text-anchor="middle" x="832.64" y="-7" font-family="Helvetica,sans-Serif" font-size="10.00">cfloat</text>
</a>
</g>
</g>
<!-- Node19&#45;&gt;Node20 -->
<g id="edge23_Node000019_Node000020" class="edge">
<title>Node19&#45;&gt;Node20</title>
<g id="a_edge23_Node000019_Node000020"><a xlink:title=" ">
<path fill="none" stroke="#63b8ff" d="M887.19,-54.98C877.49,-47.07 862.82,-35.11 851.14,-25.58"/>
<polygon fill="#63b8ff" stroke="#63b8ff" points="853.23,-22.78 843.27,-19.17 848.81,-28.2 853.23,-22.78"/>
</a>
</g>
</g>
<!-- Node21 -->
<g id="Node000021" class="node">
<title>Node21</title>
<g id="a_Node000021"><a xlink:title=" ">
<polygon fill="#e0e0e0" stroke="#999999" points="922.64,-19 872.64,-19 872.64,0 922.64,0 922.64,-19"/>
<text text-anchor="middle" x="897.64" y="-7" font-family="Helvetica,sans-Serif" font-size="10.00">climits</text>
</a>
</g>
</g>
<!-- Node19&#45;&gt;Node21 -->
<g id="edge24_Node000019_Node000021" class="edge">
<title>Node19&#45;&gt;Node21</title>
<g id="a_edge24_Node000019_Node000021"><a xlink:title=" ">
<path fill="none" stroke="#63b8ff" d="M897.64,-54.75C897.64,-47.8 897.64,-37.85 897.64,-29.13"/>
<polygon fill="#63b8ff" stroke="#63b8ff" points="901.14,-29.09 897.64,-19.09 894.14,-29.09 901.14,-29.09"/>
</a>
</g>
</g>
<!-- Node22 -->
<g id="Node000022" class="node">
<title>Node22</title>
<g id="a_Node000022"><a xlink:title=" ">
<polygon fill="#e0e0e0" stroke="#999999" points="984.64,-19 940.64,-19 940.64,0 984.64,0 984.64,-19"/>
<text text-anchor="middle" x="962.64" y="-7" font-family="Helvetica,sans-Serif" font-size="10.00">limits</text>
</a>
</g>
</g>
<!-- Node19&#45;&gt;Node22 -->
<g id="edge26_Node000019_Node000022" class="edge">
<title>Node19&#45;&gt;Node22</title>
<g id="a_edge26_Node000019_Node000022"><a xlink:title=" ">
<path fill="none" stroke="#63b8ff" d="M908.08,-54.98C917.78,-47.07 932.45,-35.11 944.14,-25.58"/>
<polygon fill="#63b8ff" stroke="#63b8ff" points="946.47,-28.2 952,-19.17 942.04,-22.78 946.47,-28.2"/>
</a>
</g>
</g>
</g>
</svg>
