<?xml version="1.0" encoding="UTF-8" standalone="no"?>
<!DOCTYPE svg PUBLIC "-//W3C//DTD SVG 1.1//EN"
 "http://www.w3.org/Graphics/SVG/1.1/DTD/svg11.dtd">
<!-- Generated by graphviz version 2.43.0 (0)
 -->
<!-- Title: src/include/execution/plans/nested_index_join_plan.h Pages: 1 -->
<svg width="344pt" height="192pt"
 viewBox="0.00 0.00 344.00 192.00" xmlns="http://www.w3.org/2000/svg" xmlns:xlink="http://www.w3.org/1999/xlink">
<g id="graph0" class="graph" transform="scale(1 1) rotate(0) translate(4 188)">
<title>src/include/execution/plans/nested_index_join_plan.h</title>
<!-- Node1 -->
<g id="Node000001" class="node">
<title>Node1</title>
<g id="a_Node000001"><a xlink:title=" ">
<polygon fill="#999999" stroke="#666666" points="277.5,-184 140.5,-184 140.5,-143 277.5,-143 277.5,-184"/>
<text text-anchor="start" x="148.5" y="-172" font-family="Helvetica,sans-Serif" font-size="10.00">src/include/execution</text>
<text text-anchor="start" x="148.5" y="-161" font-family="Helvetica,sans-Serif" font-size="10.00">/plans/nested_index_join</text>
<text text-anchor="middle" x="209" y="-150" font-family="Helvetica,sans-Serif" font-size="10.00">_plan.h</text>
</a>
</g>
</g>
<!-- Node2 -->
<g id="Node000002" class="node">
<title>Node2</title>
<g id="a_Node000002"><a xlink:href="../../d7/dc2/nested__index__join__executor_8h.html" target="_top" xlink:title=" ">
<polygon fill="white" stroke="#666666" points="205.5,-107 70.5,-107 70.5,-66 205.5,-66 205.5,-107"/>
<text text-anchor="start" x="78.5" y="-95" font-family="Helvetica,sans-Serif" font-size="10.00">src/include/execution</text>
<text text-anchor="start" x="78.5" y="-84" font-family="Helvetica,sans-Serif" font-size="10.00">/executors/nested_index</text>
<text text-anchor="middle" x="138" y="-73" font-family="Helvetica,sans-Serif" font-size="10.00">_join_executor.h</text>
</a>
</g>
</g>
<!-- Node1&#45;&gt;Node2 -->
<g id="edge1_Node000001_Node000002" class="edge">
<title>Node1&#45;&gt;Node2</title>
<g id="a_edge1_Node000001_Node000002"><a xlink:title=" ">
<path fill="none" stroke="#63b8ff" d="M183.45,-135.51C174.55,-126.11 164.75,-115.76 156.53,-107.07"/>
<polygon fill="#63b8ff" stroke="#63b8ff" points="180.93,-137.94 190.35,-142.79 186.01,-133.13 180.93,-137.94"/>
</a>
</g>
</g>
<!-- Node5 -->
<g id="Node000005" class="node">
<title>Node5</title>
<g id="a_Node000005"><a xlink:href="../../d0/de1/nlj__as__index__join_8cpp.html" target="_top" xlink:title=" ">
<polygon fill="white" stroke="#666666" points="336,-101.5 224,-101.5 224,-71.5 336,-71.5 336,-101.5"/>
<text text-anchor="start" x="232" y="-89.5" font-family="Helvetica,sans-Serif" font-size="10.00">src/optimizer/nlj_as</text>
<text text-anchor="middle" x="280" y="-78.5" font-family="Helvetica,sans-Serif" font-size="10.00">_index_join.cpp</text>
</a>
</g>
</g>
<!-- Node1&#45;&gt;Node5 -->
<g id="edge4_Node000001_Node000005" class="edge">
<title>Node1&#45;&gt;Node5</title>
<g id="a_edge4_Node000001_Node000005"><a xlink:title=" ">
<path fill="none" stroke="#63b8ff" d="M234.8,-135.24C245.5,-123.94 257.47,-111.3 266.4,-101.86"/>
<polygon fill="#63b8ff" stroke="#63b8ff" points="231.99,-133.13 227.65,-142.79 237.07,-137.94 231.99,-133.13"/>
</a>
</g>
</g>
<!-- Node3 -->
<g id="Node000003" class="node">
<title>Node3</title>
<g id="a_Node000003"><a xlink:href="../../d3/d3e/executor__factory_8cpp.html" target="_top" xlink:title=" ">
<polygon fill="white" stroke="#666666" points="126,-30 0,-30 0,0 126,0 126,-30"/>
<text text-anchor="start" x="8" y="-18" font-family="Helvetica,sans-Serif" font-size="10.00">src/execution/executor</text>
<text text-anchor="middle" x="63" y="-7" font-family="Helvetica,sans-Serif" font-size="10.00">_factory.cpp</text>
</a>
</g>
</g>
<!-- Node2&#45;&gt;Node3 -->
<g id="edge2_Node000002_Node000003" class="edge">
<title>Node2&#45;&gt;Node3</title>
<g id="a_edge2_Node000002_Node000003"><a xlink:title=" ">
<path fill="none" stroke="#63b8ff" d="M109.22,-58.83C98.64,-49.02 87.07,-38.3 78.15,-30.04"/>
<polygon fill="#63b8ff" stroke="#63b8ff" points="106.99,-61.54 116.71,-65.77 111.75,-56.41 106.99,-61.54"/>
</a>
</g>
</g>
<!-- Node4 -->
<g id="Node000004" class="node">
<title>Node4</title>
<g id="a_Node000004"><a xlink:href="../../d5/dbd/nested__index__join__executor_8cpp.html" target="_top" xlink:title=" ">
<polygon fill="white" stroke="#666666" points="283.5,-30 144.5,-30 144.5,0 283.5,0 283.5,-30"/>
<text text-anchor="start" x="152.5" y="-18" font-family="Helvetica,sans-Serif" font-size="10.00">src/execution/nested</text>
<text text-anchor="middle" x="214" y="-7" font-family="Helvetica,sans-Serif" font-size="10.00">_index_join_executor.cpp</text>
</a>
</g>
</g>
<!-- Node2&#45;&gt;Node4 -->
<g id="edge3_Node000002_Node000004" class="edge">
<title>Node2&#45;&gt;Node4</title>
<g id="a_edge3_Node000002_Node000004"><a xlink:title=" ">
<path fill="none" stroke="#63b8ff" d="M167.16,-58.83C177.89,-49.02 189.61,-38.3 198.65,-30.04"/>
<polygon fill="#63b8ff" stroke="#63b8ff" points="164.59,-56.44 159.58,-65.77 169.32,-61.6 164.59,-56.44"/>
</a>
</g>
</g>
</g>
</svg>
