<?xml version="1.0" encoding="UTF-8" standalone="no"?>
<!DOCTYPE svg PUBLIC "-//W3C//DTD SVG 1.1//EN"
 "http://www.w3.org/Graphics/SVG/1.1/DTD/svg11.dtd">
<!-- Generated by graphviz version 2.43.0 (0)
 -->
<!-- Title: src/include/binder/expressions/bound_constant.h Pages: 1 -->
<svg width="1295pt" height="104pt"
 viewBox="0.00 0.00 1295.00 104.00" xmlns="http://www.w3.org/2000/svg" xmlns:xlink="http://www.w3.org/1999/xlink">
<g id="graph0" class="graph" transform="scale(1 1) rotate(0) translate(4 100)">
<title>src/include/binder/expressions/bound_constant.h</title>
<!-- Node1 -->
<g id="Node000001" class="node">
<title>Node1</title>
<g id="a_Node000001"><a xlink:title=" ">
<polygon fill="#999999" stroke="#666666" points="726,-96 559,-96 559,-66 726,-66 726,-96"/>
<text text-anchor="start" x="567" y="-84" font-family="Helvetica,sans-Serif" font-size="10.00">src/include/binder</text>
<text text-anchor="middle" x="642.5" y="-73" font-family="Helvetica,sans-Serif" font-size="10.00">/expressions/bound_constant.h</text>
</a>
</g>
</g>
<!-- Node2 -->
<g id="Node000002" class="node">
<title>Node2</title>
<g id="a_Node000002"><a xlink:href="../../db/d4b/bind__create_8cpp.html" target="_top" xlink:title=" ">
<polygon fill="white" stroke="#666666" points="145,-24.5 0,-24.5 0,-5.5 145,-5.5 145,-24.5"/>
<text text-anchor="middle" x="72.5" y="-12.5" font-family="Helvetica,sans-Serif" font-size="10.00">src/binder/bind_create.cpp</text>
</a>
</g>
</g>
<!-- Node1&#45;&gt;Node2 -->
<g id="edge1_Node000001_Node000002" class="edge">
<title>Node1&#45;&gt;Node2</title>
<g id="a_edge1_Node000001_Node000002"><a xlink:title=" ">
<path fill="none" stroke="#63b8ff" d="M548.76,-72.27C450.34,-63.72 291.22,-48.65 154.5,-30 143.05,-28.44 130.75,-26.49 119.25,-24.54"/>
<polygon fill="#63b8ff" stroke="#63b8ff" points="548.71,-75.78 558.97,-73.16 549.31,-68.81 548.71,-75.78"/>
</a>
</g>
</g>
<!-- Node3 -->
<g id="Node000003" class="node">
<title>Node3</title>
<g id="a_Node000003"><a xlink:href="../../d9/d88/bind__insert_8cpp.html" target="_top" xlink:title=" ">
<polygon fill="white" stroke="#666666" points="305.5,-24.5 163.5,-24.5 163.5,-5.5 305.5,-5.5 305.5,-24.5"/>
<text text-anchor="middle" x="234.5" y="-12.5" font-family="Helvetica,sans-Serif" font-size="10.00">src/binder/bind_insert.cpp</text>
</a>
</g>
</g>
<!-- Node1&#45;&gt;Node3 -->
<g id="edge2_Node000001_Node000003" class="edge">
<title>Node1&#45;&gt;Node3</title>
<g id="a_edge2_Node000001_Node000003"><a xlink:title=" ">
<path fill="none" stroke="#63b8ff" d="M548.92,-66.29C483.26,-56.54 393.44,-42.92 314.5,-30 304.06,-28.29 292.88,-26.38 282.27,-24.54"/>
<polygon fill="#63b8ff" stroke="#63b8ff" points="548.43,-69.76 558.84,-67.76 549.46,-62.83 548.43,-69.76"/>
</a>
</g>
</g>
<!-- Node4 -->
<g id="Node000004" class="node">
<title>Node4</title>
<g id="a_Node000004"><a xlink:href="../../d7/d35/bind__select_8cpp.html" target="_top" xlink:title=" ">
<polygon fill="white" stroke="#666666" points="467,-24.5 324,-24.5 324,-5.5 467,-5.5 467,-24.5"/>
<text text-anchor="middle" x="395.5" y="-12.5" font-family="Helvetica,sans-Serif" font-size="10.00">src/binder/bind_select.cpp</text>
</a>
</g>
</g>
<!-- Node1&#45;&gt;Node4 -->
<g id="edge3_Node000001_Node000004" class="edge">
<title>Node1&#45;&gt;Node4</title>
<g id="a_edge3_Node000001_Node000004"><a xlink:title=" ">
<path fill="none" stroke="#63b8ff" d="M578.6,-63.44C530.51,-50.98 466.57,-34.42 428.37,-24.52"/>
<polygon fill="#63b8ff" stroke="#63b8ff" points="577.74,-66.83 588.29,-65.95 579.49,-60.06 577.74,-66.83"/>
</a>
</g>
</g>
<!-- Node5 -->
<g id="Node000005" class="node">
<title>Node5</title>
<g id="a_Node000005"><a xlink:href="../../db/db0/bind__variable_8cpp.html" target="_top" xlink:title=" ">
<polygon fill="white" stroke="#666666" points="639.5,-24.5 485.5,-24.5 485.5,-5.5 639.5,-5.5 639.5,-24.5"/>
<text text-anchor="middle" x="562.5" y="-12.5" font-family="Helvetica,sans-Serif" font-size="10.00">src/binder/bind_variable.cpp</text>
</a>
</g>
</g>
<!-- Node1&#45;&gt;Node5 -->
<g id="edge4_Node000001_Node000005" class="edge">
<title>Node1&#45;&gt;Node5</title>
<g id="a_edge4_Node000001_Node000005"><a xlink:title=" ">
<path fill="none" stroke="#63b8ff" d="M616.57,-59.26C602.02,-47.61 584.61,-33.69 573.56,-24.84"/>
<polygon fill="#63b8ff" stroke="#63b8ff" points="614.75,-62.28 624.75,-65.8 619.12,-56.82 614.75,-62.28"/>
</a>
</g>
</g>
<!-- Node6 -->
<g id="Node000006" class="node">
<title>Node6</title>
<g id="a_Node000006"><a xlink:href="../../d9/d02/binder_2fmt__impl_8cpp.html" target="_top" xlink:title=" ">
<polygon fill="white" stroke="#666666" points="789.5,-24.5 657.5,-24.5 657.5,-5.5 789.5,-5.5 789.5,-24.5"/>
<text text-anchor="middle" x="723.5" y="-12.5" font-family="Helvetica,sans-Serif" font-size="10.00">src/binder/fmt_impl.cpp</text>
</a>
</g>
</g>
<!-- Node1&#45;&gt;Node6 -->
<g id="edge5_Node000001_Node000006" class="edge">
<title>Node1&#45;&gt;Node6</title>
<g id="a_edge5_Node000001_Node000006"><a xlink:title=" ">
<path fill="none" stroke="#63b8ff" d="M668.34,-59.58C683.16,-47.87 701.01,-33.77 712.31,-24.84"/>
<polygon fill="#63b8ff" stroke="#63b8ff" points="666.15,-56.85 660.48,-65.8 670.49,-62.34 666.15,-56.85"/>
</a>
</g>
</g>
<!-- Node7 -->
<g id="Node000007" class="node">
<title>Node7</title>
<g id="a_Node000007"><a xlink:href="../../d0/d29/plan__expression_8cpp.html" target="_top" xlink:title=" ">
<polygon fill="white" stroke="#666666" points="981,-24.5 808,-24.5 808,-5.5 981,-5.5 981,-24.5"/>
<text text-anchor="middle" x="894.5" y="-12.5" font-family="Helvetica,sans-Serif" font-size="10.00">src/planner/plan_expression.cpp</text>
</a>
</g>
</g>
<!-- Node1&#45;&gt;Node7 -->
<g id="edge6_Node000001_Node000007" class="edge">
<title>Node1&#45;&gt;Node7</title>
<g id="a_edge6_Node000001_Node000007"><a xlink:title=" ">
<path fill="none" stroke="#63b8ff" d="M707.7,-63.44C756.76,-50.98 821.99,-34.42 860.96,-24.52"/>
<polygon fill="#63b8ff" stroke="#63b8ff" points="706.63,-60.1 697.8,-65.95 708.36,-66.89 706.63,-60.1"/>
</a>
</g>
</g>
<!-- Node8 -->
<g id="Node000008" class="node">
<title>Node8</title>
<g id="a_Node000008"><a xlink:href="../../d6/da3/plan__func__call_8cpp.html" target="_top" xlink:title=" ">
<polygon fill="white" stroke="#666666" points="1120,-30 999,-30 999,0 1120,0 1120,-30"/>
<text text-anchor="start" x="1007" y="-18" font-family="Helvetica,sans-Serif" font-size="10.00">src/planner/plan_func</text>
<text text-anchor="middle" x="1059.5" y="-7" font-family="Helvetica,sans-Serif" font-size="10.00">_call.cpp</text>
</a>
</g>
</g>
<!-- Node1&#45;&gt;Node8 -->
<g id="edge7_Node000001_Node000008" class="edge">
<title>Node1&#45;&gt;Node8</title>
<g id="a_edge7_Node000001_Node000008"><a xlink:title=" ">
<path fill="none" stroke="#63b8ff" d="M736.18,-68.03C806.36,-58.69 904.66,-44.86 990.5,-30 993.27,-29.52 996.1,-29.01 998.96,-28.49"/>
<polygon fill="#63b8ff" stroke="#63b8ff" points="735.49,-64.59 726.04,-69.37 736.41,-71.53 735.49,-64.59"/>
</a>
</g>
</g>
<!-- Node9 -->
<g id="Node000009" class="node">
<title>Node9</title>
<g id="a_Node000009"><a xlink:href="../../d9/df0/plan__select_8cpp.html" target="_top" xlink:title=" ">
<polygon fill="white" stroke="#666666" points="1287,-24.5 1138,-24.5 1138,-5.5 1287,-5.5 1287,-24.5"/>
<text text-anchor="middle" x="1212.5" y="-12.5" font-family="Helvetica,sans-Serif" font-size="10.00">src/planner/plan_select.cpp</text>
</a>
</g>
</g>
<!-- Node1&#45;&gt;Node9 -->
<g id="edge8_Node000001_Node000009" class="edge">
<title>Node1&#45;&gt;Node9</title>
<g id="a_edge8_Node000001_Node000009"><a xlink:title=" ">
<path fill="none" stroke="#63b8ff" d="M736.48,-72.17C834.72,-63.56 993.25,-48.47 1129.5,-30 1141.08,-28.43 1153.53,-26.47 1165.18,-24.53"/>
<polygon fill="#63b8ff" stroke="#63b8ff" points="735.94,-68.7 726.28,-73.06 736.55,-75.68 735.94,-68.7"/>
</a>
</g>
</g>
</g>
</svg>
