<?xml version="1.0" encoding="UTF-8" standalone="no"?>
<!DOCTYPE svg PUBLIC "-//W3C//DTD SVG 1.1//EN"
 "http://www.w3.org/Graphics/SVG/1.1/DTD/svg11.dtd">
<!-- Generated by graphviz version 2.43.0 (0)
 -->
<!-- Title: src/storage/disk/disk_manager.cpp Pages: 1 -->
<svg width="1246pt" height="203pt"
 viewBox="0.00 0.00 1245.50 203.00" xmlns="http://www.w3.org/2000/svg" xmlns:xlink="http://www.w3.org/1999/xlink">
<g id="graph0" class="graph" transform="scale(1 1) rotate(0) translate(4 199)">
<title>src/storage/disk/disk_manager.cpp</title>
<!-- Node1 -->
<g id="Node000001" class="node">
<title>Node1</title>
<g id="a_Node000001"><a xlink:title=" ">
<polygon fill="#999999" stroke="#666666" points="367.5,-195 250.5,-195 250.5,-165 367.5,-165 367.5,-195"/>
<text text-anchor="start" x="258.5" y="-183" font-family="Helvetica,sans-Serif" font-size="10.00">src/storage/disk/disk</text>
<text text-anchor="middle" x="309" y="-172" font-family="Helvetica,sans-Serif" font-size="10.00">_manager.cpp</text>
</a>
</g>
</g>
<!-- Node2 -->
<g id="Node000002" class="node">
<title>Node2</title>
<g id="a_Node000002"><a xlink:title=" ">
<polygon fill="#e0e0e0" stroke="#999999" points="64,-129 0,-129 0,-110 64,-110 64,-129"/>
<text text-anchor="middle" x="32" y="-117" font-family="Helvetica,sans-Serif" font-size="10.00">sys/stat.h</text>
</a>
</g>
</g>
<!-- Node1&#45;&gt;Node2 -->
<g id="edge1_Node000001_Node000002" class="edge">
<title>Node1&#45;&gt;Node2</title>
<g id="a_edge1_Node000001_Node000002"><a xlink:title=" ">
<path fill="none" stroke="#63b8ff" d="M250.26,-166.59C197.44,-155.44 121.14,-139.33 74.16,-129.4"/>
<polygon fill="#63b8ff" stroke="#63b8ff" points="74.82,-125.97 64.31,-127.32 73.37,-132.81 74.82,-125.97"/>
</a>
</g>
</g>
<!-- Node3 -->
<g id="Node000003" class="node">
<title>Node3</title>
<g id="a_Node000003"><a xlink:title=" ">
<polygon fill="#e0e0e0" stroke="#999999" points="134,-129 82,-129 82,-110 134,-110 134,-129"/>
<text text-anchor="middle" x="108" y="-117" font-family="Helvetica,sans-Serif" font-size="10.00">cassert</text>
</a>
</g>
</g>
<!-- Node1&#45;&gt;Node3 -->
<g id="edge2_Node000001_Node000003" class="edge">
<title>Node1&#45;&gt;Node3</title>
<g id="a_edge2_Node000001_Node000003"><a xlink:title=" ">
<path fill="none" stroke="#63b8ff" d="M260.86,-164.99C225.01,-154.56 176.85,-140.54 144.23,-131.05"/>
<polygon fill="#63b8ff" stroke="#63b8ff" points="144.81,-127.57 134.23,-128.13 142.85,-134.29 144.81,-127.57"/>
</a>
</g>
</g>
<!-- Node4 -->
<g id="Node000004" class="node">
<title>Node4</title>
<g id="a_Node000004"><a xlink:title=" ">
<polygon fill="#e0e0e0" stroke="#999999" points="202,-129 152,-129 152,-110 202,-110 202,-129"/>
<text text-anchor="middle" x="177" y="-117" font-family="Helvetica,sans-Serif" font-size="10.00">cstring</text>
</a>
</g>
</g>
<!-- Node1&#45;&gt;Node4 -->
<g id="edge3_Node000001_Node000004" class="edge">
<title>Node1&#45;&gt;Node4</title>
<g id="a_edge3_Node000001_Node000004"><a xlink:title=" ">
<path fill="none" stroke="#63b8ff" d="M277.38,-164.99C255.65,-155.36 227.03,-142.67 205.91,-133.31"/>
<polygon fill="#63b8ff" stroke="#63b8ff" points="207.05,-129.99 196.49,-129.14 204.22,-136.39 207.05,-129.99"/>
</a>
</g>
</g>
<!-- Node5 -->
<g id="Node000005" class="node">
<title>Node5</title>
<g id="a_Node000005"><a xlink:title=" ">
<polygon fill="#e0e0e0" stroke="#999999" points="660,-74 600,-74 600,-55 660,-55 660,-74"/>
<text text-anchor="middle" x="630" y="-62" font-family="Helvetica,sans-Serif" font-size="10.00">iostream</text>
</a>
</g>
</g>
<!-- Node1&#45;&gt;Node5 -->
<g id="edge4_Node000001_Node000005" class="edge">
<title>Node1&#45;&gt;Node5</title>
<g id="a_edge4_Node000001_Node000005"><a xlink:title=" ">
<path fill="none" stroke="#63b8ff" d="M367.51,-176.71C421.04,-172.54 501.1,-160.95 563,-129 585.14,-117.57 605.1,-96.6 617.36,-81.9"/>
<polygon fill="#63b8ff" stroke="#63b8ff" points="620.11,-84.07 623.65,-74.08 614.66,-79.68 620.11,-84.07"/>
</a>
</g>
</g>
<!-- Node6 -->
<g id="Node000006" class="node">
<title>Node6</title>
<g id="a_Node000006"><a xlink:title=" ">
<polygon fill="#e0e0e0" stroke="#999999" points="582,-74 534,-74 534,-55 582,-55 582,-74"/>
<text text-anchor="middle" x="558" y="-62" font-family="Helvetica,sans-Serif" font-size="10.00">mutex</text>
</a>
</g>
</g>
<!-- Node1&#45;&gt;Node6 -->
<g id="edge5_Node000001_Node000006" class="edge">
<title>Node1&#45;&gt;Node6</title>
<g id="a_edge5_Node000001_Node000006"><a xlink:title=" ">
<path fill="none" stroke="#63b8ff" d="M367.71,-173.73C429.01,-167.01 519.58,-153.24 544,-129 555.63,-117.45 558.57,-98.58 558.94,-84.4"/>
<polygon fill="#63b8ff" stroke="#63b8ff" points="562.44,-84.22 558.8,-74.27 555.44,-84.32 562.44,-84.22"/>
</a>
</g>
</g>
<!-- Node7 -->
<g id="Node000007" class="node">
<title>Node7</title>
<g id="a_Node000007"><a xlink:title=" ">
<polygon fill="#e0e0e0" stroke="#999999" points="528,-19 484,-19 484,0 528,0 528,-19"/>
<text text-anchor="middle" x="506" y="-7" font-family="Helvetica,sans-Serif" font-size="10.00">string</text>
</a>
</g>
</g>
<!-- Node1&#45;&gt;Node7 -->
<g id="edge6_Node000001_Node000007" class="edge">
<title>Node1&#45;&gt;Node7</title>
<g id="a_edge6_Node000001_Node000007"><a xlink:title=" ">
<path fill="none" stroke="#63b8ff" d="M283.28,-164.97C270.43,-156.43 256.13,-144.23 249,-129 235.81,-100.85 277.45,-55.41 278,-55 308.64,-32.23 418.63,-18.8 473.87,-13.35"/>
<polygon fill="#63b8ff" stroke="#63b8ff" points="474.21,-16.83 483.83,-12.4 473.55,-9.87 474.21,-16.83"/>
</a>
</g>
</g>
<!-- Node8 -->
<g id="Node000008" class="node">
<title>Node8</title>
<g id="a_Node000008"><a xlink:href="../../dd/d2d/exception_8h.html" target="_top" xlink:title=" ">
<polygon fill="white" stroke="#666666" points="995.5,-129 876.5,-129 876.5,-110 995.5,-110 995.5,-129"/>
<text text-anchor="middle" x="936" y="-117" font-family="Helvetica,sans-Serif" font-size="10.00">common/exception.h</text>
</a>
</g>
</g>
<!-- Node1&#45;&gt;Node8 -->
<g id="edge7_Node000001_Node000008" class="edge">
<title>Node1&#45;&gt;Node8</title>
<g id="a_edge7_Node000001_Node000008"><a xlink:title=" ">
<path fill="none" stroke="#63b8ff" d="M367.7,-173.52C483.63,-162.71 741.47,-138.65 866.01,-127.03"/>
<polygon fill="#63b8ff" stroke="#63b8ff" points="866.56,-130.49 876.19,-126.08 865.91,-123.52 866.56,-130.49"/>
</a>
</g>
</g>
<!-- Node17 -->
<g id="Node000017" class="node">
<title>Node17</title>
<g id="a_Node000017"><a xlink:href="../../d1/d8c/logger_8h.html" target="_top" xlink:title=" ">
<polygon fill="white" stroke="#666666" points="359.5,-129 258.5,-129 258.5,-110 359.5,-110 359.5,-129"/>
<text text-anchor="middle" x="309" y="-117" font-family="Helvetica,sans-Serif" font-size="10.00">common/logger.h</text>
</a>
</g>
</g>
<!-- Node1&#45;&gt;Node17 -->
<g id="edge19_Node000001_Node000017" class="edge">
<title>Node1&#45;&gt;Node17</title>
<g id="a_edge19_Node000001_Node000017"><a xlink:title=" ">
<path fill="none" stroke="#63b8ff" d="M309,-164.84C309,-157.21 309,-147.7 309,-139.45"/>
<polygon fill="#63b8ff" stroke="#63b8ff" points="312.5,-139.27 309,-129.27 305.5,-139.27 312.5,-139.27"/>
</a>
</g>
</g>
<!-- Node19 -->
<g id="Node000019" class="node">
<title>Node19</title>
<g id="a_Node000019"><a xlink:href="../../d6/d30/disk__manager_8h.html" target="_top" xlink:title=" ">
<polygon fill="white" stroke="#666666" points="534.5,-129 377.5,-129 377.5,-110 534.5,-110 534.5,-129"/>
<text text-anchor="middle" x="456" y="-117" font-family="Helvetica,sans-Serif" font-size="10.00">storage/disk/disk_manager.h</text>
</a>
</g>
</g>
<!-- Node1&#45;&gt;Node19 -->
<g id="edge22_Node000001_Node000019" class="edge">
<title>Node1&#45;&gt;Node19</title>
<g id="a_edge22_Node000001_Node000019"><a xlink:title=" ">
<path fill="none" stroke="#63b8ff" d="M344.21,-164.99C368.74,-155.23 401.15,-142.33 424.76,-132.93"/>
<polygon fill="#63b8ff" stroke="#63b8ff" points="426.29,-136.09 434.29,-129.14 423.71,-129.58 426.29,-136.09"/>
</a>
</g>
</g>
<!-- Node8&#45;&gt;Node5 -->
<g id="edge11_Node000008_Node000005" class="edge">
<title>Node8&#45;&gt;Node5</title>
<g id="a_edge11_Node000008_Node000005"><a xlink:title=" ">
<path fill="none" stroke="#63b8ff" d="M883.74,-109.98C830.82,-101.27 746.63,-87.18 674,-74 672.75,-73.77 671.48,-73.54 670.2,-73.3"/>
<polygon fill="#63b8ff" stroke="#63b8ff" points="670.75,-69.85 660.28,-71.44 669.46,-76.73 670.75,-69.85"/>
</a>
</g>
</g>
<!-- Node8&#45;&gt;Node7 -->
<g id="edge14_Node000008_Node000007" class="edge">
<title>Node8&#45;&gt;Node7</title>
<g id="a_edge14_Node000008_Node000007"><a xlink:title=" ">
<path fill="none" stroke="#63b8ff" d="M876.02,-111.39C829.14,-104.75 762.79,-92.97 707,-74 689.12,-67.92 686.64,-61.74 669,-55 624.74,-38.08 571.44,-24.8 538.13,-17.3"/>
<polygon fill="#63b8ff" stroke="#63b8ff" points="538.58,-13.81 528.06,-15.07 537.06,-20.65 538.58,-13.81"/>
</a>
</g>
</g>
<!-- Node9 -->
<g id="Node000009" class="node">
<title>Node9</title>
<g id="a_Node000009"><a xlink:title=" ">
<polygon fill="#e0e0e0" stroke="#999999" points="958,-19 908,-19 908,0 958,0 958,-19"/>
<text text-anchor="middle" x="933" y="-7" font-family="Helvetica,sans-Serif" font-size="10.00">atomic</text>
</a>
</g>
</g>
<!-- Node8&#45;&gt;Node9 -->
<g id="edge8_Node000008_Node000009" class="edge">
<title>Node8&#45;&gt;Node9</title>
<g id="a_edge8_Node000008_Node000009"><a xlink:title=" ">
<path fill="none" stroke="#63b8ff" d="M935.75,-109.66C935.27,-92.17 934.18,-52.8 933.52,-29.27"/>
<polygon fill="#63b8ff" stroke="#63b8ff" points="937.02,-29.06 933.24,-19.16 930.02,-29.25 937.02,-29.06"/>
</a>
</g>
</g>
<!-- Node10 -->
<g id="Node000010" class="node">
<title>Node10</title>
<g id="a_Node000010"><a xlink:title=" ">
<polygon fill="#e0e0e0" stroke="#999999" points="1010,-74 964,-74 964,-55 1010,-55 1010,-74"/>
<text text-anchor="middle" x="987" y="-62" font-family="Helvetica,sans-Serif" font-size="10.00">cstdio</text>
</a>
</g>
</g>
<!-- Node8&#45;&gt;Node10 -->
<g id="edge9_Node000008_Node000010" class="edge">
<title>Node8&#45;&gt;Node10</title>
<g id="a_edge9_Node000008_Node000010"><a xlink:title=" ">
<path fill="none" stroke="#63b8ff" d="M944.42,-109.75C951.77,-102.11 962.63,-90.82 971.54,-81.56"/>
<polygon fill="#63b8ff" stroke="#63b8ff" points="974.32,-83.72 978.74,-74.09 969.28,-78.87 974.32,-83.72"/>
</a>
</g>
</g>
<!-- Node11 -->
<g id="Node000011" class="node">
<title>Node11</title>
<g id="a_Node000011"><a xlink:title=" ">
<polygon fill="#e0e0e0" stroke="#999999" points="1077.5,-74 1028.5,-74 1028.5,-55 1077.5,-55 1077.5,-74"/>
<text text-anchor="middle" x="1053" y="-62" font-family="Helvetica,sans-Serif" font-size="10.00">cstdlib</text>
</a>
</g>
</g>
<!-- Node8&#45;&gt;Node11 -->
<g id="edge10_Node000008_Node000011" class="edge">
<title>Node8&#45;&gt;Node11</title>
<g id="a_edge10_Node000008_Node000011"><a xlink:title=" ">
<path fill="none" stroke="#63b8ff" d="M954.8,-109.98C973.62,-101.46 1002.82,-88.23 1024.5,-78.41"/>
<polygon fill="#63b8ff" stroke="#63b8ff" points="1026.2,-81.48 1033.86,-74.17 1023.31,-75.11 1026.2,-81.48"/>
</a>
</g>
</g>
<!-- Node12 -->
<g id="Node000012" class="node">
<title>Node12</title>
<g id="a_Node000012"><a xlink:title=" ">
<polygon fill="#e0e0e0" stroke="#999999" points="1154,-74 1096,-74 1096,-55 1154,-55 1154,-74"/>
<text text-anchor="middle" x="1125" y="-62" font-family="Helvetica,sans-Serif" font-size="10.00">memory</text>
</a>
</g>
</g>
<!-- Node8&#45;&gt;Node12 -->
<g id="edge12_Node000008_Node000012" class="edge">
<title>Node8&#45;&gt;Node12</title>
<g id="a_edge12_Node000008_Node000012"><a xlink:title=" ">
<path fill="none" stroke="#63b8ff" d="M966.37,-109.98C998.85,-100.88 1050.47,-86.4 1085.95,-76.45"/>
<polygon fill="#63b8ff" stroke="#63b8ff" points="1087.27,-79.72 1095.95,-73.65 1085.38,-72.98 1087.27,-79.72"/>
</a>
</g>
</g>
<!-- Node13 -->
<g id="Node000013" class="node">
<title>Node13</title>
<g id="a_Node000013"><a xlink:title=" ">
<polygon fill="#e0e0e0" stroke="#999999" points="1237.5,-74 1172.5,-74 1172.5,-55 1237.5,-55 1237.5,-74"/>
<text text-anchor="middle" x="1205" y="-62" font-family="Helvetica,sans-Serif" font-size="10.00">stdexcept</text>
</a>
</g>
</g>
<!-- Node8&#45;&gt;Node13 -->
<g id="edge13_Node000008_Node000013" class="edge">
<title>Node8&#45;&gt;Node13</title>
<g id="a_edge13_Node000008_Node000013"><a xlink:title=" ">
<path fill="none" stroke="#63b8ff" d="M979.96,-109.97C1023.64,-101.46 1092.83,-87.95 1162.6,-74.07"/>
<polygon fill="#63b8ff" stroke="#63b8ff" points="1163.32,-77.49 1172.44,-72.11 1161.95,-70.63 1163.32,-77.49"/>
</a>
</g>
</g>
<!-- Node14 -->
<g id="Node000014" class="node">
<title>Node14</title>
<g id="a_Node000014"><a xlink:href="../../df/def/type_8h.html" target="_top" xlink:title=" ">
<polygon fill="white" stroke="#666666" points="788,-74 716,-74 716,-55 788,-55 788,-74"/>
<text text-anchor="middle" x="752" y="-62" font-family="Helvetica,sans-Serif" font-size="10.00">type/type.h</text>
</a>
</g>
</g>
<!-- Node8&#45;&gt;Node14 -->
<g id="edge15_Node000008_Node000014" class="edge">
<title>Node8&#45;&gt;Node14</title>
<g id="a_edge15_Node000008_Node000014"><a xlink:title=" ">
<path fill="none" stroke="#63b8ff" d="M906.44,-109.98C875.28,-101.01 826.03,-86.82 791.54,-76.89"/>
<polygon fill="#63b8ff" stroke="#63b8ff" points="792.37,-73.49 781.79,-74.08 790.43,-80.21 792.37,-73.49"/>
</a>
</g>
</g>
<!-- Node14&#45;&gt;Node7 -->
<g id="edge17_Node000014_Node000007" class="edge">
<title>Node14&#45;&gt;Node7</title>
<g id="a_edge17_Node000014_Node000007"><a xlink:title=" ">
<path fill="none" stroke="#63b8ff" d="M715.97,-55.74C668.05,-45.41 584.09,-27.32 538.2,-17.44"/>
<polygon fill="#63b8ff" stroke="#63b8ff" points="538.71,-13.97 528.2,-15.28 537.24,-20.81 538.71,-13.97"/>
</a>
</g>
</g>
<!-- Node15 -->
<g id="Node000015" class="node">
<title>Node15</title>
<g id="a_Node000015"><a xlink:title=" ">
<polygon fill="#e0e0e0" stroke="#999999" points="817,-19 767,-19 767,0 817,0 817,-19"/>
<text text-anchor="middle" x="792" y="-7" font-family="Helvetica,sans-Serif" font-size="10.00">cstdint</text>
</a>
</g>
</g>
<!-- Node14&#45;&gt;Node15 -->
<g id="edge16_Node000014_Node000015" class="edge">
<title>Node14&#45;&gt;Node15</title>
<g id="a_edge16_Node000014_Node000015"><a xlink:title=" ">
<path fill="none" stroke="#63b8ff" d="M758.61,-54.75C764.26,-47.26 772.54,-36.28 779.45,-27.13"/>
<polygon fill="#63b8ff" stroke="#63b8ff" points="782.29,-29.18 785.52,-19.09 776.7,-24.96 782.29,-29.18"/>
</a>
</g>
</g>
<!-- Node16 -->
<g id="Node000016" class="node">
<title>Node16</title>
<g id="a_Node000016"><a xlink:href="../../dc/df2/type__id_8h.html" target="_top" xlink:title=" ">
<polygon fill="white" stroke="#666666" points="749,-19 663,-19 663,0 749,0 749,-19"/>
<text text-anchor="middle" x="706" y="-7" font-family="Helvetica,sans-Serif" font-size="10.00">type/type_id.h</text>
</a>
</g>
</g>
<!-- Node14&#45;&gt;Node16 -->
<g id="edge18_Node000014_Node000016" class="edge">
<title>Node14&#45;&gt;Node16</title>
<g id="a_edge18_Node000014_Node000016"><a xlink:title=" ">
<path fill="none" stroke="#63b8ff" d="M744.4,-54.75C737.84,-47.18 728.18,-36.05 720.19,-26.84"/>
<polygon fill="#63b8ff" stroke="#63b8ff" points="722.65,-24.35 713.45,-19.09 717.37,-28.94 722.65,-24.35"/>
</a>
</g>
</g>
<!-- Node17&#45;&gt;Node7 -->
<g id="edge21_Node000017_Node000007" class="edge">
<title>Node17&#45;&gt;Node7</title>
<g id="a_edge21_Node000017_Node000007"><a xlink:title=" ">
<path fill="none" stroke="#63b8ff" d="M301.18,-109.77C290.35,-96.6 273.56,-71.44 287,-55 310.19,-26.62 418.4,-15.9 473.54,-12.22"/>
<polygon fill="#63b8ff" stroke="#63b8ff" points="474.05,-15.7 483.81,-11.58 473.61,-8.71 474.05,-15.7"/>
</a>
</g>
</g>
<!-- Node18 -->
<g id="Node000018" class="node">
<title>Node18</title>
<g id="a_Node000018"><a xlink:title=" ">
<polygon fill="#e0e0e0" stroke="#999999" points="340,-74 296,-74 296,-55 340,-55 340,-74"/>
<text text-anchor="middle" x="318" y="-62" font-family="Helvetica,sans-Serif" font-size="10.00">ctime</text>
</a>
</g>
</g>
<!-- Node17&#45;&gt;Node18 -->
<g id="edge20_Node000017_Node000018" class="edge">
<title>Node17&#45;&gt;Node18</title>
<g id="a_edge20_Node000017_Node000018"><a xlink:title=" ">
<path fill="none" stroke="#63b8ff" d="M310.49,-109.75C311.67,-102.8 313.36,-92.85 314.84,-84.13"/>
<polygon fill="#63b8ff" stroke="#63b8ff" points="318.32,-84.53 316.54,-74.09 311.42,-83.36 318.32,-84.53"/>
</a>
</g>
</g>
<!-- Node19&#45;&gt;Node6 -->
<g id="edge25_Node000019_Node000006" class="edge">
<title>Node19&#45;&gt;Node6</title>
<g id="a_edge25_Node000019_Node000006"><a xlink:title=" ">
<path fill="none" stroke="#63b8ff" d="M472.39,-109.98C488.57,-101.57 513.57,-88.59 532.38,-78.81"/>
<polygon fill="#63b8ff" stroke="#63b8ff" points="534.05,-81.89 541.31,-74.17 530.83,-75.68 534.05,-81.89"/>
</a>
</g>
</g>
<!-- Node19&#45;&gt;Node7 -->
<g id="edge26_Node000019_Node000007" class="edge">
<title>Node19&#45;&gt;Node7</title>
<g id="a_edge26_Node000019_Node000007"><a xlink:title=" ">
<path fill="none" stroke="#63b8ff" d="M463.31,-109.82C470.24,-101.21 480.53,-87.4 487,-74 493.96,-59.57 498.97,-42.06 502.09,-29.08"/>
<polygon fill="#63b8ff" stroke="#63b8ff" points="505.57,-29.56 504.35,-19.03 498.74,-28.02 505.57,-29.56"/>
</a>
</g>
</g>
<!-- Node20 -->
<g id="Node000020" class="node">
<title>Node20</title>
<g id="a_Node000020"><a xlink:title=" ">
<polygon fill="#e0e0e0" stroke="#999999" points="413.5,-74 358.5,-74 358.5,-55 413.5,-55 413.5,-74"/>
<text text-anchor="middle" x="386" y="-62" font-family="Helvetica,sans-Serif" font-size="10.00">fstream</text>
</a>
</g>
</g>
<!-- Node19&#45;&gt;Node20 -->
<g id="edge23_Node000019_Node000020" class="edge">
<title>Node19&#45;&gt;Node20</title>
<g id="a_edge23_Node000019_Node000020"><a xlink:title=" ">
<path fill="none" stroke="#63b8ff" d="M444.75,-109.98C434.2,-102 418.2,-89.88 405.56,-80.31"/>
<polygon fill="#63b8ff" stroke="#63b8ff" points="407.54,-77.42 397.45,-74.17 403.31,-83 407.54,-77.42"/>
</a>
</g>
</g>
<!-- Node21 -->
<g id="Node000021" class="node">
<title>Node21</title>
<g id="a_Node000021"><a xlink:title=" ">
<polygon fill="#e0e0e0" stroke="#999999" points="478,-74 432,-74 432,-55 478,-55 478,-74"/>
<text text-anchor="middle" x="455" y="-62" font-family="Helvetica,sans-Serif" font-size="10.00">future</text>
</a>
</g>
</g>
<!-- Node19&#45;&gt;Node21 -->
<g id="edge24_Node000019_Node000021" class="edge">
<title>Node19&#45;&gt;Node21</title>
<g id="a_edge24_Node000019_Node000021"><a xlink:title=" ">
<path fill="none" stroke="#63b8ff" d="M455.83,-109.75C455.7,-102.8 455.52,-92.85 455.35,-84.13"/>
<polygon fill="#63b8ff" stroke="#63b8ff" points="458.85,-84.02 455.16,-74.09 451.85,-84.15 458.85,-84.02"/>
</a>
</g>
</g>
<!-- Node22 -->
<g id="Node000022" class="node">
<title>Node22</title>
<g id="a_Node000022"><a xlink:href="../../db/d16/config_8h.html" target="_top" xlink:title=" ">
<polygon fill="white" stroke="#666666" points="907.5,-74 806.5,-74 806.5,-55 907.5,-55 907.5,-74"/>
<text text-anchor="middle" x="857" y="-62" font-family="Helvetica,sans-Serif" font-size="10.00">common/config.h</text>
</a>
</g>
</g>
<!-- Node19&#45;&gt;Node22 -->
<g id="edge27_Node000019_Node000022" class="edge">
<title>Node19&#45;&gt;Node22</title>
<g id="a_edge27_Node000019_Node000022"><a xlink:title=" ">
<path fill="none" stroke="#63b8ff" d="M523,-109.98C589.56,-101.46 694.85,-87.85 796.16,-74.1"/>
<polygon fill="#63b8ff" stroke="#63b8ff" points="796.83,-77.54 806.27,-72.73 795.89,-70.61 796.83,-77.54"/>
</a>
</g>
</g>
<!-- Node22&#45;&gt;Node9 -->
<g id="edge28_Node000022_Node000009" class="edge">
<title>Node22&#45;&gt;Node9</title>
<g id="a_edge28_Node000022_Node000009"><a xlink:title=" ">
<path fill="none" stroke="#63b8ff" d="M869.21,-54.98C880.78,-46.92 898.38,-34.65 912.16,-25.03"/>
<polygon fill="#63b8ff" stroke="#63b8ff" points="914.37,-27.76 920.57,-19.17 910.36,-22.02 914.37,-27.76"/>
</a>
</g>
</g>
<!-- Node22&#45;&gt;Node15 -->
<g id="edge30_Node000022_Node000015" class="edge">
<title>Node22&#45;&gt;Node15</title>
<g id="a_edge30_Node000022_Node000015"><a xlink:title=" ">
<path fill="none" stroke="#63b8ff" d="M846.56,-54.98C836.85,-47.07 822.18,-35.11 810.5,-25.58"/>
<polygon fill="#63b8ff" stroke="#63b8ff" points="812.6,-22.78 802.63,-19.17 808.17,-28.2 812.6,-22.78"/>
</a>
</g>
</g>
<!-- Node23 -->
<g id="Node000023" class="node">
<title>Node23</title>
<g id="a_Node000023"><a xlink:title=" ">
<polygon fill="#e0e0e0" stroke="#999999" points="885,-19 835,-19 835,0 885,0 885,-19"/>
<text text-anchor="middle" x="860" y="-7" font-family="Helvetica,sans-Serif" font-size="10.00">chrono</text>
</a>
</g>
</g>
<!-- Node22&#45;&gt;Node23 -->
<g id="edge29_Node000022_Node000023" class="edge">
<title>Node22&#45;&gt;Node23</title>
<g id="a_edge29_Node000022_Node000023"><a xlink:title=" ">
<path fill="none" stroke="#63b8ff" d="M857.5,-54.75C857.89,-47.8 858.45,-37.85 858.95,-29.13"/>
<polygon fill="#63b8ff" stroke="#63b8ff" points="862.44,-29.27 859.51,-19.09 855.45,-28.88 862.44,-29.27"/>
</a>
</g>
</g>
</g>
</svg>
