<?xml version="1.0" encoding="UTF-8" standalone="no"?>
<!DOCTYPE svg PUBLIC "-//W3C//DTD SVG 1.1//EN"
 "http://www.w3.org/Graphics/SVG/1.1/DTD/svg11.dtd">
<!-- Generated by graphviz version 2.43.0 (0)
 -->
<!-- Title: src/include/execution/executors/mock_scan_executor.h Pages: 1 -->
<svg width="632pt" height="115pt"
 viewBox="0.00 0.00 632.00 115.00" xmlns="http://www.w3.org/2000/svg" xmlns:xlink="http://www.w3.org/1999/xlink">
<g id="graph0" class="graph" transform="scale(1 1) rotate(0) translate(4 111)">
<title>src/include/execution/executors/mock_scan_executor.h</title>
<!-- Node1 -->
<g id="Node000001" class="node">
<title>Node1</title>
<g id="a_Node000001"><a xlink:title=" ">
<polygon fill="#999999" stroke="#666666" points="408,-107 283,-107 283,-66 408,-66 408,-107"/>
<text text-anchor="start" x="291" y="-95" font-family="Helvetica,sans-Serif" font-size="10.00">src/include/execution</text>
<text text-anchor="start" x="291" y="-84" font-family="Helvetica,sans-Serif" font-size="10.00">/executors/mock_scan</text>
<text text-anchor="middle" x="345.5" y="-73" font-family="Helvetica,sans-Serif" font-size="10.00">_executor.h</text>
</a>
</g>
</g>
<!-- Node2 -->
<g id="Node000002" class="node">
<title>Node2</title>
<g id="a_Node000002"><a xlink:href="../../dc/de0/bustub__ddl_8cpp.html" target="_top" xlink:title=" ">
<polygon fill="white" stroke="#666666" points="153,-24.5 0,-24.5 0,-5.5 153,-5.5 153,-24.5"/>
<text text-anchor="middle" x="76.5" y="-12.5" font-family="Helvetica,sans-Serif" font-size="10.00">src/common/bustub_ddl.cpp</text>
</a>
</g>
</g>
<!-- Node1&#45;&gt;Node2 -->
<g id="edge1_Node000001_Node000002" class="edge">
<title>Node1&#45;&gt;Node2</title>
<g id="a_edge1_Node000001_Node000002"><a xlink:title=" ">
<path fill="none" stroke="#63b8ff" d="M273.03,-66.78C219.78,-53.02 149.91,-34.97 109.43,-24.51"/>
<polygon fill="#63b8ff" stroke="#63b8ff" points="272.21,-70.18 282.77,-69.29 273.96,-63.4 272.21,-70.18"/>
</a>
</g>
</g>
<!-- Node3 -->
<g id="Node000003" class="node">
<title>Node3</title>
<g id="a_Node000003"><a xlink:href="../../da/d08/bustub__instance_8cpp.html" target="_top" xlink:title=" ">
<polygon fill="white" stroke="#666666" points="350,-24.5 171,-24.5 171,-5.5 350,-5.5 350,-24.5"/>
<text text-anchor="middle" x="260.5" y="-12.5" font-family="Helvetica,sans-Serif" font-size="10.00">src/common/bustub_instance.cpp</text>
</a>
</g>
</g>
<!-- Node1&#45;&gt;Node3 -->
<g id="edge2_Node000001_Node000003" class="edge">
<title>Node1&#45;&gt;Node3</title>
<g id="a_edge2_Node000001_Node000003"><a xlink:title=" ">
<path fill="none" stroke="#63b8ff" d="M313.35,-59.22C298.51,-47.07 281.86,-33.46 271.29,-24.82"/>
<polygon fill="#63b8ff" stroke="#63b8ff" points="311.41,-62.15 321.37,-65.77 315.84,-56.73 311.41,-62.15"/>
</a>
</g>
</g>
<!-- Node4 -->
<g id="Node000004" class="node">
<title>Node4</title>
<g id="a_Node000004"><a xlink:href="../../d3/d3e/executor__factory_8cpp.html" target="_top" xlink:title=" ">
<polygon fill="white" stroke="#666666" points="494.5,-30 368.5,-30 368.5,0 494.5,0 494.5,-30"/>
<text text-anchor="start" x="376.5" y="-18" font-family="Helvetica,sans-Serif" font-size="10.00">src/execution/executor</text>
<text text-anchor="middle" x="431.5" y="-7" font-family="Helvetica,sans-Serif" font-size="10.00">_factory.cpp</text>
</a>
</g>
</g>
<!-- Node1&#45;&gt;Node4 -->
<g id="edge3_Node000001_Node000004" class="edge">
<title>Node1&#45;&gt;Node4</title>
<g id="a_edge3_Node000001_Node000004"><a xlink:title=" ">
<path fill="none" stroke="#63b8ff" d="M377.79,-59.41C390.12,-49.44 403.71,-38.46 414.13,-30.04"/>
<polygon fill="#63b8ff" stroke="#63b8ff" points="375.49,-56.76 369.91,-65.77 379.89,-62.21 375.49,-56.76"/>
</a>
</g>
</g>
<!-- Node5 -->
<g id="Node000005" class="node">
<title>Node5</title>
<g id="a_Node000005"><a xlink:href="../../da/dd8/mock__scan__executor_8cpp.html" target="_top" xlink:title=" ">
<polygon fill="white" stroke="#666666" points="624,-30 513,-30 513,0 624,0 624,-30"/>
<text text-anchor="start" x="521" y="-18" font-family="Helvetica,sans-Serif" font-size="10.00">src/execution/mock</text>
<text text-anchor="middle" x="568.5" y="-7" font-family="Helvetica,sans-Serif" font-size="10.00">_scan_executor.cpp</text>
</a>
</g>
</g>
<!-- Node1&#45;&gt;Node5 -->
<g id="edge4_Node000001_Node000005" class="edge">
<title>Node1&#45;&gt;Node5</title>
<g id="a_edge4_Node000001_Node000005"><a xlink:title=" ">
<path fill="none" stroke="#63b8ff" d="M417.86,-62.95C452.66,-52.1 493.28,-39.44 523.57,-30"/>
<polygon fill="#63b8ff" stroke="#63b8ff" points="416.72,-59.64 408.21,-65.96 418.8,-66.32 416.72,-59.64"/>
</a>
</g>
</g>
</g>
</svg>
