<?xml version="1.0" encoding="UTF-8" standalone="no"?>
<!DOCTYPE svg PUBLIC "-//W3C//DTD SVG 1.1//EN"
 "http://www.w3.org/Graphics/SVG/1.1/DTD/svg11.dtd">
<!-- Generated by graphviz version 2.43.0 (0)
 -->
<!-- Title: src/include/binder/bound_table_ref.h Pages: 1 -->
<svg width="413pt" height="148pt"
 viewBox="0.00 0.00 412.50 148.00" xmlns="http://www.w3.org/2000/svg" xmlns:xlink="http://www.w3.org/1999/xlink">
<g id="graph0" class="graph" transform="scale(1 1) rotate(0) translate(4 144)">
<title>src/include/binder/bound_table_ref.h</title>
<!-- Node1 -->
<g id="Node000001" class="node">
<title>Node1</title>
<g id="a_Node000001"><a xlink:title=" ">
<polygon fill="#999999" stroke="#666666" points="191.5,-140 84.5,-140 84.5,-110 191.5,-110 191.5,-140"/>
<text text-anchor="start" x="92.5" y="-128" font-family="Helvetica,sans-Serif" font-size="10.00">src/include/binder</text>
<text text-anchor="middle" x="138" y="-117" font-family="Helvetica,sans-Serif" font-size="10.00">/bound_table_ref.h</text>
</a>
</g>
</g>
<!-- Node2 -->
<g id="Node000002" class="node">
<title>Node2</title>
<g id="a_Node000002"><a xlink:title=" ">
<polygon fill="#e0e0e0" stroke="#999999" points="58,-74 0,-74 0,-55 58,-55 58,-74"/>
<text text-anchor="middle" x="29" y="-62" font-family="Helvetica,sans-Serif" font-size="10.00">memory</text>
</a>
</g>
</g>
<!-- Node1&#45;&gt;Node2 -->
<g id="edge1_Node000001_Node000002" class="edge">
<title>Node1&#45;&gt;Node2</title>
<g id="a_edge1_Node000001_Node000002"><a xlink:title=" ">
<path fill="none" stroke="#63b8ff" d="M111.89,-109.99C94.36,-100.58 71.38,-88.24 54.06,-78.95"/>
<polygon fill="#63b8ff" stroke="#63b8ff" points="55.56,-75.78 45.1,-74.14 52.25,-81.95 55.56,-75.78"/>
</a>
</g>
</g>
<!-- Node3 -->
<g id="Node000003" class="node">
<title>Node3</title>
<g id="a_Node000003"><a xlink:title=" ">
<polygon fill="#e0e0e0" stroke="#999999" points="120,-74 76,-74 76,-55 120,-55 120,-74"/>
<text text-anchor="middle" x="98" y="-62" font-family="Helvetica,sans-Serif" font-size="10.00">string</text>
</a>
</g>
</g>
<!-- Node1&#45;&gt;Node3 -->
<g id="edge2_Node000001_Node000003" class="edge">
<title>Node1&#45;&gt;Node3</title>
<g id="a_edge2_Node000001_Node000003"><a xlink:title=" ">
<path fill="none" stroke="#63b8ff" d="M128.32,-109.84C122.75,-101.69 115.71,-91.4 109.82,-82.78"/>
<polygon fill="#63b8ff" stroke="#63b8ff" points="112.53,-80.55 103.99,-74.27 106.75,-84.5 112.53,-80.55"/>
</a>
</g>
</g>
<!-- Node4 -->
<g id="Node000004" class="node">
<title>Node4</title>
<g id="a_Node000004"><a xlink:title=" ">
<polygon fill="#e0e0e0" stroke="#999999" points="217.5,-74 138.5,-74 138.5,-55 217.5,-55 217.5,-74"/>
<text text-anchor="middle" x="178" y="-62" font-family="Helvetica,sans-Serif" font-size="10.00">fmt/format.h</text>
</a>
</g>
</g>
<!-- Node1&#45;&gt;Node4 -->
<g id="edge3_Node000001_Node000004" class="edge">
<title>Node1&#45;&gt;Node4</title>
<g id="a_edge3_Node000001_Node000004"><a xlink:title=" ">
<path fill="none" stroke="#63b8ff" d="M147.68,-109.84C153.25,-101.69 160.29,-91.4 166.18,-82.78"/>
<polygon fill="#63b8ff" stroke="#63b8ff" points="169.25,-84.5 172.01,-74.27 163.47,-80.55 169.25,-84.5"/>
</a>
</g>
</g>
<!-- Node5 -->
<g id="Node000005" class="node">
<title>Node5</title>
<g id="a_Node000005"><a xlink:href="../../de/d3c/macros_8h.html" target="_top" xlink:title=" ">
<polygon fill="white" stroke="#666666" points="342.5,-74 235.5,-74 235.5,-55 342.5,-55 342.5,-74"/>
<text text-anchor="middle" x="289" y="-62" font-family="Helvetica,sans-Serif" font-size="10.00">common/macros.h</text>
</a>
</g>
</g>
<!-- Node1&#45;&gt;Node5 -->
<g id="edge4_Node000001_Node000005" class="edge">
<title>Node1&#45;&gt;Node5</title>
<g id="a_edge4_Node000001_Node000005"><a xlink:title=" ">
<path fill="none" stroke="#63b8ff" d="M174.17,-109.99C199.47,-100.18 232.96,-87.21 257.24,-77.81"/>
<polygon fill="#63b8ff" stroke="#63b8ff" points="258.64,-81.02 266.7,-74.14 256.11,-74.49 258.64,-81.02"/>
</a>
</g>
</g>
<!-- Node6 -->
<g id="Node000006" class="node">
<title>Node6</title>
<g id="a_Node000006"><a xlink:title=" ">
<polygon fill="#e0e0e0" stroke="#999999" points="238,-19 186,-19 186,0 238,0 238,-19"/>
<text text-anchor="middle" x="212" y="-7" font-family="Helvetica,sans-Serif" font-size="10.00">cassert</text>
</a>
</g>
</g>
<!-- Node5&#45;&gt;Node6 -->
<g id="edge5_Node000005_Node000006" class="edge">
<title>Node5&#45;&gt;Node6</title>
<g id="a_edge5_Node000005_Node000006"><a xlink:title=" ">
<path fill="none" stroke="#63b8ff" d="M276.63,-54.98C264.91,-46.92 247.08,-34.65 233.11,-25.03"/>
<polygon fill="#63b8ff" stroke="#63b8ff" points="234.82,-21.96 224.6,-19.17 230.85,-27.72 234.82,-21.96"/>
</a>
</g>
</g>
<!-- Node7 -->
<g id="Node000007" class="node">
<title>Node7</title>
<g id="a_Node000007"><a xlink:title=" ">
<polygon fill="#e0e0e0" stroke="#999999" points="321.5,-19 256.5,-19 256.5,0 321.5,0 321.5,-19"/>
<text text-anchor="middle" x="289" y="-7" font-family="Helvetica,sans-Serif" font-size="10.00">exception</text>
</a>
</g>
</g>
<!-- Node5&#45;&gt;Node7 -->
<g id="edge6_Node000005_Node000007" class="edge">
<title>Node5&#45;&gt;Node7</title>
<g id="a_edge6_Node000005_Node000007"><a xlink:title=" ">
<path fill="none" stroke="#63b8ff" d="M289,-54.75C289,-47.8 289,-37.85 289,-29.13"/>
<polygon fill="#63b8ff" stroke="#63b8ff" points="292.5,-29.09 289,-19.09 285.5,-29.09 292.5,-29.09"/>
</a>
</g>
</g>
<!-- Node8 -->
<g id="Node000008" class="node">
<title>Node8</title>
<g id="a_Node000008"><a xlink:title=" ">
<polygon fill="#e0e0e0" stroke="#999999" points="404.5,-19 339.5,-19 339.5,0 404.5,0 404.5,-19"/>
<text text-anchor="middle" x="372" y="-7" font-family="Helvetica,sans-Serif" font-size="10.00">stdexcept</text>
</a>
</g>
</g>
<!-- Node5&#45;&gt;Node8 -->
<g id="edge7_Node000005_Node000008" class="edge">
<title>Node5&#45;&gt;Node8</title>
<g id="a_edge7_Node000005_Node000008"><a xlink:title=" ">
<path fill="none" stroke="#63b8ff" d="M302.34,-54.98C315.09,-46.84 334.55,-34.41 349.67,-24.76"/>
<polygon fill="#63b8ff" stroke="#63b8ff" points="351.88,-27.5 358.42,-19.17 348.11,-21.6 351.88,-27.5"/>
</a>
</g>
</g>
</g>
</svg>
