<?xml version="1.0" encoding="UTF-8" standalone="no"?>
<!DOCTYPE svg PUBLIC "-//W3C//DTD SVG 1.1//EN"
 "http://www.w3.org/Graphics/SVG/1.1/DTD/svg11.dtd">
<!-- Generated by graphviz version 2.43.0 (0)
 -->
<!-- Title: src/include/storage/page/hash_table_block_page.h Pages: 1 -->
<svg width="594pt" height="170pt"
 viewBox="0.00 0.00 593.64 170.00" xmlns="http://www.w3.org/2000/svg" xmlns:xlink="http://www.w3.org/1999/xlink">
<g id="graph0" class="graph" transform="scale(1 1) rotate(0) translate(4 166)">
<title>src/include/storage/page/hash_table_block_page.h</title>
<!-- Node1 -->
<g id="Node000001" class="node">
<title>Node1</title>
<g id="a_Node000001"><a xlink:title=" ">
<polygon fill="#999999" stroke="#666666" points="212.64,-162 81.64,-162 81.64,-121 212.64,-121 212.64,-162"/>
<text text-anchor="start" x="89.64" y="-150" font-family="Helvetica,sans-Serif" font-size="10.00">src/include/storage</text>
<text text-anchor="start" x="89.64" y="-139" font-family="Helvetica,sans-Serif" font-size="10.00">/page/hash_table_block</text>
<text text-anchor="middle" x="147.14" y="-128" font-family="Helvetica,sans-Serif" font-size="10.00">_page.h</text>
</a>
</g>
</g>
<!-- Node2 -->
<g id="Node000002" class="node">
<title>Node2</title>
<g id="a_Node000002"><a xlink:title=" ">
<polygon fill="#e0e0e0" stroke="#999999" points="81.14,-19 31.14,-19 31.14,0 81.14,0 81.14,-19"/>
<text text-anchor="middle" x="56.14" y="-7" font-family="Helvetica,sans-Serif" font-size="10.00">atomic</text>
</a>
</g>
</g>
<!-- Node1&#45;&gt;Node2 -->
<g id="edge1_Node000001_Node000002" class="edge">
<title>Node1&#45;&gt;Node2</title>
<g id="a_edge1_Node000001_Node000002"><a xlink:title=" ">
<path fill="none" stroke="#63b8ff" d="M81.35,-131.51C52.97,-124.01 22.38,-110.25 5.14,-85 -2.38,-73.99 -0.38,-67.14 5.14,-55 10.76,-42.63 21.71,-32.36 32.02,-24.81"/>
<polygon fill="#63b8ff" stroke="#63b8ff" points="34.1,-27.63 40.41,-19.12 30.17,-21.84 34.1,-27.63"/>
</a>
</g>
</g>
<!-- Node3 -->
<g id="Node000003" class="node">
<title>Node3</title>
<g id="a_Node000003"><a xlink:title=" ">
<polygon fill="#e0e0e0" stroke="#999999" points="59.64,-79.5 14.64,-79.5 14.64,-60.5 59.64,-60.5 59.64,-79.5"/>
<text text-anchor="middle" x="37.14" y="-67.5" font-family="Helvetica,sans-Serif" font-size="10.00">utility</text>
</a>
</g>
</g>
<!-- Node1&#45;&gt;Node3 -->
<g id="edge2_Node000001_Node000003" class="edge">
<title>Node1&#45;&gt;Node3</title>
<g id="a_edge2_Node000001_Node000003"><a xlink:title=" ">
<path fill="none" stroke="#63b8ff" d="M116.2,-120.96C98.14,-109.54 75.77,-95.41 59.44,-85.09"/>
<polygon fill="#63b8ff" stroke="#63b8ff" points="60.92,-81.89 50.6,-79.5 57.18,-87.8 60.92,-81.89"/>
</a>
</g>
</g>
<!-- Node4 -->
<g id="Node000004" class="node">
<title>Node4</title>
<g id="a_Node000004"><a xlink:title=" ">
<polygon fill="#e0e0e0" stroke="#999999" points="124.64,-79.5 77.64,-79.5 77.64,-60.5 124.64,-60.5 124.64,-79.5"/>
<text text-anchor="middle" x="101.14" y="-67.5" font-family="Helvetica,sans-Serif" font-size="10.00">vector</text>
</a>
</g>
</g>
<!-- Node1&#45;&gt;Node4 -->
<g id="edge3_Node000001_Node000004" class="edge">
<title>Node1&#45;&gt;Node4</title>
<g id="a_edge3_Node000001_Node000004"><a xlink:title=" ">
<path fill="none" stroke="#63b8ff" d="M134.08,-120.77C127.32,-110.55 119.13,-98.19 112.62,-88.34"/>
<polygon fill="#63b8ff" stroke="#63b8ff" points="115.41,-86.23 106.98,-79.82 109.58,-90.09 115.41,-86.23"/>
</a>
</g>
</g>
<!-- Node5 -->
<g id="Node000005" class="node">
<title>Node5</title>
<g id="a_Node000005"><a xlink:href="../../db/d16/config_8h.html" target="_top" xlink:title=" ">
<polygon fill="white" stroke="#666666" points="243.64,-79.5 142.64,-79.5 142.64,-60.5 243.64,-60.5 243.64,-79.5"/>
<text text-anchor="middle" x="193.14" y="-67.5" font-family="Helvetica,sans-Serif" font-size="10.00">common/config.h</text>
</a>
</g>
</g>
<!-- Node1&#45;&gt;Node5 -->
<g id="edge4_Node000001_Node000005" class="edge">
<title>Node1&#45;&gt;Node5</title>
<g id="a_edge4_Node000001_Node000005"><a xlink:title=" ">
<path fill="none" stroke="#63b8ff" d="M160.2,-120.77C166.96,-110.55 175.14,-98.19 181.66,-88.34"/>
<polygon fill="#63b8ff" stroke="#63b8ff" points="184.7,-90.09 187.3,-79.82 178.86,-86.23 184.7,-90.09"/>
</a>
</g>
</g>
<!-- Node8 -->
<g id="Node000008" class="node">
<title>Node8</title>
<g id="a_Node000008"><a xlink:href="../../d5/d78/int__comparator_8h.html" target="_top" xlink:title=" ">
<polygon fill="white" stroke="#666666" points="430.64,-79.5 261.64,-79.5 261.64,-60.5 430.64,-60.5 430.64,-79.5"/>
<text text-anchor="middle" x="346.14" y="-67.5" font-family="Helvetica,sans-Serif" font-size="10.00">storage/index/int_comparator.h</text>
</a>
</g>
</g>
<!-- Node1&#45;&gt;Node8 -->
<g id="edge8_Node000001_Node000008" class="edge">
<title>Node1&#45;&gt;Node8</title>
<g id="a_edge8_Node000001_Node000008"><a xlink:title=" ">
<path fill="none" stroke="#63b8ff" d="M203.1,-120.96C238.22,-108.69 282.35,-93.28 312.23,-82.84"/>
<polygon fill="#63b8ff" stroke="#63b8ff" points="313.5,-86.11 321.79,-79.5 311.2,-79.5 313.5,-86.11"/>
</a>
</g>
</g>
<!-- Node9 -->
<g id="Node000009" class="node">
<title>Node9</title>
<g id="a_Node000009"><a xlink:href="../../d6/d3b/hash__table__page__defs_8h.html" target="_top" xlink:title=" ">
<polygon fill="white" stroke="#666666" points="585.64,-85 448.64,-85 448.64,-55 585.64,-55 585.64,-85"/>
<text text-anchor="start" x="456.64" y="-73" font-family="Helvetica,sans-Serif" font-size="10.00">storage/page/hash_table</text>
<text text-anchor="middle" x="517.14" y="-62" font-family="Helvetica,sans-Serif" font-size="10.00">_page_defs.h</text>
</a>
</g>
</g>
<!-- Node1&#45;&gt;Node9 -->
<g id="edge9_Node000001_Node000009" class="edge">
<title>Node1&#45;&gt;Node9</title>
<g id="a_edge9_Node000001_Node000009"><a xlink:title=" ">
<path fill="none" stroke="#63b8ff" d="M212.86,-128.15C275.97,-116.3 371.36,-98.38 438.48,-85.78"/>
<polygon fill="#63b8ff" stroke="#63b8ff" points="439.4,-89.16 448.58,-83.88 438.11,-82.28 439.4,-89.16"/>
</a>
</g>
</g>
<!-- Node5&#45;&gt;Node2 -->
<g id="edge5_Node000005_Node000002" class="edge">
<title>Node5&#45;&gt;Node2</title>
<g id="a_edge5_Node000005_Node000002"><a xlink:title=" ">
<path fill="none" stroke="#63b8ff" d="M173.22,-60.49C150.19,-50.66 112.06,-34.38 85.6,-23.08"/>
<polygon fill="#63b8ff" stroke="#63b8ff" points="86.66,-19.72 76.08,-19.02 83.91,-26.16 86.66,-19.72"/>
</a>
</g>
</g>
<!-- Node6 -->
<g id="Node000006" class="node">
<title>Node6</title>
<g id="a_Node000006"><a xlink:title=" ">
<polygon fill="#e0e0e0" stroke="#999999" points="184.14,-19 134.14,-19 134.14,0 184.14,0 184.14,-19"/>
<text text-anchor="middle" x="159.14" y="-7" font-family="Helvetica,sans-Serif" font-size="10.00">chrono</text>
</a>
</g>
</g>
<!-- Node5&#45;&gt;Node6 -->
<g id="edge6_Node000005_Node000006" class="edge">
<title>Node5&#45;&gt;Node6</title>
<g id="a_edge6_Node000005_Node000006"><a xlink:title=" ">
<path fill="none" stroke="#63b8ff" d="M188.12,-60.37C183.2,-51.9 175.55,-38.74 169.35,-28.07"/>
<polygon fill="#63b8ff" stroke="#63b8ff" points="172.23,-26.05 164.18,-19.17 166.18,-29.57 172.23,-26.05"/>
</a>
</g>
</g>
<!-- Node7 -->
<g id="Node000007" class="node">
<title>Node7</title>
<g id="a_Node000007"><a xlink:title=" ">
<polygon fill="#e0e0e0" stroke="#999999" points="252.14,-19 202.14,-19 202.14,0 252.14,0 252.14,-19"/>
<text text-anchor="middle" x="227.14" y="-7" font-family="Helvetica,sans-Serif" font-size="10.00">cstdint</text>
</a>
</g>
</g>
<!-- Node5&#45;&gt;Node7 -->
<g id="edge7_Node000005_Node000007" class="edge">
<title>Node5&#45;&gt;Node7</title>
<g id="a_edge7_Node000005_Node000007"><a xlink:title=" ">
<path fill="none" stroke="#63b8ff" d="M198.16,-60.37C203.08,-51.9 210.73,-38.74 216.93,-28.07"/>
<polygon fill="#63b8ff" stroke="#63b8ff" points="220.1,-29.57 222.1,-19.17 214.05,-26.05 220.1,-29.57"/>
</a>
</g>
</g>
</g>
</svg>
