<?xml version="1.0" encoding="UTF-8" standalone="no"?>
<!DOCTYPE svg PUBLIC "-//W3C//DTD SVG 1.1//EN"
 "http://www.w3.org/Graphics/SVG/1.1/DTD/svg11.dtd">
<!-- Generated by graphviz version 2.43.0 (0)
 -->
<!-- Title: src/storage/disk/disk_manager_memory.cpp Pages: 1 -->
<!--zoomable 269 -->

<svg id="main" version="1.1" xmlns="http://www.w3.org/2000/svg" xmlns:xlink="http://www.w3.org/1999/xlink" xml:space="preserve" onload="init(evt)">
<style type="text/css"><![CDATA[
.node, .edge {opacity: 0.7;}
.node.selected, .edge.selected {opacity: 1;}
.edge:hover path { stroke: red; }
.edge:hover polygon { stroke: red; fill: red; }
]]></style>

<defs>
  <circle id="rim" cx="0" cy="0" r="7"/>
  <circle id="rim2" cx="0" cy="0" r="3.5"/>
  <g id="zoomPlus">
    <use xlink:href="#rim" fill="#404040"><set attributeName="fill" to="#808080" begin="zoomplus.mouseover" end="zoomplus.mouseout"/></use>
    <path d="M-4,0h8M0,-4v8" fill="none" stroke="white" stroke-width="1.5" pointer-events="none"/>
  </g>
  <g id="zoomMin">
    <use xlink:href="#rim" fill="#404040"><set attributeName="fill" to="#808080" begin="zoomminus.mouseover" end="zoomminus.mouseout"/></use>
    <path d="M-4,0h8" fill="none" stroke="white" stroke-width="1.5" pointer-events="none"/>
  </g>
  <g id="arrowUp" transform="translate(30 24)">
    <use xlink:href="#rim"/>
    <path pointer-events="none" fill="none" stroke="white" stroke-width="1.5" d="M0,-3.0v7 M-2.5,-0.5L0,-3.0L2.5,-0.5"/>
  </g>
  <g id="arrowRight" transform="rotate(90) translate(36 -43)">
    <use xlink:href="#rim"/>
    <path pointer-events="none" fill="none" stroke="white" stroke-width="1.5" d="M0,-3.0v7 M-2.5,-0.5L0,-3.0L2.5,-0.5"/>
  </g>
  <g id="arrowDown" transform="rotate(180) translate(-30 -48)">
    <use xlink:href="#rim"/>
    <path pointer-events="none" fill="none" stroke="white" stroke-width="1.5" d="M0,-3.0v7 M-2.5,-0.5L0,-3.0L2.5,-0.5"/>
  </g>
  <g id="arrowLeft" transform="rotate(270) translate(-36 17)">
    <use xlink:href="#rim"/>
    <path pointer-events="none" fill="none" stroke="white" stroke-width="1.5" d="M0,-3.0v7 M-2.5,-0.5L0,-3.0L2.5,-0.5"/>
  </g>
  <g id="resetDef">
    <use xlink:href="#rim2" fill="#404040"><set attributeName="fill" to="#808080" begin="reset.mouseover" end="reset.mouseout"/></use>
  </g>
</defs>
<script type="application/ecmascript">
var viewWidth = 1561;
var viewHeight = 269;
var sectionId = 'dynsection-0';
</script>
<script type="application/ecmascript" xlink:href="../../svg.min.js"/>
<svg id="graph" class="graph">
<g id="viewport">
<title>src/storage/disk/disk_manager_memory.cpp</title>
<!-- Node1 -->
<g id="Node000001" class="node">
<title>Node1</title>
<g id="a_Node000001"><a xlink:title=" ">
<polygon fill="#999999" stroke="#666666" points="1129,-261 998,-261 998,-231 1129,-231 1129,-261"/>
<text text-anchor="start" x="1006" y="-249" font-family="Helvetica,sans-Serif" font-size="10.00">src/storage/disk/disk</text>
<text text-anchor="middle" x="1063.5" y="-238" font-family="Helvetica,sans-Serif" font-size="10.00">_manager_memory.cpp</text>
</a>
</g>
</g>
<!-- Node2 -->
<g id="Node000002" class="node">
<title>Node2</title>
<g id="a_Node000002"><a xlink:href="../../d9/d9e/disk__manager__memory_8h.html" target="_top" xlink:title=" ">
<polygon fill="white" stroke="#666666" points="1138,-195 989,-195 989,-165 1138,-165 1138,-195"/>
<text text-anchor="start" x="997" y="-183" font-family="Helvetica,sans-Serif" font-size="10.00">storage/disk/disk_manager</text>
<text text-anchor="middle" x="1063.5" y="-172" font-family="Helvetica,sans-Serif" font-size="10.00">_memory.h</text>
</a>
</g>
</g>
<!-- Node1&#45;&gt;Node2 -->
<g id="edge1_Node000001_Node000002" class="edge">
<title>Node1&#45;&gt;Node2</title>
<g id="a_edge1_Node000001_Node000002"><a xlink:title=" ">
<path fill="none" stroke="#63b8ff" d="M1063.5,-230.8C1063.5,-223.34 1063.5,-213.99 1063.5,-205.41"/>
<polygon fill="#63b8ff" stroke="#63b8ff" points="1067,-205.16 1063.5,-195.16 1060,-205.16 1067,-205.16"/>
</a>
</g>
</g>
<!-- Node5 -->
<g id="Node000005" class="node">
<title>Node5</title>
<g id="a_Node000005"><a xlink:title=" ">
<polygon fill="#e0e0e0" stroke="#999999" points="1486.5,-129 1436.5,-129 1436.5,-110 1486.5,-110 1486.5,-129"/>
<text text-anchor="middle" x="1461.5" y="-117" font-family="Helvetica,sans-Serif" font-size="10.00">cstring</text>
</a>
</g>
</g>
<!-- Node1&#45;&gt;Node5 -->
<g id="edge25_Node000001_Node000005" class="edge">
<title>Node1&#45;&gt;Node5</title>
<g id="a_edge25_Node000001_Node000005"><a xlink:title=" ">
<path fill="none" stroke="#63b8ff" d="M1087.73,-230.98C1104.43,-221.18 1127.03,-207.64 1146.5,-195 1166.05,-182.31 1167.86,-173.64 1189.5,-165 1285.86,-126.55 1320.5,-148.56 1426.2,-129.03"/>
<polygon fill="#63b8ff" stroke="#63b8ff" points="1427.15,-132.41 1436.31,-127.08 1425.83,-125.54 1427.15,-132.41"/>
</a>
</g>
</g>
<!-- Node10 -->
<g id="Node000010" class="node">
<title>Node10</title>
<g id="a_Node000010"><a xlink:title=" ">
<polygon fill="#e0e0e0" stroke="#999999" points="1552.5,-129 1504.5,-129 1504.5,-110 1552.5,-110 1552.5,-129"/>
<text text-anchor="middle" x="1528.5" y="-117" font-family="Helvetica,sans-Serif" font-size="10.00">thread</text>
</a>
</g>
</g>
<!-- Node1&#45;&gt;Node10 -->
<g id="edge28_Node000001_Node000010" class="edge">
<title>Node1&#45;&gt;Node10</title>
<g id="a_edge28_Node000001_Node000010"><a xlink:title=" ">
<path fill="none" stroke="#63b8ff" d="M1102.84,-230.96C1126.31,-221.95 1156.35,-209.28 1181.5,-195 1201.14,-183.85 1201.54,-173.4 1222.5,-165 1333.09,-120.65 1373.23,-150.63 1494.4,-128.94"/>
<polygon fill="#63b8ff" stroke="#63b8ff" points="1495.24,-132.34 1504.43,-127.06 1493.95,-125.46 1495.24,-132.34"/>
</a>
</g>
</g>
<!-- Node20 -->
<g id="Node000020" class="node">
<title>Node20</title>
<g id="a_Node000020"><a xlink:title=" ">
<polygon fill="#e0e0e0" stroke="#999999" points="189.5,-74 145.5,-74 145.5,-55 189.5,-55 189.5,-74"/>
<text text-anchor="middle" x="167.5" y="-62" font-family="Helvetica,sans-Serif" font-size="10.00">string</text>
</a>
</g>
</g>
<!-- Node1&#45;&gt;Node20 -->
<g id="edge27_Node000001_Node000020" class="edge">
<title>Node1&#45;&gt;Node20</title>
<g id="a_edge27_Node000001_Node000020"><a xlink:title=" ">
<path fill="none" stroke="#63b8ff" d="M997.82,-244.9C876.57,-243.66 609.83,-236.01 389.5,-195 289.98,-176.48 234.35,-208.36 171.5,-129 161.65,-116.56 161.59,-98.1 163.44,-84.28"/>
<polygon fill="#63b8ff" stroke="#63b8ff" points="166.89,-84.86 165.18,-74.4 160,-83.64 166.89,-84.86"/>
</a>
</g>
</g>
<!-- Node21 -->
<g id="Node000021" class="node">
<title>Node21</title>
<g id="a_Node000021"><a xlink:title=" ">
<polygon fill="#e0e0e0" stroke="#999999" points="1283.5,-189.5 1231.5,-189.5 1231.5,-170.5 1283.5,-170.5 1283.5,-189.5"/>
<text text-anchor="middle" x="1257.5" y="-177.5" font-family="Helvetica,sans-Serif" font-size="10.00">cassert</text>
</a>
</g>
</g>
<!-- Node1&#45;&gt;Node21 -->
<g id="edge23_Node000001_Node000021" class="edge">
<title>Node1&#45;&gt;Node21</title>
<g id="a_edge23_Node000001_Node000021"><a xlink:title=" ">
<path fill="none" stroke="#63b8ff" d="M1107.73,-230.93C1138.56,-221.06 1180.61,-207.44 1217.5,-195 1219.6,-194.29 1221.75,-193.56 1223.92,-192.81"/>
<polygon fill="#63b8ff" stroke="#63b8ff" points="1225.11,-196.11 1233.42,-189.53 1222.82,-189.49 1225.11,-196.11"/>
</a>
</g>
</g>
<!-- Node22 -->
<g id="Node000022" class="node">
<title>Node22</title>
<g id="a_Node000022"><a xlink:title=" ">
<polygon fill="#e0e0e0" stroke="#999999" points="1355,-189.5 1302,-189.5 1302,-170.5 1355,-170.5 1355,-189.5"/>
<text text-anchor="middle" x="1328.5" y="-177.5" font-family="Helvetica,sans-Serif" font-size="10.00">cstddef</text>
</a>
</g>
</g>
<!-- Node1&#45;&gt;Node22 -->
<g id="edge24_Node000001_Node000022" class="edge">
<title>Node1&#45;&gt;Node22</title>
<g id="a_edge24_Node000001_Node000022"><a xlink:title=" ">
<path fill="none" stroke="#63b8ff" d="M1129.34,-233.45C1175.49,-224.67 1238.35,-211.33 1292.5,-195 1294.43,-194.42 1296.4,-193.78 1298.37,-193.11"/>
<polygon fill="#63b8ff" stroke="#63b8ff" points="1299.93,-196.27 1308.13,-189.56 1297.54,-189.69 1299.93,-196.27"/>
</a>
</g>
</g>
<!-- Node23 -->
<g id="Node000023" class="node">
<title>Node23</title>
<g id="a_Node000023"><a xlink:title=" ">
<polygon fill="#e0e0e0" stroke="#999999" points="599.5,-129 539.5,-129 539.5,-110 599.5,-110 599.5,-129"/>
<text text-anchor="middle" x="569.5" y="-117" font-family="Helvetica,sans-Serif" font-size="10.00">iostream</text>
</a>
</g>
</g>
<!-- Node1&#45;&gt;Node23 -->
<g id="edge26_Node000001_Node000023" class="edge">
<title>Node1&#45;&gt;Node23</title>
<g id="a_edge26_Node000001_Node000023"><a xlink:title=" ">
<path fill="none" stroke="#63b8ff" d="M1007.79,-230.96C907.18,-205.6 697.48,-152.75 609.6,-130.61"/>
<polygon fill="#63b8ff" stroke="#63b8ff" points="610.3,-127.17 599.75,-128.12 608.59,-133.96 610.3,-127.17"/>
</a>
</g>
</g>
<!-- Node24 -->
<g id="Node000024" class="node">
<title>Node24</title>
<g id="a_Node000024"><a xlink:href="../../dd/d2d/exception_8h.html" target="_top" xlink:title=" ">
<polygon fill="white" stroke="#666666" points="518,-189.5 399,-189.5 399,-170.5 518,-170.5 518,-189.5"/>
<text text-anchor="middle" x="458.5" y="-177.5" font-family="Helvetica,sans-Serif" font-size="10.00">common/exception.h</text>
</a>
</g>
</g>
<!-- Node1&#45;&gt;Node24 -->
<g id="edge29_Node000001_Node000024" class="edge">
<title>Node1&#45;&gt;Node24</title>
<g id="a_edge29_Node000001_Node000024"><a xlink:title=" ">
<path fill="none" stroke="#63b8ff" d="M997.89,-238.06C882.86,-225.89 645.84,-200.82 528.07,-188.36"/>
<polygon fill="#63b8ff" stroke="#63b8ff" points="528.4,-184.87 518.08,-187.3 527.66,-191.84 528.4,-184.87"/>
</a>
</g>
</g>
<!-- Node30 -->
<g id="Node000030" class="node">
<title>Node30</title>
<g id="a_Node000030"><a xlink:href="../../d1/d8c/logger_8h.html" target="_top" xlink:title=" ">
<polygon fill="white" stroke="#666666" points="101,-189.5 0,-189.5 0,-170.5 101,-170.5 101,-189.5"/>
<text text-anchor="middle" x="50.5" y="-177.5" font-family="Helvetica,sans-Serif" font-size="10.00">common/logger.h</text>
</a>
</g>
</g>
<!-- Node1&#45;&gt;Node30 -->
<g id="edge41_Node000001_Node000030" class="edge">
<title>Node1&#45;&gt;Node30</title>
<g id="a_edge41_Node000001_Node000030"><a xlink:title=" ">
<path fill="none" stroke="#63b8ff" d="M997.94,-245.13C843.48,-244.65 444.89,-238.87 115.5,-195 108.81,-194.11 101.79,-192.9 94.93,-191.55"/>
<polygon fill="#63b8ff" stroke="#63b8ff" points="95.57,-188.11 85.07,-189.51 94.15,-194.96 95.57,-188.11"/>
</a>
</g>
</g>
<!-- Node3 -->
<g id="Node000003" class="node">
<title>Node3</title>
<g id="a_Node000003"><a xlink:title=" ">
<polygon fill="#e0e0e0" stroke="#999999" points="859.5,-129 817.5,-129 817.5,-110 859.5,-110 859.5,-129"/>
<text text-anchor="middle" x="838.5" y="-117" font-family="Helvetica,sans-Serif" font-size="10.00">array</text>
</a>
</g>
</g>
<!-- Node2&#45;&gt;Node3 -->
<g id="edge2_Node000002_Node000003" class="edge">
<title>Node2&#45;&gt;Node3</title>
<g id="a_edge2_Node000002_Node000003"><a xlink:title=" ">
<path fill="none" stroke="#63b8ff" d="M1007.08,-164.93C970.38,-155.69 921.23,-143.14 869.48,-129.22"/>
<polygon fill="#63b8ff" stroke="#63b8ff" points="870.35,-125.83 859.79,-126.6 868.53,-132.59 870.35,-125.83"/>
</a>
</g>
</g>
<!-- Node4 -->
<g id="Node000004" class="node">
<title>Node4</title>
<g id="a_Node000004"><a xlink:title=" ">
<polygon fill="#e0e0e0" stroke="#999999" points="927.5,-19 877.5,-19 877.5,0 927.5,0 927.5,-19"/>
<text text-anchor="middle" x="902.5" y="-7" font-family="Helvetica,sans-Serif" font-size="10.00">chrono</text>
</a>
</g>
</g>
<!-- Node2&#45;&gt;Node4 -->
<g id="edge3_Node000002_Node000004" class="edge">
<title>Node2&#45;&gt;Node4</title>
<g id="a_edge3_Node000002_Node000004"><a xlink:title=" ">
<path fill="none" stroke="#63b8ff" d="M1069.81,-165C1080,-140.04 1096.52,-87.46 1071.5,-55 1055.3,-33.98 982.29,-20.9 937.7,-14.73"/>
<polygon fill="#63b8ff" stroke="#63b8ff" points="937.95,-11.24 927.57,-13.38 937.02,-18.17 937.95,-11.24"/>
</a>
</g>
</g>
<!-- Node2&#45;&gt;Node5 -->
<g id="edge4_Node000002_Node000005" class="edge">
<title>Node2&#45;&gt;Node5</title>
<g id="a_edge4_Node000002_Node000005"><a xlink:title=" ">
<path fill="none" stroke="#63b8ff" d="M1138.37,-166.94C1142.81,-166.27 1147.21,-165.62 1151.5,-165 1270.7,-147.75 1304.21,-151.8 1426.21,-129.05"/>
<polygon fill="#63b8ff" stroke="#63b8ff" points="1427.14,-132.43 1436.32,-127.14 1425.84,-125.55 1427.14,-132.43"/>
</a>
</g>
</g>
<!-- Node6 -->
<g id="Node000006" class="node">
<title>Node6</title>
<g id="a_Node000006"><a xlink:title=" ">
<polygon fill="#e0e0e0" stroke="#999999" points="675.5,-129 617.5,-129 617.5,-110 675.5,-110 675.5,-129"/>
<text text-anchor="middle" x="646.5" y="-117" font-family="Helvetica,sans-Serif" font-size="10.00">memory</text>
</a>
</g>
</g>
<!-- Node2&#45;&gt;Node6 -->
<g id="edge5_Node000002_Node000006" class="edge">
<title>Node2&#45;&gt;Node6</title>
<g id="a_edge5_Node000002_Node000006"><a xlink:title=" ">
<path fill="none" stroke="#63b8ff" d="M988.79,-170.4C913.15,-161.37 792.91,-146.12 689.5,-129 688.23,-128.79 686.95,-128.57 685.65,-128.35"/>
<polygon fill="#63b8ff" stroke="#63b8ff" points="686.07,-124.86 675.6,-126.51 684.81,-131.75 686.07,-124.86"/>
</a>
</g>
</g>
<!-- Node7 -->
<g id="Node000007" class="node">
<title>Node7</title>
<g id="a_Node000007"><a xlink:title=" ">
<polygon fill="#e0e0e0" stroke="#999999" points="1062.5,-74 1014.5,-74 1014.5,-55 1062.5,-55 1062.5,-74"/>
<text text-anchor="middle" x="1038.5" y="-62" font-family="Helvetica,sans-Serif" font-size="10.00">mutex</text>
</a>
</g>
</g>
<!-- Node2&#45;&gt;Node7 -->
<g id="edge6_Node000002_Node000007" class="edge">
<title>Node2&#45;&gt;Node7</title>
<g id="a_edge6_Node000002_Node000007"><a xlink:title=" ">
<path fill="none" stroke="#63b8ff" d="M1060.33,-164.63C1055.84,-144.21 1047.6,-106.81 1042.63,-84.24"/>
<polygon fill="#63b8ff" stroke="#63b8ff" points="1045.99,-83.24 1040.42,-74.23 1039.16,-84.75 1045.99,-83.24"/>
</a>
</g>
</g>
<!-- Node8 -->
<g id="Node000008" class="node">
<title>Node8</title>
<g id="a_Node000008"><a xlink:title=" ">
<polygon fill="#e0e0e0" stroke="#999999" points="1185.5,-129 1129.5,-129 1129.5,-110 1185.5,-110 1185.5,-129"/>
<text text-anchor="middle" x="1157.5" y="-117" font-family="Helvetica,sans-Serif" font-size="10.00">optional</text>
</a>
</g>
</g>
<!-- Node2&#45;&gt;Node8 -->
<g id="edge7_Node000002_Node000008" class="edge">
<title>Node2&#45;&gt;Node8</title>
<g id="a_edge7_Node000002_Node000008"><a xlink:title=" ">
<path fill="none" stroke="#63b8ff" d="M1086.25,-164.84C1101.1,-155.6 1120.4,-143.59 1135.16,-134.4"/>
<polygon fill="#63b8ff" stroke="#63b8ff" points="1137.05,-137.35 1143.69,-129.09 1133.35,-131.41 1137.05,-137.35"/>
</a>
</g>
</g>
<!-- Node9 -->
<g id="Node000009" class="node">
<title>Node9</title>
<g id="a_Node000009"><a xlink:title=" ">
<polygon fill="#e0e0e0" stroke="#999999" points="1289.5,-129 1203.5,-129 1203.5,-110 1289.5,-110 1289.5,-129"/>
<text text-anchor="middle" x="1246.5" y="-117" font-family="Helvetica,sans-Serif" font-size="10.00">shared_mutex</text>
</a>
</g>
</g>
<!-- Node2&#45;&gt;Node9 -->
<g id="edge8_Node000002_Node000009" class="edge">
<title>Node2&#45;&gt;Node9</title>
<g id="a_edge8_Node000002_Node000009"><a xlink:title=" ">
<path fill="none" stroke="#63b8ff" d="M1107.33,-164.99C1138.64,-154.98 1180.28,-141.67 1209.83,-132.22"/>
<polygon fill="#63b8ff" stroke="#63b8ff" points="1211.28,-135.43 1219.74,-129.05 1209.15,-128.76 1211.28,-135.43"/>
</a>
</g>
</g>
<!-- Node2&#45;&gt;Node10 -->
<g id="edge9_Node000002_Node000010" class="edge">
<title>Node2&#45;&gt;Node10</title>
<g id="a_edge9_Node000002_Node000010"><a xlink:title=" ">
<path fill="none" stroke="#63b8ff" d="M1138.38,-170.6C1247.89,-158.29 1443.51,-136.14 1494.55,-128.7"/>
<polygon fill="#63b8ff" stroke="#63b8ff" points="1495.12,-132.15 1504.43,-127.1 1494.01,-125.24 1495.12,-132.15"/>
</a>
</g>
</g>
<!-- Node11 -->
<g id="Node000011" class="node">
<title>Node11</title>
<g id="a_Node000011"><a xlink:title=" ">
<polygon fill="#e0e0e0" stroke="#999999" points="1353,-129 1308,-129 1308,-110 1353,-110 1353,-129"/>
<text text-anchor="middle" x="1330.5" y="-117" font-family="Helvetica,sans-Serif" font-size="10.00">utility</text>
</a>
</g>
</g>
<!-- Node2&#45;&gt;Node11 -->
<g id="edge10_Node000002_Node000011" class="edge">
<title>Node2&#45;&gt;Node11</title>
<g id="a_edge10_Node000002_Node000011"><a xlink:title=" ">
<path fill="none" stroke="#63b8ff" d="M1133.89,-164.98C1178.31,-155.91 1237.1,-143.5 1298.02,-129.02"/>
<polygon fill="#63b8ff" stroke="#63b8ff" points="1298.9,-132.41 1307.81,-126.68 1297.27,-125.6 1298.9,-132.41"/>
</a>
</g>
</g>
<!-- Node12 -->
<g id="Node000012" class="node">
<title>Node12</title>
<g id="a_Node000012"><a xlink:title=" ">
<polygon fill="#e0e0e0" stroke="#999999" points="1418,-129 1371,-129 1371,-110 1418,-110 1418,-129"/>
<text text-anchor="middle" x="1394.5" y="-117" font-family="Helvetica,sans-Serif" font-size="10.00">vector</text>
</a>
</g>
</g>
<!-- Node2&#45;&gt;Node12 -->
<g id="edge11_Node000002_Node000012" class="edge">
<title>Node2&#45;&gt;Node12</title>
<g id="a_edge11_Node000002_Node000012"><a xlink:title=" ">
<path fill="none" stroke="#63b8ff" d="M1138.27,-166.87C1212.45,-154.79 1319.93,-137.11 1360.9,-129.1"/>
<polygon fill="#63b8ff" stroke="#63b8ff" points="1361.7,-132.5 1370.79,-127.06 1360.29,-125.65 1361.7,-132.5"/>
</a>
</g>
</g>
<!-- Node13 -->
<g id="Node000013" class="node">
<title>Node13</title>
<g id="a_Node000013"><a xlink:href="../../db/d16/config_8h.html" target="_top" xlink:title=" ">
<polygon fill="white" stroke="#666666" points="754,-74 653,-74 653,-55 754,-55 754,-74"/>
<text text-anchor="middle" x="703.5" y="-62" font-family="Helvetica,sans-Serif" font-size="10.00">common/config.h</text>
</a>
</g>
</g>
<!-- Node2&#45;&gt;Node13 -->
<g id="edge12_Node000002_Node000013" class="edge">
<title>Node2&#45;&gt;Node13</title>
<g id="a_edge12_Node000002_Node000013"><a xlink:title=" ">
<path fill="none" stroke="#63b8ff" d="M988.87,-177.2C900.76,-173.56 761.26,-162.51 722.5,-129 709.72,-117.96 705.35,-98.7 703.95,-84.29"/>
<polygon fill="#63b8ff" stroke="#63b8ff" points="707.42,-83.79 703.35,-74.01 700.44,-84.19 707.42,-83.79"/>
</a>
</g>
</g>
<!-- Node16 -->
<g id="Node000016" class="node">
<title>Node16</title>
<g id="a_Node000016"><a xlink:title=" ">
<polygon fill="#e0e0e0" stroke="#999999" points="799,-129 732,-129 732,-110 799,-110 799,-129"/>
<text text-anchor="middle" x="765.5" y="-117" font-family="Helvetica,sans-Serif" font-size="10.00">fmt/core.h</text>
</a>
</g>
</g>
<!-- Node2&#45;&gt;Node16 -->
<g id="edge16_Node000002_Node000016" class="edge">
<title>Node2&#45;&gt;Node16</title>
<g id="a_edge16_Node000002_Node000016"><a xlink:title=" ">
<path fill="none" stroke="#63b8ff" d="M991.77,-164.97C943.07,-155.43 876.91,-142.46 809.29,-129.15"/>
<polygon fill="#63b8ff" stroke="#63b8ff" points="809.79,-125.68 799.3,-127.19 808.44,-132.55 809.79,-125.68"/>
</a>
</g>
</g>
<!-- Node17 -->
<g id="Node000017" class="node">
<title>Node17</title>
<g id="a_Node000017"><a xlink:href="../../d6/d30/disk__manager_8h.html" target="_top" xlink:title=" ">
<polygon fill="white" stroke="#666666" points="1035,-129 878,-129 878,-110 1035,-110 1035,-129"/>
<text text-anchor="middle" x="956.5" y="-117" font-family="Helvetica,sans-Serif" font-size="10.00">storage/disk/disk_manager.h</text>
</a>
</g>
</g>
<!-- Node2&#45;&gt;Node17 -->
<g id="edge17_Node000002_Node000017" class="edge">
<title>Node2&#45;&gt;Node17</title>
<g id="a_edge17_Node000002_Node000017"><a xlink:title=" ">
<path fill="none" stroke="#63b8ff" d="M1037.87,-164.99C1020.66,-155.58 998.1,-143.24 981.1,-133.95"/>
<polygon fill="#63b8ff" stroke="#63b8ff" points="982.75,-130.87 972.3,-129.14 979.4,-137.01 982.75,-130.87"/>
</a>
</g>
</g>
<!-- Node13&#45;&gt;Node4 -->
<g id="edge14_Node000013_Node000004" class="edge">
<title>Node13&#45;&gt;Node4</title>
<g id="a_edge14_Node000013_Node000004"><a xlink:title=" ">
<path fill="none" stroke="#63b8ff" d="M735.47,-54.98C771.53,-45.38 829.98,-29.82 867.3,-19.87"/>
<polygon fill="#63b8ff" stroke="#63b8ff" points="868.47,-23.18 877.23,-17.23 866.67,-16.42 868.47,-23.18"/>
</a>
</g>
</g>
<!-- Node14 -->
<g id="Node000014" class="node">
<title>Node14</title>
<g id="a_Node000014"><a xlink:title=" ">
<polygon fill="#e0e0e0" stroke="#999999" points="572.5,-19 522.5,-19 522.5,0 572.5,0 572.5,-19"/>
<text text-anchor="middle" x="547.5" y="-7" font-family="Helvetica,sans-Serif" font-size="10.00">atomic</text>
</a>
</g>
</g>
<!-- Node13&#45;&gt;Node14 -->
<g id="edge13_Node000013_Node000014" class="edge">
<title>Node13&#45;&gt;Node14</title>
<g id="a_edge13_Node000013_Node000014"><a xlink:title=" ">
<path fill="none" stroke="#63b8ff" d="M678.44,-54.98C652.39,-46.14 611.45,-32.23 582.28,-22.32"/>
<polygon fill="#63b8ff" stroke="#63b8ff" points="583.1,-18.9 572.5,-18.99 580.84,-25.53 583.1,-18.9"/>
</a>
</g>
</g>
<!-- Node15 -->
<g id="Node000015" class="node">
<title>Node15</title>
<g id="a_Node000015"><a xlink:title=" ">
<polygon fill="#e0e0e0" stroke="#999999" points="490.5,-19 440.5,-19 440.5,0 490.5,0 490.5,-19"/>
<text text-anchor="middle" x="465.5" y="-7" font-family="Helvetica,sans-Serif" font-size="10.00">cstdint</text>
</a>
</g>
</g>
<!-- Node13&#45;&gt;Node15 -->
<g id="edge15_Node000013_Node000015" class="edge">
<title>Node13&#45;&gt;Node15</title>
<g id="a_edge15_Node000013_Node000015"><a xlink:title=" ">
<path fill="none" stroke="#63b8ff" d="M665.26,-54.98C619.76,-44.85 544.45,-28.08 500.45,-18.28"/>
<polygon fill="#63b8ff" stroke="#63b8ff" points="501.02,-14.83 490.5,-16.07 499.5,-21.66 501.02,-14.83"/>
</a>
</g>
</g>
<!-- Node17&#45;&gt;Node7 -->
<g id="edge20_Node000017_Node000007" class="edge">
<title>Node17&#45;&gt;Node7</title>
<g id="a_edge20_Node000017_Node000007"><a xlink:title=" ">
<path fill="none" stroke="#63b8ff" d="M969.67,-109.98C982.27,-101.84 1001.5,-89.41 1016.44,-79.76"/>
<polygon fill="#63b8ff" stroke="#63b8ff" points="1018.59,-82.54 1025.09,-74.17 1014.79,-76.66 1018.59,-82.54"/>
</a>
</g>
</g>
<!-- Node17&#45;&gt;Node13 -->
<g id="edge22_Node000017_Node000013" class="edge">
<title>Node17&#45;&gt;Node13</title>
<g id="a_edge22_Node000017_Node000013"><a xlink:title=" ">
<path fill="none" stroke="#63b8ff" d="M915.85,-109.98C872,-100.8 802.08,-86.15 754.55,-76.19"/>
<polygon fill="#63b8ff" stroke="#63b8ff" points="754.97,-72.71 744.47,-74.08 753.54,-79.56 754.97,-72.71"/>
</a>
</g>
</g>
<!-- Node18 -->
<g id="Node000018" class="node">
<title>Node18</title>
<g id="a_Node000018"><a xlink:title=" ">
<polygon fill="#e0e0e0" stroke="#999999" points="990,-74 935,-74 935,-55 990,-55 990,-74"/>
<text text-anchor="middle" x="962.5" y="-62" font-family="Helvetica,sans-Serif" font-size="10.00">fstream</text>
</a>
</g>
</g>
<!-- Node17&#45;&gt;Node18 -->
<g id="edge18_Node000017_Node000018" class="edge">
<title>Node17&#45;&gt;Node18</title>
<g id="a_edge18_Node000017_Node000018"><a xlink:title=" ">
<path fill="none" stroke="#63b8ff" d="M957.49,-109.75C958.28,-102.8 959.4,-92.85 960.39,-84.13"/>
<polygon fill="#63b8ff" stroke="#63b8ff" points="963.88,-84.42 961.53,-74.09 956.92,-83.63 963.88,-84.42"/>
</a>
</g>
</g>
<!-- Node19 -->
<g id="Node000019" class="node">
<title>Node19</title>
<g id="a_Node000019"><a xlink:title=" ">
<polygon fill="#e0e0e0" stroke="#999999" points="916.5,-74 870.5,-74 870.5,-55 916.5,-55 916.5,-74"/>
<text text-anchor="middle" x="893.5" y="-62" font-family="Helvetica,sans-Serif" font-size="10.00">future</text>
</a>
</g>
</g>
<!-- Node17&#45;&gt;Node19 -->
<g id="edge19_Node000017_Node000019" class="edge">
<title>Node17&#45;&gt;Node19</title>
<g id="a_edge19_Node000017_Node000019"><a xlink:title=" ">
<path fill="none" stroke="#63b8ff" d="M946.38,-109.98C937.06,-102.15 923.03,-90.34 911.76,-80.86"/>
<polygon fill="#63b8ff" stroke="#63b8ff" points="913.71,-77.93 903.81,-74.17 909.21,-83.29 913.71,-77.93"/>
</a>
</g>
</g>
<!-- Node17&#45;&gt;Node20 -->
<g id="edge21_Node000017_Node000020" class="edge">
<title>Node17&#45;&gt;Node20</title>
<g id="a_edge21_Node000017_Node000020"><a xlink:title=" ">
<path fill="none" stroke="#63b8ff" d="M877.83,-110.76C874.68,-110.49 871.56,-110.24 868.5,-110 599.95,-89.05 532.13,-93.88 263.5,-74 242.2,-72.42 218.27,-70.31 199.63,-68.58"/>
<polygon fill="#63b8ff" stroke="#63b8ff" points="199.88,-65.09 189.6,-67.64 199.23,-72.06 199.88,-65.09"/>
</a>
</g>
</g>
<!-- Node24&#45;&gt;Node6 -->
<g id="edge34_Node000024_Node000006" class="edge">
<title>Node24&#45;&gt;Node6</title>
<g id="a_edge34_Node000024_Node000006"><a xlink:title=" ">
<path fill="none" stroke="#63b8ff" d="M485.84,-170.49C518.42,-160.36 573.01,-143.37 609.39,-132.05"/>
<polygon fill="#63b8ff" stroke="#63b8ff" points="610.62,-135.33 619.13,-129.02 608.54,-128.65 610.62,-135.33"/>
</a>
</g>
</g>
<!-- Node24&#45;&gt;Node14 -->
<g id="edge30_Node000024_Node000014" class="edge">
<title>Node24&#45;&gt;Node14</title>
<g id="a_edge30_Node000024_Node000014"><a xlink:title=" ">
<path fill="none" stroke="#63b8ff" d="M464.73,-170.39C471.67,-160.6 483.04,-144.05 491.5,-129 510.95,-94.43 529.87,-52 539.97,-28.44"/>
<polygon fill="#63b8ff" stroke="#63b8ff" points="543.28,-29.61 543.96,-19.04 536.83,-26.88 543.28,-29.61"/>
</a>
</g>
</g>
<!-- Node24&#45;&gt;Node20 -->
<g id="edge36_Node000024_Node000020" class="edge">
<title>Node24&#45;&gt;Node20</title>
<g id="a_edge36_Node000024_Node000020"><a xlink:title=" ">
<path fill="none" stroke="#63b8ff" d="M398.87,-175.21C328.48,-169.55 217.11,-156.44 186.5,-129 174.06,-117.85 169.62,-98.92 168.11,-84.62"/>
<polygon fill="#63b8ff" stroke="#63b8ff" points="171.58,-84.13 167.42,-74.39 164.6,-84.6 171.58,-84.13"/>
</a>
</g>
</g>
<!-- Node24&#45;&gt;Node23 -->
<g id="edge33_Node000024_Node000023" class="edge">
<title>Node24&#45;&gt;Node23</title>
<g id="a_edge33_Node000024_Node000023"><a xlink:title=" ">
<path fill="none" stroke="#63b8ff" d="M474.88,-170.37C493.08,-160.78 522.7,-145.17 543.95,-133.97"/>
<polygon fill="#63b8ff" stroke="#63b8ff" points="545.84,-136.93 553.05,-129.17 542.58,-130.73 545.84,-136.93"/>
</a>
</g>
</g>
<!-- Node25 -->
<g id="Node000025" class="node">
<title>Node25</title>
<g id="a_Node000025"><a xlink:title=" ">
<polygon fill="#e0e0e0" stroke="#999999" points="415.5,-129 369.5,-129 369.5,-110 415.5,-110 415.5,-129"/>
<text text-anchor="middle" x="392.5" y="-117" font-family="Helvetica,sans-Serif" font-size="10.00">cstdio</text>
</a>
</g>
</g>
<!-- Node24&#45;&gt;Node25 -->
<g id="edge31_Node000024_Node000025" class="edge">
<title>Node24&#45;&gt;Node25</title>
<g id="a_edge31_Node000024_Node000025"><a xlink:title=" ">
<path fill="none" stroke="#63b8ff" d="M448.76,-170.37C438.53,-161.3 422.21,-146.84 409.78,-135.82"/>
<polygon fill="#63b8ff" stroke="#63b8ff" points="412.08,-133.18 402.28,-129.17 407.44,-138.42 412.08,-133.18"/>
</a>
</g>
</g>
<!-- Node26 -->
<g id="Node000026" class="node">
<title>Node26</title>
<g id="a_Node000026"><a xlink:title=" ">
<polygon fill="#e0e0e0" stroke="#999999" points="483,-129 434,-129 434,-110 483,-110 483,-129"/>
<text text-anchor="middle" x="458.5" y="-117" font-family="Helvetica,sans-Serif" font-size="10.00">cstdlib</text>
</a>
</g>
</g>
<!-- Node24&#45;&gt;Node26 -->
<g id="edge32_Node000024_Node000026" class="edge">
<title>Node24&#45;&gt;Node26</title>
<g id="a_edge32_Node000024_Node000026"><a xlink:title=" ">
<path fill="none" stroke="#63b8ff" d="M458.5,-170.37C458.5,-162.25 458.5,-149.81 458.5,-139.39"/>
<polygon fill="#63b8ff" stroke="#63b8ff" points="462,-139.17 458.5,-129.17 455,-139.17 462,-139.17"/>
</a>
</g>
</g>
<!-- Node27 -->
<g id="Node000027" class="node">
<title>Node27</title>
<g id="a_Node000027"><a xlink:title=" ">
<polygon fill="#e0e0e0" stroke="#999999" points="261,-129 196,-129 196,-110 261,-110 261,-129"/>
<text text-anchor="middle" x="228.5" y="-117" font-family="Helvetica,sans-Serif" font-size="10.00">stdexcept</text>
</a>
</g>
</g>
<!-- Node24&#45;&gt;Node27 -->
<g id="edge35_Node000024_Node000027" class="edge">
<title>Node24&#45;&gt;Node27</title>
<g id="a_edge35_Node000024_Node000027"><a xlink:title=" ">
<path fill="none" stroke="#63b8ff" d="M425.06,-170.49C384.37,-160.15 315.62,-142.66 271.16,-131.35"/>
<polygon fill="#63b8ff" stroke="#63b8ff" points="271.79,-127.9 261.24,-128.83 270.07,-134.68 271.79,-127.9"/>
</a>
</g>
</g>
<!-- Node28 -->
<g id="Node000028" class="node">
<title>Node28</title>
<g id="a_Node000028"><a xlink:href="../../df/def/type_8h.html" target="_top" xlink:title=" ">
<polygon fill="white" stroke="#666666" points="351.5,-129 279.5,-129 279.5,-110 351.5,-110 351.5,-129"/>
<text text-anchor="middle" x="315.5" y="-117" font-family="Helvetica,sans-Serif" font-size="10.00">type/type.h</text>
</a>
</g>
</g>
<!-- Node24&#45;&gt;Node28 -->
<g id="edge37_Node000024_Node000028" class="edge">
<title>Node24&#45;&gt;Node28</title>
<g id="a_edge37_Node000024_Node000028"><a xlink:title=" ">
<path fill="none" stroke="#63b8ff" d="M437.71,-170.49C413.56,-160.62 373.52,-144.23 345.88,-132.93"/>
<polygon fill="#63b8ff" stroke="#63b8ff" points="346.9,-129.56 336.32,-129.02 344.25,-136.04 346.9,-129.56"/>
</a>
</g>
</g>
<!-- Node28&#45;&gt;Node15 -->
<g id="edge38_Node000028_Node000015" class="edge">
<title>Node28&#45;&gt;Node15</title>
<g id="a_edge38_Node000028_Node000015"><a xlink:title=" ">
<path fill="none" stroke="#63b8ff" d="M327.52,-109.84C353.19,-91.36 413.61,-47.86 445.3,-25.05"/>
<polygon fill="#63b8ff" stroke="#63b8ff" points="447.35,-27.88 453.42,-19.2 443.26,-22.2 447.35,-27.88"/>
</a>
</g>
</g>
<!-- Node28&#45;&gt;Node20 -->
<g id="edge39_Node000028_Node000020" class="edge">
<title>Node28&#45;&gt;Node20</title>
<g id="a_edge39_Node000028_Node000020"><a xlink:title=" ">
<path fill="none" stroke="#63b8ff" d="M291.72,-109.98C266.69,-101.02 227.13,-86.86 199.4,-76.92"/>
<polygon fill="#63b8ff" stroke="#63b8ff" points="200.36,-73.55 189.77,-73.47 198,-80.14 200.36,-73.55"/>
</a>
</g>
</g>
<!-- Node29 -->
<g id="Node000029" class="node">
<title>Node29</title>
<g id="a_Node000029"><a xlink:href="../../dc/df2/type__id_8h.html" target="_top" xlink:title=" ">
<polygon fill="white" stroke="#666666" points="358.5,-74 272.5,-74 272.5,-55 358.5,-55 358.5,-74"/>
<text text-anchor="middle" x="315.5" y="-62" font-family="Helvetica,sans-Serif" font-size="10.00">type/type_id.h</text>
</a>
</g>
</g>
<!-- Node28&#45;&gt;Node29 -->
<g id="edge40_Node000028_Node000029" class="edge">
<title>Node28&#45;&gt;Node29</title>
<g id="a_edge40_Node000028_Node000029"><a xlink:title=" ">
<path fill="none" stroke="#63b8ff" d="M315.5,-109.75C315.5,-102.8 315.5,-92.85 315.5,-84.13"/>
<polygon fill="#63b8ff" stroke="#63b8ff" points="319,-84.09 315.5,-74.09 312,-84.09 319,-84.09"/>
</a>
</g>
</g>
<!-- Node30&#45;&gt;Node20 -->
<g id="edge43_Node000030_Node000020" class="edge">
<title>Node30&#45;&gt;Node20</title>
<g id="a_edge43_Node000030_Node000020"><a xlink:title=" ">
<path fill="none" stroke="#63b8ff" d="M58.22,-170.22C70.11,-156.82 93.82,-130.67 115.5,-110 126.25,-99.75 138.9,-88.9 149.03,-80.48"/>
<polygon fill="#63b8ff" stroke="#63b8ff" points="151.35,-83.1 156.85,-74.05 146.91,-77.7 151.35,-83.1"/>
</a>
</g>
</g>
<!-- Node31 -->
<g id="Node000031" class="node">
<title>Node31</title>
<g id="a_Node000031"><a xlink:title=" ">
<polygon fill="#e0e0e0" stroke="#999999" points="63.5,-129 19.5,-129 19.5,-110 63.5,-110 63.5,-129"/>
<text text-anchor="middle" x="41.5" y="-117" font-family="Helvetica,sans-Serif" font-size="10.00">ctime</text>
</a>
</g>
</g>
<!-- Node30&#45;&gt;Node31 -->
<g id="edge42_Node000030_Node000031" class="edge">
<title>Node30&#45;&gt;Node31</title>
<g id="a_edge42_Node000030_Node000031"><a xlink:title=" ">
<path fill="none" stroke="#63b8ff" d="M49.17,-170.37C47.91,-162.16 45.97,-149.54 44.35,-139.05"/>
<polygon fill="#63b8ff" stroke="#63b8ff" points="47.81,-138.52 42.83,-129.17 40.89,-139.58 47.81,-138.52"/>
</a>
</g>
</g>
</g>
</svg>

<g id="navigator" transform="translate(0 0)" fill="#404254">
  <rect fill="#f2f5e9" fill-opacity="0.5" stroke="#606060" stroke-width=".5" x="0" y="0" width="60" height="60"/>
  <use id="zoomplus" xlink:href="#zoomPlus" x="17" y="9" onmousedown="handleZoom(evt,'in')"/>
  <use id="zoomminus" xlink:href="#zoomMin" x="42" y="9" onmousedown="handleZoom(evt,'out')"/>
  <use id="reset" xlink:href="#resetDef" x="30" y="36" onmousedown="handleReset()"/>
   <use id="arrowup" xlink:href="#arrowUp" x="0" y="0" onmousedown="handlePan(0,-1)"/>
  <use id="arrowright" xlink:href="#arrowRight" x="0" y="0" onmousedown="handlePan(1,0)"/>
  <use id="arrowdown" xlink:href="#arrowDown" x="0" y="0" onmousedown="handlePan(0,1)"/>
  <use id="arrowleft" xlink:href="#arrowLeft" x="0" y="0" onmousedown="handlePan(-1,0)"/>
</g>
<svg viewBox="0 0 15 15" width="100%" height="30px" preserveAspectRatio="xMaxYMin meet">
 <g id="arrow_out" transform="scale(0.3 0.3)">
  <a xlink:href="disk__manager__memory_8cpp__incl_org.svg" target="_base">
   <rect id="button" ry="5" rx="5" y="6" x="6" height="38" width="38"
        fill="#f2f5e9" fill-opacity="0.5" stroke="#606060" stroke-width="1.0"/>
   <path id="arrow"
     d="M 11.500037,31.436501 C 11.940474,20.09759 22.043105,11.32322 32.158766,21.979434 L 37.068811,17.246167 C 37.068811,17.246167 37.088388,32 37.088388,32 L 22.160133,31.978069 C 22.160133,31.978069 26.997745,27.140456 26.997745,27.140456 C 18.528582,18.264221 13.291696,25.230495 11.500037,31.436501 z"
     style="fill:#404040;"/>
  </a>
 </g>
</svg>

<style type='text/css'>
<![CDATA[
[data-mouse-over-selected='false'] { opacity: 0.7; }
[data-mouse-over-selected='true']  { opacity: 1.0; }
]]>
</style>
<script type="application/ecmascript"><![CDATA[
document.addEventListener('DOMContentLoaded', (event) => {
  highlightEdges();
  highlightAdjacentNodes();
});
]]></script>
</svg>
