<?xml version="1.0" encoding="UTF-8" standalone="no"?>
<!DOCTYPE svg PUBLIC "-//W3C//DTD SVG 1.1//EN"
 "http://www.w3.org/Graphics/SVG/1.1/DTD/svg11.dtd">
<!-- Generated by graphviz version 2.43.0 (0)
 -->
<!-- Title: src/include/execution/plans/aggregation_plan.h Pages: 1 -->
<svg width="2117pt" height="181pt"
 viewBox="0.00 0.00 2116.50 181.00" xmlns="http://www.w3.org/2000/svg" xmlns:xlink="http://www.w3.org/1999/xlink">
<g id="graph0" class="graph" transform="scale(1 1) rotate(0) translate(4 177)">
<title>src/include/execution/plans/aggregation_plan.h</title>
<!-- Node1 -->
<g id="Node000001" class="node">
<title>Node1</title>
<g id="a_Node000001"><a xlink:title=" ">
<polygon fill="#999999" stroke="#666666" points="768.5,-173 625.5,-173 625.5,-143 768.5,-143 768.5,-173"/>
<text text-anchor="start" x="633.5" y="-161" font-family="Helvetica,sans-Serif" font-size="10.00">src/include/execution</text>
<text text-anchor="middle" x="697" y="-150" font-family="Helvetica,sans-Serif" font-size="10.00">/plans/aggregation_plan.h</text>
</a>
</g>
</g>
<!-- Node2 -->
<g id="Node000002" class="node">
<title>Node2</title>
<g id="a_Node000002"><a xlink:href="../../dd/def/execution_2fmt__impl_8cpp.html" target="_top" xlink:title=" ">
<polygon fill="white" stroke="#666666" points="399.5,-96 250.5,-96 250.5,-77 399.5,-77 399.5,-96"/>
<text text-anchor="middle" x="325" y="-84" font-family="Helvetica,sans-Serif" font-size="10.00">src/execution/fmt_impl.cpp</text>
</a>
</g>
</g>
<!-- Node1&#45;&gt;Node2 -->
<g id="edge1_Node000001_Node000002" class="edge">
<title>Node1&#45;&gt;Node2</title>
<g id="a_edge1_Node000001_Node000002"><a xlink:title=" ">
<path fill="none" stroke="#63b8ff" d="M615.02,-144.15C557.03,-134.73 477.54,-121.17 408,-107 391.9,-103.72 374.16,-99.62 359.22,-96.02"/>
<polygon fill="#63b8ff" stroke="#63b8ff" points="614.79,-147.66 625.22,-145.8 615.91,-140.75 614.79,-147.66"/>
</a>
</g>
</g>
<!-- Node3 -->
<g id="Node000003" class="node">
<title>Node3</title>
<g id="a_Node000003"><a xlink:href="../../dc/dbe/plan__node_8cpp.html" target="_top" xlink:title=" ">
<polygon fill="white" stroke="#666666" points="522.5,-101.5 417.5,-101.5 417.5,-71.5 522.5,-71.5 522.5,-101.5"/>
<text text-anchor="start" x="425.5" y="-89.5" font-family="Helvetica,sans-Serif" font-size="10.00">src/execution/plan</text>
<text text-anchor="middle" x="470" y="-78.5" font-family="Helvetica,sans-Serif" font-size="10.00">_node.cpp</text>
</a>
</g>
</g>
<!-- Node1&#45;&gt;Node3 -->
<g id="edge2_Node000001_Node000003" class="edge">
<title>Node1&#45;&gt;Node3</title>
<g id="a_edge2_Node000001_Node000003"><a xlink:title=" ">
<path fill="none" stroke="#63b8ff" d="M640.42,-140.01C608.55,-130.41 568.03,-118.12 532,-107 526.29,-105.24 520.28,-103.37 514.35,-101.51"/>
<polygon fill="#63b8ff" stroke="#63b8ff" points="639.44,-143.37 650.02,-142.91 641.45,-136.67 639.44,-143.37"/>
</a>
</g>
</g>
<!-- Node4 -->
<g id="Node000004" class="node">
<title>Node4</title>
<g id="a_Node000004"><a xlink:href="../../dd/d51/aggregation__executor_8h.html" target="_top" xlink:title=" ">
<polygon fill="white" stroke="#666666" points="669,-107 541,-107 541,-66 669,-66 669,-107"/>
<text text-anchor="start" x="549" y="-95" font-family="Helvetica,sans-Serif" font-size="10.00">src/include/execution</text>
<text text-anchor="start" x="549" y="-84" font-family="Helvetica,sans-Serif" font-size="10.00">/executors/aggregation</text>
<text text-anchor="middle" x="605" y="-73" font-family="Helvetica,sans-Serif" font-size="10.00">_executor.h</text>
</a>
</g>
</g>
<!-- Node1&#45;&gt;Node4 -->
<g id="edge3_Node000001_Node000004" class="edge">
<title>Node1&#45;&gt;Node4</title>
<g id="a_edge3_Node000001_Node000004"><a xlink:title=" ">
<path fill="none" stroke="#63b8ff" d="M670.23,-136.77C657.84,-127.42 643.19,-116.35 630.91,-107.07"/>
<polygon fill="#63b8ff" stroke="#63b8ff" points="668.29,-139.7 678.38,-142.94 672.51,-134.12 668.29,-139.7"/>
</a>
</g>
</g>
<!-- Node7 -->
<g id="Node000007" class="node">
<title>Node7</title>
<g id="a_Node000007"><a xlink:href="../../d7/d8c/planner_8h.html" target="_top" xlink:title=" ">
<polygon fill="white" stroke="#666666" points="1221.5,-101.5 1112.5,-101.5 1112.5,-71.5 1221.5,-71.5 1221.5,-101.5"/>
<text text-anchor="start" x="1120.5" y="-89.5" font-family="Helvetica,sans-Serif" font-size="10.00">src/include/planner</text>
<text text-anchor="middle" x="1167" y="-78.5" font-family="Helvetica,sans-Serif" font-size="10.00">/planner.h</text>
</a>
</g>
</g>
<!-- Node1&#45;&gt;Node7 -->
<g id="edge6_Node000001_Node000007" class="edge">
<title>Node1&#45;&gt;Node7</title>
<g id="a_edge6_Node000001_Node000007"><a xlink:title=" ">
<path fill="none" stroke="#63b8ff" d="M778.56,-144.94C874.2,-130.8 1030.09,-107.75 1112.29,-95.59"/>
<polygon fill="#63b8ff" stroke="#63b8ff" points="778.02,-141.48 768.64,-146.41 779.04,-148.41 778.02,-141.48"/>
</a>
</g>
</g>
<!-- Node11 -->
<g id="Node000011" class="node">
<title>Node11</title>
<g id="a_Node000011"><a xlink:href="../../da/de4/plan__aggregation_8cpp.html" target="_top" xlink:title=" ">
<polygon fill="white" stroke="#666666" points="484.5,-24.5 305.5,-24.5 305.5,-5.5 484.5,-5.5 484.5,-24.5"/>
<text text-anchor="middle" x="395" y="-12.5" font-family="Helvetica,sans-Serif" font-size="10.00">src/planner/plan_aggregation.cpp</text>
</a>
</g>
</g>
<!-- Node1&#45;&gt;Node11 -->
<g id="edge18_Node000001_Node000011" class="edge">
<title>Node1&#45;&gt;Node11</title>
<g id="a_edge18_Node000001_Node000011"><a xlink:title=" ">
<path fill="none" stroke="#63b8ff" d="M698.86,-132.49C699,-111.85 695.58,-83.05 678,-66 669.94,-58.19 533.3,-36.64 452.89,-24.54"/>
<polygon fill="#63b8ff" stroke="#63b8ff" points="695.36,-132.6 698.51,-142.71 702.35,-132.84 695.36,-132.6"/>
</a>
</g>
</g>
<!-- Node15 -->
<g id="Node000015" class="node">
<title>Node15</title>
<g id="a_Node000015"><a xlink:href="../../d9/df0/plan__select_8cpp.html" target="_top" xlink:title=" ">
<polygon fill="white" stroke="#666666" points="1953.5,-24.5 1804.5,-24.5 1804.5,-5.5 1953.5,-5.5 1953.5,-24.5"/>
<text text-anchor="middle" x="1879" y="-12.5" font-family="Helvetica,sans-Serif" font-size="10.00">src/planner/plan_select.cpp</text>
</a>
</g>
</g>
<!-- Node1&#45;&gt;Node15 -->
<g id="edge19_Node000001_Node000015" class="edge">
<title>Node1&#45;&gt;Node15</title>
<g id="a_edge19_Node000001_Node000015"><a xlink:title=" ">
<path fill="none" stroke="#63b8ff" d="M778.84,-150.39C883.56,-141.7 1070.5,-125.34 1230,-107 1481.77,-78.05 1544.42,-67.95 1795,-30 1806.11,-28.32 1818.03,-26.4 1829.29,-24.54"/>
<polygon fill="#63b8ff" stroke="#63b8ff" points="778.33,-146.92 768.65,-151.24 778.91,-153.9 778.33,-146.92"/>
</a>
</g>
</g>
<!-- Node17 -->
<g id="Node000017" class="node">
<title>Node17</title>
<g id="a_Node000017"><a xlink:href="../../d4/d79/plan__window__function_8cpp.html" target="_top" xlink:title=" ">
<polygon fill="white" stroke="#666666" points="2108.5,-30 1971.5,-30 1971.5,0 2108.5,0 2108.5,-30"/>
<text text-anchor="start" x="1979.5" y="-18" font-family="Helvetica,sans-Serif" font-size="10.00">src/planner/plan_window</text>
<text text-anchor="middle" x="2040" y="-7" font-family="Helvetica,sans-Serif" font-size="10.00">_function.cpp</text>
</a>
</g>
</g>
<!-- Node1&#45;&gt;Node17 -->
<g id="edge20_Node000001_Node000017" class="edge">
<title>Node1&#45;&gt;Node17</title>
<g id="a_edge20_Node000001_Node000017"><a xlink:title=" ">
<path fill="none" stroke="#63b8ff" d="M778.78,-153C910.75,-146.16 1178.8,-130.6 1405,-107 1653.56,-81.07 1715.18,-69.19 1962,-30 1964.99,-29.53 1968.04,-29.03 1971.12,-28.52"/>
<polygon fill="#63b8ff" stroke="#63b8ff" points="778.55,-149.51 768.74,-153.52 778.91,-156.5 778.55,-149.51"/>
</a>
</g>
</g>
<!-- Node5 -->
<g id="Node000005" class="node">
<title>Node5</title>
<g id="a_Node000005"><a xlink:href="../../da/d4d/aggregation__executor_8cpp.html" target="_top" xlink:title=" ">
<polygon fill="white" stroke="#666666" points="287.5,-30 144.5,-30 144.5,0 287.5,0 287.5,-30"/>
<text text-anchor="start" x="152.5" y="-18" font-family="Helvetica,sans-Serif" font-size="10.00">src/execution/aggregation</text>
<text text-anchor="middle" x="216" y="-7" font-family="Helvetica,sans-Serif" font-size="10.00">_executor.cpp</text>
</a>
</g>
</g>
<!-- Node4&#45;&gt;Node5 -->
<g id="edge4_Node000004_Node000005" class="edge">
<title>Node4&#45;&gt;Node5</title>
<g id="a_edge4_Node000004_Node000005"><a xlink:title=" ">
<path fill="none" stroke="#63b8ff" d="M531.31,-66.06C531.2,-66.04 531.1,-66.02 531,-66 427.55,-44.51 400.27,-47.11 296,-30 293.22,-29.54 290.38,-29.07 287.52,-28.59"/>
<polygon fill="#63b8ff" stroke="#63b8ff" points="530.41,-69.45 540.92,-68.17 531.9,-62.61 530.41,-69.45"/>
</a>
</g>
</g>
<!-- Node6 -->
<g id="Node000006" class="node">
<title>Node6</title>
<g id="a_Node000006"><a xlink:href="../../d3/d3e/executor__factory_8cpp.html" target="_top" xlink:title=" ">
<polygon fill="white" stroke="#666666" points="126,-30 0,-30 0,0 126,0 126,-30"/>
<text text-anchor="start" x="8" y="-18" font-family="Helvetica,sans-Serif" font-size="10.00">src/execution/executor</text>
<text text-anchor="middle" x="63" y="-7" font-family="Helvetica,sans-Serif" font-size="10.00">_factory.cpp</text>
</a>
</g>
</g>
<!-- Node4&#45;&gt;Node6 -->
<g id="edge5_Node000004_Node000006" class="edge">
<title>Node4&#45;&gt;Node6</title>
<g id="a_edge5_Node000004_Node000006"><a xlink:title=" ">
<path fill="none" stroke="#63b8ff" d="M531.31,-66.05C531.2,-66.04 531.1,-66.02 531,-66 356.95,-35.38 309.96,-54.9 135,-30 132.1,-29.59 129.14,-29.14 126.15,-28.66"/>
<polygon fill="#63b8ff" stroke="#63b8ff" points="530.49,-69.46 540.97,-67.93 531.82,-62.59 530.49,-69.46"/>
</a>
</g>
</g>
<!-- Node8 -->
<g id="Node000008" class="node">
<title>Node8</title>
<g id="a_Node000008"><a xlink:href="../../dc/de0/bustub__ddl_8cpp.html" target="_top" xlink:title=" ">
<polygon fill="white" stroke="#666666" points="804.5,-24.5 651.5,-24.5 651.5,-5.5 804.5,-5.5 804.5,-24.5"/>
<text text-anchor="middle" x="728" y="-12.5" font-family="Helvetica,sans-Serif" font-size="10.00">src/common/bustub_ddl.cpp</text>
</a>
</g>
</g>
<!-- Node7&#45;&gt;Node8 -->
<g id="edge7_Node000007_Node000008" class="edge">
<title>Node7&#45;&gt;Node8</title>
<g id="a_edge7_Node000007_Node000008"><a xlink:title=" ">
<path fill="none" stroke="#63b8ff" d="M1102.27,-75.5C1031.27,-64.51 913.98,-46.23 813,-30 802.07,-28.24 790.36,-26.33 779.23,-24.5"/>
<polygon fill="#63b8ff" stroke="#63b8ff" points="1101.98,-79 1112.4,-77.07 1103.05,-72.08 1101.98,-79"/>
</a>
</g>
</g>
<!-- Node9 -->
<g id="Node000009" class="node">
<title>Node9</title>
<g id="a_Node000009"><a xlink:href="../../da/d08/bustub__instance_8cpp.html" target="_top" xlink:title=" ">
<polygon fill="white" stroke="#666666" points="1001.5,-24.5 822.5,-24.5 822.5,-5.5 1001.5,-5.5 1001.5,-24.5"/>
<text text-anchor="middle" x="912" y="-12.5" font-family="Helvetica,sans-Serif" font-size="10.00">src/common/bustub_instance.cpp</text>
</a>
</g>
</g>
<!-- Node7&#45;&gt;Node9 -->
<g id="edge8_Node000007_Node000009" class="edge">
<title>Node7&#45;&gt;Node9</title>
<g id="a_edge8_Node000007_Node000009"><a xlink:title=" ">
<path fill="none" stroke="#63b8ff" d="M1105.45,-68.72C1054.33,-54.79 983.69,-35.54 943.44,-24.57"/>
<polygon fill="#63b8ff" stroke="#63b8ff" points="1104.83,-72.18 1115.4,-71.44 1106.67,-65.43 1104.83,-72.18"/>
</a>
</g>
</g>
<!-- Node10 -->
<g id="Node000010" class="node">
<title>Node10</title>
<g id="a_Node000010"><a xlink:href="../../df/dfb/expression__factory_8cpp.html" target="_top" xlink:title=" ">
<polygon fill="white" stroke="#666666" points="1146.5,-30 1019.5,-30 1019.5,0 1146.5,0 1146.5,-30"/>
<text text-anchor="start" x="1027.5" y="-18" font-family="Helvetica,sans-Serif" font-size="10.00">src/planner/expression</text>
<text text-anchor="middle" x="1083" y="-7" font-family="Helvetica,sans-Serif" font-size="10.00">_factory.cpp</text>
</a>
</g>
</g>
<!-- Node7&#45;&gt;Node10 -->
<g id="edge9_Node000007_Node000010" class="edge">
<title>Node7&#45;&gt;Node10</title>
<g id="a_edge9_Node000007_Node000010"><a xlink:title=" ">
<path fill="none" stroke="#63b8ff" d="M1141.99,-64.81C1128.43,-53.59 1112.04,-40.02 1099.97,-30.04"/>
<polygon fill="#63b8ff" stroke="#63b8ff" points="1140.07,-67.76 1150,-71.44 1144.53,-62.36 1140.07,-67.76"/>
</a>
</g>
</g>
<!-- Node7&#45;&gt;Node11 -->
<g id="edge10_Node000007_Node000011" class="edge">
<title>Node7&#45;&gt;Node11</title>
<g id="a_edge10_Node000007_Node000011"><a xlink:title=" ">
<path fill="none" stroke="#63b8ff" d="M1102.25,-81.42C982.13,-73.57 716.74,-54.91 494,-30 480.11,-28.45 465.17,-26.49 451.21,-24.53"/>
<polygon fill="#63b8ff" stroke="#63b8ff" points="1102.17,-84.92 1112.37,-82.08 1102.62,-77.94 1102.17,-84.92"/>
</a>
</g>
</g>
<!-- Node12 -->
<g id="Node000012" class="node">
<title>Node12</title>
<g id="a_Node000012"><a xlink:href="../../d0/d29/plan__expression_8cpp.html" target="_top" xlink:title=" ">
<polygon fill="white" stroke="#666666" points="1337.5,-24.5 1164.5,-24.5 1164.5,-5.5 1337.5,-5.5 1337.5,-24.5"/>
<text text-anchor="middle" x="1251" y="-12.5" font-family="Helvetica,sans-Serif" font-size="10.00">src/planner/plan_expression.cpp</text>
</a>
</g>
</g>
<!-- Node7&#45;&gt;Node12 -->
<g id="edge11_Node000007_Node000012" class="edge">
<title>Node7&#45;&gt;Node12</title>
<g id="a_edge11_Node000007_Node000012"><a xlink:title=" ">
<path fill="none" stroke="#63b8ff" d="M1192.01,-64.81C1208.15,-51.45 1228.32,-34.76 1240.4,-24.77"/>
<polygon fill="#63b8ff" stroke="#63b8ff" points="1189.47,-62.36 1184,-71.44 1193.93,-67.76 1189.47,-62.36"/>
</a>
</g>
</g>
<!-- Node13 -->
<g id="Node000013" class="node">
<title>Node13</title>
<g id="a_Node000013"><a xlink:href="../../d6/da3/plan__func__call_8cpp.html" target="_top" xlink:title=" ">
<polygon fill="white" stroke="#666666" points="1476.5,-30 1355.5,-30 1355.5,0 1476.5,0 1476.5,-30"/>
<text text-anchor="start" x="1363.5" y="-18" font-family="Helvetica,sans-Serif" font-size="10.00">src/planner/plan_func</text>
<text text-anchor="middle" x="1416" y="-7" font-family="Helvetica,sans-Serif" font-size="10.00">_call.cpp</text>
</a>
</g>
</g>
<!-- Node7&#45;&gt;Node13 -->
<g id="edge12_Node000007_Node000013" class="edge">
<title>Node7&#45;&gt;Node13</title>
<g id="a_edge12_Node000007_Node000013"><a xlink:title=" ">
<path fill="none" stroke="#63b8ff" d="M1227.03,-68.74C1269.44,-56.91 1325.63,-41.22 1365.69,-30.04"/>
<polygon fill="#63b8ff" stroke="#63b8ff" points="1226.08,-65.38 1217.39,-71.44 1227.96,-72.12 1226.08,-65.38"/>
</a>
</g>
</g>
<!-- Node14 -->
<g id="Node000014" class="node">
<title>Node14</title>
<g id="a_Node000014"><a xlink:href="../../d2/dbb/plan__insert_8cpp.html" target="_top" xlink:title=" ">
<polygon fill="white" stroke="#666666" points="1643,-24.5 1495,-24.5 1495,-5.5 1643,-5.5 1643,-24.5"/>
<text text-anchor="middle" x="1569" y="-12.5" font-family="Helvetica,sans-Serif" font-size="10.00">src/planner/plan_insert.cpp</text>
</a>
</g>
</g>
<!-- Node7&#45;&gt;Node14 -->
<g id="edge13_Node000007_Node000014" class="edge">
<title>Node7&#45;&gt;Node14</title>
<g id="a_edge13_Node000007_Node000014"><a xlink:title=" ">
<path fill="none" stroke="#63b8ff" d="M1231.62,-74.33C1311.88,-60.45 1447.05,-37.08 1519.54,-24.55"/>
<polygon fill="#63b8ff" stroke="#63b8ff" points="1230.89,-70.9 1221.63,-76.05 1232.08,-77.8 1230.89,-70.9"/>
</a>
</g>
</g>
<!-- Node7&#45;&gt;Node15 -->
<g id="edge14_Node000007_Node000015" class="edge">
<title>Node7&#45;&gt;Node15</title>
<g id="a_edge14_Node000007_Node000015"><a xlink:title=" ">
<path fill="none" stroke="#63b8ff" d="M1232.07,-81.41C1346.29,-73.85 1590.21,-56.08 1795,-30 1806.88,-28.49 1819.65,-26.53 1831.56,-24.56"/>
<polygon fill="#63b8ff" stroke="#63b8ff" points="1231.5,-77.94 1221.75,-82.09 1231.96,-84.92 1231.5,-77.94"/>
</a>
</g>
</g>
<!-- Node16 -->
<g id="Node000016" class="node">
<title>Node16</title>
<g id="a_Node000016"><a xlink:href="../../d8/d40/plan__table__ref_8cpp.html" target="_top" xlink:title=" ">
<polygon fill="white" stroke="#666666" points="1786.5,-30 1661.5,-30 1661.5,0 1786.5,0 1786.5,-30"/>
<text text-anchor="start" x="1669.5" y="-18" font-family="Helvetica,sans-Serif" font-size="10.00">src/planner/plan_table</text>
<text text-anchor="middle" x="1724" y="-7" font-family="Helvetica,sans-Serif" font-size="10.00">_ref.cpp</text>
</a>
</g>
</g>
<!-- Node7&#45;&gt;Node16 -->
<g id="edge15_Node000007_Node000016" class="edge">
<title>Node7&#45;&gt;Node16</title>
<g id="a_edge15_Node000007_Node000016"><a xlink:title=" ">
<path fill="none" stroke="#63b8ff" d="M1231.86,-79.7C1325.09,-71 1502.24,-53.09 1652,-30 1655.02,-29.53 1658.11,-29.03 1661.22,-28.51"/>
<polygon fill="#63b8ff" stroke="#63b8ff" points="1231.37,-76.23 1221.74,-80.64 1232.02,-83.2 1231.37,-76.23"/>
</a>
</g>
</g>
<!-- Node7&#45;&gt;Node17 -->
<g id="edge16_Node000007_Node000017" class="edge">
<title>Node7&#45;&gt;Node17</title>
<g id="a_edge16_Node000007_Node000017"><a xlink:title=" ">
<path fill="none" stroke="#63b8ff" d="M1231.89,-83.34C1367.77,-78.3 1692.03,-63.55 1962,-30 1965,-29.63 1968.07,-29.21 1971.16,-28.77"/>
<polygon fill="#63b8ff" stroke="#63b8ff" points="1231.52,-79.85 1221.65,-83.72 1231.78,-86.85 1231.52,-79.85"/>
</a>
</g>
</g>
<!-- Node18 -->
<g id="Node000018" class="node">
<title>Node18</title>
<g id="a_Node000018"><a xlink:href="../../de/d3d/planner_8cpp.html" target="_top" xlink:title=" ">
<polygon fill="white" stroke="#666666" points="633,-24.5 503,-24.5 503,-5.5 633,-5.5 633,-24.5"/>
<text text-anchor="middle" x="568" y="-12.5" font-family="Helvetica,sans-Serif" font-size="10.00">src/planner/planner.cpp</text>
</a>
</g>
</g>
<!-- Node7&#45;&gt;Node18 -->
<g id="edge17_Node000007_Node000018" class="edge">
<title>Node7&#45;&gt;Node18</title>
<g id="a_edge17_Node000007_Node000018"><a xlink:title=" ">
<path fill="none" stroke="#63b8ff" d="M1102.22,-80.37C1002.88,-72.11 807.08,-54.3 642,-30 631.52,-28.46 620.27,-26.49 609.77,-24.52"/>
<polygon fill="#63b8ff" stroke="#63b8ff" points="1102.14,-83.87 1112.4,-81.21 1102.72,-76.9 1102.14,-83.87"/>
</a>
</g>
</g>
</g>
</svg>
