<?xml version="1.0" encoding="UTF-8" standalone="no"?>
<!DOCTYPE svg PUBLIC "-//W3C//DTD SVG 1.1//EN"
 "http://www.w3.org/Graphics/SVG/1.1/DTD/svg11.dtd">
<!-- Generated by graphviz version 2.43.0 (0)
 -->
<!-- Title: src/include/binder/expressions/bound_agg_call.h Pages: 1 -->
<svg width="992pt" height="115pt"
 viewBox="0.00 0.00 992.00 115.00" xmlns="http://www.w3.org/2000/svg" xmlns:xlink="http://www.w3.org/1999/xlink">
<g id="graph0" class="graph" transform="scale(1 1) rotate(0) translate(4 111)">
<title>src/include/binder/expressions/bound_agg_call.h</title>
<!-- Node1 -->
<g id="Node000001" class="node">
<title>Node1</title>
<g id="a_Node000001"><a xlink:title=" ">
<polygon fill="#999999" stroke="#666666" points="544.5,-107 410.5,-107 410.5,-66 544.5,-66 544.5,-107"/>
<text text-anchor="start" x="418.5" y="-95" font-family="Helvetica,sans-Serif" font-size="10.00">src/include/binder</text>
<text text-anchor="start" x="418.5" y="-84" font-family="Helvetica,sans-Serif" font-size="10.00">/expressions/bound_agg</text>
<text text-anchor="middle" x="477.5" y="-73" font-family="Helvetica,sans-Serif" font-size="10.00">_call.h</text>
</a>
</g>
</g>
<!-- Node2 -->
<g id="Node000002" class="node">
<title>Node2</title>
<g id="a_Node000002"><a xlink:href="../../db/d4b/bind__create_8cpp.html" target="_top" xlink:title=" ">
<polygon fill="white" stroke="#666666" points="145,-24.5 0,-24.5 0,-5.5 145,-5.5 145,-24.5"/>
<text text-anchor="middle" x="72.5" y="-12.5" font-family="Helvetica,sans-Serif" font-size="10.00">src/binder/bind_create.cpp</text>
</a>
</g>
</g>
<!-- Node1&#45;&gt;Node2 -->
<g id="edge1_Node000001_Node000002" class="edge">
<title>Node1&#45;&gt;Node2</title>
<g id="a_edge1_Node000001_Node000002"><a xlink:title=" ">
<path fill="none" stroke="#63b8ff" d="M400.62,-72.36C334.97,-61.14 238.02,-44.54 153.5,-30 143.23,-28.23 132.24,-26.34 121.76,-24.53"/>
<polygon fill="#63b8ff" stroke="#63b8ff" points="400.03,-75.81 410.48,-74.05 401.21,-68.91 400.03,-75.81"/>
</a>
</g>
</g>
<!-- Node3 -->
<g id="Node000003" class="node">
<title>Node3</title>
<g id="a_Node000003"><a xlink:href="../../d7/d35/bind__select_8cpp.html" target="_top" xlink:title=" ">
<polygon fill="white" stroke="#666666" points="306,-24.5 163,-24.5 163,-5.5 306,-5.5 306,-24.5"/>
<text text-anchor="middle" x="234.5" y="-12.5" font-family="Helvetica,sans-Serif" font-size="10.00">src/binder/bind_select.cpp</text>
</a>
</g>
</g>
<!-- Node1&#45;&gt;Node3 -->
<g id="edge2_Node000001_Node000003" class="edge">
<title>Node1&#45;&gt;Node3</title>
<g id="a_edge2_Node000001_Node000003"><a xlink:title=" ">
<path fill="none" stroke="#63b8ff" d="M400.74,-63.54C354.41,-50.3 298.01,-34.16 264.24,-24.51"/>
<polygon fill="#63b8ff" stroke="#63b8ff" points="399.88,-66.94 410.46,-66.32 401.8,-60.21 399.88,-66.94"/>
</a>
</g>
</g>
<!-- Node4 -->
<g id="Node000004" class="node">
<title>Node4</title>
<g id="a_Node000004"><a xlink:href="../../d9/d02/binder_2fmt__impl_8cpp.html" target="_top" xlink:title=" ">
<polygon fill="white" stroke="#666666" points="456.5,-24.5 324.5,-24.5 324.5,-5.5 456.5,-5.5 456.5,-24.5"/>
<text text-anchor="middle" x="390.5" y="-12.5" font-family="Helvetica,sans-Serif" font-size="10.00">src/binder/fmt_impl.cpp</text>
</a>
</g>
</g>
<!-- Node1&#45;&gt;Node4 -->
<g id="edge3_Node000001_Node000004" class="edge">
<title>Node1&#45;&gt;Node4</title>
<g id="a_edge3_Node000001_Node000004"><a xlink:title=" ">
<path fill="none" stroke="#63b8ff" d="M444.6,-59.22C429.4,-47.07 412.36,-33.46 401.54,-24.82"/>
<polygon fill="#63b8ff" stroke="#63b8ff" points="442.8,-62.26 452.8,-65.77 447.17,-56.79 442.8,-62.26"/>
</a>
</g>
</g>
<!-- Node5 -->
<g id="Node000005" class="node">
<title>Node5</title>
<g id="a_Node000005"><a xlink:href="../../da/de4/plan__aggregation_8cpp.html" target="_top" xlink:title=" ">
<polygon fill="white" stroke="#666666" points="654,-24.5 475,-24.5 475,-5.5 654,-5.5 654,-24.5"/>
<text text-anchor="middle" x="564.5" y="-12.5" font-family="Helvetica,sans-Serif" font-size="10.00">src/planner/plan_aggregation.cpp</text>
</a>
</g>
</g>
<!-- Node1&#45;&gt;Node5 -->
<g id="edge4_Node000001_Node000005" class="edge">
<title>Node1&#45;&gt;Node5</title>
<g id="a_edge4_Node000001_Node000005"><a xlink:title=" ">
<path fill="none" stroke="#63b8ff" d="M510.4,-59.22C525.6,-47.07 542.64,-33.46 553.46,-24.82"/>
<polygon fill="#63b8ff" stroke="#63b8ff" points="507.83,-56.79 502.2,-65.77 512.2,-62.26 507.83,-56.79"/>
</a>
</g>
</g>
<!-- Node6 -->
<g id="Node000006" class="node">
<title>Node6</title>
<g id="a_Node000006"><a xlink:href="../../d0/d29/plan__expression_8cpp.html" target="_top" xlink:title=" ">
<polygon fill="white" stroke="#666666" points="845,-24.5 672,-24.5 672,-5.5 845,-5.5 845,-24.5"/>
<text text-anchor="middle" x="758.5" y="-12.5" font-family="Helvetica,sans-Serif" font-size="10.00">src/planner/plan_expression.cpp</text>
</a>
</g>
</g>
<!-- Node1&#45;&gt;Node6 -->
<g id="edge5_Node000001_Node000006" class="edge">
<title>Node1&#45;&gt;Node6</title>
<g id="a_edge5_Node000001_Node000006"><a xlink:title=" ">
<path fill="none" stroke="#63b8ff" d="M554.58,-66.44C609.89,-52.76 681.8,-34.97 723.78,-24.59"/>
<polygon fill="#63b8ff" stroke="#63b8ff" points="553.67,-63.05 544.81,-68.85 555.35,-69.85 553.67,-63.05"/>
</a>
</g>
</g>
<!-- Node7 -->
<g id="Node000007" class="node">
<title>Node7</title>
<g id="a_Node000007"><a xlink:href="../../d6/da3/plan__func__call_8cpp.html" target="_top" xlink:title=" ">
<polygon fill="white" stroke="#666666" points="984,-30 863,-30 863,0 984,0 984,-30"/>
<text text-anchor="start" x="871" y="-18" font-family="Helvetica,sans-Serif" font-size="10.00">src/planner/plan_func</text>
<text text-anchor="middle" x="923.5" y="-7" font-family="Helvetica,sans-Serif" font-size="10.00">_call.cpp</text>
</a>
</g>
</g>
<!-- Node1&#45;&gt;Node7 -->
<g id="edge6_Node000001_Node000007" class="edge">
<title>Node1&#45;&gt;Node7</title>
<g id="a_edge6_Node000001_Node000007"><a xlink:title=" ">
<path fill="none" stroke="#63b8ff" d="M554.77,-75.37C631.11,-65.07 751.13,-48.08 854.5,-30 857.27,-29.52 860.1,-29.01 862.95,-28.48"/>
<polygon fill="#63b8ff" stroke="#63b8ff" points="554.2,-71.91 544.76,-76.72 555.13,-78.85 554.2,-71.91"/>
</a>
</g>
</g>
</g>
</svg>
