<?xml version="1.0" encoding="UTF-8" standalone="no"?>
<!DOCTYPE svg PUBLIC "-//W3C//DTD SVG 1.1//EN"
 "http://www.w3.org/Graphics/SVG/1.1/DTD/svg11.dtd">
<!-- Generated by graphviz version 2.43.0 (0)
 -->
<!-- Title: src/include/common/util/hash_util.h Pages: 1 -->
<!--zoomable 247 -->

<svg id="main" version="1.1" xmlns="http://www.w3.org/2000/svg" xmlns:xlink="http://www.w3.org/1999/xlink" xml:space="preserve" onload="init(evt)">
<style type="text/css"><![CDATA[
.node, .edge {opacity: 0.7;}
.node.selected, .edge.selected {opacity: 1;}
.edge:hover path { stroke: red; }
.edge:hover polygon { stroke: red; fill: red; }
]]></style>

<defs>
  <circle id="rim" cx="0" cy="0" r="7"/>
  <circle id="rim2" cx="0" cy="0" r="3.5"/>
  <g id="zoomPlus">
    <use xlink:href="#rim" fill="#404040"><set attributeName="fill" to="#808080" begin="zoomplus.mouseover" end="zoomplus.mouseout"/></use>
    <path d="M-4,0h8M0,-4v8" fill="none" stroke="white" stroke-width="1.5" pointer-events="none"/>
  </g>
  <g id="zoomMin">
    <use xlink:href="#rim" fill="#404040"><set attributeName="fill" to="#808080" begin="zoomminus.mouseover" end="zoomminus.mouseout"/></use>
    <path d="M-4,0h8" fill="none" stroke="white" stroke-width="1.5" pointer-events="none"/>
  </g>
  <g id="arrowUp" transform="translate(30 24)">
    <use xlink:href="#rim"/>
    <path pointer-events="none" fill="none" stroke="white" stroke-width="1.5" d="M0,-3.0v7 M-2.5,-0.5L0,-3.0L2.5,-0.5"/>
  </g>
  <g id="arrowRight" transform="rotate(90) translate(36 -43)">
    <use xlink:href="#rim"/>
    <path pointer-events="none" fill="none" stroke="white" stroke-width="1.5" d="M0,-3.0v7 M-2.5,-0.5L0,-3.0L2.5,-0.5"/>
  </g>
  <g id="arrowDown" transform="rotate(180) translate(-30 -48)">
    <use xlink:href="#rim"/>
    <path pointer-events="none" fill="none" stroke="white" stroke-width="1.5" d="M0,-3.0v7 M-2.5,-0.5L0,-3.0L2.5,-0.5"/>
  </g>
  <g id="arrowLeft" transform="rotate(270) translate(-36 17)">
    <use xlink:href="#rim"/>
    <path pointer-events="none" fill="none" stroke="white" stroke-width="1.5" d="M0,-3.0v7 M-2.5,-0.5L0,-3.0L2.5,-0.5"/>
  </g>
  <g id="resetDef">
    <use xlink:href="#rim2" fill="#404040"><set attributeName="fill" to="#808080" begin="reset.mouseover" end="reset.mouseout"/></use>
  </g>
</defs>
<script type="application/ecmascript">
var viewWidth = 2263;
var viewHeight = 247;
var sectionId = 'dynsection-1';
</script>
<script type="application/ecmascript" xlink:href="../../svg.min.js"/>
<svg id="graph" class="graph">
<g id="viewport">
<title>src/include/common/util/hash_util.h</title>
<!-- Node1 -->
<g id="Node000001" class="node">
<title>Node1</title>
<g id="a_Node000001"><a xlink:title=" ">
<polygon fill="#999999" stroke="#666666" points="982,-239 867,-239 867,-209 982,-209 982,-239"/>
<text text-anchor="start" x="875" y="-227" font-family="Helvetica,sans-Serif" font-size="10.00">src/include/common</text>
<text text-anchor="middle" x="924.5" y="-216" font-family="Helvetica,sans-Serif" font-size="10.00">/util/hash_util.h</text>
</a>
</g>
</g>
<!-- Node2 -->
<g id="Node000002" class="node">
<title>Node2</title>
<g id="a_Node000002"><a xlink:href="../../dd/d51/aggregation__executor_8h.html" target="_top" xlink:title=" ">
<polygon fill="white" stroke="#666666" points="284.5,-107 156.5,-107 156.5,-66 284.5,-66 284.5,-107"/>
<text text-anchor="start" x="164.5" y="-95" font-family="Helvetica,sans-Serif" font-size="10.00">src/include/execution</text>
<text text-anchor="start" x="164.5" y="-84" font-family="Helvetica,sans-Serif" font-size="10.00">/executors/aggregation</text>
<text text-anchor="middle" x="220.5" y="-73" font-family="Helvetica,sans-Serif" font-size="10.00">_executor.h</text>
</a>
</g>
</g>
<!-- Node1&#45;&gt;Node2 -->
<g id="edge1_Node000001_Node000002" class="edge">
<title>Node1&#45;&gt;Node2</title>
<g id="a_edge1_Node000001_Node000002"><a xlink:title=" ">
<path fill="none" stroke="#63b8ff" d="M856.35,-217.5C776.7,-210.37 641.18,-196.04 526.5,-173 419.3,-151.46 394.78,-136.53 289.5,-107 287.94,-106.56 286.36,-106.12 284.77,-105.67"/>
<polygon fill="#63b8ff" stroke="#63b8ff" points="856.46,-221.03 866.73,-218.42 857.08,-214.05 856.46,-221.03"/>
</a>
</g>
</g>
<!-- Node5 -->
<g id="Node000005" class="node">
<title>Node5</title>
<g id="a_Node000005"><a xlink:href="../../d1/d59/aggregation__plan_8h.html" target="_top" xlink:title=" ">
<polygon fill="white" stroke="#666666" points="996,-173 853,-173 853,-143 996,-143 996,-173"/>
<text text-anchor="start" x="861" y="-161" font-family="Helvetica,sans-Serif" font-size="10.00">src/include/execution</text>
<text text-anchor="middle" x="924.5" y="-150" font-family="Helvetica,sans-Serif" font-size="10.00">/plans/aggregation_plan.h</text>
</a>
</g>
</g>
<!-- Node1&#45;&gt;Node5 -->
<g id="edge4_Node000001_Node000005" class="edge">
<title>Node1&#45;&gt;Node5</title>
<g id="a_edge4_Node000001_Node000005"><a xlink:title=" ">
<path fill="none" stroke="#63b8ff" d="M924.5,-198.54C924.5,-189.96 924.5,-180.61 924.5,-173.16"/>
<polygon fill="#63b8ff" stroke="#63b8ff" points="921,-198.8 924.5,-208.8 928,-198.8 921,-198.8"/>
</a>
</g>
</g>
<!-- Node20 -->
<g id="Node000020" class="node">
<title>Node20</title>
<g id="a_Node000020"><a xlink:href="../../d2/d47/window__plan_8h.html" target="_top" xlink:title=" ">
<polygon fill="white" stroke="#666666" points="657.5,-173 535.5,-173 535.5,-143 657.5,-143 657.5,-173"/>
<text text-anchor="start" x="543.5" y="-161" font-family="Helvetica,sans-Serif" font-size="10.00">src/include/execution</text>
<text text-anchor="middle" x="596.5" y="-150" font-family="Helvetica,sans-Serif" font-size="10.00">/plans/window_plan.h</text>
</a>
</g>
</g>
<!-- Node1&#45;&gt;Node20 -->
<g id="edge23_Node000001_Node000020" class="edge">
<title>Node1&#45;&gt;Node20</title>
<g id="a_edge23_Node000001_Node000020"><a xlink:title=" ">
<path fill="none" stroke="#63b8ff" d="M857.08,-209.85C798.45,-198.41 714.24,-181.97 657.56,-170.91"/>
<polygon fill="#63b8ff" stroke="#63b8ff" points="856.51,-213.3 866.99,-211.78 857.85,-206.43 856.51,-213.3"/>
</a>
</g>
</g>
<!-- Node23 -->
<g id="Node000023" class="node">
<title>Node23</title>
<g id="a_Node000023"><a xlink:href="../../d1/d60/hash__comparator_8h.html" target="_top" xlink:title=" ">
<polygon fill="white" stroke="#666666" points="1176,-173 1033,-173 1033,-143 1176,-143 1176,-173"/>
<text text-anchor="start" x="1041" y="-161" font-family="Helvetica,sans-Serif" font-size="10.00">src/include/storage</text>
<text text-anchor="middle" x="1104.5" y="-150" font-family="Helvetica,sans-Serif" font-size="10.00">/index/hash_comparator.h</text>
</a>
</g>
</g>
<!-- Node1&#45;&gt;Node23 -->
<g id="edge34_Node000001_Node000023" class="edge">
<title>Node1&#45;&gt;Node23</title>
<g id="a_edge34_Node000001_Node000023"><a xlink:title=" ">
<path fill="none" stroke="#63b8ff" d="M973.47,-205.59C1002.24,-195.36 1038.15,-182.59 1065.09,-173.01"/>
<polygon fill="#63b8ff" stroke="#63b8ff" points="972.25,-202.31 964,-208.95 974.6,-208.9 972.25,-202.31"/>
</a>
</g>
</g>
<!-- Node24 -->
<g id="Node000024" class="node">
<title>Node24</title>
<g id="a_Node000024"><a xlink:href="../../d5/d41/hash__table__bucket__page_8cpp.html" target="_top" xlink:title=" ">
<polygon fill="white" stroke="#666666" points="1290.5,-101.5 1156.5,-101.5 1156.5,-71.5 1290.5,-71.5 1290.5,-101.5"/>
<text text-anchor="start" x="1164.5" y="-89.5" font-family="Helvetica,sans-Serif" font-size="10.00">src/storage/page/hash</text>
<text text-anchor="middle" x="1223.5" y="-78.5" font-family="Helvetica,sans-Serif" font-size="10.00">_table_bucket_page.cpp</text>
</a>
</g>
</g>
<!-- Node1&#45;&gt;Node24 -->
<g id="edge36_Node000001_Node000024" class="edge">
<title>Node1&#45;&gt;Node24</title>
<g id="a_edge36_Node000001_Node000024"><a xlink:title=" ">
<path fill="none" stroke="#63b8ff" d="M992.17,-217.15C1059.28,-210.11 1156.2,-196.26 1185.5,-173 1208.02,-155.12 1217.56,-121.1 1221.31,-101.79"/>
<polygon fill="#63b8ff" stroke="#63b8ff" points="991.68,-213.68 982.08,-218.18 992.39,-220.64 991.68,-213.68"/>
</a>
</g>
</g>
<!-- Node3 -->
<g id="Node000003" class="node">
<title>Node3</title>
<g id="a_Node000003"><a xlink:href="../../da/d4d/aggregation__executor_8cpp.html" target="_top" xlink:title=" ">
<polygon fill="white" stroke="#666666" points="143,-30 0,-30 0,0 143,0 143,-30"/>
<text text-anchor="start" x="8" y="-18" font-family="Helvetica,sans-Serif" font-size="10.00">src/execution/aggregation</text>
<text text-anchor="middle" x="71.5" y="-7" font-family="Helvetica,sans-Serif" font-size="10.00">_executor.cpp</text>
</a>
</g>
</g>
<!-- Node2&#45;&gt;Node3 -->
<g id="edge2_Node000002_Node000003" class="edge">
<title>Node2&#45;&gt;Node3</title>
<g id="a_edge2_Node000002_Node000003"><a xlink:title=" ">
<path fill="none" stroke="#63b8ff" d="M169.49,-61.71C146.94,-51.19 121.2,-39.18 101.76,-30.11"/>
<polygon fill="#63b8ff" stroke="#63b8ff" points="168.06,-64.9 178.6,-65.96 171.02,-58.56 168.06,-64.9"/>
</a>
</g>
</g>
<!-- Node4 -->
<g id="Node000004" class="node">
<title>Node4</title>
<g id="a_Node000004"><a xlink:href="../../d3/d3e/executor__factory_8cpp.html" target="_top" xlink:title=" ">
<polygon fill="white" stroke="#666666" points="287.5,-30 161.5,-30 161.5,0 287.5,0 287.5,-30"/>
<text text-anchor="start" x="169.5" y="-18" font-family="Helvetica,sans-Serif" font-size="10.00">src/execution/executor</text>
<text text-anchor="middle" x="224.5" y="-7" font-family="Helvetica,sans-Serif" font-size="10.00">_factory.cpp</text>
</a>
</g>
</g>
<!-- Node2&#45;&gt;Node4 -->
<g id="edge3_Node000002_Node000004" class="edge">
<title>Node2&#45;&gt;Node4</title>
<g id="a_edge3_Node000002_Node000004"><a xlink:title=" ">
<path fill="none" stroke="#63b8ff" d="M222.22,-55.66C222.73,-46.76 223.27,-37.42 223.69,-30.04"/>
<polygon fill="#63b8ff" stroke="#63b8ff" points="218.72,-55.59 221.64,-65.77 225.7,-55.99 218.72,-55.59"/>
</a>
</g>
</g>
<!-- Node5&#45;&gt;Node2 -->
<g id="edge7_Node000005_Node000002" class="edge">
<title>Node5&#45;&gt;Node2</title>
<g id="a_edge7_Node000005_Node000002"><a xlink:title=" ">
<path fill="none" stroke="#63b8ff" d="M842.52,-152.42C727.86,-145.49 513.26,-130.58 331.5,-107 316.27,-105.02 299.94,-102.43 284.62,-99.77"/>
<polygon fill="#63b8ff" stroke="#63b8ff" points="842.43,-155.92 852.62,-153.03 842.85,-148.94 842.43,-155.92"/>
</a>
</g>
</g>
<!-- Node6 -->
<g id="Node000006" class="node">
<title>Node6</title>
<g id="a_Node000006"><a xlink:href="../../dd/def/execution_2fmt__impl_8cpp.html" target="_top" xlink:title=" ">
<polygon fill="white" stroke="#666666" points="773,-96 624,-96 624,-77 773,-77 773,-96"/>
<text text-anchor="middle" x="698.5" y="-84" font-family="Helvetica,sans-Serif" font-size="10.00">src/execution/fmt_impl.cpp</text>
</a>
</g>
</g>
<!-- Node5&#45;&gt;Node6 -->
<g id="edge5_Node000005_Node000006" class="edge">
<title>Node5&#45;&gt;Node6</title>
<g id="a_edge5_Node000005_Node000006"><a xlink:title=" ">
<path fill="none" stroke="#63b8ff" d="M869.1,-139.96C823.86,-126.05 761.81,-106.97 726.36,-96.07"/>
<polygon fill="#63b8ff" stroke="#63b8ff" points="868.18,-143.34 878.77,-142.94 870.24,-136.65 868.18,-143.34"/>
</a>
</g>
</g>
<!-- Node7 -->
<g id="Node000007" class="node">
<title>Node7</title>
<g id="a_Node000007"><a xlink:href="../../dc/dbe/plan__node_8cpp.html" target="_top" xlink:title=" ">
<polygon fill="white" stroke="#666666" points="896,-101.5 791,-101.5 791,-71.5 896,-71.5 896,-101.5"/>
<text text-anchor="start" x="799" y="-89.5" font-family="Helvetica,sans-Serif" font-size="10.00">src/execution/plan</text>
<text text-anchor="middle" x="843.5" y="-78.5" font-family="Helvetica,sans-Serif" font-size="10.00">_node.cpp</text>
</a>
</g>
</g>
<!-- Node5&#45;&gt;Node7 -->
<g id="edge6_Node000005_Node000007" class="edge">
<title>Node5&#45;&gt;Node7</title>
<g id="a_edge6_Node000005_Node000007"><a xlink:title=" ">
<path fill="none" stroke="#63b8ff" d="M900.38,-136.31C887.31,-125.09 871.5,-111.52 859.87,-101.54"/>
<polygon fill="#63b8ff" stroke="#63b8ff" points="898.24,-139.08 908.11,-142.94 902.8,-133.77 898.24,-139.08"/>
</a>
</g>
</g>
<!-- Node8 -->
<g id="Node000008" class="node">
<title>Node8</title>
<g id="a_Node000008"><a xlink:href="../../d7/d8c/planner_8h.html" target="_top" xlink:title=" ">
<polygon fill="white" stroke="#666666" points="1062,-101.5 953,-101.5 953,-71.5 1062,-71.5 1062,-101.5"/>
<text text-anchor="start" x="961" y="-89.5" font-family="Helvetica,sans-Serif" font-size="10.00">src/include/planner</text>
<text text-anchor="middle" x="1007.5" y="-78.5" font-family="Helvetica,sans-Serif" font-size="10.00">/planner.h</text>
</a>
</g>
</g>
<!-- Node5&#45;&gt;Node8 -->
<g id="edge8_Node000005_Node000008" class="edge">
<title>Node5&#45;&gt;Node8</title>
<g id="a_edge8_Node000005_Node000008"><a xlink:title=" ">
<path fill="none" stroke="#63b8ff" d="M949.21,-136.31C962.61,-125.09 978.81,-111.52 990.73,-101.54"/>
<polygon fill="#63b8ff" stroke="#63b8ff" points="946.72,-133.83 941.3,-142.94 951.21,-139.2 946.72,-133.83"/>
</a>
</g>
</g>
<!-- Node12 -->
<g id="Node000012" class="node">
<title>Node12</title>
<g id="a_Node000012"><a xlink:href="../../da/de4/plan__aggregation_8cpp.html" target="_top" xlink:title=" ">
<polygon fill="white" stroke="#666666" points="2255,-24.5 2076,-24.5 2076,-5.5 2255,-5.5 2255,-24.5"/>
<text text-anchor="middle" x="2165.5" y="-12.5" font-family="Helvetica,sans-Serif" font-size="10.00">src/planner/plan_aggregation.cpp</text>
</a>
</g>
</g>
<!-- Node5&#45;&gt;Node12 -->
<g id="edge20_Node000005_Node000012" class="edge">
<title>Node5&#45;&gt;Node12</title>
<g id="a_edge20_Node000005_Node000012"><a xlink:title=" ">
<path fill="none" stroke="#63b8ff" d="M1006.12,-143.99C1038.84,-136.44 1075.95,-124.77 1106.5,-107 1128.78,-94.04 1123.89,-76.33 1147.5,-66 1241.23,-25.01 1965.62,-39.25 2067.5,-30 2082.31,-28.66 2098.29,-26.62 2112.98,-24.52"/>
<polygon fill="#63b8ff" stroke="#63b8ff" points="1005.13,-140.63 996.12,-146.21 1006.64,-147.46 1005.13,-140.63"/>
</a>
</g>
</g>
<!-- Node16 -->
<g id="Node000016" class="node">
<title>Node16</title>
<g id="a_Node000016"><a xlink:href="../../d9/df0/plan__select_8cpp.html" target="_top" xlink:title=" ">
<polygon fill="white" stroke="#666666" points="2058,-24.5 1909,-24.5 1909,-5.5 2058,-5.5 2058,-24.5"/>
<text text-anchor="middle" x="1983.5" y="-12.5" font-family="Helvetica,sans-Serif" font-size="10.00">src/planner/plan_select.cpp</text>
</a>
</g>
</g>
<!-- Node5&#45;&gt;Node16 -->
<g id="edge21_Node000005_Node000016" class="edge">
<title>Node5&#45;&gt;Node16</title>
<g id="a_edge21_Node000005_Node000016"><a xlink:title=" ">
<path fill="none" stroke="#63b8ff" d="M993.36,-139.94C1018.66,-132.02 1046.87,-121.17 1070.5,-107 1093.43,-93.26 1089.86,-76.36 1114.5,-66 1195.09,-32.12 1813.57,-39.29 1900.5,-30 1913,-28.66 1926.46,-26.65 1938.84,-24.56"/>
<polygon fill="#63b8ff" stroke="#63b8ff" points="992.02,-136.69 983.46,-142.94 994.05,-143.39 992.02,-136.69"/>
</a>
</g>
</g>
<!-- Node18 -->
<g id="Node000018" class="node">
<title>Node18</title>
<g id="a_Node000018"><a xlink:href="../../d4/d79/plan__window__function_8cpp.html" target="_top" xlink:title=" ">
<polygon fill="white" stroke="#666666" points="734,-30 597,-30 597,0 734,0 734,-30"/>
<text text-anchor="start" x="605" y="-18" font-family="Helvetica,sans-Serif" font-size="10.00">src/planner/plan_window</text>
<text text-anchor="middle" x="665.5" y="-7" font-family="Helvetica,sans-Serif" font-size="10.00">_function.cpp</text>
</a>
</g>
</g>
<!-- Node5&#45;&gt;Node18 -->
<g id="edge22_Node000005_Node000018" class="edge">
<title>Node5&#45;&gt;Node18</title>
<g id="a_edge22_Node000005_Node000018"><a xlink:title=" ">
<path fill="none" stroke="#63b8ff" d="M925.93,-132.6C925.73,-112.03 921.94,-83.27 904.5,-66 898.34,-59.9 802.56,-41.2 734.15,-28.48"/>
<polygon fill="#63b8ff" stroke="#63b8ff" points="922.43,-132.72 925.75,-142.78 929.43,-132.85 922.43,-132.72"/>
</a>
</g>
</g>
<!-- Node9 -->
<g id="Node000009" class="node">
<title>Node9</title>
<g id="a_Node000009"><a xlink:href="../../dc/de0/bustub__ddl_8cpp.html" target="_top" xlink:title=" ">
<polygon fill="white" stroke="#666666" points="1694,-24.5 1541,-24.5 1541,-5.5 1694,-5.5 1694,-24.5"/>
<text text-anchor="middle" x="1617.5" y="-12.5" font-family="Helvetica,sans-Serif" font-size="10.00">src/common/bustub_ddl.cpp</text>
</a>
</g>
</g>
<!-- Node8&#45;&gt;Node9 -->
<g id="edge9_Node000008_Node000009" class="edge">
<title>Node8&#45;&gt;Node9</title>
<g id="a_edge9_Node000008_Node000009"><a xlink:title=" ">
<path fill="none" stroke="#63b8ff" d="M1062.26,-68.98C1067.05,-67.85 1071.84,-66.83 1076.5,-66 1276.18,-30.24 1330.11,-54.32 1531.5,-30 1543.81,-28.51 1557.06,-26.54 1569.39,-24.55"/>
<polygon fill="#63b8ff" stroke="#63b8ff" points="1061.34,-65.6 1052.49,-71.42 1063.04,-72.39 1061.34,-65.6"/>
</a>
</g>
</g>
<!-- Node10 -->
<g id="Node000010" class="node">
<title>Node10</title>
<g id="a_Node000010"><a xlink:href="../../da/d08/bustub__instance_8cpp.html" target="_top" xlink:title=" ">
<polygon fill="white" stroke="#666666" points="1891,-24.5 1712,-24.5 1712,-5.5 1891,-5.5 1891,-24.5"/>
<text text-anchor="middle" x="1801.5" y="-12.5" font-family="Helvetica,sans-Serif" font-size="10.00">src/common/bustub_instance.cpp</text>
</a>
</g>
</g>
<!-- Node8&#45;&gt;Node10 -->
<g id="edge10_Node000008_Node000010" class="edge">
<title>Node8&#45;&gt;Node10</title>
<g id="a_edge10_Node000008_Node000010"><a xlink:title=" ">
<path fill="none" stroke="#63b8ff" d="M1061.79,-68.97C1066.73,-67.83 1071.69,-66.81 1076.5,-66 1351.77,-19.77 1425.76,-57.76 1703.5,-30 1717.87,-28.56 1733.35,-26.56 1747.68,-24.52"/>
<polygon fill="#63b8ff" stroke="#63b8ff" points="1060.58,-65.66 1051.72,-71.47 1062.27,-72.46 1060.58,-65.66"/>
</a>
</g>
</g>
<!-- Node11 -->
<g id="Node000011" class="node">
<title>Node11</title>
<g id="a_Node000011"><a xlink:href="../../df/dfb/expression__factory_8cpp.html" target="_top" xlink:title=" ">
<polygon fill="white" stroke="#666666" points="579,-30 452,-30 452,0 579,0 579,-30"/>
<text text-anchor="start" x="460" y="-18" font-family="Helvetica,sans-Serif" font-size="10.00">src/planner/expression</text>
<text text-anchor="middle" x="515.5" y="-7" font-family="Helvetica,sans-Serif" font-size="10.00">_factory.cpp</text>
</a>
</g>
</g>
<!-- Node8&#45;&gt;Node11 -->
<g id="edge11_Node000008_Node000011" class="edge">
<title>Node8&#45;&gt;Node11</title>
<g id="a_edge11_Node000008_Node000011"><a xlink:title=" ">
<path fill="none" stroke="#63b8ff" d="M942.81,-72.5C930.14,-70.16 916.92,-67.88 904.5,-66 764.3,-44.8 727.65,-51.55 587.5,-30 584.73,-29.57 581.91,-29.12 579.06,-28.64"/>
<polygon fill="#63b8ff" stroke="#63b8ff" points="942.36,-75.97 952.84,-74.37 943.65,-69.09 942.36,-75.97"/>
</a>
</g>
</g>
<!-- Node8&#45;&gt;Node12 -->
<g id="edge12_Node000008_Node000012" class="edge">
<title>Node8&#45;&gt;Node12</title>
<g id="a_edge12_Node000008_Node000012"><a xlink:title=" ">
<path fill="none" stroke="#63b8ff" d="M1072.23,-72.17C1086.12,-69.74 1100.76,-67.5 1114.5,-66 1535.84,-19.89 1645.35,-68.02 2067.5,-30 2082.31,-28.67 2098.3,-26.64 2112.98,-24.53"/>
<polygon fill="#63b8ff" stroke="#63b8ff" points="1071.48,-68.75 1062.26,-73.97 1072.73,-75.64 1071.48,-68.75"/>
</a>
</g>
</g>
<!-- Node13 -->
<g id="Node000013" class="node">
<title>Node13</title>
<g id="a_Node000013"><a xlink:href="../../d0/d29/plan__expression_8cpp.html" target="_top" xlink:title=" ">
<polygon fill="white" stroke="#666666" points="925,-24.5 752,-24.5 752,-5.5 925,-5.5 925,-24.5"/>
<text text-anchor="middle" x="838.5" y="-12.5" font-family="Helvetica,sans-Serif" font-size="10.00">src/planner/plan_expression.cpp</text>
</a>
</g>
</g>
<!-- Node8&#45;&gt;Node13 -->
<g id="edge13_Node000008_Node000013" class="edge">
<title>Node8&#45;&gt;Node13</title>
<g id="a_edge13_Node000008_Node000013"><a xlink:title=" ">
<path fill="none" stroke="#63b8ff" d="M963.71,-67.49C930.11,-53.67 885.23,-35.22 859.33,-24.57"/>
<polygon fill="#63b8ff" stroke="#63b8ff" points="962.72,-70.87 973.3,-71.44 965.38,-64.4 962.72,-70.87"/>
</a>
</g>
</g>
<!-- Node14 -->
<g id="Node000014" class="node">
<title>Node14</title>
<g id="a_Node000014"><a xlink:href="../../d6/da3/plan__func__call_8cpp.html" target="_top" xlink:title=" ">
<polygon fill="white" stroke="#666666" points="1064,-30 943,-30 943,0 1064,0 1064,-30"/>
<text text-anchor="start" x="951" y="-18" font-family="Helvetica,sans-Serif" font-size="10.00">src/planner/plan_func</text>
<text text-anchor="middle" x="1003.5" y="-7" font-family="Helvetica,sans-Serif" font-size="10.00">_call.cpp</text>
</a>
</g>
</g>
<!-- Node8&#45;&gt;Node14 -->
<g id="edge14_Node000008_Node000014" class="edge">
<title>Node8&#45;&gt;Node14</title>
<g id="a_edge14_Node000008_Node000014"><a xlink:title=" ">
<path fill="none" stroke="#63b8ff" d="M1006.1,-61.25C1005.5,-50.81 1004.82,-38.99 1004.31,-30.04"/>
<polygon fill="#63b8ff" stroke="#63b8ff" points="1002.62,-61.65 1006.69,-71.44 1009.61,-61.25 1002.62,-61.65"/>
</a>
</g>
</g>
<!-- Node15 -->
<g id="Node000015" class="node">
<title>Node15</title>
<g id="a_Node000015"><a xlink:href="../../d2/dbb/plan__insert_8cpp.html" target="_top" xlink:title=" ">
<polygon fill="white" stroke="#666666" points="1230.5,-24.5 1082.5,-24.5 1082.5,-5.5 1230.5,-5.5 1230.5,-24.5"/>
<text text-anchor="middle" x="1156.5" y="-12.5" font-family="Helvetica,sans-Serif" font-size="10.00">src/planner/plan_insert.cpp</text>
</a>
</g>
</g>
<!-- Node8&#45;&gt;Node15 -->
<g id="edge15_Node000008_Node000015" class="edge">
<title>Node8&#45;&gt;Node15</title>
<g id="a_edge15_Node000008_Node000015"><a xlink:title=" ">
<path fill="none" stroke="#63b8ff" d="M1046.87,-67.13C1076.41,-53.36 1115.5,-35.13 1138.13,-24.57"/>
<polygon fill="#63b8ff" stroke="#63b8ff" points="1045.24,-64.04 1037.65,-71.44 1048.19,-70.38 1045.24,-64.04"/>
</a>
</g>
</g>
<!-- Node8&#45;&gt;Node16 -->
<g id="edge16_Node000008_Node000016" class="edge">
<title>Node8&#45;&gt;Node16</title>
<g id="a_edge16_Node000008_Node000016"><a xlink:title=" ">
<path fill="none" stroke="#63b8ff" d="M1061.16,-69.04C1066.31,-67.85 1071.48,-66.81 1076.5,-66 1438.42,-7.76 1535.96,-68.56 1900.5,-30 1913,-28.68 1926.47,-26.66 1938.84,-24.57"/>
<polygon fill="#63b8ff" stroke="#63b8ff" points="1060.2,-65.67 1051.33,-71.47 1061.88,-72.47 1060.2,-65.67"/>
</a>
</g>
</g>
<!-- Node17 -->
<g id="Node000017" class="node">
<title>Node17</title>
<g id="a_Node000017"><a xlink:href="../../d8/d40/plan__table__ref_8cpp.html" target="_top" xlink:title=" ">
<polygon fill="white" stroke="#666666" points="1374,-30 1249,-30 1249,0 1374,0 1374,-30"/>
<text text-anchor="start" x="1257" y="-18" font-family="Helvetica,sans-Serif" font-size="10.00">src/planner/plan_table</text>
<text text-anchor="middle" x="1311.5" y="-7" font-family="Helvetica,sans-Serif" font-size="10.00">_ref.cpp</text>
</a>
</g>
</g>
<!-- Node8&#45;&gt;Node17 -->
<g id="edge17_Node000008_Node000017" class="edge">
<title>Node8&#45;&gt;Node17</title>
<g id="a_edge17_Node000008_Node000017"><a xlink:title=" ">
<path fill="none" stroke="#63b8ff" d="M1065.5,-68.81C1069.21,-67.84 1072.91,-66.89 1076.5,-66 1134.6,-51.62 1201.41,-37.65 1248.9,-28.15"/>
<polygon fill="#63b8ff" stroke="#63b8ff" points="1064.4,-65.48 1055.65,-71.46 1066.21,-72.24 1064.4,-65.48"/>
</a>
</g>
</g>
<!-- Node8&#45;&gt;Node18 -->
<g id="edge18_Node000008_Node000018" class="edge">
<title>Node8&#45;&gt;Node18</title>
<g id="a_edge18_Node000008_Node000018"><a xlink:title=" ">
<path fill="none" stroke="#63b8ff" d="M950.27,-68.88C946.3,-67.87 942.35,-66.89 938.5,-66 933.48,-64.83 813.36,-42.92 734.15,-28.49"/>
<polygon fill="#63b8ff" stroke="#63b8ff" points="949.58,-72.32 960.14,-71.48 951.36,-65.55 949.58,-72.32"/>
</a>
</g>
</g>
<!-- Node19 -->
<g id="Node000019" class="node">
<title>Node19</title>
<g id="a_Node000019"><a xlink:href="../../de/d3d/planner_8cpp.html" target="_top" xlink:title=" ">
<polygon fill="white" stroke="#666666" points="1522.5,-24.5 1392.5,-24.5 1392.5,-5.5 1522.5,-5.5 1522.5,-24.5"/>
<text text-anchor="middle" x="1457.5" y="-12.5" font-family="Helvetica,sans-Serif" font-size="10.00">src/planner/planner.cpp</text>
</a>
</g>
</g>
<!-- Node8&#45;&gt;Node19 -->
<g id="edge19_Node000008_Node000019" class="edge">
<title>Node8&#45;&gt;Node19</title>
<g id="a_edge19_Node000008_Node000019"><a xlink:title=" ">
<path fill="none" stroke="#63b8ff" d="M1063.11,-68.97C1067.62,-67.88 1072.12,-66.87 1076.5,-66 1211.25,-39.24 1247.7,-50.78 1383.5,-30 1393.84,-28.42 1404.94,-26.46 1415.32,-24.51"/>
<polygon fill="#63b8ff" stroke="#63b8ff" points="1062.11,-65.61 1053.28,-71.47 1063.83,-72.4 1062.11,-65.61"/>
</a>
</g>
</g>
<!-- Node20&#45;&gt;Node4 -->
<g id="edge24_Node000020_Node000004" class="edge">
<title>Node20&#45;&gt;Node4</title>
<g id="a_edge24_Node000020_Node000004"><a xlink:title=" ">
<path fill="none" stroke="#63b8ff" d="M525.08,-155.57C469.27,-151.7 391.39,-140.1 331.5,-107 309.76,-94.98 312.09,-82.48 293.5,-66 278.55,-52.75 260.18,-39.57 246.16,-30.07"/>
<polygon fill="#63b8ff" stroke="#63b8ff" points="525.03,-159.07 535.23,-156.2 525.47,-152.08 525.03,-159.07"/>
</a>
</g>
</g>
<!-- Node20&#45;&gt;Node6 -->
<g id="edge25_Node000020_Node000006" class="edge">
<title>Node20&#45;&gt;Node6</title>
<g id="a_edge25_Node000020_Node000006"><a xlink:title=" ">
<path fill="none" stroke="#63b8ff" d="M625.58,-137.19C645.51,-123.6 670.97,-106.26 685.93,-96.07"/>
<polygon fill="#63b8ff" stroke="#63b8ff" points="623.43,-134.41 617.14,-142.94 627.38,-140.2 623.43,-134.41"/>
</a>
</g>
</g>
<!-- Node20&#45;&gt;Node7 -->
<g id="edge26_Node000020_Node000007" class="edge">
<title>Node20&#45;&gt;Node7</title>
<g id="a_edge26_Node000020_Node000007"><a xlink:title=" ">
<path fill="none" stroke="#63b8ff" d="M660.7,-140.34C696.38,-130.91 741.51,-118.69 781.5,-107 787.35,-105.29 793.49,-103.43 799.54,-101.57"/>
<polygon fill="#63b8ff" stroke="#63b8ff" points="659.68,-136.99 650.9,-142.92 661.46,-143.76 659.68,-136.99"/>
</a>
</g>
</g>
<!-- Node20&#45;&gt;Node8 -->
<g id="edge31_Node000020_Node000008" class="edge">
<title>Node20&#45;&gt;Node8</title>
<g id="a_edge31_Node000020_Node000008"><a xlink:title=" ">
<path fill="none" stroke="#63b8ff" d="M667.79,-145.97C730.27,-136.17 823.51,-121.24 904.5,-107 920.18,-104.24 937.18,-101.09 952.76,-98.14"/>
<polygon fill="#63b8ff" stroke="#63b8ff" points="666.99,-142.55 657.65,-147.56 668.07,-149.47 666.99,-142.55"/>
</a>
</g>
</g>
<!-- Node20&#45;&gt;Node11 -->
<g id="edge32_Node000020_Node000011" class="edge">
<title>Node20&#45;&gt;Node11</title>
<g id="a_edge32_Node000020_Node000011"><a xlink:title=" ">
<path fill="none" stroke="#63b8ff" d="M583.43,-134.24C566.6,-104.95 537.86,-54.91 523.77,-30.4"/>
<polygon fill="#63b8ff" stroke="#63b8ff" points="580.42,-136.04 588.44,-142.96 586.49,-132.55 580.42,-136.04"/>
</a>
</g>
</g>
<!-- Node20&#45;&gt;Node18 -->
<g id="edge33_Node000020_Node000018" class="edge">
<title>Node20&#45;&gt;Node18</title>
<g id="a_edge33_Node000020_Node000018"><a xlink:title=" ">
<path fill="none" stroke="#63b8ff" d="M597.39,-132.87C598.98,-113.73 603.25,-86.83 614.5,-66 622.16,-51.82 635.19,-39.15 646.17,-30.11"/>
<polygon fill="#63b8ff" stroke="#63b8ff" points="593.9,-132.68 596.74,-142.88 600.88,-133.13 593.9,-132.68"/>
</a>
</g>
</g>
<!-- Node21 -->
<g id="Node000021" class="node">
<title>Node21</title>
<g id="a_Node000021"><a xlink:href="../../db/d06/window__function__executor_8cpp.html" target="_top" xlink:title=" ">
<polygon fill="white" stroke="#666666" points="433.5,-30 305.5,-30 305.5,0 433.5,0 433.5,-30"/>
<text text-anchor="start" x="313.5" y="-18" font-family="Helvetica,sans-Serif" font-size="10.00">src/execution/window</text>
<text text-anchor="middle" x="369.5" y="-7" font-family="Helvetica,sans-Serif" font-size="10.00">_function_executor.cpp</text>
</a>
</g>
</g>
<!-- Node20&#45;&gt;Node21 -->
<g id="edge27_Node000020_Node000021" class="edge">
<title>Node20&#45;&gt;Node21</title>
<g id="a_edge27_Node000020_Node000021"><a xlink:title=" ">
<path fill="none" stroke="#63b8ff" d="M573.14,-135.74C563.57,-126.93 552.43,-116.55 542.5,-107 523.93,-89.13 523.14,-79.99 501.5,-66 477.01,-50.17 446.76,-38.25 421.41,-30.03"/>
<polygon fill="#63b8ff" stroke="#63b8ff" points="571.02,-138.54 580.76,-142.72 575.75,-133.38 571.02,-138.54"/>
</a>
</g>
</g>
<!-- Node22 -->
<g id="Node000022" class="node">
<title>Node22</title>
<g id="a_Node000022"><a xlink:href="../../dd/d30/window__function__executor_8h.html" target="_top" xlink:title=" ">
<polygon fill="white" stroke="#666666" points="492.5,-107 340.5,-107 340.5,-66 492.5,-66 492.5,-107"/>
<text text-anchor="start" x="348.5" y="-95" font-family="Helvetica,sans-Serif" font-size="10.00">src/include/execution</text>
<text text-anchor="start" x="348.5" y="-84" font-family="Helvetica,sans-Serif" font-size="10.00">/executors/window_function</text>
<text text-anchor="middle" x="416.5" y="-73" font-family="Helvetica,sans-Serif" font-size="10.00">_executor.h</text>
</a>
</g>
</g>
<!-- Node20&#45;&gt;Node22 -->
<g id="edge28_Node000020_Node000022" class="edge">
<title>Node20&#45;&gt;Node22</title>
<g id="a_edge28_Node000020_Node000022"><a xlink:title=" ">
<path fill="none" stroke="#63b8ff" d="M550.64,-139.29C525.16,-129.46 493.41,-117.2 467.19,-107.07"/>
<polygon fill="#63b8ff" stroke="#63b8ff" points="549.48,-142.6 560.07,-142.94 552.01,-136.07 549.48,-142.6"/>
</a>
</g>
</g>
<!-- Node22&#45;&gt;Node4 -->
<g id="edge29_Node000022_Node000004" class="edge">
<title>Node22&#45;&gt;Node4</title>
<g id="a_edge29_Node000022_Node000004"><a xlink:title=" ">
<path fill="none" stroke="#63b8ff" d="M353.05,-62.53C323.34,-51.78 288.93,-39.32 263.19,-30"/>
<polygon fill="#63b8ff" stroke="#63b8ff" points="351.91,-65.84 362.51,-65.96 354.29,-59.26 351.91,-65.84"/>
</a>
</g>
</g>
<!-- Node22&#45;&gt;Node21 -->
<g id="edge30_Node000022_Node000021" class="edge">
<title>Node22&#45;&gt;Node21</title>
<g id="a_edge30_Node000022_Node000021"><a xlink:title=" ">
<path fill="none" stroke="#63b8ff" d="M397.5,-57.4C391.13,-47.99 384.31,-37.9 378.99,-30.04"/>
<polygon fill="#63b8ff" stroke="#63b8ff" points="394.66,-59.45 403.16,-65.77 400.45,-55.53 394.66,-59.45"/>
</a>
</g>
</g>
<!-- Node23&#45;&gt;Node24 -->
<g id="edge35_Node000023_Node000024" class="edge">
<title>Node23&#45;&gt;Node24</title>
<g id="a_edge35_Node000023_Node000024"><a xlink:title=" ">
<path fill="none" stroke="#63b8ff" d="M1137.24,-137.88C1156.93,-126.38 1181.56,-111.99 1199.45,-101.54"/>
<polygon fill="#63b8ff" stroke="#63b8ff" points="1135.45,-134.87 1128.58,-142.94 1138.98,-140.91 1135.45,-134.87"/>
</a>
</g>
</g>
</g>
</svg>

<g id="navigator" transform="translate(0 0)" fill="#404254">
  <rect fill="#f2f5e9" fill-opacity="0.5" stroke="#606060" stroke-width=".5" x="0" y="0" width="60" height="60"/>
  <use id="zoomplus" xlink:href="#zoomPlus" x="17" y="9" onmousedown="handleZoom(evt,'in')"/>
  <use id="zoomminus" xlink:href="#zoomMin" x="42" y="9" onmousedown="handleZoom(evt,'out')"/>
  <use id="reset" xlink:href="#resetDef" x="30" y="36" onmousedown="handleReset()"/>
   <use id="arrowup" xlink:href="#arrowUp" x="0" y="0" onmousedown="handlePan(0,-1)"/>
  <use id="arrowright" xlink:href="#arrowRight" x="0" y="0" onmousedown="handlePan(1,0)"/>
  <use id="arrowdown" xlink:href="#arrowDown" x="0" y="0" onmousedown="handlePan(0,1)"/>
  <use id="arrowleft" xlink:href="#arrowLeft" x="0" y="0" onmousedown="handlePan(-1,0)"/>
</g>
<svg viewBox="0 0 15 15" width="100%" height="30px" preserveAspectRatio="xMaxYMin meet">
 <g id="arrow_out" transform="scale(0.3 0.3)">
  <a xlink:href="util_2hash__util_8h__dep__incl_org.svg" target="_base">
   <rect id="button" ry="5" rx="5" y="6" x="6" height="38" width="38"
        fill="#f2f5e9" fill-opacity="0.5" stroke="#606060" stroke-width="1.0"/>
   <path id="arrow"
     d="M 11.500037,31.436501 C 11.940474,20.09759 22.043105,11.32322 32.158766,21.979434 L 37.068811,17.246167 C 37.068811,17.246167 37.088388,32 37.088388,32 L 22.160133,31.978069 C 22.160133,31.978069 26.997745,27.140456 26.997745,27.140456 C 18.528582,18.264221 13.291696,25.230495 11.500037,31.436501 z"
     style="fill:#404040;"/>
  </a>
 </g>
</svg>

<style type='text/css'>
<![CDATA[
[data-mouse-over-selected='false'] { opacity: 0.7; }
[data-mouse-over-selected='true']  { opacity: 1.0; }
]]>
</style>
<script type="application/ecmascript"><![CDATA[
document.addEventListener('DOMContentLoaded', (event) => {
  highlightEdges();
  highlightAdjacentNodes();
});
]]></script>
</svg>
