<?xml version="1.0" encoding="UTF-8" standalone="no"?>
<!DOCTYPE svg PUBLIC "-//W3C//DTD SVG 1.1//EN"
 "http://www.w3.org/Graphics/SVG/1.1/DTD/svg11.dtd">
<!-- Generated by graphviz version 2.43.0 (0)
 -->
<!-- Title: bustub::Optimizer Pages: 1 -->
<!--zoomable 159 -->

<svg id="main" version="1.1" xmlns="http://www.w3.org/2000/svg" xmlns:xlink="http://www.w3.org/1999/xlink" xml:space="preserve" onload="init(evt)">
<style type="text/css"><![CDATA[
.node, .edge {opacity: 0.7;}
.node.selected, .edge.selected {opacity: 1;}
.edge:hover path { stroke: red; }
.edge:hover polygon { stroke: red; fill: red; }
]]></style>

<defs>
  <circle id="rim" cx="0" cy="0" r="7"/>
  <circle id="rim2" cx="0" cy="0" r="3.5"/>
  <g id="zoomPlus">
    <use xlink:href="#rim" fill="#404040"><set attributeName="fill" to="#808080" begin="zoomplus.mouseover" end="zoomplus.mouseout"/></use>
    <path d="M-4,0h8M0,-4v8" fill="none" stroke="white" stroke-width="1.5" pointer-events="none"/>
  </g>
  <g id="zoomMin">
    <use xlink:href="#rim" fill="#404040"><set attributeName="fill" to="#808080" begin="zoomminus.mouseover" end="zoomminus.mouseout"/></use>
    <path d="M-4,0h8" fill="none" stroke="white" stroke-width="1.5" pointer-events="none"/>
  </g>
  <g id="arrowUp" transform="translate(30 24)">
    <use xlink:href="#rim"/>
    <path pointer-events="none" fill="none" stroke="white" stroke-width="1.5" d="M0,-3.0v7 M-2.5,-0.5L0,-3.0L2.5,-0.5"/>
  </g>
  <g id="arrowRight" transform="rotate(90) translate(36 -43)">
    <use xlink:href="#rim"/>
    <path pointer-events="none" fill="none" stroke="white" stroke-width="1.5" d="M0,-3.0v7 M-2.5,-0.5L0,-3.0L2.5,-0.5"/>
  </g>
  <g id="arrowDown" transform="rotate(180) translate(-30 -48)">
    <use xlink:href="#rim"/>
    <path pointer-events="none" fill="none" stroke="white" stroke-width="1.5" d="M0,-3.0v7 M-2.5,-0.5L0,-3.0L2.5,-0.5"/>
  </g>
  <g id="arrowLeft" transform="rotate(270) translate(-36 17)">
    <use xlink:href="#rim"/>
    <path pointer-events="none" fill="none" stroke="white" stroke-width="1.5" d="M0,-3.0v7 M-2.5,-0.5L0,-3.0L2.5,-0.5"/>
  </g>
  <g id="resetDef">
    <use xlink:href="#rim2" fill="#404040"><set attributeName="fill" to="#808080" begin="reset.mouseover" end="reset.mouseout"/></use>
  </g>
</defs>
<script type="application/ecmascript">
var viewWidth = 1341;
var viewHeight = 159;
var sectionId = 'dynsection-0';
</script>
<script type="application/ecmascript" xlink:href="../../svg.min.js"/>
<svg id="graph" class="graph">
<g id="viewport">
<title>bustub::Optimizer</title>
<!-- Node1 -->
<g id="Node000001" class="node">
<title>Node1</title>
<g id="a_Node000001"><a xlink:title=" ">
<polygon fill="#999999" stroke="#666666" points="1078,-83 974,-83 974,-64 1078,-64 1078,-83"/>
<text text-anchor="middle" x="1026" y="-71" font-family="Helvetica,sans-Serif" font-size="10.00">bustub::Optimizer</text>
</a>
</g>
</g>
<!-- Node2 -->
<g id="Node000002" class="node">
<title>Node2</title>
<g id="a_Node000002"><a xlink:href="../../d7/ddd/classbustub_1_1Catalog.html" target="_top" xlink:title=" ">
<polygon fill="white" stroke="#666666" points="832.5,-83 739.5,-83 739.5,-64 832.5,-64 832.5,-83"/>
<text text-anchor="middle" x="786" y="-71" font-family="Helvetica,sans-Serif" font-size="10.00">bustub::Catalog</text>
</a>
</g>
</g>
<!-- Node2&#45;&gt;Node1 -->
<g id="edge1_Node000001_Node000002" class="edge">
<title>Node2&#45;&gt;Node1</title>
<g id="a_edge1_Node000001_Node000002"><a xlink:title=" ">
<path fill="none" stroke="#9a32cd" stroke-dasharray="5,2" d="M842.64,-73.5C882.28,-73.5 935.16,-73.5 973.77,-73.5"/>
<polygon fill="#9a32cd" stroke="#9a32cd" points="842.61,-70 832.61,-73.5 842.61,-77 842.61,-70"/>
</a>
</g>
<text text-anchor="middle" x="895" y="-76.5" font-family="Helvetica,sans-Serif" font-size="10.00" fill="grey"> catalog_</text>
</g>
<!-- Node11 -->
<g id="Node000011" class="node">
<title>Node11</title>
<g id="a_Node000011"><a xlink:href="../../dc/ddc/classbustub_1_1TransactionManager.html" target="_top" xlink:title=" ">
<polygon fill="white" stroke="#666666" points="1103,-120 949,-120 949,-101 1103,-101 1103,-120"/>
<text text-anchor="middle" x="1026" y="-108" font-family="Helvetica,sans-Serif" font-size="10.00">bustub::TransactionManager</text>
</a>
</g>
</g>
<!-- Node2&#45;&gt;Node11 -->
<g id="edge13_Node000011_Node000002" class="edge">
<title>Node2&#45;&gt;Node11</title>
<g id="a_edge13_Node000011_Node000002"><a xlink:title=" ">
<path fill="none" stroke="#9a32cd" stroke-dasharray="5,2" d="M842.61,-82.86C848.14,-83.76 853.68,-84.66 859,-85.5 892.39,-90.8 929.6,-96.43 960.32,-101"/>
<polygon fill="#9a32cd" stroke="#9a32cd" points="843.12,-79.4 832.69,-81.23 841.99,-86.3 843.12,-79.4"/>
</a>
</g>
<text text-anchor="middle" x="895" y="-98.5" font-family="Helvetica,sans-Serif" font-size="10.00" fill="grey"> catalog_</text>
</g>
<!-- Node3 -->
<g id="Node000003" class="node">
<title>Node3</title>
<g id="a_Node000003"><a xlink:href="../../df/d04/structbustub_1_1TableInfo.html" target="_top" xlink:title=" ">
<polygon fill="white" stroke="#666666" points="576.5,-139 476.5,-139 476.5,-120 576.5,-120 576.5,-139"/>
<text text-anchor="middle" x="526.5" y="-127" font-family="Helvetica,sans-Serif" font-size="10.00">bustub::TableInfo</text>
</a>
</g>
</g>
<!-- Node3&#45;&gt;Node2 -->
<g id="edge2_Node000002_Node000003" class="edge">
<title>Node3&#45;&gt;Node2</title>
<g id="a_edge2_Node000002_Node000003"><a xlink:title=" ">
<path fill="none" stroke="#9a32cd" stroke-dasharray="5,2" d="M586.88,-122.76C623.57,-117.89 671.43,-110.27 713,-99.5 729.73,-95.17 748.03,-88.53 762,-83.05"/>
<polygon fill="#9a32cd" stroke="#9a32cd" points="586.3,-119.31 576.84,-124.06 587.2,-126.25 586.3,-119.31"/>
</a>
</g>
<text text-anchor="middle" x="666" y="-120.5" font-family="Helvetica,sans-Serif" font-size="10.00" fill="grey"> NULL_TABLE_INFO</text>
</g>
<!-- Node4 -->
<g id="Node000004" class="node">
<title>Node4</title>
<g id="a_Node000004"><a xlink:href="../../da/d36/classbustub_1_1Schema.html" target="_top" xlink:title=" ">
<polygon fill="white" stroke="#666666" points="332.5,-123 237.5,-123 237.5,-104 332.5,-104 332.5,-123"/>
<text text-anchor="middle" x="285" y="-111" font-family="Helvetica,sans-Serif" font-size="10.00">bustub::Schema</text>
</a>
</g>
</g>
<!-- Node4&#45;&gt;Node3 -->
<g id="edge3_Node000003_Node000004" class="edge">
<title>Node4&#45;&gt;Node3</title>
<g id="a_edge3_Node000003_Node000004"><a xlink:title=" ">
<path fill="none" stroke="#9a32cd" stroke-dasharray="5,2" d="M342.77,-117.29C383.42,-120.01 437.61,-123.63 476.4,-126.22"/>
<polygon fill="#9a32cd" stroke="#9a32cd" points="342.96,-113.8 332.75,-116.62 342.49,-120.78 342.96,-113.8"/>
</a>
</g>
<text text-anchor="middle" x="397.5" y="-125.5" font-family="Helvetica,sans-Serif" font-size="10.00" fill="grey"> schema_</text>
</g>
<!-- Node5 -->
<g id="Node000005" class="node">
<title>Node5</title>
<g id="a_Node000005"><a xlink:href="../../d4/d5c/structbustub_1_1IndexInfo.html" target="_top" xlink:title=" ">
<polygon fill="white" stroke="#666666" points="577,-102 476,-102 476,-83 577,-83 577,-102"/>
<text text-anchor="middle" x="526.5" y="-90" font-family="Helvetica,sans-Serif" font-size="10.00">bustub::IndexInfo</text>
</a>
</g>
</g>
<!-- Node4&#45;&gt;Node5 -->
<g id="edge5_Node000005_Node000004" class="edge">
<title>Node4&#45;&gt;Node5</title>
<g id="a_edge5_Node000005_Node000004"><a xlink:title=" ">
<path fill="none" stroke="#9a32cd" stroke-dasharray="5,2" d="M342.94,-105.51C349.03,-104.77 355.14,-104.09 361,-103.5 399.45,-99.66 443.09,-96.81 475.76,-94.97"/>
<polygon fill="#9a32cd" stroke="#9a32cd" points="342.24,-102.07 332.75,-106.78 343.11,-109.01 342.24,-102.07"/>
</a>
</g>
<text text-anchor="middle" x="397.5" y="-106.5" font-family="Helvetica,sans-Serif" font-size="10.00" fill="grey"> key_schema_</text>
</g>
<!-- Node5&#45;&gt;Node2 -->
<g id="edge4_Node000002_Node000005" class="edge">
<title>Node5&#45;&gt;Node2</title>
<g id="a_edge4_Node000002_Node000005"><a xlink:title=" ">
<path fill="none" stroke="#9a32cd" stroke-dasharray="5,2" d="M587.37,-88.08C633.76,-84.66 697.05,-79.99 739.39,-76.87"/>
<polygon fill="#9a32cd" stroke="#9a32cd" points="586.86,-84.61 577.15,-88.84 587.38,-91.59 586.86,-84.61"/>
</a>
</g>
<text text-anchor="middle" x="666" y="-87.5" font-family="Helvetica,sans-Serif" font-size="10.00" fill="grey"> NULL_INDEX_INFO</text>
</g>
<!-- Node6 -->
<g id="Node000006" class="node">
<title>Node6</title>
<g id="a_Node000006"><a xlink:href="../../d6/d5d/classbustub_1_1BufferPoolManager.html" target="_top" xlink:title=" ">
<polygon fill="white" stroke="#666666" points="601,-65 452,-65 452,-46 601,-46 601,-65"/>
<text text-anchor="middle" x="526.5" y="-53" font-family="Helvetica,sans-Serif" font-size="10.00">bustub::BufferPoolManager</text>
</a>
</g>
</g>
<!-- Node6&#45;&gt;Node2 -->
<g id="edge6_Node000002_Node000006" class="edge">
<title>Node6&#45;&gt;Node2</title>
<g id="a_edge6_Node000002_Node000006"><a xlink:title=" ">
<path fill="none" stroke="#9a32cd" stroke-dasharray="5,2" d="M611.45,-53.5C643.33,-53.62 679.93,-54.82 713,-58.5 723.79,-59.7 735.35,-61.76 745.98,-63.97"/>
<polygon fill="#9a32cd" stroke="#9a32cd" points="611.28,-50 601.27,-53.5 611.27,-57 611.28,-50"/>
</a>
</g>
<text text-anchor="middle" x="666" y="-61.5" font-family="Helvetica,sans-Serif" font-size="10.00" fill="grey"> bpm_</text>
</g>
<!-- Node7 -->
<g id="Node000007" class="node">
<title>Node7</title>
<g id="a_Node000007"><a xlink:href="../../d4/d87/classbustub_1_1Page.html" target="_top" xlink:title=" ">
<polygon fill="white" stroke="#666666" points="324.5,-71 245.5,-71 245.5,-52 324.5,-52 324.5,-71"/>
<text text-anchor="middle" x="285" y="-59" font-family="Helvetica,sans-Serif" font-size="10.00">bustub::Page</text>
</a>
</g>
</g>
<!-- Node7&#45;&gt;Node6 -->
<g id="edge7_Node000006_Node000007" class="edge">
<title>Node7&#45;&gt;Node6</title>
<g id="a_edge7_Node000006_Node000007"><a xlink:title=" ">
<path fill="none" stroke="#9a32cd" stroke-dasharray="5,2" d="M334.77,-60.28C368.33,-59.44 413.54,-58.3 451.52,-57.35"/>
<polygon fill="#9a32cd" stroke="#9a32cd" points="334.66,-56.78 324.75,-60.53 334.83,-63.78 334.66,-56.78"/>
</a>
</g>
<text text-anchor="middle" x="397.5" y="-62.5" font-family="Helvetica,sans-Serif" font-size="10.00" fill="grey"> pages_</text>
</g>
<!-- Node8 -->
<g id="Node000008" class="node">
<title>Node8</title>
<g id="a_Node000008"><a xlink:href="../../d8/dbd/classbustub_1_1ReaderWriterLatch.html" target="_top" xlink:title=" ">
<polygon fill="white" stroke="#666666" points="146,-71 0,-71 0,-52 146,-52 146,-71"/>
<text text-anchor="middle" x="73" y="-59" font-family="Helvetica,sans-Serif" font-size="10.00">bustub::ReaderWriterLatch</text>
</a>
</g>
</g>
<!-- Node8&#45;&gt;Node7 -->
<g id="edge8_Node000007_Node000008" class="edge">
<title>Node8&#45;&gt;Node7</title>
<g id="a_edge8_Node000007_Node000008"><a xlink:title=" ">
<path fill="none" stroke="#9a32cd" stroke-dasharray="5,2" d="M156.53,-61.5C187.12,-61.5 220.38,-61.5 245.25,-61.5"/>
<polygon fill="#9a32cd" stroke="#9a32cd" points="156.27,-58 146.27,-61.5 156.27,-65 156.27,-58"/>
</a>
</g>
<text text-anchor="middle" x="186.5" y="-64.5" font-family="Helvetica,sans-Serif" font-size="10.00" fill="grey"> rwlatch_</text>
</g>
<!-- Node9 -->
<g id="Node000009" class="node">
<title>Node9</title>
<g id="a_Node000009"><a xlink:href="../../d7/d4e/classbustub_1_1LogManager.html" target="_top" xlink:title=" ">
<polygon fill="white" stroke="#666666" points="343,-19 227,-19 227,0 343,0 343,-19"/>
<text text-anchor="middle" x="285" y="-7" font-family="Helvetica,sans-Serif" font-size="10.00">bustub::LogManager</text>
</a>
</g>
</g>
<!-- Node9&#45;&gt;Node2 -->
<g id="edge14_Node000002_Node000009" class="edge">
<title>Node9&#45;&gt;Node2</title>
<g id="a_edge14_Node000002_Node000009"><a xlink:title=" ">
<path fill="none" stroke="#9a32cd" stroke-dasharray="5,2" d="M353.49,-10.25C417.45,-11.64 516.1,-15.55 601,-26.5 651.4,-33 663.92,-36.33 713,-49.5 728.4,-53.63 745.33,-59.22 758.9,-63.96"/>
<polygon fill="#9a32cd" stroke="#9a32cd" points="353.21,-6.74 343.14,-10.04 353.06,-13.74 353.21,-6.74"/>
</a>
</g>
<text text-anchor="middle" x="526.5" y="-29.5" font-family="Helvetica,sans-Serif" font-size="10.00" fill="grey"> log_manager_</text>
</g>
<!-- Node9&#45;&gt;Node6 -->
<g id="edge9_Node000006_Node000009" class="edge">
<title>Node9&#45;&gt;Node6</title>
<g id="a_edge9_Node000006_Node000009"><a xlink:title=" ">
<path fill="none" stroke="#9a32cd" stroke-dasharray="5,2" d="M345.55,-20.94C385.71,-28.65 438.06,-38.71 475.94,-45.98"/>
<polygon fill="#9a32cd" stroke="#9a32cd" points="346.11,-17.48 335.62,-19.03 344.78,-24.35 346.11,-17.48"/>
</a>
</g>
<text text-anchor="middle" x="397.5" y="-39.5" font-family="Helvetica,sans-Serif" font-size="10.00" fill="grey"> log_manager_</text>
</g>
<!-- Node10 -->
<g id="Node000010" class="node">
<title>Node10</title>
<g id="a_Node000010"><a xlink:href="../../df/d43/classbustub_1_1LockManager.html" target="_top" xlink:title=" ">
<polygon fill="white" stroke="#666666" points="1333,-60 1212,-60 1212,-41 1333,-41 1333,-60"/>
<text text-anchor="middle" x="1272.5" y="-48" font-family="Helvetica,sans-Serif" font-size="10.00">bustub::LockManager</text>
</a>
</g>
</g>
<!-- Node10&#45;&gt;Node2 -->
<g id="edge10_Node000002_Node000010" class="edge">
<title>Node10&#45;&gt;Node2</title>
<g id="a_edge10_Node000002_Node000010"><a xlink:title=" ">
<path fill="none" stroke="#9a32cd" stroke-dasharray="5,2" d="M1201.74,-44.9C1136.31,-40.67 1035.83,-36.79 949,-44.5 907.73,-48.16 861.24,-56.98 828.68,-63.94"/>
<polygon fill="#9a32cd" stroke="#9a32cd" points="1201.72,-48.41 1211.93,-45.58 1202.18,-41.43 1201.72,-48.41"/>
</a>
</g>
<text text-anchor="middle" x="1026" y="-47.5" font-family="Helvetica,sans-Serif" font-size="10.00" fill="grey"> lock_manager_</text>
</g>
<!-- Node11&#45;&gt;Node10 -->
<g id="edge11_Node000010_Node000011" class="edge">
<title>Node11&#45;&gt;Node10</title>
<g id="a_edge11_Node000010_Node000011"><a xlink:title=" ">
<path fill="none" stroke="#9a32cd" stroke-dasharray="5,2" d="M1077.49,-98.63C1086.01,-96.6 1094.76,-94.5 1103,-92.5 1147.97,-81.57 1199.59,-68.65 1233.72,-60.05"/>
<polygon fill="#9a32cd" stroke="#9a32cd" points="1076.57,-95.25 1067.65,-100.97 1078.18,-102.06 1076.57,-95.25"/>
</a>
</g>
<text text-anchor="middle" x="1157.5" y="-90.5" font-family="Helvetica,sans-Serif" font-size="10.00" fill="grey"> txn_manager_</text>
</g>
<!-- Node12 -->
<g id="Node000012" class="node">
<title>Node12</title>
<g id="a_Node000012"><a xlink:href="../../d8/d96/classbustub_1_1Watermark.html" target="_top" xlink:title="tracks all the read timestamps.">
<polygon fill="white" stroke="#666666" points="841,-151 731,-151 731,-132 841,-132 841,-151"/>
<text text-anchor="middle" x="786" y="-139" font-family="Helvetica,sans-Serif" font-size="10.00">bustub::Watermark</text>
</a>
</g>
</g>
<!-- Node12&#45;&gt;Node11 -->
<g id="edge12_Node000011_Node000012" class="edge">
<title>Node12&#45;&gt;Node11</title>
<g id="a_edge12_Node000011_Node000012"><a xlink:title=" ">
<path fill="none" stroke="#9a32cd" stroke-dasharray="5,2" d="M851.27,-133.13C882.3,-129.09 919.68,-124.22 951.81,-120.03"/>
<polygon fill="#9a32cd" stroke="#9a32cd" points="850.47,-129.7 841.01,-134.47 851.37,-136.64 850.47,-129.7"/>
</a>
</g>
<text text-anchor="middle" x="895" y="-133.5" font-family="Helvetica,sans-Serif" font-size="10.00" fill="grey"> running_txns_</text>
</g>
</g>
</svg>

<g id="navigator" transform="translate(0 0)" fill="#404254">
  <rect fill="#f2f5e9" fill-opacity="0.5" stroke="#606060" stroke-width=".5" x="0" y="0" width="60" height="60"/>
  <use id="zoomplus" xlink:href="#zoomPlus" x="17" y="9" onmousedown="handleZoom(evt,'in')"/>
  <use id="zoomminus" xlink:href="#zoomMin" x="42" y="9" onmousedown="handleZoom(evt,'out')"/>
  <use id="reset" xlink:href="#resetDef" x="30" y="36" onmousedown="handleReset()"/>
   <use id="arrowup" xlink:href="#arrowUp" x="0" y="0" onmousedown="handlePan(0,-1)"/>
  <use id="arrowright" xlink:href="#arrowRight" x="0" y="0" onmousedown="handlePan(1,0)"/>
  <use id="arrowdown" xlink:href="#arrowDown" x="0" y="0" onmousedown="handlePan(0,1)"/>
  <use id="arrowleft" xlink:href="#arrowLeft" x="0" y="0" onmousedown="handlePan(-1,0)"/>
</g>
<svg viewBox="0 0 15 15" width="100%" height="30px" preserveAspectRatio="xMaxYMin meet">
 <g id="arrow_out" transform="scale(0.3 0.3)">
  <a xlink:href="classbustub_1_1Optimizer__coll__graph_org.svg" target="_base">
   <rect id="button" ry="5" rx="5" y="6" x="6" height="38" width="38"
        fill="#f2f5e9" fill-opacity="0.5" stroke="#606060" stroke-width="1.0"/>
   <path id="arrow"
     d="M 11.500037,31.436501 C 11.940474,20.09759 22.043105,11.32322 32.158766,21.979434 L 37.068811,17.246167 C 37.068811,17.246167 37.088388,32 37.088388,32 L 22.160133,31.978069 C 22.160133,31.978069 26.997745,27.140456 26.997745,27.140456 C 18.528582,18.264221 13.291696,25.230495 11.500037,31.436501 z"
     style="fill:#404040;"/>
  </a>
 </g>
</svg>

<style type='text/css'>
<![CDATA[
[data-mouse-over-selected='false'] { opacity: 0.7; }
[data-mouse-over-selected='true']  { opacity: 1.0; }
]]>
</style>
<script type="application/ecmascript"><![CDATA[
document.addEventListener('DOMContentLoaded', (event) => {
  highlightEdges();
  highlightAdjacentNodes();
});
]]></script>
</svg>
