<?xml version="1.0" encoding="UTF-8" standalone="no"?>
<!DOCTYPE svg PUBLIC "-//W3C//DTD SVG 1.1//EN"
 "http://www.w3.org/Graphics/SVG/1.1/DTD/svg11.dtd">
<!-- Generated by graphviz version 2.43.0 (0)
 -->
<!-- Title: bustub::IndexScanPlanNode Pages: 1 -->
<svg width="403pt" height="225pt"
 viewBox="0.00 0.00 402.50 225.00" xmlns="http://www.w3.org/2000/svg" xmlns:xlink="http://www.w3.org/1999/xlink">
<g id="graph0" class="graph" transform="scale(1 1) rotate(0) translate(4 221)">
<title>bustub::IndexScanPlanNode</title>
<!-- Node1 -->
<g id="Node000001" class="node">
<title>Node1</title>
<g id="a_Node000001"><a xlink:title=" ">
<polygon fill="#999999" stroke="#666666" points="200.5,-19 48.5,-19 48.5,0 200.5,0 200.5,-19"/>
<text text-anchor="middle" x="124.5" y="-7" font-family="Helvetica,sans-Serif" font-size="10.00">bustub::IndexScanPlanNode</text>
</a>
</g>
</g>
<!-- Node2 -->
<g id="Node000002" class="node">
<title>Node2</title>
<g id="a_Node000002"><a xlink:href="../../d6/d8c/classbustub_1_1AbstractPlanNode.html" target="_top" xlink:title=" ">
<polygon fill="white" stroke="#666666" points="143,-85 0,-85 0,-66 143,-66 143,-85"/>
<text text-anchor="middle" x="71.5" y="-73" font-family="Helvetica,sans-Serif" font-size="10.00">bustub::AbstractPlanNode</text>
</a>
</g>
</g>
<!-- Node2&#45;&gt;Node1 -->
<g id="edge1_Node000001_Node000002" class="edge">
<title>Node2&#45;&gt;Node1</title>
<g id="a_edge1_Node000001_Node000002"><a xlink:title=" ">
<path fill="none" stroke="#63b8ff" d="M85.06,-58.12C95.26,-45.81 108.85,-29.39 117.13,-19.41"/>
<polygon fill="#63b8ff" stroke="#63b8ff" points="82.33,-55.93 78.65,-65.87 87.72,-60.4 82.33,-55.93"/>
</a>
</g>
</g>
<!-- Node3 -->
<g id="Node000003" class="node">
<title>Node3</title>
<g id="a_Node000003"><a xlink:href="../../d2/dd8/classbustub_1_1ConstantValueExpression.html" target="_top" xlink:title=" ">
<polygon fill="white" stroke="#666666" points="340,-85 161,-85 161,-66 340,-66 340,-85"/>
<text text-anchor="middle" x="250.5" y="-73" font-family="Helvetica,sans-Serif" font-size="10.00">bustub::ConstantValueExpression</text>
</a>
</g>
</g>
<!-- Node3&#45;&gt;Node1 -->
<g id="edge2_Node000001_Node000003" class="edge">
<title>Node3&#45;&gt;Node1</title>
<g id="a_edge2_Node000001_Node000003"><a xlink:title=" ">
<path fill="none" stroke="#9a32cd" stroke-dasharray="5,2" d="M224.31,-61.19C199.48,-48.59 162.92,-30.01 141.63,-19.2"/>
<polygon fill="#9a32cd" stroke="#9a32cd" points="223.01,-64.46 233.51,-65.87 226.18,-58.22 223.01,-64.46"/>
</a>
</g>
<text text-anchor="middle" x="222" y="-40" font-family="Helvetica,sans-Serif" font-size="10.00" fill="grey"> pred_key_</text>
</g>
<!-- Node4 -->
<g id="Node000004" class="node">
<title>Node4</title>
<g id="a_Node000004"><a xlink:href="../../da/dd5/classbustub_1_1AbstractExpression.html" target="_top" xlink:title=" ">
<polygon fill="white" stroke="#666666" points="283,-151 134,-151 134,-132 283,-132 283,-151"/>
<text text-anchor="middle" x="208.5" y="-139" font-family="Helvetica,sans-Serif" font-size="10.00">bustub::AbstractExpression</text>
</a>
</g>
</g>
<!-- Node4&#45;&gt;Node3 -->
<g id="edge3_Node000003_Node000004" class="edge">
<title>Node4&#45;&gt;Node3</title>
<g id="a_edge3_Node000003_Node000004"><a xlink:title=" ">
<path fill="none" stroke="#63b8ff" d="M219.72,-123.41C227.74,-111.18 238.23,-95.2 244.66,-85.41"/>
<polygon fill="#63b8ff" stroke="#63b8ff" points="216.72,-121.59 214.16,-131.87 222.58,-125.43 216.72,-121.59"/>
</a>
</g>
</g>
<!-- Node5 -->
<g id="Node000005" class="node">
<title>Node5</title>
<g id="a_Node000005"><a xlink:href="../../d4/df7/classbustub_1_1Value.html" target="_top" xlink:title=" ">
<polygon fill="white" stroke="#666666" points="384,-151 301,-151 301,-132 384,-132 384,-151"/>
<text text-anchor="middle" x="342.5" y="-139" font-family="Helvetica,sans-Serif" font-size="10.00">bustub::Value</text>
</a>
</g>
</g>
<!-- Node5&#45;&gt;Node3 -->
<g id="edge4_Node000003_Node000005" class="edge">
<title>Node5&#45;&gt;Node3</title>
<g id="a_edge4_Node000003_Node000005"><a xlink:title=" ">
<path fill="none" stroke="#9a32cd" stroke-dasharray="5,2" d="M321.42,-125.83C303.37,-113.28 278,-95.63 263,-85.2"/>
<polygon fill="#9a32cd" stroke="#9a32cd" points="319.88,-129.03 330.09,-131.87 323.88,-123.28 319.88,-129.03"/>
</a>
</g>
<text text-anchor="middle" x="313.5" y="-106" font-family="Helvetica,sans-Serif" font-size="10.00" fill="grey"> val_</text>
</g>
<!-- Node6 -->
<g id="Node000006" class="node">
<title>Node6</title>
<g id="a_Node000006"><a xlink:href="../../d7/db9/unionbustub_1_1Value_1_1Val.html" target="_top" xlink:title=" ">
<polygon fill="white" stroke="#666666" points="394.5,-217 290.5,-217 290.5,-198 394.5,-198 394.5,-217"/>
<text text-anchor="middle" x="342.5" y="-205" font-family="Helvetica,sans-Serif" font-size="10.00">bustub::Value::Val</text>
</a>
</g>
</g>
<!-- Node6&#45;&gt;Node5 -->
<g id="edge5_Node000005_Node000006" class="edge">
<title>Node6&#45;&gt;Node5</title>
<g id="a_edge5_Node000005_Node000006"><a xlink:title=" ">
<path fill="none" stroke="#9a32cd" stroke-dasharray="5,2" d="M342.5,-187.58C342.5,-175.63 342.5,-160.72 342.5,-151.41"/>
<polygon fill="#9a32cd" stroke="#9a32cd" points="339,-187.87 342.5,-197.87 346,-187.87 339,-187.87"/>
</a>
</g>
<text text-anchor="middle" x="360.5" y="-172" font-family="Helvetica,sans-Serif" font-size="10.00" fill="grey"> value_</text>
</g>
</g>
</svg>
