<?xml version="1.0" encoding="UTF-8" standalone="no"?>
<!DOCTYPE svg PUBLIC "-//W3C//DTD SVG 1.1//EN"
 "http://www.w3.org/Graphics/SVG/1.1/DTD/svg11.dtd">
<!-- Generated by graphviz version 2.43.0 (0)
 -->
<!-- Title: bustub::TableIterator Pages: 1 -->
<svg width="289pt" height="302pt"
 viewBox="0.00 0.00 289.00 302.00" xmlns="http://www.w3.org/2000/svg" xmlns:xlink="http://www.w3.org/1999/xlink">
<g id="graph0" class="graph" transform="scale(1 1) rotate(0) translate(4 298)">
<title>bustub::TableIterator</title>
<!-- Node1 -->
<g id="Node000001" class="node">
<title>Node1</title>
<g id="a_Node000001"><a xlink:title=" ">
<polygon fill="#999999" stroke="#666666" points="253.5,-19 136.5,-19 136.5,0 253.5,0 253.5,-19"/>
<text text-anchor="middle" x="195" y="-7" font-family="Helvetica,sans-Serif" font-size="10.00">bustub::TableIterator</text>
</a>
</g>
</g>
<!-- Node2 -->
<g id="Node000002" class="node">
<title>Node2</title>
<g id="a_Node000002"><a xlink:href="../../d7/de0/classbustub_1_1TableHeap.html" target="_top" xlink:title=" ">
<polygon fill="white" stroke="#666666" points="183.5,-96 76.5,-96 76.5,-77 183.5,-77 183.5,-96"/>
<text text-anchor="middle" x="130" y="-84" font-family="Helvetica,sans-Serif" font-size="10.00">bustub::TableHeap</text>
</a>
</g>
</g>
<!-- Node2&#45;&gt;Node1 -->
<g id="edge1_Node000001_Node000002" class="edge">
<title>Node2&#45;&gt;Node1</title>
<g id="a_edge1_Node000001_Node000002"><a xlink:title=" ">
<path fill="none" stroke="#9a32cd" stroke-dasharray="5,2" d="M131.86,-66.7C133.64,-56.96 137.14,-45.37 144,-37 150.51,-29.05 160.04,-23.21 169.1,-19.06"/>
<polygon fill="#9a32cd" stroke="#9a32cd" points="128.38,-66.27 130.48,-76.66 135.32,-67.23 128.38,-66.27"/>
</a>
</g>
<text text-anchor="middle" x="175.5" y="-45.5" font-family="Helvetica,sans-Serif" font-size="10.00" fill="grey"> table_heap_</text>
</g>
<!-- Node3 -->
<g id="Node000003" class="node">
<title>Node3</title>
<g id="a_Node000003"><a xlink:href="../../d6/d5d/classbustub_1_1BufferPoolManager.html" target="_top" xlink:title=" ">
<polygon fill="white" stroke="#666666" points="204.5,-162 55.5,-162 55.5,-143 204.5,-143 204.5,-162"/>
<text text-anchor="middle" x="130" y="-150" font-family="Helvetica,sans-Serif" font-size="10.00">bustub::BufferPoolManager</text>
</a>
</g>
</g>
<!-- Node3&#45;&gt;Node2 -->
<g id="edge2_Node000002_Node000003" class="edge">
<title>Node3&#45;&gt;Node2</title>
<g id="a_edge2_Node000002_Node000003"><a xlink:title=" ">
<path fill="none" stroke="#9a32cd" stroke-dasharray="5,2" d="M130,-132.58C130,-120.63 130,-105.72 130,-96.41"/>
<polygon fill="#9a32cd" stroke="#9a32cd" points="126.5,-132.87 130,-142.87 133.5,-132.87 126.5,-132.87"/>
</a>
</g>
<text text-anchor="middle" x="145.5" y="-117" font-family="Helvetica,sans-Serif" font-size="10.00" fill="grey"> bpm_</text>
</g>
<!-- Node4 -->
<g id="Node000004" class="node">
<title>Node4</title>
<g id="a_Node000004"><a xlink:href="../../d4/d87/classbustub_1_1Page.html" target="_top" xlink:title=" ">
<polygon fill="white" stroke="#666666" points="112.5,-228 33.5,-228 33.5,-209 112.5,-209 112.5,-228"/>
<text text-anchor="middle" x="73" y="-216" font-family="Helvetica,sans-Serif" font-size="10.00">bustub::Page</text>
</a>
</g>
</g>
<!-- Node4&#45;&gt;Node3 -->
<g id="edge3_Node000003_Node000004" class="edge">
<title>Node4&#45;&gt;Node3</title>
<g id="a_edge3_Node000003_Node000004"><a xlink:title=" ">
<path fill="none" stroke="#9a32cd" stroke-dasharray="5,2" d="M87.59,-201.12C98.56,-188.81 113.17,-172.39 122.07,-162.41"/>
<polygon fill="#9a32cd" stroke="#9a32cd" points="84.72,-199.07 80.69,-208.87 89.95,-203.73 84.72,-199.07"/>
</a>
</g>
<text text-anchor="middle" x="124" y="-183" font-family="Helvetica,sans-Serif" font-size="10.00" fill="grey"> pages_</text>
</g>
<!-- Node5 -->
<g id="Node000005" class="node">
<title>Node5</title>
<g id="a_Node000005"><a xlink:href="../../d8/dbd/classbustub_1_1ReaderWriterLatch.html" target="_top" xlink:title=" ">
<polygon fill="white" stroke="#666666" points="146,-294 0,-294 0,-275 146,-275 146,-294"/>
<text text-anchor="middle" x="73" y="-282" font-family="Helvetica,sans-Serif" font-size="10.00">bustub::ReaderWriterLatch</text>
</a>
</g>
</g>
<!-- Node5&#45;&gt;Node4 -->
<g id="edge4_Node000004_Node000005" class="edge">
<title>Node5&#45;&gt;Node4</title>
<g id="a_edge4_Node000004_Node000005"><a xlink:title=" ">
<path fill="none" stroke="#9a32cd" stroke-dasharray="5,2" d="M73,-264.58C73,-252.63 73,-237.72 73,-228.41"/>
<polygon fill="#9a32cd" stroke="#9a32cd" points="69.5,-264.87 73,-274.87 76.5,-264.87 69.5,-264.87"/>
</a>
</g>
<text text-anchor="middle" x="95.5" y="-249" font-family="Helvetica,sans-Serif" font-size="10.00" fill="grey"> rwlatch_</text>
</g>
<!-- Node6 -->
<g id="Node000006" class="node">
<title>Node6</title>
<g id="a_Node000006"><a xlink:href="../../d7/d4e/classbustub_1_1LogManager.html" target="_top" xlink:title=" ">
<polygon fill="white" stroke="#666666" points="246,-228 130,-228 130,-209 246,-209 246,-228"/>
<text text-anchor="middle" x="188" y="-216" font-family="Helvetica,sans-Serif" font-size="10.00">bustub::LogManager</text>
</a>
</g>
</g>
<!-- Node6&#45;&gt;Node3 -->
<g id="edge5_Node000003_Node000006" class="edge">
<title>Node6&#45;&gt;Node3</title>
<g id="a_edge5_Node000003_Node000006"><a xlink:title=" ">
<path fill="none" stroke="#9a32cd" stroke-dasharray="5,2" d="M173.16,-201.12C162,-188.81 147.12,-172.39 138.07,-162.41"/>
<polygon fill="#9a32cd" stroke="#9a32cd" points="170.87,-203.81 180.18,-208.87 176.06,-199.11 170.87,-203.81"/>
</a>
</g>
<text text-anchor="middle" x="198.5" y="-183" font-family="Helvetica,sans-Serif" font-size="10.00" fill="grey"> log_manager_</text>
</g>
<!-- Node7 -->
<g id="Node000007" class="node">
<title>Node7</title>
<g id="a_Node000007"><a xlink:href="../../d3/d22/classbustub_1_1RID.html" target="_top" xlink:title=" ">
<polygon fill="white" stroke="#666666" points="274.5,-96 201.5,-96 201.5,-77 274.5,-77 274.5,-96"/>
<text text-anchor="middle" x="238" y="-84" font-family="Helvetica,sans-Serif" font-size="10.00">bustub::RID</text>
</a>
</g>
</g>
<!-- Node7&#45;&gt;Node1 -->
<g id="edge6_Node000001_Node000007" class="edge">
<title>Node7&#45;&gt;Node1</title>
<g id="a_edge6_Node000001_Node000007"><a xlink:title=" ">
<path fill="none" stroke="#9a32cd" stroke-dasharray="5,2" d="M227.88,-67.86C219.06,-52.47 206.65,-30.82 199.88,-19"/>
<polygon fill="#9a32cd" stroke="#9a32cd" points="225.06,-69.96 233.07,-76.9 231.13,-66.48 225.06,-69.96"/>
</a>
</g>
<text text-anchor="middle" x="251" y="-51" font-family="Helvetica,sans-Serif" font-size="10.00" fill="grey"> rid_</text>
<text text-anchor="middle" x="251" y="-40" font-family="Helvetica,sans-Serif" font-size="10.00" fill="grey">stop_at_rid_</text>
</g>
</g>
</svg>
