<?xml version="1.0" encoding="UTF-8" standalone="no"?>
<!DOCTYPE svg PUBLIC "-//W3C//DTD SVG 1.1//EN"
 "http://www.w3.org/Graphics/SVG/1.1/DTD/svg11.dtd">
<!-- Generated by graphviz version 2.43.0 (0)
 -->
<!-- Title: bustub::DecimalType Pages: 1 -->
<svg width="167pt" height="139pt"
 viewBox="0.00 0.00 166.50 139.00" xmlns="http://www.w3.org/2000/svg" xmlns:xlink="http://www.w3.org/1999/xlink">
<g id="graph0" class="graph" transform="scale(1 1) rotate(0) translate(4 135)">
<title>bustub::DecimalType</title>
<!-- Node1 -->
<g id="Node000001" class="node">
<title>Node1</title>
<g id="a_Node000001"><a xlink:title=" ">
<polygon fill="#999999" stroke="#666666" points="119,-19 0,-19 0,0 119,0 119,-19"/>
<text text-anchor="middle" x="59.5" y="-7" font-family="Helvetica,sans-Serif" font-size="10.00">bustub::DecimalType</text>
</a>
</g>
</g>
<!-- Node2 -->
<g id="Node000002" class="node">
<title>Node2</title>
<g id="a_Node000002"><a xlink:href="../../de/def/classbustub_1_1NumericType.html" target="_top" xlink:title=" ">
<polygon fill="white" stroke="#666666" points="119,-75 0,-75 0,-56 119,-56 119,-75"/>
<text text-anchor="middle" x="59.5" y="-63" font-family="Helvetica,sans-Serif" font-size="10.00">bustub::NumericType</text>
</a>
</g>
</g>
<!-- Node2&#45;&gt;Node1 -->
<g id="edge1_Node000001_Node000002" class="edge">
<title>Node2&#45;&gt;Node1</title>
<g id="a_edge1_Node000001_Node000002"><a xlink:title=" ">
<path fill="none" stroke="#63b8ff" d="M59.5,-45.3C59.5,-36.41 59.5,-26.28 59.5,-19.25"/>
<polygon fill="#63b8ff" stroke="#63b8ff" points="56,-45.58 59.5,-55.58 63,-45.58 56,-45.58"/>
</a>
</g>
</g>
<!-- Node3 -->
<g id="Node000003" class="node">
<title>Node3</title>
<g id="a_Node000003"><a xlink:href="../../d9/df4/classbustub_1_1Type.html" target="_top" xlink:title=" ">
<polygon fill="white" stroke="#666666" points="98.5,-131 20.5,-131 20.5,-112 98.5,-112 98.5,-131"/>
<text text-anchor="middle" x="59.5" y="-119" font-family="Helvetica,sans-Serif" font-size="10.00">bustub::Type</text>
</a>
</g>
</g>
<!-- Node3&#45;&gt;Node2 -->
<g id="edge2_Node000002_Node000003" class="edge">
<title>Node3&#45;&gt;Node2</title>
<g id="a_edge2_Node000002_Node000003"><a xlink:title=" ">
<path fill="none" stroke="#63b8ff" d="M59.5,-101.3C59.5,-92.41 59.5,-82.28 59.5,-75.25"/>
<polygon fill="#63b8ff" stroke="#63b8ff" points="56,-101.58 59.5,-111.58 63,-101.58 56,-101.58"/>
</a>
</g>
</g>
<!-- Node3&#45;&gt;Node3 -->
<g id="edge3_Node000003_Node000003" class="edge">
<title>Node3&#45;&gt;Node3</title>
<g id="a_edge3_Node000003_Node000003"><a xlink:title=" ">
<path fill="none" stroke="#9a32cd" stroke-dasharray="5,2" d="M108.78,-125.74C113.5,-124.88 116.5,-123.47 116.5,-121.5 116.5,-118.36 108.83,-116.62 98.66,-116.3"/>
<polygon fill="#9a32cd" stroke="#9a32cd" points="108.29,-122.27 98.66,-126.7 108.95,-129.24 108.29,-122.27"/>
</a>
</g>
<text text-anchor="middle" x="137.5" y="-119" font-family="Helvetica,sans-Serif" font-size="10.00" fill="grey"> k_types</text>
</g>
</g>
</svg>
