<?xml version="1.0" encoding="UTF-8" standalone="no"?>
<!DOCTYPE svg PUBLIC "-//W3C//DTD SVG 1.1//EN"
 "http://www.w3.org/Graphics/SVG/1.1/DTD/svg11.dtd">
<!-- Generated by graphviz version 2.43.0 (0)
 -->
<!-- Title: src/include/binder/statement/create_statement.h Pages: 1 -->
<svg width="1113pt" height="269pt"
 viewBox="0.00 0.00 1113.00 269.00" xmlns="http://www.w3.org/2000/svg" xmlns:xlink="http://www.w3.org/1999/xlink">
<g id="graph0" class="graph" transform="scale(1 1) rotate(0) translate(4 265)">
<title>src/include/binder/statement/create_statement.h</title>
<!-- Node1 -->
<g id="Node000001" class="node">
<title>Node1</title>
<g id="a_Node000001"><a xlink:title=" ">
<polygon fill="#999999" stroke="#666666" points="943.5,-261 775.5,-261 775.5,-231 943.5,-231 943.5,-261"/>
<text text-anchor="start" x="783.5" y="-249" font-family="Helvetica,sans-Serif" font-size="10.00">src/include/binder</text>
<text text-anchor="middle" x="859.5" y="-238" font-family="Helvetica,sans-Serif" font-size="10.00">/statement/create_statement.h</text>
</a>
</g>
</g>
<!-- Node2 -->
<g id="Node000002" class="node">
<title>Node2</title>
<g id="a_Node000002"><a xlink:title=" ">
<polygon fill="#e0e0e0" stroke="#999999" points="670.5,-19 626.5,-19 626.5,0 670.5,0 670.5,-19"/>
<text text-anchor="middle" x="648.5" y="-7" font-family="Helvetica,sans-Serif" font-size="10.00">string</text>
</a>
</g>
</g>
<!-- Node1&#45;&gt;Node2 -->
<g id="edge1_Node000001_Node000002" class="edge">
<title>Node1&#45;&gt;Node2</title>
<g id="a_edge1_Node000001_Node000002"><a xlink:title=" ">
<path fill="none" stroke="#63b8ff" d="M897.29,-230.88C933.77,-214.97 986.84,-185.28 1010.5,-140 1028.63,-105.32 1018.76,-78.55 987.5,-55 934.71,-15.24 762.13,-30.72 680.69,-18.73"/>
<polygon fill="#63b8ff" stroke="#63b8ff" points="681.2,-15.27 670.76,-17.04 680.02,-22.17 681.2,-15.27"/>
</a>
</g>
</g>
<!-- Node3 -->
<g id="Node000003" class="node">
<title>Node3</title>
<g id="a_Node000003"><a xlink:title=" ">
<polygon fill="#e0e0e0" stroke="#999999" points="1105,-195 1058,-195 1058,-176 1105,-176 1105,-195"/>
<text text-anchor="middle" x="1081.5" y="-183" font-family="Helvetica,sans-Serif" font-size="10.00">vector</text>
</a>
</g>
</g>
<!-- Node1&#45;&gt;Node3 -->
<g id="edge2_Node000001_Node000003" class="edge">
<title>Node1&#45;&gt;Node3</title>
<g id="a_edge2_Node000001_Node000003"><a xlink:title=" ">
<path fill="none" stroke="#63b8ff" d="M912.67,-230.99C954.7,-219.91 1012.08,-204.79 1047.95,-195.34"/>
<polygon fill="#63b8ff" stroke="#63b8ff" points="1049.13,-198.65 1057.91,-192.72 1047.34,-191.88 1049.13,-198.65"/>
</a>
</g>
</g>
<!-- Node4 -->
<g id="Node000004" class="node">
<title>Node4</title>
<g id="a_Node000004"><a xlink:href="../../de/d1a/bound__statement_8h.html" target="_top" xlink:title=" ">
<polygon fill="white" stroke="#666666" points="499,-195 354,-195 354,-176 499,-176 499,-195"/>
<text text-anchor="middle" x="426.5" y="-183" font-family="Helvetica,sans-Serif" font-size="10.00">binder/bound_statement.h</text>
</a>
</g>
</g>
<!-- Node1&#45;&gt;Node4 -->
<g id="edge3_Node000001_Node000004" class="edge">
<title>Node1&#45;&gt;Node4</title>
<g id="a_edge3_Node000001_Node000004"><a xlink:title=" ">
<path fill="none" stroke="#63b8ff" d="M775.5,-233.65C695.36,-222.82 575.86,-206.68 499.56,-196.37"/>
<polygon fill="#63b8ff" stroke="#63b8ff" points="499.93,-192.89 489.55,-195.02 498.99,-199.83 499.93,-192.89"/>
</a>
</g>
</g>
<!-- Node19 -->
<g id="Node000019" class="node">
<title>Node19</title>
<g id="a_Node000019"><a xlink:href="../../dc/df8/column_8h.html" target="_top" xlink:title=" ">
<polygon fill="white" stroke="#666666" points="741,-195 640,-195 640,-176 741,-176 741,-195"/>
<text text-anchor="middle" x="690.5" y="-183" font-family="Helvetica,sans-Serif" font-size="10.00">catalog/column.h</text>
</a>
</g>
</g>
<!-- Node1&#45;&gt;Node19 -->
<g id="edge23_Node000001_Node000019" class="edge">
<title>Node1&#45;&gt;Node19</title>
<g id="a_edge23_Node000001_Node000019"><a xlink:title=" ">
<path fill="none" stroke="#63b8ff" d="M819.02,-230.99C790.32,-221.05 752.22,-207.86 724.97,-198.43"/>
<polygon fill="#63b8ff" stroke="#63b8ff" points="726.05,-195.1 715.46,-195.14 723.76,-201.72 726.05,-195.1"/>
</a>
</g>
</g>
<!-- Node4&#45;&gt;Node2 -->
<g id="edge4_Node000004_Node000002" class="edge">
<title>Node4&#45;&gt;Node2</title>
<g id="a_edge4_Node000004_Node000002"><a xlink:title=" ">
<path fill="none" stroke="#63b8ff" d="M410.18,-175.99C371.96,-155.03 282.76,-99.37 321.5,-55 359.57,-11.4 541.27,-8.9 616.14,-9.79"/>
<polygon fill="#63b8ff" stroke="#63b8ff" points="616.33,-13.29 626.38,-9.94 616.43,-6.29 616.33,-13.29"/>
</a>
</g>
</g>
<!-- Node5 -->
<g id="Node000005" class="node">
<title>Node5</title>
<g id="a_Node000005"><a xlink:href="../../dc/dba/statement__type_8h.html" target="_top" xlink:title=" ">
<polygon fill="white" stroke="#666666" points="161,-140 12,-140 12,-110 161,-110 161,-140"/>
<text text-anchor="start" x="20" y="-128" font-family="Helvetica,sans-Serif" font-size="10.00">common/enums/statement</text>
<text text-anchor="middle" x="86.5" y="-117" font-family="Helvetica,sans-Serif" font-size="10.00">_type.h</text>
</a>
</g>
</g>
<!-- Node4&#45;&gt;Node5 -->
<g id="edge5_Node000004_Node000005" class="edge">
<title>Node4&#45;&gt;Node5</title>
<g id="a_edge5_Node000004_Node000005"><a xlink:title=" ">
<path fill="none" stroke="#63b8ff" d="M377.06,-175.99C323.22,-166.73 236.12,-151.74 171.31,-140.59"/>
<polygon fill="#63b8ff" stroke="#63b8ff" points="171.56,-137.08 161.11,-138.84 170.37,-143.98 171.56,-137.08"/>
</a>
</g>
</g>
<!-- Node11 -->
<g id="Node000011" class="node">
<title>Node11</title>
<g id="a_Node000011"><a xlink:href="../../dd/d2d/exception_8h.html" target="_top" xlink:title=" ">
<polygon fill="white" stroke="#666666" points="581,-134.5 462,-134.5 462,-115.5 581,-115.5 581,-134.5"/>
<text text-anchor="middle" x="521.5" y="-122.5" font-family="Helvetica,sans-Serif" font-size="10.00">common/exception.h</text>
</a>
</g>
</g>
<!-- Node4&#45;&gt;Node11 -->
<g id="edge11_Node000004_Node000011" class="edge">
<title>Node4&#45;&gt;Node11</title>
<g id="a_edge11_Node000004_Node000011"><a xlink:title=" ">
<path fill="none" stroke="#63b8ff" d="M440.52,-175.87C455.81,-166.45 480.53,-151.23 498.64,-140.08"/>
<polygon fill="#63b8ff" stroke="#63b8ff" points="500.75,-142.89 507.42,-134.67 497.07,-136.93 500.75,-142.89"/>
</a>
</g>
</g>
<!-- Node6 -->
<g id="Node000006" class="node">
<title>Node6</title>
<g id="a_Node000006"><a xlink:href="../../db/d16/config_8h.html" target="_top" xlink:title=" ">
<polygon fill="white" stroke="#666666" points="101,-74 0,-74 0,-55 101,-55 101,-74"/>
<text text-anchor="middle" x="50.5" y="-62" font-family="Helvetica,sans-Serif" font-size="10.00">common/config.h</text>
</a>
</g>
</g>
<!-- Node5&#45;&gt;Node6 -->
<g id="edge6_Node000005_Node000006" class="edge">
<title>Node5&#45;&gt;Node6</title>
<g id="a_edge6_Node000005_Node000006"><a xlink:title=" ">
<path fill="none" stroke="#63b8ff" d="M77.79,-109.84C72.83,-101.78 66.57,-91.62 61.3,-83.06"/>
<polygon fill="#63b8ff" stroke="#63b8ff" points="64.12,-80.95 55.89,-74.27 58.15,-84.62 64.12,-80.95"/>
</a>
</g>
</g>
<!-- Node10 -->
<g id="Node000010" class="node">
<title>Node10</title>
<g id="a_Node000010"><a xlink:title=" ">
<polygon fill="#e0e0e0" stroke="#999999" points="198,-74 119,-74 119,-55 198,-55 198,-74"/>
<text text-anchor="middle" x="158.5" y="-62" font-family="Helvetica,sans-Serif" font-size="10.00">fmt/format.h</text>
</a>
</g>
</g>
<!-- Node5&#45;&gt;Node10 -->
<g id="edge10_Node000005_Node000010" class="edge">
<title>Node5&#45;&gt;Node10</title>
<g id="a_edge10_Node000005_Node000010"><a xlink:title=" ">
<path fill="none" stroke="#63b8ff" d="M103.93,-109.84C114.81,-101 128.8,-89.63 139.89,-80.62"/>
<polygon fill="#63b8ff" stroke="#63b8ff" points="142.16,-83.29 147.71,-74.27 137.74,-77.86 142.16,-83.29"/>
</a>
</g>
</g>
<!-- Node7 -->
<g id="Node000007" class="node">
<title>Node7</title>
<g id="a_Node000007"><a xlink:title=" ">
<polygon fill="#e0e0e0" stroke="#999999" points="163.5,-19 113.5,-19 113.5,0 163.5,0 163.5,-19"/>
<text text-anchor="middle" x="138.5" y="-7" font-family="Helvetica,sans-Serif" font-size="10.00">atomic</text>
</a>
</g>
</g>
<!-- Node6&#45;&gt;Node7 -->
<g id="edge7_Node000006_Node000007" class="edge">
<title>Node6&#45;&gt;Node7</title>
<g id="a_edge7_Node000006_Node000007"><a xlink:title=" ">
<path fill="none" stroke="#63b8ff" d="M64.64,-54.98C78.29,-46.77 99.19,-34.18 115.28,-24.49"/>
<polygon fill="#63b8ff" stroke="#63b8ff" points="117.34,-27.33 124.1,-19.17 113.73,-21.33 117.34,-27.33"/>
</a>
</g>
</g>
<!-- Node8 -->
<g id="Node000008" class="node">
<title>Node8</title>
<g id="a_Node000008"><a xlink:title=" ">
<polygon fill="#e0e0e0" stroke="#999999" points="75.5,-19 25.5,-19 25.5,0 75.5,0 75.5,-19"/>
<text text-anchor="middle" x="50.5" y="-7" font-family="Helvetica,sans-Serif" font-size="10.00">chrono</text>
</a>
</g>
</g>
<!-- Node6&#45;&gt;Node8 -->
<g id="edge8_Node000006_Node000008" class="edge">
<title>Node6&#45;&gt;Node8</title>
<g id="a_edge8_Node000006_Node000008"><a xlink:title=" ">
<path fill="none" stroke="#63b8ff" d="M50.5,-54.75C50.5,-47.8 50.5,-37.85 50.5,-29.13"/>
<polygon fill="#63b8ff" stroke="#63b8ff" points="54,-29.09 50.5,-19.09 47,-29.09 54,-29.09"/>
</a>
</g>
</g>
<!-- Node9 -->
<g id="Node000009" class="node">
<title>Node9</title>
<g id="a_Node000009"><a xlink:title=" ">
<polygon fill="#e0e0e0" stroke="#999999" points="251.5,-19 201.5,-19 201.5,0 251.5,0 251.5,-19"/>
<text text-anchor="middle" x="226.5" y="-7" font-family="Helvetica,sans-Serif" font-size="10.00">cstdint</text>
</a>
</g>
</g>
<!-- Node6&#45;&gt;Node9 -->
<g id="edge9_Node000006_Node000009" class="edge">
<title>Node6&#45;&gt;Node9</title>
<g id="a_edge9_Node000006_Node000009"><a xlink:title=" ">
<path fill="none" stroke="#63b8ff" d="M78.78,-54.98C109.51,-45.73 158.64,-30.93 191.72,-20.97"/>
<polygon fill="#63b8ff" stroke="#63b8ff" points="192.86,-24.28 201.43,-18.05 190.84,-17.58 192.86,-24.28"/>
</a>
</g>
</g>
<!-- Node11&#45;&gt;Node2 -->
<g id="edge18_Node000011_Node000002" class="edge">
<title>Node11&#45;&gt;Node2</title>
<g id="a_edge18_Node000011_Node000002"><a xlink:title=" ">
<path fill="none" stroke="#63b8ff" d="M525.8,-115.44C533.18,-101.41 549.42,-73.26 569.5,-55 583.87,-41.93 602.74,-31.12 618.43,-23.43"/>
<polygon fill="#63b8ff" stroke="#63b8ff" points="620.17,-26.48 627.73,-19.05 617.19,-20.15 620.17,-26.48"/>
</a>
</g>
</g>
<!-- Node11&#45;&gt;Node7 -->
<g id="edge12_Node000011_Node000007" class="edge">
<title>Node11&#45;&gt;Node7</title>
<g id="a_edge12_Node000011_Node000007"><a xlink:title=" ">
<path fill="none" stroke="#63b8ff" d="M482.88,-115.42C442.4,-106.18 377.07,-90.55 321.5,-74 268.03,-58.07 207.01,-36.12 170.68,-22.64"/>
<polygon fill="#63b8ff" stroke="#63b8ff" points="171.7,-19.29 161.11,-19.08 169.26,-25.85 171.7,-19.29"/>
</a>
</g>
</g>
<!-- Node12 -->
<g id="Node000012" class="node">
<title>Node12</title>
<g id="a_Node000012"><a xlink:title=" ">
<polygon fill="#e0e0e0" stroke="#999999" points="376.5,-74 330.5,-74 330.5,-55 376.5,-55 376.5,-74"/>
<text text-anchor="middle" x="353.5" y="-62" font-family="Helvetica,sans-Serif" font-size="10.00">cstdio</text>
</a>
</g>
</g>
<!-- Node11&#45;&gt;Node12 -->
<g id="edge13_Node000011_Node000012" class="edge">
<title>Node11&#45;&gt;Node12</title>
<g id="a_edge13_Node000011_Node000012"><a xlink:title=" ">
<path fill="none" stroke="#63b8ff" d="M497.07,-115.49C467.79,-105.3 418.62,-88.18 386.12,-76.86"/>
<polygon fill="#63b8ff" stroke="#63b8ff" points="387.2,-73.53 376.61,-73.55 384.9,-80.14 387.2,-73.53"/>
</a>
</g>
</g>
<!-- Node13 -->
<g id="Node000013" class="node">
<title>Node13</title>
<g id="a_Node000013"><a xlink:title=" ">
<polygon fill="#e0e0e0" stroke="#999999" points="444,-74 395,-74 395,-55 444,-55 444,-74"/>
<text text-anchor="middle" x="419.5" y="-62" font-family="Helvetica,sans-Serif" font-size="10.00">cstdlib</text>
</a>
</g>
</g>
<!-- Node11&#45;&gt;Node13 -->
<g id="edge14_Node000011_Node000013" class="edge">
<title>Node11&#45;&gt;Node13</title>
<g id="a_edge14_Node000011_Node000013"><a xlink:title=" ">
<path fill="none" stroke="#63b8ff" d="M506.45,-115.37C489.88,-105.86 463,-90.45 443.51,-79.27"/>
<polygon fill="#63b8ff" stroke="#63b8ff" points="445.03,-76.11 434.61,-74.17 441.55,-82.18 445.03,-76.11"/>
</a>
</g>
</g>
<!-- Node14 -->
<g id="Node000014" class="node">
<title>Node14</title>
<g id="a_Node000014"><a xlink:title=" ">
<polygon fill="#e0e0e0" stroke="#999999" points="522.5,-74 462.5,-74 462.5,-55 522.5,-55 522.5,-74"/>
<text text-anchor="middle" x="492.5" y="-62" font-family="Helvetica,sans-Serif" font-size="10.00">iostream</text>
</a>
</g>
</g>
<!-- Node11&#45;&gt;Node14 -->
<g id="edge15_Node000011_Node000014" class="edge">
<title>Node11&#45;&gt;Node14</title>
<g id="a_edge15_Node000011_Node000014"><a xlink:title=" ">
<path fill="none" stroke="#63b8ff" d="M517.22,-115.37C513.07,-106.99 506.63,-94.01 501.37,-83.39"/>
<polygon fill="#63b8ff" stroke="#63b8ff" points="504.37,-81.57 496.8,-74.17 498.1,-84.68 504.37,-81.57"/>
</a>
</g>
</g>
<!-- Node15 -->
<g id="Node000015" class="node">
<title>Node15</title>
<g id="a_Node000015"><a xlink:title=" ">
<polygon fill="#e0e0e0" stroke="#999999" points="636.5,-74 578.5,-74 578.5,-55 636.5,-55 636.5,-74"/>
<text text-anchor="middle" x="607.5" y="-62" font-family="Helvetica,sans-Serif" font-size="10.00">memory</text>
</a>
</g>
</g>
<!-- Node11&#45;&gt;Node15 -->
<g id="edge16_Node000011_Node000015" class="edge">
<title>Node11&#45;&gt;Node15</title>
<g id="a_edge16_Node000011_Node000015"><a xlink:title=" ">
<path fill="none" stroke="#63b8ff" d="M534.19,-115.37C547.91,-106.04 570,-91.01 586.35,-79.88"/>
<polygon fill="#63b8ff" stroke="#63b8ff" points="588.46,-82.69 594.76,-74.17 584.52,-76.9 588.46,-82.69"/>
</a>
</g>
</g>
<!-- Node16 -->
<g id="Node000016" class="node">
<title>Node16</title>
<g id="a_Node000016"><a xlink:title=" ">
<polygon fill="#e0e0e0" stroke="#999999" points="810,-74 745,-74 745,-55 810,-55 810,-74"/>
<text text-anchor="middle" x="777.5" y="-62" font-family="Helvetica,sans-Serif" font-size="10.00">stdexcept</text>
</a>
</g>
</g>
<!-- Node11&#45;&gt;Node16 -->
<g id="edge17_Node000011_Node000016" class="edge">
<title>Node11&#45;&gt;Node16</title>
<g id="a_edge17_Node000011_Node000016"><a xlink:title=" ">
<path fill="none" stroke="#63b8ff" d="M558.72,-115.49C605.46,-104.81 685.46,-86.53 734.69,-75.28"/>
<polygon fill="#63b8ff" stroke="#63b8ff" points="735.73,-78.64 744.7,-73 734.17,-71.81 735.73,-78.64"/>
</a>
</g>
</g>
<!-- Node17 -->
<g id="Node000017" class="node">
<title>Node17</title>
<g id="a_Node000017"><a xlink:href="../../df/def/type_8h.html" target="_top" xlink:title=" ">
<polygon fill="white" stroke="#666666" points="726.5,-74 654.5,-74 654.5,-55 726.5,-55 726.5,-74"/>
<text text-anchor="middle" x="690.5" y="-62" font-family="Helvetica,sans-Serif" font-size="10.00">type/type.h</text>
</a>
</g>
</g>
<!-- Node11&#45;&gt;Node17 -->
<g id="edge19_Node000011_Node000017" class="edge">
<title>Node11&#45;&gt;Node17</title>
<g id="a_edge19_Node000011_Node000017"><a xlink:title=" ">
<path fill="none" stroke="#63b8ff" d="M546.07,-115.49C575.11,-105.44 623.6,-88.66 656.3,-77.34"/>
<polygon fill="#63b8ff" stroke="#63b8ff" points="657.59,-80.6 665.9,-74.02 655.3,-73.98 657.59,-80.6"/>
</a>
</g>
</g>
<!-- Node17&#45;&gt;Node2 -->
<g id="edge21_Node000017_Node000002" class="edge">
<title>Node17&#45;&gt;Node2</title>
<g id="a_edge21_Node000017_Node000002"><a xlink:title=" ">
<path fill="none" stroke="#63b8ff" d="M683.56,-54.75C677.63,-47.26 668.93,-36.28 661.68,-27.13"/>
<polygon fill="#63b8ff" stroke="#63b8ff" points="664.26,-24.75 655.31,-19.09 658.77,-29.1 664.26,-24.75"/>
</a>
</g>
</g>
<!-- Node17&#45;&gt;Node9 -->
<g id="edge20_Node000017_Node000009" class="edge">
<title>Node17&#45;&gt;Node9</title>
<g id="a_edge20_Node000017_Node000009"><a xlink:title=" ">
<path fill="none" stroke="#63b8ff" d="M654.19,-56.38C651.26,-55.88 648.33,-55.42 645.5,-55 504.04,-34.16 334.33,-19.2 261.98,-13.29"/>
<polygon fill="#63b8ff" stroke="#63b8ff" points="261.87,-9.77 251.62,-12.45 261.3,-16.75 261.87,-9.77"/>
</a>
</g>
</g>
<!-- Node18 -->
<g id="Node000018" class="node">
<title>Node18</title>
<g id="a_Node000018"><a xlink:href="../../dc/df2/type__id_8h.html" target="_top" xlink:title=" ">
<polygon fill="white" stroke="#666666" points="774.5,-19 688.5,-19 688.5,0 774.5,0 774.5,-19"/>
<text text-anchor="middle" x="731.5" y="-7" font-family="Helvetica,sans-Serif" font-size="10.00">type/type_id.h</text>
</a>
</g>
</g>
<!-- Node17&#45;&gt;Node18 -->
<g id="edge22_Node000017_Node000018" class="edge">
<title>Node17&#45;&gt;Node18</title>
<g id="a_edge22_Node000017_Node000018"><a xlink:title=" ">
<path fill="none" stroke="#63b8ff" d="M697.27,-54.75C703.06,-47.26 711.56,-36.28 718.64,-27.13"/>
<polygon fill="#63b8ff" stroke="#63b8ff" points="721.51,-29.14 724.86,-19.09 715.97,-24.86 721.51,-29.14"/>
</a>
</g>
</g>
<!-- Node19&#45;&gt;Node2 -->
<g id="edge26_Node000019_Node000002" class="edge">
<title>Node19&#45;&gt;Node2</title>
<g id="a_edge26_Node000019_Node000002"><a xlink:title=" ">
<path fill="none" stroke="#63b8ff" d="M741.36,-177.05C778.96,-170.38 830.83,-158.71 873.5,-140 921.93,-118.76 947.55,-120.62 972.5,-74 976.48,-66.55 978.1,-61.32 972.5,-55 930.9,-7.98 759.51,-29.62 680.78,-18.7"/>
<polygon fill="#63b8ff" stroke="#63b8ff" points="681.2,-15.22 670.76,-17.02 680.04,-22.12 681.2,-15.22"/>
</a>
</g>
</g>
<!-- Node19&#45;&gt;Node9 -->
<g id="edge24_Node000019_Node000009" class="edge">
<title>Node19&#45;&gt;Node9</title>
<g id="a_edge24_Node000019_Node000009"><a xlink:title=" ">
<path fill="none" stroke="#63b8ff" d="M639.77,-179.22C590.85,-173.15 515.22,-161.19 452.5,-140 390.73,-119.14 377.82,-106.84 321.5,-74 294.87,-58.47 265.57,-38.4 246.65,-25.02"/>
<polygon fill="#63b8ff" stroke="#63b8ff" points="248.67,-22.16 238.49,-19.21 244.61,-27.86 248.67,-22.16"/>
</a>
</g>
</g>
<!-- Node19&#45;&gt;Node10 -->
<g id="edge28_Node000019_Node000010" class="edge">
<title>Node19&#45;&gt;Node10</title>
<g id="a_edge28_Node000019_Node000010"><a xlink:title=" ">
<path fill="none" stroke="#63b8ff" d="M639.69,-182.14C524.17,-176.42 248.97,-160.8 212.5,-140 190.23,-127.3 174.66,-101.24 166.14,-83.57"/>
<polygon fill="#63b8ff" stroke="#63b8ff" points="169.25,-81.96 161.94,-74.29 162.88,-84.85 169.25,-81.96"/>
</a>
</g>
</g>
<!-- Node19&#45;&gt;Node11 -->
<g id="edge29_Node000019_Node000011" class="edge">
<title>Node19&#45;&gt;Node11</title>
<g id="a_edge29_Node000019_Node000011"><a xlink:title=" ">
<path fill="none" stroke="#63b8ff" d="M665.93,-175.99C636.89,-165.94 588.4,-149.16 555.7,-137.84"/>
<polygon fill="#63b8ff" stroke="#63b8ff" points="556.7,-134.48 546.1,-134.52 554.41,-141.1 556.7,-134.48"/>
</a>
</g>
</g>
<!-- Node19&#45;&gt;Node15 -->
<g id="edge25_Node000019_Node000015" class="edge">
<title>Node19&#45;&gt;Node15</title>
<g id="a_edge25_Node000019_Node000015"><a xlink:title=" ">
<path fill="none" stroke="#63b8ff" d="M684.53,-175.94C670.96,-156.48 637.56,-108.6 619.52,-82.74"/>
<polygon fill="#63b8ff" stroke="#63b8ff" points="622.23,-80.5 613.64,-74.3 616.49,-84.51 622.23,-80.5"/>
</a>
</g>
</g>
<!-- Node19&#45;&gt;Node17 -->
<g id="edge34_Node000019_Node000017" class="edge">
<title>Node19&#45;&gt;Node17</title>
<g id="a_edge34_Node000019_Node000017"><a xlink:title=" ">
<path fill="none" stroke="#63b8ff" d="M690.5,-175.94C690.5,-156.91 690.5,-110.69 690.5,-84.47"/>
<polygon fill="#63b8ff" stroke="#63b8ff" points="694,-84.3 690.5,-74.3 687,-84.3 694,-84.3"/>
</a>
</g>
</g>
<!-- Node20 -->
<g id="Node000020" class="node">
<title>Node20</title>
<g id="a_Node000020"><a xlink:title=" ">
<polygon fill="#e0e0e0" stroke="#999999" points="1001,-134.5 956,-134.5 956,-115.5 1001,-115.5 1001,-134.5"/>
<text text-anchor="middle" x="978.5" y="-122.5" font-family="Helvetica,sans-Serif" font-size="10.00">utility</text>
</a>
</g>
</g>
<!-- Node19&#45;&gt;Node20 -->
<g id="edge27_Node000019_Node000020" class="edge">
<title>Node19&#45;&gt;Node20</title>
<g id="a_edge27_Node000019_Node000020"><a xlink:title=" ">
<path fill="none" stroke="#63b8ff" d="M741.12,-178.35C792.25,-171.48 873.23,-158.79 941.5,-140 943.79,-139.37 946.14,-138.65 948.48,-137.89"/>
<polygon fill="#63b8ff" stroke="#63b8ff" points="949.71,-141.16 957.98,-134.54 947.39,-134.56 949.71,-141.16"/>
</a>
</g>
</g>
<!-- Node21 -->
<g id="Node000021" class="node">
<title>Node21</title>
<g id="a_Node000021"><a xlink:href="../../de/d3c/macros_8h.html" target="_top" xlink:title=" ">
<polygon fill="white" stroke="#666666" points="865,-134.5 758,-134.5 758,-115.5 865,-115.5 865,-134.5"/>
<text text-anchor="middle" x="811.5" y="-122.5" font-family="Helvetica,sans-Serif" font-size="10.00">common/macros.h</text>
</a>
</g>
</g>
<!-- Node19&#45;&gt;Node21 -->
<g id="edge30_Node000019_Node000021" class="edge">
<title>Node19&#45;&gt;Node21</title>
<g id="a_edge30_Node000019_Node000021"><a xlink:title=" ">
<path fill="none" stroke="#63b8ff" d="M708.09,-175.99C728.26,-166.25 761.52,-150.16 784.86,-138.88"/>
<polygon fill="#63b8ff" stroke="#63b8ff" points="786.4,-142.02 793.88,-134.52 783.36,-135.72 786.4,-142.02"/>
</a>
</g>
</g>
<!-- Node21&#45;&gt;Node16 -->
<g id="edge33_Node000021_Node000016" class="edge">
<title>Node21&#45;&gt;Node16</title>
<g id="a_edge33_Node000021_Node000016"><a xlink:title=" ">
<path fill="none" stroke="#63b8ff" d="M806.48,-115.37C801.56,-106.9 793.91,-93.74 787.71,-83.07"/>
<polygon fill="#63b8ff" stroke="#63b8ff" points="790.59,-81.05 782.54,-74.17 784.54,-84.57 790.59,-81.05"/>
</a>
</g>
</g>
<!-- Node22 -->
<g id="Node000022" class="node">
<title>Node22</title>
<g id="a_Node000022"><a xlink:title=" ">
<polygon fill="#e0e0e0" stroke="#999999" points="963.5,-74 911.5,-74 911.5,-55 963.5,-55 963.5,-74"/>
<text text-anchor="middle" x="937.5" y="-62" font-family="Helvetica,sans-Serif" font-size="10.00">cassert</text>
</a>
</g>
</g>
<!-- Node21&#45;&gt;Node22 -->
<g id="edge31_Node000021_Node000022" class="edge">
<title>Node21&#45;&gt;Node22</title>
<g id="a_edge31_Node000021_Node000022"><a xlink:title=" ">
<path fill="none" stroke="#63b8ff" d="M829.82,-115.49C850.91,-105.7 885.76,-89.52 910.08,-78.23"/>
<polygon fill="#63b8ff" stroke="#63b8ff" points="911.56,-81.4 919.16,-74.02 908.61,-75.05 911.56,-81.4"/>
</a>
</g>
</g>
<!-- Node23 -->
<g id="Node000023" class="node">
<title>Node23</title>
<g id="a_Node000023"><a xlink:title=" ">
<polygon fill="#e0e0e0" stroke="#999999" points="893,-74 828,-74 828,-55 893,-55 893,-74"/>
<text text-anchor="middle" x="860.5" y="-62" font-family="Helvetica,sans-Serif" font-size="10.00">exception</text>
</a>
</g>
</g>
<!-- Node21&#45;&gt;Node23 -->
<g id="edge32_Node000021_Node000023" class="edge">
<title>Node21&#45;&gt;Node23</title>
<g id="a_edge32_Node000021_Node000023"><a xlink:title=" ">
<path fill="none" stroke="#63b8ff" d="M818.73,-115.37C826.04,-106.64 837.52,-92.93 846.6,-82.09"/>
<polygon fill="#63b8ff" stroke="#63b8ff" points="849.5,-84.08 853.24,-74.17 844.14,-79.59 849.5,-84.08"/>
</a>
</g>
</g>
</g>
</svg>
