<?xml version="1.0" encoding="UTF-8" standalone="no"?>
<!DOCTYPE svg PUBLIC "-//W3C//DTD SVG 1.1//EN"
 "http://www.w3.org/Graphics/SVG/1.1/DTD/svg11.dtd">
<!-- Generated by graphviz version 2.43.0 (0)
 -->
<!-- Title: src/include/storage/page/hash_table_header_page.h Pages: 1 -->
<svg width="1567pt" height="445pt"
 viewBox="0.00 0.00 1566.50 445.00" xmlns="http://www.w3.org/2000/svg" xmlns:xlink="http://www.w3.org/1999/xlink">
<g id="graph0" class="graph" transform="scale(1 1) rotate(0) translate(4 441)">
<title>src/include/storage/page/hash_table_header_page.h</title>
<!-- Node1 -->
<g id="Node000001" class="node">
<title>Node1</title>
<g id="a_Node000001"><a xlink:title=" ">
<polygon fill="#999999" stroke="#666666" points="660.5,-437 521.5,-437 521.5,-396 660.5,-396 660.5,-437"/>
<text text-anchor="start" x="529.5" y="-425" font-family="Helvetica,sans-Serif" font-size="10.00">src/include/storage</text>
<text text-anchor="start" x="529.5" y="-414" font-family="Helvetica,sans-Serif" font-size="10.00">/page/hash_table_header</text>
<text text-anchor="middle" x="591" y="-403" font-family="Helvetica,sans-Serif" font-size="10.00">_page.h</text>
</a>
</g>
</g>
<!-- Node2 -->
<g id="Node000002" class="node">
<title>Node2</title>
<g id="a_Node000002"><a xlink:title=" ">
<polygon fill="#e0e0e0" stroke="#999999" points="118,-74 66,-74 66,-55 118,-55 118,-74"/>
<text text-anchor="middle" x="92" y="-62" font-family="Helvetica,sans-Serif" font-size="10.00">cassert</text>
</a>
</g>
</g>
<!-- Node1&#45;&gt;Node2 -->
<g id="edge1_Node000001_Node000002" class="edge">
<title>Node1&#45;&gt;Node2</title>
<g id="a_edge1_Node000001_Node000002"><a xlink:title=" ">
<path fill="none" stroke="#63b8ff" d="M521.35,-411.86C384.13,-402.79 92,-373.18 92,-285.5 92,-285.5 92,-285.5 92,-173.5 92,-142.19 92,-105.77 92,-84.23"/>
<polygon fill="#63b8ff" stroke="#63b8ff" points="95.5,-84.18 92,-74.18 88.5,-84.18 95.5,-84.18"/>
</a>
</g>
</g>
<!-- Node3 -->
<g id="Node000003" class="node">
<title>Node3</title>
<g id="a_Node000003"><a xlink:title=" ">
<polygon fill="#e0e0e0" stroke="#999999" points="1403,-74 1353,-74 1353,-55 1403,-55 1403,-74"/>
<text text-anchor="middle" x="1378" y="-62" font-family="Helvetica,sans-Serif" font-size="10.00">climits</text>
</a>
</g>
</g>
<!-- Node1&#45;&gt;Node3 -->
<g id="edge2_Node000001_Node000003" class="edge">
<title>Node1&#45;&gt;Node3</title>
<g id="a_edge2_Node000001_Node000003"><a xlink:title=" ">
<path fill="none" stroke="#63b8ff" d="M660.77,-411.5C855.89,-399.4 1393,-359.38 1393,-285.5 1393,-285.5 1393,-285.5 1393,-173.5 1393,-141.89 1386.62,-105.56 1382.18,-84.13"/>
<polygon fill="#63b8ff" stroke="#63b8ff" points="1385.55,-83.16 1380.02,-74.12 1378.71,-84.64 1385.55,-83.16"/>
</a>
</g>
</g>
<!-- Node4 -->
<g id="Node000004" class="node">
<title>Node4</title>
<g id="a_Node000004"><a xlink:title=" ">
<polygon fill="#e0e0e0" stroke="#999999" points="351.5,-74 302.5,-74 302.5,-55 351.5,-55 351.5,-74"/>
<text text-anchor="middle" x="327" y="-62" font-family="Helvetica,sans-Serif" font-size="10.00">cstdlib</text>
</a>
</g>
</g>
<!-- Node1&#45;&gt;Node4 -->
<g id="edge3_Node000001_Node000004" class="edge">
<title>Node1&#45;&gt;Node4</title>
<g id="a_edge3_Node000001_Node000004"><a xlink:title=" ">
<path fill="none" stroke="#63b8ff" d="M521.18,-403.02C423,-383.45 256,-341.88 256,-285.5 256,-285.5 256,-285.5 256,-173.5 256,-135.27 287.45,-100.09 308.49,-80.83"/>
<polygon fill="#63b8ff" stroke="#63b8ff" points="311.02,-83.27 316.22,-74.03 306.4,-78.01 311.02,-83.27"/>
</a>
</g>
</g>
<!-- Node5 -->
<g id="Node000005" class="node">
<title>Node5</title>
<g id="a_Node000005"><a xlink:title=" ">
<polygon fill="#e0e0e0" stroke="#999999" points="658,-19 614,-19 614,0 658,0 658,-19"/>
<text text-anchor="middle" x="636" y="-7" font-family="Helvetica,sans-Serif" font-size="10.00">string</text>
</a>
</g>
</g>
<!-- Node1&#45;&gt;Node5 -->
<g id="edge4_Node000001_Node000005" class="edge">
<title>Node1&#45;&gt;Node5</title>
<g id="a_edge4_Node000001_Node000005"><a xlink:title=" ">
<path fill="none" stroke="#63b8ff" d="M521.47,-414.71C365.24,-411.06 0,-391.21 0,-285.5 0,-285.5 0,-285.5 0,-118.5 0,-84.91 12.12,-72.16 41,-55 89.52,-26.17 486.68,-14.18 603.68,-11.25"/>
<polygon fill="#63b8ff" stroke="#63b8ff" points="603.89,-14.74 613.8,-11 603.72,-7.74 603.89,-14.74"/>
</a>
</g>
</g>
<!-- Node6 -->
<g id="Node000006" class="node">
<title>Node6</title>
<g id="a_Node000006"><a xlink:href="../../da/d28/generic__key_8h.html" target="_top" xlink:title=" ">
<polygon fill="white" stroke="#666666" points="1054,-360 932,-360 932,-330 1054,-330 1054,-360"/>
<text text-anchor="start" x="940" y="-348" font-family="Helvetica,sans-Serif" font-size="10.00">storage/index/generic</text>
<text text-anchor="middle" x="993" y="-337" font-family="Helvetica,sans-Serif" font-size="10.00">_key.h</text>
</a>
</g>
</g>
<!-- Node1&#45;&gt;Node6 -->
<g id="edge5_Node000001_Node000006" class="edge">
<title>Node1&#45;&gt;Node6</title>
<g id="a_edge5_Node000001_Node000006"><a xlink:title=" ">
<path fill="none" stroke="#63b8ff" d="M660.56,-403.47C733.64,-390.84 848,-371.07 921.72,-358.32"/>
<polygon fill="#63b8ff" stroke="#63b8ff" points="922.59,-361.73 931.85,-356.57 921.4,-354.83 922.59,-361.73"/>
</a>
</g>
</g>
<!-- Node34 -->
<g id="Node000034" class="node">
<title>Node34</title>
<g id="a_Node000034"><a xlink:href="../../d6/d3b/hash__table__page__defs_8h.html" target="_top" xlink:title=" ">
<polygon fill="white" stroke="#666666" points="1558.5,-360 1421.5,-360 1421.5,-330 1558.5,-330 1558.5,-360"/>
<text text-anchor="start" x="1429.5" y="-348" font-family="Helvetica,sans-Serif" font-size="10.00">storage/page/hash_table</text>
<text text-anchor="middle" x="1490" y="-337" font-family="Helvetica,sans-Serif" font-size="10.00">_page_defs.h</text>
</a>
</g>
</g>
<!-- Node1&#45;&gt;Node34 -->
<g id="edge62_Node000001_Node000034" class="edge">
<title>Node1&#45;&gt;Node34</title>
<g id="a_edge62_Node000001_Node000034"><a xlink:title=" ">
<path fill="none" stroke="#63b8ff" d="M660.53,-413.1C801.65,-407.71 1131.67,-392.5 1407,-360 1408.31,-359.85 1409.62,-359.69 1410.95,-359.52"/>
<polygon fill="#63b8ff" stroke="#63b8ff" points="1411.79,-362.94 1421.23,-358.14 1410.86,-356 1411.79,-362.94"/>
</a>
</g>
</g>
<!-- Node7 -->
<g id="Node000007" class="node">
<title>Node7</title>
<g id="a_Node000007"><a xlink:title=" ">
<polygon fill="#e0e0e0" stroke="#999999" points="1037,-129 987,-129 987,-110 1037,-110 1037,-129"/>
<text text-anchor="middle" x="1012" y="-117" font-family="Helvetica,sans-Serif" font-size="10.00">cstring</text>
</a>
</g>
</g>
<!-- Node6&#45;&gt;Node7 -->
<g id="edge6_Node000006_Node000007" class="edge">
<title>Node6&#45;&gt;Node7</title>
<g id="a_edge6_Node000006_Node000007"><a xlink:title=" ">
<path fill="none" stroke="#63b8ff" d="M1002.33,-329.81C1008.1,-320.15 1014.97,-306.85 1018,-294 1030.95,-239.14 1021.78,-171.83 1015.89,-139.55"/>
<polygon fill="#63b8ff" stroke="#63b8ff" points="1019.25,-138.48 1013.92,-129.33 1012.38,-139.81 1019.25,-138.48"/>
</a>
</g>
</g>
<!-- Node8 -->
<g id="Node000008" class="node">
<title>Node8</title>
<g id="a_Node000008"><a xlink:href="../../d2/d20/tuple_8h.html" target="_top" xlink:title=" ">
<polygon fill="white" stroke="#666666" points="995,-294 877,-294 877,-275 995,-275 995,-294"/>
<text text-anchor="middle" x="936" y="-282" font-family="Helvetica,sans-Serif" font-size="10.00">storage/table/tuple.h</text>
</a>
</g>
</g>
<!-- Node6&#45;&gt;Node8 -->
<g id="edge7_Node000006_Node000008" class="edge">
<title>Node6&#45;&gt;Node8</title>
<g id="a_edge7_Node000006_Node000008"><a xlink:title=" ">
<path fill="none" stroke="#63b8ff" d="M979.2,-329.84C970.93,-321.35 960.38,-310.52 951.77,-301.69"/>
<polygon fill="#63b8ff" stroke="#63b8ff" points="954.03,-298.99 944.54,-294.27 949.01,-303.87 954.03,-298.99"/>
</a>
</g>
</g>
<!-- Node30 -->
<g id="Node000030" class="node">
<title>Node30</title>
<g id="a_Node000030"><a xlink:href="../../d4/d3f/value_8h.html" target="_top" xlink:title=" ">
<polygon fill="white" stroke="#666666" points="988.5,-184 911.5,-184 911.5,-165 988.5,-165 988.5,-184"/>
<text text-anchor="middle" x="950" y="-172" font-family="Helvetica,sans-Serif" font-size="10.00">type/value.h</text>
</a>
</g>
</g>
<!-- Node6&#45;&gt;Node30 -->
<g id="edge61_Node000006_Node000030" class="edge">
<title>Node6&#45;&gt;Node30</title>
<g id="a_edge61_Node000006_Node000030"><a xlink:title=" ">
<path fill="none" stroke="#63b8ff" d="M998.59,-329.84C1003.35,-315.78 1008.75,-293.69 1004,-275 996.02,-243.57 975.89,-211.32 962.59,-192.36"/>
<polygon fill="#63b8ff" stroke="#63b8ff" points="965.39,-190.25 956.7,-184.19 959.71,-194.35 965.39,-190.25"/>
</a>
</g>
</g>
<!-- Node8&#45;&gt;Node5 -->
<g id="edge8_Node000008_Node000005" class="edge">
<title>Node8&#45;&gt;Node5</title>
<g id="a_edge8_Node000008_Node000005"><a xlink:title=" ">
<path fill="none" stroke="#63b8ff" d="M932.99,-274.87C919.62,-236.95 864.49,-85.65 826,-55 771.75,-11.81 740.09,-34.42 668.24,-19.06"/>
<polygon fill="#63b8ff" stroke="#63b8ff" points="668.85,-15.61 658.32,-16.75 667.27,-22.42 668.85,-15.61"/>
</a>
</g>
</g>
<!-- Node9 -->
<g id="Node000009" class="node">
<title>Node9</title>
<g id="a_Node000009"><a xlink:title=" ">
<polygon fill="#e0e0e0" stroke="#999999" points="757.5,-184 710.5,-184 710.5,-165 757.5,-165 757.5,-184"/>
<text text-anchor="middle" x="734" y="-172" font-family="Helvetica,sans-Serif" font-size="10.00">vector</text>
</a>
</g>
</g>
<!-- Node8&#45;&gt;Node9 -->
<g id="edge9_Node000008_Node000009" class="edge">
<title>Node8&#45;&gt;Node9</title>
<g id="a_edge9_Node000008_Node000009"><a xlink:title=" ">
<path fill="none" stroke="#63b8ff" d="M919.81,-274.84C884.63,-256.04 801.02,-211.33 759,-188.87"/>
<polygon fill="#63b8ff" stroke="#63b8ff" points="760.45,-185.68 749.99,-184.05 757.15,-191.85 760.45,-185.68"/>
</a>
</g>
</g>
<!-- Node10 -->
<g id="Node000010" class="node">
<title>Node10</title>
<g id="a_Node000010"><a xlink:href="../../d7/de3/schema_8h.html" target="_top" xlink:title=" ">
<polygon fill="white" stroke="#666666" points="569.5,-239 466.5,-239 466.5,-220 569.5,-220 569.5,-239"/>
<text text-anchor="middle" x="518" y="-227" font-family="Helvetica,sans-Serif" font-size="10.00">catalog/schema.h</text>
</a>
</g>
</g>
<!-- Node8&#45;&gt;Node10 -->
<g id="edge10_Node000008_Node000010" class="edge">
<title>Node8&#45;&gt;Node10</title>
<g id="a_edge10_Node000008_Node000010"><a xlink:title=" ">
<path fill="none" stroke="#63b8ff" d="M877,-276.02C798.33,-266.04 659.75,-248.47 579.73,-238.33"/>
<polygon fill="#63b8ff" stroke="#63b8ff" points="580.15,-234.85 569.79,-237.07 579.27,-241.8 580.15,-234.85"/>
</a>
</g>
</g>
<!-- Node26 -->
<g id="Node000026" class="node">
<title>Node26</title>
<g id="a_Node000026"><a xlink:href="../../db/d16/config_8h.html" target="_top" xlink:title=" ">
<polygon fill="white" stroke="#666666" points="1156.5,-129 1055.5,-129 1055.5,-110 1156.5,-110 1156.5,-129"/>
<text text-anchor="middle" x="1106" y="-117" font-family="Helvetica,sans-Serif" font-size="10.00">common/config.h</text>
</a>
</g>
</g>
<!-- Node8&#45;&gt;Node26 -->
<g id="edge40_Node000008_Node000026" class="edge">
<title>Node8&#45;&gt;Node26</title>
<g id="a_edge40_Node000008_Node000026"><a xlink:title=" ">
<path fill="none" stroke="#63b8ff" d="M945.14,-274.74C972.47,-248.53 1053.84,-170.51 1089.24,-136.57"/>
<polygon fill="#63b8ff" stroke="#63b8ff" points="1092.02,-138.75 1096.81,-129.31 1087.17,-133.7 1092.02,-138.75"/>
</a>
</g>
</g>
<!-- Node28 -->
<g id="Node000028" class="node">
<title>Node28</title>
<g id="a_Node000028"><a xlink:href="../../d8/d5f/rid_8h.html" target="_top" xlink:title=" ">
<polygon fill="white" stroke="#666666" points="1227,-184 1143,-184 1143,-165 1227,-165 1227,-184"/>
<text text-anchor="middle" x="1185" y="-172" font-family="Helvetica,sans-Serif" font-size="10.00">common/rid.h</text>
</a>
</g>
</g>
<!-- Node8&#45;&gt;Node28 -->
<g id="edge44_Node000008_Node000028" class="edge">
<title>Node8&#45;&gt;Node28</title>
<g id="a_edge44_Node000008_Node000028"><a xlink:title=" ">
<path fill="none" stroke="#63b8ff" d="M955.96,-274.84C999.86,-255.8 1105,-210.2 1156.12,-188.03"/>
<polygon fill="#63b8ff" stroke="#63b8ff" points="1157.51,-191.24 1165.29,-184.05 1154.73,-184.82 1157.51,-191.24"/>
</a>
</g>
</g>
<!-- Node8&#45;&gt;Node30 -->
<g id="edge49_Node000008_Node000030" class="edge">
<title>Node8&#45;&gt;Node30</title>
<g id="a_edge49_Node000008_Node000030"><a xlink:title=" ">
<path fill="none" stroke="#63b8ff" d="M937.15,-274.66C939.41,-257.17 944.52,-217.8 947.57,-194.27"/>
<polygon fill="#63b8ff" stroke="#63b8ff" points="951.06,-194.53 948.88,-184.16 944.12,-193.63 951.06,-194.53"/>
</a>
</g>
</g>
<!-- Node10&#45;&gt;Node5 -->
<g id="edge13_Node000010_Node000005" class="edge">
<title>Node10&#45;&gt;Node5</title>
<g id="a_edge13_Node000010_Node000005"><a xlink:title=" ">
<path fill="none" stroke="#63b8ff" d="M466.36,-226.44C322.44,-219.02 -64.88,-186.6 57,-55 94.32,-14.7 487.76,-10.76 603.9,-10.49"/>
<polygon fill="#63b8ff" stroke="#63b8ff" points="603.95,-13.99 613.94,-10.47 603.94,-6.99 603.95,-13.99"/>
</a>
</g>
</g>
<!-- Node10&#45;&gt;Node9 -->
<g id="edge14_Node000010_Node000009" class="edge">
<title>Node10&#45;&gt;Node9</title>
<g id="a_edge14_Node000010_Node000009"><a xlink:title=" ">
<path fill="none" stroke="#63b8ff" d="M552.7,-219.98C593.4,-210 660.4,-193.56 700.55,-183.71"/>
<polygon fill="#63b8ff" stroke="#63b8ff" points="701.51,-187.08 710.39,-181.29 699.84,-180.28 701.51,-187.08"/>
</a>
</g>
</g>
<!-- Node11 -->
<g id="Node000011" class="node">
<title>Node11</title>
<g id="a_Node000011"><a xlink:title=" ">
<polygon fill="#e0e0e0" stroke="#999999" points="608,-74 550,-74 550,-55 608,-55 608,-74"/>
<text text-anchor="middle" x="579" y="-62" font-family="Helvetica,sans-Serif" font-size="10.00">memory</text>
</a>
</g>
</g>
<!-- Node10&#45;&gt;Node11 -->
<g id="edge11_Node000010_Node000011" class="edge">
<title>Node10&#45;&gt;Node11</title>
<g id="a_edge11_Node000010_Node000011"><a xlink:title=" ">
<path fill="none" stroke="#63b8ff" d="M486.99,-219.98C457.36,-210.08 419.1,-191.61 433,-165 456.1,-120.76 508.81,-92.56 544.17,-77.89"/>
<polygon fill="#63b8ff" stroke="#63b8ff" points="545.65,-81.06 553.64,-74.1 543.05,-74.56 545.65,-81.06"/>
</a>
</g>
</g>
<!-- Node12 -->
<g id="Node000012" class="node">
<title>Node12</title>
<g id="a_Node000012"><a xlink:title=" ">
<polygon fill="#e0e0e0" stroke="#999999" points="498,-184 442,-184 442,-165 498,-165 498,-184"/>
<text text-anchor="middle" x="470" y="-172" font-family="Helvetica,sans-Serif" font-size="10.00">optional</text>
</a>
</g>
</g>
<!-- Node10&#45;&gt;Node12 -->
<g id="edge12_Node000010_Node000012" class="edge">
<title>Node10&#45;&gt;Node12</title>
<g id="a_edge12_Node000010_Node000012"><a xlink:title=" ">
<path fill="none" stroke="#63b8ff" d="M510.07,-219.75C503.15,-212.11 492.93,-200.82 484.55,-191.56"/>
<polygon fill="#63b8ff" stroke="#63b8ff" points="487.09,-189.15 477.78,-184.09 481.9,-193.85 487.09,-189.15"/>
</a>
</g>
</g>
<!-- Node13 -->
<g id="Node000013" class="node">
<title>Node13</title>
<g id="a_Node000013"><a xlink:href="../../dc/df8/column_8h.html" target="_top" xlink:title=" ">
<polygon fill="white" stroke="#666666" points="617.5,-184 516.5,-184 516.5,-165 617.5,-165 617.5,-184"/>
<text text-anchor="middle" x="567" y="-172" font-family="Helvetica,sans-Serif" font-size="10.00">catalog/column.h</text>
</a>
</g>
</g>
<!-- Node10&#45;&gt;Node13 -->
<g id="edge15_Node000010_Node000013" class="edge">
<title>Node10&#45;&gt;Node13</title>
<g id="a_edge15_Node000010_Node000013"><a xlink:title=" ">
<path fill="none" stroke="#63b8ff" d="M526.09,-219.75C533.16,-212.11 543.59,-200.82 552.15,-191.56"/>
<polygon fill="#63b8ff" stroke="#63b8ff" points="554.84,-193.81 559.06,-184.09 549.7,-189.06 554.84,-193.81"/>
</a>
</g>
</g>
<!-- Node17 -->
<g id="Node000017" class="node">
<title>Node17</title>
<g id="a_Node000017"><a xlink:href="../../dd/d2d/exception_8h.html" target="_top" xlink:title=" ">
<polygon fill="white" stroke="#666666" points="427.5,-129 308.5,-129 308.5,-110 427.5,-110 427.5,-129"/>
<text text-anchor="middle" x="368" y="-117" font-family="Helvetica,sans-Serif" font-size="10.00">common/exception.h</text>
</a>
</g>
</g>
<!-- Node10&#45;&gt;Node17 -->
<g id="edge38_Node000010_Node000017" class="edge">
<title>Node10&#45;&gt;Node17</title>
<g id="a_edge38_Node000010_Node000017"><a xlink:title=" ">
<path fill="none" stroke="#63b8ff" d="M473.49,-220C449.42,-213.51 420.51,-202.44 400,-184 386.54,-171.9 378,-152.83 373.16,-138.74"/>
<polygon fill="#63b8ff" stroke="#63b8ff" points="376.48,-137.64 370.16,-129.14 369.8,-139.73 376.48,-137.64"/>
</a>
</g>
</g>
<!-- Node22 -->
<g id="Node000022" class="node">
<title>Node22</title>
<g id="a_Node000022"><a xlink:href="../../df/def/type_8h.html" target="_top" xlink:title=" ">
<polygon fill="white" stroke="#666666" points="736,-74 664,-74 664,-55 736,-55 736,-74"/>
<text text-anchor="middle" x="700" y="-62" font-family="Helvetica,sans-Serif" font-size="10.00">type/type.h</text>
</a>
</g>
</g>
<!-- Node10&#45;&gt;Node22 -->
<g id="edge39_Node000010_Node000022" class="edge">
<title>Node10&#45;&gt;Node22</title>
<g id="a_edge39_Node000010_Node000022"><a xlink:title=" ">
<path fill="none" stroke="#63b8ff" d="M556.14,-219.98C578.87,-213.31 607.09,-202.06 627,-184 654.54,-159.02 645.98,-141.32 666,-110 672.15,-100.37 679.82,-90.21 686.32,-82.03"/>
<polygon fill="#63b8ff" stroke="#63b8ff" points="689.2,-84.02 692.78,-74.05 683.76,-79.62 689.2,-84.02"/>
</a>
</g>
</g>
<!-- Node13&#45;&gt;Node5 -->
<g id="edge18_Node000013_Node000005" class="edge">
<title>Node13&#45;&gt;Node5</title>
<g id="a_edge18_Node000013_Node000005"><a xlink:title=" ">
<path fill="none" stroke="#63b8ff" d="M566.79,-164.71C566.85,-151.9 568.37,-127.69 578,-110 589.28,-89.28 604.51,-94.01 617,-74 625.57,-60.27 630.46,-42.47 633.12,-29.2"/>
<polygon fill="#63b8ff" stroke="#63b8ff" points="636.58,-29.78 634.87,-19.32 629.68,-28.56 636.58,-29.78"/>
</a>
</g>
</g>
<!-- Node13&#45;&gt;Node11 -->
<g id="edge17_Node000013_Node000011" class="edge">
<title>Node13&#45;&gt;Node11</title>
<g id="a_edge17_Node000013_Node000011"><a xlink:title=" ">
<path fill="none" stroke="#63b8ff" d="M552.07,-164.98C533.91,-153.42 506.96,-131.72 518,-110 524.77,-96.68 537.6,-86.41 549.75,-79.1"/>
<polygon fill="#63b8ff" stroke="#63b8ff" points="551.75,-81.99 558.8,-74.09 548.36,-75.87 551.75,-81.99"/>
</a>
</g>
</g>
<!-- Node14 -->
<g id="Node000014" class="node">
<title>Node14</title>
<g id="a_Node000014"><a xlink:title=" ">
<polygon fill="#e0e0e0" stroke="#999999" points="1140,-19 1090,-19 1090,0 1140,0 1140,-19"/>
<text text-anchor="middle" x="1115" y="-7" font-family="Helvetica,sans-Serif" font-size="10.00">cstdint</text>
</a>
</g>
</g>
<!-- Node13&#45;&gt;Node14 -->
<g id="edge16_Node000013_Node000014" class="edge">
<title>Node13&#45;&gt;Node14</title>
<g id="a_edge16_Node000013_Node000014"><a xlink:title=" ">
<path fill="none" stroke="#63b8ff" d="M577.57,-164.9C594.95,-151.21 631.12,-124.51 666,-110 670.88,-107.97 975.43,-41.1 1080.12,-18.15"/>
<polygon fill="#63b8ff" stroke="#63b8ff" points="1080.87,-21.56 1089.89,-16 1079.37,-14.73 1080.87,-21.56"/>
</a>
</g>
</g>
<!-- Node15 -->
<g id="Node000015" class="node">
<title>Node15</title>
<g id="a_Node000015"><a xlink:title=" ">
<polygon fill="#e0e0e0" stroke="#999999" points="719.5,-129 674.5,-129 674.5,-110 719.5,-110 719.5,-129"/>
<text text-anchor="middle" x="697" y="-117" font-family="Helvetica,sans-Serif" font-size="10.00">utility</text>
</a>
</g>
</g>
<!-- Node13&#45;&gt;Node15 -->
<g id="edge19_Node000013_Node000015" class="edge">
<title>Node13&#45;&gt;Node15</title>
<g id="a_edge19_Node000013_Node000015"><a xlink:title=" ">
<path fill="none" stroke="#63b8ff" d="M587.89,-164.98C609.08,-156.34 642.13,-142.87 666.3,-133.02"/>
<polygon fill="#63b8ff" stroke="#63b8ff" points="667.79,-136.19 675.73,-129.17 665.15,-129.7 667.79,-136.19"/>
</a>
</g>
</g>
<!-- Node16 -->
<g id="Node000016" class="node">
<title>Node16</title>
<g id="a_Node000016"><a xlink:title=" ">
<polygon fill="#e0e0e0" stroke="#999999" points="816.5,-129 737.5,-129 737.5,-110 816.5,-110 816.5,-129"/>
<text text-anchor="middle" x="777" y="-117" font-family="Helvetica,sans-Serif" font-size="10.00">fmt/format.h</text>
</a>
</g>
</g>
<!-- Node13&#45;&gt;Node16 -->
<g id="edge20_Node000013_Node000016" class="edge">
<title>Node13&#45;&gt;Node16</title>
<g id="a_edge20_Node000013_Node000016"><a xlink:title=" ">
<path fill="none" stroke="#63b8ff" d="M600.74,-164.98C636.68,-155.91 693.72,-141.52 733.13,-131.57"/>
<polygon fill="#63b8ff" stroke="#63b8ff" points="734.16,-134.92 743,-129.08 732.44,-128.14 734.16,-134.92"/>
</a>
</g>
</g>
<!-- Node13&#45;&gt;Node17 -->
<g id="edge21_Node000013_Node000017" class="edge">
<title>Node13&#45;&gt;Node17</title>
<g id="a_edge21_Node000013_Node000017"><a xlink:title=" ">
<path fill="none" stroke="#63b8ff" d="M535.03,-164.98C501.18,-155.97 447.6,-141.7 410.29,-131.76"/>
<polygon fill="#63b8ff" stroke="#63b8ff" points="410.79,-128.27 400.22,-129.08 408.99,-135.04 410.79,-128.27"/>
</a>
</g>
</g>
<!-- Node13&#45;&gt;Node22 -->
<g id="edge37_Node000013_Node000022" class="edge">
<title>Node13&#45;&gt;Node22</title>
<g id="a_edge37_Node000013_Node000022"><a xlink:title=" ">
<path fill="none" stroke="#63b8ff" d="M568.5,-164.95C571.26,-151.55 578.38,-125.55 594,-110 610.35,-93.72 633.54,-83.07 654.07,-76.29"/>
<polygon fill="#63b8ff" stroke="#63b8ff" points="655.37,-79.55 663.89,-73.26 653.3,-72.86 655.37,-79.55"/>
</a>
</g>
</g>
<!-- Node24 -->
<g id="Node000024" class="node">
<title>Node24</title>
<g id="a_Node000024"><a xlink:href="../../de/d3c/macros_8h.html" target="_top" xlink:title=" ">
<polygon fill="white" stroke="#666666" points="227.5,-129 120.5,-129 120.5,-110 227.5,-110 227.5,-129"/>
<text text-anchor="middle" x="174" y="-117" font-family="Helvetica,sans-Serif" font-size="10.00">common/macros.h</text>
</a>
</g>
</g>
<!-- Node13&#45;&gt;Node24 -->
<g id="edge33_Node000013_Node000024" class="edge">
<title>Node13&#45;&gt;Node24</title>
<g id="a_edge33_Node000013_Node000024"><a xlink:title=" ">
<path fill="none" stroke="#63b8ff" d="M516.26,-166.28C513.13,-165.85 510.02,-165.42 507,-165 413.29,-152.1 304.67,-137.69 237.64,-128.85"/>
<polygon fill="#63b8ff" stroke="#63b8ff" points="238.03,-125.37 227.65,-127.54 237.11,-132.31 238.03,-125.37"/>
</a>
</g>
</g>
<!-- Node17&#45;&gt;Node4 -->
<g id="edge24_Node000017_Node000004" class="edge">
<title>Node17&#45;&gt;Node4</title>
<g id="a_edge24_Node000017_Node000004"><a xlink:title=" ">
<path fill="none" stroke="#63b8ff" d="M361.23,-109.75C355.44,-102.26 346.94,-91.28 339.86,-82.13"/>
<polygon fill="#63b8ff" stroke="#63b8ff" points="342.53,-79.86 333.64,-74.09 336.99,-84.14 342.53,-79.86"/>
</a>
</g>
</g>
<!-- Node17&#45;&gt;Node5 -->
<g id="edge28_Node000017_Node000005" class="edge">
<title>Node17&#45;&gt;Node5</title>
<g id="a_edge28_Node000017_Node000005"><a xlink:title=" ">
<path fill="none" stroke="#63b8ff" d="M397.95,-109.99C425.61,-101.82 467.64,-88.58 503,-74 520.46,-66.8 524,-63.23 541,-55 563.47,-44.12 589.12,-32.13 608.1,-23.34"/>
<polygon fill="#63b8ff" stroke="#63b8ff" points="609.76,-26.43 617.37,-19.06 606.82,-20.08 609.76,-26.43"/>
</a>
</g>
</g>
<!-- Node17&#45;&gt;Node11 -->
<g id="edge26_Node000017_Node000011" class="edge">
<title>Node17&#45;&gt;Node11</title>
<g id="a_edge26_Node000017_Node000011"><a xlink:title=" ">
<path fill="none" stroke="#63b8ff" d="M401.9,-109.98C439.62,-100.51 500.47,-85.23 540.1,-75.27"/>
<polygon fill="#63b8ff" stroke="#63b8ff" points="541.09,-78.63 549.94,-72.8 539.39,-71.84 541.09,-78.63"/>
</a>
</g>
</g>
<!-- Node18 -->
<g id="Node000018" class="node">
<title>Node18</title>
<g id="a_Node000018"><a xlink:title=" ">
<polygon fill="#e0e0e0" stroke="#999999" points="817,-74 767,-74 767,-55 817,-55 817,-74"/>
<text text-anchor="middle" x="792" y="-62" font-family="Helvetica,sans-Serif" font-size="10.00">atomic</text>
</a>
</g>
</g>
<!-- Node17&#45;&gt;Node18 -->
<g id="edge22_Node000017_Node000018" class="edge">
<title>Node17&#45;&gt;Node18</title>
<g id="a_edge22_Node000017_Node000018"><a xlink:title=" ">
<path fill="none" stroke="#63b8ff" d="M427.57,-112.61C502.01,-104.99 633.21,-90.69 745,-74 748.75,-73.44 752.65,-72.81 756.54,-72.15"/>
<polygon fill="#63b8ff" stroke="#63b8ff" points="757.43,-75.55 766.68,-70.37 756.23,-68.65 757.43,-75.55"/>
</a>
</g>
</g>
<!-- Node19 -->
<g id="Node000019" class="node">
<title>Node19</title>
<g id="a_Node000019"><a xlink:title=" ">
<polygon fill="#e0e0e0" stroke="#999999" points="416,-74 370,-74 370,-55 416,-55 416,-74"/>
<text text-anchor="middle" x="393" y="-62" font-family="Helvetica,sans-Serif" font-size="10.00">cstdio</text>
</a>
</g>
</g>
<!-- Node17&#45;&gt;Node19 -->
<g id="edge23_Node000017_Node000019" class="edge">
<title>Node17&#45;&gt;Node19</title>
<g id="a_edge23_Node000017_Node000019"><a xlink:title=" ">
<path fill="none" stroke="#63b8ff" d="M372.13,-109.75C375.51,-102.57 380.42,-92.18 384.62,-83.27"/>
<polygon fill="#63b8ff" stroke="#63b8ff" points="387.85,-84.63 388.95,-74.09 381.52,-81.64 387.85,-84.63"/>
</a>
</g>
</g>
<!-- Node20 -->
<g id="Node000020" class="node">
<title>Node20</title>
<g id="a_Node000020"><a xlink:title=" ">
<polygon fill="#e0e0e0" stroke="#999999" points="494,-74 434,-74 434,-55 494,-55 494,-74"/>
<text text-anchor="middle" x="464" y="-62" font-family="Helvetica,sans-Serif" font-size="10.00">iostream</text>
</a>
</g>
</g>
<!-- Node17&#45;&gt;Node20 -->
<g id="edge25_Node000017_Node000020" class="edge">
<title>Node17&#45;&gt;Node20</title>
<g id="a_edge25_Node000017_Node000020"><a xlink:title=" ">
<path fill="none" stroke="#63b8ff" d="M383.42,-109.98C398.45,-101.69 421.54,-88.94 439.16,-79.22"/>
<polygon fill="#63b8ff" stroke="#63b8ff" points="441.23,-82.07 448.3,-74.17 437.85,-75.94 441.23,-82.07"/>
</a>
</g>
</g>
<!-- Node21 -->
<g id="Node000021" class="node">
<title>Node21</title>
<g id="a_Node000021"><a xlink:title=" ">
<polygon fill="#e0e0e0" stroke="#999999" points="284.5,-74 219.5,-74 219.5,-55 284.5,-55 284.5,-74"/>
<text text-anchor="middle" x="252" y="-62" font-family="Helvetica,sans-Serif" font-size="10.00">stdexcept</text>
</a>
</g>
</g>
<!-- Node17&#45;&gt;Node21 -->
<g id="edge27_Node000017_Node000021" class="edge">
<title>Node17&#45;&gt;Node21</title>
<g id="a_edge27_Node000017_Node000021"><a xlink:title=" ">
<path fill="none" stroke="#63b8ff" d="M349.36,-109.98C330.7,-101.46 301.75,-88.23 280.26,-78.41"/>
<polygon fill="#63b8ff" stroke="#63b8ff" points="281.53,-75.14 270.98,-74.17 278.62,-81.51 281.53,-75.14"/>
</a>
</g>
</g>
<!-- Node17&#45;&gt;Node22 -->
<g id="edge29_Node000017_Node000022" class="edge">
<title>Node17&#45;&gt;Node22</title>
<g id="a_edge29_Node000017_Node000022"><a xlink:title=" ">
<path fill="none" stroke="#63b8ff" d="M421.34,-109.98C485.63,-99.72 592.59,-82.65 653.6,-72.91"/>
<polygon fill="#63b8ff" stroke="#63b8ff" points="654.39,-76.33 663.71,-71.29 653.28,-69.41 654.39,-76.33"/>
</a>
</g>
</g>
<!-- Node22&#45;&gt;Node5 -->
<g id="edge31_Node000022_Node000005" class="edge">
<title>Node22&#45;&gt;Node5</title>
<g id="a_edge31_Node000022_Node000005"><a xlink:title=" ">
<path fill="none" stroke="#63b8ff" d="M689.72,-54.98C680.16,-47.07 665.72,-35.11 654.22,-25.58"/>
<polygon fill="#63b8ff" stroke="#63b8ff" points="656.4,-22.85 646.47,-19.17 651.94,-28.24 656.4,-22.85"/>
</a>
</g>
</g>
<!-- Node22&#45;&gt;Node14 -->
<g id="edge30_Node000022_Node000014" class="edge">
<title>Node22&#45;&gt;Node14</title>
<g id="a_edge30_Node000022_Node000014"><a xlink:title=" ">
<path fill="none" stroke="#63b8ff" d="M736.18,-58.07C743.41,-57.03 750.94,-55.96 758,-55 875.84,-39.02 1015.87,-22.2 1079.9,-14.62"/>
<polygon fill="#63b8ff" stroke="#63b8ff" points="1080.35,-18.09 1089.87,-13.44 1079.53,-11.14 1080.35,-18.09"/>
</a>
</g>
</g>
<!-- Node23 -->
<g id="Node000023" class="node">
<title>Node23</title>
<g id="a_Node000023"><a xlink:href="../../dc/df2/type__id_8h.html" target="_top" xlink:title=" ">
<polygon fill="white" stroke="#666666" points="762,-19 676,-19 676,0 762,0 762,-19"/>
<text text-anchor="middle" x="719" y="-7" font-family="Helvetica,sans-Serif" font-size="10.00">type/type_id.h</text>
</a>
</g>
</g>
<!-- Node22&#45;&gt;Node23 -->
<g id="edge32_Node000022_Node000023" class="edge">
<title>Node22&#45;&gt;Node23</title>
<g id="a_edge32_Node000022_Node000023"><a xlink:title=" ">
<path fill="none" stroke="#63b8ff" d="M703.14,-54.75C705.68,-47.65 709.36,-37.4 712.53,-28.56"/>
<polygon fill="#63b8ff" stroke="#63b8ff" points="715.84,-29.68 715.92,-19.09 709.25,-27.32 715.84,-29.68"/>
</a>
</g>
</g>
<!-- Node24&#45;&gt;Node2 -->
<g id="edge34_Node000024_Node000002" class="edge">
<title>Node24&#45;&gt;Node2</title>
<g id="a_edge34_Node000024_Node000002"><a xlink:title=" ">
<path fill="none" stroke="#63b8ff" d="M160.83,-109.98C148.23,-101.84 129,-89.41 114.06,-79.76"/>
<polygon fill="#63b8ff" stroke="#63b8ff" points="115.71,-76.66 105.41,-74.17 111.91,-82.54 115.71,-76.66"/>
</a>
</g>
</g>
<!-- Node24&#45;&gt;Node21 -->
<g id="edge36_Node000024_Node000021" class="edge">
<title>Node24&#45;&gt;Node21</title>
<g id="a_edge36_Node000024_Node000021"><a xlink:title=" ">
<path fill="none" stroke="#63b8ff" d="M186.53,-109.98C198.4,-101.92 216.46,-89.65 230.61,-80.03"/>
<polygon fill="#63b8ff" stroke="#63b8ff" points="232.94,-82.69 239.24,-74.17 229,-76.9 232.94,-82.69"/>
</a>
</g>
</g>
<!-- Node25 -->
<g id="Node000025" class="node">
<title>Node25</title>
<g id="a_Node000025"><a xlink:title=" ">
<polygon fill="#e0e0e0" stroke="#999999" points="201.5,-74 136.5,-74 136.5,-55 201.5,-55 201.5,-74"/>
<text text-anchor="middle" x="169" y="-62" font-family="Helvetica,sans-Serif" font-size="10.00">exception</text>
</a>
</g>
</g>
<!-- Node24&#45;&gt;Node25 -->
<g id="edge35_Node000024_Node000025" class="edge">
<title>Node24&#45;&gt;Node25</title>
<g id="a_edge35_Node000024_Node000025"><a xlink:title=" ">
<path fill="none" stroke="#63b8ff" d="M173.17,-109.75C172.52,-102.8 171.58,-92.85 170.76,-84.13"/>
<polygon fill="#63b8ff" stroke="#63b8ff" points="174.23,-83.72 169.81,-74.09 167.27,-84.37 174.23,-83.72"/>
</a>
</g>
</g>
<!-- Node26&#45;&gt;Node14 -->
<g id="edge43_Node000026_Node000014" class="edge">
<title>Node26&#45;&gt;Node14</title>
<g id="a_edge43_Node000026_Node000014"><a xlink:title=" ">
<path fill="none" stroke="#63b8ff" d="M1106.74,-109.66C1108.19,-92.17 1111.47,-52.8 1113.44,-29.27"/>
<polygon fill="#63b8ff" stroke="#63b8ff" points="1116.94,-29.41 1114.28,-19.16 1109.96,-28.83 1116.94,-29.41"/>
</a>
</g>
</g>
<!-- Node26&#45;&gt;Node18 -->
<g id="edge41_Node000026_Node000018" class="edge">
<title>Node26&#45;&gt;Node18</title>
<g id="a_edge41_Node000026_Node000018"><a xlink:title=" ">
<path fill="none" stroke="#63b8ff" d="M1055.55,-109.98C991.54,-99.18 882.8,-80.83 827.13,-71.43"/>
<polygon fill="#63b8ff" stroke="#63b8ff" points="827.49,-67.94 817.05,-69.73 826.33,-74.84 827.49,-67.94"/>
</a>
</g>
</g>
<!-- Node27 -->
<g id="Node000027" class="node">
<title>Node27</title>
<g id="a_Node000027"><a xlink:title=" ">
<polygon fill="#e0e0e0" stroke="#999999" points="1087,-74 1037,-74 1037,-55 1087,-55 1087,-74"/>
<text text-anchor="middle" x="1062" y="-62" font-family="Helvetica,sans-Serif" font-size="10.00">chrono</text>
</a>
</g>
</g>
<!-- Node26&#45;&gt;Node27 -->
<g id="edge42_Node000026_Node000027" class="edge">
<title>Node26&#45;&gt;Node27</title>
<g id="a_edge42_Node000026_Node000027"><a xlink:title=" ">
<path fill="none" stroke="#63b8ff" d="M1098.73,-109.75C1092.46,-102.18 1083.21,-91.05 1075.57,-81.84"/>
<polygon fill="#63b8ff" stroke="#63b8ff" points="1078.21,-79.55 1069.13,-74.09 1072.83,-84.02 1078.21,-79.55"/>
</a>
</g>
</g>
<!-- Node28&#45;&gt;Node5 -->
<g id="edge47_Node000028_Node000005" class="edge">
<title>Node28&#45;&gt;Node5</title>
<g id="a_edge47_Node000028_Node000005"><a xlink:title=" ">
<path fill="none" stroke="#63b8ff" d="M1184.11,-164.99C1182.42,-152.1 1177.79,-127.31 1166,-110 1143.73,-77.3 1132.82,-69.49 1096,-55 920.99,13.86 857.56,-50.17 668.23,-18.85"/>
<polygon fill="#63b8ff" stroke="#63b8ff" points="668.69,-15.37 658.24,-17.12 667.5,-22.27 668.69,-15.37"/>
</a>
</g>
</g>
<!-- Node28&#45;&gt;Node14 -->
<g id="edge45_Node000028_Node000014" class="edge">
<title>Node28&#45;&gt;Node14</title>
<g id="a_edge45_Node000028_Node000014"><a xlink:title=" ">
<path fill="none" stroke="#63b8ff" d="M1227.16,-167.71C1307.25,-155.06 1468.58,-120.68 1412,-55 1378.58,-16.2 1221.61,-10.74 1150.35,-10.3"/>
<polygon fill="#63b8ff" stroke="#63b8ff" points="1150.09,-6.8 1140.08,-10.27 1150.07,-13.8 1150.09,-6.8"/>
</a>
</g>
</g>
<!-- Node28&#45;&gt;Node26 -->
<g id="edge48_Node000028_Node000026" class="edge">
<title>Node28&#45;&gt;Node26</title>
<g id="a_edge48_Node000028_Node000026"><a xlink:title=" ">
<path fill="none" stroke="#63b8ff" d="M1172.31,-164.98C1160.17,-156.84 1141.64,-144.41 1127.25,-134.76"/>
<polygon fill="#63b8ff" stroke="#63b8ff" points="1129.18,-131.84 1118.92,-129.17 1125.28,-137.65 1129.18,-131.84"/>
</a>
</g>
</g>
<!-- Node29 -->
<g id="Node000029" class="node">
<title>Node29</title>
<g id="a_Node000029"><a xlink:title=" ">
<polygon fill="#e0e0e0" stroke="#999999" points="1365,-129 1309,-129 1309,-110 1365,-110 1365,-129"/>
<text text-anchor="middle" x="1337" y="-117" font-family="Helvetica,sans-Serif" font-size="10.00">sstream</text>
</a>
</g>
</g>
<!-- Node28&#45;&gt;Node29 -->
<g id="edge46_Node000028_Node000029" class="edge">
<title>Node28&#45;&gt;Node29</title>
<g id="a_edge46_Node000028_Node000029"><a xlink:title=" ">
<path fill="none" stroke="#63b8ff" d="M1209.42,-164.98C1234.72,-156.16 1274.45,-142.31 1302.86,-132.41"/>
<polygon fill="#63b8ff" stroke="#63b8ff" points="1304.1,-135.68 1312.39,-129.08 1301.79,-129.07 1304.1,-135.68"/>
</a>
</g>
</g>
<!-- Node30&#45;&gt;Node5 -->
<g id="edge52_Node000030_Node000005" class="edge">
<title>Node30&#45;&gt;Node5</title>
<g id="a_edge52_Node000030_Node000005"><a xlink:title=" ">
<path fill="none" stroke="#63b8ff" d="M947.09,-164.89C939.07,-142.61 914.41,-82.86 872,-55 797.33,-5.94 759.87,-36.96 668.23,-18.98"/>
<polygon fill="#63b8ff" stroke="#63b8ff" points="668.8,-15.52 658.29,-16.88 667.35,-22.37 668.8,-15.52"/>
</a>
</g>
</g>
<!-- Node30&#45;&gt;Node7 -->
<g id="edge50_Node000030_Node000007" class="edge">
<title>Node30&#45;&gt;Node7</title>
<g id="a_edge50_Node000030_Node000007"><a xlink:title=" ">
<path fill="none" stroke="#63b8ff" d="M959.96,-164.98C969.13,-157.15 982.94,-145.34 994.03,-135.86"/>
<polygon fill="#63b8ff" stroke="#63b8ff" points="996.53,-138.33 1001.86,-129.17 991.98,-133.01 996.53,-138.33"/>
</a>
</g>
</g>
<!-- Node30&#45;&gt;Node11 -->
<g id="edge51_Node000030_Node000011" class="edge">
<title>Node30&#45;&gt;Node11</title>
<g id="a_edge51_Node000030_Node000011"><a xlink:title=" ">
<path fill="none" stroke="#63b8ff" d="M931.69,-164.99C913.18,-156.29 883.85,-142.21 859,-129 844.06,-121.06 841.9,-115.81 826,-110 788.45,-96.28 677.84,-79.37 618.19,-70.89"/>
<polygon fill="#63b8ff" stroke="#63b8ff" points="618.42,-67.38 608.02,-69.45 617.44,-74.32 618.42,-67.38"/>
</a>
</g>
</g>
<!-- Node30&#45;&gt;Node15 -->
<g id="edge53_Node000030_Node000015" class="edge">
<title>Node30&#45;&gt;Node15</title>
<g id="a_edge53_Node000030_Node000015"><a xlink:title=" ">
<path fill="none" stroke="#63b8ff" d="M911.12,-166.41C868.85,-158.54 799.08,-145.08 729.5,-128.99"/>
<polygon fill="#63b8ff" stroke="#63b8ff" points="730.22,-125.57 719.68,-126.71 728.63,-132.39 730.22,-125.57"/>
</a>
</g>
</g>
<!-- Node30&#45;&gt;Node16 -->
<g id="edge54_Node000030_Node000016" class="edge">
<title>Node30&#45;&gt;Node16</title>
<g id="a_edge54_Node000030_Node000016"><a xlink:title=" ">
<path fill="none" stroke="#63b8ff" d="M922.2,-164.98C893.03,-156.05 847,-141.94 814.6,-132.02"/>
<polygon fill="#63b8ff" stroke="#63b8ff" points="815.6,-128.66 805.01,-129.08 813.55,-135.36 815.6,-128.66"/>
</a>
</g>
</g>
<!-- Node30&#45;&gt;Node22 -->
<g id="edge60_Node000030_Node000022" class="edge">
<title>Node30&#45;&gt;Node22</title>
<g id="a_edge60_Node000030_Node000022"><a xlink:title=" ">
<path fill="none" stroke="#63b8ff" d="M940.06,-164.85C924.04,-151.32 891.05,-125.13 859,-110 822.86,-92.94 778.93,-81.26 746.41,-74.17"/>
<polygon fill="#63b8ff" stroke="#63b8ff" points="746.79,-70.67 736.28,-72.02 745.34,-77.52 746.79,-70.67"/>
</a>
</g>
</g>
<!-- Node31 -->
<g id="Node000031" class="node">
<title>Node31</title>
<g id="a_Node000031"><a xlink:href="../../d9/d86/limits_8h.html" target="_top" xlink:title=" ">
<polygon fill="white" stroke="#666666" points="1291,-129 1213,-129 1213,-110 1291,-110 1291,-129"/>
<text text-anchor="middle" x="1252" y="-117" font-family="Helvetica,sans-Serif" font-size="10.00">type/limits.h</text>
</a>
</g>
</g>
<!-- Node30&#45;&gt;Node31 -->
<g id="edge55_Node000030_Node000031" class="edge">
<title>Node30&#45;&gt;Node31</title>
<g id="a_edge55_Node000030_Node000031"><a xlink:title=" ">
<path fill="none" stroke="#63b8ff" d="M988.56,-166.73C1043.12,-157.16 1142.88,-139.65 1202.75,-129.14"/>
<polygon fill="#63b8ff" stroke="#63b8ff" points="1203.47,-132.57 1212.72,-127.39 1202.26,-125.68 1203.47,-132.57"/>
</a>
</g>
</g>
<!-- Node31&#45;&gt;Node3 -->
<g id="edge57_Node000031_Node000003" class="edge">
<title>Node31&#45;&gt;Node3</title>
<g id="a_edge57_Node000031_Node000003"><a xlink:title=" ">
<path fill="none" stroke="#63b8ff" d="M1272.24,-109.98C1292.7,-101.38 1324.53,-87.99 1347.93,-78.15"/>
<polygon fill="#63b8ff" stroke="#63b8ff" points="1349.53,-81.27 1357.39,-74.17 1346.81,-74.82 1349.53,-81.27"/>
</a>
</g>
</g>
<!-- Node31&#45;&gt;Node14 -->
<g id="edge58_Node000031_Node000014" class="edge">
<title>Node31&#45;&gt;Node14</title>
<g id="a_edge58_Node000031_Node000014"><a xlink:title=" ">
<path fill="none" stroke="#63b8ff" d="M1268.8,-109.82C1290.01,-97.74 1321.93,-75.06 1306,-55 1286.93,-30.97 1200.08,-18.72 1150.32,-13.58"/>
<polygon fill="#63b8ff" stroke="#63b8ff" points="1150.59,-10.09 1140.3,-12.58 1149.9,-17.05 1150.59,-10.09"/>
</a>
</g>
</g>
<!-- Node32 -->
<g id="Node000032" class="node">
<title>Node32</title>
<g id="a_Node000032"><a xlink:title=" ">
<polygon fill="#e0e0e0" stroke="#999999" points="1235,-74 1191,-74 1191,-55 1235,-55 1235,-74"/>
<text text-anchor="middle" x="1213" y="-62" font-family="Helvetica,sans-Serif" font-size="10.00">cfloat</text>
</a>
</g>
</g>
<!-- Node31&#45;&gt;Node32 -->
<g id="edge56_Node000031_Node000032" class="edge">
<title>Node31&#45;&gt;Node32</title>
<g id="a_edge56_Node000031_Node000032"><a xlink:title=" ">
<path fill="none" stroke="#63b8ff" d="M1245.56,-109.75C1240.11,-102.34 1232.14,-91.5 1225.44,-82.41"/>
<polygon fill="#63b8ff" stroke="#63b8ff" points="1228.07,-80.07 1219.32,-74.09 1222.43,-84.22 1228.07,-80.07"/>
</a>
</g>
</g>
<!-- Node33 -->
<g id="Node000033" class="node">
<title>Node33</title>
<g id="a_Node000033"><a xlink:title=" ">
<polygon fill="#e0e0e0" stroke="#999999" points="1297,-74 1253,-74 1253,-55 1297,-55 1297,-74"/>
<text text-anchor="middle" x="1275" y="-62" font-family="Helvetica,sans-Serif" font-size="10.00">limits</text>
</a>
</g>
</g>
<!-- Node31&#45;&gt;Node33 -->
<g id="edge59_Node000031_Node000033" class="edge">
<title>Node31&#45;&gt;Node33</title>
<g id="a_edge59_Node000031_Node000033"><a xlink:title=" ">
<path fill="none" stroke="#63b8ff" d="M1255.8,-109.75C1258.91,-102.57 1263.42,-92.18 1267.29,-83.27"/>
<polygon fill="#63b8ff" stroke="#63b8ff" points="1270.5,-84.66 1271.27,-74.09 1264.08,-81.87 1270.5,-84.66"/>
</a>
</g>
</g>
</g>
</svg>
