<?xml version="1.0" encoding="UTF-8" standalone="no"?>
<!DOCTYPE svg PUBLIC "-//W3C//DTD SVG 1.1//EN"
 "http://www.w3.org/Graphics/SVG/1.1/DTD/svg11.dtd">
<!-- Generated by graphviz version 2.43.0 (0)
 -->
<!-- Title: bustub::AbstractExpression Pages: 1 -->
<svg width="372pt" height="212pt"
 viewBox="0.00 0.00 372.00 212.00" xmlns="http://www.w3.org/2000/svg" xmlns:xlink="http://www.w3.org/1999/xlink">
<g id="graph0" class="graph" transform="scale(1 1) rotate(0) translate(4 208)">
<title>bustub::AbstractExpression</title>
<!-- Node1 -->
<g id="Node000001" class="node">
<title>Node1</title>
<g id="a_Node000001"><a xlink:title=" ">
<polygon fill="#999999" stroke="#666666" points="149,-111 0,-111 0,-92 149,-92 149,-111"/>
<text text-anchor="middle" x="74.5" y="-99" font-family="Helvetica,sans-Serif" font-size="10.00">bustub::AbstractExpression</text>
</a>
</g>
</g>
<!-- Node2 -->
<g id="Node000002" class="node">
<title>Node2</title>
<g id="a_Node000002"><a xlink:href="../../d8/d22/classbustub_1_1ArithmeticExpression.html" target="_top" xlink:title=" ">
<polygon fill="white" stroke="#666666" points="354.5,-204 194.5,-204 194.5,-185 354.5,-185 354.5,-204"/>
<text text-anchor="middle" x="274.5" y="-192" font-family="Helvetica,sans-Serif" font-size="10.00">bustub::ArithmeticExpression</text>
</a>
</g>
</g>
<!-- Node1&#45;&gt;Node2 -->
<g id="edge1_Node000001_Node000002" class="edge">
<title>Node1&#45;&gt;Node2</title>
<g id="a_edge1_Node000001_Node000002"><a xlink:title=" ">
<path fill="none" stroke="#63b8ff" d="M94.14,-117.78C114.9,-135.01 150.13,-161.73 185,-176.5 193.09,-179.92 201.87,-182.71 210.66,-184.98"/>
<polygon fill="#63b8ff" stroke="#63b8ff" points="96.32,-115.03 86.43,-111.25 91.8,-120.38 96.32,-115.03"/>
</a>
</g>
</g>
<!-- Node3 -->
<g id="Node000003" class="node">
<title>Node3</title>
<g id="a_Node000003"><a xlink:href="../../df/d38/classbustub_1_1ColumnValueExpression.html" target="_top" xlink:title=" ">
<polygon fill="white" stroke="#666666" points="361,-167 188,-167 188,-148 361,-148 361,-167"/>
<text text-anchor="middle" x="274.5" y="-155" font-family="Helvetica,sans-Serif" font-size="10.00">bustub::ColumnValueExpression</text>
</a>
</g>
</g>
<!-- Node1&#45;&gt;Node3 -->
<g id="edge2_Node000001_Node000003" class="edge">
<title>Node1&#45;&gt;Node3</title>
<g id="a_edge2_Node000001_Node000003"><a xlink:title=" ">
<path fill="none" stroke="#63b8ff" d="M109.61,-114.66C131.03,-122.59 159.37,-132.48 185,-139.5 196.49,-142.65 208.96,-145.51 220.81,-147.99"/>
<polygon fill="#63b8ff" stroke="#63b8ff" points="110.59,-111.28 99.99,-111.05 108.13,-117.84 110.59,-111.28"/>
</a>
</g>
</g>
<!-- Node4 -->
<g id="Node000004" class="node">
<title>Node4</title>
<g id="a_Node000004"><a xlink:href="../../d2/d92/classbustub_1_1ComparisonExpression.html" target="_top" xlink:title=" ">
<polygon fill="white" stroke="#666666" points="358,-130 191,-130 191,-111 358,-111 358,-130"/>
<text text-anchor="middle" x="274.5" y="-118" font-family="Helvetica,sans-Serif" font-size="10.00">bustub::ComparisonExpression</text>
</a>
</g>
</g>
<!-- Node1&#45;&gt;Node4 -->
<g id="edge3_Node000001_Node000004" class="edge">
<title>Node1&#45;&gt;Node4</title>
<g id="a_edge3_Node000001_Node000004"><a xlink:title=" ">
<path fill="none" stroke="#63b8ff" d="M159.48,-109.56C169.82,-110.55 180.39,-111.57 190.72,-112.56"/>
<polygon fill="#63b8ff" stroke="#63b8ff" points="159.52,-106.05 149.23,-108.57 158.85,-113.01 159.52,-106.05"/>
</a>
</g>
</g>
<!-- Node5 -->
<g id="Node000005" class="node">
<title>Node5</title>
<g id="a_Node000005"><a xlink:href="../../d2/dd8/classbustub_1_1ConstantValueExpression.html" target="_top" xlink:title=" ">
<polygon fill="white" stroke="#666666" points="364,-93 185,-93 185,-74 364,-74 364,-93"/>
<text text-anchor="middle" x="274.5" y="-81" font-family="Helvetica,sans-Serif" font-size="10.00">bustub::ConstantValueExpression</text>
</a>
</g>
</g>
<!-- Node1&#45;&gt;Node5 -->
<g id="edge4_Node000001_Node000005" class="edge">
<title>Node1&#45;&gt;Node5</title>
<g id="a_edge4_Node000001_Node000005"><a xlink:title=" ">
<path fill="none" stroke="#63b8ff" d="M159.44,-93.87C167.89,-93.1 176.49,-92.32 184.99,-91.55"/>
<polygon fill="#63b8ff" stroke="#63b8ff" points="158.87,-90.41 149.23,-94.8 159.5,-97.38 158.87,-90.41"/>
</a>
</g>
</g>
<!-- Node6 -->
<g id="Node000006" class="node">
<title>Node6</title>
<g id="a_Node000006"><a xlink:href="../../d0/d24/classbustub_1_1LogicExpression.html" target="_top" xlink:title=" ">
<polygon fill="white" stroke="#666666" points="341.5,-56 207.5,-56 207.5,-37 341.5,-37 341.5,-56"/>
<text text-anchor="middle" x="274.5" y="-44" font-family="Helvetica,sans-Serif" font-size="10.00">bustub::LogicExpression</text>
</a>
</g>
</g>
<!-- Node1&#45;&gt;Node6 -->
<g id="edge5_Node000001_Node000006" class="edge">
<title>Node1&#45;&gt;Node6</title>
<g id="a_edge5_Node000001_Node000006"><a xlink:title=" ">
<path fill="none" stroke="#63b8ff" d="M111.4,-88.63C132.63,-81.29 160.16,-72.23 185,-65.5 197.74,-62.05 211.65,-58.82 224.59,-56.03"/>
<polygon fill="#63b8ff" stroke="#63b8ff" points="110.1,-85.38 101.81,-91.98 112.41,-91.98 110.1,-85.38"/>
</a>
</g>
</g>
<!-- Node7 -->
<g id="Node000007" class="node">
<title>Node7</title>
<g id="a_Node000007"><a xlink:href="../../d6/d97/classbustub_1_1StringExpression.html" target="_top" xlink:title=" ">
<polygon fill="white" stroke="#666666" points="343,-19 206,-19 206,0 343,0 343,-19"/>
<text text-anchor="middle" x="274.5" y="-7" font-family="Helvetica,sans-Serif" font-size="10.00">bustub::StringExpression</text>
</a>
</g>
</g>
<!-- Node1&#45;&gt;Node7 -->
<g id="edge6_Node000001_Node000007" class="edge">
<title>Node1&#45;&gt;Node7</title>
<g id="a_edge6_Node000001_Node000007"><a xlink:title=" ">
<path fill="none" stroke="#63b8ff" d="M94.59,-85.48C115.48,-68.78 150.59,-43.04 185,-28.5 194.12,-24.65 204.11,-21.54 213.99,-19.04"/>
<polygon fill="#63b8ff" stroke="#63b8ff" points="92.35,-82.79 86.8,-91.82 96.77,-88.22 92.35,-82.79"/>
</a>
</g>
</g>
</g>
</svg>
