<?xml version="1.0" encoding="UTF-8" standalone="no"?>
<!DOCTYPE svg PUBLIC "-//W3C//DTD SVG 1.1//EN"
 "http://www.w3.org/Graphics/SVG/1.1/DTD/svg11.dtd">
<!-- Generated by graphviz version 2.43.0 (0)
 -->
<!-- Title: src/include/primer/trie.h Pages: 1 -->
<svg width="358pt" height="159pt"
 viewBox="0.00 0.00 358.00 159.00" xmlns="http://www.w3.org/2000/svg" xmlns:xlink="http://www.w3.org/1999/xlink">
<g id="graph0" class="graph" transform="scale(1 1) rotate(0) translate(4 155)">
<title>src/include/primer/trie.h</title>
<!-- Node1 -->
<g id="Node000001" class="node">
<title>Node1</title>
<g id="a_Node000001"><a xlink:title=" ">
<polygon fill="#999999" stroke="#666666" points="226,-151 122,-151 122,-121 226,-121 226,-151"/>
<text text-anchor="start" x="130" y="-139" font-family="Helvetica,sans-Serif" font-size="10.00">src/include/primer</text>
<text text-anchor="middle" x="174" y="-128" font-family="Helvetica,sans-Serif" font-size="10.00">/trie.h</text>
</a>
</g>
</g>
<!-- Node2 -->
<g id="Node000002" class="node">
<title>Node2</title>
<g id="a_Node000002"><a xlink:href="../../d0/dc0/trie__answer_8h.html" target="_top" xlink:title=" ">
<polygon fill="white" stroke="#666666" points="104,-85 0,-85 0,-55 104,-55 104,-85"/>
<text text-anchor="start" x="8" y="-73" font-family="Helvetica,sans-Serif" font-size="10.00">src/include/primer</text>
<text text-anchor="middle" x="52" y="-62" font-family="Helvetica,sans-Serif" font-size="10.00">/trie_answer.h</text>
</a>
</g>
</g>
<!-- Node1&#45;&gt;Node2 -->
<g id="edge1_Node000001_Node000002" class="edge">
<title>Node1&#45;&gt;Node2</title>
<g id="a_edge1_Node000001_Node000002"><a xlink:title=" ">
<path fill="none" stroke="#63b8ff" d="M138.24,-116.24C119.2,-106.25 96.18,-94.18 78.71,-85.01"/>
<polygon fill="#63b8ff" stroke="#63b8ff" points="136.75,-119.41 147.23,-120.95 140,-113.21 136.75,-119.41"/>
</a>
</g>
</g>
<!-- Node3 -->
<g id="Node000003" class="node">
<title>Node3</title>
<g id="a_Node000003"><a xlink:href="../../d1/dce/trie__store_8h.html" target="_top" xlink:title=" ">
<polygon fill="white" stroke="#666666" points="226,-85 122,-85 122,-55 226,-55 226,-85"/>
<text text-anchor="start" x="130" y="-73" font-family="Helvetica,sans-Serif" font-size="10.00">src/include/primer</text>
<text text-anchor="middle" x="174" y="-62" font-family="Helvetica,sans-Serif" font-size="10.00">/trie_store.h</text>
</a>
</g>
</g>
<!-- Node1&#45;&gt;Node3 -->
<g id="edge2_Node000001_Node000003" class="edge">
<title>Node1&#45;&gt;Node3</title>
<g id="a_edge2_Node000001_Node000003"><a xlink:title=" ">
<path fill="none" stroke="#63b8ff" d="M174,-110.54C174,-101.96 174,-92.61 174,-85.16"/>
<polygon fill="#63b8ff" stroke="#63b8ff" points="170.5,-110.8 174,-120.8 177.5,-110.8 170.5,-110.8"/>
</a>
</g>
</g>
<!-- Node5 -->
<g id="Node000005" class="node">
<title>Node5</title>
<g id="a_Node000005"><a xlink:href="../../d6/d5a/trie_8cpp.html" target="_top" xlink:title=" ">
<polygon fill="white" stroke="#666666" points="350,-79.5 244,-79.5 244,-60.5 350,-60.5 350,-79.5"/>
<text text-anchor="middle" x="297" y="-67.5" font-family="Helvetica,sans-Serif" font-size="10.00">src/primer/trie.cpp</text>
</a>
</g>
</g>
<!-- Node1&#45;&gt;Node5 -->
<g id="edge4_Node000001_Node000005" class="edge">
<title>Node1&#45;&gt;Node5</title>
<g id="a_edge4_Node000001_Node000005"><a xlink:title=" ">
<path fill="none" stroke="#63b8ff" d="M209.94,-116.3C233.32,-104.14 262.68,-88.86 280.63,-79.52"/>
<polygon fill="#63b8ff" stroke="#63b8ff" points="208.25,-113.23 200.99,-120.95 211.48,-119.44 208.25,-113.23"/>
</a>
</g>
</g>
<!-- Node4 -->
<g id="Node000004" class="node">
<title>Node4</title>
<g id="a_Node000004"><a xlink:href="../../d0/d52/trie__store_8cpp.html" target="_top" xlink:title=" ">
<polygon fill="white" stroke="#666666" points="242,-19 106,-19 106,0 242,0 242,-19"/>
<text text-anchor="middle" x="174" y="-7" font-family="Helvetica,sans-Serif" font-size="10.00">src/primer/trie_store.cpp</text>
</a>
</g>
</g>
<!-- Node3&#45;&gt;Node4 -->
<g id="edge3_Node000003_Node000004" class="edge">
<title>Node3&#45;&gt;Node4</title>
<g id="a_edge3_Node000003_Node000004"><a xlink:title=" ">
<path fill="none" stroke="#63b8ff" d="M174,-44.75C174,-35.72 174,-26.03 174,-19.27"/>
<polygon fill="#63b8ff" stroke="#63b8ff" points="170.5,-44.84 174,-54.84 177.5,-44.84 170.5,-44.84"/>
</a>
</g>
</g>
</g>
</svg>
