<?xml version="1.0" encoding="UTF-8" standalone="no"?>
<!DOCTYPE svg PUBLIC "-//W3C//DTD SVG 1.1//EN"
 "http://www.w3.org/Graphics/SVG/1.1/DTD/svg11.dtd">
<!-- Generated by graphviz version 2.43.0 (0)
 -->
<!-- Title: src/include/type/value_factory.h Pages: 1 -->
<svg width="3241pt" height="181pt"
 viewBox="0.00 0.00 3241.00 181.00" xmlns="http://www.w3.org/2000/svg" xmlns:xlink="http://www.w3.org/1999/xlink">
<g id="graph0" class="graph" transform="scale(1 1) rotate(0) translate(4 177)">
<title>src/include/type/value_factory.h</title>
<!-- Node1 -->
<g id="Node000001" class="node">
<title>Node1</title>
<g id="a_Node000001"><a xlink:title=" ">
<polygon fill="#999999" stroke="#666666" points="1631,-173 1507,-173 1507,-143 1631,-143 1631,-173"/>
<text text-anchor="start" x="1515" y="-161" font-family="Helvetica,sans-Serif" font-size="10.00">src/include/type/value</text>
<text text-anchor="middle" x="1569" y="-150" font-family="Helvetica,sans-Serif" font-size="10.00">_factory.h</text>
</a>
</g>
</g>
<!-- Node2 -->
<g id="Node000002" class="node">
<title>Node2</title>
<g id="a_Node000002"><a xlink:href="../../d9/d88/bind__insert_8cpp.html" target="_top" xlink:title=" ">
<polygon fill="white" stroke="#666666" points="142,-96 0,-96 0,-77 142,-77 142,-96"/>
<text text-anchor="middle" x="71" y="-84" font-family="Helvetica,sans-Serif" font-size="10.00">src/binder/bind_insert.cpp</text>
</a>
</g>
</g>
<!-- Node1&#45;&gt;Node2 -->
<g id="edge1_Node000001_Node000002" class="edge">
<title>Node1&#45;&gt;Node2</title>
<g id="a_edge1_Node000001_Node000002"><a xlink:title=" ">
<path fill="none" stroke="#63b8ff" d="M1496.58,-156.4C1245.73,-154 415,-143.44 151,-107 133.86,-104.63 115.06,-100.15 99.98,-96.08"/>
<polygon fill="#63b8ff" stroke="#63b8ff" points="1496.64,-159.9 1506.67,-156.49 1496.7,-152.9 1496.64,-159.9"/>
</a>
</g>
</g>
<!-- Node3 -->
<g id="Node000003" class="node">
<title>Node3</title>
<g id="a_Node000003"><a xlink:href="../../d7/d35/bind__select_8cpp.html" target="_top" xlink:title=" ">
<polygon fill="white" stroke="#666666" points="303.5,-96 160.5,-96 160.5,-77 303.5,-77 303.5,-96"/>
<text text-anchor="middle" x="232" y="-84" font-family="Helvetica,sans-Serif" font-size="10.00">src/binder/bind_select.cpp</text>
</a>
</g>
</g>
<!-- Node1&#45;&gt;Node3 -->
<g id="edge2_Node000001_Node000003" class="edge">
<title>Node1&#45;&gt;Node3</title>
<g id="a_edge2_Node000001_Node000003"><a xlink:title=" ">
<path fill="none" stroke="#63b8ff" d="M1496.71,-156.02C1265.11,-152.57 543.23,-139.45 312,-107 294.87,-104.6 276.06,-100.11 260.99,-96.04"/>
<polygon fill="#63b8ff" stroke="#63b8ff" points="1496.66,-159.52 1506.71,-156.17 1496.76,-152.52 1496.66,-159.52"/>
</a>
</g>
</g>
<!-- Node4 -->
<g id="Node000004" class="node">
<title>Node4</title>
<g id="a_Node000004"><a xlink:href="../../dc/de0/bustub__ddl_8cpp.html" target="_top" xlink:title=" ">
<polygon fill="white" stroke="#666666" points="474.5,-96 321.5,-96 321.5,-77 474.5,-77 474.5,-96"/>
<text text-anchor="middle" x="398" y="-84" font-family="Helvetica,sans-Serif" font-size="10.00">src/common/bustub_ddl.cpp</text>
</a>
</g>
</g>
<!-- Node1&#45;&gt;Node4 -->
<g id="edge3_Node000001_Node000004" class="edge">
<title>Node1&#45;&gt;Node4</title>
<g id="a_edge3_Node000001_Node000004"><a xlink:title=" ">
<path fill="none" stroke="#63b8ff" d="M1496.4,-155.36C1286.22,-150.34 679.66,-133.86 483,-107 465,-104.54 445.2,-100.1 429.24,-96.08"/>
<polygon fill="#63b8ff" stroke="#63b8ff" points="1496.62,-158.86 1506.71,-155.6 1496.79,-151.87 1496.62,-158.86"/>
</a>
</g>
</g>
<!-- Node5 -->
<g id="Node000005" class="node">
<title>Node5</title>
<g id="a_Node000005"><a xlink:href="../../da/d08/bustub__instance_8cpp.html" target="_top" xlink:title=" ">
<polygon fill="white" stroke="#666666" points="671.5,-96 492.5,-96 492.5,-77 671.5,-77 671.5,-96"/>
<text text-anchor="middle" x="582" y="-84" font-family="Helvetica,sans-Serif" font-size="10.00">src/common/bustub_instance.cpp</text>
</a>
</g>
</g>
<!-- Node1&#45;&gt;Node5 -->
<g id="edge4_Node000001_Node000005" class="edge">
<title>Node1&#45;&gt;Node5</title>
<g id="a_edge4_Node000001_Node000005"><a xlink:title=" ">
<path fill="none" stroke="#63b8ff" d="M1496.62,-156.36C1344.7,-154.27 981.69,-145.31 680,-107 659.52,-104.4 636.91,-100 618.56,-96.04"/>
<polygon fill="#63b8ff" stroke="#63b8ff" points="1496.71,-159.86 1506.75,-156.49 1496.8,-152.86 1496.71,-159.86"/>
</a>
</g>
</g>
<!-- Node6 -->
<g id="Node000006" class="node">
<title>Node6</title>
<g id="a_Node000006"><a xlink:href="../../d1/d14/transaction__manager_8cpp.html" target="_top" xlink:title=" ">
<polygon fill="white" stroke="#666666" points="840.5,-101.5 689.5,-101.5 689.5,-71.5 840.5,-71.5 840.5,-101.5"/>
<text text-anchor="start" x="697.5" y="-89.5" font-family="Helvetica,sans-Serif" font-size="10.00">src/concurrency/transaction</text>
<text text-anchor="middle" x="765" y="-78.5" font-family="Helvetica,sans-Serif" font-size="10.00">_manager.cpp</text>
</a>
</g>
</g>
<!-- Node1&#45;&gt;Node6 -->
<g id="edge5_Node000001_Node000006" class="edge">
<title>Node1&#45;&gt;Node6</title>
<g id="a_edge5_Node000001_Node000006"><a xlink:title=" ">
<path fill="none" stroke="#63b8ff" d="M1496.26,-155.76C1365.86,-152.69 1083.97,-142.2 849,-107 839.52,-105.58 829.54,-103.65 819.88,-101.56"/>
<polygon fill="#63b8ff" stroke="#63b8ff" points="1496.44,-159.26 1506.52,-155.99 1496.6,-152.27 1496.44,-159.26"/>
</a>
</g>
</g>
<!-- Node7 -->
<g id="Node000007" class="node">
<title>Node7</title>
<g id="a_Node000007"><a xlink:href="../../d3/d72/transaction__manager__impl_8cpp.html" target="_top" xlink:title=" ">
<polygon fill="white" stroke="#666666" points="1009.5,-101.5 858.5,-101.5 858.5,-71.5 1009.5,-71.5 1009.5,-101.5"/>
<text text-anchor="start" x="866.5" y="-89.5" font-family="Helvetica,sans-Serif" font-size="10.00">src/concurrency/transaction</text>
<text text-anchor="middle" x="934" y="-78.5" font-family="Helvetica,sans-Serif" font-size="10.00">_manager_impl.cpp</text>
</a>
</g>
</g>
<!-- Node1&#45;&gt;Node7 -->
<g id="edge6_Node000001_Node000007" class="edge">
<title>Node1&#45;&gt;Node7</title>
<g id="a_edge6_Node000001_Node000007"><a xlink:title=" ">
<path fill="none" stroke="#63b8ff" d="M1496.44,-153.6C1390.68,-147.93 1188.25,-134.35 1018,-107 1008.84,-105.53 999.18,-103.62 989.82,-101.59"/>
<polygon fill="#63b8ff" stroke="#63b8ff" points="1496.51,-157.11 1506.68,-154.14 1496.88,-150.12 1496.51,-157.11"/>
</a>
</g>
</g>
<!-- Node8 -->
<g id="Node000008" class="node">
<title>Node8</title>
<g id="a_Node000008"><a xlink:href="../../dd/df1/execution__common_8cpp.html" target="_top" xlink:title=" ">
<polygon fill="white" stroke="#666666" points="1158.5,-101.5 1027.5,-101.5 1027.5,-71.5 1158.5,-71.5 1158.5,-101.5"/>
<text text-anchor="start" x="1035.5" y="-89.5" font-family="Helvetica,sans-Serif" font-size="10.00">src/execution/execution</text>
<text text-anchor="middle" x="1093" y="-78.5" font-family="Helvetica,sans-Serif" font-size="10.00">_common.cpp</text>
</a>
</g>
</g>
<!-- Node1&#45;&gt;Node8 -->
<g id="edge7_Node000001_Node000008" class="edge">
<title>Node1&#45;&gt;Node8</title>
<g id="a_edge7_Node000001_Node000008"><a xlink:title=" ">
<path fill="none" stroke="#63b8ff" d="M1496.89,-150.97C1416.08,-143.52 1281.4,-129.08 1167,-107 1159.04,-105.46 1150.68,-103.55 1142.55,-101.53"/>
<polygon fill="#63b8ff" stroke="#63b8ff" points="1496.68,-154.46 1506.96,-151.88 1497.32,-147.49 1496.68,-154.46"/>
</a>
</g>
</g>
<!-- Node9 -->
<g id="Node000009" class="node">
<title>Node9</title>
<g id="a_Node000009"><a xlink:href="../../d2/d5a/filter__executor_8cpp.html" target="_top" xlink:title=" ">
<polygon fill="white" stroke="#666666" points="1283.5,-101.5 1176.5,-101.5 1176.5,-71.5 1283.5,-71.5 1283.5,-101.5"/>
<text text-anchor="start" x="1184.5" y="-89.5" font-family="Helvetica,sans-Serif" font-size="10.00">src/execution/filter</text>
<text text-anchor="middle" x="1230" y="-78.5" font-family="Helvetica,sans-Serif" font-size="10.00">_executor.cpp</text>
</a>
</g>
</g>
<!-- Node1&#45;&gt;Node9 -->
<g id="edge8_Node000001_Node000009" class="edge">
<title>Node1&#45;&gt;Node9</title>
<g id="a_edge8_Node000001_Node000009"><a xlink:title=" ">
<path fill="none" stroke="#63b8ff" d="M1496.71,-146.51C1440.5,-137.74 1360.79,-123.95 1292,-107 1285.54,-105.41 1278.76,-103.51 1272.15,-101.54"/>
<polygon fill="#63b8ff" stroke="#63b8ff" points="1496.5,-150.02 1506.92,-148.09 1497.57,-143.1 1496.5,-150.02"/>
</a>
</g>
</g>
<!-- Node10 -->
<g id="Node000010" class="node">
<title>Node10</title>
<g id="a_Node000010"><a xlink:href="../../da/dd8/mock__scan__executor_8cpp.html" target="_top" xlink:title=" ">
<polygon fill="white" stroke="#666666" points="1412.5,-101.5 1301.5,-101.5 1301.5,-71.5 1412.5,-71.5 1412.5,-101.5"/>
<text text-anchor="start" x="1309.5" y="-89.5" font-family="Helvetica,sans-Serif" font-size="10.00">src/execution/mock</text>
<text text-anchor="middle" x="1357" y="-78.5" font-family="Helvetica,sans-Serif" font-size="10.00">_scan_executor.cpp</text>
</a>
</g>
</g>
<!-- Node1&#45;&gt;Node10 -->
<g id="edge9_Node000001_Node000010" class="edge">
<title>Node1&#45;&gt;Node10</title>
<g id="a_edge9_Node000001_Node000010"><a xlink:title=" ">
<path fill="none" stroke="#63b8ff" d="M1516.28,-139.72C1480.37,-127.95 1433.44,-112.56 1399.84,-101.54"/>
<polygon fill="#63b8ff" stroke="#63b8ff" points="1515.51,-143.15 1526.1,-142.94 1517.69,-136.49 1515.51,-143.15"/>
</a>
</g>
</g>
<!-- Node11 -->
<g id="Node000011" class="node">
<title>Node11</title>
<g id="a_Node000011"><a xlink:href="../../dd/d51/aggregation__executor_8h.html" target="_top" xlink:title=" ">
<polygon fill="white" stroke="#666666" points="1559,-107 1431,-107 1431,-66 1559,-66 1559,-107"/>
<text text-anchor="start" x="1439" y="-95" font-family="Helvetica,sans-Serif" font-size="10.00">src/include/execution</text>
<text text-anchor="start" x="1439" y="-84" font-family="Helvetica,sans-Serif" font-size="10.00">/executors/aggregation</text>
<text text-anchor="middle" x="1495" y="-73" font-family="Helvetica,sans-Serif" font-size="10.00">_executor.h</text>
</a>
</g>
</g>
<!-- Node1&#45;&gt;Node11 -->
<g id="edge10_Node000001_Node000011" class="edge">
<title>Node1&#45;&gt;Node11</title>
<g id="a_edge10_Node000001_Node000011"><a xlink:title=" ">
<path fill="none" stroke="#63b8ff" d="M1546.6,-135.96C1536.82,-126.78 1525.43,-116.08 1515.84,-107.07"/>
<polygon fill="#63b8ff" stroke="#63b8ff" points="1544.34,-138.64 1554.02,-142.94 1549.13,-133.54 1544.34,-138.64"/>
</a>
</g>
</g>
<!-- Node14 -->
<g id="Node000014" class="node">
<title>Node14</title>
<g id="a_Node000014"><a xlink:href="../../d3/d6d/arithmetic__expression_8h.html" target="_top" xlink:title=" ">
<polygon fill="white" stroke="#666666" points="1708.5,-107 1577.5,-107 1577.5,-66 1708.5,-66 1708.5,-107"/>
<text text-anchor="start" x="1585.5" y="-95" font-family="Helvetica,sans-Serif" font-size="10.00">src/include/execution</text>
<text text-anchor="start" x="1585.5" y="-84" font-family="Helvetica,sans-Serif" font-size="10.00">/expressions/arithmetic</text>
<text text-anchor="middle" x="1643" y="-73" font-family="Helvetica,sans-Serif" font-size="10.00">_expression.h</text>
</a>
</g>
</g>
<!-- Node1&#45;&gt;Node14 -->
<g id="edge13_Node000001_Node000014" class="edge">
<title>Node1&#45;&gt;Node14</title>
<g id="a_edge13_Node000001_Node000014"><a xlink:title=" ">
<path fill="none" stroke="#63b8ff" d="M1591.4,-135.96C1601.18,-126.78 1612.57,-116.08 1622.16,-107.07"/>
<polygon fill="#63b8ff" stroke="#63b8ff" points="1588.87,-133.54 1583.98,-142.94 1593.66,-138.64 1588.87,-133.54"/>
</a>
</g>
</g>
<!-- Node16 -->
<g id="Node000016" class="node">
<title>Node16</title>
<g id="a_Node000016"><a xlink:href="../../d7/da4/comparison__expression_8h.html" target="_top" xlink:title=" ">
<polygon fill="white" stroke="#666666" points="2055,-107 1917,-107 1917,-66 2055,-66 2055,-107"/>
<text text-anchor="start" x="1925" y="-95" font-family="Helvetica,sans-Serif" font-size="10.00">src/include/execution</text>
<text text-anchor="start" x="1925" y="-84" font-family="Helvetica,sans-Serif" font-size="10.00">/expressions/comparison</text>
<text text-anchor="middle" x="1986" y="-73" font-family="Helvetica,sans-Serif" font-size="10.00">_expression.h</text>
</a>
</g>
</g>
<!-- Node1&#45;&gt;Node16 -->
<g id="edge15_Node000001_Node000016" class="edge">
<title>Node1&#45;&gt;Node16</title>
<g id="a_edge15_Node000001_Node000016"><a xlink:title=" ">
<path fill="none" stroke="#63b8ff" d="M1641.48,-148.41C1710.36,-139.75 1816.69,-125.1 1908,-107 1910.88,-106.43 1913.8,-105.82 1916.76,-105.19"/>
<polygon fill="#63b8ff" stroke="#63b8ff" points="1640.66,-144.99 1631.17,-149.7 1641.53,-151.93 1640.66,-144.99"/>
</a>
</g>
</g>
<!-- Node19 -->
<g id="Node000019" class="node">
<title>Node19</title>
<g id="a_Node000019"><a xlink:href="../../dd/d76/logic__expression_8h.html" target="_top" xlink:title=" ">
<polygon fill="white" stroke="#666666" points="1899,-101.5 1727,-101.5 1727,-71.5 1899,-71.5 1899,-101.5"/>
<text text-anchor="start" x="1735" y="-89.5" font-family="Helvetica,sans-Serif" font-size="10.00">src/include/execution</text>
<text text-anchor="middle" x="1813" y="-78.5" font-family="Helvetica,sans-Serif" font-size="10.00">/expressions/logic_expression.h</text>
</a>
</g>
</g>
<!-- Node1&#45;&gt;Node19 -->
<g id="edge19_Node000001_Node000019" class="edge">
<title>Node1&#45;&gt;Node19</title>
<g id="a_edge19_Node000001_Node000019"><a xlink:title=" ">
<path fill="none" stroke="#63b8ff" d="M1628.09,-140.17C1669.62,-128.34 1724.53,-112.7 1763.7,-101.54"/>
<polygon fill="#63b8ff" stroke="#63b8ff" points="1627.04,-136.83 1618.38,-142.94 1628.95,-143.56 1627.04,-136.83"/>
</a>
</g>
</g>
<!-- Node20 -->
<g id="Node000020" class="node">
<title>Node20</title>
<g id="a_Node000020"><a xlink:href="../../df/d13/string__expression_8h.html" target="_top" xlink:title=" ">
<polygon fill="white" stroke="#666666" points="2249,-101.5 2073,-101.5 2073,-71.5 2249,-71.5 2249,-101.5"/>
<text text-anchor="start" x="2081" y="-89.5" font-family="Helvetica,sans-Serif" font-size="10.00">src/include/execution</text>
<text text-anchor="middle" x="2161" y="-78.5" font-family="Helvetica,sans-Serif" font-size="10.00">/expressions/string_expression.h</text>
</a>
</g>
</g>
<!-- Node1&#45;&gt;Node20 -->
<g id="edge21_Node000001_Node000020" class="edge">
<title>Node1&#45;&gt;Node20</title>
<g id="a_edge21_Node000001_Node000020"><a xlink:title=" ">
<path fill="none" stroke="#63b8ff" d="M1641.62,-151.9C1738.35,-144.59 1914.64,-129.5 2064,-107 2074.28,-105.45 2085.11,-103.55 2095.67,-101.54"/>
<polygon fill="#63b8ff" stroke="#63b8ff" points="1641.08,-148.43 1631.37,-152.67 1641.6,-155.41 1641.08,-148.43"/>
</a>
</g>
</g>
<!-- Node22 -->
<g id="Node000022" class="node">
<title>Node22</title>
<g id="a_Node000022"><a xlink:href="../../da/de4/plan__aggregation_8cpp.html" target="_top" xlink:title=" ">
<polygon fill="white" stroke="#666666" points="2446.5,-96 2267.5,-96 2267.5,-77 2446.5,-77 2446.5,-96"/>
<text text-anchor="middle" x="2357" y="-84" font-family="Helvetica,sans-Serif" font-size="10.00">src/planner/plan_aggregation.cpp</text>
</a>
</g>
</g>
<!-- Node1&#45;&gt;Node22 -->
<g id="edge23_Node000001_Node000022" class="edge">
<title>Node1&#45;&gt;Node22</title>
<g id="a_edge23_Node000001_Node000022"><a xlink:title=" ">
<path fill="none" stroke="#63b8ff" d="M1641.29,-154.66C1767.11,-149.93 2034.28,-137.04 2258,-107 2278.31,-104.27 2300.74,-99.97 2319.1,-96.09"/>
<polygon fill="#63b8ff" stroke="#63b8ff" points="1640.89,-151.17 1631.02,-155.04 1641.14,-158.16 1640.89,-151.17"/>
</a>
</g>
</g>
<!-- Node23 -->
<g id="Node000023" class="node">
<title>Node23</title>
<g id="a_Node000023"><a xlink:href="../../d0/d29/plan__expression_8cpp.html" target="_top" xlink:title=" ">
<polygon fill="white" stroke="#666666" points="2637.5,-96 2464.5,-96 2464.5,-77 2637.5,-77 2637.5,-96"/>
<text text-anchor="middle" x="2551" y="-84" font-family="Helvetica,sans-Serif" font-size="10.00">src/planner/plan_expression.cpp</text>
</a>
</g>
</g>
<!-- Node1&#45;&gt;Node23 -->
<g id="edge24_Node000001_Node000023" class="edge">
<title>Node1&#45;&gt;Node23</title>
<g id="a_edge24_Node000001_Node000023"><a xlink:title=" ">
<path fill="none" stroke="#63b8ff" d="M1641.24,-156.5C1792.85,-154.66 2155.11,-146.15 2456,-107 2475.87,-104.41 2497.79,-100.02 2515.57,-96.06"/>
<polygon fill="#63b8ff" stroke="#63b8ff" points="1641.08,-153 1631.12,-156.61 1641.16,-160 1641.08,-153"/>
</a>
</g>
</g>
<!-- Node24 -->
<g id="Node000024" class="node">
<title>Node24</title>
<g id="a_Node000024"><a xlink:href="../../d9/df0/plan__select_8cpp.html" target="_top" xlink:title=" ">
<polygon fill="white" stroke="#666666" points="2804.5,-96 2655.5,-96 2655.5,-77 2804.5,-77 2804.5,-96"/>
<text text-anchor="middle" x="2730" y="-84" font-family="Helvetica,sans-Serif" font-size="10.00">src/planner/plan_select.cpp</text>
</a>
</g>
</g>
<!-- Node1&#45;&gt;Node24 -->
<g id="edge25_Node000001_Node000024" class="edge">
<title>Node1&#45;&gt;Node24</title>
<g id="a_edge25_Node000001_Node000024"><a xlink:title=" ">
<path fill="none" stroke="#63b8ff" d="M1641.44,-155.38C1850.43,-150.44 2451.98,-134.2 2647,-107 2664.59,-104.55 2683.93,-100.11 2699.51,-96.09"/>
<polygon fill="#63b8ff" stroke="#63b8ff" points="1641.11,-151.89 1631.19,-155.62 1641.27,-158.89 1641.11,-151.89"/>
</a>
</g>
</g>
<!-- Node25 -->
<g id="Node000025" class="node">
<title>Node25</title>
<g id="a_Node000025"><a xlink:href="../../d8/d40/plan__table__ref_8cpp.html" target="_top" xlink:title=" ">
<polygon fill="white" stroke="#666666" points="2947.5,-101.5 2822.5,-101.5 2822.5,-71.5 2947.5,-71.5 2947.5,-101.5"/>
<text text-anchor="start" x="2830.5" y="-89.5" font-family="Helvetica,sans-Serif" font-size="10.00">src/planner/plan_table</text>
<text text-anchor="middle" x="2885" y="-78.5" font-family="Helvetica,sans-Serif" font-size="10.00">_ref.cpp</text>
</a>
</g>
</g>
<!-- Node1&#45;&gt;Node25 -->
<g id="edge26_Node000001_Node000025" class="edge">
<title>Node1&#45;&gt;Node25</title>
<g id="a_edge26_Node000001_Node000025"><a xlink:title=" ">
<path fill="none" stroke="#63b8ff" d="M1641.38,-156.26C1871.68,-153.55 2585.72,-142.46 2814,-107 2822.46,-105.69 2831.36,-103.72 2839.88,-101.54"/>
<polygon fill="#63b8ff" stroke="#63b8ff" points="1641.07,-152.76 1631.11,-156.38 1641.15,-159.76 1641.07,-152.76"/>
</a>
</g>
</g>
<!-- Node26 -->
<g id="Node000026" class="node">
<title>Node26</title>
<g id="a_Node000026"><a xlink:href="../../d4/d79/plan__window__function_8cpp.html" target="_top" xlink:title=" ">
<polygon fill="white" stroke="#666666" points="3102.5,-101.5 2965.5,-101.5 2965.5,-71.5 3102.5,-71.5 3102.5,-101.5"/>
<text text-anchor="start" x="2973.5" y="-89.5" font-family="Helvetica,sans-Serif" font-size="10.00">src/planner/plan_window</text>
<text text-anchor="middle" x="3034" y="-78.5" font-family="Helvetica,sans-Serif" font-size="10.00">_function.cpp</text>
</a>
</g>
</g>
<!-- Node1&#45;&gt;Node26 -->
<g id="edge27_Node000001_Node000026" class="edge">
<title>Node1&#45;&gt;Node26</title>
<g id="a_edge27_Node000001_Node000026"><a xlink:title=" ">
<path fill="none" stroke="#63b8ff" d="M1641.54,-156.42C1889.06,-154.1 2699.32,-143.84 2957,-107 2966.15,-105.69 2975.78,-103.73 2985.02,-101.55"/>
<polygon fill="#63b8ff" stroke="#63b8ff" points="1641.19,-152.92 1631.22,-156.51 1641.25,-159.92 1641.19,-152.92"/>
</a>
</g>
</g>
<!-- Node27 -->
<g id="Node000027" class="node">
<title>Node27</title>
<g id="a_Node000027"><a xlink:href="../../d2/d0e/timestamp__type_8cpp.html" target="_top" xlink:title=" ">
<polygon fill="white" stroke="#666666" points="3233,-101.5 3121,-101.5 3121,-71.5 3233,-71.5 3233,-101.5"/>
<text text-anchor="start" x="3129" y="-89.5" font-family="Helvetica,sans-Serif" font-size="10.00">src/type/timestamp</text>
<text text-anchor="middle" x="3177" y="-78.5" font-family="Helvetica,sans-Serif" font-size="10.00">_type.cpp</text>
</a>
</g>
</g>
<!-- Node1&#45;&gt;Node27 -->
<g id="edge28_Node000001_Node000027" class="edge">
<title>Node1&#45;&gt;Node27</title>
<g id="a_edge28_Node000001_Node000027"><a xlink:title=" ">
<path fill="none" stroke="#63b8ff" d="M1641.53,-157.14C1906.76,-157.24 2823.56,-154.12 3112,-107 3119.91,-105.71 3128.2,-103.73 3136.11,-101.51"/>
<polygon fill="#63b8ff" stroke="#63b8ff" points="1641.25,-153.64 1631.25,-157.13 1641.25,-160.64 1641.25,-153.64"/>
</a>
</g>
</g>
<!-- Node12 -->
<g id="Node000012" class="node">
<title>Node12</title>
<g id="a_Node000012"><a xlink:href="../../da/d4d/aggregation__executor_8cpp.html" target="_top" xlink:title=" ">
<polygon fill="white" stroke="#666666" points="1499.5,-30 1356.5,-30 1356.5,0 1499.5,0 1499.5,-30"/>
<text text-anchor="start" x="1364.5" y="-18" font-family="Helvetica,sans-Serif" font-size="10.00">src/execution/aggregation</text>
<text text-anchor="middle" x="1428" y="-7" font-family="Helvetica,sans-Serif" font-size="10.00">_executor.cpp</text>
</a>
</g>
</g>
<!-- Node11&#45;&gt;Node12 -->
<g id="edge11_Node000011_Node000012" class="edge">
<title>Node11&#45;&gt;Node12</title>
<g id="a_edge11_Node000011_Node000012"><a xlink:title=" ">
<path fill="none" stroke="#63b8ff" d="M1469.02,-58.55C1459.63,-48.81 1449.42,-38.22 1441.53,-30.04"/>
<polygon fill="#63b8ff" stroke="#63b8ff" points="1466.52,-61 1475.98,-65.77 1471.56,-56.14 1466.52,-61"/>
</a>
</g>
</g>
<!-- Node13 -->
<g id="Node000013" class="node">
<title>Node13</title>
<g id="a_Node000013"><a xlink:href="../../d3/d3e/executor__factory_8cpp.html" target="_top" xlink:title=" ">
<polygon fill="white" stroke="#666666" points="1644,-30 1518,-30 1518,0 1644,0 1644,-30"/>
<text text-anchor="start" x="1526" y="-18" font-family="Helvetica,sans-Serif" font-size="10.00">src/execution/executor</text>
<text text-anchor="middle" x="1581" y="-7" font-family="Helvetica,sans-Serif" font-size="10.00">_factory.cpp</text>
</a>
</g>
</g>
<!-- Node11&#45;&gt;Node13 -->
<g id="edge12_Node000011_Node000013" class="edge">
<title>Node11&#45;&gt;Node13</title>
<g id="a_edge12_Node000011_Node000013"><a xlink:title=" ">
<path fill="none" stroke="#63b8ff" d="M1527.29,-59.41C1539.62,-49.44 1553.21,-38.46 1563.63,-30.04"/>
<polygon fill="#63b8ff" stroke="#63b8ff" points="1524.99,-56.76 1519.41,-65.77 1529.39,-62.21 1524.99,-56.76"/>
</a>
</g>
</g>
<!-- Node15 -->
<g id="Node000015" class="node">
<title>Node15</title>
<g id="a_Node000015"><a xlink:href="../../df/dfb/expression__factory_8cpp.html" target="_top" xlink:title=" ">
<polygon fill="white" stroke="#666666" points="1848.5,-30 1721.5,-30 1721.5,0 1848.5,0 1848.5,-30"/>
<text text-anchor="start" x="1729.5" y="-18" font-family="Helvetica,sans-Serif" font-size="10.00">src/planner/expression</text>
<text text-anchor="middle" x="1785" y="-7" font-family="Helvetica,sans-Serif" font-size="10.00">_factory.cpp</text>
</a>
</g>
</g>
<!-- Node14&#45;&gt;Node15 -->
<g id="edge14_Node000014_Node000015" class="edge">
<title>Node14&#45;&gt;Node15</title>
<g id="a_edge14_Node000014_Node000015"><a xlink:title=" ">
<path fill="none" stroke="#63b8ff" d="M1692.19,-61.42C1713.54,-50.98 1737.8,-39.1 1756.17,-30.11"/>
<polygon fill="#63b8ff" stroke="#63b8ff" points="1690.38,-58.42 1682.93,-65.96 1693.45,-64.7 1690.38,-58.42"/>
</a>
</g>
</g>
<!-- Node16&#45;&gt;Node15 -->
<g id="edge18_Node000016_Node000015" class="edge">
<title>Node16&#45;&gt;Node15</title>
<g id="a_edge18_Node000016_Node000015"><a xlink:title=" ">
<path fill="none" stroke="#63b8ff" d="M1919.97,-62.67C1888.79,-51.89 1852.57,-39.36 1825.5,-30"/>
<polygon fill="#63b8ff" stroke="#63b8ff" points="1918.88,-66 1929.48,-65.96 1921.17,-59.38 1918.88,-66"/>
</a>
</g>
</g>
<!-- Node17 -->
<g id="Node000017" class="node">
<title>Node17</title>
<g id="a_Node000017"><a xlink:href="../../d5/d99/nlj__as__hash__join_8cpp.html" target="_top" xlink:title=" ">
<polygon fill="white" stroke="#666666" points="1979,-30 1867,-30 1867,0 1979,0 1979,-30"/>
<text text-anchor="start" x="1875" y="-18" font-family="Helvetica,sans-Serif" font-size="10.00">src/optimizer/nlj_as</text>
<text text-anchor="middle" x="1923" y="-7" font-family="Helvetica,sans-Serif" font-size="10.00">_hash_join.cpp</text>
</a>
</g>
</g>
<!-- Node16&#45;&gt;Node17 -->
<g id="edge16_Node000016_Node000017" class="edge">
<title>Node16&#45;&gt;Node17</title>
<g id="a_edge16_Node000016_Node000017"><a xlink:title=" ">
<path fill="none" stroke="#63b8ff" d="M1961.31,-58.26C1952.56,-48.61 1943.07,-38.14 1935.73,-30.04"/>
<polygon fill="#63b8ff" stroke="#63b8ff" points="1958.81,-60.71 1968.12,-65.77 1963.99,-56.01 1958.81,-60.71"/>
</a>
</g>
</g>
<!-- Node18 -->
<g id="Node000018" class="node">
<title>Node18</title>
<g id="a_Node000018"><a xlink:href="../../d0/de1/nlj__as__index__join_8cpp.html" target="_top" xlink:title=" ">
<polygon fill="white" stroke="#666666" points="2109,-30 1997,-30 1997,0 2109,0 2109,-30"/>
<text text-anchor="start" x="2005" y="-18" font-family="Helvetica,sans-Serif" font-size="10.00">src/optimizer/nlj_as</text>
<text text-anchor="middle" x="2053" y="-7" font-family="Helvetica,sans-Serif" font-size="10.00">_index_join.cpp</text>
</a>
</g>
</g>
<!-- Node16&#45;&gt;Node18 -->
<g id="edge17_Node000016_Node000018" class="edge">
<title>Node16&#45;&gt;Node18</title>
<g id="a_edge17_Node000016_Node000018"><a xlink:title=" ">
<path fill="none" stroke="#63b8ff" d="M2011.98,-58.55C2021.37,-48.81 2031.58,-38.22 2039.47,-30.04"/>
<polygon fill="#63b8ff" stroke="#63b8ff" points="2009.44,-56.14 2005.02,-65.77 2014.48,-61 2009.44,-56.14"/>
</a>
</g>
</g>
<!-- Node19&#45;&gt;Node15 -->
<g id="edge20_Node000019_Node000015" class="edge">
<title>Node19&#45;&gt;Node15</title>
<g id="a_edge20_Node000019_Node000015"><a xlink:title=" ">
<path fill="none" stroke="#63b8ff" d="M1803.49,-61.9C1799.23,-51.31 1794.34,-39.18 1790.66,-30.04"/>
<polygon fill="#63b8ff" stroke="#63b8ff" points="1800.35,-63.47 1807.33,-71.44 1806.84,-60.85 1800.35,-63.47"/>
</a>
</g>
</g>
<!-- Node21 -->
<g id="Node000021" class="node">
<title>Node21</title>
<g id="a_Node000021"><a xlink:href="../../d6/da3/plan__func__call_8cpp.html" target="_top" xlink:title=" ">
<polygon fill="white" stroke="#666666" points="2248.5,-30 2127.5,-30 2127.5,0 2248.5,0 2248.5,-30"/>
<text text-anchor="start" x="2135.5" y="-18" font-family="Helvetica,sans-Serif" font-size="10.00">src/planner/plan_func</text>
<text text-anchor="middle" x="2188" y="-7" font-family="Helvetica,sans-Serif" font-size="10.00">_call.cpp</text>
</a>
</g>
</g>
<!-- Node20&#45;&gt;Node21 -->
<g id="edge22_Node000020_Node000021" class="edge">
<title>Node20&#45;&gt;Node21</title>
<g id="a_edge22_Node000020_Node000021"><a xlink:title=" ">
<path fill="none" stroke="#63b8ff" d="M2170.17,-61.9C2174.28,-51.31 2179,-39.18 2182.54,-30.04"/>
<polygon fill="#63b8ff" stroke="#63b8ff" points="2166.82,-60.85 2166.46,-71.44 2173.35,-63.38 2166.82,-60.85"/>
</a>
</g>
</g>
</g>
</svg>
