<?xml version="1.0" encoding="UTF-8" standalone="no"?>
<!DOCTYPE svg PUBLIC "-//W3C//DTD SVG 1.1//EN"
 "http://www.w3.org/Graphics/SVG/1.1/DTD/svg11.dtd">
<!-- Generated by graphviz version 2.43.0 (0)
 -->
<!-- Title: src/catalog/column.cpp Pages: 1 -->
<svg width="742pt" height="247pt"
 viewBox="0.00 0.00 741.78 247.00" xmlns="http://www.w3.org/2000/svg" xmlns:xlink="http://www.w3.org/1999/xlink">
<g id="graph0" class="graph" transform="scale(1 1) rotate(0) translate(4 243)">
<title>src/catalog/column.cpp</title>
<!-- Node1 -->
<g id="Node000001" class="node">
<title>Node1</title>
<g id="a_Node000001"><a xlink:title=" ">
<polygon fill="#999999" stroke="#666666" points="366.76,-239 237.76,-239 237.76,-220 366.76,-220 366.76,-239"/>
<text text-anchor="middle" x="302.26" y="-227" font-family="Helvetica,sans-Serif" font-size="10.00">src/catalog/column.cpp</text>
</a>
</g>
</g>
<!-- Node2 -->
<g id="Node000002" class="node">
<title>Node2</title>
<g id="a_Node000002"><a xlink:href="../../dc/df8/column_8h.html" target="_top" xlink:title=" ">
<polygon fill="white" stroke="#666666" points="352.76,-184 251.76,-184 251.76,-165 352.76,-165 352.76,-184"/>
<text text-anchor="middle" x="302.26" y="-172" font-family="Helvetica,sans-Serif" font-size="10.00">catalog/column.h</text>
</a>
</g>
</g>
<!-- Node1&#45;&gt;Node2 -->
<g id="edge1_Node000001_Node000002" class="edge">
<title>Node1&#45;&gt;Node2</title>
<g id="a_edge1_Node000001_Node000002"><a xlink:title=" ">
<path fill="none" stroke="#63b8ff" d="M302.26,-219.75C302.26,-212.8 302.26,-202.85 302.26,-194.13"/>
<polygon fill="#63b8ff" stroke="#63b8ff" points="305.76,-194.09 302.26,-184.09 298.76,-194.09 305.76,-194.09"/>
</a>
</g>
</g>
<!-- Node5 -->
<g id="Node000005" class="node">
<title>Node5</title>
<g id="a_Node000005"><a xlink:title=" ">
<polygon fill="#e0e0e0" stroke="#999999" points="201.26,-19 157.26,-19 157.26,0 201.26,0 201.26,-19"/>
<text text-anchor="middle" x="179.26" y="-7" font-family="Helvetica,sans-Serif" font-size="10.00">string</text>
</a>
</g>
</g>
<!-- Node1&#45;&gt;Node5 -->
<g id="edge25_Node000001_Node000005" class="edge">
<title>Node1&#45;&gt;Node5</title>
<g id="a_edge25_Node000001_Node000005"><a xlink:title=" ">
<path fill="none" stroke="#63b8ff" d="M237.71,-220.44C159.72,-206.56 34.99,-169.67 3.26,-74 0.6,-65.99 -1.93,-61.66 3.26,-55 20.77,-32.51 101.43,-19.58 147.23,-13.93"/>
<polygon fill="#63b8ff" stroke="#63b8ff" points="147.74,-17.4 157.26,-12.75 146.92,-10.45 147.74,-17.4"/>
</a>
</g>
</g>
<!-- Node19 -->
<g id="Node000019" class="node">
<title>Node19</title>
<g id="a_Node000019"><a xlink:title=" ">
<polygon fill="#e0e0e0" stroke="#999999" points="427.26,-184 371.26,-184 371.26,-165 427.26,-165 427.26,-184"/>
<text text-anchor="middle" x="399.26" y="-172" font-family="Helvetica,sans-Serif" font-size="10.00">sstream</text>
</a>
</g>
</g>
<!-- Node1&#45;&gt;Node19 -->
<g id="edge24_Node000001_Node000019" class="edge">
<title>Node1&#45;&gt;Node19</title>
<g id="a_edge24_Node000001_Node000019"><a xlink:title=" ">
<path fill="none" stroke="#63b8ff" d="M317.84,-219.98C333.03,-211.69 356.36,-198.94 374.16,-189.22"/>
<polygon fill="#63b8ff" stroke="#63b8ff" points="376.29,-192.04 383.39,-184.17 372.94,-185.89 376.29,-192.04"/>
</a>
</g>
</g>
<!-- Node3 -->
<g id="Node000003" class="node">
<title>Node3</title>
<g id="a_Node000003"><a xlink:title=" ">
<polygon fill="#e0e0e0" stroke="#999999" points="666.26,-19 616.26,-19 616.26,0 666.26,0 666.26,-19"/>
<text text-anchor="middle" x="641.26" y="-7" font-family="Helvetica,sans-Serif" font-size="10.00">cstdint</text>
</a>
</g>
</g>
<!-- Node2&#45;&gt;Node3 -->
<g id="edge2_Node000002_Node000003" class="edge">
<title>Node2&#45;&gt;Node3</title>
<g id="a_edge2_Node000002_Node000003"><a xlink:title=" ">
<path fill="none" stroke="#63b8ff" d="M352.99,-166.27C356.13,-165.84 359.24,-165.41 362.26,-165 485.28,-148.29 522.07,-169.98 639.26,-129 683.87,-113.4 707.04,-115.16 730.26,-74 745.11,-47.67 707.04,-29.52 676.14,-19.57"/>
<polygon fill="#63b8ff" stroke="#63b8ff" points="677.02,-16.18 666.44,-16.63 674.99,-22.88 677.02,-16.18"/>
</a>
</g>
</g>
<!-- Node4 -->
<g id="Node000004" class="node">
<title>Node4</title>
<g id="a_Node000004"><a xlink:title=" ">
<polygon fill="#e0e0e0" stroke="#999999" points="78.26,-74 20.26,-74 20.26,-55 78.26,-55 78.26,-74"/>
<text text-anchor="middle" x="49.26" y="-62" font-family="Helvetica,sans-Serif" font-size="10.00">memory</text>
</a>
</g>
</g>
<!-- Node2&#45;&gt;Node4 -->
<g id="edge3_Node000002_Node000004" class="edge">
<title>Node2&#45;&gt;Node4</title>
<g id="a_edge3_Node000002_Node000004"><a xlink:title=" ">
<path fill="none" stroke="#63b8ff" d="M251.64,-165.52C217.08,-158.8 170.92,-147.3 133.26,-129 107.5,-116.48 81.8,-95.5 65.74,-81.1"/>
<polygon fill="#63b8ff" stroke="#63b8ff" points="68.01,-78.43 58.28,-74.25 63.28,-83.59 68.01,-78.43"/>
</a>
</g>
</g>
<!-- Node2&#45;&gt;Node5 -->
<g id="edge4_Node000002_Node000005" class="edge">
<title>Node2&#45;&gt;Node5</title>
<g id="a_edge4_Node000002_Node000005"><a xlink:title=" ">
<path fill="none" stroke="#63b8ff" d="M251.46,-167.15C209.73,-160.8 149.68,-149.04 100.26,-129 57.17,-111.53 33.9,-114.61 11.26,-74 -17.77,-21.94 90.25,-12.22 146.82,-10.64"/>
<polygon fill="#63b8ff" stroke="#63b8ff" points="147.14,-14.13 157.06,-10.42 146.99,-7.13 147.14,-14.13"/>
</a>
</g>
</g>
<!-- Node6 -->
<g id="Node000006" class="node">
<title>Node6</title>
<g id="a_Node000006"><a xlink:title=" ">
<polygon fill="#e0e0e0" stroke="#999999" points="324.76,-129 279.76,-129 279.76,-110 324.76,-110 324.76,-129"/>
<text text-anchor="middle" x="302.26" y="-117" font-family="Helvetica,sans-Serif" font-size="10.00">utility</text>
</a>
</g>
</g>
<!-- Node2&#45;&gt;Node6 -->
<g id="edge5_Node000002_Node000006" class="edge">
<title>Node2&#45;&gt;Node6</title>
<g id="a_edge5_Node000002_Node000006"><a xlink:title=" ">
<path fill="none" stroke="#63b8ff" d="M302.26,-164.75C302.26,-157.8 302.26,-147.85 302.26,-139.13"/>
<polygon fill="#63b8ff" stroke="#63b8ff" points="305.76,-139.09 302.26,-129.09 298.76,-139.09 305.76,-139.09"/>
</a>
</g>
</g>
<!-- Node7 -->
<g id="Node000007" class="node">
<title>Node7</title>
<g id="a_Node000007"><a xlink:title=" ">
<polygon fill="#e0e0e0" stroke="#999999" points="421.76,-129 342.76,-129 342.76,-110 421.76,-110 421.76,-129"/>
<text text-anchor="middle" x="382.26" y="-117" font-family="Helvetica,sans-Serif" font-size="10.00">fmt/format.h</text>
</a>
</g>
</g>
<!-- Node2&#45;&gt;Node7 -->
<g id="edge6_Node000002_Node000007" class="edge">
<title>Node2&#45;&gt;Node7</title>
<g id="a_edge6_Node000002_Node000007"><a xlink:title=" ">
<path fill="none" stroke="#63b8ff" d="M315.11,-164.98C327.4,-156.84 346.17,-144.41 360.74,-134.76"/>
<polygon fill="#63b8ff" stroke="#63b8ff" points="362.77,-137.61 369.17,-129.17 358.9,-131.78 362.77,-137.61"/>
</a>
</g>
</g>
<!-- Node8 -->
<g id="Node000008" class="node">
<title>Node8</title>
<g id="a_Node000008"><a xlink:href="../../dd/d2d/exception_8h.html" target="_top" xlink:title=" ">
<polygon fill="white" stroke="#666666" points="261.76,-129 142.76,-129 142.76,-110 261.76,-110 261.76,-129"/>
<text text-anchor="middle" x="202.26" y="-117" font-family="Helvetica,sans-Serif" font-size="10.00">common/exception.h</text>
</a>
</g>
</g>
<!-- Node2&#45;&gt;Node8 -->
<g id="edge7_Node000002_Node000008" class="edge">
<title>Node2&#45;&gt;Node8</title>
<g id="a_edge7_Node000002_Node000008"><a xlink:title=" ">
<path fill="none" stroke="#63b8ff" d="M286.19,-164.98C270.39,-156.61 246.04,-143.7 227.63,-133.95"/>
<polygon fill="#63b8ff" stroke="#63b8ff" points="229.09,-130.76 218.62,-129.17 225.81,-136.95 229.09,-130.76"/>
</a>
</g>
</g>
<!-- Node14 -->
<g id="Node000014" class="node">
<title>Node14</title>
<g id="a_Node000014"><a xlink:href="../../df/def/type_8h.html" target="_top" xlink:title=" ">
<polygon fill="white" stroke="#666666" points="484.26,-74 412.26,-74 412.26,-55 484.26,-55 484.26,-74"/>
<text text-anchor="middle" x="448.26" y="-62" font-family="Helvetica,sans-Serif" font-size="10.00">type/type.h</text>
</a>
</g>
</g>
<!-- Node2&#45;&gt;Node14 -->
<g id="edge23_Node000002_Node000014" class="edge">
<title>Node2&#45;&gt;Node14</title>
<g id="a_edge23_Node000002_Node000014"><a xlink:title=" ">
<path fill="none" stroke="#63b8ff" d="M352.97,-167.2C379.34,-161.41 410.16,-150.31 430.26,-129 441.67,-116.9 445.93,-98.1 447.48,-84.09"/>
<polygon fill="#63b8ff" stroke="#63b8ff" points="450.97,-84.34 448.22,-74.1 443.99,-83.82 450.97,-84.34"/>
</a>
</g>
</g>
<!-- Node16 -->
<g id="Node000016" class="node">
<title>Node16</title>
<g id="a_Node000016"><a xlink:href="../../de/d3c/macros_8h.html" target="_top" xlink:title=" ">
<polygon fill="white" stroke="#666666" points="629.76,-129 522.76,-129 522.76,-110 629.76,-110 629.76,-129"/>
<text text-anchor="middle" x="576.26" y="-117" font-family="Helvetica,sans-Serif" font-size="10.00">common/macros.h</text>
</a>
</g>
</g>
<!-- Node2&#45;&gt;Node16 -->
<g id="edge19_Node000002_Node000016" class="edge">
<title>Node2&#45;&gt;Node16</title>
<g id="a_edge19_Node000002_Node000016"><a xlink:title=" ">
<path fill="none" stroke="#63b8ff" d="M346.28,-164.98C394.08,-155.74 470.45,-140.97 521.94,-131.01"/>
<polygon fill="#63b8ff" stroke="#63b8ff" points="522.74,-134.42 531.89,-129.08 521.41,-127.54 522.74,-134.42"/>
</a>
</g>
</g>
<!-- Node8&#45;&gt;Node4 -->
<g id="edge12_Node000008_Node000004" class="edge">
<title>Node8&#45;&gt;Node4</title>
<g id="a_edge12_Node000008_Node000004"><a xlink:title=" ">
<path fill="none" stroke="#63b8ff" d="M177.68,-109.98C152.21,-101.16 112.22,-87.31 83.63,-77.41"/>
<polygon fill="#63b8ff" stroke="#63b8ff" points="84.63,-74.05 74.03,-74.08 82.34,-80.66 84.63,-74.05"/>
</a>
</g>
</g>
<!-- Node8&#45;&gt;Node5 -->
<g id="edge14_Node000008_Node000005" class="edge">
<title>Node8&#45;&gt;Node5</title>
<g id="a_edge14_Node000008_Node000005"><a xlink:title=" ">
<path fill="none" stroke="#63b8ff" d="M261.63,-109.96C302.82,-102.68 352.49,-90.73 365.26,-74 370.38,-67.29 370.49,-61.63 365.26,-55 346.47,-31.19 259.78,-18.7 211.67,-13.5"/>
<polygon fill="#63b8ff" stroke="#63b8ff" points="211.76,-9.99 201.46,-12.44 211.04,-16.95 211.76,-9.99"/>
</a>
</g>
</g>
<!-- Node9 -->
<g id="Node000009" class="node">
<title>Node9</title>
<g id="a_Node000009"><a xlink:title=" ">
<polygon fill="#e0e0e0" stroke="#999999" points="146.26,-74 96.26,-74 96.26,-55 146.26,-55 146.26,-74"/>
<text text-anchor="middle" x="121.26" y="-62" font-family="Helvetica,sans-Serif" font-size="10.00">atomic</text>
</a>
</g>
</g>
<!-- Node8&#45;&gt;Node9 -->
<g id="edge8_Node000008_Node000009" class="edge">
<title>Node8&#45;&gt;Node9</title>
<g id="a_edge8_Node000008_Node000009"><a xlink:title=" ">
<path fill="none" stroke="#63b8ff" d="M189.24,-109.98C176.8,-101.84 157.8,-89.41 143.05,-79.76"/>
<polygon fill="#63b8ff" stroke="#63b8ff" points="144.79,-76.72 134.51,-74.17 140.96,-82.57 144.79,-76.72"/>
</a>
</g>
</g>
<!-- Node10 -->
<g id="Node000010" class="node">
<title>Node10</title>
<g id="a_Node000010"><a xlink:title=" ">
<polygon fill="#e0e0e0" stroke="#999999" points="210.26,-74 164.26,-74 164.26,-55 210.26,-55 210.26,-74"/>
<text text-anchor="middle" x="187.26" y="-62" font-family="Helvetica,sans-Serif" font-size="10.00">cstdio</text>
</a>
</g>
</g>
<!-- Node8&#45;&gt;Node10 -->
<g id="edge9_Node000008_Node000010" class="edge">
<title>Node8&#45;&gt;Node10</title>
<g id="a_edge9_Node000008_Node000010"><a xlink:title=" ">
<path fill="none" stroke="#63b8ff" d="M199.78,-109.75C197.79,-102.72 194.94,-92.62 192.45,-83.84"/>
<polygon fill="#63b8ff" stroke="#63b8ff" points="195.78,-82.76 189.69,-74.09 189.05,-84.66 195.78,-82.76"/>
</a>
</g>
</g>
<!-- Node11 -->
<g id="Node000011" class="node">
<title>Node11</title>
<g id="a_Node000011"><a xlink:title=" ">
<polygon fill="#e0e0e0" stroke="#999999" points="277.76,-74 228.76,-74 228.76,-55 277.76,-55 277.76,-74"/>
<text text-anchor="middle" x="253.26" y="-62" font-family="Helvetica,sans-Serif" font-size="10.00">cstdlib</text>
</a>
</g>
</g>
<!-- Node8&#45;&gt;Node11 -->
<g id="edge10_Node000008_Node000011" class="edge">
<title>Node8&#45;&gt;Node11</title>
<g id="a_edge10_Node000008_Node000011"><a xlink:title=" ">
<path fill="none" stroke="#63b8ff" d="M210.68,-109.75C218.03,-102.11 228.89,-90.82 237.8,-81.56"/>
<polygon fill="#63b8ff" stroke="#63b8ff" points="240.58,-83.72 244.99,-74.09 235.54,-78.87 240.58,-83.72"/>
</a>
</g>
</g>
<!-- Node12 -->
<g id="Node000012" class="node">
<title>Node12</title>
<g id="a_Node000012"><a xlink:title=" ">
<polygon fill="#e0e0e0" stroke="#999999" points="356.26,-74 296.26,-74 296.26,-55 356.26,-55 356.26,-74"/>
<text text-anchor="middle" x="326.26" y="-62" font-family="Helvetica,sans-Serif" font-size="10.00">iostream</text>
</a>
</g>
</g>
<!-- Node8&#45;&gt;Node12 -->
<g id="edge11_Node000008_Node000012" class="edge">
<title>Node8&#45;&gt;Node12</title>
<g id="a_edge11_Node000008_Node000012"><a xlink:title=" ">
<path fill="none" stroke="#63b8ff" d="M222.18,-109.98C242.31,-101.38 273.64,-87.99 296.67,-78.15"/>
<polygon fill="#63b8ff" stroke="#63b8ff" points="298.15,-81.32 305.97,-74.17 295.4,-74.88 298.15,-81.32"/>
</a>
</g>
</g>
<!-- Node13 -->
<g id="Node000013" class="node">
<title>Node13</title>
<g id="a_Node000013"><a xlink:title=" ">
<polygon fill="#e0e0e0" stroke="#999999" points="567.76,-74 502.76,-74 502.76,-55 567.76,-55 567.76,-74"/>
<text text-anchor="middle" x="535.26" y="-62" font-family="Helvetica,sans-Serif" font-size="10.00">stdexcept</text>
</a>
</g>
</g>
<!-- Node8&#45;&gt;Node13 -->
<g id="edge13_Node000008_Node000013" class="edge">
<title>Node8&#45;&gt;Node13</title>
<g id="a_edge13_Node000008_Node000013"><a xlink:title=" ">
<path fill="none" stroke="#63b8ff" d="M262.03,-110.21C318.77,-102.16 406.68,-89.17 492.78,-74.01"/>
<polygon fill="#63b8ff" stroke="#63b8ff" points="493.49,-77.44 502.73,-72.24 492.27,-70.54 493.49,-77.44"/>
</a>
</g>
</g>
<!-- Node8&#45;&gt;Node14 -->
<g id="edge15_Node000008_Node000014" class="edge">
<title>Node8&#45;&gt;Node14</title>
<g id="a_edge15_Node000008_Node000014"><a xlink:title=" ">
<path fill="none" stroke="#63b8ff" d="M241.78,-109.98C285.47,-100.57 355.76,-85.43 401.99,-75.47"/>
<polygon fill="#63b8ff" stroke="#63b8ff" points="403,-78.83 412.04,-73.3 401.53,-71.99 403,-78.83"/>
</a>
</g>
</g>
<!-- Node14&#45;&gt;Node3 -->
<g id="edge16_Node000014_Node000003" class="edge">
<title>Node14&#45;&gt;Node3</title>
<g id="a_edge16_Node000014_Node000003"><a xlink:title=" ">
<path fill="none" stroke="#63b8ff" d="M479.27,-54.98C514.04,-45.44 570.29,-29.99 606.52,-20.04"/>
<polygon fill="#63b8ff" stroke="#63b8ff" points="607.45,-23.41 616.17,-17.39 605.6,-16.66 607.45,-23.41"/>
</a>
</g>
</g>
<!-- Node14&#45;&gt;Node5 -->
<g id="edge17_Node000014_Node000005" class="edge">
<title>Node14&#45;&gt;Node5</title>
<g id="a_edge17_Node000014_Node000005"><a xlink:title=" ">
<path fill="none" stroke="#63b8ff" d="M411.98,-56.35C359.1,-45.93 261.66,-26.74 211.29,-16.81"/>
<polygon fill="#63b8ff" stroke="#63b8ff" points="211.78,-13.34 201.29,-14.84 210.42,-20.21 211.78,-13.34"/>
</a>
</g>
</g>
<!-- Node15 -->
<g id="Node000015" class="node">
<title>Node15</title>
<g id="a_Node000015"><a xlink:href="../../dc/df2/type__id_8h.html" target="_top" xlink:title=" ">
<polygon fill="white" stroke="#666666" points="491.26,-19 405.26,-19 405.26,0 491.26,0 491.26,-19"/>
<text text-anchor="middle" x="448.26" y="-7" font-family="Helvetica,sans-Serif" font-size="10.00">type/type_id.h</text>
</a>
</g>
</g>
<!-- Node14&#45;&gt;Node15 -->
<g id="edge18_Node000014_Node000015" class="edge">
<title>Node14&#45;&gt;Node15</title>
<g id="a_edge18_Node000014_Node000015"><a xlink:title=" ">
<path fill="none" stroke="#63b8ff" d="M448.26,-54.75C448.26,-47.8 448.26,-37.85 448.26,-29.13"/>
<polygon fill="#63b8ff" stroke="#63b8ff" points="451.76,-29.09 448.26,-19.09 444.76,-29.09 451.76,-29.09"/>
</a>
</g>
</g>
<!-- Node16&#45;&gt;Node13 -->
<g id="edge22_Node000016_Node000013" class="edge">
<title>Node16&#45;&gt;Node13</title>
<g id="a_edge22_Node000016_Node000013"><a xlink:title=" ">
<path fill="none" stroke="#63b8ff" d="M569.49,-109.75C563.7,-102.26 555.2,-91.28 548.12,-82.13"/>
<polygon fill="#63b8ff" stroke="#63b8ff" points="550.79,-79.86 541.9,-74.09 545.25,-84.14 550.79,-79.86"/>
</a>
</g>
</g>
<!-- Node17 -->
<g id="Node000017" class="node">
<title>Node17</title>
<g id="a_Node000017"><a xlink:title=" ">
<polygon fill="#e0e0e0" stroke="#999999" points="721.26,-74 669.26,-74 669.26,-55 721.26,-55 721.26,-74"/>
<text text-anchor="middle" x="695.26" y="-62" font-family="Helvetica,sans-Serif" font-size="10.00">cassert</text>
</a>
</g>
</g>
<!-- Node16&#45;&gt;Node17 -->
<g id="edge20_Node000016_Node000017" class="edge">
<title>Node16&#45;&gt;Node17</title>
<g id="a_edge20_Node000016_Node000017"><a xlink:title=" ">
<path fill="none" stroke="#63b8ff" d="M595.38,-109.98C614.61,-101.42 644.49,-88.11 666.57,-78.28"/>
<polygon fill="#63b8ff" stroke="#63b8ff" points="668.08,-81.44 675.79,-74.17 665.23,-75.04 668.08,-81.44"/>
</a>
</g>
</g>
<!-- Node18 -->
<g id="Node000018" class="node">
<title>Node18</title>
<g id="a_Node000018"><a xlink:title=" ">
<polygon fill="#e0e0e0" stroke="#999999" points="650.76,-74 585.76,-74 585.76,-55 650.76,-55 650.76,-74"/>
<text text-anchor="middle" x="618.26" y="-62" font-family="Helvetica,sans-Serif" font-size="10.00">exception</text>
</a>
</g>
</g>
<!-- Node16&#45;&gt;Node18 -->
<g id="edge21_Node000016_Node000018" class="edge">
<title>Node16&#45;&gt;Node18</title>
<g id="a_edge21_Node000016_Node000018"><a xlink:title=" ">
<path fill="none" stroke="#63b8ff" d="M583.19,-109.75C589.13,-102.26 597.83,-91.28 605.08,-82.13"/>
<polygon fill="#63b8ff" stroke="#63b8ff" points="607.98,-84.1 611.45,-74.09 602.5,-79.75 607.98,-84.1"/>
</a>
</g>
</g>
</g>
</svg>
