<?xml version="1.0" encoding="UTF-8" standalone="no"?>
<!DOCTYPE svg PUBLIC "-//W3C//DTD SVG 1.1//EN"
 "http://www.w3.org/Graphics/SVG/1.1/DTD/svg11.dtd">
<!-- Generated by graphviz version 2.43.0 (0)
 -->
<!-- Title: src/include/storage/page/tmp_tuple_page.h Pages: 1 -->
<svg width="1695pt" height="368pt"
 viewBox="0.00 0.00 1694.99 368.00" xmlns="http://www.w3.org/2000/svg" xmlns:xlink="http://www.w3.org/1999/xlink">
<g id="graph0" class="graph" transform="scale(1 1) rotate(0) translate(4 364)">
<title>src/include/storage/page/tmp_tuple_page.h</title>
<!-- Node1 -->
<g id="Node000001" class="node">
<title>Node1</title>
<g id="a_Node000001"><a xlink:title=" ">
<polygon fill="#999999" stroke="#666666" points="358,-360 224,-360 224,-330 358,-330 358,-360"/>
<text text-anchor="start" x="232" y="-348" font-family="Helvetica,sans-Serif" font-size="10.00">src/include/storage</text>
<text text-anchor="middle" x="291" y="-337" font-family="Helvetica,sans-Serif" font-size="10.00">/page/tmp_tuple_page.h</text>
</a>
</g>
</g>
<!-- Node2 -->
<g id="Node000002" class="node">
<title>Node2</title>
<g id="a_Node000002"><a xlink:href="../../de/dad/page_8h.html" target="_top" xlink:title=" ">
<polygon fill="white" stroke="#666666" points="249,-239 133,-239 133,-220 249,-220 249,-239"/>
<text text-anchor="middle" x="191" y="-227" font-family="Helvetica,sans-Serif" font-size="10.00">storage/page/page.h</text>
</a>
</g>
</g>
<!-- Node1&#45;&gt;Node2 -->
<g id="edge1_Node000001_Node000002" class="edge">
<title>Node1&#45;&gt;Node2</title>
<g id="a_edge1_Node000001_Node000002"><a xlink:title=" ">
<path fill="none" stroke="#63b8ff" d="M256.93,-329.98C240.62,-321.71 222.07,-309.74 210,-294 200.04,-281.02 195.29,-262.87 193.02,-249.29"/>
<polygon fill="#63b8ff" stroke="#63b8ff" points="196.46,-248.62 191.65,-239.18 189.53,-249.56 196.46,-248.62"/>
</a>
</g>
</g>
<!-- Node15 -->
<g id="Node000015" class="node">
<title>Node15</title>
<g id="a_Node000015"><a xlink:href="../../d7/d32/tmp__tuple_8h.html" target="_top" xlink:title=" ">
<polygon fill="white" stroke="#666666" points="362.5,-294 219.5,-294 219.5,-275 362.5,-275 362.5,-294"/>
<text text-anchor="middle" x="291" y="-282" font-family="Helvetica,sans-Serif" font-size="10.00">storage/table/tmp_tuple.h</text>
</a>
</g>
</g>
<!-- Node1&#45;&gt;Node15 -->
<g id="edge14_Node000001_Node000015" class="edge">
<title>Node1&#45;&gt;Node15</title>
<g id="a_edge14_Node000001_Node000015"><a xlink:title=" ">
<path fill="none" stroke="#63b8ff" d="M291,-329.84C291,-322.21 291,-312.7 291,-304.45"/>
<polygon fill="#63b8ff" stroke="#63b8ff" points="294.5,-304.27 291,-294.27 287.5,-304.27 294.5,-304.27"/>
</a>
</g>
</g>
<!-- Node16 -->
<g id="Node000016" class="node">
<title>Node16</title>
<g id="a_Node000016"><a xlink:href="../../d2/d20/tuple_8h.html" target="_top" xlink:title=" ">
<polygon fill="white" stroke="#666666" points="699,-294 581,-294 581,-275 699,-275 699,-294"/>
<text text-anchor="middle" x="640" y="-282" font-family="Helvetica,sans-Serif" font-size="10.00">storage/table/tuple.h</text>
</a>
</g>
</g>
<!-- Node1&#45;&gt;Node16 -->
<g id="edge16_Node000001_Node000016" class="edge">
<title>Node1&#45;&gt;Node16</title>
<g id="a_edge16_Node000001_Node000016"><a xlink:title=" ">
<path fill="none" stroke="#63b8ff" d="M358.29,-332.72C422.18,-322.01 517.37,-306.06 579.07,-295.71"/>
<polygon fill="#63b8ff" stroke="#63b8ff" points="579.77,-299.14 589.05,-294.04 578.61,-292.24 579.77,-299.14"/>
</a>
</g>
</g>
<!-- Node3 -->
<g id="Node000003" class="node">
<title>Node3</title>
<g id="a_Node000003"><a xlink:title=" ">
<polygon fill="#e0e0e0" stroke="#999999" points="1039,-129 989,-129 989,-110 1039,-110 1039,-129"/>
<text text-anchor="middle" x="1014" y="-117" font-family="Helvetica,sans-Serif" font-size="10.00">cstring</text>
</a>
</g>
</g>
<!-- Node2&#45;&gt;Node3 -->
<g id="edge2_Node000002_Node000003" class="edge">
<title>Node2&#45;&gt;Node3</title>
<g id="a_edge2_Node000002_Node000003"><a xlink:title=" ">
<path fill="none" stroke="#63b8ff" d="M190.71,-219.83C190.78,-205.77 193.19,-178.25 210,-165 217.66,-158.96 824.16,-129.58 978.56,-122.19"/>
<polygon fill="#63b8ff" stroke="#63b8ff" points="979.06,-125.67 988.88,-121.69 978.72,-118.68 979.06,-125.67"/>
</a>
</g>
</g>
<!-- Node4 -->
<g id="Node000004" class="node">
<title>Node4</title>
<g id="a_Node000004"><a xlink:href="../../db/d16/config_8h.html" target="_top" xlink:title=" ">
<polygon fill="white" stroke="#666666" points="320.5,-184 219.5,-184 219.5,-165 320.5,-165 320.5,-184"/>
<text text-anchor="middle" x="270" y="-172" font-family="Helvetica,sans-Serif" font-size="10.00">common/config.h</text>
</a>
</g>
</g>
<!-- Node2&#45;&gt;Node4 -->
<g id="edge3_Node000002_Node000004" class="edge">
<title>Node2&#45;&gt;Node4</title>
<g id="a_edge3_Node000002_Node000004"><a xlink:title=" ">
<path fill="none" stroke="#63b8ff" d="M203.69,-219.98C215.83,-211.84 234.36,-199.41 248.75,-189.76"/>
<polygon fill="#63b8ff" stroke="#63b8ff" points="250.72,-192.65 257.08,-184.17 246.82,-186.84 250.72,-192.65"/>
</a>
</g>
</g>
<!-- Node8 -->
<g id="Node000008" class="node">
<title>Node8</title>
<g id="a_Node000008"><a xlink:href="../../de/db1/rwlatch_8h.html" target="_top" xlink:title=" ">
<polygon fill="white" stroke="#666666" points="162.5,-184 55.5,-184 55.5,-165 162.5,-165 162.5,-184"/>
<text text-anchor="middle" x="109" y="-172" font-family="Helvetica,sans-Serif" font-size="10.00">common/rwlatch.h</text>
</a>
</g>
</g>
<!-- Node2&#45;&gt;Node8 -->
<g id="edge7_Node000002_Node000008" class="edge">
<title>Node2&#45;&gt;Node8</title>
<g id="a_edge7_Node000002_Node000008"><a xlink:title=" ">
<path fill="none" stroke="#63b8ff" d="M177.83,-219.98C165.23,-211.84 146,-199.41 131.06,-189.76"/>
<polygon fill="#63b8ff" stroke="#63b8ff" points="132.71,-186.66 122.41,-184.17 128.91,-192.54 132.71,-186.66"/>
</a>
</g>
</g>
<!-- Node5 -->
<g id="Node000005" class="node">
<title>Node5</title>
<g id="a_Node000005"><a xlink:title=" ">
<polygon fill="#e0e0e0" stroke="#999999" points="640,-74 590,-74 590,-55 640,-55 640,-74"/>
<text text-anchor="middle" x="615" y="-62" font-family="Helvetica,sans-Serif" font-size="10.00">atomic</text>
</a>
</g>
</g>
<!-- Node4&#45;&gt;Node5 -->
<g id="edge4_Node000004_Node000005" class="edge">
<title>Node4&#45;&gt;Node5</title>
<g id="a_edge4_Node000004_Node000005"><a xlink:title=" ">
<path fill="none" stroke="#63b8ff" d="M320.72,-166.78C365.12,-160.02 430.95,-147.87 486,-129 524.53,-115.79 566.34,-93.63 591.61,-79.29"/>
<polygon fill="#63b8ff" stroke="#63b8ff" points="593.51,-82.23 600.44,-74.21 590.02,-76.16 593.51,-82.23"/>
</a>
</g>
</g>
<!-- Node6 -->
<g id="Node000006" class="node">
<title>Node6</title>
<g id="a_Node000006"><a xlink:title=" ">
<polygon fill="#e0e0e0" stroke="#999999" points="220,-129 170,-129 170,-110 220,-110 220,-129"/>
<text text-anchor="middle" x="195" y="-117" font-family="Helvetica,sans-Serif" font-size="10.00">chrono</text>
</a>
</g>
</g>
<!-- Node4&#45;&gt;Node6 -->
<g id="edge5_Node000004_Node000006" class="edge">
<title>Node4&#45;&gt;Node6</title>
<g id="a_edge5_Node000004_Node000006"><a xlink:title=" ">
<path fill="none" stroke="#63b8ff" d="M257.95,-164.98C246.54,-156.92 229.17,-144.65 215.57,-135.03"/>
<polygon fill="#63b8ff" stroke="#63b8ff" points="217.46,-132.08 207.27,-129.17 213.42,-137.8 217.46,-132.08"/>
</a>
</g>
</g>
<!-- Node7 -->
<g id="Node000007" class="node">
<title>Node7</title>
<g id="a_Node000007"><a xlink:title=" ">
<polygon fill="#e0e0e0" stroke="#999999" points="903,-19 853,-19 853,0 903,0 903,-19"/>
<text text-anchor="middle" x="878" y="-7" font-family="Helvetica,sans-Serif" font-size="10.00">cstdint</text>
</a>
</g>
</g>
<!-- Node4&#45;&gt;Node7 -->
<g id="edge6_Node000004_Node000007" class="edge">
<title>Node4&#45;&gt;Node7</title>
<g id="a_edge6_Node000004_Node000007"><a xlink:title=" ">
<path fill="none" stroke="#63b8ff" d="M266.76,-164.91C259.17,-143.2 243.03,-85.66 272,-55 311.3,-13.42 719.13,-10.36 842.71,-10.39"/>
<polygon fill="#63b8ff" stroke="#63b8ff" points="842.77,-13.89 852.77,-10.4 842.77,-6.89 842.77,-13.89"/>
</a>
</g>
</g>
<!-- Node9 -->
<g id="Node000009" class="node">
<title>Node9</title>
<g id="a_Node000009"><a xlink:title=" ">
<polygon fill="#e0e0e0" stroke="#999999" points="48,-129 0,-129 0,-110 48,-110 48,-129"/>
<text text-anchor="middle" x="24" y="-117" font-family="Helvetica,sans-Serif" font-size="10.00">mutex</text>
</a>
</g>
</g>
<!-- Node8&#45;&gt;Node9 -->
<g id="edge8_Node000008_Node000009" class="edge">
<title>Node8&#45;&gt;Node9</title>
<g id="a_edge8_Node000008_Node000009"><a xlink:title=" ">
<path fill="none" stroke="#63b8ff" d="M95.34,-164.98C82.16,-156.77 61.97,-144.18 46.43,-134.49"/>
<polygon fill="#63b8ff" stroke="#63b8ff" points="48.24,-131.49 37.91,-129.17 44.54,-137.43 48.24,-131.49"/>
</a>
</g>
</g>
<!-- Node10 -->
<g id="Node000010" class="node">
<title>Node10</title>
<g id="a_Node000010"><a xlink:title=" ">
<polygon fill="#e0e0e0" stroke="#999999" points="152,-129 66,-129 66,-110 152,-110 152,-129"/>
<text text-anchor="middle" x="109" y="-117" font-family="Helvetica,sans-Serif" font-size="10.00">shared_mutex</text>
</a>
</g>
</g>
<!-- Node8&#45;&gt;Node10 -->
<g id="edge9_Node000008_Node000010" class="edge">
<title>Node8&#45;&gt;Node10</title>
<g id="a_edge9_Node000008_Node000010"><a xlink:title=" ">
<path fill="none" stroke="#63b8ff" d="M109,-164.75C109,-157.8 109,-147.85 109,-139.13"/>
<polygon fill="#63b8ff" stroke="#63b8ff" points="112.5,-139.09 109,-129.09 105.5,-139.09 112.5,-139.09"/>
</a>
</g>
</g>
<!-- Node11 -->
<g id="Node000011" class="node">
<title>Node11</title>
<g id="a_Node000011"><a xlink:href="../../de/d3c/macros_8h.html" target="_top" xlink:title=" ">
<polygon fill="white" stroke="#666666" points="477.5,-129 370.5,-129 370.5,-110 477.5,-110 477.5,-129"/>
<text text-anchor="middle" x="424" y="-117" font-family="Helvetica,sans-Serif" font-size="10.00">common/macros.h</text>
</a>
</g>
</g>
<!-- Node8&#45;&gt;Node11 -->
<g id="edge10_Node000008_Node000011" class="edge">
<title>Node8&#45;&gt;Node11</title>
<g id="a_edge10_Node000008_Node000011"><a xlink:title=" ">
<path fill="none" stroke="#63b8ff" d="M159.61,-164.98C215.1,-155.65 304.09,-140.67 363.29,-130.71"/>
<polygon fill="#63b8ff" stroke="#63b8ff" points="363.97,-134.15 373.25,-129.04 362.81,-127.25 363.97,-134.15"/>
</a>
</g>
</g>
<!-- Node12 -->
<g id="Node000012" class="node">
<title>Node12</title>
<g id="a_Node000012"><a xlink:title=" ">
<polygon fill="#e0e0e0" stroke="#999999" points="450,-74 398,-74 398,-55 450,-55 450,-74"/>
<text text-anchor="middle" x="424" y="-62" font-family="Helvetica,sans-Serif" font-size="10.00">cassert</text>
</a>
</g>
</g>
<!-- Node11&#45;&gt;Node12 -->
<g id="edge11_Node000011_Node000012" class="edge">
<title>Node11&#45;&gt;Node12</title>
<g id="a_edge11_Node000011_Node000012"><a xlink:title=" ">
<path fill="none" stroke="#63b8ff" d="M424,-109.75C424,-102.8 424,-92.85 424,-84.13"/>
<polygon fill="#63b8ff" stroke="#63b8ff" points="427.5,-84.09 424,-74.09 420.5,-84.09 427.5,-84.09"/>
</a>
</g>
</g>
<!-- Node13 -->
<g id="Node000013" class="node">
<title>Node13</title>
<g id="a_Node000013"><a xlink:title=" ">
<polygon fill="#e0e0e0" stroke="#999999" points="379.5,-74 314.5,-74 314.5,-55 379.5,-55 379.5,-74"/>
<text text-anchor="middle" x="347" y="-62" font-family="Helvetica,sans-Serif" font-size="10.00">exception</text>
</a>
</g>
</g>
<!-- Node11&#45;&gt;Node13 -->
<g id="edge12_Node000011_Node000013" class="edge">
<title>Node11&#45;&gt;Node13</title>
<g id="a_edge12_Node000011_Node000013"><a xlink:title=" ">
<path fill="none" stroke="#63b8ff" d="M411.63,-109.98C399.91,-101.92 382.08,-89.65 368.11,-80.03"/>
<polygon fill="#63b8ff" stroke="#63b8ff" points="369.82,-76.96 359.6,-74.17 365.85,-82.72 369.82,-76.96"/>
</a>
</g>
</g>
<!-- Node14 -->
<g id="Node000014" class="node">
<title>Node14</title>
<g id="a_Node000014"><a xlink:title=" ">
<polygon fill="#e0e0e0" stroke="#999999" points="533.5,-74 468.5,-74 468.5,-55 533.5,-55 533.5,-74"/>
<text text-anchor="middle" x="501" y="-62" font-family="Helvetica,sans-Serif" font-size="10.00">stdexcept</text>
</a>
</g>
</g>
<!-- Node11&#45;&gt;Node14 -->
<g id="edge13_Node000011_Node000014" class="edge">
<title>Node11&#45;&gt;Node14</title>
<g id="a_edge13_Node000011_Node000014"><a xlink:title=" ">
<path fill="none" stroke="#63b8ff" d="M436.37,-109.98C448.09,-101.92 465.92,-89.65 479.89,-80.03"/>
<polygon fill="#63b8ff" stroke="#63b8ff" points="482.15,-82.72 488.4,-74.17 478.18,-76.96 482.15,-82.72"/>
</a>
</g>
</g>
<!-- Node15&#45;&gt;Node4 -->
<g id="edge15_Node000015_Node000004" class="edge">
<title>Node15&#45;&gt;Node4</title>
<g id="a_edge15_Node000015_Node000004"><a xlink:title=" ">
<path fill="none" stroke="#63b8ff" d="M289.28,-274.66C285.88,-257.17 278.23,-217.8 273.65,-194.27"/>
<polygon fill="#63b8ff" stroke="#63b8ff" points="277.03,-193.31 271.68,-184.16 270.16,-194.64 277.03,-193.31"/>
</a>
</g>
</g>
<!-- Node16&#45;&gt;Node4 -->
<g id="edge46_Node000016_Node000004" class="edge">
<title>Node16&#45;&gt;Node4</title>
<g id="a_edge46_Node000016_Node000004"><a xlink:title=" ">
<path fill="none" stroke="#63b8ff" d="M580.76,-276.61C532.39,-269.98 462.68,-258.09 404,-239 363.66,-225.88 319.74,-203.34 293.56,-188.95"/>
<polygon fill="#63b8ff" stroke="#63b8ff" points="295.19,-185.85 284.75,-184.04 291.79,-191.97 295.19,-185.85"/>
</a>
</g>
</g>
<!-- Node17 -->
<g id="Node000017" class="node">
<title>Node17</title>
<g id="a_Node000017"><a xlink:title=" ">
<polygon fill="#e0e0e0" stroke="#999999" points="1077,-19 1033,-19 1033,0 1077,0 1077,-19"/>
<text text-anchor="middle" x="1055" y="-7" font-family="Helvetica,sans-Serif" font-size="10.00">string</text>
</a>
</g>
</g>
<!-- Node16&#45;&gt;Node17 -->
<g id="edge17_Node000016_Node000017" class="edge">
<title>Node16&#45;&gt;Node17</title>
<g id="a_edge17_Node000016_Node000017"><a xlink:title=" ">
<path fill="none" stroke="#63b8ff" d="M699.23,-283.65C920.51,-283.43 1686,-275.45 1686,-175.5 1686,-175.5 1686,-175.5 1686,-118.5 1686,-89.04 1689.97,-73.44 1667,-55 1621.59,-18.55 1207.3,-11.9 1087.38,-10.74"/>
<polygon fill="#63b8ff" stroke="#63b8ff" points="1087.38,-7.24 1077.34,-10.65 1087.31,-14.24 1087.38,-7.24"/>
</a>
</g>
</g>
<!-- Node18 -->
<g id="Node000018" class="node">
<title>Node18</title>
<g id="a_Node000018"><a xlink:title=" ">
<polygon fill="#e0e0e0" stroke="#999999" points="663.5,-184 616.5,-184 616.5,-165 663.5,-165 663.5,-184"/>
<text text-anchor="middle" x="640" y="-172" font-family="Helvetica,sans-Serif" font-size="10.00">vector</text>
</a>
</g>
</g>
<!-- Node16&#45;&gt;Node18 -->
<g id="edge18_Node000016_Node000018" class="edge">
<title>Node16&#45;&gt;Node18</title>
<g id="a_edge18_Node000016_Node000018"><a xlink:title=" ">
<path fill="none" stroke="#63b8ff" d="M640,-274.66C640,-257.17 640,-217.8 640,-194.27"/>
<polygon fill="#63b8ff" stroke="#63b8ff" points="643.5,-194.16 640,-184.16 636.5,-194.16 643.5,-194.16"/>
</a>
</g>
</g>
<!-- Node19 -->
<g id="Node000019" class="node">
<title>Node19</title>
<g id="a_Node000019"><a xlink:href="../../d7/de3/schema_8h.html" target="_top" xlink:title=" ">
<polygon fill="white" stroke="#666666" points="856.5,-239 753.5,-239 753.5,-220 856.5,-220 856.5,-239"/>
<text text-anchor="middle" x="805" y="-227" font-family="Helvetica,sans-Serif" font-size="10.00">catalog/schema.h</text>
</a>
</g>
</g>
<!-- Node16&#45;&gt;Node19 -->
<g id="edge19_Node000016_Node000019" class="edge">
<title>Node16&#45;&gt;Node19</title>
<g id="a_edge19_Node000016_Node000019"><a xlink:title=" ">
<path fill="none" stroke="#63b8ff" d="M666.51,-274.98C694.21,-266.09 737.86,-252.07 768.74,-242.15"/>
<polygon fill="#63b8ff" stroke="#63b8ff" points="769.83,-245.47 778.28,-239.08 767.69,-238.81 769.83,-245.47"/>
</a>
</g>
</g>
<!-- Node31 -->
<g id="Node000031" class="node">
<title>Node31</title>
<g id="a_Node000031"><a xlink:href="../../d8/d5f/rid_8h.html" target="_top" xlink:title=" ">
<polygon fill="white" stroke="#666666" points="497,-239 413,-239 413,-220 497,-220 497,-239"/>
<text text-anchor="middle" x="455" y="-227" font-family="Helvetica,sans-Serif" font-size="10.00">common/rid.h</text>
</a>
</g>
</g>
<!-- Node16&#45;&gt;Node31 -->
<g id="edge47_Node000016_Node000031" class="edge">
<title>Node16&#45;&gt;Node31</title>
<g id="a_edge47_Node000016_Node000031"><a xlink:title=" ">
<path fill="none" stroke="#63b8ff" d="M610.28,-274.98C578.95,-266.01 529.43,-251.82 494.76,-241.89"/>
<polygon fill="#63b8ff" stroke="#63b8ff" points="495.53,-238.47 484.96,-239.08 493.61,-245.2 495.53,-238.47"/>
</a>
</g>
</g>
<!-- Node33 -->
<g id="Node000033" class="node">
<title>Node33</title>
<g id="a_Node000033"><a xlink:href="../../d4/d3f/value_8h.html" target="_top" xlink:title=" ">
<polygon fill="white" stroke="#666666" points="1316.5,-184 1239.5,-184 1239.5,-165 1316.5,-165 1316.5,-184"/>
<text text-anchor="middle" x="1278" y="-172" font-family="Helvetica,sans-Serif" font-size="10.00">type/value.h</text>
</a>
</g>
</g>
<!-- Node16&#45;&gt;Node33 -->
<g id="edge52_Node000016_Node000033" class="edge">
<title>Node16&#45;&gt;Node33</title>
<g id="a_edge52_Node000016_Node000033"><a xlink:title=" ">
<path fill="none" stroke="#63b8ff" d="M690.33,-274.98C810.15,-254.7 1111.11,-203.75 1229.28,-183.75"/>
<polygon fill="#63b8ff" stroke="#63b8ff" points="1230.2,-187.14 1239.47,-182.02 1229.03,-180.24 1230.2,-187.14"/>
</a>
</g>
</g>
<!-- Node19&#45;&gt;Node17 -->
<g id="edge22_Node000019_Node000017" class="edge">
<title>Node19&#45;&gt;Node17</title>
<g id="a_edge22_Node000019_Node000017"><a xlink:title=" ">
<path fill="none" stroke="#63b8ff" d="M856.58,-227.1C980.72,-223.31 1288.63,-211.24 1326,-184 1353.83,-163.71 1361.42,-142.12 1349,-110 1337.09,-79.19 1327.88,-71.03 1299,-55 1230.57,-17.02 1136.32,-10.54 1087.4,-9.97"/>
<polygon fill="#63b8ff" stroke="#63b8ff" points="1087.12,-6.47 1077.11,-9.94 1087.1,-13.47 1087.12,-6.47"/>
</a>
</g>
</g>
<!-- Node19&#45;&gt;Node18 -->
<g id="edge23_Node000019_Node000018" class="edge">
<title>Node19&#45;&gt;Node18</title>
<g id="a_edge23_Node000019_Node000018"><a xlink:title=" ">
<path fill="none" stroke="#63b8ff" d="M778.49,-219.98C749.93,-210.81 704.41,-196.19 673.41,-186.23"/>
<polygon fill="#63b8ff" stroke="#63b8ff" points="674.1,-182.78 663.5,-183.05 671.96,-189.44 674.1,-182.78"/>
</a>
</g>
</g>
<!-- Node20 -->
<g id="Node000020" class="node">
<title>Node20</title>
<g id="a_Node000020"><a xlink:title=" ">
<polygon fill="#e0e0e0" stroke="#999999" points="1132,-74 1074,-74 1074,-55 1132,-55 1132,-74"/>
<text text-anchor="middle" x="1103" y="-62" font-family="Helvetica,sans-Serif" font-size="10.00">memory</text>
</a>
</g>
</g>
<!-- Node19&#45;&gt;Node20 -->
<g id="edge20_Node000019_Node000020" class="edge">
<title>Node19&#45;&gt;Node20</title>
<g id="a_edge20_Node000019_Node000020"><a xlink:title=" ">
<path fill="none" stroke="#63b8ff" d="M856.5,-221.35C915.44,-210.71 1011.7,-185.52 1073,-129 1086.01,-117 1093.92,-98.19 1098.32,-84.15"/>
<polygon fill="#63b8ff" stroke="#63b8ff" points="1101.8,-84.71 1101.13,-74.13 1095.06,-82.82 1101.8,-84.71"/>
</a>
</g>
</g>
<!-- Node21 -->
<g id="Node000021" class="node">
<title>Node21</title>
<g id="a_Node000021"><a xlink:title=" ">
<polygon fill="#e0e0e0" stroke="#999999" points="738,-184 682,-184 682,-165 738,-165 738,-184"/>
<text text-anchor="middle" x="710" y="-172" font-family="Helvetica,sans-Serif" font-size="10.00">optional</text>
</a>
</g>
</g>
<!-- Node19&#45;&gt;Node21 -->
<g id="edge21_Node000019_Node000021" class="edge">
<title>Node19&#45;&gt;Node21</title>
<g id="a_edge21_Node000019_Node000021"><a xlink:title=" ">
<path fill="none" stroke="#63b8ff" d="M789.74,-219.98C774.87,-211.69 752.02,-198.94 734.58,-189.22"/>
<polygon fill="#63b8ff" stroke="#63b8ff" points="735.98,-185.99 725.54,-184.17 732.57,-192.1 735.98,-185.99"/>
</a>
</g>
</g>
<!-- Node22 -->
<g id="Node000022" class="node">
<title>Node22</title>
<g id="a_Node000022"><a xlink:href="../../dc/df8/column_8h.html" target="_top" xlink:title=" ">
<polygon fill="white" stroke="#666666" points="895.5,-184 794.5,-184 794.5,-165 895.5,-165 895.5,-184"/>
<text text-anchor="middle" x="845" y="-172" font-family="Helvetica,sans-Serif" font-size="10.00">catalog/column.h</text>
</a>
</g>
</g>
<!-- Node19&#45;&gt;Node22 -->
<g id="edge24_Node000019_Node000022" class="edge">
<title>Node19&#45;&gt;Node22</title>
<g id="a_edge24_Node000019_Node000022"><a xlink:title=" ">
<path fill="none" stroke="#63b8ff" d="M811.61,-219.75C817.26,-212.26 825.54,-201.28 832.45,-192.13"/>
<polygon fill="#63b8ff" stroke="#63b8ff" points="835.29,-194.18 838.52,-184.09 829.7,-189.96 835.29,-194.18"/>
</a>
</g>
</g>
<!-- Node25 -->
<g id="Node000025" class="node">
<title>Node25</title>
<g id="a_Node000025"><a xlink:href="../../dd/d2d/exception_8h.html" target="_top" xlink:title=" ">
<polygon fill="white" stroke="#666666" points="818.5,-129 699.5,-129 699.5,-110 818.5,-110 818.5,-129"/>
<text text-anchor="middle" x="759" y="-117" font-family="Helvetica,sans-Serif" font-size="10.00">common/exception.h</text>
</a>
</g>
</g>
<!-- Node19&#45;&gt;Node25 -->
<g id="edge44_Node000019_Node000025" class="edge">
<title>Node19&#45;&gt;Node25</title>
<g id="a_edge44_Node000019_Node000025"><a xlink:title=" ">
<path fill="none" stroke="#63b8ff" d="M801.35,-219.97C797.53,-211.01 791.33,-196.52 786,-184 779.47,-168.67 772.07,-151.26 766.67,-138.55"/>
<polygon fill="#63b8ff" stroke="#63b8ff" points="769.8,-136.96 762.66,-129.13 763.35,-139.7 769.8,-136.96"/>
</a>
</g>
</g>
<!-- Node29 -->
<g id="Node000029" class="node">
<title>Node29</title>
<g id="a_Node000029"><a xlink:href="../../df/def/type_8h.html" target="_top" xlink:title=" ">
<polygon fill="white" stroke="#666666" points="1016,-74 944,-74 944,-55 1016,-55 1016,-74"/>
<text text-anchor="middle" x="980" y="-62" font-family="Helvetica,sans-Serif" font-size="10.00">type/type.h</text>
</a>
</g>
</g>
<!-- Node19&#45;&gt;Node29 -->
<g id="edge45_Node000019_Node000029" class="edge">
<title>Node19&#45;&gt;Node29</title>
<g id="a_edge45_Node000019_Node000029"><a xlink:title=" ">
<path fill="none" stroke="#63b8ff" d="M836.05,-219.93C857.25,-212.9 885.01,-201.27 905,-184 937.88,-155.59 961.37,-109.18 972.58,-83.69"/>
<polygon fill="#63b8ff" stroke="#63b8ff" points="975.94,-84.73 976.63,-74.16 969.5,-82 975.94,-84.73"/>
</a>
</g>
</g>
<!-- Node22&#45;&gt;Node7 -->
<g id="edge25_Node000022_Node000007" class="edge">
<title>Node22&#45;&gt;Node7</title>
<g id="a_edge25_Node000022_Node000007"><a xlink:title=" ">
<path fill="none" stroke="#63b8ff" d="M846.77,-164.74C851.94,-139.2 867.08,-64.43 874.21,-29.23"/>
<polygon fill="#63b8ff" stroke="#63b8ff" points="877.66,-29.8 876.22,-19.31 870.8,-28.41 877.66,-29.8"/>
</a>
</g>
</g>
<!-- Node22&#45;&gt;Node11 -->
<g id="edge42_Node000022_Node000011" class="edge">
<title>Node22&#45;&gt;Node11</title>
<g id="a_edge42_Node000022_Node000011"><a xlink:title=" ">
<path fill="none" stroke="#63b8ff" d="M794.22,-167.11C717.38,-157.43 571.66,-139.09 487.78,-128.53"/>
<polygon fill="#63b8ff" stroke="#63b8ff" points="487.98,-125.03 477.62,-127.25 487.1,-131.97 487.98,-125.03"/>
</a>
</g>
</g>
<!-- Node22&#45;&gt;Node17 -->
<g id="edge27_Node000022_Node000017" class="edge">
<title>Node22&#45;&gt;Node17</title>
<g id="a_edge27_Node000022_Node000017"><a xlink:title=" ">
<path fill="none" stroke="#63b8ff" d="M863.87,-164.89C904.93,-145.89 1000.63,-99.97 1025,-74 1036.98,-61.23 1044.96,-42.81 1049.66,-29.09"/>
<polygon fill="#63b8ff" stroke="#63b8ff" points="1053.08,-29.88 1052.74,-19.29 1046.4,-27.78 1053.08,-29.88"/>
</a>
</g>
</g>
<!-- Node22&#45;&gt;Node20 -->
<g id="edge26_Node000022_Node000020" class="edge">
<title>Node22&#45;&gt;Node20</title>
<g id="a_edge26_Node000022_Node000020"><a xlink:title=" ">
<path fill="none" stroke="#63b8ff" d="M895.8,-171.23C938.96,-167.32 1001.17,-156.84 1048,-129 1067.13,-117.63 1082.99,-97.25 1092.69,-82.65"/>
<polygon fill="#63b8ff" stroke="#63b8ff" points="1095.75,-84.36 1098.14,-74.04 1089.84,-80.61 1095.75,-84.36"/>
</a>
</g>
</g>
<!-- Node23 -->
<g id="Node000023" class="node">
<title>Node23</title>
<g id="a_Node000023"><a xlink:title=" ">
<polygon fill="#e0e0e0" stroke="#999999" points="1275.5,-129 1230.5,-129 1230.5,-110 1275.5,-110 1275.5,-129"/>
<text text-anchor="middle" x="1253" y="-117" font-family="Helvetica,sans-Serif" font-size="10.00">utility</text>
</a>
</g>
</g>
<!-- Node22&#45;&gt;Node23 -->
<g id="edge28_Node000022_Node000023" class="edge">
<title>Node22&#45;&gt;Node23</title>
<g id="a_edge28_Node000022_Node000023"><a xlink:title=" ">
<path fill="none" stroke="#63b8ff" d="M895.68,-169.95C966.49,-164.45 1099.14,-152.21 1220.57,-129.02"/>
<polygon fill="#63b8ff" stroke="#63b8ff" points="1221.26,-132.46 1230.41,-127.12 1219.92,-125.58 1221.26,-132.46"/>
</a>
</g>
</g>
<!-- Node24 -->
<g id="Node000024" class="node">
<title>Node24</title>
<g id="a_Node000024"><a xlink:title=" ">
<polygon fill="#e0e0e0" stroke="#999999" points="1212.5,-129 1133.5,-129 1133.5,-110 1212.5,-110 1212.5,-129"/>
<text text-anchor="middle" x="1173" y="-117" font-family="Helvetica,sans-Serif" font-size="10.00">fmt/format.h</text>
</a>
</g>
</g>
<!-- Node22&#45;&gt;Node24 -->
<g id="edge29_Node000022_Node000024" class="edge">
<title>Node22&#45;&gt;Node24</title>
<g id="a_edge29_Node000022_Node000024"><a xlink:title=" ">
<path fill="none" stroke="#63b8ff" d="M895.53,-165.33C957.36,-155.34 1061.41,-138.53 1123,-128.58"/>
<polygon fill="#63b8ff" stroke="#63b8ff" points="1123.93,-131.97 1133.25,-126.92 1122.82,-125.06 1123.93,-131.97"/>
</a>
</g>
</g>
<!-- Node22&#45;&gt;Node25 -->
<g id="edge30_Node000022_Node000025" class="edge">
<title>Node22&#45;&gt;Node25</title>
<g id="a_edge30_Node000022_Node000025"><a xlink:title=" ">
<path fill="none" stroke="#63b8ff" d="M831.18,-164.98C817.85,-156.77 797.42,-144.18 781.69,-134.49"/>
<polygon fill="#63b8ff" stroke="#63b8ff" points="783.42,-131.44 773.07,-129.17 779.75,-137.4 783.42,-131.44"/>
</a>
</g>
</g>
<!-- Node22&#45;&gt;Node29 -->
<g id="edge43_Node000022_Node000029" class="edge">
<title>Node22&#45;&gt;Node29</title>
<g id="a_edge43_Node000022_Node000029"><a xlink:title=" ">
<path fill="none" stroke="#63b8ff" d="M852.74,-164.66C864.25,-151.79 886.93,-127.51 909,-110 923.45,-98.54 940.99,-87.52 955.03,-79.31"/>
<polygon fill="#63b8ff" stroke="#63b8ff" points="957.17,-82.12 964.1,-74.11 953.68,-76.05 957.17,-82.12"/>
</a>
</g>
</g>
<!-- Node25&#45;&gt;Node5 -->
<g id="edge31_Node000025_Node000005" class="edge">
<title>Node25&#45;&gt;Node5</title>
<g id="a_edge31_Node000025_Node000005"><a xlink:title=" ">
<path fill="none" stroke="#63b8ff" d="M735.86,-109.98C712.18,-101.27 675.13,-87.63 648.29,-77.75"/>
<polygon fill="#63b8ff" stroke="#63b8ff" points="649.15,-74.34 638.56,-74.17 646.73,-80.91 649.15,-74.34"/>
</a>
</g>
</g>
<!-- Node25&#45;&gt;Node14 -->
<g id="edge36_Node000025_Node000014" class="edge">
<title>Node25&#45;&gt;Node14</title>
<g id="a_edge36_Node000025_Node000014"><a xlink:title=" ">
<path fill="none" stroke="#63b8ff" d="M717.55,-109.98C669.81,-100.18 591.78,-84.15 543.57,-74.24"/>
<polygon fill="#63b8ff" stroke="#63b8ff" points="544.26,-70.81 533.76,-72.23 542.85,-77.67 544.26,-70.81"/>
</a>
</g>
</g>
<!-- Node25&#45;&gt;Node17 -->
<g id="edge37_Node000025_Node000017" class="edge">
<title>Node25&#45;&gt;Node17</title>
<g id="a_edge37_Node000025_Node000017"><a xlink:title=" ">
<path fill="none" stroke="#63b8ff" d="M782.47,-109.94C835.21,-90.69 963.14,-44.02 1023.05,-22.16"/>
<polygon fill="#63b8ff" stroke="#63b8ff" points="1024.55,-25.34 1032.74,-18.62 1022.15,-18.76 1024.55,-25.34"/>
</a>
</g>
</g>
<!-- Node25&#45;&gt;Node20 -->
<g id="edge35_Node000025_Node000020" class="edge">
<title>Node25&#45;&gt;Node20</title>
<g id="a_edge35_Node000025_Node000020"><a xlink:title=" ">
<path fill="none" stroke="#63b8ff" d="M814.27,-109.98C884.11,-99.22 1002.57,-80.97 1063.78,-71.54"/>
<polygon fill="#63b8ff" stroke="#63b8ff" points="1064.46,-74.98 1073.81,-70 1063.39,-68.06 1064.46,-74.98"/>
</a>
</g>
</g>
<!-- Node26 -->
<g id="Node000026" class="node">
<title>Node26</title>
<g id="a_Node000026"><a xlink:title=" ">
<polygon fill="#e0e0e0" stroke="#999999" points="782,-74 736,-74 736,-55 782,-55 782,-74"/>
<text text-anchor="middle" x="759" y="-62" font-family="Helvetica,sans-Serif" font-size="10.00">cstdio</text>
</a>
</g>
</g>
<!-- Node25&#45;&gt;Node26 -->
<g id="edge32_Node000025_Node000026" class="edge">
<title>Node25&#45;&gt;Node26</title>
<g id="a_edge32_Node000025_Node000026"><a xlink:title=" ">
<path fill="none" stroke="#63b8ff" d="M759,-109.75C759,-102.8 759,-92.85 759,-84.13"/>
<polygon fill="#63b8ff" stroke="#63b8ff" points="762.5,-84.09 759,-74.09 755.5,-84.09 762.5,-84.09"/>
</a>
</g>
</g>
<!-- Node27 -->
<g id="Node000027" class="node">
<title>Node27</title>
<g id="a_Node000027"><a xlink:title=" ">
<polygon fill="#e0e0e0" stroke="#999999" points="849.5,-74 800.5,-74 800.5,-55 849.5,-55 849.5,-74"/>
<text text-anchor="middle" x="825" y="-62" font-family="Helvetica,sans-Serif" font-size="10.00">cstdlib</text>
</a>
</g>
</g>
<!-- Node25&#45;&gt;Node27 -->
<g id="edge33_Node000025_Node000027" class="edge">
<title>Node25&#45;&gt;Node27</title>
<g id="a_edge33_Node000025_Node000027"><a xlink:title=" ">
<path fill="none" stroke="#63b8ff" d="M769.6,-109.98C779.46,-102.07 794.35,-90.11 806.22,-80.58"/>
<polygon fill="#63b8ff" stroke="#63b8ff" points="808.6,-83.16 814.2,-74.17 804.21,-77.7 808.6,-83.16"/>
</a>
</g>
</g>
<!-- Node28 -->
<g id="Node000028" class="node">
<title>Node28</title>
<g id="a_Node000028"><a xlink:title=" ">
<polygon fill="#e0e0e0" stroke="#999999" points="718,-74 658,-74 658,-55 718,-55 718,-74"/>
<text text-anchor="middle" x="688" y="-62" font-family="Helvetica,sans-Serif" font-size="10.00">iostream</text>
</a>
</g>
</g>
<!-- Node25&#45;&gt;Node28 -->
<g id="edge34_Node000025_Node000028" class="edge">
<title>Node25&#45;&gt;Node28</title>
<g id="a_edge34_Node000025_Node000028"><a xlink:title=" ">
<path fill="none" stroke="#63b8ff" d="M747.59,-109.98C736.89,-102 720.66,-89.88 707.84,-80.31"/>
<polygon fill="#63b8ff" stroke="#63b8ff" points="709.72,-77.35 699.61,-74.17 705.53,-82.96 709.72,-77.35"/>
</a>
</g>
</g>
<!-- Node25&#45;&gt;Node29 -->
<g id="edge38_Node000025_Node000029" class="edge">
<title>Node25&#45;&gt;Node29</title>
<g id="a_edge38_Node000025_Node000029"><a xlink:title=" ">
<path fill="none" stroke="#63b8ff" d="M794.51,-109.98C832.49,-100.87 892.87,-86.4 934.36,-76.45"/>
<polygon fill="#63b8ff" stroke="#63b8ff" points="935.31,-79.82 944.21,-74.08 933.67,-73.01 935.31,-79.82"/>
</a>
</g>
</g>
<!-- Node29&#45;&gt;Node7 -->
<g id="edge39_Node000029_Node000007" class="edge">
<title>Node29&#45;&gt;Node7</title>
<g id="a_edge39_Node000029_Node000007"><a xlink:title=" ">
<path fill="none" stroke="#63b8ff" d="M963.61,-54.98C947.43,-46.57 922.43,-33.59 903.62,-23.81"/>
<polygon fill="#63b8ff" stroke="#63b8ff" points="905.17,-20.68 894.69,-19.17 901.95,-26.89 905.17,-20.68"/>
</a>
</g>
</g>
<!-- Node29&#45;&gt;Node17 -->
<g id="edge40_Node000029_Node000017" class="edge">
<title>Node29&#45;&gt;Node17</title>
<g id="a_edge40_Node000029_Node000017"><a xlink:title=" ">
<path fill="none" stroke="#63b8ff" d="M992.05,-54.98C1003.46,-46.92 1020.83,-34.65 1034.43,-25.03"/>
<polygon fill="#63b8ff" stroke="#63b8ff" points="1036.58,-27.8 1042.73,-19.17 1032.54,-22.08 1036.58,-27.8"/>
</a>
</g>
</g>
<!-- Node30 -->
<g id="Node000030" class="node">
<title>Node30</title>
<g id="a_Node000030"><a xlink:href="../../dc/df2/type__id_8h.html" target="_top" xlink:title=" ">
<polygon fill="white" stroke="#666666" points="1015,-19 929,-19 929,0 1015,0 1015,-19"/>
<text text-anchor="middle" x="972" y="-7" font-family="Helvetica,sans-Serif" font-size="10.00">type/type_id.h</text>
</a>
</g>
</g>
<!-- Node29&#45;&gt;Node30 -->
<g id="edge41_Node000029_Node000030" class="edge">
<title>Node29&#45;&gt;Node30</title>
<g id="a_edge41_Node000029_Node000030"><a xlink:title=" ">
<path fill="none" stroke="#63b8ff" d="M978.68,-54.75C977.63,-47.8 976.13,-37.85 974.81,-29.13"/>
<polygon fill="#63b8ff" stroke="#63b8ff" points="978.25,-28.45 973.3,-19.09 971.33,-29.5 978.25,-28.45"/>
</a>
</g>
</g>
<!-- Node31&#45;&gt;Node4 -->
<g id="edge51_Node000031_Node000004" class="edge">
<title>Node31&#45;&gt;Node4</title>
<g id="a_edge51_Node000031_Node000004"><a xlink:title=" ">
<path fill="none" stroke="#63b8ff" d="M425.28,-219.98C393.95,-211.01 344.43,-196.82 309.76,-186.89"/>
<polygon fill="#63b8ff" stroke="#63b8ff" points="310.53,-183.47 299.96,-184.08 308.61,-190.2 310.53,-183.47"/>
</a>
</g>
</g>
<!-- Node31&#45;&gt;Node7 -->
<g id="edge48_Node000031_Node000007" class="edge">
<title>Node31&#45;&gt;Node7</title>
<g id="a_edge48_Node000031_Node000007"><a xlink:title=" ">
<path fill="none" stroke="#63b8ff" d="M437.07,-219.84C386.18,-194.18 248.07,-116.52 305,-55 341.55,-15.5 723.44,-10.97 842.65,-10.52"/>
<polygon fill="#63b8ff" stroke="#63b8ff" points="842.72,-14.02 852.71,-10.49 842.7,-7.02 842.72,-14.02"/>
</a>
</g>
</g>
<!-- Node31&#45;&gt;Node17 -->
<g id="edge50_Node000031_Node000017" class="edge">
<title>Node31&#45;&gt;Node17</title>
<g id="a_edge50_Node000031_Node000017"><a xlink:title=" ">
<path fill="none" stroke="#63b8ff" d="M462.61,-219.82C470.26,-210.99 482.29,-196.81 492,-184 534.09,-128.5 520.69,-89.85 581,-55 663.93,-7.08 911.13,-34.36 1022.72,-18.72"/>
<polygon fill="#63b8ff" stroke="#63b8ff" points="1023.43,-22.15 1032.76,-17.13 1022.34,-15.24 1023.43,-22.15"/>
</a>
</g>
</g>
<!-- Node32 -->
<g id="Node000032" class="node">
<title>Node32</title>
<g id="a_Node000032"><a xlink:title=" ">
<polygon fill="#e0e0e0" stroke="#999999" points="483,-184 427,-184 427,-165 483,-165 483,-184"/>
<text text-anchor="middle" x="455" y="-172" font-family="Helvetica,sans-Serif" font-size="10.00">sstream</text>
</a>
</g>
</g>
<!-- Node31&#45;&gt;Node32 -->
<g id="edge49_Node000031_Node000032" class="edge">
<title>Node31&#45;&gt;Node32</title>
<g id="a_edge49_Node000031_Node000032"><a xlink:title=" ">
<path fill="none" stroke="#63b8ff" d="M455,-219.75C455,-212.8 455,-202.85 455,-194.13"/>
<polygon fill="#63b8ff" stroke="#63b8ff" points="458.5,-194.09 455,-184.09 451.5,-194.09 458.5,-194.09"/>
</a>
</g>
</g>
<!-- Node33&#45;&gt;Node3 -->
<g id="edge53_Node000033_Node000003" class="edge">
<title>Node33&#45;&gt;Node3</title>
<g id="a_edge53_Node000033_Node000003"><a xlink:title=" ">
<path fill="none" stroke="#63b8ff" d="M1239.33,-165.74C1188.12,-155.46 1098.54,-137.47 1049.16,-127.56"/>
<polygon fill="#63b8ff" stroke="#63b8ff" points="1049.75,-124.11 1039.26,-125.57 1048.37,-130.97 1049.75,-124.11"/>
</a>
</g>
</g>
<!-- Node33&#45;&gt;Node17 -->
<g id="edge55_Node000033_Node000017" class="edge">
<title>Node33&#45;&gt;Node17</title>
<g id="a_edge55_Node000033_Node000017"><a xlink:title=" ">
<path fill="none" stroke="#63b8ff" d="M1295.36,-164.97C1316.85,-153.23 1348.91,-131.14 1334,-110 1276.97,-29.12 1148.02,-13.61 1087.5,-10.9"/>
<polygon fill="#63b8ff" stroke="#63b8ff" points="1087.49,-7.39 1077.38,-10.54 1087.24,-14.39 1087.49,-7.39"/>
</a>
</g>
</g>
<!-- Node33&#45;&gt;Node20 -->
<g id="edge54_Node000033_Node000020" class="edge">
<title>Node33&#45;&gt;Node20</title>
<g id="a_edge54_Node000033_Node000020"><a xlink:title=" ">
<path fill="none" stroke="#63b8ff" d="M1290.4,-164.84C1307.02,-152.19 1332.81,-128.19 1318,-110 1296.29,-83.34 1198.44,-72.16 1142.52,-67.88"/>
<polygon fill="#63b8ff" stroke="#63b8ff" points="1142.49,-64.37 1132.26,-67.13 1141.98,-71.35 1142.49,-64.37"/>
</a>
</g>
</g>
<!-- Node33&#45;&gt;Node23 -->
<g id="edge56_Node000033_Node000023" class="edge">
<title>Node33&#45;&gt;Node23</title>
<g id="a_edge56_Node000033_Node000023"><a xlink:title=" ">
<path fill="none" stroke="#63b8ff" d="M1273.87,-164.75C1270.49,-157.57 1265.58,-147.18 1261.38,-138.27"/>
<polygon fill="#63b8ff" stroke="#63b8ff" points="1264.48,-136.64 1257.05,-129.09 1258.15,-139.63 1264.48,-136.64"/>
</a>
</g>
</g>
<!-- Node33&#45;&gt;Node24 -->
<g id="edge57_Node000033_Node000024" class="edge">
<title>Node33&#45;&gt;Node24</title>
<g id="a_edge57_Node000033_Node000024"><a xlink:title=" ">
<path fill="none" stroke="#63b8ff" d="M1261.13,-164.98C1244.39,-156.54 1218.5,-143.47 1199.11,-133.68"/>
<polygon fill="#63b8ff" stroke="#63b8ff" points="1200.68,-130.55 1190.18,-129.17 1197.53,-136.8 1200.68,-130.55"/>
</a>
</g>
</g>
<!-- Node33&#45;&gt;Node29 -->
<g id="edge63_Node000033_Node000029" class="edge">
<title>Node33&#45;&gt;Node29</title>
<g id="a_edge63_Node000033_Node000029"><a xlink:title=" ">
<path fill="none" stroke="#63b8ff" d="M1282.52,-164.92C1288.89,-151.49 1298.35,-125.44 1285,-110 1276.6,-100.29 1109.25,-80.11 1026.09,-70.63"/>
<polygon fill="#63b8ff" stroke="#63b8ff" points="1026.47,-67.15 1016.14,-69.5 1025.68,-74.11 1026.47,-67.15"/>
</a>
</g>
</g>
<!-- Node34 -->
<g id="Node000034" class="node">
<title>Node34</title>
<g id="a_Node000034"><a xlink:href="../../d9/d86/limits_8h.html" target="_top" xlink:title=" ">
<polygon fill="white" stroke="#666666" points="1545,-129 1467,-129 1467,-110 1545,-110 1545,-129"/>
<text text-anchor="middle" x="1506" y="-117" font-family="Helvetica,sans-Serif" font-size="10.00">type/limits.h</text>
</a>
</g>
</g>
<!-- Node33&#45;&gt;Node34 -->
<g id="edge58_Node000033_Node000034" class="edge">
<title>Node33&#45;&gt;Node34</title>
<g id="a_edge58_Node000033_Node000034"><a xlink:title=" ">
<path fill="none" stroke="#63b8ff" d="M1314.63,-164.98C1353.91,-155.86 1416.37,-141.33 1459.19,-131.38"/>
<polygon fill="#63b8ff" stroke="#63b8ff" points="1460.13,-134.76 1469.08,-129.08 1458.55,-127.94 1460.13,-134.76"/>
</a>
</g>
</g>
<!-- Node34&#45;&gt;Node7 -->
<g id="edge61_Node000034_Node000007" class="edge">
<title>Node34&#45;&gt;Node7</title>
<g id="a_edge61_Node000034_Node000007"><a xlink:title=" ">
<path fill="none" stroke="#63b8ff" d="M1466.86,-111.55C1400.07,-99.72 1259.77,-75 1141,-55 1042.87,-38.47 1017.9,-36.87 920,-19 917.8,-18.6 915.54,-18.17 913.26,-17.74"/>
<polygon fill="#63b8ff" stroke="#63b8ff" points="913.78,-14.27 903.29,-15.78 912.43,-21.14 913.78,-14.27"/>
</a>
</g>
</g>
<!-- Node35 -->
<g id="Node000035" class="node">
<title>Node35</title>
<g id="a_Node000035"><a xlink:title=" ">
<polygon fill="#e0e0e0" stroke="#999999" points="1528,-74 1484,-74 1484,-55 1528,-55 1528,-74"/>
<text text-anchor="middle" x="1506" y="-62" font-family="Helvetica,sans-Serif" font-size="10.00">cfloat</text>
</a>
</g>
</g>
<!-- Node34&#45;&gt;Node35 -->
<g id="edge59_Node000034_Node000035" class="edge">
<title>Node34&#45;&gt;Node35</title>
<g id="a_edge59_Node000034_Node000035"><a xlink:title=" ">
<path fill="none" stroke="#63b8ff" d="M1506,-109.75C1506,-102.8 1506,-92.85 1506,-84.13"/>
<polygon fill="#63b8ff" stroke="#63b8ff" points="1509.5,-84.09 1506,-74.09 1502.5,-84.09 1509.5,-84.09"/>
</a>
</g>
</g>
<!-- Node36 -->
<g id="Node000036" class="node">
<title>Node36</title>
<g id="a_Node000036"><a xlink:title=" ">
<polygon fill="#e0e0e0" stroke="#999999" points="1596,-74 1546,-74 1546,-55 1596,-55 1596,-74"/>
<text text-anchor="middle" x="1571" y="-62" font-family="Helvetica,sans-Serif" font-size="10.00">climits</text>
</a>
</g>
</g>
<!-- Node34&#45;&gt;Node36 -->
<g id="edge60_Node000034_Node000036" class="edge">
<title>Node34&#45;&gt;Node36</title>
<g id="a_edge60_Node000034_Node000036"><a xlink:title=" ">
<path fill="none" stroke="#63b8ff" d="M1516.44,-109.98C1526.15,-102.07 1540.82,-90.11 1552.5,-80.58"/>
<polygon fill="#63b8ff" stroke="#63b8ff" points="1554.83,-83.2 1560.37,-74.17 1550.4,-77.78 1554.83,-83.2"/>
</a>
</g>
</g>
<!-- Node37 -->
<g id="Node000037" class="node">
<title>Node37</title>
<g id="a_Node000037"><a xlink:title=" ">
<polygon fill="#e0e0e0" stroke="#999999" points="1658,-74 1614,-74 1614,-55 1658,-55 1658,-74"/>
<text text-anchor="middle" x="1636" y="-62" font-family="Helvetica,sans-Serif" font-size="10.00">limits</text>
</a>
</g>
</g>
<!-- Node34&#45;&gt;Node37 -->
<g id="edge62_Node000034_Node000037" class="edge">
<title>Node34&#45;&gt;Node37</title>
<g id="a_edge62_Node000034_Node000037"><a xlink:title=" ">
<path fill="none" stroke="#63b8ff" d="M1526.89,-109.98C1548.08,-101.34 1581.13,-87.87 1605.3,-78.02"/>
<polygon fill="#63b8ff" stroke="#63b8ff" points="1606.79,-81.19 1614.73,-74.17 1604.15,-74.7 1606.79,-81.19"/>
</a>
</g>
</g>
</g>
</svg>
