<?xml version="1.0" encoding="UTF-8" standalone="no"?>
<!DOCTYPE svg PUBLIC "-//W3C//DTD SVG 1.1//EN"
 "http://www.w3.org/Graphics/SVG/1.1/DTD/svg11.dtd">
<!-- Generated by graphviz version 2.43.0 (0)
 -->
<!-- Title: src/include/type/integer_parent_type.h Pages: 1 -->
<svg width="809pt" height="159pt"
 viewBox="0.00 0.00 809.00 159.00" xmlns="http://www.w3.org/2000/svg" xmlns:xlink="http://www.w3.org/1999/xlink">
<g id="graph0" class="graph" transform="scale(1 1) rotate(0) translate(4 155)">
<title>src/include/type/integer_parent_type.h</title>
<!-- Node1 -->
<g id="Node000001" class="node">
<title>Node1</title>
<g id="a_Node000001"><a xlink:title=" ">
<polygon fill="#999999" stroke="#666666" points="503.5,-151 372.5,-151 372.5,-121 503.5,-121 503.5,-151"/>
<text text-anchor="start" x="380.5" y="-139" font-family="Helvetica,sans-Serif" font-size="10.00">src/include/type/integer</text>
<text text-anchor="middle" x="438" y="-128" font-family="Helvetica,sans-Serif" font-size="10.00">_parent_type.h</text>
</a>
</g>
</g>
<!-- Node2 -->
<g id="Node000002" class="node">
<title>Node2</title>
<g id="a_Node000002"><a xlink:href="../../df/d73/bigint__type_8h.html" target="_top" xlink:title=" ">
<polygon fill="white" stroke="#666666" points="202.5,-85 77.5,-85 77.5,-55 202.5,-55 202.5,-85"/>
<text text-anchor="start" x="85.5" y="-73" font-family="Helvetica,sans-Serif" font-size="10.00">src/include/type/bigint</text>
<text text-anchor="middle" x="140" y="-62" font-family="Helvetica,sans-Serif" font-size="10.00">_type.h</text>
</a>
</g>
</g>
<!-- Node1&#45;&gt;Node2 -->
<g id="edge1_Node000001_Node000002" class="edge">
<title>Node1&#45;&gt;Node2</title>
<g id="a_edge1_Node000001_Node000002"><a xlink:title=" ">
<path fill="none" stroke="#63b8ff" d="M362.6,-118.81C313.18,-108.19 249.33,-94.48 202.69,-84.46"/>
<polygon fill="#63b8ff" stroke="#63b8ff" points="362.09,-122.28 372.6,-120.95 363.56,-115.43 362.09,-122.28"/>
</a>
</g>
</g>
<!-- Node5 -->
<g id="Node000005" class="node">
<title>Node5</title>
<g id="a_Node000005"><a xlink:href="../../d0/dc6/integer__type_8h.html" target="_top" xlink:title=" ">
<polygon fill="white" stroke="#666666" points="351.5,-85 220.5,-85 220.5,-55 351.5,-55 351.5,-85"/>
<text text-anchor="start" x="228.5" y="-73" font-family="Helvetica,sans-Serif" font-size="10.00">src/include/type/integer</text>
<text text-anchor="middle" x="286" y="-62" font-family="Helvetica,sans-Serif" font-size="10.00">_type.h</text>
</a>
</g>
</g>
<!-- Node1&#45;&gt;Node5 -->
<g id="edge4_Node000001_Node000005" class="edge">
<title>Node1&#45;&gt;Node5</title>
<g id="a_edge4_Node000001_Node000005"><a xlink:title=" ">
<path fill="none" stroke="#63b8ff" d="M395.38,-117.05C371.3,-106.91 341.64,-94.43 319.28,-85.01"/>
<polygon fill="#63b8ff" stroke="#63b8ff" points="394.07,-120.3 404.64,-120.95 396.78,-113.85 394.07,-120.3"/>
</a>
</g>
</g>
<!-- Node7 -->
<g id="Node000007" class="node">
<title>Node7</title>
<g id="a_Node000007"><a xlink:href="../../d4/d69/smallint__type_8h.html" target="_top" xlink:title=" ">
<polygon fill="white" stroke="#666666" points="506.5,-85 369.5,-85 369.5,-55 506.5,-55 506.5,-85"/>
<text text-anchor="start" x="377.5" y="-73" font-family="Helvetica,sans-Serif" font-size="10.00">src/include/type/smallint</text>
<text text-anchor="middle" x="438" y="-62" font-family="Helvetica,sans-Serif" font-size="10.00">_type.h</text>
</a>
</g>
</g>
<!-- Node1&#45;&gt;Node7 -->
<g id="edge7_Node000001_Node000007" class="edge">
<title>Node1&#45;&gt;Node7</title>
<g id="a_edge7_Node000001_Node000007"><a xlink:title=" ">
<path fill="none" stroke="#63b8ff" d="M438,-110.54C438,-101.96 438,-92.61 438,-85.16"/>
<polygon fill="#63b8ff" stroke="#63b8ff" points="434.5,-110.8 438,-120.8 441.5,-110.8 434.5,-110.8"/>
</a>
</g>
</g>
<!-- Node9 -->
<g id="Node000009" class="node">
<title>Node9</title>
<g id="a_Node000009"><a xlink:href="../../d9/d43/tinyint__type_8h.html" target="_top" xlink:title=" ">
<polygon fill="white" stroke="#666666" points="653,-85 525,-85 525,-55 653,-55 653,-85"/>
<text text-anchor="start" x="533" y="-73" font-family="Helvetica,sans-Serif" font-size="10.00">src/include/type/tinyint</text>
<text text-anchor="middle" x="589" y="-62" font-family="Helvetica,sans-Serif" font-size="10.00">_type.h</text>
</a>
</g>
</g>
<!-- Node1&#45;&gt;Node9 -->
<g id="edge10_Node000001_Node000009" class="edge">
<title>Node1&#45;&gt;Node9</title>
<g id="a_edge10_Node000001_Node000009"><a xlink:title=" ">
<path fill="none" stroke="#63b8ff" d="M480.66,-116.92C504.53,-106.8 533.83,-94.38 555.94,-85.01"/>
<polygon fill="#63b8ff" stroke="#63b8ff" points="478.98,-113.83 471.14,-120.95 481.71,-120.28 478.98,-113.83"/>
</a>
</g>
</g>
<!-- Node11 -->
<g id="Node000011" class="node">
<title>Node11</title>
<g id="a_Node000011"><a xlink:href="../../d6/d20/integer__parent__type_8cpp.html" target="_top" xlink:title=" ">
<polygon fill="white" stroke="#666666" points="801,-85 671,-85 671,-55 801,-55 801,-85"/>
<text text-anchor="start" x="679" y="-73" font-family="Helvetica,sans-Serif" font-size="10.00">src/type/integer_parent</text>
<text text-anchor="middle" x="736" y="-62" font-family="Helvetica,sans-Serif" font-size="10.00">_type.cpp</text>
</a>
</g>
</g>
<!-- Node1&#45;&gt;Node11 -->
<g id="edge13_Node000001_Node000011" class="edge">
<title>Node1&#45;&gt;Node11</title>
<g id="a_edge13_Node000001_Node000011"><a xlink:title=" ">
<path fill="none" stroke="#63b8ff" d="M513.22,-118.84C561.78,-108.42 624.31,-94.99 670.76,-85.01"/>
<polygon fill="#63b8ff" stroke="#63b8ff" points="512.44,-115.43 503.4,-120.95 513.91,-122.28 512.44,-115.43"/>
</a>
</g>
</g>
<!-- Node3 -->
<g id="Node000003" class="node">
<title>Node3</title>
<g id="a_Node000003"><a xlink:href="../../df/d34/bigint__type_8cpp.html" target="_top" xlink:title=" ">
<polygon fill="white" stroke="#666666" points="134,-19 0,-19 0,0 134,0 134,-19"/>
<text text-anchor="middle" x="67" y="-7" font-family="Helvetica,sans-Serif" font-size="10.00">src/type/bigint_type.cpp</text>
</a>
</g>
</g>
<!-- Node2&#45;&gt;Node3 -->
<g id="edge2_Node000002_Node000003" class="edge">
<title>Node2&#45;&gt;Node3</title>
<g id="a_edge2_Node000002_Node000003"><a xlink:title=" ">
<path fill="none" stroke="#63b8ff" d="M114.46,-48.53C101.96,-38.51 87.57,-26.98 77.94,-19.27"/>
<polygon fill="#63b8ff" stroke="#63b8ff" points="112.34,-51.32 122.33,-54.84 116.71,-45.85 112.34,-51.32"/>
</a>
</g>
</g>
<!-- Node4 -->
<g id="Node000004" class="node">
<title>Node4</title>
<g id="a_Node000004"><a xlink:href="../../d9/d88/type_8cpp.html" target="_top" xlink:title=" ">
<polygon fill="white" stroke="#666666" points="411.5,-19 310.5,-19 310.5,0 411.5,0 411.5,-19"/>
<text text-anchor="middle" x="361" y="-7" font-family="Helvetica,sans-Serif" font-size="10.00">src/type/type.cpp</text>
</a>
</g>
</g>
<!-- Node2&#45;&gt;Node4 -->
<g id="edge3_Node000002_Node000004" class="edge">
<title>Node2&#45;&gt;Node4</title>
<g id="a_edge3_Node000002_Node000004"><a xlink:title=" ">
<path fill="none" stroke="#63b8ff" d="M202.85,-52.36C243.89,-41.5 295.77,-27.77 328.69,-19.05"/>
<polygon fill="#63b8ff" stroke="#63b8ff" points="201.71,-49.05 192.94,-54.99 203.5,-55.81 201.71,-49.05"/>
</a>
</g>
</g>
<!-- Node5&#45;&gt;Node4 -->
<g id="edge6_Node000005_Node000004" class="edge">
<title>Node5&#45;&gt;Node4</title>
<g id="a_edge6_Node000005_Node000004"><a xlink:title=" ">
<path fill="none" stroke="#63b8ff" d="M312.24,-48.53C325.09,-38.51 339.87,-26.98 349.76,-19.27"/>
<polygon fill="#63b8ff" stroke="#63b8ff" points="309.89,-45.93 304.16,-54.84 314.19,-51.45 309.89,-45.93"/>
</a>
</g>
</g>
<!-- Node6 -->
<g id="Node000006" class="node">
<title>Node6</title>
<g id="a_Node000006"><a xlink:href="../../d4/d10/integer__type_8cpp.html" target="_top" xlink:title=" ">
<polygon fill="white" stroke="#666666" points="292,-19 152,-19 152,0 292,0 292,-19"/>
<text text-anchor="middle" x="222" y="-7" font-family="Helvetica,sans-Serif" font-size="10.00">src/type/integer_type.cpp</text>
</a>
</g>
</g>
<!-- Node5&#45;&gt;Node6 -->
<g id="edge5_Node000005_Node000006" class="edge">
<title>Node5&#45;&gt;Node6</title>
<g id="a_edge5_Node000005_Node000006"><a xlink:title=" ">
<path fill="none" stroke="#63b8ff" d="M262.98,-47.96C252.17,-38.07 239.87,-26.83 231.59,-19.27"/>
<polygon fill="#63b8ff" stroke="#63b8ff" points="260.76,-50.68 270.51,-54.84 265.49,-45.51 260.76,-50.68"/>
</a>
</g>
</g>
<!-- Node7&#45;&gt;Node4 -->
<g id="edge9_Node000007_Node000004" class="edge">
<title>Node7&#45;&gt;Node4</title>
<g id="a_edge9_Node000007_Node000004"><a xlink:title=" ">
<path fill="none" stroke="#63b8ff" d="M411.06,-48.53C397.87,-38.51 382.69,-26.98 372.54,-19.27"/>
<polygon fill="#63b8ff" stroke="#63b8ff" points="409.28,-51.58 419.36,-54.84 413.52,-46 409.28,-51.58"/>
</a>
</g>
</g>
<!-- Node8 -->
<g id="Node000008" class="node">
<title>Node8</title>
<g id="a_Node000008"><a xlink:href="../../d9/d80/smallint__type_8cpp.html" target="_top" xlink:title=" ">
<polygon fill="white" stroke="#666666" points="576,-19 430,-19 430,0 576,0 576,-19"/>
<text text-anchor="middle" x="503" y="-7" font-family="Helvetica,sans-Serif" font-size="10.00">src/type/smallint_type.cpp</text>
</a>
</g>
</g>
<!-- Node7&#45;&gt;Node8 -->
<g id="edge8_Node000007_Node000008" class="edge">
<title>Node7&#45;&gt;Node8</title>
<g id="a_edge8_Node000007_Node000008"><a xlink:title=" ">
<path fill="none" stroke="#63b8ff" d="M461.38,-47.96C472.36,-38.07 484.85,-26.83 493.26,-19.27"/>
<polygon fill="#63b8ff" stroke="#63b8ff" points="458.83,-45.55 453.73,-54.84 463.51,-50.75 458.83,-45.55"/>
</a>
</g>
</g>
<!-- Node9&#45;&gt;Node4 -->
<g id="edge12_Node000009_Node000004" class="edge">
<title>Node9&#45;&gt;Node4</title>
<g id="a_edge12_Node000009_Node000004"><a xlink:title=" ">
<path fill="none" stroke="#63b8ff" d="M524.7,-52.5C482.27,-41.62 428.43,-27.8 394.34,-19.05"/>
<polygon fill="#63b8ff" stroke="#63b8ff" points="523.83,-55.89 534.39,-54.99 525.57,-49.11 523.83,-55.89"/>
</a>
</g>
</g>
<!-- Node10 -->
<g id="Node000010" class="node">
<title>Node10</title>
<g id="a_Node000010"><a xlink:href="../../db/d89/tinyint__type_8cpp.html" target="_top" xlink:title=" ">
<polygon fill="white" stroke="#666666" points="731.5,-19 594.5,-19 594.5,0 731.5,0 731.5,-19"/>
<text text-anchor="middle" x="663" y="-7" font-family="Helvetica,sans-Serif" font-size="10.00">src/type/tinyint_type.cpp</text>
</a>
</g>
</g>
<!-- Node9&#45;&gt;Node10 -->
<g id="edge11_Node000009_Node000010" class="edge">
<title>Node9&#45;&gt;Node10</title>
<g id="a_edge11_Node000009_Node000010"><a xlink:title=" ">
<path fill="none" stroke="#63b8ff" d="M614.89,-48.53C627.57,-38.51 642.15,-26.98 651.91,-19.27"/>
<polygon fill="#63b8ff" stroke="#63b8ff" points="612.59,-45.89 606.91,-54.84 616.93,-51.38 612.59,-45.89"/>
</a>
</g>
</g>
</g>
</svg>
