<?xml version="1.0" encoding="UTF-8" standalone="no"?>
<!DOCTYPE svg PUBLIC "-//W3C//DTD SVG 1.1//EN"
 "http://www.w3.org/Graphics/SVG/1.1/DTD/svg11.dtd">
<!-- Generated by graphviz version 2.43.0 (0)
 -->
<!-- Title: bustub::Index Pages: 1 -->
<svg width="291pt" height="145pt"
 viewBox="0.00 0.00 291.00 145.00" xmlns="http://www.w3.org/2000/svg" xmlns:xlink="http://www.w3.org/1999/xlink">
<g id="graph0" class="graph" transform="scale(1 1) rotate(0) translate(4 141)">
<title>bustub::Index</title>
<!-- Node1 -->
<g id="Node000001" class="node">
<title>Node1</title>
<g id="a_Node000001"><a xlink:title=" ">
<polygon fill="#999999" stroke="#666666" points="83,-89 0,-89 0,-70 83,-70 83,-89"/>
<text text-anchor="middle" x="41.5" y="-77" font-family="Helvetica,sans-Serif" font-size="10.00">bustub::Index</text>
</a>
</g>
</g>
<!-- Node2 -->
<g id="Node000002" class="node">
<title>Node2</title>
<g id="a_Node000002"><a xlink:href="../../df/d26/classbustub_1_1BPlusTreeIndex.html" target="_top" xlink:title=" ">
<polygon fill="white" stroke="#666666" points="266,-137 136,-137 136,-118 266,-118 266,-137"/>
<text text-anchor="middle" x="201" y="-125" font-family="Helvetica,sans-Serif" font-size="10.00">bustub::BPlusTreeIndex</text>
</a>
</g>
</g>
<!-- Node1&#45;&gt;Node2 -->
<g id="edge1_Node000001_Node000002" class="edge">
<title>Node1&#45;&gt;Node2</title>
<g id="a_edge1_Node000001_Node000002"><a xlink:title=" ">
<path fill="none" stroke="#63b8ff" d="M73.73,-93.02C87.45,-98.62 103.85,-104.88 119,-109.5 129.33,-112.65 140.56,-115.5 151.28,-117.96"/>
<polygon fill="#63b8ff" stroke="#63b8ff" points="74.85,-89.69 64.27,-89.08 72.16,-96.15 74.85,-89.69"/>
</a>
</g>
</g>
<!-- Node3 -->
<g id="Node000003" class="node">
<title>Node3</title>
<g id="a_Node000003"><a xlink:href="../../d9/da2/classbustub_1_1ExtendibleHashTableIndex.html" target="_top" xlink:title=" ">
<polygon fill="white" stroke="#666666" points="280,-100 122,-100 122,-59 280,-59 280,-100"/>
<text text-anchor="start" x="130" y="-88" font-family="Helvetica,sans-Serif" font-size="10.00">bustub::ExtendibleHashTable</text>
<text text-anchor="start" x="130" y="-77" font-family="Helvetica,sans-Serif" font-size="10.00">Index&lt; KeyType, ValueType,</text>
<text text-anchor="middle" x="201" y="-66" font-family="Helvetica,sans-Serif" font-size="10.00"> KeyComparator &gt;</text>
</a>
</g>
</g>
<!-- Node1&#45;&gt;Node3 -->
<g id="edge2_Node000001_Node000003" class="edge">
<title>Node1&#45;&gt;Node3</title>
<g id="a_edge2_Node000001_Node000003"><a xlink:title=" ">
<path fill="none" stroke="#63b8ff" d="M93.17,-79.5C102.37,-79.5 112.17,-79.5 121.94,-79.5"/>
<polygon fill="#63b8ff" stroke="#63b8ff" points="93.06,-76 83.06,-79.5 93.06,-83 93.06,-76"/>
</a>
</g>
</g>
<!-- Node4 -->
<g id="Node000004" class="node">
<title>Node4</title>
<g id="a_Node000004"><a xlink:href="../../dc/deb/classbustub_1_1LinearProbeHashTableIndex.html" target="_top" xlink:title=" ">
<polygon fill="white" stroke="#666666" points="283,-41 119,-41 119,0 283,0 283,-41"/>
<text text-anchor="start" x="127" y="-29" font-family="Helvetica,sans-Serif" font-size="10.00">bustub::LinearProbeHashTable</text>
<text text-anchor="start" x="127" y="-18" font-family="Helvetica,sans-Serif" font-size="10.00">Index&lt; KeyType, ValueType,</text>
<text text-anchor="middle" x="201" y="-7" font-family="Helvetica,sans-Serif" font-size="10.00"> KeyComparator &gt;</text>
</a>
</g>
</g>
<!-- Node1&#45;&gt;Node4 -->
<g id="edge3_Node000001_Node000004" class="edge">
<title>Node1&#45;&gt;Node4</title>
<g id="a_edge3_Node000001_Node000004"><a xlink:title=" ">
<path fill="none" stroke="#63b8ff" d="M77.21,-66.28C90.3,-61.31 105.33,-55.62 119,-50.5 127.14,-47.45 135.76,-44.24 144.21,-41.1"/>
<polygon fill="#63b8ff" stroke="#63b8ff" points="75.74,-63.09 67.63,-69.92 78.23,-69.64 75.74,-63.09"/>
</a>
</g>
</g>
</g>
</svg>
