<?xml version="1.0" encoding="UTF-8" standalone="no"?>
<!DOCTYPE svg PUBLIC "-//W3C//DTD SVG 1.1//EN"
 "http://www.w3.org/Graphics/SVG/1.1/DTD/svg11.dtd">
<!-- Generated by graphviz version 2.43.0 (0)
 -->
<!-- Title: src/include/execution/expressions/constant_value_expression.h Pages: 1 -->
<svg width="1438pt" height="445pt"
 viewBox="0.00 0.00 1437.95 445.00" xmlns="http://www.w3.org/2000/svg" xmlns:xlink="http://www.w3.org/1999/xlink">
<g id="graph0" class="graph" transform="scale(1 1) rotate(0) translate(4 441)">
<title>src/include/execution/expressions/constant_value_expression.h</title>
<!-- Node1 -->
<g id="Node000001" class="node">
<title>Node1</title>
<g id="a_Node000001"><a xlink:title=" ">
<polygon fill="#999999" stroke="#666666" points="135.55,-437 12.55,-437 12.55,-396 135.55,-396 135.55,-437"/>
<text text-anchor="start" x="20.55" y="-425" font-family="Helvetica,sans-Serif" font-size="10.00">src/include/execution</text>
<text text-anchor="start" x="20.55" y="-414" font-family="Helvetica,sans-Serif" font-size="10.00">/expressions/constant</text>
<text text-anchor="middle" x="74.05" y="-403" font-family="Helvetica,sans-Serif" font-size="10.00">_value_expression.h</text>
</a>
</g>
</g>
<!-- Node2 -->
<g id="Node000002" class="node">
<title>Node2</title>
<g id="a_Node000002"><a xlink:title=" ">
<polygon fill="#e0e0e0" stroke="#999999" points="87.05,-74 29.05,-74 29.05,-55 87.05,-55 87.05,-74"/>
<text text-anchor="middle" x="58.05" y="-62" font-family="Helvetica,sans-Serif" font-size="10.00">memory</text>
</a>
</g>
</g>
<!-- Node1&#45;&gt;Node2 -->
<g id="edge1_Node000001_Node000002" class="edge">
<title>Node1&#45;&gt;Node2</title>
<g id="a_edge1_Node000001_Node000002"><a xlink:title=" ">
<path fill="none" stroke="#63b8ff" d="M69.35,-395.81C63.73,-370.46 55.05,-324.96 55.05,-285.5 55.05,-285.5 55.05,-285.5 55.05,-173.5 55.05,-142.18 56.33,-105.77 57.22,-84.23"/>
<polygon fill="#63b8ff" stroke="#63b8ff" points="60.72,-84.32 57.65,-74.18 53.72,-84.02 60.72,-84.32"/>
</a>
</g>
</g>
<!-- Node3 -->
<g id="Node000003" class="node">
<title>Node3</title>
<g id="a_Node000003"><a xlink:title=" ">
<polygon fill="#e0e0e0" stroke="#999999" points="835.05,-19 791.05,-19 791.05,0 835.05,0 835.05,-19"/>
<text text-anchor="middle" x="813.05" y="-7" font-family="Helvetica,sans-Serif" font-size="10.00">string</text>
</a>
</g>
</g>
<!-- Node1&#45;&gt;Node3 -->
<g id="edge2_Node000001_Node000003" class="edge">
<title>Node1&#45;&gt;Node3</title>
<g id="a_edge2_Node000001_Node000003"><a xlink:title=" ">
<path fill="none" stroke="#63b8ff" d="M54.49,-395.82C32.87,-371.89 1.05,-329.24 1.05,-285.5 1.05,-285.5 1.05,-285.5 1.05,-118.5 1.05,-89.04 -3.15,-73.15 20.05,-55 84.74,-4.42 660.65,-30.52 780.67,-18.51"/>
<polygon fill="#63b8ff" stroke="#63b8ff" points="781.35,-21.95 790.83,-17.22 780.47,-15.01 781.35,-21.95"/>
</a>
</g>
</g>
<!-- Node4 -->
<g id="Node000004" class="node">
<title>Node4</title>
<g id="a_Node000004"><a xlink:title=" ">
<polygon fill="#e0e0e0" stroke="#999999" points="206.55,-184 159.55,-184 159.55,-165 206.55,-165 206.55,-184"/>
<text text-anchor="middle" x="183.05" y="-172" font-family="Helvetica,sans-Serif" font-size="10.00">vector</text>
</a>
</g>
</g>
<!-- Node1&#45;&gt;Node4 -->
<g id="edge3_Node000001_Node000004" class="edge">
<title>Node1&#45;&gt;Node4</title>
<g id="a_edge3_Node000001_Node000004"><a xlink:title=" ">
<path fill="none" stroke="#63b8ff" d="M82.97,-395.86C103.68,-350.26 154.79,-237.74 174.81,-193.64"/>
<polygon fill="#63b8ff" stroke="#63b8ff" points="178.05,-194.98 179,-184.43 171.68,-192.08 178.05,-194.98"/>
</a>
</g>
</g>
<!-- Node5 -->
<g id="Node000005" class="node">
<title>Node5</title>
<g id="a_Node000005"><a xlink:href="../../df/d86/abstract__expression_8h.html" target="_top" xlink:title=" ">
<polygon fill="white" stroke="#666666" points="708.55,-360 581.55,-360 581.55,-330 708.55,-330 708.55,-360"/>
<text text-anchor="start" x="589.55" y="-348" font-family="Helvetica,sans-Serif" font-size="10.00">execution/expressions</text>
<text text-anchor="middle" x="645.05" y="-337" font-family="Helvetica,sans-Serif" font-size="10.00">/abstract_expression.h</text>
</a>
</g>
</g>
<!-- Node1&#45;&gt;Node5 -->
<g id="edge4_Node000001_Node000005" class="edge">
<title>Node1&#45;&gt;Node5</title>
<g id="a_edge4_Node000001_Node000005"><a xlink:title=" ">
<path fill="none" stroke="#63b8ff" d="M135.7,-408C241.65,-395.1 457.83,-368.79 571.48,-354.95"/>
<polygon fill="#63b8ff" stroke="#63b8ff" points="571.98,-358.42 581.49,-353.74 571.14,-351.47 571.98,-358.42"/>
</a>
</g>
</g>
<!-- Node5&#45;&gt;Node2 -->
<g id="edge5_Node000005_Node000002" class="edge">
<title>Node5&#45;&gt;Node2</title>
<g id="a_edge5_Node000005_Node000002"><a xlink:title=" ">
<path fill="none" stroke="#63b8ff" d="M581.51,-343.19C443.99,-339.71 131.05,-321.77 131.05,-230.5 131.05,-230.5 131.05,-230.5 131.05,-173.5 131.05,-134.97 98.77,-99.92 77.14,-80.77"/>
<polygon fill="#63b8ff" stroke="#63b8ff" points="79.34,-78.05 69.46,-74.23 74.8,-83.38 79.34,-78.05"/>
</a>
</g>
</g>
<!-- Node5&#45;&gt;Node3 -->
<g id="edge6_Node000005_Node000003" class="edge">
<title>Node5&#45;&gt;Node3</title>
<g id="a_edge6_Node000005_Node000003"><a xlink:title=" ">
<path fill="none" stroke="#63b8ff" d="M708.56,-339.16C776.03,-330.14 873.05,-304.34 873.05,-230.5 873.05,-230.5 873.05,-230.5 873.05,-118.5 873.05,-82.09 846.67,-46.48 828.89,-26.62"/>
<polygon fill="#63b8ff" stroke="#63b8ff" points="831.28,-24.05 821.9,-19.11 826.16,-28.82 831.28,-24.05"/>
</a>
</g>
</g>
<!-- Node5&#45;&gt;Node4 -->
<g id="edge8_Node000005_Node000004" class="edge">
<title>Node5&#45;&gt;Node4</title>
<g id="a_edge8_Node000005_Node000004"><a xlink:title=" ">
<path fill="none" stroke="#63b8ff" d="M598.11,-329.95C535.81,-310.96 422.64,-275.29 328.05,-239 286.33,-222.99 239.1,-201.7 210.2,-188.29"/>
<polygon fill="#63b8ff" stroke="#63b8ff" points="211.68,-185.12 201.14,-184.07 208.72,-191.47 211.68,-185.12"/>
</a>
</g>
</g>
<!-- Node6 -->
<g id="Node000006" class="node">
<title>Node6</title>
<g id="a_Node000006"><a xlink:title=" ">
<polygon fill="#e0e0e0" stroke="#999999" points="1090.55,-129 1045.55,-129 1045.55,-110 1090.55,-110 1090.55,-129"/>
<text text-anchor="middle" x="1068.05" y="-117" font-family="Helvetica,sans-Serif" font-size="10.00">utility</text>
</a>
</g>
</g>
<!-- Node5&#45;&gt;Node6 -->
<g id="edge7_Node000005_Node000006" class="edge">
<title>Node5&#45;&gt;Node6</title>
<g id="a_edge7_Node000005_Node000006"><a xlink:title=" ">
<path fill="none" stroke="#63b8ff" d="M708.85,-344.19C805.46,-343.11 982.49,-335.35 1028.05,-294 1072.25,-253.88 1072.53,-175.57 1070,-139.51"/>
<polygon fill="#63b8ff" stroke="#63b8ff" points="1073.47,-139.05 1069.13,-129.39 1066.5,-139.65 1073.47,-139.05"/>
</a>
</g>
</g>
<!-- Node7 -->
<g id="Node000007" class="node">
<title>Node7</title>
<g id="a_Node000007"><a xlink:href="../../d7/de3/schema_8h.html" target="_top" xlink:title=" ">
<polygon fill="white" stroke="#666666" points="528.55,-239 425.55,-239 425.55,-220 528.55,-220 528.55,-239"/>
<text text-anchor="middle" x="477.05" y="-227" font-family="Helvetica,sans-Serif" font-size="10.00">catalog/schema.h</text>
</a>
</g>
</g>
<!-- Node5&#45;&gt;Node7 -->
<g id="edge9_Node000005_Node000007" class="edge">
<title>Node5&#45;&gt;Node7</title>
<g id="a_edge9_Node000005_Node000007"><a xlink:title=" ">
<path fill="none" stroke="#63b8ff" d="M624.11,-329.85C591.95,-308.13 530.73,-266.77 498.35,-244.89"/>
<polygon fill="#63b8ff" stroke="#63b8ff" points="500.28,-241.97 490.03,-239.27 496.36,-247.77 500.28,-241.97"/>
</a>
</g>
</g>
<!-- Node11 -->
<g id="Node000011" class="node">
<title>Node11</title>
<g id="a_Node000011"><a xlink:title=" ">
<polygon fill="#e0e0e0" stroke="#999999" points="768.55,-129 689.55,-129 689.55,-110 768.55,-110 768.55,-129"/>
<text text-anchor="middle" x="729.05" y="-117" font-family="Helvetica,sans-Serif" font-size="10.00">fmt/format.h</text>
</a>
</g>
</g>
<!-- Node5&#45;&gt;Node11 -->
<g id="edge39_Node000005_Node000011" class="edge">
<title>Node5&#45;&gt;Node11</title>
<g id="a_edge39_Node000005_Node000011"><a xlink:title=" ">
<path fill="none" stroke="#63b8ff" d="M650.43,-329.68C665.12,-290.6 705.88,-182.15 722.18,-138.78"/>
<polygon fill="#63b8ff" stroke="#63b8ff" points="725.53,-139.82 725.77,-129.23 718.98,-137.36 725.53,-139.82"/>
</a>
</g>
</g>
<!-- Node23 -->
<g id="Node000023" class="node">
<title>Node23</title>
<g id="a_Node000023"><a xlink:href="../../d2/d20/tuple_8h.html" target="_top" xlink:title=" ">
<polygon fill="white" stroke="#666666" points="1019.05,-294 901.05,-294 901.05,-275 1019.05,-275 1019.05,-294"/>
<text text-anchor="middle" x="960.05" y="-282" font-family="Helvetica,sans-Serif" font-size="10.00">storage/table/tuple.h</text>
</a>
</g>
</g>
<!-- Node5&#45;&gt;Node23 -->
<g id="edge40_Node000005_Node000023" class="edge">
<title>Node5&#45;&gt;Node23</title>
<g id="a_edge40_Node000005_Node000023"><a xlink:title=" ">
<path fill="none" stroke="#63b8ff" d="M708.8,-332.16C766.17,-321.51 849.64,-306.01 904.38,-295.84"/>
<polygon fill="#63b8ff" stroke="#63b8ff" points="905.06,-299.27 914.25,-294.01 903.78,-292.39 905.06,-299.27"/>
</a>
</g>
</g>
<!-- Node7&#45;&gt;Node2 -->
<g id="edge10_Node000007_Node000002" class="edge">
<title>Node7&#45;&gt;Node2</title>
<g id="a_edge10_Node000007_Node000002"><a xlink:title=" ">
<path fill="none" stroke="#63b8ff" d="M447.32,-219.99C393.66,-204.28 277.42,-168.7 183.05,-129 178.04,-126.89 119.12,-96.79 83.99,-78.8"/>
<polygon fill="#63b8ff" stroke="#63b8ff" points="85.27,-75.52 74.78,-74.08 82.08,-81.75 85.27,-75.52"/>
</a>
</g>
</g>
<!-- Node7&#45;&gt;Node3 -->
<g id="edge12_Node000007_Node000003" class="edge">
<title>Node7&#45;&gt;Node3</title>
<g id="a_edge12_Node000007_Node000003"><a xlink:title=" ">
<path fill="none" stroke="#63b8ff" d="M466.62,-219.87C457.63,-211.7 445.31,-198.55 440.05,-184 425,-142.36 413.14,-101.98 466.05,-55 516.79,-9.95 697.36,-30.55 780.87,-18.7"/>
<polygon fill="#63b8ff" stroke="#63b8ff" points="781.51,-22.14 790.8,-17.04 780.36,-15.24 781.51,-22.14"/>
</a>
</g>
</g>
<!-- Node7&#45;&gt;Node4 -->
<g id="edge13_Node000007_Node000004" class="edge">
<title>Node7&#45;&gt;Node4</title>
<g id="a_edge13_Node000007_Node000004"><a xlink:title=" ">
<path fill="none" stroke="#63b8ff" d="M425.43,-220.27C373.63,-211.84 291.62,-198.02 221.05,-184 219.6,-183.71 218.12,-183.41 216.63,-183.1"/>
<polygon fill="#63b8ff" stroke="#63b8ff" points="217.24,-179.65 206.73,-180.98 215.78,-186.5 217.24,-179.65"/>
</a>
</g>
</g>
<!-- Node8 -->
<g id="Node000008" class="node">
<title>Node8</title>
<g id="a_Node000008"><a xlink:title=" ">
<polygon fill="#e0e0e0" stroke="#999999" points="505.05,-184 449.05,-184 449.05,-165 505.05,-165 505.05,-184"/>
<text text-anchor="middle" x="477.05" y="-172" font-family="Helvetica,sans-Serif" font-size="10.00">optional</text>
</a>
</g>
</g>
<!-- Node7&#45;&gt;Node8 -->
<g id="edge11_Node000007_Node000008" class="edge">
<title>Node7&#45;&gt;Node8</title>
<g id="a_edge11_Node000007_Node000008"><a xlink:title=" ">
<path fill="none" stroke="#63b8ff" d="M477.05,-219.75C477.05,-212.8 477.05,-202.85 477.05,-194.13"/>
<polygon fill="#63b8ff" stroke="#63b8ff" points="480.55,-194.09 477.05,-184.09 473.55,-194.09 480.55,-194.09"/>
</a>
</g>
</g>
<!-- Node9 -->
<g id="Node000009" class="node">
<title>Node9</title>
<g id="a_Node000009"><a xlink:href="../../dc/df8/column_8h.html" target="_top" xlink:title=" ">
<polygon fill="white" stroke="#666666" points="624.55,-184 523.55,-184 523.55,-165 624.55,-165 624.55,-184"/>
<text text-anchor="middle" x="574.05" y="-172" font-family="Helvetica,sans-Serif" font-size="10.00">catalog/column.h</text>
</a>
</g>
</g>
<!-- Node7&#45;&gt;Node9 -->
<g id="edge14_Node000007_Node000009" class="edge">
<title>Node7&#45;&gt;Node9</title>
<g id="a_edge14_Node000007_Node000009"><a xlink:title=" ">
<path fill="none" stroke="#63b8ff" d="M492.64,-219.98C507.82,-211.69 531.15,-198.94 548.95,-189.22"/>
<polygon fill="#63b8ff" stroke="#63b8ff" points="551.09,-192.04 558.18,-184.17 547.73,-185.89 551.09,-192.04"/>
</a>
</g>
</g>
<!-- Node12 -->
<g id="Node000012" class="node">
<title>Node12</title>
<g id="a_Node000012"><a xlink:href="../../dd/d2d/exception_8h.html" target="_top" xlink:title=" ">
<polygon fill="white" stroke="#666666" points="392.55,-129 273.55,-129 273.55,-110 392.55,-110 392.55,-129"/>
<text text-anchor="middle" x="333.05" y="-117" font-family="Helvetica,sans-Serif" font-size="10.00">common/exception.h</text>
</a>
</g>
</g>
<!-- Node7&#45;&gt;Node12 -->
<g id="edge37_Node000007_Node000012" class="edge">
<title>Node7&#45;&gt;Node12</title>
<g id="a_edge37_Node000007_Node000012"><a xlink:title=" ">
<path fill="none" stroke="#63b8ff" d="M462.17,-219.88C447.71,-211.32 425.33,-197.55 407.05,-184 386.59,-168.83 364.61,-149.56 349.98,-136.24"/>
<polygon fill="#63b8ff" stroke="#63b8ff" points="352,-133.36 342.27,-129.17 347.27,-138.51 352,-133.36"/>
</a>
</g>
</g>
<!-- Node18 -->
<g id="Node000018" class="node">
<title>Node18</title>
<g id="a_Node000018"><a xlink:href="../../df/def/type_8h.html" target="_top" xlink:title=" ">
<polygon fill="white" stroke="#666666" points="807.05,-74 735.05,-74 735.05,-55 807.05,-55 807.05,-74"/>
<text text-anchor="middle" x="771.05" y="-62" font-family="Helvetica,sans-Serif" font-size="10.00">type/type.h</text>
</a>
</g>
</g>
<!-- Node7&#45;&gt;Node18 -->
<g id="edge38_Node000007_Node000018" class="edge">
<title>Node7&#45;&gt;Node18</title>
<g id="a_edge38_Node000007_Node000018"><a xlink:title=" ">
<path fill="none" stroke="#63b8ff" d="M528.6,-223.26C561.18,-217.8 602.7,-206.66 633.05,-184 664.27,-160.69 651.02,-135.98 680.05,-110 695.87,-95.85 716.99,-85.15 734.9,-77.8"/>
<polygon fill="#63b8ff" stroke="#63b8ff" points="736.43,-80.96 744.47,-74.06 733.88,-74.44 736.43,-80.96"/>
</a>
</g>
</g>
<!-- Node9&#45;&gt;Node2 -->
<g id="edge16_Node000009_Node000002" class="edge">
<title>Node9&#45;&gt;Node2</title>
<g id="a_edge16_Node000009_Node000002"><a xlink:title=" ">
<path fill="none" stroke="#63b8ff" d="M523.32,-166.26C520.18,-165.83 517.08,-165.41 514.05,-165 388.39,-148.11 353.85,-160.58 231.05,-129 208.83,-123.29 204.53,-118.07 183.05,-110 152.59,-98.55 117.69,-86.19 92.52,-77.41"/>
<polygon fill="#63b8ff" stroke="#63b8ff" points="93.64,-74.09 83.05,-74.11 91.34,-80.7 93.64,-74.09"/>
</a>
</g>
</g>
<!-- Node9&#45;&gt;Node3 -->
<g id="edge17_Node000009_Node000003" class="edge">
<title>Node9&#45;&gt;Node3</title>
<g id="a_edge17_Node000009_Node000003"><a xlink:title=" ">
<path fill="none" stroke="#63b8ff" d="M536.34,-164.93C503.11,-155.38 462.25,-137.56 478.05,-110 484.07,-99.5 560.68,-59.14 572.05,-55 658.06,-23.64 687.65,-38.47 780.92,-19.02"/>
<polygon fill="#63b8ff" stroke="#63b8ff" points="781.73,-22.43 790.77,-16.89 780.25,-15.58 781.73,-22.43"/>
</a>
</g>
</g>
<!-- Node9&#45;&gt;Node6 -->
<g id="edge18_Node000009_Node000006" class="edge">
<title>Node9&#45;&gt;Node6</title>
<g id="a_edge18_Node000009_Node000006"><a xlink:title=" ">
<path fill="none" stroke="#63b8ff" d="M624.67,-171.34C708.23,-167.17 880.34,-156.11 1035.25,-128.82"/>
<polygon fill="#63b8ff" stroke="#63b8ff" points="1036.2,-132.21 1045.43,-127 1034.97,-125.32 1036.2,-132.21"/>
</a>
</g>
</g>
<!-- Node10 -->
<g id="Node000010" class="node">
<title>Node10</title>
<g id="a_Node000010"><a xlink:title=" ">
<polygon fill="#e0e0e0" stroke="#999999" points="1210.05,-19 1160.05,-19 1160.05,0 1210.05,0 1210.05,-19"/>
<text text-anchor="middle" x="1185.05" y="-7" font-family="Helvetica,sans-Serif" font-size="10.00">cstdint</text>
</a>
</g>
</g>
<!-- Node9&#45;&gt;Node10 -->
<g id="edge15_Node000009_Node000010" class="edge">
<title>Node9&#45;&gt;Node10</title>
<g id="a_edge15_Node000009_Node000010"><a xlink:title=" ">
<path fill="none" stroke="#63b8ff" d="M617.02,-164.95C658.24,-156.54 722.16,-142.97 777.05,-129 916.38,-93.54 1080.06,-43.38 1150.24,-21.46"/>
<polygon fill="#63b8ff" stroke="#63b8ff" points="1151.41,-24.77 1159.91,-18.44 1149.32,-18.09 1151.41,-24.77"/>
</a>
</g>
</g>
<!-- Node9&#45;&gt;Node11 -->
<g id="edge19_Node000009_Node000011" class="edge">
<title>Node9&#45;&gt;Node11</title>
<g id="a_edge19_Node000009_Node000011"><a xlink:title=" ">
<path fill="none" stroke="#63b8ff" d="M598.95,-164.98C624.75,-156.16 665.27,-142.31 694.23,-132.41"/>
<polygon fill="#63b8ff" stroke="#63b8ff" points="695.62,-135.63 703.95,-129.08 693.36,-129.01 695.62,-135.63"/>
</a>
</g>
</g>
<!-- Node9&#45;&gt;Node12 -->
<g id="edge20_Node000009_Node000012" class="edge">
<title>Node9&#45;&gt;Node12</title>
<g id="a_edge20_Node000009_Node000012"><a xlink:title=" ">
<path fill="none" stroke="#63b8ff" d="M535.33,-164.98C493.64,-155.82 427.23,-141.21 381.96,-131.26"/>
<polygon fill="#63b8ff" stroke="#63b8ff" points="382.59,-127.81 372.08,-129.08 381.09,-134.65 382.59,-127.81"/>
</a>
</g>
</g>
<!-- Node9&#45;&gt;Node18 -->
<g id="edge36_Node000009_Node000018" class="edge">
<title>Node9&#45;&gt;Node18</title>
<g id="a_edge36_Node000009_Node000018"><a xlink:title=" ">
<path fill="none" stroke="#63b8ff" d="M581.8,-164.97C594.34,-151.6 620.39,-125.63 647.05,-110 672.02,-95.36 702.61,-84.32 727.16,-76.9"/>
<polygon fill="#63b8ff" stroke="#63b8ff" points="728.32,-80.2 736.93,-74.04 726.35,-73.49 728.32,-80.2"/>
</a>
</g>
</g>
<!-- Node20 -->
<g id="Node000020" class="node">
<title>Node20</title>
<g id="a_Node000020"><a xlink:href="../../de/d3c/macros_8h.html" target="_top" xlink:title=" ">
<polygon fill="white" stroke="#666666" points="594.55,-129 487.55,-129 487.55,-110 594.55,-110 594.55,-129"/>
<text text-anchor="middle" x="541.05" y="-117" font-family="Helvetica,sans-Serif" font-size="10.00">common/macros.h</text>
</a>
</g>
</g>
<!-- Node9&#45;&gt;Node20 -->
<g id="edge32_Node000009_Node000020" class="edge">
<title>Node9&#45;&gt;Node20</title>
<g id="a_edge32_Node000009_Node000020"><a xlink:title=" ">
<path fill="none" stroke="#63b8ff" d="M568.6,-164.75C564.04,-157.42 557.38,-146.73 551.76,-137.7"/>
<polygon fill="#63b8ff" stroke="#63b8ff" points="554.66,-135.73 546.4,-129.09 548.71,-139.43 554.66,-135.73"/>
</a>
</g>
</g>
<!-- Node12&#45;&gt;Node2 -->
<g id="edge25_Node000012_Node000002" class="edge">
<title>Node12&#45;&gt;Node2</title>
<g id="a_edge25_Node000012_Node000002"><a xlink:title=" ">
<path fill="none" stroke="#63b8ff" d="M284.84,-109.95C239.04,-101.72 167.99,-88.65 97.08,-74.15"/>
<polygon fill="#63b8ff" stroke="#63b8ff" points="97.58,-70.68 87.08,-72.1 96.17,-77.54 97.58,-70.68"/>
</a>
</g>
</g>
<!-- Node12&#45;&gt;Node3 -->
<g id="edge27_Node000012_Node000003" class="edge">
<title>Node12&#45;&gt;Node3</title>
<g id="a_edge27_Node000012_Node000003"><a xlink:title=" ">
<path fill="none" stroke="#63b8ff" d="M331.57,-109.55C329.82,-95.62 328.86,-68.89 344.05,-55 378.33,-23.66 700.16,-27.05 780.43,-18.54"/>
<polygon fill="#63b8ff" stroke="#63b8ff" points="781.38,-21.94 790.81,-17.13 780.43,-15.01 781.38,-21.94"/>
</a>
</g>
</g>
<!-- Node13 -->
<g id="Node000013" class="node">
<title>Node13</title>
<g id="a_Node000013"><a xlink:title=" ">
<polygon fill="#e0e0e0" stroke="#999999" points="525.05,-74 475.05,-74 475.05,-55 525.05,-55 525.05,-74"/>
<text text-anchor="middle" x="500.05" y="-62" font-family="Helvetica,sans-Serif" font-size="10.00">atomic</text>
</a>
</g>
</g>
<!-- Node12&#45;&gt;Node13 -->
<g id="edge21_Node000012_Node000013" class="edge">
<title>Node12&#45;&gt;Node13</title>
<g id="a_edge21_Node000012_Node000013"><a xlink:title=" ">
<path fill="none" stroke="#63b8ff" d="M359.88,-109.98C388.5,-100.9 433.94,-86.48 465.28,-76.53"/>
<polygon fill="#63b8ff" stroke="#63b8ff" points="466.45,-79.84 474.93,-73.47 464.34,-73.16 466.45,-79.84"/>
</a>
</g>
</g>
<!-- Node14 -->
<g id="Node000014" class="node">
<title>Node14</title>
<g id="a_Node000014"><a xlink:title=" ">
<polygon fill="#e0e0e0" stroke="#999999" points="297.05,-74 251.05,-74 251.05,-55 297.05,-55 297.05,-74"/>
<text text-anchor="middle" x="274.05" y="-62" font-family="Helvetica,sans-Serif" font-size="10.00">cstdio</text>
</a>
</g>
</g>
<!-- Node12&#45;&gt;Node14 -->
<g id="edge22_Node000012_Node000014" class="edge">
<title>Node12&#45;&gt;Node14</title>
<g id="a_edge22_Node000012_Node000014"><a xlink:title=" ">
<path fill="none" stroke="#63b8ff" d="M323.57,-109.98C314.85,-102.15 301.71,-90.34 291.15,-80.86"/>
<polygon fill="#63b8ff" stroke="#63b8ff" points="293.48,-78.25 283.7,-74.17 288.8,-83.46 293.48,-78.25"/>
</a>
</g>
</g>
<!-- Node15 -->
<g id="Node000015" class="node">
<title>Node15</title>
<g id="a_Node000015"><a xlink:title=" ">
<polygon fill="#e0e0e0" stroke="#999999" points="154.55,-74 105.55,-74 105.55,-55 154.55,-55 154.55,-74"/>
<text text-anchor="middle" x="130.05" y="-62" font-family="Helvetica,sans-Serif" font-size="10.00">cstdlib</text>
</a>
</g>
</g>
<!-- Node12&#45;&gt;Node15 -->
<g id="edge23_Node000012_Node000015" class="edge">
<title>Node12&#45;&gt;Node15</title>
<g id="a_edge23_Node000012_Node000015"><a xlink:title=" ">
<path fill="none" stroke="#63b8ff" d="M300.44,-109.98C263.25,-100.28 202.7,-84.47 164.69,-74.54"/>
<polygon fill="#63b8ff" stroke="#63b8ff" points="165.17,-71.05 154.61,-71.91 163.4,-77.82 165.17,-71.05"/>
</a>
</g>
</g>
<!-- Node16 -->
<g id="Node000016" class="node">
<title>Node16</title>
<g id="a_Node000016"><a xlink:title=" ">
<polygon fill="#e0e0e0" stroke="#999999" points="233.05,-74 173.05,-74 173.05,-55 233.05,-55 233.05,-74"/>
<text text-anchor="middle" x="203.05" y="-62" font-family="Helvetica,sans-Serif" font-size="10.00">iostream</text>
</a>
</g>
</g>
<!-- Node12&#45;&gt;Node16 -->
<g id="edge24_Node000012_Node000016" class="edge">
<title>Node12&#45;&gt;Node16</title>
<g id="a_edge24_Node000012_Node000016"><a xlink:title=" ">
<path fill="none" stroke="#63b8ff" d="M312.16,-109.98C290.97,-101.34 257.92,-87.87 233.75,-78.02"/>
<polygon fill="#63b8ff" stroke="#63b8ff" points="234.9,-74.7 224.32,-74.17 232.26,-81.19 234.9,-74.7"/>
</a>
</g>
</g>
<!-- Node17 -->
<g id="Node000017" class="node">
<title>Node17</title>
<g id="a_Node000017"><a xlink:title=" ">
<polygon fill="#e0e0e0" stroke="#999999" points="418.55,-74 353.55,-74 353.55,-55 418.55,-55 418.55,-74"/>
<text text-anchor="middle" x="386.05" y="-62" font-family="Helvetica,sans-Serif" font-size="10.00">stdexcept</text>
</a>
</g>
</g>
<!-- Node12&#45;&gt;Node17 -->
<g id="edge26_Node000012_Node000017" class="edge">
<title>Node12&#45;&gt;Node17</title>
<g id="a_edge26_Node000012_Node000017"><a xlink:title=" ">
<path fill="none" stroke="#63b8ff" d="M341.8,-109.75C349.52,-102.03 360.96,-90.6 370.27,-81.28"/>
<polygon fill="#63b8ff" stroke="#63b8ff" points="372.87,-83.64 377.46,-74.09 367.92,-78.69 372.87,-83.64"/>
</a>
</g>
</g>
<!-- Node12&#45;&gt;Node18 -->
<g id="edge28_Node000012_Node000018" class="edge">
<title>Node12&#45;&gt;Node18</title>
<g id="a_edge28_Node000012_Node000018"><a xlink:title=" ">
<path fill="none" stroke="#63b8ff" d="M392.82,-113.12C467.97,-106.04 601.16,-92.48 724.73,-74.1"/>
<polygon fill="#63b8ff" stroke="#63b8ff" points="725.37,-77.54 734.74,-72.6 724.33,-70.62 725.37,-77.54"/>
</a>
</g>
</g>
<!-- Node18&#45;&gt;Node3 -->
<g id="edge30_Node000018_Node000003" class="edge">
<title>Node18&#45;&gt;Node3</title>
<g id="a_edge30_Node000018_Node000003"><a xlink:title=" ">
<path fill="none" stroke="#63b8ff" d="M777.99,-54.75C783.92,-47.26 792.62,-36.28 799.88,-27.13"/>
<polygon fill="#63b8ff" stroke="#63b8ff" points="802.78,-29.1 806.25,-19.09 797.29,-24.75 802.78,-29.1"/>
</a>
</g>
</g>
<!-- Node18&#45;&gt;Node10 -->
<g id="edge29_Node000018_Node000010" class="edge">
<title>Node18&#45;&gt;Node10</title>
<g id="a_edge29_Node000018_Node000010"><a xlink:title=" ">
<path fill="none" stroke="#63b8ff" d="M807.07,-57.17C811.77,-56.41 816.52,-55.66 821.05,-55 941.3,-37.44 1084.59,-21.33 1149.71,-14.27"/>
<polygon fill="#63b8ff" stroke="#63b8ff" points="1150.28,-17.72 1159.84,-13.17 1149.53,-10.76 1150.28,-17.72"/>
</a>
</g>
</g>
<!-- Node19 -->
<g id="Node000019" class="node">
<title>Node19</title>
<g id="a_Node000019"><a xlink:href="../../dc/df2/type__id_8h.html" target="_top" xlink:title=" ">
<polygon fill="white" stroke="#666666" points="773.05,-19 687.05,-19 687.05,0 773.05,0 773.05,-19"/>
<text text-anchor="middle" x="730.05" y="-7" font-family="Helvetica,sans-Serif" font-size="10.00">type/type_id.h</text>
</a>
</g>
</g>
<!-- Node18&#45;&gt;Node19 -->
<g id="edge31_Node000018_Node000019" class="edge">
<title>Node18&#45;&gt;Node19</title>
<g id="a_edge31_Node000018_Node000019"><a xlink:title=" ">
<path fill="none" stroke="#63b8ff" d="M764.28,-54.75C758.49,-47.26 749.99,-36.28 742.91,-27.13"/>
<polygon fill="#63b8ff" stroke="#63b8ff" points="745.58,-24.86 736.7,-19.09 740.05,-29.14 745.58,-24.86"/>
</a>
</g>
</g>
<!-- Node20&#45;&gt;Node17 -->
<g id="edge35_Node000020_Node000017" class="edge">
<title>Node20&#45;&gt;Node17</title>
<g id="a_edge35_Node000020_Node000017"><a xlink:title=" ">
<path fill="none" stroke="#63b8ff" d="M516.15,-109.98C490.35,-101.16 449.83,-87.31 420.87,-77.41"/>
<polygon fill="#63b8ff" stroke="#63b8ff" points="421.74,-74.01 411.15,-74.08 419.48,-80.63 421.74,-74.01"/>
</a>
</g>
</g>
<!-- Node21 -->
<g id="Node000021" class="node">
<title>Node21</title>
<g id="a_Node000021"><a xlink:title=" ">
<polygon fill="#e0e0e0" stroke="#999999" points="717.05,-74 665.05,-74 665.05,-55 717.05,-55 717.05,-74"/>
<text text-anchor="middle" x="691.05" y="-62" font-family="Helvetica,sans-Serif" font-size="10.00">cassert</text>
</a>
</g>
</g>
<!-- Node20&#45;&gt;Node21 -->
<g id="edge33_Node000020_Node000021" class="edge">
<title>Node20&#45;&gt;Node21</title>
<g id="a_edge33_Node000020_Node000021"><a xlink:title=" ">
<path fill="none" stroke="#63b8ff" d="M565.15,-109.98C589.93,-101.23 628.76,-87.51 656.74,-77.62"/>
<polygon fill="#63b8ff" stroke="#63b8ff" points="658.25,-80.8 666.51,-74.17 655.92,-74.2 658.25,-80.8"/>
</a>
</g>
</g>
<!-- Node22 -->
<g id="Node000022" class="node">
<title>Node22</title>
<g id="a_Node000022"><a xlink:title=" ">
<polygon fill="#e0e0e0" stroke="#999999" points="646.55,-74 581.55,-74 581.55,-55 646.55,-55 646.55,-74"/>
<text text-anchor="middle" x="614.05" y="-62" font-family="Helvetica,sans-Serif" font-size="10.00">exception</text>
</a>
</g>
</g>
<!-- Node20&#45;&gt;Node22 -->
<g id="edge34_Node000020_Node000022" class="edge">
<title>Node20&#45;&gt;Node22</title>
<g id="a_edge34_Node000020_Node000022"><a xlink:title=" ">
<path fill="none" stroke="#63b8ff" d="M552.78,-109.98C563.78,-102 580.47,-89.88 593.66,-80.31"/>
<polygon fill="#63b8ff" stroke="#63b8ff" points="596.07,-82.88 602.11,-74.17 591.96,-77.21 596.07,-82.88"/>
</a>
</g>
</g>
<!-- Node23&#45;&gt;Node3 -->
<g id="edge41_Node000023_Node000003" class="edge">
<title>Node23&#45;&gt;Node3</title>
<g id="a_edge41_Node000023_Node000003"><a xlink:title=" ">
<path fill="none" stroke="#63b8ff" d="M953.03,-274.87C939.48,-257.3 911.05,-215.65 911.05,-175.5 911.05,-175.5 911.05,-175.5 911.05,-118.5 911.05,-88.33 906.38,-78.17 887.05,-55 875.71,-41.4 859.08,-30.88 844.45,-23.49"/>
<polygon fill="#63b8ff" stroke="#63b8ff" points="845.74,-20.23 835.21,-19.08 842.73,-26.54 845.74,-20.23"/>
</a>
</g>
</g>
<!-- Node23&#45;&gt;Node4 -->
<g id="edge42_Node000023_Node000004" class="edge">
<title>Node23&#45;&gt;Node4</title>
<g id="a_edge42_Node000023_Node000004"><a xlink:title=" ">
<path fill="none" stroke="#63b8ff" d="M900.83,-282.22C800.4,-279.27 590.58,-269.65 416.05,-239 343.68,-226.29 261.21,-201.22 216.38,-186.68"/>
<polygon fill="#63b8ff" stroke="#63b8ff" points="217.46,-183.35 206.87,-183.56 215.29,-190 217.46,-183.35"/>
</a>
</g>
</g>
<!-- Node23&#45;&gt;Node7 -->
<g id="edge43_Node000023_Node000007" class="edge">
<title>Node23&#45;&gt;Node7</title>
<g id="a_edge43_Node000023_Node000007"><a xlink:title=" ">
<path fill="none" stroke="#63b8ff" d="M900.83,-277C808.8,-266.9 632.37,-247.54 538.82,-237.28"/>
<polygon fill="#63b8ff" stroke="#63b8ff" points="538.98,-233.77 528.66,-236.16 538.21,-240.73 538.98,-233.77"/>
</a>
</g>
</g>
<!-- Node24 -->
<g id="Node000024" class="node">
<title>Node24</title>
<g id="a_Node000024"><a xlink:href="../../db/d16/config_8h.html" target="_top" xlink:title=" ">
<polygon fill="white" stroke="#666666" points="1209.55,-129 1108.55,-129 1108.55,-110 1209.55,-110 1209.55,-129"/>
<text text-anchor="middle" x="1159.05" y="-117" font-family="Helvetica,sans-Serif" font-size="10.00">common/config.h</text>
</a>
</g>
</g>
<!-- Node23&#45;&gt;Node24 -->
<g id="edge44_Node000023_Node000024" class="edge">
<title>Node23&#45;&gt;Node24</title>
<g id="a_edge44_Node000023_Node000024"><a xlink:title=" ">
<path fill="none" stroke="#63b8ff" d="M970.47,-274.97C1002.43,-248.79 1099.36,-169.39 1140.39,-135.79"/>
<polygon fill="#63b8ff" stroke="#63b8ff" points="1142.73,-138.39 1148.25,-129.34 1138.3,-132.97 1142.73,-138.39"/>
</a>
</g>
</g>
<!-- Node26 -->
<g id="Node000026" class="node">
<title>Node26</title>
<g id="a_Node000026"><a xlink:href="../../d8/d5f/rid_8h.html" target="_top" xlink:title=" ">
<polygon fill="white" stroke="#666666" points="1280.05,-184 1196.05,-184 1196.05,-165 1280.05,-165 1280.05,-184"/>
<text text-anchor="middle" x="1238.05" y="-172" font-family="Helvetica,sans-Serif" font-size="10.00">common/rid.h</text>
</a>
</g>
</g>
<!-- Node23&#45;&gt;Node26 -->
<g id="edge48_Node000023_Node000026" class="edge">
<title>Node23&#45;&gt;Node26</title>
<g id="a_edge48_Node000023_Node000026"><a xlink:title=" ">
<path fill="none" stroke="#63b8ff" d="M982.33,-274.84C1031.56,-255.72 1149.71,-209.82 1206.51,-187.75"/>
<polygon fill="#63b8ff" stroke="#63b8ff" points="1208,-190.93 1216.05,-184.05 1205.46,-184.41 1208,-190.93"/>
</a>
</g>
</g>
<!-- Node28 -->
<g id="Node000028" class="node">
<title>Node28</title>
<g id="a_Node000028"><a xlink:href="../../d4/d3f/value_8h.html" target="_top" xlink:title=" ">
<polygon fill="white" stroke="#666666" points="1016.55,-184 939.55,-184 939.55,-165 1016.55,-165 1016.55,-184"/>
<text text-anchor="middle" x="978.05" y="-172" font-family="Helvetica,sans-Serif" font-size="10.00">type/value.h</text>
</a>
</g>
</g>
<!-- Node23&#45;&gt;Node28 -->
<g id="edge53_Node000023_Node000028" class="edge">
<title>Node23&#45;&gt;Node28</title>
<g id="a_edge53_Node000023_Node000028"><a xlink:title=" ">
<path fill="none" stroke="#63b8ff" d="M961.52,-274.66C964.44,-257.17 971,-217.8 974.92,-194.27"/>
<polygon fill="#63b8ff" stroke="#63b8ff" points="978.42,-194.6 976.61,-184.16 971.51,-193.45 978.42,-194.6"/>
</a>
</g>
</g>
<!-- Node24&#45;&gt;Node10 -->
<g id="edge47_Node000024_Node000010" class="edge">
<title>Node24&#45;&gt;Node10</title>
<g id="a_edge47_Node000024_Node000010"><a xlink:title=" ">
<path fill="none" stroke="#63b8ff" d="M1161.18,-109.66C1165.41,-92.09 1174.95,-52.45 1180.61,-28.95"/>
<polygon fill="#63b8ff" stroke="#63b8ff" points="1184.03,-29.7 1182.97,-19.16 1177.22,-28.06 1184.03,-29.7"/>
</a>
</g>
</g>
<!-- Node24&#45;&gt;Node13 -->
<g id="edge45_Node000024_Node000013" class="edge">
<title>Node24&#45;&gt;Node13</title>
<g id="a_edge45_Node000024_Node000013"><a xlink:title=" ">
<path fill="none" stroke="#63b8ff" d="M1108.23,-110.93C1105.47,-110.6 1102.73,-110.28 1100.05,-110 866.15,-85.21 806.25,-95.79 572.05,-74 560.15,-72.89 547.18,-71.44 535.56,-70.05"/>
<polygon fill="#63b8ff" stroke="#63b8ff" points="535.69,-66.54 525.34,-68.8 534.84,-73.48 535.69,-66.54"/>
</a>
</g>
</g>
<!-- Node25 -->
<g id="Node000025" class="node">
<title>Node25</title>
<g id="a_Node000025"><a xlink:title=" ">
<polygon fill="#e0e0e0" stroke="#999999" points="1119.05,-74 1069.05,-74 1069.05,-55 1119.05,-55 1119.05,-74"/>
<text text-anchor="middle" x="1094.05" y="-62" font-family="Helvetica,sans-Serif" font-size="10.00">chrono</text>
</a>
</g>
</g>
<!-- Node24&#45;&gt;Node25 -->
<g id="edge46_Node000024_Node000025" class="edge">
<title>Node24&#45;&gt;Node25</title>
<g id="a_edge46_Node000024_Node000025"><a xlink:title=" ">
<path fill="none" stroke="#63b8ff" d="M1148.61,-109.98C1138.91,-102.07 1124.24,-90.11 1112.55,-80.58"/>
<polygon fill="#63b8ff" stroke="#63b8ff" points="1114.65,-77.78 1104.68,-74.17 1110.22,-83.2 1114.65,-77.78"/>
</a>
</g>
</g>
<!-- Node26&#45;&gt;Node3 -->
<g id="edge51_Node000026_Node000003" class="edge">
<title>Node26&#45;&gt;Node3</title>
<g id="a_edge51_Node000026_Node000003"><a xlink:title=" ">
<path fill="none" stroke="#63b8ff" d="M1237.42,-164.8C1236.07,-151.67 1231.87,-126.56 1219.05,-110 1190.12,-72.64 1172.57,-70.85 1128.05,-55 1029.11,-19.78 903.34,-12.33 845.2,-10.83"/>
<polygon fill="#63b8ff" stroke="#63b8ff" points="845.23,-7.33 835.16,-10.61 845.08,-14.33 845.23,-7.33"/>
</a>
</g>
</g>
<!-- Node26&#45;&gt;Node10 -->
<g id="edge49_Node000026_Node000010" class="edge">
<title>Node26&#45;&gt;Node10</title>
<g id="a_edge49_Node000026_Node000010"><a xlink:title=" ">
<path fill="none" stroke="#63b8ff" d="M1280.37,-169.56C1330.38,-163.93 1409.11,-151.66 1427.05,-129 1432.29,-122.38 1428.17,-118.37 1427.05,-110 1423.69,-84.89 1430.61,-72.25 1412.05,-55 1384.7,-29.57 1277.25,-17.6 1220.54,-12.96"/>
<polygon fill="#63b8ff" stroke="#63b8ff" points="1220.49,-9.44 1210.24,-12.15 1219.94,-16.42 1220.49,-9.44"/>
</a>
</g>
</g>
<!-- Node26&#45;&gt;Node24 -->
<g id="edge52_Node000026_Node000024" class="edge">
<title>Node26&#45;&gt;Node24</title>
<g id="a_edge52_Node000026_Node000024"><a xlink:title=" ">
<path fill="none" stroke="#63b8ff" d="M1225.36,-164.98C1213.22,-156.84 1194.69,-144.41 1180.31,-134.76"/>
<polygon fill="#63b8ff" stroke="#63b8ff" points="1182.23,-131.84 1171.98,-129.17 1178.33,-137.65 1182.23,-131.84"/>
</a>
</g>
</g>
<!-- Node27 -->
<g id="Node000027" class="node">
<title>Node27</title>
<g id="a_Node000027"><a xlink:title=" ">
<polygon fill="#e0e0e0" stroke="#999999" points="1418.05,-129 1362.05,-129 1362.05,-110 1418.05,-110 1418.05,-129"/>
<text text-anchor="middle" x="1390.05" y="-117" font-family="Helvetica,sans-Serif" font-size="10.00">sstream</text>
</a>
</g>
</g>
<!-- Node26&#45;&gt;Node27 -->
<g id="edge50_Node000026_Node000027" class="edge">
<title>Node26&#45;&gt;Node27</title>
<g id="a_edge50_Node000026_Node000027"><a xlink:title=" ">
<path fill="none" stroke="#63b8ff" d="M1262.47,-164.98C1287.77,-156.16 1327.51,-142.31 1355.91,-132.41"/>
<polygon fill="#63b8ff" stroke="#63b8ff" points="1357.15,-135.68 1365.44,-129.08 1354.84,-129.07 1357.15,-135.68"/>
</a>
</g>
</g>
<!-- Node28&#45;&gt;Node2 -->
<g id="edge55_Node000028_Node000002" class="edge">
<title>Node28&#45;&gt;Node2</title>
<g id="a_edge55_Node000028_Node000002"><a xlink:title=" ">
<path fill="none" stroke="#63b8ff" d="M939.41,-172.88C810.18,-170.54 393.92,-160.66 264.05,-129 243.75,-124.05 240.74,-116.99 221.05,-110 179.47,-95.23 130.47,-82.45 97.13,-74.43"/>
<polygon fill="#63b8ff" stroke="#63b8ff" points="97.85,-71 87.31,-72.09 96.23,-77.81 97.85,-71"/>
</a>
</g>
</g>
<!-- Node28&#45;&gt;Node3 -->
<g id="edge56_Node000028_Node000003" class="edge">
<title>Node28&#45;&gt;Node3</title>
<g id="a_edge56_Node000028_Node000003"><a xlink:title=" ">
<path fill="none" stroke="#63b8ff" d="M976.49,-164.76C972.19,-143.17 958.24,-86.81 925.05,-55 902.98,-33.84 869.61,-22.34 845.04,-16.36"/>
<polygon fill="#63b8ff" stroke="#63b8ff" points="845.63,-12.91 835.1,-14.13 844.09,-19.74 845.63,-12.91"/>
</a>
</g>
</g>
<!-- Node28&#45;&gt;Node6 -->
<g id="edge57_Node000028_Node000006" class="edge">
<title>Node28&#45;&gt;Node6</title>
<g id="a_edge57_Node000028_Node000006"><a xlink:title=" ">
<path fill="none" stroke="#63b8ff" d="M992.51,-164.98C1006.47,-156.77 1027.85,-144.18 1044.3,-134.49"/>
<polygon fill="#63b8ff" stroke="#63b8ff" points="1046.49,-137.26 1053.33,-129.17 1042.94,-131.23 1046.49,-137.26"/>
</a>
</g>
</g>
<!-- Node28&#45;&gt;Node11 -->
<g id="edge58_Node000028_Node000011" class="edge">
<title>Node28&#45;&gt;Node11</title>
<g id="a_edge58_Node000028_Node000011"><a xlink:title=" ">
<path fill="none" stroke="#63b8ff" d="M939.42,-165.28C896.15,-156.07 825.9,-141.11 778.62,-131.05"/>
<polygon fill="#63b8ff" stroke="#63b8ff" points="779.11,-127.58 768.6,-128.92 777.65,-134.42 779.11,-127.58"/>
</a>
</g>
</g>
<!-- Node28&#45;&gt;Node18 -->
<g id="edge64_Node000028_Node000018" class="edge">
<title>Node28&#45;&gt;Node18</title>
<g id="a_edge64_Node000028_Node000018"><a xlink:title=" ">
<path fill="none" stroke="#63b8ff" d="M961.46,-164.84C925.34,-146 839.37,-101.14 796.4,-78.73"/>
<polygon fill="#63b8ff" stroke="#63b8ff" points="797.92,-75.57 787.43,-74.05 794.68,-81.78 797.92,-75.57"/>
</a>
</g>
</g>
<!-- Node29 -->
<g id="Node000029" class="node">
<title>Node29</title>
<g id="a_Node000029"><a xlink:title=" ">
<polygon fill="#e0e0e0" stroke="#999999" points="1027.05,-129 977.05,-129 977.05,-110 1027.05,-110 1027.05,-129"/>
<text text-anchor="middle" x="1002.05" y="-117" font-family="Helvetica,sans-Serif" font-size="10.00">cstring</text>
</a>
</g>
</g>
<!-- Node28&#45;&gt;Node29 -->
<g id="edge54_Node000028_Node000029" class="edge">
<title>Node28&#45;&gt;Node29</title>
<g id="a_edge54_Node000028_Node000029"><a xlink:title=" ">
<path fill="none" stroke="#63b8ff" d="M982.01,-164.75C985.26,-157.57 989.97,-147.18 994.01,-138.27"/>
<polygon fill="#63b8ff" stroke="#63b8ff" points="997.23,-139.64 998.16,-129.09 990.85,-136.75 997.23,-139.64"/>
</a>
</g>
</g>
<!-- Node30 -->
<g id="Node000030" class="node">
<title>Node30</title>
<g id="a_Node000030"><a xlink:href="../../d9/d86/limits_8h.html" target="_top" xlink:title=" ">
<polygon fill="white" stroke="#666666" points="1344.05,-129 1266.05,-129 1266.05,-110 1344.05,-110 1344.05,-129"/>
<text text-anchor="middle" x="1305.05" y="-117" font-family="Helvetica,sans-Serif" font-size="10.00">type/limits.h</text>
</a>
</g>
</g>
<!-- Node28&#45;&gt;Node30 -->
<g id="edge59_Node000028_Node000030" class="edge">
<title>Node28&#45;&gt;Node30</title>
<g id="a_edge59_Node000028_Node000030"><a xlink:title=" ">
<path fill="none" stroke="#63b8ff" d="M1016.85,-167.21C1076.42,-157.56 1190.39,-139.08 1255.74,-128.49"/>
<polygon fill="#63b8ff" stroke="#63b8ff" points="1256.49,-131.92 1265.8,-126.86 1255.37,-125.01 1256.49,-131.92"/>
</a>
</g>
</g>
<!-- Node30&#45;&gt;Node10 -->
<g id="edge62_Node000030_Node000010" class="edge">
<title>Node30&#45;&gt;Node10</title>
<g id="a_edge62_Node000030_Node000010"><a xlink:title=" ">
<path fill="none" stroke="#63b8ff" d="M1337.45,-109.97C1371.15,-99.51 1416.38,-80.06 1396.05,-55 1374.33,-28.22 1274.61,-16.94 1220.39,-12.72"/>
<polygon fill="#63b8ff" stroke="#63b8ff" points="1220.42,-9.21 1210.19,-11.96 1219.91,-16.19 1220.42,-9.21"/>
</a>
</g>
</g>
<!-- Node31 -->
<g id="Node000031" class="node">
<title>Node31</title>
<g id="a_Node000031"><a xlink:title=" ">
<polygon fill="#e0e0e0" stroke="#999999" points="1257.05,-74 1213.05,-74 1213.05,-55 1257.05,-55 1257.05,-74"/>
<text text-anchor="middle" x="1235.05" y="-62" font-family="Helvetica,sans-Serif" font-size="10.00">cfloat</text>
</a>
</g>
</g>
<!-- Node30&#45;&gt;Node31 -->
<g id="edge60_Node000030_Node000031" class="edge">
<title>Node30&#45;&gt;Node31</title>
<g id="a_edge60_Node000030_Node000031"><a xlink:title=" ">
<path fill="none" stroke="#63b8ff" d="M1293.8,-109.98C1283.25,-102 1267.25,-89.88 1254.61,-80.31"/>
<polygon fill="#63b8ff" stroke="#63b8ff" points="1256.59,-77.42 1246.5,-74.17 1252.36,-83 1256.59,-77.42"/>
</a>
</g>
</g>
<!-- Node32 -->
<g id="Node000032" class="node">
<title>Node32</title>
<g id="a_Node000032"><a xlink:title=" ">
<polygon fill="#e0e0e0" stroke="#999999" points="1387.05,-74 1337.05,-74 1337.05,-55 1387.05,-55 1387.05,-74"/>
<text text-anchor="middle" x="1362.05" y="-62" font-family="Helvetica,sans-Serif" font-size="10.00">climits</text>
</a>
</g>
</g>
<!-- Node30&#45;&gt;Node32 -->
<g id="edge61_Node000030_Node000032" class="edge">
<title>Node30&#45;&gt;Node32</title>
<g id="a_edge61_Node000030_Node000032"><a xlink:title=" ">
<path fill="none" stroke="#63b8ff" d="M1314.21,-109.98C1322.55,-102.23 1335.08,-90.58 1345.23,-81.14"/>
<polygon fill="#63b8ff" stroke="#63b8ff" points="1347.79,-83.54 1352.73,-74.17 1343.02,-78.42 1347.79,-83.54"/>
</a>
</g>
</g>
<!-- Node33 -->
<g id="Node000033" class="node">
<title>Node33</title>
<g id="a_Node000033"><a xlink:title=" ">
<polygon fill="#e0e0e0" stroke="#999999" points="1319.05,-74 1275.05,-74 1275.05,-55 1319.05,-55 1319.05,-74"/>
<text text-anchor="middle" x="1297.05" y="-62" font-family="Helvetica,sans-Serif" font-size="10.00">limits</text>
</a>
</g>
</g>
<!-- Node30&#45;&gt;Node33 -->
<g id="edge63_Node000030_Node000033" class="edge">
<title>Node30&#45;&gt;Node33</title>
<g id="a_edge63_Node000030_Node000033"><a xlink:title=" ">
<path fill="none" stroke="#63b8ff" d="M1303.73,-109.75C1302.68,-102.8 1301.18,-92.85 1299.86,-84.13"/>
<polygon fill="#63b8ff" stroke="#63b8ff" points="1303.3,-83.45 1298.35,-74.09 1296.38,-84.5 1303.3,-83.45"/>
</a>
</g>
</g>
</g>
</svg>
