<?xml version="1.0" encoding="UTF-8" standalone="no"?>
<!DOCTYPE svg PUBLIC "-//W3C//DTD SVG 1.1//EN"
 "http://www.w3.org/Graphics/SVG/1.1/DTD/svg11.dtd">
<!-- Generated by graphviz version 2.43.0 (0)
 -->
<!-- Title: src/include/binder/table_ref/bound_join_ref.h Pages: 1 -->
<!--zoomable 258 -->

<svg id="main" version="1.1" xmlns="http://www.w3.org/2000/svg" xmlns:xlink="http://www.w3.org/1999/xlink" xml:space="preserve" onload="init(evt)">
<style type="text/css"><![CDATA[
.node, .edge {opacity: 0.7;}
.node.selected, .edge.selected {opacity: 1;}
.edge:hover path { stroke: red; }
.edge:hover polygon { stroke: red; fill: red; }
]]></style>

<defs>
  <circle id="rim" cx="0" cy="0" r="7"/>
  <circle id="rim2" cx="0" cy="0" r="3.5"/>
  <g id="zoomPlus">
    <use xlink:href="#rim" fill="#404040"><set attributeName="fill" to="#808080" begin="zoomplus.mouseover" end="zoomplus.mouseout"/></use>
    <path d="M-4,0h8M0,-4v8" fill="none" stroke="white" stroke-width="1.5" pointer-events="none"/>
  </g>
  <g id="zoomMin">
    <use xlink:href="#rim" fill="#404040"><set attributeName="fill" to="#808080" begin="zoomminus.mouseover" end="zoomminus.mouseout"/></use>
    <path d="M-4,0h8" fill="none" stroke="white" stroke-width="1.5" pointer-events="none"/>
  </g>
  <g id="arrowUp" transform="translate(30 24)">
    <use xlink:href="#rim"/>
    <path pointer-events="none" fill="none" stroke="white" stroke-width="1.5" d="M0,-3.0v7 M-2.5,-0.5L0,-3.0L2.5,-0.5"/>
  </g>
  <g id="arrowRight" transform="rotate(90) translate(36 -43)">
    <use xlink:href="#rim"/>
    <path pointer-events="none" fill="none" stroke="white" stroke-width="1.5" d="M0,-3.0v7 M-2.5,-0.5L0,-3.0L2.5,-0.5"/>
  </g>
  <g id="arrowDown" transform="rotate(180) translate(-30 -48)">
    <use xlink:href="#rim"/>
    <path pointer-events="none" fill="none" stroke="white" stroke-width="1.5" d="M0,-3.0v7 M-2.5,-0.5L0,-3.0L2.5,-0.5"/>
  </g>
  <g id="arrowLeft" transform="rotate(270) translate(-36 17)">
    <use xlink:href="#rim"/>
    <path pointer-events="none" fill="none" stroke="white" stroke-width="1.5" d="M0,-3.0v7 M-2.5,-0.5L0,-3.0L2.5,-0.5"/>
  </g>
  <g id="resetDef">
    <use xlink:href="#rim2" fill="#404040"><set attributeName="fill" to="#808080" begin="reset.mouseover" end="reset.mouseout"/></use>
  </g>
</defs>
<script type="application/ecmascript">
var viewWidth = 1404;
var viewHeight = 258;
var sectionId = 'dynsection-1';
</script>
<script type="application/ecmascript" xlink:href="../../svg.min.js"/>
<svg id="graph" class="graph">
<g id="viewport">
<title>src/include/binder/table_ref/bound_join_ref.h</title>
<!-- Node1 -->
<g id="Node000001" class="node">
<title>Node1</title>
<g id="a_Node000001"><a xlink:title=" ">
<polygon fill="#999999" stroke="#666666" points="704.5,-250 558.5,-250 558.5,-220 704.5,-220 704.5,-250"/>
<text text-anchor="start" x="566.5" y="-238" font-family="Helvetica,sans-Serif" font-size="10.00">src/include/binder</text>
<text text-anchor="middle" x="631.5" y="-227" font-family="Helvetica,sans-Serif" font-size="10.00">/table_ref/bound_join_ref.h</text>
</a>
</g>
</g>
<!-- Node2 -->
<g id="Node000002" class="node">
<title>Node2</title>
<g id="a_Node000002"><a xlink:href="../../db/d4b/bind__create_8cpp.html" target="_top" xlink:title=" ">
<polygon fill="white" stroke="#666666" points="235,-173 90,-173 90,-154 235,-154 235,-173"/>
<text text-anchor="middle" x="162.5" y="-161" font-family="Helvetica,sans-Serif" font-size="10.00">src/binder/bind_create.cpp</text>
</a>
</g>
</g>
<!-- Node1&#45;&gt;Node2 -->
<g id="edge1_Node000001_Node000002" class="edge">
<title>Node1&#45;&gt;Node2</title>
<g id="a_edge1_Node000001_Node000002"><a xlink:title=" ">
<path fill="none" stroke="#63b8ff" d="M547.83,-225.86C468.98,-217.56 347.7,-203.2 243.5,-184 227.28,-181.01 209.45,-176.82 194.65,-173.09"/>
<polygon fill="#63b8ff" stroke="#63b8ff" points="547.88,-229.38 558.19,-226.94 548.61,-222.42 547.88,-229.38"/>
</a>
</g>
</g>
<!-- Node3 -->
<g id="Node000003" class="node">
<title>Node3</title>
<g id="a_Node000003"><a xlink:href="../../d7/d35/bind__select_8cpp.html" target="_top" xlink:title=" ">
<polygon fill="white" stroke="#666666" points="396,-173 253,-173 253,-154 396,-154 396,-173"/>
<text text-anchor="middle" x="324.5" y="-161" font-family="Helvetica,sans-Serif" font-size="10.00">src/binder/bind_select.cpp</text>
</a>
</g>
</g>
<!-- Node1&#45;&gt;Node3 -->
<g id="edge2_Node000001_Node000003" class="edge">
<title>Node1&#45;&gt;Node3</title>
<g id="a_edge2_Node000001_Node000003"><a xlink:title=" ">
<path fill="none" stroke="#63b8ff" d="M556.05,-217.82C511.83,-208.23 454.93,-195.7 404.5,-184 389.46,-180.51 372.87,-176.5 358.72,-173.02"/>
<polygon fill="#63b8ff" stroke="#63b8ff" points="555.34,-221.25 565.85,-219.94 556.82,-214.41 555.34,-221.25"/>
</a>
</g>
</g>
<!-- Node4 -->
<g id="Node000004" class="node">
<title>Node4</title>
<g id="a_Node000004"><a xlink:href="../../da/d05/nested__loop__join__executor_8cpp.html" target="_top" xlink:title=" ">
<polygon fill="white" stroke="#666666" points="1288,-30 1155,-30 1155,0 1288,0 1288,-30"/>
<text text-anchor="start" x="1163" y="-18" font-family="Helvetica,sans-Serif" font-size="10.00">src/execution/nested</text>
<text text-anchor="middle" x="1221.5" y="-7" font-family="Helvetica,sans-Serif" font-size="10.00">_loop_join_executor.cpp</text>
</a>
</g>
</g>
<!-- Node1&#45;&gt;Node4 -->
<g id="edge3_Node000001_Node000004" class="edge">
<title>Node1&#45;&gt;Node4</title>
<g id="a_edge3_Node000001_Node000004"><a xlink:title=" ">
<path fill="none" stroke="#63b8ff" d="M714.8,-233.2C893.45,-229.51 1303.99,-209.79 1387.5,-107 1398.99,-92.86 1398.37,-80.63 1387.5,-66 1364.7,-35.32 1323.67,-22.77 1288.1,-17.92"/>
<polygon fill="#63b8ff" stroke="#63b8ff" points="714.59,-229.71 704.66,-233.4 714.73,-236.7 714.59,-229.71"/>
</a>
</g>
</g>
<!-- Node5 -->
<g id="Node000005" class="node">
<title>Node5</title>
<g id="a_Node000005"><a xlink:href="../../db/ddb/hash__join__plan_8h.html" target="_top" xlink:title=" ">
<polygon fill="white" stroke="#666666" points="545,-178.5 414,-178.5 414,-148.5 545,-148.5 545,-178.5"/>
<text text-anchor="start" x="422" y="-166.5" font-family="Helvetica,sans-Serif" font-size="10.00">src/include/execution</text>
<text text-anchor="middle" x="479.5" y="-155.5" font-family="Helvetica,sans-Serif" font-size="10.00">/plans/hash_join_plan.h</text>
</a>
</g>
</g>
<!-- Node1&#45;&gt;Node5 -->
<g id="edge4_Node000001_Node000005" class="edge">
<title>Node1&#45;&gt;Node5</title>
<g id="a_edge4_Node000001_Node000005"><a xlink:title=" ">
<path fill="none" stroke="#63b8ff" d="M591.37,-215.65C565.95,-204.03 533.59,-189.23 510.21,-178.54"/>
<polygon fill="#63b8ff" stroke="#63b8ff" points="590.19,-218.96 600.74,-219.94 593.1,-212.59 590.19,-218.96"/>
</a>
</g>
</g>
<!-- Node12 -->
<g id="Node000012" class="node">
<title>Node12</title>
<g id="a_Node000012"><a xlink:href="../../d0/d89/nested__index__join__plan_8h.html" target="_top" xlink:title=" ">
<polygon fill="white" stroke="#666666" points="700,-184 563,-184 563,-143 700,-143 700,-184"/>
<text text-anchor="start" x="571" y="-172" font-family="Helvetica,sans-Serif" font-size="10.00">src/include/execution</text>
<text text-anchor="start" x="571" y="-161" font-family="Helvetica,sans-Serif" font-size="10.00">/plans/nested_index_join</text>
<text text-anchor="middle" x="631.5" y="-150" font-family="Helvetica,sans-Serif" font-size="10.00">_plan.h</text>
</a>
</g>
</g>
<!-- Node1&#45;&gt;Node12 -->
<g id="edge11_Node000001_Node000012" class="edge">
<title>Node1&#45;&gt;Node12</title>
<g id="a_edge11_Node000001_Node000012"><a xlink:title=" ">
<path fill="none" stroke="#63b8ff" d="M631.5,-209.91C631.5,-201.47 631.5,-192.1 631.5,-184.07"/>
<polygon fill="#63b8ff" stroke="#63b8ff" points="628,-209.94 631.5,-219.94 635,-209.94 628,-209.94"/>
</a>
</g>
</g>
<!-- Node15 -->
<g id="Node000015" class="node">
<title>Node15</title>
<g id="a_Node000015"><a xlink:href="../../df/dfd/nested__loop__join__plan_8h.html" target="_top" xlink:title=" ">
<polygon fill="white" stroke="#666666" points="906,-184 775,-184 775,-143 906,-143 906,-184"/>
<text text-anchor="start" x="783" y="-172" font-family="Helvetica,sans-Serif" font-size="10.00">src/include/execution</text>
<text text-anchor="start" x="783" y="-161" font-family="Helvetica,sans-Serif" font-size="10.00">/plans/nested_loop_join</text>
<text text-anchor="middle" x="840.5" y="-150" font-family="Helvetica,sans-Serif" font-size="10.00">_plan.h</text>
</a>
</g>
</g>
<!-- Node1&#45;&gt;Node15 -->
<g id="edge16_Node000001_Node000015" class="edge">
<title>Node1&#45;&gt;Node15</title>
<g id="a_edge16_Node000001_Node000015"><a xlink:title=" ">
<path fill="none" stroke="#63b8ff" d="M683.58,-216.68C713.36,-206.78 750.8,-194.33 781.64,-184.07"/>
<polygon fill="#63b8ff" stroke="#63b8ff" points="682.18,-213.46 673.79,-219.94 684.39,-220.1 682.18,-213.46"/>
</a>
</g>
</g>
<!-- Node20 -->
<g id="Node000020" class="node">
<title>Node20</title>
<g id="a_Node000020"><a xlink:href="../../d8/d40/plan__table__ref_8cpp.html" target="_top" xlink:title=" ">
<polygon fill="white" stroke="#666666" points="1378,-101.5 1253,-101.5 1253,-71.5 1378,-71.5 1378,-101.5"/>
<text text-anchor="start" x="1261" y="-89.5" font-family="Helvetica,sans-Serif" font-size="10.00">src/planner/plan_table</text>
<text text-anchor="middle" x="1315.5" y="-78.5" font-family="Helvetica,sans-Serif" font-size="10.00">_ref.cpp</text>
</a>
</g>
</g>
<!-- Node1&#45;&gt;Node20 -->
<g id="edge26_Node000001_Node000020" class="edge">
<title>Node1&#45;&gt;Node20</title>
<g id="a_edge26_Node000001_Node000020"><a xlink:title=" ">
<path fill="none" stroke="#63b8ff" d="M714.67,-220.62C771.41,-211.19 848.19,-197.82 915.5,-184 1062.18,-153.9 1098.32,-143.69 1243.5,-107 1250.28,-105.29 1257.4,-103.43 1264.42,-101.56"/>
<polygon fill="#63b8ff" stroke="#63b8ff" points="713.97,-217.19 704.68,-222.28 715.11,-224.1 713.97,-217.19"/>
</a>
</g>
</g>
<!-- Node6 -->
<g id="Node000006" class="node">
<title>Node6</title>
<g id="a_Node000006"><a xlink:href="../../dd/def/execution_2fmt__impl_8cpp.html" target="_top" xlink:title=" ">
<polygon fill="white" stroke="#666666" points="286,-96 137,-96 137,-77 286,-77 286,-96"/>
<text text-anchor="middle" x="211.5" y="-84" font-family="Helvetica,sans-Serif" font-size="10.00">src/execution/fmt_impl.cpp</text>
</a>
</g>
</g>
<!-- Node5&#45;&gt;Node6 -->
<g id="edge5_Node000005_Node000006" class="edge">
<title>Node5&#45;&gt;Node6</title>
<g id="a_edge5_Node000005_Node000006"><a xlink:title=" ">
<path fill="none" stroke="#63b8ff" d="M419.77,-145.78C364.74,-130.38 285.28,-108.15 242.15,-96.08"/>
<polygon fill="#63b8ff" stroke="#63b8ff" points="418.83,-149.16 429.41,-148.48 420.72,-142.42 418.83,-149.16"/>
</a>
</g>
</g>
<!-- Node7 -->
<g id="Node000007" class="node">
<title>Node7</title>
<g id="a_Node000007"><a xlink:href="../../d2/d22/hash__join__executor_8h.html" target="_top" xlink:title=" ">
<polygon fill="white" stroke="#666666" points="119,-107 0,-107 0,-66 119,-66 119,-107"/>
<text text-anchor="start" x="8" y="-95" font-family="Helvetica,sans-Serif" font-size="10.00">src/include/execution</text>
<text text-anchor="start" x="8" y="-84" font-family="Helvetica,sans-Serif" font-size="10.00">/executors/hash_join</text>
<text text-anchor="middle" x="59.5" y="-73" font-family="Helvetica,sans-Serif" font-size="10.00">_executor.h</text>
</a>
</g>
</g>
<!-- Node5&#45;&gt;Node7 -->
<g id="edge6_Node000005_Node000007" class="edge">
<title>Node5&#45;&gt;Node7</title>
<g id="a_edge6_Node000005_Node000007"><a xlink:title=" ">
<path fill="none" stroke="#63b8ff" d="M418.91,-146.06C414.05,-144.95 409.21,-143.91 404.5,-143 282.63,-119.33 249.07,-132.18 127.5,-107 124.73,-106.43 121.92,-105.8 119.08,-105.13"/>
<polygon fill="#63b8ff" stroke="#63b8ff" points="418.33,-149.52 428.86,-148.42 419.94,-142.71 418.33,-149.52"/>
</a>
</g>
</g>
<!-- Node10 -->
<g id="Node000010" class="node">
<title>Node10</title>
<g id="a_Node000010"><a xlink:href="../../d5/d99/nlj__as__hash__join_8cpp.html" target="_top" xlink:title=" ">
<polygon fill="white" stroke="#666666" points="415.5,-101.5 303.5,-101.5 303.5,-71.5 415.5,-71.5 415.5,-101.5"/>
<text text-anchor="start" x="311.5" y="-89.5" font-family="Helvetica,sans-Serif" font-size="10.00">src/optimizer/nlj_as</text>
<text text-anchor="middle" x="359.5" y="-78.5" font-family="Helvetica,sans-Serif" font-size="10.00">_hash_join.cpp</text>
</a>
</g>
</g>
<!-- Node5&#45;&gt;Node10 -->
<g id="edge9_Node000005_Node000010" class="edge">
<title>Node5&#45;&gt;Node10</title>
<g id="a_edge9_Node000005_Node000010"><a xlink:title=" ">
<path fill="none" stroke="#63b8ff" d="M448.43,-143.08C427.62,-130.08 400.71,-113.26 381.97,-101.54"/>
<polygon fill="#63b8ff" stroke="#63b8ff" points="446.59,-146.06 456.93,-148.39 450.3,-140.13 446.59,-146.06"/>
</a>
</g>
</g>
<!-- Node11 -->
<g id="Node000011" class="node">
<title>Node11</title>
<g id="a_Node000011"><a xlink:href="../../d0/de1/nlj__as__index__join_8cpp.html" target="_top" xlink:title=" ">
<polygon fill="white" stroke="#666666" points="545.5,-101.5 433.5,-101.5 433.5,-71.5 545.5,-71.5 545.5,-101.5"/>
<text text-anchor="start" x="441.5" y="-89.5" font-family="Helvetica,sans-Serif" font-size="10.00">src/optimizer/nlj_as</text>
<text text-anchor="middle" x="489.5" y="-78.5" font-family="Helvetica,sans-Serif" font-size="10.00">_index_join.cpp</text>
</a>
</g>
</g>
<!-- Node5&#45;&gt;Node11 -->
<g id="edge10_Node000005_Node000011" class="edge">
<title>Node5&#45;&gt;Node11</title>
<g id="a_edge10_Node000005_Node000011"><a xlink:title=" ">
<path fill="none" stroke="#63b8ff" d="M482.71,-138.41C484.33,-126.24 486.25,-111.9 487.63,-101.54"/>
<polygon fill="#63b8ff" stroke="#63b8ff" points="479.23,-138.02 481.38,-148.39 486.17,-138.94 479.23,-138.02"/>
</a>
</g>
</g>
<!-- Node8 -->
<g id="Node000008" class="node">
<title>Node8</title>
<g id="a_Node000008"><a xlink:href="../../d3/d3e/executor__factory_8cpp.html" target="_top" xlink:title=" ">
<polygon fill="white" stroke="#666666" points="769.5,-30 643.5,-30 643.5,0 769.5,0 769.5,-30"/>
<text text-anchor="start" x="651.5" y="-18" font-family="Helvetica,sans-Serif" font-size="10.00">src/execution/executor</text>
<text text-anchor="middle" x="706.5" y="-7" font-family="Helvetica,sans-Serif" font-size="10.00">_factory.cpp</text>
</a>
</g>
</g>
<!-- Node7&#45;&gt;Node8 -->
<g id="edge7_Node000007_Node000008" class="edge">
<title>Node7&#45;&gt;Node8</title>
<g id="a_edge7_Node000007_Node000008"><a xlink:title=" ">
<path fill="none" stroke="#63b8ff" d="M129.06,-65.91C351.31,-27.65 413.23,-58.85 633.5,-30 636.7,-29.58 639.97,-29.11 643.27,-28.6"/>
<polygon fill="#63b8ff" stroke="#63b8ff" points="128.29,-62.5 119.04,-67.67 129.49,-69.39 128.29,-62.5"/>
</a>
</g>
</g>
<!-- Node9 -->
<g id="Node000009" class="node">
<title>Node9</title>
<g id="a_Node000009"><a xlink:href="../../db/d61/hash__join__executor_8cpp.html" target="_top" xlink:title=" ">
<polygon fill="white" stroke="#666666" points="113,-30 6,-30 6,0 113,0 113,-30"/>
<text text-anchor="start" x="14" y="-18" font-family="Helvetica,sans-Serif" font-size="10.00">src/execution/hash</text>
<text text-anchor="middle" x="59.5" y="-7" font-family="Helvetica,sans-Serif" font-size="10.00">_join_executor.cpp</text>
</a>
</g>
</g>
<!-- Node7&#45;&gt;Node9 -->
<g id="edge8_Node000007_Node000009" class="edge">
<title>Node7&#45;&gt;Node9</title>
<g id="a_edge8_Node000007_Node000009"><a xlink:title=" ">
<path fill="none" stroke="#63b8ff" d="M59.5,-55.66C59.5,-46.76 59.5,-37.42 59.5,-30.04"/>
<polygon fill="#63b8ff" stroke="#63b8ff" points="56,-55.77 59.5,-65.77 63,-55.77 56,-55.77"/>
</a>
</g>
</g>
<!-- Node12&#45;&gt;Node11 -->
<g id="edge15_Node000012_Node000011" class="edge">
<title>Node12&#45;&gt;Node11</title>
<g id="a_edge15_Node000012_Node000011"><a xlink:title=" ">
<path fill="none" stroke="#63b8ff" d="M585.69,-138.3C562.8,-126.22 535.91,-112.01 516.39,-101.7"/>
<polygon fill="#63b8ff" stroke="#63b8ff" points="584.08,-141.41 594.56,-142.99 587.35,-135.23 584.08,-141.41"/>
</a>
</g>
</g>
<!-- Node13 -->
<g id="Node000013" class="node">
<title>Node13</title>
<g id="a_Node000013"><a xlink:href="../../d7/dc2/nested__index__join__executor_8h.html" target="_top" xlink:title=" ">
<polygon fill="white" stroke="#666666" points="699,-107 564,-107 564,-66 699,-66 699,-107"/>
<text text-anchor="start" x="572" y="-95" font-family="Helvetica,sans-Serif" font-size="10.00">src/include/execution</text>
<text text-anchor="start" x="572" y="-84" font-family="Helvetica,sans-Serif" font-size="10.00">/executors/nested_index</text>
<text text-anchor="middle" x="631.5" y="-73" font-family="Helvetica,sans-Serif" font-size="10.00">_join_executor.h</text>
</a>
</g>
</g>
<!-- Node12&#45;&gt;Node13 -->
<g id="edge12_Node000012_Node000013" class="edge">
<title>Node12&#45;&gt;Node13</title>
<g id="a_edge12_Node000012_Node000013"><a xlink:title=" ">
<path fill="none" stroke="#63b8ff" d="M631.5,-132.69C631.5,-124.08 631.5,-114.9 631.5,-107.07"/>
<polygon fill="#63b8ff" stroke="#63b8ff" points="628,-132.79 631.5,-142.79 635,-132.79 628,-132.79"/>
</a>
</g>
</g>
<!-- Node13&#45;&gt;Node8 -->
<g id="edge13_Node000013_Node000008" class="edge">
<title>Node13&#45;&gt;Node8</title>
<g id="a_edge13_Node000013_Node000008"><a xlink:title=" ">
<path fill="none" stroke="#63b8ff" d="M660.28,-58.83C670.86,-49.02 682.43,-38.3 691.35,-30.04"/>
<polygon fill="#63b8ff" stroke="#63b8ff" points="657.75,-56.41 652.79,-65.77 662.51,-61.54 657.75,-56.41"/>
</a>
</g>
</g>
<!-- Node14 -->
<g id="Node000014" class="node">
<title>Node14</title>
<g id="a_Node000014"><a xlink:href="../../d5/dbd/nested__index__join__executor_8cpp.html" target="_top" xlink:title=" ">
<polygon fill="white" stroke="#666666" points="625,-30 486,-30 486,0 625,0 625,-30"/>
<text text-anchor="start" x="494" y="-18" font-family="Helvetica,sans-Serif" font-size="10.00">src/execution/nested</text>
<text text-anchor="middle" x="555.5" y="-7" font-family="Helvetica,sans-Serif" font-size="10.00">_index_join_executor.cpp</text>
</a>
</g>
</g>
<!-- Node13&#45;&gt;Node14 -->
<g id="edge14_Node000013_Node000014" class="edge">
<title>Node13&#45;&gt;Node14</title>
<g id="a_edge14_Node000013_Node000014"><a xlink:title=" ">
<path fill="none" stroke="#63b8ff" d="M602.34,-58.83C591.61,-49.02 579.89,-38.3 570.85,-30.04"/>
<polygon fill="#63b8ff" stroke="#63b8ff" points="600.18,-61.6 609.92,-65.77 604.91,-56.44 600.18,-61.6"/>
</a>
</g>
</g>
<!-- Node15&#45;&gt;Node10 -->
<g id="edge22_Node000015_Node000010" class="edge">
<title>Node15&#45;&gt;Node10</title>
<g id="a_edge22_Node000015_Node000010"><a xlink:title=" ">
<path fill="none" stroke="#63b8ff" d="M764.67,-151.03C746.3,-148.32 726.7,-145.5 708.5,-143 582.45,-125.7 548.97,-133.37 424.5,-107 417.35,-105.49 409.86,-103.56 402.6,-101.51"/>
<polygon fill="#63b8ff" stroke="#63b8ff" points="764.33,-154.51 774.74,-152.51 765.36,-147.59 764.33,-154.51"/>
</a>
</g>
</g>
<!-- Node15&#45;&gt;Node11 -->
<g id="edge23_Node000015_Node000011" class="edge">
<title>Node15&#45;&gt;Node11</title>
<g id="a_edge23_Node000015_Node000011"><a xlink:title=" ">
<path fill="none" stroke="#63b8ff" d="M764.61,-149.9C706.72,-139.78 625.15,-124.41 554.5,-107 547.87,-105.37 540.9,-103.47 534.1,-101.52"/>
<polygon fill="#63b8ff" stroke="#63b8ff" points="764.33,-153.4 774.78,-151.67 765.53,-146.51 764.33,-153.4"/>
</a>
</g>
</g>
<!-- Node16 -->
<g id="Node000016" class="node">
<title>Node16</title>
<g id="a_Node000016"><a xlink:href="../../dc/dbe/plan__node_8cpp.html" target="_top" xlink:title=" ">
<polygon fill="white" stroke="#666666" points="822,-101.5 717,-101.5 717,-71.5 822,-71.5 822,-101.5"/>
<text text-anchor="start" x="725" y="-89.5" font-family="Helvetica,sans-Serif" font-size="10.00">src/execution/plan</text>
<text text-anchor="middle" x="769.5" y="-78.5" font-family="Helvetica,sans-Serif" font-size="10.00">_node.cpp</text>
</a>
</g>
</g>
<!-- Node15&#45;&gt;Node16 -->
<g id="edge17_Node000015_Node000016" class="edge">
<title>Node15&#45;&gt;Node16</title>
<g id="a_edge17_Node000015_Node000016"><a xlink:title=" ">
<path fill="none" stroke="#63b8ff" d="M814.7,-135.24C804,-123.94 792.03,-111.3 783.1,-101.86"/>
<polygon fill="#63b8ff" stroke="#63b8ff" points="812.43,-137.94 821.85,-142.79 817.51,-133.13 812.43,-137.94"/>
</a>
</g>
</g>
<!-- Node17 -->
<g id="Node000017" class="node">
<title>Node17</title>
<g id="a_Node000017"><a xlink:href="../../da/d3a/nested__loop__join__executor_8h.html" target="_top" xlink:title=" ">
<polygon fill="white" stroke="#666666" points="1102,-107 973,-107 973,-66 1102,-66 1102,-107"/>
<text text-anchor="start" x="981" y="-95" font-family="Helvetica,sans-Serif" font-size="10.00">src/include/execution</text>
<text text-anchor="start" x="981" y="-84" font-family="Helvetica,sans-Serif" font-size="10.00">/executors/nested_loop</text>
<text text-anchor="middle" x="1037.5" y="-73" font-family="Helvetica,sans-Serif" font-size="10.00">_join_executor.h</text>
</a>
</g>
</g>
<!-- Node15&#45;&gt;Node17 -->
<g id="edge18_Node000015_Node000017" class="edge">
<title>Node15&#45;&gt;Node17</title>
<g id="a_edge18_Node000015_Node000017"><a xlink:title=" ">
<path fill="none" stroke="#63b8ff" d="M901.17,-139.4C928.39,-129.04 960.15,-116.95 986.17,-107.04"/>
<polygon fill="#63b8ff" stroke="#63b8ff" points="899.85,-136.16 891.75,-142.99 902.34,-142.7 899.85,-136.16"/>
</a>
</g>
</g>
<!-- Node18 -->
<g id="Node000018" class="node">
<title>Node18</title>
<g id="a_Node000018"><a xlink:href="../../dc/d4f/merge__filter__nlj_8cpp.html" target="_top" xlink:title=" ">
<polygon fill="white" stroke="#666666" points="955,-101.5 840,-101.5 840,-71.5 955,-71.5 955,-101.5"/>
<text text-anchor="start" x="848" y="-89.5" font-family="Helvetica,sans-Serif" font-size="10.00">src/optimizer/merge</text>
<text text-anchor="middle" x="897.5" y="-78.5" font-family="Helvetica,sans-Serif" font-size="10.00">_filter_nlj.cpp</text>
</a>
</g>
</g>
<!-- Node15&#45;&gt;Node18 -->
<g id="edge21_Node000015_Node000018" class="edge">
<title>Node15&#45;&gt;Node18</title>
<g id="a_edge21_Node000015_Node000018"><a xlink:title=" ">
<path fill="none" stroke="#63b8ff" d="M861.71,-134.59C870.17,-123.46 879.55,-111.12 886.59,-101.86"/>
<polygon fill="#63b8ff" stroke="#63b8ff" points="858.74,-132.72 855.48,-142.79 864.31,-136.95 858.74,-132.72"/>
</a>
</g>
</g>
<!-- Node19 -->
<g id="Node000019" class="node">
<title>Node19</title>
<g id="a_Node000019"><a xlink:href="../../d9/db2/order__by__index__scan_8cpp.html" target="_top" xlink:title=" ">
<polygon fill="white" stroke="#666666" points="1234.5,-101.5 1120.5,-101.5 1120.5,-71.5 1234.5,-71.5 1234.5,-101.5"/>
<text text-anchor="start" x="1128.5" y="-89.5" font-family="Helvetica,sans-Serif" font-size="10.00">src/optimizer/order</text>
<text text-anchor="middle" x="1177.5" y="-78.5" font-family="Helvetica,sans-Serif" font-size="10.00">_by_index_scan.cpp</text>
</a>
</g>
</g>
<!-- Node15&#45;&gt;Node19 -->
<g id="edge24_Node000015_Node000019" class="edge">
<title>Node15&#45;&gt;Node19</title>
<g id="a_edge24_Node000015_Node000019"><a xlink:title=" ">
<path fill="none" stroke="#63b8ff" d="M915.96,-148.84C970.54,-138.52 1045.92,-123.37 1111.5,-107 1118.11,-105.35 1125.04,-103.47 1131.84,-101.54"/>
<polygon fill="#63b8ff" stroke="#63b8ff" points="915.19,-145.42 906.01,-150.7 916.49,-152.3 915.19,-145.42"/>
</a>
</g>
</g>
<!-- Node15&#45;&gt;Node20 -->
<g id="edge25_Node000015_Node000020" class="edge">
<title>Node15&#45;&gt;Node20</title>
<g id="a_edge25_Node000015_Node000020"><a xlink:title=" ">
<path fill="none" stroke="#63b8ff" d="M916.35,-154.98C997.72,-146.23 1130.51,-129.98 1243.5,-107 1251.11,-105.45 1259.11,-103.56 1266.9,-101.56"/>
<polygon fill="#63b8ff" stroke="#63b8ff" points="915.77,-151.52 906.2,-156.06 916.51,-158.48 915.77,-151.52"/>
</a>
</g>
</g>
<!-- Node17&#45;&gt;Node4 -->
<g id="edge20_Node000017_Node000004" class="edge">
<title>Node17&#45;&gt;Node4</title>
<g id="a_edge20_Node000017_Node000004"><a xlink:title=" ">
<path fill="none" stroke="#63b8ff" d="M1098.68,-62.39C1127.06,-51.67 1159.86,-39.28 1184.42,-30"/>
<polygon fill="#63b8ff" stroke="#63b8ff" points="1097.36,-59.15 1089.24,-65.96 1099.84,-65.7 1097.36,-59.15"/>
</a>
</g>
</g>
<!-- Node17&#45;&gt;Node8 -->
<g id="edge19_Node000017_Node000008" class="edge">
<title>Node17&#45;&gt;Node8</title>
<g id="a_edge19_Node000017_Node000008"><a xlink:title=" ">
<path fill="none" stroke="#63b8ff" d="M962.65,-65.64C891.55,-49.49 819.62,-35.94 769.58,-26.96"/>
<polygon fill="#63b8ff" stroke="#63b8ff" points="962.15,-69.11 972.68,-67.93 963.71,-62.29 962.15,-69.11"/>
</a>
</g>
</g>
</g>
</svg>

<g id="navigator" transform="translate(0 0)" fill="#404254">
  <rect fill="#f2f5e9" fill-opacity="0.5" stroke="#606060" stroke-width=".5" x="0" y="0" width="60" height="60"/>
  <use id="zoomplus" xlink:href="#zoomPlus" x="17" y="9" onmousedown="handleZoom(evt,'in')"/>
  <use id="zoomminus" xlink:href="#zoomMin" x="42" y="9" onmousedown="handleZoom(evt,'out')"/>
  <use id="reset" xlink:href="#resetDef" x="30" y="36" onmousedown="handleReset()"/>
   <use id="arrowup" xlink:href="#arrowUp" x="0" y="0" onmousedown="handlePan(0,-1)"/>
  <use id="arrowright" xlink:href="#arrowRight" x="0" y="0" onmousedown="handlePan(1,0)"/>
  <use id="arrowdown" xlink:href="#arrowDown" x="0" y="0" onmousedown="handlePan(0,1)"/>
  <use id="arrowleft" xlink:href="#arrowLeft" x="0" y="0" onmousedown="handlePan(-1,0)"/>
</g>
<svg viewBox="0 0 15 15" width="100%" height="30px" preserveAspectRatio="xMaxYMin meet">
 <g id="arrow_out" transform="scale(0.3 0.3)">
  <a xlink:href="bound__join__ref_8h__dep__incl_org.svg" target="_base">
   <rect id="button" ry="5" rx="5" y="6" x="6" height="38" width="38"
        fill="#f2f5e9" fill-opacity="0.5" stroke="#606060" stroke-width="1.0"/>
   <path id="arrow"
     d="M 11.500037,31.436501 C 11.940474,20.09759 22.043105,11.32322 32.158766,21.979434 L 37.068811,17.246167 C 37.068811,17.246167 37.088388,32 37.088388,32 L 22.160133,31.978069 C 22.160133,31.978069 26.997745,27.140456 26.997745,27.140456 C 18.528582,18.264221 13.291696,25.230495 11.500037,31.436501 z"
     style="fill:#404040;"/>
  </a>
 </g>
</svg>

<style type='text/css'>
<![CDATA[
[data-mouse-over-selected='false'] { opacity: 0.7; }
[data-mouse-over-selected='true']  { opacity: 1.0; }
]]>
</style>
<script type="application/ecmascript"><![CDATA[
document.addEventListener('DOMContentLoaded', (event) => {
  highlightEdges();
  highlightAdjacentNodes();
});
]]></script>
</svg>
