<?xml version="1.0" encoding="UTF-8" standalone="no"?>
<!DOCTYPE svg PUBLIC "-//W3C//DTD SVG 1.1//EN"
 "http://www.w3.org/Graphics/SVG/1.1/DTD/svg11.dtd">
<!-- Generated by graphviz version 2.43.0 (0)
 -->
<!-- Title: bustub::TimestampType Pages: 1 -->
<svg width="174pt" height="83pt"
 viewBox="0.00 0.00 174.00 83.00" xmlns="http://www.w3.org/2000/svg" xmlns:xlink="http://www.w3.org/1999/xlink">
<g id="graph0" class="graph" transform="scale(1 1) rotate(0) translate(4 79)">
<title>bustub::TimestampType</title>
<!-- Node1 -->
<g id="Node000001" class="node">
<title>Node1</title>
<g id="a_Node000001"><a xlink:title=" ">
<polygon fill="#999999" stroke="#666666" points="134,-19 0,-19 0,0 134,0 134,-19"/>
<text text-anchor="middle" x="67" y="-7" font-family="Helvetica,sans-Serif" font-size="10.00">bustub::TimestampType</text>
</a>
</g>
</g>
<!-- Node2 -->
<g id="Node000002" class="node">
<title>Node2</title>
<g id="a_Node000002"><a xlink:href="../../d9/df4/classbustub_1_1Type.html" target="_top" xlink:title=" ">
<polygon fill="white" stroke="#666666" points="106,-75 28,-75 28,-56 106,-56 106,-75"/>
<text text-anchor="middle" x="67" y="-63" font-family="Helvetica,sans-Serif" font-size="10.00">bustub::Type</text>
</a>
</g>
</g>
<!-- Node2&#45;&gt;Node1 -->
<g id="edge1_Node000001_Node000002" class="edge">
<title>Node2&#45;&gt;Node1</title>
<g id="a_edge1_Node000001_Node000002"><a xlink:title=" ">
<path fill="none" stroke="#63b8ff" d="M67,-45.3C67,-36.41 67,-26.28 67,-19.25"/>
<polygon fill="#63b8ff" stroke="#63b8ff" points="63.5,-45.58 67,-55.58 70.5,-45.58 63.5,-45.58"/>
</a>
</g>
</g>
<!-- Node2&#45;&gt;Node2 -->
<g id="edge2_Node000002_Node000002" class="edge">
<title>Node2&#45;&gt;Node2</title>
<g id="a_edge2_Node000002_Node000002"><a xlink:title=" ">
<path fill="none" stroke="#9a32cd" stroke-dasharray="5,2" d="M116.28,-69.74C121,-68.88 124,-67.47 124,-65.5 124,-62.36 116.33,-60.62 106.16,-60.3"/>
<polygon fill="#9a32cd" stroke="#9a32cd" points="115.79,-66.27 106.16,-70.7 116.45,-73.24 115.79,-66.27"/>
</a>
</g>
<text text-anchor="middle" x="145" y="-63" font-family="Helvetica,sans-Serif" font-size="10.00" fill="grey"> k_types</text>
</g>
</g>
</svg>
