<?xml version="1.0" encoding="UTF-8" standalone="no"?>
<!DOCTYPE svg PUBLIC "-//W3C//DTD SVG 1.1//EN"
 "http://www.w3.org/Graphics/SVG/1.1/DTD/svg11.dtd">
<!-- Generated by graphviz version 2.43.0 (0)
 -->
<!-- Title: src/include/execution/expressions/abstract_expression.h Pages: 1 -->
<svg width="1457pt" height="379pt"
 viewBox="0.00 0.00 1457.00 379.00" xmlns="http://www.w3.org/2000/svg" xmlns:xlink="http://www.w3.org/1999/xlink">
<g id="graph0" class="graph" transform="scale(1 1) rotate(0) translate(4 375)">
<title>src/include/execution/expressions/abstract_expression.h</title>
<!-- Node1 -->
<g id="Node000001" class="node">
<title>Node1</title>
<g id="a_Node000001"><a xlink:title=" ">
<polygon fill="#999999" stroke="#666666" points="819.5,-371 698.5,-371 698.5,-330 819.5,-330 819.5,-371"/>
<text text-anchor="start" x="706.5" y="-359" font-family="Helvetica,sans-Serif" font-size="10.00">src/include/execution</text>
<text text-anchor="start" x="706.5" y="-348" font-family="Helvetica,sans-Serif" font-size="10.00">/expressions/abstract</text>
<text text-anchor="middle" x="759" y="-337" font-family="Helvetica,sans-Serif" font-size="10.00">_expression.h</text>
</a>
</g>
</g>
<!-- Node2 -->
<g id="Node000002" class="node">
<title>Node2</title>
<g id="a_Node000002"><a xlink:title=" ">
<polygon fill="#e0e0e0" stroke="#999999" points="361,-74 303,-74 303,-55 361,-55 361,-74"/>
<text text-anchor="middle" x="332" y="-62" font-family="Helvetica,sans-Serif" font-size="10.00">memory</text>
</a>
</g>
</g>
<!-- Node1&#45;&gt;Node2 -->
<g id="edge1_Node000001_Node000002" class="edge">
<title>Node1&#45;&gt;Node2</title>
<g id="a_edge1_Node000001_Node000002"><a xlink:title=" ">
<path fill="none" stroke="#63b8ff" d="M698.49,-346.37C518.68,-336.28 0,-301.07 0,-230.5 0,-230.5 0,-230.5 0,-173.5 0,-108.4 70.49,-131.32 132,-110 135.83,-108.67 235.89,-86.61 292.99,-74.06"/>
<polygon fill="#63b8ff" stroke="#63b8ff" points="293.77,-77.47 302.78,-71.91 292.27,-70.64 293.77,-77.47"/>
</a>
</g>
</g>
<!-- Node3 -->
<g id="Node000003" class="node">
<title>Node3</title>
<g id="a_Node000003"><a xlink:title=" ">
<polygon fill="#e0e0e0" stroke="#999999" points="901,-19 857,-19 857,0 901,0 901,-19"/>
<text text-anchor="middle" x="879" y="-7" font-family="Helvetica,sans-Serif" font-size="10.00">string</text>
</a>
</g>
</g>
<!-- Node1&#45;&gt;Node3 -->
<g id="edge2_Node000001_Node000003" class="edge">
<title>Node1&#45;&gt;Node3</title>
<g id="a_edge2_Node000001_Node000003"><a xlink:title=" ">
<path fill="none" stroke="#63b8ff" d="M819.63,-345.41C988,-333.23 1449,-294.09 1449,-230.5 1449,-230.5 1449,-230.5 1449,-118.5 1449,-83.91 1434.03,-72.17 1404,-55 1361.25,-30.55 1018.9,-15.75 911.27,-11.66"/>
<polygon fill="#63b8ff" stroke="#63b8ff" points="911.15,-8.15 901.03,-11.28 910.89,-15.15 911.15,-8.15"/>
</a>
</g>
</g>
<!-- Node4 -->
<g id="Node000004" class="node">
<title>Node4</title>
<g id="a_Node000004"><a xlink:title=" ">
<polygon fill="#e0e0e0" stroke="#999999" points="666.5,-129 621.5,-129 621.5,-110 666.5,-110 666.5,-129"/>
<text text-anchor="middle" x="644" y="-117" font-family="Helvetica,sans-Serif" font-size="10.00">utility</text>
</a>
</g>
</g>
<!-- Node1&#45;&gt;Node4 -->
<g id="edge3_Node000001_Node000004" class="edge">
<title>Node1&#45;&gt;Node4</title>
<g id="a_edge3_Node000001_Node000004"><a xlink:title=" ">
<path fill="none" stroke="#63b8ff" d="M739.42,-329.85C730.02,-319.72 719.08,-306.83 711,-294 678.51,-242.44 657.51,-172.59 648.72,-139.46"/>
<polygon fill="#63b8ff" stroke="#63b8ff" points="652,-138.17 646.12,-129.35 645.22,-139.91 652,-138.17"/>
</a>
</g>
</g>
<!-- Node5 -->
<g id="Node000005" class="node">
<title>Node5</title>
<g id="a_Node000005"><a xlink:title=" ">
<polygon fill="#e0e0e0" stroke="#999999" points="888.5,-184 841.5,-184 841.5,-165 888.5,-165 888.5,-184"/>
<text text-anchor="middle" x="865" y="-172" font-family="Helvetica,sans-Serif" font-size="10.00">vector</text>
</a>
</g>
</g>
<!-- Node1&#45;&gt;Node5 -->
<g id="edge4_Node000001_Node000005" class="edge">
<title>Node1&#45;&gt;Node5</title>
<g id="a_edge4_Node000001_Node000005"><a xlink:title=" ">
<path fill="none" stroke="#63b8ff" d="M770.95,-329.88C791.76,-295.73 834.31,-225.89 854.24,-193.16"/>
<polygon fill="#63b8ff" stroke="#63b8ff" points="857.44,-194.64 859.65,-184.27 851.46,-190.99 857.44,-194.64"/>
</a>
</g>
</g>
<!-- Node6 -->
<g id="Node000006" class="node">
<title>Node6</title>
<g id="a_Node000006"><a xlink:href="../../d7/de3/schema_8h.html" target="_top" xlink:title=" ">
<polygon fill="white" stroke="#666666" points="810.5,-239 707.5,-239 707.5,-220 810.5,-220 810.5,-239"/>
<text text-anchor="middle" x="759" y="-227" font-family="Helvetica,sans-Serif" font-size="10.00">catalog/schema.h</text>
</a>
</g>
</g>
<!-- Node1&#45;&gt;Node6 -->
<g id="edge5_Node000001_Node000006" class="edge">
<title>Node1&#45;&gt;Node6</title>
<g id="a_edge5_Node000001_Node000006"><a xlink:title=" ">
<path fill="none" stroke="#63b8ff" d="M759,-329.85C759,-307.48 759,-271.19 759,-249.21"/>
<polygon fill="#63b8ff" stroke="#63b8ff" points="762.5,-249.18 759,-239.18 755.5,-249.18 762.5,-249.18"/>
</a>
</g>
</g>
<!-- Node10 -->
<g id="Node000010" class="node">
<title>Node10</title>
<g id="a_Node000010"><a xlink:title=" ">
<polygon fill="#e0e0e0" stroke="#999999" points="763.5,-129 684.5,-129 684.5,-110 763.5,-110 763.5,-129"/>
<text text-anchor="middle" x="724" y="-117" font-family="Helvetica,sans-Serif" font-size="10.00">fmt/format.h</text>
</a>
</g>
</g>
<!-- Node1&#45;&gt;Node10 -->
<g id="edge35_Node000001_Node000010" class="edge">
<title>Node1&#45;&gt;Node10</title>
<g id="a_edge35_Node000001_Node000010"><a xlink:title=" ">
<path fill="none" stroke="#63b8ff" d="M745.13,-329.83C725.23,-300.01 690.09,-240.79 682,-184 680.81,-175.64 678.88,-172.85 682,-165 686.52,-153.63 695.47,-143.48 703.96,-135.76"/>
<polygon fill="#63b8ff" stroke="#63b8ff" points="706.41,-138.27 711.79,-129.14 701.89,-132.92 706.41,-138.27"/>
</a>
</g>
</g>
<!-- Node22 -->
<g id="Node000022" class="node">
<title>Node22</title>
<g id="a_Node000022"><a xlink:href="../../d2/d20/tuple_8h.html" target="_top" xlink:title=" ">
<polygon fill="white" stroke="#666666" points="1004,-294 886,-294 886,-275 1004,-275 1004,-294"/>
<text text-anchor="middle" x="945" y="-282" font-family="Helvetica,sans-Serif" font-size="10.00">storage/table/tuple.h</text>
</a>
</g>
</g>
<!-- Node1&#45;&gt;Node22 -->
<g id="edge36_Node000001_Node000022" class="edge">
<title>Node1&#45;&gt;Node22</title>
<g id="a_edge36_Node000001_Node000022"><a xlink:title=" ">
<path fill="none" stroke="#63b8ff" d="M815.82,-329.95C846.7,-319.32 883.89,-306.53 910.42,-297.4"/>
<polygon fill="#63b8ff" stroke="#63b8ff" points="911.71,-300.66 920.03,-294.09 909.44,-294.04 911.71,-300.66"/>
</a>
</g>
</g>
<!-- Node6&#45;&gt;Node2 -->
<g id="edge6_Node000006_Node000002" class="edge">
<title>Node6&#45;&gt;Node2</title>
<g id="a_edge6_Node000006_Node000002"><a xlink:title=" ">
<path fill="none" stroke="#63b8ff" d="M707.36,-227C644.01,-223.86 534.06,-214.12 445,-184 397.69,-168 377.05,-168.89 347,-129 337.31,-116.14 333.75,-97.97 332.51,-84.36"/>
<polygon fill="#63b8ff" stroke="#63b8ff" points="336,-84 331.93,-74.22 329.01,-84.41 336,-84"/>
</a>
</g>
</g>
<!-- Node6&#45;&gt;Node3 -->
<g id="edge8_Node000006_Node000003" class="edge">
<title>Node6&#45;&gt;Node3</title>
<g id="a_edge8_Node000006_Node000003"><a xlink:title=" ">
<path fill="none" stroke="#63b8ff" d="M707.31,-224.4C530.11,-209.41 -36.89,-153.26 57,-55 86.11,-24.53 745.53,-25.7 846.78,-18.26"/>
<polygon fill="#63b8ff" stroke="#63b8ff" points="847.19,-21.74 856.78,-17.23 846.47,-14.77 847.19,-21.74"/>
</a>
</g>
</g>
<!-- Node6&#45;&gt;Node5 -->
<g id="edge9_Node000006_Node000005" class="edge">
<title>Node6&#45;&gt;Node5</title>
<g id="a_edge9_Node000006_Node000005"><a xlink:title=" ">
<path fill="none" stroke="#63b8ff" d="M776.03,-219.98C792.93,-211.54 819.06,-198.47 838.64,-188.68"/>
<polygon fill="#63b8ff" stroke="#63b8ff" points="840.28,-191.77 847.66,-184.17 837.15,-185.51 840.28,-191.77"/>
</a>
</g>
</g>
<!-- Node7 -->
<g id="Node000007" class="node">
<title>Node7</title>
<g id="a_Node000007"><a xlink:title=" ">
<polygon fill="#e0e0e0" stroke="#999999" points="747,-184 691,-184 691,-165 747,-165 747,-184"/>
<text text-anchor="middle" x="719" y="-172" font-family="Helvetica,sans-Serif" font-size="10.00">optional</text>
</a>
</g>
</g>
<!-- Node6&#45;&gt;Node7 -->
<g id="edge7_Node000006_Node000007" class="edge">
<title>Node6&#45;&gt;Node7</title>
<g id="a_edge7_Node000006_Node000007"><a xlink:title=" ">
<path fill="none" stroke="#63b8ff" d="M752.39,-219.75C746.74,-212.26 738.46,-201.28 731.55,-192.13"/>
<polygon fill="#63b8ff" stroke="#63b8ff" points="734.3,-189.96 725.48,-184.09 728.71,-194.18 734.3,-189.96"/>
</a>
</g>
</g>
<!-- Node8 -->
<g id="Node000008" class="node">
<title>Node8</title>
<g id="a_Node000008"><a xlink:href="../../dc/df8/column_8h.html" target="_top" xlink:title=" ">
<polygon fill="white" stroke="#666666" points="555.5,-184 454.5,-184 454.5,-165 555.5,-165 555.5,-184"/>
<text text-anchor="middle" x="505" y="-172" font-family="Helvetica,sans-Serif" font-size="10.00">catalog/column.h</text>
</a>
</g>
</g>
<!-- Node6&#45;&gt;Node8 -->
<g id="edge10_Node000006_Node000008" class="edge">
<title>Node6&#45;&gt;Node8</title>
<g id="a_edge10_Node000006_Node000008"><a xlink:title=" ">
<path fill="none" stroke="#63b8ff" d="M718.19,-219.98C674.07,-210.78 603.67,-196.09 555.95,-186.13"/>
<polygon fill="#63b8ff" stroke="#63b8ff" points="556.63,-182.7 546.13,-184.08 555.2,-189.55 556.63,-182.7"/>
</a>
</g>
</g>
<!-- Node11 -->
<g id="Node000011" class="node">
<title>Node11</title>
<g id="a_Node000011"><a xlink:href="../../dd/d2d/exception_8h.html" target="_top" xlink:title=" ">
<polygon fill="white" stroke="#666666" points="564.5,-129 445.5,-129 445.5,-110 564.5,-110 564.5,-129"/>
<text text-anchor="middle" x="505" y="-117" font-family="Helvetica,sans-Serif" font-size="10.00">common/exception.h</text>
</a>
</g>
</g>
<!-- Node6&#45;&gt;Node11 -->
<g id="edge33_Node000006_Node000011" class="edge">
<title>Node6&#45;&gt;Node11</title>
<g id="a_edge33_Node000006_Node000011"><a xlink:title=" ">
<path fill="none" stroke="#63b8ff" d="M761.6,-219.88C765.09,-206.38 769.41,-180.25 756,-165 744.04,-151.4 644.74,-137 574.69,-128.38"/>
<polygon fill="#63b8ff" stroke="#63b8ff" points="574.93,-124.88 564.59,-127.15 574.09,-131.83 574.93,-124.88"/>
</a>
</g>
</g>
<!-- Node17 -->
<g id="Node000017" class="node">
<title>Node17</title>
<g id="a_Node000017"><a xlink:href="../../df/def/type_8h.html" target="_top" xlink:title=" ">
<polygon fill="white" stroke="#666666" points="851,-74 779,-74 779,-55 851,-55 851,-74"/>
<text text-anchor="middle" x="815" y="-62" font-family="Helvetica,sans-Serif" font-size="10.00">type/type.h</text>
</a>
</g>
</g>
<!-- Node6&#45;&gt;Node17 -->
<g id="edge34_Node000006_Node000017" class="edge">
<title>Node6&#45;&gt;Node17</title>
<g id="a_edge34_Node000006_Node000017"><a xlink:title=" ">
<path fill="none" stroke="#63b8ff" d="M762.12,-219.99C765.38,-211.04 770.62,-196.56 775,-184 787.34,-148.6 801.23,-107.05 808.96,-83.75"/>
<polygon fill="#63b8ff" stroke="#63b8ff" points="812.32,-84.74 812.15,-74.14 805.68,-82.53 812.32,-84.74"/>
</a>
</g>
</g>
<!-- Node8&#45;&gt;Node2 -->
<g id="edge12_Node000008_Node000002" class="edge">
<title>Node8&#45;&gt;Node2</title>
<g id="a_edge12_Node000008_Node000002"><a xlink:title=" ">
<path fill="none" stroke="#63b8ff" d="M454.4,-167.15C425.52,-161.32 390.17,-150.19 365,-129 351.06,-117.27 342.27,-98.15 337.29,-83.95"/>
<polygon fill="#63b8ff" stroke="#63b8ff" points="340.58,-82.72 334.21,-74.25 333.9,-84.84 340.58,-82.72"/>
</a>
</g>
</g>
<!-- Node8&#45;&gt;Node3 -->
<g id="edge13_Node000008_Node000003" class="edge">
<title>Node8&#45;&gt;Node3</title>
<g id="a_edge13_Node000008_Node000003"><a xlink:title=" ">
<path fill="none" stroke="#63b8ff" d="M457.86,-164.95C437.37,-158.64 415.28,-147.75 403,-129 373,-83.18 434.64,-70.85 475,-55 626.99,4.7 682.05,-47.03 846.78,-18.87"/>
<polygon fill="#63b8ff" stroke="#63b8ff" points="847.52,-22.29 856.75,-17.09 846.3,-15.4 847.52,-22.29"/>
</a>
</g>
</g>
<!-- Node8&#45;&gt;Node4 -->
<g id="edge14_Node000008_Node000004" class="edge">
<title>Node8&#45;&gt;Node4</title>
<g id="a_edge14_Node000008_Node000004"><a xlink:title=" ">
<path fill="none" stroke="#63b8ff" d="M527.33,-164.98C550.2,-156.27 585.96,-142.63 611.86,-132.75"/>
<polygon fill="#63b8ff" stroke="#63b8ff" points="613.16,-136 621.26,-129.17 610.67,-129.46 613.16,-136"/>
</a>
</g>
</g>
<!-- Node9 -->
<g id="Node000009" class="node">
<title>Node9</title>
<g id="a_Node000009"><a xlink:title=" ">
<polygon fill="#e0e0e0" stroke="#999999" points="1172,-19 1122,-19 1122,0 1172,0 1172,-19"/>
<text text-anchor="middle" x="1147" y="-7" font-family="Helvetica,sans-Serif" font-size="10.00">cstdint</text>
</a>
</g>
</g>
<!-- Node8&#45;&gt;Node9 -->
<g id="edge11_Node000008_Node000009" class="edge">
<title>Node8&#45;&gt;Node9</title>
<g id="a_edge11_Node000008_Node000009"><a xlink:title=" ">
<path fill="none" stroke="#63b8ff" d="M480.53,-164.86C464.73,-157.85 445.41,-146.27 436,-129 416.26,-92.78 477.7,-58.12 484,-55 512.34,-40.96 978.7,-18.32 1111.8,-12.11"/>
<polygon fill="#63b8ff" stroke="#63b8ff" points="1112.03,-15.61 1121.86,-11.65 1111.71,-8.62 1112.03,-15.61"/>
</a>
</g>
</g>
<!-- Node8&#45;&gt;Node10 -->
<g id="edge15_Node000008_Node000010" class="edge">
<title>Node8&#45;&gt;Node10</title>
<g id="a_edge15_Node000008_Node000010"><a xlink:title=" ">
<path fill="none" stroke="#63b8ff" d="M540.19,-164.98C577.83,-155.87 637.66,-141.4 678.77,-131.45"/>
<polygon fill="#63b8ff" stroke="#63b8ff" points="679.64,-134.84 688.54,-129.08 678,-128.03 679.64,-134.84"/>
</a>
</g>
</g>
<!-- Node8&#45;&gt;Node11 -->
<g id="edge16_Node000008_Node000011" class="edge">
<title>Node8&#45;&gt;Node11</title>
<g id="a_edge16_Node000008_Node000011"><a xlink:title=" ">
<path fill="none" stroke="#63b8ff" d="M505,-164.75C505,-157.8 505,-147.85 505,-139.13"/>
<polygon fill="#63b8ff" stroke="#63b8ff" points="508.5,-139.09 505,-129.09 501.5,-139.09 508.5,-139.09"/>
</a>
</g>
</g>
<!-- Node8&#45;&gt;Node17 -->
<g id="edge32_Node000008_Node000017" class="edge">
<title>Node8&#45;&gt;Node17</title>
<g id="a_edge32_Node000008_Node000017"><a xlink:title=" ">
<path fill="none" stroke="#63b8ff" d="M518.48,-164.76C542.69,-149.19 592.81,-117.57 612,-110 663.78,-89.58 726.88,-77.61 768.85,-71.32"/>
<polygon fill="#63b8ff" stroke="#63b8ff" points="769.38,-74.78 778.78,-69.88 768.38,-67.85 769.38,-74.78"/>
</a>
</g>
</g>
<!-- Node19 -->
<g id="Node000019" class="node">
<title>Node19</title>
<g id="a_Node000019"><a xlink:href="../../de/d3c/macros_8h.html" target="_top" xlink:title=" ">
<polygon fill="white" stroke="#666666" points="248.5,-129 141.5,-129 141.5,-110 248.5,-110 248.5,-129"/>
<text text-anchor="middle" x="195" y="-117" font-family="Helvetica,sans-Serif" font-size="10.00">common/macros.h</text>
</a>
</g>
</g>
<!-- Node8&#45;&gt;Node19 -->
<g id="edge28_Node000008_Node000019" class="edge">
<title>Node8&#45;&gt;Node19</title>
<g id="a_edge28_Node000008_Node000019"><a xlink:title=" ">
<path fill="none" stroke="#63b8ff" d="M455.19,-164.98C400.7,-155.67 313.37,-140.74 255.11,-130.78"/>
<polygon fill="#63b8ff" stroke="#63b8ff" points="255.39,-127.27 244.94,-129.04 254.21,-134.17 255.39,-127.27"/>
</a>
</g>
</g>
<!-- Node11&#45;&gt;Node2 -->
<g id="edge21_Node000011_Node000002" class="edge">
<title>Node11&#45;&gt;Node2</title>
<g id="a_edge21_Node000011_Node000002"><a xlink:title=" ">
<path fill="none" stroke="#63b8ff" d="M477.2,-109.98C448.03,-101.05 402,-86.94 369.6,-77.02"/>
<polygon fill="#63b8ff" stroke="#63b8ff" points="370.6,-73.66 360.01,-74.08 368.55,-80.36 370.6,-73.66"/>
</a>
</g>
</g>
<!-- Node11&#45;&gt;Node3 -->
<g id="edge23_Node000011_Node000003" class="edge">
<title>Node11&#45;&gt;Node3</title>
<g id="a_edge23_Node000011_Node000003"><a xlink:title=" ">
<path fill="none" stroke="#63b8ff" d="M497.19,-109.58C486.41,-96.15 469.81,-70.66 484,-55 536.6,3.06 751.72,-31.11 846.6,-18.68"/>
<polygon fill="#63b8ff" stroke="#63b8ff" points="847.42,-22.1 856.75,-17.08 846.33,-15.18 847.42,-22.1"/>
</a>
</g>
</g>
<!-- Node12 -->
<g id="Node000012" class="node">
<title>Node12</title>
<g id="a_Node000012"><a xlink:title=" ">
<polygon fill="#e0e0e0" stroke="#999999" points="1225,-74 1175,-74 1175,-55 1225,-55 1225,-74"/>
<text text-anchor="middle" x="1200" y="-62" font-family="Helvetica,sans-Serif" font-size="10.00">atomic</text>
</a>
</g>
</g>
<!-- Node11&#45;&gt;Node12 -->
<g id="edge17_Node000011_Node000012" class="edge">
<title>Node11&#45;&gt;Node12</title>
<g id="a_edge17_Node000011_Node000012"><a xlink:title=" ">
<path fill="none" stroke="#63b8ff" d="M564.7,-113.66C580.11,-112.43 596.67,-111.14 612,-110 841.25,-92.9 899.12,-95.48 1128,-74 1139.9,-72.88 1152.87,-71.43 1164.49,-70.03"/>
<polygon fill="#63b8ff" stroke="#63b8ff" points="1165.21,-73.47 1174.71,-68.79 1164.36,-66.52 1165.21,-73.47"/>
</a>
</g>
</g>
<!-- Node13 -->
<g id="Node000013" class="node">
<title>Node13</title>
<g id="a_Node000013"><a xlink:title=" ">
<polygon fill="#e0e0e0" stroke="#999999" points="539,-74 493,-74 493,-55 539,-55 539,-74"/>
<text text-anchor="middle" x="516" y="-62" font-family="Helvetica,sans-Serif" font-size="10.00">cstdio</text>
</a>
</g>
</g>
<!-- Node11&#45;&gt;Node13 -->
<g id="edge18_Node000011_Node000013" class="edge">
<title>Node11&#45;&gt;Node13</title>
<g id="a_edge18_Node000011_Node000013"><a xlink:title=" ">
<path fill="none" stroke="#63b8ff" d="M506.82,-109.75C508.26,-102.8 510.32,-92.85 512.13,-84.13"/>
<polygon fill="#63b8ff" stroke="#63b8ff" points="515.61,-84.59 514.22,-74.09 508.76,-83.17 515.61,-84.59"/>
</a>
</g>
</g>
<!-- Node14 -->
<g id="Node000014" class="node">
<title>Node14</title>
<g id="a_Node000014"><a xlink:title=" ">
<polygon fill="#e0e0e0" stroke="#999999" points="606.5,-74 557.5,-74 557.5,-55 606.5,-55 606.5,-74"/>
<text text-anchor="middle" x="582" y="-62" font-family="Helvetica,sans-Serif" font-size="10.00">cstdlib</text>
</a>
</g>
</g>
<!-- Node11&#45;&gt;Node14 -->
<g id="edge19_Node000011_Node000014" class="edge">
<title>Node11&#45;&gt;Node14</title>
<g id="a_edge19_Node000011_Node000014"><a xlink:title=" ">
<path fill="none" stroke="#63b8ff" d="M517.37,-109.98C529.09,-101.92 546.92,-89.65 560.89,-80.03"/>
<polygon fill="#63b8ff" stroke="#63b8ff" points="563.15,-82.72 569.4,-74.17 559.18,-76.96 563.15,-82.72"/>
</a>
</g>
</g>
<!-- Node15 -->
<g id="Node000015" class="node">
<title>Node15</title>
<g id="a_Node000015"><a xlink:title=" ">
<polygon fill="#e0e0e0" stroke="#999999" points="685,-74 625,-74 625,-55 685,-55 685,-74"/>
<text text-anchor="middle" x="655" y="-62" font-family="Helvetica,sans-Serif" font-size="10.00">iostream</text>
</a>
</g>
</g>
<!-- Node11&#45;&gt;Node15 -->
<g id="edge20_Node000011_Node000015" class="edge">
<title>Node11&#45;&gt;Node15</title>
<g id="a_edge20_Node000011_Node000015"><a xlink:title=" ">
<path fill="none" stroke="#63b8ff" d="M529.1,-109.98C553.88,-101.23 592.7,-87.51 620.69,-77.62"/>
<polygon fill="#63b8ff" stroke="#63b8ff" points="622.2,-80.8 630.46,-74.17 619.87,-74.2 622.2,-80.8"/>
</a>
</g>
</g>
<!-- Node16 -->
<g id="Node000016" class="node">
<title>Node16</title>
<g id="a_Node000016"><a xlink:title=" ">
<polygon fill="#e0e0e0" stroke="#999999" points="284.5,-74 219.5,-74 219.5,-55 284.5,-55 284.5,-74"/>
<text text-anchor="middle" x="252" y="-62" font-family="Helvetica,sans-Serif" font-size="10.00">stdexcept</text>
</a>
</g>
</g>
<!-- Node11&#45;&gt;Node16 -->
<g id="edge22_Node000011_Node000016" class="edge">
<title>Node11&#45;&gt;Node16</title>
<g id="a_edge22_Node000011_Node000016"><a xlink:title=" ">
<path fill="none" stroke="#63b8ff" d="M464.35,-109.98C417.76,-100.23 341.76,-84.3 294.44,-74.39"/>
<polygon fill="#63b8ff" stroke="#63b8ff" points="295.01,-70.93 284.5,-72.31 293.57,-77.79 295.01,-70.93"/>
</a>
</g>
</g>
<!-- Node11&#45;&gt;Node17 -->
<g id="edge24_Node000011_Node000017" class="edge">
<title>Node11&#45;&gt;Node17</title>
<g id="a_edge24_Node000011_Node000017"><a xlink:title=" ">
<path fill="none" stroke="#63b8ff" d="M554.81,-109.98C613.9,-99.88 711.62,-83.18 768.99,-73.37"/>
<polygon fill="#63b8ff" stroke="#63b8ff" points="769.61,-76.81 778.88,-71.68 768.43,-69.91 769.61,-76.81"/>
</a>
</g>
</g>
<!-- Node17&#45;&gt;Node3 -->
<g id="edge26_Node000017_Node000003" class="edge">
<title>Node17&#45;&gt;Node3</title>
<g id="a_edge26_Node000017_Node000003"><a xlink:title=" ">
<path fill="none" stroke="#63b8ff" d="M825.28,-54.98C834.84,-47.07 849.28,-35.11 860.78,-25.58"/>
<polygon fill="#63b8ff" stroke="#63b8ff" points="863.06,-28.24 868.53,-19.17 858.6,-22.85 863.06,-28.24"/>
</a>
</g>
</g>
<!-- Node17&#45;&gt;Node9 -->
<g id="edge25_Node000017_Node000009" class="edge">
<title>Node17&#45;&gt;Node9</title>
<g id="a_edge25_Node000017_Node000009"><a xlink:title=" ">
<path fill="none" stroke="#63b8ff" d="M851.16,-57.73C915.32,-47.49 1048.27,-26.26 1111.76,-16.13"/>
<polygon fill="#63b8ff" stroke="#63b8ff" points="1112.37,-19.57 1121.69,-14.54 1111.27,-12.66 1112.37,-19.57"/>
</a>
</g>
</g>
<!-- Node18 -->
<g id="Node000018" class="node">
<title>Node18</title>
<g id="a_Node000018"><a xlink:href="../../dc/df2/type__id_8h.html" target="_top" xlink:title=" ">
<polygon fill="white" stroke="#666666" points="839,-19 753,-19 753,0 839,0 839,-19"/>
<text text-anchor="middle" x="796" y="-7" font-family="Helvetica,sans-Serif" font-size="10.00">type/type_id.h</text>
</a>
</g>
</g>
<!-- Node17&#45;&gt;Node18 -->
<g id="edge27_Node000017_Node000018" class="edge">
<title>Node17&#45;&gt;Node18</title>
<g id="a_edge27_Node000017_Node000018"><a xlink:title=" ">
<path fill="none" stroke="#63b8ff" d="M811.86,-54.75C809.32,-47.65 805.64,-37.4 802.47,-28.56"/>
<polygon fill="#63b8ff" stroke="#63b8ff" points="805.75,-27.32 799.08,-19.09 799.16,-29.68 805.75,-27.32"/>
</a>
</g>
</g>
<!-- Node19&#45;&gt;Node16 -->
<g id="edge31_Node000019_Node000016" class="edge">
<title>Node19&#45;&gt;Node16</title>
<g id="a_edge31_Node000019_Node000016"><a xlink:title=" ">
<path fill="none" stroke="#63b8ff" d="M204.16,-109.98C212.5,-102.23 225.03,-90.58 235.18,-81.14"/>
<polygon fill="#63b8ff" stroke="#63b8ff" points="237.74,-83.54 242.68,-74.17 232.97,-78.42 237.74,-83.54"/>
</a>
</g>
</g>
<!-- Node20 -->
<g id="Node000020" class="node">
<title>Node20</title>
<g id="a_Node000020"><a xlink:title=" ">
<polygon fill="#e0e0e0" stroke="#999999" points="118,-74 66,-74 66,-55 118,-55 118,-74"/>
<text text-anchor="middle" x="92" y="-62" font-family="Helvetica,sans-Serif" font-size="10.00">cassert</text>
</a>
</g>
</g>
<!-- Node19&#45;&gt;Node20 -->
<g id="edge29_Node000019_Node000020" class="edge">
<title>Node19&#45;&gt;Node20</title>
<g id="a_edge29_Node000019_Node000020"><a xlink:title=" ">
<path fill="none" stroke="#63b8ff" d="M178.45,-109.98C162.11,-101.57 136.87,-88.59 117.87,-78.81"/>
<polygon fill="#63b8ff" stroke="#63b8ff" points="119.34,-75.63 108.85,-74.17 116.14,-81.86 119.34,-75.63"/>
</a>
</g>
</g>
<!-- Node21 -->
<g id="Node000021" class="node">
<title>Node21</title>
<g id="a_Node000021"><a xlink:title=" ">
<polygon fill="#e0e0e0" stroke="#999999" points="201.5,-74 136.5,-74 136.5,-55 201.5,-55 201.5,-74"/>
<text text-anchor="middle" x="169" y="-62" font-family="Helvetica,sans-Serif" font-size="10.00">exception</text>
</a>
</g>
</g>
<!-- Node19&#45;&gt;Node21 -->
<g id="edge30_Node000019_Node000021" class="edge">
<title>Node19&#45;&gt;Node21</title>
<g id="a_edge30_Node000019_Node000021"><a xlink:title=" ">
<path fill="none" stroke="#63b8ff" d="M190.71,-109.75C187.19,-102.57 182.09,-92.18 177.72,-83.27"/>
<polygon fill="#63b8ff" stroke="#63b8ff" points="180.76,-81.53 173.21,-74.09 174.48,-84.61 180.76,-81.53"/>
</a>
</g>
</g>
<!-- Node22&#45;&gt;Node3 -->
<g id="edge37_Node000022_Node000003" class="edge">
<title>Node22&#45;&gt;Node3</title>
<g id="a_edge37_Node000022_Node000003"><a xlink:title=" ">
<path fill="none" stroke="#63b8ff" d="M951.88,-274.66C971.58,-248.17 1024.83,-167.75 993,-110 978.54,-83.76 958.89,-93.33 936,-74 919.29,-59.89 902.89,-40.93 892.01,-27.41"/>
<polygon fill="#63b8ff" stroke="#63b8ff" points="894.64,-25.1 885.7,-19.42 889.15,-29.44 894.64,-25.1"/>
</a>
</g>
</g>
<!-- Node22&#45;&gt;Node5 -->
<g id="edge38_Node000022_Node000005" class="edge">
<title>Node22&#45;&gt;Node5</title>
<g id="a_edge38_Node000022_Node000005"><a xlink:title=" ">
<path fill="none" stroke="#63b8ff" d="M938.45,-274.66C925.14,-256.69 894.73,-215.64 877.51,-192.38"/>
<polygon fill="#63b8ff" stroke="#63b8ff" points="880.18,-190.11 871.41,-184.16 874.55,-194.28 880.18,-190.11"/>
</a>
</g>
</g>
<!-- Node22&#45;&gt;Node6 -->
<g id="edge39_Node000022_Node000006" class="edge">
<title>Node22&#45;&gt;Node6</title>
<g id="a_edge39_Node000022_Node000006"><a xlink:title=" ">
<path fill="none" stroke="#63b8ff" d="M915.12,-274.98C883.62,-266.01 833.83,-251.82 798.97,-241.89"/>
<polygon fill="#63b8ff" stroke="#63b8ff" points="799.69,-238.46 789.12,-239.08 797.78,-245.19 799.69,-238.46"/>
</a>
</g>
</g>
<!-- Node23 -->
<g id="Node000023" class="node">
<title>Node23</title>
<g id="a_Node000023"><a xlink:href="../../db/d16/config_8h.html" target="_top" xlink:title=" ">
<polygon fill="white" stroke="#666666" points="1420.5,-129 1319.5,-129 1319.5,-110 1420.5,-110 1420.5,-129"/>
<text text-anchor="middle" x="1370" y="-117" font-family="Helvetica,sans-Serif" font-size="10.00">common/config.h</text>
</a>
</g>
</g>
<!-- Node22&#45;&gt;Node23 -->
<g id="edge40_Node000022_Node000023" class="edge">
<title>Node22&#45;&gt;Node23</title>
<g id="a_edge40_Node000022_Node000023"><a xlink:title=" ">
<path fill="none" stroke="#63b8ff" d="M995.17,-274.97C1063.67,-261.98 1189.01,-233.41 1286,-184 1311.52,-171 1337.27,-150.12 1353.41,-135.88"/>
<polygon fill="#63b8ff" stroke="#63b8ff" points="1355.83,-138.41 1360.92,-129.12 1351.14,-133.21 1355.83,-138.41"/>
</a>
</g>
</g>
<!-- Node25 -->
<g id="Node000025" class="node">
<title>Node25</title>
<g id="a_Node000025"><a xlink:href="../../d8/d5f/rid_8h.html" target="_top" xlink:title=" ">
<polygon fill="white" stroke="#666666" points="1277,-184 1193,-184 1193,-165 1277,-165 1277,-184"/>
<text text-anchor="middle" x="1235" y="-172" font-family="Helvetica,sans-Serif" font-size="10.00">common/rid.h</text>
</a>
</g>
</g>
<!-- Node22&#45;&gt;Node25 -->
<g id="edge44_Node000022_Node000025" class="edge">
<title>Node22&#45;&gt;Node25</title>
<g id="a_edge44_Node000022_Node000025"><a xlink:title=" ">
<path fill="none" stroke="#63b8ff" d="M968.24,-274.84C1019.7,-255.68 1143.36,-209.63 1202.47,-187.62"/>
<polygon fill="#63b8ff" stroke="#63b8ff" points="1203.9,-190.82 1212.05,-184.05 1201.46,-184.26 1203.9,-190.82"/>
</a>
</g>
</g>
<!-- Node27 -->
<g id="Node000027" class="node">
<title>Node27</title>
<g id="a_Node000027"><a xlink:href="../../d4/d3f/value_8h.html" target="_top" xlink:title=" ">
<polygon fill="white" stroke="#666666" points="983.5,-184 906.5,-184 906.5,-165 983.5,-165 983.5,-184"/>
<text text-anchor="middle" x="945" y="-172" font-family="Helvetica,sans-Serif" font-size="10.00">type/value.h</text>
</a>
</g>
</g>
<!-- Node22&#45;&gt;Node27 -->
<g id="edge49_Node000022_Node000027" class="edge">
<title>Node22&#45;&gt;Node27</title>
<g id="a_edge49_Node000022_Node000027"><a xlink:title=" ">
<path fill="none" stroke="#63b8ff" d="M945,-274.66C945,-257.17 945,-217.8 945,-194.27"/>
<polygon fill="#63b8ff" stroke="#63b8ff" points="948.5,-194.16 945,-184.16 941.5,-194.16 948.5,-194.16"/>
</a>
</g>
</g>
<!-- Node23&#45;&gt;Node9 -->
<g id="edge43_Node000023_Node000009" class="edge">
<title>Node23&#45;&gt;Node9</title>
<g id="a_edge43_Node000023_Node000009"><a xlink:title=" ">
<path fill="none" stroke="#63b8ff" d="M1381.04,-109.59C1395.8,-96.62 1418.5,-72.22 1404,-55 1376.09,-21.84 1246.22,-13.39 1182.48,-11.24"/>
<polygon fill="#63b8ff" stroke="#63b8ff" points="1182.21,-7.73 1172.11,-10.92 1182,-14.72 1182.21,-7.73"/>
</a>
</g>
</g>
<!-- Node23&#45;&gt;Node12 -->
<g id="edge41_Node000023_Node000012" class="edge">
<title>Node23&#45;&gt;Node12</title>
<g id="a_edge41_Node000023_Node000012"><a xlink:title=" ">
<path fill="none" stroke="#63b8ff" d="M1342.69,-109.98C1313.38,-100.85 1266.76,-86.31 1234.84,-76.36"/>
<polygon fill="#63b8ff" stroke="#63b8ff" points="1235.62,-72.94 1225.03,-73.3 1233.53,-79.62 1235.62,-72.94"/>
</a>
</g>
</g>
<!-- Node24 -->
<g id="Node000024" class="node">
<title>Node24</title>
<g id="a_Node000024"><a xlink:title=" ">
<polygon fill="#e0e0e0" stroke="#999999" points="1395,-74 1345,-74 1345,-55 1395,-55 1395,-74"/>
<text text-anchor="middle" x="1370" y="-62" font-family="Helvetica,sans-Serif" font-size="10.00">chrono</text>
</a>
</g>
</g>
<!-- Node23&#45;&gt;Node24 -->
<g id="edge42_Node000023_Node000024" class="edge">
<title>Node23&#45;&gt;Node24</title>
<g id="a_edge42_Node000023_Node000024"><a xlink:title=" ">
<path fill="none" stroke="#63b8ff" d="M1370,-109.75C1370,-102.8 1370,-92.85 1370,-84.13"/>
<polygon fill="#63b8ff" stroke="#63b8ff" points="1373.5,-84.09 1370,-74.09 1366.5,-84.09 1373.5,-84.09"/>
</a>
</g>
</g>
<!-- Node25&#45;&gt;Node3 -->
<g id="edge47_Node000025_Node000003" class="edge">
<title>Node25&#45;&gt;Node3</title>
<g id="a_edge47_Node000025_Node000003"><a xlink:title=" ">
<path fill="none" stroke="#63b8ff" d="M1223.9,-164.85C1210.12,-152.98 1189.41,-130.75 1198,-110 1209.18,-83.01 1253.33,-76.91 1234,-55 1212.79,-30.96 994.91,-16.75 911.37,-12.15"/>
<polygon fill="#63b8ff" stroke="#63b8ff" points="911.36,-8.65 901.18,-11.6 910.98,-15.64 911.36,-8.65"/>
</a>
</g>
</g>
<!-- Node25&#45;&gt;Node9 -->
<g id="edge45_Node000025_Node000009" class="edge">
<title>Node25&#45;&gt;Node9</title>
<g id="a_edge45_Node000025_Node000009"><a xlink:title=" ">
<path fill="none" stroke="#63b8ff" d="M1245.44,-164.87C1254.42,-156.7 1266.74,-143.55 1272,-129 1278.16,-111.95 1277.48,-68.69 1267,-55 1247,-28.87 1209.99,-18.08 1182.34,-13.63"/>
<polygon fill="#63b8ff" stroke="#63b8ff" points="1182.64,-10.13 1172.25,-12.21 1181.67,-17.07 1182.64,-10.13"/>
</a>
</g>
</g>
<!-- Node25&#45;&gt;Node23 -->
<g id="edge48_Node000025_Node000023" class="edge">
<title>Node25&#45;&gt;Node23</title>
<g id="a_edge48_Node000025_Node000023"><a xlink:title=" ">
<path fill="none" stroke="#63b8ff" d="M1256.69,-164.98C1278.8,-156.3 1313.32,-142.75 1338.45,-132.88"/>
<polygon fill="#63b8ff" stroke="#63b8ff" points="1339.89,-136.08 1347.92,-129.17 1337.33,-129.57 1339.89,-136.08"/>
</a>
</g>
</g>
<!-- Node26 -->
<g id="Node000026" class="node">
<title>Node26</title>
<g id="a_Node000026"><a xlink:title=" ">
<polygon fill="#e0e0e0" stroke="#999999" points="1263,-129 1207,-129 1207,-110 1263,-110 1263,-129"/>
<text text-anchor="middle" x="1235" y="-117" font-family="Helvetica,sans-Serif" font-size="10.00">sstream</text>
</a>
</g>
</g>
<!-- Node25&#45;&gt;Node26 -->
<g id="edge46_Node000025_Node000026" class="edge">
<title>Node25&#45;&gt;Node26</title>
<g id="a_edge46_Node000025_Node000026"><a xlink:title=" ">
<path fill="none" stroke="#63b8ff" d="M1235,-164.75C1235,-157.8 1235,-147.85 1235,-139.13"/>
<polygon fill="#63b8ff" stroke="#63b8ff" points="1238.5,-139.09 1235,-129.09 1231.5,-139.09 1238.5,-139.09"/>
</a>
</g>
</g>
<!-- Node27&#45;&gt;Node2 -->
<g id="edge51_Node000027_Node000002" class="edge">
<title>Node27&#45;&gt;Node2</title>
<g id="a_edge51_Node000027_Node000002"><a xlink:title=" ">
<path fill="none" stroke="#63b8ff" d="M926.53,-164.96C895.39,-150.97 830.15,-123.39 772,-110 696.17,-92.54 464.6,-74.83 371.43,-68.21"/>
<polygon fill="#63b8ff" stroke="#63b8ff" points="371.52,-64.71 361.29,-67.5 371.02,-71.69 371.52,-64.71"/>
</a>
</g>
</g>
<!-- Node27&#45;&gt;Node3 -->
<g id="edge52_Node000027_Node000003" class="edge">
<title>Node27&#45;&gt;Node3</title>
<g id="a_edge52_Node000027_Node000003"><a xlink:title=" ">
<path fill="none" stroke="#63b8ff" d="M940.91,-164.68C936.78,-155.74 930.3,-141.47 925,-129 910.11,-93.93 894.38,-52.26 885.72,-28.85"/>
<polygon fill="#63b8ff" stroke="#63b8ff" points="888.9,-27.37 882.16,-19.2 882.34,-29.79 888.9,-27.37"/>
</a>
</g>
</g>
<!-- Node27&#45;&gt;Node4 -->
<g id="edge53_Node000027_Node000004" class="edge">
<title>Node27&#45;&gt;Node4</title>
<g id="a_edge53_Node000027_Node000004"><a xlink:title=" ">
<path fill="none" stroke="#63b8ff" d="M906.5,-166.63C903.28,-166.07 900.09,-165.52 897,-165 801.63,-148.82 774.41,-150.14 676.63,-129.17"/>
<polygon fill="#63b8ff" stroke="#63b8ff" points="677.13,-125.7 666.62,-127 675.65,-132.54 677.13,-125.7"/>
</a>
</g>
</g>
<!-- Node27&#45;&gt;Node10 -->
<g id="edge54_Node000027_Node000010" class="edge">
<title>Node27&#45;&gt;Node10</title>
<g id="a_edge54_Node000027_Node000010"><a xlink:title=" ">
<path fill="none" stroke="#63b8ff" d="M909.49,-164.98C871.51,-155.87 811.13,-141.4 769.64,-131.45"/>
<polygon fill="#63b8ff" stroke="#63b8ff" points="770.33,-128.01 759.79,-129.08 768.69,-134.82 770.33,-128.01"/>
</a>
</g>
</g>
<!-- Node27&#45;&gt;Node17 -->
<g id="edge60_Node000027_Node000017" class="edge">
<title>Node27&#45;&gt;Node17</title>
<g id="a_edge60_Node000027_Node000017"><a xlink:title=" ">
<path fill="none" stroke="#63b8ff" d="M934.36,-164.66C912.16,-146.22 860.67,-103.45 833.14,-80.57"/>
<polygon fill="#63b8ff" stroke="#63b8ff" points="835.35,-77.86 825.42,-74.16 830.88,-83.24 835.35,-77.86"/>
</a>
</g>
</g>
<!-- Node28 -->
<g id="Node000028" class="node">
<title>Node28</title>
<g id="a_Node000028"><a xlink:title=" ">
<polygon fill="#e0e0e0" stroke="#999999" points="984,-129 934,-129 934,-110 984,-110 984,-129"/>
<text text-anchor="middle" x="959" y="-117" font-family="Helvetica,sans-Serif" font-size="10.00">cstring</text>
</a>
</g>
</g>
<!-- Node27&#45;&gt;Node28 -->
<g id="edge50_Node000027_Node000028" class="edge">
<title>Node27&#45;&gt;Node28</title>
<g id="a_edge50_Node000027_Node000028"><a xlink:title=" ">
<path fill="none" stroke="#63b8ff" d="M947.31,-164.75C949.17,-157.72 951.84,-147.62 954.15,-138.84"/>
<polygon fill="#63b8ff" stroke="#63b8ff" points="957.56,-139.65 956.73,-129.09 950.79,-137.86 957.56,-139.65"/>
</a>
</g>
</g>
<!-- Node29 -->
<g id="Node000029" class="node">
<title>Node29</title>
<g id="a_Node000029"><a xlink:href="../../d9/d86/limits_8h.html" target="_top" xlink:title=" ">
<polygon fill="white" stroke="#666666" points="1118,-129 1040,-129 1040,-110 1118,-110 1118,-129"/>
<text text-anchor="middle" x="1079" y="-117" font-family="Helvetica,sans-Serif" font-size="10.00">type/limits.h</text>
</a>
</g>
</g>
<!-- Node27&#45;&gt;Node29 -->
<g id="edge55_Node000027_Node000029" class="edge">
<title>Node27&#45;&gt;Node29</title>
<g id="a_edge55_Node000027_Node000029"><a xlink:title=" ">
<path fill="none" stroke="#63b8ff" d="M966.53,-164.98C988.47,-156.3 1022.74,-142.75 1047.69,-132.88"/>
<polygon fill="#63b8ff" stroke="#63b8ff" points="1049.07,-136.1 1057.08,-129.17 1046.49,-129.59 1049.07,-136.1"/>
</a>
</g>
</g>
<!-- Node29&#45;&gt;Node9 -->
<g id="edge58_Node000029_Node000009" class="edge">
<title>Node29&#45;&gt;Node9</title>
<g id="a_edge58_Node000029_Node000009"><a xlink:title=" ">
<path fill="none" stroke="#63b8ff" d="M1092.08,-109.75C1103.16,-101.7 1118.69,-88.78 1128,-74 1136.62,-60.31 1141.51,-42.5 1144.16,-29.22"/>
<polygon fill="#63b8ff" stroke="#63b8ff" points="1147.61,-29.79 1145.89,-19.33 1140.72,-28.58 1147.61,-29.79"/>
</a>
</g>
</g>
<!-- Node30 -->
<g id="Node000030" class="node">
<title>Node30</title>
<g id="a_Node000030"><a xlink:title=" ">
<polygon fill="#e0e0e0" stroke="#999999" points="1051,-74 1007,-74 1007,-55 1051,-55 1051,-74"/>
<text text-anchor="middle" x="1029" y="-62" font-family="Helvetica,sans-Serif" font-size="10.00">cfloat</text>
</a>
</g>
</g>
<!-- Node29&#45;&gt;Node30 -->
<g id="edge56_Node000029_Node000030" class="edge">
<title>Node29&#45;&gt;Node30</title>
<g id="a_edge56_Node000029_Node000030"><a xlink:title=" ">
<path fill="none" stroke="#63b8ff" d="M1070.74,-109.75C1063.54,-102.11 1052.89,-90.82 1044.15,-81.56"/>
<polygon fill="#63b8ff" stroke="#63b8ff" points="1046.51,-78.96 1037.1,-74.09 1041.42,-83.76 1046.51,-78.96"/>
</a>
</g>
</g>
<!-- Node31 -->
<g id="Node000031" class="node">
<title>Node31</title>
<g id="a_Node000031"><a xlink:title=" ">
<polygon fill="#e0e0e0" stroke="#999999" points="1119,-74 1069,-74 1069,-55 1119,-55 1119,-74"/>
<text text-anchor="middle" x="1094" y="-62" font-family="Helvetica,sans-Serif" font-size="10.00">climits</text>
</a>
</g>
</g>
<!-- Node29&#45;&gt;Node31 -->
<g id="edge57_Node000029_Node000031" class="edge">
<title>Node29&#45;&gt;Node31</title>
<g id="a_edge57_Node000029_Node000031"><a xlink:title=" ">
<path fill="none" stroke="#63b8ff" d="M1081.48,-109.75C1083.46,-102.72 1086.32,-92.62 1088.81,-83.84"/>
<polygon fill="#63b8ff" stroke="#63b8ff" points="1092.21,-84.66 1091.57,-74.09 1085.48,-82.76 1092.21,-84.66"/>
</a>
</g>
</g>
<!-- Node32 -->
<g id="Node000032" class="node">
<title>Node32</title>
<g id="a_Node000032"><a xlink:title=" ">
<polygon fill="#e0e0e0" stroke="#999999" points="989,-74 945,-74 945,-55 989,-55 989,-74"/>
<text text-anchor="middle" x="967" y="-62" font-family="Helvetica,sans-Serif" font-size="10.00">limits</text>
</a>
</g>
</g>
<!-- Node29&#45;&gt;Node32 -->
<g id="edge59_Node000029_Node000032" class="edge">
<title>Node29&#45;&gt;Node32</title>
<g id="a_edge59_Node000029_Node000032"><a xlink:title=" ">
<path fill="none" stroke="#63b8ff" d="M1061.01,-109.98C1043.07,-101.5 1015.28,-88.35 994.57,-78.54"/>
<polygon fill="#63b8ff" stroke="#63b8ff" points="995.86,-75.28 985.32,-74.17 992.86,-81.61 995.86,-75.28"/>
</a>
</g>
</g>
</g>
</svg>
