<?xml version="1.0" encoding="UTF-8" standalone="no"?>
<!DOCTYPE svg PUBLIC "-//W3C//DTD SVG 1.1//EN"
 "http://www.w3.org/Graphics/SVG/1.1/DTD/svg11.dtd">
<!-- Generated by graphviz version 2.43.0 (0)
 -->
<!-- Title: src/include/type/abstract_pool.h Pages: 1 -->
<!--zoomable 313 -->

<svg id="main" version="1.1" xmlns="http://www.w3.org/2000/svg" xmlns:xlink="http://www.w3.org/1999/xlink" xml:space="preserve" onload="init(evt)">
<style type="text/css"><![CDATA[
.node, .edge {opacity: 0.7;}
.node.selected, .edge.selected {opacity: 1;}
.edge:hover path { stroke: red; }
.edge:hover polygon { stroke: red; fill: red; }
]]></style>

<defs>
  <circle id="rim" cx="0" cy="0" r="7"/>
  <circle id="rim2" cx="0" cy="0" r="3.5"/>
  <g id="zoomPlus">
    <use xlink:href="#rim" fill="#404040"><set attributeName="fill" to="#808080" begin="zoomplus.mouseover" end="zoomplus.mouseout"/></use>
    <path d="M-4,0h8M0,-4v8" fill="none" stroke="white" stroke-width="1.5" pointer-events="none"/>
  </g>
  <g id="zoomMin">
    <use xlink:href="#rim" fill="#404040"><set attributeName="fill" to="#808080" begin="zoomminus.mouseover" end="zoomminus.mouseout"/></use>
    <path d="M-4,0h8" fill="none" stroke="white" stroke-width="1.5" pointer-events="none"/>
  </g>
  <g id="arrowUp" transform="translate(30 24)">
    <use xlink:href="#rim"/>
    <path pointer-events="none" fill="none" stroke="white" stroke-width="1.5" d="M0,-3.0v7 M-2.5,-0.5L0,-3.0L2.5,-0.5"/>
  </g>
  <g id="arrowRight" transform="rotate(90) translate(36 -43)">
    <use xlink:href="#rim"/>
    <path pointer-events="none" fill="none" stroke="white" stroke-width="1.5" d="M0,-3.0v7 M-2.5,-0.5L0,-3.0L2.5,-0.5"/>
  </g>
  <g id="arrowDown" transform="rotate(180) translate(-30 -48)">
    <use xlink:href="#rim"/>
    <path pointer-events="none" fill="none" stroke="white" stroke-width="1.5" d="M0,-3.0v7 M-2.5,-0.5L0,-3.0L2.5,-0.5"/>
  </g>
  <g id="arrowLeft" transform="rotate(270) translate(-36 17)">
    <use xlink:href="#rim"/>
    <path pointer-events="none" fill="none" stroke="white" stroke-width="1.5" d="M0,-3.0v7 M-2.5,-0.5L0,-3.0L2.5,-0.5"/>
  </g>
  <g id="resetDef">
    <use xlink:href="#rim2" fill="#404040"><set attributeName="fill" to="#808080" begin="reset.mouseover" end="reset.mouseout"/></use>
  </g>
</defs>
<script type="application/ecmascript">
var viewWidth = 3241;
var viewHeight = 313;
var sectionId = 'dynsection-1';
</script>
<script type="application/ecmascript" xlink:href="../../svg.min.js"/>
<svg id="graph" class="graph">
<g id="viewport">
<title>src/include/type/abstract_pool.h</title>
<!-- Node1 -->
<g id="Node000001" class="node">
<title>Node1</title>
<g id="a_Node000001"><a xlink:title=" ">
<polygon fill="#999999" stroke="#666666" points="1762.5,-305 1625.5,-305 1625.5,-275 1762.5,-275 1762.5,-305"/>
<text text-anchor="start" x="1633.5" y="-293" font-family="Helvetica,sans-Serif" font-size="10.00">src/include/type/abstract</text>
<text text-anchor="middle" x="1694" y="-282" font-family="Helvetica,sans-Serif" font-size="10.00">_pool.h</text>
</a>
</g>
</g>
<!-- Node2 -->
<g id="Node000002" class="node">
<title>Node2</title>
<g id="a_Node000002"><a xlink:href="../../d3/d95/timestamp__type_8h.html" target="_top" xlink:title=" ">
<polygon fill="white" stroke="#666666" points="1821,-239 1671,-239 1671,-209 1821,-209 1821,-239"/>
<text text-anchor="start" x="1679" y="-227" font-family="Helvetica,sans-Serif" font-size="10.00">src/include/type/timestamp</text>
<text text-anchor="middle" x="1746" y="-216" font-family="Helvetica,sans-Serif" font-size="10.00">_type.h</text>
</a>
</g>
</g>
<!-- Node1&#45;&gt;Node2 -->
<g id="edge1_Node000001_Node000002" class="edge">
<title>Node1&#45;&gt;Node2</title>
<g id="a_edge1_Node000001_Node000002"><a xlink:title=" ">
<path fill="none" stroke="#63b8ff" d="M1712.03,-266.81C1719.48,-257.64 1727.9,-247.28 1734.49,-239.16"/>
<polygon fill="#63b8ff" stroke="#63b8ff" points="1709.13,-264.83 1705.54,-274.8 1714.56,-269.24 1709.13,-264.83"/>
</a>
</g>
</g>
<!-- Node3 -->
<g id="Node000003" class="node">
<title>Node3</title>
<g id="a_Node000003"><a xlink:href="../../d1/db2/value__factory_8h.html" target="_top" xlink:title=" ">
<polygon fill="white" stroke="#666666" points="1705,-173 1581,-173 1581,-143 1705,-143 1705,-173"/>
<text text-anchor="start" x="1589" y="-161" font-family="Helvetica,sans-Serif" font-size="10.00">src/include/type/value</text>
<text text-anchor="middle" x="1643" y="-150" font-family="Helvetica,sans-Serif" font-size="10.00">_factory.h</text>
</a>
</g>
</g>
<!-- Node1&#45;&gt;Node3 -->
<g id="edge32_Node000001_Node000003" class="edge">
<title>Node1&#45;&gt;Node3</title>
<g id="a_edge32_Node000001_Node000003"><a xlink:title=" ">
<path fill="none" stroke="#63b8ff" d="M1677.3,-266.47C1671.77,-258.17 1666.02,-248.48 1662,-239 1652.63,-216.92 1647.38,-189.37 1644.87,-173.03"/>
<polygon fill="#63b8ff" stroke="#63b8ff" points="1674.53,-268.62 1683.11,-274.85 1680.29,-264.63 1674.53,-268.62"/>
</a>
</g>
</g>
<!-- Node2&#45;&gt;Node3 -->
<g id="edge2_Node000002_Node000003" class="edge">
<title>Node2&#45;&gt;Node3</title>
<g id="a_edge2_Node000002_Node000003"><a xlink:title=" ">
<path fill="none" stroke="#63b8ff" d="M1714.49,-203.42C1698.68,-193.6 1679.9,-181.93 1665.55,-173.01"/>
<polygon fill="#63b8ff" stroke="#63b8ff" points="1713.06,-206.65 1723.4,-208.95 1716.75,-200.7 1713.06,-206.65"/>
</a>
</g>
</g>
<!-- Node29 -->
<g id="Node000029" class="node">
<title>Node29</title>
<g id="a_Node000029"><a xlink:href="../../d2/d0e/timestamp__type_8cpp.html" target="_top" xlink:title=" ">
<polygon fill="white" stroke="#666666" points="3233,-101.5 3121,-101.5 3121,-71.5 3233,-71.5 3233,-101.5"/>
<text text-anchor="start" x="3129" y="-89.5" font-family="Helvetica,sans-Serif" font-size="10.00">src/type/timestamp</text>
<text text-anchor="middle" x="3177" y="-78.5" font-family="Helvetica,sans-Serif" font-size="10.00">_type.cpp</text>
</a>
</g>
</g>
<!-- Node2&#45;&gt;Node29 -->
<g id="edge31_Node000002_Node000029" class="edge">
<title>Node2&#45;&gt;Node29</title>
<g id="a_edge31_Node000002_Node000029"><a xlink:title=" ">
<path fill="none" stroke="#63b8ff" d="M1831.15,-221.86C2047.22,-217.66 2633.56,-198.06 3112,-107 3119.41,-105.59 3127.17,-103.67 3134.66,-101.57"/>
<polygon fill="#63b8ff" stroke="#63b8ff" points="1831.08,-218.36 1821.14,-222.05 1831.21,-225.36 1831.08,-218.36"/>
</a>
</g>
</g>
<!-- Node4 -->
<g id="Node000004" class="node">
<title>Node4</title>
<g id="a_Node000004"><a xlink:href="../../d9/d88/bind__insert_8cpp.html" target="_top" xlink:title=" ">
<polygon fill="white" stroke="#666666" points="142,-96 0,-96 0,-77 142,-77 142,-96"/>
<text text-anchor="middle" x="71" y="-84" font-family="Helvetica,sans-Serif" font-size="10.00">src/binder/bind_insert.cpp</text>
</a>
</g>
</g>
<!-- Node3&#45;&gt;Node4 -->
<g id="edge3_Node000003_Node000004" class="edge">
<title>Node3&#45;&gt;Node4</title>
<g id="a_edge3_Node000003_Node000004"><a xlink:title=" ">
<path fill="none" stroke="#63b8ff" d="M1570.75,-156.55C1311.72,-154.61 430.2,-145.29 151,-107 133.86,-104.65 115.05,-100.16 99.98,-96.09"/>
<polygon fill="#63b8ff" stroke="#63b8ff" points="1570.77,-160.05 1580.8,-156.62 1570.82,-153.05 1570.77,-160.05"/>
</a>
</g>
</g>
<!-- Node5 -->
<g id="Node000005" class="node">
<title>Node5</title>
<g id="a_Node000005"><a xlink:href="../../d7/d35/bind__select_8cpp.html" target="_top" xlink:title=" ">
<polygon fill="white" stroke="#666666" points="303.5,-96 160.5,-96 160.5,-77 303.5,-77 303.5,-96"/>
<text text-anchor="middle" x="232" y="-84" font-family="Helvetica,sans-Serif" font-size="10.00">src/binder/bind_select.cpp</text>
</a>
</g>
</g>
<!-- Node3&#45;&gt;Node5 -->
<g id="edge4_Node000003_Node000005" class="edge">
<title>Node3&#45;&gt;Node5</title>
<g id="a_edge4_Node000003_Node000005"><a xlink:title=" ">
<path fill="none" stroke="#63b8ff" d="M1570.58,-156.2C1329.93,-153.25 558.25,-141.28 312,-107 294.87,-104.62 276.06,-100.13 260.98,-96.06"/>
<polygon fill="#63b8ff" stroke="#63b8ff" points="1570.58,-159.7 1580.62,-156.32 1570.66,-152.7 1570.58,-159.7"/>
</a>
</g>
</g>
<!-- Node6 -->
<g id="Node000006" class="node">
<title>Node6</title>
<g id="a_Node000006"><a xlink:href="../../dc/de0/bustub__ddl_8cpp.html" target="_top" xlink:title=" ">
<polygon fill="white" stroke="#666666" points="474.5,-96 321.5,-96 321.5,-77 474.5,-77 474.5,-96"/>
<text text-anchor="middle" x="398" y="-84" font-family="Helvetica,sans-Serif" font-size="10.00">src/common/bustub_ddl.cpp</text>
</a>
</g>
</g>
<!-- Node3&#45;&gt;Node6 -->
<g id="edge5_Node000003_Node000006" class="edge">
<title>Node3&#45;&gt;Node6</title>
<g id="a_edge5_Node000003_Node000006"><a xlink:title=" ">
<path fill="none" stroke="#63b8ff" d="M1570.77,-155.61C1351.37,-151.13 694.76,-135.61 483,-107 464.85,-104.55 444.86,-100.06 428.84,-96"/>
<polygon fill="#63b8ff" stroke="#63b8ff" points="1570.82,-159.11 1580.89,-155.82 1570.96,-152.12 1570.82,-159.11"/>
</a>
</g>
</g>
<!-- Node7 -->
<g id="Node000007" class="node">
<title>Node7</title>
<g id="a_Node000007"><a xlink:href="../../da/d08/bustub__instance_8cpp.html" target="_top" xlink:title=" ">
<polygon fill="white" stroke="#666666" points="671.5,-96 492.5,-96 492.5,-77 671.5,-77 671.5,-96"/>
<text text-anchor="middle" x="582" y="-84" font-family="Helvetica,sans-Serif" font-size="10.00">src/common/bustub_instance.cpp</text>
</a>
</g>
</g>
<!-- Node3&#45;&gt;Node7 -->
<g id="edge6_Node000003_Node000007" class="edge">
<title>Node3&#45;&gt;Node7</title>
<g id="a_edge6_Node000003_Node000007"><a xlink:title=" ">
<path fill="none" stroke="#63b8ff" d="M1570.51,-156.81C1409.63,-155.59 1010.8,-148.28 680,-107 659.52,-104.44 636.9,-100.05 618.56,-96.08"/>
<polygon fill="#63b8ff" stroke="#63b8ff" points="1570.74,-160.31 1580.76,-156.88 1570.79,-153.31 1570.74,-160.31"/>
</a>
</g>
</g>
<!-- Node8 -->
<g id="Node000008" class="node">
<title>Node8</title>
<g id="a_Node000008"><a xlink:href="../../d1/d14/transaction__manager_8cpp.html" target="_top" xlink:title=" ">
<polygon fill="white" stroke="#666666" points="840.5,-101.5 689.5,-101.5 689.5,-71.5 840.5,-71.5 840.5,-101.5"/>
<text text-anchor="start" x="697.5" y="-89.5" font-family="Helvetica,sans-Serif" font-size="10.00">src/concurrency/transaction</text>
<text text-anchor="middle" x="765" y="-78.5" font-family="Helvetica,sans-Serif" font-size="10.00">_manager.cpp</text>
</a>
</g>
</g>
<!-- Node3&#45;&gt;Node8 -->
<g id="edge7_Node000003_Node000008" class="edge">
<title>Node3&#45;&gt;Node8</title>
<g id="a_edge7_Node000003_Node000008"><a xlink:title=" ">
<path fill="none" stroke="#63b8ff" d="M1570.69,-156.43C1430.65,-154.46 1112.98,-145.68 849,-107 839.37,-105.59 829.22,-103.64 819.42,-101.51"/>
<polygon fill="#63b8ff" stroke="#63b8ff" points="1570.82,-159.94 1580.87,-156.57 1570.91,-152.94 1570.82,-159.94"/>
</a>
</g>
</g>
<!-- Node9 -->
<g id="Node000009" class="node">
<title>Node9</title>
<g id="a_Node000009"><a xlink:href="../../d3/d72/transaction__manager__impl_8cpp.html" target="_top" xlink:title=" ">
<polygon fill="white" stroke="#666666" points="1009.5,-101.5 858.5,-101.5 858.5,-71.5 1009.5,-71.5 1009.5,-101.5"/>
<text text-anchor="start" x="866.5" y="-89.5" font-family="Helvetica,sans-Serif" font-size="10.00">src/concurrency/transaction</text>
<text text-anchor="middle" x="934" y="-78.5" font-family="Helvetica,sans-Serif" font-size="10.00">_manager_impl.cpp</text>
</a>
</g>
</g>
<!-- Node3&#45;&gt;Node9 -->
<g id="edge8_Node000003_Node000009" class="edge">
<title>Node3&#45;&gt;Node9</title>
<g id="a_edge8_Node000003_Node000009"><a xlink:title=" ">
<path fill="none" stroke="#63b8ff" d="M1570.75,-154.7C1453.94,-150.2 1216.65,-137.83 1018,-107 1008.68,-105.55 998.86,-103.64 989.35,-101.57"/>
<polygon fill="#63b8ff" stroke="#63b8ff" points="1570.87,-158.21 1580.99,-155.08 1571.13,-151.21 1570.87,-158.21"/>
</a>
</g>
</g>
<!-- Node10 -->
<g id="Node000010" class="node">
<title>Node10</title>
<g id="a_Node000010"><a xlink:href="../../dd/df1/execution__common_8cpp.html" target="_top" xlink:title=" ">
<polygon fill="white" stroke="#666666" points="1158.5,-101.5 1027.5,-101.5 1027.5,-71.5 1158.5,-71.5 1158.5,-101.5"/>
<text text-anchor="start" x="1035.5" y="-89.5" font-family="Helvetica,sans-Serif" font-size="10.00">src/execution/execution</text>
<text text-anchor="middle" x="1093" y="-78.5" font-family="Helvetica,sans-Serif" font-size="10.00">_common.cpp</text>
</a>
</g>
</g>
<!-- Node3&#45;&gt;Node10 -->
<g id="edge9_Node000003_Node000010" class="edge">
<title>Node3&#45;&gt;Node10</title>
<g id="a_edge9_Node000003_Node000010"><a xlink:title=" ">
<path fill="none" stroke="#63b8ff" d="M1570.73,-152.86C1477.03,-146.71 1308.8,-132.97 1167,-107 1158.9,-105.52 1150.38,-103.61 1142.12,-101.57"/>
<polygon fill="#63b8ff" stroke="#63b8ff" points="1570.75,-156.37 1580.95,-153.52 1571.2,-149.38 1570.75,-156.37"/>
</a>
</g>
</g>
<!-- Node11 -->
<g id="Node000011" class="node">
<title>Node11</title>
<g id="a_Node000011"><a xlink:href="../../d2/d5a/filter__executor_8cpp.html" target="_top" xlink:title=" ">
<polygon fill="white" stroke="#666666" points="1283.5,-101.5 1176.5,-101.5 1176.5,-71.5 1283.5,-71.5 1283.5,-101.5"/>
<text text-anchor="start" x="1184.5" y="-89.5" font-family="Helvetica,sans-Serif" font-size="10.00">src/execution/filter</text>
<text text-anchor="middle" x="1230" y="-78.5" font-family="Helvetica,sans-Serif" font-size="10.00">_executor.cpp</text>
</a>
</g>
</g>
<!-- Node3&#45;&gt;Node11 -->
<g id="edge10_Node000003_Node000011" class="edge">
<title>Node3&#45;&gt;Node11</title>
<g id="a_edge10_Node000003_Node000011"><a xlink:title=" ">
<path fill="none" stroke="#63b8ff" d="M1570.71,-150.19C1499.3,-142.64 1387.26,-128.61 1292,-107 1285.29,-105.48 1278.25,-103.57 1271.43,-101.56"/>
<polygon fill="#63b8ff" stroke="#63b8ff" points="1570.63,-153.7 1580.94,-151.25 1571.36,-146.74 1570.63,-153.7"/>
</a>
</g>
</g>
<!-- Node12 -->
<g id="Node000012" class="node">
<title>Node12</title>
<g id="a_Node000012"><a xlink:href="../../da/dd8/mock__scan__executor_8cpp.html" target="_top" xlink:title=" ">
<polygon fill="white" stroke="#666666" points="1412.5,-101.5 1301.5,-101.5 1301.5,-71.5 1412.5,-71.5 1412.5,-101.5"/>
<text text-anchor="start" x="1309.5" y="-89.5" font-family="Helvetica,sans-Serif" font-size="10.00">src/execution/mock</text>
<text text-anchor="middle" x="1357" y="-78.5" font-family="Helvetica,sans-Serif" font-size="10.00">_scan_executor.cpp</text>
</a>
</g>
</g>
<!-- Node3&#45;&gt;Node12 -->
<g id="edge11_Node000003_Node000012" class="edge">
<title>Node3&#45;&gt;Node12</title>
<g id="a_edge11_Node000003_Node000012"><a xlink:title=" ">
<path fill="none" stroke="#63b8ff" d="M1570.92,-142.01C1527.58,-132.67 1471.42,-119.99 1422,-107 1415.62,-105.32 1408.92,-103.45 1402.35,-101.54"/>
<polygon fill="#63b8ff" stroke="#63b8ff" points="1570.29,-145.45 1580.8,-144.13 1571.76,-138.61 1570.29,-145.45"/>
</a>
</g>
</g>
<!-- Node13 -->
<g id="Node000013" class="node">
<title>Node13</title>
<g id="a_Node000013"><a xlink:href="../../dd/d51/aggregation__executor_8h.html" target="_top" xlink:title=" ">
<polygon fill="white" stroke="#666666" points="1559,-107 1431,-107 1431,-66 1559,-66 1559,-107"/>
<text text-anchor="start" x="1439" y="-95" font-family="Helvetica,sans-Serif" font-size="10.00">src/include/execution</text>
<text text-anchor="start" x="1439" y="-84" font-family="Helvetica,sans-Serif" font-size="10.00">/executors/aggregation</text>
<text text-anchor="middle" x="1495" y="-73" font-family="Helvetica,sans-Serif" font-size="10.00">_executor.h</text>
</a>
</g>
</g>
<!-- Node3&#45;&gt;Node13 -->
<g id="edge12_Node000003_Node000013" class="edge">
<title>Node3&#45;&gt;Node13</title>
<g id="a_edge12_Node000003_Node000013"><a xlink:title=" ">
<path fill="none" stroke="#63b8ff" d="M1603.9,-138.64C1583.2,-128.92 1557.76,-116.97 1536.68,-107.07"/>
<polygon fill="#63b8ff" stroke="#63b8ff" points="1602.51,-141.85 1613.05,-142.94 1605.49,-135.52 1602.51,-141.85"/>
</a>
</g>
</g>
<!-- Node16 -->
<g id="Node000016" class="node">
<title>Node16</title>
<g id="a_Node000016"><a xlink:href="../../d3/d6d/arithmetic__expression_8h.html" target="_top" xlink:title=" ">
<polygon fill="white" stroke="#666666" points="1708.5,-107 1577.5,-107 1577.5,-66 1708.5,-66 1708.5,-107"/>
<text text-anchor="start" x="1585.5" y="-95" font-family="Helvetica,sans-Serif" font-size="10.00">src/include/execution</text>
<text text-anchor="start" x="1585.5" y="-84" font-family="Helvetica,sans-Serif" font-size="10.00">/expressions/arithmetic</text>
<text text-anchor="middle" x="1643" y="-73" font-family="Helvetica,sans-Serif" font-size="10.00">_expression.h</text>
</a>
</g>
</g>
<!-- Node3&#45;&gt;Node16 -->
<g id="edge15_Node000003_Node000016" class="edge">
<title>Node3&#45;&gt;Node16</title>
<g id="a_edge15_Node000003_Node000016"><a xlink:title=" ">
<path fill="none" stroke="#63b8ff" d="M1643,-132.91C1643,-124.47 1643,-115.1 1643,-107.07"/>
<polygon fill="#63b8ff" stroke="#63b8ff" points="1639.5,-132.94 1643,-142.94 1646.5,-132.94 1639.5,-132.94"/>
</a>
</g>
</g>
<!-- Node18 -->
<g id="Node000018" class="node">
<title>Node18</title>
<g id="a_Node000018"><a xlink:href="../../d7/da4/comparison__expression_8h.html" target="_top" xlink:title=" ">
<polygon fill="white" stroke="#666666" points="2055,-107 1917,-107 1917,-66 2055,-66 2055,-107"/>
<text text-anchor="start" x="1925" y="-95" font-family="Helvetica,sans-Serif" font-size="10.00">src/include/execution</text>
<text text-anchor="start" x="1925" y="-84" font-family="Helvetica,sans-Serif" font-size="10.00">/expressions/comparison</text>
<text text-anchor="middle" x="1986" y="-73" font-family="Helvetica,sans-Serif" font-size="10.00">_expression.h</text>
</a>
</g>
</g>
<!-- Node3&#45;&gt;Node18 -->
<g id="edge17_Node000003_Node000018" class="edge">
<title>Node3&#45;&gt;Node18</title>
<g id="a_edge17_Node000003_Node000018"><a xlink:title=" ">
<path fill="none" stroke="#63b8ff" d="M1715.11,-144.57C1768.53,-135.08 1843.02,-121.24 1908,-107 1910.86,-106.37 1913.78,-105.72 1916.73,-105.04"/>
<polygon fill="#63b8ff" stroke="#63b8ff" points="1714.29,-141.16 1705.05,-146.35 1715.51,-148.05 1714.29,-141.16"/>
</a>
</g>
</g>
<!-- Node21 -->
<g id="Node000021" class="node">
<title>Node21</title>
<g id="a_Node000021"><a xlink:href="../../dd/d76/logic__expression_8h.html" target="_top" xlink:title=" ">
<polygon fill="white" stroke="#666666" points="1899,-101.5 1727,-101.5 1727,-71.5 1899,-71.5 1899,-101.5"/>
<text text-anchor="start" x="1735" y="-89.5" font-family="Helvetica,sans-Serif" font-size="10.00">src/include/execution</text>
<text text-anchor="middle" x="1813" y="-78.5" font-family="Helvetica,sans-Serif" font-size="10.00">/expressions/logic_expression.h</text>
</a>
</g>
</g>
<!-- Node3&#45;&gt;Node21 -->
<g id="edge21_Node000003_Node000021" class="edge">
<title>Node3&#45;&gt;Node21</title>
<g id="a_edge21_Node000003_Node000021"><a xlink:title=" ">
<path fill="none" stroke="#63b8ff" d="M1686.76,-139.11C1715.35,-127.42 1752.16,-112.37 1778.65,-101.54"/>
<polygon fill="#63b8ff" stroke="#63b8ff" points="1685.33,-135.91 1677.4,-142.94 1687.98,-142.39 1685.33,-135.91"/>
</a>
</g>
</g>
<!-- Node22 -->
<g id="Node000022" class="node">
<title>Node22</title>
<g id="a_Node000022"><a xlink:href="../../df/d13/string__expression_8h.html" target="_top" xlink:title=" ">
<polygon fill="white" stroke="#666666" points="2249,-101.5 2073,-101.5 2073,-71.5 2249,-71.5 2249,-101.5"/>
<text text-anchor="start" x="2081" y="-89.5" font-family="Helvetica,sans-Serif" font-size="10.00">src/include/execution</text>
<text text-anchor="middle" x="2161" y="-78.5" font-family="Helvetica,sans-Serif" font-size="10.00">/expressions/string_expression.h</text>
</a>
</g>
</g>
<!-- Node3&#45;&gt;Node22 -->
<g id="edge23_Node000003_Node000022" class="edge">
<title>Node3&#45;&gt;Node22</title>
<g id="a_edge23_Node000003_Node000022"><a xlink:title=" ">
<path fill="none" stroke="#63b8ff" d="M1715.23,-150.2C1799.28,-141.88 1942.12,-126.46 2064,-107 2074.01,-105.4 2084.55,-103.51 2094.86,-101.53"/>
<polygon fill="#63b8ff" stroke="#63b8ff" points="1714.88,-146.72 1705.28,-151.18 1715.57,-153.68 1714.88,-146.72"/>
</a>
</g>
</g>
<!-- Node24 -->
<g id="Node000024" class="node">
<title>Node24</title>
<g id="a_Node000024"><a xlink:href="../../da/de4/plan__aggregation_8cpp.html" target="_top" xlink:title=" ">
<polygon fill="white" stroke="#666666" points="2446.5,-96 2267.5,-96 2267.5,-77 2446.5,-77 2446.5,-96"/>
<text text-anchor="middle" x="2357" y="-84" font-family="Helvetica,sans-Serif" font-size="10.00">src/planner/plan_aggregation.cpp</text>
</a>
</g>
</g>
<!-- Node3&#45;&gt;Node24 -->
<g id="edge25_Node000003_Node000024" class="edge">
<title>Node3&#45;&gt;Node24</title>
<g id="a_edge25_Node000003_Node000024"><a xlink:title=" ">
<path fill="none" stroke="#63b8ff" d="M1715.34,-153.78C1830.6,-148.05 2062.82,-134.07 2258,-107 2278.3,-104.18 2300.73,-99.87 2319.09,-96.01"/>
<polygon fill="#63b8ff" stroke="#63b8ff" points="1715.05,-150.29 1705.23,-154.28 1715.39,-157.28 1715.05,-150.29"/>
</a>
</g>
</g>
<!-- Node25 -->
<g id="Node000025" class="node">
<title>Node25</title>
<g id="a_Node000025"><a xlink:href="../../d0/d29/plan__expression_8cpp.html" target="_top" xlink:title=" ">
<polygon fill="white" stroke="#666666" points="2637.5,-96 2464.5,-96 2464.5,-77 2637.5,-77 2637.5,-96"/>
<text text-anchor="middle" x="2551" y="-84" font-family="Helvetica,sans-Serif" font-size="10.00">src/planner/plan_expression.cpp</text>
</a>
</g>
</g>
<!-- Node3&#45;&gt;Node25 -->
<g id="edge26_Node000003_Node000025" class="edge">
<title>Node3&#45;&gt;Node25</title>
<g id="a_edge26_Node000003_Node000025"><a xlink:title=" ">
<path fill="none" stroke="#63b8ff" d="M1715.6,-155.96C1858.14,-153.17 2184.36,-143.05 2456,-107 2475.86,-104.36 2497.79,-99.97 2515.56,-96.01"/>
<polygon fill="#63b8ff" stroke="#63b8ff" points="1715.18,-152.47 1705.25,-156.16 1715.31,-159.47 1715.18,-152.47"/>
</a>
</g>
</g>
<!-- Node26 -->
<g id="Node000026" class="node">
<title>Node26</title>
<g id="a_Node000026"><a xlink:href="../../d9/df0/plan__select_8cpp.html" target="_top" xlink:title=" ">
<polygon fill="white" stroke="#666666" points="2804.5,-96 2655.5,-96 2655.5,-77 2804.5,-77 2804.5,-96"/>
<text text-anchor="middle" x="2730" y="-84" font-family="Helvetica,sans-Serif" font-size="10.00">src/planner/plan_select.cpp</text>
</a>
</g>
</g>
<!-- Node3&#45;&gt;Node26 -->
<g id="edge27_Node000003_Node000026" class="edge">
<title>Node3&#45;&gt;Node26</title>
<g id="a_edge27_Node000003_Node000026"><a xlink:title=" ">
<path fill="none" stroke="#63b8ff" d="M1715.26,-155.1C1914.16,-149.61 2466.85,-132.43 2647,-107 2664.59,-104.52 2683.92,-100.08 2699.51,-96.06"/>
<polygon fill="#63b8ff" stroke="#63b8ff" points="1715.11,-151.6 1705.21,-155.38 1715.31,-158.6 1715.11,-151.6"/>
</a>
</g>
</g>
<!-- Node27 -->
<g id="Node000027" class="node">
<title>Node27</title>
<g id="a_Node000027"><a xlink:href="../../d8/d40/plan__table__ref_8cpp.html" target="_top" xlink:title=" ">
<polygon fill="white" stroke="#666666" points="2947.5,-101.5 2822.5,-101.5 2822.5,-71.5 2947.5,-71.5 2947.5,-101.5"/>
<text text-anchor="start" x="2830.5" y="-89.5" font-family="Helvetica,sans-Serif" font-size="10.00">src/planner/plan_table</text>
<text text-anchor="middle" x="2885" y="-78.5" font-family="Helvetica,sans-Serif" font-size="10.00">_ref.cpp</text>
</a>
</g>
</g>
<!-- Node3&#45;&gt;Node27 -->
<g id="edge28_Node000003_Node000027" class="edge">
<title>Node3&#45;&gt;Node27</title>
<g id="a_edge28_Node000003_Node000027"><a xlink:title=" ">
<path fill="none" stroke="#63b8ff" d="M1715.2,-156.05C1936.09,-152.79 2600.65,-140.41 2814,-107 2822.46,-105.67 2831.36,-103.71 2839.88,-101.53"/>
<polygon fill="#63b8ff" stroke="#63b8ff" points="1714.97,-152.55 1705.02,-156.19 1715.07,-159.55 1714.97,-152.55"/>
</a>
</g>
</g>
<!-- Node28 -->
<g id="Node000028" class="node">
<title>Node28</title>
<g id="a_Node000028"><a xlink:href="../../d4/d79/plan__window__function_8cpp.html" target="_top" xlink:title=" ">
<polygon fill="white" stroke="#666666" points="3102.5,-101.5 2965.5,-101.5 2965.5,-71.5 3102.5,-71.5 3102.5,-101.5"/>
<text text-anchor="start" x="2973.5" y="-89.5" font-family="Helvetica,sans-Serif" font-size="10.00">src/planner/plan_window</text>
<text text-anchor="middle" x="3034" y="-78.5" font-family="Helvetica,sans-Serif" font-size="10.00">_function.cpp</text>
</a>
</g>
</g>
<!-- Node3&#45;&gt;Node28 -->
<g id="edge29_Node000003_Node000028" class="edge">
<title>Node3&#45;&gt;Node28</title>
<g id="a_edge29_Node000003_Node000028"><a xlink:title=" ">
<path fill="none" stroke="#63b8ff" d="M1715.68,-156.24C1954.62,-153.44 2714.45,-141.93 2957,-107 2966.14,-105.68 2975.78,-103.72 2985.02,-101.54"/>
<polygon fill="#63b8ff" stroke="#63b8ff" points="1715.33,-152.75 1705.37,-156.36 1715.41,-159.75 1715.33,-152.75"/>
</a>
</g>
</g>
<!-- Node3&#45;&gt;Node29 -->
<g id="edge30_Node000003_Node000029" class="edge">
<title>Node3&#45;&gt;Node29</title>
<g id="a_edge30_Node000003_Node000029"><a xlink:title=" ">
<path fill="none" stroke="#63b8ff" d="M1715.45,-155.63C1992.16,-150.24 2973.79,-129.69 3112,-107 3119.91,-105.7 3128.2,-103.72 3136.11,-101.5"/>
<polygon fill="#63b8ff" stroke="#63b8ff" points="1715.06,-152.13 1705.13,-155.83 1715.19,-159.13 1715.06,-152.13"/>
</a>
</g>
</g>
<!-- Node14 -->
<g id="Node000014" class="node">
<title>Node14</title>
<g id="a_Node000014"><a xlink:href="../../da/d4d/aggregation__executor_8cpp.html" target="_top" xlink:title=" ">
<polygon fill="white" stroke="#666666" points="1472.5,-30 1329.5,-30 1329.5,0 1472.5,0 1472.5,-30"/>
<text text-anchor="start" x="1337.5" y="-18" font-family="Helvetica,sans-Serif" font-size="10.00">src/execution/aggregation</text>
<text text-anchor="middle" x="1401" y="-7" font-family="Helvetica,sans-Serif" font-size="10.00">_executor.cpp</text>
</a>
</g>
</g>
<!-- Node13&#45;&gt;Node14 -->
<g id="edge13_Node000013_Node000014" class="edge">
<title>Node13&#45;&gt;Node14</title>
<g id="a_edge13_Node000013_Node000014"><a xlink:title=" ">
<path fill="none" stroke="#63b8ff" d="M1460.33,-59.87C1446.73,-49.81 1431.64,-38.66 1420.09,-30.11"/>
<polygon fill="#63b8ff" stroke="#63b8ff" points="1458.44,-62.82 1468.57,-65.96 1462.61,-57.2 1458.44,-62.82"/>
</a>
</g>
</g>
<!-- Node15 -->
<g id="Node000015" class="node">
<title>Node15</title>
<g id="a_Node000015"><a xlink:href="../../d3/d3e/executor__factory_8cpp.html" target="_top" xlink:title=" ">
<polygon fill="white" stroke="#666666" points="1617,-30 1491,-30 1491,0 1617,0 1617,-30"/>
<text text-anchor="start" x="1499" y="-18" font-family="Helvetica,sans-Serif" font-size="10.00">src/execution/executor</text>
<text text-anchor="middle" x="1554" y="-7" font-family="Helvetica,sans-Serif" font-size="10.00">_factory.cpp</text>
</a>
</g>
</g>
<!-- Node13&#45;&gt;Node15 -->
<g id="edge14_Node000013_Node000015" class="edge">
<title>Node13&#45;&gt;Node15</title>
<g id="a_edge14_Node000013_Node000015"><a xlink:title=" ">
<path fill="none" stroke="#63b8ff" d="M1518.37,-57.98C1526.49,-48.4 1535.27,-38.06 1542.08,-30.04"/>
<polygon fill="#63b8ff" stroke="#63b8ff" points="1515.55,-55.88 1511.75,-65.77 1520.89,-60.41 1515.55,-55.88"/>
</a>
</g>
</g>
<!-- Node17 -->
<g id="Node000017" class="node">
<title>Node17</title>
<g id="a_Node000017"><a xlink:href="../../df/dfb/expression__factory_8cpp.html" target="_top" xlink:title=" ">
<polygon fill="white" stroke="#666666" points="1848.5,-30 1721.5,-30 1721.5,0 1848.5,0 1848.5,-30"/>
<text text-anchor="start" x="1729.5" y="-18" font-family="Helvetica,sans-Serif" font-size="10.00">src/planner/expression</text>
<text text-anchor="middle" x="1785" y="-7" font-family="Helvetica,sans-Serif" font-size="10.00">_factory.cpp</text>
</a>
</g>
</g>
<!-- Node16&#45;&gt;Node17 -->
<g id="edge16_Node000016_Node000017" class="edge">
<title>Node16&#45;&gt;Node17</title>
<g id="a_edge16_Node000016_Node000017"><a xlink:title=" ">
<path fill="none" stroke="#63b8ff" d="M1692.19,-61.42C1713.54,-50.98 1737.8,-39.1 1756.17,-30.11"/>
<polygon fill="#63b8ff" stroke="#63b8ff" points="1690.38,-58.42 1682.93,-65.96 1693.45,-64.7 1690.38,-58.42"/>
</a>
</g>
</g>
<!-- Node18&#45;&gt;Node17 -->
<g id="edge20_Node000018_Node000017" class="edge">
<title>Node18&#45;&gt;Node17</title>
<g id="a_edge20_Node000018_Node000017"><a xlink:title=" ">
<path fill="none" stroke="#63b8ff" d="M1919.97,-62.67C1888.79,-51.89 1852.57,-39.36 1825.5,-30"/>
<polygon fill="#63b8ff" stroke="#63b8ff" points="1918.88,-66 1929.48,-65.96 1921.17,-59.38 1918.88,-66"/>
</a>
</g>
</g>
<!-- Node19 -->
<g id="Node000019" class="node">
<title>Node19</title>
<g id="a_Node000019"><a xlink:href="../../d5/d99/nlj__as__hash__join_8cpp.html" target="_top" xlink:title=" ">
<polygon fill="white" stroke="#666666" points="1979,-30 1867,-30 1867,0 1979,0 1979,-30"/>
<text text-anchor="start" x="1875" y="-18" font-family="Helvetica,sans-Serif" font-size="10.00">src/optimizer/nlj_as</text>
<text text-anchor="middle" x="1923" y="-7" font-family="Helvetica,sans-Serif" font-size="10.00">_hash_join.cpp</text>
</a>
</g>
</g>
<!-- Node18&#45;&gt;Node19 -->
<g id="edge18_Node000018_Node000019" class="edge">
<title>Node18&#45;&gt;Node19</title>
<g id="a_edge18_Node000018_Node000019"><a xlink:title=" ">
<path fill="none" stroke="#63b8ff" d="M1961.31,-58.26C1952.56,-48.61 1943.07,-38.14 1935.73,-30.04"/>
<polygon fill="#63b8ff" stroke="#63b8ff" points="1958.81,-60.71 1968.12,-65.77 1963.99,-56.01 1958.81,-60.71"/>
</a>
</g>
</g>
<!-- Node20 -->
<g id="Node000020" class="node">
<title>Node20</title>
<g id="a_Node000020"><a xlink:href="../../d0/de1/nlj__as__index__join_8cpp.html" target="_top" xlink:title=" ">
<polygon fill="white" stroke="#666666" points="2109,-30 1997,-30 1997,0 2109,0 2109,-30"/>
<text text-anchor="start" x="2005" y="-18" font-family="Helvetica,sans-Serif" font-size="10.00">src/optimizer/nlj_as</text>
<text text-anchor="middle" x="2053" y="-7" font-family="Helvetica,sans-Serif" font-size="10.00">_index_join.cpp</text>
</a>
</g>
</g>
<!-- Node18&#45;&gt;Node20 -->
<g id="edge19_Node000018_Node000020" class="edge">
<title>Node18&#45;&gt;Node20</title>
<g id="a_edge19_Node000018_Node000020"><a xlink:title=" ">
<path fill="none" stroke="#63b8ff" d="M2011.98,-58.55C2021.37,-48.81 2031.58,-38.22 2039.47,-30.04"/>
<polygon fill="#63b8ff" stroke="#63b8ff" points="2009.44,-56.14 2005.02,-65.77 2014.48,-61 2009.44,-56.14"/>
</a>
</g>
</g>
<!-- Node21&#45;&gt;Node17 -->
<g id="edge22_Node000021_Node000017" class="edge">
<title>Node21&#45;&gt;Node17</title>
<g id="a_edge22_Node000021_Node000017"><a xlink:title=" ">
<path fill="none" stroke="#63b8ff" d="M1803.49,-61.9C1799.23,-51.31 1794.34,-39.18 1790.66,-30.04"/>
<polygon fill="#63b8ff" stroke="#63b8ff" points="1800.35,-63.47 1807.33,-71.44 1806.84,-60.85 1800.35,-63.47"/>
</a>
</g>
</g>
<!-- Node23 -->
<g id="Node000023" class="node">
<title>Node23</title>
<g id="a_Node000023"><a xlink:href="../../d6/da3/plan__func__call_8cpp.html" target="_top" xlink:title=" ">
<polygon fill="white" stroke="#666666" points="2248.5,-30 2127.5,-30 2127.5,0 2248.5,0 2248.5,-30"/>
<text text-anchor="start" x="2135.5" y="-18" font-family="Helvetica,sans-Serif" font-size="10.00">src/planner/plan_func</text>
<text text-anchor="middle" x="2188" y="-7" font-family="Helvetica,sans-Serif" font-size="10.00">_call.cpp</text>
</a>
</g>
</g>
<!-- Node22&#45;&gt;Node23 -->
<g id="edge24_Node000022_Node000023" class="edge">
<title>Node22&#45;&gt;Node23</title>
<g id="a_edge24_Node000022_Node000023"><a xlink:title=" ">
<path fill="none" stroke="#63b8ff" d="M2170.17,-61.9C2174.28,-51.31 2179,-39.18 2182.54,-30.04"/>
<polygon fill="#63b8ff" stroke="#63b8ff" points="2166.82,-60.85 2166.46,-71.44 2173.35,-63.38 2166.82,-60.85"/>
</a>
</g>
</g>
</g>
</svg>

<g id="navigator" transform="translate(0 0)" fill="#404254">
  <rect fill="#f2f5e9" fill-opacity="0.5" stroke="#606060" stroke-width=".5" x="0" y="0" width="60" height="60"/>
  <use id="zoomplus" xlink:href="#zoomPlus" x="17" y="9" onmousedown="handleZoom(evt,'in')"/>
  <use id="zoomminus" xlink:href="#zoomMin" x="42" y="9" onmousedown="handleZoom(evt,'out')"/>
  <use id="reset" xlink:href="#resetDef" x="30" y="36" onmousedown="handleReset()"/>
   <use id="arrowup" xlink:href="#arrowUp" x="0" y="0" onmousedown="handlePan(0,-1)"/>
  <use id="arrowright" xlink:href="#arrowRight" x="0" y="0" onmousedown="handlePan(1,0)"/>
  <use id="arrowdown" xlink:href="#arrowDown" x="0" y="0" onmousedown="handlePan(0,1)"/>
  <use id="arrowleft" xlink:href="#arrowLeft" x="0" y="0" onmousedown="handlePan(-1,0)"/>
</g>
<svg viewBox="0 0 15 15" width="100%" height="30px" preserveAspectRatio="xMaxYMin meet">
 <g id="arrow_out" transform="scale(0.3 0.3)">
  <a xlink:href="abstract__pool_8h__dep__incl_org.svg" target="_base">
   <rect id="button" ry="5" rx="5" y="6" x="6" height="38" width="38"
        fill="#f2f5e9" fill-opacity="0.5" stroke="#606060" stroke-width="1.0"/>
   <path id="arrow"
     d="M 11.500037,31.436501 C 11.940474,20.09759 22.043105,11.32322 32.158766,21.979434 L 37.068811,17.246167 C 37.068811,17.246167 37.088388,32 37.088388,32 L 22.160133,31.978069 C 22.160133,31.978069 26.997745,27.140456 26.997745,27.140456 C 18.528582,18.264221 13.291696,25.230495 11.500037,31.436501 z"
     style="fill:#404040;"/>
  </a>
 </g>
</svg>

<style type='text/css'>
<![CDATA[
[data-mouse-over-selected='false'] { opacity: 0.7; }
[data-mouse-over-selected='true']  { opacity: 1.0; }
]]>
</style>
<script type="application/ecmascript"><![CDATA[
document.addEventListener('DOMContentLoaded', (event) => {
  highlightEdges();
  highlightAdjacentNodes();
});
]]></script>
</svg>
