<?xml version="1.0" encoding="UTF-8" standalone="no"?>
<!DOCTYPE svg PUBLIC "-//W3C//DTD SVG 1.1//EN"
 "http://www.w3.org/Graphics/SVG/1.1/DTD/svg11.dtd">
<!-- Generated by graphviz version 2.43.0 (0)
 -->
<!-- Title: src/include/storage/disk/disk_manager.h Pages: 1 -->
<svg width="418pt" height="148pt"
 viewBox="0.00 0.00 417.50 148.00" xmlns="http://www.w3.org/2000/svg" xmlns:xlink="http://www.w3.org/1999/xlink">
<g id="graph0" class="graph" transform="scale(1 1) rotate(0) translate(4 144)">
<title>src/include/storage/disk/disk_manager.h</title>
<!-- Node1 -->
<g id="Node000001" class="node">
<title>Node1</title>
<g id="a_Node000001"><a xlink:title=" ">
<polygon fill="#999999" stroke="#666666" points="221.5,-140 101.5,-140 101.5,-110 221.5,-110 221.5,-140"/>
<text text-anchor="start" x="109.5" y="-128" font-family="Helvetica,sans-Serif" font-size="10.00">src/include/storage</text>
<text text-anchor="middle" x="161.5" y="-117" font-family="Helvetica,sans-Serif" font-size="10.00">/disk/disk_manager.h</text>
</a>
</g>
</g>
<!-- Node2 -->
<g id="Node000002" class="node">
<title>Node2</title>
<g id="a_Node000002"><a xlink:title=" ">
<polygon fill="#e0e0e0" stroke="#999999" points="55,-74 0,-74 0,-55 55,-55 55,-74"/>
<text text-anchor="middle" x="27.5" y="-62" font-family="Helvetica,sans-Serif" font-size="10.00">fstream</text>
</a>
</g>
</g>
<!-- Node1&#45;&gt;Node2 -->
<g id="edge1_Node000001_Node000002" class="edge">
<title>Node1&#45;&gt;Node2</title>
<g id="a_edge1_Node000001_Node000002"><a xlink:title=" ">
<path fill="none" stroke="#63b8ff" d="M129.4,-109.99C107.25,-100.31 78.02,-87.56 56.55,-78.18"/>
<polygon fill="#63b8ff" stroke="#63b8ff" points="57.85,-74.93 47.29,-74.14 55.05,-81.35 57.85,-74.93"/>
</a>
</g>
</g>
<!-- Node3 -->
<g id="Node000003" class="node">
<title>Node3</title>
<g id="a_Node000003"><a xlink:title=" ">
<polygon fill="#e0e0e0" stroke="#999999" points="119.5,-74 73.5,-74 73.5,-55 119.5,-55 119.5,-74"/>
<text text-anchor="middle" x="96.5" y="-62" font-family="Helvetica,sans-Serif" font-size="10.00">future</text>
</a>
</g>
</g>
<!-- Node1&#45;&gt;Node3 -->
<g id="edge2_Node000001_Node000003" class="edge">
<title>Node1&#45;&gt;Node3</title>
<g id="a_edge2_Node000001_Node000003"><a xlink:title=" ">
<path fill="none" stroke="#63b8ff" d="M145.77,-109.84C136.14,-101.17 123.81,-90.08 113.89,-81.15"/>
<polygon fill="#63b8ff" stroke="#63b8ff" points="116.01,-78.35 106.24,-74.27 111.33,-83.56 116.01,-78.35"/>
</a>
</g>
</g>
<!-- Node4 -->
<g id="Node000004" class="node">
<title>Node4</title>
<g id="a_Node000004"><a xlink:title=" ">
<polygon fill="#e0e0e0" stroke="#999999" points="185.5,-74 137.5,-74 137.5,-55 185.5,-55 185.5,-74"/>
<text text-anchor="middle" x="161.5" y="-62" font-family="Helvetica,sans-Serif" font-size="10.00">mutex</text>
</a>
</g>
</g>
<!-- Node1&#45;&gt;Node4 -->
<g id="edge3_Node000001_Node000004" class="edge">
<title>Node1&#45;&gt;Node4</title>
<g id="a_edge3_Node000001_Node000004"><a xlink:title=" ">
<path fill="none" stroke="#63b8ff" d="M161.5,-109.84C161.5,-102.21 161.5,-92.7 161.5,-84.45"/>
<polygon fill="#63b8ff" stroke="#63b8ff" points="165,-84.27 161.5,-74.27 158,-84.27 165,-84.27"/>
</a>
</g>
</g>
<!-- Node5 -->
<g id="Node000005" class="node">
<title>Node5</title>
<g id="a_Node000005"><a xlink:title=" ">
<polygon fill="#e0e0e0" stroke="#999999" points="247.5,-74 203.5,-74 203.5,-55 247.5,-55 247.5,-74"/>
<text text-anchor="middle" x="225.5" y="-62" font-family="Helvetica,sans-Serif" font-size="10.00">string</text>
</a>
</g>
</g>
<!-- Node1&#45;&gt;Node5 -->
<g id="edge4_Node000001_Node000005" class="edge">
<title>Node1&#45;&gt;Node5</title>
<g id="a_edge4_Node000001_Node000005"><a xlink:title=" ">
<path fill="none" stroke="#63b8ff" d="M176.99,-109.84C186.47,-101.17 198.61,-90.08 208.38,-81.15"/>
<polygon fill="#63b8ff" stroke="#63b8ff" points="210.89,-83.6 215.91,-74.27 206.17,-78.43 210.89,-83.6"/>
</a>
</g>
</g>
<!-- Node6 -->
<g id="Node000006" class="node">
<title>Node6</title>
<g id="a_Node000006"><a xlink:href="../../db/d16/config_8h.html" target="_top" xlink:title=" ">
<polygon fill="white" stroke="#666666" points="367,-74 266,-74 266,-55 367,-55 367,-74"/>
<text text-anchor="middle" x="316.5" y="-62" font-family="Helvetica,sans-Serif" font-size="10.00">common/config.h</text>
</a>
</g>
</g>
<!-- Node1&#45;&gt;Node6 -->
<g id="edge5_Node000001_Node000006" class="edge">
<title>Node1&#45;&gt;Node6</title>
<g id="a_edge5_Node000001_Node000006"><a xlink:title=" ">
<path fill="none" stroke="#63b8ff" d="M198.63,-109.99C224.72,-100.14 259.28,-87.1 284.23,-77.68"/>
<polygon fill="#63b8ff" stroke="#63b8ff" points="285.49,-80.94 293.61,-74.14 283.02,-74.4 285.49,-80.94"/>
</a>
</g>
</g>
<!-- Node7 -->
<g id="Node000007" class="node">
<title>Node7</title>
<g id="a_Node000007"><a xlink:title=" ">
<polygon fill="#e0e0e0" stroke="#999999" points="273.5,-19 223.5,-19 223.5,0 273.5,0 273.5,-19"/>
<text text-anchor="middle" x="248.5" y="-7" font-family="Helvetica,sans-Serif" font-size="10.00">atomic</text>
</a>
</g>
</g>
<!-- Node6&#45;&gt;Node7 -->
<g id="edge6_Node000006_Node000007" class="edge">
<title>Node6&#45;&gt;Node7</title>
<g id="a_edge6_Node000006_Node000007"><a xlink:title=" ">
<path fill="none" stroke="#63b8ff" d="M305.57,-54.98C295.42,-47.07 280.08,-35.11 267.85,-25.58"/>
<polygon fill="#63b8ff" stroke="#63b8ff" points="269.66,-22.56 259.62,-19.17 265.36,-28.08 269.66,-22.56"/>
</a>
</g>
</g>
<!-- Node8 -->
<g id="Node000008" class="node">
<title>Node8</title>
<g id="a_Node000008"><a xlink:title=" ">
<polygon fill="#e0e0e0" stroke="#999999" points="341.5,-19 291.5,-19 291.5,0 341.5,0 341.5,-19"/>
<text text-anchor="middle" x="316.5" y="-7" font-family="Helvetica,sans-Serif" font-size="10.00">chrono</text>
</a>
</g>
</g>
<!-- Node6&#45;&gt;Node8 -->
<g id="edge7_Node000006_Node000008" class="edge">
<title>Node6&#45;&gt;Node8</title>
<g id="a_edge7_Node000006_Node000008"><a xlink:title=" ">
<path fill="none" stroke="#63b8ff" d="M316.5,-54.75C316.5,-47.8 316.5,-37.85 316.5,-29.13"/>
<polygon fill="#63b8ff" stroke="#63b8ff" points="320,-29.09 316.5,-19.09 313,-29.09 320,-29.09"/>
</a>
</g>
</g>
<!-- Node9 -->
<g id="Node000009" class="node">
<title>Node9</title>
<g id="a_Node000009"><a xlink:title=" ">
<polygon fill="#e0e0e0" stroke="#999999" points="409.5,-19 359.5,-19 359.5,0 409.5,0 409.5,-19"/>
<text text-anchor="middle" x="384.5" y="-7" font-family="Helvetica,sans-Serif" font-size="10.00">cstdint</text>
</a>
</g>
</g>
<!-- Node6&#45;&gt;Node9 -->
<g id="edge8_Node000006_Node000009" class="edge">
<title>Node6&#45;&gt;Node9</title>
<g id="a_edge8_Node000006_Node000009"><a xlink:title=" ">
<path fill="none" stroke="#63b8ff" d="M327.43,-54.98C337.58,-47.07 352.92,-35.11 365.15,-25.58"/>
<polygon fill="#63b8ff" stroke="#63b8ff" points="367.64,-28.08 373.38,-19.17 363.34,-22.56 367.64,-28.08"/>
</a>
</g>
</g>
</g>
</svg>
