<?xml version="1.0" encoding="UTF-8" standalone="no"?>
<!DOCTYPE svg PUBLIC "-//W3C//DTD SVG 1.1//EN"
 "http://www.w3.org/Graphics/SVG/1.1/DTD/svg11.dtd">
<!-- Generated by graphviz version 2.43.0 (0)
 -->
<!-- Title: src/include/storage/page/hash_table_header_page.h Pages: 1 -->
<svg width="366pt" height="269pt"
 viewBox="0.00 0.00 366.00 269.00" xmlns="http://www.w3.org/2000/svg" xmlns:xlink="http://www.w3.org/1999/xlink">
<g id="graph0" class="graph" transform="scale(1 1) rotate(0) translate(4 265)">
<title>src/include/storage/page/hash_table_header_page.h</title>
<!-- Node1 -->
<g id="Node000001" class="node">
<title>Node1</title>
<g id="a_Node000001"><a xlink:title=" ">
<polygon fill="#999999" stroke="#666666" points="284,-261 145,-261 145,-220 284,-220 284,-261"/>
<text text-anchor="start" x="153" y="-249" font-family="Helvetica,sans-Serif" font-size="10.00">src/include/storage</text>
<text text-anchor="start" x="153" y="-238" font-family="Helvetica,sans-Serif" font-size="10.00">/page/hash_table_header</text>
<text text-anchor="middle" x="214.5" y="-227" font-family="Helvetica,sans-Serif" font-size="10.00">_page.h</text>
</a>
</g>
</g>
<!-- Node2 -->
<g id="Node000002" class="node">
<title>Node2</title>
<g id="a_Node000002"><a xlink:href="../../df/d9e/linear__probe__hash__table_8h.html" target="_top" xlink:title=" ">
<polygon fill="white" stroke="#666666" points="204.5,-184 74.5,-184 74.5,-143 204.5,-143 204.5,-184"/>
<text text-anchor="start" x="82.5" y="-172" font-family="Helvetica,sans-Serif" font-size="10.00">src/include/container</text>
<text text-anchor="start" x="82.5" y="-161" font-family="Helvetica,sans-Serif" font-size="10.00">/disk/hash/linear_probe</text>
<text text-anchor="middle" x="139.5" y="-150" font-family="Helvetica,sans-Serif" font-size="10.00">_hash_table.h</text>
</a>
</g>
</g>
<!-- Node1&#45;&gt;Node2 -->
<g id="edge1_Node000001_Node000002" class="edge">
<title>Node1&#45;&gt;Node2</title>
<g id="a_edge1_Node000001_Node000002"><a xlink:title=" ">
<path fill="none" stroke="#63b8ff" d="M187.51,-212.51C178.11,-203.11 167.76,-192.76 159.07,-184.07"/>
<polygon fill="#63b8ff" stroke="#63b8ff" points="185.25,-215.2 194.79,-219.79 190.2,-210.25 185.25,-215.2"/>
</a>
</g>
</g>
<!-- Node6 -->
<g id="Node000006" class="node">
<title>Node6</title>
<g id="a_Node000006"><a xlink:href="../../d6/d34/hash__table__header__page_8cpp.html" target="_top" xlink:title=" ">
<polygon fill="white" stroke="#666666" points="358,-178.5 223,-178.5 223,-148.5 358,-148.5 358,-178.5"/>
<text text-anchor="start" x="231" y="-166.5" font-family="Helvetica,sans-Serif" font-size="10.00">src/storage/page/hash</text>
<text text-anchor="middle" x="290.5" y="-155.5" font-family="Helvetica,sans-Serif" font-size="10.00">_table_header_page.cpp</text>
</a>
</g>
</g>
<!-- Node1&#45;&gt;Node6 -->
<g id="edge5_Node000001_Node000006" class="edge">
<title>Node1&#45;&gt;Node6</title>
<g id="a_edge5_Node000001_Node000006"><a xlink:title=" ">
<path fill="none" stroke="#63b8ff" d="M241.79,-212.57C253.33,-201.18 266.29,-188.39 275.95,-178.86"/>
<polygon fill="#63b8ff" stroke="#63b8ff" points="239.13,-210.28 234.47,-219.79 244.04,-215.26 239.13,-210.28"/>
</a>
</g>
</g>
<!-- Node3 -->
<g id="Node000003" class="node">
<title>Node3</title>
<g id="a_Node000003"><a xlink:href="../../d7/d66/linear__probe__hash__table_8cpp.html" target="_top" xlink:title=" ">
<polygon fill="white" stroke="#666666" points="135,-107 0,-107 0,-66 135,-66 135,-107"/>
<text text-anchor="start" x="8" y="-95" font-family="Helvetica,sans-Serif" font-size="10.00">src/container/disk</text>
<text text-anchor="start" x="8" y="-84" font-family="Helvetica,sans-Serif" font-size="10.00">/hash/linear_probe_hash</text>
<text text-anchor="middle" x="67.5" y="-73" font-family="Helvetica,sans-Serif" font-size="10.00">_table.cpp</text>
</a>
</g>
</g>
<!-- Node2&#45;&gt;Node3 -->
<g id="edge2_Node000002_Node000003" class="edge">
<title>Node2&#45;&gt;Node3</title>
<g id="a_edge2_Node000002_Node000003"><a xlink:title=" ">
<path fill="none" stroke="#63b8ff" d="M113.59,-135.51C104.57,-126.11 94.63,-115.76 86.29,-107.07"/>
<polygon fill="#63b8ff" stroke="#63b8ff" points="111.13,-138 120.58,-142.79 116.18,-133.16 111.13,-138"/>
</a>
</g>
</g>
<!-- Node4 -->
<g id="Node000004" class="node">
<title>Node4</title>
<g id="a_Node000004"><a xlink:href="../../db/d9d/linear__probe__hash__table__index_8h.html" target="_top" xlink:title=" ">
<polygon fill="white" stroke="#666666" points="269.5,-107 153.5,-107 153.5,-66 269.5,-66 269.5,-107"/>
<text text-anchor="start" x="161.5" y="-95" font-family="Helvetica,sans-Serif" font-size="10.00">src/include/storage</text>
<text text-anchor="start" x="161.5" y="-84" font-family="Helvetica,sans-Serif" font-size="10.00">/index/linear_probe</text>
<text text-anchor="middle" x="211.5" y="-73" font-family="Helvetica,sans-Serif" font-size="10.00">_hash_table_index.h</text>
</a>
</g>
</g>
<!-- Node2&#45;&gt;Node4 -->
<g id="edge3_Node000002_Node000004" class="edge">
<title>Node2&#45;&gt;Node4</title>
<g id="a_edge3_Node000002_Node000004"><a xlink:title=" ">
<path fill="none" stroke="#63b8ff" d="M165.41,-135.51C174.43,-126.11 184.37,-115.76 192.71,-107.07"/>
<polygon fill="#63b8ff" stroke="#63b8ff" points="162.82,-133.16 158.42,-142.79 167.87,-138 162.82,-133.16"/>
</a>
</g>
</g>
<!-- Node5 -->
<g id="Node000005" class="node">
<title>Node5</title>
<g id="a_Node000005"><a xlink:href="../../d2/dad/linear__probe__hash__table__index_8cpp.html" target="_top" xlink:title=" ">
<polygon fill="white" stroke="#666666" points="292,-30 131,-30 131,0 292,0 292,-30"/>
<text text-anchor="start" x="139" y="-18" font-family="Helvetica,sans-Serif" font-size="10.00">src/storage/index/linear</text>
<text text-anchor="middle" x="211.5" y="-7" font-family="Helvetica,sans-Serif" font-size="10.00">_probe_hash_table_index.cpp</text>
</a>
</g>
</g>
<!-- Node4&#45;&gt;Node5 -->
<g id="edge4_Node000004_Node000005" class="edge">
<title>Node4&#45;&gt;Node5</title>
<g id="a_edge4_Node000004_Node000005"><a xlink:title=" ">
<path fill="none" stroke="#63b8ff" d="M211.5,-55.66C211.5,-46.76 211.5,-37.42 211.5,-30.04"/>
<polygon fill="#63b8ff" stroke="#63b8ff" points="208,-55.77 211.5,-65.77 215,-55.77 208,-55.77"/>
</a>
</g>
</g>
</g>
</svg>
