<?xml version="1.0" encoding="UTF-8" standalone="no"?>
<!DOCTYPE svg PUBLIC "-//W3C//DTD SVG 1.1//EN"
 "http://www.w3.org/Graphics/SVG/1.1/DTD/svg11.dtd">
<!-- Generated by graphviz version 2.43.0 (0)
 -->
<!-- Title: src/include/type/timestamp_type.h Pages: 1 -->
<!--zoomable 203 -->

<svg id="main" version="1.1" xmlns="http://www.w3.org/2000/svg" xmlns:xlink="http://www.w3.org/1999/xlink" xml:space="preserve" onload="init(evt)">
<style type="text/css"><![CDATA[
.node, .edge {opacity: 0.7;}
.node.selected, .edge.selected {opacity: 1;}
.edge:hover path { stroke: red; }
.edge:hover polygon { stroke: red; fill: red; }
]]></style>

<defs>
  <circle id="rim" cx="0" cy="0" r="7"/>
  <circle id="rim2" cx="0" cy="0" r="3.5"/>
  <g id="zoomPlus">
    <use xlink:href="#rim" fill="#404040"><set attributeName="fill" to="#808080" begin="zoomplus.mouseover" end="zoomplus.mouseout"/></use>
    <path d="M-4,0h8M0,-4v8" fill="none" stroke="white" stroke-width="1.5" pointer-events="none"/>
  </g>
  <g id="zoomMin">
    <use xlink:href="#rim" fill="#404040"><set attributeName="fill" to="#808080" begin="zoomminus.mouseover" end="zoomminus.mouseout"/></use>
    <path d="M-4,0h8" fill="none" stroke="white" stroke-width="1.5" pointer-events="none"/>
  </g>
  <g id="arrowUp" transform="translate(30 24)">
    <use xlink:href="#rim"/>
    <path pointer-events="none" fill="none" stroke="white" stroke-width="1.5" d="M0,-3.0v7 M-2.5,-0.5L0,-3.0L2.5,-0.5"/>
  </g>
  <g id="arrowRight" transform="rotate(90) translate(36 -43)">
    <use xlink:href="#rim"/>
    <path pointer-events="none" fill="none" stroke="white" stroke-width="1.5" d="M0,-3.0v7 M-2.5,-0.5L0,-3.0L2.5,-0.5"/>
  </g>
  <g id="arrowDown" transform="rotate(180) translate(-30 -48)">
    <use xlink:href="#rim"/>
    <path pointer-events="none" fill="none" stroke="white" stroke-width="1.5" d="M0,-3.0v7 M-2.5,-0.5L0,-3.0L2.5,-0.5"/>
  </g>
  <g id="arrowLeft" transform="rotate(270) translate(-36 17)">
    <use xlink:href="#rim"/>
    <path pointer-events="none" fill="none" stroke="white" stroke-width="1.5" d="M0,-3.0v7 M-2.5,-0.5L0,-3.0L2.5,-0.5"/>
  </g>
  <g id="resetDef">
    <use xlink:href="#rim2" fill="#404040"><set attributeName="fill" to="#808080" begin="reset.mouseover" end="reset.mouseout"/></use>
  </g>
</defs>
<script type="application/ecmascript">
var viewWidth = 600;
var viewHeight = 203;
var sectionId = 'dynsection-0';
</script>
<script type="application/ecmascript" xlink:href="../../svg.min.js"/>
<svg id="graph" class="graph">
<g id="viewport">
<title>src/include/type/timestamp_type.h</title>
<!-- Node1 -->
<g id="Node000001" class="node">
<title>Node1</title>
<g id="a_Node000001"><a xlink:title=" ">
<polygon fill="#999999" stroke="#666666" points="417.5,-195 267.5,-195 267.5,-165 417.5,-165 417.5,-195"/>
<text text-anchor="start" x="275.5" y="-183" font-family="Helvetica,sans-Serif" font-size="10.00">src/include/type/timestamp</text>
<text text-anchor="middle" x="342.5" y="-172" font-family="Helvetica,sans-Serif" font-size="10.00">_type.h</text>
</a>
</g>
</g>
<!-- Node2 -->
<g id="Node000002" class="node">
<title>Node2</title>
<g id="a_Node000002"><a xlink:title=" ">
<polygon fill="#e0e0e0" stroke="#999999" points="531.5,-19 487.5,-19 487.5,0 531.5,0 531.5,-19"/>
<text text-anchor="middle" x="509.5" y="-7" font-family="Helvetica,sans-Serif" font-size="10.00">string</text>
</a>
</g>
</g>
<!-- Node1&#45;&gt;Node2 -->
<g id="edge1_Node000001_Node000002" class="edge">
<title>Node1&#45;&gt;Node2</title>
<g id="a_edge1_Node000001_Node000002"><a xlink:title=" ">
<path fill="none" stroke="#63b8ff" d="M417.56,-168.99C474.83,-156.98 550.05,-130.79 587.5,-74 602.81,-50.79 568.9,-31.89 541.07,-20.91"/>
<polygon fill="#63b8ff" stroke="#63b8ff" points="542.17,-17.58 531.58,-17.37 539.72,-24.14 542.17,-17.58"/>
</a>
</g>
</g>
<!-- Node3 -->
<g id="Node000003" class="node">
<title>Node3</title>
<g id="a_Node000003"><a xlink:href="../../d0/d9d/abstract__pool_8h.html" target="_top" xlink:title=" ">
<polygon fill="white" stroke="#666666" points="184.5,-129 68.5,-129 68.5,-110 184.5,-110 184.5,-129"/>
<text text-anchor="middle" x="126.5" y="-117" font-family="Helvetica,sans-Serif" font-size="10.00">type/abstract_pool.h</text>
</a>
</g>
</g>
<!-- Node1&#45;&gt;Node3 -->
<g id="edge2_Node000001_Node000003" class="edge">
<title>Node1&#45;&gt;Node3</title>
<g id="a_edge2_Node000001_Node000003"><a xlink:title=" ">
<path fill="none" stroke="#63b8ff" d="M290.76,-164.99C253.16,-154.8 202.94,-141.2 167.97,-131.73"/>
<polygon fill="#63b8ff" stroke="#63b8ff" points="168.65,-128.29 158.08,-129.05 166.82,-135.05 168.65,-128.29"/>
</a>
</g>
</g>
<!-- Node5 -->
<g id="Node000005" class="node">
<title>Node5</title>
<g id="a_Node000005"><a xlink:href="../../d4/d3f/value_8h.html" target="_top" xlink:title=" ">
<polygon fill="white" stroke="#666666" points="381,-129 304,-129 304,-110 381,-110 381,-129"/>
<text text-anchor="middle" x="342.5" y="-117" font-family="Helvetica,sans-Serif" font-size="10.00">type/value.h</text>
</a>
</g>
</g>
<!-- Node1&#45;&gt;Node5 -->
<g id="edge4_Node000001_Node000005" class="edge">
<title>Node1&#45;&gt;Node5</title>
<g id="a_edge4_Node000001_Node000005"><a xlink:title=" ">
<path fill="none" stroke="#63b8ff" d="M342.5,-164.84C342.5,-157.21 342.5,-147.7 342.5,-139.45"/>
<polygon fill="#63b8ff" stroke="#63b8ff" points="346,-139.27 342.5,-129.27 339,-139.27 346,-139.27"/>
</a>
</g>
</g>
<!-- Node4 -->
<g id="Node000004" class="node">
<title>Node4</title>
<g id="a_Node000004"><a xlink:title=" ">
<polygon fill="#e0e0e0" stroke="#999999" points="49,-74 0,-74 0,-55 49,-55 49,-74"/>
<text text-anchor="middle" x="24.5" y="-62" font-family="Helvetica,sans-Serif" font-size="10.00">cstdlib</text>
</a>
</g>
</g>
<!-- Node3&#45;&gt;Node4 -->
<g id="edge3_Node000003_Node000004" class="edge">
<title>Node3&#45;&gt;Node4</title>
<g id="a_edge3_Node000003_Node000004"><a xlink:title=" ">
<path fill="none" stroke="#63b8ff" d="M110.11,-109.98C93.93,-101.57 68.93,-88.59 50.12,-78.81"/>
<polygon fill="#63b8ff" stroke="#63b8ff" points="51.67,-75.68 41.19,-74.17 48.45,-81.89 51.67,-75.68"/>
</a>
</g>
</g>
<!-- Node5&#45;&gt;Node2 -->
<g id="edge7_Node000005_Node000002" class="edge">
<title>Node5&#45;&gt;Node2</title>
<g id="a_edge7_Node000005_Node000002"><a xlink:title=" ">
<path fill="none" stroke="#63b8ff" d="M381.27,-114.77C411.8,-109.96 453.72,-99 481.5,-74 494.5,-62.3 501.76,-43.45 505.61,-29.32"/>
<polygon fill="#63b8ff" stroke="#63b8ff" points="509.1,-29.76 508.01,-19.22 502.29,-28.14 509.1,-29.76"/>
</a>
</g>
</g>
<!-- Node6 -->
<g id="Node000006" class="node">
<title>Node6</title>
<g id="a_Node000006"><a xlink:title=" ">
<polygon fill="#e0e0e0" stroke="#999999" points="578.5,-74 528.5,-74 528.5,-55 578.5,-55 578.5,-74"/>
<text text-anchor="middle" x="553.5" y="-62" font-family="Helvetica,sans-Serif" font-size="10.00">cstring</text>
</a>
</g>
</g>
<!-- Node5&#45;&gt;Node6 -->
<g id="edge5_Node000005_Node000006" class="edge">
<title>Node5&#45;&gt;Node6</title>
<g id="a_edge5_Node000005_Node000006"><a xlink:title=" ">
<path fill="none" stroke="#63b8ff" d="M376.4,-109.98C415.41,-100.19 479.14,-84.18 518.58,-74.27"/>
<polygon fill="#63b8ff" stroke="#63b8ff" points="519.44,-77.66 528.29,-71.83 517.74,-70.87 519.44,-77.66"/>
</a>
</g>
</g>
<!-- Node7 -->
<g id="Node000007" class="node">
<title>Node7</title>
<g id="a_Node000007"><a xlink:title=" ">
<polygon fill="#e0e0e0" stroke="#999999" points="221.5,-74 163.5,-74 163.5,-55 221.5,-55 221.5,-74"/>
<text text-anchor="middle" x="192.5" y="-62" font-family="Helvetica,sans-Serif" font-size="10.00">memory</text>
</a>
</g>
</g>
<!-- Node5&#45;&gt;Node7 -->
<g id="edge6_Node000005_Node000007" class="edge">
<title>Node5&#45;&gt;Node7</title>
<g id="a_edge6_Node000005_Node000007"><a xlink:title=" ">
<path fill="none" stroke="#63b8ff" d="M318.4,-109.98C293.62,-101.23 254.8,-87.51 226.81,-77.62"/>
<polygon fill="#63b8ff" stroke="#63b8ff" points="227.63,-74.2 217.04,-74.17 225.3,-80.8 227.63,-74.2"/>
</a>
</g>
</g>
<!-- Node8 -->
<g id="Node000008" class="node">
<title>Node8</title>
<g id="a_Node000008"><a xlink:title=" ">
<polygon fill="#e0e0e0" stroke="#999999" points="285,-74 240,-74 240,-55 285,-55 285,-74"/>
<text text-anchor="middle" x="262.5" y="-62" font-family="Helvetica,sans-Serif" font-size="10.00">utility</text>
</a>
</g>
</g>
<!-- Node5&#45;&gt;Node8 -->
<g id="edge8_Node000005_Node000008" class="edge">
<title>Node5&#45;&gt;Node8</title>
<g id="a_edge8_Node000005_Node000008"><a xlink:title=" ">
<path fill="none" stroke="#63b8ff" d="M329.65,-109.98C317.36,-101.84 298.59,-89.41 284.02,-79.76"/>
<polygon fill="#63b8ff" stroke="#63b8ff" points="285.86,-76.78 275.59,-74.17 281.99,-82.61 285.86,-76.78"/>
</a>
</g>
</g>
<!-- Node9 -->
<g id="Node000009" class="node">
<title>Node9</title>
<g id="a_Node000009"><a xlink:title=" ">
<polygon fill="#e0e0e0" stroke="#999999" points="382,-74 303,-74 303,-55 382,-55 382,-74"/>
<text text-anchor="middle" x="342.5" y="-62" font-family="Helvetica,sans-Serif" font-size="10.00">fmt/format.h</text>
</a>
</g>
</g>
<!-- Node5&#45;&gt;Node9 -->
<g id="edge9_Node000005_Node000009" class="edge">
<title>Node5&#45;&gt;Node9</title>
<g id="a_edge9_Node000005_Node000009"><a xlink:title=" ">
<path fill="none" stroke="#63b8ff" d="M342.5,-109.75C342.5,-102.8 342.5,-92.85 342.5,-84.13"/>
<polygon fill="#63b8ff" stroke="#63b8ff" points="346,-84.09 342.5,-74.09 339,-84.09 346,-84.09"/>
</a>
</g>
</g>
<!-- Node10 -->
<g id="Node000010" class="node">
<title>Node10</title>
<g id="a_Node000010"><a xlink:href="../../d9/d86/limits_8h.html" target="_top" xlink:title=" ">
<polygon fill="white" stroke="#666666" points="145.5,-74 67.5,-74 67.5,-55 145.5,-55 145.5,-74"/>
<text text-anchor="middle" x="106.5" y="-62" font-family="Helvetica,sans-Serif" font-size="10.00">type/limits.h</text>
</a>
</g>
</g>
<!-- Node5&#45;&gt;Node10 -->
<g id="edge10_Node000005_Node000010" class="edge">
<title>Node5&#45;&gt;Node10</title>
<g id="a_edge10_Node000005_Node000010"><a xlink:title=" ">
<path fill="none" stroke="#63b8ff" d="M304.58,-109.98C263.85,-100.84 199,-86.27 154.68,-76.32"/>
<polygon fill="#63b8ff" stroke="#63b8ff" points="155.24,-72.86 144.71,-74.08 153.7,-79.69 155.24,-72.86"/>
</a>
</g>
</g>
<!-- Node15 -->
<g id="Node000015" class="node">
<title>Node15</title>
<g id="a_Node000015"><a xlink:href="../../df/def/type_8h.html" target="_top" xlink:title=" ">
<polygon fill="white" stroke="#666666" points="472.5,-74 400.5,-74 400.5,-55 472.5,-55 472.5,-74"/>
<text text-anchor="middle" x="436.5" y="-62" font-family="Helvetica,sans-Serif" font-size="10.00">type/type.h</text>
</a>
</g>
</g>
<!-- Node5&#45;&gt;Node15 -->
<g id="edge15_Node000005_Node000015" class="edge">
<title>Node5&#45;&gt;Node15</title>
<g id="a_edge15_Node000005_Node000015"><a xlink:title=" ">
<path fill="none" stroke="#63b8ff" d="M357.6,-109.98C372.32,-101.69 394.92,-88.94 412.17,-79.22"/>
<polygon fill="#63b8ff" stroke="#63b8ff" points="414.13,-82.13 421.12,-74.17 410.69,-76.03 414.13,-82.13"/>
</a>
</g>
</g>
<!-- Node11 -->
<g id="Node000011" class="node">
<title>Node11</title>
<g id="a_Node000011"><a xlink:title=" ">
<polygon fill="#e0e0e0" stroke="#999999" points="128.5,-19 84.5,-19 84.5,0 128.5,0 128.5,-19"/>
<text text-anchor="middle" x="106.5" y="-7" font-family="Helvetica,sans-Serif" font-size="10.00">cfloat</text>
</a>
</g>
</g>
<!-- Node10&#45;&gt;Node11 -->
<g id="edge11_Node000010_Node000011" class="edge">
<title>Node10&#45;&gt;Node11</title>
<g id="a_edge11_Node000010_Node000011"><a xlink:title=" ">
<path fill="none" stroke="#63b8ff" d="M106.5,-54.75C106.5,-47.8 106.5,-37.85 106.5,-29.13"/>
<polygon fill="#63b8ff" stroke="#63b8ff" points="110,-29.09 106.5,-19.09 103,-29.09 110,-29.09"/>
</a>
</g>
</g>
<!-- Node12 -->
<g id="Node000012" class="node">
<title>Node12</title>
<g id="a_Node000012"><a xlink:title=" ">
<polygon fill="#e0e0e0" stroke="#999999" points="196.5,-19 146.5,-19 146.5,0 196.5,0 196.5,-19"/>
<text text-anchor="middle" x="171.5" y="-7" font-family="Helvetica,sans-Serif" font-size="10.00">climits</text>
</a>
</g>
</g>
<!-- Node10&#45;&gt;Node12 -->
<g id="edge12_Node000010_Node000012" class="edge">
<title>Node10&#45;&gt;Node12</title>
<g id="a_edge12_Node000010_Node000012"><a xlink:title=" ">
<path fill="none" stroke="#63b8ff" d="M116.94,-54.98C126.65,-47.07 141.32,-35.11 153,-25.58"/>
<polygon fill="#63b8ff" stroke="#63b8ff" points="155.33,-28.2 160.87,-19.17 150.9,-22.78 155.33,-28.2"/>
</a>
</g>
</g>
<!-- Node13 -->
<g id="Node000013" class="node">
<title>Node13</title>
<g id="a_Node000013"><a xlink:title=" ">
<polygon fill="#e0e0e0" stroke="#999999" points="319.5,-19 269.5,-19 269.5,0 319.5,0 319.5,-19"/>
<text text-anchor="middle" x="294.5" y="-7" font-family="Helvetica,sans-Serif" font-size="10.00">cstdint</text>
</a>
</g>
</g>
<!-- Node10&#45;&gt;Node13 -->
<g id="edge13_Node000010_Node000013" class="edge">
<title>Node10&#45;&gt;Node13</title>
<g id="a_edge13_Node000010_Node000013"><a xlink:title=" ">
<path fill="none" stroke="#63b8ff" d="M136.71,-54.98C170.24,-45.53 224.29,-30.29 259.61,-20.34"/>
<polygon fill="#63b8ff" stroke="#63b8ff" points="260.81,-23.64 269.48,-17.55 258.91,-16.9 260.81,-23.64"/>
</a>
</g>
</g>
<!-- Node14 -->
<g id="Node000014" class="node">
<title>Node14</title>
<g id="a_Node000014"><a xlink:title=" ">
<polygon fill="#e0e0e0" stroke="#999999" points="66.5,-19 22.5,-19 22.5,0 66.5,0 66.5,-19"/>
<text text-anchor="middle" x="44.5" y="-7" font-family="Helvetica,sans-Serif" font-size="10.00">limits</text>
</a>
</g>
</g>
<!-- Node10&#45;&gt;Node14 -->
<g id="edge14_Node000010_Node000014" class="edge">
<title>Node10&#45;&gt;Node14</title>
<g id="a_edge14_Node000010_Node000014"><a xlink:title=" ">
<path fill="none" stroke="#63b8ff" d="M96.54,-54.98C87.37,-47.15 73.56,-35.34 62.47,-25.86"/>
<polygon fill="#63b8ff" stroke="#63b8ff" points="64.52,-23.01 54.64,-19.17 59.97,-28.33 64.52,-23.01"/>
</a>
</g>
</g>
<!-- Node15&#45;&gt;Node2 -->
<g id="edge17_Node000015_Node000002" class="edge">
<title>Node15&#45;&gt;Node2</title>
<g id="a_edge17_Node000015_Node000002"><a xlink:title=" ">
<path fill="none" stroke="#63b8ff" d="M448.23,-54.98C459.23,-47 475.92,-34.88 489.1,-25.31"/>
<polygon fill="#63b8ff" stroke="#63b8ff" points="491.52,-27.88 497.56,-19.17 487.41,-22.21 491.52,-27.88"/>
</a>
</g>
</g>
<!-- Node15&#45;&gt;Node13 -->
<g id="edge16_Node000015_Node000013" class="edge">
<title>Node15&#45;&gt;Node13</title>
<g id="a_edge16_Node000015_Node000013"><a xlink:title=" ">
<path fill="none" stroke="#63b8ff" d="M413.69,-54.98C390.33,-46.27 353.8,-32.63 327.33,-22.75"/>
<polygon fill="#63b8ff" stroke="#63b8ff" points="328.32,-19.39 317.73,-19.17 325.87,-25.95 328.32,-19.39"/>
</a>
</g>
</g>
<!-- Node16 -->
<g id="Node000016" class="node">
<title>Node16</title>
<g id="a_Node000016"><a xlink:href="../../dc/df2/type__id_8h.html" target="_top" xlink:title=" ">
<polygon fill="white" stroke="#666666" points="469.5,-19 383.5,-19 383.5,0 469.5,0 469.5,-19"/>
<text text-anchor="middle" x="426.5" y="-7" font-family="Helvetica,sans-Serif" font-size="10.00">type/type_id.h</text>
</a>
</g>
</g>
<!-- Node15&#45;&gt;Node16 -->
<g id="edge18_Node000015_Node000016" class="edge">
<title>Node15&#45;&gt;Node16</title>
<g id="a_edge18_Node000015_Node000016"><a xlink:title=" ">
<path fill="none" stroke="#63b8ff" d="M434.85,-54.75C433.54,-47.8 431.66,-37.85 430.02,-29.13"/>
<polygon fill="#63b8ff" stroke="#63b8ff" points="433.41,-28.27 428.12,-19.09 426.54,-29.56 433.41,-28.27"/>
</a>
</g>
</g>
</g>
</svg>

<g id="navigator" transform="translate(0 0)" fill="#404254">
  <rect fill="#f2f5e9" fill-opacity="0.5" stroke="#606060" stroke-width=".5" x="0" y="0" width="60" height="60"/>
  <use id="zoomplus" xlink:href="#zoomPlus" x="17" y="9" onmousedown="handleZoom(evt,'in')"/>
  <use id="zoomminus" xlink:href="#zoomMin" x="42" y="9" onmousedown="handleZoom(evt,'out')"/>
  <use id="reset" xlink:href="#resetDef" x="30" y="36" onmousedown="handleReset()"/>
   <use id="arrowup" xlink:href="#arrowUp" x="0" y="0" onmousedown="handlePan(0,-1)"/>
  <use id="arrowright" xlink:href="#arrowRight" x="0" y="0" onmousedown="handlePan(1,0)"/>
  <use id="arrowdown" xlink:href="#arrowDown" x="0" y="0" onmousedown="handlePan(0,1)"/>
  <use id="arrowleft" xlink:href="#arrowLeft" x="0" y="0" onmousedown="handlePan(-1,0)"/>
</g>
<svg viewBox="0 0 15 15" width="100%" height="30px" preserveAspectRatio="xMaxYMin meet">
 <g id="arrow_out" transform="scale(0.3 0.3)">
  <a xlink:href="timestamp__type_8h__incl_org.svg" target="_base">
   <rect id="button" ry="5" rx="5" y="6" x="6" height="38" width="38"
        fill="#f2f5e9" fill-opacity="0.5" stroke="#606060" stroke-width="1.0"/>
   <path id="arrow"
     d="M 11.500037,31.436501 C 11.940474,20.09759 22.043105,11.32322 32.158766,21.979434 L 37.068811,17.246167 C 37.068811,17.246167 37.088388,32 37.088388,32 L 22.160133,31.978069 C 22.160133,31.978069 26.997745,27.140456 26.997745,27.140456 C 18.528582,18.264221 13.291696,25.230495 11.500037,31.436501 z"
     style="fill:#404040;"/>
  </a>
 </g>
</svg>

<style type='text/css'>
<![CDATA[
[data-mouse-over-selected='false'] { opacity: 0.7; }
[data-mouse-over-selected='true']  { opacity: 1.0; }
]]>
</style>
<script type="application/ecmascript"><![CDATA[
document.addEventListener('DOMContentLoaded', (event) => {
  highlightEdges();
  highlightAdjacentNodes();
});
]]></script>
</svg>
