<?xml version="1.0" encoding="UTF-8" standalone="no"?>
<!DOCTYPE svg PUBLIC "-//W3C//DTD SVG 1.1//EN"
 "http://www.w3.org/Graphics/SVG/1.1/DTD/svg11.dtd">
<!-- Generated by graphviz version 2.43.0 (0)
 -->
<!-- Title: src/include/binder/table_ref/bound_expression_list_ref.h Pages: 1 -->
<svg width="955pt" height="335pt"
 viewBox="0.00 0.00 955.18 335.00" xmlns="http://www.w3.org/2000/svg" xmlns:xlink="http://www.w3.org/1999/xlink">
<g id="graph0" class="graph" transform="scale(1 1) rotate(0) translate(4 331)">
<title>src/include/binder/table_ref/bound_expression_list_ref.h</title>
<!-- Node1 -->
<g id="Node000001" class="node">
<title>Node1</title>
<g id="a_Node000001"><a xlink:title=" ">
<polygon fill="#999999" stroke="#666666" points="445.18,-327 290.18,-327 290.18,-286 445.18,-286 445.18,-327"/>
<text text-anchor="start" x="298.18" y="-315" font-family="Helvetica,sans-Serif" font-size="10.00">src/include/binder</text>
<text text-anchor="start" x="298.18" y="-304" font-family="Helvetica,sans-Serif" font-size="10.00">/table_ref/bound_expression</text>
<text text-anchor="middle" x="367.68" y="-293" font-family="Helvetica,sans-Serif" font-size="10.00">_list_ref.h</text>
</a>
</g>
</g>
<!-- Node2 -->
<g id="Node000002" class="node">
<title>Node2</title>
<g id="a_Node000002"><a xlink:title=" ">
<polygon fill="#e0e0e0" stroke="#999999" points="230.68,-74 172.68,-74 172.68,-55 230.68,-55 230.68,-74"/>
<text text-anchor="middle" x="201.68" y="-62" font-family="Helvetica,sans-Serif" font-size="10.00">memory</text>
</a>
</g>
</g>
<!-- Node1&#45;&gt;Node2 -->
<g id="edge1_Node000001_Node000002" class="edge">
<title>Node1&#45;&gt;Node2</title>
<g id="a_edge1_Node000001_Node000002"><a xlink:title=" ">
<path fill="none" stroke="#63b8ff" d="M290.14,-303.13C213.93,-296.15 101.35,-272.37 46.68,-195 24.8,-164.04 16.7,-140.14 39.68,-110 43.5,-104.99 115.99,-86.46 162.69,-74.95"/>
<polygon fill="#63b8ff" stroke="#63b8ff" points="163.64,-78.33 172.52,-72.54 161.97,-71.53 163.64,-78.33"/>
</a>
</g>
</g>
<!-- Node3 -->
<g id="Node000003" class="node">
<title>Node3</title>
<g id="a_Node000003"><a xlink:title=" ">
<polygon fill="#e0e0e0" stroke="#999999" points="439.68,-19 395.68,-19 395.68,0 439.68,0 439.68,-19"/>
<text text-anchor="middle" x="417.68" y="-7" font-family="Helvetica,sans-Serif" font-size="10.00">string</text>
</a>
</g>
</g>
<!-- Node1&#45;&gt;Node3 -->
<g id="edge2_Node000001_Node000003" class="edge">
<title>Node1&#45;&gt;Node3</title>
<g id="a_edge2_Node000001_Node000003"><a xlink:title=" ">
<path fill="none" stroke="#63b8ff" d="M445.19,-295.49C614.27,-270.74 991.11,-198.06 861.68,-55 834.12,-24.55 547.58,-14.01 450.01,-11.29"/>
<polygon fill="#63b8ff" stroke="#63b8ff" points="449.94,-7.79 439.85,-11.02 449.75,-14.79 449.94,-7.79"/>
</a>
</g>
</g>
<!-- Node4 -->
<g id="Node000004" class="node">
<title>Node4</title>
<g id="a_Node000004"><a xlink:title=" ">
<polygon fill="#e0e0e0" stroke="#999999" points="363.18,-129 318.18,-129 318.18,-110 363.18,-110 363.18,-129"/>
<text text-anchor="middle" x="340.68" y="-117" font-family="Helvetica,sans-Serif" font-size="10.00">utility</text>
</a>
</g>
</g>
<!-- Node1&#45;&gt;Node4 -->
<g id="edge3_Node000001_Node000004" class="edge">
<title>Node1&#45;&gt;Node4</title>
<g id="a_edge3_Node000001_Node000004"><a xlink:title=" ">
<path fill="none" stroke="#63b8ff" d="M324.76,-285.9C290.65,-267.72 245.35,-237.1 224.68,-195 218.8,-183.03 217.12,-175.99 224.68,-165 229.69,-157.71 275.9,-141.49 308.46,-130.78"/>
<polygon fill="#63b8ff" stroke="#63b8ff" points="309.64,-134.08 318.06,-127.65 307.47,-127.42 309.64,-134.08"/>
</a>
</g>
</g>
<!-- Node5 -->
<g id="Node000005" class="node">
<title>Node5</title>
<g id="a_Node000005"><a xlink:title=" ">
<polygon fill="#e0e0e0" stroke="#999999" points="281.18,-189.5 234.18,-189.5 234.18,-170.5 281.18,-170.5 281.18,-189.5"/>
<text text-anchor="middle" x="257.68" y="-177.5" font-family="Helvetica,sans-Serif" font-size="10.00">vector</text>
</a>
</g>
</g>
<!-- Node1&#45;&gt;Node5 -->
<g id="edge4_Node000001_Node000005" class="edge">
<title>Node1&#45;&gt;Node5</title>
<g id="a_edge4_Node000001_Node000005"><a xlink:title=" ">
<path fill="none" stroke="#63b8ff" d="M350.25,-285.77C328.65,-261.33 292.26,-220.14 272.14,-197.37"/>
<polygon fill="#63b8ff" stroke="#63b8ff" points="274.53,-194.79 265.29,-189.61 269.29,-199.42 274.53,-194.79"/>
</a>
</g>
</g>
<!-- Node6 -->
<g id="Node000006" class="node">
<title>Node6</title>
<g id="a_Node000006"><a xlink:href="../../d4/d36/bound__table__ref_8h.html" target="_top" xlink:title=" ">
<polygon fill="white" stroke="#666666" points="165.68,-195 55.68,-195 55.68,-165 165.68,-165 165.68,-195"/>
<text text-anchor="start" x="63.68" y="-183" font-family="Helvetica,sans-Serif" font-size="10.00">binder/bound_table</text>
<text text-anchor="middle" x="110.68" y="-172" font-family="Helvetica,sans-Serif" font-size="10.00">_ref.h</text>
</a>
</g>
</g>
<!-- Node1&#45;&gt;Node6 -->
<g id="edge5_Node000001_Node000006" class="edge">
<title>Node1&#45;&gt;Node6</title>
<g id="a_edge5_Node000001_Node000006"><a xlink:title=" ">
<path fill="none" stroke="#63b8ff" d="M290.01,-288.22C258.34,-279.37 222.09,-266.83 191.68,-250 168.83,-237.35 146.52,-217.64 131.11,-202.51"/>
<polygon fill="#63b8ff" stroke="#63b8ff" points="133.26,-199.7 123.72,-195.08 128.29,-204.64 133.26,-199.7"/>
</a>
</g>
</g>
<!-- Node12 -->
<g id="Node000012" class="node">
<title>Node12</title>
<g id="a_Node000012"><a xlink:href="../../d7/de3/schema_8h.html" target="_top" xlink:title=" ">
<polygon fill="white" stroke="#666666" points="479.18,-250 376.18,-250 376.18,-231 479.18,-231 479.18,-250"/>
<text text-anchor="middle" x="427.68" y="-238" font-family="Helvetica,sans-Serif" font-size="10.00">catalog/schema.h</text>
</a>
</g>
</g>
<!-- Node1&#45;&gt;Node12 -->
<g id="edge13_Node000001_Node000012" class="edge">
<title>Node1&#45;&gt;Node12</title>
<g id="a_edge13_Node000001_Node000012"><a xlink:title=" ">
<path fill="none" stroke="#63b8ff" d="M386,-285.95C394.47,-276.92 404.4,-266.33 412.44,-257.75"/>
<polygon fill="#63b8ff" stroke="#63b8ff" points="415.18,-259.95 419.46,-250.26 410.07,-255.16 415.18,-259.95"/>
</a>
</g>
</g>
<!-- Node21 -->
<g id="Node000021" class="node">
<title>Node21</title>
<g id="a_Node000021"><a xlink:href="../../df/def/type_8h.html" target="_top" xlink:title=" ">
<polygon fill="white" stroke="#666666" points="852.68,-74 780.68,-74 780.68,-55 852.68,-55 852.68,-74"/>
<text text-anchor="middle" x="816.68" y="-62" font-family="Helvetica,sans-Serif" font-size="10.00">type/type.h</text>
</a>
</g>
</g>
<!-- Node1&#45;&gt;Node21 -->
<g id="edge41_Node000001_Node000021" class="edge">
<title>Node1&#45;&gt;Node21</title>
<g id="a_edge41_Node000001_Node000021"><a xlink:title=" ">
<path fill="none" stroke="#63b8ff" d="M445.24,-290.29C536.04,-268.82 685.9,-221.47 779.68,-129 792.85,-116.01 802.97,-97.36 809.27,-83.63"/>
<polygon fill="#63b8ff" stroke="#63b8ff" points="812.57,-84.83 813.33,-74.26 806.14,-82.05 812.57,-84.83"/>
</a>
</g>
</g>
<!-- Node23 -->
<g id="Node000023" class="node">
<title>Node23</title>
<g id="a_Node000023"><a xlink:title=" ">
<polygon fill="#e0e0e0" stroke="#999999" points="947.18,-250 880.18,-250 880.18,-231 947.18,-231 947.18,-250"/>
<text text-anchor="middle" x="913.68" y="-238" font-family="Helvetica,sans-Serif" font-size="10.00">fmt/core.h</text>
</a>
</g>
</g>
<!-- Node1&#45;&gt;Node23 -->
<g id="edge40_Node000001_Node000023" class="edge">
<title>Node1&#45;&gt;Node23</title>
<g id="a_edge40_Node000001_Node000023"><a xlink:title=" ">
<path fill="none" stroke="#63b8ff" d="M445.51,-298.39C543.68,-289.06 717.58,-271.34 865.68,-250 867.14,-249.79 868.63,-249.57 870.14,-249.34"/>
<polygon fill="#63b8ff" stroke="#63b8ff" points="870.84,-252.77 880.15,-247.72 869.72,-245.86 870.84,-252.77"/>
</a>
</g>
</g>
<!-- Node6&#45;&gt;Node2 -->
<g id="edge6_Node000006_Node000002" class="edge">
<title>Node6&#45;&gt;Node2</title>
<g id="a_edge6_Node000006_Node000002"><a xlink:title=" ">
<path fill="none" stroke="#63b8ff" d="M82.39,-164.9C59.19,-151.42 32.47,-130.23 47.68,-110 51.24,-105.27 118.16,-87.15 162.61,-75.54"/>
<polygon fill="#63b8ff" stroke="#63b8ff" points="163.74,-78.86 172.54,-72.96 161.98,-72.09 163.74,-78.86"/>
</a>
</g>
</g>
<!-- Node6&#45;&gt;Node3 -->
<g id="edge7_Node000006_Node000003" class="edge">
<title>Node6&#45;&gt;Node3</title>
<g id="a_edge7_Node000006_Node000003"><a xlink:title=" ">
<path fill="none" stroke="#63b8ff" d="M84.42,-164.88C44.14,-141.48 -24.8,-93.45 9.68,-55 34.67,-27.13 293.64,-15.03 385.54,-11.59"/>
<polygon fill="#63b8ff" stroke="#63b8ff" points="385.78,-15.08 395.65,-11.22 385.53,-8.09 385.78,-15.08"/>
</a>
</g>
</g>
<!-- Node7 -->
<g id="Node000007" class="node">
<title>Node7</title>
<g id="a_Node000007"><a xlink:title=" ">
<polygon fill="#e0e0e0" stroke="#999999" points="300.18,-129 221.18,-129 221.18,-110 300.18,-110 300.18,-129"/>
<text text-anchor="middle" x="260.68" y="-117" font-family="Helvetica,sans-Serif" font-size="10.00">fmt/format.h</text>
</a>
</g>
</g>
<!-- Node6&#45;&gt;Node7 -->
<g id="edge8_Node000006_Node000007" class="edge">
<title>Node6&#45;&gt;Node7</title>
<g id="a_edge8_Node000006_Node000007"><a xlink:title=" ">
<path fill="none" stroke="#63b8ff" d="M146.61,-164.99C171.74,-155.18 205.01,-142.21 229.12,-132.81"/>
<polygon fill="#63b8ff" stroke="#63b8ff" points="230.48,-136.03 238.52,-129.14 227.94,-129.51 230.48,-136.03"/>
</a>
</g>
</g>
<!-- Node8 -->
<g id="Node000008" class="node">
<title>Node8</title>
<g id="a_Node000008"><a xlink:href="../../de/d3c/macros_8h.html" target="_top" xlink:title=" ">
<polygon fill="white" stroke="#666666" points="164.18,-129 57.18,-129 57.18,-110 164.18,-110 164.18,-129"/>
<text text-anchor="middle" x="110.68" y="-117" font-family="Helvetica,sans-Serif" font-size="10.00">common/macros.h</text>
</a>
</g>
</g>
<!-- Node6&#45;&gt;Node8 -->
<g id="edge9_Node000006_Node000008" class="edge">
<title>Node6&#45;&gt;Node8</title>
<g id="a_edge9_Node000006_Node000008"><a xlink:title=" ">
<path fill="none" stroke="#63b8ff" d="M110.68,-164.84C110.68,-157.21 110.68,-147.7 110.68,-139.45"/>
<polygon fill="#63b8ff" stroke="#63b8ff" points="114.18,-139.27 110.68,-129.27 107.18,-139.27 114.18,-139.27"/>
</a>
</g>
</g>
<!-- Node9 -->
<g id="Node000009" class="node">
<title>Node9</title>
<g id="a_Node000009"><a xlink:title=" ">
<polygon fill="#e0e0e0" stroke="#999999" points="154.68,-74 102.68,-74 102.68,-55 154.68,-55 154.68,-74"/>
<text text-anchor="middle" x="128.68" y="-62" font-family="Helvetica,sans-Serif" font-size="10.00">cassert</text>
</a>
</g>
</g>
<!-- Node8&#45;&gt;Node9 -->
<g id="edge10_Node000008_Node000009" class="edge">
<title>Node8&#45;&gt;Node9</title>
<g id="a_edge10_Node000008_Node000009"><a xlink:title=" ">
<path fill="none" stroke="#63b8ff" d="M113.65,-109.75C116.03,-102.72 119.46,-92.62 122.45,-83.84"/>
<polygon fill="#63b8ff" stroke="#63b8ff" points="125.86,-84.68 125.76,-74.09 119.23,-82.43 125.86,-84.68"/>
</a>
</g>
</g>
<!-- Node10 -->
<g id="Node000010" class="node">
<title>Node10</title>
<g id="a_Node000010"><a xlink:title=" ">
<polygon fill="#e0e0e0" stroke="#999999" points="84.18,-74 19.18,-74 19.18,-55 84.18,-55 84.18,-74"/>
<text text-anchor="middle" x="51.68" y="-62" font-family="Helvetica,sans-Serif" font-size="10.00">exception</text>
</a>
</g>
</g>
<!-- Node8&#45;&gt;Node10 -->
<g id="edge11_Node000008_Node000010" class="edge">
<title>Node8&#45;&gt;Node10</title>
<g id="a_edge11_Node000008_Node000010"><a xlink:title=" ">
<path fill="none" stroke="#63b8ff" d="M101.2,-109.98C92.48,-102.15 79.33,-90.34 68.78,-80.86"/>
<polygon fill="#63b8ff" stroke="#63b8ff" points="71.11,-78.25 61.33,-74.17 66.43,-83.46 71.11,-78.25"/>
</a>
</g>
</g>
<!-- Node11 -->
<g id="Node000011" class="node">
<title>Node11</title>
<g id="a_Node000011"><a xlink:title=" ">
<polygon fill="#e0e0e0" stroke="#999999" points="370.18,-74 305.18,-74 305.18,-55 370.18,-55 370.18,-74"/>
<text text-anchor="middle" x="337.68" y="-62" font-family="Helvetica,sans-Serif" font-size="10.00">stdexcept</text>
</a>
</g>
</g>
<!-- Node8&#45;&gt;Node11 -->
<g id="edge12_Node000008_Node000011" class="edge">
<title>Node8&#45;&gt;Node11</title>
<g id="a_edge12_Node000008_Node000011"><a xlink:title=" ">
<path fill="none" stroke="#63b8ff" d="M147.15,-109.98C187.52,-100.56 252.53,-85.38 295.18,-75.42"/>
<polygon fill="#63b8ff" stroke="#63b8ff" points="296.04,-78.82 304.98,-73.13 294.45,-72 296.04,-78.82"/>
</a>
</g>
</g>
<!-- Node12&#45;&gt;Node2 -->
<g id="edge14_Node000012_Node000002" class="edge">
<title>Node12&#45;&gt;Node2</title>
<g id="a_edge14_Node000012_Node000002"><a xlink:title=" ">
<path fill="none" stroke="#63b8ff" d="M404.51,-230.87C383.95,-222.8 353.42,-209.8 328.68,-195 309.91,-183.77 308.39,-176.32 289.68,-165 257.01,-145.24 234.7,-159.46 211.68,-129 202.11,-116.34 200.08,-98.16 200.17,-84.49"/>
<polygon fill="#63b8ff" stroke="#63b8ff" points="203.68,-84.43 200.63,-74.29 196.69,-84.12 203.68,-84.43"/>
</a>
</g>
</g>
<!-- Node12&#45;&gt;Node3 -->
<g id="edge16_Node000012_Node000003" class="edge">
<title>Node12&#45;&gt;Node3</title>
<g id="a_edge16_Node000012_Node000003"><a xlink:title=" ">
<path fill="none" stroke="#63b8ff" d="M432.99,-230.68C437.91,-221.97 444.87,-208.09 447.68,-195 454.45,-163.39 432.5,-69.2 422.44,-29.01"/>
<polygon fill="#63b8ff" stroke="#63b8ff" points="425.81,-28.03 419.95,-19.2 419.02,-29.76 425.81,-28.03"/>
</a>
</g>
</g>
<!-- Node12&#45;&gt;Node5 -->
<g id="edge17_Node000012_Node000005" class="edge">
<title>Node12&#45;&gt;Node5</title>
<g id="a_edge17_Node000012_Node000005"><a xlink:title=" ">
<path fill="none" stroke="#63b8ff" d="M401.31,-230.85C374.61,-222.04 332.17,-207.87 295.68,-195 293.84,-194.35 291.95,-193.68 290.05,-192.99"/>
<polygon fill="#63b8ff" stroke="#63b8ff" points="291.14,-189.67 280.55,-189.54 288.75,-196.25 291.14,-189.67"/>
</a>
</g>
</g>
<!-- Node13 -->
<g id="Node000013" class="node">
<title>Node13</title>
<g id="a_Node000013"><a xlink:title=" ">
<polygon fill="#e0e0e0" stroke="#999999" points="551.68,-189.5 495.68,-189.5 495.68,-170.5 551.68,-170.5 551.68,-189.5"/>
<text text-anchor="middle" x="523.68" y="-177.5" font-family="Helvetica,sans-Serif" font-size="10.00">optional</text>
</a>
</g>
</g>
<!-- Node12&#45;&gt;Node13 -->
<g id="edge15_Node000012_Node000013" class="edge">
<title>Node12&#45;&gt;Node13</title>
<g id="a_edge15_Node000012_Node000013"><a xlink:title=" ">
<path fill="none" stroke="#63b8ff" d="M441.84,-230.87C457.37,-221.41 482.51,-206.09 500.83,-194.92"/>
<polygon fill="#63b8ff" stroke="#63b8ff" points="502.74,-197.86 509.45,-189.67 499.09,-191.88 502.74,-197.86"/>
</a>
</g>
</g>
<!-- Node14 -->
<g id="Node000014" class="node">
<title>Node14</title>
<g id="a_Node000014"><a xlink:href="../../dc/df8/column_8h.html" target="_top" xlink:title=" ">
<polygon fill="white" stroke="#666666" points="439.18,-189.5 338.18,-189.5 338.18,-170.5 439.18,-170.5 439.18,-189.5"/>
<text text-anchor="middle" x="388.68" y="-177.5" font-family="Helvetica,sans-Serif" font-size="10.00">catalog/column.h</text>
</a>
</g>
</g>
<!-- Node12&#45;&gt;Node14 -->
<g id="edge18_Node000012_Node000014" class="edge">
<title>Node12&#45;&gt;Node14</title>
<g id="a_edge18_Node000012_Node000014"><a xlink:title=" ">
<path fill="none" stroke="#63b8ff" d="M421.92,-230.87C416.22,-222.31 407.32,-208.97 400.17,-198.24"/>
<polygon fill="#63b8ff" stroke="#63b8ff" points="402.91,-196.05 394.45,-189.67 397.09,-199.93 402.91,-196.05"/>
</a>
</g>
</g>
<!-- Node16 -->
<g id="Node000016" class="node">
<title>Node16</title>
<g id="a_Node000016"><a xlink:href="../../dd/d2d/exception_8h.html" target="_top" xlink:title=" ">
<polygon fill="white" stroke="#666666" points="615.18,-129 496.18,-129 496.18,-110 615.18,-110 615.18,-129"/>
<text text-anchor="middle" x="555.68" y="-117" font-family="Helvetica,sans-Serif" font-size="10.00">common/exception.h</text>
</a>
</g>
</g>
<!-- Node12&#45;&gt;Node16 -->
<g id="edge38_Node000012_Node000016" class="edge">
<title>Node12&#45;&gt;Node16</title>
<g id="a_edge38_Node000012_Node000016"><a xlink:title=" ">
<path fill="none" stroke="#63b8ff" d="M479.18,-236.44C508.17,-231.76 542.18,-220.69 560.68,-195 572.36,-178.78 568.15,-155.06 562.96,-138.77"/>
<polygon fill="#63b8ff" stroke="#63b8ff" points="566.23,-137.52 559.56,-129.29 559.64,-139.88 566.23,-137.52"/>
</a>
</g>
</g>
<!-- Node12&#45;&gt;Node21 -->
<g id="edge39_Node000012_Node000021" class="edge">
<title>Node12&#45;&gt;Node21</title>
<g id="a_edge39_Node000012_Node000021"><a xlink:title=" ">
<path fill="none" stroke="#63b8ff" d="M476.5,-230.98C543.53,-217.59 665.84,-186.95 754.68,-129 774.34,-116.17 792.56,-96.12 804.09,-81.98"/>
<polygon fill="#63b8ff" stroke="#63b8ff" points="806.89,-84.08 810.36,-74.07 801.41,-79.74 806.89,-84.08"/>
</a>
</g>
</g>
<!-- Node14&#45;&gt;Node2 -->
<g id="edge20_Node000014_Node000002" class="edge">
<title>Node14&#45;&gt;Node2</title>
<g id="a_edge20_Node000014_Node000002"><a xlink:title=" ">
<path fill="none" stroke="#63b8ff" d="M389.16,-170.48C389.49,-155.99 387.96,-126.52 371.68,-110 353.58,-91.64 285.33,-78.13 241,-71.07"/>
<polygon fill="#63b8ff" stroke="#63b8ff" points="241.26,-67.57 230.84,-69.5 240.18,-74.48 241.26,-67.57"/>
</a>
</g>
</g>
<!-- Node14&#45;&gt;Node3 -->
<g id="edge21_Node000014_Node000003" class="edge">
<title>Node14&#45;&gt;Node3</title>
<g id="a_edge21_Node000014_Node000003"><a xlink:title=" ">
<path fill="none" stroke="#63b8ff" d="M392.08,-170.46C397.04,-156.45 404.38,-128.33 391.68,-110 363.67,-69.58 267.49,-95.29 295.68,-55 315.82,-26.21 356.66,-15.98 385.52,-12.38"/>
<polygon fill="#63b8ff" stroke="#63b8ff" points="385.98,-15.86 395.56,-11.34 385.25,-8.89 385.98,-15.86"/>
</a>
</g>
</g>
<!-- Node14&#45;&gt;Node4 -->
<g id="edge22_Node000014_Node000004" class="edge">
<title>Node14&#45;&gt;Node4</title>
<g id="a_edge22_Node000014_Node000004"><a xlink:title=" ">
<path fill="none" stroke="#63b8ff" d="M381.59,-170.37C374.43,-161.64 363.18,-147.93 354.29,-137.09"/>
<polygon fill="#63b8ff" stroke="#63b8ff" points="356.84,-134.68 347.79,-129.17 351.43,-139.12 356.84,-134.68"/>
</a>
</g>
</g>
<!-- Node14&#45;&gt;Node7 -->
<g id="edge23_Node000014_Node000007" class="edge">
<title>Node14&#45;&gt;Node7</title>
<g id="a_edge23_Node000014_Node000007"><a xlink:title=" ">
<path fill="none" stroke="#63b8ff" d="M370.06,-170.49C348.64,-160.7 313.24,-144.52 288.53,-133.23"/>
<polygon fill="#63b8ff" stroke="#63b8ff" points="289.86,-129.99 279.31,-129.02 286.95,-136.36 289.86,-129.99"/>
</a>
</g>
</g>
<!-- Node14&#45;&gt;Node8 -->
<g id="edge36_Node000014_Node000008" class="edge">
<title>Node14&#45;&gt;Node8</title>
<g id="a_edge36_Node000014_Node000008"><a xlink:title=" ">
<path fill="none" stroke="#63b8ff" d="M348.25,-170.49C298.74,-160.07 214.84,-142.42 161.14,-131.12"/>
<polygon fill="#63b8ff" stroke="#63b8ff" points="161.66,-127.65 151.15,-129.02 160.21,-134.5 161.66,-127.65"/>
</a>
</g>
</g>
<!-- Node15 -->
<g id="Node000015" class="node">
<title>Node15</title>
<g id="a_Node000015"><a xlink:title=" ">
<polygon fill="#e0e0e0" stroke="#999999" points="777.68,-19 727.68,-19 727.68,0 777.68,0 777.68,-19"/>
<text text-anchor="middle" x="752.68" y="-7" font-family="Helvetica,sans-Serif" font-size="10.00">cstdint</text>
</a>
</g>
</g>
<!-- Node14&#45;&gt;Node15 -->
<g id="edge19_Node000014_Node000015" class="edge">
<title>Node14&#45;&gt;Node15</title>
<g id="a_edge19_Node000014_Node000015"><a xlink:title=" ">
<path fill="none" stroke="#63b8ff" d="M439.43,-172.13C487.94,-164.67 562.64,-150.81 624.68,-129 675.87,-111 698.84,-115.6 733.68,-74 744.18,-61.46 748.88,-43.26 750.98,-29.55"/>
<polygon fill="#63b8ff" stroke="#63b8ff" points="754.49,-29.67 752.2,-19.33 747.54,-28.84 754.49,-29.67"/>
</a>
</g>
</g>
<!-- Node14&#45;&gt;Node16 -->
<g id="edge24_Node000014_Node000016" class="edge">
<title>Node14&#45;&gt;Node16</title>
<g id="a_edge24_Node000014_Node000016"><a xlink:title=" ">
<path fill="none" stroke="#63b8ff" d="M412.96,-170.49C441.65,-160.44 489.57,-143.66 521.88,-132.34"/>
<polygon fill="#63b8ff" stroke="#63b8ff" points="523.08,-135.63 531.36,-129.02 520.77,-129.02 523.08,-135.63"/>
</a>
</g>
</g>
<!-- Node14&#45;&gt;Node21 -->
<g id="edge37_Node000014_Node000021" class="edge">
<title>Node14&#45;&gt;Node21</title>
<g id="a_edge37_Node000014_Node000021"><a xlink:title=" ">
<path fill="none" stroke="#63b8ff" d="M439.43,-171.72C531.47,-158.48 717.1,-131.58 723.68,-129 752.77,-117.59 781.79,-95.68 799.49,-80.82"/>
<polygon fill="#63b8ff" stroke="#63b8ff" points="801.92,-83.35 807.21,-74.17 797.35,-78.04 801.92,-83.35"/>
</a>
</g>
</g>
<!-- Node16&#45;&gt;Node2 -->
<g id="edge29_Node000016_Node000002" class="edge">
<title>Node16&#45;&gt;Node2</title>
<g id="a_edge29_Node000016_Node000002"><a xlink:title=" ">
<path fill="none" stroke="#63b8ff" d="M498.8,-109.98C426.56,-99.17 303.78,-80.79 241.07,-71.4"/>
<polygon fill="#63b8ff" stroke="#63b8ff" points="241.22,-67.88 230.81,-69.86 240.18,-74.8 241.22,-67.88"/>
</a>
</g>
</g>
<!-- Node16&#45;&gt;Node3 -->
<g id="edge31_Node000016_Node000003" class="edge">
<title>Node16&#45;&gt;Node3</title>
<g id="a_edge31_Node000016_Node000003"><a xlink:title=" ">
<path fill="none" stroke="#63b8ff" d="M524.03,-109.94C502.83,-102.96 475.3,-91.39 455.68,-74 441.58,-61.51 431.16,-42.49 424.84,-28.53"/>
<polygon fill="#63b8ff" stroke="#63b8ff" points="427.93,-26.86 420.8,-19.02 421.49,-29.6 427.93,-26.86"/>
</a>
</g>
</g>
<!-- Node16&#45;&gt;Node11 -->
<g id="edge30_Node000016_Node000011" class="edge">
<title>Node16&#45;&gt;Node11</title>
<g id="a_edge30_Node000016_Node000011"><a xlink:title=" ">
<path fill="none" stroke="#63b8ff" d="M520.65,-109.98C482.48,-100.71 421.4,-85.85 380.43,-75.89"/>
<polygon fill="#63b8ff" stroke="#63b8ff" points="381.02,-72.44 370.48,-73.47 379.37,-79.24 381.02,-72.44"/>
</a>
</g>
</g>
<!-- Node17 -->
<g id="Node000017" class="node">
<title>Node17</title>
<g id="a_Node000017"><a xlink:title=" ">
<polygon fill="#e0e0e0" stroke="#999999" points="514.68,-74 464.68,-74 464.68,-55 514.68,-55 514.68,-74"/>
<text text-anchor="middle" x="489.68" y="-62" font-family="Helvetica,sans-Serif" font-size="10.00">atomic</text>
</a>
</g>
</g>
<!-- Node16&#45;&gt;Node17 -->
<g id="edge25_Node000016_Node000017" class="edge">
<title>Node16&#45;&gt;Node17</title>
<g id="a_edge25_Node000016_Node000017"><a xlink:title=" ">
<path fill="none" stroke="#63b8ff" d="M545.07,-109.98C535.22,-102.07 520.33,-90.11 508.46,-80.58"/>
<polygon fill="#63b8ff" stroke="#63b8ff" points="510.46,-77.7 500.47,-74.17 506.08,-83.16 510.46,-77.7"/>
</a>
</g>
</g>
<!-- Node18 -->
<g id="Node000018" class="node">
<title>Node18</title>
<g id="a_Node000018"><a xlink:title=" ">
<polygon fill="#e0e0e0" stroke="#999999" points="578.68,-74 532.68,-74 532.68,-55 578.68,-55 578.68,-74"/>
<text text-anchor="middle" x="555.68" y="-62" font-family="Helvetica,sans-Serif" font-size="10.00">cstdio</text>
</a>
</g>
</g>
<!-- Node16&#45;&gt;Node18 -->
<g id="edge26_Node000016_Node000018" class="edge">
<title>Node16&#45;&gt;Node18</title>
<g id="a_edge26_Node000016_Node000018"><a xlink:title=" ">
<path fill="none" stroke="#63b8ff" d="M555.68,-109.75C555.68,-102.8 555.68,-92.85 555.68,-84.13"/>
<polygon fill="#63b8ff" stroke="#63b8ff" points="559.18,-84.09 555.68,-74.09 552.18,-84.09 559.18,-84.09"/>
</a>
</g>
</g>
<!-- Node19 -->
<g id="Node000019" class="node">
<title>Node19</title>
<g id="a_Node000019"><a xlink:title=" ">
<polygon fill="#e0e0e0" stroke="#999999" points="646.18,-74 597.18,-74 597.18,-55 646.18,-55 646.18,-74"/>
<text text-anchor="middle" x="621.68" y="-62" font-family="Helvetica,sans-Serif" font-size="10.00">cstdlib</text>
</a>
</g>
</g>
<!-- Node16&#45;&gt;Node19 -->
<g id="edge27_Node000016_Node000019" class="edge">
<title>Node16&#45;&gt;Node19</title>
<g id="a_edge27_Node000016_Node000019"><a xlink:title=" ">
<path fill="none" stroke="#63b8ff" d="M566.28,-109.98C576.13,-102.07 591.03,-90.11 602.89,-80.58"/>
<polygon fill="#63b8ff" stroke="#63b8ff" points="605.27,-83.16 610.88,-74.17 600.89,-77.7 605.27,-83.16"/>
</a>
</g>
</g>
<!-- Node20 -->
<g id="Node000020" class="node">
<title>Node20</title>
<g id="a_Node000020"><a xlink:title=" ">
<polygon fill="#e0e0e0" stroke="#999999" points="724.68,-74 664.68,-74 664.68,-55 724.68,-55 724.68,-74"/>
<text text-anchor="middle" x="694.68" y="-62" font-family="Helvetica,sans-Serif" font-size="10.00">iostream</text>
</a>
</g>
</g>
<!-- Node16&#45;&gt;Node20 -->
<g id="edge28_Node000016_Node000020" class="edge">
<title>Node16&#45;&gt;Node20</title>
<g id="a_edge28_Node000016_Node000020"><a xlink:title=" ">
<path fill="none" stroke="#63b8ff" d="M578.01,-109.98C600.87,-101.27 636.63,-87.63 662.54,-77.75"/>
<polygon fill="#63b8ff" stroke="#63b8ff" points="663.84,-81 671.94,-74.17 661.35,-74.46 663.84,-81"/>
</a>
</g>
</g>
<!-- Node16&#45;&gt;Node21 -->
<g id="edge32_Node000016_Node000021" class="edge">
<title>Node16&#45;&gt;Node21</title>
<g id="a_edge32_Node000016_Node000021"><a xlink:title=" ">
<path fill="none" stroke="#63b8ff" d="M597.61,-109.98C644.83,-100.4 721.34,-84.86 770.31,-74.92"/>
<polygon fill="#63b8ff" stroke="#63b8ff" points="771.22,-78.3 780.32,-72.88 769.82,-71.44 771.22,-78.3"/>
</a>
</g>
</g>
<!-- Node21&#45;&gt;Node3 -->
<g id="edge34_Node000021_Node000003" class="edge">
<title>Node21&#45;&gt;Node3</title>
<g id="a_edge34_Node000021_Node000003"><a xlink:title=" ">
<path fill="none" stroke="#63b8ff" d="M780.56,-58.7C703.41,-48.45 523.52,-24.56 449.93,-14.78"/>
<polygon fill="#63b8ff" stroke="#63b8ff" points="450.24,-11.3 439.87,-13.45 449.32,-18.23 450.24,-11.3"/>
</a>
</g>
</g>
<!-- Node21&#45;&gt;Node15 -->
<g id="edge33_Node000021_Node000015" class="edge">
<title>Node21&#45;&gt;Node15</title>
<g id="a_edge33_Node000021_Node000015"><a xlink:title=" ">
<path fill="none" stroke="#63b8ff" d="M806.39,-54.98C796.84,-47.07 782.4,-35.11 770.89,-25.58"/>
<polygon fill="#63b8ff" stroke="#63b8ff" points="773.08,-22.85 763.15,-19.17 768.62,-28.24 773.08,-22.85"/>
</a>
</g>
</g>
<!-- Node22 -->
<g id="Node000022" class="node">
<title>Node22</title>
<g id="a_Node000022"><a xlink:href="../../dc/df2/type__id_8h.html" target="_top" xlink:title=" ">
<polygon fill="white" stroke="#666666" points="881.68,-19 795.68,-19 795.68,0 881.68,0 881.68,-19"/>
<text text-anchor="middle" x="838.68" y="-7" font-family="Helvetica,sans-Serif" font-size="10.00">type/type_id.h</text>
</a>
</g>
</g>
<!-- Node21&#45;&gt;Node22 -->
<g id="edge35_Node000021_Node000022" class="edge">
<title>Node21&#45;&gt;Node22</title>
<g id="a_edge35_Node000021_Node000022"><a xlink:title=" ">
<path fill="none" stroke="#63b8ff" d="M820.31,-54.75C823.26,-47.65 827.51,-37.4 831.18,-28.56"/>
<polygon fill="#63b8ff" stroke="#63b8ff" points="834.51,-29.67 835.11,-19.09 828.04,-26.98 834.51,-29.67"/>
</a>
</g>
</g>
</g>
</svg>
