<?xml version="1.0" encoding="UTF-8" standalone="no"?>
<!DOCTYPE svg PUBLIC "-//W3C//DTD SVG 1.1//EN"
 "http://www.w3.org/Graphics/SVG/1.1/DTD/svg11.dtd">
<!-- Generated by graphviz version 2.43.0 (0)
 -->
<!-- Title: src/binder/statement/create_statement.cpp Pages: 1 -->
<svg width="1023pt" height="335pt"
 viewBox="0.00 0.00 1023.07 335.00" xmlns="http://www.w3.org/2000/svg" xmlns:xlink="http://www.w3.org/1999/xlink">
<g id="graph0" class="graph" transform="scale(1 1) rotate(0) translate(4 331)">
<title>src/binder/statement/create_statement.cpp</title>
<!-- Node1 -->
<g id="Node000001" class="node">
<title>Node1</title>
<g id="a_Node000001"><a xlink:title=" ">
<polygon fill="#999999" stroke="#666666" points="570.57,-327 444.57,-327 444.57,-297 570.57,-297 570.57,-327"/>
<text text-anchor="start" x="452.57" y="-315" font-family="Helvetica,sans-Serif" font-size="10.00">src/binder/statement</text>
<text text-anchor="middle" x="507.57" y="-304" font-family="Helvetica,sans-Serif" font-size="10.00">/create_statement.cpp</text>
</a>
</g>
</g>
<!-- Node2 -->
<g id="Node000002" class="node">
<title>Node2</title>
<g id="a_Node000002"><a xlink:href="../../dc/df8/column_8h.html" target="_top" xlink:title=" ">
<polygon fill="white" stroke="#666666" points="401.07,-195 300.07,-195 300.07,-176 401.07,-176 401.07,-195"/>
<text text-anchor="middle" x="350.57" y="-183" font-family="Helvetica,sans-Serif" font-size="10.00">catalog/column.h</text>
</a>
</g>
</g>
<!-- Node1&#45;&gt;Node2 -->
<g id="edge1_Node000001_Node000002" class="edge">
<title>Node1&#45;&gt;Node2</title>
<g id="a_edge1_Node000001_Node000002"><a xlink:title=" ">
<path fill="none" stroke="#63b8ff" d="M489.87,-296.96C460.09,-273.35 400.23,-225.88 369.59,-201.58"/>
<polygon fill="#63b8ff" stroke="#63b8ff" points="371.44,-198.58 361.43,-195.11 367.09,-204.07 371.44,-198.58"/>
</a>
</g>
</g>
<!-- Node19 -->
<g id="Node000019" class="node">
<title>Node19</title>
<g id="a_Node000019"><a xlink:title=" ">
<polygon fill="#e0e0e0" stroke="#999999" points="547.07,-255.5 468.07,-255.5 468.07,-236.5 547.07,-236.5 547.07,-255.5"/>
<text text-anchor="middle" x="507.57" y="-243.5" font-family="Helvetica,sans-Serif" font-size="10.00">fmt/ranges.h</text>
</a>
</g>
</g>
<!-- Node1&#45;&gt;Node19 -->
<g id="edge24_Node000001_Node000019" class="edge">
<title>Node1&#45;&gt;Node19</title>
<g id="a_edge24_Node000001_Node000019"><a xlink:title=" ">
<path fill="none" stroke="#63b8ff" d="M507.57,-296.8C507.57,-287.7 507.57,-275.79 507.57,-265.9"/>
<polygon fill="#63b8ff" stroke="#63b8ff" points="511.07,-265.84 507.57,-255.84 504.07,-265.84 511.07,-265.84"/>
</a>
</g>
</g>
<!-- Node20 -->
<g id="Node000020" class="node">
<title>Node20</title>
<g id="a_Node000020"><a xlink:href="../../dd/d52/create__statement_8h.html" target="_top" xlink:title=" ">
<polygon fill="white" stroke="#666666" points="700.57,-261 566.57,-261 566.57,-231 700.57,-231 700.57,-261"/>
<text text-anchor="start" x="574.57" y="-249" font-family="Helvetica,sans-Serif" font-size="10.00">binder/statement/create</text>
<text text-anchor="middle" x="633.57" y="-238" font-family="Helvetica,sans-Serif" font-size="10.00">_statement.h</text>
</a>
</g>
</g>
<!-- Node1&#45;&gt;Node20 -->
<g id="edge25_Node000001_Node000020" class="edge">
<title>Node1&#45;&gt;Node20</title>
<g id="a_edge25_Node000001_Node000020"><a xlink:title=" ">
<path fill="none" stroke="#63b8ff" d="M535.23,-296.95C553.36,-287.74 577.28,-275.6 596.98,-265.59"/>
<polygon fill="#63b8ff" stroke="#63b8ff" points="598.66,-268.66 605.99,-261.01 595.49,-262.42 598.66,-268.66"/>
</a>
</g>
</g>
<!-- Node3 -->
<g id="Node000003" class="node">
<title>Node3</title>
<g id="a_Node000003"><a xlink:title=" ">
<polygon fill="#e0e0e0" stroke="#999999" points="267.57,-19 217.57,-19 217.57,0 267.57,0 267.57,-19"/>
<text text-anchor="middle" x="242.57" y="-7" font-family="Helvetica,sans-Serif" font-size="10.00">cstdint</text>
</a>
</g>
</g>
<!-- Node2&#45;&gt;Node3 -->
<g id="edge2_Node000002_Node000003" class="edge">
<title>Node2&#45;&gt;Node3</title>
<g id="a_edge2_Node000002_Node000003"><a xlink:title=" ">
<path fill="none" stroke="#63b8ff" d="M299.95,-184.33C243.62,-182.33 151.11,-173.58 79.57,-140 39.08,-120.99 22.14,-114.7 3.57,-74 0.07,-66.32 -1.82,-61.49 3.57,-55 29.09,-24.3 147.37,-14.67 207.41,-11.74"/>
<polygon fill="#63b8ff" stroke="#63b8ff" points="207.73,-15.23 217.56,-11.28 207.41,-8.23 207.73,-15.23"/>
</a>
</g>
</g>
<!-- Node4 -->
<g id="Node000004" class="node">
<title>Node4</title>
<g id="a_Node000004"><a xlink:title=" ">
<polygon fill="#e0e0e0" stroke="#999999" points="435.57,-74 377.57,-74 377.57,-55 435.57,-55 435.57,-74"/>
<text text-anchor="middle" x="406.57" y="-62" font-family="Helvetica,sans-Serif" font-size="10.00">memory</text>
</a>
</g>
</g>
<!-- Node2&#45;&gt;Node4 -->
<g id="edge3_Node000002_Node000004" class="edge">
<title>Node2&#45;&gt;Node4</title>
<g id="a_edge3_Node000002_Node000004"><a xlink:title=" ">
<path fill="none" stroke="#63b8ff" d="M354.6,-175.94C363.68,-156.65 385.9,-109.44 398.14,-83.43"/>
<polygon fill="#63b8ff" stroke="#63b8ff" points="401.34,-84.84 402.43,-74.3 395.01,-81.86 401.34,-84.84"/>
</a>
</g>
</g>
<!-- Node5 -->
<g id="Node000005" class="node">
<title>Node5</title>
<g id="a_Node000005"><a xlink:title=" ">
<polygon fill="#e0e0e0" stroke="#999999" points="695.57,-19 651.57,-19 651.57,0 695.57,0 695.57,-19"/>
<text text-anchor="middle" x="673.57" y="-7" font-family="Helvetica,sans-Serif" font-size="10.00">string</text>
</a>
</g>
</g>
<!-- Node2&#45;&gt;Node5 -->
<g id="edge4_Node000002_Node000005" class="edge">
<title>Node2&#45;&gt;Node5</title>
<g id="a_edge4_Node000002_Node000005"><a xlink:title=" ">
<path fill="none" stroke="#63b8ff" d="M348.66,-175.75C344.13,-152.43 335.46,-88.34 368.57,-55 406.24,-17.08 570.81,-11.24 641.32,-10.51"/>
<polygon fill="#63b8ff" stroke="#63b8ff" points="641.43,-14.01 651.41,-10.43 641.38,-7.01 641.43,-14.01"/>
</a>
</g>
</g>
<!-- Node6 -->
<g id="Node000006" class="node">
<title>Node6</title>
<g id="a_Node000006"><a xlink:title=" ">
<polygon fill="#e0e0e0" stroke="#999999" points="283.07,-134.5 238.07,-134.5 238.07,-115.5 283.07,-115.5 283.07,-134.5"/>
<text text-anchor="middle" x="260.57" y="-122.5" font-family="Helvetica,sans-Serif" font-size="10.00">utility</text>
</a>
</g>
</g>
<!-- Node2&#45;&gt;Node6 -->
<g id="edge5_Node000002_Node000006" class="edge">
<title>Node2&#45;&gt;Node6</title>
<g id="a_edge5_Node000002_Node000006"><a xlink:title=" ">
<path fill="none" stroke="#63b8ff" d="M337.29,-175.87C322.94,-166.54 299.82,-151.51 282.7,-140.38"/>
<polygon fill="#63b8ff" stroke="#63b8ff" points="284.2,-137.18 273.91,-134.67 280.39,-143.05 284.2,-137.18"/>
</a>
</g>
</g>
<!-- Node7 -->
<g id="Node000007" class="node">
<title>Node7</title>
<g id="a_Node000007"><a xlink:title=" ">
<polygon fill="#e0e0e0" stroke="#999999" points="819.07,-74 740.07,-74 740.07,-55 819.07,-55 819.07,-74"/>
<text text-anchor="middle" x="779.57" y="-62" font-family="Helvetica,sans-Serif" font-size="10.00">fmt/format.h</text>
</a>
</g>
</g>
<!-- Node2&#45;&gt;Node7 -->
<g id="edge6_Node000002_Node000007" class="edge">
<title>Node2&#45;&gt;Node7</title>
<g id="a_edge6_Node000002_Node000007"><a xlink:title=" ">
<path fill="none" stroke="#63b8ff" d="M401.23,-182.2C455.99,-178.32 545.03,-167.9 616.57,-140 639.31,-131.13 640.82,-121.07 662.57,-110 688.34,-96.89 718.91,-85.39 742.34,-77.37"/>
<polygon fill="#63b8ff" stroke="#63b8ff" points="743.55,-80.66 751.91,-74.15 741.32,-74.02 743.55,-80.66"/>
</a>
</g>
</g>
<!-- Node8 -->
<g id="Node000008" class="node">
<title>Node8</title>
<g id="a_Node000008"><a xlink:href="../../dd/d2d/exception_8h.html" target="_top" xlink:title=" ">
<polygon fill="white" stroke="#666666" points="607.07,-134.5 488.07,-134.5 488.07,-115.5 607.07,-115.5 607.07,-134.5"/>
<text text-anchor="middle" x="547.57" y="-122.5" font-family="Helvetica,sans-Serif" font-size="10.00">common/exception.h</text>
</a>
</g>
</g>
<!-- Node2&#45;&gt;Node8 -->
<g id="edge7_Node000002_Node000008" class="edge">
<title>Node2&#45;&gt;Node8</title>
<g id="a_edge7_Node000002_Node000008"><a xlink:title=" ">
<path fill="none" stroke="#63b8ff" d="M379.22,-175.99C413.51,-165.81 471.06,-148.72 509.17,-137.4"/>
<polygon fill="#63b8ff" stroke="#63b8ff" points="510.3,-140.72 518.89,-134.52 508.31,-134.01 510.3,-140.72"/>
</a>
</g>
</g>
<!-- Node14 -->
<g id="Node000014" class="node">
<title>Node14</title>
<g id="a_Node000014"><a xlink:href="../../df/def/type_8h.html" target="_top" xlink:title=" ">
<polygon fill="white" stroke="#666666" points="321.57,-74 249.57,-74 249.57,-55 321.57,-55 321.57,-74"/>
<text text-anchor="middle" x="285.57" y="-62" font-family="Helvetica,sans-Serif" font-size="10.00">type/type.h</text>
</a>
</g>
</g>
<!-- Node2&#45;&gt;Node14 -->
<g id="edge23_Node000002_Node000014" class="edge">
<title>Node2&#45;&gt;Node14</title>
<g id="a_edge23_Node000002_Node000014"><a xlink:title=" ">
<path fill="none" stroke="#63b8ff" d="M345.9,-175.94C335.32,-156.57 309.35,-109.02 295.18,-83.08"/>
<polygon fill="#63b8ff" stroke="#63b8ff" points="298.25,-81.4 290.38,-74.3 292.1,-84.76 298.25,-81.4"/>
</a>
</g>
</g>
<!-- Node16 -->
<g id="Node000016" class="node">
<title>Node16</title>
<g id="a_Node000016"><a xlink:href="../../de/d3c/macros_8h.html" target="_top" xlink:title=" ">
<polygon fill="white" stroke="#666666" points="195.07,-134.5 88.07,-134.5 88.07,-115.5 195.07,-115.5 195.07,-134.5"/>
<text text-anchor="middle" x="141.57" y="-122.5" font-family="Helvetica,sans-Serif" font-size="10.00">common/macros.h</text>
</a>
</g>
</g>
<!-- Node2&#45;&gt;Node16 -->
<g id="edge19_Node000002_Node000016" class="edge">
<title>Node2&#45;&gt;Node16</title>
<g id="a_edge19_Node000002_Node000016"><a xlink:title=" ">
<path fill="none" stroke="#63b8ff" d="M320.18,-175.99C283.65,-165.77 222.23,-148.58 181.8,-137.26"/>
<polygon fill="#63b8ff" stroke="#63b8ff" points="182.57,-133.84 172,-134.52 180.69,-140.58 182.57,-133.84"/>
</a>
</g>
</g>
<!-- Node8&#45;&gt;Node4 -->
<g id="edge12_Node000008_Node000004" class="edge">
<title>Node8&#45;&gt;Node4</title>
<g id="a_edge12_Node000008_Node000004"><a xlink:title=" ">
<path fill="none" stroke="#63b8ff" d="M527.07,-115.49C503.26,-105.62 463.78,-89.23 436.53,-77.93"/>
<polygon fill="#63b8ff" stroke="#63b8ff" points="437.68,-74.62 427.1,-74.02 435,-81.08 437.68,-74.62"/>
</a>
</g>
</g>
<!-- Node8&#45;&gt;Node5 -->
<g id="edge14_Node000008_Node000005" class="edge">
<title>Node8&#45;&gt;Node5</title>
<g id="a_edge14_Node000008_Node000005"><a xlink:title=" ">
<path fill="none" stroke="#63b8ff" d="M583.29,-115.5C606.65,-108.18 636.15,-95.34 654.57,-74 665.27,-61.62 669.94,-43.4 671.99,-29.65"/>
<polygon fill="#63b8ff" stroke="#63b8ff" points="675.5,-29.71 673.16,-19.38 668.55,-28.91 675.5,-29.71"/>
</a>
</g>
</g>
<!-- Node9 -->
<g id="Node000009" class="node">
<title>Node9</title>
<g id="a_Node000009"><a xlink:title=" ">
<polygon fill="#e0e0e0" stroke="#999999" points="842.57,-19 792.57,-19 792.57,0 842.57,0 842.57,-19"/>
<text text-anchor="middle" x="817.57" y="-7" font-family="Helvetica,sans-Serif" font-size="10.00">atomic</text>
</a>
</g>
</g>
<!-- Node8&#45;&gt;Node9 -->
<g id="edge8_Node000008_Node000009" class="edge">
<title>Node8&#45;&gt;Node9</title>
<g id="a_edge8_Node000008_Node000009"><a xlink:title=" ">
<path fill="none" stroke="#63b8ff" d="M569.98,-115.4C595.26,-105.63 637.54,-89.09 673.57,-74 713.93,-57.1 760.14,-36.5 789.09,-23.44"/>
<polygon fill="#63b8ff" stroke="#63b8ff" points="790.9,-26.46 798.57,-19.15 788.02,-20.08 790.9,-26.46"/>
</a>
</g>
</g>
<!-- Node10 -->
<g id="Node000010" class="node">
<title>Node10</title>
<g id="a_Node000010"><a xlink:title=" ">
<polygon fill="#e0e0e0" stroke="#999999" points="645.57,-74 599.57,-74 599.57,-55 645.57,-55 645.57,-74"/>
<text text-anchor="middle" x="622.57" y="-62" font-family="Helvetica,sans-Serif" font-size="10.00">cstdio</text>
</a>
</g>
</g>
<!-- Node8&#45;&gt;Node10 -->
<g id="edge9_Node000008_Node000010" class="edge">
<title>Node8&#45;&gt;Node10</title>
<g id="a_edge9_Node000008_Node000010"><a xlink:title=" ">
<path fill="none" stroke="#63b8ff" d="M558.64,-115.37C570.38,-106.21 589.16,-91.56 603.34,-80.51"/>
<polygon fill="#63b8ff" stroke="#63b8ff" points="605.73,-83.08 611.46,-74.17 601.42,-77.56 605.73,-83.08"/>
</a>
</g>
</g>
<!-- Node11 -->
<g id="Node000011" class="node">
<title>Node11</title>
<g id="a_Node000011"><a xlink:title=" ">
<polygon fill="#e0e0e0" stroke="#999999" points="503.07,-74 454.07,-74 454.07,-55 503.07,-55 503.07,-74"/>
<text text-anchor="middle" x="478.57" y="-62" font-family="Helvetica,sans-Serif" font-size="10.00">cstdlib</text>
</a>
</g>
</g>
<!-- Node8&#45;&gt;Node11 -->
<g id="edge10_Node000008_Node000011" class="edge">
<title>Node8&#45;&gt;Node11</title>
<g id="a_edge10_Node000008_Node000011"><a xlink:title=" ">
<path fill="none" stroke="#63b8ff" d="M537.39,-115.37C526.69,-106.3 509.64,-91.84 496.64,-80.82"/>
<polygon fill="#63b8ff" stroke="#63b8ff" points="498.69,-77.96 488.8,-74.17 494.16,-83.3 498.69,-77.96"/>
</a>
</g>
</g>
<!-- Node12 -->
<g id="Node000012" class="node">
<title>Node12</title>
<g id="a_Node000012"><a xlink:title=" ">
<polygon fill="#e0e0e0" stroke="#999999" points="581.57,-74 521.57,-74 521.57,-55 581.57,-55 581.57,-74"/>
<text text-anchor="middle" x="551.57" y="-62" font-family="Helvetica,sans-Serif" font-size="10.00">iostream</text>
</a>
</g>
</g>
<!-- Node8&#45;&gt;Node12 -->
<g id="edge11_Node000008_Node000012" class="edge">
<title>Node8&#45;&gt;Node12</title>
<g id="a_edge11_Node000008_Node000012"><a xlink:title=" ">
<path fill="none" stroke="#63b8ff" d="M548.16,-115.37C548.72,-107.25 549.57,-94.81 550.28,-84.39"/>
<polygon fill="#63b8ff" stroke="#63b8ff" points="553.79,-84.38 550.98,-74.17 546.81,-83.91 553.79,-84.38"/>
</a>
</g>
</g>
<!-- Node13 -->
<g id="Node000013" class="node">
<title>Node13</title>
<g id="a_Node000013"><a xlink:title=" ">
<polygon fill="#e0e0e0" stroke="#999999" points="231.07,-74 166.07,-74 166.07,-55 231.07,-55 231.07,-74"/>
<text text-anchor="middle" x="198.57" y="-62" font-family="Helvetica,sans-Serif" font-size="10.00">stdexcept</text>
</a>
</g>
</g>
<!-- Node8&#45;&gt;Node13 -->
<g id="edge13_Node000008_Node000013" class="edge">
<title>Node8&#45;&gt;Node13</title>
<g id="a_edge13_Node000008_Node000013"><a xlink:title=" ">
<path fill="none" stroke="#63b8ff" d="M491.16,-115.47C431.6,-106.32 334.73,-91.02 241.04,-74.02"/>
<polygon fill="#63b8ff" stroke="#63b8ff" points="241.58,-70.56 231.11,-72.21 240.32,-77.45 241.58,-70.56"/>
</a>
</g>
</g>
<!-- Node8&#45;&gt;Node14 -->
<g id="edge15_Node000008_Node000014" class="edge">
<title>Node8&#45;&gt;Node14</title>
<g id="a_edge15_Node000008_Node000014"><a xlink:title=" ">
<path fill="none" stroke="#63b8ff" d="M509.48,-115.49C462.34,-104.97 382.14,-87.06 331.61,-75.78"/>
<polygon fill="#63b8ff" stroke="#63b8ff" points="332.13,-72.31 321.61,-73.55 330.61,-79.14 332.13,-72.31"/>
</a>
</g>
</g>
<!-- Node14&#45;&gt;Node3 -->
<g id="edge16_Node000014_Node000003" class="edge">
<title>Node14&#45;&gt;Node3</title>
<g id="a_edge16_Node000014_Node000003"><a xlink:title=" ">
<path fill="none" stroke="#63b8ff" d="M278.47,-54.75C272.4,-47.26 263.49,-36.28 256.06,-27.13"/>
<polygon fill="#63b8ff" stroke="#63b8ff" points="258.56,-24.65 249.54,-19.09 253.13,-29.06 258.56,-24.65"/>
</a>
</g>
</g>
<!-- Node14&#45;&gt;Node5 -->
<g id="edge17_Node000014_Node000005" class="edge">
<title>Node14&#45;&gt;Node5</title>
<g id="a_edge17_Node000014_Node000005"><a xlink:title=" ">
<path fill="none" stroke="#63b8ff" d="M321.6,-57.21C326.3,-56.44 331.05,-55.68 335.57,-55 447.65,-38.1 581.19,-21.58 641.36,-14.33"/>
<polygon fill="#63b8ff" stroke="#63b8ff" points="641.88,-17.8 651.39,-13.13 641.04,-10.85 641.88,-17.8"/>
</a>
</g>
</g>
<!-- Node15 -->
<g id="Node000015" class="node">
<title>Node15</title>
<g id="a_Node000015"><a xlink:href="../../dc/df2/type__id_8h.html" target="_top" xlink:title=" ">
<polygon fill="white" stroke="#666666" points="371.57,-19 285.57,-19 285.57,0 371.57,0 371.57,-19"/>
<text text-anchor="middle" x="328.57" y="-7" font-family="Helvetica,sans-Serif" font-size="10.00">type/type_id.h</text>
</a>
</g>
</g>
<!-- Node14&#45;&gt;Node15 -->
<g id="edge18_Node000014_Node000015" class="edge">
<title>Node14&#45;&gt;Node15</title>
<g id="a_edge18_Node000014_Node000015"><a xlink:title=" ">
<path fill="none" stroke="#63b8ff" d="M292.68,-54.75C298.75,-47.26 307.66,-36.28 315.08,-27.13"/>
<polygon fill="#63b8ff" stroke="#63b8ff" points="318.02,-29.06 321.61,-19.09 312.59,-24.65 318.02,-29.06"/>
</a>
</g>
</g>
<!-- Node16&#45;&gt;Node13 -->
<g id="edge22_Node000016_Node000013" class="edge">
<title>Node16&#45;&gt;Node13</title>
<g id="a_edge22_Node000016_Node000013"><a xlink:title=" ">
<path fill="none" stroke="#63b8ff" d="M149.98,-115.37C158.66,-106.47 172.38,-92.39 183.03,-81.45"/>
<polygon fill="#63b8ff" stroke="#63b8ff" points="185.66,-83.77 190.13,-74.17 180.64,-78.89 185.66,-83.77"/>
</a>
</g>
</g>
<!-- Node17 -->
<g id="Node000017" class="node">
<title>Node17</title>
<g id="a_Node000017"><a xlink:title=" ">
<polygon fill="#e0e0e0" stroke="#999999" points="64.57,-74 12.57,-74 12.57,-55 64.57,-55 64.57,-74"/>
<text text-anchor="middle" x="38.57" y="-62" font-family="Helvetica,sans-Serif" font-size="10.00">cassert</text>
</a>
</g>
</g>
<!-- Node16&#45;&gt;Node17 -->
<g id="edge20_Node000016_Node000017" class="edge">
<title>Node16&#45;&gt;Node17</title>
<g id="a_edge20_Node000016_Node000017"><a xlink:title=" ">
<path fill="none" stroke="#63b8ff" d="M126.38,-115.37C109.57,-105.82 82.25,-90.31 62.55,-79.12"/>
<polygon fill="#63b8ff" stroke="#63b8ff" points="64.26,-76.06 53.83,-74.17 60.8,-82.15 64.26,-76.06"/>
</a>
</g>
</g>
<!-- Node18 -->
<g id="Node000018" class="node">
<title>Node18</title>
<g id="a_Node000018"><a xlink:title=" ">
<polygon fill="#e0e0e0" stroke="#999999" points="148.07,-74 83.07,-74 83.07,-55 148.07,-55 148.07,-74"/>
<text text-anchor="middle" x="115.57" y="-62" font-family="Helvetica,sans-Serif" font-size="10.00">exception</text>
</a>
</g>
</g>
<!-- Node16&#45;&gt;Node18 -->
<g id="edge21_Node000016_Node000018" class="edge">
<title>Node16&#45;&gt;Node18</title>
<g id="a_edge21_Node000016_Node000018"><a xlink:title=" ">
<path fill="none" stroke="#63b8ff" d="M137.74,-115.37C134.01,-106.99 128.25,-94.01 123.53,-83.39"/>
<polygon fill="#63b8ff" stroke="#63b8ff" points="126.69,-81.88 119.43,-74.17 120.29,-84.73 126.69,-81.88"/>
</a>
</g>
</g>
<!-- Node20&#45;&gt;Node2 -->
<g id="edge37_Node000020_Node000002" class="edge">
<title>Node20&#45;&gt;Node2</title>
<g id="a_edge37_Node000020_Node000002"><a xlink:title=" ">
<path fill="none" stroke="#63b8ff" d="M566.51,-231.14C516.06,-220.71 447.96,-206.63 401.83,-197.09"/>
<polygon fill="#63b8ff" stroke="#63b8ff" points="402.25,-193.61 391.75,-195.01 400.84,-200.46 402.25,-193.61"/>
</a>
</g>
</g>
<!-- Node20&#45;&gt;Node5 -->
<g id="edge26_Node000020_Node000005" class="edge">
<title>Node20&#45;&gt;Node5</title>
<g id="a_edge26_Node000020_Node000005"><a xlink:title=" ">
<path fill="none" stroke="#63b8ff" d="M700.71,-234.4C752.87,-221.98 820.56,-195.54 846.57,-140 852.3,-127.77 851.93,-64.17 844.57,-55 827.38,-33.57 750.52,-20.34 705.91,-14.33"/>
<polygon fill="#63b8ff" stroke="#63b8ff" points="706.22,-10.84 695.85,-13.02 705.32,-17.78 706.22,-10.84"/>
</a>
</g>
</g>
<!-- Node21 -->
<g id="Node000021" class="node">
<title>Node21</title>
<g id="a_Node000021"><a xlink:title=" ">
<polygon fill="#e0e0e0" stroke="#999999" points="771.07,-195 724.07,-195 724.07,-176 771.07,-176 771.07,-195"/>
<text text-anchor="middle" x="747.57" y="-183" font-family="Helvetica,sans-Serif" font-size="10.00">vector</text>
</a>
</g>
</g>
<!-- Node20&#45;&gt;Node21 -->
<g id="edge27_Node000020_Node000021" class="edge">
<title>Node20&#45;&gt;Node21</title>
<g id="a_edge27_Node000020_Node000021"><a xlink:title=" ">
<path fill="none" stroke="#63b8ff" d="M660.88,-230.99C679.22,-221.58 703.25,-209.24 721.36,-199.95"/>
<polygon fill="#63b8ff" stroke="#63b8ff" points="723.44,-202.82 730.74,-195.14 720.24,-196.59 723.44,-202.82"/>
</a>
</g>
</g>
<!-- Node22 -->
<g id="Node000022" class="node">
<title>Node22</title>
<g id="a_Node000022"><a xlink:href="../../de/d1a/bound__statement_8h.html" target="_top" xlink:title=" ">
<polygon fill="white" stroke="#666666" points="706.07,-195 561.07,-195 561.07,-176 706.07,-176 706.07,-195"/>
<text text-anchor="middle" x="633.57" y="-183" font-family="Helvetica,sans-Serif" font-size="10.00">binder/bound_statement.h</text>
</a>
</g>
</g>
<!-- Node20&#45;&gt;Node22 -->
<g id="edge28_Node000020_Node000022" class="edge">
<title>Node20&#45;&gt;Node22</title>
<g id="a_edge28_Node000020_Node000022"><a xlink:title=" ">
<path fill="none" stroke="#63b8ff" d="M633.57,-230.84C633.57,-223.21 633.57,-213.7 633.57,-205.45"/>
<polygon fill="#63b8ff" stroke="#63b8ff" points="637.07,-205.27 633.57,-195.27 630.07,-205.27 637.07,-205.27"/>
</a>
</g>
</g>
<!-- Node22&#45;&gt;Node5 -->
<g id="edge29_Node000022_Node000005" class="edge">
<title>Node22&#45;&gt;Node5</title>
<g id="a_edge29_Node000022_Node000005"><a xlink:title=" ">
<path fill="none" stroke="#63b8ff" d="M686.36,-175.98C741.29,-166.58 820.57,-151.28 829.57,-140 836.74,-131.03 840.13,-70.06 828.57,-55 813.64,-35.54 746.52,-21.87 705.66,-15.18"/>
<polygon fill="#63b8ff" stroke="#63b8ff" points="706.06,-11.7 695.63,-13.59 704.96,-18.62 706.06,-11.7"/>
</a>
</g>
</g>
<!-- Node22&#45;&gt;Node8 -->
<g id="edge36_Node000022_Node000008" class="edge">
<title>Node22&#45;&gt;Node8</title>
<g id="a_edge36_Node000022_Node000008"><a xlink:title=" ">
<path fill="none" stroke="#63b8ff" d="M620.88,-175.87C607.17,-166.54 585.07,-151.51 568.72,-140.38"/>
<polygon fill="#63b8ff" stroke="#63b8ff" points="570.55,-137.4 560.32,-134.67 566.62,-143.19 570.55,-137.4"/>
</a>
</g>
</g>
<!-- Node23 -->
<g id="Node000023" class="node">
<title>Node23</title>
<g id="a_Node000023"><a xlink:href="../../dc/dba/statement__type_8h.html" target="_top" xlink:title=" ">
<polygon fill="white" stroke="#666666" points="820.07,-140 671.07,-140 671.07,-110 820.07,-110 820.07,-140"/>
<text text-anchor="start" x="679.07" y="-128" font-family="Helvetica,sans-Serif" font-size="10.00">common/enums/statement</text>
<text text-anchor="middle" x="745.57" y="-117" font-family="Helvetica,sans-Serif" font-size="10.00">_type.h</text>
</a>
</g>
</g>
<!-- Node22&#45;&gt;Node23 -->
<g id="edge30_Node000022_Node000023" class="edge">
<title>Node22&#45;&gt;Node23</title>
<g id="a_edge30_Node000022_Node000023"><a xlink:title=" ">
<path fill="none" stroke="#63b8ff" d="M650.1,-175.87C665.72,-167.71 689.67,-155.2 709.68,-144.75"/>
<polygon fill="#63b8ff" stroke="#63b8ff" points="711.31,-147.85 718.55,-140.11 708.07,-141.64 711.31,-147.85"/>
</a>
</g>
</g>
<!-- Node23&#45;&gt;Node7 -->
<g id="edge35_Node000023_Node000007" class="edge">
<title>Node23&#45;&gt;Node7</title>
<g id="a_edge35_Node000023_Node000007"><a xlink:title=" ">
<path fill="none" stroke="#63b8ff" d="M753.8,-109.84C758.49,-101.78 764.39,-91.62 769.37,-83.06"/>
<polygon fill="#63b8ff" stroke="#63b8ff" points="772.48,-84.67 774.48,-74.27 766.43,-81.15 772.48,-84.67"/>
</a>
</g>
</g>
<!-- Node24 -->
<g id="Node000024" class="node">
<title>Node24</title>
<g id="a_Node000024"><a xlink:href="../../db/d16/config_8h.html" target="_top" xlink:title=" ">
<polygon fill="white" stroke="#666666" points="1015.07,-74 914.07,-74 914.07,-55 1015.07,-55 1015.07,-74"/>
<text text-anchor="middle" x="964.57" y="-62" font-family="Helvetica,sans-Serif" font-size="10.00">common/config.h</text>
</a>
</g>
</g>
<!-- Node23&#45;&gt;Node24 -->
<g id="edge31_Node000023_Node000024" class="edge">
<title>Node23&#45;&gt;Node24</title>
<g id="a_edge31_Node000023_Node000024"><a xlink:title=" ">
<path fill="none" stroke="#63b8ff" d="M798.03,-109.99C836.15,-99.8 887.07,-86.2 922.53,-76.73"/>
<polygon fill="#63b8ff" stroke="#63b8ff" points="923.8,-80.02 932.55,-74.05 921.99,-73.25 923.8,-80.02"/>
</a>
</g>
</g>
<!-- Node24&#45;&gt;Node3 -->
<g id="edge34_Node000024_Node000003" class="edge">
<title>Node24&#45;&gt;Node3</title>
<g id="a_edge34_Node000024_Node000003"><a xlink:title=" ">
<path fill="none" stroke="#63b8ff" d="M913.81,-60.28C767.15,-50.96 349.22,-24.35 277.73,-18.32"/>
<polygon fill="#63b8ff" stroke="#63b8ff" points="278.02,-14.83 267.72,-17.32 277.32,-21.8 278.02,-14.83"/>
</a>
</g>
</g>
<!-- Node24&#45;&gt;Node9 -->
<g id="edge32_Node000024_Node000009" class="edge">
<title>Node24&#45;&gt;Node9</title>
<g id="a_edge32_Node000024_Node000009"><a xlink:title=" ">
<path fill="none" stroke="#63b8ff" d="M940.96,-54.98C916.67,-46.23 878.62,-32.51 851.2,-22.62"/>
<polygon fill="#63b8ff" stroke="#63b8ff" points="852.22,-19.27 841.62,-19.17 849.84,-25.85 852.22,-19.27"/>
</a>
</g>
</g>
<!-- Node25 -->
<g id="Node000025" class="node">
<title>Node25</title>
<g id="a_Node000025"><a xlink:title=" ">
<polygon fill="#e0e0e0" stroke="#999999" points="989.57,-19 939.57,-19 939.57,0 989.57,0 989.57,-19"/>
<text text-anchor="middle" x="964.57" y="-7" font-family="Helvetica,sans-Serif" font-size="10.00">chrono</text>
</a>
</g>
</g>
<!-- Node24&#45;&gt;Node25 -->
<g id="edge33_Node000024_Node000025" class="edge">
<title>Node24&#45;&gt;Node25</title>
<g id="a_edge33_Node000024_Node000025"><a xlink:title=" ">
<path fill="none" stroke="#63b8ff" d="M964.57,-54.75C964.57,-47.8 964.57,-37.85 964.57,-29.13"/>
<polygon fill="#63b8ff" stroke="#63b8ff" points="968.07,-29.09 964.57,-19.09 961.07,-29.09 968.07,-29.09"/>
</a>
</g>
</g>
</g>
</svg>
