<?xml version="1.0" encoding="UTF-8" standalone="no"?>
<!DOCTYPE svg PUBLIC "-//W3C//DTD SVG 1.1//EN"
 "http://www.w3.org/Graphics/SVG/1.1/DTD/svg11.dtd">
<!-- Generated by graphviz version 2.43.0 (0)
 -->
<!-- Title: src/include/storage/page/hash_table_page_defs.h Pages: 1 -->
<!--zoomable 346 -->

<svg id="main" version="1.1" xmlns="http://www.w3.org/2000/svg" xmlns:xlink="http://www.w3.org/1999/xlink" xml:space="preserve" onload="init(evt)">
<style type="text/css"><![CDATA[
.node, .edge {opacity: 0.7;}
.node.selected, .edge.selected {opacity: 1;}
.edge:hover path { stroke: red; }
.edge:hover polygon { stroke: red; fill: red; }
]]></style>

<defs>
  <circle id="rim" cx="0" cy="0" r="7"/>
  <circle id="rim2" cx="0" cy="0" r="3.5"/>
  <g id="zoomPlus">
    <use xlink:href="#rim" fill="#404040"><set attributeName="fill" to="#808080" begin="zoomplus.mouseover" end="zoomplus.mouseout"/></use>
    <path d="M-4,0h8M0,-4v8" fill="none" stroke="white" stroke-width="1.5" pointer-events="none"/>
  </g>
  <g id="zoomMin">
    <use xlink:href="#rim" fill="#404040"><set attributeName="fill" to="#808080" begin="zoomminus.mouseover" end="zoomminus.mouseout"/></use>
    <path d="M-4,0h8" fill="none" stroke="white" stroke-width="1.5" pointer-events="none"/>
  </g>
  <g id="arrowUp" transform="translate(30 24)">
    <use xlink:href="#rim"/>
    <path pointer-events="none" fill="none" stroke="white" stroke-width="1.5" d="M0,-3.0v7 M-2.5,-0.5L0,-3.0L2.5,-0.5"/>
  </g>
  <g id="arrowRight" transform="rotate(90) translate(36 -43)">
    <use xlink:href="#rim"/>
    <path pointer-events="none" fill="none" stroke="white" stroke-width="1.5" d="M0,-3.0v7 M-2.5,-0.5L0,-3.0L2.5,-0.5"/>
  </g>
  <g id="arrowDown" transform="rotate(180) translate(-30 -48)">
    <use xlink:href="#rim"/>
    <path pointer-events="none" fill="none" stroke="white" stroke-width="1.5" d="M0,-3.0v7 M-2.5,-0.5L0,-3.0L2.5,-0.5"/>
  </g>
  <g id="arrowLeft" transform="rotate(270) translate(-36 17)">
    <use xlink:href="#rim"/>
    <path pointer-events="none" fill="none" stroke="white" stroke-width="1.5" d="M0,-3.0v7 M-2.5,-0.5L0,-3.0L2.5,-0.5"/>
  </g>
  <g id="resetDef">
    <use xlink:href="#rim2" fill="#404040"><set attributeName="fill" to="#808080" begin="reset.mouseover" end="reset.mouseout"/></use>
  </g>
</defs>
<script type="application/ecmascript">
var viewWidth = 856;
var viewHeight = 346;
var sectionId = 'dynsection-0';
</script>
<script type="application/ecmascript" xlink:href="../../svg.min.js"/>
<svg id="graph" class="graph">
<g id="viewport">
<title>src/include/storage/page/hash_table_page_defs.h</title>
<!-- Node1 -->
<g id="Node000001" class="node">
<title>Node1</title>
<g id="a_Node000001"><a xlink:title=" ">
<polygon fill="#999999" stroke="#666666" points="421.5,-338 292.5,-338 292.5,-297 421.5,-297 421.5,-338"/>
<text text-anchor="start" x="300.5" y="-326" font-family="Helvetica,sans-Serif" font-size="10.00">src/include/storage</text>
<text text-anchor="start" x="300.5" y="-315" font-family="Helvetica,sans-Serif" font-size="10.00">/page/hash_table_page</text>
<text text-anchor="middle" x="357" y="-304" font-family="Helvetica,sans-Serif" font-size="10.00">_defs.h</text>
</a>
</g>
</g>
<!-- Node2 -->
<g id="Node000002" class="node">
<title>Node2</title>
<g id="a_Node000002"><a xlink:href="../../da/d77/disk__hash__table_8h.html" target="_top" xlink:title=" ">
<polygon fill="white" stroke="#666666" points="118,-261 0,-261 0,-220 118,-220 118,-261"/>
<text text-anchor="start" x="8" y="-249" font-family="Helvetica,sans-Serif" font-size="10.00">src/include/container</text>
<text text-anchor="start" x="8" y="-238" font-family="Helvetica,sans-Serif" font-size="10.00">/disk/hash/disk_hash</text>
<text text-anchor="middle" x="59" y="-227" font-family="Helvetica,sans-Serif" font-size="10.00">_table.h</text>
</a>
</g>
</g>
<!-- Node1&#45;&gt;Node2 -->
<g id="edge1_Node000001_Node000002" class="edge">
<title>Node1&#45;&gt;Node2</title>
<g id="a_edge1_Node000001_Node000002"><a xlink:title=" ">
<path fill="none" stroke="#63b8ff" d="M282.38,-299.34C237.28,-288.76 178.69,-274.64 127,-261 124.15,-260.25 121.24,-259.47 118.3,-258.66"/>
<polygon fill="#63b8ff" stroke="#63b8ff" points="281.84,-302.81 292.37,-301.68 283.44,-295.99 281.84,-302.81"/>
</a>
</g>
</g>
<!-- Node3 -->
<g id="Node000003" class="node">
<title>Node3</title>
<g id="a_Node000003"><a xlink:href="../../d4/dfd/hash__table__block__page_8h.html" target="_top" xlink:title=" ">
<polygon fill="white" stroke="#666666" points="422.5,-261 291.5,-261 291.5,-220 422.5,-220 422.5,-261"/>
<text text-anchor="start" x="299.5" y="-249" font-family="Helvetica,sans-Serif" font-size="10.00">src/include/storage</text>
<text text-anchor="start" x="299.5" y="-238" font-family="Helvetica,sans-Serif" font-size="10.00">/page/hash_table_block</text>
<text text-anchor="middle" x="357" y="-227" font-family="Helvetica,sans-Serif" font-size="10.00">_page.h</text>
</a>
</g>
</g>
<!-- Node1&#45;&gt;Node3 -->
<g id="edge2_Node000001_Node000003" class="edge">
<title>Node1&#45;&gt;Node3</title>
<g id="a_edge2_Node000001_Node000003"><a xlink:title=" ">
<path fill="none" stroke="#63b8ff" d="M357,-286.69C357,-278.08 357,-268.9 357,-261.07"/>
<polygon fill="#63b8ff" stroke="#63b8ff" points="353.5,-286.79 357,-296.79 360.5,-286.79 353.5,-286.79"/>
</a>
</g>
</g>
<!-- Node9 -->
<g id="Node000009" class="node">
<title>Node9</title>
<g id="a_Node000009"><a xlink:href="../../d2/d8a/hash__table__bucket__page_8h.html" target="_top" xlink:title=" ">
<polygon fill="white" stroke="#666666" points="273.5,-261 136.5,-261 136.5,-220 273.5,-220 273.5,-261"/>
<text text-anchor="start" x="144.5" y="-249" font-family="Helvetica,sans-Serif" font-size="10.00">src/include/storage</text>
<text text-anchor="start" x="144.5" y="-238" font-family="Helvetica,sans-Serif" font-size="10.00">/page/hash_table_bucket</text>
<text text-anchor="middle" x="205" y="-227" font-family="Helvetica,sans-Serif" font-size="10.00">_page.h</text>
</a>
</g>
</g>
<!-- Node1&#45;&gt;Node9 -->
<g id="edge8_Node000001_Node000009" class="edge">
<title>Node1&#45;&gt;Node9</title>
<g id="a_edge8_Node000001_Node000009"><a xlink:title=" ">
<path fill="none" stroke="#63b8ff" d="M308.26,-292.45C287.69,-282.3 264.07,-270.64 244.61,-261.04"/>
<polygon fill="#63b8ff" stroke="#63b8ff" points="306.94,-295.7 317.46,-296.99 310.04,-289.43 306.94,-295.7"/>
</a>
</g>
</g>
<!-- Node11 -->
<g id="Node000011" class="node">
<title>Node11</title>
<g id="a_Node000011"><a xlink:href="../../d9/dce/hash__table__directory__page_8h.html" target="_top" xlink:title=" ">
<polygon fill="white" stroke="#666666" points="815.5,-261 666.5,-261 666.5,-220 815.5,-220 815.5,-261"/>
<text text-anchor="start" x="674.5" y="-249" font-family="Helvetica,sans-Serif" font-size="10.00">src/include/storage</text>
<text text-anchor="start" x="674.5" y="-238" font-family="Helvetica,sans-Serif" font-size="10.00">/page/hash_table_directory</text>
<text text-anchor="middle" x="741" y="-227" font-family="Helvetica,sans-Serif" font-size="10.00">_page.h</text>
</a>
</g>
</g>
<!-- Node1&#45;&gt;Node11 -->
<g id="edge10_Node000001_Node000011" class="edge">
<title>Node1&#45;&gt;Node11</title>
<g id="a_edge10_Node000001_Node000011"><a xlink:title=" ">
<path fill="none" stroke="#63b8ff" d="M431.88,-301.87C499.63,-288.64 598.85,-269.26 666.48,-256.05"/>
<polygon fill="#63b8ff" stroke="#63b8ff" points="430.85,-298.51 421.71,-303.86 432.19,-305.38 430.85,-298.51"/>
</a>
</g>
</g>
<!-- Node13 -->
<g id="Node000013" class="node">
<title>Node13</title>
<g id="a_Node000013"><a xlink:href="../../df/d05/hash__table__header__page_8h.html" target="_top" xlink:title=" ">
<polygon fill="white" stroke="#666666" points="579.5,-261 440.5,-261 440.5,-220 579.5,-220 579.5,-261"/>
<text text-anchor="start" x="448.5" y="-249" font-family="Helvetica,sans-Serif" font-size="10.00">src/include/storage</text>
<text text-anchor="start" x="448.5" y="-238" font-family="Helvetica,sans-Serif" font-size="10.00">/page/hash_table_header</text>
<text text-anchor="middle" x="510" y="-227" font-family="Helvetica,sans-Serif" font-size="10.00">_page.h</text>
</a>
</g>
</g>
<!-- Node1&#45;&gt;Node13 -->
<g id="edge12_Node000001_Node000013" class="edge">
<title>Node1&#45;&gt;Node13</title>
<g id="a_edge12_Node000001_Node000013"><a xlink:title=" ">
<path fill="none" stroke="#63b8ff" d="M405.79,-292.59C426.55,-282.41 450.46,-270.69 470.13,-261.04"/>
<polygon fill="#63b8ff" stroke="#63b8ff" points="404.24,-289.45 396.8,-296.99 407.32,-295.73 404.24,-289.45"/>
</a>
</g>
</g>
<!-- Node4 -->
<g id="Node000004" class="node">
<title>Node4</title>
<g id="a_Node000004"><a xlink:href="../../df/d9e/linear__probe__hash__table_8h.html" target="_top" xlink:title=" ">
<polygon fill="white" stroke="#666666" points="531,-184 401,-184 401,-143 531,-143 531,-184"/>
<text text-anchor="start" x="409" y="-172" font-family="Helvetica,sans-Serif" font-size="10.00">src/include/container</text>
<text text-anchor="start" x="409" y="-161" font-family="Helvetica,sans-Serif" font-size="10.00">/disk/hash/linear_probe</text>
<text text-anchor="middle" x="466" y="-150" font-family="Helvetica,sans-Serif" font-size="10.00">_hash_table.h</text>
</a>
</g>
</g>
<!-- Node3&#45;&gt;Node4 -->
<g id="edge3_Node000003_Node000004" class="edge">
<title>Node3&#45;&gt;Node4</title>
<g id="a_edge3_Node000003_Node000004"><a xlink:title=" ">
<path fill="none" stroke="#63b8ff" d="M393.93,-214.09C408.13,-204.32 424.11,-193.32 437.41,-184.17"/>
<polygon fill="#63b8ff" stroke="#63b8ff" points="391.61,-211.44 385.35,-219.99 395.58,-217.21 391.61,-211.44"/>
</a>
</g>
</g>
<!-- Node8 -->
<g id="Node000008" class="node">
<title>Node8</title>
<g id="a_Node000008"><a xlink:href="../../d2/d88/hash__table__block__page_8cpp.html" target="_top" xlink:title=" ">
<polygon fill="white" stroke="#666666" points="383,-178.5 255,-178.5 255,-148.5 383,-148.5 383,-178.5"/>
<text text-anchor="start" x="263" y="-166.5" font-family="Helvetica,sans-Serif" font-size="10.00">src/storage/page/hash</text>
<text text-anchor="middle" x="319" y="-155.5" font-family="Helvetica,sans-Serif" font-size="10.00">_table_block_page.cpp</text>
</a>
</g>
</g>
<!-- Node3&#45;&gt;Node8 -->
<g id="edge7_Node000003_Node000008" class="edge">
<title>Node3&#45;&gt;Node8</title>
<g id="a_edge7_Node000003_Node000008"><a xlink:title=" ">
<path fill="none" stroke="#63b8ff" d="M342.36,-210.6C336.85,-199.73 330.83,-187.84 326.28,-178.86"/>
<polygon fill="#63b8ff" stroke="#63b8ff" points="339.37,-212.46 347.02,-219.79 345.62,-209.29 339.37,-212.46"/>
</a>
</g>
</g>
<!-- Node5 -->
<g id="Node000005" class="node">
<title>Node5</title>
<g id="a_Node000005"><a xlink:href="../../d7/d66/linear__probe__hash__table_8cpp.html" target="_top" xlink:title=" ">
<polygon fill="white" stroke="#666666" points="461.5,-107 326.5,-107 326.5,-66 461.5,-66 461.5,-107"/>
<text text-anchor="start" x="334.5" y="-95" font-family="Helvetica,sans-Serif" font-size="10.00">src/container/disk</text>
<text text-anchor="start" x="334.5" y="-84" font-family="Helvetica,sans-Serif" font-size="10.00">/hash/linear_probe_hash</text>
<text text-anchor="middle" x="394" y="-73" font-family="Helvetica,sans-Serif" font-size="10.00">_table.cpp</text>
</a>
</g>
</g>
<!-- Node4&#45;&gt;Node5 -->
<g id="edge4_Node000004_Node000005" class="edge">
<title>Node4&#45;&gt;Node5</title>
<g id="a_edge4_Node000004_Node000005"><a xlink:title=" ">
<path fill="none" stroke="#63b8ff" d="M440.09,-135.51C431.07,-126.11 421.13,-115.76 412.79,-107.07"/>
<polygon fill="#63b8ff" stroke="#63b8ff" points="437.63,-138 447.08,-142.79 442.68,-133.16 437.63,-138"/>
</a>
</g>
</g>
<!-- Node6 -->
<g id="Node000006" class="node">
<title>Node6</title>
<g id="a_Node000006"><a xlink:href="../../db/d9d/linear__probe__hash__table__index_8h.html" target="_top" xlink:title=" ">
<polygon fill="white" stroke="#666666" points="596,-107 480,-107 480,-66 596,-66 596,-107"/>
<text text-anchor="start" x="488" y="-95" font-family="Helvetica,sans-Serif" font-size="10.00">src/include/storage</text>
<text text-anchor="start" x="488" y="-84" font-family="Helvetica,sans-Serif" font-size="10.00">/index/linear_probe</text>
<text text-anchor="middle" x="538" y="-73" font-family="Helvetica,sans-Serif" font-size="10.00">_hash_table_index.h</text>
</a>
</g>
</g>
<!-- Node4&#45;&gt;Node6 -->
<g id="edge5_Node000004_Node000006" class="edge">
<title>Node4&#45;&gt;Node6</title>
<g id="a_edge5_Node000004_Node000006"><a xlink:title=" ">
<path fill="none" stroke="#63b8ff" d="M491.91,-135.51C500.93,-126.11 510.87,-115.76 519.21,-107.07"/>
<polygon fill="#63b8ff" stroke="#63b8ff" points="489.32,-133.16 484.92,-142.79 494.37,-138 489.32,-133.16"/>
</a>
</g>
</g>
<!-- Node7 -->
<g id="Node000007" class="node">
<title>Node7</title>
<g id="a_Node000007"><a xlink:href="../../d2/dad/linear__probe__hash__table__index_8cpp.html" target="_top" xlink:title=" ">
<polygon fill="white" stroke="#666666" points="618.5,-30 457.5,-30 457.5,0 618.5,0 618.5,-30"/>
<text text-anchor="start" x="465.5" y="-18" font-family="Helvetica,sans-Serif" font-size="10.00">src/storage/index/linear</text>
<text text-anchor="middle" x="538" y="-7" font-family="Helvetica,sans-Serif" font-size="10.00">_probe_hash_table_index.cpp</text>
</a>
</g>
</g>
<!-- Node6&#45;&gt;Node7 -->
<g id="edge6_Node000006_Node000007" class="edge">
<title>Node6&#45;&gt;Node7</title>
<g id="a_edge6_Node000006_Node000007"><a xlink:title=" ">
<path fill="none" stroke="#63b8ff" d="M538,-55.66C538,-46.76 538,-37.42 538,-30.04"/>
<polygon fill="#63b8ff" stroke="#63b8ff" points="534.5,-55.77 538,-65.77 541.5,-55.77 534.5,-55.77"/>
</a>
</g>
</g>
<!-- Node10 -->
<g id="Node000010" class="node">
<title>Node10</title>
<g id="a_Node000010"><a xlink:href="../../d5/d41/hash__table__bucket__page_8cpp.html" target="_top" xlink:title=" ">
<polygon fill="white" stroke="#666666" points="237,-178.5 103,-178.5 103,-148.5 237,-148.5 237,-178.5"/>
<text text-anchor="start" x="111" y="-166.5" font-family="Helvetica,sans-Serif" font-size="10.00">src/storage/page/hash</text>
<text text-anchor="middle" x="170" y="-155.5" font-family="Helvetica,sans-Serif" font-size="10.00">_table_bucket_page.cpp</text>
</a>
</g>
</g>
<!-- Node9&#45;&gt;Node10 -->
<g id="edge9_Node000009_Node000010" class="edge">
<title>Node9&#45;&gt;Node10</title>
<g id="a_edge9_Node000009_Node000010"><a xlink:title=" ">
<path fill="none" stroke="#63b8ff" d="M191.51,-210.6C186.44,-199.73 180.89,-187.84 176.7,-178.86"/>
<polygon fill="#63b8ff" stroke="#63b8ff" points="188.4,-212.21 195.8,-219.79 194.75,-209.25 188.4,-212.21"/>
</a>
</g>
</g>
<!-- Node12 -->
<g id="Node000012" class="node">
<title>Node12</title>
<g id="a_Node000012"><a xlink:href="../../d0/d49/hash__table__directory__page_8cpp.html" target="_top" xlink:title=" ">
<polygon fill="white" stroke="#666666" points="847.5,-178.5 702.5,-178.5 702.5,-148.5 847.5,-148.5 847.5,-178.5"/>
<text text-anchor="start" x="710.5" y="-166.5" font-family="Helvetica,sans-Serif" font-size="10.00">src/storage/page/hash</text>
<text text-anchor="middle" x="775" y="-155.5" font-family="Helvetica,sans-Serif" font-size="10.00">_table_directory_page.cpp</text>
</a>
</g>
</g>
<!-- Node11&#45;&gt;Node12 -->
<g id="edge11_Node000011_Node000012" class="edge">
<title>Node11&#45;&gt;Node12</title>
<g id="a_edge11_Node000011_Node000012"><a xlink:title=" ">
<path fill="none" stroke="#63b8ff" d="M754.1,-210.6C759.03,-199.73 764.42,-187.84 768.49,-178.86"/>
<polygon fill="#63b8ff" stroke="#63b8ff" points="750.87,-209.24 749.93,-219.79 757.25,-212.13 750.87,-209.24"/>
</a>
</g>
</g>
<!-- Node13&#45;&gt;Node4 -->
<g id="edge13_Node000013_Node000004" class="edge">
<title>Node13&#45;&gt;Node4</title>
<g id="a_edge13_Node000013_Node000004"><a xlink:title=" ">
<path fill="none" stroke="#63b8ff" d="M493.34,-211.11C488.05,-202.09 482.32,-192.33 477.48,-184.07"/>
<polygon fill="#63b8ff" stroke="#63b8ff" points="490.36,-212.94 498.44,-219.79 496.4,-209.4 490.36,-212.94"/>
</a>
</g>
</g>
<!-- Node14 -->
<g id="Node000014" class="node">
<title>Node14</title>
<g id="a_Node000014"><a xlink:href="../../d6/d34/hash__table__header__page_8cpp.html" target="_top" xlink:title=" ">
<polygon fill="white" stroke="#666666" points="684.5,-178.5 549.5,-178.5 549.5,-148.5 684.5,-148.5 684.5,-178.5"/>
<text text-anchor="start" x="557.5" y="-166.5" font-family="Helvetica,sans-Serif" font-size="10.00">src/storage/page/hash</text>
<text text-anchor="middle" x="617" y="-155.5" font-family="Helvetica,sans-Serif" font-size="10.00">_table_header_page.cpp</text>
</a>
</g>
</g>
<!-- Node13&#45;&gt;Node14 -->
<g id="edge14_Node000013_Node000014" class="edge">
<title>Node13&#45;&gt;Node14</title>
<g id="a_edge14_Node000013_Node000014"><a xlink:title=" ">
<path fill="none" stroke="#63b8ff" d="M546.36,-214.01C563.19,-202.22 582.55,-188.65 596.74,-178.7"/>
<polygon fill="#63b8ff" stroke="#63b8ff" points="544.01,-211.38 537.83,-219.99 548.03,-217.12 544.01,-211.38"/>
</a>
</g>
</g>
</g>
</svg>

<g id="navigator" transform="translate(0 0)" fill="#404254">
  <rect fill="#f2f5e9" fill-opacity="0.5" stroke="#606060" stroke-width=".5" x="0" y="0" width="60" height="60"/>
  <use id="zoomplus" xlink:href="#zoomPlus" x="17" y="9" onmousedown="handleZoom(evt,'in')"/>
  <use id="zoomminus" xlink:href="#zoomMin" x="42" y="9" onmousedown="handleZoom(evt,'out')"/>
  <use id="reset" xlink:href="#resetDef" x="30" y="36" onmousedown="handleReset()"/>
   <use id="arrowup" xlink:href="#arrowUp" x="0" y="0" onmousedown="handlePan(0,-1)"/>
  <use id="arrowright" xlink:href="#arrowRight" x="0" y="0" onmousedown="handlePan(1,0)"/>
  <use id="arrowdown" xlink:href="#arrowDown" x="0" y="0" onmousedown="handlePan(0,1)"/>
  <use id="arrowleft" xlink:href="#arrowLeft" x="0" y="0" onmousedown="handlePan(-1,0)"/>
</g>
<svg viewBox="0 0 15 15" width="100%" height="30px" preserveAspectRatio="xMaxYMin meet">
 <g id="arrow_out" transform="scale(0.3 0.3)">
  <a xlink:href="hash__table__page__defs_8h__dep__incl_org.svg" target="_base">
   <rect id="button" ry="5" rx="5" y="6" x="6" height="38" width="38"
        fill="#f2f5e9" fill-opacity="0.5" stroke="#606060" stroke-width="1.0"/>
   <path id="arrow"
     d="M 11.500037,31.436501 C 11.940474,20.09759 22.043105,11.32322 32.158766,21.979434 L 37.068811,17.246167 C 37.068811,17.246167 37.088388,32 37.088388,32 L 22.160133,31.978069 C 22.160133,31.978069 26.997745,27.140456 26.997745,27.140456 C 18.528582,18.264221 13.291696,25.230495 11.500037,31.436501 z"
     style="fill:#404040;"/>
  </a>
 </g>
</svg>

<style type='text/css'>
<![CDATA[
[data-mouse-over-selected='false'] { opacity: 0.7; }
[data-mouse-over-selected='true']  { opacity: 1.0; }
]]>
</style>
<script type="application/ecmascript"><![CDATA[
document.addEventListener('DOMContentLoaded', (event) => {
  highlightEdges();
  highlightAdjacentNodes();
});
]]></script>
</svg>
