<?xml version="1.0" encoding="UTF-8" standalone="no"?>
<!DOCTYPE svg PUBLIC "-//W3C//DTD SVG 1.1//EN"
 "http://www.w3.org/Graphics/SVG/1.1/DTD/svg11.dtd">
<!-- Generated by graphviz version 2.43.0 (0)
 -->
<!-- Title: src/include/binder/tokens.h Pages: 1 -->
<!--zoomable 170 -->

<svg id="main" version="1.1" xmlns="http://www.w3.org/2000/svg" xmlns:xlink="http://www.w3.org/1999/xlink" xml:space="preserve" onload="init(evt)">
<style type="text/css"><![CDATA[
.node, .edge {opacity: 0.7;}
.node.selected, .edge.selected {opacity: 1;}
.edge:hover path { stroke: red; }
.edge:hover polygon { stroke: red; fill: red; }
]]></style>

<defs>
  <circle id="rim" cx="0" cy="0" r="7"/>
  <circle id="rim2" cx="0" cy="0" r="3.5"/>
  <g id="zoomPlus">
    <use xlink:href="#rim" fill="#404040"><set attributeName="fill" to="#808080" begin="zoomplus.mouseover" end="zoomplus.mouseout"/></use>
    <path d="M-4,0h8M0,-4v8" fill="none" stroke="white" stroke-width="1.5" pointer-events="none"/>
  </g>
  <g id="zoomMin">
    <use xlink:href="#rim" fill="#404040"><set attributeName="fill" to="#808080" begin="zoomminus.mouseover" end="zoomminus.mouseout"/></use>
    <path d="M-4,0h8" fill="none" stroke="white" stroke-width="1.5" pointer-events="none"/>
  </g>
  <g id="arrowUp" transform="translate(30 24)">
    <use xlink:href="#rim"/>
    <path pointer-events="none" fill="none" stroke="white" stroke-width="1.5" d="M0,-3.0v7 M-2.5,-0.5L0,-3.0L2.5,-0.5"/>
  </g>
  <g id="arrowRight" transform="rotate(90) translate(36 -43)">
    <use xlink:href="#rim"/>
    <path pointer-events="none" fill="none" stroke="white" stroke-width="1.5" d="M0,-3.0v7 M-2.5,-0.5L0,-3.0L2.5,-0.5"/>
  </g>
  <g id="arrowDown" transform="rotate(180) translate(-30 -48)">
    <use xlink:href="#rim"/>
    <path pointer-events="none" fill="none" stroke="white" stroke-width="1.5" d="M0,-3.0v7 M-2.5,-0.5L0,-3.0L2.5,-0.5"/>
  </g>
  <g id="arrowLeft" transform="rotate(270) translate(-36 17)">
    <use xlink:href="#rim"/>
    <path pointer-events="none" fill="none" stroke="white" stroke-width="1.5" d="M0,-3.0v7 M-2.5,-0.5L0,-3.0L2.5,-0.5"/>
  </g>
  <g id="resetDef">
    <use xlink:href="#rim2" fill="#404040"><set attributeName="fill" to="#808080" begin="reset.mouseover" end="reset.mouseout"/></use>
  </g>
</defs>
<script type="application/ecmascript">
var viewWidth = 3471;
var viewHeight = 170;
var sectionId = 'dynsection-0';
</script>
<script type="application/ecmascript" xlink:href="../../svg.min.js"/>
<svg id="graph" class="graph">
<g id="viewport">
<title>src/include/binder/tokens.h</title>
<!-- Node1 -->
<g id="Node000001" class="node">
<title>Node1</title>
<g id="a_Node000001"><a xlink:title=" ">
<polygon fill="#999999" stroke="#666666" points="2066,-162 1963,-162 1963,-132 2066,-132 2066,-162"/>
<text text-anchor="start" x="1971" y="-150" font-family="Helvetica,sans-Serif" font-size="10.00">src/include/binder</text>
<text text-anchor="middle" x="2014.5" y="-139" font-family="Helvetica,sans-Serif" font-size="10.00">/tokens.h</text>
</a>
</g>
</g>
<!-- Node2 -->
<g id="Node000002" class="node">
<title>Node2</title>
<g id="a_Node000002"><a xlink:href="../../db/d4b/bind__create_8cpp.html" target="_top" xlink:title=" ">
<polygon fill="white" stroke="#666666" points="145,-24.5 0,-24.5 0,-5.5 145,-5.5 145,-24.5"/>
<text text-anchor="middle" x="72.5" y="-12.5" font-family="Helvetica,sans-Serif" font-size="10.00">src/binder/bind_create.cpp</text>
</a>
</g>
</g>
<!-- Node1&#45;&gt;Node2 -->
<g id="edge1_Node000001_Node000002" class="edge">
<title>Node1&#45;&gt;Node2</title>
<g id="a_edge1_Node000001_Node000002"><a xlink:title=" ">
<path fill="none" stroke="#63b8ff" d="M1952.77,-145.58C1699.09,-143.61 736.16,-133.77 434.5,-96 309.32,-80.33 163.63,-41.76 102.21,-24.54"/>
<polygon fill="#63b8ff" stroke="#63b8ff" points="1952.88,-149.08 1962.9,-145.66 1952.93,-142.08 1952.88,-149.08"/>
</a>
</g>
</g>
<!-- Node3 -->
<g id="Node000003" class="node">
<title>Node3</title>
<g id="a_Node000003"><a xlink:href="../../d9/d88/bind__insert_8cpp.html" target="_top" xlink:title=" ">
<polygon fill="white" stroke="#666666" points="602.5,-24.5 460.5,-24.5 460.5,-5.5 602.5,-5.5 602.5,-24.5"/>
<text text-anchor="middle" x="531.5" y="-12.5" font-family="Helvetica,sans-Serif" font-size="10.00">src/binder/bind_insert.cpp</text>
</a>
</g>
</g>
<!-- Node1&#45;&gt;Node3 -->
<g id="edge2_Node000001_Node000003" class="edge">
<title>Node1&#45;&gt;Node3</title>
<g id="a_edge2_Node000001_Node000003"><a xlink:title=" ">
<path fill="none" stroke="#63b8ff" d="M1952.59,-146.18C1788.34,-145.97 1328.13,-141.09 948.5,-96 875.3,-87.31 661.96,-43.37 572.12,-24.56"/>
<polygon fill="#63b8ff" stroke="#63b8ff" points="1952.97,-149.68 1962.98,-146.18 1952.98,-142.68 1952.97,-149.68"/>
</a>
</g>
</g>
<!-- Node4 -->
<g id="Node000004" class="node">
<title>Node4</title>
<g id="a_Node000004"><a xlink:href="../../d7/d35/bind__select_8cpp.html" target="_top" xlink:title=" ">
<polygon fill="white" stroke="#666666" points="306,-24.5 163,-24.5 163,-5.5 306,-5.5 306,-24.5"/>
<text text-anchor="middle" x="234.5" y="-12.5" font-family="Helvetica,sans-Serif" font-size="10.00">src/binder/bind_select.cpp</text>
</a>
</g>
</g>
<!-- Node1&#45;&gt;Node4 -->
<g id="edge3_Node000001_Node000004" class="edge">
<title>Node1&#45;&gt;Node4</title>
<g id="a_edge3_Node000001_Node000004"><a xlink:title=" ">
<path fill="none" stroke="#63b8ff" d="M1952.73,-145.29C1716.21,-142.36 867.96,-129.68 600.5,-96 474.34,-80.11 327.42,-41.84 265.02,-24.63"/>
<polygon fill="#63b8ff" stroke="#63b8ff" points="1952.83,-148.8 1962.87,-145.42 1952.92,-141.8 1952.83,-148.8"/>
</a>
</g>
</g>
<!-- Node5 -->
<g id="Node000005" class="node">
<title>Node5</title>
<g id="a_Node000005"><a xlink:href="../../dc/de9/binder_8cpp.html" target="_top" xlink:title=" ">
<polygon fill="white" stroke="#666666" points="442.5,-24.5 324.5,-24.5 324.5,-5.5 442.5,-5.5 442.5,-24.5"/>
<text text-anchor="middle" x="383.5" y="-12.5" font-family="Helvetica,sans-Serif" font-size="10.00">src/binder/binder.cpp</text>
</a>
</g>
</g>
<!-- Node1&#45;&gt;Node5 -->
<g id="edge4_Node000001_Node000005" class="edge">
<title>Node1&#45;&gt;Node5</title>
<g id="a_edge4_Node000001_Node000005"><a xlink:title=" ">
<path fill="none" stroke="#63b8ff" d="M1952.44,-144.79C1735.31,-140.34 1010.35,-123.72 779.5,-96 643.36,-79.65 484.21,-41.62 416.59,-24.55"/>
<polygon fill="#63b8ff" stroke="#63b8ff" points="1952.63,-148.29 1962.7,-145 1952.77,-141.29 1952.63,-148.29"/>
</a>
</g>
</g>
<!-- Node6 -->
<g id="Node000006" class="node">
<title>Node6</title>
<g id="a_Node000006"><a xlink:href="../../d3/d2f/binder_8h.html" target="_top" xlink:title=" ">
<polygon fill="white" stroke="#666666" points="1060,-96 957,-96 957,-66 1060,-66 1060,-96"/>
<text text-anchor="start" x="965" y="-84" font-family="Helvetica,sans-Serif" font-size="10.00">src/include/binder</text>
<text text-anchor="middle" x="1008.5" y="-73" font-family="Helvetica,sans-Serif" font-size="10.00">/binder.h</text>
</a>
</g>
</g>
<!-- Node1&#45;&gt;Node6 -->
<g id="edge5_Node000001_Node000006" class="edge">
<title>Node1&#45;&gt;Node6</title>
<g id="a_edge5_Node000001_Node000006"><a xlink:title=" ">
<path fill="none" stroke="#63b8ff" d="M1952.87,-142.08C1769.55,-130.42 1229.94,-96.09 1060.21,-85.29"/>
<polygon fill="#63b8ff" stroke="#63b8ff" points="1952.68,-145.57 1962.88,-142.72 1953.12,-138.59 1952.68,-145.57"/>
</a>
</g>
</g>
<!-- Node15 -->
<g id="Node000015" class="node">
<title>Node15</title>
<g id="a_Node000015"><a xlink:href="../../df/d26/update__statement_8h.html" target="_top" xlink:title=" ">
<polygon fill="white" stroke="#666666" points="1923,-96 1752,-96 1752,-66 1923,-66 1923,-96"/>
<text text-anchor="start" x="1760" y="-84" font-family="Helvetica,sans-Serif" font-size="10.00">src/include/binder</text>
<text text-anchor="middle" x="1837.5" y="-73" font-family="Helvetica,sans-Serif" font-size="10.00">/statement/update_statement.h</text>
</a>
</g>
</g>
<!-- Node1&#45;&gt;Node15 -->
<g id="edge18_Node000001_Node000015" class="edge">
<title>Node1&#45;&gt;Node15</title>
<g id="a_edge18_Node000001_Node000015"><a xlink:title=" ">
<path fill="none" stroke="#63b8ff" d="M1965.98,-128.46C1937.74,-118.25 1902.63,-105.55 1876.25,-96.01"/>
<polygon fill="#63b8ff" stroke="#63b8ff" points="1965.06,-131.85 1975.66,-131.95 1967.44,-125.26 1965.06,-131.85"/>
</a>
</g>
</g>
<!-- Node17 -->
<g id="Node000017" class="node">
<title>Node17</title>
<g id="a_Node000017"><a xlink:href="../../d2/dbb/plan__insert_8cpp.html" target="_top" xlink:title=" ">
<polygon fill="white" stroke="#666666" points="2177.5,-24.5 2029.5,-24.5 2029.5,-5.5 2177.5,-5.5 2177.5,-24.5"/>
<text text-anchor="middle" x="2103.5" y="-12.5" font-family="Helvetica,sans-Serif" font-size="10.00">src/planner/plan_insert.cpp</text>
</a>
</g>
</g>
<!-- Node1&#45;&gt;Node17 -->
<g id="edge37_Node000001_Node000017" class="edge">
<title>Node1&#45;&gt;Node17</title>
<g id="a_edge37_Node000001_Node000017"><a xlink:title=" ">
<path fill="none" stroke="#63b8ff" d="M2029.91,-123.49C2049.9,-94.29 2083.82,-44.74 2097.51,-24.75"/>
<polygon fill="#63b8ff" stroke="#63b8ff" points="2026.96,-121.61 2024.19,-131.84 2032.73,-125.57 2026.96,-121.61"/>
</a>
</g>
</g>
<!-- Node18 -->
<g id="Node000018" class="node">
<title>Node18</title>
<g id="a_Node000018"><a xlink:href="../../de/d3d/planner_8cpp.html" target="_top" xlink:title=" ">
<polygon fill="white" stroke="#666666" points="2325.5,-24.5 2195.5,-24.5 2195.5,-5.5 2325.5,-5.5 2325.5,-24.5"/>
<text text-anchor="middle" x="2260.5" y="-12.5" font-family="Helvetica,sans-Serif" font-size="10.00">src/planner/planner.cpp</text>
</a>
</g>
</g>
<!-- Node1&#45;&gt;Node18 -->
<g id="edge40_Node000001_Node000018" class="edge">
<title>Node1&#45;&gt;Node18</title>
<g id="a_edge40_Node000001_Node000018"><a xlink:title=" ">
<path fill="none" stroke="#63b8ff" d="M2050.2,-127.13C2104.33,-98.53 2205.01,-45.32 2244.25,-24.59"/>
<polygon fill="#63b8ff" stroke="#63b8ff" points="2048.5,-124.07 2041.29,-131.84 2051.77,-130.26 2048.5,-124.07"/>
</a>
</g>
</g>
<!-- Node19 -->
<g id="Node000019" class="node">
<title>Node19</title>
<g id="a_Node000019"><a xlink:href="../../d7/d8c/planner_8h.html" target="_top" xlink:title=" ">
<polygon fill="white" stroke="#666666" points="2529,-96 2420,-96 2420,-66 2529,-66 2529,-96"/>
<text text-anchor="start" x="2428" y="-84" font-family="Helvetica,sans-Serif" font-size="10.00">src/include/planner</text>
<text text-anchor="middle" x="2474.5" y="-73" font-family="Helvetica,sans-Serif" font-size="10.00">/planner.h</text>
</a>
</g>
</g>
<!-- Node1&#45;&gt;Node19 -->
<g id="edge24_Node000001_Node000019" class="edge">
<title>Node1&#45;&gt;Node19</title>
<g id="a_edge24_Node000001_Node000019"><a xlink:title=" ">
<path fill="none" stroke="#63b8ff" d="M2076.49,-137.38C2167,-124.78 2333.88,-101.56 2419.97,-89.59"/>
<polygon fill="#63b8ff" stroke="#63b8ff" points="2075.8,-133.94 2066.37,-138.78 2076.76,-140.87 2075.8,-133.94"/>
</a>
</g>
</g>
<!-- Node21 -->
<g id="Node000021" class="node">
<title>Node21</title>
<g id="a_Node000021"><a xlink:href="../../da/de4/plan__aggregation_8cpp.html" target="_top" xlink:title=" ">
<polygon fill="white" stroke="#666666" points="3141,-24.5 2962,-24.5 2962,-5.5 3141,-5.5 3141,-24.5"/>
<text text-anchor="middle" x="3051.5" y="-12.5" font-family="Helvetica,sans-Serif" font-size="10.00">src/planner/plan_aggregation.cpp</text>
</a>
</g>
</g>
<!-- Node1&#45;&gt;Node21 -->
<g id="edge36_Node000001_Node000021" class="edge">
<title>Node1&#45;&gt;Node21</title>
<g id="a_edge36_Node000001_Node000021"><a xlink:title=" ">
<path fill="none" stroke="#63b8ff" d="M2076.35,-141.3C2174.5,-133.57 2371.89,-116.92 2538.5,-96 2709.99,-74.47 2912.39,-40.31 3003.19,-24.52"/>
<polygon fill="#63b8ff" stroke="#63b8ff" points="2076,-137.82 2066.3,-142.09 2076.55,-144.79 2076,-137.82"/>
</a>
</g>
</g>
<!-- Node24 -->
<g id="Node000024" class="node">
<title>Node24</title>
<g id="a_Node000024"><a xlink:href="../../d9/df0/plan__select_8cpp.html" target="_top" xlink:title=" ">
<polygon fill="white" stroke="#666666" points="3308,-24.5 3159,-24.5 3159,-5.5 3308,-5.5 3308,-24.5"/>
<text text-anchor="middle" x="3233.5" y="-12.5" font-family="Helvetica,sans-Serif" font-size="10.00">src/planner/plan_select.cpp</text>
</a>
</g>
</g>
<!-- Node1&#45;&gt;Node24 -->
<g id="edge38_Node000001_Node000024" class="edge">
<title>Node1&#45;&gt;Node24</title>
<g id="a_edge38_Node000001_Node000024"><a xlink:title=" ">
<path fill="none" stroke="#63b8ff" d="M2076.26,-142.34C2190.97,-135.29 2444.57,-118.51 2657.5,-96 2877.34,-72.76 2931.92,-63.06 3150.5,-30 3161.48,-28.34 3173.26,-26.43 3184.39,-24.57"/>
<polygon fill="#63b8ff" stroke="#63b8ff" points="2076.03,-138.85 2066.26,-142.95 2076.46,-145.84 2076.03,-138.85"/>
</a>
</g>
</g>
<!-- Node26 -->
<g id="Node000026" class="node">
<title>Node26</title>
<g id="a_Node000026"><a xlink:href="../../d4/d79/plan__window__function_8cpp.html" target="_top" xlink:title=" ">
<polygon fill="white" stroke="#666666" points="3463,-30 3326,-30 3326,0 3463,0 3463,-30"/>
<text text-anchor="start" x="3334" y="-18" font-family="Helvetica,sans-Serif" font-size="10.00">src/planner/plan_window</text>
<text text-anchor="middle" x="3394.5" y="-7" font-family="Helvetica,sans-Serif" font-size="10.00">_function.cpp</text>
</a>
</g>
</g>
<!-- Node1&#45;&gt;Node26 -->
<g id="edge39_Node000001_Node000026" class="edge">
<title>Node1&#45;&gt;Node26</title>
<g id="a_edge39_Node000001_Node000026"><a xlink:title=" ">
<path fill="none" stroke="#63b8ff" d="M2076.48,-143.32C2208.63,-137.33 2527.84,-121.35 2794.5,-96 3027.74,-73.83 3085.94,-65.64 3317.5,-30 3320.19,-29.59 3322.92,-29.15 3325.68,-28.7"/>
<polygon fill="#63b8ff" stroke="#63b8ff" points="2075.99,-139.84 2066.15,-143.79 2076.3,-146.84 2075.99,-139.84"/>
</a>
</g>
</g>
<!-- Node6&#45;&gt;Node2 -->
<g id="edge6_Node000006_Node000002" class="edge">
<title>Node6&#45;&gt;Node2</title>
<g id="a_edge6_Node000006_Node000002"><a xlink:title=" ">
<path fill="none" stroke="#63b8ff" d="M946.58,-78.77C805.45,-75.45 449.28,-64.1 153.5,-30 141.45,-28.61 128.47,-26.6 116.51,-24.54"/>
<polygon fill="#63b8ff" stroke="#63b8ff" points="946.68,-82.27 956.76,-79.01 946.85,-75.28 946.68,-82.27"/>
</a>
</g>
</g>
<!-- Node6&#45;&gt;Node3 -->
<g id="edge7_Node000006_Node000003" class="edge">
<title>Node6&#45;&gt;Node3</title>
<g id="a_edge7_Node000006_Node000003"><a xlink:title=" ">
<path fill="none" stroke="#63b8ff" d="M946.96,-72.3C839.82,-58.9 628.81,-32.44 612.5,-30 601.49,-28.35 589.67,-26.41 578.56,-24.51"/>
<polygon fill="#63b8ff" stroke="#63b8ff" points="946.64,-75.79 957,-73.56 947.51,-68.85 946.64,-75.79"/>
</a>
</g>
</g>
<!-- Node6&#45;&gt;Node4 -->
<g id="edge8_Node000006_Node000004" class="edge">
<title>Node6&#45;&gt;Node4</title>
<g id="a_edge8_Node000006_Node000004"><a xlink:title=" ">
<path fill="none" stroke="#63b8ff" d="M946.38,-77.59C824.86,-72.4 547.32,-58.33 315.5,-30 303.74,-28.56 291.09,-26.59 279.37,-24.57"/>
<polygon fill="#63b8ff" stroke="#63b8ff" points="946.47,-81.09 956.6,-78.02 946.76,-74.1 946.47,-81.09"/>
</a>
</g>
</g>
<!-- Node6&#45;&gt;Node5 -->
<g id="edge10_Node000006_Node000005" class="edge">
<title>Node6&#45;&gt;Node5</title>
<g id="a_edge10_Node000006_Node000005"><a xlink:title=" ">
<path fill="none" stroke="#63b8ff" d="M946.59,-76.74C843.49,-70.81 630.26,-56.34 451.5,-30 441.6,-28.54 430.98,-26.56 421.13,-24.54"/>
<polygon fill="#63b8ff" stroke="#63b8ff" points="946.64,-80.25 956.82,-77.33 947.03,-73.26 946.64,-80.25"/>
</a>
</g>
</g>
<!-- Node7 -->
<g id="Node000007" class="node">
<title>Node7</title>
<g id="a_Node000007"><a xlink:href="../../db/db0/bind__variable_8cpp.html" target="_top" xlink:title=" ">
<polygon fill="white" stroke="#666666" points="924.5,-24.5 770.5,-24.5 770.5,-5.5 924.5,-5.5 924.5,-24.5"/>
<text text-anchor="middle" x="847.5" y="-12.5" font-family="Helvetica,sans-Serif" font-size="10.00">src/binder/bind_variable.cpp</text>
</a>
</g>
</g>
<!-- Node6&#45;&gt;Node7 -->
<g id="edge9_Node000006_Node000007" class="edge">
<title>Node6&#45;&gt;Node7</title>
<g id="a_edge9_Node000006_Node000007"><a xlink:title=" ">
<path fill="none" stroke="#63b8ff" d="M963.87,-62.26C932.91,-49.95 893.05,-34.11 868.93,-24.52"/>
<polygon fill="#63b8ff" stroke="#63b8ff" points="962.58,-65.51 973.17,-65.95 965.17,-59.01 962.58,-65.51"/>
</a>
</g>
</g>
<!-- Node8 -->
<g id="Node000008" class="node">
<title>Node8</title>
<g id="a_Node000008"><a xlink:href="../../d9/d02/binder_2fmt__impl_8cpp.html" target="_top" xlink:title=" ">
<polygon fill="white" stroke="#666666" points="1074.5,-24.5 942.5,-24.5 942.5,-5.5 1074.5,-5.5 1074.5,-24.5"/>
<text text-anchor="middle" x="1008.5" y="-12.5" font-family="Helvetica,sans-Serif" font-size="10.00">src/binder/fmt_impl.cpp</text>
</a>
</g>
</g>
<!-- Node6&#45;&gt;Node8 -->
<g id="edge11_Node000006_Node000008" class="edge">
<title>Node6&#45;&gt;Node8</title>
<g id="a_edge11_Node000006_Node000008"><a xlink:title=" ">
<path fill="none" stroke="#63b8ff" d="M1008.5,-55.6C1008.5,-44.8 1008.5,-32.78 1008.5,-24.84"/>
<polygon fill="#63b8ff" stroke="#63b8ff" points="1005,-55.8 1008.5,-65.8 1012,-55.8 1005,-55.8"/>
</a>
</g>
</g>
<!-- Node9 -->
<g id="Node000009" class="node">
<title>Node9</title>
<g id="a_Node000009"><a xlink:href="../../d3/d6b/keyword__helper_8cpp.html" target="_top" xlink:title=" ">
<polygon fill="white" stroke="#666666" points="1202,-30 1093,-30 1093,0 1202,0 1202,-30"/>
<text text-anchor="start" x="1101" y="-18" font-family="Helvetica,sans-Serif" font-size="10.00">src/binder/keyword</text>
<text text-anchor="middle" x="1147.5" y="-7" font-family="Helvetica,sans-Serif" font-size="10.00">_helper.cpp</text>
</a>
</g>
</g>
<!-- Node6&#45;&gt;Node9 -->
<g id="edge12_Node000006_Node000009" class="edge">
<title>Node6&#45;&gt;Node9</title>
<g id="a_edge12_Node000006_Node000009"><a xlink:title=" ">
<path fill="none" stroke="#63b8ff" d="M1048.36,-61.65C1070.22,-51.58 1096.89,-39.3 1117.07,-30.01"/>
<polygon fill="#63b8ff" stroke="#63b8ff" points="1046.62,-58.59 1039,-65.95 1049.55,-64.95 1046.62,-58.59"/>
</a>
</g>
</g>
<!-- Node10 -->
<g id="Node000010" class="node">
<title>Node10</title>
<g id="a_Node000010"><a xlink:href="../../d5/db7/node__tag__to__string_8cpp.html" target="_top" xlink:title=" ">
<polygon fill="white" stroke="#666666" points="1333,-30 1220,-30 1220,0 1333,0 1333,-30"/>
<text text-anchor="start" x="1228" y="-18" font-family="Helvetica,sans-Serif" font-size="10.00">src/binder/node_tag</text>
<text text-anchor="middle" x="1276.5" y="-7" font-family="Helvetica,sans-Serif" font-size="10.00">_to_string.cpp</text>
</a>
</g>
</g>
<!-- Node6&#45;&gt;Node10 -->
<g id="edge13_Node000006_Node000010" class="edge">
<title>Node6&#45;&gt;Node10</title>
<g id="a_edge13_Node000006_Node000010"><a xlink:title=" ">
<path fill="none" stroke="#63b8ff" d="M1070.13,-65.28C1115.24,-54.51 1175.99,-40 1219.89,-29.52"/>
<polygon fill="#63b8ff" stroke="#63b8ff" points="1069.09,-61.93 1060.17,-67.66 1070.71,-68.74 1069.09,-61.93"/>
</a>
</g>
</g>
<!-- Node11 -->
<g id="Node000011" class="node">
<title>Node11</title>
<g id="a_Node000011"><a xlink:href="../../d1/d11/explain__statement_8cpp.html" target="_top" xlink:title=" ">
<polygon fill="white" stroke="#666666" points="752,-30 621,-30 621,0 752,0 752,-30"/>
<text text-anchor="start" x="629" y="-18" font-family="Helvetica,sans-Serif" font-size="10.00">src/binder/statement</text>
<text text-anchor="middle" x="686.5" y="-7" font-family="Helvetica,sans-Serif" font-size="10.00">/explain_statement.cpp</text>
</a>
</g>
</g>
<!-- Node6&#45;&gt;Node11 -->
<g id="edge14_Node000006_Node000011" class="edge">
<title>Node6&#45;&gt;Node11</title>
<g id="a_edge14_Node000006_Node000011"><a xlink:title=" ">
<path fill="none" stroke="#63b8ff" d="M946.66,-67.71C890.83,-56.61 808.96,-40.34 752.03,-29.02"/>
<polygon fill="#63b8ff" stroke="#63b8ff" points="946.27,-71.2 956.77,-69.72 947.64,-64.33 946.27,-71.2"/>
</a>
</g>
</g>
<!-- Node12 -->
<g id="Node000012" class="node">
<title>Node12</title>
<g id="a_Node000012"><a xlink:href="../../df/d93/transformer_8cpp.html" target="_top" xlink:title=" ">
<polygon fill="white" stroke="#666666" points="1496,-24.5 1351,-24.5 1351,-5.5 1496,-5.5 1496,-24.5"/>
<text text-anchor="middle" x="1423.5" y="-12.5" font-family="Helvetica,sans-Serif" font-size="10.00">src/binder/transformer.cpp</text>
</a>
</g>
</g>
<!-- Node6&#45;&gt;Node12 -->
<g id="edge15_Node000006_Node000012" class="edge">
<title>Node6&#45;&gt;Node12</title>
<g id="a_edge15_Node000006_Node000012"><a xlink:title=" ">
<path fill="none" stroke="#63b8ff" d="M1070.03,-71.21C1137.09,-61.54 1247.52,-45.31 1342.5,-30 1353.07,-28.3 1364.39,-26.39 1375.13,-24.54"/>
<polygon fill="#63b8ff" stroke="#63b8ff" points="1069.45,-67.76 1060.05,-72.65 1070.45,-74.69 1069.45,-67.76"/>
</a>
</g>
</g>
<!-- Node13 -->
<g id="Node000013" class="node">
<title>Node13</title>
<g id="a_Node000013"><a xlink:href="../../dc/de0/bustub__ddl_8cpp.html" target="_top" xlink:title=" ">
<polygon fill="white" stroke="#666666" points="1667,-24.5 1514,-24.5 1514,-5.5 1667,-5.5 1667,-24.5"/>
<text text-anchor="middle" x="1590.5" y="-12.5" font-family="Helvetica,sans-Serif" font-size="10.00">src/common/bustub_ddl.cpp</text>
</a>
</g>
</g>
<!-- Node6&#45;&gt;Node13 -->
<g id="edge16_Node000006_Node000013" class="edge">
<title>Node6&#45;&gt;Node13</title>
<g id="a_edge16_Node000006_Node000013"><a xlink:title=" ">
<path fill="none" stroke="#63b8ff" d="M1070.34,-75.04C1164.48,-67.2 1349.3,-50.7 1505.5,-30 1517.36,-28.43 1530.11,-26.47 1542.03,-24.52"/>
<polygon fill="#63b8ff" stroke="#63b8ff" points="1069.82,-71.57 1060.14,-75.88 1070.39,-78.55 1069.82,-71.57"/>
</a>
</g>
</g>
<!-- Node14 -->
<g id="Node000014" class="node">
<title>Node14</title>
<g id="a_Node000014"><a xlink:href="../../da/d08/bustub__instance_8cpp.html" target="_top" xlink:title=" ">
<polygon fill="white" stroke="#666666" points="2011,-24.5 1832,-24.5 1832,-5.5 2011,-5.5 2011,-24.5"/>
<text text-anchor="middle" x="1921.5" y="-12.5" font-family="Helvetica,sans-Serif" font-size="10.00">src/common/bustub_instance.cpp</text>
</a>
</g>
</g>
<!-- Node6&#45;&gt;Node14 -->
<g id="edge17_Node000006_Node000014" class="edge">
<title>Node6&#45;&gt;Node14</title>
<g id="a_edge17_Node000006_Node000014"><a xlink:title=" ">
<path fill="none" stroke="#63b8ff" d="M1070.35,-77.91C1206.66,-72.93 1543.11,-58.58 1823.5,-30 1837.78,-28.54 1853.17,-26.55 1867.42,-24.52"/>
<polygon fill="#63b8ff" stroke="#63b8ff" points="1069.98,-74.42 1060.11,-78.28 1070.23,-81.42 1069.98,-74.42"/>
</a>
</g>
</g>
<!-- Node15&#45;&gt;Node3 -->
<g id="edge19_Node000015_Node000003" class="edge">
<title>Node15&#45;&gt;Node3</title>
<g id="a_edge19_Node000015_Node000003"><a xlink:title=" ">
<path fill="none" stroke="#63b8ff" d="M1741.6,-80.33C1534.73,-80.1 1031.39,-74.56 612.5,-30 600.15,-28.69 586.84,-26.65 574.65,-24.53"/>
<polygon fill="#63b8ff" stroke="#63b8ff" points="1741.82,-83.83 1751.82,-80.33 1741.83,-76.83 1741.82,-83.83"/>
</a>
</g>
</g>
<!-- Node15&#45;&gt;Node12 -->
<g id="edge21_Node000015_Node000012" class="edge">
<title>Node15&#45;&gt;Node12</title>
<g id="a_edge21_Node000015_Node000012"><a xlink:title=" ">
<path fill="none" stroke="#63b8ff" d="M1741.76,-66.09C1675.4,-56.32 1585.01,-42.77 1505.5,-30 1494.81,-28.28 1483.34,-26.37 1472.47,-24.52"/>
<polygon fill="#63b8ff" stroke="#63b8ff" points="1741.39,-69.57 1751.79,-67.56 1742.4,-62.65 1741.39,-69.57"/>
</a>
</g>
</g>
<!-- Node16 -->
<g id="Node000016" class="node">
<title>Node16</title>
<g id="a_Node000016"><a xlink:href="../../d6/d68/update__statement_8cpp.html" target="_top" xlink:title=" ">
<polygon fill="white" stroke="#666666" points="1814,-30 1685,-30 1685,0 1814,0 1814,-30"/>
<text text-anchor="start" x="1693" y="-18" font-family="Helvetica,sans-Serif" font-size="10.00">src/binder/statement</text>
<text text-anchor="middle" x="1749.5" y="-7" font-family="Helvetica,sans-Serif" font-size="10.00">/update_statement.cpp</text>
</a>
</g>
</g>
<!-- Node15&#45;&gt;Node16 -->
<g id="edge20_Node000015_Node000016" class="edge">
<title>Node15&#45;&gt;Node16</title>
<g id="a_edge20_Node000015_Node000016"><a xlink:title=" ">
<path fill="none" stroke="#63b8ff" d="M1809.66,-59.75C1796.43,-50.13 1780.93,-38.86 1768.98,-30.16"/>
<polygon fill="#63b8ff" stroke="#63b8ff" points="1807.82,-62.75 1817.97,-65.8 1811.94,-57.08 1807.82,-62.75"/>
</a>
</g>
</g>
<!-- Node15&#45;&gt;Node17 -->
<g id="edge22_Node000015_Node000017" class="edge">
<title>Node15&#45;&gt;Node17</title>
<g id="a_edge22_Node000015_Node000017"><a xlink:title=" ">
<path fill="none" stroke="#63b8ff" d="M1905.67,-63.6C1957.53,-51.12 2026.79,-34.46 2068.1,-24.52"/>
<polygon fill="#63b8ff" stroke="#63b8ff" points="1904.78,-60.21 1895.87,-65.95 1906.42,-67.02 1904.78,-60.21"/>
</a>
</g>
</g>
<!-- Node15&#45;&gt;Node18 -->
<g id="edge23_Node000015_Node000018" class="edge">
<title>Node15&#45;&gt;Node18</title>
<g id="a_edge23_Node000015_Node000018"><a xlink:title=" ">
<path fill="none" stroke="#63b8ff" d="M1933.16,-67.47C2003.39,-57.98 2101.04,-44.2 2186.5,-30 2196.43,-28.35 2207.08,-26.43 2217.12,-24.54"/>
<polygon fill="#63b8ff" stroke="#63b8ff" points="1932.45,-64.03 1923,-68.84 1933.38,-70.97 1932.45,-64.03"/>
</a>
</g>
</g>
<!-- Node19&#45;&gt;Node13 -->
<g id="edge25_Node000019_Node000013" class="edge">
<title>Node19&#45;&gt;Node13</title>
<g id="a_edge25_Node000019_Node000013"><a xlink:title=" ">
<path fill="none" stroke="#63b8ff" d="M2409.41,-78.1C2273.08,-73.64 1947.74,-60.5 1676.5,-30 1663.87,-28.58 1650.27,-26.58 1637.7,-24.54"/>
<polygon fill="#63b8ff" stroke="#63b8ff" points="2409.57,-81.61 2419.67,-78.43 2409.79,-74.61 2409.57,-81.61"/>
</a>
</g>
</g>
<!-- Node19&#45;&gt;Node14 -->
<g id="edge26_Node000019_Node000014" class="edge">
<title>Node19&#45;&gt;Node14</title>
<g id="a_edge26_Node000019_Node000014"><a xlink:title=" ">
<path fill="none" stroke="#63b8ff" d="M2409.82,-73.51C2321.69,-64.52 2158.99,-47.41 2020.5,-30 2007.24,-28.33 1993,-26.4 1979.57,-24.52"/>
<polygon fill="#63b8ff" stroke="#63b8ff" points="2409.62,-77.01 2419.93,-74.54 2410.33,-70.04 2409.62,-77.01"/>
</a>
</g>
</g>
<!-- Node19&#45;&gt;Node17 -->
<g id="edge31_Node000019_Node000017" class="edge">
<title>Node19&#45;&gt;Node17</title>
<g id="a_edge31_Node000019_Node000017"><a xlink:title=" ">
<path fill="none" stroke="#63b8ff" d="M2409.73,-68.83C2336.53,-56.2 2218.97,-35.92 2152.83,-24.51"/>
<polygon fill="#63b8ff" stroke="#63b8ff" points="2409.31,-72.31 2419.76,-70.56 2410.5,-65.41 2409.31,-72.31"/>
</a>
</g>
</g>
<!-- Node19&#45;&gt;Node18 -->
<g id="edge35_Node000019_Node000018" class="edge">
<title>Node19&#45;&gt;Node18</title>
<g id="a_edge35_Node000019_Node000018"><a xlink:title=" ">
<path fill="none" stroke="#63b8ff" d="M2417.82,-63.05C2376.32,-50.64 2321.73,-34.31 2288.98,-24.52"/>
<polygon fill="#63b8ff" stroke="#63b8ff" points="2416.95,-66.44 2427.54,-65.95 2418.96,-59.74 2416.95,-66.44"/>
</a>
</g>
</g>
<!-- Node20 -->
<g id="Node000020" class="node">
<title>Node20</title>
<g id="a_Node000020"><a xlink:href="../../df/dfb/expression__factory_8cpp.html" target="_top" xlink:title=" ">
<polygon fill="white" stroke="#666666" points="2753,-30 2626,-30 2626,0 2753,0 2753,-30"/>
<text text-anchor="start" x="2634" y="-18" font-family="Helvetica,sans-Serif" font-size="10.00">src/planner/expression</text>
<text text-anchor="middle" x="2689.5" y="-7" font-family="Helvetica,sans-Serif" font-size="10.00">_factory.cpp</text>
</a>
</g>
</g>
<!-- Node19&#45;&gt;Node20 -->
<g id="edge27_Node000019_Node000020" class="edge">
<title>Node19&#45;&gt;Node20</title>
<g id="a_edge27_Node000019_Node000020"><a xlink:title=" ">
<path fill="none" stroke="#63b8ff" d="M2531.65,-62.99C2566.24,-52.69 2609.83,-39.72 2642.43,-30.01"/>
<polygon fill="#63b8ff" stroke="#63b8ff" points="2530.27,-59.75 2521.68,-65.95 2532.27,-66.46 2530.27,-59.75"/>
</a>
</g>
</g>
<!-- Node19&#45;&gt;Node21 -->
<g id="edge28_Node000019_Node000021" class="edge">
<title>Node19&#45;&gt;Node21</title>
<g id="a_edge28_Node000019_Node000021"><a xlink:title=" ">
<path fill="none" stroke="#63b8ff" d="M2539.18,-74.03C2631.3,-65.36 2805.53,-48.29 2953.5,-30 2966.8,-28.36 2981.1,-26.41 2994.55,-24.51"/>
<polygon fill="#63b8ff" stroke="#63b8ff" points="2538.8,-70.55 2529.17,-74.97 2539.46,-77.52 2538.8,-70.55"/>
</a>
</g>
</g>
<!-- Node22 -->
<g id="Node000022" class="node">
<title>Node22</title>
<g id="a_Node000022"><a xlink:href="../../d0/d29/plan__expression_8cpp.html" target="_top" xlink:title=" ">
<polygon fill="white" stroke="#666666" points="2944,-24.5 2771,-24.5 2771,-5.5 2944,-5.5 2944,-24.5"/>
<text text-anchor="middle" x="2857.5" y="-12.5" font-family="Helvetica,sans-Serif" font-size="10.00">src/planner/plan_expression.cpp</text>
</a>
</g>
</g>
<!-- Node19&#45;&gt;Node22 -->
<g id="edge29_Node000019_Node000022" class="edge">
<title>Node19&#45;&gt;Node22</title>
<g id="a_edge29_Node000019_Node000022"><a xlink:title=" ">
<path fill="none" stroke="#63b8ff" d="M2539.69,-69.11C2615.07,-56.51 2737.58,-36.04 2806.4,-24.54"/>
<polygon fill="#63b8ff" stroke="#63b8ff" points="2538.66,-65.73 2529.37,-70.83 2539.81,-72.63 2538.66,-65.73"/>
</a>
</g>
</g>
<!-- Node23 -->
<g id="Node000023" class="node">
<title>Node23</title>
<g id="a_Node000023"><a xlink:href="../../d6/da3/plan__func__call_8cpp.html" target="_top" xlink:title=" ">
<polygon fill="white" stroke="#666666" points="2465,-30 2344,-30 2344,0 2465,0 2465,-30"/>
<text text-anchor="start" x="2352" y="-18" font-family="Helvetica,sans-Serif" font-size="10.00">src/planner/plan_func</text>
<text text-anchor="middle" x="2404.5" y="-7" font-family="Helvetica,sans-Serif" font-size="10.00">_call.cpp</text>
</a>
</g>
</g>
<!-- Node19&#45;&gt;Node23 -->
<g id="edge30_Node000019_Node000023" class="edge">
<title>Node19&#45;&gt;Node23</title>
<g id="a_edge30_Node000019_Node000023"><a xlink:title=" ">
<path fill="none" stroke="#63b8ff" d="M2451.45,-58.92C2441.13,-49.49 2429.23,-38.61 2419.99,-30.16"/>
<polygon fill="#63b8ff" stroke="#63b8ff" points="2449.22,-61.63 2458.96,-65.8 2453.95,-56.47 2449.22,-61.63"/>
</a>
</g>
</g>
<!-- Node19&#45;&gt;Node24 -->
<g id="edge32_Node000019_Node000024" class="edge">
<title>Node19&#45;&gt;Node24</title>
<g id="a_edge32_Node000019_Node000024"><a xlink:title=" ">
<path fill="none" stroke="#63b8ff" d="M2539.62,-77.21C2660.39,-71.58 2927.15,-57.04 3150.5,-30 3162.54,-28.54 3175.5,-26.56 3187.51,-24.54"/>
<polygon fill="#63b8ff" stroke="#63b8ff" points="2539.26,-73.72 2529.43,-77.68 2539.58,-80.71 2539.26,-73.72"/>
</a>
</g>
</g>
<!-- Node25 -->
<g id="Node000025" class="node">
<title>Node25</title>
<g id="a_Node000025"><a xlink:href="../../d8/d40/plan__table__ref_8cpp.html" target="_top" xlink:title=" ">
<polygon fill="white" stroke="#666666" points="2608,-30 2483,-30 2483,0 2608,0 2608,-30"/>
<text text-anchor="start" x="2491" y="-18" font-family="Helvetica,sans-Serif" font-size="10.00">src/planner/plan_table</text>
<text text-anchor="middle" x="2545.5" y="-7" font-family="Helvetica,sans-Serif" font-size="10.00">_ref.cpp</text>
</a>
</g>
</g>
<!-- Node19&#45;&gt;Node25 -->
<g id="edge33_Node000019_Node000025" class="edge">
<title>Node19&#45;&gt;Node25</title>
<g id="a_edge33_Node000019_Node000025"><a xlink:title=" ">
<path fill="none" stroke="#63b8ff" d="M2497.88,-58.92C2508.35,-49.49 2520.42,-38.61 2529.79,-30.16"/>
<polygon fill="#63b8ff" stroke="#63b8ff" points="2495.34,-56.5 2490.26,-65.8 2500.03,-61.7 2495.34,-56.5"/>
</a>
</g>
</g>
<!-- Node19&#45;&gt;Node26 -->
<g id="edge34_Node000019_Node000026" class="edge">
<title>Node19&#45;&gt;Node26</title>
<g id="a_edge34_Node000019_Node000026"><a xlink:title=" ">
<path fill="none" stroke="#63b8ff" d="M2539.7,-78.81C2681.61,-75.63 3028.86,-64.67 3317.5,-30 3320.2,-29.68 3322.94,-29.32 3325.72,-28.93"/>
<polygon fill="#63b8ff" stroke="#63b8ff" points="2539.36,-75.32 2529.44,-79.03 2539.52,-82.31 2539.36,-75.32"/>
</a>
</g>
</g>
</g>
</svg>

<g id="navigator" transform="translate(0 0)" fill="#404254">
  <rect fill="#f2f5e9" fill-opacity="0.5" stroke="#606060" stroke-width=".5" x="0" y="0" width="60" height="60"/>
  <use id="zoomplus" xlink:href="#zoomPlus" x="17" y="9" onmousedown="handleZoom(evt,'in')"/>
  <use id="zoomminus" xlink:href="#zoomMin" x="42" y="9" onmousedown="handleZoom(evt,'out')"/>
  <use id="reset" xlink:href="#resetDef" x="30" y="36" onmousedown="handleReset()"/>
   <use id="arrowup" xlink:href="#arrowUp" x="0" y="0" onmousedown="handlePan(0,-1)"/>
  <use id="arrowright" xlink:href="#arrowRight" x="0" y="0" onmousedown="handlePan(1,0)"/>
  <use id="arrowdown" xlink:href="#arrowDown" x="0" y="0" onmousedown="handlePan(0,1)"/>
  <use id="arrowleft" xlink:href="#arrowLeft" x="0" y="0" onmousedown="handlePan(-1,0)"/>
</g>
<svg viewBox="0 0 15 15" width="100%" height="30px" preserveAspectRatio="xMaxYMin meet">
 <g id="arrow_out" transform="scale(0.3 0.3)">
  <a xlink:href="tokens_8h__dep__incl_org.svg" target="_base">
   <rect id="button" ry="5" rx="5" y="6" x="6" height="38" width="38"
        fill="#f2f5e9" fill-opacity="0.5" stroke="#606060" stroke-width="1.0"/>
   <path id="arrow"
     d="M 11.500037,31.436501 C 11.940474,20.09759 22.043105,11.32322 32.158766,21.979434 L 37.068811,17.246167 C 37.068811,17.246167 37.088388,32 37.088388,32 L 22.160133,31.978069 C 22.160133,31.978069 26.997745,27.140456 26.997745,27.140456 C 18.528582,18.264221 13.291696,25.230495 11.500037,31.436501 z"
     style="fill:#404040;"/>
  </a>
 </g>
</svg>

<style type='text/css'>
<![CDATA[
[data-mouse-over-selected='false'] { opacity: 0.7; }
[data-mouse-over-selected='true']  { opacity: 1.0; }
]]>
</style>
<script type="application/ecmascript"><![CDATA[
document.addEventListener('DOMContentLoaded', (event) => {
  highlightEdges();
  highlightAdjacentNodes();
});
]]></script>
</svg>
