<?xml version="1.0" encoding="UTF-8" standalone="no"?>
<!DOCTYPE svg PUBLIC "-//W3C//DTD SVG 1.1//EN"
 "http://www.w3.org/Graphics/SVG/1.1/DTD/svg11.dtd">
<!-- Generated by graphviz version 2.43.0 (0)
 -->
<!-- Title: src/include/recovery/log_record.h Pages: 1 -->
<svg width="1494pt" height="368pt"
 viewBox="0.00 0.00 1493.80 368.00" xmlns="http://www.w3.org/2000/svg" xmlns:xlink="http://www.w3.org/1999/xlink">
<g id="graph0" class="graph" transform="scale(1 1) rotate(0) translate(4 364)">
<title>src/include/recovery/log_record.h</title>
<!-- Node1 -->
<g id="Node000001" class="node">
<title>Node1</title>
<g id="a_Node000001"><a xlink:title=" ">
<polygon fill="#999999" stroke="#666666" points="551.5,-360 436.5,-360 436.5,-330 551.5,-330 551.5,-360"/>
<text text-anchor="start" x="444.5" y="-348" font-family="Helvetica,sans-Serif" font-size="10.00">src/include/recovery</text>
<text text-anchor="middle" x="494" y="-337" font-family="Helvetica,sans-Serif" font-size="10.00">/log_record.h</text>
</a>
</g>
</g>
<!-- Node2 -->
<g id="Node000002" class="node">
<title>Node2</title>
<g id="a_Node000002"><a xlink:title=" ">
<polygon fill="#e0e0e0" stroke="#999999" points="1449,-74 1397,-74 1397,-55 1449,-55 1449,-74"/>
<text text-anchor="middle" x="1423" y="-62" font-family="Helvetica,sans-Serif" font-size="10.00">cassert</text>
</a>
</g>
</g>
<!-- Node1&#45;&gt;Node2 -->
<g id="edge1_Node000001_Node000002" class="edge">
<title>Node1&#45;&gt;Node2</title>
<g id="a_edge1_Node000001_Node000002"><a xlink:title=" ">
<path fill="none" stroke="#63b8ff" d="M551.69,-343.17C756.86,-339.45 1439,-320.35 1439,-230.5 1439,-230.5 1439,-230.5 1439,-173.5 1439,-141.85 1432.19,-105.54 1427.46,-84.11"/>
<polygon fill="#63b8ff" stroke="#63b8ff" points="1430.81,-83.08 1425.16,-74.12 1423.99,-84.65 1430.81,-83.08"/>
</a>
</g>
</g>
<!-- Node3 -->
<g id="Node000003" class="node">
<title>Node3</title>
<g id="a_Node000003"><a xlink:title=" ">
<polygon fill="#e0e0e0" stroke="#999999" points="771,-19 727,-19 727,0 771,0 771,-19"/>
<text text-anchor="middle" x="749" y="-7" font-family="Helvetica,sans-Serif" font-size="10.00">string</text>
</a>
</g>
</g>
<!-- Node1&#45;&gt;Node3 -->
<g id="edge2_Node000001_Node000003" class="edge">
<title>Node1&#45;&gt;Node3</title>
<g id="a_edge2_Node000001_Node000003"><a xlink:title=" ">
<path fill="none" stroke="#63b8ff" d="M484.88,-329.96C472.26,-309.13 451,-268.43 451,-230.5 451,-230.5 451,-230.5 451,-173.5 451,-118.46 445.69,-91.38 487,-55 520.63,-25.38 654.09,-15.09 716.5,-11.85"/>
<polygon fill="#63b8ff" stroke="#63b8ff" points="716.77,-15.34 726.59,-11.35 716.43,-8.35 716.77,-15.34"/>
</a>
</g>
</g>
<!-- Node4 -->
<g id="Node000004" class="node">
<title>Node4</title>
<g id="a_Node000004"><a xlink:href="../../db/d16/config_8h.html" target="_top" xlink:title=" ">
<polygon fill="white" stroke="#666666" points="234.5,-129 133.5,-129 133.5,-110 234.5,-110 234.5,-129"/>
<text text-anchor="middle" x="184" y="-117" font-family="Helvetica,sans-Serif" font-size="10.00">common/config.h</text>
</a>
</g>
</g>
<!-- Node1&#45;&gt;Node4 -->
<g id="edge3_Node000001_Node000004" class="edge">
<title>Node1&#45;&gt;Node4</title>
<g id="a_edge3_Node000001_Node000004"><a xlink:title=" ">
<path fill="none" stroke="#63b8ff" d="M464.24,-329.86C413.68,-304.95 309.26,-249.62 235,-184 219.33,-170.15 204.75,-151.12 195.22,-137.5"/>
<polygon fill="#63b8ff" stroke="#63b8ff" points="198.01,-135.37 189.49,-129.08 192.22,-139.31 198.01,-135.37"/>
</a>
</g>
</g>
<!-- Node8 -->
<g id="Node000008" class="node">
<title>Node8</title>
<g id="a_Node000008"><a xlink:href="../../d2/d20/tuple_8h.html" target="_top" xlink:title=" ">
<polygon fill="white" stroke="#666666" points="597,-294 479,-294 479,-275 597,-275 597,-294"/>
<text text-anchor="middle" x="538" y="-282" font-family="Helvetica,sans-Serif" font-size="10.00">storage/table/tuple.h</text>
</a>
</g>
</g>
<!-- Node1&#45;&gt;Node8 -->
<g id="edge7_Node000001_Node000008" class="edge">
<title>Node1&#45;&gt;Node8</title>
<g id="a_edge7_Node000001_Node000008"><a xlink:title=" ">
<path fill="none" stroke="#63b8ff" d="M504.65,-329.84C510.84,-321.61 518.69,-311.18 525.21,-302.51"/>
<polygon fill="#63b8ff" stroke="#63b8ff" points="528.19,-304.36 531.41,-294.27 522.6,-300.15 528.19,-304.36"/>
</a>
</g>
</g>
<!-- Node5 -->
<g id="Node000005" class="node">
<title>Node5</title>
<g id="a_Node000005"><a xlink:title=" ">
<polygon fill="#e0e0e0" stroke="#999999" points="341,-74 291,-74 291,-55 341,-55 341,-74"/>
<text text-anchor="middle" x="316" y="-62" font-family="Helvetica,sans-Serif" font-size="10.00">atomic</text>
</a>
</g>
</g>
<!-- Node4&#45;&gt;Node5 -->
<g id="edge4_Node000004_Node000005" class="edge">
<title>Node4&#45;&gt;Node5</title>
<g id="a_edge4_Node000004_Node000005"><a xlink:title=" ">
<path fill="none" stroke="#63b8ff" d="M205.21,-109.98C226.73,-101.34 260.28,-87.87 284.83,-78.02"/>
<polygon fill="#63b8ff" stroke="#63b8ff" points="286.43,-81.14 294.41,-74.17 283.82,-74.65 286.43,-81.14"/>
</a>
</g>
</g>
<!-- Node6 -->
<g id="Node000006" class="node">
<title>Node6</title>
<g id="a_Node000006"><a xlink:title=" ">
<polygon fill="#e0e0e0" stroke="#999999" points="235,-74 185,-74 185,-55 235,-55 235,-74"/>
<text text-anchor="middle" x="210" y="-62" font-family="Helvetica,sans-Serif" font-size="10.00">chrono</text>
</a>
</g>
</g>
<!-- Node4&#45;&gt;Node6 -->
<g id="edge5_Node000004_Node000006" class="edge">
<title>Node4&#45;&gt;Node6</title>
<g id="a_edge5_Node000004_Node000006"><a xlink:title=" ">
<path fill="none" stroke="#63b8ff" d="M188.29,-109.75C191.81,-102.57 196.91,-92.18 201.28,-83.27"/>
<polygon fill="#63b8ff" stroke="#63b8ff" points="204.52,-84.61 205.79,-74.09 198.24,-81.53 204.52,-84.61"/>
</a>
</g>
</g>
<!-- Node7 -->
<g id="Node000007" class="node">
<title>Node7</title>
<g id="a_Node000007"><a xlink:title=" ">
<polygon fill="#e0e0e0" stroke="#999999" points="288,-19 238,-19 238,0 288,0 288,-19"/>
<text text-anchor="middle" x="263" y="-7" font-family="Helvetica,sans-Serif" font-size="10.00">cstdint</text>
</a>
</g>
</g>
<!-- Node4&#45;&gt;Node7 -->
<g id="edge6_Node000004_Node000007" class="edge">
<title>Node4&#45;&gt;Node7</title>
<g id="a_edge6_Node000004_Node000007"><a xlink:title=" ">
<path fill="none" stroke="#63b8ff" d="M179.74,-109.97C173.94,-97.07 165.45,-72.25 176,-55 187.38,-36.39 209.28,-25.25 228.26,-18.77"/>
<polygon fill="#63b8ff" stroke="#63b8ff" points="229.33,-22.1 237.85,-15.79 227.26,-15.41 229.33,-22.1"/>
</a>
</g>
</g>
<!-- Node8&#45;&gt;Node3 -->
<g id="edge8_Node000008_Node000003" class="edge">
<title>Node8&#45;&gt;Node3</title>
<g id="a_edge8_Node000008_Node000003"><a xlink:title=" ">
<path fill="none" stroke="#63b8ff" d="M532.49,-274.79C512.33,-241.72 446.65,-122.45 503,-55 529.9,-22.79 656.54,-13.85 716.88,-11.4"/>
<polygon fill="#63b8ff" stroke="#63b8ff" points="717.13,-14.9 727,-11.03 716.87,-7.9 717.13,-14.9"/>
</a>
</g>
</g>
<!-- Node8&#45;&gt;Node4 -->
<g id="edge40_Node000008_Node000004" class="edge">
<title>Node8&#45;&gt;Node4</title>
<g id="a_edge40_Node000008_Node000004"><a xlink:title=" ">
<path fill="none" stroke="#63b8ff" d="M505.01,-274.91C452.68,-260.52 348.35,-228.65 268,-184 243.1,-170.16 217.39,-149.64 201.08,-135.7"/>
<polygon fill="#63b8ff" stroke="#63b8ff" points="203.31,-133 193.46,-129.08 198.71,-138.28 203.31,-133"/>
</a>
</g>
</g>
<!-- Node9 -->
<g id="Node000009" class="node">
<title>Node9</title>
<g id="a_Node000009"><a xlink:title=" ">
<polygon fill="#e0e0e0" stroke="#999999" points="710.5,-184 663.5,-184 663.5,-165 710.5,-165 710.5,-184"/>
<text text-anchor="middle" x="687" y="-172" font-family="Helvetica,sans-Serif" font-size="10.00">vector</text>
</a>
</g>
</g>
<!-- Node8&#45;&gt;Node9 -->
<g id="edge9_Node000008_Node000009" class="edge">
<title>Node8&#45;&gt;Node9</title>
<g id="a_edge9_Node000008_Node000009"><a xlink:title=" ">
<path fill="none" stroke="#63b8ff" d="M549.94,-274.84C575.33,-256.44 634.94,-213.23 666.53,-190.34"/>
<polygon fill="#63b8ff" stroke="#63b8ff" points="668.96,-192.9 675,-184.2 664.85,-187.23 668.96,-192.9"/>
</a>
</g>
</g>
<!-- Node10 -->
<g id="Node000010" class="node">
<title>Node10</title>
<g id="a_Node000010"><a xlink:href="../../d7/de3/schema_8h.html" target="_top" xlink:title=" ">
<polygon fill="white" stroke="#666666" points="952.5,-239 849.5,-239 849.5,-220 952.5,-220 952.5,-239"/>
<text text-anchor="middle" x="901" y="-227" font-family="Helvetica,sans-Serif" font-size="10.00">catalog/schema.h</text>
</a>
</g>
</g>
<!-- Node8&#45;&gt;Node10 -->
<g id="edge10_Node000008_Node000010" class="edge">
<title>Node8&#45;&gt;Node10</title>
<g id="a_edge10_Node000008_Node000010"><a xlink:title=" ">
<path fill="none" stroke="#63b8ff" d="M596.32,-274.98C662.85,-265.27 771.19,-249.45 839.15,-239.53"/>
<polygon fill="#63b8ff" stroke="#63b8ff" points="839.9,-242.96 849.29,-238.05 838.89,-236.03 839.9,-242.96"/>
</a>
</g>
</g>
<!-- Node25 -->
<g id="Node000025" class="node">
<title>Node25</title>
<g id="a_Node000025"><a xlink:href="../../d8/d5f/rid_8h.html" target="_top" xlink:title=" ">
<polygon fill="white" stroke="#666666" points="361,-184 277,-184 277,-165 361,-165 361,-184"/>
<text text-anchor="middle" x="319" y="-172" font-family="Helvetica,sans-Serif" font-size="10.00">common/rid.h</text>
</a>
</g>
</g>
<!-- Node8&#45;&gt;Node25 -->
<g id="edge41_Node000008_Node000025" class="edge">
<title>Node8&#45;&gt;Node25</title>
<g id="a_edge41_Node000008_Node000025"><a xlink:title=" ">
<path fill="none" stroke="#63b8ff" d="M520.45,-274.84C482.15,-255.96 390.9,-210.96 345.54,-188.59"/>
<polygon fill="#63b8ff" stroke="#63b8ff" points="346.85,-185.33 336.33,-184.05 343.75,-191.61 346.85,-185.33"/>
</a>
</g>
</g>
<!-- Node27 -->
<g id="Node000027" class="node">
<title>Node27</title>
<g id="a_Node000027"><a xlink:href="../../d4/d3f/value_8h.html" target="_top" xlink:title=" ">
<polygon fill="white" stroke="#666666" points="667.5,-129 590.5,-129 590.5,-110 667.5,-110 667.5,-129"/>
<text text-anchor="middle" x="629" y="-117" font-family="Helvetica,sans-Serif" font-size="10.00">type/value.h</text>
</a>
</g>
</g>
<!-- Node8&#45;&gt;Node27 -->
<g id="edge46_Node000008_Node000027" class="edge">
<title>Node8&#45;&gt;Node27</title>
<g id="a_edge46_Node000008_Node000027"><a xlink:title=" ">
<path fill="none" stroke="#63b8ff" d="M542.89,-274.74C557.27,-248.98 599.62,-173.13 619.05,-138.33"/>
<polygon fill="#63b8ff" stroke="#63b8ff" points="622.26,-139.74 624.08,-129.31 616.15,-136.33 622.26,-139.74"/>
</a>
</g>
</g>
<!-- Node10&#45;&gt;Node3 -->
<g id="edge13_Node000010_Node000003" class="edge">
<title>Node10&#45;&gt;Node3</title>
<g id="a_edge13_Node000010_Node000003"><a xlink:title=" ">
<path fill="none" stroke="#63b8ff" d="M952.76,-228.78C1116.91,-228.08 1606.54,-213.02 1458,-55 1413.62,-7.79 940.66,-23.16 876,-19 843.78,-16.93 806.96,-14.45 781.29,-12.71"/>
<polygon fill="#63b8ff" stroke="#63b8ff" points="781.24,-9.19 771.02,-12.01 780.76,-16.18 781.24,-9.19"/>
</a>
</g>
</g>
<!-- Node10&#45;&gt;Node9 -->
<g id="edge14_Node000010_Node000009" class="edge">
<title>Node10&#45;&gt;Node9</title>
<g id="a_edge14_Node000010_Node000009"><a xlink:title=" ">
<path fill="none" stroke="#63b8ff" d="M866.62,-219.98C826.4,-210.02 760.28,-193.65 720.46,-183.79"/>
<polygon fill="#63b8ff" stroke="#63b8ff" points="721.25,-180.38 710.7,-181.37 719.56,-187.17 721.25,-180.38"/>
</a>
</g>
</g>
<!-- Node11 -->
<g id="Node000011" class="node">
<title>Node11</title>
<g id="a_Node000011"><a xlink:title=" ">
<polygon fill="#e0e0e0" stroke="#999999" points="836,-74 778,-74 778,-55 836,-55 836,-74"/>
<text text-anchor="middle" x="807" y="-62" font-family="Helvetica,sans-Serif" font-size="10.00">memory</text>
</a>
</g>
</g>
<!-- Node10&#45;&gt;Node11 -->
<g id="edge11_Node000010_Node000011" class="edge">
<title>Node10&#45;&gt;Node11</title>
<g id="a_edge11_Node000010_Node000011"><a xlink:title=" ">
<path fill="none" stroke="#63b8ff" d="M856.24,-219.92C836.05,-213.58 814.08,-202.67 802,-184 782.22,-153.43 792.15,-108.55 800.19,-83.72"/>
<polygon fill="#63b8ff" stroke="#63b8ff" points="803.55,-84.72 803.53,-74.12 796.93,-82.42 803.55,-84.72"/>
</a>
</g>
</g>
<!-- Node12 -->
<g id="Node000012" class="node">
<title>Node12</title>
<g id="a_Node000012"><a xlink:title=" ">
<polygon fill="#e0e0e0" stroke="#999999" points="1062,-184 1006,-184 1006,-165 1062,-165 1062,-184"/>
<text text-anchor="middle" x="1034" y="-172" font-family="Helvetica,sans-Serif" font-size="10.00">optional</text>
</a>
</g>
</g>
<!-- Node10&#45;&gt;Node12 -->
<g id="edge12_Node000010_Node000012" class="edge">
<title>Node10&#45;&gt;Node12</title>
<g id="a_edge12_Node000010_Node000012"><a xlink:title=" ">
<path fill="none" stroke="#63b8ff" d="M922.37,-219.98C944.15,-211.3 978.16,-197.75 1002.92,-187.88"/>
<polygon fill="#63b8ff" stroke="#63b8ff" points="1004.25,-191.12 1012.24,-184.17 1001.66,-184.62 1004.25,-191.12"/>
</a>
</g>
</g>
<!-- Node13 -->
<g id="Node000013" class="node">
<title>Node13</title>
<g id="a_Node000013"><a xlink:href="../../dc/df8/column_8h.html" target="_top" xlink:title=" ">
<polygon fill="white" stroke="#666666" points="911.5,-184 810.5,-184 810.5,-165 911.5,-165 911.5,-184"/>
<text text-anchor="middle" x="861" y="-172" font-family="Helvetica,sans-Serif" font-size="10.00">catalog/column.h</text>
</a>
</g>
</g>
<!-- Node10&#45;&gt;Node13 -->
<g id="edge15_Node000010_Node000013" class="edge">
<title>Node10&#45;&gt;Node13</title>
<g id="a_edge15_Node000010_Node000013"><a xlink:title=" ">
<path fill="none" stroke="#63b8ff" d="M894.39,-219.75C888.74,-212.26 880.46,-201.28 873.55,-192.13"/>
<polygon fill="#63b8ff" stroke="#63b8ff" points="876.3,-189.96 867.48,-184.09 870.71,-194.18 876.3,-189.96"/>
</a>
</g>
</g>
<!-- Node16 -->
<g id="Node000016" class="node">
<title>Node16</title>
<g id="a_Node000016"><a xlink:href="../../dd/d2d/exception_8h.html" target="_top" xlink:title=" ">
<polygon fill="white" stroke="#666666" points="1087.5,-129 968.5,-129 968.5,-110 1087.5,-110 1087.5,-129"/>
<text text-anchor="middle" x="1028" y="-117" font-family="Helvetica,sans-Serif" font-size="10.00">common/exception.h</text>
</a>
</g>
</g>
<!-- Node10&#45;&gt;Node16 -->
<g id="edge38_Node000010_Node000016" class="edge">
<title>Node10&#45;&gt;Node16</title>
<g id="a_edge38_Node000010_Node000016"><a xlink:title=" ">
<path fill="none" stroke="#63b8ff" d="M911.59,-219.67C922.31,-210.71 939.34,-196.44 954,-184 973.2,-167.7 995.08,-148.89 1010.04,-136"/>
<polygon fill="#63b8ff" stroke="#63b8ff" points="1012.69,-138.34 1017.98,-129.16 1008.12,-133.04 1012.69,-138.34"/>
</a>
</g>
</g>
<!-- Node21 -->
<g id="Node000021" class="node">
<title>Node21</title>
<g id="a_Node000021"><a xlink:href="../../df/def/type_8h.html" target="_top" xlink:title=" ">
<polygon fill="white" stroke="#666666" points="964,-74 892,-74 892,-55 964,-55 964,-74"/>
<text text-anchor="middle" x="928" y="-62" font-family="Helvetica,sans-Serif" font-size="10.00">type/type.h</text>
</a>
</g>
</g>
<!-- Node10&#45;&gt;Node21 -->
<g id="edge39_Node000010_Node000021" class="edge">
<title>Node10&#45;&gt;Node21</title>
<g id="a_edge39_Node000010_Node000021"><a xlink:title=" ">
<path fill="none" stroke="#63b8ff" d="M905.97,-219.97C910.76,-211.25 917.77,-197.16 921,-184 929.44,-149.6 929.7,-107.98 928.96,-84.33"/>
<polygon fill="#63b8ff" stroke="#63b8ff" points="932.46,-84.13 928.55,-74.28 925.47,-84.42 932.46,-84.13"/>
</a>
</g>
</g>
<!-- Node13&#45;&gt;Node3 -->
<g id="edge18_Node000013_Node000003" class="edge">
<title>Node13&#45;&gt;Node3</title>
<g id="a_edge18_Node000013_Node000003"><a xlink:title=" ">
<path fill="none" stroke="#63b8ff" d="M862.44,-164.73C865.42,-143.56 870.01,-88.92 845,-55 829.75,-34.32 802.51,-22.96 780.94,-16.9"/>
<polygon fill="#63b8ff" stroke="#63b8ff" points="781.74,-13.49 771.18,-14.41 780,-20.27 781.74,-13.49"/>
</a>
</g>
</g>
<!-- Node13&#45;&gt;Node7 -->
<g id="edge16_Node000013_Node000007" class="edge">
<title>Node13&#45;&gt;Node7</title>
<g id="a_edge16_Node000013_Node000007"><a xlink:title=" ">
<path fill="none" stroke="#63b8ff" d="M810.32,-169.84C749.18,-164.57 643.68,-152.76 556,-129 453.97,-101.35 339.57,-48.21 289.2,-23.6"/>
<polygon fill="#63b8ff" stroke="#63b8ff" points="290.52,-20.35 280,-19.07 287.43,-26.63 290.52,-20.35"/>
</a>
</g>
</g>
<!-- Node13&#45;&gt;Node11 -->
<g id="edge17_Node000013_Node000011" class="edge">
<title>Node13&#45;&gt;Node11</title>
<g id="a_edge17_Node000013_Node000011"><a xlink:title=" ">
<path fill="none" stroke="#63b8ff" d="M856.58,-164.66C847.72,-146.93 827.61,-106.73 815.91,-83.32"/>
<polygon fill="#63b8ff" stroke="#63b8ff" points="818.93,-81.54 811.33,-74.16 812.67,-84.67 818.93,-81.54"/>
</a>
</g>
</g>
<!-- Node14 -->
<g id="Node000014" class="node">
<title>Node14</title>
<g id="a_Node000014"><a xlink:title=" ">
<polygon fill="#e0e0e0" stroke="#999999" points="556.5,-74 511.5,-74 511.5,-55 556.5,-55 556.5,-74"/>
<text text-anchor="middle" x="534" y="-62" font-family="Helvetica,sans-Serif" font-size="10.00">utility</text>
</a>
</g>
</g>
<!-- Node13&#45;&gt;Node14 -->
<g id="edge19_Node000013_Node000014" class="edge">
<title>Node13&#45;&gt;Node14</title>
<g id="a_edge19_Node000013_Node000014"><a xlink:title=" ">
<path fill="none" stroke="#63b8ff" d="M810.38,-169.95C740.71,-164.32 619.58,-151.57 582,-129 564.1,-118.25 550.6,-98.06 542.55,-83.33"/>
<polygon fill="#63b8ff" stroke="#63b8ff" points="545.54,-81.48 537.86,-74.18 539.31,-84.67 545.54,-81.48"/>
</a>
</g>
</g>
<!-- Node15 -->
<g id="Node000015" class="node">
<title>Node15</title>
<g id="a_Node000015"><a xlink:title=" ">
<polygon fill="#e0e0e0" stroke="#999999" points="760.5,-74 681.5,-74 681.5,-55 760.5,-55 760.5,-74"/>
<text text-anchor="middle" x="721" y="-62" font-family="Helvetica,sans-Serif" font-size="10.00">fmt/format.h</text>
</a>
</g>
</g>
<!-- Node13&#45;&gt;Node15 -->
<g id="edge20_Node000013_Node000015" class="edge">
<title>Node13&#45;&gt;Node15</title>
<g id="a_edge20_Node000013_Node000015"><a xlink:title=" ">
<path fill="none" stroke="#63b8ff" d="M849.54,-164.66C825.53,-146.14 769.71,-103.08 740.15,-80.28"/>
<polygon fill="#63b8ff" stroke="#63b8ff" points="742.28,-77.5 732.22,-74.16 738,-83.04 742.28,-77.5"/>
</a>
</g>
</g>
<!-- Node13&#45;&gt;Node16 -->
<g id="edge21_Node000013_Node000016" class="edge">
<title>Node13&#45;&gt;Node16</title>
<g id="a_edge21_Node000013_Node000016"><a xlink:title=" ">
<path fill="none" stroke="#63b8ff" d="M887.83,-164.98C915.87,-156.09 960.05,-142.07 991.3,-132.15"/>
<polygon fill="#63b8ff" stroke="#63b8ff" points="992.49,-135.44 1000.96,-129.08 990.37,-128.77 992.49,-135.44"/>
</a>
</g>
</g>
<!-- Node13&#45;&gt;Node21 -->
<g id="edge37_Node000013_Node000021" class="edge">
<title>Node13&#45;&gt;Node21</title>
<g id="a_edge37_Node000013_Node000021"><a xlink:title=" ">
<path fill="none" stroke="#63b8ff" d="M866.48,-164.66C877.58,-146.77 902.87,-106 917.33,-82.69"/>
<polygon fill="#63b8ff" stroke="#63b8ff" points="920.33,-84.5 922.63,-74.16 914.38,-80.81 920.33,-84.5"/>
</a>
</g>
</g>
<!-- Node23 -->
<g id="Node000023" class="node">
<title>Node23</title>
<g id="a_Node000023"><a xlink:href="../../de/d3c/macros_8h.html" target="_top" xlink:title=" ">
<polygon fill="white" stroke="#666666" points="1358.5,-129 1251.5,-129 1251.5,-110 1358.5,-110 1358.5,-129"/>
<text text-anchor="middle" x="1305" y="-117" font-family="Helvetica,sans-Serif" font-size="10.00">common/macros.h</text>
</a>
</g>
</g>
<!-- Node13&#45;&gt;Node23 -->
<g id="edge33_Node000013_Node000023" class="edge">
<title>Node13&#45;&gt;Node23</title>
<g id="a_edge33_Node000013_Node000023"><a xlink:title=" ">
<path fill="none" stroke="#63b8ff" d="M911.5,-167.47C992.8,-157.77 1152.58,-138.69 1241.49,-128.08"/>
<polygon fill="#63b8ff" stroke="#63b8ff" points="1241.93,-131.55 1251.44,-126.89 1241.1,-124.6 1241.93,-131.55"/>
</a>
</g>
</g>
<!-- Node16&#45;&gt;Node3 -->
<g id="edge28_Node000016_Node000003" class="edge">
<title>Node16&#45;&gt;Node3</title>
<g id="a_edge28_Node000016_Node000003"><a xlink:title=" ">
<path fill="none" stroke="#63b8ff" d="M1032.9,-109.95C1039.85,-96.55 1050.33,-70.55 1037,-55 1020.52,-35.77 853.65,-19.4 781.71,-13.18"/>
<polygon fill="#63b8ff" stroke="#63b8ff" points="781.68,-9.66 771.42,-12.3 781.08,-16.64 781.68,-9.66"/>
</a>
</g>
</g>
<!-- Node16&#45;&gt;Node5 -->
<g id="edge22_Node000016_Node000005" class="edge">
<title>Node16&#45;&gt;Node5</title>
<g id="a_edge22_Node000016_Node000005"><a xlink:title=" ">
<path fill="none" stroke="#63b8ff" d="M968.21,-114.05C825.04,-103.39 465.94,-76.66 351.57,-68.15"/>
<polygon fill="#63b8ff" stroke="#63b8ff" points="351.52,-64.63 341.29,-67.38 351,-71.62 351.52,-64.63"/>
</a>
</g>
</g>
<!-- Node16&#45;&gt;Node11 -->
<g id="edge26_Node000016_Node000011" class="edge">
<title>Node16&#45;&gt;Node11</title>
<g id="a_edge26_Node000016_Node000011"><a xlink:title=" ">
<path fill="none" stroke="#63b8ff" d="M992.49,-109.98C952.36,-100.36 887.25,-84.75 845.81,-74.81"/>
<polygon fill="#63b8ff" stroke="#63b8ff" points="846.61,-71.4 836.07,-72.47 844.98,-78.21 846.61,-71.4"/>
</a>
</g>
</g>
<!-- Node17 -->
<g id="Node000017" class="node">
<title>Node17</title>
<g id="a_Node000017"><a xlink:title=" ">
<polygon fill="#e0e0e0" stroke="#999999" points="1028,-74 982,-74 982,-55 1028,-55 1028,-74"/>
<text text-anchor="middle" x="1005" y="-62" font-family="Helvetica,sans-Serif" font-size="10.00">cstdio</text>
</a>
</g>
</g>
<!-- Node16&#45;&gt;Node17 -->
<g id="edge23_Node000016_Node000017" class="edge">
<title>Node16&#45;&gt;Node17</title>
<g id="a_edge23_Node000016_Node000017"><a xlink:title=" ">
<path fill="none" stroke="#63b8ff" d="M1024.2,-109.75C1021.09,-102.57 1016.58,-92.18 1012.71,-83.27"/>
<polygon fill="#63b8ff" stroke="#63b8ff" points="1015.92,-81.87 1008.73,-74.09 1009.5,-84.66 1015.92,-81.87"/>
</a>
</g>
</g>
<!-- Node18 -->
<g id="Node000018" class="node">
<title>Node18</title>
<g id="a_Node000018"><a xlink:title=" ">
<polygon fill="#e0e0e0" stroke="#999999" points="1133.5,-74 1084.5,-74 1084.5,-55 1133.5,-55 1133.5,-74"/>
<text text-anchor="middle" x="1109" y="-62" font-family="Helvetica,sans-Serif" font-size="10.00">cstdlib</text>
</a>
</g>
</g>
<!-- Node16&#45;&gt;Node18 -->
<g id="edge24_Node000016_Node000018" class="edge">
<title>Node16&#45;&gt;Node18</title>
<g id="a_edge24_Node000016_Node000018"><a xlink:title=" ">
<path fill="none" stroke="#63b8ff" d="M1041.01,-109.98C1053.46,-101.84 1072.46,-89.41 1087.21,-79.76"/>
<polygon fill="#63b8ff" stroke="#63b8ff" points="1089.3,-82.57 1095.75,-74.17 1085.46,-76.72 1089.3,-82.57"/>
</a>
</g>
</g>
<!-- Node19 -->
<g id="Node000019" class="node">
<title>Node19</title>
<g id="a_Node000019"><a xlink:title=" ">
<polygon fill="#e0e0e0" stroke="#999999" points="1212,-74 1152,-74 1152,-55 1212,-55 1212,-74"/>
<text text-anchor="middle" x="1182" y="-62" font-family="Helvetica,sans-Serif" font-size="10.00">iostream</text>
</a>
</g>
</g>
<!-- Node16&#45;&gt;Node19 -->
<g id="edge25_Node000016_Node000019" class="edge">
<title>Node16&#45;&gt;Node19</title>
<g id="a_edge25_Node000016_Node000019"><a xlink:title=" ">
<path fill="none" stroke="#63b8ff" d="M1052.74,-109.98C1078.37,-101.16 1118.63,-87.31 1147.41,-77.41"/>
<polygon fill="#63b8ff" stroke="#63b8ff" points="1148.75,-80.65 1157.06,-74.08 1146.47,-74.03 1148.75,-80.65"/>
</a>
</g>
</g>
<!-- Node20 -->
<g id="Node000020" class="node">
<title>Node20</title>
<g id="a_Node000020"><a xlink:title=" ">
<polygon fill="#e0e0e0" stroke="#999999" points="1295.5,-74 1230.5,-74 1230.5,-55 1295.5,-55 1295.5,-74"/>
<text text-anchor="middle" x="1263" y="-62" font-family="Helvetica,sans-Serif" font-size="10.00">stdexcept</text>
</a>
</g>
</g>
<!-- Node16&#45;&gt;Node20 -->
<g id="edge27_Node000016_Node000020" class="edge">
<title>Node16&#45;&gt;Node20</title>
<g id="a_edge27_Node000016_Node000020"><a xlink:title=" ">
<path fill="none" stroke="#63b8ff" d="M1065.76,-109.98C1108.01,-100.46 1176.3,-85.05 1220.42,-75.1"/>
<polygon fill="#63b8ff" stroke="#63b8ff" points="1221.28,-78.5 1230.26,-72.88 1219.74,-71.67 1221.28,-78.5"/>
</a>
</g>
</g>
<!-- Node16&#45;&gt;Node21 -->
<g id="edge29_Node000016_Node000021" class="edge">
<title>Node16&#45;&gt;Node21</title>
<g id="a_edge29_Node000016_Node000021"><a xlink:title=" ">
<path fill="none" stroke="#63b8ff" d="M1011.93,-109.98C996.14,-101.61 971.78,-88.7 953.37,-78.95"/>
<polygon fill="#63b8ff" stroke="#63b8ff" points="954.83,-75.76 944.36,-74.17 951.56,-81.95 954.83,-75.76"/>
</a>
</g>
</g>
<!-- Node21&#45;&gt;Node3 -->
<g id="edge31_Node000021_Node000003" class="edge">
<title>Node21&#45;&gt;Node3</title>
<g id="a_edge31_Node000021_Node000003"><a xlink:title=" ">
<path fill="none" stroke="#63b8ff" d="M899.24,-54.98C866.91,-45.41 814.55,-29.91 780.96,-19.96"/>
<polygon fill="#63b8ff" stroke="#63b8ff" points="781.77,-16.55 771.19,-17.07 779.78,-23.26 781.77,-16.55"/>
</a>
</g>
</g>
<!-- Node21&#45;&gt;Node7 -->
<g id="edge30_Node000021_Node000007" class="edge">
<title>Node21&#45;&gt;Node7</title>
<g id="a_edge30_Node000021_Node000007"><a xlink:title=" ">
<path fill="none" stroke="#63b8ff" d="M891.66,-59.57C877.15,-58.06 860.29,-56.37 845,-55 637.96,-36.49 389.04,-19.07 298.29,-12.88"/>
<polygon fill="#63b8ff" stroke="#63b8ff" points="298.48,-9.39 288.26,-12.2 298,-16.37 298.48,-9.39"/>
</a>
</g>
</g>
<!-- Node22 -->
<g id="Node000022" class="node">
<title>Node22</title>
<g id="a_Node000022"><a xlink:href="../../dc/df2/type__id_8h.html" target="_top" xlink:title=" ">
<polygon fill="white" stroke="#666666" points="971,-19 885,-19 885,0 971,0 971,-19"/>
<text text-anchor="middle" x="928" y="-7" font-family="Helvetica,sans-Serif" font-size="10.00">type/type_id.h</text>
</a>
</g>
</g>
<!-- Node21&#45;&gt;Node22 -->
<g id="edge32_Node000021_Node000022" class="edge">
<title>Node21&#45;&gt;Node22</title>
<g id="a_edge32_Node000021_Node000022"><a xlink:title=" ">
<path fill="none" stroke="#63b8ff" d="M928,-54.75C928,-47.8 928,-37.85 928,-29.13"/>
<polygon fill="#63b8ff" stroke="#63b8ff" points="931.5,-29.09 928,-19.09 924.5,-29.09 931.5,-29.09"/>
</a>
</g>
</g>
<!-- Node23&#45;&gt;Node2 -->
<g id="edge34_Node000023_Node000002" class="edge">
<title>Node23&#45;&gt;Node2</title>
<g id="a_edge34_Node000023_Node000002"><a xlink:title=" ">
<path fill="none" stroke="#63b8ff" d="M1323.96,-109.98C1343.03,-101.42 1372.66,-88.11 1394.55,-78.28"/>
<polygon fill="#63b8ff" stroke="#63b8ff" points="1396.01,-81.46 1403.7,-74.17 1393.14,-75.07 1396.01,-81.46"/>
</a>
</g>
</g>
<!-- Node23&#45;&gt;Node20 -->
<g id="edge36_Node000023_Node000020" class="edge">
<title>Node23&#45;&gt;Node20</title>
<g id="a_edge36_Node000023_Node000020"><a xlink:title=" ">
<path fill="none" stroke="#63b8ff" d="M1298.06,-109.75C1292.13,-102.26 1283.43,-91.28 1276.18,-82.13"/>
<polygon fill="#63b8ff" stroke="#63b8ff" points="1278.76,-79.75 1269.81,-74.09 1273.27,-84.1 1278.76,-79.75"/>
</a>
</g>
</g>
<!-- Node24 -->
<g id="Node000024" class="node">
<title>Node24</title>
<g id="a_Node000024"><a xlink:title=" ">
<polygon fill="#e0e0e0" stroke="#999999" points="1378.5,-74 1313.5,-74 1313.5,-55 1378.5,-55 1378.5,-74"/>
<text text-anchor="middle" x="1346" y="-62" font-family="Helvetica,sans-Serif" font-size="10.00">exception</text>
</a>
</g>
</g>
<!-- Node23&#45;&gt;Node24 -->
<g id="edge35_Node000023_Node000024" class="edge">
<title>Node23&#45;&gt;Node24</title>
<g id="a_edge35_Node000023_Node000024"><a xlink:title=" ">
<path fill="none" stroke="#63b8ff" d="M1311.77,-109.75C1317.56,-102.26 1326.06,-91.28 1333.14,-82.13"/>
<polygon fill="#63b8ff" stroke="#63b8ff" points="1336.01,-84.14 1339.36,-74.09 1330.47,-79.86 1336.01,-84.14"/>
</a>
</g>
</g>
<!-- Node25&#45;&gt;Node3 -->
<g id="edge44_Node000025_Node000003" class="edge">
<title>Node25&#45;&gt;Node3</title>
<g id="a_edge44_Node000025_Node000003"><a xlink:title=" ">
<path fill="none" stroke="#63b8ff" d="M326.61,-164.81C349.61,-138.63 417.67,-61.88 431,-55 480.48,-29.47 646.34,-16.69 716.85,-12.3"/>
<polygon fill="#63b8ff" stroke="#63b8ff" points="717.16,-15.79 726.93,-11.69 716.73,-8.8 717.16,-15.79"/>
</a>
</g>
</g>
<!-- Node25&#45;&gt;Node4 -->
<g id="edge45_Node000025_Node000004" class="edge">
<title>Node25&#45;&gt;Node4</title>
<g id="a_edge45_Node000025_Node000004"><a xlink:title=" ">
<path fill="none" stroke="#63b8ff" d="M297.31,-164.98C275.2,-156.3 240.68,-142.75 215.55,-132.88"/>
<polygon fill="#63b8ff" stroke="#63b8ff" points="216.67,-129.57 206.08,-129.17 214.11,-136.08 216.67,-129.57"/>
</a>
</g>
</g>
<!-- Node25&#45;&gt;Node7 -->
<g id="edge42_Node000025_Node000007" class="edge">
<title>Node25&#45;&gt;Node7</title>
<g id="a_edge42_Node000025_Node000007"><a xlink:title=" ">
<path fill="none" stroke="#63b8ff" d="M309.44,-164.97C300.8,-156.67 288.48,-143.27 282,-129 267.12,-96.23 263.67,-53.73 263,-29.55"/>
<polygon fill="#63b8ff" stroke="#63b8ff" points="266.5,-29.23 262.86,-19.28 259.5,-29.33 266.5,-29.23"/>
</a>
</g>
</g>
<!-- Node26 -->
<g id="Node000026" class="node">
<title>Node26</title>
<g id="a_Node000026"><a xlink:title=" ">
<polygon fill="#e0e0e0" stroke="#999999" points="347,-129 291,-129 291,-110 347,-110 347,-129"/>
<text text-anchor="middle" x="319" y="-117" font-family="Helvetica,sans-Serif" font-size="10.00">sstream</text>
</a>
</g>
</g>
<!-- Node25&#45;&gt;Node26 -->
<g id="edge43_Node000025_Node000026" class="edge">
<title>Node25&#45;&gt;Node26</title>
<g id="a_edge43_Node000025_Node000026"><a xlink:title=" ">
<path fill="none" stroke="#63b8ff" d="M319,-164.75C319,-157.8 319,-147.85 319,-139.13"/>
<polygon fill="#63b8ff" stroke="#63b8ff" points="322.5,-139.09 319,-129.09 315.5,-139.09 322.5,-139.09"/>
</a>
</g>
</g>
<!-- Node27&#45;&gt;Node3 -->
<g id="edge49_Node000027_Node000003" class="edge">
<title>Node27&#45;&gt;Node3</title>
<g id="a_edge49_Node000027_Node000003"><a xlink:title=" ">
<path fill="none" stroke="#63b8ff" d="M633.42,-109.81C640.41,-96.69 655.09,-71.59 673,-55 686.8,-42.21 704.89,-31.44 719.96,-23.69"/>
<polygon fill="#63b8ff" stroke="#63b8ff" points="721.94,-26.62 729.35,-19.05 718.84,-20.35 721.94,-26.62"/>
</a>
</g>
</g>
<!-- Node27&#45;&gt;Node11 -->
<g id="edge48_Node000027_Node000011" class="edge">
<title>Node27&#45;&gt;Node11</title>
<g id="a_edge48_Node000027_Node000011"><a xlink:title=" ">
<path fill="none" stroke="#63b8ff" d="M657.6,-109.98C687.61,-101.05 734.98,-86.94 768.32,-77.02"/>
<polygon fill="#63b8ff" stroke="#63b8ff" points="769.59,-80.29 778.18,-74.08 767.59,-73.58 769.59,-80.29"/>
</a>
</g>
</g>
<!-- Node27&#45;&gt;Node14 -->
<g id="edge50_Node000027_Node000014" class="edge">
<title>Node27&#45;&gt;Node14</title>
<g id="a_edge50_Node000027_Node000014"><a xlink:title=" ">
<path fill="none" stroke="#63b8ff" d="M613.74,-109.98C598.87,-101.69 576.02,-88.94 558.58,-79.22"/>
<polygon fill="#63b8ff" stroke="#63b8ff" points="559.98,-75.99 549.54,-74.17 556.57,-82.1 559.98,-75.99"/>
</a>
</g>
</g>
<!-- Node27&#45;&gt;Node15 -->
<g id="edge51_Node000027_Node000015" class="edge">
<title>Node27&#45;&gt;Node15</title>
<g id="a_edge51_Node000027_Node000015"><a xlink:title=" ">
<path fill="none" stroke="#63b8ff" d="M643.78,-109.98C658.18,-101.69 680.31,-88.94 697.19,-79.22"/>
<polygon fill="#63b8ff" stroke="#63b8ff" points="699.03,-82.19 705.95,-74.17 695.54,-76.13 699.03,-82.19"/>
</a>
</g>
</g>
<!-- Node27&#45;&gt;Node21 -->
<g id="edge57_Node000027_Node000021" class="edge">
<title>Node27&#45;&gt;Node21</title>
<g id="a_edge57_Node000027_Node000021"><a xlink:title=" ">
<path fill="none" stroke="#63b8ff" d="M667.78,-111.63C722.64,-101.9 822.74,-84.16 881.51,-73.74"/>
<polygon fill="#63b8ff" stroke="#63b8ff" points="882.39,-77.14 891.63,-71.95 881.17,-70.25 882.39,-77.14"/>
</a>
</g>
</g>
<!-- Node28 -->
<g id="Node000028" class="node">
<title>Node28</title>
<g id="a_Node000028"><a xlink:title=" ">
<polygon fill="#e0e0e0" stroke="#999999" points="625,-74 575,-74 575,-55 625,-55 625,-74"/>
<text text-anchor="middle" x="600" y="-62" font-family="Helvetica,sans-Serif" font-size="10.00">cstring</text>
</a>
</g>
</g>
<!-- Node27&#45;&gt;Node28 -->
<g id="edge47_Node000027_Node000028" class="edge">
<title>Node27&#45;&gt;Node28</title>
<g id="a_edge47_Node000027_Node000028"><a xlink:title=" ">
<path fill="none" stroke="#63b8ff" d="M624.21,-109.75C620.24,-102.49 614.47,-91.95 609.57,-82.98"/>
<polygon fill="#63b8ff" stroke="#63b8ff" points="612.57,-81.18 604.7,-74.09 606.43,-84.54 612.57,-81.18"/>
</a>
</g>
</g>
<!-- Node29 -->
<g id="Node000029" class="node">
<title>Node29</title>
<g id="a_Node000029"><a xlink:href="../../d9/d86/limits_8h.html" target="_top" xlink:title=" ">
<polygon fill="white" stroke="#666666" points="129,-74 51,-74 51,-55 129,-55 129,-74"/>
<text text-anchor="middle" x="90" y="-62" font-family="Helvetica,sans-Serif" font-size="10.00">type/limits.h</text>
</a>
</g>
</g>
<!-- Node27&#45;&gt;Node29 -->
<g id="edge52_Node000027_Node000029" class="edge">
<title>Node27&#45;&gt;Node29</title>
<g id="a_edge52_Node000027_Node000029"><a xlink:title=" ">
<path fill="none" stroke="#63b8ff" d="M590.22,-114.7C511.92,-107.02 329.35,-89.11 176,-74 164.22,-72.84 151.53,-71.59 139.62,-70.41"/>
<polygon fill="#63b8ff" stroke="#63b8ff" points="139.68,-66.9 129.39,-69.4 138.99,-73.86 139.68,-66.9"/>
</a>
</g>
</g>
<!-- Node29&#45;&gt;Node7 -->
<g id="edge55_Node000029_Node000007" class="edge">
<title>Node29&#45;&gt;Node7</title>
<g id="a_edge55_Node000029_Node000007"><a xlink:title=" ">
<path fill="none" stroke="#63b8ff" d="M117.8,-54.98C147.7,-45.82 195.34,-31.23 227.83,-21.27"/>
<polygon fill="#63b8ff" stroke="#63b8ff" points="229.27,-24.49 237.81,-18.22 227.22,-17.8 229.27,-24.49"/>
</a>
</g>
</g>
<!-- Node30 -->
<g id="Node000030" class="node">
<title>Node30</title>
<g id="a_Node000030"><a xlink:title=" ">
<polygon fill="#e0e0e0" stroke="#999999" points="174,-19 130,-19 130,0 174,0 174,-19"/>
<text text-anchor="middle" x="152" y="-7" font-family="Helvetica,sans-Serif" font-size="10.00">cfloat</text>
</a>
</g>
</g>
<!-- Node29&#45;&gt;Node30 -->
<g id="edge53_Node000029_Node000030" class="edge">
<title>Node29&#45;&gt;Node30</title>
<g id="a_edge53_Node000029_Node000030"><a xlink:title=" ">
<path fill="none" stroke="#63b8ff" d="M99.96,-54.98C109.13,-47.15 122.94,-35.34 134.03,-25.86"/>
<polygon fill="#63b8ff" stroke="#63b8ff" points="136.53,-28.33 141.86,-19.17 131.98,-23.01 136.53,-28.33"/>
</a>
</g>
</g>
<!-- Node31 -->
<g id="Node000031" class="node">
<title>Node31</title>
<g id="a_Node000031"><a xlink:title=" ">
<polygon fill="#e0e0e0" stroke="#999999" points="50,-19 0,-19 0,0 50,0 50,-19"/>
<text text-anchor="middle" x="25" y="-7" font-family="Helvetica,sans-Serif" font-size="10.00">climits</text>
</a>
</g>
</g>
<!-- Node29&#45;&gt;Node31 -->
<g id="edge54_Node000029_Node000031" class="edge">
<title>Node29&#45;&gt;Node31</title>
<g id="a_edge54_Node000029_Node000031"><a xlink:title=" ">
<path fill="none" stroke="#63b8ff" d="M79.56,-54.98C69.85,-47.07 55.18,-35.11 43.5,-25.58"/>
<polygon fill="#63b8ff" stroke="#63b8ff" points="45.6,-22.78 35.63,-19.17 41.17,-28.2 45.6,-22.78"/>
</a>
</g>
</g>
<!-- Node32 -->
<g id="Node000032" class="node">
<title>Node32</title>
<g id="a_Node000032"><a xlink:title=" ">
<polygon fill="#e0e0e0" stroke="#999999" points="112,-19 68,-19 68,0 112,0 112,-19"/>
<text text-anchor="middle" x="90" y="-7" font-family="Helvetica,sans-Serif" font-size="10.00">limits</text>
</a>
</g>
</g>
<!-- Node29&#45;&gt;Node32 -->
<g id="edge56_Node000029_Node000032" class="edge">
<title>Node29&#45;&gt;Node32</title>
<g id="a_edge56_Node000029_Node000032"><a xlink:title=" ">
<path fill="none" stroke="#63b8ff" d="M90,-54.75C90,-47.8 90,-37.85 90,-29.13"/>
<polygon fill="#63b8ff" stroke="#63b8ff" points="93.5,-29.09 90,-19.09 86.5,-29.09 93.5,-29.09"/>
</a>
</g>
</g>
</g>
</svg>
