<?xml version="1.0" encoding="UTF-8" standalone="no"?>
<!DOCTYPE svg PUBLIC "-//W3C//DTD SVG 1.1//EN"
 "http://www.w3.org/Graphics/SVG/1.1/DTD/svg11.dtd">
<!-- Generated by graphviz version 2.43.0 (0)
 -->
<!-- Title: src/type/timestamp_type.cpp Pages: 1 -->
<!--zoomable 379 -->

<svg id="main" version="1.1" xmlns="http://www.w3.org/2000/svg" xmlns:xlink="http://www.w3.org/1999/xlink" xml:space="preserve" onload="init(evt)">
<style type="text/css"><![CDATA[
.node, .edge {opacity: 0.7;}
.node.selected, .edge.selected {opacity: 1;}
.edge:hover path { stroke: red; }
.edge:hover polygon { stroke: red; fill: red; }
]]></style>

<defs>
  <circle id="rim" cx="0" cy="0" r="7"/>
  <circle id="rim2" cx="0" cy="0" r="3.5"/>
  <g id="zoomPlus">
    <use xlink:href="#rim" fill="#404040"><set attributeName="fill" to="#808080" begin="zoomplus.mouseover" end="zoomplus.mouseout"/></use>
    <path d="M-4,0h8M0,-4v8" fill="none" stroke="white" stroke-width="1.5" pointer-events="none"/>
  </g>
  <g id="zoomMin">
    <use xlink:href="#rim" fill="#404040"><set attributeName="fill" to="#808080" begin="zoomminus.mouseover" end="zoomminus.mouseout"/></use>
    <path d="M-4,0h8" fill="none" stroke="white" stroke-width="1.5" pointer-events="none"/>
  </g>
  <g id="arrowUp" transform="translate(30 24)">
    <use xlink:href="#rim"/>
    <path pointer-events="none" fill="none" stroke="white" stroke-width="1.5" d="M0,-3.0v7 M-2.5,-0.5L0,-3.0L2.5,-0.5"/>
  </g>
  <g id="arrowRight" transform="rotate(90) translate(36 -43)">
    <use xlink:href="#rim"/>
    <path pointer-events="none" fill="none" stroke="white" stroke-width="1.5" d="M0,-3.0v7 M-2.5,-0.5L0,-3.0L2.5,-0.5"/>
  </g>
  <g id="arrowDown" transform="rotate(180) translate(-30 -48)">
    <use xlink:href="#rim"/>
    <path pointer-events="none" fill="none" stroke="white" stroke-width="1.5" d="M0,-3.0v7 M-2.5,-0.5L0,-3.0L2.5,-0.5"/>
  </g>
  <g id="arrowLeft" transform="rotate(270) translate(-36 17)">
    <use xlink:href="#rim"/>
    <path pointer-events="none" fill="none" stroke="white" stroke-width="1.5" d="M0,-3.0v7 M-2.5,-0.5L0,-3.0L2.5,-0.5"/>
  </g>
  <g id="resetDef">
    <use xlink:href="#rim2" fill="#404040"><set attributeName="fill" to="#808080" begin="reset.mouseover" end="reset.mouseout"/></use>
  </g>
</defs>
<script type="application/ecmascript">
var viewWidth = 1184;
var viewHeight = 379;
var sectionId = 'dynsection-0';
</script>
<script type="application/ecmascript" xlink:href="../../svg.min.js"/>
<svg id="graph" class="graph">
<g id="viewport">
<title>src/type/timestamp_type.cpp</title>
<!-- Node1 -->
<g id="Node000001" class="node">
<title>Node1</title>
<g id="a_Node000001"><a xlink:title=" ">
<polygon fill="#999999" stroke="#666666" points="436,-371 324,-371 324,-341 436,-341 436,-371"/>
<text text-anchor="start" x="332" y="-359" font-family="Helvetica,sans-Serif" font-size="10.00">src/type/timestamp</text>
<text text-anchor="middle" x="380" y="-348" font-family="Helvetica,sans-Serif" font-size="10.00">_type.cpp</text>
</a>
</g>
</g>
<!-- Node2 -->
<g id="Node000002" class="node">
<title>Node2</title>
<g id="a_Node000002"><a xlink:href="../../d3/d95/timestamp__type_8h.html" target="_top" xlink:title=" ">
<polygon fill="white" stroke="#666666" points="303.5,-184 172.5,-184 172.5,-165 303.5,-165 303.5,-184"/>
<text text-anchor="middle" x="238" y="-172" font-family="Helvetica,sans-Serif" font-size="10.00">type/timestamp_type.h</text>
</a>
</g>
</g>
<!-- Node1&#45;&gt;Node2 -->
<g id="edge1_Node000001_Node000002" class="edge">
<title>Node1&#45;&gt;Node2</title>
<g id="a_edge1_Node000001_Node000002"><a xlink:title=" ">
<path fill="none" stroke="#63b8ff" d="M362.88,-340.72C340.81,-321.68 302.16,-286.17 276,-250 263.14,-232.22 252.22,-209.47 245.43,-193.81"/>
<polygon fill="#63b8ff" stroke="#63b8ff" points="248.52,-192.12 241.42,-184.26 242.06,-194.83 248.52,-192.12"/>
</a>
</g>
</g>
<!-- Node3 -->
<g id="Node000003" class="node">
<title>Node3</title>
<g id="a_Node000003"><a xlink:title=" ">
<polygon fill="#e0e0e0" stroke="#999999" points="227,-19 183,-19 183,0 227,0 227,-19"/>
<text text-anchor="middle" x="205" y="-7" font-family="Helvetica,sans-Serif" font-size="10.00">string</text>
</a>
</g>
</g>
<!-- Node1&#45;&gt;Node3 -->
<g id="edge20_Node000001_Node000003" class="edge">
<title>Node1&#45;&gt;Node3</title>
<g id="a_edge20_Node000001_Node000003"><a xlink:title=" ">
<path fill="none" stroke="#63b8ff" d="M323.93,-349.24C218.23,-336.82 0,-303.06 0,-236 0,-236 0,-236 0,-118.5 0,-41.43 114.8,-19.23 172.59,-12.93"/>
<polygon fill="#63b8ff" stroke="#63b8ff" points="173.07,-16.4 182.67,-11.93 172.37,-9.44 173.07,-16.4"/>
</a>
</g>
</g>
<!-- Node18 -->
<g id="Node000018" class="node">
<title>Node18</title>
<g id="a_Node000018"><a xlink:href="../../d2/d37/boolean__type_8h.html" target="_top" xlink:title=" ">
<polygon fill="white" stroke="#666666" points="476,-184 360,-184 360,-165 476,-165 476,-184"/>
<text text-anchor="middle" x="418" y="-172" font-family="Helvetica,sans-Serif" font-size="10.00">type/boolean_type.h</text>
</a>
</g>
</g>
<!-- Node1&#45;&gt;Node18 -->
<g id="edge21_Node000001_Node000018" class="edge">
<title>Node1&#45;&gt;Node18</title>
<g id="a_edge21_Node000001_Node000018"><a xlink:title=" ">
<path fill="none" stroke="#63b8ff" d="M382.98,-340.91C389.77,-308.85 406.38,-230.38 414.03,-194.26"/>
<polygon fill="#63b8ff" stroke="#63b8ff" points="417.52,-194.64 416.17,-184.13 410.68,-193.19 417.52,-194.64"/>
</a>
</g>
</g>
<!-- Node24 -->
<g id="Node000024" class="node">
<title>Node24</title>
<g id="a_Node000024"><a xlink:href="../../d1/db2/value__factory_8h.html" target="_top" xlink:title=" ">
<polygon fill="white" stroke="#666666" points="562,-305 446,-305 446,-286 562,-286 562,-305"/>
<text text-anchor="middle" x="504" y="-293" font-family="Helvetica,sans-Serif" font-size="10.00">type/value_factory.h</text>
</a>
</g>
</g>
<!-- Node1&#45;&gt;Node24 -->
<g id="edge34_Node000001_Node000024" class="edge">
<title>Node1&#45;&gt;Node24</title>
<g id="a_edge34_Node000001_Node000024"><a xlink:title=" ">
<path fill="none" stroke="#63b8ff" d="M409.7,-340.99C430.02,-331.4 456.76,-318.79 476.58,-309.44"/>
<polygon fill="#63b8ff" stroke="#63b8ff" points="478.14,-312.57 485.69,-305.14 475.15,-306.24 478.14,-312.57"/>
</a>
</g>
</g>
<!-- Node34 -->
<g id="Node000034" class="node">
<title>Node34</title>
<g id="a_Node000034"><a xlink:href="../../d5/dbc/varlen__type_8h.html" target="_top" xlink:title=" ">
<polygon fill="white" stroke="#666666" points="846,-244.5 738,-244.5 738,-225.5 846,-225.5 846,-244.5"/>
<text text-anchor="middle" x="792" y="-232.5" font-family="Helvetica,sans-Serif" font-size="10.00">type/varlen_type.h</text>
</a>
</g>
</g>
<!-- Node1&#45;&gt;Node34 -->
<g id="edge58_Node000001_Node000034" class="edge">
<title>Node1&#45;&gt;Node34</title>
<g id="a_edge58_Node000001_Node000034"><a xlink:title=" ">
<path fill="none" stroke="#63b8ff" d="M436.18,-341.03C474.33,-331.36 525.86,-317.95 571,-305 636.77,-286.13 712.8,-261.85 756.36,-247.69"/>
<polygon fill="#63b8ff" stroke="#63b8ff" points="757.5,-251 765.92,-244.57 755.33,-244.34 757.5,-251"/>
</a>
</g>
</g>
<!-- Node2&#45;&gt;Node3 -->
<g id="edge2_Node000002_Node000003" class="edge">
<title>Node2&#45;&gt;Node3</title>
<g id="a_edge2_Node000002_Node000003"><a xlink:title=" ">
<path fill="none" stroke="#63b8ff" d="M190.86,-164.95C170.37,-158.64 148.28,-147.75 136,-129 128.94,-118.21 120.52,-86.22 138,-55 145.87,-40.94 160.26,-30.52 173.68,-23.31"/>
<polygon fill="#63b8ff" stroke="#63b8ff" points="175.33,-26.4 182.74,-18.82 172.22,-20.12 175.33,-26.4"/>
</a>
</g>
</g>
<!-- Node4 -->
<g id="Node000004" class="node">
<title>Node4</title>
<g id="a_Node000004"><a xlink:href="../../d0/d9d/abstract__pool_8h.html" target="_top" xlink:title=" ">
<polygon fill="white" stroke="#666666" points="261,-129 145,-129 145,-110 261,-110 261,-129"/>
<text text-anchor="middle" x="203" y="-117" font-family="Helvetica,sans-Serif" font-size="10.00">type/abstract_pool.h</text>
</a>
</g>
</g>
<!-- Node2&#45;&gt;Node4 -->
<g id="edge3_Node000002_Node000004" class="edge">
<title>Node2&#45;&gt;Node4</title>
<g id="a_edge3_Node000002_Node000004"><a xlink:title=" ">
<path fill="none" stroke="#63b8ff" d="M232.22,-164.75C227.38,-157.42 220.32,-146.73 214.36,-137.7"/>
<polygon fill="#63b8ff" stroke="#63b8ff" points="217.1,-135.5 208.67,-129.09 211.26,-139.36 217.1,-135.5"/>
</a>
</g>
</g>
<!-- Node6 -->
<g id="Node000006" class="node">
<title>Node6</title>
<g id="a_Node000006"><a xlink:href="../../d4/d3f/value_8h.html" target="_top" xlink:title=" ">
<polygon fill="white" stroke="#666666" points="748.5,-129 671.5,-129 671.5,-110 748.5,-110 748.5,-129"/>
<text text-anchor="middle" x="710" y="-117" font-family="Helvetica,sans-Serif" font-size="10.00">type/value.h</text>
</a>
</g>
</g>
<!-- Node2&#45;&gt;Node6 -->
<g id="edge5_Node000002_Node000006" class="edge">
<title>Node2&#45;&gt;Node6</title>
<g id="a_edge5_Node000002_Node000006"><a xlink:title=" ">
<path fill="none" stroke="#63b8ff" d="M303.84,-167.44C386.12,-159.64 531.19,-145.16 655,-129 657.06,-128.73 659.16,-128.45 661.28,-128.15"/>
<polygon fill="#63b8ff" stroke="#63b8ff" points="661.87,-131.61 671.27,-126.72 660.87,-124.68 661.87,-131.61"/>
</a>
</g>
</g>
<!-- Node5 -->
<g id="Node000005" class="node">
<title>Node5</title>
<g id="a_Node000005"><a xlink:title=" ">
<polygon fill="#e0e0e0" stroke="#999999" points="229.5,-74 180.5,-74 180.5,-55 229.5,-55 229.5,-74"/>
<text text-anchor="middle" x="205" y="-62" font-family="Helvetica,sans-Serif" font-size="10.00">cstdlib</text>
</a>
</g>
</g>
<!-- Node4&#45;&gt;Node5 -->
<g id="edge4_Node000004_Node000005" class="edge">
<title>Node4&#45;&gt;Node5</title>
<g id="a_edge4_Node000004_Node000005"><a xlink:title=" ">
<path fill="none" stroke="#63b8ff" d="M203.33,-109.75C203.59,-102.8 203.97,-92.85 204.3,-84.13"/>
<polygon fill="#63b8ff" stroke="#63b8ff" points="207.8,-84.21 204.68,-74.09 200.8,-83.95 207.8,-84.21"/>
</a>
</g>
</g>
<!-- Node6&#45;&gt;Node3 -->
<g id="edge8_Node000006_Node000003" class="edge">
<title>Node6&#45;&gt;Node3</title>
<g id="a_edge8_Node000006_Node000003"><a xlink:title=" ">
<path fill="none" stroke="#63b8ff" d="M710.23,-109.89C710.09,-95.93 707.57,-68.55 691,-55 655.93,-26.31 340.08,-14.49 237.22,-11.39"/>
<polygon fill="#63b8ff" stroke="#63b8ff" points="237.22,-7.88 227.12,-11.09 237.01,-14.88 237.22,-7.88"/>
</a>
</g>
</g>
<!-- Node7 -->
<g id="Node000007" class="node">
<title>Node7</title>
<g id="a_Node000007"><a xlink:title=" ">
<polygon fill="#e0e0e0" stroke="#999999" points="788,-74 738,-74 738,-55 788,-55 788,-74"/>
<text text-anchor="middle" x="763" y="-62" font-family="Helvetica,sans-Serif" font-size="10.00">cstring</text>
</a>
</g>
</g>
<!-- Node6&#45;&gt;Node7 -->
<g id="edge6_Node000006_Node000007" class="edge">
<title>Node6&#45;&gt;Node7</title>
<g id="a_edge6_Node000006_Node000007"><a xlink:title=" ">
<path fill="none" stroke="#63b8ff" d="M718.75,-109.75C726.47,-102.03 737.9,-90.6 747.22,-81.28"/>
<polygon fill="#63b8ff" stroke="#63b8ff" points="749.81,-83.64 754.41,-74.09 744.86,-78.69 749.81,-83.64"/>
</a>
</g>
</g>
<!-- Node8 -->
<g id="Node000008" class="node">
<title>Node8</title>
<g id="a_Node000008"><a xlink:title=" ">
<polygon fill="#e0e0e0" stroke="#999999" points="592,-74 534,-74 534,-55 592,-55 592,-74"/>
<text text-anchor="middle" x="563" y="-62" font-family="Helvetica,sans-Serif" font-size="10.00">memory</text>
</a>
</g>
</g>
<!-- Node6&#45;&gt;Node8 -->
<g id="edge7_Node000006_Node000008" class="edge">
<title>Node6&#45;&gt;Node8</title>
<g id="a_edge7_Node000006_Node000008"><a xlink:title=" ">
<path fill="none" stroke="#63b8ff" d="M686.38,-109.98C662.1,-101.23 624.05,-87.51 596.63,-77.62"/>
<polygon fill="#63b8ff" stroke="#63b8ff" points="597.64,-74.27 587.05,-74.17 595.27,-80.85 597.64,-74.27"/>
</a>
</g>
</g>
<!-- Node9 -->
<g id="Node000009" class="node">
<title>Node9</title>
<g id="a_Node000009"><a xlink:title=" ">
<polygon fill="#e0e0e0" stroke="#999999" points="851.5,-74 806.5,-74 806.5,-55 851.5,-55 851.5,-74"/>
<text text-anchor="middle" x="829" y="-62" font-family="Helvetica,sans-Serif" font-size="10.00">utility</text>
</a>
</g>
</g>
<!-- Node6&#45;&gt;Node9 -->
<g id="edge9_Node000006_Node000009" class="edge">
<title>Node6&#45;&gt;Node9</title>
<g id="a_edge9_Node000006_Node000009"><a xlink:title=" ">
<path fill="none" stroke="#63b8ff" d="M729.12,-109.98C748.35,-101.42 778.23,-88.11 800.31,-78.28"/>
<polygon fill="#63b8ff" stroke="#63b8ff" points="801.82,-81.44 809.53,-74.17 798.97,-75.04 801.82,-81.44"/>
</a>
</g>
</g>
<!-- Node10 -->
<g id="Node000010" class="node">
<title>Node10</title>
<g id="a_Node000010"><a xlink:title=" ">
<polygon fill="#e0e0e0" stroke="#999999" points="948.5,-74 869.5,-74 869.5,-55 948.5,-55 948.5,-74"/>
<text text-anchor="middle" x="909" y="-62" font-family="Helvetica,sans-Serif" font-size="10.00">fmt/format.h</text>
</a>
</g>
</g>
<!-- Node6&#45;&gt;Node10 -->
<g id="edge10_Node000006_Node000010" class="edge">
<title>Node6&#45;&gt;Node10</title>
<g id="a_edge10_Node000006_Node000010"><a xlink:title=" ">
<path fill="none" stroke="#63b8ff" d="M741.97,-109.98C775.82,-100.97 829.4,-86.7 866.71,-76.76"/>
<polygon fill="#63b8ff" stroke="#63b8ff" points="868.01,-80.04 876.78,-74.08 866.21,-73.27 868.01,-80.04"/>
</a>
</g>
</g>
<!-- Node11 -->
<g id="Node000011" class="node">
<title>Node11</title>
<g id="a_Node000011"><a xlink:href="../../d9/d86/limits_8h.html" target="_top" xlink:title=" ">
<polygon fill="white" stroke="#666666" points="1083,-74 1005,-74 1005,-55 1083,-55 1083,-74"/>
<text text-anchor="middle" x="1044" y="-62" font-family="Helvetica,sans-Serif" font-size="10.00">type/limits.h</text>
</a>
</g>
</g>
<!-- Node6&#45;&gt;Node11 -->
<g id="edge11_Node000006_Node000011" class="edge">
<title>Node6&#45;&gt;Node11</title>
<g id="a_edge11_Node000006_Node000011"><a xlink:title=" ">
<path fill="none" stroke="#63b8ff" d="M748.64,-112.37C809.52,-102.71 927.71,-83.95 994.65,-73.33"/>
<polygon fill="#63b8ff" stroke="#63b8ff" points="995.61,-76.72 1004.93,-71.7 994.51,-69.81 995.61,-76.72"/>
</a>
</g>
</g>
<!-- Node16 -->
<g id="Node000016" class="node">
<title>Node16</title>
<g id="a_Node000016"><a xlink:href="../../df/def/type_8h.html" target="_top" xlink:title=" ">
<polygon fill="white" stroke="#666666" points="682,-74 610,-74 610,-55 682,-55 682,-74"/>
<text text-anchor="middle" x="646" y="-62" font-family="Helvetica,sans-Serif" font-size="10.00">type/type.h</text>
</a>
</g>
</g>
<!-- Node6&#45;&gt;Node16 -->
<g id="edge16_Node000006_Node000016" class="edge">
<title>Node6&#45;&gt;Node16</title>
<g id="a_edge16_Node000006_Node000016"><a xlink:title=" ">
<path fill="none" stroke="#63b8ff" d="M699.72,-109.98C690.16,-102.07 675.72,-90.11 664.22,-80.58"/>
<polygon fill="#63b8ff" stroke="#63b8ff" points="666.4,-77.85 656.47,-74.17 661.94,-83.24 666.4,-77.85"/>
</a>
</g>
</g>
<!-- Node12 -->
<g id="Node000012" class="node">
<title>Node12</title>
<g id="a_Node000012"><a xlink:title=" ">
<polygon fill="#e0e0e0" stroke="#999999" points="1001,-19 957,-19 957,0 1001,0 1001,-19"/>
<text text-anchor="middle" x="979" y="-7" font-family="Helvetica,sans-Serif" font-size="10.00">cfloat</text>
</a>
</g>
</g>
<!-- Node11&#45;&gt;Node12 -->
<g id="edge12_Node000011_Node000012" class="edge">
<title>Node11&#45;&gt;Node12</title>
<g id="a_edge12_Node000011_Node000012"><a xlink:title=" ">
<path fill="none" stroke="#63b8ff" d="M1033.56,-54.98C1023.85,-47.07 1009.18,-35.11 997.5,-25.58"/>
<polygon fill="#63b8ff" stroke="#63b8ff" points="999.6,-22.78 989.63,-19.17 995.17,-28.2 999.6,-22.78"/>
</a>
</g>
</g>
<!-- Node13 -->
<g id="Node000013" class="node">
<title>Node13</title>
<g id="a_Node000013"><a xlink:title=" ">
<polygon fill="#e0e0e0" stroke="#999999" points="1069,-19 1019,-19 1019,0 1069,0 1069,-19"/>
<text text-anchor="middle" x="1044" y="-7" font-family="Helvetica,sans-Serif" font-size="10.00">climits</text>
</a>
</g>
</g>
<!-- Node11&#45;&gt;Node13 -->
<g id="edge13_Node000011_Node000013" class="edge">
<title>Node11&#45;&gt;Node13</title>
<g id="a_edge13_Node000011_Node000013"><a xlink:title=" ">
<path fill="none" stroke="#63b8ff" d="M1044,-54.75C1044,-47.8 1044,-37.85 1044,-29.13"/>
<polygon fill="#63b8ff" stroke="#63b8ff" points="1047.5,-29.09 1044,-19.09 1040.5,-29.09 1047.5,-29.09"/>
</a>
</g>
</g>
<!-- Node14 -->
<g id="Node000014" class="node">
<title>Node14</title>
<g id="a_Node000014"><a xlink:title=" ">
<polygon fill="#e0e0e0" stroke="#999999" points="848,-19 798,-19 798,0 848,0 848,-19"/>
<text text-anchor="middle" x="823" y="-7" font-family="Helvetica,sans-Serif" font-size="10.00">cstdint</text>
</a>
</g>
</g>
<!-- Node11&#45;&gt;Node14 -->
<g id="edge14_Node000011_Node000014" class="edge">
<title>Node11&#45;&gt;Node14</title>
<g id="a_edge14_Node000011_Node000014"><a xlink:title=" ">
<path fill="none" stroke="#63b8ff" d="M1008.49,-54.98C967.1,-45.06 899.12,-28.76 857.96,-18.88"/>
<polygon fill="#63b8ff" stroke="#63b8ff" points="858.65,-15.45 848.11,-16.52 857.02,-22.26 858.65,-15.45"/>
</a>
</g>
</g>
<!-- Node15 -->
<g id="Node000015" class="node">
<title>Node15</title>
<g id="a_Node000015"><a xlink:title=" ">
<polygon fill="#e0e0e0" stroke="#999999" points="1131,-19 1087,-19 1087,0 1131,0 1131,-19"/>
<text text-anchor="middle" x="1109" y="-7" font-family="Helvetica,sans-Serif" font-size="10.00">limits</text>
</a>
</g>
</g>
<!-- Node11&#45;&gt;Node15 -->
<g id="edge15_Node000011_Node000015" class="edge">
<title>Node11&#45;&gt;Node15</title>
<g id="a_edge15_Node000011_Node000015"><a xlink:title=" ">
<path fill="none" stroke="#63b8ff" d="M1054.44,-54.98C1064.15,-47.07 1078.82,-35.11 1090.5,-25.58"/>
<polygon fill="#63b8ff" stroke="#63b8ff" points="1092.83,-28.2 1098.37,-19.17 1088.4,-22.78 1092.83,-28.2"/>
</a>
</g>
</g>
<!-- Node16&#45;&gt;Node3 -->
<g id="edge18_Node000016_Node000003" class="edge">
<title>Node16&#45;&gt;Node3</title>
<g id="a_edge18_Node000016_Node000003"><a xlink:title=" ">
<path fill="none" stroke="#63b8ff" d="M609.69,-56.4C606.75,-55.9 603.83,-55.43 601,-55 466.58,-34.78 305.22,-19.38 237.46,-13.32"/>
<polygon fill="#63b8ff" stroke="#63b8ff" points="237.68,-9.82 227.41,-12.43 237.06,-16.8 237.68,-9.82"/>
</a>
</g>
</g>
<!-- Node16&#45;&gt;Node14 -->
<g id="edge17_Node000016_Node000014" class="edge">
<title>Node16&#45;&gt;Node14</title>
<g id="a_edge17_Node000016_Node000014"><a xlink:title=" ">
<path fill="none" stroke="#63b8ff" d="M674.44,-54.98C705.35,-45.73 754.76,-30.93 788.02,-20.97"/>
<polygon fill="#63b8ff" stroke="#63b8ff" points="789.21,-24.27 797.79,-18.05 787.2,-17.57 789.21,-24.27"/>
</a>
</g>
</g>
<!-- Node17 -->
<g id="Node000017" class="node">
<title>Node17</title>
<g id="a_Node000017"><a xlink:href="../../dc/df2/type__id_8h.html" target="_top" xlink:title=" ">
<polygon fill="white" stroke="#666666" points="689,-19 603,-19 603,0 689,0 689,-19"/>
<text text-anchor="middle" x="646" y="-7" font-family="Helvetica,sans-Serif" font-size="10.00">type/type_id.h</text>
</a>
</g>
</g>
<!-- Node16&#45;&gt;Node17 -->
<g id="edge19_Node000016_Node000017" class="edge">
<title>Node16&#45;&gt;Node17</title>
<g id="a_edge19_Node000016_Node000017"><a xlink:title=" ">
<path fill="none" stroke="#63b8ff" d="M646,-54.75C646,-47.8 646,-37.85 646,-29.13"/>
<polygon fill="#63b8ff" stroke="#63b8ff" points="649.5,-29.09 646,-19.09 642.5,-29.09 649.5,-29.09"/>
</a>
</g>
</g>
<!-- Node18&#45;&gt;Node3 -->
<g id="edge22_Node000018_Node000003" class="edge">
<title>Node18&#45;&gt;Node3</title>
<g id="a_edge22_Node000018_Node000003"><a xlink:title=" ">
<path fill="none" stroke="#63b8ff" d="M398.99,-164.93C370.95,-152.39 316.79,-128.53 270,-110 226.47,-92.76 197.86,-112.35 171,-74 160.21,-58.59 173.85,-39.36 186.93,-26.12"/>
<polygon fill="#63b8ff" stroke="#63b8ff" points="189.5,-28.5 194.38,-19.09 184.7,-23.41 189.5,-28.5"/>
</a>
</g>
</g>
<!-- Node18&#45;&gt;Node6 -->
<g id="edge33_Node000018_Node000006" class="edge">
<title>Node18&#45;&gt;Node6</title>
<g id="a_edge33_Node000018_Node000006"><a xlink:title=" ">
<path fill="none" stroke="#63b8ff" d="M464.91,-164.98C518.68,-155.23 606.39,-139.31 661.01,-129.39"/>
<polygon fill="#63b8ff" stroke="#63b8ff" points="661.93,-132.78 671.14,-127.55 660.68,-125.9 661.93,-132.78"/>
</a>
</g>
</g>
<!-- Node18&#45;&gt;Node16 -->
<g id="edge32_Node000018_Node000016" class="edge">
<title>Node18&#45;&gt;Node16</title>
<g id="a_edge32_Node000018_Node000016"><a xlink:title=" ">
<path fill="none" stroke="#63b8ff" d="M436.27,-164.84C476.23,-145.92 571.55,-100.77 618.67,-78.45"/>
<polygon fill="#63b8ff" stroke="#63b8ff" points="620.42,-81.49 627.96,-74.05 617.42,-75.16 620.42,-81.49"/>
</a>
</g>
</g>
<!-- Node19 -->
<g id="Node000019" class="node">
<title>Node19</title>
<g id="a_Node000019"><a xlink:href="../../dd/d2d/exception_8h.html" target="_top" xlink:title=" ">
<polygon fill="white" stroke="#666666" points="477.5,-129 358.5,-129 358.5,-110 477.5,-110 477.5,-129"/>
<text text-anchor="middle" x="418" y="-117" font-family="Helvetica,sans-Serif" font-size="10.00">common/exception.h</text>
</a>
</g>
</g>
<!-- Node18&#45;&gt;Node19 -->
<g id="edge23_Node000018_Node000019" class="edge">
<title>Node18&#45;&gt;Node19</title>
<g id="a_edge23_Node000018_Node000019"><a xlink:title=" ">
<path fill="none" stroke="#63b8ff" d="M418,-164.75C418,-157.8 418,-147.85 418,-139.13"/>
<polygon fill="#63b8ff" stroke="#63b8ff" points="421.5,-139.09 418,-129.09 414.5,-139.09 421.5,-139.09"/>
</a>
</g>
</g>
<!-- Node19&#45;&gt;Node3 -->
<g id="edge30_Node000019_Node000003" class="edge">
<title>Node19&#45;&gt;Node3</title>
<g id="a_edge30_Node000019_Node000003"><a xlink:title=" ">
<path fill="none" stroke="#63b8ff" d="M375.4,-109.96C346.41,-102.99 307.84,-91.42 277,-74 254.68,-61.39 233.19,-41.01 219.59,-26.75"/>
<polygon fill="#63b8ff" stroke="#63b8ff" points="221.92,-24.11 212.55,-19.16 216.79,-28.87 221.92,-24.11"/>
</a>
</g>
</g>
<!-- Node19&#45;&gt;Node5 -->
<g id="edge26_Node000019_Node000005" class="edge">
<title>Node19&#45;&gt;Node5</title>
<g id="a_edge26_Node000019_Node000005"><a xlink:title=" ">
<path fill="none" stroke="#63b8ff" d="M383.78,-109.98C344.08,-100.11 279,-83.91 239.27,-74.03"/>
<polygon fill="#63b8ff" stroke="#63b8ff" points="240.06,-70.62 229.51,-71.6 238.37,-77.41 240.06,-70.62"/>
</a>
</g>
</g>
<!-- Node19&#45;&gt;Node8 -->
<g id="edge28_Node000019_Node000008" class="edge">
<title>Node19&#45;&gt;Node8</title>
<g id="a_edge28_Node000019_Node000008"><a xlink:title=" ">
<path fill="none" stroke="#63b8ff" d="M441.3,-109.98C465.25,-101.23 502.78,-87.51 529.83,-77.62"/>
<polygon fill="#63b8ff" stroke="#63b8ff" points="531.09,-80.89 539.28,-74.17 528.69,-74.32 531.09,-80.89"/>
</a>
</g>
</g>
<!-- Node19&#45;&gt;Node16 -->
<g id="edge31_Node000019_Node000016" class="edge">
<title>Node19&#45;&gt;Node16</title>
<g id="a_edge31_Node000019_Node000016"><a xlink:title=" ">
<path fill="none" stroke="#63b8ff" d="M454.63,-109.98C494.14,-100.8 557.11,-86.16 599.95,-76.21"/>
<polygon fill="#63b8ff" stroke="#63b8ff" points="600.89,-79.58 609.84,-73.91 599.3,-72.76 600.89,-79.58"/>
</a>
</g>
</g>
<!-- Node20 -->
<g id="Node000020" class="node">
<title>Node20</title>
<g id="a_Node000020"><a xlink:title=" ">
<polygon fill="#e0e0e0" stroke="#999999" points="414,-74 364,-74 364,-55 414,-55 414,-74"/>
<text text-anchor="middle" x="389" y="-62" font-family="Helvetica,sans-Serif" font-size="10.00">atomic</text>
</a>
</g>
</g>
<!-- Node19&#45;&gt;Node20 -->
<g id="edge24_Node000019_Node000020" class="edge">
<title>Node19&#45;&gt;Node20</title>
<g id="a_edge24_Node000019_Node000020"><a xlink:title=" ">
<path fill="none" stroke="#63b8ff" d="M413.21,-109.75C409.24,-102.49 403.47,-91.95 398.57,-82.98"/>
<polygon fill="#63b8ff" stroke="#63b8ff" points="401.57,-81.18 393.7,-74.09 395.43,-84.54 401.57,-81.18"/>
</a>
</g>
</g>
<!-- Node21 -->
<g id="Node000021" class="node">
<title>Node21</title>
<g id="a_Node000021"><a xlink:title=" ">
<polygon fill="#e0e0e0" stroke="#999999" points="478,-74 432,-74 432,-55 478,-55 478,-74"/>
<text text-anchor="middle" x="455" y="-62" font-family="Helvetica,sans-Serif" font-size="10.00">cstdio</text>
</a>
</g>
</g>
<!-- Node19&#45;&gt;Node21 -->
<g id="edge25_Node000019_Node000021" class="edge">
<title>Node19&#45;&gt;Node21</title>
<g id="a_edge25_Node000019_Node000021"><a xlink:title=" ">
<path fill="none" stroke="#63b8ff" d="M424.11,-109.75C429.28,-102.34 436.85,-91.5 443.19,-82.41"/>
<polygon fill="#63b8ff" stroke="#63b8ff" points="446.15,-84.29 449,-74.09 440.41,-80.29 446.15,-84.29"/>
</a>
</g>
</g>
<!-- Node22 -->
<g id="Node000022" class="node">
<title>Node22</title>
<g id="a_Node000022"><a xlink:title=" ">
<polygon fill="#e0e0e0" stroke="#999999" points="346,-74 286,-74 286,-55 346,-55 346,-74"/>
<text text-anchor="middle" x="316" y="-62" font-family="Helvetica,sans-Serif" font-size="10.00">iostream</text>
</a>
</g>
</g>
<!-- Node19&#45;&gt;Node22 -->
<g id="edge27_Node000019_Node000022" class="edge">
<title>Node19&#45;&gt;Node22</title>
<g id="a_edge27_Node000019_Node000022"><a xlink:title=" ">
<path fill="none" stroke="#63b8ff" d="M401.61,-109.98C385.43,-101.57 360.43,-88.59 341.62,-78.81"/>
<polygon fill="#63b8ff" stroke="#63b8ff" points="343.17,-75.68 332.69,-74.17 339.95,-81.89 343.17,-75.68"/>
</a>
</g>
</g>
<!-- Node23 -->
<g id="Node000023" class="node">
<title>Node23</title>
<g id="a_Node000023"><a xlink:title=" ">
<polygon fill="#e0e0e0" stroke="#999999" points="1175.5,-74 1110.5,-74 1110.5,-55 1175.5,-55 1175.5,-74"/>
<text text-anchor="middle" x="1143" y="-62" font-family="Helvetica,sans-Serif" font-size="10.00">stdexcept</text>
</a>
</g>
</g>
<!-- Node19&#45;&gt;Node23 -->
<g id="edge29_Node000019_Node000023" class="edge">
<title>Node19&#45;&gt;Node23</title>
<g id="a_edge29_Node000019_Node000023"><a xlink:title=" ">
<path fill="none" stroke="#63b8ff" d="M477.5,-115.33C619.23,-107.66 973.77,-87.72 1092,-74 1094.71,-73.69 1097.49,-73.33 1100.29,-72.94"/>
<polygon fill="#63b8ff" stroke="#63b8ff" points="1101.05,-76.36 1110.42,-71.42 1100.01,-69.44 1101.05,-76.36"/>
</a>
</g>
</g>
<!-- Node24&#45;&gt;Node2 -->
<g id="edge53_Node000024_Node000002" class="edge">
<title>Node24&#45;&gt;Node2</title>
<g id="a_edge53_Node000024_Node000002"><a xlink:title=" ">
<path fill="none" stroke="#63b8ff" d="M445.94,-288.4C407.8,-282.57 357.79,-271.34 318,-250 290.8,-235.41 265.87,-209.29 251.3,-192.17"/>
<polygon fill="#63b8ff" stroke="#63b8ff" points="253.74,-189.63 244.68,-184.16 248.35,-194.09 253.74,-189.63"/>
</a>
</g>
</g>
<!-- Node24&#45;&gt;Node3 -->
<g id="edge37_Node000024_Node000003" class="edge">
<title>Node24&#45;&gt;Node3</title>
<g id="a_edge37_Node000024_Node000003"><a xlink:title=" ">
<path fill="none" stroke="#63b8ff" d="M445.84,-291.98C333.59,-286.62 95.48,-272.71 66,-250 37.98,-228.42 38,-210.87 38,-175.5 38,-175.5 38,-175.5 38,-118.5 38,-54.97 124.27,-26.97 172.8,-16.25"/>
<polygon fill="#63b8ff" stroke="#63b8ff" points="173.75,-19.63 182.82,-14.16 172.32,-12.77 173.75,-19.63"/>
</a>
</g>
</g>
<!-- Node24&#45;&gt;Node4 -->
<g id="edge45_Node000024_Node000004" class="edge">
<title>Node24&#45;&gt;Node4</title>
<g id="a_edge45_Node000024_Node000004"><a xlink:title=" ">
<path fill="none" stroke="#63b8ff" d="M486.01,-285.97C468.85,-277.57 442.51,-264.01 421,-250 369.52,-216.48 365.16,-195.79 312,-165 288.84,-151.59 260.85,-140.25 239.04,-132.38"/>
<polygon fill="#63b8ff" stroke="#63b8ff" points="240.08,-129.04 229.49,-129.01 237.76,-135.64 240.08,-129.04"/>
</a>
</g>
</g>
<!-- Node24&#45;&gt;Node6 -->
<g id="edge54_Node000024_Node000006" class="edge">
<title>Node24&#45;&gt;Node6</title>
<g id="a_edge54_Node000024_Node000006"><a xlink:title=" ">
<path fill="none" stroke="#63b8ff" d="M557.1,-285.99C599.3,-278.22 653.83,-265.57 670,-250 700.84,-220.3 708.05,-167.41 709.64,-139.29"/>
<polygon fill="#63b8ff" stroke="#63b8ff" points="713.14,-139.33 710.02,-129.2 706.14,-139.06 713.14,-139.33"/>
</a>
</g>
</g>
<!-- Node24&#45;&gt;Node18 -->
<g id="edge46_Node000024_Node000018" class="edge">
<title>Node24&#45;&gt;Node18</title>
<g id="a_edge46_Node000024_Node000018"><a xlink:title=" ">
<path fill="none" stroke="#63b8ff" d="M483.74,-285.97C468.66,-278.6 448.72,-266.51 437,-250 425.31,-233.53 420.8,-210.51 419.07,-194.43"/>
<polygon fill="#63b8ff" stroke="#63b8ff" points="422.53,-193.83 418.24,-184.14 415.56,-194.4 422.53,-193.83"/>
</a>
</g>
</g>
<!-- Node24&#45;&gt;Node23 -->
<g id="edge36_Node000024_Node000023" class="edge">
<title>Node24&#45;&gt;Node23</title>
<g id="a_edge36_Node000024_Node000023"><a xlink:title=" ">
<path fill="none" stroke="#63b8ff" d="M562.12,-293.63C705.68,-291 1068.67,-281.3 1113,-250 1166.28,-212.38 1166.9,-174.47 1157,-110 1155.65,-101.19 1152.87,-91.74 1150.15,-83.82"/>
<polygon fill="#63b8ff" stroke="#63b8ff" points="1153.34,-82.35 1146.6,-74.18 1146.77,-84.77 1153.34,-82.35"/>
</a>
</g>
</g>
<!-- Node25 -->
<g id="Node000025" class="node">
<title>Node25</title>
<g id="a_Node000025"><a xlink:title=" ">
<polygon fill="#e0e0e0" stroke="#999999" points="644,-244.5 580,-244.5 580,-225.5 644,-225.5 644,-244.5"/>
<text text-anchor="middle" x="612" y="-232.5" font-family="Helvetica,sans-Serif" font-size="10.00">algorithm</text>
</a>
</g>
</g>
<!-- Node24&#45;&gt;Node25 -->
<g id="edge35_Node000024_Node000025" class="edge">
<title>Node24&#45;&gt;Node25</title>
<g id="a_edge35_Node000024_Node000025"><a xlink:title=" ">
<path fill="none" stroke="#63b8ff" d="M519.94,-285.87C537.64,-276.28 566.46,-260.67 587.14,-249.47"/>
<polygon fill="#63b8ff" stroke="#63b8ff" points="588.87,-252.51 596,-244.67 585.54,-246.35 588.87,-252.51"/>
</a>
</g>
</g>
<!-- Node26 -->
<g id="Node000026" class="node">
<title>Node26</title>
<g id="a_Node000026"><a xlink:href="../../de/d3c/macros_8h.html" target="_top" xlink:title=" ">
<polygon fill="white" stroke="#666666" points="1104.5,-244.5 997.5,-244.5 997.5,-225.5 1104.5,-225.5 1104.5,-244.5"/>
<text text-anchor="middle" x="1051" y="-232.5" font-family="Helvetica,sans-Serif" font-size="10.00">common/macros.h</text>
</a>
</g>
</g>
<!-- Node24&#45;&gt;Node26 -->
<g id="edge38_Node000024_Node000026" class="edge">
<title>Node24&#45;&gt;Node26</title>
<g id="a_edge38_Node000024_Node000026"><a xlink:title=" ">
<path fill="none" stroke="#63b8ff" d="M562.02,-288.29C665.24,-277.26 879.96,-254.29 987.19,-242.82"/>
<polygon fill="#63b8ff" stroke="#63b8ff" points="987.65,-246.29 997.22,-241.75 986.91,-239.33 987.65,-246.29"/>
</a>
</g>
</g>
<!-- Node29 -->
<g id="Node000029" class="node">
<title>Node29</title>
<g id="a_Node000029"><a xlink:href="../../dd/d70/string__util_8h.html" target="_top" xlink:title=" ">
<polygon fill="white" stroke="#666666" points="184.5,-250 75.5,-250 75.5,-220 184.5,-220 184.5,-250"/>
<text text-anchor="start" x="83.5" y="-238" font-family="Helvetica,sans-Serif" font-size="10.00">common/util/string</text>
<text text-anchor="middle" x="130" y="-227" font-family="Helvetica,sans-Serif" font-size="10.00">_util.h</text>
</a>
</g>
</g>
<!-- Node24&#45;&gt;Node29 -->
<g id="edge42_Node000024_Node000029" class="edge">
<title>Node24&#45;&gt;Node29</title>
<g id="a_edge42_Node000024_Node000029"><a xlink:title=" ">
<path fill="none" stroke="#63b8ff" d="M449.62,-285.99C382.13,-275.44 267.16,-257.45 195.07,-246.18"/>
<polygon fill="#63b8ff" stroke="#63b8ff" points="195.17,-242.65 184.75,-244.56 194.09,-249.57 195.17,-242.65"/>
</a>
</g>
</g>
<!-- Node31 -->
<g id="Node000031" class="node">
<title>Node31</title>
<g id="a_Node000031"><a xlink:href="../../d6/dcc/decimal__type_8h.html" target="_top" xlink:title=" ">
<polygon fill="white" stroke="#666666" points="562,-244.5 446,-244.5 446,-225.5 562,-225.5 562,-244.5"/>
<text text-anchor="middle" x="504" y="-232.5" font-family="Helvetica,sans-Serif" font-size="10.00">type/decimal_type.h</text>
</a>
</g>
</g>
<!-- Node24&#45;&gt;Node31 -->
<g id="edge47_Node000024_Node000031" class="edge">
<title>Node24&#45;&gt;Node31</title>
<g id="a_edge47_Node000024_Node000031"><a xlink:title=" ">
<path fill="none" stroke="#63b8ff" d="M504,-285.87C504,-277.75 504,-265.31 504,-254.89"/>
<polygon fill="#63b8ff" stroke="#63b8ff" points="507.5,-254.67 504,-244.67 500.5,-254.67 507.5,-254.67"/>
</a>
</g>
</g>
<!-- Node32 -->
<g id="Node000032" class="node">
<title>Node32</title>
<g id="a_Node000032"><a xlink:href="../../d4/d5c/numeric__type_8h.html" target="_top" xlink:title=" ">
<polygon fill="white" stroke="#666666" points="681.5,-184 564.5,-184 564.5,-165 681.5,-165 681.5,-184"/>
<text text-anchor="middle" x="623" y="-172" font-family="Helvetica,sans-Serif" font-size="10.00">type/numeric_type.h</text>
</a>
</g>
</g>
<!-- Node24&#45;&gt;Node32 -->
<g id="edge52_Node000024_Node000032" class="edge">
<title>Node24&#45;&gt;Node32</title>
<g id="a_edge52_Node000024_Node000032"><a xlink:title=" ">
<path fill="none" stroke="#63b8ff" d="M562.27,-293.13C594.52,-289.01 632.19,-277.93 653,-250 666.21,-232.26 651.53,-207.9 638.45,-191.94"/>
<polygon fill="#63b8ff" stroke="#63b8ff" points="640.76,-189.25 631.54,-184.03 635.49,-193.86 640.76,-189.25"/>
</a>
</g>
</g>
<!-- Node24&#45;&gt;Node34 -->
<g id="edge55_Node000024_Node000034" class="edge">
<title>Node24&#45;&gt;Node34</title>
<g id="a_edge55_Node000024_Node000034"><a xlink:title=" ">
<path fill="none" stroke="#63b8ff" d="M546.6,-285.93C590.92,-277 662.34,-262.58 724,-250 729.39,-248.9 735.02,-247.75 740.63,-246.6"/>
<polygon fill="#63b8ff" stroke="#63b8ff" points="741.56,-249.98 750.65,-244.54 740.15,-243.12 741.56,-249.98"/>
</a>
</g>
</g>
<!-- Node26&#45;&gt;Node23 -->
<g id="edge41_Node000026_Node000023" class="edge">
<title>Node26&#45;&gt;Node23</title>
<g id="a_edge41_Node000026_Node000023"><a xlink:title=" ">
<path fill="none" stroke="#63b8ff" d="M1071.84,-225.39C1088.73,-217.29 1111.67,-203.47 1124,-184 1143.54,-153.15 1145.23,-109.01 1144.35,-84.23"/>
<polygon fill="#63b8ff" stroke="#63b8ff" points="1147.84,-83.84 1143.8,-74.04 1140.85,-84.21 1147.84,-83.84"/>
</a>
</g>
</g>
<!-- Node27 -->
<g id="Node000027" class="node">
<title>Node27</title>
<g id="a_Node000027"><a xlink:title=" ">
<polygon fill="#e0e0e0" stroke="#999999" points="1115,-184 1063,-184 1063,-165 1115,-165 1115,-184"/>
<text text-anchor="middle" x="1089" y="-172" font-family="Helvetica,sans-Serif" font-size="10.00">cassert</text>
</a>
</g>
</g>
<!-- Node26&#45;&gt;Node27 -->
<g id="edge39_Node000026_Node000027" class="edge">
<title>Node26&#45;&gt;Node27</title>
<g id="a_edge39_Node000026_Node000027"><a xlink:title=" ">
<path fill="none" stroke="#63b8ff" d="M1056.61,-225.37C1062.16,-216.81 1070.83,-203.47 1077.8,-192.74"/>
<polygon fill="#63b8ff" stroke="#63b8ff" points="1080.86,-194.46 1083.37,-184.17 1074.99,-190.65 1080.86,-194.46"/>
</a>
</g>
</g>
<!-- Node28 -->
<g id="Node000028" class="node">
<title>Node28</title>
<g id="a_Node000028"><a xlink:title=" ">
<polygon fill="#e0e0e0" stroke="#999999" points="1044.5,-184 979.5,-184 979.5,-165 1044.5,-165 1044.5,-184"/>
<text text-anchor="middle" x="1012" y="-172" font-family="Helvetica,sans-Serif" font-size="10.00">exception</text>
</a>
</g>
</g>
<!-- Node26&#45;&gt;Node28 -->
<g id="edge40_Node000026_Node000028" class="edge">
<title>Node26&#45;&gt;Node28</title>
<g id="a_edge40_Node000026_Node000028"><a xlink:title=" ">
<path fill="none" stroke="#63b8ff" d="M1045.25,-225.37C1039.54,-216.81 1030.65,-203.47 1023.49,-192.74"/>
<polygon fill="#63b8ff" stroke="#63b8ff" points="1026.24,-190.55 1017.78,-184.17 1020.41,-194.43 1026.24,-190.55"/>
</a>
</g>
</g>
<!-- Node29&#45;&gt;Node3 -->
<g id="edge43_Node000029_Node000003" class="edge">
<title>Node29&#45;&gt;Node3</title>
<g id="a_edge43_Node000029_Node000003"><a xlink:title=" ">
<path fill="none" stroke="#63b8ff" d="M117.39,-219.85C109.86,-210.42 101.01,-197.35 97,-184 84.17,-141.27 92.23,-99.87 127,-55 138.78,-39.79 157.33,-28.91 173.38,-21.71"/>
<polygon fill="#63b8ff" stroke="#63b8ff" points="175.09,-24.79 182.97,-17.7 172.39,-18.33 175.09,-24.79"/>
</a>
</g>
</g>
<!-- Node30 -->
<g id="Node000030" class="node">
<title>Node30</title>
<g id="a_Node000030"><a xlink:title=" ">
<polygon fill="#e0e0e0" stroke="#999999" points="153.5,-184 106.5,-184 106.5,-165 153.5,-165 153.5,-184"/>
<text text-anchor="middle" x="130" y="-172" font-family="Helvetica,sans-Serif" font-size="10.00">vector</text>
</a>
</g>
</g>
<!-- Node29&#45;&gt;Node30 -->
<g id="edge44_Node000029_Node000030" class="edge">
<title>Node29&#45;&gt;Node30</title>
<g id="a_edge44_Node000029_Node000030"><a xlink:title=" ">
<path fill="none" stroke="#63b8ff" d="M130,-219.84C130,-212.21 130,-202.7 130,-194.45"/>
<polygon fill="#63b8ff" stroke="#63b8ff" points="133.5,-194.27 130,-184.27 126.5,-194.27 133.5,-194.27"/>
</a>
</g>
</g>
<!-- Node31&#45;&gt;Node3 -->
<g id="edge48_Node000031_Node000003" class="edge">
<title>Node31&#45;&gt;Node3</title>
<g id="a_edge48_Node000031_Node000003"><a xlink:title=" ">
<path fill="none" stroke="#63b8ff" d="M506.37,-225.46C513.71,-196.92 532.97,-103.9 487,-55 453.56,-19.42 304.55,-12.25 237.67,-10.83"/>
<polygon fill="#63b8ff" stroke="#63b8ff" points="237.36,-7.33 227.3,-10.65 237.24,-14.33 237.36,-7.33"/>
</a>
</g>
</g>
<!-- Node31&#45;&gt;Node32 -->
<g id="edge49_Node000031_Node000032" class="edge">
<title>Node31&#45;&gt;Node32</title>
<g id="a_edge49_Node000031_Node000032"><a xlink:title=" ">
<path fill="none" stroke="#63b8ff" d="M521.3,-225.49C541.05,-215.79 573.55,-199.81 596.49,-188.53"/>
<polygon fill="#63b8ff" stroke="#63b8ff" points="598.25,-191.57 605.68,-184.02 595.16,-185.29 598.25,-191.57"/>
</a>
</g>
</g>
<!-- Node32&#45;&gt;Node6 -->
<g id="edge51_Node000032_Node000006" class="edge">
<title>Node32&#45;&gt;Node6</title>
<g id="a_edge51_Node000032_Node000006"><a xlink:title=" ">
<path fill="none" stroke="#63b8ff" d="M636.98,-164.98C650.47,-156.77 671.13,-144.18 687.04,-134.49"/>
<polygon fill="#63b8ff" stroke="#63b8ff" points="689.05,-137.36 695.77,-129.17 685.41,-131.38 689.05,-137.36"/>
</a>
</g>
</g>
<!-- Node33 -->
<g id="Node000033" class="node">
<title>Node33</title>
<g id="a_Node000033"><a xlink:title=" ">
<polygon fill="#e0e0e0" stroke="#999999" points="646.5,-129 599.5,-129 599.5,-110 646.5,-110 646.5,-129"/>
<text text-anchor="middle" x="623" y="-117" font-family="Helvetica,sans-Serif" font-size="10.00">cmath</text>
</a>
</g>
</g>
<!-- Node32&#45;&gt;Node33 -->
<g id="edge50_Node000032_Node000033" class="edge">
<title>Node32&#45;&gt;Node33</title>
<g id="a_edge50_Node000032_Node000033"><a xlink:title=" ">
<path fill="none" stroke="#63b8ff" d="M623,-164.75C623,-157.8 623,-147.85 623,-139.13"/>
<polygon fill="#63b8ff" stroke="#63b8ff" points="626.5,-139.09 623,-129.09 619.5,-139.09 626.5,-139.09"/>
</a>
</g>
</g>
<!-- Node34&#45;&gt;Node3 -->
<g id="edge56_Node000034_Node000003" class="edge">
<title>Node34&#45;&gt;Node3</title>
<g id="a_edge56_Node000034_Node000003"><a xlink:title=" ">
<path fill="none" stroke="#63b8ff" d="M811.17,-225.37C866.41,-199.42 1018.17,-119.89 957,-55 931.95,-28.42 377.81,-14.34 237.2,-11.19"/>
<polygon fill="#63b8ff" stroke="#63b8ff" points="237.15,-7.68 227.07,-10.96 236.99,-14.68 237.15,-7.68"/>
</a>
</g>
</g>
<!-- Node34&#45;&gt;Node6 -->
<g id="edge57_Node000034_Node000006" class="edge">
<title>Node34&#45;&gt;Node6</title>
<g id="a_edge57_Node000034_Node000006"><a xlink:title=" ">
<path fill="none" stroke="#63b8ff" d="M785.84,-225.47C772.36,-206.82 740.07,-162.11 722.27,-137.49"/>
<polygon fill="#63b8ff" stroke="#63b8ff" points="724.93,-135.19 716.23,-129.13 719.25,-139.29 724.93,-135.19"/>
</a>
</g>
</g>
</g>
</svg>

<g id="navigator" transform="translate(0 0)" fill="#404254">
  <rect fill="#f2f5e9" fill-opacity="0.5" stroke="#606060" stroke-width=".5" x="0" y="0" width="60" height="60"/>
  <use id="zoomplus" xlink:href="#zoomPlus" x="17" y="9" onmousedown="handleZoom(evt,'in')"/>
  <use id="zoomminus" xlink:href="#zoomMin" x="42" y="9" onmousedown="handleZoom(evt,'out')"/>
  <use id="reset" xlink:href="#resetDef" x="30" y="36" onmousedown="handleReset()"/>
   <use id="arrowup" xlink:href="#arrowUp" x="0" y="0" onmousedown="handlePan(0,-1)"/>
  <use id="arrowright" xlink:href="#arrowRight" x="0" y="0" onmousedown="handlePan(1,0)"/>
  <use id="arrowdown" xlink:href="#arrowDown" x="0" y="0" onmousedown="handlePan(0,1)"/>
  <use id="arrowleft" xlink:href="#arrowLeft" x="0" y="0" onmousedown="handlePan(-1,0)"/>
</g>
<svg viewBox="0 0 15 15" width="100%" height="30px" preserveAspectRatio="xMaxYMin meet">
 <g id="arrow_out" transform="scale(0.3 0.3)">
  <a xlink:href="timestamp__type_8cpp__incl_org.svg" target="_base">
   <rect id="button" ry="5" rx="5" y="6" x="6" height="38" width="38"
        fill="#f2f5e9" fill-opacity="0.5" stroke="#606060" stroke-width="1.0"/>
   <path id="arrow"
     d="M 11.500037,31.436501 C 11.940474,20.09759 22.043105,11.32322 32.158766,21.979434 L 37.068811,17.246167 C 37.068811,17.246167 37.088388,32 37.088388,32 L 22.160133,31.978069 C 22.160133,31.978069 26.997745,27.140456 26.997745,27.140456 C 18.528582,18.264221 13.291696,25.230495 11.500037,31.436501 z"
     style="fill:#404040;"/>
  </a>
 </g>
</svg>

<style type='text/css'>
<![CDATA[
[data-mouse-over-selected='false'] { opacity: 0.7; }
[data-mouse-over-selected='true']  { opacity: 1.0; }
]]>
</style>
<script type="application/ecmascript"><![CDATA[
document.addEventListener('DOMContentLoaded', (event) => {
  highlightEdges();
  highlightAdjacentNodes();
});
]]></script>
</svg>
