<?xml version="1.0" encoding="UTF-8" standalone="no"?>
<!DOCTYPE svg PUBLIC "-//W3C//DTD SVG 1.1//EN"
 "http://www.w3.org/Graphics/SVG/1.1/DTD/svg11.dtd">
<!-- Generated by graphviz version 2.43.0 (0)
 -->
<!-- Title: src/include/execution/plans/limit_plan.h Pages: 1 -->
<svg width="925pt" height="379pt"
 viewBox="0.00 0.00 924.50 379.00" xmlns="http://www.w3.org/2000/svg" xmlns:xlink="http://www.w3.org/1999/xlink">
<g id="graph0" class="graph" transform="scale(1 1) rotate(0) translate(4 375)">
<title>src/include/execution/plans/limit_plan.h</title>
<!-- Node1 -->
<g id="Node000001" class="node">
<title>Node1</title>
<g id="a_Node000001"><a xlink:title=" ">
<polygon fill="#999999" stroke="#666666" points="838.5,-371 719.5,-371 719.5,-341 838.5,-341 838.5,-371"/>
<text text-anchor="start" x="727.5" y="-359" font-family="Helvetica,sans-Serif" font-size="10.00">src/include/execution</text>
<text text-anchor="middle" x="779" y="-348" font-family="Helvetica,sans-Serif" font-size="10.00">/plans/limit_plan.h</text>
</a>
</g>
</g>
<!-- Node2 -->
<g id="Node000002" class="node">
<title>Node2</title>
<g id="a_Node000002"><a xlink:title=" ">
<polygon fill="#e0e0e0" stroke="#999999" points="155,-19 111,-19 111,0 155,0 155,-19"/>
<text text-anchor="middle" x="133" y="-7" font-family="Helvetica,sans-Serif" font-size="10.00">string</text>
</a>
</g>
</g>
<!-- Node1&#45;&gt;Node2 -->
<g id="edge1_Node000001_Node000002" class="edge">
<title>Node1&#45;&gt;Node2</title>
<g id="a_edge1_Node000001_Node000002"><a xlink:title=" ">
<path fill="none" stroke="#63b8ff" d="M719.49,-351.76C537.39,-341.06 0,-303.3 0,-230.5 0,-230.5 0,-230.5 0,-118.5 0,-66.54 61.93,-35.2 101.28,-20.54"/>
<polygon fill="#63b8ff" stroke="#63b8ff" points="102.49,-23.82 110.74,-17.17 100.14,-17.23 102.49,-23.82"/>
</a>
</g>
</g>
<!-- Node3 -->
<g id="Node000003" class="node">
<title>Node3</title>
<g id="a_Node000003"><a xlink:title=" ">
<polygon fill="#e0e0e0" stroke="#999999" points="819.5,-129 774.5,-129 774.5,-110 819.5,-110 819.5,-129"/>
<text text-anchor="middle" x="797" y="-117" font-family="Helvetica,sans-Serif" font-size="10.00">utility</text>
</a>
</g>
</g>
<!-- Node1&#45;&gt;Node3 -->
<g id="edge2_Node000001_Node000003" class="edge">
<title>Node1&#45;&gt;Node3</title>
<g id="a_edge2_Node000001_Node000003"><a xlink:title=" ">
<path fill="none" stroke="#63b8ff" d="M783.63,-340.73C786.62,-330.83 790.26,-317.26 792,-305 800.52,-244.83 799.16,-172.56 797.88,-139.14"/>
<polygon fill="#63b8ff" stroke="#63b8ff" points="801.38,-138.86 797.45,-129.02 794.38,-139.16 801.38,-138.86"/>
</a>
</g>
</g>
<!-- Node4 -->
<g id="Node000004" class="node">
<title>Node4</title>
<g id="a_Node000004"><a xlink:href="../../d3/d94/abstract__plan_8h.html" target="_top" xlink:title=" ">
<polygon fill="white" stroke="#666666" points="783,-305 647,-305 647,-275 783,-275 783,-305"/>
<text text-anchor="start" x="655" y="-293" font-family="Helvetica,sans-Serif" font-size="10.00">execution/plans/abstract</text>
<text text-anchor="middle" x="715" y="-282" font-family="Helvetica,sans-Serif" font-size="10.00">_plan.h</text>
</a>
</g>
</g>
<!-- Node1&#45;&gt;Node4 -->
<g id="edge3_Node000001_Node000004" class="edge">
<title>Node1&#45;&gt;Node4</title>
<g id="a_edge3_Node000001_Node000004"><a xlink:title=" ">
<path fill="none" stroke="#63b8ff" d="M764.8,-340.8C756.43,-332.43 745.68,-321.68 736.31,-312.31"/>
<polygon fill="#63b8ff" stroke="#63b8ff" points="738.71,-309.76 729.16,-305.16 733.76,-314.71 738.71,-309.76"/>
</a>
</g>
</g>
<!-- Node11 -->
<g id="Node000011" class="node">
<title>Node11</title>
<g id="a_Node000011"><a xlink:title=" ">
<polygon fill="#e0e0e0" stroke="#999999" points="916.5,-129 837.5,-129 837.5,-110 916.5,-110 916.5,-129"/>
<text text-anchor="middle" x="877" y="-117" font-family="Helvetica,sans-Serif" font-size="10.00">fmt/format.h</text>
</a>
</g>
</g>
<!-- Node1&#45;&gt;Node11 -->
<g id="edge39_Node000001_Node000011" class="edge">
<title>Node1&#45;&gt;Node11</title>
<g id="a_edge39_Node000001_Node000011"><a xlink:title=" ">
<path fill="none" stroke="#63b8ff" d="M788.03,-340.9C794.12,-331.07 802.08,-317.52 808,-305 835.85,-246.12 860.45,-172.72 871.22,-139"/>
<polygon fill="#63b8ff" stroke="#63b8ff" points="874.66,-139.76 874.33,-129.17 867.98,-137.65 874.66,-139.76"/>
</a>
</g>
</g>
<!-- Node4&#45;&gt;Node2 -->
<g id="edge5_Node000004_Node000002" class="edge">
<title>Node4&#45;&gt;Node2</title>
<g id="a_edge5_Node000004_Node000002"><a xlink:title=" ">
<path fill="none" stroke="#63b8ff" d="M646.99,-284.68C475.31,-272.88 38,-236.8 38,-175.5 38,-175.5 38,-175.5 38,-118.5 38,-75.91 80.16,-42.14 108.31,-24.33"/>
<polygon fill="#63b8ff" stroke="#63b8ff" points="110.16,-27.31 116.88,-19.12 106.52,-21.32 110.16,-27.31"/>
</a>
</g>
</g>
<!-- Node4&#45;&gt;Node3 -->
<g id="edge6_Node000004_Node000003" class="edge">
<title>Node4&#45;&gt;Node3</title>
<g id="a_edge6_Node000004_Node000003"><a xlink:title=" ">
<path fill="none" stroke="#63b8ff" d="M721.85,-274.92C736.71,-244.39 771.89,-172.1 788.29,-138.39"/>
<polygon fill="#63b8ff" stroke="#63b8ff" points="791.51,-139.78 792.74,-129.25 785.22,-136.72 791.51,-139.78"/>
</a>
</g>
</g>
<!-- Node5 -->
<g id="Node000005" class="node">
<title>Node5</title>
<g id="a_Node000005"><a xlink:title=" ">
<polygon fill="#e0e0e0" stroke="#999999" points="162,-74 104,-74 104,-55 162,-55 162,-74"/>
<text text-anchor="middle" x="133" y="-62" font-family="Helvetica,sans-Serif" font-size="10.00">memory</text>
</a>
</g>
</g>
<!-- Node4&#45;&gt;Node5 -->
<g id="edge4_Node000004_Node000005" class="edge">
<title>Node4&#45;&gt;Node5</title>
<g id="a_edge4_Node000004_Node000005"><a xlink:title=" ">
<path fill="none" stroke="#63b8ff" d="M646.95,-277.59C600.5,-268.99 537.86,-255.82 484,-239 361.88,-200.87 329.22,-192.22 218,-129 193.18,-114.89 167.26,-94.59 150.67,-80.77"/>
<polygon fill="#63b8ff" stroke="#63b8ff" points="152.79,-77.98 142.9,-74.2 148.27,-83.33 152.79,-77.98"/>
</a>
</g>
</g>
<!-- Node6 -->
<g id="Node000006" class="node">
<title>Node6</title>
<g id="a_Node000006"><a xlink:title=" ">
<polygon fill="#e0e0e0" stroke="#999999" points="738.5,-184 691.5,-184 691.5,-165 738.5,-165 738.5,-184"/>
<text text-anchor="middle" x="715" y="-172" font-family="Helvetica,sans-Serif" font-size="10.00">vector</text>
</a>
</g>
</g>
<!-- Node4&#45;&gt;Node6 -->
<g id="edge7_Node000004_Node000006" class="edge">
<title>Node4&#45;&gt;Node6</title>
<g id="a_edge7_Node000004_Node000006"><a xlink:title=" ">
<path fill="none" stroke="#63b8ff" d="M715,-274.63C715,-254.21 715,-216.81 715,-194.24"/>
<polygon fill="#63b8ff" stroke="#63b8ff" points="718.5,-194.23 715,-184.23 711.5,-194.23 718.5,-194.23"/>
</a>
</g>
</g>
<!-- Node7 -->
<g id="Node000007" class="node">
<title>Node7</title>
<g id="a_Node000007"><a xlink:href="../../d7/de3/schema_8h.html" target="_top" xlink:title=" ">
<polygon fill="white" stroke="#666666" points="596.5,-239 493.5,-239 493.5,-220 596.5,-220 596.5,-239"/>
<text text-anchor="middle" x="545" y="-227" font-family="Helvetica,sans-Serif" font-size="10.00">catalog/schema.h</text>
</a>
</g>
</g>
<!-- Node4&#45;&gt;Node7 -->
<g id="edge8_Node000004_Node000007" class="edge">
<title>Node4&#45;&gt;Node7</title>
<g id="a_edge8_Node000004_Node000007"><a xlink:title=" ">
<path fill="none" stroke="#63b8ff" d="M674.28,-274.99C645.41,-265.05 607.09,-251.86 579.67,-242.43"/>
<polygon fill="#63b8ff" stroke="#63b8ff" points="580.7,-239.08 570.11,-239.14 578.42,-245.7 580.7,-239.08"/>
</a>
</g>
</g>
<!-- Node4&#45;&gt;Node11 -->
<g id="edge38_Node000004_Node000011" class="edge">
<title>Node4&#45;&gt;Node11</title>
<g id="a_edge38_Node000004_Node000011"><a xlink:title=" ">
<path fill="none" stroke="#63b8ff" d="M728.53,-274.92C758.4,-243.86 829.8,-169.6 861.44,-136.68"/>
<polygon fill="#63b8ff" stroke="#63b8ff" points="864.18,-138.89 868.58,-129.25 859.13,-134.04 864.18,-138.89"/>
</a>
</g>
</g>
<!-- Node7&#45;&gt;Node2 -->
<g id="edge11_Node000007_Node000002" class="edge">
<title>Node7&#45;&gt;Node2</title>
<g id="a_edge11_Node000007_Node000002"><a xlink:title=" ">
<path fill="none" stroke="#63b8ff" d="M493.18,-229.35C394.55,-227.76 181.94,-208.12 95,-74 84.45,-57.72 99.57,-38.55 113.75,-25.56"/>
<polygon fill="#63b8ff" stroke="#63b8ff" points="116.04,-28.21 121.36,-19.04 111.49,-22.89 116.04,-28.21"/>
</a>
</g>
</g>
<!-- Node7&#45;&gt;Node5 -->
<g id="edge9_Node000007_Node000005" class="edge">
<title>Node7&#45;&gt;Node5</title>
<g id="a_edge9_Node000007_Node000005"><a xlink:title=" ">
<path fill="none" stroke="#63b8ff" d="M518.42,-219.87C491.52,-211.08 448.75,-196.93 412,-184 345.41,-160.58 327.91,-156.75 263,-129 225.93,-113.15 184.25,-92.22 158.3,-78.8"/>
<polygon fill="#63b8ff" stroke="#63b8ff" points="159.66,-75.56 149.17,-74.06 156.43,-81.77 159.66,-75.56"/>
</a>
</g>
</g>
<!-- Node7&#45;&gt;Node6 -->
<g id="edge12_Node000007_Node000006" class="edge">
<title>Node7&#45;&gt;Node6</title>
<g id="a_edge12_Node000007_Node000006"><a xlink:title=" ">
<path fill="none" stroke="#63b8ff" d="M572.31,-219.98C602.04,-210.72 649.59,-195.89 681.54,-185.93"/>
<polygon fill="#63b8ff" stroke="#63b8ff" points="682.81,-189.2 691.32,-182.88 680.73,-182.52 682.81,-189.2"/>
</a>
</g>
</g>
<!-- Node8 -->
<g id="Node000008" class="node">
<title>Node8</title>
<g id="a_Node000008"><a xlink:title=" ">
<polygon fill="#e0e0e0" stroke="#999999" points="477,-184 421,-184 421,-165 477,-165 477,-184"/>
<text text-anchor="middle" x="449" y="-172" font-family="Helvetica,sans-Serif" font-size="10.00">optional</text>
</a>
</g>
</g>
<!-- Node7&#45;&gt;Node8 -->
<g id="edge10_Node000007_Node000008" class="edge">
<title>Node7&#45;&gt;Node8</title>
<g id="a_edge10_Node000007_Node000008"><a xlink:title=" ">
<path fill="none" stroke="#63b8ff" d="M529.58,-219.98C514.55,-211.69 491.46,-198.94 473.84,-189.22"/>
<polygon fill="#63b8ff" stroke="#63b8ff" points="475.15,-185.94 464.7,-184.17 471.77,-192.07 475.15,-185.94"/>
</a>
</g>
</g>
<!-- Node9 -->
<g id="Node000009" class="node">
<title>Node9</title>
<g id="a_Node000009"><a xlink:href="../../dc/df8/column_8h.html" target="_top" xlink:title=" ">
<polygon fill="white" stroke="#666666" points="634.5,-184 533.5,-184 533.5,-165 634.5,-165 634.5,-184"/>
<text text-anchor="middle" x="584" y="-172" font-family="Helvetica,sans-Serif" font-size="10.00">catalog/column.h</text>
</a>
</g>
</g>
<!-- Node7&#45;&gt;Node9 -->
<g id="edge13_Node000007_Node000009" class="edge">
<title>Node7&#45;&gt;Node9</title>
<g id="a_edge13_Node000007_Node000009"><a xlink:title=" ">
<path fill="none" stroke="#63b8ff" d="M551.44,-219.75C556.89,-212.34 564.86,-201.5 571.56,-192.41"/>
<polygon fill="#63b8ff" stroke="#63b8ff" points="574.57,-194.22 577.68,-184.09 568.93,-190.07 574.57,-194.22"/>
</a>
</g>
</g>
<!-- Node12 -->
<g id="Node000012" class="node">
<title>Node12</title>
<g id="a_Node000012"><a xlink:href="../../dd/d2d/exception_8h.html" target="_top" xlink:title=" ">
<polygon fill="white" stroke="#666666" points="462.5,-129 343.5,-129 343.5,-110 462.5,-110 462.5,-129"/>
<text text-anchor="middle" x="403" y="-117" font-family="Helvetica,sans-Serif" font-size="10.00">common/exception.h</text>
</a>
</g>
</g>
<!-- Node7&#45;&gt;Node12 -->
<g id="edge36_Node000007_Node000012" class="edge">
<title>Node7&#45;&gt;Node12</title>
<g id="a_edge36_Node000007_Node000012"><a xlink:title=" ">
<path fill="none" stroke="#63b8ff" d="M538.5,-219.84C528.36,-206.77 507.68,-181.73 486,-165 469.55,-152.31 448.98,-141.25 432.44,-133.34"/>
<polygon fill="#63b8ff" stroke="#63b8ff" points="433.77,-130.09 423.22,-129.05 430.81,-136.44 433.77,-130.09"/>
</a>
</g>
</g>
<!-- Node18 -->
<g id="Node000018" class="node">
<title>Node18</title>
<g id="a_Node000018"><a xlink:href="../../df/def/type_8h.html" target="_top" xlink:title=" ">
<polygon fill="white" stroke="#666666" points="844,-74 772,-74 772,-55 844,-55 844,-74"/>
<text text-anchor="middle" x="808" y="-62" font-family="Helvetica,sans-Serif" font-size="10.00">type/type.h</text>
</a>
</g>
</g>
<!-- Node7&#45;&gt;Node18 -->
<g id="edge37_Node000007_Node000018" class="edge">
<title>Node7&#45;&gt;Node18</title>
<g id="a_edge37_Node000007_Node000018"><a xlink:title=" ">
<path fill="none" stroke="#63b8ff" d="M567.02,-219.96C587.29,-211.76 617.93,-198.5 643,-184 699.4,-151.37 760.34,-104.11 789.88,-80.34"/>
<polygon fill="#63b8ff" stroke="#63b8ff" points="792.11,-83.04 797.68,-74.02 787.71,-77.6 792.11,-83.04"/>
</a>
</g>
</g>
<!-- Node9&#45;&gt;Node2 -->
<g id="edge16_Node000009_Node000002" class="edge">
<title>Node9&#45;&gt;Node2</title>
<g id="a_edge16_Node000009_Node000002"><a xlink:title=" ">
<path fill="none" stroke="#63b8ff" d="M569.17,-164.98C556.24,-156.98 537.64,-144.02 525,-129 501.2,-100.71 517.29,-76.2 487,-55 435.38,-18.87 242.26,-12.06 165.12,-10.79"/>
<polygon fill="#63b8ff" stroke="#63b8ff" points="165.08,-7.29 155.03,-10.64 164.98,-14.29 165.08,-7.29"/>
</a>
</g>
</g>
<!-- Node9&#45;&gt;Node3 -->
<g id="edge17_Node000009_Node000003" class="edge">
<title>Node9&#45;&gt;Node3</title>
<g id="a_edge17_Node000009_Node000003"><a xlink:title=" ">
<path fill="none" stroke="#63b8ff" d="M618.22,-164.98C658.49,-154.97 724.85,-138.45 764.4,-128.61"/>
<polygon fill="#63b8ff" stroke="#63b8ff" points="765.46,-131.95 774.32,-126.14 763.77,-125.16 765.46,-131.95"/>
</a>
</g>
</g>
<!-- Node9&#45;&gt;Node5 -->
<g id="edge15_Node000009_Node000005" class="edge">
<title>Node9&#45;&gt;Node5</title>
<g id="a_edge15_Node000009_Node000005"><a xlink:title=" ">
<path fill="none" stroke="#63b8ff" d="M533.32,-166.45C482.53,-158.93 402.28,-145.79 334,-129 274.01,-114.25 205.74,-91.34 166.19,-77.45"/>
<polygon fill="#63b8ff" stroke="#63b8ff" points="167.14,-74.07 156.54,-74.04 164.8,-80.67 167.14,-74.07"/>
</a>
</g>
</g>
<!-- Node10 -->
<g id="Node000010" class="node">
<title>Node10</title>
<g id="a_Node000010"><a xlink:title=" ">
<polygon fill="#e0e0e0" stroke="#999999" points="897,-19 847,-19 847,0 897,0 897,-19"/>
<text text-anchor="middle" x="872" y="-7" font-family="Helvetica,sans-Serif" font-size="10.00">cstdint</text>
</a>
</g>
</g>
<!-- Node9&#45;&gt;Node10 -->
<g id="edge14_Node000009_Node000010" class="edge">
<title>Node9&#45;&gt;Node10</title>
<g id="a_edge14_Node000009_Node000010"><a xlink:title=" ">
<path fill="none" stroke="#63b8ff" d="M608.82,-164.99C673.75,-142.65 844.18,-83.4 853,-74 864.43,-61.82 869.01,-43.03 870.83,-29.05"/>
<polygon fill="#63b8ff" stroke="#63b8ff" points="874.31,-29.37 871.77,-19.08 867.34,-28.7 874.31,-29.37"/>
</a>
</g>
</g>
<!-- Node9&#45;&gt;Node11 -->
<g id="edge18_Node000009_Node000011" class="edge">
<title>Node9&#45;&gt;Node11</title>
<g id="a_edge18_Node000009_Node000011"><a xlink:title=" ">
<path fill="none" stroke="#63b8ff" d="M631.08,-164.98C684.83,-155.26 772.41,-139.42 827.26,-129.5"/>
<polygon fill="#63b8ff" stroke="#63b8ff" points="827.88,-132.94 837.1,-127.72 826.64,-126.05 827.88,-132.94"/>
</a>
</g>
</g>
<!-- Node9&#45;&gt;Node12 -->
<g id="edge19_Node000009_Node000012" class="edge">
<title>Node9&#45;&gt;Node12</title>
<g id="a_edge19_Node000009_Node000012"><a xlink:title=" ">
<path fill="none" stroke="#63b8ff" d="M554.92,-164.98C524.4,-156.05 476.24,-141.94 442.34,-132.02"/>
<polygon fill="#63b8ff" stroke="#63b8ff" points="442.89,-128.53 432.31,-129.08 440.92,-135.25 442.89,-128.53"/>
</a>
</g>
</g>
<!-- Node9&#45;&gt;Node18 -->
<g id="edge35_Node000009_Node000018" class="edge">
<title>Node9&#45;&gt;Node18</title>
<g id="a_edge35_Node000009_Node000018"><a xlink:title=" ">
<path fill="none" stroke="#63b8ff" d="M597.53,-164.79C617.93,-151.87 658.02,-127.28 694,-110 719.86,-97.58 750.15,-85.88 773.01,-77.6"/>
<polygon fill="#63b8ff" stroke="#63b8ff" points="774.39,-80.82 782.63,-74.16 772.03,-74.23 774.39,-80.82"/>
</a>
</g>
</g>
<!-- Node20 -->
<g id="Node000020" class="node">
<title>Node20</title>
<g id="a_Node000020"><a xlink:href="../../de/d3c/macros_8h.html" target="_top" xlink:title=" ">
<polygon fill="white" stroke="#666666" points="641.5,-129 534.5,-129 534.5,-110 641.5,-110 641.5,-129"/>
<text text-anchor="middle" x="588" y="-117" font-family="Helvetica,sans-Serif" font-size="10.00">common/macros.h</text>
</a>
</g>
</g>
<!-- Node9&#45;&gt;Node20 -->
<g id="edge31_Node000009_Node000020" class="edge">
<title>Node9&#45;&gt;Node20</title>
<g id="a_edge31_Node000009_Node000020"><a xlink:title=" ">
<path fill="none" stroke="#63b8ff" d="M584.66,-164.75C585.18,-157.8 585.94,-147.85 586.59,-139.13"/>
<polygon fill="#63b8ff" stroke="#63b8ff" points="590.09,-139.32 587.35,-129.09 583.11,-138.8 590.09,-139.32"/>
</a>
</g>
</g>
<!-- Node12&#45;&gt;Node2 -->
<g id="edge26_Node000012_Node000002" class="edge">
<title>Node12&#45;&gt;Node2</title>
<g id="a_edge26_Node000012_Node000002"><a xlink:title=" ">
<path fill="none" stroke="#63b8ff" d="M343.27,-112.17C303.6,-106.23 251.25,-94.97 209,-74 185.09,-62.13 162.23,-41.3 147.94,-26.75"/>
<polygon fill="#63b8ff" stroke="#63b8ff" points="150.37,-24.22 140.93,-19.41 145.3,-29.06 150.37,-24.22"/>
</a>
</g>
</g>
<!-- Node12&#45;&gt;Node5 -->
<g id="edge24_Node000012_Node000005" class="edge">
<title>Node12&#45;&gt;Node5</title>
<g id="a_edge24_Node000012_Node000005"><a xlink:title=" ">
<path fill="none" stroke="#63b8ff" d="M359.48,-109.99C313.78,-101.05 239.83,-86.57 176,-74 174.74,-73.75 173.46,-73.5 172.17,-73.24"/>
<polygon fill="#63b8ff" stroke="#63b8ff" points="172.63,-69.77 162.14,-71.27 171.28,-76.64 172.63,-69.77"/>
</a>
</g>
</g>
<!-- Node13 -->
<g id="Node000013" class="node">
<title>Node13</title>
<g id="a_Node000013"><a xlink:title=" ">
<polygon fill="#e0e0e0" stroke="#999999" points="414,-74 364,-74 364,-55 414,-55 414,-74"/>
<text text-anchor="middle" x="389" y="-62" font-family="Helvetica,sans-Serif" font-size="10.00">atomic</text>
</a>
</g>
</g>
<!-- Node12&#45;&gt;Node13 -->
<g id="edge20_Node000012_Node000013" class="edge">
<title>Node12&#45;&gt;Node13</title>
<g id="a_edge20_Node000012_Node000013"><a xlink:title=" ">
<path fill="none" stroke="#63b8ff" d="M400.69,-109.75C398.83,-102.72 396.16,-92.62 393.85,-83.84"/>
<polygon fill="#63b8ff" stroke="#63b8ff" points="397.21,-82.86 391.27,-74.09 390.44,-84.65 397.21,-82.86"/>
</a>
</g>
</g>
<!-- Node14 -->
<g id="Node000014" class="node">
<title>Node14</title>
<g id="a_Node000014"><a xlink:title=" ">
<polygon fill="#e0e0e0" stroke="#999999" points="478,-74 432,-74 432,-55 478,-55 478,-74"/>
<text text-anchor="middle" x="455" y="-62" font-family="Helvetica,sans-Serif" font-size="10.00">cstdio</text>
</a>
</g>
</g>
<!-- Node12&#45;&gt;Node14 -->
<g id="edge21_Node000012_Node000014" class="edge">
<title>Node12&#45;&gt;Node14</title>
<g id="a_edge21_Node000012_Node000014"><a xlink:title=" ">
<path fill="none" stroke="#63b8ff" d="M411.59,-109.75C419.16,-102.03 430.38,-90.6 439.51,-81.28"/>
<polygon fill="#63b8ff" stroke="#63b8ff" points="442.07,-83.68 446.57,-74.09 437.07,-78.78 442.07,-83.68"/>
</a>
</g>
</g>
<!-- Node15 -->
<g id="Node000015" class="node">
<title>Node15</title>
<g id="a_Node000015"><a xlink:title=" ">
<polygon fill="#e0e0e0" stroke="#999999" points="267.5,-74 218.5,-74 218.5,-55 267.5,-55 267.5,-74"/>
<text text-anchor="middle" x="243" y="-62" font-family="Helvetica,sans-Serif" font-size="10.00">cstdlib</text>
</a>
</g>
</g>
<!-- Node12&#45;&gt;Node15 -->
<g id="edge22_Node000012_Node000015" class="edge">
<title>Node12&#45;&gt;Node15</title>
<g id="a_edge22_Node000012_Node000015"><a xlink:title=" ">
<path fill="none" stroke="#63b8ff" d="M377.29,-109.98C350.15,-100.99 307.22,-86.77 277.23,-76.84"/>
<polygon fill="#63b8ff" stroke="#63b8ff" points="278.19,-73.47 267.59,-73.65 275.98,-80.11 278.19,-73.47"/>
</a>
</g>
</g>
<!-- Node16 -->
<g id="Node000016" class="node">
<title>Node16</title>
<g id="a_Node000016"><a xlink:title=" ">
<polygon fill="#e0e0e0" stroke="#999999" points="346,-74 286,-74 286,-55 346,-55 346,-74"/>
<text text-anchor="middle" x="316" y="-62" font-family="Helvetica,sans-Serif" font-size="10.00">iostream</text>
</a>
</g>
</g>
<!-- Node12&#45;&gt;Node16 -->
<g id="edge23_Node000012_Node000016" class="edge">
<title>Node12&#45;&gt;Node16</title>
<g id="a_edge23_Node000012_Node000016"><a xlink:title=" ">
<path fill="none" stroke="#63b8ff" d="M389.02,-109.98C375.53,-101.77 354.87,-89.18 338.96,-79.49"/>
<polygon fill="#63b8ff" stroke="#63b8ff" points="340.59,-76.38 330.23,-74.17 336.95,-82.36 340.59,-76.38"/>
</a>
</g>
</g>
<!-- Node17 -->
<g id="Node000017" class="node">
<title>Node17</title>
<g id="a_Node000017"><a xlink:title=" ">
<polygon fill="#e0e0e0" stroke="#999999" points="599.5,-74 534.5,-74 534.5,-55 599.5,-55 599.5,-74"/>
<text text-anchor="middle" x="567" y="-62" font-family="Helvetica,sans-Serif" font-size="10.00">stdexcept</text>
</a>
</g>
</g>
<!-- Node12&#45;&gt;Node17 -->
<g id="edge25_Node000012_Node000017" class="edge">
<title>Node12&#45;&gt;Node17</title>
<g id="a_edge25_Node000012_Node000017"><a xlink:title=" ">
<path fill="none" stroke="#63b8ff" d="M429.35,-109.98C456.76,-101.13 499.89,-87.19 530.56,-77.28"/>
<polygon fill="#63b8ff" stroke="#63b8ff" points="532,-80.49 540.44,-74.08 529.85,-73.83 532,-80.49"/>
</a>
</g>
</g>
<!-- Node12&#45;&gt;Node18 -->
<g id="edge27_Node000012_Node000018" class="edge">
<title>Node12&#45;&gt;Node18</title>
<g id="a_edge27_Node000012_Node000018"><a xlink:title=" ">
<path fill="none" stroke="#63b8ff" d="M462.54,-112.21C533.88,-104.43 656.95,-90.2 762,-74 762.1,-73.98 762.2,-73.97 762.3,-73.95"/>
<polygon fill="#63b8ff" stroke="#63b8ff" points="762.57,-77.46 771.88,-72.38 761.44,-70.55 762.57,-77.46"/>
</a>
</g>
</g>
<!-- Node18&#45;&gt;Node2 -->
<g id="edge29_Node000018_Node000002" class="edge">
<title>Node18&#45;&gt;Node2</title>
<g id="a_edge29_Node000018_Node000002"><a xlink:title=" ">
<path fill="none" stroke="#63b8ff" d="M771.9,-56.43C768.56,-55.9 765.22,-55.41 762,-55 534.54,-26.03 258.21,-14.68 165.26,-11.51"/>
<polygon fill="#63b8ff" stroke="#63b8ff" points="165.2,-8 155.09,-11.17 164.97,-15 165.2,-8"/>
</a>
</g>
</g>
<!-- Node18&#45;&gt;Node10 -->
<g id="edge28_Node000018_Node000010" class="edge">
<title>Node18&#45;&gt;Node10</title>
<g id="a_edge28_Node000018_Node000010"><a xlink:title=" ">
<path fill="none" stroke="#63b8ff" d="M818.28,-54.98C827.84,-47.07 842.28,-35.11 853.78,-25.58"/>
<polygon fill="#63b8ff" stroke="#63b8ff" points="856.06,-28.24 861.53,-19.17 851.6,-22.85 856.06,-28.24"/>
</a>
</g>
</g>
<!-- Node19 -->
<g id="Node000019" class="node">
<title>Node19</title>
<g id="a_Node000019"><a xlink:href="../../dc/df2/type__id_8h.html" target="_top" xlink:title=" ">
<polygon fill="white" stroke="#666666" points="829,-19 743,-19 743,0 829,0 829,-19"/>
<text text-anchor="middle" x="786" y="-7" font-family="Helvetica,sans-Serif" font-size="10.00">type/type_id.h</text>
</a>
</g>
</g>
<!-- Node18&#45;&gt;Node19 -->
<g id="edge30_Node000018_Node000019" class="edge">
<title>Node18&#45;&gt;Node19</title>
<g id="a_edge30_Node000018_Node000019"><a xlink:title=" ">
<path fill="none" stroke="#63b8ff" d="M804.37,-54.75C801.42,-47.65 797.17,-37.4 793.49,-28.56"/>
<polygon fill="#63b8ff" stroke="#63b8ff" points="796.63,-26.98 789.57,-19.09 790.17,-29.67 796.63,-26.98"/>
</a>
</g>
</g>
<!-- Node20&#45;&gt;Node17 -->
<g id="edge34_Node000020_Node000017" class="edge">
<title>Node20&#45;&gt;Node17</title>
<g id="a_edge34_Node000020_Node000017"><a xlink:title=" ">
<path fill="none" stroke="#63b8ff" d="M584.53,-109.75C581.72,-102.65 577.66,-92.4 574.15,-83.56"/>
<polygon fill="#63b8ff" stroke="#63b8ff" points="577.34,-82.1 570.4,-74.09 570.83,-84.68 577.34,-82.1"/>
</a>
</g>
</g>
<!-- Node21 -->
<g id="Node000021" class="node">
<title>Node21</title>
<g id="a_Node000021"><a xlink:title=" ">
<polygon fill="#e0e0e0" stroke="#999999" points="670,-74 618,-74 618,-55 670,-55 670,-74"/>
<text text-anchor="middle" x="644" y="-62" font-family="Helvetica,sans-Serif" font-size="10.00">cassert</text>
</a>
</g>
</g>
<!-- Node20&#45;&gt;Node21 -->
<g id="edge32_Node000020_Node000021" class="edge">
<title>Node20&#45;&gt;Node21</title>
<g id="a_edge32_Node000020_Node000021"><a xlink:title=" ">
<path fill="none" stroke="#63b8ff" d="M597,-109.98C605.19,-102.23 617.51,-90.58 627.47,-81.14"/>
<polygon fill="#63b8ff" stroke="#63b8ff" points="629.98,-83.59 634.84,-74.17 625.17,-78.5 629.98,-83.59"/>
</a>
</g>
</g>
<!-- Node22 -->
<g id="Node000022" class="node">
<title>Node22</title>
<g id="a_Node000022"><a xlink:title=" ">
<polygon fill="#e0e0e0" stroke="#999999" points="753.5,-74 688.5,-74 688.5,-55 753.5,-55 753.5,-74"/>
<text text-anchor="middle" x="721" y="-62" font-family="Helvetica,sans-Serif" font-size="10.00">exception</text>
</a>
</g>
</g>
<!-- Node20&#45;&gt;Node22 -->
<g id="edge33_Node000020_Node000022" class="edge">
<title>Node20&#45;&gt;Node22</title>
<g id="a_edge33_Node000020_Node000022"><a xlink:title=" ">
<path fill="none" stroke="#63b8ff" d="M609.37,-109.98C631.15,-101.3 665.16,-87.75 689.92,-77.88"/>
<polygon fill="#63b8ff" stroke="#63b8ff" points="691.25,-81.12 699.24,-74.17 688.66,-74.62 691.25,-81.12"/>
</a>
</g>
</g>
</g>
</svg>
