<?xml version="1.0" encoding="UTF-8" standalone="no"?>
<!DOCTYPE svg PUBLIC "-//W3C//DTD SVG 1.1//EN"
 "http://www.w3.org/Graphics/SVG/1.1/DTD/svg11.dtd">
<!-- Generated by graphviz version 2.43.0 (0)
 -->
<!-- Title: src/include/buffer/replacer.h Pages: 1 -->
<svg width="324pt" height="159pt"
 viewBox="0.00 0.00 324.00 159.00" xmlns="http://www.w3.org/2000/svg" xmlns:xlink="http://www.w3.org/1999/xlink">

<svg id="main" version="1.1" xmlns="http://www.w3.org/2000/svg" xmlns:xlink="http://www.w3.org/1999/xlink" xml:space="preserve" onload="init(evt)">
<style type="text/css"><![CDATA[
.node, .edge {opacity: 0.7;}
.node.selected, .edge.selected {opacity: 1;}
.edge:hover path { stroke: red; }
.edge:hover polygon { stroke: red; fill: red; }
]]></style>
<script type="application/ecmascript" xlink:href="../../svg.min.js"/>
<svg id="graph" class="graph">
<g id="graph0" class="graph" transform="scale(1 1) rotate(0) translate(4 155)">
<title>src/include/buffer/replacer.h</title>
<!-- Node1 -->
<g id="Node000001" class="node">
<title>Node1</title>
<g id="a_Node000001"><a xlink:title=" ">
<polygon fill="#999999" stroke="#666666" points="211,-151 110,-151 110,-121 211,-121 211,-151"/>
<text text-anchor="start" x="118" y="-139" font-family="Helvetica,sans-Serif" font-size="10.00">src/include/buffer</text>
<text text-anchor="middle" x="160.5" y="-128" font-family="Helvetica,sans-Serif" font-size="10.00">/replacer.h</text>
</a>
</g>
</g>
<!-- Node2 -->
<g id="Node000002" class="node">
<title>Node2</title>
<g id="a_Node000002"><a xlink:href="../../dc/db5/clock__replacer_8h.html" target="_top" xlink:title=" ">
<polygon fill="white" stroke="#666666" points="140,-85 39,-85 39,-55 140,-55 140,-85"/>
<text text-anchor="start" x="47" y="-73" font-family="Helvetica,sans-Serif" font-size="10.00">src/include/buffer</text>
<text text-anchor="middle" x="89.5" y="-62" font-family="Helvetica,sans-Serif" font-size="10.00">/clock_replacer.h</text>
</a>
</g>
</g>
<!-- Node1&#45;&gt;Node2 -->
<g id="edge1_Node000001_Node000002" class="edge">
<title>Node1&#45;&gt;Node2</title>
<g id="a_edge1_Node000001_Node000002"><a xlink:title=" ">
<path fill="none" stroke="#63b8ff" d="M137.12,-113.92C126.65,-104.49 114.58,-93.61 105.21,-85.16"/>
<polygon fill="#63b8ff" stroke="#63b8ff" points="134.97,-116.7 144.74,-120.8 139.66,-111.5 134.97,-116.7"/>
</a>
</g>
</g>
<!-- Node4 -->
<g id="Node000004" class="node">
<title>Node4</title>
<g id="a_Node000004"><a xlink:href="../../d2/d36/lru__replacer_8h.html" target="_top" xlink:title=" ">
<polygon fill="white" stroke="#666666" points="283,-85 182,-85 182,-55 283,-55 283,-85"/>
<text text-anchor="start" x="190" y="-73" font-family="Helvetica,sans-Serif" font-size="10.00">src/include/buffer</text>
<text text-anchor="middle" x="232.5" y="-62" font-family="Helvetica,sans-Serif" font-size="10.00">/lru_replacer.h</text>
</a>
</g>
</g>
<!-- Node1&#45;&gt;Node4 -->
<g id="edge3_Node000001_Node000004" class="edge">
<title>Node1&#45;&gt;Node4</title>
<g id="a_edge3_Node000001_Node000004"><a xlink:title=" ">
<path fill="none" stroke="#63b8ff" d="M184.21,-113.92C194.83,-104.49 207.07,-93.61 216.57,-85.16"/>
<polygon fill="#63b8ff" stroke="#63b8ff" points="181.63,-111.54 176.48,-120.8 186.28,-116.77 181.63,-111.54"/>
</a>
</g>
</g>
<!-- Node3 -->
<g id="Node000003" class="node">
<title>Node3</title>
<g id="a_Node000003"><a xlink:href="../../df/d87/clock__replacer_8cpp.html" target="_top" xlink:title=" ">
<polygon fill="white" stroke="#666666" points="155,-19 0,-19 0,0 155,0 155,-19"/>
<text text-anchor="middle" x="77.5" y="-7" font-family="Helvetica,sans-Serif" font-size="10.00">src/buffer/clock_replacer.cpp</text>
</a>
</g>
</g>
<!-- Node2&#45;&gt;Node3 -->
<g id="edge2_Node000002_Node000003" class="edge">
<title>Node2&#45;&gt;Node3</title>
<g id="a_edge2_Node000002_Node000003"><a xlink:title=" ">
<path fill="none" stroke="#63b8ff" d="M84.53,-44.75C82.67,-35.72 80.68,-26.03 79.3,-19.27"/>
<polygon fill="#63b8ff" stroke="#63b8ff" points="81.16,-45.75 86.6,-54.84 88.01,-44.34 81.16,-45.75"/>
</a>
</g>
</g>
<!-- Node5 -->
<g id="Node000005" class="node">
<title>Node5</title>
<g id="a_Node000005"><a xlink:href="../../d6/dc0/lru__replacer_8cpp.html" target="_top" xlink:title=" ">
<polygon fill="white" stroke="#666666" points="316,-19 173,-19 173,0 316,0 316,-19"/>
<text text-anchor="middle" x="244.5" y="-7" font-family="Helvetica,sans-Serif" font-size="10.00">src/buffer/lru_replacer.cpp</text>
</a>
</g>
</g>
<!-- Node4&#45;&gt;Node5 -->
<g id="edge4_Node000004_Node000005" class="edge">
<title>Node4&#45;&gt;Node5</title>
<g id="a_edge4_Node000004_Node000005"><a xlink:title=" ">
<path fill="none" stroke="#63b8ff" d="M237.47,-44.75C239.33,-35.72 241.32,-26.03 242.7,-19.27"/>
<polygon fill="#63b8ff" stroke="#63b8ff" points="233.99,-44.34 235.4,-54.84 240.84,-45.75 233.99,-44.34"/>
</a>
</g>
</g>
</g>
</svg>
</svg>

<style type='text/css'>
<![CDATA[
[data-mouse-over-selected='false'] { opacity: 0.7; }
[data-mouse-over-selected='true']  { opacity: 1.0; }
]]>
</style>
<script type="application/ecmascript"><![CDATA[
document.addEventListener('DOMContentLoaded', (event) => {
  highlightEdges();
  highlightAdjacentNodes();
});
]]></script>
</svg>
