<?xml version="1.0" encoding="UTF-8" standalone="no"?>
<!DOCTYPE svg PUBLIC "-//W3C//DTD SVG 1.1//EN"
 "http://www.w3.org/Graphics/SVG/1.1/DTD/svg11.dtd">
<!-- Generated by graphviz version 2.43.0 (0)
 -->
<!-- Title: src/include/execution/plans/sort_plan.h Pages: 1 -->
<!--zoomable 170 -->

<svg id="main" version="1.1" xmlns="http://www.w3.org/2000/svg" xmlns:xlink="http://www.w3.org/1999/xlink" xml:space="preserve" onload="init(evt)">
<style type="text/css"><![CDATA[
.node, .edge {opacity: 0.7;}
.node.selected, .edge.selected {opacity: 1;}
.edge:hover path { stroke: red; }
.edge:hover polygon { stroke: red; fill: red; }
]]></style>

<defs>
  <circle id="rim" cx="0" cy="0" r="7"/>
  <circle id="rim2" cx="0" cy="0" r="3.5"/>
  <g id="zoomPlus">
    <use xlink:href="#rim" fill="#404040"><set attributeName="fill" to="#808080" begin="zoomplus.mouseover" end="zoomplus.mouseout"/></use>
    <path d="M-4,0h8M0,-4v8" fill="none" stroke="white" stroke-width="1.5" pointer-events="none"/>
  </g>
  <g id="zoomMin">
    <use xlink:href="#rim" fill="#404040"><set attributeName="fill" to="#808080" begin="zoomminus.mouseover" end="zoomminus.mouseout"/></use>
    <path d="M-4,0h8" fill="none" stroke="white" stroke-width="1.5" pointer-events="none"/>
  </g>
  <g id="arrowUp" transform="translate(30 24)">
    <use xlink:href="#rim"/>
    <path pointer-events="none" fill="none" stroke="white" stroke-width="1.5" d="M0,-3.0v7 M-2.5,-0.5L0,-3.0L2.5,-0.5"/>
  </g>
  <g id="arrowRight" transform="rotate(90) translate(36 -43)">
    <use xlink:href="#rim"/>
    <path pointer-events="none" fill="none" stroke="white" stroke-width="1.5" d="M0,-3.0v7 M-2.5,-0.5L0,-3.0L2.5,-0.5"/>
  </g>
  <g id="arrowDown" transform="rotate(180) translate(-30 -48)">
    <use xlink:href="#rim"/>
    <path pointer-events="none" fill="none" stroke="white" stroke-width="1.5" d="M0,-3.0v7 M-2.5,-0.5L0,-3.0L2.5,-0.5"/>
  </g>
  <g id="arrowLeft" transform="rotate(270) translate(-36 17)">
    <use xlink:href="#rim"/>
    <path pointer-events="none" fill="none" stroke="white" stroke-width="1.5" d="M0,-3.0v7 M-2.5,-0.5L0,-3.0L2.5,-0.5"/>
  </g>
  <g id="resetDef">
    <use xlink:href="#rim2" fill="#404040"><set attributeName="fill" to="#808080" begin="reset.mouseover" end="reset.mouseout"/></use>
  </g>
</defs>
<script type="application/ecmascript">
var viewWidth = 925;
var viewHeight = 170;
var sectionId = 'dynsection-1';
</script>
<script type="application/ecmascript" xlink:href="../../svg.min.js"/>
<svg id="graph" class="graph">
<g id="viewport">
<title>src/include/execution/plans/sort_plan.h</title>
<!-- Node1 -->
<g id="Node000001" class="node">
<title>Node1</title>
<g id="a_Node000001"><a xlink:title=" ">
<polygon fill="#999999" stroke="#666666" points="477.5,-162 358.5,-162 358.5,-132 477.5,-132 477.5,-162"/>
<text text-anchor="start" x="366.5" y="-150" font-family="Helvetica,sans-Serif" font-size="10.00">src/include/execution</text>
<text text-anchor="middle" x="418" y="-139" font-family="Helvetica,sans-Serif" font-size="10.00">/plans/sort_plan.h</text>
</a>
</g>
</g>
<!-- Node2 -->
<g id="Node000002" class="node">
<title>Node2</title>
<g id="a_Node000002"><a xlink:href="../../d3/d3e/executor__factory_8cpp.html" target="_top" xlink:title=" ">
<polygon fill="white" stroke="#666666" points="126,-30 0,-30 0,0 126,0 126,-30"/>
<text text-anchor="start" x="8" y="-18" font-family="Helvetica,sans-Serif" font-size="10.00">src/execution/executor</text>
<text text-anchor="middle" x="63" y="-7" font-family="Helvetica,sans-Serif" font-size="10.00">_factory.cpp</text>
</a>
</g>
</g>
<!-- Node1&#45;&gt;Node2 -->
<g id="edge1_Node000001_Node000002" class="edge">
<title>Node1&#45;&gt;Node2</title>
<g id="a_edge1_Node000001_Node000002"><a xlink:title=" ">
<path fill="none" stroke="#63b8ff" d="M348.1,-142.29C238.56,-135.75 36.65,-120.5 15,-96 -3.23,-75.37 23.92,-46.86 44.22,-30.03"/>
<polygon fill="#63b8ff" stroke="#63b8ff" points="348.21,-145.8 358.4,-142.89 348.62,-138.81 348.21,-145.8"/>
</a>
</g>
</g>
<!-- Node3 -->
<g id="Node000003" class="node">
<title>Node3</title>
<g id="a_Node000003"><a xlink:href="../../dd/def/execution_2fmt__impl_8cpp.html" target="_top" xlink:title=" ">
<polygon fill="white" stroke="#666666" points="172.5,-90.5 23.5,-90.5 23.5,-71.5 172.5,-71.5 172.5,-90.5"/>
<text text-anchor="middle" x="98" y="-78.5" font-family="Helvetica,sans-Serif" font-size="10.00">src/execution/fmt_impl.cpp</text>
</a>
</g>
</g>
<!-- Node1&#45;&gt;Node3 -->
<g id="edge2_Node000001_Node000003" class="edge">
<title>Node1&#45;&gt;Node3</title>
<g id="a_edge2_Node000001_Node000003"><a xlink:title=" ">
<path fill="none" stroke="#63b8ff" d="M348.28,-132.06C284.99,-119.4 193.7,-101.14 140.64,-90.53"/>
<polygon fill="#63b8ff" stroke="#63b8ff" points="347.69,-135.51 358.19,-134.04 349.07,-128.64 347.69,-135.51"/>
</a>
</g>
</g>
<!-- Node4 -->
<g id="Node000004" class="node">
<title>Node4</title>
<g id="a_Node000004"><a xlink:href="../../da/dd0/sort__executor_8h.html" target="_top" xlink:title=" ">
<polygon fill="white" stroke="#666666" points="335,-96 191,-96 191,-66 335,-66 335,-96"/>
<text text-anchor="start" x="199" y="-84" font-family="Helvetica,sans-Serif" font-size="10.00">src/include/execution</text>
<text text-anchor="middle" x="263" y="-73" font-family="Helvetica,sans-Serif" font-size="10.00">/executors/sort_executor.h</text>
</a>
</g>
</g>
<!-- Node1&#45;&gt;Node4 -->
<g id="edge3_Node000001_Node000004" class="edge">
<title>Node1&#45;&gt;Node4</title>
<g id="a_edge3_Node000001_Node000004"><a xlink:title=" ">
<path fill="none" stroke="#63b8ff" d="M374.54,-128.05C349.98,-117.91 319.73,-105.43 296.94,-96.01"/>
<polygon fill="#63b8ff" stroke="#63b8ff" points="373.41,-131.37 383.98,-131.95 376.08,-124.9 373.41,-131.37"/>
</a>
</g>
</g>
<!-- Node6 -->
<g id="Node000006" class="node">
<title>Node6</title>
<g id="a_Node000006"><a xlink:href="../../d8/dd7/eliminate__true__filter_8cpp.html" target="_top" xlink:title=" ">
<polygon fill="white" stroke="#666666" points="483,-96 353,-96 353,-66 483,-66 483,-96"/>
<text text-anchor="start" x="361" y="-84" font-family="Helvetica,sans-Serif" font-size="10.00">src/optimizer/eliminate</text>
<text text-anchor="middle" x="418" y="-73" font-family="Helvetica,sans-Serif" font-size="10.00">_true_filter.cpp</text>
</a>
</g>
</g>
<!-- Node1&#45;&gt;Node6 -->
<g id="edge6_Node000001_Node000006" class="edge">
<title>Node1&#45;&gt;Node6</title>
<g id="a_edge6_Node000001_Node000006"><a xlink:title=" ">
<path fill="none" stroke="#63b8ff" d="M418,-121.54C418,-112.96 418,-103.61 418,-96.16"/>
<polygon fill="#63b8ff" stroke="#63b8ff" points="414.5,-121.8 418,-131.8 421.5,-121.8 414.5,-121.8"/>
</a>
</g>
</g>
<!-- Node7 -->
<g id="Node000007" class="node">
<title>Node7</title>
<g id="a_Node000007"><a xlink:href="../../d0/d46/merge__filter__scan_8cpp.html" target="_top" xlink:title=" ">
<polygon fill="white" stroke="#666666" points="616.5,-96 501.5,-96 501.5,-66 616.5,-66 616.5,-96"/>
<text text-anchor="start" x="509.5" y="-84" font-family="Helvetica,sans-Serif" font-size="10.00">src/optimizer/merge</text>
<text text-anchor="middle" x="559" y="-73" font-family="Helvetica,sans-Serif" font-size="10.00">_filter_scan.cpp</text>
</a>
</g>
</g>
<!-- Node1&#45;&gt;Node7 -->
<g id="edge7_Node000001_Node000007" class="edge">
<title>Node1&#45;&gt;Node7</title>
<g id="a_edge7_Node000001_Node000007"><a xlink:title=" ">
<path fill="none" stroke="#63b8ff" d="M458.13,-127.78C480.36,-117.69 507.57,-105.34 528.13,-96.01"/>
<polygon fill="#63b8ff" stroke="#63b8ff" points="456.6,-124.63 448.94,-131.95 459.5,-131.01 456.6,-124.63"/>
</a>
</g>
</g>
<!-- Node8 -->
<g id="Node000008" class="node">
<title>Node8</title>
<g id="a_Node000008"><a xlink:href="../../d9/db2/order__by__index__scan_8cpp.html" target="_top" xlink:title=" ">
<polygon fill="white" stroke="#666666" points="749,-96 635,-96 635,-66 749,-66 749,-96"/>
<text text-anchor="start" x="643" y="-84" font-family="Helvetica,sans-Serif" font-size="10.00">src/optimizer/order</text>
<text text-anchor="middle" x="692" y="-73" font-family="Helvetica,sans-Serif" font-size="10.00">_by_index_scan.cpp</text>
</a>
</g>
</g>
<!-- Node1&#45;&gt;Node8 -->
<g id="edge8_Node000001_Node000008" class="edge">
<title>Node1&#45;&gt;Node8</title>
<g id="a_edge8_Node000001_Node000008"><a xlink:title=" ">
<path fill="none" stroke="#63b8ff" d="M487.59,-129.75C533.11,-119.11 591.86,-105.39 634.68,-95.39"/>
<polygon fill="#63b8ff" stroke="#63b8ff" points="486.73,-126.35 477.79,-132.03 488.33,-133.17 486.73,-126.35"/>
</a>
</g>
</g>
<!-- Node9 -->
<g id="Node000009" class="node">
<title>Node9</title>
<g id="a_Node000009"><a xlink:href="../../d9/df0/plan__select_8cpp.html" target="_top" xlink:title=" ">
<polygon fill="white" stroke="#666666" points="916.5,-90.5 767.5,-90.5 767.5,-71.5 916.5,-71.5 916.5,-90.5"/>
<text text-anchor="middle" x="842" y="-78.5" font-family="Helvetica,sans-Serif" font-size="10.00">src/planner/plan_select.cpp</text>
</a>
</g>
</g>
<!-- Node1&#45;&gt;Node9 -->
<g id="edge9_Node000001_Node000009" class="edge">
<title>Node1&#45;&gt;Node9</title>
<g id="a_edge9_Node000001_Node000009"><a xlink:title=" ">
<path fill="none" stroke="#63b8ff" d="M487.9,-136.12C556.68,-126.3 664.65,-110.64 758,-96 768.95,-94.28 780.7,-92.37 791.83,-90.52"/>
<polygon fill="#63b8ff" stroke="#63b8ff" points="487.03,-132.71 477.63,-137.58 488.02,-139.64 487.03,-132.71"/>
</a>
</g>
</g>
<!-- Node4&#45;&gt;Node2 -->
<g id="edge4_Node000004_Node000002" class="edge">
<title>Node4&#45;&gt;Node2</title>
<g id="a_edge4_Node000004_Node000002"><a xlink:title=" ">
<path fill="none" stroke="#63b8ff" d="M209.43,-62.86C177.31,-52.58 136.99,-39.68 106.79,-30.01"/>
<polygon fill="#63b8ff" stroke="#63b8ff" points="208.52,-66.24 219.11,-65.95 210.65,-59.57 208.52,-66.24"/>
</a>
</g>
</g>
<!-- Node5 -->
<g id="Node000005" class="node">
<title>Node5</title>
<g id="a_Node000005"><a xlink:href="../../df/da6/sort__executor_8cpp.html" target="_top" xlink:title=" ">
<polygon fill="white" stroke="#666666" points="314.5,-30 211.5,-30 211.5,0 314.5,0 314.5,-30"/>
<text text-anchor="start" x="219.5" y="-18" font-family="Helvetica,sans-Serif" font-size="10.00">src/execution/sort</text>
<text text-anchor="middle" x="263" y="-7" font-family="Helvetica,sans-Serif" font-size="10.00">_executor.cpp</text>
</a>
</g>
</g>
<!-- Node4&#45;&gt;Node5 -->
<g id="edge5_Node000004_Node000005" class="edge">
<title>Node4&#45;&gt;Node5</title>
<g id="a_edge5_Node000004_Node000005"><a xlink:title=" ">
<path fill="none" stroke="#63b8ff" d="M263,-55.54C263,-46.96 263,-37.61 263,-30.16"/>
<polygon fill="#63b8ff" stroke="#63b8ff" points="259.5,-55.8 263,-65.8 266.5,-55.8 259.5,-55.8"/>
</a>
</g>
</g>
</g>
</svg>

<g id="navigator" transform="translate(0 0)" fill="#404254">
  <rect fill="#f2f5e9" fill-opacity="0.5" stroke="#606060" stroke-width=".5" x="0" y="0" width="60" height="60"/>
  <use id="zoomplus" xlink:href="#zoomPlus" x="17" y="9" onmousedown="handleZoom(evt,'in')"/>
  <use id="zoomminus" xlink:href="#zoomMin" x="42" y="9" onmousedown="handleZoom(evt,'out')"/>
  <use id="reset" xlink:href="#resetDef" x="30" y="36" onmousedown="handleReset()"/>
   <use id="arrowup" xlink:href="#arrowUp" x="0" y="0" onmousedown="handlePan(0,-1)"/>
  <use id="arrowright" xlink:href="#arrowRight" x="0" y="0" onmousedown="handlePan(1,0)"/>
  <use id="arrowdown" xlink:href="#arrowDown" x="0" y="0" onmousedown="handlePan(0,1)"/>
  <use id="arrowleft" xlink:href="#arrowLeft" x="0" y="0" onmousedown="handlePan(-1,0)"/>
</g>
<svg viewBox="0 0 15 15" width="100%" height="30px" preserveAspectRatio="xMaxYMin meet">
 <g id="arrow_out" transform="scale(0.3 0.3)">
  <a xlink:href="sort__plan_8h__dep__incl_org.svg" target="_base">
   <rect id="button" ry="5" rx="5" y="6" x="6" height="38" width="38"
        fill="#f2f5e9" fill-opacity="0.5" stroke="#606060" stroke-width="1.0"/>
   <path id="arrow"
     d="M 11.500037,31.436501 C 11.940474,20.09759 22.043105,11.32322 32.158766,21.979434 L 37.068811,17.246167 C 37.068811,17.246167 37.088388,32 37.088388,32 L 22.160133,31.978069 C 22.160133,31.978069 26.997745,27.140456 26.997745,27.140456 C 18.528582,18.264221 13.291696,25.230495 11.500037,31.436501 z"
     style="fill:#404040;"/>
  </a>
 </g>
</svg>

<style type='text/css'>
<![CDATA[
[data-mouse-over-selected='false'] { opacity: 0.7; }
[data-mouse-over-selected='true']  { opacity: 1.0; }
]]>
</style>
<script type="application/ecmascript"><![CDATA[
document.addEventListener('DOMContentLoaded', (event) => {
  highlightEdges();
  highlightAdjacentNodes();
});
]]></script>
</svg>
