<?xml version="1.0" encoding="UTF-8" standalone="no"?>
<!DOCTYPE svg PUBLIC "-//W3C//DTD SVG 1.1//EN"
 "http://www.w3.org/Graphics/SVG/1.1/DTD/svg11.dtd">
<!-- Generated by graphviz version 2.43.0 (0)
 -->
<!-- Title: src/include/storage/index/index.h Pages: 1 -->
<!--zoomable 368 -->

<svg id="main" version="1.1" xmlns="http://www.w3.org/2000/svg" xmlns:xlink="http://www.w3.org/1999/xlink" xml:space="preserve" onload="init(evt)">
<style type="text/css"><![CDATA[
.node, .edge {opacity: 0.7;}
.node.selected, .edge.selected {opacity: 1;}
.edge:hover path { stroke: red; }
.edge:hover polygon { stroke: red; fill: red; }
]]></style>

<defs>
  <circle id="rim" cx="0" cy="0" r="7"/>
  <circle id="rim2" cx="0" cy="0" r="3.5"/>
  <g id="zoomPlus">
    <use xlink:href="#rim" fill="#404040"><set attributeName="fill" to="#808080" begin="zoomplus.mouseover" end="zoomplus.mouseout"/></use>
    <path d="M-4,0h8M0,-4v8" fill="none" stroke="white" stroke-width="1.5" pointer-events="none"/>
  </g>
  <g id="zoomMin">
    <use xlink:href="#rim" fill="#404040"><set attributeName="fill" to="#808080" begin="zoomminus.mouseover" end="zoomminus.mouseout"/></use>
    <path d="M-4,0h8" fill="none" stroke="white" stroke-width="1.5" pointer-events="none"/>
  </g>
  <g id="arrowUp" transform="translate(30 24)">
    <use xlink:href="#rim"/>
    <path pointer-events="none" fill="none" stroke="white" stroke-width="1.5" d="M0,-3.0v7 M-2.5,-0.5L0,-3.0L2.5,-0.5"/>
  </g>
  <g id="arrowRight" transform="rotate(90) translate(36 -43)">
    <use xlink:href="#rim"/>
    <path pointer-events="none" fill="none" stroke="white" stroke-width="1.5" d="M0,-3.0v7 M-2.5,-0.5L0,-3.0L2.5,-0.5"/>
  </g>
  <g id="arrowDown" transform="rotate(180) translate(-30 -48)">
    <use xlink:href="#rim"/>
    <path pointer-events="none" fill="none" stroke="white" stroke-width="1.5" d="M0,-3.0v7 M-2.5,-0.5L0,-3.0L2.5,-0.5"/>
  </g>
  <g id="arrowLeft" transform="rotate(270) translate(-36 17)">
    <use xlink:href="#rim"/>
    <path pointer-events="none" fill="none" stroke="white" stroke-width="1.5" d="M0,-3.0v7 M-2.5,-0.5L0,-3.0L2.5,-0.5"/>
  </g>
  <g id="resetDef">
    <use xlink:href="#rim2" fill="#404040"><set attributeName="fill" to="#808080" begin="reset.mouseover" end="reset.mouseout"/></use>
  </g>
</defs>
<script type="application/ecmascript">
var viewWidth = 1368;
var viewHeight = 368;
var sectionId = 'dynsection-0';
</script>
<script type="application/ecmascript" xlink:href="../../svg.min.js"/>
<svg id="graph" class="graph">
<g id="viewport">
<title>src/include/storage/index/index.h</title>
<!-- Node1 -->
<g id="Node000001" class="node">
<title>Node1</title>
<g id="a_Node000001"><a xlink:title=" ">
<polygon fill="#999999" stroke="#666666" points="530.5,-360 421.5,-360 421.5,-330 530.5,-330 530.5,-360"/>
<text text-anchor="start" x="429.5" y="-348" font-family="Helvetica,sans-Serif" font-size="10.00">src/include/storage</text>
<text text-anchor="middle" x="476" y="-337" font-family="Helvetica,sans-Serif" font-size="10.00">/index/index.h</text>
</a>
</g>
</g>
<!-- Node2 -->
<g id="Node000002" class="node">
<title>Node2</title>
<g id="a_Node000002"><a xlink:title=" ">
<polygon fill="#e0e0e0" stroke="#999999" points="361,-74 303,-74 303,-55 361,-55 361,-74"/>
<text text-anchor="middle" x="332" y="-62" font-family="Helvetica,sans-Serif" font-size="10.00">memory</text>
</a>
</g>
</g>
<!-- Node1&#45;&gt;Node2 -->
<g id="edge1_Node000001_Node000002" class="edge">
<title>Node1&#45;&gt;Node2</title>
<g id="a_edge1_Node000001_Node000002"><a xlink:title=" ">
<path fill="none" stroke="#63b8ff" d="M436.95,-329.9C415.99,-321.3 390.37,-309.06 370,-294 343.44,-274.35 337.96,-266.73 320,-239 287.89,-189.42 265.55,-164.64 288,-110 292.81,-98.31 302.33,-88.05 311.3,-80.34"/>
<polygon fill="#63b8ff" stroke="#63b8ff" points="313.6,-82.98 319.22,-74 309.23,-77.51 313.6,-82.98"/>
</a>
</g>
</g>
<!-- Node3 -->
<g id="Node000003" class="node">
<title>Node3</title>
<g id="a_Node000003"><a xlink:title=" ">
<polygon fill="#e0e0e0" stroke="#999999" points="568,-19 524,-19 524,0 568,0 568,-19"/>
<text text-anchor="middle" x="546" y="-7" font-family="Helvetica,sans-Serif" font-size="10.00">string</text>
</a>
</g>
</g>
<!-- Node1&#45;&gt;Node3 -->
<g id="edge2_Node000001_Node000003" class="edge">
<title>Node1&#45;&gt;Node3</title>
<g id="a_edge2_Node000001_Node000003"><a xlink:title=" ">
<path fill="none" stroke="#63b8ff" d="M421.4,-342.43C296.37,-337.37 0,-316.31 0,-230.5 0,-230.5 0,-230.5 0,-118.5 0,-84.66 12.93,-72.32 42,-55 82.45,-30.9 408.69,-15.95 513.62,-11.73"/>
<polygon fill="#63b8ff" stroke="#63b8ff" points="514.05,-15.22 523.91,-11.33 513.78,-8.22 514.05,-15.22"/>
</a>
</g>
</g>
<!-- Node4 -->
<g id="Node000004" class="node">
<title>Node4</title>
<g id="a_Node000004"><a xlink:title=" ">
<polygon fill="#e0e0e0" stroke="#999999" points="360.5,-129 315.5,-129 315.5,-110 360.5,-110 360.5,-129"/>
<text text-anchor="middle" x="338" y="-117" font-family="Helvetica,sans-Serif" font-size="10.00">utility</text>
</a>
</g>
</g>
<!-- Node1&#45;&gt;Node4 -->
<g id="edge3_Node000001_Node000004" class="edge">
<title>Node1&#45;&gt;Node4</title>
<g id="a_edge3_Node000001_Node000004"><a xlink:title=" ">
<path fill="none" stroke="#63b8ff" d="M450.31,-329.95C409.8,-306.12 332.52,-253.52 302,-184 294.58,-167.09 307.27,-148.85 319.59,-136.28"/>
<polygon fill="#63b8ff" stroke="#63b8ff" points="322.16,-138.66 327.02,-129.24 317.35,-133.57 322.16,-138.66"/>
</a>
</g>
</g>
<!-- Node5 -->
<g id="Node000005" class="node">
<title>Node5</title>
<g id="a_Node000005"><a xlink:title=" ">
<polygon fill="#e0e0e0" stroke="#999999" points="777.5,-184 730.5,-184 730.5,-165 777.5,-165 777.5,-184"/>
<text text-anchor="middle" x="754" y="-172" font-family="Helvetica,sans-Serif" font-size="10.00">vector</text>
</a>
</g>
</g>
<!-- Node1&#45;&gt;Node5 -->
<g id="edge4_Node000001_Node000005" class="edge">
<title>Node1&#45;&gt;Node5</title>
<g id="a_edge4_Node000001_Node000005"><a xlink:title=" ">
<path fill="none" stroke="#63b8ff" d="M499.22,-329.92C551.68,-298.13 678.81,-221.07 731.03,-189.42"/>
<polygon fill="#63b8ff" stroke="#63b8ff" points="733.14,-192.24 739.87,-184.06 729.51,-186.25 733.14,-192.24"/>
</a>
</g>
</g>
<!-- Node6 -->
<g id="Node000006" class="node">
<title>Node6</title>
<g id="a_Node000006"><a xlink:href="../../d7/de3/schema_8h.html" target="_top" xlink:title=" ">
<polygon fill="white" stroke="#666666" points="527.5,-239 424.5,-239 424.5,-220 527.5,-220 527.5,-239"/>
<text text-anchor="middle" x="476" y="-227" font-family="Helvetica,sans-Serif" font-size="10.00">catalog/schema.h</text>
</a>
</g>
</g>
<!-- Node1&#45;&gt;Node6 -->
<g id="edge5_Node000001_Node000006" class="edge">
<title>Node1&#45;&gt;Node6</title>
<g id="a_edge5_Node000001_Node000006"><a xlink:title=" ">
<path fill="none" stroke="#63b8ff" d="M476,-329.63C476,-309.21 476,-271.81 476,-249.24"/>
<polygon fill="#63b8ff" stroke="#63b8ff" points="479.5,-249.23 476,-239.23 472.5,-249.23 479.5,-249.23"/>
</a>
</g>
</g>
<!-- Node22 -->
<g id="Node000022" class="node">
<title>Node22</title>
<g id="a_Node000022"><a xlink:href="../../d2/d20/tuple_8h.html" target="_top" xlink:title=" ">
<polygon fill="white" stroke="#666666" points="938,-294 820,-294 820,-275 938,-275 938,-294"/>
<text text-anchor="middle" x="879" y="-282" font-family="Helvetica,sans-Serif" font-size="10.00">storage/table/tuple.h</text>
</a>
</g>
</g>
<!-- Node1&#45;&gt;Node22 -->
<g id="edge35_Node000001_Node000022" class="edge">
<title>Node1&#45;&gt;Node22</title>
<g id="a_edge35_Node000001_Node000022"><a xlink:title=" ">
<path fill="none" stroke="#63b8ff" d="M530.77,-336.05C603.27,-325.53 731.12,-306.97 810.09,-295.5"/>
<polygon fill="#63b8ff" stroke="#63b8ff" points="811.03,-298.9 820.43,-294 810.03,-291.98 811.03,-298.9"/>
</a>
</g>
</g>
<!-- Node27 -->
<g id="Node000027" class="node">
<title>Node27</title>
<g id="a_Node000027"><a xlink:href="../../d4/d3f/value_8h.html" target="_top" xlink:title=" ">
<polygon fill="white" stroke="#666666" points="872.5,-184 795.5,-184 795.5,-165 872.5,-165 872.5,-184"/>
<text text-anchor="middle" x="834" y="-172" font-family="Helvetica,sans-Serif" font-size="10.00">type/value.h</text>
</a>
</g>
</g>
<!-- Node1&#45;&gt;Node27 -->
<g id="edge60_Node000001_Node000027" class="edge">
<title>Node1&#45;&gt;Node27</title>
<g id="a_edge60_Node000001_Node000027"><a xlink:title=" ">
<path fill="none" stroke="#63b8ff" d="M507.67,-329.98C529.93,-320.06 560.36,-306.39 587,-294 667.56,-256.54 762.06,-210.66 807.27,-188.59"/>
<polygon fill="#63b8ff" stroke="#63b8ff" points="808.95,-191.66 816.4,-184.12 805.88,-185.37 808.95,-191.66"/>
</a>
</g>
</g>
<!-- Node6&#45;&gt;Node2 -->
<g id="edge6_Node000006_Node000002" class="edge">
<title>Node6&#45;&gt;Node2</title>
<g id="a_edge6_Node000006_Node000002"><a xlink:title=" ">
<path fill="none" stroke="#63b8ff" d="M424.23,-221.97C378.8,-215.1 317.6,-202.66 302,-184 280.87,-158.73 287.45,-141.2 298,-110 301.56,-99.47 308.72,-89.48 315.55,-81.63"/>
<polygon fill="#63b8ff" stroke="#63b8ff" points="318.13,-84.01 322.39,-74.31 313.01,-79.23 318.13,-84.01"/>
</a>
</g>
</g>
<!-- Node6&#45;&gt;Node3 -->
<g id="edge8_Node000006_Node000003" class="edge">
<title>Node6&#45;&gt;Node3</title>
<g id="a_edge8_Node000006_Node000003"><a xlink:title=" ">
<path fill="none" stroke="#63b8ff" d="M424.23,-225.13C289.71,-214.6 -53.03,-175.5 57,-55 87.78,-21.29 409.31,-12.84 513.57,-10.98"/>
<polygon fill="#63b8ff" stroke="#63b8ff" points="513.86,-14.47 523.79,-10.8 513.74,-7.47 513.86,-14.47"/>
</a>
</g>
</g>
<!-- Node6&#45;&gt;Node5 -->
<g id="edge9_Node000006_Node000005" class="edge">
<title>Node6&#45;&gt;Node5</title>
<g id="a_edge9_Node000006_Node000005"><a xlink:title=" ">
<path fill="none" stroke="#63b8ff" d="M524.83,-219.99C573.39,-211.4 649.99,-197.5 716,-184 717.45,-183.7 718.93,-183.4 720.42,-183.08"/>
<polygon fill="#63b8ff" stroke="#63b8ff" points="721.28,-186.48 730.31,-180.94 719.8,-179.63 721.28,-186.48"/>
</a>
</g>
</g>
<!-- Node7 -->
<g id="Node000007" class="node">
<title>Node7</title>
<g id="a_Node000007"><a xlink:title=" ">
<polygon fill="#e0e0e0" stroke="#999999" points="367,-184 311,-184 311,-165 367,-165 367,-184"/>
<text text-anchor="middle" x="339" y="-172" font-family="Helvetica,sans-Serif" font-size="10.00">optional</text>
</a>
</g>
</g>
<!-- Node6&#45;&gt;Node7 -->
<g id="edge7_Node000006_Node000007" class="edge">
<title>Node6&#45;&gt;Node7</title>
<g id="a_edge7_Node000006_Node000007"><a xlink:title=" ">
<path fill="none" stroke="#63b8ff" d="M453.99,-219.98C431.55,-211.3 396.52,-197.75 371.01,-187.88"/>
<polygon fill="#63b8ff" stroke="#63b8ff" points="372,-184.51 361.41,-184.17 369.48,-191.04 372,-184.51"/>
</a>
</g>
</g>
<!-- Node8 -->
<g id="Node000008" class="node">
<title>Node8</title>
<g id="a_Node000008"><a xlink:href="../../dc/df8/column_8h.html" target="_top" xlink:title=" ">
<polygon fill="white" stroke="#666666" points="486.5,-184 385.5,-184 385.5,-165 486.5,-165 486.5,-184"/>
<text text-anchor="middle" x="436" y="-172" font-family="Helvetica,sans-Serif" font-size="10.00">catalog/column.h</text>
</a>
</g>
</g>
<!-- Node6&#45;&gt;Node8 -->
<g id="edge10_Node000006_Node000008" class="edge">
<title>Node6&#45;&gt;Node8</title>
<g id="a_edge10_Node000006_Node000008"><a xlink:title=" ">
<path fill="none" stroke="#63b8ff" d="M469.39,-219.75C463.74,-212.26 455.46,-201.28 448.55,-192.13"/>
<polygon fill="#63b8ff" stroke="#63b8ff" points="451.3,-189.96 442.48,-184.09 445.71,-194.18 451.3,-189.96"/>
</a>
</g>
</g>
<!-- Node11 -->
<g id="Node000011" class="node">
<title>Node11</title>
<g id="a_Node000011"><a xlink:href="../../dd/d2d/exception_8h.html" target="_top" xlink:title=" ">
<polygon fill="white" stroke="#666666" points="574.5,-129 455.5,-129 455.5,-110 574.5,-110 574.5,-129"/>
<text text-anchor="middle" x="515" y="-117" font-family="Helvetica,sans-Serif" font-size="10.00">common/exception.h</text>
</a>
</g>
</g>
<!-- Node6&#45;&gt;Node11 -->
<g id="edge33_Node000006_Node000011" class="edge">
<title>Node6&#45;&gt;Node11</title>
<g id="a_edge33_Node000006_Node000011"><a xlink:title=" ">
<path fill="none" stroke="#63b8ff" d="M480.04,-219.74C484.08,-210.84 490.34,-196.61 495,-184 500.52,-169.08 505.89,-151.84 509.67,-139.09"/>
<polygon fill="#63b8ff" stroke="#63b8ff" points="513.11,-139.8 512.55,-129.22 506.39,-137.84 513.11,-139.8"/>
</a>
</g>
</g>
<!-- Node17 -->
<g id="Node000017" class="node">
<title>Node17</title>
<g id="a_Node000017"><a xlink:href="../../df/def/type_8h.html" target="_top" xlink:title=" ">
<polygon fill="white" stroke="#666666" points="783,-74 711,-74 711,-55 783,-55 783,-74"/>
<text text-anchor="middle" x="747" y="-62" font-family="Helvetica,sans-Serif" font-size="10.00">type/type.h</text>
</a>
</g>
</g>
<!-- Node6&#45;&gt;Node17 -->
<g id="edge34_Node000006_Node000017" class="edge">
<title>Node6&#45;&gt;Node17</title>
<g id="a_edge34_Node000006_Node000017"><a xlink:title=" ">
<path fill="none" stroke="#63b8ff" d="M525.7,-219.91C579.89,-208.16 666.07,-182.14 720,-129 732.39,-116.79 739.41,-98.01 743.17,-84.03"/>
<polygon fill="#63b8ff" stroke="#63b8ff" points="746.63,-84.61 745.52,-74.07 739.81,-83 746.63,-84.61"/>
</a>
</g>
</g>
<!-- Node8&#45;&gt;Node2 -->
<g id="edge12_Node000008_Node000002" class="edge">
<title>Node8&#45;&gt;Node2</title>
<g id="a_edge12_Node000008_Node000002"><a xlink:title=" ">
<path fill="none" stroke="#63b8ff" d="M395.29,-164.97C361.26,-156.93 316.65,-143.9 306,-129 295.77,-114.69 305.99,-95.76 316.48,-82.3"/>
<polygon fill="#63b8ff" stroke="#63b8ff" points="319.41,-84.25 323.19,-74.35 314.06,-79.74 319.41,-84.25"/>
</a>
</g>
</g>
<!-- Node8&#45;&gt;Node3 -->
<g id="edge13_Node000008_Node000003" class="edge">
<title>Node8&#45;&gt;Node3</title>
<g id="a_edge13_Node000008_Node000003"><a xlink:title=" ">
<path fill="none" stroke="#63b8ff" d="M428.45,-164.68C418.77,-152.24 404.22,-128.93 413,-110 432.93,-67.02 482.05,-38.23 514.69,-23.11"/>
<polygon fill="#63b8ff" stroke="#63b8ff" points="516.13,-26.31 523.83,-19.04 513.27,-19.91 516.13,-26.31"/>
</a>
</g>
</g>
<!-- Node8&#45;&gt;Node4 -->
<g id="edge14_Node000008_Node000004" class="edge">
<title>Node8&#45;&gt;Node4</title>
<g id="a_edge14_Node000008_Node000004"><a xlink:title=" ">
<path fill="none" stroke="#63b8ff" d="M420.25,-164.98C404.77,-156.61 380.91,-143.7 362.86,-133.95"/>
<polygon fill="#63b8ff" stroke="#63b8ff" points="364.49,-130.85 354.03,-129.17 361.16,-137.01 364.49,-130.85"/>
</a>
</g>
</g>
<!-- Node9 -->
<g id="Node000009" class="node">
<title>Node9</title>
<g id="a_Node000009"><a xlink:title=" ">
<polygon fill="#e0e0e0" stroke="#999999" points="1217,-19 1167,-19 1167,0 1217,0 1217,-19"/>
<text text-anchor="middle" x="1192" y="-7" font-family="Helvetica,sans-Serif" font-size="10.00">cstdint</text>
</a>
</g>
</g>
<!-- Node8&#45;&gt;Node9 -->
<g id="edge11_Node000008_Node000009" class="edge">
<title>Node8&#45;&gt;Node9</title>
<g id="a_edge11_Node000008_Node000009"><a xlink:title=" ">
<path fill="none" stroke="#63b8ff" d="M436.19,-164.96C437.24,-141.75 443.81,-77.72 484,-55 542.85,-21.73 1021.52,-12.8 1156.61,-10.93"/>
<polygon fill="#63b8ff" stroke="#63b8ff" points="1156.87,-14.42 1166.82,-10.79 1156.77,-7.42 1156.87,-14.42"/>
</a>
</g>
</g>
<!-- Node10 -->
<g id="Node000010" class="node">
<title>Node10</title>
<g id="a_Node000010"><a xlink:title=" ">
<polygon fill="#e0e0e0" stroke="#999999" points="710.5,-129 631.5,-129 631.5,-110 710.5,-110 710.5,-129"/>
<text text-anchor="middle" x="671" y="-117" font-family="Helvetica,sans-Serif" font-size="10.00">fmt/format.h</text>
</a>
</g>
</g>
<!-- Node8&#45;&gt;Node10 -->
<g id="edge15_Node000008_Node000010" class="edge">
<title>Node8&#45;&gt;Node10</title>
<g id="a_edge15_Node000008_Node000010"><a xlink:title=" ">
<path fill="none" stroke="#63b8ff" d="M473.76,-164.98C514.32,-155.84 578.89,-141.27 623.03,-131.32"/>
<polygon fill="#63b8ff" stroke="#63b8ff" points="623.96,-134.7 632.95,-129.08 622.42,-127.87 623.96,-134.7"/>
</a>
</g>
</g>
<!-- Node8&#45;&gt;Node11 -->
<g id="edge16_Node000008_Node000011" class="edge">
<title>Node8&#45;&gt;Node11</title>
<g id="a_edge16_Node000008_Node000011"><a xlink:title=" ">
<path fill="none" stroke="#63b8ff" d="M448.69,-164.98C460.83,-156.84 479.36,-144.41 493.75,-134.76"/>
<polygon fill="#63b8ff" stroke="#63b8ff" points="495.72,-137.65 502.08,-129.17 491.82,-131.84 495.72,-137.65"/>
</a>
</g>
</g>
<!-- Node8&#45;&gt;Node17 -->
<g id="edge32_Node000008_Node000017" class="edge">
<title>Node8&#45;&gt;Node17</title>
<g id="a_edge32_Node000008_Node000017"><a xlink:title=" ">
<path fill="none" stroke="#63b8ff" d="M470.03,-164.95C500.37,-156.92 545.77,-143.95 584,-129 601.96,-121.98 605.23,-117.49 623,-110 652.08,-97.74 685.84,-85.77 710.78,-77.34"/>
<polygon fill="#63b8ff" stroke="#63b8ff" points="712.19,-80.56 720.56,-74.06 709.96,-73.92 712.19,-80.56"/>
</a>
</g>
</g>
<!-- Node19 -->
<g id="Node000019" class="node">
<title>Node19</title>
<g id="a_Node000019"><a xlink:href="../../de/d3c/macros_8h.html" target="_top" xlink:title=" ">
<polygon fill="white" stroke="#666666" points="173.5,-129 66.5,-129 66.5,-110 173.5,-110 173.5,-129"/>
<text text-anchor="middle" x="120" y="-117" font-family="Helvetica,sans-Serif" font-size="10.00">common/macros.h</text>
</a>
</g>
</g>
<!-- Node8&#45;&gt;Node19 -->
<g id="edge28_Node000008_Node000019" class="edge">
<title>Node8&#45;&gt;Node19</title>
<g id="a_edge28_Node000008_Node000019"><a xlink:title=" ">
<path fill="none" stroke="#63b8ff" d="M385.23,-164.98C329.57,-155.65 240.29,-140.67 180.9,-130.71"/>
<polygon fill="#63b8ff" stroke="#63b8ff" points="181.35,-127.24 170.91,-129.04 180.19,-134.14 181.35,-127.24"/>
</a>
</g>
</g>
<!-- Node11&#45;&gt;Node2 -->
<g id="edge21_Node000011_Node000002" class="edge">
<title>Node11&#45;&gt;Node2</title>
<g id="a_edge21_Node000011_Node000002"><a xlink:title=" ">
<path fill="none" stroke="#63b8ff" d="M485.6,-109.98C454.42,-100.96 405.04,-86.65 370.72,-76.71"/>
<polygon fill="#63b8ff" stroke="#63b8ff" points="371.61,-73.33 361.03,-73.91 369.66,-80.05 371.61,-73.33"/>
</a>
</g>
</g>
<!-- Node11&#45;&gt;Node3 -->
<g id="edge23_Node000011_Node000003" class="edge">
<title>Node11&#45;&gt;Node3</title>
<g id="a_edge23_Node000011_Node000003"><a xlink:title=" ">
<path fill="none" stroke="#63b8ff" d="M505.34,-109.82C492.91,-97.54 474.03,-74.43 484,-55 490.96,-41.44 504.19,-31.07 516.65,-23.78"/>
<polygon fill="#63b8ff" stroke="#63b8ff" points="518.35,-26.84 525.48,-19 515.02,-20.68 518.35,-26.84"/>
</a>
</g>
</g>
<!-- Node12 -->
<g id="Node000012" class="node">
<title>Node12</title>
<g id="a_Node000012"><a xlink:title=" ">
<polygon fill="#e0e0e0" stroke="#999999" points="1126,-74 1076,-74 1076,-55 1126,-55 1126,-74"/>
<text text-anchor="middle" x="1101" y="-62" font-family="Helvetica,sans-Serif" font-size="10.00">atomic</text>
</a>
</g>
</g>
<!-- Node11&#45;&gt;Node12 -->
<g id="edge17_Node000011_Node000012" class="edge">
<title>Node11&#45;&gt;Node12</title>
<g id="a_edge17_Node000011_Node000012"><a xlink:title=" ">
<path fill="none" stroke="#63b8ff" d="M574.74,-113.56C690.66,-103.95 942.35,-82.86 1029,-74 1040.89,-72.78 1053.86,-71.3 1065.48,-69.92"/>
<polygon fill="#63b8ff" stroke="#63b8ff" points="1066.19,-73.36 1075.7,-68.68 1065.35,-66.41 1066.19,-73.36"/>
</a>
</g>
</g>
<!-- Node13 -->
<g id="Node000013" class="node">
<title>Node13</title>
<g id="a_Node000013"><a xlink:title=" ">
<polygon fill="#e0e0e0" stroke="#999999" points="539,-74 493,-74 493,-55 539,-55 539,-74"/>
<text text-anchor="middle" x="516" y="-62" font-family="Helvetica,sans-Serif" font-size="10.00">cstdio</text>
</a>
</g>
</g>
<!-- Node11&#45;&gt;Node13 -->
<g id="edge18_Node000011_Node000013" class="edge">
<title>Node11&#45;&gt;Node13</title>
<g id="a_edge18_Node000011_Node000013"><a xlink:title=" ">
<path fill="none" stroke="#63b8ff" d="M515.17,-109.75C515.3,-102.8 515.48,-92.85 515.65,-84.13"/>
<polygon fill="#63b8ff" stroke="#63b8ff" points="519.15,-84.15 515.84,-74.09 512.15,-84.02 519.15,-84.15"/>
</a>
</g>
</g>
<!-- Node14 -->
<g id="Node000014" class="node">
<title>Node14</title>
<g id="a_Node000014"><a xlink:title=" ">
<polygon fill="#e0e0e0" stroke="#999999" points="606.5,-74 557.5,-74 557.5,-55 606.5,-55 606.5,-74"/>
<text text-anchor="middle" x="582" y="-62" font-family="Helvetica,sans-Serif" font-size="10.00">cstdlib</text>
</a>
</g>
</g>
<!-- Node11&#45;&gt;Node14 -->
<g id="edge19_Node000011_Node000014" class="edge">
<title>Node11&#45;&gt;Node14</title>
<g id="a_edge19_Node000011_Node000014"><a xlink:title=" ">
<path fill="none" stroke="#63b8ff" d="M525.76,-109.98C535.77,-102.07 550.89,-90.11 562.93,-80.58"/>
<polygon fill="#63b8ff" stroke="#63b8ff" points="565.37,-83.12 571.04,-74.17 561.03,-77.63 565.37,-83.12"/>
</a>
</g>
</g>
<!-- Node15 -->
<g id="Node000015" class="node">
<title>Node15</title>
<g id="a_Node000015"><a xlink:title=" ">
<polygon fill="#e0e0e0" stroke="#999999" points="685,-74 625,-74 625,-55 685,-55 685,-74"/>
<text text-anchor="middle" x="655" y="-62" font-family="Helvetica,sans-Serif" font-size="10.00">iostream</text>
</a>
</g>
</g>
<!-- Node11&#45;&gt;Node15 -->
<g id="edge20_Node000011_Node000015" class="edge">
<title>Node11&#45;&gt;Node15</title>
<g id="a_edge20_Node000011_Node000015"><a xlink:title=" ">
<path fill="none" stroke="#63b8ff" d="M537.49,-109.98C560.52,-101.27 596.54,-87.63 622.63,-77.75"/>
<polygon fill="#63b8ff" stroke="#63b8ff" points="623.98,-80.98 632.1,-74.17 621.51,-74.44 623.98,-80.98"/>
</a>
</g>
</g>
<!-- Node16 -->
<g id="Node000016" class="node">
<title>Node16</title>
<g id="a_Node000016"><a xlink:title=" ">
<polygon fill="#e0e0e0" stroke="#999999" points="284.5,-74 219.5,-74 219.5,-55 284.5,-55 284.5,-74"/>
<text text-anchor="middle" x="252" y="-62" font-family="Helvetica,sans-Serif" font-size="10.00">stdexcept</text>
</a>
</g>
</g>
<!-- Node11&#45;&gt;Node16 -->
<g id="edge22_Node000011_Node000016" class="edge">
<title>Node11&#45;&gt;Node16</title>
<g id="a_edge22_Node000011_Node000016"><a xlink:title=" ">
<path fill="none" stroke="#63b8ff" d="M472.63,-109.98C430.23,-101.45 362.84,-87.89 294.63,-74.12"/>
<polygon fill="#63b8ff" stroke="#63b8ff" points="295.05,-70.64 284.56,-72.09 293.67,-77.5 295.05,-70.64"/>
</a>
</g>
</g>
<!-- Node11&#45;&gt;Node17 -->
<g id="edge24_Node000011_Node000017" class="edge">
<title>Node11&#45;&gt;Node17</title>
<g id="a_edge24_Node000011_Node000017"><a xlink:title=" ">
<path fill="none" stroke="#63b8ff" d="M552.27,-109.98C592.8,-100.73 657.59,-85.93 701.18,-75.97"/>
<polygon fill="#63b8ff" stroke="#63b8ff" points="701.99,-79.37 710.96,-73.73 700.43,-72.55 701.99,-79.37"/>
</a>
</g>
</g>
<!-- Node17&#45;&gt;Node3 -->
<g id="edge26_Node000017_Node000003" class="edge">
<title>Node17&#45;&gt;Node3</title>
<g id="a_edge26_Node000017_Node000003"><a xlink:title=" ">
<path fill="none" stroke="#63b8ff" d="M714.71,-54.98C677.17,-45.09 615.61,-28.86 578.15,-18.98"/>
<polygon fill="#63b8ff" stroke="#63b8ff" points="578.82,-15.53 568.26,-16.37 577.03,-22.3 578.82,-15.53"/>
</a>
</g>
</g>
<!-- Node17&#45;&gt;Node9 -->
<g id="edge25_Node000017_Node000009" class="edge">
<title>Node17&#45;&gt;Node9</title>
<g id="a_edge25_Node000017_Node000009"><a xlink:title=" ">
<path fill="none" stroke="#63b8ff" d="M783.04,-59.21C866.79,-49.23 1073.71,-24.59 1156.71,-14.7"/>
<polygon fill="#63b8ff" stroke="#63b8ff" points="1157.38,-18.15 1166.89,-13.49 1156.55,-11.2 1157.38,-18.15"/>
</a>
</g>
</g>
<!-- Node18 -->
<g id="Node000018" class="node">
<title>Node18</title>
<g id="a_Node000018"><a xlink:href="../../dc/df2/type__id_8h.html" target="_top" xlink:title=" ">
<polygon fill="white" stroke="#666666" points="790,-19 704,-19 704,0 790,0 790,-19"/>
<text text-anchor="middle" x="747" y="-7" font-family="Helvetica,sans-Serif" font-size="10.00">type/type_id.h</text>
</a>
</g>
</g>
<!-- Node17&#45;&gt;Node18 -->
<g id="edge27_Node000017_Node000018" class="edge">
<title>Node17&#45;&gt;Node18</title>
<g id="a_edge27_Node000017_Node000018"><a xlink:title=" ">
<path fill="none" stroke="#63b8ff" d="M747,-54.75C747,-47.8 747,-37.85 747,-29.13"/>
<polygon fill="#63b8ff" stroke="#63b8ff" points="750.5,-29.09 747,-19.09 743.5,-29.09 750.5,-29.09"/>
</a>
</g>
</g>
<!-- Node19&#45;&gt;Node16 -->
<g id="edge31_Node000019_Node000016" class="edge">
<title>Node19&#45;&gt;Node16</title>
<g id="a_edge31_Node000019_Node000016"><a xlink:title=" ">
<path fill="none" stroke="#63b8ff" d="M141.21,-109.98C162.73,-101.34 196.28,-87.87 220.83,-78.02"/>
<polygon fill="#63b8ff" stroke="#63b8ff" points="222.43,-81.14 230.41,-74.17 219.82,-74.65 222.43,-81.14"/>
</a>
</g>
</g>
<!-- Node20 -->
<g id="Node000020" class="node">
<title>Node20</title>
<g id="a_Node000020"><a xlink:title=" ">
<polygon fill="#e0e0e0" stroke="#999999" points="118,-74 66,-74 66,-55 118,-55 118,-74"/>
<text text-anchor="middle" x="92" y="-62" font-family="Helvetica,sans-Serif" font-size="10.00">cassert</text>
</a>
</g>
</g>
<!-- Node19&#45;&gt;Node20 -->
<g id="edge29_Node000019_Node000020" class="edge">
<title>Node19&#45;&gt;Node20</title>
<g id="a_edge29_Node000019_Node000020"><a xlink:title=" ">
<path fill="none" stroke="#63b8ff" d="M115.38,-109.75C111.54,-102.49 105.98,-91.95 101.24,-82.98"/>
<polygon fill="#63b8ff" stroke="#63b8ff" points="104.3,-81.3 96.54,-74.09 98.11,-84.57 104.3,-81.3"/>
</a>
</g>
</g>
<!-- Node21 -->
<g id="Node000021" class="node">
<title>Node21</title>
<g id="a_Node000021"><a xlink:title=" ">
<polygon fill="#e0e0e0" stroke="#999999" points="201.5,-74 136.5,-74 136.5,-55 201.5,-55 201.5,-74"/>
<text text-anchor="middle" x="169" y="-62" font-family="Helvetica,sans-Serif" font-size="10.00">exception</text>
</a>
</g>
</g>
<!-- Node19&#45;&gt;Node21 -->
<g id="edge30_Node000019_Node000021" class="edge">
<title>Node19&#45;&gt;Node21</title>
<g id="a_edge30_Node000019_Node000021"><a xlink:title=" ">
<path fill="none" stroke="#63b8ff" d="M128.09,-109.75C135.16,-102.11 145.59,-90.82 154.15,-81.56"/>
<polygon fill="#63b8ff" stroke="#63b8ff" points="156.84,-83.81 161.06,-74.09 151.7,-79.06 156.84,-83.81"/>
</a>
</g>
</g>
<!-- Node22&#45;&gt;Node3 -->
<g id="edge36_Node000022_Node000003" class="edge">
<title>Node22&#45;&gt;Node3</title>
<g id="a_edge36_Node000022_Node000003"><a xlink:title=" ">
<path fill="none" stroke="#63b8ff" d="M892.51,-274.86C941.58,-242.56 1103.58,-127.03 1029,-55 1012.73,-39.29 683.5,-18.6 578.14,-12.36"/>
<polygon fill="#63b8ff" stroke="#63b8ff" points="578.28,-8.86 568.09,-11.77 577.87,-15.85 578.28,-8.86"/>
</a>
</g>
</g>
<!-- Node22&#45;&gt;Node5 -->
<g id="edge37_Node000022_Node000005" class="edge">
<title>Node22&#45;&gt;Node5</title>
<g id="a_edge37_Node000022_Node000005"><a xlink:title=" ">
<path fill="none" stroke="#63b8ff" d="M868.77,-274.66C847.51,-256.3 798.34,-213.81 771.79,-190.87"/>
<polygon fill="#63b8ff" stroke="#63b8ff" points="773.88,-188.05 764.02,-184.16 769.3,-193.34 773.88,-188.05"/>
</a>
</g>
</g>
<!-- Node22&#45;&gt;Node6 -->
<g id="edge38_Node000022_Node000006" class="edge">
<title>Node22&#45;&gt;Node6</title>
<g id="a_edge38_Node000022_Node000006"><a xlink:title=" ">
<path fill="none" stroke="#63b8ff" d="M819.97,-275.74C744.44,-265.8 614.22,-248.68 537.51,-238.59"/>
<polygon fill="#63b8ff" stroke="#63b8ff" points="537.88,-235.11 527.51,-237.27 536.97,-242.05 537.88,-235.11"/>
</a>
</g>
</g>
<!-- Node23 -->
<g id="Node000023" class="node">
<title>Node23</title>
<g id="a_Node000023"><a xlink:href="../../db/d16/config_8h.html" target="_top" xlink:title=" ">
<polygon fill="white" stroke="#666666" points="1359.5,-129 1258.5,-129 1258.5,-110 1359.5,-110 1359.5,-129"/>
<text text-anchor="middle" x="1309" y="-117" font-family="Helvetica,sans-Serif" font-size="10.00">common/config.h</text>
</a>
</g>
</g>
<!-- Node22&#45;&gt;Node23 -->
<g id="edge39_Node000022_Node000023" class="edge">
<title>Node22&#45;&gt;Node23</title>
<g id="a_edge39_Node000022_Node000023"><a xlink:title=" ">
<path fill="none" stroke="#63b8ff" d="M938.32,-275.24C983.55,-268.08 1047.05,-256.14 1101,-239 1158.46,-220.74 1173.06,-214.6 1225,-184 1249.41,-169.62 1275.05,-149.38 1291.49,-135.64"/>
<polygon fill="#63b8ff" stroke="#63b8ff" points="1293.82,-138.25 1299.19,-129.12 1289.3,-132.91 1293.82,-138.25"/>
</a>
</g>
</g>
<!-- Node25 -->
<g id="Node000025" class="node">
<title>Node25</title>
<g id="a_Node000025"><a xlink:href="../../d8/d5f/rid_8h.html" target="_top" xlink:title=" ">
<polygon fill="white" stroke="#666666" points="1216,-184 1132,-184 1132,-165 1216,-165 1216,-184"/>
<text text-anchor="middle" x="1174" y="-172" font-family="Helvetica,sans-Serif" font-size="10.00">common/rid.h</text>
</a>
</g>
</g>
<!-- Node22&#45;&gt;Node25 -->
<g id="edge43_Node000022_Node000025" class="edge">
<title>Node22&#45;&gt;Node25</title>
<g id="a_edge43_Node000022_Node000025"><a xlink:title=" ">
<path fill="none" stroke="#63b8ff" d="M936.13,-274.95C974.63,-268.03 1026.02,-256.52 1069,-239 1100.79,-226.04 1134.17,-204.24 1154.53,-189.86"/>
<polygon fill="#63b8ff" stroke="#63b8ff" points="1156.59,-192.69 1162.67,-184.01 1152.51,-187 1156.59,-192.69"/>
</a>
</g>
</g>
<!-- Node22&#45;&gt;Node27 -->
<g id="edge48_Node000022_Node000027" class="edge">
<title>Node22&#45;&gt;Node27</title>
<g id="a_edge48_Node000022_Node000027"><a xlink:title=" ">
<path fill="none" stroke="#63b8ff" d="M875.32,-274.66C867.96,-257.01 851.33,-217.09 841.56,-193.64"/>
<polygon fill="#63b8ff" stroke="#63b8ff" points="844.68,-192.04 837.61,-184.16 838.22,-194.74 844.68,-192.04"/>
</a>
</g>
</g>
<!-- Node23&#45;&gt;Node9 -->
<g id="edge42_Node000023_Node000009" class="edge">
<title>Node23&#45;&gt;Node9</title>
<g id="a_edge42_Node000023_Node000009"><a xlink:title=" ">
<path fill="none" stroke="#63b8ff" d="M1313.54,-109.79C1319.7,-96.65 1328.66,-71.52 1317,-55 1296.89,-26.5 1256.85,-16.15 1227.48,-12.44"/>
<polygon fill="#63b8ff" stroke="#63b8ff" points="1227.51,-8.93 1217.2,-11.36 1226.78,-15.89 1227.51,-8.93"/>
</a>
</g>
</g>
<!-- Node23&#45;&gt;Node12 -->
<g id="edge40_Node000023_Node000012" class="edge">
<title>Node23&#45;&gt;Node12</title>
<g id="a_edge40_Node000023_Node000012"><a xlink:title=" ">
<path fill="none" stroke="#63b8ff" d="M1275.58,-109.98C1237.31,-100.23 1174.91,-84.33 1135.99,-74.42"/>
<polygon fill="#63b8ff" stroke="#63b8ff" points="1136.71,-70.99 1126.16,-71.91 1134.99,-77.77 1136.71,-70.99"/>
</a>
</g>
</g>
<!-- Node24 -->
<g id="Node000024" class="node">
<title>Node24</title>
<g id="a_Node000024"><a xlink:title=" ">
<polygon fill="#e0e0e0" stroke="#999999" points="1308,-74 1258,-74 1258,-55 1308,-55 1308,-74"/>
<text text-anchor="middle" x="1283" y="-62" font-family="Helvetica,sans-Serif" font-size="10.00">chrono</text>
</a>
</g>
</g>
<!-- Node23&#45;&gt;Node24 -->
<g id="edge41_Node000023_Node000024" class="edge">
<title>Node23&#45;&gt;Node24</title>
<g id="a_edge41_Node000023_Node000024"><a xlink:title=" ">
<path fill="none" stroke="#63b8ff" d="M1304.71,-109.75C1301.19,-102.57 1296.09,-92.18 1291.72,-83.27"/>
<polygon fill="#63b8ff" stroke="#63b8ff" points="1294.76,-81.53 1287.21,-74.09 1288.48,-84.61 1294.76,-81.53"/>
</a>
</g>
</g>
<!-- Node25&#45;&gt;Node3 -->
<g id="edge46_Node000025_Node000003" class="edge">
<title>Node25&#45;&gt;Node3</title>
<g id="a_edge46_Node000025_Node000003"><a xlink:title=" ">
<path fill="none" stroke="#63b8ff" d="M1163.66,-164.83C1154.74,-156.64 1142.46,-143.48 1137,-129 1125.4,-98.21 1157.69,-78.82 1135,-55 1125.31,-44.83 700.63,-19.46 578.52,-12.37"/>
<polygon fill="#63b8ff" stroke="#63b8ff" points="578.5,-8.86 568.31,-11.78 578.09,-15.85 578.5,-8.86"/>
</a>
</g>
</g>
<!-- Node25&#45;&gt;Node9 -->
<g id="edge44_Node000025_Node000009" class="edge">
<title>Node25&#45;&gt;Node9</title>
<g id="a_edge44_Node000025_Node000009"><a xlink:title=" ">
<path fill="none" stroke="#63b8ff" d="M1184.44,-164.87C1193.42,-156.7 1205.74,-143.55 1211,-129 1223.34,-94.84 1210.07,-52.26 1200.34,-28.57"/>
<polygon fill="#63b8ff" stroke="#63b8ff" points="1203.42,-26.88 1196.23,-19.1 1197.01,-29.67 1203.42,-26.88"/>
</a>
</g>
</g>
<!-- Node25&#45;&gt;Node23 -->
<g id="edge47_Node000025_Node000023" class="edge">
<title>Node25&#45;&gt;Node23</title>
<g id="a_edge47_Node000025_Node000023"><a xlink:title=" ">
<path fill="none" stroke="#63b8ff" d="M1195.69,-164.98C1217.8,-156.3 1252.32,-142.75 1277.45,-132.88"/>
<polygon fill="#63b8ff" stroke="#63b8ff" points="1278.89,-136.08 1286.92,-129.17 1276.33,-129.57 1278.89,-136.08"/>
</a>
</g>
</g>
<!-- Node26 -->
<g id="Node000026" class="node">
<title>Node26</title>
<g id="a_Node000026"><a xlink:title=" ">
<polygon fill="#e0e0e0" stroke="#999999" points="1202,-129 1146,-129 1146,-110 1202,-110 1202,-129"/>
<text text-anchor="middle" x="1174" y="-117" font-family="Helvetica,sans-Serif" font-size="10.00">sstream</text>
</a>
</g>
</g>
<!-- Node25&#45;&gt;Node26 -->
<g id="edge45_Node000025_Node000026" class="edge">
<title>Node25&#45;&gt;Node26</title>
<g id="a_edge45_Node000025_Node000026"><a xlink:title=" ">
<path fill="none" stroke="#63b8ff" d="M1174,-164.75C1174,-157.8 1174,-147.85 1174,-139.13"/>
<polygon fill="#63b8ff" stroke="#63b8ff" points="1177.5,-139.09 1174,-129.09 1170.5,-139.09 1177.5,-139.09"/>
</a>
</g>
</g>
<!-- Node27&#45;&gt;Node2 -->
<g id="edge50_Node000027_Node000002" class="edge">
<title>Node27&#45;&gt;Node2</title>
<g id="a_edge50_Node000027_Node000002"><a xlink:title=" ">
<path fill="none" stroke="#63b8ff" d="M822.41,-164.97C802.57,-150.88 760.33,-122.97 720,-110 655.64,-89.3 456.08,-73.84 371.03,-68.03"/>
<polygon fill="#63b8ff" stroke="#63b8ff" points="371.22,-64.53 361.01,-67.35 370.75,-71.51 371.22,-64.53"/>
</a>
</g>
</g>
<!-- Node27&#45;&gt;Node3 -->
<g id="edge51_Node000027_Node000003" class="edge">
<title>Node27&#45;&gt;Node3</title>
<g id="a_edge51_Node000027_Node000003"><a xlink:title=" ">
<path fill="none" stroke="#63b8ff" d="M833.74,-164.7C832.56,-142.48 826.21,-83.84 792,-55 760.14,-28.14 637.64,-16.53 578.42,-12.41"/>
<polygon fill="#63b8ff" stroke="#63b8ff" points="578.35,-8.9 568.14,-11.73 577.88,-15.89 578.35,-8.9"/>
</a>
</g>
</g>
<!-- Node27&#45;&gt;Node4 -->
<g id="edge52_Node000027_Node000004" class="edge">
<title>Node27&#45;&gt;Node4</title>
<g id="a_edge52_Node000027_Node000004"><a xlink:title=" ">
<path fill="none" stroke="#63b8ff" d="M795.31,-166.25C792.5,-165.8 789.71,-165.38 787,-165 706.3,-153.72 460.23,-131.39 370.87,-123.41"/>
<polygon fill="#63b8ff" stroke="#63b8ff" points="371.04,-119.91 360.77,-122.51 370.42,-126.89 371.04,-119.91"/>
</a>
</g>
</g>
<!-- Node27&#45;&gt;Node10 -->
<g id="edge53_Node000027_Node000010" class="edge">
<title>Node27&#45;&gt;Node10</title>
<g id="a_edge53_Node000027_Node000010"><a xlink:title=" ">
<path fill="none" stroke="#63b8ff" d="M807.81,-164.98C780.56,-156.13 737.7,-142.19 707.22,-132.28"/>
<polygon fill="#63b8ff" stroke="#63b8ff" points="707.99,-128.85 697.39,-129.08 705.82,-135.5 707.99,-128.85"/>
</a>
</g>
</g>
<!-- Node27&#45;&gt;Node17 -->
<g id="edge59_Node000027_Node000017" class="edge">
<title>Node27&#45;&gt;Node17</title>
<g id="a_edge59_Node000027_Node000017"><a xlink:title=" ">
<path fill="none" stroke="#63b8ff" d="M828.9,-164.93C821.29,-152.39 806.21,-128.52 791,-110 782.74,-99.95 772.59,-89.56 764.11,-81.36"/>
<polygon fill="#63b8ff" stroke="#63b8ff" points="766.28,-78.59 756.62,-74.24 761.46,-83.66 766.28,-78.59"/>
</a>
</g>
</g>
<!-- Node28 -->
<g id="Node000028" class="node">
<title>Node28</title>
<g id="a_Node000028"><a xlink:title=" ">
<polygon fill="#e0e0e0" stroke="#999999" points="931,-129 881,-129 881,-110 931,-110 931,-129"/>
<text text-anchor="middle" x="906" y="-117" font-family="Helvetica,sans-Serif" font-size="10.00">cstring</text>
</a>
</g>
</g>
<!-- Node27&#45;&gt;Node28 -->
<g id="edge49_Node000027_Node000028" class="edge">
<title>Node27&#45;&gt;Node28</title>
<g id="a_edge49_Node000027_Node000028"><a xlink:title=" ">
<path fill="none" stroke="#63b8ff" d="M845.57,-164.98C856.42,-157 872.88,-144.88 885.88,-135.31"/>
<polygon fill="#63b8ff" stroke="#63b8ff" points="888.24,-137.92 894.22,-129.17 884.09,-132.28 888.24,-137.92"/>
</a>
</g>
</g>
<!-- Node29 -->
<g id="Node000029" class="node">
<title>Node29</title>
<g id="a_Node000029"><a xlink:href="../../d9/d86/limits_8h.html" target="_top" xlink:title=" ">
<polygon fill="white" stroke="#666666" points="1027,-129 949,-129 949,-110 1027,-110 1027,-129"/>
<text text-anchor="middle" x="988" y="-117" font-family="Helvetica,sans-Serif" font-size="10.00">type/limits.h</text>
</a>
</g>
</g>
<!-- Node27&#45;&gt;Node29 -->
<g id="edge54_Node000027_Node000029" class="edge">
<title>Node27&#45;&gt;Node29</title>
<g id="a_edge54_Node000027_Node000029"><a xlink:title=" ">
<path fill="none" stroke="#63b8ff" d="M858.74,-164.98C884.37,-156.16 924.63,-142.31 953.41,-132.41"/>
<polygon fill="#63b8ff" stroke="#63b8ff" points="954.75,-135.65 963.06,-129.08 952.47,-129.03 954.75,-135.65"/>
</a>
</g>
</g>
<!-- Node29&#45;&gt;Node9 -->
<g id="edge57_Node000029_Node000009" class="edge">
<title>Node29&#45;&gt;Node9</title>
<g id="a_edge57_Node000029_Node000009"><a xlink:title=" ">
<path fill="none" stroke="#63b8ff" d="M1027.27,-112.61C1058.37,-106.59 1101.93,-95.04 1135,-74 1153.87,-62 1170.3,-42.07 1180.61,-27.74"/>
<polygon fill="#63b8ff" stroke="#63b8ff" points="1183.66,-29.49 1186.47,-19.27 1177.9,-25.51 1183.66,-29.49"/>
</a>
</g>
</g>
<!-- Node30 -->
<g id="Node000030" class="node">
<title>Node30</title>
<g id="a_Node000030"><a xlink:title=" ">
<polygon fill="#e0e0e0" stroke="#999999" points="952,-74 908,-74 908,-55 952,-55 952,-74"/>
<text text-anchor="middle" x="930" y="-62" font-family="Helvetica,sans-Serif" font-size="10.00">cfloat</text>
</a>
</g>
</g>
<!-- Node29&#45;&gt;Node30 -->
<g id="edge55_Node000029_Node000030" class="edge">
<title>Node29&#45;&gt;Node30</title>
<g id="a_edge55_Node000029_Node000030"><a xlink:title=" ">
<path fill="none" stroke="#63b8ff" d="M978.68,-109.98C970.19,-102.23 957.44,-90.58 947.12,-81.14"/>
<polygon fill="#63b8ff" stroke="#63b8ff" points="949.23,-78.33 939.49,-74.17 944.51,-83.5 949.23,-78.33"/>
</a>
</g>
</g>
<!-- Node31 -->
<g id="Node000031" class="node">
<title>Node31</title>
<g id="a_Node000031"><a xlink:title=" ">
<polygon fill="#e0e0e0" stroke="#999999" points="1020,-74 970,-74 970,-55 1020,-55 1020,-74"/>
<text text-anchor="middle" x="995" y="-62" font-family="Helvetica,sans-Serif" font-size="10.00">climits</text>
</a>
</g>
</g>
<!-- Node29&#45;&gt;Node31 -->
<g id="edge56_Node000029_Node000031" class="edge">
<title>Node29&#45;&gt;Node31</title>
<g id="a_edge56_Node000029_Node000031"><a xlink:title=" ">
<path fill="none" stroke="#63b8ff" d="M989.16,-109.75C990.07,-102.8 991.39,-92.85 992.54,-84.13"/>
<polygon fill="#63b8ff" stroke="#63b8ff" points="996.03,-84.46 993.87,-74.09 989.09,-83.54 996.03,-84.46"/>
</a>
</g>
</g>
<!-- Node32 -->
<g id="Node000032" class="node">
<title>Node32</title>
<g id="a_Node000032"><a xlink:title=" ">
<polygon fill="#e0e0e0" stroke="#999999" points="890,-74 846,-74 846,-55 890,-55 890,-74"/>
<text text-anchor="middle" x="868" y="-62" font-family="Helvetica,sans-Serif" font-size="10.00">limits</text>
</a>
</g>
</g>
<!-- Node29&#45;&gt;Node32 -->
<g id="edge58_Node000029_Node000032" class="edge">
<title>Node29&#45;&gt;Node32</title>
<g id="a_edge58_Node000029_Node000032"><a xlink:title=" ">
<path fill="none" stroke="#63b8ff" d="M968.72,-109.98C949.33,-101.42 919.19,-88.11 896.93,-78.28"/>
<polygon fill="#63b8ff" stroke="#63b8ff" points="898.19,-75.01 887.63,-74.17 895.36,-81.41 898.19,-75.01"/>
</a>
</g>
</g>
</g>
</svg>

<g id="navigator" transform="translate(0 0)" fill="#404254">
  <rect fill="#f2f5e9" fill-opacity="0.5" stroke="#606060" stroke-width=".5" x="0" y="0" width="60" height="60"/>
  <use id="zoomplus" xlink:href="#zoomPlus" x="17" y="9" onmousedown="handleZoom(evt,'in')"/>
  <use id="zoomminus" xlink:href="#zoomMin" x="42" y="9" onmousedown="handleZoom(evt,'out')"/>
  <use id="reset" xlink:href="#resetDef" x="30" y="36" onmousedown="handleReset()"/>
   <use id="arrowup" xlink:href="#arrowUp" x="0" y="0" onmousedown="handlePan(0,-1)"/>
  <use id="arrowright" xlink:href="#arrowRight" x="0" y="0" onmousedown="handlePan(1,0)"/>
  <use id="arrowdown" xlink:href="#arrowDown" x="0" y="0" onmousedown="handlePan(0,1)"/>
  <use id="arrowleft" xlink:href="#arrowLeft" x="0" y="0" onmousedown="handlePan(-1,0)"/>
</g>
<svg viewBox="0 0 15 15" width="100%" height="30px" preserveAspectRatio="xMaxYMin meet">
 <g id="arrow_out" transform="scale(0.3 0.3)">
  <a xlink:href="index_8h__incl_org.svg" target="_base">
   <rect id="button" ry="5" rx="5" y="6" x="6" height="38" width="38"
        fill="#f2f5e9" fill-opacity="0.5" stroke="#606060" stroke-width="1.0"/>
   <path id="arrow"
     d="M 11.500037,31.436501 C 11.940474,20.09759 22.043105,11.32322 32.158766,21.979434 L 37.068811,17.246167 C 37.068811,17.246167 37.088388,32 37.088388,32 L 22.160133,31.978069 C 22.160133,31.978069 26.997745,27.140456 26.997745,27.140456 C 18.528582,18.264221 13.291696,25.230495 11.500037,31.436501 z"
     style="fill:#404040;"/>
  </a>
 </g>
</svg>

<style type='text/css'>
<![CDATA[
[data-mouse-over-selected='false'] { opacity: 0.7; }
[data-mouse-over-selected='true']  { opacity: 1.0; }
]]>
</style>
<script type="application/ecmascript"><![CDATA[
document.addEventListener('DOMContentLoaded', (event) => {
  highlightEdges();
  highlightAdjacentNodes();
});
]]></script>
</svg>
