<?xml version="1.0" encoding="UTF-8" standalone="no"?>
<!DOCTYPE svg PUBLIC "-//W3C//DTD SVG 1.1//EN"
 "http://www.w3.org/Graphics/SVG/1.1/DTD/svg11.dtd">
<!-- Generated by graphviz version 2.43.0 (0)
 -->
<!-- Title: src/include/binder/expressions/bound_window.h Pages: 1 -->
<!--zoomable 258 -->

<svg id="main" version="1.1" xmlns="http://www.w3.org/2000/svg" xmlns:xlink="http://www.w3.org/1999/xlink" xml:space="preserve" onload="init(evt)">
<style type="text/css"><![CDATA[
.node, .edge {opacity: 0.7;}
.node.selected, .edge.selected {opacity: 1;}
.edge:hover path { stroke: red; }
.edge:hover polygon { stroke: red; fill: red; }
]]></style>

<defs>
  <circle id="rim" cx="0" cy="0" r="7"/>
  <circle id="rim2" cx="0" cy="0" r="3.5"/>
  <g id="zoomPlus">
    <use xlink:href="#rim" fill="#404040"><set attributeName="fill" to="#808080" begin="zoomplus.mouseover" end="zoomplus.mouseout"/></use>
    <path d="M-4,0h8M0,-4v8" fill="none" stroke="white" stroke-width="1.5" pointer-events="none"/>
  </g>
  <g id="zoomMin">
    <use xlink:href="#rim" fill="#404040"><set attributeName="fill" to="#808080" begin="zoomminus.mouseover" end="zoomminus.mouseout"/></use>
    <path d="M-4,0h8" fill="none" stroke="white" stroke-width="1.5" pointer-events="none"/>
  </g>
  <g id="arrowUp" transform="translate(30 24)">
    <use xlink:href="#rim"/>
    <path pointer-events="none" fill="none" stroke="white" stroke-width="1.5" d="M0,-3.0v7 M-2.5,-0.5L0,-3.0L2.5,-0.5"/>
  </g>
  <g id="arrowRight" transform="rotate(90) translate(36 -43)">
    <use xlink:href="#rim"/>
    <path pointer-events="none" fill="none" stroke="white" stroke-width="1.5" d="M0,-3.0v7 M-2.5,-0.5L0,-3.0L2.5,-0.5"/>
  </g>
  <g id="arrowDown" transform="rotate(180) translate(-30 -48)">
    <use xlink:href="#rim"/>
    <path pointer-events="none" fill="none" stroke="white" stroke-width="1.5" d="M0,-3.0v7 M-2.5,-0.5L0,-3.0L2.5,-0.5"/>
  </g>
  <g id="arrowLeft" transform="rotate(270) translate(-36 17)">
    <use xlink:href="#rim"/>
    <path pointer-events="none" fill="none" stroke="white" stroke-width="1.5" d="M0,-3.0v7 M-2.5,-0.5L0,-3.0L2.5,-0.5"/>
  </g>
  <g id="resetDef">
    <use xlink:href="#rim2" fill="#404040"><set attributeName="fill" to="#808080" begin="reset.mouseover" end="reset.mouseout"/></use>
  </g>
</defs>
<script type="application/ecmascript">
var viewWidth = 1511;
var viewHeight = 258;
var sectionId = 'dynsection-0';
</script>
<script type="application/ecmascript" xlink:href="../../svg.min.js"/>
<svg id="graph" class="graph">
<g id="viewport">
<title>src/include/binder/expressions/bound_window.h</title>
<!-- Node1 -->
<g id="Node000001" class="node">
<title>Node1</title>
<g id="a_Node000001"><a xlink:title=" ">
<polygon fill="#999999" stroke="#666666" points="866.5,-250 704.5,-250 704.5,-220 866.5,-220 866.5,-250"/>
<text text-anchor="start" x="712.5" y="-238" font-family="Helvetica,sans-Serif" font-size="10.00">src/include/binder</text>
<text text-anchor="middle" x="785.5" y="-227" font-family="Helvetica,sans-Serif" font-size="10.00">/expressions/bound_window.h</text>
</a>
</g>
</g>
<!-- Node2 -->
<g id="Node000002" class="node">
<title>Node2</title>
<g id="a_Node000002"><a xlink:title=" ">
<polygon fill="#e0e0e0" stroke="#999999" points="318.5,-74 260.5,-74 260.5,-55 318.5,-55 318.5,-74"/>
<text text-anchor="middle" x="289.5" y="-62" font-family="Helvetica,sans-Serif" font-size="10.00">memory</text>
</a>
</g>
</g>
<!-- Node1&#45;&gt;Node2 -->
<g id="edge1_Node000001_Node000002" class="edge">
<title>Node1&#45;&gt;Node2</title>
<g id="a_edge1_Node000001_Node000002"><a xlink:title=" ">
<path fill="none" stroke="#63b8ff" d="M704.46,-229.91C580.75,-222.96 356.04,-207.3 327.5,-184 297.47,-159.48 290.87,-111.11 289.61,-84.38"/>
<polygon fill="#63b8ff" stroke="#63b8ff" points="293.1,-83.98 289.34,-74.07 286.1,-84.16 293.1,-83.98"/>
</a>
</g>
</g>
<!-- Node3 -->
<g id="Node000003" class="node">
<title>Node3</title>
<g id="a_Node000003"><a xlink:title=" ">
<polygon fill="#e0e0e0" stroke="#999999" points="778.5,-184 722.5,-184 722.5,-165 778.5,-165 778.5,-184"/>
<text text-anchor="middle" x="750.5" y="-172" font-family="Helvetica,sans-Serif" font-size="10.00">optional</text>
</a>
</g>
</g>
<!-- Node1&#45;&gt;Node3 -->
<g id="edge2_Node000001_Node000003" class="edge">
<title>Node1&#45;&gt;Node3</title>
<g id="a_edge2_Node000001_Node000003"><a xlink:title=" ">
<path fill="none" stroke="#63b8ff" d="M777.03,-219.84C772.21,-211.78 766.13,-201.62 761,-193.06"/>
<polygon fill="#63b8ff" stroke="#63b8ff" points="763.88,-191.05 755.74,-184.27 757.88,-194.64 763.88,-191.05"/>
</a>
</g>
</g>
<!-- Node4 -->
<g id="Node000004" class="node">
<title>Node4</title>
<g id="a_Node000004"><a xlink:title=" ">
<polygon fill="#e0e0e0" stroke="#999999" points="444.5,-19 400.5,-19 400.5,0 444.5,0 444.5,-19"/>
<text text-anchor="middle" x="422.5" y="-7" font-family="Helvetica,sans-Serif" font-size="10.00">string</text>
</a>
</g>
</g>
<!-- Node1&#45;&gt;Node4 -->
<g id="edge3_Node000001_Node000004" class="edge">
<title>Node1&#45;&gt;Node4</title>
<g id="a_edge3_Node000001_Node000004"><a xlink:title=" ">
<path fill="none" stroke="#63b8ff" d="M752.55,-219.95C737.77,-211.78 721.82,-199.91 713.5,-184 686.9,-133.14 756.96,-98.49 719.5,-55 685.67,-15.72 525.18,-10.61 455.23,-10.29"/>
<polygon fill="#63b8ff" stroke="#63b8ff" points="454.81,-6.79 444.81,-10.28 454.8,-13.79 454.81,-6.79"/>
</a>
</g>
</g>
<!-- Node5 -->
<g id="Node000005" class="node">
<title>Node5</title>
<g id="a_Node000005"><a xlink:title=" ">
<polygon fill="#e0e0e0" stroke="#999999" points="656,-129 611,-129 611,-110 656,-110 656,-129"/>
<text text-anchor="middle" x="633.5" y="-117" font-family="Helvetica,sans-Serif" font-size="10.00">utility</text>
</a>
</g>
</g>
<!-- Node1&#45;&gt;Node5 -->
<g id="edge4_Node000001_Node000005" class="edge">
<title>Node1&#45;&gt;Node5</title>
<g id="a_edge4_Node000001_Node000005"><a xlink:title=" ">
<path fill="none" stroke="#63b8ff" d="M744.43,-219.91C723.85,-211.55 699.36,-199.53 680.5,-184 665,-171.23 651.85,-152.29 643.44,-138.42"/>
<polygon fill="#63b8ff" stroke="#63b8ff" points="646.23,-136.26 638.18,-129.37 640.18,-139.78 646.23,-136.26"/>
</a>
</g>
</g>
<!-- Node6 -->
<g id="Node000006" class="node">
<title>Node6</title>
<g id="a_Node000006"><a xlink:title=" ">
<polygon fill="#e0e0e0" stroke="#999999" points="844,-184 797,-184 797,-165 844,-165 844,-184"/>
<text text-anchor="middle" x="820.5" y="-172" font-family="Helvetica,sans-Serif" font-size="10.00">vector</text>
</a>
</g>
</g>
<!-- Node1&#45;&gt;Node6 -->
<g id="edge5_Node000001_Node000006" class="edge">
<title>Node1&#45;&gt;Node6</title>
<g id="a_edge5_Node000001_Node000006"><a xlink:title=" ">
<path fill="none" stroke="#63b8ff" d="M793.97,-219.84C798.79,-211.78 804.87,-201.62 810,-193.06"/>
<polygon fill="#63b8ff" stroke="#63b8ff" points="813.12,-194.64 815.26,-184.27 807.12,-191.05 813.12,-194.64"/>
</a>
</g>
</g>
<!-- Node7 -->
<g id="Node000007" class="node">
<title>Node7</title>
<g id="a_Node000007"><a xlink:href="../../dc/d8b/bound__expression_8h.html" target="_top" xlink:title=" ">
<polygon fill="white" stroke="#666666" points="280.5,-129 132.5,-129 132.5,-110 280.5,-110 280.5,-129"/>
<text text-anchor="middle" x="206.5" y="-117" font-family="Helvetica,sans-Serif" font-size="10.00">binder/bound_expression.h</text>
</a>
</g>
</g>
<!-- Node1&#45;&gt;Node7 -->
<g id="edge6_Node000001_Node000007" class="edge">
<title>Node1&#45;&gt;Node7</title>
<g id="a_edge6_Node000001_Node000007"><a xlink:title=" ">
<path fill="none" stroke="#63b8ff" d="M704.41,-230.83C584.8,-225.29 367.38,-211.71 294.5,-184 266.61,-173.4 239.54,-151.61 222.96,-136.53"/>
<polygon fill="#63b8ff" stroke="#63b8ff" points="224.99,-133.63 215.29,-129.35 220.2,-138.74 224.99,-133.63"/>
</a>
</g>
</g>
<!-- Node13 -->
<g id="Node000013" class="node">
<title>Node13</title>
<g id="a_Node000013"><a xlink:href="../../df/d21/bound__order__by_8h.html" target="_top" xlink:title=" ">
<polygon fill="white" stroke="#666666" points="472.5,-184 336.5,-184 336.5,-165 472.5,-165 472.5,-184"/>
<text text-anchor="middle" x="404.5" y="-172" font-family="Helvetica,sans-Serif" font-size="10.00">binder/bound_order_by.h</text>
</a>
</g>
</g>
<!-- Node1&#45;&gt;Node13 -->
<g id="edge14_Node000001_Node000013" class="edge">
<title>Node1&#45;&gt;Node13</title>
<g id="a_edge14_Node000001_Node000013"><a xlink:title=" ">
<path fill="none" stroke="#63b8ff" d="M704.23,-221.52C634.43,-210.8 535.06,-195.55 470.19,-185.59"/>
<polygon fill="#63b8ff" stroke="#63b8ff" points="470.5,-182.09 460.09,-184.03 469.44,-189.01 470.5,-182.09"/>
</a>
</g>
</g>
<!-- Node22 -->
<g id="Node000022" class="node">
<title>Node22</title>
<g id="a_Node000022"><a xlink:title=" ">
<polygon fill="#e0e0e0" stroke="#999999" points="961,-184 862,-184 862,-165 961,-165 961,-184"/>
<text text-anchor="middle" x="911.5" y="-172" font-family="Helvetica,sans-Serif" font-size="10.00">nodes/nodes.hpp</text>
</a>
</g>
</g>
<!-- Node1&#45;&gt;Node22 -->
<g id="edge32_Node000001_Node000022" class="edge">
<title>Node1&#45;&gt;Node22</title>
<g id="a_edge32_Node000001_Node000022"><a xlink:title=" ">
<path fill="none" stroke="#63b8ff" d="M815.68,-219.99C836.33,-210.4 863.5,-197.79 883.63,-188.44"/>
<polygon fill="#63b8ff" stroke="#63b8ff" points="885.3,-191.52 892.89,-184.14 882.35,-185.18 885.3,-191.52"/>
</a>
</g>
</g>
<!-- Node23 -->
<g id="Node000023" class="node">
<title>Node23</title>
<g id="a_Node000023"><a xlink:title=" ">
<polygon fill="#e0e0e0" stroke="#999999" points="1105.5,-184 979.5,-184 979.5,-165 1105.5,-165 1105.5,-184"/>
<text text-anchor="middle" x="1042.5" y="-172" font-family="Helvetica,sans-Serif" font-size="10.00">nodes/parsenodes.hpp</text>
</a>
</g>
</g>
<!-- Node1&#45;&gt;Node23 -->
<g id="edge33_Node000001_Node000023" class="edge">
<title>Node1&#45;&gt;Node23</title>
<g id="a_edge33_Node000001_Node000023"><a xlink:title=" ">
<path fill="none" stroke="#63b8ff" d="M847.06,-219.99C892.47,-209.65 953.35,-195.79 995.02,-186.31"/>
<polygon fill="#63b8ff" stroke="#63b8ff" points="995.95,-189.69 1004.92,-184.05 994.4,-182.86 995.95,-189.69"/>
</a>
</g>
</g>
<!-- Node24 -->
<g id="Node000024" class="node">
<title>Node24</title>
<g id="a_Node000024"><a xlink:title=" ">
<polygon fill="#e0e0e0" stroke="#999999" points="1245.5,-184 1123.5,-184 1123.5,-165 1245.5,-165 1245.5,-184"/>
<text text-anchor="middle" x="1184.5" y="-172" font-family="Helvetica,sans-Serif" font-size="10.00">nodes/primnodes.hpp</text>
</a>
</g>
</g>
<!-- Node1&#45;&gt;Node24 -->
<g id="edge34_Node000001_Node000024" class="edge">
<title>Node1&#45;&gt;Node24</title>
<g id="a_edge34_Node000001_Node000024"><a xlink:title=" ">
<path fill="none" stroke="#63b8ff" d="M866.72,-222.09C940.24,-211.31 1047.29,-195.62 1116.41,-185.48"/>
<polygon fill="#63b8ff" stroke="#63b8ff" points="1116.94,-188.94 1126.33,-184.03 1115.93,-182.02 1116.94,-188.94"/>
</a>
</g>
</g>
<!-- Node25 -->
<g id="Node000025" class="node">
<title>Node25</title>
<g id="a_Node000025"><a xlink:title=" ">
<polygon fill="#e0e0e0" stroke="#999999" points="1369.5,-184 1263.5,-184 1263.5,-165 1369.5,-165 1369.5,-184"/>
<text text-anchor="middle" x="1316.5" y="-172" font-family="Helvetica,sans-Serif" font-size="10.00">pg_definitions.hpp</text>
</a>
</g>
</g>
<!-- Node1&#45;&gt;Node25 -->
<g id="edge35_Node000001_Node000025" class="edge">
<title>Node1&#45;&gt;Node25</title>
<g id="a_edge35_Node000001_Node000025"><a xlink:title=" ">
<path fill="none" stroke="#63b8ff" d="M866.5,-226.11C957.86,-217.04 1111.16,-201.32 1253.21,-184.13"/>
<polygon fill="#63b8ff" stroke="#63b8ff" points="1253.91,-187.57 1263.41,-182.88 1253.06,-180.62 1253.91,-187.57"/>
</a>
</g>
</g>
<!-- Node26 -->
<g id="Node000026" class="node">
<title>Node26</title>
<g id="a_Node000026"><a xlink:title=" ">
<polygon fill="#e0e0e0" stroke="#999999" points="1503,-184 1388,-184 1388,-165 1503,-165 1503,-184"/>
<text text-anchor="middle" x="1445.5" y="-172" font-family="Helvetica,sans-Serif" font-size="10.00">postgres_parser.hpp</text>
</a>
</g>
</g>
<!-- Node1&#45;&gt;Node26 -->
<g id="edge36_Node000001_Node000026" class="edge">
<title>Node1&#45;&gt;Node26</title>
<g id="a_edge36_Node000001_Node000026"><a xlink:title=" ">
<path fill="none" stroke="#63b8ff" d="M866.65,-228.24C978.96,-220.04 1188.34,-203.86 1377.63,-184.05"/>
<polygon fill="#63b8ff" stroke="#63b8ff" points="1378.2,-187.51 1387.77,-182.98 1377.46,-180.55 1378.2,-187.51"/>
</a>
</g>
</g>
<!-- Node7&#45;&gt;Node2 -->
<g id="edge7_Node000007_Node000002" class="edge">
<title>Node7&#45;&gt;Node2</title>
<g id="a_edge7_Node000007_Node000002"><a xlink:title=" ">
<path fill="none" stroke="#63b8ff" d="M219.84,-109.98C232.59,-101.84 252.05,-89.41 267.17,-79.76"/>
<polygon fill="#63b8ff" stroke="#63b8ff" points="269.38,-82.5 275.92,-74.17 265.61,-76.6 269.38,-82.5"/>
</a>
</g>
</g>
<!-- Node7&#45;&gt;Node4 -->
<g id="edge8_Node000007_Node000004" class="edge">
<title>Node7&#45;&gt;Node4</title>
<g id="a_edge8_Node000007_Node000004"><a xlink:title=" ">
<path fill="none" stroke="#63b8ff" d="M210.32,-109.61C216.75,-95.75 231.04,-69.13 251.5,-55 293.66,-25.88 353.59,-15.82 390.16,-12.34"/>
<polygon fill="#63b8ff" stroke="#63b8ff" points="390.6,-15.81 400.27,-11.49 390.01,-8.84 390.6,-15.81"/>
</a>
</g>
</g>
<!-- Node8 -->
<g id="Node000008" class="node">
<title>Node8</title>
<g id="a_Node000008"><a xlink:href="../../de/d3c/macros_8h.html" target="_top" xlink:title=" ">
<polygon fill="white" stroke="#666666" points="204,-74 97,-74 97,-55 204,-55 204,-74"/>
<text text-anchor="middle" x="150.5" y="-62" font-family="Helvetica,sans-Serif" font-size="10.00">common/macros.h</text>
</a>
</g>
</g>
<!-- Node7&#45;&gt;Node8 -->
<g id="edge9_Node000007_Node000008" class="edge">
<title>Node7&#45;&gt;Node8</title>
<g id="a_edge9_Node000007_Node000008"><a xlink:title=" ">
<path fill="none" stroke="#63b8ff" d="M197.5,-109.98C189.31,-102.23 176.99,-90.58 167.03,-81.14"/>
<polygon fill="#63b8ff" stroke="#63b8ff" points="169.33,-78.5 159.66,-74.17 164.52,-83.59 169.33,-78.5"/>
</a>
</g>
</g>
<!-- Node12 -->
<g id="Node000012" class="node">
<title>Node12</title>
<g id="a_Node000012"><a xlink:title=" ">
<polygon fill="#e0e0e0" stroke="#999999" points="79,-74 0,-74 0,-55 79,-55 79,-74"/>
<text text-anchor="middle" x="39.5" y="-62" font-family="Helvetica,sans-Serif" font-size="10.00">fmt/format.h</text>
</a>
</g>
</g>
<!-- Node7&#45;&gt;Node12 -->
<g id="edge13_Node000007_Node000012" class="edge">
<title>Node7&#45;&gt;Node12</title>
<g id="a_edge13_Node000007_Node000012"><a xlink:title=" ">
<path fill="none" stroke="#63b8ff" d="M179.67,-109.98C151.63,-101.09 107.45,-87.07 76.2,-77.15"/>
<polygon fill="#63b8ff" stroke="#63b8ff" points="77.13,-73.77 66.54,-74.08 75.01,-80.44 77.13,-73.77"/>
</a>
</g>
</g>
<!-- Node9 -->
<g id="Node000009" class="node">
<title>Node9</title>
<g id="a_Node000009"><a xlink:title=" ">
<polygon fill="#e0e0e0" stroke="#999999" points="206.5,-19 154.5,-19 154.5,0 206.5,0 206.5,-19"/>
<text text-anchor="middle" x="180.5" y="-7" font-family="Helvetica,sans-Serif" font-size="10.00">cassert</text>
</a>
</g>
</g>
<!-- Node8&#45;&gt;Node9 -->
<g id="edge10_Node000008_Node000009" class="edge">
<title>Node8&#45;&gt;Node9</title>
<g id="a_edge10_Node000008_Node000009"><a xlink:title=" ">
<path fill="none" stroke="#63b8ff" d="M155.45,-54.75C159.56,-47.49 165.53,-36.95 170.6,-27.98"/>
<polygon fill="#63b8ff" stroke="#63b8ff" points="173.76,-29.52 175.64,-19.09 167.67,-26.07 173.76,-29.52"/>
</a>
</g>
</g>
<!-- Node10 -->
<g id="Node000010" class="node">
<title>Node10</title>
<g id="a_Node000010"><a xlink:title=" ">
<polygon fill="#e0e0e0" stroke="#999999" points="136,-19 71,-19 71,0 136,0 136,-19"/>
<text text-anchor="middle" x="103.5" y="-7" font-family="Helvetica,sans-Serif" font-size="10.00">exception</text>
</a>
</g>
</g>
<!-- Node8&#45;&gt;Node10 -->
<g id="edge11_Node000008_Node000010" class="edge">
<title>Node8&#45;&gt;Node10</title>
<g id="a_edge11_Node000008_Node000010"><a xlink:title=" ">
<path fill="none" stroke="#63b8ff" d="M142.74,-54.75C136.03,-47.18 126.16,-36.05 117.99,-26.84"/>
<polygon fill="#63b8ff" stroke="#63b8ff" points="120.37,-24.25 111.12,-19.09 115.13,-28.89 120.37,-24.25"/>
</a>
</g>
</g>
<!-- Node11 -->
<g id="Node000011" class="node">
<title>Node11</title>
<g id="a_Node000011"><a xlink:title=" ">
<polygon fill="#e0e0e0" stroke="#999999" points="320,-19 255,-19 255,0 320,0 320,-19"/>
<text text-anchor="middle" x="287.5" y="-7" font-family="Helvetica,sans-Serif" font-size="10.00">stdexcept</text>
</a>
</g>
</g>
<!-- Node8&#45;&gt;Node11 -->
<g id="edge12_Node000008_Node000011" class="edge">
<title>Node8&#45;&gt;Node11</title>
<g id="a_edge12_Node000008_Node000011"><a xlink:title=" ">
<path fill="none" stroke="#63b8ff" d="M172.51,-54.98C194.95,-46.3 229.98,-32.75 255.49,-22.88"/>
<polygon fill="#63b8ff" stroke="#63b8ff" points="257.02,-26.04 265.09,-19.17 254.5,-19.51 257.02,-26.04"/>
</a>
</g>
</g>
<!-- Node13&#45;&gt;Node2 -->
<g id="edge15_Node000013_Node000002" class="edge">
<title>Node13&#45;&gt;Node2</title>
<g id="a_edge15_Node000013_Node000002"><a xlink:title=" ">
<path fill="none" stroke="#63b8ff" d="M395.09,-164.66C375.62,-146.38 330.69,-104.18 306.18,-81.17"/>
<polygon fill="#63b8ff" stroke="#63b8ff" points="308.41,-78.45 298.72,-74.16 303.61,-83.56 308.41,-78.45"/>
</a>
</g>
</g>
<!-- Node13&#45;&gt;Node4 -->
<g id="edge16_Node000013_Node000004" class="edge">
<title>Node13&#45;&gt;Node4</title>
<g id="a_edge16_Node000013_Node000004"><a xlink:title=" ">
<path fill="none" stroke="#63b8ff" d="M405.45,-164.87C406.8,-152.66 409.33,-129.62 411.5,-110 414.61,-81.84 418.22,-49.2 420.43,-29.2"/>
<polygon fill="#63b8ff" stroke="#63b8ff" points="423.94,-29.34 421.56,-19.02 416.98,-28.57 423.94,-29.34"/>
</a>
</g>
</g>
<!-- Node13&#45;&gt;Node5 -->
<g id="edge17_Node000013_Node000005" class="edge">
<title>Node13&#45;&gt;Node5</title>
<g id="a_edge17_Node000013_Node000005"><a xlink:title=" ">
<path fill="none" stroke="#63b8ff" d="M441.29,-164.98C485.44,-154.77 558.78,-137.79 600.95,-128.03"/>
<polygon fill="#63b8ff" stroke="#63b8ff" points="601.76,-131.44 610.72,-125.77 600.18,-124.62 601.76,-131.44"/>
</a>
</g>
</g>
<!-- Node13&#45;&gt;Node7 -->
<g id="edge18_Node000013_Node000007" class="edge">
<title>Node13&#45;&gt;Node7</title>
<g id="a_edge18_Node000013_Node000007"><a xlink:title=" ">
<path fill="none" stroke="#63b8ff" d="M372.69,-164.98C339.01,-155.97 285.7,-141.7 248.58,-131.76"/>
<polygon fill="#63b8ff" stroke="#63b8ff" points="249.13,-128.29 238.56,-129.08 247.32,-135.05 249.13,-128.29"/>
</a>
</g>
</g>
<!-- Node13&#45;&gt;Node12 -->
<g id="edge31_Node000013_Node000012" class="edge">
<title>Node13&#45;&gt;Node12</title>
<g id="a_edge31_Node000013_Node000012"><a xlink:title=" ">
<path fill="none" stroke="#63b8ff" d="M336.39,-171.93C277.85,-168.46 192.25,-158.24 123.5,-129 96.85,-117.67 71.03,-96.05 55.2,-81.21"/>
<polygon fill="#63b8ff" stroke="#63b8ff" points="57.52,-78.58 47.89,-74.16 52.66,-83.62 57.52,-78.58"/>
</a>
</g>
</g>
<!-- Node14 -->
<g id="Node000014" class="node">
<title>Node14</title>
<g id="a_Node000014"><a xlink:href="../../dd/d2d/exception_8h.html" target="_top" xlink:title=" ">
<polygon fill="white" stroke="#666666" points="540,-129 421,-129 421,-110 540,-110 540,-129"/>
<text text-anchor="middle" x="480.5" y="-117" font-family="Helvetica,sans-Serif" font-size="10.00">common/exception.h</text>
</a>
</g>
</g>
<!-- Node13&#45;&gt;Node14 -->
<g id="edge19_Node000013_Node000014" class="edge">
<title>Node13&#45;&gt;Node14</title>
<g id="a_edge19_Node000013_Node000014"><a xlink:title=" ">
<path fill="none" stroke="#63b8ff" d="M416.71,-164.98C428.28,-156.92 445.88,-144.65 459.66,-135.03"/>
<polygon fill="#63b8ff" stroke="#63b8ff" points="461.87,-137.76 468.07,-129.17 457.86,-132.02 461.87,-137.76"/>
</a>
</g>
</g>
<!-- Node14&#45;&gt;Node2 -->
<g id="edge24_Node000014_Node000002" class="edge">
<title>Node14&#45;&gt;Node2</title>
<g id="a_edge24_Node000014_Node000002"><a xlink:title=" ">
<path fill="none" stroke="#63b8ff" d="M449.81,-109.98C416.75,-100.81 364.07,-86.19 328.19,-76.24"/>
<polygon fill="#63b8ff" stroke="#63b8ff" points="329.12,-72.86 318.55,-73.56 327.25,-79.61 329.12,-72.86"/>
</a>
</g>
</g>
<!-- Node14&#45;&gt;Node4 -->
<g id="edge26_Node000014_Node000004" class="edge">
<title>Node14&#45;&gt;Node4</title>
<g id="a_edge26_Node000014_Node000004"><a xlink:title=" ">
<path fill="none" stroke="#63b8ff" d="M470.85,-109.85C462.04,-101.48 449.26,-88.02 441.5,-74 433.75,-59.98 428.81,-42.43 425.91,-29.33"/>
<polygon fill="#63b8ff" stroke="#63b8ff" points="429.27,-28.29 423.88,-19.17 422.41,-29.67 429.27,-28.29"/>
</a>
</g>
</g>
<!-- Node14&#45;&gt;Node11 -->
<g id="edge25_Node000014_Node000011" class="edge">
<title>Node14&#45;&gt;Node11</title>
<g id="a_edge25_Node000014_Node000011"><a xlink:title=" ">
<path fill="none" stroke="#63b8ff" d="M465.03,-109.84C431.49,-91.08 351.87,-46.52 311.64,-24.01"/>
<polygon fill="#63b8ff" stroke="#63b8ff" points="313.21,-20.88 302.77,-19.05 309.79,-26.98 313.21,-20.88"/>
</a>
</g>
</g>
<!-- Node15 -->
<g id="Node000015" class="node">
<title>Node15</title>
<g id="a_Node000015"><a xlink:title=" ">
<polygon fill="#e0e0e0" stroke="#999999" points="578.5,-74 528.5,-74 528.5,-55 578.5,-55 578.5,-74"/>
<text text-anchor="middle" x="553.5" y="-62" font-family="Helvetica,sans-Serif" font-size="10.00">atomic</text>
</a>
</g>
</g>
<!-- Node14&#45;&gt;Node15 -->
<g id="edge20_Node000014_Node000015" class="edge">
<title>Node14&#45;&gt;Node15</title>
<g id="a_edge20_Node000014_Node000015"><a xlink:title=" ">
<path fill="none" stroke="#63b8ff" d="M492.23,-109.98C503.23,-102 519.92,-89.88 533.1,-80.31"/>
<polygon fill="#63b8ff" stroke="#63b8ff" points="535.52,-82.88 541.56,-74.17 531.41,-77.21 535.52,-82.88"/>
</a>
</g>
</g>
<!-- Node16 -->
<g id="Node000016" class="node">
<title>Node16</title>
<g id="a_Node000016"><a xlink:title=" ">
<polygon fill="#e0e0e0" stroke="#999999" points="642.5,-74 596.5,-74 596.5,-55 642.5,-55 642.5,-74"/>
<text text-anchor="middle" x="619.5" y="-62" font-family="Helvetica,sans-Serif" font-size="10.00">cstdio</text>
</a>
</g>
</g>
<!-- Node14&#45;&gt;Node16 -->
<g id="edge21_Node000014_Node000016" class="edge">
<title>Node14&#45;&gt;Node16</title>
<g id="a_edge21_Node000014_Node000016"><a xlink:title=" ">
<path fill="none" stroke="#63b8ff" d="M502.83,-109.98C525.7,-101.27 561.46,-87.63 587.36,-77.75"/>
<polygon fill="#63b8ff" stroke="#63b8ff" points="588.66,-81 596.76,-74.17 586.17,-74.46 588.66,-81"/>
</a>
</g>
</g>
<!-- Node17 -->
<g id="Node000017" class="node">
<title>Node17</title>
<g id="a_Node000017"><a xlink:title=" ">
<polygon fill="#e0e0e0" stroke="#999999" points="710,-74 661,-74 661,-55 710,-55 710,-74"/>
<text text-anchor="middle" x="685.5" y="-62" font-family="Helvetica,sans-Serif" font-size="10.00">cstdlib</text>
</a>
</g>
</g>
<!-- Node14&#45;&gt;Node17 -->
<g id="edge22_Node000014_Node000017" class="edge">
<title>Node14&#45;&gt;Node17</title>
<g id="a_edge22_Node000014_Node000017"><a xlink:title=" ">
<path fill="none" stroke="#63b8ff" d="M513.44,-109.98C551.15,-100.23 612.66,-84.33 651.01,-74.42"/>
<polygon fill="#63b8ff" stroke="#63b8ff" points="651.9,-77.8 660.7,-71.91 650.15,-71.03 651.9,-77.8"/>
</a>
</g>
</g>
<!-- Node18 -->
<g id="Node000018" class="node">
<title>Node18</title>
<g id="a_Node000018"><a xlink:title=" ">
<polygon fill="#e0e0e0" stroke="#999999" points="510.5,-74 450.5,-74 450.5,-55 510.5,-55 510.5,-74"/>
<text text-anchor="middle" x="480.5" y="-62" font-family="Helvetica,sans-Serif" font-size="10.00">iostream</text>
</a>
</g>
</g>
<!-- Node14&#45;&gt;Node18 -->
<g id="edge23_Node000014_Node000018" class="edge">
<title>Node14&#45;&gt;Node18</title>
<g id="a_edge23_Node000014_Node000018"><a xlink:title=" ">
<path fill="none" stroke="#63b8ff" d="M480.5,-109.75C480.5,-102.8 480.5,-92.85 480.5,-84.13"/>
<polygon fill="#63b8ff" stroke="#63b8ff" points="484,-84.09 480.5,-74.09 477,-84.09 484,-84.09"/>
</a>
</g>
</g>
<!-- Node19 -->
<g id="Node000019" class="node">
<title>Node19</title>
<g id="a_Node000019"><a xlink:href="../../df/def/type_8h.html" target="_top" xlink:title=" ">
<polygon fill="white" stroke="#666666" points="838.5,-74 766.5,-74 766.5,-55 838.5,-55 838.5,-74"/>
<text text-anchor="middle" x="802.5" y="-62" font-family="Helvetica,sans-Serif" font-size="10.00">type/type.h</text>
</a>
</g>
</g>
<!-- Node14&#45;&gt;Node19 -->
<g id="edge27_Node000014_Node000019" class="edge">
<title>Node14&#45;&gt;Node19</title>
<g id="a_edge27_Node000014_Node000019"><a xlink:title=" ">
<path fill="none" stroke="#63b8ff" d="M532.23,-109.98C594.12,-99.8 696.78,-82.9 756.17,-73.13"/>
<polygon fill="#63b8ff" stroke="#63b8ff" points="757.08,-76.52 766.38,-71.45 755.95,-69.62 757.08,-76.52"/>
</a>
</g>
</g>
<!-- Node19&#45;&gt;Node4 -->
<g id="edge29_Node000019_Node000004" class="edge">
<title>Node19&#45;&gt;Node4</title>
<g id="a_edge29_Node000019_Node000004"><a xlink:title=" ">
<path fill="none" stroke="#63b8ff" d="M766.47,-57.22C761.78,-56.45 757.03,-55.69 752.5,-55 643.55,-38.4 513.87,-21.85 454.75,-14.48"/>
<polygon fill="#63b8ff" stroke="#63b8ff" points="454.91,-10.97 444.55,-13.21 454.04,-17.91 454.91,-10.97"/>
</a>
</g>
</g>
<!-- Node20 -->
<g id="Node000020" class="node">
<title>Node20</title>
<g id="a_Node000020"><a xlink:title=" ">
<polygon fill="#e0e0e0" stroke="#999999" points="784.5,-19 734.5,-19 734.5,0 784.5,0 784.5,-19"/>
<text text-anchor="middle" x="759.5" y="-7" font-family="Helvetica,sans-Serif" font-size="10.00">cstdint</text>
</a>
</g>
</g>
<!-- Node19&#45;&gt;Node20 -->
<g id="edge28_Node000019_Node000020" class="edge">
<title>Node19&#45;&gt;Node20</title>
<g id="a_edge28_Node000019_Node000020"><a xlink:title=" ">
<path fill="none" stroke="#63b8ff" d="M795.4,-54.75C789.33,-47.26 780.41,-36.28 772.99,-27.13"/>
<polygon fill="#63b8ff" stroke="#63b8ff" points="775.49,-24.65 766.47,-19.09 770.05,-29.06 775.49,-24.65"/>
</a>
</g>
</g>
<!-- Node21 -->
<g id="Node000021" class="node">
<title>Node21</title>
<g id="a_Node000021"><a xlink:href="../../dc/df2/type__id_8h.html" target="_top" xlink:title=" ">
<polygon fill="white" stroke="#666666" points="888.5,-19 802.5,-19 802.5,0 888.5,0 888.5,-19"/>
<text text-anchor="middle" x="845.5" y="-7" font-family="Helvetica,sans-Serif" font-size="10.00">type/type_id.h</text>
</a>
</g>
</g>
<!-- Node19&#45;&gt;Node21 -->
<g id="edge30_Node000019_Node000021" class="edge">
<title>Node19&#45;&gt;Node21</title>
<g id="a_edge30_Node000019_Node000021"><a xlink:title=" ">
<path fill="none" stroke="#63b8ff" d="M809.6,-54.75C815.67,-47.26 824.59,-36.28 832.01,-27.13"/>
<polygon fill="#63b8ff" stroke="#63b8ff" points="834.95,-29.06 838.53,-19.09 829.51,-24.65 834.95,-29.06"/>
</a>
</g>
</g>
</g>
</svg>

<g id="navigator" transform="translate(0 0)" fill="#404254">
  <rect fill="#f2f5e9" fill-opacity="0.5" stroke="#606060" stroke-width=".5" x="0" y="0" width="60" height="60"/>
  <use id="zoomplus" xlink:href="#zoomPlus" x="17" y="9" onmousedown="handleZoom(evt,'in')"/>
  <use id="zoomminus" xlink:href="#zoomMin" x="42" y="9" onmousedown="handleZoom(evt,'out')"/>
  <use id="reset" xlink:href="#resetDef" x="30" y="36" onmousedown="handleReset()"/>
   <use id="arrowup" xlink:href="#arrowUp" x="0" y="0" onmousedown="handlePan(0,-1)"/>
  <use id="arrowright" xlink:href="#arrowRight" x="0" y="0" onmousedown="handlePan(1,0)"/>
  <use id="arrowdown" xlink:href="#arrowDown" x="0" y="0" onmousedown="handlePan(0,1)"/>
  <use id="arrowleft" xlink:href="#arrowLeft" x="0" y="0" onmousedown="handlePan(-1,0)"/>
</g>
<svg viewBox="0 0 15 15" width="100%" height="30px" preserveAspectRatio="xMaxYMin meet">
 <g id="arrow_out" transform="scale(0.3 0.3)">
  <a xlink:href="bound__window_8h__incl_org.svg" target="_base">
   <rect id="button" ry="5" rx="5" y="6" x="6" height="38" width="38"
        fill="#f2f5e9" fill-opacity="0.5" stroke="#606060" stroke-width="1.0"/>
   <path id="arrow"
     d="M 11.500037,31.436501 C 11.940474,20.09759 22.043105,11.32322 32.158766,21.979434 L 37.068811,17.246167 C 37.068811,17.246167 37.088388,32 37.088388,32 L 22.160133,31.978069 C 22.160133,31.978069 26.997745,27.140456 26.997745,27.140456 C 18.528582,18.264221 13.291696,25.230495 11.500037,31.436501 z"
     style="fill:#404040;"/>
  </a>
 </g>
</svg>

<style type='text/css'>
<![CDATA[
[data-mouse-over-selected='false'] { opacity: 0.7; }
[data-mouse-over-selected='true']  { opacity: 1.0; }
]]>
</style>
<script type="application/ecmascript"><![CDATA[
document.addEventListener('DOMContentLoaded', (event) => {
  highlightEdges();
  highlightAdjacentNodes();
});
]]></script>
</svg>
