<?xml version="1.0" encoding="UTF-8" standalone="no"?>
<!DOCTYPE svg PUBLIC "-//W3C//DTD SVG 1.1//EN"
 "http://www.w3.org/Graphics/SVG/1.1/DTD/svg11.dtd">
<!-- Generated by graphviz version 2.43.0 (0)
 -->
<!-- Title: src/include/optimizer/optimizer.h Pages: 1 -->
<svg width="1883pt" height="104pt"
 viewBox="0.00 0.00 1882.50 104.00" xmlns="http://www.w3.org/2000/svg" xmlns:xlink="http://www.w3.org/1999/xlink">
<g id="graph0" class="graph" transform="scale(1 1) rotate(0) translate(4 100)">
<title>src/include/optimizer/optimizer.h</title>
<!-- Node1 -->
<g id="Node000001" class="node">
<title>Node1</title>
<g id="a_Node000001"><a xlink:title=" ">
<polygon fill="#999999" stroke="#666666" points="1032,-96 913,-96 913,-66 1032,-66 1032,-96"/>
<text text-anchor="start" x="921" y="-84" font-family="Helvetica,sans-Serif" font-size="10.00">src/include/optimizer</text>
<text text-anchor="middle" x="972.5" y="-73" font-family="Helvetica,sans-Serif" font-size="10.00">/optimizer.h</text>
</a>
</g>
</g>
<!-- Node2 -->
<g id="Node000002" class="node">
<title>Node2</title>
<g id="a_Node000002"><a xlink:href="../../dc/de0/bustub__ddl_8cpp.html" target="_top" xlink:title=" ">
<polygon fill="white" stroke="#666666" points="153,-24.5 0,-24.5 0,-5.5 153,-5.5 153,-24.5"/>
<text text-anchor="middle" x="76.5" y="-12.5" font-family="Helvetica,sans-Serif" font-size="10.00">src/common/bustub_ddl.cpp</text>
</a>
</g>
</g>
<!-- Node1&#45;&gt;Node2 -->
<g id="edge1_Node000001_Node000002" class="edge">
<title>Node1&#45;&gt;Node2</title>
<g id="a_edge1_Node000001_Node000002"><a xlink:title=" ">
<path fill="none" stroke="#63b8ff" d="M902.59,-78.08C761.89,-73.7 434.66,-60.84 161.5,-30 149.02,-28.59 135.57,-26.6 123.15,-24.56"/>
<polygon fill="#63b8ff" stroke="#63b8ff" points="902.69,-81.59 912.8,-78.4 902.91,-74.59 902.69,-81.59"/>
</a>
</g>
</g>
<!-- Node3 -->
<g id="Node000003" class="node">
<title>Node3</title>
<g id="a_Node000003"><a xlink:href="../../da/d08/bustub__instance_8cpp.html" target="_top" xlink:title=" ">
<polygon fill="white" stroke="#666666" points="350,-24.5 171,-24.5 171,-5.5 350,-5.5 350,-24.5"/>
<text text-anchor="middle" x="260.5" y="-12.5" font-family="Helvetica,sans-Serif" font-size="10.00">src/common/bustub_instance.cpp</text>
</a>
</g>
</g>
<!-- Node1&#45;&gt;Node3 -->
<g id="edge2_Node000001_Node000003" class="edge">
<title>Node1&#45;&gt;Node3</title>
<g id="a_edge2_Node000001_Node000003"><a xlink:title=" ">
<path fill="none" stroke="#63b8ff" d="M902.8,-75.66C788.93,-68.27 555.99,-51.89 359.5,-30 345.53,-28.44 330.48,-26.47 316.45,-24.5"/>
<polygon fill="#63b8ff" stroke="#63b8ff" points="902.58,-79.15 912.78,-76.31 903.03,-72.17 902.58,-79.15"/>
</a>
</g>
</g>
<!-- Node4 -->
<g id="Node000004" class="node">
<title>Node4</title>
<g id="a_Node000004"><a xlink:href="../../d8/dd7/eliminate__true__filter_8cpp.html" target="_top" xlink:title=" ">
<polygon fill="white" stroke="#666666" points="498.5,-30 368.5,-30 368.5,0 498.5,0 498.5,-30"/>
<text text-anchor="start" x="376.5" y="-18" font-family="Helvetica,sans-Serif" font-size="10.00">src/optimizer/eliminate</text>
<text text-anchor="middle" x="433.5" y="-7" font-family="Helvetica,sans-Serif" font-size="10.00">_true_filter.cpp</text>
</a>
</g>
</g>
<!-- Node1&#45;&gt;Node4 -->
<g id="edge3_Node000001_Node000004" class="edge">
<title>Node1&#45;&gt;Node4</title>
<g id="a_edge3_Node000001_Node000004"><a xlink:title=" ">
<path fill="none" stroke="#63b8ff" d="M902.64,-74.24C811.47,-66.32 647.09,-50.68 507.5,-30 504.65,-29.58 501.75,-29.13 498.82,-28.65"/>
<polygon fill="#63b8ff" stroke="#63b8ff" points="902.59,-77.75 912.85,-75.12 903.19,-70.77 902.59,-77.75"/>
</a>
</g>
</g>
<!-- Node5 -->
<g id="Node000005" class="node">
<title>Node5</title>
<g id="a_Node000005"><a xlink:href="../../dc/d4f/merge__filter__nlj_8cpp.html" target="_top" xlink:title=" ">
<polygon fill="white" stroke="#666666" points="632,-30 517,-30 517,0 632,0 632,-30"/>
<text text-anchor="start" x="525" y="-18" font-family="Helvetica,sans-Serif" font-size="10.00">src/optimizer/merge</text>
<text text-anchor="middle" x="574.5" y="-7" font-family="Helvetica,sans-Serif" font-size="10.00">_filter_nlj.cpp</text>
</a>
</g>
</g>
<!-- Node1&#45;&gt;Node5 -->
<g id="edge4_Node000001_Node000005" class="edge">
<title>Node1&#45;&gt;Node5</title>
<g id="a_edge4_Node000001_Node000005"><a xlink:title=" ">
<path fill="none" stroke="#63b8ff" d="M902.89,-70.74C835.57,-61.51 730.79,-46.36 640.5,-30 637.73,-29.5 634.91,-28.97 632.05,-28.42"/>
<polygon fill="#63b8ff" stroke="#63b8ff" points="902.57,-74.23 912.95,-72.12 903.52,-67.3 902.57,-74.23"/>
</a>
</g>
</g>
<!-- Node6 -->
<g id="Node000006" class="node">
<title>Node6</title>
<g id="a_Node000006"><a xlink:href="../../d0/d46/merge__filter__scan_8cpp.html" target="_top" xlink:title=" ">
<polygon fill="white" stroke="#666666" points="765,-30 650,-30 650,0 765,0 765,-30"/>
<text text-anchor="start" x="658" y="-18" font-family="Helvetica,sans-Serif" font-size="10.00">src/optimizer/merge</text>
<text text-anchor="middle" x="707.5" y="-7" font-family="Helvetica,sans-Serif" font-size="10.00">_filter_scan.cpp</text>
</a>
</g>
</g>
<!-- Node1&#45;&gt;Node6 -->
<g id="edge5_Node000001_Node000006" class="edge">
<title>Node1&#45;&gt;Node6</title>
<g id="a_edge5_Node000001_Node000006"><a xlink:title=" ">
<path fill="none" stroke="#63b8ff" d="M904.49,-63.57C861.31,-53.15 806.06,-39.8 765.06,-29.9"/>
<polygon fill="#63b8ff" stroke="#63b8ff" points="903.8,-67.01 914.34,-65.95 905.45,-60.21 903.8,-67.01"/>
</a>
</g>
</g>
<!-- Node7 -->
<g id="Node000007" class="node">
<title>Node7</title>
<g id="a_Node000007"><a xlink:href="../../d1/db4/merge__projection_8cpp.html" target="_top" xlink:title=" ">
<polygon fill="white" stroke="#666666" points="898,-30 783,-30 783,0 898,0 898,-30"/>
<text text-anchor="start" x="791" y="-18" font-family="Helvetica,sans-Serif" font-size="10.00">src/optimizer/merge</text>
<text text-anchor="middle" x="840.5" y="-7" font-family="Helvetica,sans-Serif" font-size="10.00">_projection.cpp</text>
</a>
</g>
</g>
<!-- Node1&#45;&gt;Node7 -->
<g id="edge6_Node000001_Node000007" class="edge">
<title>Node1&#45;&gt;Node7</title>
<g id="a_edge6_Node000001_Node000007"><a xlink:title=" ">
<path fill="none" stroke="#63b8ff" d="M934.37,-61.51C913.66,-51.47 888.47,-39.26 869.4,-30.01"/>
<polygon fill="#63b8ff" stroke="#63b8ff" points="933.01,-64.74 943.53,-65.95 936.06,-58.44 933.01,-64.74"/>
</a>
</g>
</g>
<!-- Node8 -->
<g id="Node000008" class="node">
<title>Node8</title>
<g id="a_Node000008"><a xlink:href="../../d5/d99/nlj__as__hash__join_8cpp.html" target="_top" xlink:title=" ">
<polygon fill="white" stroke="#666666" points="1028.5,-30 916.5,-30 916.5,0 1028.5,0 1028.5,-30"/>
<text text-anchor="start" x="924.5" y="-18" font-family="Helvetica,sans-Serif" font-size="10.00">src/optimizer/nlj_as</text>
<text text-anchor="middle" x="972.5" y="-7" font-family="Helvetica,sans-Serif" font-size="10.00">_hash_join.cpp</text>
</a>
</g>
</g>
<!-- Node1&#45;&gt;Node8 -->
<g id="edge7_Node000001_Node000008" class="edge">
<title>Node1&#45;&gt;Node8</title>
<g id="a_edge7_Node000001_Node000008"><a xlink:title=" ">
<path fill="none" stroke="#63b8ff" d="M972.5,-55.54C972.5,-46.96 972.5,-37.61 972.5,-30.16"/>
<polygon fill="#63b8ff" stroke="#63b8ff" points="969,-55.8 972.5,-65.8 976,-55.8 969,-55.8"/>
</a>
</g>
</g>
<!-- Node9 -->
<g id="Node000009" class="node">
<title>Node9</title>
<g id="a_Node000009"><a xlink:href="../../d0/de1/nlj__as__index__join_8cpp.html" target="_top" xlink:title=" ">
<polygon fill="white" stroke="#666666" points="1158.5,-30 1046.5,-30 1046.5,0 1158.5,0 1158.5,-30"/>
<text text-anchor="start" x="1054.5" y="-18" font-family="Helvetica,sans-Serif" font-size="10.00">src/optimizer/nlj_as</text>
<text text-anchor="middle" x="1102.5" y="-7" font-family="Helvetica,sans-Serif" font-size="10.00">_index_join.cpp</text>
</a>
</g>
</g>
<!-- Node1&#45;&gt;Node9 -->
<g id="edge8_Node000001_Node000009" class="edge">
<title>Node1&#45;&gt;Node9</title>
<g id="a_edge8_Node000001_Node000009"><a xlink:title=" ">
<path fill="none" stroke="#63b8ff" d="M1010.05,-61.51C1030.45,-51.47 1055.26,-39.26 1074.04,-30.01"/>
<polygon fill="#63b8ff" stroke="#63b8ff" points="1008.45,-58.4 1001.03,-65.95 1011.55,-64.68 1008.45,-58.4"/>
</a>
</g>
</g>
<!-- Node10 -->
<g id="Node000010" class="node">
<title>Node10</title>
<g id="a_Node000010"><a xlink:href="../../df/d42/optimizer_8cpp.html" target="_top" xlink:title=" ">
<polygon fill="white" stroke="#666666" points="1326,-24.5 1177,-24.5 1177,-5.5 1326,-5.5 1326,-24.5"/>
<text text-anchor="middle" x="1251.5" y="-12.5" font-family="Helvetica,sans-Serif" font-size="10.00">src/optimizer/optimizer.cpp</text>
</a>
</g>
</g>
<!-- Node1&#45;&gt;Node10 -->
<g id="edge9_Node000001_Node000010" class="edge">
<title>Node1&#45;&gt;Node10</title>
<g id="a_edge9_Node000001_Node000010"><a xlink:title=" ">
<path fill="none" stroke="#63b8ff" d="M1041.96,-64.07C1096.54,-51.55 1170.42,-34.6 1214.3,-24.53"/>
<polygon fill="#63b8ff" stroke="#63b8ff" points="1040.97,-60.7 1032.01,-66.35 1042.54,-67.52 1040.97,-60.7"/>
</a>
</g>
</g>
<!-- Node11 -->
<g id="Node000011" class="node">
<title>Node11</title>
<g id="a_Node000011"><a xlink:href="../../d3/d94/optimizer__custom__rules_8cpp.html" target="_top" xlink:title=" ">
<polygon fill="white" stroke="#666666" points="1474.5,-30 1344.5,-30 1344.5,0 1474.5,0 1474.5,-30"/>
<text text-anchor="start" x="1352.5" y="-18" font-family="Helvetica,sans-Serif" font-size="10.00">src/optimizer/optimizer</text>
<text text-anchor="middle" x="1409.5" y="-7" font-family="Helvetica,sans-Serif" font-size="10.00">_custom_rules.cpp</text>
</a>
</g>
</g>
<!-- Node1&#45;&gt;Node11 -->
<g id="edge10_Node000001_Node000011" class="edge">
<title>Node1&#45;&gt;Node11</title>
<g id="a_edge10_Node000001_Node000011"><a xlink:title=" ">
<path fill="none" stroke="#63b8ff" d="M1042.08,-71.47C1115.26,-62.25 1233.71,-46.63 1335.5,-30 1338.34,-29.54 1341.24,-29.05 1344.16,-28.55"/>
<polygon fill="#63b8ff" stroke="#63b8ff" points="1041.54,-68.01 1032.06,-72.73 1042.41,-74.95 1041.54,-68.01"/>
</a>
</g>
</g>
<!-- Node12 -->
<g id="Node000012" class="node">
<title>Node12</title>
<g id="a_Node000012"><a xlink:href="../../d9/db2/order__by__index__scan_8cpp.html" target="_top" xlink:title=" ">
<polygon fill="white" stroke="#666666" points="1606.5,-30 1492.5,-30 1492.5,0 1606.5,0 1606.5,-30"/>
<text text-anchor="start" x="1500.5" y="-18" font-family="Helvetica,sans-Serif" font-size="10.00">src/optimizer/order</text>
<text text-anchor="middle" x="1549.5" y="-7" font-family="Helvetica,sans-Serif" font-size="10.00">_by_index_scan.cpp</text>
</a>
</g>
</g>
<!-- Node1&#45;&gt;Node12 -->
<g id="edge11_Node000001_Node000012" class="edge">
<title>Node1&#45;&gt;Node12</title>
<g id="a_edge11_Node000001_Node000012"><a xlink:title=" ">
<path fill="none" stroke="#63b8ff" d="M1042.32,-75.64C1141,-68.93 1326.73,-54.22 1483.5,-30 1486.39,-29.55 1489.35,-29.06 1492.33,-28.53"/>
<polygon fill="#63b8ff" stroke="#63b8ff" points="1041.91,-72.16 1032.17,-76.33 1042.38,-79.15 1041.91,-72.16"/>
</a>
</g>
</g>
<!-- Node13 -->
<g id="Node000013" class="node">
<title>Node13</title>
<g id="a_Node000013"><a xlink:href="../../db/de2/seqscan__as__indexscan_8cpp.html" target="_top" xlink:title=" ">
<polygon fill="white" stroke="#666666" points="1748,-30 1625,-30 1625,0 1748,0 1748,-30"/>
<text text-anchor="start" x="1633" y="-18" font-family="Helvetica,sans-Serif" font-size="10.00">src/optimizer/seqscan</text>
<text text-anchor="middle" x="1686.5" y="-7" font-family="Helvetica,sans-Serif" font-size="10.00">_as_indexscan.cpp</text>
</a>
</g>
</g>
<!-- Node1&#45;&gt;Node13 -->
<g id="edge12_Node000001_Node000013" class="edge">
<title>Node1&#45;&gt;Node13</title>
<g id="a_edge12_Node000001_Node000013"><a xlink:title=" ">
<path fill="none" stroke="#63b8ff" d="M1042.15,-77.26C1160.45,-72.01 1408,-58.43 1615.5,-30 1618.49,-29.59 1621.54,-29.14 1624.62,-28.65"/>
<polygon fill="#63b8ff" stroke="#63b8ff" points="1041.98,-73.76 1032.14,-77.7 1042.29,-80.76 1041.98,-73.76"/>
</a>
</g>
</g>
<!-- Node14 -->
<g id="Node000014" class="node">
<title>Node14</title>
<g id="a_Node000014"><a xlink:href="../../d0/def/sort__limit__as__topn_8cpp.html" target="_top" xlink:title=" ">
<polygon fill="white" stroke="#666666" points="1874.5,-30 1766.5,-30 1766.5,0 1874.5,0 1874.5,-30"/>
<text text-anchor="start" x="1774.5" y="-18" font-family="Helvetica,sans-Serif" font-size="10.00">src/optimizer/sort</text>
<text text-anchor="middle" x="1820.5" y="-7" font-family="Helvetica,sans-Serif" font-size="10.00">_limit_as_topn.cpp</text>
</a>
</g>
</g>
<!-- Node1&#45;&gt;Node14 -->
<g id="edge13_Node000001_Node000014" class="edge">
<title>Node1&#45;&gt;Node14</title>
<g id="a_edge13_Node000001_Node000014"><a xlink:title=" ">
<path fill="none" stroke="#63b8ff" d="M1042.81,-79.17C1180.61,-76.74 1495.61,-67.21 1757.5,-30 1760.38,-29.59 1763.33,-29.12 1766.3,-28.6"/>
<polygon fill="#63b8ff" stroke="#63b8ff" points="1042.34,-75.68 1032.4,-79.35 1042.46,-82.68 1042.34,-75.68"/>
</a>
</g>
</g>
</g>
</svg>
