<?xml version="1.0" encoding="UTF-8" standalone="no"?>
<!DOCTYPE svg PUBLIC "-//W3C//DTD SVG 1.1//EN"
 "http://www.w3.org/Graphics/SVG/1.1/DTD/svg11.dtd">
<!-- Generated by graphviz version 2.43.0 (0)
 -->
<!-- Title: src/type/bigint_type.cpp Pages: 1 -->
<svg width="1022pt" height="368pt"
 viewBox="0.00 0.00 1022.00 368.00" xmlns="http://www.w3.org/2000/svg" xmlns:xlink="http://www.w3.org/1999/xlink">
<g id="graph0" class="graph" transform="scale(1 1) rotate(0) translate(4 364)">
<title>src/type/bigint_type.cpp</title>
<!-- Node1 -->
<g id="Node000001" class="node">
<title>Node1</title>
<g id="a_Node000001"><a xlink:title=" ">
<polygon fill="#999999" stroke="#666666" points="613,-360 479,-360 479,-341 613,-341 613,-360"/>
<text text-anchor="middle" x="546" y="-348" font-family="Helvetica,sans-Serif" font-size="10.00">src/type/bigint_type.cpp</text>
</a>
</g>
</g>
<!-- Node2 -->
<g id="Node000002" class="node">
<title>Node2</title>
<g id="a_Node000002"><a xlink:title=" ">
<polygon fill="#e0e0e0" stroke="#999999" points="234,-305 182,-305 182,-286 234,-286 234,-305"/>
<text text-anchor="middle" x="208" y="-293" font-family="Helvetica,sans-Serif" font-size="10.00">cassert</text>
</a>
</g>
</g>
<!-- Node1&#45;&gt;Node2 -->
<g id="edge1_Node000001_Node000002" class="edge">
<title>Node1&#45;&gt;Node2</title>
<g id="a_edge1_Node000001_Node000002"><a xlink:title=" ">
<path fill="none" stroke="#63b8ff" d="M481.29,-341C420.8,-332.78 328.04,-319.47 248,-305 246.74,-304.77 245.46,-304.54 244.17,-304.29"/>
<polygon fill="#63b8ff" stroke="#63b8ff" points="244.7,-300.83 234.2,-302.31 243.33,-307.69 244.7,-300.83"/>
</a>
</g>
</g>
<!-- Node3 -->
<g id="Node000003" class="node">
<title>Node3</title>
<g id="a_Node000003"><a xlink:title=" ">
<polygon fill="#e0e0e0" stroke="#999999" points="591.5,-129 544.5,-129 544.5,-110 591.5,-110 591.5,-129"/>
<text text-anchor="middle" x="568" y="-117" font-family="Helvetica,sans-Serif" font-size="10.00">cmath</text>
</a>
</g>
</g>
<!-- Node1&#45;&gt;Node3 -->
<g id="edge2_Node000001_Node000003" class="edge">
<title>Node1&#45;&gt;Node3</title>
<g id="a_edge2_Node000001_Node000003"><a xlink:title=" ">
<path fill="none" stroke="#63b8ff" d="M546.84,-340.8C550.05,-307.29 561.7,-186.08 566.2,-139.2"/>
<polygon fill="#63b8ff" stroke="#63b8ff" points="569.69,-139.5 567.16,-129.21 562.72,-138.83 569.69,-139.5"/>
</a>
</g>
</g>
<!-- Node4 -->
<g id="Node000004" class="node">
<title>Node4</title>
<g id="a_Node000004"><a xlink:title=" ">
<polygon fill="#e0e0e0" stroke="#999999" points="60,-74 0,-74 0,-55 60,-55 60,-74"/>
<text text-anchor="middle" x="30" y="-62" font-family="Helvetica,sans-Serif" font-size="10.00">iostream</text>
</a>
</g>
</g>
<!-- Node1&#45;&gt;Node4 -->
<g id="edge3_Node000001_Node000004" class="edge">
<title>Node1&#45;&gt;Node4</title>
<g id="a_edge3_Node000001_Node000004"><a xlink:title=" ">
<path fill="none" stroke="#63b8ff" d="M499.74,-340.94C419.26,-324.73 262,-286.58 262,-236 262,-236 262,-236 262,-173.5 262,-131.66 136.44,-92.93 70.06,-75.38"/>
<polygon fill="#63b8ff" stroke="#63b8ff" points="70.89,-71.98 60.33,-72.85 69.13,-78.75 70.89,-71.98"/>
</a>
</g>
</g>
<!-- Node5 -->
<g id="Node000005" class="node">
<title>Node5</title>
<g id="a_Node000005"><a xlink:title=" ">
<polygon fill="#e0e0e0" stroke="#999999" points="870,-19 826,-19 826,0 870,0 870,-19"/>
<text text-anchor="middle" x="848" y="-7" font-family="Helvetica,sans-Serif" font-size="10.00">string</text>
</a>
</g>
</g>
<!-- Node1&#45;&gt;Node5 -->
<g id="edge4_Node000001_Node000005" class="edge">
<title>Node1&#45;&gt;Node5</title>
<g id="a_edge4_Node000001_Node000005"><a xlink:title=" ">
<path fill="none" stroke="#63b8ff" d="M613.05,-347.12C742.46,-340.7 1014,-317.52 1014,-236 1014,-236 1014,-236 1014,-118.5 1014,-55.24 928.25,-27.12 880.01,-16.31"/>
<polygon fill="#63b8ff" stroke="#63b8ff" points="880.55,-12.85 870.04,-14.2 879.1,-19.7 880.55,-12.85"/>
</a>
</g>
</g>
<!-- Node6 -->
<g id="Node000006" class="node">
<title>Node6</title>
<g id="a_Node000006"><a xlink:href="../../df/d73/bigint__type_8h.html" target="_top" xlink:title=" ">
<polygon fill="white" stroke="#666666" points="723.5,-305 618.5,-305 618.5,-286 723.5,-286 723.5,-305"/>
<text text-anchor="middle" x="671" y="-293" font-family="Helvetica,sans-Serif" font-size="10.00">type/bigint_type.h</text>
</a>
</g>
</g>
<!-- Node1&#45;&gt;Node6 -->
<g id="edge5_Node000001_Node000006" class="edge">
<title>Node1&#45;&gt;Node6</title>
<g id="a_edge5_Node000001_Node000006"><a xlink:title=" ">
<path fill="none" stroke="#63b8ff" d="M566.08,-340.98C586.37,-332.38 617.96,-318.99 641.17,-309.15"/>
<polygon fill="#63b8ff" stroke="#63b8ff" points="642.71,-312.3 650.55,-305.17 639.98,-305.85 642.71,-312.3"/>
</a>
</g>
</g>
<!-- Node6&#45;&gt;Node5 -->
<g id="edge6_Node000006_Node000005" class="edge">
<title>Node6&#45;&gt;Node5</title>
<g id="a_edge6_Node000006_Node000005"><a xlink:title=" ">
<path fill="none" stroke="#63b8ff" d="M719.67,-285.94C805.78,-269.41 976,-229.85 976,-175.5 976,-175.5 976,-175.5 976,-118.5 976,-68.19 917.52,-36.55 879.62,-21.32"/>
<polygon fill="#63b8ff" stroke="#63b8ff" points="880.59,-17.95 870,-17.63 878.09,-24.49 880.59,-17.95"/>
</a>
</g>
</g>
<!-- Node7 -->
<g id="Node000007" class="node">
<title>Node7</title>
<g id="a_Node000007"><a xlink:href="../../d2/d58/integer__parent__type_8h.html" target="_top" xlink:title=" ">
<polygon fill="white" stroke="#666666" points="727.5,-250 614.5,-250 614.5,-220 727.5,-220 727.5,-250"/>
<text text-anchor="start" x="622.5" y="-238" font-family="Helvetica,sans-Serif" font-size="10.00">type/integer_parent</text>
<text text-anchor="middle" x="671" y="-227" font-family="Helvetica,sans-Serif" font-size="10.00">_type.h</text>
</a>
</g>
</g>
<!-- Node6&#45;&gt;Node7 -->
<g id="edge7_Node000006_Node000007" class="edge">
<title>Node6&#45;&gt;Node7</title>
<g id="a_edge7_Node000006_Node000007"><a xlink:title=" ">
<path fill="none" stroke="#63b8ff" d="M671,-285.87C671,-279.11 671,-269.35 671,-260.26"/>
<polygon fill="#63b8ff" stroke="#63b8ff" points="674.5,-260.11 671,-250.11 667.5,-260.11 674.5,-260.11"/>
</a>
</g>
</g>
<!-- Node7&#45;&gt;Node5 -->
<g id="edge8_Node000007_Node000005" class="edge">
<title>Node7&#45;&gt;Node5</title>
<g id="a_edge8_Node000007_Node000005"><a xlink:title=" ">
<path fill="none" stroke="#63b8ff" d="M716.38,-219.91C775.39,-198.86 875.97,-152.96 919,-74 931.01,-51.95 903.8,-33.72 879.66,-22.53"/>
<polygon fill="#63b8ff" stroke="#63b8ff" points="880.88,-19.24 870.31,-18.46 878.08,-25.66 880.88,-19.24"/>
</a>
</g>
</g>
<!-- Node8 -->
<g id="Node000008" class="node">
<title>Node8</title>
<g id="a_Node000008"><a xlink:href="../../dd/d2d/exception_8h.html" target="_top" xlink:title=" ">
<polygon fill="white" stroke="#666666" points="409.5,-129 290.5,-129 290.5,-110 409.5,-110 409.5,-129"/>
<text text-anchor="middle" x="350" y="-117" font-family="Helvetica,sans-Serif" font-size="10.00">common/exception.h</text>
</a>
</g>
</g>
<!-- Node7&#45;&gt;Node8 -->
<g id="edge9_Node000007_Node000008" class="edge">
<title>Node7&#45;&gt;Node8</title>
<g id="a_edge9_Node000007_Node000008"><a xlink:title=" ">
<path fill="none" stroke="#63b8ff" d="M631.32,-219.97C567.73,-197.49 444.1,-153.77 384.18,-132.59"/>
<polygon fill="#63b8ff" stroke="#63b8ff" points="385.04,-129.18 374.45,-129.14 382.71,-135.78 385.04,-129.18"/>
</a>
</g>
</g>
<!-- Node17 -->
<g id="Node000017" class="node">
<title>Node17</title>
<g id="a_Node000017"><a xlink:href="../../d4/d5c/numeric__type_8h.html" target="_top" xlink:title=" ">
<polygon fill="white" stroke="#666666" points="729.5,-184 612.5,-184 612.5,-165 729.5,-165 729.5,-184"/>
<text text-anchor="middle" x="671" y="-172" font-family="Helvetica,sans-Serif" font-size="10.00">type/numeric_type.h</text>
</a>
</g>
</g>
<!-- Node7&#45;&gt;Node17 -->
<g id="edge21_Node000007_Node000017" class="edge">
<title>Node7&#45;&gt;Node17</title>
<g id="a_edge21_Node000007_Node000017"><a xlink:title=" ">
<path fill="none" stroke="#63b8ff" d="M671,-219.84C671,-212.21 671,-202.7 671,-194.45"/>
<polygon fill="#63b8ff" stroke="#63b8ff" points="674.5,-194.27 671,-184.27 667.5,-194.27 674.5,-194.27"/>
</a>
</g>
</g>
<!-- Node8&#45;&gt;Node4 -->
<g id="edge13_Node000008_Node000004" class="edge">
<title>Node8&#45;&gt;Node4</title>
<g id="a_edge13_Node000008_Node000004"><a xlink:title=" ">
<path fill="none" stroke="#63b8ff" d="M290.35,-110.07C235.58,-102.1 151.94,-89.35 70.16,-74.13"/>
<polygon fill="#63b8ff" stroke="#63b8ff" points="70.67,-70.66 60.2,-72.26 69.38,-77.54 70.67,-70.66"/>
</a>
</g>
</g>
<!-- Node8&#45;&gt;Node5 -->
<g id="edge16_Node000008_Node000005" class="edge">
<title>Node8&#45;&gt;Node5</title>
<g id="a_edge16_Node000008_Node000005"><a xlink:title=" ">
<path fill="none" stroke="#63b8ff" d="M409.72,-110.86C463.55,-103.4 544.64,-90.74 614,-74 641.19,-67.44 647.11,-62.69 674,-55 723.17,-40.94 780.77,-26.63 815.8,-18.16"/>
<polygon fill="#63b8ff" stroke="#63b8ff" points="817.02,-21.47 825.92,-15.72 815.38,-14.66 817.02,-21.47"/>
</a>
</g>
</g>
<!-- Node9 -->
<g id="Node000009" class="node">
<title>Node9</title>
<g id="a_Node000009"><a xlink:title=" ">
<polygon fill="#e0e0e0" stroke="#999999" points="128,-74 78,-74 78,-55 128,-55 128,-74"/>
<text text-anchor="middle" x="103" y="-62" font-family="Helvetica,sans-Serif" font-size="10.00">atomic</text>
</a>
</g>
</g>
<!-- Node8&#45;&gt;Node9 -->
<g id="edge10_Node000008_Node000009" class="edge">
<title>Node8&#45;&gt;Node9</title>
<g id="a_edge10_Node000008_Node000009"><a xlink:title=" ">
<path fill="none" stroke="#63b8ff" d="M306.65,-109.96C265.64,-101.76 202.13,-88.77 138.09,-74.18"/>
<polygon fill="#63b8ff" stroke="#63b8ff" points="138.75,-70.74 128.22,-71.92 137.19,-77.57 138.75,-70.74"/>
</a>
</g>
</g>
<!-- Node10 -->
<g id="Node000010" class="node">
<title>Node10</title>
<g id="a_Node000010"><a xlink:title=" ">
<polygon fill="#e0e0e0" stroke="#999999" points="192,-74 146,-74 146,-55 192,-55 192,-74"/>
<text text-anchor="middle" x="169" y="-62" font-family="Helvetica,sans-Serif" font-size="10.00">cstdio</text>
</a>
</g>
</g>
<!-- Node8&#45;&gt;Node10 -->
<g id="edge11_Node000008_Node000010" class="edge">
<title>Node8&#45;&gt;Node10</title>
<g id="a_edge11_Node000008_Node000010"><a xlink:title=" ">
<path fill="none" stroke="#63b8ff" d="M320.92,-109.98C288.5,-100.49 236.16,-85.17 202.17,-75.21"/>
<polygon fill="#63b8ff" stroke="#63b8ff" points="202.84,-71.76 192.25,-72.31 200.87,-78.48 202.84,-71.76"/>
</a>
</g>
</g>
<!-- Node11 -->
<g id="Node000011" class="node">
<title>Node11</title>
<g id="a_Node000011"><a xlink:title=" ">
<polygon fill="#e0e0e0" stroke="#999999" points="259.5,-74 210.5,-74 210.5,-55 259.5,-55 259.5,-74"/>
<text text-anchor="middle" x="235" y="-62" font-family="Helvetica,sans-Serif" font-size="10.00">cstdlib</text>
</a>
</g>
</g>
<!-- Node8&#45;&gt;Node11 -->
<g id="edge12_Node000008_Node000011" class="edge">
<title>Node8&#45;&gt;Node11</title>
<g id="a_edge12_Node000008_Node000011"><a xlink:title=" ">
<path fill="none" stroke="#63b8ff" d="M331.52,-109.98C313.02,-101.46 284.32,-88.23 263.02,-78.41"/>
<polygon fill="#63b8ff" stroke="#63b8ff" points="264.36,-75.18 253.81,-74.17 261.43,-81.53 264.36,-75.18"/>
</a>
</g>
</g>
<!-- Node12 -->
<g id="Node000012" class="node">
<title>Node12</title>
<g id="a_Node000012"><a xlink:title=" ">
<polygon fill="#e0e0e0" stroke="#999999" points="419,-74 361,-74 361,-55 419,-55 419,-74"/>
<text text-anchor="middle" x="390" y="-62" font-family="Helvetica,sans-Serif" font-size="10.00">memory</text>
</a>
</g>
</g>
<!-- Node8&#45;&gt;Node12 -->
<g id="edge14_Node000008_Node000012" class="edge">
<title>Node8&#45;&gt;Node12</title>
<g id="a_edge14_Node000008_Node000012"><a xlink:title=" ">
<path fill="none" stroke="#63b8ff" d="M356.61,-109.75C362.26,-102.26 370.54,-91.28 377.45,-82.13"/>
<polygon fill="#63b8ff" stroke="#63b8ff" points="380.29,-84.18 383.52,-74.09 374.7,-79.96 380.29,-84.18"/>
</a>
</g>
</g>
<!-- Node13 -->
<g id="Node000013" class="node">
<title>Node13</title>
<g id="a_Node000013"><a xlink:title=" ">
<polygon fill="#e0e0e0" stroke="#999999" points="342.5,-74 277.5,-74 277.5,-55 342.5,-55 342.5,-74"/>
<text text-anchor="middle" x="310" y="-62" font-family="Helvetica,sans-Serif" font-size="10.00">stdexcept</text>
</a>
</g>
</g>
<!-- Node8&#45;&gt;Node13 -->
<g id="edge15_Node000008_Node000013" class="edge">
<title>Node8&#45;&gt;Node13</title>
<g id="a_edge15_Node000008_Node000013"><a xlink:title=" ">
<path fill="none" stroke="#63b8ff" d="M343.39,-109.75C337.74,-102.26 329.46,-91.28 322.55,-82.13"/>
<polygon fill="#63b8ff" stroke="#63b8ff" points="325.3,-79.96 316.48,-74.09 319.71,-84.18 325.3,-79.96"/>
</a>
</g>
</g>
<!-- Node14 -->
<g id="Node000014" class="node">
<title>Node14</title>
<g id="a_Node000014"><a xlink:href="../../df/def/type_8h.html" target="_top" xlink:title=" ">
<polygon fill="white" stroke="#666666" points="509,-74 437,-74 437,-55 509,-55 509,-74"/>
<text text-anchor="middle" x="473" y="-62" font-family="Helvetica,sans-Serif" font-size="10.00">type/type.h</text>
</a>
</g>
</g>
<!-- Node8&#45;&gt;Node14 -->
<g id="edge17_Node000008_Node000014" class="edge">
<title>Node8&#45;&gt;Node14</title>
<g id="a_edge17_Node000008_Node000014"><a xlink:title=" ">
<path fill="none" stroke="#63b8ff" d="M369.76,-109.98C389.73,-101.38 420.8,-87.99 443.65,-78.15"/>
<polygon fill="#63b8ff" stroke="#63b8ff" points="445.08,-81.34 452.88,-74.17 442.31,-74.91 445.08,-81.34"/>
</a>
</g>
</g>
<!-- Node14&#45;&gt;Node5 -->
<g id="edge19_Node000014_Node000005" class="edge">
<title>Node14&#45;&gt;Node5</title>
<g id="a_edge19_Node000014_Node000005"><a xlink:title=" ">
<path fill="none" stroke="#63b8ff" d="M509.32,-56.47C512.25,-55.95 515.17,-55.46 518,-55 626.79,-37.4 756.55,-21.34 815.72,-14.28"/>
<polygon fill="#63b8ff" stroke="#63b8ff" points="816.41,-17.72 825.93,-13.07 815.59,-10.77 816.41,-17.72"/>
</a>
</g>
</g>
<!-- Node15 -->
<g id="Node000015" class="node">
<title>Node15</title>
<g id="a_Node000015"><a xlink:title=" ">
<polygon fill="#e0e0e0" stroke="#999999" points="512,-19 462,-19 462,0 512,0 512,-19"/>
<text text-anchor="middle" x="487" y="-7" font-family="Helvetica,sans-Serif" font-size="10.00">cstdint</text>
</a>
</g>
</g>
<!-- Node14&#45;&gt;Node15 -->
<g id="edge18_Node000014_Node000015" class="edge">
<title>Node14&#45;&gt;Node15</title>
<g id="a_edge18_Node000014_Node000015"><a xlink:title=" ">
<path fill="none" stroke="#63b8ff" d="M475.31,-54.75C477.17,-47.72 479.84,-37.62 482.15,-28.84"/>
<polygon fill="#63b8ff" stroke="#63b8ff" points="485.56,-29.65 484.73,-19.09 478.79,-27.86 485.56,-29.65"/>
</a>
</g>
</g>
<!-- Node16 -->
<g id="Node000016" class="node">
<title>Node16</title>
<g id="a_Node000016"><a xlink:href="../../dc/df2/type__id_8h.html" target="_top" xlink:title=" ">
<polygon fill="white" stroke="#666666" points="444,-19 358,-19 358,0 444,0 444,-19"/>
<text text-anchor="middle" x="401" y="-7" font-family="Helvetica,sans-Serif" font-size="10.00">type/type_id.h</text>
</a>
</g>
</g>
<!-- Node14&#45;&gt;Node16 -->
<g id="edge20_Node000014_Node000016" class="edge">
<title>Node14&#45;&gt;Node16</title>
<g id="a_edge20_Node000014_Node000016"><a xlink:title=" ">
<path fill="none" stroke="#63b8ff" d="M461.43,-54.98C450.58,-47 434.12,-34.88 421.12,-25.31"/>
<polygon fill="#63b8ff" stroke="#63b8ff" points="422.91,-22.28 412.78,-19.17 418.76,-27.92 422.91,-22.28"/>
</a>
</g>
</g>
<!-- Node17&#45;&gt;Node3 -->
<g id="edge22_Node000017_Node000003" class="edge">
<title>Node17&#45;&gt;Node3</title>
<g id="a_edge22_Node000017_Node000003"><a xlink:title=" ">
<path fill="none" stroke="#63b8ff" d="M654.45,-164.98C638.11,-156.57 612.87,-143.59 593.87,-133.81"/>
<polygon fill="#63b8ff" stroke="#63b8ff" points="595.34,-130.63 584.85,-129.17 592.14,-136.86 595.34,-130.63"/>
</a>
</g>
</g>
<!-- Node18 -->
<g id="Node000018" class="node">
<title>Node18</title>
<g id="a_Node000018"><a xlink:href="../../d4/d3f/value_8h.html" target="_top" xlink:title=" ">
<polygon fill="white" stroke="#666666" points="709.5,-129 632.5,-129 632.5,-110 709.5,-110 709.5,-129"/>
<text text-anchor="middle" x="671" y="-117" font-family="Helvetica,sans-Serif" font-size="10.00">type/value.h</text>
</a>
</g>
</g>
<!-- Node17&#45;&gt;Node18 -->
<g id="edge23_Node000017_Node000018" class="edge">
<title>Node17&#45;&gt;Node18</title>
<g id="a_edge23_Node000017_Node000018"><a xlink:title=" ">
<path fill="none" stroke="#63b8ff" d="M671,-164.75C671,-157.8 671,-147.85 671,-139.13"/>
<polygon fill="#63b8ff" stroke="#63b8ff" points="674.5,-139.09 671,-129.09 667.5,-139.09 674.5,-139.09"/>
</a>
</g>
</g>
<!-- Node18&#45;&gt;Node5 -->
<g id="edge26_Node000018_Node000005" class="edge">
<title>Node18&#45;&gt;Node5</title>
<g id="a_edge26_Node000018_Node000005"><a xlink:title=" ">
<path fill="none" stroke="#63b8ff" d="M671.08,-109.78C671.7,-96.16 674.91,-69.85 690,-55 723.69,-21.85 780.04,-12.98 815.55,-10.84"/>
<polygon fill="#63b8ff" stroke="#63b8ff" points="816.02,-14.32 825.85,-10.37 815.7,-7.33 816.02,-14.32"/>
</a>
</g>
</g>
<!-- Node18&#45;&gt;Node12 -->
<g id="edge25_Node000018_Node000012" class="edge">
<title>Node18&#45;&gt;Node12</title>
<g id="a_edge25_Node000018_Node000012"><a xlink:title=" ">
<path fill="none" stroke="#63b8ff" d="M632.19,-111.87C586.12,-103.9 506.72,-89.83 428.98,-74.14"/>
<polygon fill="#63b8ff" stroke="#63b8ff" points="429.52,-70.67 419.02,-72.11 428.13,-77.53 429.52,-70.67"/>
</a>
</g>
</g>
<!-- Node18&#45;&gt;Node14 -->
<g id="edge34_Node000018_Node000014" class="edge">
<title>Node18&#45;&gt;Node14</title>
<g id="a_edge34_Node000018_Node000014"><a xlink:title=" ">
<path fill="none" stroke="#63b8ff" d="M639.19,-109.98C605.51,-100.97 552.2,-86.7 515.08,-76.76"/>
<polygon fill="#63b8ff" stroke="#63b8ff" points="515.63,-73.29 505.06,-74.08 513.82,-80.05 515.63,-73.29"/>
</a>
</g>
</g>
<!-- Node19 -->
<g id="Node000019" class="node">
<title>Node19</title>
<g id="a_Node000019"><a xlink:title=" ">
<polygon fill="#e0e0e0" stroke="#999999" points="749,-74 699,-74 699,-55 749,-55 749,-74"/>
<text text-anchor="middle" x="724" y="-62" font-family="Helvetica,sans-Serif" font-size="10.00">cstring</text>
</a>
</g>
</g>
<!-- Node18&#45;&gt;Node19 -->
<g id="edge24_Node000018_Node000019" class="edge">
<title>Node18&#45;&gt;Node19</title>
<g id="a_edge24_Node000018_Node000019"><a xlink:title=" ">
<path fill="none" stroke="#63b8ff" d="M679.75,-109.75C687.47,-102.03 698.9,-90.6 708.22,-81.28"/>
<polygon fill="#63b8ff" stroke="#63b8ff" points="710.81,-83.64 715.41,-74.09 705.86,-78.69 710.81,-83.64"/>
</a>
</g>
</g>
<!-- Node20 -->
<g id="Node000020" class="node">
<title>Node20</title>
<g id="a_Node000020"><a xlink:title=" ">
<polygon fill="#e0e0e0" stroke="#999999" points="812.5,-74 767.5,-74 767.5,-55 812.5,-55 812.5,-74"/>
<text text-anchor="middle" x="790" y="-62" font-family="Helvetica,sans-Serif" font-size="10.00">utility</text>
</a>
</g>
</g>
<!-- Node18&#45;&gt;Node20 -->
<g id="edge27_Node000018_Node000020" class="edge">
<title>Node18&#45;&gt;Node20</title>
<g id="a_edge27_Node000018_Node000020"><a xlink:title=" ">
<path fill="none" stroke="#63b8ff" d="M690.12,-109.98C709.35,-101.42 739.23,-88.11 761.31,-78.28"/>
<polygon fill="#63b8ff" stroke="#63b8ff" points="762.82,-81.44 770.53,-74.17 759.97,-75.04 762.82,-81.44"/>
</a>
</g>
</g>
<!-- Node21 -->
<g id="Node000021" class="node">
<title>Node21</title>
<g id="a_Node000021"><a xlink:title=" ">
<polygon fill="#e0e0e0" stroke="#999999" points="909.5,-74 830.5,-74 830.5,-55 909.5,-55 909.5,-74"/>
<text text-anchor="middle" x="870" y="-62" font-family="Helvetica,sans-Serif" font-size="10.00">fmt/format.h</text>
</a>
</g>
</g>
<!-- Node18&#45;&gt;Node21 -->
<g id="edge28_Node000018_Node000021" class="edge">
<title>Node18&#45;&gt;Node21</title>
<g id="a_edge28_Node000018_Node000021"><a xlink:title=" ">
<path fill="none" stroke="#63b8ff" d="M702.97,-109.98C736.82,-100.97 790.4,-86.7 827.71,-76.76"/>
<polygon fill="#63b8ff" stroke="#63b8ff" points="829.01,-80.04 837.78,-74.08 827.21,-73.27 829.01,-80.04"/>
</a>
</g>
</g>
<!-- Node22 -->
<g id="Node000022" class="node">
<title>Node22</title>
<g id="a_Node000022"><a xlink:href="../../d9/d86/limits_8h.html" target="_top" xlink:title=" ">
<polygon fill="white" stroke="#666666" points="605,-74 527,-74 527,-55 605,-55 605,-74"/>
<text text-anchor="middle" x="566" y="-62" font-family="Helvetica,sans-Serif" font-size="10.00">type/limits.h</text>
</a>
</g>
</g>
<!-- Node18&#45;&gt;Node22 -->
<g id="edge29_Node000018_Node000022" class="edge">
<title>Node18&#45;&gt;Node22</title>
<g id="a_edge29_Node000018_Node000022"><a xlink:title=" ">
<path fill="none" stroke="#63b8ff" d="M654.13,-109.98C637.39,-101.54 611.5,-88.47 592.11,-78.68"/>
<polygon fill="#63b8ff" stroke="#63b8ff" points="593.68,-75.55 583.18,-74.17 590.53,-81.8 593.68,-75.55"/>
</a>
</g>
</g>
<!-- Node22&#45;&gt;Node15 -->
<g id="edge32_Node000022_Node000015" class="edge">
<title>Node22&#45;&gt;Node15</title>
<g id="a_edge32_Node000022_Node000015"><a xlink:title=" ">
<path fill="none" stroke="#63b8ff" d="M553.31,-54.98C541.17,-46.84 522.64,-34.41 508.25,-24.76"/>
<polygon fill="#63b8ff" stroke="#63b8ff" points="510.18,-21.84 499.92,-19.17 506.28,-27.65 510.18,-21.84"/>
</a>
</g>
</g>
<!-- Node23 -->
<g id="Node000023" class="node">
<title>Node23</title>
<g id="a_Node000023"><a xlink:title=" ">
<polygon fill="#e0e0e0" stroke="#999999" points="636,-19 592,-19 592,0 636,0 636,-19"/>
<text text-anchor="middle" x="614" y="-7" font-family="Helvetica,sans-Serif" font-size="10.00">cfloat</text>
</a>
</g>
</g>
<!-- Node22&#45;&gt;Node23 -->
<g id="edge30_Node000022_Node000023" class="edge">
<title>Node22&#45;&gt;Node23</title>
<g id="a_edge30_Node000022_Node000023"><a xlink:title=" ">
<path fill="none" stroke="#63b8ff" d="M573.93,-54.75C580.85,-47.11 591.07,-35.82 599.45,-26.56"/>
<polygon fill="#63b8ff" stroke="#63b8ff" points="602.1,-28.85 606.22,-19.09 596.91,-24.15 602.1,-28.85"/>
</a>
</g>
</g>
<!-- Node24 -->
<g id="Node000024" class="node">
<title>Node24</title>
<g id="a_Node000024"><a xlink:title=" ">
<polygon fill="#e0e0e0" stroke="#999999" points="704,-19 654,-19 654,0 704,0 704,-19"/>
<text text-anchor="middle" x="679" y="-7" font-family="Helvetica,sans-Serif" font-size="10.00">climits</text>
</a>
</g>
</g>
<!-- Node22&#45;&gt;Node24 -->
<g id="edge31_Node000022_Node000024" class="edge">
<title>Node22&#45;&gt;Node24</title>
<g id="a_edge31_Node000022_Node000024"><a xlink:title=" ">
<path fill="none" stroke="#63b8ff" d="M584.16,-54.98C602.25,-46.5 630.28,-33.35 651.19,-23.54"/>
<polygon fill="#63b8ff" stroke="#63b8ff" points="652.95,-26.59 660.51,-19.17 649.97,-20.25 652.95,-26.59"/>
</a>
</g>
</g>
<!-- Node25 -->
<g id="Node000025" class="node">
<title>Node25</title>
<g id="a_Node000025"><a xlink:title=" ">
<polygon fill="#e0e0e0" stroke="#999999" points="574,-19 530,-19 530,0 574,0 574,-19"/>
<text text-anchor="middle" x="552" y="-7" font-family="Helvetica,sans-Serif" font-size="10.00">limits</text>
</a>
</g>
</g>
<!-- Node22&#45;&gt;Node25 -->
<g id="edge33_Node000022_Node000025" class="edge">
<title>Node22&#45;&gt;Node25</title>
<g id="a_edge33_Node000022_Node000025"><a xlink:title=" ">
<path fill="none" stroke="#63b8ff" d="M563.69,-54.75C561.83,-47.72 559.16,-37.62 556.85,-28.84"/>
<polygon fill="#63b8ff" stroke="#63b8ff" points="560.21,-27.86 554.27,-19.09 553.44,-29.65 560.21,-27.86"/>
</a>
</g>
</g>
</g>
</svg>
