<?xml version="1.0" encoding="UTF-8" standalone="no"?>
<!DOCTYPE svg PUBLIC "-//W3C//DTD SVG 1.1//EN"
 "http://www.w3.org/Graphics/SVG/1.1/DTD/svg11.dtd">
<!-- Generated by graphviz version 2.43.0 (0)
 -->
<!-- Title: src/include/binder/expressions/bound_column_ref.h Pages: 1 -->
<svg width="1491pt" height="170pt"
 viewBox="0.00 0.00 1491.00 170.00" xmlns="http://www.w3.org/2000/svg" xmlns:xlink="http://www.w3.org/1999/xlink">
<g id="graph0" class="graph" transform="scale(1 1) rotate(0) translate(4 166)">
<title>src/include/binder/expressions/bound_column_ref.h</title>
<!-- Node1 -->
<g id="Node000001" class="node">
<title>Node1</title>
<g id="a_Node000001"><a xlink:title=" ">
<polygon fill="#999999" stroke="#666666" points="939,-162 760,-162 760,-132 939,-132 939,-162"/>
<text text-anchor="start" x="768" y="-150" font-family="Helvetica,sans-Serif" font-size="10.00">src/include/binder</text>
<text text-anchor="middle" x="849.5" y="-139" font-family="Helvetica,sans-Serif" font-size="10.00">/expressions/bound_column_ref.h</text>
</a>
</g>
</g>
<!-- Node2 -->
<g id="Node000002" class="node">
<title>Node2</title>
<g id="a_Node000002"><a xlink:href="../../db/d4b/bind__create_8cpp.html" target="_top" xlink:title=" ">
<polygon fill="white" stroke="#666666" points="145,-24.5 0,-24.5 0,-5.5 145,-5.5 145,-24.5"/>
<text text-anchor="middle" x="72.5" y="-12.5" font-family="Helvetica,sans-Serif" font-size="10.00">src/binder/bind_create.cpp</text>
</a>
</g>
</g>
<!-- Node1&#45;&gt;Node2 -->
<g id="edge1_Node000001_Node000002" class="edge">
<title>Node1&#45;&gt;Node2</title>
<g id="a_edge1_Node000001_Node000002"><a xlink:title=" ">
<path fill="none" stroke="#63b8ff" d="M749.64,-141.47C647.77,-135.58 485.5,-122.71 347.5,-96 252.8,-77.67 143.7,-41.18 96.41,-24.58"/>
<polygon fill="#63b8ff" stroke="#63b8ff" points="749.73,-144.98 759.92,-142.05 750.13,-137.99 749.73,-144.98"/>
</a>
</g>
</g>
<!-- Node3 -->
<g id="Node000003" class="node">
<title>Node3</title>
<g id="a_Node000003"><a xlink:href="../../d9/d88/bind__insert_8cpp.html" target="_top" xlink:title=" ">
<polygon fill="white" stroke="#666666" points="977.5,-24.5 835.5,-24.5 835.5,-5.5 977.5,-5.5 977.5,-24.5"/>
<text text-anchor="middle" x="906.5" y="-12.5" font-family="Helvetica,sans-Serif" font-size="10.00">src/binder/bind_insert.cpp</text>
</a>
</g>
</g>
<!-- Node1&#45;&gt;Node3 -->
<g id="edge2_Node000001_Node000003" class="edge">
<title>Node1&#45;&gt;Node3</title>
<g id="a_edge2_Node000001_Node000003"><a xlink:title=" ">
<path fill="none" stroke="#63b8ff" d="M827.58,-124.47C813.58,-108.02 800.03,-85 811.5,-66 824.5,-44.46 850.21,-31.73 871.61,-24.51"/>
<polygon fill="#63b8ff" stroke="#63b8ff" points="825.07,-126.92 834.38,-131.98 830.26,-122.22 825.07,-126.92"/>
</a>
</g>
</g>
<!-- Node4 -->
<g id="Node000004" class="node">
<title>Node4</title>
<g id="a_Node000004"><a xlink:href="../../d7/d35/bind__select_8cpp.html" target="_top" xlink:title=" ">
<polygon fill="white" stroke="#666666" points="1153,-90.5 1010,-90.5 1010,-71.5 1153,-71.5 1153,-90.5"/>
<text text-anchor="middle" x="1081.5" y="-78.5" font-family="Helvetica,sans-Serif" font-size="10.00">src/binder/bind_select.cpp</text>
</a>
</g>
</g>
<!-- Node1&#45;&gt;Node4 -->
<g id="edge3_Node000001_Node000004" class="edge">
<title>Node1&#45;&gt;Node4</title>
<g id="a_edge3_Node000001_Node000004"><a xlink:title=" ">
<path fill="none" stroke="#63b8ff" d="M910.09,-129.29C955.19,-116.84 1014.89,-100.37 1050.62,-90.52"/>
<polygon fill="#63b8ff" stroke="#63b8ff" points="909.12,-125.92 900.41,-131.95 910.98,-132.67 909.12,-125.92"/>
</a>
</g>
</g>
<!-- Node5 -->
<g id="Node000005" class="node">
<title>Node5</title>
<g id="a_Node000005"><a xlink:href="../../d2/d22/index__statement_8cpp.html" target="_top" xlink:title=" ">
<polygon fill="white" stroke="#666666" points="285.5,-30 163.5,-30 163.5,0 285.5,0 285.5,-30"/>
<text text-anchor="start" x="171.5" y="-18" font-family="Helvetica,sans-Serif" font-size="10.00">src/binder/statement</text>
<text text-anchor="middle" x="224.5" y="-7" font-family="Helvetica,sans-Serif" font-size="10.00">/index_statement.cpp</text>
</a>
</g>
</g>
<!-- Node1&#45;&gt;Node5 -->
<g id="edge4_Node000001_Node000005" class="edge">
<title>Node1&#45;&gt;Node5</title>
<g id="a_edge4_Node000001_Node000005"><a xlink:title=" ">
<path fill="none" stroke="#63b8ff" d="M749.47,-140.22C666.16,-133.86 544.87,-121.03 441.5,-96 373.4,-79.51 297.32,-48.33 255.77,-30.15"/>
<polygon fill="#63b8ff" stroke="#63b8ff" points="749.46,-143.73 759.69,-140.98 749.98,-136.74 749.46,-143.73"/>
</a>
</g>
</g>
<!-- Node6 -->
<g id="Node000006" class="node">
<title>Node6</title>
<g id="a_Node000006"><a xlink:href="../../d6/df1/index__statement_8h.html" target="_top" xlink:title=" ">
<polygon fill="white" stroke="#666666" points="614.5,-96 450.5,-96 450.5,-66 614.5,-66 614.5,-96"/>
<text text-anchor="start" x="458.5" y="-84" font-family="Helvetica,sans-Serif" font-size="10.00">src/include/binder</text>
<text text-anchor="middle" x="532.5" y="-73" font-family="Helvetica,sans-Serif" font-size="10.00">/statement/index_statement.h</text>
</a>
</g>
</g>
<!-- Node1&#45;&gt;Node6 -->
<g id="edge5_Node000001_Node000006" class="edge">
<title>Node1&#45;&gt;Node6</title>
<g id="a_edge5_Node000001_Node000006"><a xlink:title=" ">
<path fill="none" stroke="#63b8ff" d="M770.13,-129.98C718.39,-119.53 651.52,-106.03 601.9,-96.01"/>
<polygon fill="#63b8ff" stroke="#63b8ff" points="769.44,-133.41 779.93,-131.95 770.82,-126.55 769.44,-133.41"/>
</a>
</g>
</g>
<!-- Node10 -->
<g id="Node000010" class="node">
<title>Node10</title>
<g id="a_Node000010"><a xlink:href="../../df/d26/update__statement_8h.html" target="_top" xlink:title=" ">
<polygon fill="white" stroke="#666666" points="992,-96 821,-96 821,-66 992,-66 992,-96"/>
<text text-anchor="start" x="829" y="-84" font-family="Helvetica,sans-Serif" font-size="10.00">src/include/binder</text>
<text text-anchor="middle" x="906.5" y="-73" font-family="Helvetica,sans-Serif" font-size="10.00">/statement/update_statement.h</text>
</a>
</g>
</g>
<!-- Node1&#45;&gt;Node10 -->
<g id="edge11_Node000001_Node000010" class="edge">
<title>Node1&#45;&gt;Node10</title>
<g id="a_edge11_Node000001_Node000010"><a xlink:title=" ">
<path fill="none" stroke="#63b8ff" d="M869.02,-124.09C877.24,-114.85 886.59,-104.36 893.89,-96.16"/>
<polygon fill="#63b8ff" stroke="#63b8ff" points="866.19,-122 862.15,-131.8 871.41,-126.66 866.19,-122"/>
</a>
</g>
</g>
<!-- Node14 -->
<g id="Node000014" class="node">
<title>Node14</title>
<g id="a_Node000014"><a xlink:href="../../d0/d29/plan__expression_8cpp.html" target="_top" xlink:title=" ">
<polygon fill="white" stroke="#666666" points="1344,-90.5 1171,-90.5 1171,-71.5 1344,-71.5 1344,-90.5"/>
<text text-anchor="middle" x="1257.5" y="-78.5" font-family="Helvetica,sans-Serif" font-size="10.00">src/planner/plan_expression.cpp</text>
</a>
</g>
</g>
<!-- Node1&#45;&gt;Node14 -->
<g id="edge17_Node000001_Node000014" class="edge">
<title>Node1&#45;&gt;Node14</title>
<g id="a_edge17_Node000001_Node000014"><a xlink:title=" ">
<path fill="none" stroke="#63b8ff" d="M948.89,-130.41C1028.91,-117.86 1138.37,-100.69 1203.13,-90.53"/>
<polygon fill="#63b8ff" stroke="#63b8ff" points="948.12,-126.99 938.79,-131.99 949.21,-133.9 948.12,-126.99"/>
</a>
</g>
</g>
<!-- Node15 -->
<g id="Node000015" class="node">
<title>Node15</title>
<g id="a_Node000015"><a xlink:href="../../d6/da3/plan__func__call_8cpp.html" target="_top" xlink:title=" ">
<polygon fill="white" stroke="#666666" points="1483,-96 1362,-96 1362,-66 1483,-66 1483,-96"/>
<text text-anchor="start" x="1370" y="-84" font-family="Helvetica,sans-Serif" font-size="10.00">src/planner/plan_func</text>
<text text-anchor="middle" x="1422.5" y="-73" font-family="Helvetica,sans-Serif" font-size="10.00">_call.cpp</text>
</a>
</g>
</g>
<!-- Node1&#45;&gt;Node15 -->
<g id="edge18_Node000001_Node000015" class="edge">
<title>Node1&#45;&gt;Node15</title>
<g id="a_edge18_Node000001_Node000015"><a xlink:title=" ">
<path fill="none" stroke="#63b8ff" d="M949.04,-139.12C1050.97,-131.37 1213.82,-117.04 1353.5,-96 1356.28,-95.58 1359.12,-95.12 1361.98,-94.64"/>
<polygon fill="#63b8ff" stroke="#63b8ff" points="948.77,-135.63 939.06,-139.87 949.3,-142.61 948.77,-135.63"/>
</a>
</g>
</g>
<!-- Node6&#45;&gt;Node2 -->
<g id="edge6_Node000006_Node000002" class="edge">
<title>Node6&#45;&gt;Node2</title>
<g id="a_edge6_Node000006_Node000002"><a xlink:title=" ">
<path fill="none" stroke="#63b8ff" d="M440.05,-68.76C363.44,-59.2 251.75,-44.73 154.5,-30 143.5,-28.33 131.71,-26.4 120.58,-24.52"/>
<polygon fill="#63b8ff" stroke="#63b8ff" points="439.8,-72.25 450.16,-70.01 440.67,-65.31 439.8,-72.25"/>
</a>
</g>
</g>
<!-- Node6&#45;&gt;Node5 -->
<g id="edge7_Node000006_Node000005" class="edge">
<title>Node6&#45;&gt;Node5</title>
<g id="a_edge7_Node000006_Node000005"><a xlink:title=" ">
<path fill="none" stroke="#63b8ff" d="M454.98,-63.89C402.55,-53 334.27,-38.81 285.66,-28.71"/>
<polygon fill="#63b8ff" stroke="#63b8ff" points="454.41,-67.35 464.91,-65.95 455.83,-60.49 454.41,-67.35"/>
</a>
</g>
</g>
<!-- Node7 -->
<g id="Node000007" class="node">
<title>Node7</title>
<g id="a_Node000007"><a xlink:href="../../df/d93/transformer_8cpp.html" target="_top" xlink:title=" ">
<polygon fill="white" stroke="#666666" points="817,-24.5 672,-24.5 672,-5.5 817,-5.5 817,-24.5"/>
<text text-anchor="middle" x="744.5" y="-12.5" font-family="Helvetica,sans-Serif" font-size="10.00">src/binder/transformer.cpp</text>
</a>
</g>
</g>
<!-- Node6&#45;&gt;Node7 -->
<g id="edge8_Node000006_Node000007" class="edge">
<title>Node6&#45;&gt;Node7</title>
<g id="a_edge8_Node000006_Node000007"><a xlink:title=" ">
<path fill="none" stroke="#63b8ff" d="M588.65,-63.05C629.76,-50.64 683.84,-34.31 716.29,-24.52"/>
<polygon fill="#63b8ff" stroke="#63b8ff" points="587.59,-59.71 579.02,-65.95 589.61,-66.42 587.59,-59.71"/>
</a>
</g>
</g>
<!-- Node8 -->
<g id="Node000008" class="node">
<title>Node8</title>
<g id="a_Node000008"><a xlink:href="../../dc/de0/bustub__ddl_8cpp.html" target="_top" xlink:title=" ">
<polygon fill="white" stroke="#666666" points="654,-24.5 501,-24.5 501,-5.5 654,-5.5 654,-24.5"/>
<text text-anchor="middle" x="577.5" y="-12.5" font-family="Helvetica,sans-Serif" font-size="10.00">src/common/bustub_ddl.cpp</text>
</a>
</g>
</g>
<!-- Node6&#45;&gt;Node8 -->
<g id="edge9_Node000006_Node000008" class="edge">
<title>Node6&#45;&gt;Node8</title>
<g id="a_edge9_Node000006_Node000008"><a xlink:title=" ">
<path fill="none" stroke="#63b8ff" d="M548.24,-57.61C556.18,-46.32 565.35,-33.28 571.28,-24.84"/>
<polygon fill="#63b8ff" stroke="#63b8ff" points="545.38,-55.6 542.49,-65.8 551.1,-59.63 545.38,-55.6"/>
</a>
</g>
</g>
<!-- Node9 -->
<g id="Node000009" class="node">
<title>Node9</title>
<g id="a_Node000009"><a xlink:href="../../da/d08/bustub__instance_8cpp.html" target="_top" xlink:title=" ">
<polygon fill="white" stroke="#666666" points="483,-24.5 304,-24.5 304,-5.5 483,-5.5 483,-24.5"/>
<text text-anchor="middle" x="393.5" y="-12.5" font-family="Helvetica,sans-Serif" font-size="10.00">src/common/bustub_instance.cpp</text>
</a>
</g>
</g>
<!-- Node6&#45;&gt;Node9 -->
<g id="edge10_Node000006_Node000009" class="edge">
<title>Node6&#45;&gt;Node9</title>
<g id="a_edge10_Node000006_Node000009"><a xlink:title=" ">
<path fill="none" stroke="#63b8ff" d="M492.58,-61.62C466.06,-49.41 432.46,-33.94 412,-24.52"/>
<polygon fill="#63b8ff" stroke="#63b8ff" points="491.45,-64.95 502,-65.95 494.38,-58.59 491.45,-64.95"/>
</a>
</g>
</g>
<!-- Node10&#45;&gt;Node3 -->
<g id="edge12_Node000010_Node000003" class="edge">
<title>Node10&#45;&gt;Node3</title>
<g id="a_edge12_Node000010_Node000003"><a xlink:title=" ">
<path fill="none" stroke="#63b8ff" d="M906.5,-55.6C906.5,-44.8 906.5,-32.78 906.5,-24.84"/>
<polygon fill="#63b8ff" stroke="#63b8ff" points="903,-55.8 906.5,-65.8 910,-55.8 903,-55.8"/>
</a>
</g>
</g>
<!-- Node10&#45;&gt;Node7 -->
<g id="edge14_Node000010_Node000007" class="edge">
<title>Node10&#45;&gt;Node7</title>
<g id="a_edge14_Node000010_Node000007"><a xlink:title=" ">
<path fill="none" stroke="#63b8ff" d="M861.59,-62.26C830.44,-49.95 790.33,-34.11 766.06,-24.52"/>
<polygon fill="#63b8ff" stroke="#63b8ff" points="860.36,-65.54 870.95,-65.95 862.93,-59.03 860.36,-65.54"/>
</a>
</g>
</g>
<!-- Node11 -->
<g id="Node000011" class="node">
<title>Node11</title>
<g id="a_Node000011"><a xlink:href="../../d6/d68/update__statement_8cpp.html" target="_top" xlink:title=" ">
<polygon fill="white" stroke="#666666" points="1125,-30 996,-30 996,0 1125,0 1125,-30"/>
<text text-anchor="start" x="1004" y="-18" font-family="Helvetica,sans-Serif" font-size="10.00">src/binder/statement</text>
<text text-anchor="middle" x="1060.5" y="-7" font-family="Helvetica,sans-Serif" font-size="10.00">/update_statement.cpp</text>
</a>
</g>
</g>
<!-- Node10&#45;&gt;Node11 -->
<g id="edge13_Node000010_Node000011" class="edge">
<title>Node10&#45;&gt;Node11</title>
<g id="a_edge13_Node000010_Node000011"><a xlink:title=" ">
<path fill="none" stroke="#63b8ff" d="M949.68,-62.05C974.08,-51.91 1004.13,-39.43 1026.78,-30.01"/>
<polygon fill="#63b8ff" stroke="#63b8ff" points="948.19,-58.89 940.3,-65.95 950.87,-65.35 948.19,-58.89"/>
</a>
</g>
</g>
<!-- Node12 -->
<g id="Node000012" class="node">
<title>Node12</title>
<g id="a_Node000012"><a xlink:href="../../d2/dbb/plan__insert_8cpp.html" target="_top" xlink:title=" ">
<polygon fill="white" stroke="#666666" points="1291.5,-24.5 1143.5,-24.5 1143.5,-5.5 1291.5,-5.5 1291.5,-24.5"/>
<text text-anchor="middle" x="1217.5" y="-12.5" font-family="Helvetica,sans-Serif" font-size="10.00">src/planner/plan_insert.cpp</text>
</a>
</g>
</g>
<!-- Node10&#45;&gt;Node12 -->
<g id="edge15_Node000010_Node000012" class="edge">
<title>Node10&#45;&gt;Node12</title>
<g id="a_edge15_Node000010_Node000012"><a xlink:title=" ">
<path fill="none" stroke="#63b8ff" d="M984.7,-63.91C1045.48,-51.4 1127.41,-34.54 1176.11,-24.52"/>
<polygon fill="#63b8ff" stroke="#63b8ff" points="983.84,-60.51 974.75,-65.95 985.25,-67.37 983.84,-60.51"/>
</a>
</g>
</g>
<!-- Node13 -->
<g id="Node000013" class="node">
<title>Node13</title>
<g id="a_Node000013"><a xlink:href="../../de/d3d/planner_8cpp.html" target="_top" xlink:title=" ">
<polygon fill="white" stroke="#666666" points="1439.5,-24.5 1309.5,-24.5 1309.5,-5.5 1439.5,-5.5 1439.5,-24.5"/>
<text text-anchor="middle" x="1374.5" y="-12.5" font-family="Helvetica,sans-Serif" font-size="10.00">src/planner/planner.cpp</text>
</a>
</g>
</g>
<!-- Node10&#45;&gt;Node13 -->
<g id="edge16_Node000010_Node000013" class="edge">
<title>Node10&#45;&gt;Node13</title>
<g id="a_edge16_Node000010_Node000013"><a xlink:title=" ">
<path fill="none" stroke="#63b8ff" d="M1002.4,-65.91C1135.89,-48.34 1171.45,-49.95 1300.5,-30 1310.71,-28.42 1321.66,-26.48 1331.93,-24.56"/>
<polygon fill="#63b8ff" stroke="#63b8ff" points="1001.64,-62.48 992.19,-67.27 1002.56,-69.42 1001.64,-62.48"/>
</a>
</g>
</g>
</g>
</svg>
