<?xml version="1.0" encoding="UTF-8" standalone="no"?>
<!DOCTYPE svg PUBLIC "-//W3C//DTD SVG 1.1//EN"
 "http://www.w3.org/Graphics/SVG/1.1/DTD/svg11.dtd">
<!-- Generated by graphviz version 2.43.0 (0)
 -->
<!-- Title: bustub::LogRecord Pages: 1 -->
<svg width="203pt" height="206pt"
 viewBox="0.00 0.00 203.00 206.00" xmlns="http://www.w3.org/2000/svg" xmlns:xlink="http://www.w3.org/1999/xlink">
<g id="graph0" class="graph" transform="scale(1 1) rotate(0) translate(4 202)">
<title>bustub::LogRecord</title>
<!-- Node1 -->
<g id="Node000001" class="node">
<title>Node1</title>
<g id="a_Node000001"><a xlink:title=" ">
<polygon fill="#999999" stroke="#666666" points="107,-19 0,-19 0,0 107,0 107,-19"/>
<text text-anchor="middle" x="53.5" y="-7" font-family="Helvetica,sans-Serif" font-size="10.00">bustub::LogRecord</text>
</a>
</g>
</g>
<!-- Node2 -->
<g id="Node000002" class="node">
<title>Node2</title>
<g id="a_Node000002"><a xlink:href="../../d3/d22/classbustub_1_1RID.html" target="_top" xlink:title=" ">
<polygon fill="white" stroke="#666666" points="90,-198 17,-198 17,-179 90,-179 90,-198"/>
<text text-anchor="middle" x="53.5" y="-186" font-family="Helvetica,sans-Serif" font-size="10.00">bustub::RID</text>
</a>
</g>
</g>
<!-- Node2&#45;&gt;Node1 -->
<g id="edge1_Node000001_Node000002" class="edge">
<title>Node2&#45;&gt;Node1</title>
<g id="a_edge1_Node000001_Node000002"><a xlink:title=" ">
<path fill="none" stroke="#9a32cd" stroke-dasharray="5,2" d="M50.99,-168.95C49.66,-158.19 48.17,-144.35 47.5,-132 45.22,-89.61 50.22,-38.89 52.47,-19.05"/>
<polygon fill="#9a32cd" stroke="#9a32cd" points="47.52,-169.4 52.28,-178.87 54.46,-168.5 47.52,-169.4"/>
</a>
</g>
<text text-anchor="middle" x="76.5" y="-124" font-family="Helvetica,sans-Serif" font-size="10.00" fill="grey"> delete_rid_</text>
<text text-anchor="middle" x="76.5" y="-113" font-family="Helvetica,sans-Serif" font-size="10.00" fill="grey">insert_rid_</text>
<text text-anchor="middle" x="76.5" y="-102" font-family="Helvetica,sans-Serif" font-size="10.00" fill="grey">update_rid_</text>
</g>
<!-- Node3 -->
<g id="Node000003" class="node">
<title>Node3</title>
<g id="a_Node000003"><a xlink:href="../../d0/ded/classbustub_1_1Tuple.html" target="_top" xlink:title=" ">
<polygon fill="white" stroke="#666666" points="195,-125 114,-125 114,-106 195,-106 195,-125"/>
<text text-anchor="middle" x="154.5" y="-113" font-family="Helvetica,sans-Serif" font-size="10.00">bustub::Tuple</text>
</a>
</g>
</g>
<!-- Node2&#45;&gt;Node3 -->
<g id="edge3_Node000003_Node000002" class="edge">
<title>Node2&#45;&gt;Node3</title>
<g id="a_edge3_Node000003_Node000002"><a xlink:title=" ">
<path fill="none" stroke="#9a32cd" stroke-dasharray="5,2" d="M74.25,-172.92C94.76,-158.49 125.47,-136.91 142.33,-125.06"/>
<polygon fill="#9a32cd" stroke="#9a32cd" points="72.05,-170.18 65.88,-178.79 76.08,-175.91 72.05,-170.18"/>
</a>
</g>
<text text-anchor="middle" x="114.5" y="-153" font-family="Helvetica,sans-Serif" font-size="10.00" fill="grey"> rid_</text>
</g>
<!-- Node3&#45;&gt;Node1 -->
<g id="edge2_Node000001_Node000003" class="edge">
<title>Node3&#45;&gt;Node1</title>
<g id="a_edge2_Node000001_Node000003"><a xlink:title=" ">
<path fill="none" stroke="#9a32cd" stroke-dasharray="5,2" d="M139.11,-98.65C117.48,-76.38 78.85,-36.6 61.88,-19.13"/>
<polygon fill="#9a32cd" stroke="#9a32cd" points="136.76,-101.25 146.23,-105.99 141.78,-96.38 136.76,-101.25"/>
</a>
</g>
<text text-anchor="middle" x="156.5" y="-73" font-family="Helvetica,sans-Serif" font-size="10.00" fill="grey"> delete_tuple_</text>
<text text-anchor="middle" x="156.5" y="-62" font-family="Helvetica,sans-Serif" font-size="10.00" fill="grey">insert_tuple_</text>
<text text-anchor="middle" x="156.5" y="-51" font-family="Helvetica,sans-Serif" font-size="10.00" fill="grey">new_tuple_</text>
<text text-anchor="middle" x="156.5" y="-40" font-family="Helvetica,sans-Serif" font-size="10.00" fill="grey">old_tuple_</text>
</g>
</g>
</svg>
