<?xml version="1.0" encoding="UTF-8" standalone="no"?>
<!DOCTYPE svg PUBLIC "-//W3C//DTD SVG 1.1//EN"
 "http://www.w3.org/Graphics/SVG/1.1/DTD/svg11.dtd">
<!-- Generated by graphviz version 2.43.0 (0)
 -->
<!-- Title: src/include/binder/statement/insert_statement.h Pages: 1 -->
<svg width="1222pt" height="104pt"
 viewBox="0.00 0.00 1222.00 104.00" xmlns="http://www.w3.org/2000/svg" xmlns:xlink="http://www.w3.org/1999/xlink">
<g id="graph0" class="graph" transform="scale(1 1) rotate(0) translate(4 100)">
<title>src/include/binder/statement/insert_statement.h</title>
<!-- Node1 -->
<g id="Node000001" class="node">
<title>Node1</title>
<g id="a_Node000001"><a xlink:title=" ">
<polygon fill="#999999" stroke="#666666" points="665.5,-96 500.5,-96 500.5,-66 665.5,-66 665.5,-96"/>
<text text-anchor="start" x="508.5" y="-84" font-family="Helvetica,sans-Serif" font-size="10.00">src/include/binder</text>
<text text-anchor="middle" x="583" y="-73" font-family="Helvetica,sans-Serif" font-size="10.00">/statement/insert_statement.h</text>
</a>
</g>
</g>
<!-- Node2 -->
<g id="Node000002" class="node">
<title>Node2</title>
<g id="a_Node000002"><a xlink:href="../../d9/d88/bind__insert_8cpp.html" target="_top" xlink:title=" ">
<polygon fill="white" stroke="#666666" points="142,-24.5 0,-24.5 0,-5.5 142,-5.5 142,-24.5"/>
<text text-anchor="middle" x="71" y="-12.5" font-family="Helvetica,sans-Serif" font-size="10.00">src/binder/bind_insert.cpp</text>
</a>
</g>
</g>
<!-- Node1&#45;&gt;Node2 -->
<g id="edge1_Node000001_Node000002" class="edge">
<title>Node1&#45;&gt;Node2</title>
<g id="a_edge1_Node000001_Node000002"><a xlink:title=" ">
<path fill="none" stroke="#63b8ff" d="M490.22,-70.83C402.6,-61.81 267.61,-46.94 151,-30 139.98,-28.4 128.14,-26.45 117.04,-24.53"/>
<polygon fill="#63b8ff" stroke="#63b8ff" points="490.09,-74.34 500.4,-71.88 490.81,-67.38 490.09,-74.34"/>
</a>
</g>
</g>
<!-- Node3 -->
<g id="Node000003" class="node">
<title>Node3</title>
<g id="a_Node000003"><a xlink:href="../../dc/de9/binder_8cpp.html" target="_top" xlink:title=" ">
<polygon fill="white" stroke="#666666" points="278,-24.5 160,-24.5 160,-5.5 278,-5.5 278,-24.5"/>
<text text-anchor="middle" x="219" y="-12.5" font-family="Helvetica,sans-Serif" font-size="10.00">src/binder/binder.cpp</text>
</a>
</g>
</g>
<!-- Node1&#45;&gt;Node3 -->
<g id="edge2_Node000001_Node000003" class="edge">
<title>Node1&#45;&gt;Node3</title>
<g id="a_edge2_Node000001_Node000003"><a xlink:title=" ">
<path fill="none" stroke="#63b8ff" d="M490.3,-65.21C431.88,-55.68 354.92,-42.72 287,-30 278,-28.31 268.35,-26.39 259.22,-24.53"/>
<polygon fill="#63b8ff" stroke="#63b8ff" points="489.81,-68.68 500.24,-66.83 490.94,-61.77 489.81,-68.68"/>
</a>
</g>
</g>
<!-- Node4 -->
<g id="Node000004" class="node">
<title>Node4</title>
<g id="a_Node000004"><a xlink:href="../../d1/d11/explain__statement_8cpp.html" target="_top" xlink:title=" ">
<polygon fill="white" stroke="#666666" points="427.5,-30 296.5,-30 296.5,0 427.5,0 427.5,-30"/>
<text text-anchor="start" x="304.5" y="-18" font-family="Helvetica,sans-Serif" font-size="10.00">src/binder/statement</text>
<text text-anchor="middle" x="362" y="-7" font-family="Helvetica,sans-Serif" font-size="10.00">/explain_statement.cpp</text>
</a>
</g>
</g>
<!-- Node1&#45;&gt;Node4 -->
<g id="edge3_Node000001_Node000004" class="edge">
<title>Node1&#45;&gt;Node4</title>
<g id="a_edge3_Node000001_Node000004"><a xlink:title=" ">
<path fill="none" stroke="#63b8ff" d="M524.72,-63.12C489.08,-52.8 444.04,-39.76 410.39,-30.01"/>
<polygon fill="#63b8ff" stroke="#63b8ff" points="523.92,-66.54 534.5,-65.95 525.87,-59.81 523.92,-66.54"/>
</a>
</g>
</g>
<!-- Node5 -->
<g id="Node000005" class="node">
<title>Node5</title>
<g id="a_Node000005"><a xlink:href="../../d8/d89/insert__statement_8cpp.html" target="_top" xlink:title=" ">
<polygon fill="white" stroke="#666666" points="568.5,-30 445.5,-30 445.5,0 568.5,0 568.5,-30"/>
<text text-anchor="start" x="453.5" y="-18" font-family="Helvetica,sans-Serif" font-size="10.00">src/binder/statement</text>
<text text-anchor="middle" x="507" y="-7" font-family="Helvetica,sans-Serif" font-size="10.00">/insert_statement.cpp</text>
</a>
</g>
</g>
<!-- Node1&#45;&gt;Node5 -->
<g id="edge4_Node000001_Node000005" class="edge">
<title>Node1&#45;&gt;Node5</title>
<g id="a_edge4_Node000001_Node000005"><a xlink:title=" ">
<path fill="none" stroke="#63b8ff" d="M558.3,-59.2C547.02,-49.7 533.95,-38.69 523.82,-30.16"/>
<polygon fill="#63b8ff" stroke="#63b8ff" points="556.23,-62.03 566.13,-65.8 560.74,-56.68 556.23,-62.03"/>
</a>
</g>
</g>
<!-- Node6 -->
<g id="Node000006" class="node">
<title>Node6</title>
<g id="a_Node000006"><a xlink:href="../../df/d93/transformer_8cpp.html" target="_top" xlink:title=" ">
<polygon fill="white" stroke="#666666" points="731.5,-24.5 586.5,-24.5 586.5,-5.5 731.5,-5.5 731.5,-24.5"/>
<text text-anchor="middle" x="659" y="-12.5" font-family="Helvetica,sans-Serif" font-size="10.00">src/binder/transformer.cpp</text>
</a>
</g>
</g>
<!-- Node1&#45;&gt;Node6 -->
<g id="edge5_Node000001_Node000006" class="edge">
<title>Node1&#45;&gt;Node6</title>
<g id="a_edge5_Node000001_Node000006"><a xlink:title=" ">
<path fill="none" stroke="#63b8ff" d="M607.63,-59.26C621.46,-47.61 637.99,-33.69 648.5,-24.84"/>
<polygon fill="#63b8ff" stroke="#63b8ff" points="605.26,-56.68 599.87,-65.8 609.77,-62.03 605.26,-56.68"/>
</a>
</g>
</g>
<!-- Node7 -->
<g id="Node000007" class="node">
<title>Node7</title>
<g id="a_Node000007"><a xlink:href="../../d2/dbb/plan__insert_8cpp.html" target="_top" xlink:title=" ">
<polygon fill="white" stroke="#666666" points="898,-24.5 750,-24.5 750,-5.5 898,-5.5 898,-24.5"/>
<text text-anchor="middle" x="824" y="-12.5" font-family="Helvetica,sans-Serif" font-size="10.00">src/planner/plan_insert.cpp</text>
</a>
</g>
</g>
<!-- Node1&#45;&gt;Node7 -->
<g id="edge6_Node000001_Node000007" class="edge">
<title>Node1&#45;&gt;Node7</title>
<g id="a_edge6_Node000001_Node000007"><a xlink:title=" ">
<path fill="none" stroke="#63b8ff" d="M645.65,-63.36C692.53,-50.91 754.73,-34.4 791.93,-24.52"/>
<polygon fill="#63b8ff" stroke="#63b8ff" points="644.66,-60.01 635.89,-65.95 646.45,-66.77 644.66,-60.01"/>
</a>
</g>
</g>
<!-- Node8 -->
<g id="Node000008" class="node">
<title>Node8</title>
<g id="a_Node000008"><a xlink:href="../../d9/df0/plan__select_8cpp.html" target="_top" xlink:title=" ">
<polygon fill="white" stroke="#666666" points="1065.5,-24.5 916.5,-24.5 916.5,-5.5 1065.5,-5.5 1065.5,-24.5"/>
<text text-anchor="middle" x="991" y="-12.5" font-family="Helvetica,sans-Serif" font-size="10.00">src/planner/plan_select.cpp</text>
</a>
</g>
</g>
<!-- Node1&#45;&gt;Node8 -->
<g id="edge7_Node000001_Node000008" class="edge">
<title>Node1&#45;&gt;Node8</title>
<g id="a_edge7_Node000001_Node000008"><a xlink:title=" ">
<path fill="none" stroke="#63b8ff" d="M675.8,-65.98C740.61,-56.12 829.12,-42.5 907,-30 917.8,-28.27 929.38,-26.37 940.38,-24.54"/>
<polygon fill="#63b8ff" stroke="#63b8ff" points="674.97,-62.57 665.61,-67.53 676.02,-69.49 674.97,-62.57"/>
</a>
</g>
</g>
<!-- Node9 -->
<g id="Node000009" class="node">
<title>Node9</title>
<g id="a_Node000009"><a xlink:href="../../de/d3d/planner_8cpp.html" target="_top" xlink:title=" ">
<polygon fill="white" stroke="#666666" points="1214,-24.5 1084,-24.5 1084,-5.5 1214,-5.5 1214,-24.5"/>
<text text-anchor="middle" x="1149" y="-12.5" font-family="Helvetica,sans-Serif" font-size="10.00">src/planner/planner.cpp</text>
</a>
</g>
</g>
<!-- Node1&#45;&gt;Node9 -->
<g id="edge8_Node000001_Node000009" class="edge">
<title>Node1&#45;&gt;Node9</title>
<g id="a_edge8_Node000001_Node000009"><a xlink:title=" ">
<path fill="none" stroke="#63b8ff" d="M675.52,-72.98C774.62,-64.9 936.38,-50.12 1075,-30 1085.48,-28.48 1096.74,-26.52 1107.23,-24.55"/>
<polygon fill="#63b8ff" stroke="#63b8ff" points="675.21,-69.49 665.53,-73.79 675.78,-76.47 675.21,-69.49"/>
</a>
</g>
</g>
</g>
</svg>
