<?xml version="1.0" encoding="UTF-8" standalone="no"?>
<!DOCTYPE svg PUBLIC "-//W3C//DTD SVG 1.1//EN"
 "http://www.w3.org/Graphics/SVG/1.1/DTD/svg11.dtd">
<!-- Generated by graphviz version 2.43.0 (0)
 -->
<!-- Title: src/include/execution/plans/topn_plan.h Pages: 1 -->
<svg width="703pt" height="247pt"
 viewBox="0.00 0.00 703.12 247.00" xmlns="http://www.w3.org/2000/svg" xmlns:xlink="http://www.w3.org/1999/xlink">
<g id="graph0" class="graph" transform="scale(1 1) rotate(0) translate(4 243)">
<title>src/include/execution/plans/topn_plan.h</title>
<!-- Node1 -->
<g id="Node000001" class="node">
<title>Node1</title>
<g id="a_Node000001"><a xlink:title=" ">
<polygon fill="#999999" stroke="#666666" points="315.12,-239 196.12,-239 196.12,-209 315.12,-209 315.12,-239"/>
<text text-anchor="start" x="204.12" y="-227" font-family="Helvetica,sans-Serif" font-size="10.00">src/include/execution</text>
<text text-anchor="middle" x="255.62" y="-216" font-family="Helvetica,sans-Serif" font-size="10.00">/plans/topn_plan.h</text>
</a>
</g>
</g>
<!-- Node2 -->
<g id="Node000002" class="node">
<title>Node2</title>
<g id="a_Node000002"><a xlink:href="../../d3/d3e/executor__factory_8cpp.html" target="_top" xlink:title=" ">
<polygon fill="white" stroke="#666666" points="128.62,-30 2.62,-30 2.62,0 128.62,0 128.62,-30"/>
<text text-anchor="start" x="10.62" y="-18" font-family="Helvetica,sans-Serif" font-size="10.00">src/execution/executor</text>
<text text-anchor="middle" x="65.62" y="-7" font-family="Helvetica,sans-Serif" font-size="10.00">_factory.cpp</text>
</a>
</g>
</g>
<!-- Node1&#45;&gt;Node2 -->
<g id="edge1_Node000001_Node000002" class="edge">
<title>Node1&#45;&gt;Node2</title>
<g id="a_edge1_Node000001_Node000002"><a xlink:title=" ">
<path fill="none" stroke="#63b8ff" d="M186.08,-215.58C122.72,-204.43 34.74,-176.55 5.62,-107 -1.41,-90.19 -2.11,-82.5 5.62,-66 12.76,-50.77 27.06,-38.57 39.91,-30.03"/>
<polygon fill="#63b8ff" stroke="#63b8ff" points="185.59,-219.05 196.02,-217.24 186.73,-212.14 185.59,-219.05"/>
</a>
</g>
</g>
<!-- Node3 -->
<g id="Node000003" class="node">
<title>Node3</title>
<g id="a_Node000003"><a xlink:href="../../dd/def/execution_2fmt__impl_8cpp.html" target="_top" xlink:title=" ">
<polygon fill="white" stroke="#666666" points="413.12,-167.5 264.12,-167.5 264.12,-148.5 413.12,-148.5 413.12,-167.5"/>
<text text-anchor="middle" x="338.62" y="-155.5" font-family="Helvetica,sans-Serif" font-size="10.00">src/execution/fmt_impl.cpp</text>
</a>
</g>
</g>
<!-- Node1&#45;&gt;Node3 -->
<g id="edge2_Node000001_Node000003" class="edge">
<title>Node1&#45;&gt;Node3</title>
<g id="a_edge2_Node000001_Node000003"><a xlink:title=" ">
<path fill="none" stroke="#63b8ff" d="M282.1,-202.58C297.29,-190.87 315.58,-176.77 327.15,-167.84"/>
<polygon fill="#63b8ff" stroke="#63b8ff" points="279.83,-199.92 274.04,-208.8 284.1,-205.46 279.83,-199.92"/>
</a>
</g>
</g>
<!-- Node4 -->
<g id="Node000004" class="node">
<title>Node4</title>
<g id="a_Node000004"><a xlink:href="../../dd/d1c/topn__check__executor_8h.html" target="_top" xlink:title=" ">
<polygon fill="white" stroke="#666666" points="139.12,-107 14.12,-107 14.12,-66 139.12,-66 139.12,-107"/>
<text text-anchor="start" x="22.12" y="-95" font-family="Helvetica,sans-Serif" font-size="10.00">src/include/execution</text>
<text text-anchor="start" x="22.12" y="-84" font-family="Helvetica,sans-Serif" font-size="10.00">/executors/topn_check</text>
<text text-anchor="middle" x="76.62" y="-73" font-family="Helvetica,sans-Serif" font-size="10.00">_executor.h</text>
</a>
</g>
</g>
<!-- Node1&#45;&gt;Node4 -->
<g id="edge3_Node000001_Node000004" class="edge">
<title>Node1&#45;&gt;Node4</title>
<g id="a_edge3_Node000001_Node000004"><a xlink:title=" ">
<path fill="none" stroke="#63b8ff" d="M185.88,-218.61C152.36,-212.8 114.4,-200.14 90.62,-173 74.86,-155.01 73.28,-126.39 74.34,-107.28"/>
<polygon fill="#63b8ff" stroke="#63b8ff" points="185.7,-222.13 196.12,-220.2 186.78,-215.21 185.7,-222.13"/>
</a>
</g>
</g>
<!-- Node6 -->
<g id="Node000006" class="node">
<title>Node6</title>
<g id="a_Node000006"><a xlink:href="../../d0/dc2/topn__executor_8h.html" target="_top" xlink:title=" ">
<polygon fill="white" stroke="#666666" points="246.12,-173 99.12,-173 99.12,-143 246.12,-143 246.12,-173"/>
<text text-anchor="start" x="107.12" y="-161" font-family="Helvetica,sans-Serif" font-size="10.00">src/include/execution</text>
<text text-anchor="middle" x="172.62" y="-150" font-family="Helvetica,sans-Serif" font-size="10.00">/executors/topn_executor.h</text>
</a>
</g>
</g>
<!-- Node1&#45;&gt;Node6 -->
<g id="edge6_Node000001_Node000006" class="edge">
<title>Node1&#45;&gt;Node6</title>
<g id="a_edge6_Node000001_Node000006"><a xlink:title=" ">
<path fill="none" stroke="#63b8ff" d="M229.01,-202.48C216.61,-192.91 202.16,-181.77 190.99,-173.16"/>
<polygon fill="#63b8ff" stroke="#63b8ff" points="227.15,-205.46 237.2,-208.8 231.42,-199.92 227.15,-205.46"/>
</a>
</g>
</g>
<!-- Node8 -->
<g id="Node000008" class="node">
<title>Node8</title>
<g id="a_Node000008"><a xlink:href="../../d8/dd7/eliminate__true__filter_8cpp.html" target="_top" xlink:title=" ">
<polygon fill="white" stroke="#666666" points="561.62,-173 431.62,-173 431.62,-143 561.62,-143 561.62,-173"/>
<text text-anchor="start" x="439.62" y="-161" font-family="Helvetica,sans-Serif" font-size="10.00">src/optimizer/eliminate</text>
<text text-anchor="middle" x="496.62" y="-150" font-family="Helvetica,sans-Serif" font-size="10.00">_true_filter.cpp</text>
</a>
</g>
</g>
<!-- Node1&#45;&gt;Node8 -->
<g id="edge11_Node000001_Node000008" class="edge">
<title>Node1&#45;&gt;Node8</title>
<g id="a_edge11_Node000001_Node000008"><a xlink:title=" ">
<path fill="none" stroke="#63b8ff" d="M318.19,-206.39C357.2,-196.03 406.84,-182.84 443.86,-173.01"/>
<polygon fill="#63b8ff" stroke="#63b8ff" points="317.28,-203.01 308.51,-208.95 319.08,-209.77 317.28,-203.01"/>
</a>
</g>
</g>
<!-- Node9 -->
<g id="Node000009" class="node">
<title>Node9</title>
<g id="a_Node000009"><a xlink:href="../../d0/d46/merge__filter__scan_8cpp.html" target="_top" xlink:title=" ">
<polygon fill="white" stroke="#666666" points="695.12,-173 580.12,-173 580.12,-143 695.12,-143 695.12,-173"/>
<text text-anchor="start" x="588.12" y="-161" font-family="Helvetica,sans-Serif" font-size="10.00">src/optimizer/merge</text>
<text text-anchor="middle" x="637.62" y="-150" font-family="Helvetica,sans-Serif" font-size="10.00">_filter_scan.cpp</text>
</a>
</g>
</g>
<!-- Node1&#45;&gt;Node9 -->
<g id="edge12_Node000001_Node000009" class="edge">
<title>Node1&#45;&gt;Node9</title>
<g id="a_edge12_Node000001_Node000009"><a xlink:title=" ">
<path fill="none" stroke="#63b8ff" d="M325.25,-212.94C389.19,-203.47 486.49,-188.46 570.62,-173 573.66,-172.44 576.78,-171.85 579.92,-171.24"/>
<polygon fill="#63b8ff" stroke="#63b8ff" points="324.66,-209.49 315.28,-214.41 325.68,-216.41 324.66,-209.49"/>
</a>
</g>
</g>
<!-- Node4&#45;&gt;Node2 -->
<g id="edge4_Node000004_Node000002" class="edge">
<title>Node4&#45;&gt;Node2</title>
<g id="a_edge4_Node000004_Node000002"><a xlink:title=" ">
<path fill="none" stroke="#63b8ff" d="M71.9,-55.66C70.49,-46.76 69.01,-37.42 67.85,-30.04"/>
<polygon fill="#63b8ff" stroke="#63b8ff" points="68.48,-56.44 73.5,-65.77 75.39,-55.35 68.48,-56.44"/>
</a>
</g>
</g>
<!-- Node5 -->
<g id="Node000005" class="node">
<title>Node5</title>
<g id="a_Node000005"><a xlink:href="../../d4/dc7/topn__check__executor_8cpp.html" target="_top" xlink:title=" ">
<polygon fill="white" stroke="#666666" points="264.12,-30 147.12,-30 147.12,0 264.12,0 264.12,-30"/>
<text text-anchor="start" x="155.12" y="-18" font-family="Helvetica,sans-Serif" font-size="10.00">src/execution/topn</text>
<text text-anchor="middle" x="205.62" y="-7" font-family="Helvetica,sans-Serif" font-size="10.00">_check_executor.cpp</text>
</a>
</g>
</g>
<!-- Node4&#45;&gt;Node5 -->
<g id="edge5_Node000004_Node000005" class="edge">
<title>Node4&#45;&gt;Node5</title>
<g id="a_edge5_Node000004_Node000005"><a xlink:title=" ">
<path fill="none" stroke="#63b8ff" d="M121.83,-61.14C141.1,-50.76 162.9,-39.02 179.43,-30.11"/>
<polygon fill="#63b8ff" stroke="#63b8ff" points="120.04,-58.13 112.9,-65.96 123.36,-64.29 120.04,-58.13"/>
</a>
</g>
</g>
<!-- Node6&#45;&gt;Node2 -->
<g id="edge7_Node000006_Node000002" class="edge">
<title>Node6&#45;&gt;Node2</title>
<g id="a_edge7_Node000006_Node000002"><a xlink:title=" ">
<path fill="none" stroke="#63b8ff" d="M171.22,-132.94C168.99,-113.24 163.26,-85.52 148.62,-66 136.72,-50.12 118.15,-38.25 101.6,-30.08"/>
<polygon fill="#63b8ff" stroke="#63b8ff" points="167.74,-133.32 172.13,-142.96 174.71,-132.68 167.74,-133.32"/>
</a>
</g>
</g>
<!-- Node6&#45;&gt;Node4 -->
<g id="edge10_Node000006_Node000004" class="edge">
<title>Node6&#45;&gt;Node4</title>
<g id="a_edge10_Node000006_Node000004"><a xlink:title=" ">
<path fill="none" stroke="#63b8ff" d="M145.06,-137.04C132.06,-127.63 116.59,-116.44 103.66,-107.07"/>
<polygon fill="#63b8ff" stroke="#63b8ff" points="143.04,-139.91 153.2,-142.94 147.15,-134.24 143.04,-139.91"/>
</a>
</g>
</g>
<!-- Node6&#45;&gt;Node5 -->
<g id="edge8_Node000006_Node000005" class="edge">
<title>Node6&#45;&gt;Node5</title>
<g id="a_edge8_Node000006_Node000005"><a xlink:title=" ">
<path fill="none" stroke="#63b8ff" d="M178.22,-133.09C185.11,-103.65 196.59,-54.6 202.25,-30.4"/>
<polygon fill="#63b8ff" stroke="#63b8ff" points="174.78,-132.43 175.91,-142.96 181.6,-134.03 174.78,-132.43"/>
</a>
</g>
</g>
<!-- Node7 -->
<g id="Node000007" class="node">
<title>Node7</title>
<g id="a_Node000007"><a xlink:href="../../d9/d06/topn__executor_8cpp.html" target="_top" xlink:title=" ">
<polygon fill="white" stroke="#666666" points="339.62,-101.5 233.62,-101.5 233.62,-71.5 339.62,-71.5 339.62,-101.5"/>
<text text-anchor="start" x="241.62" y="-89.5" font-family="Helvetica,sans-Serif" font-size="10.00">src/execution/topn</text>
<text text-anchor="middle" x="286.62" y="-78.5" font-family="Helvetica,sans-Serif" font-size="10.00">_executor.cpp</text>
</a>
</g>
</g>
<!-- Node6&#45;&gt;Node7 -->
<g id="edge9_Node000006_Node000007" class="edge">
<title>Node6&#45;&gt;Node7</title>
<g id="a_edge9_Node000006_Node000007"><a xlink:title=" ">
<path fill="none" stroke="#63b8ff" d="M204.24,-137.72C223.06,-126.25 246.52,-111.95 263.59,-101.54"/>
<polygon fill="#63b8ff" stroke="#63b8ff" points="202.41,-134.74 195.69,-142.94 206.05,-140.72 202.41,-134.74"/>
</a>
</g>
</g>
</g>
</svg>
