<?xml version="1.0" encoding="UTF-8" standalone="no"?>
<!DOCTYPE svg PUBLIC "-//W3C//DTD SVG 1.1//EN"
 "http://www.w3.org/Graphics/SVG/1.1/DTD/svg11.dtd">
<!-- Generated by graphviz version 2.43.0 (0)
 -->
<!-- Title: src/include/type/numeric_type.h Pages: 1 -->
<svg width="4027pt" height="313pt"
 viewBox="0.00 0.00 4026.50 313.00" xmlns="http://www.w3.org/2000/svg" xmlns:xlink="http://www.w3.org/1999/xlink">
<g id="graph0" class="graph" transform="scale(1 1) rotate(0) translate(4 309)">
<title>src/include/type/numeric_type.h</title>
<!-- Node1 -->
<g id="Node000001" class="node">
<title>Node1</title>
<g id="a_Node000001"><a xlink:title=" ">
<polygon fill="#999999" stroke="#666666" points="2775,-305 2638,-305 2638,-275 2775,-275 2775,-305"/>
<text text-anchor="start" x="2646" y="-293" font-family="Helvetica,sans-Serif" font-size="10.00">src/include/type/numeric</text>
<text text-anchor="middle" x="2706.5" y="-282" font-family="Helvetica,sans-Serif" font-size="10.00">_type.h</text>
</a>
</g>
</g>
<!-- Node2 -->
<g id="Node000002" class="node">
<title>Node2</title>
<g id="a_Node000002"><a xlink:href="../../d6/dcc/decimal__type_8h.html" target="_top" xlink:title=" ">
<polygon fill="white" stroke="#666666" points="2774.5,-239 2638.5,-239 2638.5,-209 2774.5,-209 2774.5,-239"/>
<text text-anchor="start" x="2646.5" y="-227" font-family="Helvetica,sans-Serif" font-size="10.00">src/include/type/decimal</text>
<text text-anchor="middle" x="2706.5" y="-216" font-family="Helvetica,sans-Serif" font-size="10.00">_type.h</text>
</a>
</g>
</g>
<!-- Node1&#45;&gt;Node2 -->
<g id="edge1_Node000001_Node000002" class="edge">
<title>Node1&#45;&gt;Node2</title>
<g id="a_edge1_Node000001_Node000002"><a xlink:title=" ">
<path fill="none" stroke="#63b8ff" d="M2706.5,-264.54C2706.5,-255.96 2706.5,-246.61 2706.5,-239.16"/>
<polygon fill="#63b8ff" stroke="#63b8ff" points="2703,-264.8 2706.5,-274.8 2710,-264.8 2703,-264.8"/>
</a>
</g>
</g>
<!-- Node5 -->
<g id="Node000005" class="node">
<title>Node5</title>
<g id="a_Node000005"><a xlink:href="../../d1/db2/value__factory_8h.html" target="_top" xlink:title=" ">
<polygon fill="white" stroke="#666666" points="1862.5,-173 1738.5,-173 1738.5,-143 1862.5,-143 1862.5,-173"/>
<text text-anchor="start" x="1746.5" y="-161" font-family="Helvetica,sans-Serif" font-size="10.00">src/include/type/value</text>
<text text-anchor="middle" x="1800.5" y="-150" font-family="Helvetica,sans-Serif" font-size="10.00">_factory.h</text>
</a>
</g>
</g>
<!-- Node1&#45;&gt;Node5 -->
<g id="edge49_Node000001_Node000005" class="edge">
<title>Node1&#45;&gt;Node5</title>
<g id="a_edge49_Node000001_Node000005"><a xlink:title=" ">
<path fill="none" stroke="#63b8ff" d="M2627.61,-277.68C2450.21,-252.23 2022.82,-190.9 1862.57,-167.91"/>
<polygon fill="#63b8ff" stroke="#63b8ff" points="2627.26,-281.17 2637.66,-279.12 2628.26,-274.24 2627.26,-281.17"/>
</a>
</g>
</g>
<!-- Node34 -->
<g id="Node000034" class="node">
<title>Node34</title>
<g id="a_Node000034"><a xlink:href="../../d2/d58/integer__parent__type_8h.html" target="_top" xlink:title=" ">
<polygon fill="white" stroke="#666666" points="3645,-239 3514,-239 3514,-209 3645,-209 3645,-239"/>
<text text-anchor="start" x="3522" y="-227" font-family="Helvetica,sans-Serif" font-size="10.00">src/include/type/integer</text>
<text text-anchor="middle" x="3579.5" y="-216" font-family="Helvetica,sans-Serif" font-size="10.00">_parent_type.h</text>
</a>
</g>
</g>
<!-- Node1&#45;&gt;Node34 -->
<g id="edge35_Node000001_Node000034" class="edge">
<title>Node1&#45;&gt;Node34</title>
<g id="a_edge35_Node000001_Node000034"><a xlink:title=" ">
<path fill="none" stroke="#63b8ff" d="M2785.15,-283.23C2955.46,-270.75 3355.72,-241.41 3513.7,-229.82"/>
<polygon fill="#63b8ff" stroke="#63b8ff" points="2784.72,-279.76 2775,-283.98 2785.23,-286.74 2784.72,-279.76"/>
</a>
</g>
</g>
<!-- Node3 -->
<g id="Node000003" class="node">
<title>Node3</title>
<g id="a_Node000003"><a xlink:href="../../dc/de9/binder_8cpp.html" target="_top" xlink:title=" ">
<polygon fill="white" stroke="#666666" points="2615.5,-167.5 2497.5,-167.5 2497.5,-148.5 2615.5,-148.5 2615.5,-167.5"/>
<text text-anchor="middle" x="2556.5" y="-155.5" font-family="Helvetica,sans-Serif" font-size="10.00">src/binder/binder.cpp</text>
</a>
</g>
</g>
<!-- Node2&#45;&gt;Node3 -->
<g id="edge2_Node000002_Node000003" class="edge">
<title>Node2&#45;&gt;Node3</title>
<g id="a_edge2_Node000002_Node000003"><a xlink:title=" ">
<path fill="none" stroke="#63b8ff" d="M2664.17,-204.94C2635.44,-192.68 2598.74,-177.02 2576.46,-167.52"/>
<polygon fill="#63b8ff" stroke="#63b8ff" points="2663.01,-208.25 2673.58,-208.95 2665.76,-201.81 2663.01,-208.25"/>
</a>
</g>
</g>
<!-- Node4 -->
<g id="Node000004" class="node">
<title>Node4</title>
<g id="a_Node000004"><a xlink:href="../../df/d93/transformer_8cpp.html" target="_top" xlink:title=" ">
<polygon fill="white" stroke="#666666" points="2779,-167.5 2634,-167.5 2634,-148.5 2779,-148.5 2779,-167.5"/>
<text text-anchor="middle" x="2706.5" y="-155.5" font-family="Helvetica,sans-Serif" font-size="10.00">src/binder/transformer.cpp</text>
</a>
</g>
</g>
<!-- Node2&#45;&gt;Node4 -->
<g id="edge3_Node000002_Node000004" class="edge">
<title>Node2&#45;&gt;Node4</title>
<g id="a_edge3_Node000002_Node000004"><a xlink:title=" ">
<path fill="none" stroke="#63b8ff" d="M2706.5,-198.6C2706.5,-187.8 2706.5,-175.78 2706.5,-167.84"/>
<polygon fill="#63b8ff" stroke="#63b8ff" points="2703,-198.8 2706.5,-208.8 2710,-198.8 2703,-198.8"/>
</a>
</g>
</g>
<!-- Node2&#45;&gt;Node5 -->
<g id="edge4_Node000002_Node000005" class="edge">
<title>Node2&#45;&gt;Node5</title>
<g id="a_edge4_Node000002_Node000005"><a xlink:title=" ">
<path fill="none" stroke="#63b8ff" d="M2628.39,-217.48C2451.51,-204.99 2023.29,-174.74 1862.71,-163.39"/>
<polygon fill="#63b8ff" stroke="#63b8ff" points="2628.18,-220.98 2638.4,-218.19 2628.67,-213.99 2628.18,-220.98"/>
</a>
</g>
</g>
<!-- Node32 -->
<g id="Node000032" class="node">
<title>Node32</title>
<g id="a_Node000032"><a xlink:href="../../d5/d54/decimal__type_8cpp.html" target="_top" xlink:title=" ">
<polygon fill="white" stroke="#666666" points="2942,-167.5 2797,-167.5 2797,-148.5 2942,-148.5 2942,-167.5"/>
<text text-anchor="middle" x="2869.5" y="-155.5" font-family="Helvetica,sans-Serif" font-size="10.00">src/type/decimal_type.cpp</text>
</a>
</g>
</g>
<!-- Node2&#45;&gt;Node32 -->
<g id="edge33_Node000002_Node000032" class="edge">
<title>Node2&#45;&gt;Node32</title>
<g id="a_edge33_Node000002_Node000032"><a xlink:title=" ">
<path fill="none" stroke="#63b8ff" d="M2751.68,-205.26C2783.03,-192.95 2823.39,-177.11 2847.81,-167.52"/>
<polygon fill="#63b8ff" stroke="#63b8ff" points="2750.3,-202.04 2742.27,-208.95 2752.86,-208.56 2750.3,-202.04"/>
</a>
</g>
</g>
<!-- Node33 -->
<g id="Node000033" class="node">
<title>Node33</title>
<g id="a_Node000033"><a xlink:href="../../d9/d88/type_8cpp.html" target="_top" xlink:title=" ">
<polygon fill="white" stroke="#666666" points="3505,-96 3404,-96 3404,-77 3505,-77 3505,-96"/>
<text text-anchor="middle" x="3454.5" y="-84" font-family="Helvetica,sans-Serif" font-size="10.00">src/type/type.cpp</text>
</a>
</g>
</g>
<!-- Node2&#45;&gt;Node33 -->
<g id="edge34_Node000002_Node000033" class="edge">
<title>Node2&#45;&gt;Node33</title>
<g id="a_edge34_Node000002_Node000033"><a xlink:title=" ">
<path fill="none" stroke="#63b8ff" d="M2784.81,-220.88C2952.94,-215.8 3337.46,-201.22 3389.5,-173 3421.79,-155.49 3442.88,-114.3 3450.88,-96.24"/>
<polygon fill="#63b8ff" stroke="#63b8ff" points="2784.67,-217.38 2774.78,-221.17 2784.88,-224.37 2784.67,-217.38"/>
</a>
</g>
</g>
<!-- Node6 -->
<g id="Node000006" class="node">
<title>Node6</title>
<g id="a_Node000006"><a xlink:href="../../d9/d88/bind__insert_8cpp.html" target="_top" xlink:title=" ">
<polygon fill="white" stroke="#666666" points="928.5,-96 786.5,-96 786.5,-77 928.5,-77 928.5,-96"/>
<text text-anchor="middle" x="857.5" y="-84" font-family="Helvetica,sans-Serif" font-size="10.00">src/binder/bind_insert.cpp</text>
</a>
</g>
</g>
<!-- Node5&#45;&gt;Node6 -->
<g id="edge5_Node000005_Node000006" class="edge">
<title>Node5&#45;&gt;Node6</title>
<g id="a_edge5_Node000005_Node000006"><a xlink:title=" ">
<path fill="none" stroke="#63b8ff" d="M1727.99,-157.22C1579.03,-156.69 1228.12,-150.47 937.5,-107 920.53,-104.46 901.9,-100.02 886.88,-96.01"/>
<polygon fill="#63b8ff" stroke="#63b8ff" points="1728.35,-160.72 1738.36,-157.25 1728.37,-153.72 1728.35,-160.72"/>
</a>
</g>
</g>
<!-- Node7 -->
<g id="Node000007" class="node">
<title>Node7</title>
<g id="a_Node000007"><a xlink:href="../../d7/d35/bind__select_8cpp.html" target="_top" xlink:title=" ">
<polygon fill="white" stroke="#666666" points="1090,-96 947,-96 947,-77 1090,-77 1090,-96"/>
<text text-anchor="middle" x="1018.5" y="-84" font-family="Helvetica,sans-Serif" font-size="10.00">src/binder/bind_select.cpp</text>
</a>
</g>
</g>
<!-- Node5&#45;&gt;Node7 -->
<g id="edge6_Node000005_Node000007" class="edge">
<title>Node5&#45;&gt;Node7</title>
<g id="a_edge6_Node000005_Node000007"><a xlink:title=" ">
<path fill="none" stroke="#63b8ff" d="M1728.07,-155.84C1600.22,-152.91 1326.52,-142.65 1098.5,-107 1081.69,-104.37 1063.22,-99.97 1048.27,-96.02"/>
<polygon fill="#63b8ff" stroke="#63b8ff" points="1728.05,-159.34 1738.13,-156.07 1728.21,-152.35 1728.05,-159.34"/>
</a>
</g>
</g>
<!-- Node8 -->
<g id="Node000008" class="node">
<title>Node8</title>
<g id="a_Node000008"><a xlink:href="../../dc/de0/bustub__ddl_8cpp.html" target="_top" xlink:title=" ">
<polygon fill="white" stroke="#666666" points="1261,-96 1108,-96 1108,-77 1261,-77 1261,-96"/>
<text text-anchor="middle" x="1184.5" y="-84" font-family="Helvetica,sans-Serif" font-size="10.00">src/common/bustub_ddl.cpp</text>
</a>
</g>
</g>
<!-- Node5&#45;&gt;Node8 -->
<g id="edge7_Node000005_Node000008" class="edge">
<title>Node5&#45;&gt;Node8</title>
<g id="a_edge7_Node000005_Node000008"><a xlink:title=" ">
<path fill="none" stroke="#63b8ff" d="M1728.2,-153.22C1625.66,-147.17 1432.34,-133.23 1269.5,-107 1252.01,-104.18 1232.75,-99.87 1217,-96.01"/>
<polygon fill="#63b8ff" stroke="#63b8ff" points="1728.25,-156.73 1738.44,-153.81 1728.66,-149.74 1728.25,-156.73"/>
</a>
</g>
</g>
<!-- Node9 -->
<g id="Node000009" class="node">
<title>Node9</title>
<g id="a_Node000009"><a xlink:href="../../da/d08/bustub__instance_8cpp.html" target="_top" xlink:title=" ">
<polygon fill="white" stroke="#666666" points="1458,-96 1279,-96 1279,-77 1458,-77 1458,-96"/>
<text text-anchor="middle" x="1368.5" y="-84" font-family="Helvetica,sans-Serif" font-size="10.00">src/common/bustub_instance.cpp</text>
</a>
</g>
</g>
<!-- Node5&#45;&gt;Node9 -->
<g id="edge8_Node000005_Node000009" class="edge">
<title>Node5&#45;&gt;Node9</title>
<g id="a_edge8_Node000005_Node000009"><a xlink:title=" ">
<path fill="none" stroke="#63b8ff" d="M1728.35,-147.21C1660.6,-137.79 1556.47,-122.68 1466.5,-107 1447.7,-103.72 1426.96,-99.66 1409.42,-96.1"/>
<polygon fill="#63b8ff" stroke="#63b8ff" points="1728.11,-150.71 1738.49,-148.62 1729.07,-143.78 1728.11,-150.71"/>
</a>
</g>
</g>
<!-- Node10 -->
<g id="Node000010" class="node">
<title>Node10</title>
<g id="a_Node000010"><a xlink:href="../../d1/d14/transaction__manager_8cpp.html" target="_top" xlink:title=" ">
<polygon fill="white" stroke="#666666" points="1627,-101.5 1476,-101.5 1476,-71.5 1627,-71.5 1627,-101.5"/>
<text text-anchor="start" x="1484" y="-89.5" font-family="Helvetica,sans-Serif" font-size="10.00">src/concurrency/transaction</text>
<text text-anchor="middle" x="1551.5" y="-78.5" font-family="Helvetica,sans-Serif" font-size="10.00">_manager.cpp</text>
</a>
</g>
</g>
<!-- Node5&#45;&gt;Node10 -->
<g id="edge9_Node000005_Node000010" class="edge">
<title>Node5&#45;&gt;Node10</title>
<g id="a_edge9_Node000005_Node000010"><a xlink:title=" ">
<path fill="none" stroke="#63b8ff" d="M1740.47,-140.24C1698.06,-128.41 1641.87,-112.72 1601.81,-101.54"/>
<polygon fill="#63b8ff" stroke="#63b8ff" points="1739.54,-143.62 1750.11,-142.94 1741.42,-136.88 1739.54,-143.62"/>
</a>
</g>
</g>
<!-- Node11 -->
<g id="Node000011" class="node">
<title>Node11</title>
<g id="a_Node000011"><a xlink:href="../../d3/d72/transaction__manager__impl_8cpp.html" target="_top" xlink:title=" ">
<polygon fill="white" stroke="#666666" points="1796,-101.5 1645,-101.5 1645,-71.5 1796,-71.5 1796,-101.5"/>
<text text-anchor="start" x="1653" y="-89.5" font-family="Helvetica,sans-Serif" font-size="10.00">src/concurrency/transaction</text>
<text text-anchor="middle" x="1720.5" y="-78.5" font-family="Helvetica,sans-Serif" font-size="10.00">_manager_impl.cpp</text>
</a>
</g>
</g>
<!-- Node5&#45;&gt;Node11 -->
<g id="edge10_Node000005_Node000011" class="edge">
<title>Node5&#45;&gt;Node11</title>
<g id="a_edge10_Node000005_Node000011"><a xlink:title=" ">
<path fill="none" stroke="#63b8ff" d="M1776.68,-136.31C1763.77,-125.09 1748.15,-111.52 1736.67,-101.54"/>
<polygon fill="#63b8ff" stroke="#63b8ff" points="1774.47,-139.02 1784.31,-142.94 1779.06,-133.74 1774.47,-139.02"/>
</a>
</g>
</g>
<!-- Node12 -->
<g id="Node000012" class="node">
<title>Node12</title>
<g id="a_Node000012"><a xlink:href="../../dd/df1/execution__common_8cpp.html" target="_top" xlink:title=" ">
<polygon fill="white" stroke="#666666" points="1945,-101.5 1814,-101.5 1814,-71.5 1945,-71.5 1945,-101.5"/>
<text text-anchor="start" x="1822" y="-89.5" font-family="Helvetica,sans-Serif" font-size="10.00">src/execution/execution</text>
<text text-anchor="middle" x="1879.5" y="-78.5" font-family="Helvetica,sans-Serif" font-size="10.00">_common.cpp</text>
</a>
</g>
</g>
<!-- Node5&#45;&gt;Node12 -->
<g id="edge11_Node000005_Node000012" class="edge">
<title>Node5&#45;&gt;Node12</title>
<g id="a_edge11_Node000005_Node000012"><a xlink:title=" ">
<path fill="none" stroke="#63b8ff" d="M1824.02,-136.31C1836.77,-125.09 1852.19,-111.52 1863.54,-101.54"/>
<polygon fill="#63b8ff" stroke="#63b8ff" points="1821.68,-133.7 1816.49,-142.94 1826.31,-138.96 1821.68,-133.7"/>
</a>
</g>
</g>
<!-- Node13 -->
<g id="Node000013" class="node">
<title>Node13</title>
<g id="a_Node000013"><a xlink:href="../../d2/d5a/filter__executor_8cpp.html" target="_top" xlink:title=" ">
<polygon fill="white" stroke="#666666" points="2070,-101.5 1963,-101.5 1963,-71.5 2070,-71.5 2070,-101.5"/>
<text text-anchor="start" x="1971" y="-89.5" font-family="Helvetica,sans-Serif" font-size="10.00">src/execution/filter</text>
<text text-anchor="middle" x="2016.5" y="-78.5" font-family="Helvetica,sans-Serif" font-size="10.00">_executor.cpp</text>
</a>
</g>
</g>
<!-- Node5&#45;&gt;Node13 -->
<g id="edge12_Node000005_Node000013" class="edge">
<title>Node5&#45;&gt;Node13</title>
<g id="a_edge12_Node000005_Node000013"><a xlink:title=" ">
<path fill="none" stroke="#63b8ff" d="M1853.74,-139.87C1890.39,-128.08 1938.47,-112.61 1972.85,-101.54"/>
<polygon fill="#63b8ff" stroke="#63b8ff" points="1852.66,-136.54 1844.21,-142.94 1854.8,-143.2 1852.66,-136.54"/>
</a>
</g>
</g>
<!-- Node14 -->
<g id="Node000014" class="node">
<title>Node14</title>
<g id="a_Node000014"><a xlink:href="../../da/dd8/mock__scan__executor_8cpp.html" target="_top" xlink:title=" ">
<polygon fill="white" stroke="#666666" points="2199,-101.5 2088,-101.5 2088,-71.5 2199,-71.5 2199,-101.5"/>
<text text-anchor="start" x="2096" y="-89.5" font-family="Helvetica,sans-Serif" font-size="10.00">src/execution/mock</text>
<text text-anchor="middle" x="2143.5" y="-78.5" font-family="Helvetica,sans-Serif" font-size="10.00">_scan_executor.cpp</text>
</a>
</g>
</g>
<!-- Node5&#45;&gt;Node14 -->
<g id="edge13_Node000005_Node000014" class="edge">
<title>Node5&#45;&gt;Node14</title>
<g id="a_edge13_Node000005_Node000014"><a xlink:title=" ">
<path fill="none" stroke="#63b8ff" d="M1872.64,-146.33C1929.04,-137.43 2009.21,-123.57 2078.5,-107 2085.15,-105.41 2092.12,-103.54 2098.92,-101.6"/>
<polygon fill="#63b8ff" stroke="#63b8ff" points="1872.09,-142.87 1862.75,-147.88 1873.17,-149.79 1872.09,-142.87"/>
</a>
</g>
</g>
<!-- Node15 -->
<g id="Node000015" class="node">
<title>Node15</title>
<g id="a_Node000015"><a xlink:href="../../dd/d51/aggregation__executor_8h.html" target="_top" xlink:title=" ">
<polygon fill="white" stroke="#666666" points="2345.5,-107 2217.5,-107 2217.5,-66 2345.5,-66 2345.5,-107"/>
<text text-anchor="start" x="2225.5" y="-95" font-family="Helvetica,sans-Serif" font-size="10.00">src/include/execution</text>
<text text-anchor="start" x="2225.5" y="-84" font-family="Helvetica,sans-Serif" font-size="10.00">/executors/aggregation</text>
<text text-anchor="middle" x="2281.5" y="-73" font-family="Helvetica,sans-Serif" font-size="10.00">_executor.h</text>
</a>
</g>
</g>
<!-- Node5&#45;&gt;Node15 -->
<g id="edge14_Node000005_Node000015" class="edge">
<title>Node5&#45;&gt;Node15</title>
<g id="a_edge14_Node000005_Node000015"><a xlink:title=" ">
<path fill="none" stroke="#63b8ff" d="M1872.8,-151.1C1954.53,-143.74 2091.35,-129.33 2207.5,-107 2210.76,-106.37 2214.09,-105.68 2217.45,-104.95"/>
<polygon fill="#63b8ff" stroke="#63b8ff" points="1872.27,-147.63 1862.62,-152 1872.89,-154.6 1872.27,-147.63"/>
</a>
</g>
</g>
<!-- Node18 -->
<g id="Node000018" class="node">
<title>Node18</title>
<g id="a_Node000018"><a xlink:href="../../d3/d6d/arithmetic__expression_8h.html" target="_top" xlink:title=" ">
<polygon fill="white" stroke="#666666" points="2685,-107 2554,-107 2554,-66 2685,-66 2685,-107"/>
<text text-anchor="start" x="2562" y="-95" font-family="Helvetica,sans-Serif" font-size="10.00">src/include/execution</text>
<text text-anchor="start" x="2562" y="-84" font-family="Helvetica,sans-Serif" font-size="10.00">/expressions/arithmetic</text>
<text text-anchor="middle" x="2619.5" y="-73" font-family="Helvetica,sans-Serif" font-size="10.00">_expression.h</text>
</a>
</g>
</g>
<!-- Node5&#45;&gt;Node18 -->
<g id="edge17_Node000005_Node000018" class="edge">
<title>Node5&#45;&gt;Node18</title>
<g id="a_edge17_Node000005_Node000018"><a xlink:title=" ">
<path fill="none" stroke="#63b8ff" d="M1872.78,-156.62C2006.33,-154.93 2300.39,-146.58 2544.5,-107 2547.55,-106.5 2550.67,-105.94 2553.8,-105.33"/>
<polygon fill="#63b8ff" stroke="#63b8ff" points="1872.63,-153.12 1862.67,-156.74 1872.71,-160.12 1872.63,-153.12"/>
</a>
</g>
</g>
<!-- Node20 -->
<g id="Node000020" class="node">
<title>Node20</title>
<g id="a_Node000020"><a xlink:href="../../d7/da4/comparison__expression_8h.html" target="_top" xlink:title=" ">
<polygon fill="white" stroke="#666666" points="2841.5,-107 2703.5,-107 2703.5,-66 2841.5,-66 2841.5,-107"/>
<text text-anchor="start" x="2711.5" y="-95" font-family="Helvetica,sans-Serif" font-size="10.00">src/include/execution</text>
<text text-anchor="start" x="2711.5" y="-84" font-family="Helvetica,sans-Serif" font-size="10.00">/expressions/comparison</text>
<text text-anchor="middle" x="2772.5" y="-73" font-family="Helvetica,sans-Serif" font-size="10.00">_expression.h</text>
</a>
</g>
</g>
<!-- Node5&#45;&gt;Node20 -->
<g id="edge19_Node000005_Node000020" class="edge">
<title>Node5&#45;&gt;Node20</title>
<g id="a_edge19_Node000005_Node000020"><a xlink:title=" ">
<path fill="none" stroke="#63b8ff" d="M1872.79,-157.49C2025.34,-157.53 2391.03,-152.39 2693.5,-107 2696.71,-106.52 2699.99,-105.96 2703.28,-105.36"/>
<polygon fill="#63b8ff" stroke="#63b8ff" points="1872.62,-153.99 1862.62,-157.48 1872.61,-160.99 1872.62,-153.99"/>
</a>
</g>
</g>
<!-- Node23 -->
<g id="Node000023" class="node">
<title>Node23</title>
<g id="a_Node000023"><a xlink:href="../../dd/d76/logic__expression_8h.html" target="_top" xlink:title=" ">
<polygon fill="white" stroke="#666666" points="2535.5,-101.5 2363.5,-101.5 2363.5,-71.5 2535.5,-71.5 2535.5,-101.5"/>
<text text-anchor="start" x="2371.5" y="-89.5" font-family="Helvetica,sans-Serif" font-size="10.00">src/include/execution</text>
<text text-anchor="middle" x="2449.5" y="-78.5" font-family="Helvetica,sans-Serif" font-size="10.00">/expressions/logic_expression.h</text>
</a>
</g>
</g>
<!-- Node5&#45;&gt;Node23 -->
<g id="edge23_Node000005_Node000023" class="edge">
<title>Node5&#45;&gt;Node23</title>
<g id="a_edge23_Node000005_Node000023"><a xlink:title=" ">
<path fill="none" stroke="#63b8ff" d="M1872.94,-153.07C1979.04,-146.72 2182.75,-132.3 2354.5,-107 2364.83,-105.48 2375.72,-103.55 2386.31,-101.5"/>
<polygon fill="#63b8ff" stroke="#63b8ff" points="1872.44,-149.59 1862.67,-153.68 1872.86,-156.58 1872.44,-149.59"/>
</a>
</g>
</g>
<!-- Node24 -->
<g id="Node000024" class="node">
<title>Node24</title>
<g id="a_Node000024"><a xlink:href="../../df/d13/string__expression_8h.html" target="_top" xlink:title=" ">
<polygon fill="white" stroke="#666666" points="3035.5,-101.5 2859.5,-101.5 2859.5,-71.5 3035.5,-71.5 3035.5,-101.5"/>
<text text-anchor="start" x="2867.5" y="-89.5" font-family="Helvetica,sans-Serif" font-size="10.00">src/include/execution</text>
<text text-anchor="middle" x="2947.5" y="-78.5" font-family="Helvetica,sans-Serif" font-size="10.00">/expressions/string_expression.h</text>
</a>
</g>
</g>
<!-- Node5&#45;&gt;Node24 -->
<g id="edge25_Node000005_Node000024" class="edge">
<title>Node5&#45;&gt;Node24</title>
<g id="a_edge25_Node000005_Node000024"><a xlink:title=" ">
<path fill="none" stroke="#63b8ff" d="M1872.74,-157.3C2043.48,-157.2 2485.08,-152.17 2850.5,-107 2861.67,-105.62 2873.47,-103.67 2884.85,-101.53"/>
<polygon fill="#63b8ff" stroke="#63b8ff" points="1872.61,-153.8 1862.61,-157.3 1872.61,-160.8 1872.61,-153.8"/>
</a>
</g>
</g>
<!-- Node26 -->
<g id="Node000026" class="node">
<title>Node26</title>
<g id="a_Node000026"><a xlink:href="../../da/de4/plan__aggregation_8cpp.html" target="_top" xlink:title=" ">
<polygon fill="white" stroke="#666666" points="3233,-96 3054,-96 3054,-77 3233,-77 3233,-96"/>
<text text-anchor="middle" x="3143.5" y="-84" font-family="Helvetica,sans-Serif" font-size="10.00">src/planner/plan_aggregation.cpp</text>
</a>
</g>
</g>
<!-- Node5&#45;&gt;Node26 -->
<g id="edge27_Node000005_Node000026" class="edge">
<title>Node5&#45;&gt;Node26</title>
<g id="a_edge27_Node000005_Node000026"><a xlink:title=" ">
<path fill="none" stroke="#63b8ff" d="M1873.13,-155.55C2103.38,-150.74 2815.38,-134.01 3044.5,-107 3065.38,-104.54 3088.43,-100.1 3107.04,-96.08"/>
<polygon fill="#63b8ff" stroke="#63b8ff" points="1872.78,-152.06 1862.86,-155.77 1872.93,-159.06 1872.78,-152.06"/>
</a>
</g>
</g>
<!-- Node27 -->
<g id="Node000027" class="node">
<title>Node27</title>
<g id="a_Node000027"><a xlink:href="../../d0/d29/plan__expression_8cpp.html" target="_top" xlink:title=" ">
<polygon fill="white" stroke="#666666" points="173,-96 0,-96 0,-77 173,-77 173,-96"/>
<text text-anchor="middle" x="86.5" y="-84" font-family="Helvetica,sans-Serif" font-size="10.00">src/planner/plan_expression.cpp</text>
</a>
</g>
</g>
<!-- Node5&#45;&gt;Node27 -->
<g id="edge28_Node000005_Node000027" class="edge">
<title>Node5&#45;&gt;Node27</title>
<g id="a_edge28_Node000005_Node000027"><a xlink:title=" ">
<path fill="none" stroke="#63b8ff" d="M1728.2,-156.42C1455.25,-153.96 487.41,-142.85 181.5,-107 161.27,-104.63 138.94,-100.14 121.01,-96.07"/>
<polygon fill="#63b8ff" stroke="#63b8ff" points="1728.35,-159.92 1738.38,-156.51 1728.41,-152.92 1728.35,-159.92"/>
</a>
</g>
</g>
<!-- Node28 -->
<g id="Node000028" class="node">
<title>Node28</title>
<g id="a_Node000028"><a xlink:href="../../d9/df0/plan__select_8cpp.html" target="_top" xlink:title=" ">
<polygon fill="white" stroke="#666666" points="340,-96 191,-96 191,-77 340,-77 340,-96"/>
<text text-anchor="middle" x="265.5" y="-84" font-family="Helvetica,sans-Serif" font-size="10.00">src/planner/plan_select.cpp</text>
</a>
</g>
</g>
<!-- Node5&#45;&gt;Node28 -->
<g id="edge29_Node000005_Node000028" class="edge">
<title>Node5&#45;&gt;Node28</title>
<g id="a_edge29_Node000005_Node000028"><a xlink:title=" ">
<path fill="none" stroke="#63b8ff" d="M1728.1,-156.39C1473.41,-153.94 619.61,-143.16 348.5,-107 330.75,-104.63 311.23,-100.15 295.59,-96.07"/>
<polygon fill="#63b8ff" stroke="#63b8ff" points="1728.31,-159.89 1738.34,-156.48 1728.37,-152.89 1728.31,-159.89"/>
</a>
</g>
</g>
<!-- Node29 -->
<g id="Node000029" class="node">
<title>Node29</title>
<g id="a_Node000029"><a xlink:href="../../d8/d40/plan__table__ref_8cpp.html" target="_top" xlink:title=" ">
<polygon fill="white" stroke="#666666" points="483,-101.5 358,-101.5 358,-71.5 483,-71.5 483,-101.5"/>
<text text-anchor="start" x="366" y="-89.5" font-family="Helvetica,sans-Serif" font-size="10.00">src/planner/plan_table</text>
<text text-anchor="middle" x="420.5" y="-78.5" font-family="Helvetica,sans-Serif" font-size="10.00">_ref.cpp</text>
</a>
</g>
</g>
<!-- Node5&#45;&gt;Node29 -->
<g id="edge30_Node000005_Node000029" class="edge">
<title>Node5&#45;&gt;Node29</title>
<g id="a_edge30_Node000005_Node000029"><a xlink:title=" ">
<path fill="none" stroke="#63b8ff" d="M1728.07,-156.42C1489.95,-154.18 732.76,-144.23 491.5,-107 483.04,-105.69 474.14,-103.74 465.62,-101.56"/>
<polygon fill="#63b8ff" stroke="#63b8ff" points="1728.31,-159.92 1738.34,-156.52 1728.38,-152.93 1728.31,-159.92"/>
</a>
</g>
</g>
<!-- Node30 -->
<g id="Node000030" class="node">
<title>Node30</title>
<g id="a_Node000030"><a xlink:href="../../d4/d79/plan__window__function_8cpp.html" target="_top" xlink:title=" ">
<polygon fill="white" stroke="#666666" points="638,-101.5 501,-101.5 501,-71.5 638,-71.5 638,-101.5"/>
<text text-anchor="start" x="509" y="-89.5" font-family="Helvetica,sans-Serif" font-size="10.00">src/planner/plan_window</text>
<text text-anchor="middle" x="569.5" y="-78.5" font-family="Helvetica,sans-Serif" font-size="10.00">_function.cpp</text>
</a>
</g>
</g>
<!-- Node5&#45;&gt;Node30 -->
<g id="edge31_Node000005_Node000030" class="edge">
<title>Node5&#45;&gt;Node30</title>
<g id="a_edge31_Node000005_Node000030"><a xlink:title=" ">
<path fill="none" stroke="#63b8ff" d="M1728.3,-155.77C1509.77,-151.76 857.57,-137.49 647.5,-107 638.38,-105.68 628.78,-103.74 619.55,-101.59"/>
<polygon fill="#63b8ff" stroke="#63b8ff" points="1728.32,-159.27 1738.38,-155.96 1728.44,-152.28 1728.32,-159.27"/>
</a>
</g>
</g>
<!-- Node31 -->
<g id="Node000031" class="node">
<title>Node31</title>
<g id="a_Node000031"><a xlink:href="../../d2/d0e/timestamp__type_8cpp.html" target="_top" xlink:title=" ">
<polygon fill="white" stroke="#666666" points="768.5,-101.5 656.5,-101.5 656.5,-71.5 768.5,-71.5 768.5,-101.5"/>
<text text-anchor="start" x="664.5" y="-89.5" font-family="Helvetica,sans-Serif" font-size="10.00">src/type/timestamp</text>
<text text-anchor="middle" x="712.5" y="-78.5" font-family="Helvetica,sans-Serif" font-size="10.00">_type.cpp</text>
</a>
</g>
</g>
<!-- Node5&#45;&gt;Node31 -->
<g id="edge32_Node000005_Node000031" class="edge">
<title>Node5&#45;&gt;Node31</title>
<g id="a_edge32_Node000005_Node000031"><a xlink:title=" ">
<path fill="none" stroke="#63b8ff" d="M1728.21,-155.74C1526.55,-151.88 960.63,-138.46 777.5,-107 769.72,-105.66 761.56,-103.69 753.75,-101.51"/>
<polygon fill="#63b8ff" stroke="#63b8ff" points="1728.33,-159.25 1738.39,-155.94 1728.46,-152.25 1728.33,-159.25"/>
</a>
</g>
</g>
<!-- Node16 -->
<g id="Node000016" class="node">
<title>Node16</title>
<g id="a_Node000016"><a xlink:href="../../da/d4d/aggregation__executor_8cpp.html" target="_top" xlink:title=" ">
<polygon fill="white" stroke="#666666" points="2259,-30 2116,-30 2116,0 2259,0 2259,-30"/>
<text text-anchor="start" x="2124" y="-18" font-family="Helvetica,sans-Serif" font-size="10.00">src/execution/aggregation</text>
<text text-anchor="middle" x="2187.5" y="-7" font-family="Helvetica,sans-Serif" font-size="10.00">_executor.cpp</text>
</a>
</g>
</g>
<!-- Node15&#45;&gt;Node16 -->
<g id="edge15_Node000015_Node000016" class="edge">
<title>Node15&#45;&gt;Node16</title>
<g id="a_edge15_Node000015_Node000016"><a xlink:title=" ">
<path fill="none" stroke="#63b8ff" d="M2246.83,-59.87C2233.23,-49.81 2218.14,-38.66 2206.59,-30.11"/>
<polygon fill="#63b8ff" stroke="#63b8ff" points="2244.94,-62.82 2255.07,-65.96 2249.11,-57.2 2244.94,-62.82"/>
</a>
</g>
</g>
<!-- Node17 -->
<g id="Node000017" class="node">
<title>Node17</title>
<g id="a_Node000017"><a xlink:href="../../d3/d3e/executor__factory_8cpp.html" target="_top" xlink:title=" ">
<polygon fill="white" stroke="#666666" points="2403.5,-30 2277.5,-30 2277.5,0 2403.5,0 2403.5,-30"/>
<text text-anchor="start" x="2285.5" y="-18" font-family="Helvetica,sans-Serif" font-size="10.00">src/execution/executor</text>
<text text-anchor="middle" x="2340.5" y="-7" font-family="Helvetica,sans-Serif" font-size="10.00">_factory.cpp</text>
</a>
</g>
</g>
<!-- Node15&#45;&gt;Node17 -->
<g id="edge16_Node000015_Node000017" class="edge">
<title>Node15&#45;&gt;Node17</title>
<g id="a_edge16_Node000015_Node000017"><a xlink:title=" ">
<path fill="none" stroke="#63b8ff" d="M2304.87,-57.98C2312.99,-48.4 2321.77,-38.06 2328.58,-30.04"/>
<polygon fill="#63b8ff" stroke="#63b8ff" points="2302.05,-55.88 2298.25,-65.77 2307.39,-60.41 2302.05,-55.88"/>
</a>
</g>
</g>
<!-- Node19 -->
<g id="Node000019" class="node">
<title>Node19</title>
<g id="a_Node000019"><a xlink:href="../../df/dfb/expression__factory_8cpp.html" target="_top" xlink:title=" ">
<polygon fill="white" stroke="#666666" points="2645,-30 2518,-30 2518,0 2645,0 2645,-30"/>
<text text-anchor="start" x="2526" y="-18" font-family="Helvetica,sans-Serif" font-size="10.00">src/planner/expression</text>
<text text-anchor="middle" x="2581.5" y="-7" font-family="Helvetica,sans-Serif" font-size="10.00">_factory.cpp</text>
</a>
</g>
</g>
<!-- Node18&#45;&gt;Node19 -->
<g id="edge18_Node000018_Node000019" class="edge">
<title>Node18&#45;&gt;Node19</title>
<g id="a_edge18_Node000018_Node000019"><a xlink:title=" ">
<path fill="none" stroke="#63b8ff" d="M2603.82,-56.82C2598.77,-47.58 2593.39,-37.74 2589.18,-30.04"/>
<polygon fill="#63b8ff" stroke="#63b8ff" points="2600.84,-58.67 2608.71,-65.77 2606.99,-55.32 2600.84,-58.67"/>
</a>
</g>
</g>
<!-- Node20&#45;&gt;Node19 -->
<g id="edge22_Node000020_Node000019" class="edge">
<title>Node20&#45;&gt;Node19</title>
<g id="a_edge22_Node000020_Node000019"><a xlink:title=" ">
<path fill="none" stroke="#63b8ff" d="M2709.38,-62.53C2679.83,-51.78 2645.59,-39.32 2619.99,-30"/>
<polygon fill="#63b8ff" stroke="#63b8ff" points="2708.19,-65.82 2718.79,-65.96 2710.59,-59.25 2708.19,-65.82"/>
</a>
</g>
</g>
<!-- Node21 -->
<g id="Node000021" class="node">
<title>Node21</title>
<g id="a_Node000021"><a xlink:href="../../d5/d99/nlj__as__hash__join_8cpp.html" target="_top" xlink:title=" ">
<polygon fill="white" stroke="#666666" points="2775.5,-30 2663.5,-30 2663.5,0 2775.5,0 2775.5,-30"/>
<text text-anchor="start" x="2671.5" y="-18" font-family="Helvetica,sans-Serif" font-size="10.00">src/optimizer/nlj_as</text>
<text text-anchor="middle" x="2719.5" y="-7" font-family="Helvetica,sans-Serif" font-size="10.00">_hash_join.cpp</text>
</a>
</g>
</g>
<!-- Node20&#45;&gt;Node21 -->
<g id="edge20_Node000020_Node000021" class="edge">
<title>Node20&#45;&gt;Node21</title>
<g id="a_edge20_Node000020_Node000021"><a xlink:title=" ">
<path fill="none" stroke="#63b8ff" d="M2751.29,-57.69C2744.05,-48.19 2736.26,-37.98 2730.21,-30.04"/>
<polygon fill="#63b8ff" stroke="#63b8ff" points="2748.61,-59.94 2757.45,-65.77 2754.17,-55.7 2748.61,-59.94"/>
</a>
</g>
</g>
<!-- Node22 -->
<g id="Node000022" class="node">
<title>Node22</title>
<g id="a_Node000022"><a xlink:href="../../d0/de1/nlj__as__index__join_8cpp.html" target="_top" xlink:title=" ">
<polygon fill="white" stroke="#666666" points="2905.5,-30 2793.5,-30 2793.5,0 2905.5,0 2905.5,-30"/>
<text text-anchor="start" x="2801.5" y="-18" font-family="Helvetica,sans-Serif" font-size="10.00">src/optimizer/nlj_as</text>
<text text-anchor="middle" x="2849.5" y="-7" font-family="Helvetica,sans-Serif" font-size="10.00">_index_join.cpp</text>
</a>
</g>
</g>
<!-- Node20&#45;&gt;Node22 -->
<g id="edge21_Node000020_Node000022" class="edge">
<title>Node20&#45;&gt;Node22</title>
<g id="a_edge21_Node000020_Node000022"><a xlink:title=" ">
<path fill="none" stroke="#63b8ff" d="M2802.04,-58.83C2812.91,-49.02 2824.79,-38.3 2833.95,-30.04"/>
<polygon fill="#63b8ff" stroke="#63b8ff" points="2799.44,-56.47 2794.36,-65.77 2804.13,-61.67 2799.44,-56.47"/>
</a>
</g>
</g>
<!-- Node23&#45;&gt;Node19 -->
<g id="edge24_Node000023_Node000019" class="edge">
<title>Node23&#45;&gt;Node19</title>
<g id="a_edge24_Node000023_Node000019"><a xlink:title=" ">
<path fill="none" stroke="#63b8ff" d="M2485.23,-66.69C2507.16,-55.14 2534.8,-40.59 2554.83,-30.04"/>
<polygon fill="#63b8ff" stroke="#63b8ff" points="2483.43,-63.68 2476.21,-71.44 2486.69,-69.87 2483.43,-63.68"/>
</a>
</g>
</g>
<!-- Node25 -->
<g id="Node000025" class="node">
<title>Node25</title>
<g id="a_Node000025"><a xlink:href="../../d6/da3/plan__func__call_8cpp.html" target="_top" xlink:title=" ">
<polygon fill="white" stroke="#666666" points="3045,-30 2924,-30 2924,0 3045,0 3045,-30"/>
<text text-anchor="start" x="2932" y="-18" font-family="Helvetica,sans-Serif" font-size="10.00">src/planner/plan_func</text>
<text text-anchor="middle" x="2984.5" y="-7" font-family="Helvetica,sans-Serif" font-size="10.00">_call.cpp</text>
</a>
</g>
</g>
<!-- Node24&#45;&gt;Node25 -->
<g id="edge26_Node000024_Node000025" class="edge">
<title>Node24&#45;&gt;Node25</title>
<g id="a_edge26_Node000024_Node000025"><a xlink:title=" ">
<path fill="none" stroke="#63b8ff" d="M2959.71,-62.56C2965.43,-51.82 2972.06,-39.36 2977.02,-30.04"/>
<polygon fill="#63b8ff" stroke="#63b8ff" points="2956.6,-60.96 2954.99,-71.44 2962.78,-64.25 2956.6,-60.96"/>
</a>
</g>
</g>
<!-- Node35 -->
<g id="Node000035" class="node">
<title>Node35</title>
<g id="a_Node000035"><a xlink:href="../../df/d73/bigint__type_8h.html" target="_top" xlink:title=" ">
<polygon fill="white" stroke="#666666" points="3381,-173 3256,-173 3256,-143 3381,-143 3381,-173"/>
<text text-anchor="start" x="3264" y="-161" font-family="Helvetica,sans-Serif" font-size="10.00">src/include/type/bigint</text>
<text text-anchor="middle" x="3318.5" y="-150" font-family="Helvetica,sans-Serif" font-size="10.00">_type.h</text>
</a>
</g>
</g>
<!-- Node34&#45;&gt;Node35 -->
<g id="edge36_Node000034_Node000035" class="edge">
<title>Node34&#45;&gt;Node35</title>
<g id="a_edge36_Node000034_Node000035"><a xlink:title=" ">
<path fill="none" stroke="#63b8ff" d="M3512.28,-206.52C3469.95,-196.14 3415.9,-182.88 3375.64,-173.01"/>
<polygon fill="#63b8ff" stroke="#63b8ff" points="3511.68,-209.97 3522.22,-208.95 3513.34,-203.17 3511.68,-209.97"/>
</a>
</g>
</g>
<!-- Node37 -->
<g id="Node000037" class="node">
<title>Node37</title>
<g id="a_Node000037"><a xlink:href="../../d0/dc6/integer__type_8h.html" target="_top" xlink:title=" ">
<polygon fill="white" stroke="#666666" points="3569,-173 3438,-173 3438,-143 3569,-143 3569,-173"/>
<text text-anchor="start" x="3446" y="-161" font-family="Helvetica,sans-Serif" font-size="10.00">src/include/type/integer</text>
<text text-anchor="middle" x="3503.5" y="-150" font-family="Helvetica,sans-Serif" font-size="10.00">_type.h</text>
</a>
</g>
</g>
<!-- Node34&#45;&gt;Node37 -->
<g id="edge39_Node000034_Node000037" class="edge">
<title>Node34&#45;&gt;Node37</title>
<g id="a_edge39_Node000034_Node000037"><a xlink:title=" ">
<path fill="none" stroke="#63b8ff" d="M3554.8,-202.2C3543.52,-192.7 3530.45,-181.69 3520.32,-173.16"/>
<polygon fill="#63b8ff" stroke="#63b8ff" points="3552.73,-205.03 3562.63,-208.8 3557.24,-199.68 3552.73,-205.03"/>
</a>
</g>
</g>
<!-- Node39 -->
<g id="Node000039" class="node">
<title>Node39</title>
<g id="a_Node000039"><a xlink:href="../../d4/d69/smallint__type_8h.html" target="_top" xlink:title=" ">
<polygon fill="white" stroke="#666666" points="3724,-173 3587,-173 3587,-143 3724,-143 3724,-173"/>
<text text-anchor="start" x="3595" y="-161" font-family="Helvetica,sans-Serif" font-size="10.00">src/include/type/smallint</text>
<text text-anchor="middle" x="3655.5" y="-150" font-family="Helvetica,sans-Serif" font-size="10.00">_type.h</text>
</a>
</g>
</g>
<!-- Node34&#45;&gt;Node39 -->
<g id="edge42_Node000034_Node000039" class="edge">
<title>Node34&#45;&gt;Node39</title>
<g id="a_edge42_Node000034_Node000039"><a xlink:title=" ">
<path fill="none" stroke="#63b8ff" d="M3604.2,-202.2C3615.48,-192.7 3628.55,-181.69 3638.68,-173.16"/>
<polygon fill="#63b8ff" stroke="#63b8ff" points="3601.76,-199.68 3596.37,-208.8 3606.27,-205.03 3601.76,-199.68"/>
</a>
</g>
</g>
<!-- Node41 -->
<g id="Node000041" class="node">
<title>Node41</title>
<g id="a_Node000041"><a xlink:href="../../d9/d43/tinyint__type_8h.html" target="_top" xlink:title=" ">
<polygon fill="white" stroke="#666666" points="3870.5,-173 3742.5,-173 3742.5,-143 3870.5,-143 3870.5,-173"/>
<text text-anchor="start" x="3750.5" y="-161" font-family="Helvetica,sans-Serif" font-size="10.00">src/include/type/tinyint</text>
<text text-anchor="middle" x="3806.5" y="-150" font-family="Helvetica,sans-Serif" font-size="10.00">_type.h</text>
</a>
</g>
</g>
<!-- Node34&#45;&gt;Node41 -->
<g id="edge45_Node000034_Node000041" class="edge">
<title>Node34&#45;&gt;Node41</title>
<g id="a_edge45_Node000034_Node000041"><a xlink:title=" ">
<path fill="none" stroke="#63b8ff" d="M3639.37,-206.12C3675.97,-195.8 3722.23,-182.76 3756.8,-173.01"/>
<polygon fill="#63b8ff" stroke="#63b8ff" points="3637.99,-202.87 3629.32,-208.95 3639.89,-209.61 3637.99,-202.87"/>
</a>
</g>
</g>
<!-- Node43 -->
<g id="Node000043" class="node">
<title>Node43</title>
<g id="a_Node000043"><a xlink:href="../../d6/d20/integer__parent__type_8cpp.html" target="_top" xlink:title=" ">
<polygon fill="white" stroke="#666666" points="4018.5,-173 3888.5,-173 3888.5,-143 4018.5,-143 4018.5,-173"/>
<text text-anchor="start" x="3896.5" y="-161" font-family="Helvetica,sans-Serif" font-size="10.00">src/type/integer_parent</text>
<text text-anchor="middle" x="3953.5" y="-150" font-family="Helvetica,sans-Serif" font-size="10.00">_type.cpp</text>
</a>
</g>
</g>
<!-- Node34&#45;&gt;Node43 -->
<g id="edge48_Node000034_Node000043" class="edge">
<title>Node34&#45;&gt;Node43</title>
<g id="a_edge48_Node000034_Node000043"><a xlink:title=" ">
<path fill="none" stroke="#63b8ff" d="M3655,-210.88C3715.71,-201.03 3803.17,-186.58 3879.5,-173 3882.33,-172.5 3885.22,-171.98 3888.14,-171.44"/>
<polygon fill="#63b8ff" stroke="#63b8ff" points="3654.43,-207.43 3645.12,-212.49 3655.55,-214.34 3654.43,-207.43"/>
</a>
</g>
</g>
<!-- Node35&#45;&gt;Node33 -->
<g id="edge38_Node000035_Node000033" class="edge">
<title>Node35&#45;&gt;Node33</title>
<g id="a_edge38_Node000035_Node000033"><a xlink:title=" ">
<path fill="none" stroke="#63b8ff" d="M3355.14,-138.28C3382.01,-124.54 3417.25,-106.53 3437.73,-96.07"/>
<polygon fill="#63b8ff" stroke="#63b8ff" points="3353.33,-135.27 3346.02,-142.94 3356.52,-141.5 3353.33,-135.27"/>
</a>
</g>
</g>
<!-- Node36 -->
<g id="Node000036" class="node">
<title>Node36</title>
<g id="a_Node000036"><a xlink:href="../../df/d34/bigint__type_8cpp.html" target="_top" xlink:title=" ">
<polygon fill="white" stroke="#666666" points="3385.5,-96 3251.5,-96 3251.5,-77 3385.5,-77 3385.5,-96"/>
<text text-anchor="middle" x="3318.5" y="-84" font-family="Helvetica,sans-Serif" font-size="10.00">src/type/bigint_type.cpp</text>
</a>
</g>
</g>
<!-- Node35&#45;&gt;Node36 -->
<g id="edge37_Node000035_Node000036" class="edge">
<title>Node35&#45;&gt;Node36</title>
<g id="a_edge37_Node000035_Node000036"><a xlink:title=" ">
<path fill="none" stroke="#63b8ff" d="M3318.5,-132.56C3318.5,-119.95 3318.5,-105.35 3318.5,-96.27"/>
<polygon fill="#63b8ff" stroke="#63b8ff" points="3315,-132.94 3318.5,-142.94 3322,-132.94 3315,-132.94"/>
</a>
</g>
</g>
<!-- Node37&#45;&gt;Node33 -->
<g id="edge41_Node000037_Node000033" class="edge">
<title>Node37&#45;&gt;Node33</title>
<g id="a_edge41_Node000037_Node000033"><a xlink:title=" ">
<path fill="none" stroke="#63b8ff" d="M3487.6,-134.45C3478.43,-121.44 3467.41,-105.81 3460.68,-96.27"/>
<polygon fill="#63b8ff" stroke="#63b8ff" points="3484.96,-136.78 3493.58,-142.94 3490.68,-132.75 3484.96,-136.78"/>
</a>
</g>
</g>
<!-- Node38 -->
<g id="Node000038" class="node">
<title>Node38</title>
<g id="a_Node000038"><a xlink:href="../../d4/d10/integer__type_8cpp.html" target="_top" xlink:title=" ">
<polygon fill="white" stroke="#666666" points="3663.5,-96 3523.5,-96 3523.5,-77 3663.5,-77 3663.5,-96"/>
<text text-anchor="middle" x="3593.5" y="-84" font-family="Helvetica,sans-Serif" font-size="10.00">src/type/integer_type.cpp</text>
</a>
</g>
</g>
<!-- Node37&#45;&gt;Node38 -->
<g id="edge40_Node000037_Node000038" class="edge">
<title>Node37&#45;&gt;Node38</title>
<g id="a_edge40_Node000037_Node000038"><a xlink:title=" ">
<path fill="none" stroke="#63b8ff" d="M3529.87,-136.64C3547.35,-123.14 3569.38,-106.12 3582.41,-96.07"/>
<polygon fill="#63b8ff" stroke="#63b8ff" points="3527.49,-134.05 3521.71,-142.94 3531.77,-139.59 3527.49,-134.05"/>
</a>
</g>
</g>
<!-- Node39&#45;&gt;Node33 -->
<g id="edge44_Node000039_Node000033" class="edge">
<title>Node39&#45;&gt;Node33</title>
<g id="a_edge44_Node000039_Node000033"><a xlink:title=" ">
<path fill="none" stroke="#63b8ff" d="M3605.21,-139.61C3565.07,-125.73 3510.54,-106.88 3479.28,-96.07"/>
<polygon fill="#63b8ff" stroke="#63b8ff" points="3604.23,-142.98 3614.82,-142.94 3606.52,-136.36 3604.23,-142.98"/>
</a>
</g>
</g>
<!-- Node40 -->
<g id="Node000040" class="node">
<title>Node40</title>
<g id="a_Node000040"><a xlink:href="../../d9/d80/smallint__type_8cpp.html" target="_top" xlink:title=" ">
<polygon fill="white" stroke="#666666" points="3827.5,-96 3681.5,-96 3681.5,-77 3827.5,-77 3827.5,-96"/>
<text text-anchor="middle" x="3754.5" y="-84" font-family="Helvetica,sans-Serif" font-size="10.00">src/type/smallint_type.cpp</text>
</a>
</g>
</g>
<!-- Node39&#45;&gt;Node40 -->
<g id="edge43_Node000039_Node000040" class="edge">
<title>Node39&#45;&gt;Node40</title>
<g id="a_edge43_Node000039_Node000040"><a xlink:title=" ">
<path fill="none" stroke="#63b8ff" d="M3683.72,-137.19C3703.07,-123.6 3727.78,-106.26 3742.3,-96.07"/>
<polygon fill="#63b8ff" stroke="#63b8ff" points="3681.71,-134.33 3675.53,-142.94 3685.73,-140.05 3681.71,-134.33"/>
</a>
</g>
</g>
<!-- Node41&#45;&gt;Node33 -->
<g id="edge47_Node000041_Node000033" class="edge">
<title>Node41&#45;&gt;Node33</title>
<g id="a_edge47_Node000041_Node000033"><a xlink:title=" ">
<path fill="none" stroke="#63b8ff" d="M3732.29,-143.01C3634.06,-126.12 3606.84,-129.49 3514.5,-107 3502.26,-104.02 3488.91,-99.78 3477.92,-96.02"/>
<polygon fill="#63b8ff" stroke="#63b8ff" points="3731.89,-146.49 3742.34,-144.77 3733.09,-139.6 3731.89,-146.49"/>
</a>
</g>
</g>
<!-- Node42 -->
<g id="Node000042" class="node">
<title>Node42</title>
<g id="a_Node000042"><a xlink:href="../../db/d89/tinyint__type_8cpp.html" target="_top" xlink:title=" ">
<polygon fill="white" stroke="#666666" points="3983,-96 3846,-96 3846,-77 3983,-77 3983,-96"/>
<text text-anchor="middle" x="3914.5" y="-84" font-family="Helvetica,sans-Serif" font-size="10.00">src/type/tinyint_type.cpp</text>
</a>
</g>
</g>
<!-- Node41&#45;&gt;Node42 -->
<g id="edge46_Node000041_Node000042" class="edge">
<title>Node41&#45;&gt;Node42</title>
<g id="a_edge46_Node000041_Node000042"><a xlink:title=" ">
<path fill="none" stroke="#63b8ff" d="M3837,-137.37C3858.15,-123.76 3885.28,-106.31 3901.19,-96.07"/>
<polygon fill="#63b8ff" stroke="#63b8ff" points="3834.87,-134.58 3828.36,-142.94 3838.66,-140.47 3834.87,-134.58"/>
</a>
</g>
</g>
</g>
</svg>
