<?xml version="1.0" encoding="UTF-8" standalone="no"?>
<!DOCTYPE svg PUBLIC "-//W3C//DTD SVG 1.1//EN"
 "http://www.w3.org/Graphics/SVG/1.1/DTD/svg11.dtd">
<!-- Generated by graphviz version 2.43.0 (0)
 -->
<!-- Title: src/include/storage/index/generic_key.h Pages: 1 -->
<svg width="1409pt" height="368pt"
 viewBox="0.00 0.00 1408.50 368.00" xmlns="http://www.w3.org/2000/svg" xmlns:xlink="http://www.w3.org/1999/xlink">
<g id="graph0" class="graph" transform="scale(1 1) rotate(0) translate(4 364)">
<title>src/include/storage/index/generic_key.h</title>
<!-- Node1 -->
<g id="Node000001" class="node">
<title>Node1</title>
<g id="a_Node000001"><a xlink:title=" ">
<polygon fill="#999999" stroke="#666666" points="116,-360 0,-360 0,-330 116,-330 116,-360"/>
<text text-anchor="start" x="8" y="-348" font-family="Helvetica,sans-Serif" font-size="10.00">src/include/storage</text>
<text text-anchor="middle" x="58" y="-337" font-family="Helvetica,sans-Serif" font-size="10.00">/index/generic_key.h</text>
</a>
</g>
</g>
<!-- Node2 -->
<g id="Node000002" class="node">
<title>Node2</title>
<g id="a_Node000002"><a xlink:title=" ">
<polygon fill="#e0e0e0" stroke="#999999" points="56,-129 6,-129 6,-110 56,-110 56,-129"/>
<text text-anchor="middle" x="31" y="-117" font-family="Helvetica,sans-Serif" font-size="10.00">cstring</text>
</a>
</g>
</g>
<!-- Node1&#45;&gt;Node2 -->
<g id="edge1_Node000001_Node000002" class="edge">
<title>Node1&#45;&gt;Node2</title>
<g id="a_edge1_Node000001_Node000002"><a xlink:title=" ">
<path fill="none" stroke="#63b8ff" d="M56.27,-329.68C51.57,-290.76 38.56,-183.07 33.27,-139.33"/>
<polygon fill="#63b8ff" stroke="#63b8ff" points="36.73,-138.74 32.05,-129.23 29.78,-139.58 36.73,-138.74"/>
</a>
</g>
</g>
<!-- Node3 -->
<g id="Node000003" class="node">
<title>Node3</title>
<g id="a_Node000003"><a xlink:href="../../d2/d20/tuple_8h.html" target="_top" xlink:title=" ">
<polygon fill="white" stroke="#666666" points="852,-294 734,-294 734,-275 852,-275 852,-294"/>
<text text-anchor="middle" x="793" y="-282" font-family="Helvetica,sans-Serif" font-size="10.00">storage/table/tuple.h</text>
</a>
</g>
</g>
<!-- Node1&#45;&gt;Node3 -->
<g id="edge2_Node000001_Node000003" class="edge">
<title>Node1&#45;&gt;Node3</title>
<g id="a_edge2_Node000001_Node000003"><a xlink:title=" ">
<path fill="none" stroke="#63b8ff" d="M116.29,-339.36C250.33,-328.69 579.98,-302.45 723.9,-291"/>
<polygon fill="#63b8ff" stroke="#63b8ff" points="724.25,-294.48 733.94,-290.2 723.69,-287.51 724.25,-294.48"/>
</a>
</g>
</g>
<!-- Node28 -->
<g id="Node000028" class="node">
<title>Node28</title>
<g id="a_Node000028"><a xlink:href="../../d4/d3f/value_8h.html" target="_top" xlink:title=" ">
<polygon fill="white" stroke="#666666" points="348.5,-184 271.5,-184 271.5,-165 348.5,-165 348.5,-184"/>
<text text-anchor="middle" x="310" y="-172" font-family="Helvetica,sans-Serif" font-size="10.00">type/value.h</text>
</a>
</g>
</g>
<!-- Node1&#45;&gt;Node28 -->
<g id="edge56_Node000001_Node000028" class="edge">
<title>Node1&#45;&gt;Node28</title>
<g id="a_edge56_Node000001_Node000028"><a xlink:title=" ">
<path fill="none" stroke="#63b8ff" d="M79.05,-329.92C126.41,-298.26 240.89,-221.71 288.59,-189.82"/>
<polygon fill="#63b8ff" stroke="#63b8ff" points="290.83,-192.53 297.19,-184.06 286.94,-186.71 290.83,-192.53"/>
</a>
</g>
</g>
<!-- Node4 -->
<g id="Node000004" class="node">
<title>Node4</title>
<g id="a_Node000004"><a xlink:title=" ">
<polygon fill="#e0e0e0" stroke="#999999" points="453,-19 409,-19 409,0 453,0 453,-19"/>
<text text-anchor="middle" x="431" y="-7" font-family="Helvetica,sans-Serif" font-size="10.00">string</text>
</a>
</g>
</g>
<!-- Node3&#45;&gt;Node4 -->
<g id="edge3_Node000003_Node000004" class="edge">
<title>Node3&#45;&gt;Node4</title>
<g id="a_edge3_Node000003_Node000004"><a xlink:title=" ">
<path fill="none" stroke="#63b8ff" d="M733.99,-277.84C590.05,-262.77 226.99,-216.68 149,-129 126.43,-103.63 107.81,-80.71 130,-55 164.47,-15.06 328.4,-10.36 398.78,-10.22"/>
<polygon fill="#63b8ff" stroke="#63b8ff" points="398.84,-13.72 408.85,-10.23 398.85,-6.72 398.84,-13.72"/>
</a>
</g>
</g>
<!-- Node5 -->
<g id="Node000005" class="node">
<title>Node5</title>
<g id="a_Node000005"><a xlink:title=" ">
<polygon fill="#e0e0e0" stroke="#999999" points="1196.5,-184 1149.5,-184 1149.5,-165 1196.5,-165 1196.5,-184"/>
<text text-anchor="middle" x="1173" y="-172" font-family="Helvetica,sans-Serif" font-size="10.00">vector</text>
</a>
</g>
</g>
<!-- Node3&#45;&gt;Node5 -->
<g id="edge4_Node000003_Node000005" class="edge">
<title>Node3&#45;&gt;Node5</title>
<g id="a_edge4_Node000003_Node000005"><a xlink:title=" ">
<path fill="none" stroke="#63b8ff" d="M823.14,-274.94C893.07,-255.06 1066.01,-205.91 1139.3,-185.08"/>
<polygon fill="#63b8ff" stroke="#63b8ff" points="1140.71,-188.32 1149.37,-182.22 1138.8,-181.58 1140.71,-188.32"/>
</a>
</g>
</g>
<!-- Node6 -->
<g id="Node000006" class="node">
<title>Node6</title>
<g id="a_Node000006"><a xlink:href="../../d7/de3/schema_8h.html" target="_top" xlink:title=" ">
<polygon fill="white" stroke="#666666" points="844.5,-239 741.5,-239 741.5,-220 844.5,-220 844.5,-239"/>
<text text-anchor="middle" x="793" y="-227" font-family="Helvetica,sans-Serif" font-size="10.00">catalog/schema.h</text>
</a>
</g>
</g>
<!-- Node3&#45;&gt;Node6 -->
<g id="edge5_Node000003_Node000006" class="edge">
<title>Node3&#45;&gt;Node6</title>
<g id="a_edge5_Node000003_Node000006"><a xlink:title=" ">
<path fill="none" stroke="#63b8ff" d="M793,-274.75C793,-267.8 793,-257.85 793,-249.13"/>
<polygon fill="#63b8ff" stroke="#63b8ff" points="796.5,-249.09 793,-239.09 789.5,-249.09 796.5,-249.09"/>
</a>
</g>
</g>
<!-- Node24 -->
<g id="Node000024" class="node">
<title>Node24</title>
<g id="a_Node000024"><a xlink:href="../../db/d16/config_8h.html" target="_top" xlink:title=" ">
<polygon fill="white" stroke="#666666" points="1400.5,-129 1299.5,-129 1299.5,-110 1400.5,-110 1400.5,-129"/>
<text text-anchor="middle" x="1350" y="-117" font-family="Helvetica,sans-Serif" font-size="10.00">common/config.h</text>
</a>
</g>
</g>
<!-- Node3&#45;&gt;Node24 -->
<g id="edge35_Node000003_Node000024" class="edge">
<title>Node3&#45;&gt;Node24</title>
<g id="a_edge35_Node000003_Node000024"><a xlink:title=" ">
<path fill="none" stroke="#63b8ff" d="M852,-277.99C970.88,-265.96 1234.16,-234.32 1308,-184 1324.35,-172.86 1335.94,-153.04 1342.74,-138.5"/>
<polygon fill="#63b8ff" stroke="#63b8ff" points="1346.08,-139.61 1346.85,-129.04 1339.66,-136.82 1346.08,-139.61"/>
</a>
</g>
</g>
<!-- Node26 -->
<g id="Node000026" class="node">
<title>Node26</title>
<g id="a_Node000026"><a xlink:href="../../d8/d5f/rid_8h.html" target="_top" xlink:title=" ">
<polygon fill="white" stroke="#666666" points="1299,-184 1215,-184 1215,-165 1299,-165 1299,-184"/>
<text text-anchor="middle" x="1257" y="-172" font-family="Helvetica,sans-Serif" font-size="10.00">common/rid.h</text>
</a>
</g>
</g>
<!-- Node3&#45;&gt;Node26 -->
<g id="edge39_Node000003_Node000026" class="edge">
<title>Node3&#45;&gt;Node26</title>
<g id="a_edge39_Node000003_Node000026"><a xlink:title=" ">
<path fill="none" stroke="#63b8ff" d="M833.71,-274.93C874.93,-266.18 940.49,-252.06 997,-239 1073.18,-221.39 1161.56,-199.49 1213.17,-186.55"/>
<polygon fill="#63b8ff" stroke="#63b8ff" points="1214.15,-189.92 1222.99,-184.09 1212.44,-183.13 1214.15,-189.92"/>
</a>
</g>
</g>
<!-- Node3&#45;&gt;Node28 -->
<g id="edge44_Node000003_Node000028" class="edge">
<title>Node3&#45;&gt;Node28</title>
<g id="a_edge44_Node000003_Node000028"><a xlink:title=" ">
<path fill="none" stroke="#63b8ff" d="M754.7,-274.94C667.51,-255.44 454.38,-207.78 358.33,-186.31"/>
<polygon fill="#63b8ff" stroke="#63b8ff" points="358.83,-182.83 348.31,-184.07 357.3,-189.66 358.83,-182.83"/>
</a>
</g>
</g>
<!-- Node6&#45;&gt;Node4 -->
<g id="edge8_Node000006_Node000004" class="edge">
<title>Node6&#45;&gt;Node4</title>
<g id="a_edge8_Node000006_Node000004"><a xlink:title=" ">
<path fill="none" stroke="#63b8ff" d="M832.98,-219.94C925.61,-198.44 1141.33,-137.95 1064,-55 1022.8,-10.8 587.36,-9.68 463.63,-10.26"/>
<polygon fill="#63b8ff" stroke="#63b8ff" points="463.27,-6.76 453.29,-10.31 463.31,-13.76 463.27,-6.76"/>
</a>
</g>
</g>
<!-- Node6&#45;&gt;Node5 -->
<g id="edge9_Node000006_Node000005" class="edge">
<title>Node6&#45;&gt;Node5</title>
<g id="a_edge9_Node000006_Node000005"><a xlink:title=" ">
<path fill="none" stroke="#63b8ff" d="M844.79,-223.24C911.97,-216.08 1032.7,-202.06 1135,-184 1136.46,-183.74 1137.94,-183.47 1139.44,-183.18"/>
<polygon fill="#63b8ff" stroke="#63b8ff" points="1140.26,-186.58 1149.35,-181.14 1138.85,-179.73 1140.26,-186.58"/>
</a>
</g>
</g>
<!-- Node7 -->
<g id="Node000007" class="node">
<title>Node7</title>
<g id="a_Node000007"><a xlink:title=" ">
<polygon fill="#e0e0e0" stroke="#999999" points="727,-74 669,-74 669,-55 727,-55 727,-74"/>
<text text-anchor="middle" x="698" y="-62" font-family="Helvetica,sans-Serif" font-size="10.00">memory</text>
</a>
</g>
</g>
<!-- Node6&#45;&gt;Node7 -->
<g id="edge6_Node000006_Node000007" class="edge">
<title>Node6&#45;&gt;Node7</title>
<g id="a_edge6_Node000006_Node000007"><a xlink:title=" ">
<path fill="none" stroke="#63b8ff" d="M791.46,-219.91C788.98,-207.35 783.41,-183.45 774,-165 757.56,-132.76 730.36,-100.37 713.34,-81.66"/>
<polygon fill="#63b8ff" stroke="#63b8ff" points="715.68,-79.03 706.32,-74.08 710.55,-83.79 715.68,-79.03"/>
</a>
</g>
</g>
<!-- Node8 -->
<g id="Node000008" class="node">
<title>Node8</title>
<g id="a_Node000008"><a xlink:title=" ">
<polygon fill="#e0e0e0" stroke="#999999" points="645,-184 589,-184 589,-165 645,-165 645,-184"/>
<text text-anchor="middle" x="617" y="-172" font-family="Helvetica,sans-Serif" font-size="10.00">optional</text>
</a>
</g>
</g>
<!-- Node6&#45;&gt;Node8 -->
<g id="edge7_Node000006_Node000008" class="edge">
<title>Node6&#45;&gt;Node8</title>
<g id="a_edge7_Node000006_Node000008"><a xlink:title=" ">
<path fill="none" stroke="#63b8ff" d="M764.72,-219.98C734.96,-211.02 687.93,-196.86 654.96,-186.93"/>
<polygon fill="#63b8ff" stroke="#63b8ff" points="655.79,-183.53 645.21,-183.99 653.77,-190.23 655.79,-183.53"/>
</a>
</g>
</g>
<!-- Node9 -->
<g id="Node000009" class="node">
<title>Node9</title>
<g id="a_Node000009"><a xlink:href="../../dc/df8/column_8h.html" target="_top" xlink:title=" ">
<polygon fill="white" stroke="#666666" points="764.5,-184 663.5,-184 663.5,-165 764.5,-165 764.5,-184"/>
<text text-anchor="middle" x="714" y="-172" font-family="Helvetica,sans-Serif" font-size="10.00">catalog/column.h</text>
</a>
</g>
</g>
<!-- Node6&#45;&gt;Node9 -->
<g id="edge10_Node000006_Node000009" class="edge">
<title>Node6&#45;&gt;Node9</title>
<g id="a_edge10_Node000006_Node000009"><a xlink:title=" ">
<path fill="none" stroke="#63b8ff" d="M780.31,-219.98C768.17,-211.84 749.64,-199.41 735.25,-189.76"/>
<polygon fill="#63b8ff" stroke="#63b8ff" points="737.18,-186.84 726.92,-184.17 733.28,-192.65 737.18,-186.84"/>
</a>
</g>
</g>
<!-- Node13 -->
<g id="Node000013" class="node">
<title>Node13</title>
<g id="a_Node000013"><a xlink:href="../../dd/d2d/exception_8h.html" target="_top" xlink:title=" ">
<polygon fill="white" stroke="#666666" points="685.5,-129 566.5,-129 566.5,-110 685.5,-110 685.5,-129"/>
<text text-anchor="middle" x="626" y="-117" font-family="Helvetica,sans-Serif" font-size="10.00">common/exception.h</text>
</a>
</g>
</g>
<!-- Node6&#45;&gt;Node13 -->
<g id="edge33_Node000006_Node000013" class="edge">
<title>Node6&#45;&gt;Node13</title>
<g id="a_edge33_Node000006_Node000013"><a xlink:title=" ">
<path fill="none" stroke="#63b8ff" d="M741.39,-225.03C684.98,-220.03 599.95,-208.55 580,-184 566.79,-167.75 586.07,-148.1 603.56,-135"/>
<polygon fill="#63b8ff" stroke="#63b8ff" points="605.7,-137.78 611.85,-129.15 601.66,-132.06 605.7,-137.78"/>
</a>
</g>
</g>
<!-- Node19 -->
<g id="Node000019" class="node">
<title>Node19</title>
<g id="a_Node000019"><a xlink:href="../../df/def/type_8h.html" target="_top" xlink:title=" ">
<polygon fill="white" stroke="#666666" points="1055,-74 983,-74 983,-55 1055,-55 1055,-74"/>
<text text-anchor="middle" x="1019" y="-62" font-family="Helvetica,sans-Serif" font-size="10.00">type/type.h</text>
</a>
</g>
</g>
<!-- Node6&#45;&gt;Node19 -->
<g id="edge34_Node000006_Node000019" class="edge">
<title>Node6&#45;&gt;Node19</title>
<g id="a_edge34_Node000006_Node000019"><a xlink:title=" ">
<path fill="none" stroke="#63b8ff" d="M830.25,-219.93C876.04,-207.51 953.18,-180.19 998,-129 1008.88,-116.58 1014.15,-98.37 1016.69,-84.63"/>
<polygon fill="#63b8ff" stroke="#63b8ff" points="1020.2,-84.78 1018.24,-74.36 1013.28,-83.73 1020.2,-84.78"/>
</a>
</g>
</g>
<!-- Node9&#45;&gt;Node4 -->
<g id="edge13_Node000009_Node000004" class="edge">
<title>Node9&#45;&gt;Node4</title>
<g id="a_edge13_Node000009_Node000004"><a xlink:title=" ">
<path fill="none" stroke="#63b8ff" d="M678.86,-164.97C646.95,-156.88 598.78,-143.78 558,-129 529.66,-118.73 451.03,-98.87 434,-74 425.14,-61.05 425.19,-42.9 427,-29.31"/>
<polygon fill="#63b8ff" stroke="#63b8ff" points="430.49,-29.65 428.76,-19.2 423.59,-28.44 430.49,-29.65"/>
</a>
</g>
</g>
<!-- Node9&#45;&gt;Node7 -->
<g id="edge12_Node000009_Node000007" class="edge">
<title>Node9&#45;&gt;Node7</title>
<g id="a_edge12_Node000009_Node000007"><a xlink:title=" ">
<path fill="none" stroke="#63b8ff" d="M712.69,-164.66C710.1,-147.17 704.27,-107.8 700.78,-84.27"/>
<polygon fill="#63b8ff" stroke="#63b8ff" points="704.21,-83.54 699.28,-74.16 697.29,-84.56 704.21,-83.54"/>
</a>
</g>
</g>
<!-- Node10 -->
<g id="Node000010" class="node">
<title>Node10</title>
<g id="a_Node000010"><a xlink:title=" ">
<polygon fill="#e0e0e0" stroke="#999999" points="1119,-19 1069,-19 1069,0 1119,0 1119,-19"/>
<text text-anchor="middle" x="1094" y="-7" font-family="Helvetica,sans-Serif" font-size="10.00">cstdint</text>
</a>
</g>
</g>
<!-- Node9&#45;&gt;Node10 -->
<g id="edge11_Node000009_Node000010" class="edge">
<title>Node9&#45;&gt;Node10</title>
<g id="a_edge11_Node000009_Node000010"><a xlink:title=" ">
<path fill="none" stroke="#63b8ff" d="M764.53,-173.6C823.18,-171.94 921.62,-163.58 998,-129 1032.79,-113.25 1040.63,-104.19 1064,-74 1074.6,-60.31 1082.67,-42.26 1087.76,-28.91"/>
<polygon fill="#63b8ff" stroke="#63b8ff" points="1091.1,-29.97 1091.19,-19.38 1084.51,-27.6 1091.1,-29.97"/>
</a>
</g>
</g>
<!-- Node11 -->
<g id="Node000011" class="node">
<title>Node11</title>
<g id="a_Node000011"><a xlink:title=" ">
<polygon fill="#e0e0e0" stroke="#999999" points="480.5,-129 435.5,-129 435.5,-110 480.5,-110 480.5,-129"/>
<text text-anchor="middle" x="458" y="-117" font-family="Helvetica,sans-Serif" font-size="10.00">utility</text>
</a>
</g>
</g>
<!-- Node9&#45;&gt;Node11 -->
<g id="edge14_Node000009_Node000011" class="edge">
<title>Node9&#45;&gt;Node11</title>
<g id="a_edge14_Node000009_Node000011"><a xlink:title=" ">
<path fill="none" stroke="#63b8ff" d="M670.3,-164.96C626.05,-156.23 555.67,-142.13 495,-129 493.55,-128.69 492.07,-128.36 490.58,-128.03"/>
<polygon fill="#63b8ff" stroke="#63b8ff" points="491.2,-124.59 480.68,-125.81 489.67,-131.41 491.2,-124.59"/>
</a>
</g>
</g>
<!-- Node12 -->
<g id="Node000012" class="node">
<title>Node12</title>
<g id="a_Node000012"><a xlink:title=" ">
<polygon fill="#e0e0e0" stroke="#999999" points="417.5,-129 338.5,-129 338.5,-110 417.5,-110 417.5,-129"/>
<text text-anchor="middle" x="378" y="-117" font-family="Helvetica,sans-Serif" font-size="10.00">fmt/format.h</text>
</a>
</g>
</g>
<!-- Node9&#45;&gt;Node12 -->
<g id="edge15_Node000009_Node000012" class="edge">
<title>Node9&#45;&gt;Node12</title>
<g id="a_edge15_Node000009_Node000012"><a xlink:title=" ">
<path fill="none" stroke="#63b8ff" d="M663.41,-165.94C608.11,-157.61 516.63,-143.64 427.57,-129.07"/>
<polygon fill="#63b8ff" stroke="#63b8ff" points="428,-125.59 417.57,-127.43 426.87,-132.5 428,-125.59"/>
</a>
</g>
</g>
<!-- Node9&#45;&gt;Node13 -->
<g id="edge16_Node000009_Node000013" class="edge">
<title>Node9&#45;&gt;Node13</title>
<g id="a_edge16_Node000009_Node000013"><a xlink:title=" ">
<path fill="none" stroke="#63b8ff" d="M699.86,-164.98C686.21,-156.77 665.31,-144.18 649.22,-134.49"/>
<polygon fill="#63b8ff" stroke="#63b8ff" points="650.77,-131.33 640.4,-129.17 647.16,-137.33 650.77,-131.33"/>
</a>
</g>
</g>
<!-- Node9&#45;&gt;Node19 -->
<g id="edge32_Node000009_Node000019" class="edge">
<title>Node9&#45;&gt;Node19</title>
<g id="a_edge32_Node000009_Node000019"><a xlink:title=" ">
<path fill="none" stroke="#63b8ff" d="M764.59,-169.44C830.11,-163.42 939.94,-150.44 974,-129 991.28,-118.12 1003.84,-97.96 1011.23,-83.26"/>
<polygon fill="#63b8ff" stroke="#63b8ff" points="1014.43,-84.68 1015.52,-74.14 1008.1,-81.71 1014.43,-84.68"/>
</a>
</g>
</g>
<!-- Node21 -->
<g id="Node000021" class="node">
<title>Node21</title>
<g id="a_Node000021"><a xlink:href="../../de/d3c/macros_8h.html" target="_top" xlink:title=" ">
<polygon fill="white" stroke="#666666" points="928.5,-129 821.5,-129 821.5,-110 928.5,-110 928.5,-129"/>
<text text-anchor="middle" x="875" y="-117" font-family="Helvetica,sans-Serif" font-size="10.00">common/macros.h</text>
</a>
</g>
</g>
<!-- Node9&#45;&gt;Node21 -->
<g id="edge28_Node000009_Node000021" class="edge">
<title>Node9&#45;&gt;Node21</title>
<g id="a_edge28_Node000009_Node000021"><a xlink:title=" ">
<path fill="none" stroke="#63b8ff" d="M739.87,-164.98C766.78,-156.13 809.12,-142.19 839.23,-132.28"/>
<polygon fill="#63b8ff" stroke="#63b8ff" points="840.53,-135.53 848.93,-129.08 838.34,-128.88 840.53,-135.53"/>
</a>
</g>
</g>
<!-- Node13&#45;&gt;Node4 -->
<g id="edge23_Node000013_Node000004" class="edge">
<title>Node13&#45;&gt;Node4</title>
<g id="a_edge23_Node000013_Node000004"><a xlink:title=" ">
<path fill="none" stroke="#63b8ff" d="M567,-109.96C522.66,-102.4 466.79,-90.08 450,-74 437.93,-62.44 433.44,-43.57 431.82,-29.4"/>
<polygon fill="#63b8ff" stroke="#63b8ff" points="435.29,-28.97 431.03,-19.27 428.31,-29.51 435.29,-28.97"/>
</a>
</g>
</g>
<!-- Node13&#45;&gt;Node7 -->
<g id="edge21_Node000013_Node000007" class="edge">
<title>Node13&#45;&gt;Node7</title>
<g id="a_edge21_Node000013_Node000007"><a xlink:title=" ">
<path fill="none" stroke="#63b8ff" d="M637.57,-109.98C648.42,-102 664.88,-89.88 677.88,-80.31"/>
<polygon fill="#63b8ff" stroke="#63b8ff" points="680.24,-82.92 686.22,-74.17 676.09,-77.28 680.24,-82.92"/>
</a>
</g>
</g>
<!-- Node14 -->
<g id="Node000014" class="node">
<title>Node14</title>
<g id="a_Node000014"><a xlink:title=" ">
<polygon fill="#e0e0e0" stroke="#999999" points="1240,-74 1190,-74 1190,-55 1240,-55 1240,-74"/>
<text text-anchor="middle" x="1215" y="-62" font-family="Helvetica,sans-Serif" font-size="10.00">atomic</text>
</a>
</g>
</g>
<!-- Node13&#45;&gt;Node14 -->
<g id="edge17_Node000013_Node000014" class="edge">
<title>Node13&#45;&gt;Node14</title>
<g id="a_edge17_Node000013_Node000014"><a xlink:title=" ">
<path fill="none" stroke="#63b8ff" d="M685.72,-113.13C807.64,-102.16 1081.9,-77.48 1179.6,-68.69"/>
<polygon fill="#63b8ff" stroke="#63b8ff" points="1180.18,-72.15 1189.83,-67.76 1179.56,-65.18 1180.18,-72.15"/>
</a>
</g>
</g>
<!-- Node15 -->
<g id="Node000015" class="node">
<title>Node15</title>
<g id="a_Node000015"><a xlink:title=" ">
<polygon fill="#e0e0e0" stroke="#999999" points="583,-74 537,-74 537,-55 583,-55 583,-74"/>
<text text-anchor="middle" x="560" y="-62" font-family="Helvetica,sans-Serif" font-size="10.00">cstdio</text>
</a>
</g>
</g>
<!-- Node13&#45;&gt;Node15 -->
<g id="edge18_Node000013_Node000015" class="edge">
<title>Node13&#45;&gt;Node15</title>
<g id="a_edge18_Node000013_Node000015"><a xlink:title=" ">
<path fill="none" stroke="#63b8ff" d="M615.4,-109.98C605.54,-102.07 590.65,-90.11 578.78,-80.58"/>
<polygon fill="#63b8ff" stroke="#63b8ff" points="580.79,-77.7 570.8,-74.17 576.4,-83.16 580.79,-77.7"/>
</a>
</g>
</g>
<!-- Node16 -->
<g id="Node000016" class="node">
<title>Node16</title>
<g id="a_Node000016"><a xlink:title=" ">
<polygon fill="#e0e0e0" stroke="#999999" points="650.5,-74 601.5,-74 601.5,-55 650.5,-55 650.5,-74"/>
<text text-anchor="middle" x="626" y="-62" font-family="Helvetica,sans-Serif" font-size="10.00">cstdlib</text>
</a>
</g>
</g>
<!-- Node13&#45;&gt;Node16 -->
<g id="edge19_Node000013_Node000016" class="edge">
<title>Node13&#45;&gt;Node16</title>
<g id="a_edge19_Node000013_Node000016"><a xlink:title=" ">
<path fill="none" stroke="#63b8ff" d="M626,-109.75C626,-102.8 626,-92.85 626,-84.13"/>
<polygon fill="#63b8ff" stroke="#63b8ff" points="629.5,-84.09 626,-74.09 622.5,-84.09 629.5,-84.09"/>
</a>
</g>
</g>
<!-- Node17 -->
<g id="Node000017" class="node">
<title>Node17</title>
<g id="a_Node000017"><a xlink:title=" ">
<polygon fill="#e0e0e0" stroke="#999999" points="519,-74 459,-74 459,-55 519,-55 519,-74"/>
<text text-anchor="middle" x="489" y="-62" font-family="Helvetica,sans-Serif" font-size="10.00">iostream</text>
</a>
</g>
</g>
<!-- Node13&#45;&gt;Node17 -->
<g id="edge20_Node000013_Node000017" class="edge">
<title>Node13&#45;&gt;Node17</title>
<g id="a_edge20_Node000013_Node000017"><a xlink:title=" ">
<path fill="none" stroke="#63b8ff" d="M603.99,-109.98C581.55,-101.3 546.52,-87.75 521.01,-77.88"/>
<polygon fill="#63b8ff" stroke="#63b8ff" points="522,-74.51 511.41,-74.17 519.48,-81.04 522,-74.51"/>
</a>
</g>
</g>
<!-- Node18 -->
<g id="Node000018" class="node">
<title>Node18</title>
<g id="a_Node000018"><a xlink:title=" ">
<polygon fill="#e0e0e0" stroke="#999999" points="810.5,-74 745.5,-74 745.5,-55 810.5,-55 810.5,-74"/>
<text text-anchor="middle" x="778" y="-62" font-family="Helvetica,sans-Serif" font-size="10.00">stdexcept</text>
</a>
</g>
</g>
<!-- Node13&#45;&gt;Node18 -->
<g id="edge22_Node000013_Node000018" class="edge">
<title>Node13&#45;&gt;Node18</title>
<g id="a_edge22_Node000013_Node000018"><a xlink:title=" ">
<path fill="none" stroke="#63b8ff" d="M650.42,-109.98C675.72,-101.16 715.45,-87.31 743.86,-77.41"/>
<polygon fill="#63b8ff" stroke="#63b8ff" points="745.1,-80.68 753.39,-74.08 742.79,-74.07 745.1,-80.68"/>
</a>
</g>
</g>
<!-- Node13&#45;&gt;Node19 -->
<g id="edge24_Node000013_Node000019" class="edge">
<title>Node13&#45;&gt;Node19</title>
<g id="a_edge24_Node000013_Node000019"><a xlink:title=" ">
<path fill="none" stroke="#63b8ff" d="M685.57,-111.97C752.89,-104.36 865.98,-90.82 972.71,-74.12"/>
<polygon fill="#63b8ff" stroke="#63b8ff" points="973.35,-77.57 982.68,-72.55 972.26,-70.65 973.35,-77.57"/>
</a>
</g>
</g>
<!-- Node19&#45;&gt;Node4 -->
<g id="edge26_Node000019_Node000004" class="edge">
<title>Node19&#45;&gt;Node4</title>
<g id="a_edge26_Node000019_Node000004"><a xlink:title=" ">
<path fill="none" stroke="#63b8ff" d="M982.7,-56.31C979.77,-55.83 976.84,-55.38 974,-55 781.15,-28.96 547.58,-16.03 463.28,-11.96"/>
<polygon fill="#63b8ff" stroke="#63b8ff" points="463.23,-8.45 453.07,-11.48 462.89,-15.45 463.23,-8.45"/>
</a>
</g>
</g>
<!-- Node19&#45;&gt;Node10 -->
<g id="edge25_Node000019_Node000010" class="edge">
<title>Node19&#45;&gt;Node10</title>
<g id="a_edge25_Node000019_Node000010"><a xlink:title=" ">
<path fill="none" stroke="#63b8ff" d="M1031.05,-54.98C1042.46,-46.92 1059.83,-34.65 1073.43,-25.03"/>
<polygon fill="#63b8ff" stroke="#63b8ff" points="1075.58,-27.8 1081.73,-19.17 1071.54,-22.08 1075.58,-27.8"/>
</a>
</g>
</g>
<!-- Node20 -->
<g id="Node000020" class="node">
<title>Node20</title>
<g id="a_Node000020"><a xlink:href="../../dc/df2/type__id_8h.html" target="_top" xlink:title=" ">
<polygon fill="white" stroke="#666666" points="1051,-19 965,-19 965,0 1051,0 1051,-19"/>
<text text-anchor="middle" x="1008" y="-7" font-family="Helvetica,sans-Serif" font-size="10.00">type/type_id.h</text>
</a>
</g>
</g>
<!-- Node19&#45;&gt;Node20 -->
<g id="edge27_Node000019_Node000020" class="edge">
<title>Node19&#45;&gt;Node20</title>
<g id="a_edge27_Node000019_Node000020"><a xlink:title=" ">
<path fill="none" stroke="#63b8ff" d="M1017.18,-54.75C1015.74,-47.8 1013.68,-37.85 1011.87,-29.13"/>
<polygon fill="#63b8ff" stroke="#63b8ff" points="1015.24,-28.17 1009.78,-19.09 1008.39,-29.59 1015.24,-28.17"/>
</a>
</g>
</g>
<!-- Node21&#45;&gt;Node18 -->
<g id="edge31_Node000021_Node000018" class="edge">
<title>Node21&#45;&gt;Node18</title>
<g id="a_edge31_Node000021_Node000018"><a xlink:title=" ">
<path fill="none" stroke="#63b8ff" d="M859.42,-109.98C844.23,-101.69 820.9,-88.94 803.1,-79.22"/>
<polygon fill="#63b8ff" stroke="#63b8ff" points="804.32,-75.89 793.87,-74.17 800.97,-82.04 804.32,-75.89"/>
</a>
</g>
</g>
<!-- Node22 -->
<g id="Node000022" class="node">
<title>Node22</title>
<g id="a_Node000022"><a xlink:title=" ">
<polygon fill="#e0e0e0" stroke="#999999" points="881,-74 829,-74 829,-55 881,-55 881,-74"/>
<text text-anchor="middle" x="855" y="-62" font-family="Helvetica,sans-Serif" font-size="10.00">cassert</text>
</a>
</g>
</g>
<!-- Node21&#45;&gt;Node22 -->
<g id="edge29_Node000021_Node000022" class="edge">
<title>Node21&#45;&gt;Node22</title>
<g id="a_edge29_Node000021_Node000022"><a xlink:title=" ">
<path fill="none" stroke="#63b8ff" d="M871.7,-109.75C869.02,-102.65 865.15,-92.4 861.81,-83.56"/>
<polygon fill="#63b8ff" stroke="#63b8ff" points="865.05,-82.21 858.24,-74.09 858.5,-84.68 865.05,-82.21"/>
</a>
</g>
</g>
<!-- Node23 -->
<g id="Node000023" class="node">
<title>Node23</title>
<g id="a_Node000023"><a xlink:title=" ">
<polygon fill="#e0e0e0" stroke="#999999" points="964.5,-74 899.5,-74 899.5,-55 964.5,-55 964.5,-74"/>
<text text-anchor="middle" x="932" y="-62" font-family="Helvetica,sans-Serif" font-size="10.00">exception</text>
</a>
</g>
</g>
<!-- Node21&#45;&gt;Node23 -->
<g id="edge30_Node000021_Node000023" class="edge">
<title>Node21&#45;&gt;Node23</title>
<g id="a_edge30_Node000021_Node000023"><a xlink:title=" ">
<path fill="none" stroke="#63b8ff" d="M884.16,-109.98C892.5,-102.23 905.03,-90.58 915.18,-81.14"/>
<polygon fill="#63b8ff" stroke="#63b8ff" points="917.74,-83.54 922.68,-74.17 912.97,-78.42 917.74,-83.54"/>
</a>
</g>
</g>
<!-- Node24&#45;&gt;Node10 -->
<g id="edge38_Node000024_Node000010" class="edge">
<title>Node24&#45;&gt;Node10</title>
<g id="a_edge38_Node000024_Node000010"><a xlink:title=" ">
<path fill="none" stroke="#63b8ff" d="M1354.68,-109.96C1361.29,-96.59 1371.2,-70.61 1358,-55 1329.15,-20.87 1194.68,-12.91 1129.55,-11.06"/>
<polygon fill="#63b8ff" stroke="#63b8ff" points="1129.43,-7.55 1119.34,-10.8 1129.25,-14.55 1129.43,-7.55"/>
</a>
</g>
</g>
<!-- Node24&#45;&gt;Node14 -->
<g id="edge36_Node000024_Node000014" class="edge">
<title>Node24&#45;&gt;Node14</title>
<g id="a_edge36_Node000024_Node000014"><a xlink:title=" ">
<path fill="none" stroke="#63b8ff" d="M1328.31,-109.98C1306.2,-101.3 1271.68,-87.75 1246.55,-77.88"/>
<polygon fill="#63b8ff" stroke="#63b8ff" points="1247.67,-74.57 1237.08,-74.17 1245.11,-81.08 1247.67,-74.57"/>
</a>
</g>
</g>
<!-- Node25 -->
<g id="Node000025" class="node">
<title>Node25</title>
<g id="a_Node000025"><a xlink:title=" ">
<polygon fill="#e0e0e0" stroke="#999999" points="1349,-74 1299,-74 1299,-55 1349,-55 1349,-74"/>
<text text-anchor="middle" x="1324" y="-62" font-family="Helvetica,sans-Serif" font-size="10.00">chrono</text>
</a>
</g>
</g>
<!-- Node24&#45;&gt;Node25 -->
<g id="edge37_Node000024_Node000025" class="edge">
<title>Node24&#45;&gt;Node25</title>
<g id="a_edge37_Node000024_Node000025"><a xlink:title=" ">
<path fill="none" stroke="#63b8ff" d="M1345.71,-109.75C1342.19,-102.57 1337.09,-92.18 1332.72,-83.27"/>
<polygon fill="#63b8ff" stroke="#63b8ff" points="1335.76,-81.53 1328.21,-74.09 1329.48,-84.61 1335.76,-81.53"/>
</a>
</g>
</g>
<!-- Node26&#45;&gt;Node4 -->
<g id="edge42_Node000026_Node000004" class="edge">
<title>Node26&#45;&gt;Node4</title>
<g id="a_edge42_Node000026_Node000004"><a xlink:title=" ">
<path fill="none" stroke="#63b8ff" d="M1234.84,-164.85C1217.75,-157.35 1194.36,-145.14 1178,-129 1150.92,-102.28 1167.35,-75 1135,-55 1077.38,-19.37 593.38,-12.09 463.16,-10.77"/>
<polygon fill="#63b8ff" stroke="#63b8ff" points="463.06,-7.27 453.03,-10.67 463,-14.27 463.06,-7.27"/>
</a>
</g>
</g>
<!-- Node26&#45;&gt;Node10 -->
<g id="edge40_Node000026_Node000010" class="edge">
<title>Node26&#45;&gt;Node10</title>
<g id="a_edge40_Node000026_Node000010"><a xlink:title=" ">
<path fill="none" stroke="#63b8ff" d="M1259.42,-164.87C1264.82,-143.54 1275.43,-87.73 1249,-55 1220.34,-19.51 1165.39,-11.17 1129.21,-9.8"/>
<polygon fill="#63b8ff" stroke="#63b8ff" points="1129.16,-6.3 1119.09,-9.57 1129.01,-13.29 1129.16,-6.3"/>
</a>
</g>
</g>
<!-- Node26&#45;&gt;Node24 -->
<g id="edge43_Node000026_Node000024" class="edge">
<title>Node26&#45;&gt;Node24</title>
<g id="a_edge43_Node000026_Node000024"><a xlink:title=" ">
<path fill="none" stroke="#63b8ff" d="M1271.94,-164.98C1286.5,-156.69 1308.87,-143.94 1325.93,-134.22"/>
<polygon fill="#63b8ff" stroke="#63b8ff" points="1327.83,-137.16 1334.79,-129.17 1324.36,-131.08 1327.83,-137.16"/>
</a>
</g>
</g>
<!-- Node27 -->
<g id="Node000027" class="node">
<title>Node27</title>
<g id="a_Node000027"><a xlink:title=" ">
<polygon fill="#e0e0e0" stroke="#999999" points="1243,-129 1187,-129 1187,-110 1243,-110 1243,-129"/>
<text text-anchor="middle" x="1215" y="-117" font-family="Helvetica,sans-Serif" font-size="10.00">sstream</text>
</a>
</g>
</g>
<!-- Node26&#45;&gt;Node27 -->
<g id="edge41_Node000026_Node000027" class="edge">
<title>Node26&#45;&gt;Node27</title>
<g id="a_edge41_Node000026_Node000027"><a xlink:title=" ">
<path fill="none" stroke="#63b8ff" d="M1250.06,-164.75C1244.13,-157.26 1235.43,-146.28 1228.18,-137.13"/>
<polygon fill="#63b8ff" stroke="#63b8ff" points="1230.76,-134.75 1221.81,-129.09 1225.27,-139.1 1230.76,-134.75"/>
</a>
</g>
</g>
<!-- Node28&#45;&gt;Node2 -->
<g id="edge45_Node000028_Node000002" class="edge">
<title>Node28&#45;&gt;Node2</title>
<g id="a_edge45_Node000028_Node000002"><a xlink:title=" ">
<path fill="none" stroke="#63b8ff" d="M271.5,-166.19C217.12,-155.86 118.62,-137.14 66.14,-127.17"/>
<polygon fill="#63b8ff" stroke="#63b8ff" points="66.76,-123.73 56.28,-125.3 65.45,-130.61 66.76,-123.73"/>
</a>
</g>
</g>
<!-- Node28&#45;&gt;Node4 -->
<g id="edge47_Node000028_Node000004" class="edge">
<title>Node28&#45;&gt;Node4</title>
<g id="a_edge47_Node000028_Node000004"><a xlink:title=" ">
<path fill="none" stroke="#63b8ff" d="M276.71,-164.93C216.46,-147.89 99.53,-106.89 144,-55 176.54,-17.02 331,-11.18 398.88,-10.48"/>
<polygon fill="#63b8ff" stroke="#63b8ff" points="399.02,-13.98 409,-10.4 398.97,-6.98 399.02,-13.98"/>
</a>
</g>
</g>
<!-- Node28&#45;&gt;Node7 -->
<g id="edge46_Node000028_Node000007" class="edge">
<title>Node28&#45;&gt;Node7</title>
<g id="a_edge46_Node000028_Node000007"><a xlink:title=" ">
<path fill="none" stroke="#63b8ff" d="M309.94,-164.91C310.35,-150.98 313.38,-123.64 330,-110 384.8,-65.03 571.8,-84.39 658.54,-73.85"/>
<polygon fill="#63b8ff" stroke="#63b8ff" points="659.2,-77.3 668.6,-72.41 658.21,-70.37 659.2,-77.3"/>
</a>
</g>
</g>
<!-- Node28&#45;&gt;Node11 -->
<g id="edge48_Node000028_Node000011" class="edge">
<title>Node28&#45;&gt;Node11</title>
<g id="a_edge48_Node000028_Node000011"><a xlink:title=" ">
<path fill="none" stroke="#63b8ff" d="M333.78,-164.98C358.67,-156.07 397.91,-142.02 425.61,-132.1"/>
<polygon fill="#63b8ff" stroke="#63b8ff" points="427.02,-135.31 435.25,-128.65 424.66,-128.72 427.02,-135.31"/>
</a>
</g>
</g>
<!-- Node28&#45;&gt;Node12 -->
<g id="edge49_Node000028_Node000012" class="edge">
<title>Node28&#45;&gt;Node12</title>
<g id="a_edge49_Node000028_Node000012"><a xlink:title=" ">
<path fill="none" stroke="#63b8ff" d="M320.93,-164.98C331.08,-157.07 346.42,-145.11 358.65,-135.58"/>
<polygon fill="#63b8ff" stroke="#63b8ff" points="361.14,-138.08 366.88,-129.17 356.84,-132.56 361.14,-138.08"/>
</a>
</g>
</g>
<!-- Node28&#45;&gt;Node19 -->
<g id="edge55_Node000028_Node000019" class="edge">
<title>Node28&#45;&gt;Node19</title>
<g id="a_edge55_Node000028_Node000019"><a xlink:title=" ">
<path fill="none" stroke="#63b8ff" d="M348.95,-172.07C477.49,-167.15 883.18,-150.12 938,-129 964.45,-118.81 989.22,-96.87 1004.24,-81.65"/>
<polygon fill="#63b8ff" stroke="#63b8ff" points="1007.16,-83.66 1011.53,-74 1002.09,-78.83 1007.16,-83.66"/>
</a>
</g>
</g>
<!-- Node29 -->
<g id="Node000029" class="node">
<title>Node29</title>
<g id="a_Node000029"><a xlink:href="../../d9/d86/limits_8h.html" target="_top" xlink:title=" ">
<polygon fill="white" stroke="#666666" points="282,-129 204,-129 204,-110 282,-110 282,-129"/>
<text text-anchor="middle" x="243" y="-117" font-family="Helvetica,sans-Serif" font-size="10.00">type/limits.h</text>
</a>
</g>
</g>
<!-- Node28&#45;&gt;Node29 -->
<g id="edge50_Node000028_Node000029" class="edge">
<title>Node28&#45;&gt;Node29</title>
<g id="a_edge50_Node000028_Node000029"><a xlink:title=" ">
<path fill="none" stroke="#63b8ff" d="M299.24,-164.98C289.23,-157.07 274.11,-145.11 262.07,-135.58"/>
<polygon fill="#63b8ff" stroke="#63b8ff" points="263.97,-132.63 253.96,-129.17 259.63,-138.12 263.97,-132.63"/>
</a>
</g>
</g>
<!-- Node29&#45;&gt;Node10 -->
<g id="edge53_Node000029_Node000010" class="edge">
<title>Node29&#45;&gt;Node10</title>
<g id="a_edge53_Node000029_Node000010"><a xlink:title=" ">
<path fill="none" stroke="#63b8ff" d="M264.63,-109.98C301.84,-95.75 380.64,-67.5 450,-55 714.01,-7.42 789.7,-58.83 1058.79,-18.86"/>
<polygon fill="#63b8ff" stroke="#63b8ff" points="1059.49,-22.3 1068.86,-17.34 1058.44,-15.38 1059.49,-22.3"/>
</a>
</g>
</g>
<!-- Node30 -->
<g id="Node000030" class="node">
<title>Node30</title>
<g id="a_Node000030"><a xlink:title=" ">
<polygon fill="#e0e0e0" stroke="#999999" points="327,-74 283,-74 283,-55 327,-55 327,-74"/>
<text text-anchor="middle" x="305" y="-62" font-family="Helvetica,sans-Serif" font-size="10.00">cfloat</text>
</a>
</g>
</g>
<!-- Node29&#45;&gt;Node30 -->
<g id="edge51_Node000029_Node000030" class="edge">
<title>Node29&#45;&gt;Node30</title>
<g id="a_edge51_Node000029_Node000030"><a xlink:title=" ">
<path fill="none" stroke="#63b8ff" d="M252.96,-109.98C262.13,-102.15 275.94,-90.34 287.03,-80.86"/>
<polygon fill="#63b8ff" stroke="#63b8ff" points="289.53,-83.33 294.86,-74.17 284.98,-78.01 289.53,-83.33"/>
</a>
</g>
</g>
<!-- Node31 -->
<g id="Node000031" class="node">
<title>Node31</title>
<g id="a_Node000031"><a xlink:title=" ">
<polygon fill="#e0e0e0" stroke="#999999" points="203,-74 153,-74 153,-55 203,-55 203,-74"/>
<text text-anchor="middle" x="178" y="-62" font-family="Helvetica,sans-Serif" font-size="10.00">climits</text>
</a>
</g>
</g>
<!-- Node29&#45;&gt;Node31 -->
<g id="edge52_Node000029_Node000031" class="edge">
<title>Node29&#45;&gt;Node31</title>
<g id="a_edge52_Node000029_Node000031"><a xlink:title=" ">
<path fill="none" stroke="#63b8ff" d="M232.56,-109.98C222.85,-102.07 208.18,-90.11 196.5,-80.58"/>
<polygon fill="#63b8ff" stroke="#63b8ff" points="198.6,-77.78 188.63,-74.17 194.17,-83.2 198.6,-77.78"/>
</a>
</g>
</g>
<!-- Node32 -->
<g id="Node000032" class="node">
<title>Node32</title>
<g id="a_Node000032"><a xlink:title=" ">
<polygon fill="#e0e0e0" stroke="#999999" points="265,-74 221,-74 221,-55 265,-55 265,-74"/>
<text text-anchor="middle" x="243" y="-62" font-family="Helvetica,sans-Serif" font-size="10.00">limits</text>
</a>
</g>
</g>
<!-- Node29&#45;&gt;Node32 -->
<g id="edge54_Node000029_Node000032" class="edge">
<title>Node29&#45;&gt;Node32</title>
<g id="a_edge54_Node000029_Node000032"><a xlink:title=" ">
<path fill="none" stroke="#63b8ff" d="M243,-109.75C243,-102.8 243,-92.85 243,-84.13"/>
<polygon fill="#63b8ff" stroke="#63b8ff" points="246.5,-84.09 243,-74.09 239.5,-84.09 246.5,-84.09"/>
</a>
</g>
</g>
</g>
</svg>
