<?xml version="1.0" encoding="UTF-8" standalone="no"?>
<!DOCTYPE svg PUBLIC "-//W3C//DTD SVG 1.1//EN"
 "http://www.w3.org/Graphics/SVG/1.1/DTD/svg11.dtd">
<!-- Generated by graphviz version 2.43.0 (0)
 -->
<!-- Title: src/storage/page/hash_table_directory_page.cpp Pages: 1 -->
<svg width="1726pt" height="500pt"
 viewBox="0.00 0.00 1725.50 500.00" xmlns="http://www.w3.org/2000/svg" xmlns:xlink="http://www.w3.org/1999/xlink">
<g id="graph0" class="graph" transform="scale(1 1) rotate(0) translate(4 496)">
<title>src/storage/page/hash_table_directory_page.cpp</title>
<!-- Node1 -->
<g id="Node000001" class="node">
<title>Node1</title>
<g id="a_Node000001"><a xlink:title=" ">
<polygon fill="#999999" stroke="#666666" points="1595.5,-492 1450.5,-492 1450.5,-462 1595.5,-462 1595.5,-492"/>
<text text-anchor="start" x="1458.5" y="-480" font-family="Helvetica,sans-Serif" font-size="10.00">src/storage/page/hash</text>
<text text-anchor="middle" x="1523" y="-469" font-family="Helvetica,sans-Serif" font-size="10.00">_table_directory_page.cpp</text>
</a>
</g>
</g>
<!-- Node2 -->
<g id="Node000002" class="node">
<title>Node2</title>
<g id="a_Node000002"><a xlink:href="../../d9/dce/hash__table__directory__page_8h.html" target="_top" xlink:title=" ">
<polygon fill="white" stroke="#666666" points="1091.5,-426 954.5,-426 954.5,-396 1091.5,-396 1091.5,-426"/>
<text text-anchor="start" x="962.5" y="-414" font-family="Helvetica,sans-Serif" font-size="10.00">storage/page/hash_table</text>
<text text-anchor="middle" x="1023" y="-403" font-family="Helvetica,sans-Serif" font-size="10.00">_directory_page.h</text>
</a>
</g>
</g>
<!-- Node1&#45;&gt;Node2 -->
<g id="edge1_Node000001_Node000002" class="edge">
<title>Node1&#45;&gt;Node2</title>
<g id="a_edge1_Node000001_Node000002"><a xlink:title=" ">
<path fill="none" stroke="#63b8ff" d="M1450.3,-466.69C1357.53,-454.82 1197.65,-434.35 1101.97,-422.11"/>
<polygon fill="#63b8ff" stroke="#63b8ff" points="1102.13,-418.6 1091.77,-420.8 1101.25,-425.54 1102.13,-418.6"/>
</a>
</g>
</g>
<!-- Node36 -->
<g id="Node000036" class="node">
<title>Node36</title>
<g id="a_Node000036"><a xlink:title=" ">
<polygon fill="#e0e0e0" stroke="#999999" points="1606,-420.5 1542,-420.5 1542,-401.5 1606,-401.5 1606,-420.5"/>
<text text-anchor="middle" x="1574" y="-408.5" font-family="Helvetica,sans-Serif" font-size="10.00">algorithm</text>
</a>
</g>
</g>
<!-- Node1&#45;&gt;Node36 -->
<g id="edge64_Node000001_Node000036" class="edge">
<title>Node1&#45;&gt;Node36</title>
<g id="a_edge64_Node000001_Node000036"><a xlink:title=" ">
<path fill="none" stroke="#63b8ff" d="M1534.32,-461.8C1542.11,-452.01 1552.5,-438.98 1560.69,-428.7"/>
<polygon fill="#63b8ff" stroke="#63b8ff" points="1563.46,-430.85 1566.95,-420.84 1557.98,-426.48 1563.46,-430.85"/>
</a>
</g>
</g>
<!-- Node37 -->
<g id="Node000037" class="node">
<title>Node37</title>
<g id="a_Node000037"><a xlink:title=" ">
<polygon fill="#e0e0e0" stroke="#999999" points="1717.5,-420.5 1624.5,-420.5 1624.5,-401.5 1717.5,-401.5 1717.5,-420.5"/>
<text text-anchor="middle" x="1671" y="-408.5" font-family="Helvetica,sans-Serif" font-size="10.00">unordered_map</text>
</a>
</g>
</g>
<!-- Node1&#45;&gt;Node37 -->
<g id="edge65_Node000001_Node000037" class="edge">
<title>Node1&#45;&gt;Node37</title>
<g id="a_edge65_Node000001_Node000037"><a xlink:title=" ">
<path fill="none" stroke="#63b8ff" d="M1555.48,-461.95C1581.32,-450.78 1617.15,-435.29 1642.03,-424.53"/>
<polygon fill="#63b8ff" stroke="#63b8ff" points="1643.51,-427.7 1651.3,-420.52 1640.74,-421.27 1643.51,-427.7"/>
</a>
</g>
</g>
<!-- Node38 -->
<g id="Node000038" class="node">
<title>Node38</title>
<g id="a_Node000038"><a xlink:href="../../d1/d8c/logger_8h.html" target="_top" xlink:title=" ">
<polygon fill="white" stroke="#666666" points="1523.5,-420.5 1422.5,-420.5 1422.5,-401.5 1523.5,-401.5 1523.5,-420.5"/>
<text text-anchor="middle" x="1473" y="-408.5" font-family="Helvetica,sans-Serif" font-size="10.00">common/logger.h</text>
</a>
</g>
</g>
<!-- Node1&#45;&gt;Node38 -->
<g id="edge66_Node000001_Node000038" class="edge">
<title>Node1&#45;&gt;Node38</title>
<g id="a_edge66_Node000001_Node000038"><a xlink:title=" ">
<path fill="none" stroke="#63b8ff" d="M1511.9,-461.8C1504.34,-452.11 1494.28,-439.24 1486.29,-429.01"/>
<polygon fill="#63b8ff" stroke="#63b8ff" points="1488.82,-426.57 1479.91,-420.84 1483.31,-430.88 1488.82,-426.57"/>
</a>
</g>
</g>
<!-- Node3 -->
<g id="Node000003" class="node">
<title>Node3</title>
<g id="a_Node000003"><a xlink:title=" ">
<polygon fill="#e0e0e0" stroke="#999999" points="1407,-74 1355,-74 1355,-55 1407,-55 1407,-74"/>
<text text-anchor="middle" x="1381" y="-62" font-family="Helvetica,sans-Serif" font-size="10.00">cassert</text>
</a>
</g>
</g>
<!-- Node2&#45;&gt;Node3 -->
<g id="edge2_Node000002_Node000003" class="edge">
<title>Node2&#45;&gt;Node3</title>
<g id="a_edge2_Node000002_Node000003"><a xlink:title=" ">
<path fill="none" stroke="#63b8ff" d="M1023.2,-395.96C1024.09,-378.88 1027.8,-349.86 1042,-330 1139.48,-193.7 1258.68,-261.71 1361,-129 1371.03,-115.99 1376.09,-97.84 1378.61,-84.28"/>
<polygon fill="#63b8ff" stroke="#63b8ff" points="1382.1,-84.59 1380.17,-74.17 1375.18,-83.52 1382.1,-84.59"/>
</a>
</g>
</g>
<!-- Node4 -->
<g id="Node000004" class="node">
<title>Node4</title>
<g id="a_Node000004"><a xlink:title=" ">
<polygon fill="#e0e0e0" stroke="#999999" points="416,-74 366,-74 366,-55 416,-55 416,-74"/>
<text text-anchor="middle" x="391" y="-62" font-family="Helvetica,sans-Serif" font-size="10.00">climits</text>
</a>
</g>
</g>
<!-- Node2&#45;&gt;Node4 -->
<g id="edge3_Node000002_Node000004" class="edge">
<title>Node2&#45;&gt;Node4</title>
<g id="a_edge3_Node000002_Node000004"><a xlink:title=" ">
<path fill="none" stroke="#63b8ff" d="M954.3,-408.62C858.18,-405.43 678.66,-394.88 530,-360 438.46,-338.52 332,-379.52 332,-285.5 332,-285.5 332,-285.5 332,-173.5 332,-137.23 357.94,-101.58 375.42,-81.67"/>
<polygon fill="#63b8ff" stroke="#63b8ff" points="378.13,-83.89 382.29,-74.14 372.97,-79.17 378.13,-83.89"/>
</a>
</g>
</g>
<!-- Node5 -->
<g id="Node000005" class="node">
<title>Node5</title>
<g id="a_Node000005"><a xlink:title=" ">
<polygon fill="#e0e0e0" stroke="#999999" points="1170.5,-74 1121.5,-74 1121.5,-55 1170.5,-55 1170.5,-74"/>
<text text-anchor="middle" x="1146" y="-62" font-family="Helvetica,sans-Serif" font-size="10.00">cstdlib</text>
</a>
</g>
</g>
<!-- Node2&#45;&gt;Node5 -->
<g id="edge4_Node000002_Node000005" class="edge">
<title>Node2&#45;&gt;Node5</title>
<g id="a_edge4_Node000002_Node000005"><a xlink:title=" ">
<path fill="none" stroke="#63b8ff" d="M1091.86,-406.07C1127.67,-400.5 1169.57,-387.91 1197,-360 1221.03,-335.55 1217,-319.78 1217,-285.5 1217,-285.5 1217,-285.5 1217,-173.5 1217,-135.27 1185.55,-100.09 1164.51,-80.83"/>
<polygon fill="#63b8ff" stroke="#63b8ff" points="1166.6,-78.01 1156.78,-74.03 1161.98,-83.27 1166.6,-78.01"/>
</a>
</g>
</g>
<!-- Node6 -->
<g id="Node000006" class="node">
<title>Node6</title>
<g id="a_Node000006"><a xlink:title=" ">
<polygon fill="#e0e0e0" stroke="#999999" points="835,-19 791,-19 791,0 835,0 835,-19"/>
<text text-anchor="middle" x="813" y="-7" font-family="Helvetica,sans-Serif" font-size="10.00">string</text>
</a>
</g>
</g>
<!-- Node2&#45;&gt;Node6 -->
<g id="edge5_Node000002_Node000006" class="edge">
<title>Node2&#45;&gt;Node6</title>
<g id="a_edge5_Node000002_Node000006"><a xlink:title=" ">
<path fill="none" stroke="#63b8ff" d="M954.45,-410.42C835.97,-409.96 598.98,-403.43 530,-360 428.21,-295.91 421.55,-244.79 389,-129 372.25,-69.41 447.69,-72.72 507,-55 603.89,-26.06 723.86,-15.61 780.49,-12.12"/>
<polygon fill="#63b8ff" stroke="#63b8ff" points="780.85,-15.6 790.63,-11.52 780.44,-8.61 780.85,-15.6"/>
</a>
</g>
</g>
<!-- Node7 -->
<g id="Node000007" class="node">
<title>Node7</title>
<g id="a_Node000007"><a xlink:href="../../da/d28/generic__key_8h.html" target="_top" xlink:title=" ">
<polygon fill="white" stroke="#666666" points="661,-360 539,-360 539,-330 661,-330 661,-360"/>
<text text-anchor="start" x="547" y="-348" font-family="Helvetica,sans-Serif" font-size="10.00">storage/index/generic</text>
<text text-anchor="middle" x="600" y="-337" font-family="Helvetica,sans-Serif" font-size="10.00">_key.h</text>
</a>
</g>
</g>
<!-- Node2&#45;&gt;Node7 -->
<g id="edge6_Node000002_Node000007" class="edge">
<title>Node2&#45;&gt;Node7</title>
<g id="a_edge6_Node000002_Node000007"><a xlink:title=" ">
<path fill="none" stroke="#63b8ff" d="M954.1,-399.57C876.35,-387.81 750.49,-368.77 671.64,-356.84"/>
<polygon fill="#63b8ff" stroke="#63b8ff" points="671.72,-353.31 661.31,-355.28 670.68,-360.23 671.72,-353.31"/>
</a>
</g>
</g>
<!-- Node35 -->
<g id="Node000035" class="node">
<title>Node35</title>
<g id="a_Node000035"><a xlink:href="../../d6/d3b/hash__table__page__defs_8h.html" target="_top" xlink:title=" ">
<polygon fill="white" stroke="#666666" points="1188.5,-360 1051.5,-360 1051.5,-330 1188.5,-330 1188.5,-360"/>
<text text-anchor="start" x="1059.5" y="-348" font-family="Helvetica,sans-Serif" font-size="10.00">storage/page/hash_table</text>
<text text-anchor="middle" x="1120" y="-337" font-family="Helvetica,sans-Serif" font-size="10.00">_page_defs.h</text>
</a>
</g>
</g>
<!-- Node2&#45;&gt;Node35 -->
<g id="edge63_Node000002_Node000035" class="edge">
<title>Node2&#45;&gt;Node35</title>
<g id="a_edge63_Node000002_Node000035"><a xlink:title=" ">
<path fill="none" stroke="#63b8ff" d="M1044.53,-395.8C1057.84,-387.01 1075.13,-375.61 1089.8,-365.93"/>
<polygon fill="#63b8ff" stroke="#63b8ff" points="1092.11,-368.59 1098.53,-360.16 1088.26,-362.75 1092.11,-368.59"/>
</a>
</g>
</g>
<!-- Node8 -->
<g id="Node000008" class="node">
<title>Node8</title>
<g id="a_Node000008"><a xlink:title=" ">
<polygon fill="#e0e0e0" stroke="#999999" points="50,-129 0,-129 0,-110 50,-110 50,-129"/>
<text text-anchor="middle" x="25" y="-117" font-family="Helvetica,sans-Serif" font-size="10.00">cstring</text>
</a>
</g>
</g>
<!-- Node7&#45;&gt;Node8 -->
<g id="edge7_Node000007_Node000008" class="edge">
<title>Node7&#45;&gt;Node8</title>
<g id="a_edge7_Node000007_Node000008"><a xlink:title=" ">
<path fill="none" stroke="#63b8ff" d="M563.59,-329.85C458.34,-288.94 154.9,-170.99 56.33,-132.68"/>
<polygon fill="#63b8ff" stroke="#63b8ff" points="57.51,-129.38 46.92,-129.02 54.97,-135.9 57.51,-129.38"/>
</a>
</g>
</g>
<!-- Node9 -->
<g id="Node000009" class="node">
<title>Node9</title>
<g id="a_Node000009"><a xlink:href="../../d2/d20/tuple_8h.html" target="_top" xlink:title=" ">
<polygon fill="white" stroke="#666666" points="703,-294 585,-294 585,-275 703,-275 703,-294"/>
<text text-anchor="middle" x="644" y="-282" font-family="Helvetica,sans-Serif" font-size="10.00">storage/table/tuple.h</text>
</a>
</g>
</g>
<!-- Node7&#45;&gt;Node9 -->
<g id="edge8_Node000007_Node000009" class="edge">
<title>Node7&#45;&gt;Node9</title>
<g id="a_edge8_Node000007_Node000009"><a xlink:title=" ">
<path fill="none" stroke="#63b8ff" d="M610.65,-329.84C616.84,-321.61 624.69,-311.18 631.21,-302.51"/>
<polygon fill="#63b8ff" stroke="#63b8ff" points="634.19,-304.36 637.41,-294.27 628.6,-300.15 634.19,-304.36"/>
</a>
</g>
</g>
<!-- Node31 -->
<g id="Node000031" class="node">
<title>Node31</title>
<g id="a_Node000031"><a xlink:href="../../d4/d3f/value_8h.html" target="_top" xlink:title=" ">
<polygon fill="white" stroke="#666666" points="615.5,-184 538.5,-184 538.5,-165 615.5,-165 615.5,-184"/>
<text text-anchor="middle" x="577" y="-172" font-family="Helvetica,sans-Serif" font-size="10.00">type/value.h</text>
</a>
</g>
</g>
<!-- Node7&#45;&gt;Node31 -->
<g id="edge62_Node000007_Node000031" class="edge">
<title>Node7&#45;&gt;Node31</title>
<g id="a_edge62_Node000007_Node000031"><a xlink:title=" ">
<path fill="none" stroke="#63b8ff" d="M591.04,-329.76C585.5,-320.08 578.91,-306.77 576,-294 568.15,-259.52 571.29,-217.92 574.21,-194.31"/>
<polygon fill="#63b8ff" stroke="#63b8ff" points="577.69,-194.65 575.57,-184.27 570.75,-193.71 577.69,-194.65"/>
</a>
</g>
</g>
<!-- Node9&#45;&gt;Node6 -->
<g id="edge9_Node000009_Node000006" class="edge">
<title>Node9&#45;&gt;Node6</title>
<g id="a_edge9_Node000009_Node000006"><a xlink:title=" ">
<path fill="none" stroke="#63b8ff" d="M642.33,-274.77C636.52,-241.65 620.52,-122.19 677,-55 702.64,-24.5 749.52,-14.75 780.98,-11.72"/>
<polygon fill="#63b8ff" stroke="#63b8ff" points="781.31,-15.21 791,-10.93 780.76,-8.23 781.31,-15.21"/>
</a>
</g>
</g>
<!-- Node10 -->
<g id="Node000010" class="node">
<title>Node10</title>
<g id="a_Node000010"><a xlink:title=" ">
<polygon fill="#e0e0e0" stroke="#999999" points="719.5,-184 672.5,-184 672.5,-165 719.5,-165 719.5,-184"/>
<text text-anchor="middle" x="696" y="-172" font-family="Helvetica,sans-Serif" font-size="10.00">vector</text>
</a>
</g>
</g>
<!-- Node9&#45;&gt;Node10 -->
<g id="edge10_Node000009_Node000010" class="edge">
<title>Node9&#45;&gt;Node10</title>
<g id="a_edge10_Node000009_Node000010"><a xlink:title=" ">
<path fill="none" stroke="#63b8ff" d="M648.26,-274.66C656.79,-256.93 676.15,-216.73 687.42,-193.32"/>
<polygon fill="#63b8ff" stroke="#63b8ff" points="690.65,-194.69 691.83,-184.16 684.34,-191.65 690.65,-194.69"/>
</a>
</g>
</g>
<!-- Node11 -->
<g id="Node000011" class="node">
<title>Node11</title>
<g id="a_Node000011"><a xlink:href="../../d7/de3/schema_8h.html" target="_top" xlink:title=" ">
<polygon fill="white" stroke="#666666" points="930.5,-239 827.5,-239 827.5,-220 930.5,-220 930.5,-239"/>
<text text-anchor="middle" x="879" y="-227" font-family="Helvetica,sans-Serif" font-size="10.00">catalog/schema.h</text>
</a>
</g>
</g>
<!-- Node9&#45;&gt;Node11 -->
<g id="edge11_Node000009_Node000011" class="edge">
<title>Node9&#45;&gt;Node11</title>
<g id="a_edge11_Node000009_Node000011"><a xlink:title=" ">
<path fill="none" stroke="#63b8ff" d="M681.76,-274.98C722.32,-265.84 786.89,-251.27 831.03,-241.32"/>
<polygon fill="#63b8ff" stroke="#63b8ff" points="831.96,-244.7 840.95,-239.08 830.42,-237.87 831.96,-244.7"/>
</a>
</g>
</g>
<!-- Node27 -->
<g id="Node000027" class="node">
<title>Node27</title>
<g id="a_Node000027"><a xlink:href="../../db/d16/config_8h.html" target="_top" xlink:title=" ">
<polygon fill="white" stroke="#666666" points="169.5,-129 68.5,-129 68.5,-110 169.5,-110 169.5,-129"/>
<text text-anchor="middle" x="119" y="-117" font-family="Helvetica,sans-Serif" font-size="10.00">common/config.h</text>
</a>
</g>
</g>
<!-- Node9&#45;&gt;Node27 -->
<g id="edge41_Node000009_Node000027" class="edge">
<title>Node9&#45;&gt;Node27</title>
<g id="a_edge41_Node000009_Node000027"><a xlink:title=" ">
<path fill="none" stroke="#63b8ff" d="M622.25,-274.91C569.17,-254.14 428.5,-200.32 308,-165 262.12,-151.55 209.07,-139.35 170.87,-131.13"/>
<polygon fill="#63b8ff" stroke="#63b8ff" points="171.51,-127.69 161,-129.03 170.05,-134.54 171.51,-127.69"/>
</a>
</g>
</g>
<!-- Node29 -->
<g id="Node000029" class="node">
<title>Node29</title>
<g id="a_Node000029"><a xlink:href="../../d8/d5f/rid_8h.html" target="_top" xlink:title=" ">
<polygon fill="white" stroke="#666666" points="520,-184 436,-184 436,-165 520,-165 520,-184"/>
<text text-anchor="middle" x="478" y="-172" font-family="Helvetica,sans-Serif" font-size="10.00">common/rid.h</text>
</a>
</g>
</g>
<!-- Node9&#45;&gt;Node29 -->
<g id="edge45_Node000009_Node000029" class="edge">
<title>Node9&#45;&gt;Node29</title>
<g id="a_edge45_Node000009_Node000029"><a xlink:title=" ">
<path fill="none" stroke="#63b8ff" d="M630.7,-274.84C602.16,-256.28 534.85,-212.49 499.91,-189.75"/>
<polygon fill="#63b8ff" stroke="#63b8ff" points="501.66,-186.72 491.37,-184.2 497.84,-192.58 501.66,-186.72"/>
</a>
</g>
</g>
<!-- Node9&#45;&gt;Node31 -->
<g id="edge50_Node000009_Node000031" class="edge">
<title>Node9&#45;&gt;Node31</title>
<g id="a_edge50_Node000009_Node000031"><a xlink:title=" ">
<path fill="none" stroke="#63b8ff" d="M638.52,-274.66C627.42,-256.77 602.13,-216 587.67,-192.69"/>
<polygon fill="#63b8ff" stroke="#63b8ff" points="590.62,-190.81 582.37,-184.16 584.67,-194.5 590.62,-190.81"/>
</a>
</g>
</g>
<!-- Node11&#45;&gt;Node6 -->
<g id="edge14_Node000011_Node000006" class="edge">
<title>Node11&#45;&gt;Node6</title>
<g id="a_edge14_Node000011_Node000006"><a xlink:title=" ">
<path fill="none" stroke="#63b8ff" d="M930.61,-228.35C1090.59,-226.28 1559.1,-207.39 1416,-55 1374.11,-10.39 942.54,-27.94 845.37,-18.48"/>
<polygon fill="#63b8ff" stroke="#63b8ff" points="845.59,-14.98 835.23,-17.18 844.71,-21.92 845.59,-14.98"/>
</a>
</g>
</g>
<!-- Node11&#45;&gt;Node10 -->
<g id="edge15_Node000011_Node000010" class="edge">
<title>Node11&#45;&gt;Node10</title>
<g id="a_edge15_Node000011_Node000010"><a xlink:title=" ">
<path fill="none" stroke="#63b8ff" d="M849.6,-219.98C816.82,-210.49 763.91,-195.17 729.54,-185.21"/>
<polygon fill="#63b8ff" stroke="#63b8ff" points="730.09,-181.73 719.51,-182.31 728.14,-188.45 730.09,-181.73"/>
</a>
</g>
</g>
<!-- Node12 -->
<g id="Node000012" class="node">
<title>Node12</title>
<g id="a_Node000012"><a xlink:title=" ">
<polygon fill="#e0e0e0" stroke="#999999" points="744,-74 686,-74 686,-55 744,-55 744,-74"/>
<text text-anchor="middle" x="715" y="-62" font-family="Helvetica,sans-Serif" font-size="10.00">memory</text>
</a>
</g>
</g>
<!-- Node11&#45;&gt;Node12 -->
<g id="edge12_Node000011_Node000012" class="edge">
<title>Node11&#45;&gt;Node12</title>
<g id="a_edge12_Node000011_Node000012"><a xlink:title=" ">
<path fill="none" stroke="#63b8ff" d="M856.27,-219.92C810.41,-202.1 709.6,-160.15 691,-129 682.17,-114.2 691.26,-95.59 700.68,-82.35"/>
<polygon fill="#63b8ff" stroke="#63b8ff" points="703.67,-84.2 707.04,-74.15 698.14,-79.91 703.67,-84.2"/>
</a>
</g>
</g>
<!-- Node13 -->
<g id="Node000013" class="node">
<title>Node13</title>
<g id="a_Node000013"><a xlink:title=" ">
<polygon fill="#e0e0e0" stroke="#999999" points="858,-184 802,-184 802,-165 858,-165 858,-184"/>
<text text-anchor="middle" x="830" y="-172" font-family="Helvetica,sans-Serif" font-size="10.00">optional</text>
</a>
</g>
</g>
<!-- Node11&#45;&gt;Node13 -->
<g id="edge13_Node000011_Node000013" class="edge">
<title>Node11&#45;&gt;Node13</title>
<g id="a_edge13_Node000011_Node000013"><a xlink:title=" ">
<path fill="none" stroke="#63b8ff" d="M870.91,-219.75C863.84,-212.11 853.41,-200.82 844.85,-191.56"/>
<polygon fill="#63b8ff" stroke="#63b8ff" points="847.3,-189.06 837.94,-184.09 842.16,-193.81 847.3,-189.06"/>
</a>
</g>
</g>
<!-- Node14 -->
<g id="Node000014" class="node">
<title>Node14</title>
<g id="a_Node000014"><a xlink:href="../../dc/df8/column_8h.html" target="_top" xlink:title=" ">
<polygon fill="white" stroke="#666666" points="977.5,-184 876.5,-184 876.5,-165 977.5,-165 977.5,-184"/>
<text text-anchor="middle" x="927" y="-172" font-family="Helvetica,sans-Serif" font-size="10.00">catalog/column.h</text>
</a>
</g>
</g>
<!-- Node11&#45;&gt;Node14 -->
<g id="edge16_Node000011_Node000014" class="edge">
<title>Node11&#45;&gt;Node14</title>
<g id="a_edge16_Node000011_Node000014"><a xlink:title=" ">
<path fill="none" stroke="#63b8ff" d="M886.93,-219.75C893.85,-212.11 904.07,-200.82 912.45,-191.56"/>
<polygon fill="#63b8ff" stroke="#63b8ff" points="915.1,-193.85 919.22,-184.09 909.91,-189.15 915.1,-193.85"/>
</a>
</g>
</g>
<!-- Node18 -->
<g id="Node000018" class="node">
<title>Node18</title>
<g id="a_Node000018"><a xlink:href="../../dd/d2d/exception_8h.html" target="_top" xlink:title=" ">
<polygon fill="white" stroke="#666666" points="1170.5,-129 1051.5,-129 1051.5,-110 1170.5,-110 1170.5,-129"/>
<text text-anchor="middle" x="1111" y="-117" font-family="Helvetica,sans-Serif" font-size="10.00">common/exception.h</text>
</a>
</g>
</g>
<!-- Node11&#45;&gt;Node18 -->
<g id="edge39_Node000011_Node000018" class="edge">
<title>Node11&#45;&gt;Node18</title>
<g id="a_edge39_Node000011_Node000018"><a xlink:title=" ">
<path fill="none" stroke="#63b8ff" d="M930.24,-219.95C962.25,-213.21 1003.59,-201.9 1037,-184 1059.95,-171.7 1082.04,-151.26 1096.01,-136.9"/>
<polygon fill="#63b8ff" stroke="#63b8ff" points="1098.92,-138.92 1103.25,-129.25 1093.83,-134.11 1098.92,-138.92"/>
</a>
</g>
</g>
<!-- Node23 -->
<g id="Node000023" class="node">
<title>Node23</title>
<g id="a_Node000023"><a xlink:href="../../df/def/type_8h.html" target="_top" xlink:title=" ">
<polygon fill="white" stroke="#666666" points="923,-74 851,-74 851,-55 923,-55 923,-74"/>
<text text-anchor="middle" x="887" y="-62" font-family="Helvetica,sans-Serif" font-size="10.00">type/type.h</text>
</a>
</g>
</g>
<!-- Node11&#45;&gt;Node23 -->
<g id="edge40_Node000011_Node000023" class="edge">
<title>Node11&#45;&gt;Node23</title>
<g id="a_edge40_Node000011_Node000023"><a xlink:title=" ">
<path fill="none" stroke="#63b8ff" d="M930.33,-219.98C951.25,-213.7 973.44,-202.83 986,-184 995.97,-169.06 992.88,-131.46 977,-110 965.82,-94.89 948.09,-84.61 931.31,-77.78"/>
<polygon fill="#63b8ff" stroke="#63b8ff" points="932.19,-74.37 921.6,-74.14 929.74,-80.93 932.19,-74.37"/>
</a>
</g>
</g>
<!-- Node14&#45;&gt;Node6 -->
<g id="edge19_Node000014_Node000006" class="edge">
<title>Node14&#45;&gt;Node6</title>
<g id="a_edge19_Node000014_Node000006"><a xlink:title=" ">
<path fill="none" stroke="#63b8ff" d="M929.07,-164.79C931.66,-151.64 934.48,-126.5 923,-110 900.5,-77.66 870,-101.71 842,-74 829.49,-61.62 821.85,-42.86 817.57,-28.94"/>
<polygon fill="#63b8ff" stroke="#63b8ff" points="820.87,-27.73 814.83,-19.02 814.12,-29.59 820.87,-27.73"/>
</a>
</g>
</g>
<!-- Node14&#45;&gt;Node12 -->
<g id="edge18_Node000014_Node000012" class="edge">
<title>Node14&#45;&gt;Node12</title>
<g id="a_edge18_Node000014_Node000012"><a xlink:title=" ">
<path fill="none" stroke="#63b8ff" d="M918.91,-164.9C905.83,-151.43 878.67,-125.34 851,-110 820.33,-93 782.13,-81.22 754.03,-74.07"/>
<polygon fill="#63b8ff" stroke="#63b8ff" points="754.72,-70.63 744.17,-71.64 753.04,-77.43 754.72,-70.63"/>
</a>
</g>
</g>
<!-- Node15 -->
<g id="Node000015" class="node">
<title>Node15</title>
<g id="a_Node000015"><a xlink:title=" ">
<polygon fill="#e0e0e0" stroke="#999999" points="239,-19 189,-19 189,0 239,0 239,-19"/>
<text text-anchor="middle" x="214" y="-7" font-family="Helvetica,sans-Serif" font-size="10.00">cstdint</text>
</a>
</g>
</g>
<!-- Node14&#45;&gt;Node15 -->
<g id="edge17_Node000014_Node000015" class="edge">
<title>Node14&#45;&gt;Node15</title>
<g id="a_edge17_Node000014_Node000015"><a xlink:title=" ">
<path fill="none" stroke="#63b8ff" d="M922.48,-164.99C915.03,-151.66 898.97,-125.74 879,-110 831.01,-72.17 812.25,-69.94 753,-55 657.04,-30.81 353.67,-16.28 249.52,-11.91"/>
<polygon fill="#63b8ff" stroke="#63b8ff" points="249.36,-8.4 239.22,-11.48 249.07,-15.39 249.36,-8.4"/>
</a>
</g>
</g>
<!-- Node16 -->
<g id="Node000016" class="node">
<title>Node16</title>
<g id="a_Node000016"><a xlink:title=" ">
<polygon fill="#e0e0e0" stroke="#999999" points="745.5,-129 700.5,-129 700.5,-110 745.5,-110 745.5,-129"/>
<text text-anchor="middle" x="723" y="-117" font-family="Helvetica,sans-Serif" font-size="10.00">utility</text>
</a>
</g>
</g>
<!-- Node14&#45;&gt;Node16 -->
<g id="edge20_Node000014_Node000016" class="edge">
<title>Node14&#45;&gt;Node16</title>
<g id="a_edge20_Node000014_Node000016"><a xlink:title=" ">
<path fill="none" stroke="#63b8ff" d="M893.15,-164.96C860.29,-156.63 808.74,-143.48 755.61,-129.4"/>
<polygon fill="#63b8ff" stroke="#63b8ff" points="756.24,-125.95 745.68,-126.76 754.44,-132.71 756.24,-125.95"/>
</a>
</g>
</g>
<!-- Node17 -->
<g id="Node000017" class="node">
<title>Node17</title>
<g id="a_Node000017"><a xlink:title=" ">
<polygon fill="#e0e0e0" stroke="#999999" points="842.5,-129 763.5,-129 763.5,-110 842.5,-110 842.5,-129"/>
<text text-anchor="middle" x="803" y="-117" font-family="Helvetica,sans-Serif" font-size="10.00">fmt/format.h</text>
</a>
</g>
</g>
<!-- Node14&#45;&gt;Node17 -->
<g id="edge21_Node000014_Node000017" class="edge">
<title>Node14&#45;&gt;Node17</title>
<g id="a_edge21_Node000014_Node000017"><a xlink:title=" ">
<path fill="none" stroke="#63b8ff" d="M907.08,-164.98C886.95,-156.38 855.62,-142.99 832.59,-133.15"/>
<polygon fill="#63b8ff" stroke="#63b8ff" points="833.86,-129.88 823.29,-129.17 831.1,-136.32 833.86,-129.88"/>
</a>
</g>
</g>
<!-- Node14&#45;&gt;Node18 -->
<g id="edge22_Node000014_Node000018" class="edge">
<title>Node14&#45;&gt;Node18</title>
<g id="a_edge22_Node000014_Node000018"><a xlink:title=" ">
<path fill="none" stroke="#63b8ff" d="M956.56,-164.98C987.72,-156.01 1036.97,-141.82 1071.46,-131.89"/>
<polygon fill="#63b8ff" stroke="#63b8ff" points="1072.57,-135.21 1081.21,-129.08 1070.63,-128.49 1072.57,-135.21"/>
</a>
</g>
</g>
<!-- Node14&#45;&gt;Node23 -->
<g id="edge38_Node000014_Node000023" class="edge">
<title>Node14&#45;&gt;Node23</title>
<g id="a_edge38_Node000014_Node000023"><a xlink:title=" ">
<path fill="none" stroke="#63b8ff" d="M937.6,-164.8C951.24,-152.51 971.96,-129.38 961,-110 952.83,-95.55 937.88,-85.27 923.54,-78.26"/>
<polygon fill="#63b8ff" stroke="#63b8ff" points="924.85,-75.01 914.29,-74.12 921.99,-81.4 924.85,-75.01"/>
</a>
</g>
</g>
<!-- Node25 -->
<g id="Node000025" class="node">
<title>Node25</title>
<g id="a_Node000025"><a xlink:href="../../de/d3c/macros_8h.html" target="_top" xlink:title=" ">
<polygon fill="white" stroke="#666666" points="1352.5,-129 1245.5,-129 1245.5,-110 1352.5,-110 1352.5,-129"/>
<text text-anchor="middle" x="1299" y="-117" font-family="Helvetica,sans-Serif" font-size="10.00">common/macros.h</text>
</a>
</g>
</g>
<!-- Node14&#45;&gt;Node25 -->
<g id="edge34_Node000014_Node000025" class="edge">
<title>Node14&#45;&gt;Node25</title>
<g id="a_edge34_Node000014_Node000025"><a xlink:title=" ">
<path fill="none" stroke="#63b8ff" d="M977.56,-166.3C1044.44,-156.77 1162.35,-139.97 1235.26,-129.58"/>
<polygon fill="#63b8ff" stroke="#63b8ff" points="1235.83,-133.04 1245.24,-128.16 1234.84,-126.11 1235.83,-133.04"/>
</a>
</g>
</g>
<!-- Node18&#45;&gt;Node5 -->
<g id="edge25_Node000018_Node000005" class="edge">
<title>Node18&#45;&gt;Node5</title>
<g id="a_edge25_Node000018_Node000005"><a xlink:title=" ">
<path fill="none" stroke="#63b8ff" d="M1116.78,-109.75C1121.62,-102.42 1128.68,-91.73 1134.64,-82.7"/>
<polygon fill="#63b8ff" stroke="#63b8ff" points="1137.74,-84.36 1140.33,-74.09 1131.9,-80.5 1137.74,-84.36"/>
</a>
</g>
</g>
<!-- Node18&#45;&gt;Node6 -->
<g id="edge29_Node000018_Node000006" class="edge">
<title>Node18&#45;&gt;Node6</title>
<g id="a_edge29_Node000018_Node000006"><a xlink:title=" ">
<path fill="none" stroke="#63b8ff" d="M1108.61,-109.86C1104.25,-95.84 1093.6,-68.39 1074,-55 991.23,1.53 947.92,-38.06 845.39,-18.97"/>
<polygon fill="#63b8ff" stroke="#63b8ff" points="845.77,-15.47 835.28,-16.93 844.39,-22.34 845.77,-15.47"/>
</a>
</g>
</g>
<!-- Node18&#45;&gt;Node12 -->
<g id="edge27_Node000018_Node000012" class="edge">
<title>Node18&#45;&gt;Node12</title>
<g id="a_edge27_Node000018_Node000012"><a xlink:title=" ">
<path fill="none" stroke="#63b8ff" d="M1051.29,-110.51C969.28,-99.53 824.08,-80.1 754.42,-70.78"/>
<polygon fill="#63b8ff" stroke="#63b8ff" points="754.69,-67.28 744.31,-69.42 753.76,-74.22 754.69,-67.28"/>
</a>
</g>
</g>
<!-- Node19 -->
<g id="Node000019" class="node">
<title>Node19</title>
<g id="a_Node000019"><a xlink:title=" ">
<polygon fill="#e0e0e0" stroke="#999999" points="598,-74 548,-74 548,-55 598,-55 598,-74"/>
<text text-anchor="middle" x="573" y="-62" font-family="Helvetica,sans-Serif" font-size="10.00">atomic</text>
</a>
</g>
</g>
<!-- Node18&#45;&gt;Node19 -->
<g id="edge23_Node000018_Node000019" class="edge">
<title>Node18&#45;&gt;Node19</title>
<g id="a_edge23_Node000018_Node000019"><a xlink:title=" ">
<path fill="none" stroke="#63b8ff" d="M1051.37,-112.63C938.87,-101.54 698.5,-77.86 608.23,-68.97"/>
<polygon fill="#63b8ff" stroke="#63b8ff" points="608.53,-65.48 598.23,-67.99 607.84,-72.45 608.53,-65.48"/>
</a>
</g>
</g>
<!-- Node20 -->
<g id="Node000020" class="node">
<title>Node20</title>
<g id="a_Node000020"><a xlink:title=" ">
<polygon fill="#e0e0e0" stroke="#999999" points="987,-74 941,-74 941,-55 987,-55 987,-74"/>
<text text-anchor="middle" x="964" y="-62" font-family="Helvetica,sans-Serif" font-size="10.00">cstdio</text>
</a>
</g>
</g>
<!-- Node18&#45;&gt;Node20 -->
<g id="edge24_Node000018_Node000020" class="edge">
<title>Node18&#45;&gt;Node20</title>
<g id="a_edge24_Node000018_Node000020"><a xlink:title=" ">
<path fill="none" stroke="#63b8ff" d="M1087.38,-109.98C1062.81,-101.12 1024.14,-87.18 996.65,-77.27"/>
<polygon fill="#63b8ff" stroke="#63b8ff" points="997.67,-73.92 987.07,-73.82 995.29,-80.5 997.67,-73.92"/>
</a>
</g>
</g>
<!-- Node21 -->
<g id="Node000021" class="node">
<title>Node21</title>
<g id="a_Node000021"><a xlink:title=" ">
<polygon fill="#e0e0e0" stroke="#999999" points="1065,-74 1005,-74 1005,-55 1065,-55 1065,-74"/>
<text text-anchor="middle" x="1035" y="-62" font-family="Helvetica,sans-Serif" font-size="10.00">iostream</text>
</a>
</g>
</g>
<!-- Node18&#45;&gt;Node21 -->
<g id="edge26_Node000018_Node000021" class="edge">
<title>Node18&#45;&gt;Node21</title>
<g id="a_edge26_Node000018_Node000021"><a xlink:title=" ">
<path fill="none" stroke="#63b8ff" d="M1098.79,-109.98C1087.22,-101.92 1069.62,-89.65 1055.84,-80.03"/>
<polygon fill="#63b8ff" stroke="#63b8ff" points="1057.64,-77.02 1047.43,-74.17 1053.63,-82.76 1057.64,-77.02"/>
</a>
</g>
</g>
<!-- Node22 -->
<g id="Node000022" class="node">
<title>Node22</title>
<g id="a_Node000022"><a xlink:title=" ">
<polygon fill="#e0e0e0" stroke="#999999" points="1253.5,-74 1188.5,-74 1188.5,-55 1253.5,-55 1253.5,-74"/>
<text text-anchor="middle" x="1221" y="-62" font-family="Helvetica,sans-Serif" font-size="10.00">stdexcept</text>
</a>
</g>
</g>
<!-- Node18&#45;&gt;Node22 -->
<g id="edge28_Node000018_Node000022" class="edge">
<title>Node18&#45;&gt;Node22</title>
<g id="a_edge28_Node000018_Node000022"><a xlink:title=" ">
<path fill="none" stroke="#63b8ff" d="M1128.67,-109.98C1146.29,-101.5 1173.58,-88.35 1193.93,-78.54"/>
<polygon fill="#63b8ff" stroke="#63b8ff" points="1195.52,-81.66 1203.01,-74.17 1192.48,-75.36 1195.52,-81.66"/>
</a>
</g>
</g>
<!-- Node18&#45;&gt;Node23 -->
<g id="edge30_Node000018_Node000023" class="edge">
<title>Node18&#45;&gt;Node23</title>
<g id="a_edge30_Node000018_Node000023"><a xlink:title=" ">
<path fill="none" stroke="#63b8ff" d="M1075.01,-109.98C1036.51,-100.87 975.31,-86.4 933.26,-76.45"/>
<polygon fill="#63b8ff" stroke="#63b8ff" points="933.81,-72.98 923.27,-74.08 932.2,-79.79 933.81,-72.98"/>
</a>
</g>
</g>
<!-- Node23&#45;&gt;Node6 -->
<g id="edge32_Node000023_Node000006" class="edge">
<title>Node23&#45;&gt;Node6</title>
<g id="a_edge32_Node000023_Node000006"><a xlink:title=" ">
<path fill="none" stroke="#63b8ff" d="M875.11,-54.98C863.85,-46.92 846.71,-34.65 833.29,-25.03"/>
<polygon fill="#63b8ff" stroke="#63b8ff" points="835.27,-22.15 825.11,-19.17 831.2,-27.84 835.27,-22.15"/>
</a>
</g>
</g>
<!-- Node23&#45;&gt;Node15 -->
<g id="edge31_Node000023_Node000015" class="edge">
<title>Node23&#45;&gt;Node15</title>
<g id="a_edge31_Node000023_Node000015"><a xlink:title=" ">
<path fill="none" stroke="#63b8ff" d="M850.62,-59.82C834.77,-58.26 815.97,-56.47 799,-55 590.59,-37.01 340.08,-19.25 249.14,-12.92"/>
<polygon fill="#63b8ff" stroke="#63b8ff" points="249.32,-9.43 239.1,-12.23 248.84,-16.41 249.32,-9.43"/>
</a>
</g>
</g>
<!-- Node24 -->
<g id="Node000024" class="node">
<title>Node24</title>
<g id="a_Node000024"><a xlink:href="../../dc/df2/type__id_8h.html" target="_top" xlink:title=" ">
<polygon fill="white" stroke="#666666" points="939,-19 853,-19 853,0 939,0 939,-19"/>
<text text-anchor="middle" x="896" y="-7" font-family="Helvetica,sans-Serif" font-size="10.00">type/type_id.h</text>
</a>
</g>
</g>
<!-- Node23&#45;&gt;Node24 -->
<g id="edge33_Node000023_Node000024" class="edge">
<title>Node23&#45;&gt;Node24</title>
<g id="a_edge33_Node000023_Node000024"><a xlink:title=" ">
<path fill="none" stroke="#63b8ff" d="M888.49,-54.75C889.67,-47.8 891.36,-37.85 892.84,-29.13"/>
<polygon fill="#63b8ff" stroke="#63b8ff" points="896.32,-29.53 894.54,-19.09 889.42,-28.36 896.32,-29.53"/>
</a>
</g>
</g>
<!-- Node25&#45;&gt;Node3 -->
<g id="edge35_Node000025_Node000003" class="edge">
<title>Node25&#45;&gt;Node3</title>
<g id="a_edge35_Node000025_Node000003"><a xlink:title=" ">
<path fill="none" stroke="#63b8ff" d="M1312.17,-109.98C1324.77,-101.84 1344,-89.41 1358.94,-79.76"/>
<polygon fill="#63b8ff" stroke="#63b8ff" points="1361.09,-82.54 1367.59,-74.17 1357.29,-76.66 1361.09,-82.54"/>
</a>
</g>
</g>
<!-- Node25&#45;&gt;Node22 -->
<g id="edge37_Node000025_Node000022" class="edge">
<title>Node25&#45;&gt;Node22</title>
<g id="a_edge37_Node000025_Node000022"><a xlink:title=" ">
<path fill="none" stroke="#63b8ff" d="M1286.47,-109.98C1274.6,-101.92 1256.54,-89.65 1242.39,-80.03"/>
<polygon fill="#63b8ff" stroke="#63b8ff" points="1244,-76.9 1233.76,-74.17 1240.06,-82.69 1244,-76.9"/>
</a>
</g>
</g>
<!-- Node26 -->
<g id="Node000026" class="node">
<title>Node26</title>
<g id="a_Node000026"><a xlink:title=" ">
<polygon fill="#e0e0e0" stroke="#999999" points="1336.5,-74 1271.5,-74 1271.5,-55 1336.5,-55 1336.5,-74"/>
<text text-anchor="middle" x="1304" y="-62" font-family="Helvetica,sans-Serif" font-size="10.00">exception</text>
</a>
</g>
</g>
<!-- Node25&#45;&gt;Node26 -->
<g id="edge36_Node000025_Node000026" class="edge">
<title>Node25&#45;&gt;Node26</title>
<g id="a_edge36_Node000025_Node000026"><a xlink:title=" ">
<path fill="none" stroke="#63b8ff" d="M1299.83,-109.75C1300.48,-102.8 1301.42,-92.85 1302.24,-84.13"/>
<polygon fill="#63b8ff" stroke="#63b8ff" points="1305.73,-84.37 1303.19,-74.09 1298.77,-83.72 1305.73,-84.37"/>
</a>
</g>
</g>
<!-- Node27&#45;&gt;Node15 -->
<g id="edge44_Node000027_Node000015" class="edge">
<title>Node27&#45;&gt;Node15</title>
<g id="a_edge44_Node000027_Node000015"><a xlink:title=" ">
<path fill="none" stroke="#63b8ff" d="M109.29,-109.77C96.32,-97.04 76.35,-72.93 89,-55 109.11,-26.5 149.15,-16.15 178.52,-12.44"/>
<polygon fill="#63b8ff" stroke="#63b8ff" points="179.22,-15.89 188.8,-11.36 178.49,-8.93 179.22,-15.89"/>
</a>
</g>
</g>
<!-- Node27&#45;&gt;Node19 -->
<g id="edge42_Node000027_Node000019" class="edge">
<title>Node27&#45;&gt;Node19</title>
<g id="a_edge42_Node000027_Node000019"><a xlink:title=" ">
<path fill="none" stroke="#63b8ff" d="M169.76,-112.57C262.65,-101.73 457.8,-78.95 537.73,-69.62"/>
<polygon fill="#63b8ff" stroke="#63b8ff" points="538.25,-73.08 547.78,-68.44 537.44,-66.13 538.25,-73.08"/>
</a>
</g>
</g>
<!-- Node28 -->
<g id="Node000028" class="node">
<title>Node28</title>
<g id="a_Node000028"><a xlink:title=" ">
<polygon fill="#e0e0e0" stroke="#999999" points="148,-74 98,-74 98,-55 148,-55 148,-74"/>
<text text-anchor="middle" x="123" y="-62" font-family="Helvetica,sans-Serif" font-size="10.00">chrono</text>
</a>
</g>
</g>
<!-- Node27&#45;&gt;Node28 -->
<g id="edge43_Node000027_Node000028" class="edge">
<title>Node27&#45;&gt;Node28</title>
<g id="a_edge43_Node000027_Node000028"><a xlink:title=" ">
<path fill="none" stroke="#63b8ff" d="M119.66,-109.75C120.18,-102.8 120.94,-92.85 121.59,-84.13"/>
<polygon fill="#63b8ff" stroke="#63b8ff" points="125.09,-84.32 122.35,-74.09 118.11,-83.8 125.09,-84.32"/>
</a>
</g>
</g>
<!-- Node29&#45;&gt;Node6 -->
<g id="edge48_Node000029_Node000006" class="edge">
<title>Node29&#45;&gt;Node6</title>
<g id="a_edge48_Node000029_Node000006"><a xlink:title=" ">
<path fill="none" stroke="#63b8ff" d="M478.75,-164.95C481.19,-142.81 490.95,-83.35 527,-55 565.91,-24.39 714.34,-14.54 780.66,-11.62"/>
<polygon fill="#63b8ff" stroke="#63b8ff" points="781.09,-15.11 790.94,-11.2 780.8,-8.11 781.09,-15.11"/>
</a>
</g>
</g>
<!-- Node29&#45;&gt;Node15 -->
<g id="edge46_Node000029_Node000015" class="edge">
<title>Node29&#45;&gt;Node15</title>
<g id="a_edge46_Node000029_Node000015"><a xlink:title=" ">
<path fill="none" stroke="#63b8ff" d="M435.9,-167.02C362.99,-155.7 220.58,-133.13 217,-129 192.95,-101.23 200.98,-54.57 208.05,-28.87"/>
<polygon fill="#63b8ff" stroke="#63b8ff" points="211.41,-29.84 210.92,-19.25 204.7,-27.83 211.41,-29.84"/>
</a>
</g>
</g>
<!-- Node29&#45;&gt;Node27 -->
<g id="edge49_Node000029_Node000027" class="edge">
<title>Node29&#45;&gt;Node27</title>
<g id="a_edge49_Node000029_Node000027"><a xlink:title=" ">
<path fill="none" stroke="#63b8ff" d="M435.81,-167.07C431.15,-166.37 426.47,-165.67 422,-165 338.11,-152.47 241.12,-138.28 179.93,-129.36"/>
<polygon fill="#63b8ff" stroke="#63b8ff" points="180.07,-125.84 169.67,-127.87 179.06,-132.77 180.07,-125.84"/>
</a>
</g>
</g>
<!-- Node30 -->
<g id="Node000030" class="node">
<title>Node30</title>
<g id="a_Node000030"><a xlink:title=" ">
<polygon fill="#e0e0e0" stroke="#999999" points="454,-129 398,-129 398,-110 454,-110 454,-129"/>
<text text-anchor="middle" x="426" y="-117" font-family="Helvetica,sans-Serif" font-size="10.00">sstream</text>
</a>
</g>
</g>
<!-- Node29&#45;&gt;Node30 -->
<g id="edge47_Node000029_Node000030" class="edge">
<title>Node29&#45;&gt;Node30</title>
<g id="a_edge47_Node000029_Node000030"><a xlink:title=" ">
<path fill="none" stroke="#63b8ff" d="M469.41,-164.75C461.84,-157.03 450.62,-145.6 441.49,-136.28"/>
<polygon fill="#63b8ff" stroke="#63b8ff" points="443.93,-133.78 434.43,-129.09 438.93,-138.68 443.93,-133.78"/>
</a>
</g>
</g>
<!-- Node31&#45;&gt;Node6 -->
<g id="edge53_Node000031_Node000006" class="edge">
<title>Node31&#45;&gt;Node6</title>
<g id="a_edge53_Node000031_Node000006"><a xlink:title=" ">
<path fill="none" stroke="#63b8ff" d="M569.4,-164.97C551.53,-143.89 510.44,-88.57 539,-55 569.69,-18.92 714.78,-12.01 780.51,-10.75"/>
<polygon fill="#63b8ff" stroke="#63b8ff" points="780.77,-14.24 790.71,-10.59 780.66,-7.25 780.77,-14.24"/>
</a>
</g>
</g>
<!-- Node31&#45;&gt;Node8 -->
<g id="edge51_Node000031_Node000008" class="edge">
<title>Node31&#45;&gt;Node8</title>
<g id="a_edge51_Node000031_Node000008"><a xlink:title=" ">
<path fill="none" stroke="#63b8ff" d="M538.28,-166.3C535.14,-165.83 532.02,-165.38 529,-165 324.4,-139.11 267.57,-161.79 60.15,-128.9"/>
<polygon fill="#63b8ff" stroke="#63b8ff" points="60.58,-125.42 50.15,-127.29 59.47,-132.34 60.58,-125.42"/>
</a>
</g>
</g>
<!-- Node31&#45;&gt;Node12 -->
<g id="edge52_Node000031_Node000012" class="edge">
<title>Node31&#45;&gt;Node12</title>
<g id="a_edge52_Node000031_Node000012"><a xlink:title=" ">
<path fill="none" stroke="#63b8ff" d="M581.08,-164.59C587.61,-151.19 601.57,-125.74 620,-110 636.75,-95.7 658.87,-84.98 677.55,-77.65"/>
<polygon fill="#63b8ff" stroke="#63b8ff" points="678.83,-80.91 686.96,-74.12 676.37,-74.35 678.83,-80.91"/>
</a>
</g>
</g>
<!-- Node31&#45;&gt;Node16 -->
<g id="edge54_Node000031_Node000016" class="edge">
<title>Node31&#45;&gt;Node16</title>
<g id="a_edge54_Node000031_Node000016"><a xlink:title=" ">
<path fill="none" stroke="#63b8ff" d="M600.46,-164.98C624.87,-156.12 663.27,-142.18 690.57,-132.27"/>
<polygon fill="#63b8ff" stroke="#63b8ff" points="691.88,-135.52 700.08,-128.82 689.49,-128.94 691.88,-135.52"/>
</a>
</g>
</g>
<!-- Node31&#45;&gt;Node17 -->
<g id="edge55_Node000031_Node000017" class="edge">
<title>Node31&#45;&gt;Node17</title>
<g id="a_edge55_Node000031_Node000017"><a xlink:title=" ">
<path fill="none" stroke="#63b8ff" d="M613.31,-164.98C652.24,-155.86 714.16,-141.33 756.6,-131.38"/>
<polygon fill="#63b8ff" stroke="#63b8ff" points="757.47,-134.77 766.4,-129.08 755.87,-127.96 757.47,-134.77"/>
</a>
</g>
</g>
<!-- Node31&#45;&gt;Node23 -->
<g id="edge61_Node000031_Node000023" class="edge">
<title>Node31&#45;&gt;Node23</title>
<g id="a_edge61_Node000031_Node000023"><a xlink:title=" ">
<path fill="none" stroke="#63b8ff" d="M589.74,-164.79C610.21,-151.19 652.07,-124.91 691,-110 740.46,-91.06 800.17,-78.93 840.59,-72.2"/>
<polygon fill="#63b8ff" stroke="#63b8ff" points="841.38,-75.62 850.69,-70.57 840.26,-68.71 841.38,-75.62"/>
</a>
</g>
</g>
<!-- Node32 -->
<g id="Node000032" class="node">
<title>Node32</title>
<g id="a_Node000032"><a xlink:href="../../d9/d86/limits_8h.html" target="_top" xlink:title=" ">
<polygon fill="white" stroke="#666666" points="304,-129 226,-129 226,-110 304,-110 304,-129"/>
<text text-anchor="middle" x="265" y="-117" font-family="Helvetica,sans-Serif" font-size="10.00">type/limits.h</text>
</a>
</g>
</g>
<!-- Node31&#45;&gt;Node32 -->
<g id="edge56_Node000031_Node000032" class="edge">
<title>Node31&#45;&gt;Node32</title>
<g id="a_edge56_Node000031_Node000032"><a xlink:title=" ">
<path fill="none" stroke="#63b8ff" d="M538.49,-166.65C535.28,-166.09 532.09,-165.53 529,-165 454.29,-152.09 367.6,-137.56 314.53,-128.72"/>
<polygon fill="#63b8ff" stroke="#63b8ff" points="314.82,-125.22 304.38,-127.03 313.67,-132.13 314.82,-125.22"/>
</a>
</g>
</g>
<!-- Node32&#45;&gt;Node4 -->
<g id="edge58_Node000032_Node000004" class="edge">
<title>Node32&#45;&gt;Node4</title>
<g id="a_edge58_Node000032_Node000004"><a xlink:title=" ">
<path fill="none" stroke="#63b8ff" d="M285.24,-109.98C305.7,-101.38 337.53,-87.99 360.93,-78.15"/>
<polygon fill="#63b8ff" stroke="#63b8ff" points="362.53,-81.27 370.39,-74.17 359.81,-74.82 362.53,-81.27"/>
</a>
</g>
</g>
<!-- Node32&#45;&gt;Node15 -->
<g id="edge59_Node000032_Node000015" class="edge">
<title>Node32&#45;&gt;Node15</title>
<g id="a_edge59_Node000032_Node000015"><a xlink:title=" ">
<path fill="none" stroke="#63b8ff" d="M257.44,-109.86C250.27,-101.28 239.64,-87.49 233,-74 225.93,-59.62 220.93,-42.1 217.84,-29.11"/>
<polygon fill="#63b8ff" stroke="#63b8ff" points="221.19,-28.06 215.61,-19.05 214.36,-29.57 221.19,-28.06"/>
</a>
</g>
</g>
<!-- Node33 -->
<g id="Node000033" class="node">
<title>Node33</title>
<g id="a_Node000033"><a xlink:title=" ">
<polygon fill="#e0e0e0" stroke="#999999" points="286,-74 242,-74 242,-55 286,-55 286,-74"/>
<text text-anchor="middle" x="264" y="-62" font-family="Helvetica,sans-Serif" font-size="10.00">cfloat</text>
</a>
</g>
</g>
<!-- Node32&#45;&gt;Node33 -->
<g id="edge57_Node000032_Node000033" class="edge">
<title>Node32&#45;&gt;Node33</title>
<g id="a_edge57_Node000032_Node000033"><a xlink:title=" ">
<path fill="none" stroke="#63b8ff" d="M264.83,-109.75C264.7,-102.8 264.52,-92.85 264.35,-84.13"/>
<polygon fill="#63b8ff" stroke="#63b8ff" points="267.85,-84.02 264.16,-74.09 260.85,-84.15 267.85,-84.02"/>
</a>
</g>
</g>
<!-- Node34 -->
<g id="Node000034" class="node">
<title>Node34</title>
<g id="a_Node000034"><a xlink:title=" ">
<polygon fill="#e0e0e0" stroke="#999999" points="348,-74 304,-74 304,-55 348,-55 348,-74"/>
<text text-anchor="middle" x="326" y="-62" font-family="Helvetica,sans-Serif" font-size="10.00">limits</text>
</a>
</g>
</g>
<!-- Node32&#45;&gt;Node34 -->
<g id="edge60_Node000032_Node000034" class="edge">
<title>Node32&#45;&gt;Node34</title>
<g id="a_edge60_Node000032_Node000034"><a xlink:title=" ">
<path fill="none" stroke="#63b8ff" d="M274.8,-109.98C283.82,-102.15 297.41,-90.34 308.32,-80.86"/>
<polygon fill="#63b8ff" stroke="#63b8ff" points="310.77,-83.37 316.02,-74.17 306.18,-78.09 310.77,-83.37"/>
</a>
</g>
</g>
<!-- Node38&#45;&gt;Node6 -->
<g id="edge68_Node000038_Node000006" class="edge">
<title>Node38&#45;&gt;Node6</title>
<g id="a_edge68_Node000038_Node000006"><a xlink:title=" ">
<path fill="none" stroke="#63b8ff" d="M1473,-401.25C1473,-380.92 1473,-328.95 1473,-285.5 1473,-285.5 1473,-285.5 1473,-118.5 1473,-86.27 1465.24,-72.22 1438,-55 1384.24,-21.01 944.65,-29.09 845.37,-18.53"/>
<polygon fill="#63b8ff" stroke="#63b8ff" points="845.6,-15.03 835.23,-17.19 844.68,-21.97 845.6,-15.03"/>
</a>
</g>
</g>
<!-- Node39 -->
<g id="Node000039" class="node">
<title>Node39</title>
<g id="a_Node000039"><a xlink:title=" ">
<polygon fill="#e0e0e0" stroke="#999999" points="1545,-354.5 1501,-354.5 1501,-335.5 1545,-335.5 1545,-354.5"/>
<text text-anchor="middle" x="1523" y="-342.5" font-family="Helvetica,sans-Serif" font-size="10.00">ctime</text>
</a>
</g>
</g>
<!-- Node38&#45;&gt;Node39 -->
<g id="edge67_Node000038_Node000039" class="edge">
<title>Node38&#45;&gt;Node39</title>
<g id="a_edge67_Node000038_Node000039"><a xlink:title=" ">
<path fill="none" stroke="#63b8ff" d="M1479.74,-401.37C1487.38,-391.59 1500.01,-375.42 1509.66,-363.08"/>
<polygon fill="#63b8ff" stroke="#63b8ff" points="1512.64,-364.94 1516.04,-354.91 1507.13,-360.63 1512.64,-364.94"/>
</a>
</g>
</g>
</g>
</svg>
