<?xml version="1.0" encoding="UTF-8" standalone="no"?>
<!DOCTYPE svg PUBLIC "-//W3C//DTD SVG 1.1//EN"
 "http://www.w3.org/Graphics/SVG/1.1/DTD/svg11.dtd">
<!-- Generated by graphviz version 2.43.0 (0)
 -->
<!-- Title: src/include/binder/table_ref/bound_join_ref.h Pages: 1 -->
<svg width="410pt" height="214pt"
 viewBox="0.00 0.00 409.50 214.00" xmlns="http://www.w3.org/2000/svg" xmlns:xlink="http://www.w3.org/1999/xlink">
<g id="graph0" class="graph" transform="scale(1 1) rotate(0) translate(4 210)">
<title>src/include/binder/table_ref/bound_join_ref.h</title>
<!-- Node1 -->
<g id="Node000001" class="node">
<title>Node1</title>
<g id="a_Node000001"><a xlink:title=" ">
<polygon fill="#999999" stroke="#666666" points="244,-206 98,-206 98,-176 244,-176 244,-206"/>
<text text-anchor="start" x="106" y="-194" font-family="Helvetica,sans-Serif" font-size="10.00">src/include/binder</text>
<text text-anchor="middle" x="171" y="-183" font-family="Helvetica,sans-Serif" font-size="10.00">/table_ref/bound_join_ref.h</text>
</a>
</g>
</g>
<!-- Node2 -->
<g id="Node000002" class="node">
<title>Node2</title>
<g id="a_Node000002"><a xlink:title=" ">
<polygon fill="#e0e0e0" stroke="#999999" points="58,-74 0,-74 0,-55 58,-55 58,-74"/>
<text text-anchor="middle" x="29" y="-62" font-family="Helvetica,sans-Serif" font-size="10.00">memory</text>
</a>
</g>
</g>
<!-- Node1&#45;&gt;Node2 -->
<g id="edge1_Node000001_Node000002" class="edge">
<title>Node1&#45;&gt;Node2</title>
<g id="a_edge1_Node000001_Node000002"><a xlink:title=" ">
<path fill="none" stroke="#63b8ff" d="M97.62,-186.88C64.06,-181.31 27.13,-168.49 6,-140 -6.67,-122.91 4.88,-98.73 15.69,-82.6"/>
<polygon fill="#63b8ff" stroke="#63b8ff" points="18.78,-84.31 21.78,-74.15 13.1,-80.22 18.78,-84.31"/>
</a>
</g>
</g>
<!-- Node3 -->
<g id="Node000003" class="node">
<title>Node3</title>
<g id="a_Node000003"><a xlink:title=" ">
<polygon fill="#e0e0e0" stroke="#999999" points="120,-74 76,-74 76,-55 120,-55 120,-74"/>
<text text-anchor="middle" x="98" y="-62" font-family="Helvetica,sans-Serif" font-size="10.00">string</text>
</a>
</g>
</g>
<!-- Node1&#45;&gt;Node3 -->
<g id="edge2_Node000001_Node000003" class="edge">
<title>Node1&#45;&gt;Node3</title>
<g id="a_edge2_Node000001_Node000003"><a xlink:title=" ">
<path fill="none" stroke="#63b8ff" d="M97.89,-185.09C67.13,-178.97 34.11,-166.19 15,-140 7.14,-129.23 8.15,-121.44 15,-110 20.97,-100.02 45.92,-87.4 66.93,-78.15"/>
<polygon fill="#63b8ff" stroke="#63b8ff" points="68.41,-81.32 76.21,-74.15 65.64,-74.89 68.41,-81.32"/>
</a>
</g>
</g>
<!-- Node4 -->
<g id="Node000004" class="node">
<title>Node4</title>
<g id="a_Node000004"><a xlink:title=" ">
<polygon fill="#e0e0e0" stroke="#999999" points="401.5,-134.5 356.5,-134.5 356.5,-115.5 401.5,-115.5 401.5,-134.5"/>
<text text-anchor="middle" x="379" y="-122.5" font-family="Helvetica,sans-Serif" font-size="10.00">utility</text>
</a>
</g>
</g>
<!-- Node1&#45;&gt;Node4 -->
<g id="edge3_Node000001_Node000004" class="edge">
<title>Node1&#45;&gt;Node4</title>
<g id="a_edge3_Node000001_Node000004"><a xlink:title=" ">
<path fill="none" stroke="#63b8ff" d="M222.96,-175.93C257.02,-166.44 302.4,-153.26 342,-140 343.86,-139.38 345.76,-138.72 347.67,-138.05"/>
<polygon fill="#63b8ff" stroke="#63b8ff" points="348.99,-141.29 357.19,-134.57 346.59,-134.71 348.99,-141.29"/>
</a>
</g>
</g>
<!-- Node5 -->
<g id="Node000005" class="node">
<title>Node5</title>
<g id="a_Node000005"><a xlink:href="../../dc/d8b/bound__expression_8h.html" target="_top" xlink:title=" ">
<polygon fill="white" stroke="#666666" points="172,-134.5 24,-134.5 24,-115.5 172,-115.5 172,-134.5"/>
<text text-anchor="middle" x="98" y="-122.5" font-family="Helvetica,sans-Serif" font-size="10.00">binder/bound_expression.h</text>
</a>
</g>
</g>
<!-- Node1&#45;&gt;Node5 -->
<g id="edge4_Node000001_Node000005" class="edge">
<title>Node1&#45;&gt;Node5</title>
<g id="a_edge4_Node000001_Node000005"><a xlink:title=" ">
<path fill="none" stroke="#63b8ff" d="M154.8,-175.8C143.2,-165.62 127.58,-151.93 115.66,-141.48"/>
<polygon fill="#63b8ff" stroke="#63b8ff" points="117.91,-138.8 108.09,-134.84 113.3,-144.07 117.91,-138.8"/>
</a>
</g>
</g>
<!-- Node10 -->
<g id="Node000010" class="node">
<title>Node10</title>
<g id="a_Node000010"><a xlink:title=" ">
<polygon fill="#e0e0e0" stroke="#999999" points="342.5,-74 263.5,-74 263.5,-55 342.5,-55 342.5,-74"/>
<text text-anchor="middle" x="303" y="-62" font-family="Helvetica,sans-Serif" font-size="10.00">fmt/format.h</text>
</a>
</g>
</g>
<!-- Node1&#45;&gt;Node10 -->
<g id="edge17_Node000001_Node000010" class="edge">
<title>Node1&#45;&gt;Node10</title>
<g id="a_edge17_Node000001_Node000010"><a xlink:title=" ">
<path fill="none" stroke="#63b8ff" d="M244.17,-180.69C268.89,-173.66 294,-161.38 309,-140 320.49,-123.62 315.96,-99.94 310.54,-83.7"/>
<polygon fill="#63b8ff" stroke="#63b8ff" points="313.79,-82.39 307.01,-74.25 307.23,-84.84 313.79,-82.39"/>
</a>
</g>
</g>
<!-- Node11 -->
<g id="Node000011" class="node">
<title>Node11</title>
<g id="a_Node000011"><a xlink:href="../../d4/d36/bound__table__ref_8h.html" target="_top" xlink:title=" ">
<polygon fill="white" stroke="#666666" points="300,-140 190,-140 190,-110 300,-110 300,-140"/>
<text text-anchor="start" x="198" y="-128" font-family="Helvetica,sans-Serif" font-size="10.00">binder/bound_table</text>
<text text-anchor="middle" x="245" y="-117" font-family="Helvetica,sans-Serif" font-size="10.00">_ref.h</text>
</a>
</g>
</g>
<!-- Node1&#45;&gt;Node11 -->
<g id="edge12_Node000001_Node000011" class="edge">
<title>Node1&#45;&gt;Node11</title>
<g id="a_edge12_Node000001_Node000011"><a xlink:title=" ">
<path fill="none" stroke="#63b8ff" d="M187.42,-175.8C197.29,-167.26 210.02,-156.25 221,-146.75"/>
<polygon fill="#63b8ff" stroke="#63b8ff" points="223.35,-149.35 228.62,-140.16 218.77,-144.06 223.35,-149.35"/>
</a>
</g>
</g>
<!-- Node5&#45;&gt;Node2 -->
<g id="edge5_Node000005_Node000002" class="edge">
<title>Node5&#45;&gt;Node2</title>
<g id="a_edge5_Node000005_Node000002"><a xlink:title=" ">
<path fill="none" stroke="#63b8ff" d="M87.82,-115.37C77.12,-106.3 60.06,-91.84 47.07,-80.82"/>
<polygon fill="#63b8ff" stroke="#63b8ff" points="49.11,-77.96 39.22,-74.17 44.59,-83.3 49.11,-77.96"/>
</a>
</g>
</g>
<!-- Node5&#45;&gt;Node3 -->
<g id="edge6_Node000005_Node000003" class="edge">
<title>Node5&#45;&gt;Node3</title>
<g id="a_edge6_Node000005_Node000003"><a xlink:title=" ">
<path fill="none" stroke="#63b8ff" d="M98,-115.37C98,-107.25 98,-94.81 98,-84.39"/>
<polygon fill="#63b8ff" stroke="#63b8ff" points="101.5,-84.17 98,-74.17 94.5,-84.17 101.5,-84.17"/>
</a>
</g>
</g>
<!-- Node6 -->
<g id="Node000006" class="node">
<title>Node6</title>
<g id="a_Node000006"><a xlink:href="../../de/d3c/macros_8h.html" target="_top" xlink:title=" ">
<polygon fill="white" stroke="#666666" points="245.5,-74 138.5,-74 138.5,-55 245.5,-55 245.5,-74"/>
<text text-anchor="middle" x="192" y="-62" font-family="Helvetica,sans-Serif" font-size="10.00">common/macros.h</text>
</a>
</g>
</g>
<!-- Node5&#45;&gt;Node6 -->
<g id="edge7_Node000005_Node000006" class="edge">
<title>Node5&#45;&gt;Node6</title>
<g id="a_edge7_Node000005_Node000006"><a xlink:title=" ">
<path fill="none" stroke="#63b8ff" d="M111.87,-115.37C127,-105.95 151.46,-90.73 169.38,-79.58"/>
<polygon fill="#63b8ff" stroke="#63b8ff" points="171.43,-82.42 178.07,-74.17 167.73,-76.48 171.43,-82.42"/>
</a>
</g>
</g>
<!-- Node5&#45;&gt;Node10 -->
<g id="edge11_Node000005_Node000010" class="edge">
<title>Node5&#45;&gt;Node10</title>
<g id="a_edge11_Node000005_Node000010"><a xlink:title=" ">
<path fill="none" stroke="#63b8ff" d="M127.81,-115.49C163.56,-105.29 223.63,-88.15 263.29,-76.83"/>
<polygon fill="#63b8ff" stroke="#63b8ff" points="264.5,-80.13 273.16,-74.02 262.58,-73.4 264.5,-80.13"/>
</a>
</g>
</g>
<!-- Node7 -->
<g id="Node000007" class="node">
<title>Node7</title>
<g id="a_Node000007"><a xlink:title=" ">
<polygon fill="#e0e0e0" stroke="#999999" points="141,-19 89,-19 89,0 141,0 141,-19"/>
<text text-anchor="middle" x="115" y="-7" font-family="Helvetica,sans-Serif" font-size="10.00">cassert</text>
</a>
</g>
</g>
<!-- Node6&#45;&gt;Node7 -->
<g id="edge8_Node000006_Node000007" class="edge">
<title>Node6&#45;&gt;Node7</title>
<g id="a_edge8_Node000006_Node000007"><a xlink:title=" ">
<path fill="none" stroke="#63b8ff" d="M179.63,-54.98C167.91,-46.92 150.08,-34.65 136.11,-25.03"/>
<polygon fill="#63b8ff" stroke="#63b8ff" points="137.82,-21.96 127.6,-19.17 133.85,-27.72 137.82,-21.96"/>
</a>
</g>
</g>
<!-- Node8 -->
<g id="Node000008" class="node">
<title>Node8</title>
<g id="a_Node000008"><a xlink:title=" ">
<polygon fill="#e0e0e0" stroke="#999999" points="224.5,-19 159.5,-19 159.5,0 224.5,0 224.5,-19"/>
<text text-anchor="middle" x="192" y="-7" font-family="Helvetica,sans-Serif" font-size="10.00">exception</text>
</a>
</g>
</g>
<!-- Node6&#45;&gt;Node8 -->
<g id="edge9_Node000006_Node000008" class="edge">
<title>Node6&#45;&gt;Node8</title>
<g id="a_edge9_Node000006_Node000008"><a xlink:title=" ">
<path fill="none" stroke="#63b8ff" d="M192,-54.75C192,-47.8 192,-37.85 192,-29.13"/>
<polygon fill="#63b8ff" stroke="#63b8ff" points="195.5,-29.09 192,-19.09 188.5,-29.09 195.5,-29.09"/>
</a>
</g>
</g>
<!-- Node9 -->
<g id="Node000009" class="node">
<title>Node9</title>
<g id="a_Node000009"><a xlink:title=" ">
<polygon fill="#e0e0e0" stroke="#999999" points="307.5,-19 242.5,-19 242.5,0 307.5,0 307.5,-19"/>
<text text-anchor="middle" x="275" y="-7" font-family="Helvetica,sans-Serif" font-size="10.00">stdexcept</text>
</a>
</g>
</g>
<!-- Node6&#45;&gt;Node9 -->
<g id="edge10_Node000006_Node000009" class="edge">
<title>Node6&#45;&gt;Node9</title>
<g id="a_edge10_Node000006_Node000009"><a xlink:title=" ">
<path fill="none" stroke="#63b8ff" d="M205.34,-54.98C218.09,-46.84 237.55,-34.41 252.67,-24.76"/>
<polygon fill="#63b8ff" stroke="#63b8ff" points="254.88,-27.5 261.42,-19.17 251.11,-21.6 254.88,-27.5"/>
</a>
</g>
</g>
<!-- Node11&#45;&gt;Node2 -->
<g id="edge13_Node000011_Node000002" class="edge">
<title>Node11&#45;&gt;Node2</title>
<g id="a_edge13_Node000011_Node000002"><a xlink:title=" ">
<path fill="none" stroke="#63b8ff" d="M193.26,-109.99C154.75,-99.56 103.01,-85.54 67.96,-76.05"/>
<polygon fill="#63b8ff" stroke="#63b8ff" points="68.66,-72.62 58.1,-73.38 66.83,-79.37 68.66,-72.62"/>
</a>
</g>
</g>
<!-- Node11&#45;&gt;Node3 -->
<g id="edge14_Node000011_Node000003" class="edge">
<title>Node11&#45;&gt;Node3</title>
<g id="a_edge14_Node000011_Node000003"><a xlink:title=" ">
<path fill="none" stroke="#63b8ff" d="M209.79,-109.99C185.26,-100.23 152.85,-87.33 129.24,-77.93"/>
<polygon fill="#63b8ff" stroke="#63b8ff" points="130.29,-74.58 119.71,-74.14 127.71,-81.09 130.29,-74.58"/>
</a>
</g>
</g>
<!-- Node11&#45;&gt;Node6 -->
<g id="edge16_Node000011_Node000006" class="edge">
<title>Node11&#45;&gt;Node6</title>
<g id="a_edge16_Node000011_Node000006"><a xlink:title=" ">
<path fill="none" stroke="#63b8ff" d="M232.17,-109.84C224.48,-101.35 214.67,-90.52 206.67,-81.69"/>
<polygon fill="#63b8ff" stroke="#63b8ff" points="209.25,-79.33 199.94,-74.27 204.06,-84.03 209.25,-79.33"/>
</a>
</g>
</g>
<!-- Node11&#45;&gt;Node10 -->
<g id="edge15_Node000011_Node000010" class="edge">
<title>Node11&#45;&gt;Node10</title>
<g id="a_edge15_Node000011_Node000010"><a xlink:title=" ">
<path fill="none" stroke="#63b8ff" d="M259.04,-109.84C267.55,-101.26 278.41,-90.3 287.22,-81.42"/>
<polygon fill="#63b8ff" stroke="#63b8ff" points="289.75,-83.83 294.31,-74.27 284.78,-78.9 289.75,-83.83"/>
</a>
</g>
</g>
</g>
</svg>
