<?xml version="1.0" encoding="UTF-8" standalone="no"?>
<!DOCTYPE svg PUBLIC "-//W3C//DTD SVG 1.1//EN"
 "http://www.w3.org/Graphics/SVG/1.1/DTD/svg11.dtd">
<!-- Generated by graphviz version 2.43.0 (0)
 -->
<!-- Title: src/include/common/rid.h Pages: 1 -->
<svg width="266pt" height="148pt"
 viewBox="0.00 0.00 266.11 148.00" xmlns="http://www.w3.org/2000/svg" xmlns:xlink="http://www.w3.org/1999/xlink">

<svg id="main" version="1.1" xmlns="http://www.w3.org/2000/svg" xmlns:xlink="http://www.w3.org/1999/xlink" xml:space="preserve" onload="init(evt)">
<style type="text/css"><![CDATA[
.node, .edge {opacity: 0.7;}
.node.selected, .edge.selected {opacity: 1;}
.edge:hover path { stroke: red; }
.edge:hover polygon { stroke: red; fill: red; }
]]></style>
<script type="application/ecmascript" xlink:href="../../svg.min.js"/>
<svg id="graph" class="graph">
<g id="graph0" class="graph" transform="scale(1 1) rotate(0) translate(4 144)">
<title>src/include/common/rid.h</title>
<!-- Node1 -->
<g id="Node000001" class="node">
<title>Node1</title>
<g id="a_Node000001"><a xlink:title=" ">
<polygon fill="#999999" stroke="#666666" points="131.61,-140 16.61,-140 16.61,-110 131.61,-110 131.61,-140"/>
<text text-anchor="start" x="24.61" y="-128" font-family="Helvetica,sans-Serif" font-size="10.00">src/include/common</text>
<text text-anchor="middle" x="74.11" y="-117" font-family="Helvetica,sans-Serif" font-size="10.00">/rid.h</text>
</a>
</g>
</g>
<!-- Node2 -->
<g id="Node000002" class="node">
<title>Node2</title>
<g id="a_Node000002"><a xlink:title=" ">
<polygon fill="#e0e0e0" stroke="#999999" points="83.11,-19 33.11,-19 33.11,0 83.11,0 83.11,-19"/>
<text text-anchor="middle" x="58.11" y="-7" font-family="Helvetica,sans-Serif" font-size="10.00">cstdint</text>
</a>
</g>
</g>
<!-- Node1&#45;&gt;Node2 -->
<g id="edge1_Node000001_Node000002" class="edge">
<title>Node1&#45;&gt;Node2</title>
<g id="a_edge1_Node000001_Node000002"><a xlink:title=" ">
<path fill="none" stroke="#63b8ff" d="M41.61,-109.84C27.03,-101.65 11.31,-89.79 3.11,-74 -6.92,-54.67 13.47,-36.28 32.21,-24.31"/>
<polygon fill="#63b8ff" stroke="#63b8ff" points="34.07,-27.28 40.85,-19.13 30.48,-21.27 34.07,-27.28"/>
</a>
</g>
</g>
<!-- Node3 -->
<g id="Node000003" class="node">
<title>Node3</title>
<g id="a_Node000003"><a xlink:title=" ">
<polygon fill="#e0e0e0" stroke="#999999" points="68.11,-74 12.11,-74 12.11,-55 68.11,-55 68.11,-74"/>
<text text-anchor="middle" x="40.11" y="-62" font-family="Helvetica,sans-Serif" font-size="10.00">sstream</text>
</a>
</g>
</g>
<!-- Node1&#45;&gt;Node3 -->
<g id="edge2_Node000001_Node000003" class="edge">
<title>Node1&#45;&gt;Node3</title>
<g id="a_edge2_Node000001_Node000003"><a xlink:title=" ">
<path fill="none" stroke="#63b8ff" d="M65.88,-109.84C61.2,-101.78 55.29,-91.62 50.32,-83.06"/>
<polygon fill="#63b8ff" stroke="#63b8ff" points="53.26,-81.15 45.21,-74.27 47.21,-84.67 53.26,-81.15"/>
</a>
</g>
</g>
<!-- Node4 -->
<g id="Node000004" class="node">
<title>Node4</title>
<g id="a_Node000004"><a xlink:title=" ">
<polygon fill="#e0e0e0" stroke="#999999" points="130.11,-74 86.11,-74 86.11,-55 130.11,-55 130.11,-74"/>
<text text-anchor="middle" x="108.11" y="-62" font-family="Helvetica,sans-Serif" font-size="10.00">string</text>
</a>
</g>
</g>
<!-- Node1&#45;&gt;Node4 -->
<g id="edge3_Node000001_Node000004" class="edge">
<title>Node1&#45;&gt;Node4</title>
<g id="a_edge3_Node000001_Node000004"><a xlink:title=" ">
<path fill="none" stroke="#63b8ff" d="M82.34,-109.84C87.03,-101.78 92.93,-91.62 97.91,-83.06"/>
<polygon fill="#63b8ff" stroke="#63b8ff" points="101.02,-84.67 103.02,-74.27 94.97,-81.15 101.02,-84.67"/>
</a>
</g>
</g>
<!-- Node5 -->
<g id="Node000005" class="node">
<title>Node5</title>
<g id="a_Node000005"><a xlink:href="../../db/d16/config_8h.html" target="_top" xlink:title=" ">
<polygon fill="white" stroke="#666666" points="249.61,-74 148.61,-74 148.61,-55 249.61,-55 249.61,-74"/>
<text text-anchor="middle" x="199.11" y="-62" font-family="Helvetica,sans-Serif" font-size="10.00">common/config.h</text>
</a>
</g>
</g>
<!-- Node1&#45;&gt;Node5 -->
<g id="edge4_Node000001_Node000005" class="edge">
<title>Node1&#45;&gt;Node5</title>
<g id="a_edge4_Node000001_Node000005"><a xlink:title=" ">
<path fill="none" stroke="#63b8ff" d="M104.05,-109.99C124.54,-100.4 151.49,-87.79 171.47,-78.44"/>
<polygon fill="#63b8ff" stroke="#63b8ff" points="173.08,-81.55 180.65,-74.14 170.11,-75.21 173.08,-81.55"/>
</a>
</g>
</g>
<!-- Node5&#45;&gt;Node2 -->
<g id="edge7_Node000005_Node000002" class="edge">
<title>Node5&#45;&gt;Node2</title>
<g id="a_edge7_Node000005_Node000002"><a xlink:title=" ">
<path fill="none" stroke="#63b8ff" d="M176.46,-54.98C153.27,-46.27 116.99,-32.63 90.71,-22.75"/>
<polygon fill="#63b8ff" stroke="#63b8ff" points="91.77,-19.41 81.18,-19.17 89.31,-25.97 91.77,-19.41"/>
</a>
</g>
</g>
<!-- Node6 -->
<g id="Node000006" class="node">
<title>Node6</title>
<g id="a_Node000006"><a xlink:title=" ">
<polygon fill="#e0e0e0" stroke="#999999" points="190.11,-19 140.11,-19 140.11,0 190.11,0 190.11,-19"/>
<text text-anchor="middle" x="165.11" y="-7" font-family="Helvetica,sans-Serif" font-size="10.00">atomic</text>
</a>
</g>
</g>
<!-- Node5&#45;&gt;Node6 -->
<g id="edge5_Node000005_Node000006" class="edge">
<title>Node5&#45;&gt;Node6</title>
<g id="a_edge5_Node000005_Node000006"><a xlink:title=" ">
<path fill="none" stroke="#63b8ff" d="M193.5,-54.75C188.8,-47.42 181.94,-36.73 176.15,-27.7"/>
<polygon fill="#63b8ff" stroke="#63b8ff" points="178.97,-25.62 170.62,-19.09 173.08,-29.4 178.97,-25.62"/>
</a>
</g>
</g>
<!-- Node7 -->
<g id="Node000007" class="node">
<title>Node7</title>
<g id="a_Node000007"><a xlink:title=" ">
<polygon fill="#e0e0e0" stroke="#999999" points="258.11,-19 208.11,-19 208.11,0 258.11,0 258.11,-19"/>
<text text-anchor="middle" x="233.11" y="-7" font-family="Helvetica,sans-Serif" font-size="10.00">chrono</text>
</a>
</g>
</g>
<!-- Node5&#45;&gt;Node7 -->
<g id="edge6_Node000005_Node000007" class="edge">
<title>Node5&#45;&gt;Node7</title>
<g id="a_edge6_Node000005_Node000007"><a xlink:title=" ">
<path fill="none" stroke="#63b8ff" d="M204.73,-54.75C209.43,-47.42 216.29,-36.73 222.08,-27.7"/>
<polygon fill="#63b8ff" stroke="#63b8ff" points="225.15,-29.4 227.6,-19.09 219.26,-25.62 225.15,-29.4"/>
</a>
</g>
</g>
</g>
</svg>
</svg>

<style type='text/css'>
<![CDATA[
[data-mouse-over-selected='false'] { opacity: 0.7; }
[data-mouse-over-selected='true']  { opacity: 1.0; }
]]>
</style>
<script type="application/ecmascript"><![CDATA[
document.addEventListener('DOMContentLoaded', (event) => {
  highlightEdges();
  highlightAdjacentNodes();
});
]]></script>
</svg>
