<?xml version="1.0" encoding="UTF-8" standalone="no"?>
<!DOCTYPE svg PUBLIC "-//W3C//DTD SVG 1.1//EN"
 "http://www.w3.org/Graphics/SVG/1.1/DTD/svg11.dtd">
<!-- Generated by graphviz version 2.43.0 (0)
 -->
<!-- Title: bustub::ExtendibleHashTableIndex&lt; KeyType, ValueType, KeyComparator &gt; Pages: 1 -->
<svg width="1079pt" height="92pt"
 viewBox="0.00 0.00 1079.00 92.00" xmlns="http://www.w3.org/2000/svg" xmlns:xlink="http://www.w3.org/1999/xlink">
<g id="graph0" class="graph" transform="scale(1 1) rotate(0) translate(4 88)">
<title>bustub::ExtendibleHashTableIndex&lt; KeyType, ValueType, KeyComparator &gt;</title>
<!-- Node1 -->
<g id="Node000001" class="node">
<title>Node1</title>
<g id="a_Node000001"><a xlink:title=" ">
<polygon fill="#999999" stroke="#666666" points="1071,-71 913,-71 913,-30 1071,-30 1071,-71"/>
<text text-anchor="start" x="921" y="-59" font-family="Helvetica,sans-Serif" font-size="10.00">bustub::ExtendibleHashTable</text>
<text text-anchor="start" x="921" y="-48" font-family="Helvetica,sans-Serif" font-size="10.00">Index&lt; KeyType, ValueType,</text>
<text text-anchor="middle" x="992" y="-37" font-family="Helvetica,sans-Serif" font-size="10.00"> KeyComparator &gt;</text>
</a>
</g>
</g>
<!-- Node2 -->
<g id="Node000002" class="node">
<title>Node2</title>
<g id="a_Node000002"><a xlink:href="../../d5/def/classbustub_1_1Index.html" target="_top" xlink:title=" ">
<polygon fill="white" stroke="#666666" points="786.5,-84 703.5,-84 703.5,-65 786.5,-65 786.5,-84"/>
<text text-anchor="middle" x="745" y="-72" font-family="Helvetica,sans-Serif" font-size="10.00">bustub::Index</text>
</a>
</g>
</g>
<!-- Node2&#45;&gt;Node1 -->
<g id="edge1_Node000001_Node000002" class="edge">
<title>Node2&#45;&gt;Node1</title>
<g id="a_edge1_Node000001_Node000002"><a xlink:title=" ">
<path fill="none" stroke="#63b8ff" d="M796.77,-69.53C830.33,-66.24 874.97,-61.87 913,-58.14"/>
<polygon fill="#63b8ff" stroke="#63b8ff" points="796.34,-66.05 786.73,-70.51 797.03,-73.02 796.34,-66.05"/>
</a>
</g>
</g>
<!-- Node3 -->
<g id="Node000003" class="node">
<title>Node3</title>
<g id="a_Node000003"><a xlink:href="../../de/de8/classbustub_1_1DiskExtendibleHashTable.html" target="_top" xlink:title=" ">
<polygon fill="white" stroke="#666666" points="822,-47 668,-47 668,-6 822,-6 822,-47"/>
<text text-anchor="start" x="676" y="-35" font-family="Helvetica,sans-Serif" font-size="10.00">bustub::DiskExtendibleHash</text>
<text text-anchor="start" x="676" y="-24" font-family="Helvetica,sans-Serif" font-size="10.00">Table&lt; KeyType, ValueType,</text>
<text text-anchor="middle" x="745" y="-13" font-family="Helvetica,sans-Serif" font-size="10.00"> KeyComparator &gt;</text>
</a>
</g>
</g>
<!-- Node3&#45;&gt;Node1 -->
<g id="edge2_Node000001_Node000003" class="edge">
<title>Node3&#45;&gt;Node1</title>
<g id="a_edge2_Node000001_Node000003"><a xlink:title=" ">
<path fill="none" stroke="#9a32cd" stroke-dasharray="5,2" d="M832.45,-34.97C858.61,-37.53 887.17,-40.33 912.76,-42.84"/>
<polygon fill="#9a32cd" stroke="#9a32cd" points="832.47,-31.45 822.18,-33.96 831.79,-38.42 832.47,-31.45"/>
</a>
</g>
<text text-anchor="middle" x="867.5" y="-44.5" font-family="Helvetica,sans-Serif" font-size="10.00" fill="grey"> container_</text>
</g>
<!-- Node4 -->
<g id="Node000004" class="node">
<title>Node4</title>
<g id="a_Node000004"><a xlink:href="../../d6/d5d/classbustub_1_1BufferPoolManager.html" target="_top" xlink:title=" ">
<polygon fill="white" stroke="#666666" points="601,-36 452,-36 452,-17 601,-17 601,-36"/>
<text text-anchor="middle" x="526.5" y="-24" font-family="Helvetica,sans-Serif" font-size="10.00">bustub::BufferPoolManager</text>
</a>
</g>
</g>
<!-- Node4&#45;&gt;Node3 -->
<g id="edge3_Node000003_Node000004" class="edge">
<title>Node4&#45;&gt;Node3</title>
<g id="a_edge3_Node000003_Node000004"><a xlink:title=" ">
<path fill="none" stroke="#9a32cd" stroke-dasharray="5,2" d="M611.29,-26.5C629.84,-26.5 649.41,-26.5 667.65,-26.5"/>
<polygon fill="#9a32cd" stroke="#9a32cd" points="611.1,-23 601.1,-26.5 611.1,-30 611.1,-23"/>
</a>
</g>
<text text-anchor="middle" x="634.5" y="-29.5" font-family="Helvetica,sans-Serif" font-size="10.00" fill="grey"> bpm_</text>
</g>
<!-- Node5 -->
<g id="Node000005" class="node">
<title>Node5</title>
<g id="a_Node000005"><a xlink:href="../../d4/d87/classbustub_1_1Page.html" target="_top" xlink:title=" ">
<polygon fill="white" stroke="#666666" points="324.5,-56 245.5,-56 245.5,-37 324.5,-37 324.5,-56"/>
<text text-anchor="middle" x="285" y="-44" font-family="Helvetica,sans-Serif" font-size="10.00">bustub::Page</text>
</a>
</g>
</g>
<!-- Node5&#45;&gt;Node4 -->
<g id="edge4_Node000004_Node000005" class="edge">
<title>Node5&#45;&gt;Node4</title>
<g id="a_edge4_Node000004_Node000005"><a xlink:title=" ">
<path fill="none" stroke="#9a32cd" stroke-dasharray="5,2" d="M334.77,-42.43C368.33,-39.62 413.54,-35.85 451.52,-32.68"/>
<polygon fill="#9a32cd" stroke="#9a32cd" points="334.42,-38.94 324.75,-43.26 335,-45.92 334.42,-38.94"/>
</a>
</g>
<text text-anchor="middle" x="397.5" y="-43.5" font-family="Helvetica,sans-Serif" font-size="10.00" fill="grey"> pages_</text>
</g>
<!-- Node6 -->
<g id="Node000006" class="node">
<title>Node6</title>
<g id="a_Node000006"><a xlink:href="../../d8/dbd/classbustub_1_1ReaderWriterLatch.html" target="_top" xlink:title=" ">
<polygon fill="white" stroke="#666666" points="146,-56 0,-56 0,-37 146,-37 146,-56"/>
<text text-anchor="middle" x="73" y="-44" font-family="Helvetica,sans-Serif" font-size="10.00">bustub::ReaderWriterLatch</text>
</a>
</g>
</g>
<!-- Node6&#45;&gt;Node5 -->
<g id="edge5_Node000005_Node000006" class="edge">
<title>Node6&#45;&gt;Node5</title>
<g id="a_edge5_Node000005_Node000006"><a xlink:title=" ">
<path fill="none" stroke="#9a32cd" stroke-dasharray="5,2" d="M156.53,-46.5C187.12,-46.5 220.38,-46.5 245.25,-46.5"/>
<polygon fill="#9a32cd" stroke="#9a32cd" points="156.27,-43 146.27,-46.5 156.27,-50 156.27,-43"/>
</a>
</g>
<text text-anchor="middle" x="186.5" y="-49.5" font-family="Helvetica,sans-Serif" font-size="10.00" fill="grey"> rwlatch_</text>
</g>
<!-- Node7 -->
<g id="Node000007" class="node">
<title>Node7</title>
<g id="a_Node000007"><a xlink:href="../../d7/d4e/classbustub_1_1LogManager.html" target="_top" xlink:title=" ">
<polygon fill="white" stroke="#666666" points="343,-19 227,-19 227,0 343,0 343,-19"/>
<text text-anchor="middle" x="285" y="-7" font-family="Helvetica,sans-Serif" font-size="10.00">bustub::LogManager</text>
</a>
</g>
</g>
<!-- Node7&#45;&gt;Node4 -->
<g id="edge6_Node000004_Node000007" class="edge">
<title>Node7&#45;&gt;Node4</title>
<g id="a_edge6_Node000004_Node000007"><a xlink:title=" ">
<path fill="none" stroke="#9a32cd" stroke-dasharray="5,2" d="M353.28,-8.3C378.62,-8.4 407.68,-9.18 434,-11.5 447.63,-12.7 462.3,-14.76 475.81,-16.97"/>
<polygon fill="#9a32cd" stroke="#9a32cd" points="353.03,-4.8 343.03,-8.29 353.03,-11.8 353.03,-4.8"/>
</a>
</g>
<text text-anchor="middle" x="397.5" y="-14.5" font-family="Helvetica,sans-Serif" font-size="10.00" fill="grey"> log_manager_</text>
</g>
</g>
</svg>
