<?xml version="1.0" encoding="UTF-8" standalone="no"?>
<!DOCTYPE svg PUBLIC "-//W3C//DTD SVG 1.1//EN"
 "http://www.w3.org/Graphics/SVG/1.1/DTD/svg11.dtd">
<!-- Generated by graphviz version 2.43.0 (0)
 -->
<!-- Title: src/include/type/boolean_type.h Pages: 1 -->
<svg width="995pt" height="203pt"
 viewBox="0.00 0.00 994.69 203.00" xmlns="http://www.w3.org/2000/svg" xmlns:xlink="http://www.w3.org/1999/xlink">
<g id="graph0" class="graph" transform="scale(1 1) rotate(0) translate(4 199)">
<title>src/include/type/boolean_type.h</title>
<!-- Node1 -->
<g id="Node000001" class="node">
<title>Node1</title>
<g id="a_Node000001"><a xlink:title=" ">
<polygon fill="#999999" stroke="#666666" points="472.69,-195 336.69,-195 336.69,-165 472.69,-165 472.69,-195"/>
<text text-anchor="start" x="344.69" y="-183" font-family="Helvetica,sans-Serif" font-size="10.00">src/include/type/boolean</text>
<text text-anchor="middle" x="404.69" y="-172" font-family="Helvetica,sans-Serif" font-size="10.00">_type.h</text>
</a>
</g>
</g>
<!-- Node2 -->
<g id="Node000002" class="node">
<title>Node2</title>
<g id="a_Node000002"><a xlink:title=" ">
<polygon fill="#e0e0e0" stroke="#999999" points="421.69,-19 377.69,-19 377.69,0 421.69,0 421.69,-19"/>
<text text-anchor="middle" x="399.69" y="-7" font-family="Helvetica,sans-Serif" font-size="10.00">string</text>
</a>
</g>
</g>
<!-- Node1&#45;&gt;Node2 -->
<g id="edge1_Node000001_Node000002" class="edge">
<title>Node1&#45;&gt;Node2</title>
<g id="a_edge1_Node000001_Node000002"><a xlink:title=" ">
<path fill="none" stroke="#63b8ff" d="M336.67,-178.76C203.02,-176.06 -73.2,-158.25 18.69,-55 41.75,-29.09 279.56,-15.88 367.35,-11.86"/>
<polygon fill="#63b8ff" stroke="#63b8ff" points="367.7,-15.35 377.53,-11.4 367.39,-8.36 367.7,-15.35"/>
</a>
</g>
</g>
<!-- Node3 -->
<g id="Node000003" class="node">
<title>Node3</title>
<g id="a_Node000003"><a xlink:href="../../dd/d2d/exception_8h.html" target="_top" xlink:title=" ">
<polygon fill="white" stroke="#666666" points="406.19,-129 287.19,-129 287.19,-110 406.19,-110 406.19,-129"/>
<text text-anchor="middle" x="346.69" y="-117" font-family="Helvetica,sans-Serif" font-size="10.00">common/exception.h</text>
</a>
</g>
</g>
<!-- Node1&#45;&gt;Node3 -->
<g id="edge2_Node000001_Node000003" class="edge">
<title>Node1&#45;&gt;Node3</title>
<g id="a_edge2_Node000001_Node000003"><a xlink:title=" ">
<path fill="none" stroke="#63b8ff" d="M390.65,-164.84C382.15,-156.26 371.28,-145.3 362.48,-136.42"/>
<polygon fill="#63b8ff" stroke="#63b8ff" points="364.91,-133.9 355.38,-129.27 359.94,-138.83 364.91,-133.9"/>
</a>
</g>
</g>
<!-- Node10 -->
<g id="Node000010" class="node">
<title>Node10</title>
<g id="a_Node000010"><a xlink:href="../../df/def/type_8h.html" target="_top" xlink:title=" ">
<polygon fill="white" stroke="#666666" points="499.69,-74 427.69,-74 427.69,-55 499.69,-55 499.69,-74"/>
<text text-anchor="middle" x="463.69" y="-62" font-family="Helvetica,sans-Serif" font-size="10.00">type/type.h</text>
</a>
</g>
</g>
<!-- Node1&#45;&gt;Node10 -->
<g id="edge14_Node000001_Node000010" class="edge">
<title>Node1&#45;&gt;Node10</title>
<g id="a_edge14_Node000001_Node000010"><a xlink:title=" ">
<path fill="none" stroke="#63b8ff" d="M412.16,-164.63C422.92,-143.93 442.75,-105.78 454.43,-83.32"/>
<polygon fill="#63b8ff" stroke="#63b8ff" points="457.65,-84.72 459.15,-74.23 451.44,-81.49 457.65,-84.72"/>
</a>
</g>
</g>
<!-- Node13 -->
<g id="Node000013" class="node">
<title>Node13</title>
<g id="a_Node000013"><a xlink:href="../../d4/d3f/value_8h.html" target="_top" xlink:title=" ">
<polygon fill="white" stroke="#666666" points="668.19,-129 591.19,-129 591.19,-110 668.19,-110 668.19,-129"/>
<text text-anchor="middle" x="629.69" y="-117" font-family="Helvetica,sans-Serif" font-size="10.00">type/value.h</text>
</a>
</g>
</g>
<!-- Node1&#45;&gt;Node13 -->
<g id="edge15_Node000001_Node000013" class="edge">
<title>Node1&#45;&gt;Node13</title>
<g id="a_edge15_Node000001_Node000013"><a xlink:title=" ">
<path fill="none" stroke="#63b8ff" d="M458.59,-164.99C497.92,-154.76 550.52,-141.09 586.97,-131.61"/>
<polygon fill="#63b8ff" stroke="#63b8ff" points="588,-134.96 596.79,-129.05 586.24,-128.18 588,-134.96"/>
</a>
</g>
</g>
<!-- Node3&#45;&gt;Node2 -->
<g id="edge9_Node000003_Node000002" class="edge">
<title>Node3&#45;&gt;Node2</title>
<g id="a_edge9_Node000003_Node000002"><a xlink:title=" ">
<path fill="none" stroke="#63b8ff" d="M354.46,-109.88C361.84,-101.32 372.79,-87.54 379.69,-74 387,-59.67 392.28,-42.14 395.57,-29.14"/>
<polygon fill="#63b8ff" stroke="#63b8ff" points="399.05,-29.6 397.95,-19.07 392.24,-27.99 399.05,-29.6"/>
</a>
</g>
</g>
<!-- Node4 -->
<g id="Node000004" class="node">
<title>Node4</title>
<g id="a_Node000004"><a xlink:title=" ">
<polygon fill="#e0e0e0" stroke="#999999" points="239.69,-74 189.69,-74 189.69,-55 239.69,-55 239.69,-74"/>
<text text-anchor="middle" x="214.69" y="-62" font-family="Helvetica,sans-Serif" font-size="10.00">atomic</text>
</a>
</g>
</g>
<!-- Node3&#45;&gt;Node4 -->
<g id="edge3_Node000003_Node000004" class="edge">
<title>Node3&#45;&gt;Node4</title>
<g id="a_edge3_Node000003_Node000004"><a xlink:title=" ">
<path fill="none" stroke="#63b8ff" d="M325.48,-109.98C303.96,-101.34 270.41,-87.87 245.86,-78.02"/>
<polygon fill="#63b8ff" stroke="#63b8ff" points="246.87,-74.65 236.29,-74.17 244.26,-81.14 246.87,-74.65"/>
</a>
</g>
</g>
<!-- Node5 -->
<g id="Node000005" class="node">
<title>Node5</title>
<g id="a_Node000005"><a xlink:title=" ">
<polygon fill="#e0e0e0" stroke="#999999" points="303.69,-74 257.69,-74 257.69,-55 303.69,-55 303.69,-74"/>
<text text-anchor="middle" x="280.69" y="-62" font-family="Helvetica,sans-Serif" font-size="10.00">cstdio</text>
</a>
</g>
</g>
<!-- Node3&#45;&gt;Node5 -->
<g id="edge4_Node000003_Node000005" class="edge">
<title>Node3&#45;&gt;Node5</title>
<g id="a_edge4_Node000003_Node000005"><a xlink:title=" ">
<path fill="none" stroke="#63b8ff" d="M336.09,-109.98C326.24,-102.07 311.34,-90.11 299.48,-80.58"/>
<polygon fill="#63b8ff" stroke="#63b8ff" points="301.48,-77.7 291.49,-74.17 297.1,-83.16 301.48,-77.7"/>
</a>
</g>
</g>
<!-- Node6 -->
<g id="Node000006" class="node">
<title>Node6</title>
<g id="a_Node000006"><a xlink:title=" ">
<polygon fill="#e0e0e0" stroke="#999999" points="371.19,-74 322.19,-74 322.19,-55 371.19,-55 371.19,-74"/>
<text text-anchor="middle" x="346.69" y="-62" font-family="Helvetica,sans-Serif" font-size="10.00">cstdlib</text>
</a>
</g>
</g>
<!-- Node3&#45;&gt;Node6 -->
<g id="edge5_Node000003_Node000006" class="edge">
<title>Node3&#45;&gt;Node6</title>
<g id="a_edge5_Node000003_Node000006"><a xlink:title=" ">
<path fill="none" stroke="#63b8ff" d="M346.69,-109.75C346.69,-102.8 346.69,-92.85 346.69,-84.13"/>
<polygon fill="#63b8ff" stroke="#63b8ff" points="350.19,-84.09 346.69,-74.09 343.19,-84.09 350.19,-84.09"/>
</a>
</g>
</g>
<!-- Node7 -->
<g id="Node000007" class="node">
<title>Node7</title>
<g id="a_Node000007"><a xlink:title=" ">
<polygon fill="#e0e0e0" stroke="#999999" points="87.69,-74 27.69,-74 27.69,-55 87.69,-55 87.69,-74"/>
<text text-anchor="middle" x="57.69" y="-62" font-family="Helvetica,sans-Serif" font-size="10.00">iostream</text>
</a>
</g>
</g>
<!-- Node3&#45;&gt;Node7 -->
<g id="edge6_Node000003_Node000007" class="edge">
<title>Node3&#45;&gt;Node7</title>
<g id="a_edge6_Node000003_Node000007"><a xlink:title=" ">
<path fill="none" stroke="#63b8ff" d="M295.35,-109.96C246.91,-101.76 172.02,-88.74 97.88,-74.18"/>
<polygon fill="#63b8ff" stroke="#63b8ff" points="98.39,-70.71 87.9,-72.2 97.03,-77.58 98.39,-70.71"/>
</a>
</g>
</g>
<!-- Node8 -->
<g id="Node000008" class="node">
<title>Node8</title>
<g id="a_Node000008"><a xlink:title=" ">
<polygon fill="#e0e0e0" stroke="#999999" points="575.69,-74 517.69,-74 517.69,-55 575.69,-55 575.69,-74"/>
<text text-anchor="middle" x="546.69" y="-62" font-family="Helvetica,sans-Serif" font-size="10.00">memory</text>
</a>
</g>
</g>
<!-- Node3&#45;&gt;Node8 -->
<g id="edge7_Node000003_Node000008" class="edge">
<title>Node3&#45;&gt;Node8</title>
<g id="a_edge7_Node000003_Node000008"><a xlink:title=" ">
<path fill="none" stroke="#63b8ff" d="M378.83,-109.98C413.85,-100.7 469.9,-85.85 507.49,-75.89"/>
<polygon fill="#63b8ff" stroke="#63b8ff" points="508.8,-79.16 517.57,-73.22 507,-72.4 508.8,-79.16"/>
</a>
</g>
</g>
<!-- Node9 -->
<g id="Node000009" class="node">
<title>Node9</title>
<g id="a_Node000009"><a xlink:title=" ">
<polygon fill="#e0e0e0" stroke="#999999" points="171.19,-74 106.19,-74 106.19,-55 171.19,-55 171.19,-74"/>
<text text-anchor="middle" x="138.69" y="-62" font-family="Helvetica,sans-Serif" font-size="10.00">stdexcept</text>
</a>
</g>
</g>
<!-- Node3&#45;&gt;Node9 -->
<g id="edge8_Node000003_Node000009" class="edge">
<title>Node3&#45;&gt;Node9</title>
<g id="a_edge8_Node000003_Node000009"><a xlink:title=" ">
<path fill="none" stroke="#63b8ff" d="M313.27,-109.98C277.43,-100.85 220.41,-86.32 181.36,-76.37"/>
<polygon fill="#63b8ff" stroke="#63b8ff" points="181.9,-72.9 171.34,-73.82 180.17,-79.68 181.9,-72.9"/>
</a>
</g>
</g>
<!-- Node3&#45;&gt;Node10 -->
<g id="edge10_Node000003_Node000010" class="edge">
<title>Node3&#45;&gt;Node10</title>
<g id="a_edge10_Node000003_Node000010"><a xlink:title=" ">
<path fill="none" stroke="#63b8ff" d="M365.49,-109.98C384.31,-101.46 413.52,-88.23 435.19,-78.41"/>
<polygon fill="#63b8ff" stroke="#63b8ff" points="436.89,-81.48 444.55,-74.17 434,-75.11 436.89,-81.48"/>
</a>
</g>
</g>
<!-- Node10&#45;&gt;Node2 -->
<g id="edge12_Node000010_Node000002" class="edge">
<title>Node10&#45;&gt;Node2</title>
<g id="a_edge12_Node000010_Node000002"><a xlink:title=" ">
<path fill="none" stroke="#63b8ff" d="M453.41,-54.98C443.86,-47.07 429.41,-35.11 417.91,-25.58"/>
<polygon fill="#63b8ff" stroke="#63b8ff" points="420.1,-22.85 410.16,-19.17 415.63,-28.24 420.1,-22.85"/>
</a>
</g>
</g>
<!-- Node11 -->
<g id="Node000011" class="node">
<title>Node11</title>
<g id="a_Node000011"><a xlink:title=" ">
<polygon fill="#e0e0e0" stroke="#999999" points="694.69,-19 644.69,-19 644.69,0 694.69,0 694.69,-19"/>
<text text-anchor="middle" x="669.69" y="-7" font-family="Helvetica,sans-Serif" font-size="10.00">cstdint</text>
</a>
</g>
</g>
<!-- Node10&#45;&gt;Node11 -->
<g id="edge11_Node000010_Node000011" class="edge">
<title>Node10&#45;&gt;Node11</title>
<g id="a_edge11_Node000010_Node000011"><a xlink:title=" ">
<path fill="none" stroke="#63b8ff" d="M496.79,-54.98C534.58,-45.26 596.15,-29.42 634.72,-19.5"/>
<polygon fill="#63b8ff" stroke="#63b8ff" points="635.66,-22.87 644.47,-16.99 633.91,-16.09 635.66,-22.87"/>
</a>
</g>
</g>
<!-- Node12 -->
<g id="Node000012" class="node">
<title>Node12</title>
<g id="a_Node000012"><a xlink:href="../../dc/df2/type__id_8h.html" target="_top" xlink:title=" ">
<polygon fill="white" stroke="#666666" points="525.69,-19 439.69,-19 439.69,0 525.69,0 525.69,-19"/>
<text text-anchor="middle" x="482.69" y="-7" font-family="Helvetica,sans-Serif" font-size="10.00">type/type_id.h</text>
</a>
</g>
</g>
<!-- Node10&#45;&gt;Node12 -->
<g id="edge13_Node000010_Node000012" class="edge">
<title>Node10&#45;&gt;Node12</title>
<g id="a_edge13_Node000010_Node000012"><a xlink:title=" ">
<path fill="none" stroke="#63b8ff" d="M466.83,-54.75C469.38,-47.65 473.05,-37.4 476.22,-28.56"/>
<polygon fill="#63b8ff" stroke="#63b8ff" points="479.53,-29.68 479.61,-19.09 472.94,-27.32 479.53,-29.68"/>
</a>
</g>
</g>
<!-- Node13&#45;&gt;Node2 -->
<g id="edge18_Node000013_Node000002" class="edge">
<title>Node13&#45;&gt;Node2</title>
<g id="a_edge18_Node000013_Node000002"><a xlink:title=" ">
<path fill="none" stroke="#63b8ff" d="M626.12,-110C619.85,-96.19 605.55,-69.02 584.69,-55 528.98,-17.54 501.36,-34.57 432.08,-19.13"/>
<polygon fill="#63b8ff" stroke="#63b8ff" points="432.56,-15.65 422.02,-16.73 430.93,-22.46 432.56,-15.65"/>
</a>
</g>
</g>
<!-- Node13&#45;&gt;Node8 -->
<g id="edge17_Node000013_Node000008" class="edge">
<title>Node13&#45;&gt;Node8</title>
<g id="a_edge17_Node000013_Node000008"><a xlink:title=" ">
<path fill="none" stroke="#63b8ff" d="M616.36,-109.98C603.61,-101.84 584.14,-89.41 569.02,-79.76"/>
<polygon fill="#63b8ff" stroke="#63b8ff" points="570.58,-76.6 560.27,-74.17 566.82,-82.5 570.58,-76.6"/>
</a>
</g>
</g>
<!-- Node13&#45;&gt;Node10 -->
<g id="edge26_Node000013_Node000010" class="edge">
<title>Node13&#45;&gt;Node10</title>
<g id="a_edge26_Node000013_Node000010"><a xlink:title=" ">
<path fill="none" stroke="#63b8ff" d="M603.02,-109.98C575.15,-101.09 531.24,-87.07 500.17,-77.15"/>
<polygon fill="#63b8ff" stroke="#63b8ff" points="501.16,-73.79 490.57,-74.08 499.03,-80.46 501.16,-73.79"/>
</a>
</g>
</g>
<!-- Node14 -->
<g id="Node000014" class="node">
<title>Node14</title>
<g id="a_Node000014"><a xlink:title=" ">
<polygon fill="#e0e0e0" stroke="#999999" points="681.69,-74 631.69,-74 631.69,-55 681.69,-55 681.69,-74"/>
<text text-anchor="middle" x="656.69" y="-62" font-family="Helvetica,sans-Serif" font-size="10.00">cstring</text>
</a>
</g>
</g>
<!-- Node13&#45;&gt;Node14 -->
<g id="edge16_Node000013_Node000014" class="edge">
<title>Node13&#45;&gt;Node14</title>
<g id="a_edge16_Node000013_Node000014"><a xlink:title=" ">
<path fill="none" stroke="#63b8ff" d="M634.15,-109.75C637.81,-102.57 643.1,-92.18 647.64,-83.27"/>
<polygon fill="#63b8ff" stroke="#63b8ff" points="650.9,-84.59 652.32,-74.09 644.66,-81.41 650.9,-84.59"/>
</a>
</g>
</g>
<!-- Node15 -->
<g id="Node000015" class="node">
<title>Node15</title>
<g id="a_Node000015"><a xlink:title=" ">
<polygon fill="#e0e0e0" stroke="#999999" points="745.19,-74 700.19,-74 700.19,-55 745.19,-55 745.19,-74"/>
<text text-anchor="middle" x="722.69" y="-62" font-family="Helvetica,sans-Serif" font-size="10.00">utility</text>
</a>
</g>
</g>
<!-- Node13&#45;&gt;Node15 -->
<g id="edge19_Node000013_Node000015" class="edge">
<title>Node13&#45;&gt;Node15</title>
<g id="a_edge19_Node000013_Node000015"><a xlink:title=" ">
<path fill="none" stroke="#63b8ff" d="M644.63,-109.98C659.19,-101.69 681.56,-88.94 698.63,-79.22"/>
<polygon fill="#63b8ff" stroke="#63b8ff" points="700.52,-82.16 707.48,-74.17 697.06,-76.08 700.52,-82.16"/>
</a>
</g>
</g>
<!-- Node16 -->
<g id="Node000016" class="node">
<title>Node16</title>
<g id="a_Node000016"><a xlink:title=" ">
<polygon fill="#e0e0e0" stroke="#999999" points="842.19,-74 763.19,-74 763.19,-55 842.19,-55 842.19,-74"/>
<text text-anchor="middle" x="802.69" y="-62" font-family="Helvetica,sans-Serif" font-size="10.00">fmt/format.h</text>
</a>
</g>
</g>
<!-- Node13&#45;&gt;Node16 -->
<g id="edge20_Node000013_Node000016" class="edge">
<title>Node13&#45;&gt;Node16</title>
<g id="a_edge20_Node000013_Node000016"><a xlink:title=" ">
<path fill="none" stroke="#63b8ff" d="M657.49,-109.98C686.66,-101.05 732.69,-86.94 765.1,-77.02"/>
<polygon fill="#63b8ff" stroke="#63b8ff" points="766.14,-80.36 774.68,-74.08 764.09,-73.66 766.14,-80.36"/>
</a>
</g>
</g>
<!-- Node17 -->
<g id="Node000017" class="node">
<title>Node17</title>
<g id="a_Node000017"><a xlink:href="../../d9/d86/limits_8h.html" target="_top" xlink:title=" ">
<polygon fill="white" stroke="#666666" points="938.69,-74 860.69,-74 860.69,-55 938.69,-55 938.69,-74"/>
<text text-anchor="middle" x="899.69" y="-62" font-family="Helvetica,sans-Serif" font-size="10.00">type/limits.h</text>
</a>
</g>
</g>
<!-- Node13&#45;&gt;Node17 -->
<g id="edge21_Node000013_Node000017" class="edge">
<title>Node13&#45;&gt;Node17</title>
<g id="a_edge21_Node000013_Node000017"><a xlink:title=" ">
<path fill="none" stroke="#63b8ff" d="M668.38,-110.91C716.36,-101.49 798.21,-85.42 850.58,-75.14"/>
<polygon fill="#63b8ff" stroke="#63b8ff" points="851.5,-78.53 860.64,-73.17 850.15,-71.66 851.5,-78.53"/>
</a>
</g>
</g>
<!-- Node17&#45;&gt;Node11 -->
<g id="edge24_Node000017_Node000011" class="edge">
<title>Node17&#45;&gt;Node11</title>
<g id="a_edge24_Node000017_Node000011"><a xlink:title=" ">
<path fill="none" stroke="#63b8ff" d="M862.74,-54.98C819.22,-44.96 747.46,-28.42 704.77,-18.58"/>
<polygon fill="#63b8ff" stroke="#63b8ff" points="705.36,-15.13 694.83,-16.29 703.79,-21.95 705.36,-15.13"/>
</a>
</g>
</g>
<!-- Node18 -->
<g id="Node000018" class="node">
<title>Node18</title>
<g id="a_Node000018"><a xlink:title=" ">
<polygon fill="#e0e0e0" stroke="#999999" points="856.69,-19 812.69,-19 812.69,0 856.69,0 856.69,-19"/>
<text text-anchor="middle" x="834.69" y="-7" font-family="Helvetica,sans-Serif" font-size="10.00">cfloat</text>
</a>
</g>
</g>
<!-- Node17&#45;&gt;Node18 -->
<g id="edge22_Node000017_Node000018" class="edge">
<title>Node17&#45;&gt;Node18</title>
<g id="a_edge22_Node000017_Node000018"><a xlink:title=" ">
<path fill="none" stroke="#63b8ff" d="M889.25,-54.98C879.55,-47.07 864.88,-35.11 853.19,-25.58"/>
<polygon fill="#63b8ff" stroke="#63b8ff" points="855.29,-22.78 845.33,-19.17 850.86,-28.2 855.29,-22.78"/>
</a>
</g>
</g>
<!-- Node19 -->
<g id="Node000019" class="node">
<title>Node19</title>
<g id="a_Node000019"><a xlink:title=" ">
<polygon fill="#e0e0e0" stroke="#999999" points="924.69,-19 874.69,-19 874.69,0 924.69,0 924.69,-19"/>
<text text-anchor="middle" x="899.69" y="-7" font-family="Helvetica,sans-Serif" font-size="10.00">climits</text>
</a>
</g>
</g>
<!-- Node17&#45;&gt;Node19 -->
<g id="edge23_Node000017_Node000019" class="edge">
<title>Node17&#45;&gt;Node19</title>
<g id="a_edge23_Node000017_Node000019"><a xlink:title=" ">
<path fill="none" stroke="#63b8ff" d="M899.69,-54.75C899.69,-47.8 899.69,-37.85 899.69,-29.13"/>
<polygon fill="#63b8ff" stroke="#63b8ff" points="903.19,-29.09 899.69,-19.09 896.19,-29.09 903.19,-29.09"/>
</a>
</g>
</g>
<!-- Node20 -->
<g id="Node000020" class="node">
<title>Node20</title>
<g id="a_Node000020"><a xlink:title=" ">
<polygon fill="#e0e0e0" stroke="#999999" points="986.69,-19 942.69,-19 942.69,0 986.69,0 986.69,-19"/>
<text text-anchor="middle" x="964.69" y="-7" font-family="Helvetica,sans-Serif" font-size="10.00">limits</text>
</a>
</g>
</g>
<!-- Node17&#45;&gt;Node20 -->
<g id="edge25_Node000017_Node000020" class="edge">
<title>Node17&#45;&gt;Node20</title>
<g id="a_edge25_Node000017_Node000020"><a xlink:title=" ">
<path fill="none" stroke="#63b8ff" d="M910.14,-54.98C919.84,-47.07 934.51,-35.11 946.19,-25.58"/>
<polygon fill="#63b8ff" stroke="#63b8ff" points="948.52,-28.2 954.06,-19.17 944.1,-22.78 948.52,-28.2"/>
</a>
</g>
</g>
</g>
</svg>
