<?xml version="1.0" encoding="UTF-8" standalone="no"?>
<!DOCTYPE svg PUBLIC "-//W3C//DTD SVG 1.1//EN"
 "http://www.w3.org/Graphics/SVG/1.1/DTD/svg11.dtd">
<!-- Generated by graphviz version 2.43.0 (0)
 -->
<!-- Title: src/include/binder/expressions/bound_window.h Pages: 1 -->
<svg width="2202pt" height="181pt"
 viewBox="0.00 0.00 2202.00 181.00" xmlns="http://www.w3.org/2000/svg" xmlns:xlink="http://www.w3.org/1999/xlink">
<g id="graph0" class="graph" transform="scale(1 1) rotate(0) translate(4 177)">
<title>src/include/binder/expressions/bound_window.h</title>
<!-- Node1 -->
<g id="Node000001" class="node">
<title>Node1</title>
<g id="a_Node000001"><a xlink:title=" ">
<polygon fill="#999999" stroke="#666666" points="1744.5,-173 1582.5,-173 1582.5,-143 1744.5,-143 1744.5,-173"/>
<text text-anchor="start" x="1590.5" y="-161" font-family="Helvetica,sans-Serif" font-size="10.00">src/include/binder</text>
<text text-anchor="middle" x="1663.5" y="-150" font-family="Helvetica,sans-Serif" font-size="10.00">/expressions/bound_window.h</text>
</a>
</g>
</g>
<!-- Node2 -->
<g id="Node000002" class="node">
<title>Node2</title>
<g id="a_Node000002"><a xlink:href="../../d7/d35/bind__select_8cpp.html" target="_top" xlink:title=" ">
<polygon fill="white" stroke="#666666" points="1713,-24.5 1570,-24.5 1570,-5.5 1713,-5.5 1713,-24.5"/>
<text text-anchor="middle" x="1641.5" y="-12.5" font-family="Helvetica,sans-Serif" font-size="10.00">src/binder/bind_select.cpp</text>
</a>
</g>
</g>
<!-- Node1&#45;&gt;Node2 -->
<g id="edge1_Node000001_Node000002" class="edge">
<title>Node1&#45;&gt;Node2</title>
<g id="a_edge1_Node000001_Node000002"><a xlink:title=" ">
<path fill="none" stroke="#63b8ff" d="M1659.77,-133.08C1654.77,-101.08 1646.16,-45.88 1642.85,-24.66"/>
<polygon fill="#63b8ff" stroke="#63b8ff" points="1656.31,-133.62 1661.31,-142.96 1663.23,-132.54 1656.31,-133.62"/>
</a>
</g>
</g>
<!-- Node3 -->
<g id="Node000003" class="node">
<title>Node3</title>
<g id="a_Node000003"><a xlink:href="../../d9/d02/binder_2fmt__impl_8cpp.html" target="_top" xlink:title=" ">
<polygon fill="white" stroke="#666666" points="1863.5,-24.5 1731.5,-24.5 1731.5,-5.5 1863.5,-5.5 1863.5,-24.5"/>
<text text-anchor="middle" x="1797.5" y="-12.5" font-family="Helvetica,sans-Serif" font-size="10.00">src/binder/fmt_impl.cpp</text>
</a>
</g>
</g>
<!-- Node1&#45;&gt;Node3 -->
<g id="edge2_Node000001_Node000003" class="edge">
<title>Node1&#45;&gt;Node3</title>
<g id="a_edge2_Node000001_Node000003"><a xlink:title=" ">
<path fill="none" stroke="#63b8ff" d="M1673.44,-133.81C1682.72,-114.09 1698.06,-85.89 1717.5,-66 1735.36,-47.73 1761.16,-33.16 1778.59,-24.56"/>
<polygon fill="#63b8ff" stroke="#63b8ff" points="1670.22,-132.44 1669.26,-142.99 1676.59,-135.34 1670.22,-132.44"/>
</a>
</g>
</g>
<!-- Node4 -->
<g id="Node000004" class="node">
<title>Node4</title>
<g id="a_Node000004"><a xlink:href="../../d5/db7/node__tag__to__string_8cpp.html" target="_top" xlink:title=" ">
<polygon fill="white" stroke="#666666" points="113,-30 0,-30 0,0 113,0 113,-30"/>
<text text-anchor="start" x="8" y="-18" font-family="Helvetica,sans-Serif" font-size="10.00">src/binder/node_tag</text>
<text text-anchor="middle" x="56.5" y="-7" font-family="Helvetica,sans-Serif" font-size="10.00">_to_string.cpp</text>
</a>
</g>
</g>
<!-- Node1&#45;&gt;Node4 -->
<g id="edge3_Node000001_Node000004" class="edge">
<title>Node1&#45;&gt;Node4</title>
<g id="a_edge3_Node000001_Node000004"><a xlink:title=" ">
<path fill="none" stroke="#63b8ff" d="M1572.45,-156.46C1385.98,-154.56 947.35,-145.93 581.5,-107 409.72,-88.72 209.18,-48.68 113.26,-28.36"/>
<polygon fill="#63b8ff" stroke="#63b8ff" points="1572.45,-159.96 1582.49,-156.56 1572.52,-152.97 1572.45,-159.96"/>
</a>
</g>
</g>
<!-- Node5 -->
<g id="Node000005" class="node">
<title>Node5</title>
<g id="a_Node000005"><a xlink:href="../../df/d93/transformer_8cpp.html" target="_top" xlink:title=" ">
<polygon fill="white" stroke="#666666" points="276,-24.5 131,-24.5 131,-5.5 276,-5.5 276,-24.5"/>
<text text-anchor="middle" x="203.5" y="-12.5" font-family="Helvetica,sans-Serif" font-size="10.00">src/binder/transformer.cpp</text>
</a>
</g>
</g>
<!-- Node1&#45;&gt;Node5 -->
<g id="edge4_Node000001_Node000005" class="edge">
<title>Node1&#45;&gt;Node5</title>
<g id="a_edge4_Node000001_Node000005"><a xlink:title=" ">
<path fill="none" stroke="#63b8ff" d="M1572.17,-151.51C1350.75,-137.56 768.05,-97.04 285.5,-30 274.2,-28.43 262.06,-26.5 250.69,-24.57"/>
<polygon fill="#63b8ff" stroke="#63b8ff" points="1572.23,-155.02 1582.43,-152.15 1572.67,-148.03 1572.23,-155.02"/>
</a>
</g>
</g>
<!-- Node6 -->
<g id="Node000006" class="node">
<title>Node6</title>
<g id="a_Node000006"><a xlink:href="../../d3/d2f/binder_8h.html" target="_top" xlink:title=" ">
<polygon fill="white" stroke="#666666" points="1114,-101.5 1011,-101.5 1011,-71.5 1114,-71.5 1114,-101.5"/>
<text text-anchor="start" x="1019" y="-89.5" font-family="Helvetica,sans-Serif" font-size="10.00">src/include/binder</text>
<text text-anchor="middle" x="1062.5" y="-78.5" font-family="Helvetica,sans-Serif" font-size="10.00">/binder.h</text>
</a>
</g>
</g>
<!-- Node1&#45;&gt;Node6 -->
<g id="edge5_Node000001_Node000006" class="edge">
<title>Node1&#45;&gt;Node6</title>
<g id="a_edge5_Node000001_Node000006"><a xlink:title=" ">
<path fill="none" stroke="#63b8ff" d="M1572.28,-146.45C1444.39,-131.66 1216.03,-105.25 1114.1,-93.47"/>
<polygon fill="#63b8ff" stroke="#63b8ff" points="1572.11,-149.95 1582.45,-147.63 1572.91,-143 1572.11,-149.95"/>
</a>
</g>
</g>
<!-- Node15 -->
<g id="Node000015" class="node">
<title>Node15</title>
<g id="a_Node000015"><a xlink:href="../../d4/d8a/bound__func__call_8h.html" target="_top" xlink:title=" ">
<polygon fill="white" stroke="#666666" points="1863,-107 1726,-107 1726,-66 1863,-66 1863,-107"/>
<text text-anchor="start" x="1734" y="-95" font-family="Helvetica,sans-Serif" font-size="10.00">src/include/binder</text>
<text text-anchor="start" x="1734" y="-84" font-family="Helvetica,sans-Serif" font-size="10.00">/expressions/bound_func</text>
<text text-anchor="middle" x="1794.5" y="-73" font-family="Helvetica,sans-Serif" font-size="10.00">_call.h</text>
</a>
</g>
</g>
<!-- Node1&#45;&gt;Node15 -->
<g id="edge18_Node000001_Node000015" class="edge">
<title>Node1&#45;&gt;Node15</title>
<g id="a_edge18_Node000001_Node000015"><a xlink:title=" ">
<path fill="none" stroke="#63b8ff" d="M1699.1,-138.11C1717.24,-128.49 1739.28,-116.79 1757.61,-107.07"/>
<polygon fill="#63b8ff" stroke="#63b8ff" points="1697.2,-135.16 1690.01,-142.94 1700.48,-141.34 1697.2,-135.16"/>
</a>
</g>
</g>
<!-- Node16 -->
<g id="Node000016" class="node">
<title>Node16</title>
<g id="a_Node000016"><a xlink:href="../../d0/d29/plan__expression_8cpp.html" target="_top" xlink:title=" ">
<polygon fill="white" stroke="#666666" points="2194,-24.5 2021,-24.5 2021,-5.5 2194,-5.5 2194,-24.5"/>
<text text-anchor="middle" x="2107.5" y="-12.5" font-family="Helvetica,sans-Serif" font-size="10.00">src/planner/plan_expression.cpp</text>
</a>
</g>
</g>
<!-- Node1&#45;&gt;Node16 -->
<g id="edge23_Node000001_Node000016" class="edge">
<title>Node1&#45;&gt;Node16</title>
<g id="a_edge23_Node000001_Node000016"><a xlink:title=" ">
<path fill="none" stroke="#63b8ff" d="M1754.8,-146.82C1793.04,-139.68 1836.81,-127.56 1872.5,-107 1894.29,-94.45 1889.8,-78.72 1911.5,-66 1936.8,-51.17 2012.5,-34.41 2062.08,-24.55"/>
<polygon fill="#63b8ff" stroke="#63b8ff" points="1753.92,-143.43 1744.69,-148.62 1755.14,-150.32 1753.92,-143.43"/>
</a>
</g>
</g>
<!-- Node18 -->
<g id="Node000018" class="node">
<title>Node18</title>
<g id="a_Node000018"><a xlink:href="../../d4/d79/plan__window__function_8cpp.html" target="_top" xlink:title=" ">
<polygon fill="white" stroke="#666666" points="2057,-101.5 1920,-101.5 1920,-71.5 2057,-71.5 2057,-101.5"/>
<text text-anchor="start" x="1928" y="-89.5" font-family="Helvetica,sans-Serif" font-size="10.00">src/planner/plan_window</text>
<text text-anchor="middle" x="1988.5" y="-78.5" font-family="Helvetica,sans-Serif" font-size="10.00">_function.cpp</text>
</a>
</g>
</g>
<!-- Node1&#45;&gt;Node18 -->
<g id="edge24_Node000001_Node000018" class="edge">
<title>Node1&#45;&gt;Node18</title>
<g id="a_edge24_Node000001_Node000018"><a xlink:title=" ">
<path fill="none" stroke="#63b8ff" d="M1743.88,-140.96C1791.03,-131.41 1851.72,-118.87 1905.5,-107 1913.31,-105.28 1921.51,-103.41 1929.6,-101.55"/>
<polygon fill="#63b8ff" stroke="#63b8ff" points="1743.13,-137.54 1734.03,-142.95 1744.52,-144.4 1743.13,-137.54"/>
</a>
</g>
</g>
<!-- Node6&#45;&gt;Node2 -->
<g id="edge8_Node000006_Node000002" class="edge">
<title>Node6&#45;&gt;Node2</title>
<g id="a_edge8_Node000006_Node000002"><a xlink:title=" ">
<path fill="none" stroke="#63b8ff" d="M1124.6,-79.85C1219.13,-70.97 1404.72,-52.41 1561.5,-30 1572.53,-28.42 1584.37,-26.49 1595.47,-24.56"/>
<polygon fill="#63b8ff" stroke="#63b8ff" points="1123.99,-76.39 1114.36,-80.81 1124.64,-83.36 1123.99,-76.39"/>
</a>
</g>
</g>
<!-- Node6&#45;&gt;Node3 -->
<g id="edge11_Node000006_Node000003" class="edge">
<title>Node6&#45;&gt;Node3</title>
<g id="a_edge11_Node000006_Node000003"><a xlink:title=" ">
<path fill="none" stroke="#63b8ff" d="M1124.24,-82.39C1241.31,-76.02 1503.48,-59.57 1722.5,-30 1733.4,-28.53 1745.11,-26.54 1755.97,-24.52"/>
<polygon fill="#63b8ff" stroke="#63b8ff" points="1123.84,-78.9 1114.04,-82.94 1124.21,-85.89 1123.84,-78.9"/>
</a>
</g>
</g>
<!-- Node6&#45;&gt;Node4 -->
<g id="edge13_Node000006_Node000004" class="edge">
<title>Node6&#45;&gt;Node4</title>
<g id="a_edge13_Node000006_Node000004"><a xlink:title=" ">
<path fill="none" stroke="#63b8ff" d="M1000.53,-85.12C849.51,-83.48 450.67,-74.89 121.5,-30 118.75,-29.63 115.95,-29.2 113.13,-28.73"/>
<polygon fill="#63b8ff" stroke="#63b8ff" points="1000.94,-88.62 1010.98,-85.23 1001.01,-81.62 1000.94,-88.62"/>
</a>
</g>
</g>
<!-- Node6&#45;&gt;Node5 -->
<g id="edge15_Node000006_Node000005" class="edge">
<title>Node6&#45;&gt;Node5</title>
<g id="a_edge15_Node000006_Node000005"><a xlink:title=" ">
<path fill="none" stroke="#63b8ff" d="M1000.77,-81.26C823.08,-69.02 320.82,-34.27 285.5,-30 273.6,-28.56 260.8,-26.59 248.93,-24.57"/>
<polygon fill="#63b8ff" stroke="#63b8ff" points="1000.78,-84.77 1010.99,-81.96 1001.26,-77.78 1000.78,-84.77"/>
</a>
</g>
</g>
<!-- Node7 -->
<g id="Node000007" class="node">
<title>Node7</title>
<g id="a_Node000007"><a xlink:href="../../db/d4b/bind__create_8cpp.html" target="_top" xlink:title=" ">
<polygon fill="white" stroke="#666666" points="807,-24.5 662,-24.5 662,-5.5 807,-5.5 807,-24.5"/>
<text text-anchor="middle" x="734.5" y="-12.5" font-family="Helvetica,sans-Serif" font-size="10.00">src/binder/bind_create.cpp</text>
</a>
</g>
</g>
<!-- Node6&#45;&gt;Node7 -->
<g id="edge6_Node000006_Node000007" class="edge">
<title>Node6&#45;&gt;Node7</title>
<g id="a_edge6_Node000006_Node000007"><a xlink:title=" ">
<path fill="none" stroke="#63b8ff" d="M1001.01,-72.47C934.85,-58.45 831.55,-36.56 774.95,-24.57"/>
<polygon fill="#63b8ff" stroke="#63b8ff" points="1000.38,-75.92 1010.89,-74.56 1001.83,-69.07 1000.38,-75.92"/>
</a>
</g>
</g>
<!-- Node8 -->
<g id="Node000008" class="node">
<title>Node8</title>
<g id="a_Node000008"><a xlink:href="../../d9/d88/bind__insert_8cpp.html" target="_top" xlink:title=" ">
<polygon fill="white" stroke="#666666" points="967.5,-24.5 825.5,-24.5 825.5,-5.5 967.5,-5.5 967.5,-24.5"/>
<text text-anchor="middle" x="896.5" y="-12.5" font-family="Helvetica,sans-Serif" font-size="10.00">src/binder/bind_insert.cpp</text>
</a>
</g>
</g>
<!-- Node6&#45;&gt;Node8 -->
<g id="edge7_Node000006_Node000008" class="edge">
<title>Node6&#45;&gt;Node8</title>
<g id="a_edge7_Node000006_Node000008"><a xlink:title=" ">
<path fill="none" stroke="#63b8ff" d="M1019.49,-67.49C986.49,-53.67 942.4,-35.22 916.96,-24.57"/>
<polygon fill="#63b8ff" stroke="#63b8ff" points="1018.33,-70.8 1028.91,-71.44 1021.03,-64.35 1018.33,-70.8"/>
</a>
</g>
</g>
<!-- Node9 -->
<g id="Node000009" class="node">
<title>Node9</title>
<g id="a_Node000009"><a xlink:href="../../db/db0/bind__variable_8cpp.html" target="_top" xlink:title=" ">
<polygon fill="white" stroke="#666666" points="1139.5,-24.5 985.5,-24.5 985.5,-5.5 1139.5,-5.5 1139.5,-24.5"/>
<text text-anchor="middle" x="1062.5" y="-12.5" font-family="Helvetica,sans-Serif" font-size="10.00">src/binder/bind_variable.cpp</text>
</a>
</g>
</g>
<!-- Node6&#45;&gt;Node9 -->
<g id="edge9_Node000006_Node000009" class="edge">
<title>Node6&#45;&gt;Node9</title>
<g id="a_edge9_Node000006_Node000009"><a xlink:title=" ">
<path fill="none" stroke="#63b8ff" d="M1062.5,-61.06C1062.5,-48.45 1062.5,-33.85 1062.5,-24.77"/>
<polygon fill="#63b8ff" stroke="#63b8ff" points="1059,-61.44 1062.5,-71.44 1066,-61.44 1059,-61.44"/>
</a>
</g>
</g>
<!-- Node10 -->
<g id="Node000010" class="node">
<title>Node10</title>
<g id="a_Node000010"><a xlink:href="../../dc/de9/binder_8cpp.html" target="_top" xlink:title=" ">
<polygon fill="white" stroke="#666666" points="1275.5,-24.5 1157.5,-24.5 1157.5,-5.5 1275.5,-5.5 1275.5,-24.5"/>
<text text-anchor="middle" x="1216.5" y="-12.5" font-family="Helvetica,sans-Serif" font-size="10.00">src/binder/binder.cpp</text>
</a>
</g>
</g>
<!-- Node6&#45;&gt;Node10 -->
<g id="edge10_Node000006_Node000010" class="edge">
<title>Node6&#45;&gt;Node10</title>
<g id="a_edge10_Node000006_Node000010"><a xlink:title=" ">
<path fill="none" stroke="#63b8ff" d="M1102.8,-67.31C1133.37,-53.52 1174.02,-35.17 1197.52,-24.57"/>
<polygon fill="#63b8ff" stroke="#63b8ff" points="1101.34,-64.13 1093.66,-71.44 1104.22,-70.51 1101.34,-64.13"/>
</a>
</g>
</g>
<!-- Node11 -->
<g id="Node000011" class="node">
<title>Node11</title>
<g id="a_Node000011"><a xlink:href="../../d3/d6b/keyword__helper_8cpp.html" target="_top" xlink:title=" ">
<polygon fill="white" stroke="#666666" points="1403,-30 1294,-30 1294,0 1403,0 1403,-30"/>
<text text-anchor="start" x="1302" y="-18" font-family="Helvetica,sans-Serif" font-size="10.00">src/binder/keyword</text>
<text text-anchor="middle" x="1348.5" y="-7" font-family="Helvetica,sans-Serif" font-size="10.00">_helper.cpp</text>
</a>
</g>
</g>
<!-- Node6&#45;&gt;Node11 -->
<g id="edge12_Node000006_Node000011" class="edge">
<title>Node6&#45;&gt;Node11</title>
<g id="a_edge12_Node000006_Node000011"><a xlink:title=" ">
<path fill="none" stroke="#63b8ff" d="M1124.09,-70.53C1174.52,-58.28 1245.2,-41.1 1293.68,-29.32"/>
<polygon fill="#63b8ff" stroke="#63b8ff" points="1123.18,-67.15 1114.29,-72.91 1124.84,-73.95 1123.18,-67.15"/>
</a>
</g>
</g>
<!-- Node12 -->
<g id="Node000012" class="node">
<title>Node12</title>
<g id="a_Node000012"><a xlink:href="../../d1/d11/explain__statement_8cpp.html" target="_top" xlink:title=" ">
<polygon fill="white" stroke="#666666" points="1552,-30 1421,-30 1421,0 1552,0 1552,-30"/>
<text text-anchor="start" x="1429" y="-18" font-family="Helvetica,sans-Serif" font-size="10.00">src/binder/statement</text>
<text text-anchor="middle" x="1486.5" y="-7" font-family="Helvetica,sans-Serif" font-size="10.00">/explain_statement.cpp</text>
</a>
</g>
</g>
<!-- Node6&#45;&gt;Node12 -->
<g id="edge14_Node000006_Node000012" class="edge">
<title>Node6&#45;&gt;Node12</title>
<g id="a_edge14_Node000006_Node000012"><a xlink:title=" ">
<path fill="none" stroke="#63b8ff" d="M1124.15,-76.29C1194.13,-65.71 1311.69,-47.53 1412.5,-30 1415.21,-29.53 1417.96,-29.04 1420.75,-28.54"/>
<polygon fill="#63b8ff" stroke="#63b8ff" points="1123.54,-72.84 1114.17,-77.8 1124.58,-79.76 1123.54,-72.84"/>
</a>
</g>
</g>
<!-- Node13 -->
<g id="Node000013" class="node">
<title>Node13</title>
<g id="a_Node000013"><a xlink:href="../../dc/de0/bustub__ddl_8cpp.html" target="_top" xlink:title=" ">
<polygon fill="white" stroke="#666666" points="447,-24.5 294,-24.5 294,-5.5 447,-5.5 447,-24.5"/>
<text text-anchor="middle" x="370.5" y="-12.5" font-family="Helvetica,sans-Serif" font-size="10.00">src/common/bustub_ddl.cpp</text>
</a>
</g>
</g>
<!-- Node6&#45;&gt;Node13 -->
<g id="edge16_Node000006_Node000013" class="edge">
<title>Node6&#45;&gt;Node13</title>
<g id="a_edge16_Node000006_Node000013"><a xlink:title=" ">
<path fill="none" stroke="#63b8ff" d="M1000.66,-81.27C890.86,-73.45 654.74,-55.18 456.5,-30 444.34,-28.46 431.27,-26.49 419.08,-24.52"/>
<polygon fill="#63b8ff" stroke="#63b8ff" points="1000.67,-84.78 1010.89,-82 1001.16,-77.8 1000.67,-84.78"/>
</a>
</g>
</g>
<!-- Node14 -->
<g id="Node000014" class="node">
<title>Node14</title>
<g id="a_Node000014"><a xlink:href="../../da/d08/bustub__instance_8cpp.html" target="_top" xlink:title=" ">
<polygon fill="white" stroke="#666666" points="644,-24.5 465,-24.5 465,-5.5 644,-5.5 644,-24.5"/>
<text text-anchor="middle" x="554.5" y="-12.5" font-family="Helvetica,sans-Serif" font-size="10.00">src/common/bustub_instance.cpp</text>
</a>
</g>
</g>
<!-- Node6&#45;&gt;Node14 -->
<g id="edge17_Node000006_Node000014" class="edge">
<title>Node6&#45;&gt;Node14</title>
<g id="a_edge17_Node000006_Node000014"><a xlink:title=" ">
<path fill="none" stroke="#63b8ff" d="M1000.92,-77.25C920.86,-66.51 776.7,-47.07 653.5,-30 640.86,-28.25 627.32,-26.35 614.44,-24.53"/>
<polygon fill="#63b8ff" stroke="#63b8ff" points="1000.46,-80.72 1010.84,-78.58 1001.39,-73.78 1000.46,-80.72"/>
</a>
</g>
</g>
<!-- Node15&#45;&gt;Node2 -->
<g id="edge19_Node000015_Node000002" class="edge">
<title>Node15&#45;&gt;Node2</title>
<g id="a_edge19_Node000015_Node000002"><a xlink:title=" ">
<path fill="none" stroke="#63b8ff" d="M1742.08,-61.69C1713.74,-48.82 1680.5,-33.71 1660.22,-24.5"/>
<polygon fill="#63b8ff" stroke="#63b8ff" points="1740.92,-65.01 1751.47,-65.96 1743.82,-58.63 1740.92,-65.01"/>
</a>
</g>
</g>
<!-- Node15&#45;&gt;Node3 -->
<g id="edge20_Node000015_Node000003" class="edge">
<title>Node15&#45;&gt;Node3</title>
<g id="a_edge20_Node000015_Node000003"><a xlink:title=" ">
<path fill="none" stroke="#63b8ff" d="M1795.8,-55.47C1796.28,-44.35 1796.78,-32.58 1797.12,-24.82"/>
<polygon fill="#63b8ff" stroke="#63b8ff" points="1792.29,-55.63 1795.35,-65.77 1799.28,-55.93 1792.29,-55.63"/>
</a>
</g>
</g>
<!-- Node15&#45;&gt;Node16 -->
<g id="edge21_Node000015_Node000016" class="edge">
<title>Node15&#45;&gt;Node16</title>
<g id="a_edge21_Node000015_Node000016"><a xlink:title=" ">
<path fill="none" stroke="#63b8ff" d="M1873.13,-66.99C1874.6,-66.66 1876.06,-66.33 1877.5,-66 1943.86,-50.99 2021.19,-34.36 2067.15,-24.56"/>
<polygon fill="#63b8ff" stroke="#63b8ff" points="1872.29,-63.59 1863.32,-69.24 1873.85,-70.42 1872.29,-63.59"/>
</a>
</g>
</g>
<!-- Node17 -->
<g id="Node000017" class="node">
<title>Node17</title>
<g id="a_Node000017"><a xlink:href="../../d6/da3/plan__func__call_8cpp.html" target="_top" xlink:title=" ">
<polygon fill="white" stroke="#666666" points="2003,-30 1882,-30 1882,0 2003,0 2003,-30"/>
<text text-anchor="start" x="1890" y="-18" font-family="Helvetica,sans-Serif" font-size="10.00">src/planner/plan_func</text>
<text text-anchor="middle" x="1942.5" y="-7" font-family="Helvetica,sans-Serif" font-size="10.00">_call.cpp</text>
</a>
</g>
</g>
<!-- Node15&#45;&gt;Node17 -->
<g id="edge22_Node000015_Node000017" class="edge">
<title>Node15&#45;&gt;Node17</title>
<g id="a_edge22_Node000015_Node000017"><a xlink:title=" ">
<path fill="none" stroke="#63b8ff" d="M1845.47,-61.56C1867.79,-51.08 1893.22,-39.14 1912.45,-30.11"/>
<polygon fill="#63b8ff" stroke="#63b8ff" points="1843.68,-58.54 1836.12,-65.96 1846.66,-64.87 1843.68,-58.54"/>
</a>
</g>
</g>
</g>
</svg>
