<?xml version="1.0" encoding="UTF-8" standalone="no"?>
<!DOCTYPE svg PUBLIC "-//W3C//DTD SVG 1.1//EN"
 "http://www.w3.org/Graphics/SVG/1.1/DTD/svg11.dtd">
<!-- Generated by graphviz version 2.43.0 (0)
 -->
<!-- Title: src/type/type.cpp Pages: 1 -->
<svg width="1337pt" height="368pt"
 viewBox="0.00 0.00 1337.00 368.00" xmlns="http://www.w3.org/2000/svg" xmlns:xlink="http://www.w3.org/1999/xlink">
<g id="graph0" class="graph" transform="scale(1 1) rotate(0) translate(4 364)">
<title>src/type/type.cpp</title>
<!-- Node1 -->
<g id="Node000001" class="node">
<title>Node1</title>
<g id="a_Node000001"><a xlink:title=" ">
<polygon fill="#999999" stroke="#666666" points="622.5,-360 521.5,-360 521.5,-341 622.5,-341 622.5,-360"/>
<text text-anchor="middle" x="572" y="-348" font-family="Helvetica,sans-Serif" font-size="10.00">src/type/type.cpp</text>
</a>
</g>
</g>
<!-- Node2 -->
<g id="Node000002" class="node">
<title>Node2</title>
<g id="a_Node000002"><a xlink:title=" ">
<polygon fill="#e0e0e0" stroke="#999999" points="631,-19 587,-19 587,0 631,0 631,-19"/>
<text text-anchor="middle" x="609" y="-7" font-family="Helvetica,sans-Serif" font-size="10.00">string</text>
</a>
</g>
</g>
<!-- Node1&#45;&gt;Node2 -->
<g id="edge1_Node000001_Node000002" class="edge">
<title>Node1&#45;&gt;Node2</title>
<g id="a_edge1_Node000001_Node000002"><a xlink:title=" ">
<path fill="none" stroke="#63b8ff" d="M521.24,-350.13C381.25,-350.5 0,-341.8 0,-236 0,-236 0,-236 0,-118.5 0,-71.34 40.92,-71.75 85,-55 175.78,-20.5 477.57,-12.61 576.96,-10.93"/>
<polygon fill="#63b8ff" stroke="#63b8ff" points="577.05,-14.43 586.99,-10.77 576.94,-7.43 577.05,-14.43"/>
</a>
</g>
</g>
<!-- Node3 -->
<g id="Node000003" class="node">
<title>Node3</title>
<g id="a_Node000003"><a xlink:href="../../dd/d2d/exception_8h.html" target="_top" xlink:title=" ">
<polygon fill="white" stroke="#666666" points="492.5,-129 373.5,-129 373.5,-110 492.5,-110 492.5,-129"/>
<text text-anchor="middle" x="433" y="-117" font-family="Helvetica,sans-Serif" font-size="10.00">common/exception.h</text>
</a>
</g>
</g>
<!-- Node1&#45;&gt;Node3 -->
<g id="edge2_Node000001_Node000003" class="edge">
<title>Node1&#45;&gt;Node3</title>
<g id="a_edge2_Node000001_Node000003"><a xlink:title=" ">
<path fill="none" stroke="#63b8ff" d="M521.19,-347.34C421.48,-342.59 207.94,-329.61 186,-305 114.93,-225.26 304.75,-157.73 391.91,-131.82"/>
<polygon fill="#63b8ff" stroke="#63b8ff" points="392.9,-135.18 401.51,-129.01 390.93,-128.46 392.9,-135.18"/>
</a>
</g>
</g>
<!-- Node13 -->
<g id="Node000013" class="node">
<title>Node13</title>
<g id="a_Node000013"><a xlink:href="../../df/d73/bigint__type_8h.html" target="_top" xlink:title=" ">
<polygon fill="white" stroke="#666666" points="299.5,-305 194.5,-305 194.5,-286 299.5,-286 299.5,-305"/>
<text text-anchor="middle" x="247" y="-293" font-family="Helvetica,sans-Serif" font-size="10.00">type/bigint_type.h</text>
</a>
</g>
</g>
<!-- Node1&#45;&gt;Node13 -->
<g id="edge14_Node000001_Node000013" class="edge">
<title>Node1&#45;&gt;Node13</title>
<g id="a_edge14_Node000001_Node000013"><a xlink:title=" ">
<path fill="none" stroke="#63b8ff" d="M521.22,-341.22C463.97,-331.88 370.88,-316.7 309.29,-306.66"/>
<polygon fill="#63b8ff" stroke="#63b8ff" points="309.74,-303.19 299.31,-305.03 308.61,-310.09 309.74,-303.19"/>
</a>
</g>
</g>
<!-- Node17 -->
<g id="Node000017" class="node">
<title>Node17</title>
<g id="a_Node000017"><a xlink:href="../../d4/d3f/value_8h.html" target="_top" xlink:title=" ">
<polygon fill="white" stroke="#666666" points="984.5,-129 907.5,-129 907.5,-110 984.5,-110 984.5,-129"/>
<text text-anchor="middle" x="946" y="-117" font-family="Helvetica,sans-Serif" font-size="10.00">type/value.h</text>
</a>
</g>
</g>
<!-- Node1&#45;&gt;Node17 -->
<g id="edge50_Node000001_Node000017" class="edge">
<title>Node1&#45;&gt;Node17</title>
<g id="a_edge50_Node000001_Node000017"><a xlink:title=" ">
<path fill="none" stroke="#63b8ff" d="M609.89,-340.99C640.77,-333.42 685.14,-321.05 722,-305 819,-262.75 861.79,-267.31 927,-184 937.09,-171.12 941.83,-152.95 944.05,-139.35"/>
<polygon fill="#63b8ff" stroke="#63b8ff" points="947.55,-139.59 945.39,-129.22 940.61,-138.67 947.55,-139.59"/>
</a>
</g>
</g>
<!-- Node25 -->
<g id="Node000025" class="node">
<title>Node25</title>
<g id="a_Node000025"><a xlink:href="../../d2/d37/boolean__type_8h.html" target="_top" xlink:title=" ">
<polygon fill="white" stroke="#666666" points="782,-184 666,-184 666,-165 782,-165 782,-184"/>
<text text-anchor="middle" x="724" y="-172" font-family="Helvetica,sans-Serif" font-size="10.00">type/boolean_type.h</text>
</a>
</g>
</g>
<!-- Node1&#45;&gt;Node25 -->
<g id="edge33_Node000001_Node000025" class="edge">
<title>Node1&#45;&gt;Node25</title>
<g id="a_edge33_Node000001_Node000025"><a xlink:title=" ">
<path fill="none" stroke="#63b8ff" d="M622.81,-344.57C650.23,-339.21 682.38,-328.08 702,-305 728.63,-273.68 728.66,-222.27 726.36,-194.58"/>
<polygon fill="#63b8ff" stroke="#63b8ff" points="729.8,-193.88 725.29,-184.29 722.84,-194.6 729.8,-193.88"/>
</a>
</g>
</g>
<!-- Node26 -->
<g id="Node000026" class="node">
<title>Node26</title>
<g id="a_Node000026"><a xlink:href="../../d6/dcc/decimal__type_8h.html" target="_top" xlink:title=" ">
<polygon fill="white" stroke="#666666" points="1090,-244.5 974,-244.5 974,-225.5 1090,-225.5 1090,-244.5"/>
<text text-anchor="middle" x="1032" y="-232.5" font-family="Helvetica,sans-Serif" font-size="10.00">type/decimal_type.h</text>
</a>
</g>
</g>
<!-- Node1&#45;&gt;Node26 -->
<g id="edge38_Node000001_Node000026" class="edge">
<title>Node1&#45;&gt;Node26</title>
<g id="a_edge38_Node000001_Node000026"><a xlink:title=" ">
<path fill="none" stroke="#63b8ff" d="M622.65,-347.69C713.77,-343.78 901.32,-332.57 960,-305 985.12,-293.2 1007.01,-269.12 1019.87,-252.77"/>
<polygon fill="#63b8ff" stroke="#63b8ff" points="1022.8,-254.69 1026.05,-244.61 1017.22,-250.47 1022.8,-254.69"/>
</a>
</g>
</g>
<!-- Node27 -->
<g id="Node000027" class="node">
<title>Node27</title>
<g id="a_Node000027"><a xlink:href="../../d0/dc6/integer__type_8h.html" target="_top" xlink:title=" ">
<polygon fill="white" stroke="#666666" points="430,-305 318,-305 318,-286 430,-286 430,-305"/>
<text text-anchor="middle" x="374" y="-293" font-family="Helvetica,sans-Serif" font-size="10.00">type/integer_type.h</text>
</a>
</g>
</g>
<!-- Node1&#45;&gt;Node27 -->
<g id="edge41_Node000001_Node000027" class="edge">
<title>Node1&#45;&gt;Node27</title>
<g id="a_edge41_Node000001_Node000027"><a xlink:title=" ">
<path fill="none" stroke="#63b8ff" d="M540.19,-340.98C506.51,-331.97 453.2,-317.7 416.08,-307.76"/>
<polygon fill="#63b8ff" stroke="#63b8ff" points="416.63,-304.29 406.06,-305.08 414.82,-311.05 416.63,-304.29"/>
</a>
</g>
</g>
<!-- Node28 -->
<g id="Node000028" class="node">
<title>Node28</title>
<g id="a_Node000028"><a xlink:href="../../d4/d69/smallint__type_8h.html" target="_top" xlink:title=" ">
<polygon fill="white" stroke="#666666" points="565.5,-305 448.5,-305 448.5,-286 565.5,-286 565.5,-305"/>
<text text-anchor="middle" x="507" y="-293" font-family="Helvetica,sans-Serif" font-size="10.00">type/smallint_type.h</text>
</a>
</g>
</g>
<!-- Node1&#45;&gt;Node28 -->
<g id="edge44_Node000001_Node000028" class="edge">
<title>Node1&#45;&gt;Node28</title>
<g id="a_edge44_Node000001_Node000028"><a xlink:title=" ">
<path fill="none" stroke="#63b8ff" d="M561.56,-340.98C551.85,-333.07 537.18,-321.11 525.5,-311.58"/>
<polygon fill="#63b8ff" stroke="#63b8ff" points="527.6,-308.78 517.63,-305.17 523.17,-314.2 527.6,-308.78"/>
</a>
</g>
</g>
<!-- Node29 -->
<g id="Node000029" class="node">
<title>Node29</title>
<g id="a_Node000029"><a xlink:href="../../d9/d43/tinyint__type_8h.html" target="_top" xlink:title=" ">
<polygon fill="white" stroke="#666666" points="692.5,-305 583.5,-305 583.5,-286 692.5,-286 692.5,-305"/>
<text text-anchor="middle" x="638" y="-293" font-family="Helvetica,sans-Serif" font-size="10.00">type/tinyint_type.h</text>
</a>
</g>
</g>
<!-- Node1&#45;&gt;Node29 -->
<g id="edge47_Node000001_Node000029" class="edge">
<title>Node1&#45;&gt;Node29</title>
<g id="a_edge47_Node000001_Node000029"><a xlink:title=" ">
<path fill="none" stroke="#63b8ff" d="M582.6,-340.98C592.46,-333.07 607.35,-321.11 619.22,-311.58"/>
<polygon fill="#63b8ff" stroke="#63b8ff" points="621.6,-314.16 627.2,-305.17 617.21,-308.7 621.6,-314.16"/>
</a>
</g>
</g>
<!-- Node30 -->
<g id="Node000030" class="node">
<title>Node30</title>
<g id="a_Node000030"><a xlink:href="../../d5/dbc/varlen__type_8h.html" target="_top" xlink:title=" ">
<polygon fill="white" stroke="#666666" points="1240,-184 1132,-184 1132,-165 1240,-165 1240,-184"/>
<text text-anchor="middle" x="1186" y="-172" font-family="Helvetica,sans-Serif" font-size="10.00">type/varlen_type.h</text>
</a>
</g>
</g>
<!-- Node1&#45;&gt;Node30 -->
<g id="edge51_Node000001_Node000030" class="edge">
<title>Node1&#45;&gt;Node30</title>
<g id="a_edge51_Node000001_Node000030"><a xlink:title=" ">
<path fill="none" stroke="#63b8ff" d="M622.59,-349.7C701.86,-348.78 859.45,-341.91 987,-305 1040.27,-289.59 1052.68,-280.5 1099,-250 1125.83,-232.33 1153.45,-207.29 1170.17,-191.22"/>
<polygon fill="#63b8ff" stroke="#63b8ff" points="1172.73,-193.61 1177.45,-184.12 1167.85,-188.6 1172.73,-193.61"/>
</a>
</g>
</g>
<!-- Node3&#45;&gt;Node2 -->
<g id="edge9_Node000003_Node000002" class="edge">
<title>Node3&#45;&gt;Node2</title>
<g id="a_edge9_Node000003_Node000002"><a xlink:title=" ">
<path fill="none" stroke="#63b8ff" d="M395.74,-109.93C358.9,-99.75 311,-80.83 333,-55 364,-18.6 510.78,-11.87 576.75,-10.7"/>
<polygon fill="#63b8ff" stroke="#63b8ff" points="577.03,-14.2 586.98,-10.55 576.93,-7.2 577.03,-14.2"/>
</a>
</g>
</g>
<!-- Node4 -->
<g id="Node000004" class="node">
<title>Node4</title>
<g id="a_Node000004"><a xlink:title=" ">
<polygon fill="#e0e0e0" stroke="#999999" points="392,-74 342,-74 342,-55 392,-55 392,-74"/>
<text text-anchor="middle" x="367" y="-62" font-family="Helvetica,sans-Serif" font-size="10.00">atomic</text>
</a>
</g>
</g>
<!-- Node3&#45;&gt;Node4 -->
<g id="edge3_Node000003_Node000004" class="edge">
<title>Node3&#45;&gt;Node4</title>
<g id="a_edge3_Node000003_Node000004"><a xlink:title=" ">
<path fill="none" stroke="#63b8ff" d="M422.4,-109.98C412.54,-102.07 397.65,-90.11 385.78,-80.58"/>
<polygon fill="#63b8ff" stroke="#63b8ff" points="387.79,-77.7 377.8,-74.17 383.4,-83.16 387.79,-77.7"/>
</a>
</g>
</g>
<!-- Node5 -->
<g id="Node000005" class="node">
<title>Node5</title>
<g id="a_Node000005"><a xlink:title=" ">
<polygon fill="#e0e0e0" stroke="#999999" points="456,-74 410,-74 410,-55 456,-55 456,-74"/>
<text text-anchor="middle" x="433" y="-62" font-family="Helvetica,sans-Serif" font-size="10.00">cstdio</text>
</a>
</g>
</g>
<!-- Node3&#45;&gt;Node5 -->
<g id="edge4_Node000003_Node000005" class="edge">
<title>Node3&#45;&gt;Node5</title>
<g id="a_edge4_Node000003_Node000005"><a xlink:title=" ">
<path fill="none" stroke="#63b8ff" d="M433,-109.75C433,-102.8 433,-92.85 433,-84.13"/>
<polygon fill="#63b8ff" stroke="#63b8ff" points="436.5,-84.09 433,-74.09 429.5,-84.09 436.5,-84.09"/>
</a>
</g>
</g>
<!-- Node6 -->
<g id="Node000006" class="node">
<title>Node6</title>
<g id="a_Node000006"><a xlink:title=" ">
<polygon fill="#e0e0e0" stroke="#999999" points="523.5,-74 474.5,-74 474.5,-55 523.5,-55 523.5,-74"/>
<text text-anchor="middle" x="499" y="-62" font-family="Helvetica,sans-Serif" font-size="10.00">cstdlib</text>
</a>
</g>
</g>
<!-- Node3&#45;&gt;Node6 -->
<g id="edge5_Node000003_Node000006" class="edge">
<title>Node3&#45;&gt;Node6</title>
<g id="a_edge5_Node000003_Node000006"><a xlink:title=" ">
<path fill="none" stroke="#63b8ff" d="M443.6,-109.98C453.46,-102.07 468.35,-90.11 480.22,-80.58"/>
<polygon fill="#63b8ff" stroke="#63b8ff" points="482.6,-83.16 488.2,-74.17 478.21,-77.7 482.6,-83.16"/>
</a>
</g>
</g>
<!-- Node7 -->
<g id="Node000007" class="node">
<title>Node7</title>
<g id="a_Node000007"><a xlink:title=" ">
<polygon fill="#e0e0e0" stroke="#999999" points="202,-74 142,-74 142,-55 202,-55 202,-74"/>
<text text-anchor="middle" x="172" y="-62" font-family="Helvetica,sans-Serif" font-size="10.00">iostream</text>
</a>
</g>
</g>
<!-- Node3&#45;&gt;Node7 -->
<g id="edge6_Node000003_Node000007" class="edge">
<title>Node3&#45;&gt;Node7</title>
<g id="a_edge6_Node000003_Node000007"><a xlink:title=" ">
<path fill="none" stroke="#63b8ff" d="M389.78,-109.94C345.21,-101.08 273.71,-86.77 212,-74 211.9,-73.98 211.8,-73.96 211.7,-73.94"/>
<polygon fill="#63b8ff" stroke="#63b8ff" points="212.64,-70.56 202.13,-71.94 211.21,-77.41 212.64,-70.56"/>
</a>
</g>
</g>
<!-- Node8 -->
<g id="Node000008" class="node">
<title>Node8</title>
<g id="a_Node000008"><a xlink:title=" ">
<polygon fill="#e0e0e0" stroke="#999999" points="714,-74 656,-74 656,-55 714,-55 714,-74"/>
<text text-anchor="middle" x="685" y="-62" font-family="Helvetica,sans-Serif" font-size="10.00">memory</text>
</a>
</g>
</g>
<!-- Node3&#45;&gt;Node8 -->
<g id="edge7_Node000003_Node000008" class="edge">
<title>Node3&#45;&gt;Node8</title>
<g id="a_edge7_Node000003_Node000008"><a xlink:title=" ">
<path fill="none" stroke="#63b8ff" d="M473.49,-109.98C520.83,-100.03 598.66,-83.66 645.55,-73.8"/>
<polygon fill="#63b8ff" stroke="#63b8ff" points="646.57,-77.16 655.63,-71.68 645.13,-70.31 646.57,-77.16"/>
</a>
</g>
</g>
<!-- Node9 -->
<g id="Node000009" class="node">
<title>Node9</title>
<g id="a_Node000009"><a xlink:title=" ">
<polygon fill="#e0e0e0" stroke="#999999" points="285.5,-74 220.5,-74 220.5,-55 285.5,-55 285.5,-74"/>
<text text-anchor="middle" x="253" y="-62" font-family="Helvetica,sans-Serif" font-size="10.00">stdexcept</text>
</a>
</g>
</g>
<!-- Node3&#45;&gt;Node9 -->
<g id="edge8_Node000003_Node000009" class="edge">
<title>Node3&#45;&gt;Node9</title>
<g id="a_edge8_Node000003_Node000009"><a xlink:title=" ">
<path fill="none" stroke="#63b8ff" d="M404.08,-109.98C373.73,-101.05 325.83,-86.94 292.12,-77.02"/>
<polygon fill="#63b8ff" stroke="#63b8ff" points="292.73,-73.55 282.15,-74.08 290.75,-80.26 292.73,-73.55"/>
</a>
</g>
</g>
<!-- Node10 -->
<g id="Node000010" class="node">
<title>Node10</title>
<g id="a_Node000010"><a xlink:href="../../df/def/type_8h.html" target="_top" xlink:title=" ">
<polygon fill="white" stroke="#666666" points="842,-74 770,-74 770,-55 842,-55 842,-74"/>
<text text-anchor="middle" x="806" y="-62" font-family="Helvetica,sans-Serif" font-size="10.00">type/type.h</text>
</a>
</g>
</g>
<!-- Node3&#45;&gt;Node10 -->
<g id="edge10_Node000003_Node000010" class="edge">
<title>Node3&#45;&gt;Node10</title>
<g id="a_edge10_Node000003_Node000010"><a xlink:title=" ">
<path fill="none" stroke="#63b8ff" d="M492.52,-110.04C566.86,-99.48 692.47,-81.63 759.91,-72.05"/>
<polygon fill="#63b8ff" stroke="#63b8ff" points="760.41,-75.51 769.82,-70.64 759.43,-68.58 760.41,-75.51"/>
</a>
</g>
</g>
<!-- Node10&#45;&gt;Node2 -->
<g id="edge12_Node000010_Node000002" class="edge">
<title>Node10&#45;&gt;Node2</title>
<g id="a_edge12_Node000010_Node000002"><a xlink:title=" ">
<path fill="none" stroke="#63b8ff" d="M774.35,-54.98C737.66,-45.12 677.56,-28.94 640.8,-19.06"/>
<polygon fill="#63b8ff" stroke="#63b8ff" points="641.66,-15.66 631.1,-16.45 639.85,-22.42 641.66,-15.66"/>
</a>
</g>
</g>
<!-- Node11 -->
<g id="Node000011" class="node">
<title>Node11</title>
<g id="a_Node000011"><a xlink:title=" ">
<polygon fill="#e0e0e0" stroke="#999999" points="1027,-19 977,-19 977,0 1027,0 1027,-19"/>
<text text-anchor="middle" x="1002" y="-7" font-family="Helvetica,sans-Serif" font-size="10.00">cstdint</text>
</a>
</g>
</g>
<!-- Node10&#45;&gt;Node11 -->
<g id="edge11_Node000010_Node000011" class="edge">
<title>Node10&#45;&gt;Node11</title>
<g id="a_edge11_Node000010_Node000011"><a xlink:title=" ">
<path fill="none" stroke="#63b8ff" d="M837.49,-54.98C872.9,-45.41 930.25,-29.9 967.03,-19.96"/>
<polygon fill="#63b8ff" stroke="#63b8ff" points="968.08,-23.3 976.82,-17.31 966.25,-16.54 968.08,-23.3"/>
</a>
</g>
</g>
<!-- Node12 -->
<g id="Node000012" class="node">
<title>Node12</title>
<g id="a_Node000012"><a xlink:href="../../dc/df2/type__id_8h.html" target="_top" xlink:title=" ">
<polygon fill="white" stroke="#666666" points="849,-19 763,-19 763,0 849,0 849,-19"/>
<text text-anchor="middle" x="806" y="-7" font-family="Helvetica,sans-Serif" font-size="10.00">type/type_id.h</text>
</a>
</g>
</g>
<!-- Node10&#45;&gt;Node12 -->
<g id="edge13_Node000010_Node000012" class="edge">
<title>Node10&#45;&gt;Node12</title>
<g id="a_edge13_Node000010_Node000012"><a xlink:title=" ">
<path fill="none" stroke="#63b8ff" d="M806,-54.75C806,-47.8 806,-37.85 806,-29.13"/>
<polygon fill="#63b8ff" stroke="#63b8ff" points="809.5,-29.09 806,-19.09 802.5,-29.09 809.5,-29.09"/>
</a>
</g>
</g>
<!-- Node13&#45;&gt;Node2 -->
<g id="edge15_Node000013_Node000002" class="edge">
<title>Node13&#45;&gt;Node2</title>
<g id="a_edge15_Node000013_Node000002"><a xlink:title=" ">
<path fill="none" stroke="#63b8ff" d="M208.62,-285.9C158.21,-272.08 76,-239.7 76,-175.5 76,-175.5 76,-175.5 76,-118.5 76,-85.84 85.44,-72.53 113,-55 152.06,-30.16 472.92,-15.74 576.73,-11.69"/>
<polygon fill="#63b8ff" stroke="#63b8ff" points="577.05,-15.18 586.91,-11.3 576.79,-8.18 577.05,-15.18"/>
</a>
</g>
</g>
<!-- Node14 -->
<g id="Node000014" class="node">
<title>Node14</title>
<g id="a_Node000014"><a xlink:href="../../d2/d58/integer__parent__type_8h.html" target="_top" xlink:title=" ">
<polygon fill="white" stroke="#666666" points="561.5,-250 448.5,-250 448.5,-220 561.5,-220 561.5,-250"/>
<text text-anchor="start" x="456.5" y="-238" font-family="Helvetica,sans-Serif" font-size="10.00">type/integer_parent</text>
<text text-anchor="middle" x="505" y="-227" font-family="Helvetica,sans-Serif" font-size="10.00">_type.h</text>
</a>
</g>
</g>
<!-- Node13&#45;&gt;Node14 -->
<g id="edge16_Node000013_Node000014" class="edge">
<title>Node13&#45;&gt;Node14</title>
<g id="a_edge16_Node000013_Node000014"><a xlink:title=" ">
<path fill="none" stroke="#63b8ff" d="M284.52,-285.99C324.79,-276.86 389.56,-262.17 438.51,-251.08"/>
<polygon fill="#63b8ff" stroke="#63b8ff" points="439.41,-254.46 448.39,-248.84 437.86,-247.63 439.41,-254.46"/>
</a>
</g>
</g>
<!-- Node14&#45;&gt;Node2 -->
<g id="edge17_Node000014_Node000002" class="edge">
<title>Node14&#45;&gt;Node2</title>
<g id="a_edge17_Node000014_Node000002"><a xlink:title=" ">
<path fill="none" stroke="#63b8ff" d="M509.18,-219.98C518.69,-189.05 543.65,-113.13 576,-55 581.43,-45.25 588.71,-35.19 595.06,-27.12"/>
<polygon fill="#63b8ff" stroke="#63b8ff" points="597.87,-29.21 601.44,-19.23 592.43,-24.8 597.87,-29.21"/>
</a>
</g>
</g>
<!-- Node14&#45;&gt;Node3 -->
<g id="edge18_Node000014_Node000003" class="edge">
<title>Node14&#45;&gt;Node3</title>
<g id="a_edge18_Node000014_Node000003"><a xlink:title=" ">
<path fill="none" stroke="#63b8ff" d="M495.88,-219.63C482.64,-198.75 458.12,-160.09 443.92,-137.72"/>
<polygon fill="#63b8ff" stroke="#63b8ff" points="446.85,-135.8 438.54,-129.23 440.94,-139.55 446.85,-135.8"/>
</a>
</g>
</g>
<!-- Node15 -->
<g id="Node000015" class="node">
<title>Node15</title>
<g id="a_Node000015"><a xlink:href="../../d4/d5c/numeric__type_8h.html" target="_top" xlink:title=" ">
<polygon fill="white" stroke="#666666" points="917.5,-184 800.5,-184 800.5,-165 917.5,-165 917.5,-184"/>
<text text-anchor="middle" x="859" y="-172" font-family="Helvetica,sans-Serif" font-size="10.00">type/numeric_type.h</text>
</a>
</g>
</g>
<!-- Node14&#45;&gt;Node15 -->
<g id="edge19_Node000014_Node000015" class="edge">
<title>Node14&#45;&gt;Node15</title>
<g id="a_edge19_Node000014_Node000015"><a xlink:title=" ">
<path fill="none" stroke="#63b8ff" d="M561.88,-224.6C626.38,-213.94 731.2,-196.62 797.54,-185.66"/>
<polygon fill="#63b8ff" stroke="#63b8ff" points="798.15,-189.1 807.45,-184.02 797.01,-182.2 798.15,-189.1"/>
</a>
</g>
</g>
<!-- Node16 -->
<g id="Node000016" class="node">
<title>Node16</title>
<g id="a_Node000016"><a xlink:title=" ">
<polygon fill="#e0e0e0" stroke="#999999" points="882.5,-129 835.5,-129 835.5,-110 882.5,-110 882.5,-129"/>
<text text-anchor="middle" x="859" y="-117" font-family="Helvetica,sans-Serif" font-size="10.00">cmath</text>
</a>
</g>
</g>
<!-- Node15&#45;&gt;Node16 -->
<g id="edge20_Node000015_Node000016" class="edge">
<title>Node15&#45;&gt;Node16</title>
<g id="a_edge20_Node000015_Node000016"><a xlink:title=" ">
<path fill="none" stroke="#63b8ff" d="M859,-164.75C859,-157.8 859,-147.85 859,-139.13"/>
<polygon fill="#63b8ff" stroke="#63b8ff" points="862.5,-139.09 859,-129.09 855.5,-139.09 862.5,-139.09"/>
</a>
</g>
</g>
<!-- Node15&#45;&gt;Node17 -->
<g id="edge21_Node000015_Node000017" class="edge">
<title>Node15&#45;&gt;Node17</title>
<g id="a_edge21_Node000015_Node000017"><a xlink:title=" ">
<path fill="none" stroke="#63b8ff" d="M872.98,-164.98C886.47,-156.77 907.13,-144.18 923.04,-134.49"/>
<polygon fill="#63b8ff" stroke="#63b8ff" points="925.05,-137.36 931.77,-129.17 921.41,-131.38 925.05,-137.36"/>
</a>
</g>
</g>
<!-- Node17&#45;&gt;Node2 -->
<g id="edge24_Node000017_Node000002" class="edge">
<title>Node17&#45;&gt;Node2</title>
<g id="a_edge24_Node000017_Node000002"><a xlink:title=" ">
<path fill="none" stroke="#63b8ff" d="M984.75,-113.78C1034.44,-106.25 1110.75,-88.8 1080,-55 1065.2,-38.74 745.51,-18.54 641.43,-12.37"/>
<polygon fill="#63b8ff" stroke="#63b8ff" points="641.4,-8.87 631.21,-11.77 640.99,-15.85 641.4,-8.87"/>
</a>
</g>
</g>
<!-- Node17&#45;&gt;Node8 -->
<g id="edge23_Node000017_Node000008" class="edge">
<title>Node17&#45;&gt;Node8</title>
<g id="a_edge23_Node000017_Node000008"><a xlink:title=" ">
<path fill="none" stroke="#63b8ff" d="M907.49,-110.68C858.37,-100.71 773.89,-83.55 724.37,-73.49"/>
<polygon fill="#63b8ff" stroke="#63b8ff" points="724.85,-70.02 714.36,-71.46 723.46,-76.88 724.85,-70.02"/>
</a>
</g>
</g>
<!-- Node17&#45;&gt;Node10 -->
<g id="edge32_Node000017_Node000010" class="edge">
<title>Node17&#45;&gt;Node10</title>
<g id="a_edge32_Node000017_Node000010"><a xlink:title=" ">
<path fill="none" stroke="#63b8ff" d="M923.51,-109.98C900.48,-101.27 864.46,-87.63 838.37,-77.75"/>
<polygon fill="#63b8ff" stroke="#63b8ff" points="839.49,-74.44 828.9,-74.17 837.02,-80.98 839.49,-74.44"/>
</a>
</g>
</g>
<!-- Node18 -->
<g id="Node000018" class="node">
<title>Node18</title>
<g id="a_Node000018"><a xlink:title=" ">
<polygon fill="#e0e0e0" stroke="#999999" points="910,-74 860,-74 860,-55 910,-55 910,-74"/>
<text text-anchor="middle" x="885" y="-62" font-family="Helvetica,sans-Serif" font-size="10.00">cstring</text>
</a>
</g>
</g>
<!-- Node17&#45;&gt;Node18 -->
<g id="edge22_Node000017_Node000018" class="edge">
<title>Node17&#45;&gt;Node18</title>
<g id="a_edge22_Node000017_Node000018"><a xlink:title=" ">
<path fill="none" stroke="#63b8ff" d="M936.2,-109.98C927.18,-102.15 913.59,-90.34 902.68,-80.86"/>
<polygon fill="#63b8ff" stroke="#63b8ff" points="904.82,-78.09 894.98,-74.17 900.23,-83.37 904.82,-78.09"/>
</a>
</g>
</g>
<!-- Node19 -->
<g id="Node000019" class="node">
<title>Node19</title>
<g id="a_Node000019"><a xlink:title=" ">
<polygon fill="#e0e0e0" stroke="#999999" points="973.5,-74 928.5,-74 928.5,-55 973.5,-55 973.5,-74"/>
<text text-anchor="middle" x="951" y="-62" font-family="Helvetica,sans-Serif" font-size="10.00">utility</text>
</a>
</g>
</g>
<!-- Node17&#45;&gt;Node19 -->
<g id="edge25_Node000017_Node000019" class="edge">
<title>Node17&#45;&gt;Node19</title>
<g id="a_edge25_Node000017_Node000019"><a xlink:title=" ">
<path fill="none" stroke="#63b8ff" d="M946.83,-109.75C947.48,-102.8 948.42,-92.85 949.24,-84.13"/>
<polygon fill="#63b8ff" stroke="#63b8ff" points="952.73,-84.37 950.19,-74.09 945.77,-83.72 952.73,-84.37"/>
</a>
</g>
</g>
<!-- Node20 -->
<g id="Node000020" class="node">
<title>Node20</title>
<g id="a_Node000020"><a xlink:title=" ">
<polygon fill="#e0e0e0" stroke="#999999" points="1070.5,-74 991.5,-74 991.5,-55 1070.5,-55 1070.5,-74"/>
<text text-anchor="middle" x="1031" y="-62" font-family="Helvetica,sans-Serif" font-size="10.00">fmt/format.h</text>
</a>
</g>
</g>
<!-- Node17&#45;&gt;Node20 -->
<g id="edge26_Node000017_Node000020" class="edge">
<title>Node17&#45;&gt;Node20</title>
<g id="a_edge26_Node000017_Node000020"><a xlink:title=" ">
<path fill="none" stroke="#63b8ff" d="M959.66,-109.98C972.84,-101.77 993.03,-89.18 1008.57,-79.49"/>
<polygon fill="#63b8ff" stroke="#63b8ff" points="1010.46,-82.43 1017.09,-74.17 1006.76,-76.49 1010.46,-82.43"/>
</a>
</g>
</g>
<!-- Node21 -->
<g id="Node000021" class="node">
<title>Node21</title>
<g id="a_Node000021"><a xlink:href="../../d9/d86/limits_8h.html" target="_top" xlink:title=" ">
<polygon fill="white" stroke="#666666" points="1281,-74 1203,-74 1203,-55 1281,-55 1281,-74"/>
<text text-anchor="middle" x="1242" y="-62" font-family="Helvetica,sans-Serif" font-size="10.00">type/limits.h</text>
</a>
</g>
</g>
<!-- Node17&#45;&gt;Node21 -->
<g id="edge27_Node000017_Node000021" class="edge">
<title>Node17&#45;&gt;Node21</title>
<g id="a_edge27_Node000017_Node000021"><a xlink:title=" ">
<path fill="none" stroke="#63b8ff" d="M984.7,-111.57C1038.06,-102.02 1134.27,-84.79 1192.72,-74.32"/>
<polygon fill="#63b8ff" stroke="#63b8ff" points="1193.6,-77.72 1202.82,-72.51 1192.36,-70.83 1193.6,-77.72"/>
</a>
</g>
</g>
<!-- Node21&#45;&gt;Node11 -->
<g id="edge30_Node000021_Node000011" class="edge">
<title>Node21&#45;&gt;Node11</title>
<g id="a_edge30_Node000021_Node000011"><a xlink:title=" ">
<path fill="none" stroke="#63b8ff" d="M1203.44,-54.98C1157.56,-44.85 1081.61,-28.08 1037.24,-18.28"/>
<polygon fill="#63b8ff" stroke="#63b8ff" points="1037.73,-14.81 1027.21,-16.07 1036.22,-21.64 1037.73,-14.81"/>
</a>
</g>
</g>
<!-- Node22 -->
<g id="Node000022" class="node">
<title>Node22</title>
<g id="a_Node000022"><a xlink:title=" ">
<polygon fill="#e0e0e0" stroke="#999999" points="1199,-19 1155,-19 1155,0 1199,0 1199,-19"/>
<text text-anchor="middle" x="1177" y="-7" font-family="Helvetica,sans-Serif" font-size="10.00">cfloat</text>
</a>
</g>
</g>
<!-- Node21&#45;&gt;Node22 -->
<g id="edge28_Node000021_Node000022" class="edge">
<title>Node21&#45;&gt;Node22</title>
<g id="a_edge28_Node000021_Node000022"><a xlink:title=" ">
<path fill="none" stroke="#63b8ff" d="M1231.56,-54.98C1221.85,-47.07 1207.18,-35.11 1195.5,-25.58"/>
<polygon fill="#63b8ff" stroke="#63b8ff" points="1197.6,-22.78 1187.63,-19.17 1193.17,-28.2 1197.6,-22.78"/>
</a>
</g>
</g>
<!-- Node23 -->
<g id="Node000023" class="node">
<title>Node23</title>
<g id="a_Node000023"><a xlink:title=" ">
<polygon fill="#e0e0e0" stroke="#999999" points="1267,-19 1217,-19 1217,0 1267,0 1267,-19"/>
<text text-anchor="middle" x="1242" y="-7" font-family="Helvetica,sans-Serif" font-size="10.00">climits</text>
</a>
</g>
</g>
<!-- Node21&#45;&gt;Node23 -->
<g id="edge29_Node000021_Node000023" class="edge">
<title>Node21&#45;&gt;Node23</title>
<g id="a_edge29_Node000021_Node000023"><a xlink:title=" ">
<path fill="none" stroke="#63b8ff" d="M1242,-54.75C1242,-47.8 1242,-37.85 1242,-29.13"/>
<polygon fill="#63b8ff" stroke="#63b8ff" points="1245.5,-29.09 1242,-19.09 1238.5,-29.09 1245.5,-29.09"/>
</a>
</g>
</g>
<!-- Node24 -->
<g id="Node000024" class="node">
<title>Node24</title>
<g id="a_Node000024"><a xlink:title=" ">
<polygon fill="#e0e0e0" stroke="#999999" points="1329,-19 1285,-19 1285,0 1329,0 1329,-19"/>
<text text-anchor="middle" x="1307" y="-7" font-family="Helvetica,sans-Serif" font-size="10.00">limits</text>
</a>
</g>
</g>
<!-- Node21&#45;&gt;Node24 -->
<g id="edge31_Node000021_Node000024" class="edge">
<title>Node21&#45;&gt;Node24</title>
<g id="a_edge31_Node000021_Node000024"><a xlink:title=" ">
<path fill="none" stroke="#63b8ff" d="M1252.44,-54.98C1262.15,-47.07 1276.82,-35.11 1288.5,-25.58"/>
<polygon fill="#63b8ff" stroke="#63b8ff" points="1290.83,-28.2 1296.37,-19.17 1286.4,-22.78 1290.83,-28.2"/>
</a>
</g>
</g>
<!-- Node25&#45;&gt;Node2 -->
<g id="edge34_Node000025_Node000002" class="edge">
<title>Node25&#45;&gt;Node2</title>
<g id="a_edge34_Node000025_Node000002"><a xlink:title=" ">
<path fill="none" stroke="#63b8ff" d="M726.94,-164.79C733.44,-143.75 746.7,-89.39 723,-55 704.69,-28.44 667.99,-17.73 641.16,-13.41"/>
<polygon fill="#63b8ff" stroke="#63b8ff" points="641.45,-9.92 631.07,-12.01 640.49,-16.85 641.45,-9.92"/>
</a>
</g>
</g>
<!-- Node25&#45;&gt;Node3 -->
<g id="edge35_Node000025_Node000003" class="edge">
<title>Node25&#45;&gt;Node3</title>
<g id="a_edge35_Node000025_Node000003"><a xlink:title=" ">
<path fill="none" stroke="#63b8ff" d="M677.25,-164.98C626.28,-155.7 544.69,-140.84 490.01,-130.88"/>
<polygon fill="#63b8ff" stroke="#63b8ff" points="490.59,-127.43 480.12,-129.08 489.33,-134.32 490.59,-127.43"/>
</a>
</g>
</g>
<!-- Node25&#45;&gt;Node10 -->
<g id="edge36_Node000025_Node000010" class="edge">
<title>Node25&#45;&gt;Node10</title>
<g id="a_edge36_Node000025_Node000010"><a xlink:title=" ">
<path fill="none" stroke="#63b8ff" d="M730.71,-164.66C744.35,-146.69 775.52,-105.64 793.18,-82.38"/>
<polygon fill="#63b8ff" stroke="#63b8ff" points="796.17,-84.24 799.43,-74.16 790.59,-80.01 796.17,-84.24"/>
</a>
</g>
</g>
<!-- Node25&#45;&gt;Node17 -->
<g id="edge37_Node000025_Node000017" class="edge">
<title>Node25&#45;&gt;Node17</title>
<g id="a_edge37_Node000025_Node000017"><a xlink:title=" ">
<path fill="none" stroke="#63b8ff" d="M759.67,-164.98C797.83,-155.87 858.47,-141.4 900.15,-131.45"/>
<polygon fill="#63b8ff" stroke="#63b8ff" points="901.14,-134.81 910.05,-129.08 899.51,-128 901.14,-134.81"/>
</a>
</g>
</g>
<!-- Node26&#45;&gt;Node2 -->
<g id="edge39_Node000026_Node000002" class="edge">
<title>Node26&#45;&gt;Node2</title>
<g id="a_edge39_Node000026_Node000002"><a xlink:title=" ">
<path fill="none" stroke="#63b8ff" d="M1040.53,-225.35C1067.23,-197.23 1144.7,-107.25 1097,-55 1089.28,-46.54 749.21,-20.82 641.42,-12.87"/>
<polygon fill="#63b8ff" stroke="#63b8ff" points="641.38,-9.36 631.15,-12.11 640.87,-16.34 641.38,-9.36"/>
</a>
</g>
</g>
<!-- Node26&#45;&gt;Node15 -->
<g id="edge40_Node000026_Node000015" class="edge">
<title>Node26&#45;&gt;Node15</title>
<g id="a_edge40_Node000026_Node000015"><a xlink:title=" ">
<path fill="none" stroke="#63b8ff" d="M1006.84,-225.49C977.12,-215.44 927.48,-198.66 894.01,-187.34"/>
<polygon fill="#63b8ff" stroke="#63b8ff" points="894.78,-183.9 884.19,-184.02 892.54,-190.54 894.78,-183.9"/>
</a>
</g>
</g>
<!-- Node27&#45;&gt;Node2 -->
<g id="edge42_Node000027_Node000002" class="edge">
<title>Node27&#45;&gt;Node2</title>
<g id="a_edge42_Node000027_Node000002"><a xlink:title=" ">
<path fill="none" stroke="#63b8ff" d="M337.85,-285.97C266.41,-268.06 114,-224.15 114,-175.5 114,-175.5 114,-175.5 114,-118.5 114,-89.04 110.22,-73.67 133,-55 167.22,-26.95 474.67,-14.75 576.45,-11.46"/>
<polygon fill="#63b8ff" stroke="#63b8ff" points="576.84,-14.95 586.73,-11.14 576.62,-7.96 576.84,-14.95"/>
</a>
</g>
</g>
<!-- Node27&#45;&gt;Node14 -->
<g id="edge43_Node000027_Node000014" class="edge">
<title>Node27&#45;&gt;Node14</title>
<g id="a_edge43_Node000027_Node000014"><a xlink:title=" ">
<path fill="none" stroke="#63b8ff" d="M393.05,-285.99C411.65,-277.68 440.56,-264.78 464.34,-254.16"/>
<polygon fill="#63b8ff" stroke="#63b8ff" points="465.8,-257.34 473.51,-250.06 462.95,-250.95 465.8,-257.34"/>
</a>
</g>
</g>
<!-- Node28&#45;&gt;Node2 -->
<g id="edge45_Node000028_Node000002" class="edge">
<title>Node28&#45;&gt;Node2</title>
<g id="a_edge45_Node000028_Node000002"><a xlink:title=" ">
<path fill="none" stroke="#63b8ff" d="M526.06,-285.9C540.51,-278.43 559.74,-266.23 571,-250 590.48,-221.92 590,-209.67 590,-175.5 590,-175.5 590,-175.5 590,-118.5 590,-86.56 598.16,-50.1 603.78,-28.77"/>
<polygon fill="#63b8ff" stroke="#63b8ff" points="607.17,-29.66 606.44,-19.09 600.42,-27.81 607.17,-29.66"/>
</a>
</g>
</g>
<!-- Node28&#45;&gt;Node14 -->
<g id="edge46_Node000028_Node000014" class="edge">
<title>Node28&#45;&gt;Node14</title>
<g id="a_edge46_Node000028_Node000014"><a xlink:title=" ">
<path fill="none" stroke="#63b8ff" d="M506.7,-285.87C506.47,-279.11 506.14,-269.35 505.83,-260.26"/>
<polygon fill="#63b8ff" stroke="#63b8ff" points="509.32,-259.99 505.48,-250.11 502.33,-260.23 509.32,-259.99"/>
</a>
</g>
</g>
<!-- Node29&#45;&gt;Node2 -->
<g id="edge48_Node000029_Node000002" class="edge">
<title>Node29&#45;&gt;Node2</title>
<g id="a_edge48_Node000029_Node000002"><a xlink:title=" ">
<path fill="none" stroke="#63b8ff" d="M636.77,-285.86C634.1,-266.27 628,-216.97 628,-175.5 628,-175.5 628,-175.5 628,-118.5 628,-86.56 619.84,-50.1 614.22,-28.77"/>
<polygon fill="#63b8ff" stroke="#63b8ff" points="617.58,-27.81 611.56,-19.09 610.83,-29.66 617.58,-27.81"/>
</a>
</g>
</g>
<!-- Node29&#45;&gt;Node14 -->
<g id="edge49_Node000029_Node000014" class="edge">
<title>Node29&#45;&gt;Node14</title>
<g id="a_edge49_Node000029_Node000014"><a xlink:title=" ">
<path fill="none" stroke="#63b8ff" d="M618.66,-285.99C599.77,-277.68 570.42,-264.78 546.28,-254.16"/>
<polygon fill="#63b8ff" stroke="#63b8ff" points="547.54,-250.89 536.98,-250.06 544.72,-257.29 547.54,-250.89"/>
</a>
</g>
</g>
<!-- Node30&#45;&gt;Node2 -->
<g id="edge52_Node000030_Node000002" class="edge">
<title>Node30&#45;&gt;Node2</title>
<g id="a_edge52_Node000030_Node000002"><a xlink:title=" ">
<path fill="none" stroke="#63b8ff" d="M1186.44,-164.9C1187.06,-142.62 1185.28,-82.88 1151,-55 1141.04,-46.9 756.83,-20.45 641.44,-12.67"/>
<polygon fill="#63b8ff" stroke="#63b8ff" points="641.34,-9.15 631.13,-11.98 640.87,-16.14 641.34,-9.15"/>
</a>
</g>
</g>
<!-- Node30&#45;&gt;Node17 -->
<g id="edge53_Node000030_Node000017" class="edge">
<title>Node30&#45;&gt;Node17</title>
<g id="a_edge53_Node000030_Node000017"><a xlink:title=" ">
<path fill="none" stroke="#63b8ff" d="M1147.44,-164.98C1105.93,-155.82 1039.79,-141.21 994.71,-131.26"/>
<polygon fill="#63b8ff" stroke="#63b8ff" points="995.38,-127.82 984.86,-129.08 993.87,-134.66 995.38,-127.82"/>
</a>
</g>
</g>
</g>
</svg>
