<?xml version="1.0" encoding="UTF-8" standalone="no"?>
<!DOCTYPE svg PUBLIC "-//W3C//DTD SVG 1.1//EN"
 "http://www.w3.org/Graphics/SVG/1.1/DTD/svg11.dtd">
<!-- Generated by graphviz version 2.43.0 (0)
 -->
<!-- Title: src/include/execution/plans/seq_scan_plan.h Pages: 1 -->
<!--zoomable 258 -->

<svg id="main" version="1.1" xmlns="http://www.w3.org/2000/svg" xmlns:xlink="http://www.w3.org/1999/xlink" xml:space="preserve" onload="init(evt)">
<style type="text/css"><![CDATA[
.node, .edge {opacity: 0.7;}
.node.selected, .edge.selected {opacity: 1;}
.edge:hover path { stroke: red; }
.edge:hover polygon { stroke: red; fill: red; }
]]></style>

<defs>
  <circle id="rim" cx="0" cy="0" r="7"/>
  <circle id="rim2" cx="0" cy="0" r="3.5"/>
  <g id="zoomPlus">
    <use xlink:href="#rim" fill="#404040"><set attributeName="fill" to="#808080" begin="zoomplus.mouseover" end="zoomplus.mouseout"/></use>
    <path d="M-4,0h8M0,-4v8" fill="none" stroke="white" stroke-width="1.5" pointer-events="none"/>
  </g>
  <g id="zoomMin">
    <use xlink:href="#rim" fill="#404040"><set attributeName="fill" to="#808080" begin="zoomminus.mouseover" end="zoomminus.mouseout"/></use>
    <path d="M-4,0h8" fill="none" stroke="white" stroke-width="1.5" pointer-events="none"/>
  </g>
  <g id="arrowUp" transform="translate(30 24)">
    <use xlink:href="#rim"/>
    <path pointer-events="none" fill="none" stroke="white" stroke-width="1.5" d="M0,-3.0v7 M-2.5,-0.5L0,-3.0L2.5,-0.5"/>
  </g>
  <g id="arrowRight" transform="rotate(90) translate(36 -43)">
    <use xlink:href="#rim"/>
    <path pointer-events="none" fill="none" stroke="white" stroke-width="1.5" d="M0,-3.0v7 M-2.5,-0.5L0,-3.0L2.5,-0.5"/>
  </g>
  <g id="arrowDown" transform="rotate(180) translate(-30 -48)">
    <use xlink:href="#rim"/>
    <path pointer-events="none" fill="none" stroke="white" stroke-width="1.5" d="M0,-3.0v7 M-2.5,-0.5L0,-3.0L2.5,-0.5"/>
  </g>
  <g id="arrowLeft" transform="rotate(270) translate(-36 17)">
    <use xlink:href="#rim"/>
    <path pointer-events="none" fill="none" stroke="white" stroke-width="1.5" d="M0,-3.0v7 M-2.5,-0.5L0,-3.0L2.5,-0.5"/>
  </g>
  <g id="resetDef">
    <use xlink:href="#rim2" fill="#404040"><set attributeName="fill" to="#808080" begin="reset.mouseover" end="reset.mouseout"/></use>
  </g>
</defs>
<script type="application/ecmascript">
var viewWidth = 1861;
var viewHeight = 258;
var sectionId = 'dynsection-1';
</script>
<script type="application/ecmascript" xlink:href="../../svg.min.js"/>
<svg id="graph" class="graph">
<g id="viewport">
<title>src/include/execution/plans/seq_scan_plan.h</title>
<!-- Node1 -->
<g id="Node000001" class="node">
<title>Node1</title>
<g id="a_Node000001"><a xlink:title=" ">
<polygon fill="#999999" stroke="#666666" points="1046,-250 917,-250 917,-220 1046,-220 1046,-250"/>
<text text-anchor="start" x="925" y="-238" font-family="Helvetica,sans-Serif" font-size="10.00">src/include/execution</text>
<text text-anchor="middle" x="981.5" y="-227" font-family="Helvetica,sans-Serif" font-size="10.00">/plans/seq_scan_plan.h</text>
</a>
</g>
</g>
<!-- Node2 -->
<g id="Node000002" class="node">
<title>Node2</title>
<g id="a_Node000002"><a xlink:href="../../dc/dbe/plan__node_8cpp.html" target="_top" xlink:title=" ">
<polygon fill="white" stroke="#666666" points="105,-178.5 0,-178.5 0,-148.5 105,-148.5 105,-178.5"/>
<text text-anchor="start" x="8" y="-166.5" font-family="Helvetica,sans-Serif" font-size="10.00">src/execution/plan</text>
<text text-anchor="middle" x="52.5" y="-155.5" font-family="Helvetica,sans-Serif" font-size="10.00">_node.cpp</text>
</a>
</g>
</g>
<!-- Node1&#45;&gt;Node2 -->
<g id="edge1_Node000001_Node000002" class="edge">
<title>Node1&#45;&gt;Node2</title>
<g id="a_edge1_Node000001_Node000002"><a xlink:title=" ">
<path fill="none" stroke="#63b8ff" d="M906.56,-232.05C725.02,-226.96 265.53,-211.66 114.5,-184 107.17,-182.66 99.51,-180.71 92.16,-178.56"/>
<polygon fill="#63b8ff" stroke="#63b8ff" points="906.72,-235.56 916.82,-232.34 906.92,-228.56 906.72,-235.56"/>
</a>
</g>
</g>
<!-- Node3 -->
<g id="Node000003" class="node">
<title>Node3</title>
<g id="a_Node000003"><a xlink:href="../../d6/d7f/filter__executor_8h.html" target="_top" xlink:title=" ">
<polygon fill="white" stroke="#666666" points="459.5,-178.5 311.5,-178.5 311.5,-148.5 459.5,-148.5 459.5,-178.5"/>
<text text-anchor="start" x="319.5" y="-166.5" font-family="Helvetica,sans-Serif" font-size="10.00">src/include/execution</text>
<text text-anchor="middle" x="385.5" y="-155.5" font-family="Helvetica,sans-Serif" font-size="10.00">/executors/filter_executor.h</text>
</a>
</g>
</g>
<!-- Node1&#45;&gt;Node3 -->
<g id="edge2_Node000001_Node000003" class="edge">
<title>Node1&#45;&gt;Node3</title>
<g id="a_edge2_Node000001_Node000003"><a xlink:title=" ">
<path fill="none" stroke="#63b8ff" d="M906.72,-227.46C812.84,-218.95 646.95,-202.91 505.5,-184 490.65,-182.01 474.8,-179.63 459.66,-177.22"/>
<polygon fill="#63b8ff" stroke="#63b8ff" points="906.42,-230.95 916.69,-228.36 907.04,-223.98 906.42,-230.95"/>
</a>
</g>
</g>
<!-- Node6 -->
<g id="Node000006" class="node">
<title>Node6</title>
<g id="a_Node000006"><a xlink:href="../../df/d91/projection__executor_8h.html" target="_top" xlink:title=" ">
<polygon fill="white" stroke="#666666" points="808,-184 689,-184 689,-143 808,-143 808,-184"/>
<text text-anchor="start" x="697" y="-172" font-family="Helvetica,sans-Serif" font-size="10.00">src/include/execution</text>
<text text-anchor="start" x="697" y="-161" font-family="Helvetica,sans-Serif" font-size="10.00">/executors/projection</text>
<text text-anchor="middle" x="748.5" y="-150" font-family="Helvetica,sans-Serif" font-size="10.00">_executor.h</text>
</a>
</g>
</g>
<!-- Node1&#45;&gt;Node6 -->
<g id="edge5_Node000001_Node000006" class="edge">
<title>Node1&#45;&gt;Node6</title>
<g id="a_edge5_Node000001_Node000006"><a xlink:title=" ">
<path fill="none" stroke="#63b8ff" d="M924.66,-217.04C889.29,-206.5 843.88,-192.95 808.02,-182.25"/>
<polygon fill="#63b8ff" stroke="#63b8ff" points="923.77,-220.43 934.35,-219.94 925.77,-213.72 923.77,-220.43"/>
</a>
</g>
</g>
<!-- Node8 -->
<g id="Node000008" class="node">
<title>Node8</title>
<g id="a_Node000008"><a xlink:href="../../d3/d86/seq__scan__executor_8h.html" target="_top" xlink:title=" ">
<polygon fill="white" stroke="#666666" points="293.5,-178.5 123.5,-178.5 123.5,-148.5 293.5,-148.5 293.5,-178.5"/>
<text text-anchor="start" x="131.5" y="-166.5" font-family="Helvetica,sans-Serif" font-size="10.00">src/include/execution</text>
<text text-anchor="middle" x="208.5" y="-155.5" font-family="Helvetica,sans-Serif" font-size="10.00">/executors/seq_scan_executor.h</text>
</a>
</g>
</g>
<!-- Node1&#45;&gt;Node8 -->
<g id="edge8_Node000001_Node000008" class="edge">
<title>Node1&#45;&gt;Node8</title>
<g id="a_edge8_Node000001_Node000008"><a xlink:title=" ">
<path fill="none" stroke="#63b8ff" d="M906.33,-231.68C780.75,-227.09 520.54,-214.51 302.5,-184 292.02,-182.53 280.95,-180.59 270.24,-178.51"/>
<polygon fill="#63b8ff" stroke="#63b8ff" points="906.48,-235.19 916.6,-232.05 906.73,-228.19 906.48,-235.19"/>
</a>
</g>
</g>
<!-- Node10 -->
<g id="Node000010" class="node">
<title>Node10</title>
<g id="a_Node000010"><a xlink:href="../../da/dd0/sort__executor_8h.html" target="_top" xlink:title=" ">
<polygon fill="white" stroke="#666666" points="658.5,-178.5 514.5,-178.5 514.5,-148.5 658.5,-148.5 658.5,-178.5"/>
<text text-anchor="start" x="522.5" y="-166.5" font-family="Helvetica,sans-Serif" font-size="10.00">src/include/execution</text>
<text text-anchor="middle" x="586.5" y="-155.5" font-family="Helvetica,sans-Serif" font-size="10.00">/executors/sort_executor.h</text>
</a>
</g>
</g>
<!-- Node1&#45;&gt;Node10 -->
<g id="edge11_Node000001_Node000010" class="edge">
<title>Node1&#45;&gt;Node10</title>
<g id="a_edge11_Node000001_Node000010"><a xlink:title=" ">
<path fill="none" stroke="#63b8ff" d="M906.89,-222.55C845.68,-212.95 756.81,-198.5 679.5,-184 670.5,-182.31 661.03,-180.44 651.72,-178.54"/>
<polygon fill="#63b8ff" stroke="#63b8ff" points="906.43,-226.02 916.85,-224.11 907.51,-219.11 906.43,-226.02"/>
</a>
</g>
</g>
<!-- Node12 -->
<g id="Node000012" class="node">
<title>Node12</title>
<g id="a_Node000012"><a xlink:href="../../d0/dc2/topn__executor_8h.html" target="_top" xlink:title=" ">
<polygon fill="white" stroke="#666666" points="1138,-178.5 991,-178.5 991,-148.5 1138,-148.5 1138,-178.5"/>
<text text-anchor="start" x="999" y="-166.5" font-family="Helvetica,sans-Serif" font-size="10.00">src/include/execution</text>
<text text-anchor="middle" x="1064.5" y="-155.5" font-family="Helvetica,sans-Serif" font-size="10.00">/executors/topn_executor.h</text>
</a>
</g>
</g>
<!-- Node1&#45;&gt;Node12 -->
<g id="edge14_Node000001_Node000012" class="edge">
<title>Node1&#45;&gt;Node12</title>
<g id="a_edge14_Node000001_Node000012"><a xlink:title=" ">
<path fill="none" stroke="#63b8ff" d="M1006.21,-213.31C1019.61,-202.09 1035.81,-188.52 1047.73,-178.54"/>
<polygon fill="#63b8ff" stroke="#63b8ff" points="1003.72,-210.83 998.3,-219.94 1008.21,-216.2 1003.72,-210.83"/>
</a>
</g>
</g>
<!-- Node16 -->
<g id="Node000016" class="node">
<title>Node16</title>
<g id="a_Node000016"><a xlink:href="../../d1/dc7/topn__per__group__executor_8h.html" target="_top" xlink:title=" ">
<polygon fill="white" stroke="#666666" points="972.5,-184 826.5,-184 826.5,-143 972.5,-143 972.5,-184"/>
<text text-anchor="start" x="834.5" y="-172" font-family="Helvetica,sans-Serif" font-size="10.00">src/include/execution</text>
<text text-anchor="start" x="834.5" y="-161" font-family="Helvetica,sans-Serif" font-size="10.00">/executors/topn_per_group</text>
<text text-anchor="middle" x="899.5" y="-150" font-family="Helvetica,sans-Serif" font-size="10.00">_executor.h</text>
</a>
</g>
</g>
<!-- Node1&#45;&gt;Node16 -->
<g id="edge21_Node000001_Node000016" class="edge">
<title>Node1&#45;&gt;Node16</title>
<g id="a_edge21_Node000001_Node000016"><a xlink:title=" ">
<path fill="none" stroke="#63b8ff" d="M957,-213.23C946.1,-203.99 933.33,-193.17 922.59,-184.07"/>
<polygon fill="#63b8ff" stroke="#63b8ff" points="955.01,-216.14 964.91,-219.94 959.54,-210.8 955.01,-216.14"/>
</a>
</g>
</g>
<!-- Node18 -->
<g id="Node000018" class="node">
<title>Node18</title>
<g id="a_Node000018"><a xlink:href="../../d6/d85/values__executor_8h.html" target="_top" xlink:title=" ">
<polygon fill="white" stroke="#666666" points="1314.5,-178.5 1156.5,-178.5 1156.5,-148.5 1314.5,-148.5 1314.5,-178.5"/>
<text text-anchor="start" x="1164.5" y="-166.5" font-family="Helvetica,sans-Serif" font-size="10.00">src/include/execution</text>
<text text-anchor="middle" x="1235.5" y="-155.5" font-family="Helvetica,sans-Serif" font-size="10.00">/executors/values_executor.h</text>
</a>
</g>
</g>
<!-- Node1&#45;&gt;Node18 -->
<g id="edge24_Node000001_Node000018" class="edge">
<title>Node1&#45;&gt;Node18</title>
<g id="a_edge24_Node000001_Node000018"><a xlink:title=" ">
<path fill="none" stroke="#63b8ff" d="M1042.74,-217.24C1086,-205.41 1143.31,-189.72 1184.18,-178.54"/>
<polygon fill="#63b8ff" stroke="#63b8ff" points="1041.62,-213.92 1032.9,-219.94 1043.47,-220.67 1041.62,-213.92"/>
</a>
</g>
</g>
<!-- Node20 -->
<g id="Node000020" class="node">
<title>Node20</title>
<g id="a_Node000020"><a xlink:href="../../d0/d46/merge__filter__scan_8cpp.html" target="_top" xlink:title=" ">
<polygon fill="white" stroke="#666666" points="1447,-178.5 1332,-178.5 1332,-148.5 1447,-148.5 1447,-178.5"/>
<text text-anchor="start" x="1340" y="-166.5" font-family="Helvetica,sans-Serif" font-size="10.00">src/optimizer/merge</text>
<text text-anchor="middle" x="1389.5" y="-155.5" font-family="Helvetica,sans-Serif" font-size="10.00">_filter_scan.cpp</text>
</a>
</g>
</g>
<!-- Node1&#45;&gt;Node20 -->
<g id="edge27_Node000001_Node000020" class="edge">
<title>Node1&#45;&gt;Node20</title>
<g id="a_edge27_Node000001_Node000020"><a xlink:title=" ">
<path fill="none" stroke="#63b8ff" d="M1056.29,-226.17C1125.95,-218.14 1232.45,-204 1323.5,-184 1330.5,-182.46 1337.85,-180.57 1344.99,-178.58"/>
<polygon fill="#63b8ff" stroke="#63b8ff" points="1055.83,-222.7 1046.29,-227.31 1056.62,-229.65 1055.83,-222.7"/>
</a>
</g>
</g>
<!-- Node21 -->
<g id="Node000021" class="node">
<title>Node21</title>
<g id="a_Node000021"><a xlink:href="../../d0/de1/nlj__as__index__join_8cpp.html" target="_top" xlink:title=" ">
<polygon fill="white" stroke="#666666" points="1577.5,-178.5 1465.5,-178.5 1465.5,-148.5 1577.5,-148.5 1577.5,-178.5"/>
<text text-anchor="start" x="1473.5" y="-166.5" font-family="Helvetica,sans-Serif" font-size="10.00">src/optimizer/nlj_as</text>
<text text-anchor="middle" x="1521.5" y="-155.5" font-family="Helvetica,sans-Serif" font-size="10.00">_index_join.cpp</text>
</a>
</g>
</g>
<!-- Node1&#45;&gt;Node21 -->
<g id="edge28_Node000001_Node000021" class="edge">
<title>Node1&#45;&gt;Node21</title>
<g id="a_edge28_Node000001_Node000021"><a xlink:title=" ">
<path fill="none" stroke="#63b8ff" d="M1056.22,-230.45C1150.34,-224.99 1316.68,-212.08 1456.5,-184 1463.78,-182.54 1471.41,-180.62 1478.78,-178.55"/>
<polygon fill="#63b8ff" stroke="#63b8ff" points="1056.01,-226.96 1046.23,-231.02 1056.41,-233.95 1056.01,-226.96"/>
</a>
</g>
</g>
<!-- Node22 -->
<g id="Node000022" class="node">
<title>Node22</title>
<g id="a_Node000022"><a xlink:href="../../d9/db2/order__by__index__scan_8cpp.html" target="_top" xlink:title=" ">
<polygon fill="white" stroke="#666666" points="1709.5,-178.5 1595.5,-178.5 1595.5,-148.5 1709.5,-148.5 1709.5,-178.5"/>
<text text-anchor="start" x="1603.5" y="-166.5" font-family="Helvetica,sans-Serif" font-size="10.00">src/optimizer/order</text>
<text text-anchor="middle" x="1652.5" y="-155.5" font-family="Helvetica,sans-Serif" font-size="10.00">_by_index_scan.cpp</text>
</a>
</g>
</g>
<!-- Node1&#45;&gt;Node22 -->
<g id="edge29_Node000001_Node000022" class="edge">
<title>Node1&#45;&gt;Node22</title>
<g id="a_edge29_Node000001_Node000022"><a xlink:title=" ">
<path fill="none" stroke="#63b8ff" d="M1056.2,-232.73C1171.09,-229.68 1397.7,-219.31 1586.5,-184 1594.02,-182.59 1601.9,-180.67 1609.5,-178.58"/>
<polygon fill="#63b8ff" stroke="#63b8ff" points="1056.01,-229.24 1046.1,-232.99 1056.19,-236.23 1056.01,-229.24"/>
</a>
</g>
</g>
<!-- Node23 -->
<g id="Node000023" class="node">
<title>Node23</title>
<g id="a_Node000023"><a xlink:href="../../d8/d40/plan__table__ref_8cpp.html" target="_top" xlink:title=" ">
<polygon fill="white" stroke="#666666" points="1853,-178.5 1728,-178.5 1728,-148.5 1853,-148.5 1853,-178.5"/>
<text text-anchor="start" x="1736" y="-166.5" font-family="Helvetica,sans-Serif" font-size="10.00">src/planner/plan_table</text>
<text text-anchor="middle" x="1790.5" y="-155.5" font-family="Helvetica,sans-Serif" font-size="10.00">_ref.cpp</text>
</a>
</g>
</g>
<!-- Node1&#45;&gt;Node23 -->
<g id="edge30_Node000001_Node000023" class="edge">
<title>Node1&#45;&gt;Node23</title>
<g id="a_edge30_Node000001_Node000023"><a xlink:title=" ">
<path fill="none" stroke="#63b8ff" d="M1056.21,-233.77C1189.95,-232.28 1478.74,-224.2 1718.5,-184 1726.8,-182.61 1735.53,-180.67 1743.93,-178.54"/>
<polygon fill="#63b8ff" stroke="#63b8ff" points="1056.04,-230.27 1046.07,-233.87 1056.11,-237.27 1056.04,-230.27"/>
</a>
</g>
</g>
<!-- Node4 -->
<g id="Node000004" class="node">
<title>Node4</title>
<g id="a_Node000004"><a xlink:href="../../d3/d3e/executor__factory_8cpp.html" target="_top" xlink:title=" ">
<polygon fill="white" stroke="#666666" points="858.5,-30 732.5,-30 732.5,0 858.5,0 858.5,-30"/>
<text text-anchor="start" x="740.5" y="-18" font-family="Helvetica,sans-Serif" font-size="10.00">src/execution/executor</text>
<text text-anchor="middle" x="795.5" y="-7" font-family="Helvetica,sans-Serif" font-size="10.00">_factory.cpp</text>
</a>
</g>
</g>
<!-- Node3&#45;&gt;Node4 -->
<g id="edge3_Node000003_Node000004" class="edge">
<title>Node3&#45;&gt;Node4</title>
<g id="a_edge3_Node000003_Node000004"><a xlink:title=" ">
<path fill="none" stroke="#63b8ff" d="M351.64,-142.49C339.46,-133.35 327.11,-121.34 320.5,-107 312.87,-90.45 308.31,-79.54 320.5,-66 347.55,-35.96 608.99,-22.67 732.05,-18.05"/>
<polygon fill="#63b8ff" stroke="#63b8ff" points="349.77,-145.46 359.96,-148.35 353.8,-139.73 349.77,-145.46"/>
</a>
</g>
</g>
<!-- Node5 -->
<g id="Node000005" class="node">
<title>Node5</title>
<g id="a_Node000005"><a xlink:href="../../d2/d5a/filter__executor_8cpp.html" target="_top" xlink:title=" ">
<polygon fill="white" stroke="#666666" points="437,-101.5 330,-101.5 330,-71.5 437,-71.5 437,-101.5"/>
<text text-anchor="start" x="338" y="-89.5" font-family="Helvetica,sans-Serif" font-size="10.00">src/execution/filter</text>
<text text-anchor="middle" x="383.5" y="-78.5" font-family="Helvetica,sans-Serif" font-size="10.00">_executor.cpp</text>
</a>
</g>
</g>
<!-- Node3&#45;&gt;Node5 -->
<g id="edge4_Node000003_Node000005" class="edge">
<title>Node3&#45;&gt;Node5</title>
<g id="a_edge4_Node000003_Node000005"><a xlink:title=" ">
<path fill="none" stroke="#63b8ff" d="M384.85,-138.04C384.53,-125.95 384.15,-111.79 383.87,-101.54"/>
<polygon fill="#63b8ff" stroke="#63b8ff" points="381.36,-138.49 385.12,-148.39 388.36,-138.3 381.36,-138.49"/>
</a>
</g>
</g>
<!-- Node6&#45;&gt;Node4 -->
<g id="edge6_Node000006_Node000004" class="edge">
<title>Node6&#45;&gt;Node4</title>
<g id="a_edge6_Node000006_Node000004"><a xlink:title=" ">
<path fill="none" stroke="#63b8ff" d="M758.01,-132.85C768.03,-101.63 783.38,-53.79 790.95,-30.18"/>
<polygon fill="#63b8ff" stroke="#63b8ff" points="754.56,-132.15 754.84,-142.74 761.23,-134.29 754.56,-132.15"/>
</a>
</g>
</g>
<!-- Node7 -->
<g id="Node000007" class="node">
<title>Node7</title>
<g id="a_Node000007"><a xlink:href="../../d8/d05/projection__executor_8cpp.html" target="_top" xlink:title=" ">
<polygon fill="white" stroke="#666666" points="748,-101.5 615,-101.5 615,-71.5 748,-71.5 748,-101.5"/>
<text text-anchor="start" x="623" y="-89.5" font-family="Helvetica,sans-Serif" font-size="10.00">src/execution/projection</text>
<text text-anchor="middle" x="681.5" y="-78.5" font-family="Helvetica,sans-Serif" font-size="10.00">_executor.cpp</text>
</a>
</g>
</g>
<!-- Node6&#45;&gt;Node7 -->
<g id="edge7_Node000006_Node000007" class="edge">
<title>Node6&#45;&gt;Node7</title>
<g id="a_edge7_Node000006_Node000007"><a xlink:title=" ">
<path fill="none" stroke="#63b8ff" d="M724.15,-135.24C714.05,-123.94 702.76,-111.3 694.33,-101.86"/>
<polygon fill="#63b8ff" stroke="#63b8ff" points="721.62,-137.67 730.9,-142.79 726.84,-133.01 721.62,-137.67"/>
</a>
</g>
</g>
<!-- Node8&#45;&gt;Node4 -->
<g id="edge9_Node000008_Node000004" class="edge">
<title>Node8&#45;&gt;Node4</title>
<g id="a_edge9_Node000008_Node000004"><a xlink:title=" ">
<path fill="none" stroke="#63b8ff" d="M169.19,-142.88C155.63,-133.94 141.98,-121.96 134.5,-107 126.35,-90.7 122.11,-79.36 134.5,-66 174.63,-22.72 574.83,-16.7 732.31,-16.01"/>
<polygon fill="#63b8ff" stroke="#63b8ff" points="167.66,-146.06 178.01,-148.32 171.34,-140.1 167.66,-146.06"/>
</a>
</g>
</g>
<!-- Node9 -->
<g id="Node000009" class="node">
<title>Node9</title>
<g id="a_Node000009"><a xlink:href="../../d9/d38/seq__scan__executor_8cpp.html" target="_top" xlink:title=" ">
<polygon fill="white" stroke="#666666" points="273,-101.5 144,-101.5 144,-71.5 273,-71.5 273,-101.5"/>
<text text-anchor="start" x="152" y="-89.5" font-family="Helvetica,sans-Serif" font-size="10.00">src/execution/seq_scan</text>
<text text-anchor="middle" x="208.5" y="-78.5" font-family="Helvetica,sans-Serif" font-size="10.00">_executor.cpp</text>
</a>
</g>
</g>
<!-- Node8&#45;&gt;Node9 -->
<g id="edge10_Node000008_Node000009" class="edge">
<title>Node8&#45;&gt;Node9</title>
<g id="a_edge10_Node000008_Node000009"><a xlink:title=" ">
<path fill="none" stroke="#63b8ff" d="M208.5,-138.04C208.5,-125.95 208.5,-111.79 208.5,-101.54"/>
<polygon fill="#63b8ff" stroke="#63b8ff" points="205,-138.39 208.5,-148.39 212,-138.39 205,-138.39"/>
</a>
</g>
</g>
<!-- Node10&#45;&gt;Node4 -->
<g id="edge12_Node000010_Node000004" class="edge">
<title>Node10&#45;&gt;Node4</title>
<g id="a_edge12_Node000010_Node000004"><a xlink:title=" ">
<path fill="none" stroke="#63b8ff" d="M584.58,-138.23C584.25,-116.54 587.4,-85.27 605.5,-66 622.84,-47.54 683.99,-33.67 732.3,-25.28"/>
<polygon fill="#63b8ff" stroke="#63b8ff" points="581.08,-138.46 584.99,-148.31 588.08,-138.17 581.08,-138.46"/>
</a>
</g>
</g>
<!-- Node11 -->
<g id="Node000011" class="node">
<title>Node11</title>
<g id="a_Node000011"><a xlink:href="../../df/da6/sort__executor_8cpp.html" target="_top" xlink:title=" ">
<polygon fill="white" stroke="#666666" points="558,-101.5 455,-101.5 455,-71.5 558,-71.5 558,-101.5"/>
<text text-anchor="start" x="463" y="-89.5" font-family="Helvetica,sans-Serif" font-size="10.00">src/execution/sort</text>
<text text-anchor="middle" x="506.5" y="-78.5" font-family="Helvetica,sans-Serif" font-size="10.00">_executor.cpp</text>
</a>
</g>
</g>
<!-- Node10&#45;&gt;Node11 -->
<g id="edge13_Node000010_Node000011" class="edge">
<title>Node10&#45;&gt;Node11</title>
<g id="a_edge13_Node000010_Node000011"><a xlink:title=" ">
<path fill="none" stroke="#63b8ff" d="M563.9,-141.32C550.32,-128.58 533.42,-112.74 521.48,-101.54"/>
<polygon fill="#63b8ff" stroke="#63b8ff" points="561.76,-144.11 571.45,-148.39 566.55,-139 561.76,-144.11"/>
</a>
</g>
</g>
<!-- Node12&#45;&gt;Node4 -->
<g id="edge15_Node000012_Node000004" class="edge">
<title>Node12&#45;&gt;Node4</title>
<g id="a_edge15_Node000012_Node000004"><a xlink:title=" ">
<path fill="none" stroke="#63b8ff" d="M1049.38,-140.08C1031.9,-114.78 1003.59,-75.86 988.5,-66 949.67,-40.64 898.61,-28.13 858.76,-21.96"/>
<polygon fill="#63b8ff" stroke="#63b8ff" points="1046.54,-142.12 1055.07,-148.39 1052.31,-138.17 1046.54,-142.12"/>
</a>
</g>
</g>
<!-- Node13 -->
<g id="Node000013" class="node">
<title>Node13</title>
<g id="a_Node000013"><a xlink:href="../../d4/dc7/topn__check__executor_8cpp.html" target="_top" xlink:title=" ">
<polygon fill="white" stroke="#666666" points="1327,-30 1210,-30 1210,0 1327,0 1327,-30"/>
<text text-anchor="start" x="1218" y="-18" font-family="Helvetica,sans-Serif" font-size="10.00">src/execution/topn</text>
<text text-anchor="middle" x="1268.5" y="-7" font-family="Helvetica,sans-Serif" font-size="10.00">_check_executor.cpp</text>
</a>
</g>
</g>
<!-- Node12&#45;&gt;Node13 -->
<g id="edge16_Node000012_Node000013" class="edge">
<title>Node12&#45;&gt;Node13</title>
<g id="a_edge16_Node000012_Node000013"><a xlink:title=" ">
<path fill="none" stroke="#63b8ff" d="M1133.27,-146.17C1200.8,-130.09 1293.85,-107.82 1294.5,-107 1312.49,-84.15 1293.18,-49.4 1279.54,-30.12"/>
<polygon fill="#63b8ff" stroke="#63b8ff" points="1132.42,-142.77 1123.51,-148.49 1134.04,-149.58 1132.42,-142.77"/>
</a>
</g>
</g>
<!-- Node14 -->
<g id="Node000014" class="node">
<title>Node14</title>
<g id="a_Node000014"><a xlink:href="../../d9/d06/topn__executor_8cpp.html" target="_top" xlink:title=" ">
<polygon fill="white" stroke="#666666" points="1142.5,-101.5 1036.5,-101.5 1036.5,-71.5 1142.5,-71.5 1142.5,-101.5"/>
<text text-anchor="start" x="1044.5" y="-89.5" font-family="Helvetica,sans-Serif" font-size="10.00">src/execution/topn</text>
<text text-anchor="middle" x="1089.5" y="-78.5" font-family="Helvetica,sans-Serif" font-size="10.00">_executor.cpp</text>
</a>
</g>
</g>
<!-- Node12&#45;&gt;Node14 -->
<g id="edge17_Node000012_Node000014" class="edge">
<title>Node12&#45;&gt;Node14</title>
<g id="a_edge17_Node000012_Node000014"><a xlink:title=" ">
<path fill="none" stroke="#63b8ff" d="M1072.41,-138.78C1076.49,-126.53 1081.33,-112 1084.82,-101.54"/>
<polygon fill="#63b8ff" stroke="#63b8ff" points="1069.04,-137.8 1069.2,-148.39 1075.69,-140.01 1069.04,-137.8"/>
</a>
</g>
</g>
<!-- Node15 -->
<g id="Node000015" class="node">
<title>Node15</title>
<g id="a_Node000015"><a xlink:href="../../dd/d1c/topn__check__executor_8h.html" target="_top" xlink:title=" ">
<polygon fill="white" stroke="#666666" points="1286,-107 1161,-107 1161,-66 1286,-66 1286,-107"/>
<text text-anchor="start" x="1169" y="-95" font-family="Helvetica,sans-Serif" font-size="10.00">src/include/execution</text>
<text text-anchor="start" x="1169" y="-84" font-family="Helvetica,sans-Serif" font-size="10.00">/executors/topn_check</text>
<text text-anchor="middle" x="1223.5" y="-73" font-family="Helvetica,sans-Serif" font-size="10.00">_executor.h</text>
</a>
</g>
</g>
<!-- Node12&#45;&gt;Node15 -->
<g id="edge18_Node000012_Node000015" class="edge">
<title>Node12&#45;&gt;Node15</title>
<g id="a_edge18_Node000012_Node000015"><a xlink:title=" ">
<path fill="none" stroke="#63b8ff" d="M1103.51,-144.1C1127.33,-132.86 1157.77,-118.5 1182.03,-107.06"/>
<polygon fill="#63b8ff" stroke="#63b8ff" points="1101.96,-140.96 1094.41,-148.39 1104.94,-147.29 1101.96,-140.96"/>
</a>
</g>
</g>
<!-- Node15&#45;&gt;Node4 -->
<g id="edge19_Node000015_Node000004" class="edge">
<title>Node15&#45;&gt;Node4</title>
<g id="a_edge19_Node000015_Node000004"><a xlink:title=" ">
<path fill="none" stroke="#63b8ff" d="M1150.68,-65.97C1042.64,-44.29 927.92,-30.08 858.61,-22.45"/>
<polygon fill="#63b8ff" stroke="#63b8ff" points="1150.29,-69.46 1160.78,-68.02 1151.68,-62.6 1150.29,-69.46"/>
</a>
</g>
</g>
<!-- Node15&#45;&gt;Node13 -->
<g id="edge20_Node000015_Node000013" class="edge">
<title>Node15&#45;&gt;Node13</title>
<g id="a_edge20_Node000015_Node000013"><a xlink:title=" ">
<path fill="none" stroke="#63b8ff" d="M1241.88,-57.11C1247.92,-47.78 1254.37,-37.82 1259.41,-30.04"/>
<polygon fill="#63b8ff" stroke="#63b8ff" points="1238.77,-55.47 1236.27,-65.77 1244.65,-59.28 1238.77,-55.47"/>
</a>
</g>
</g>
<!-- Node16&#45;&gt;Node4 -->
<g id="edge22_Node000016_Node000004" class="edge">
<title>Node16&#45;&gt;Node4</title>
<g id="a_edge22_Node000016_Node000004"><a xlink:title=" ">
<path fill="none" stroke="#63b8ff" d="M862.59,-136.69C852.2,-128.13 841.55,-117.96 833.5,-107 815.76,-82.85 804.52,-49.2 799.18,-30.31"/>
<polygon fill="#63b8ff" stroke="#63b8ff" points="860.42,-139.44 870.43,-142.91 864.77,-133.96 860.42,-139.44"/>
</a>
</g>
</g>
<!-- Node17 -->
<g id="Node000017" class="node">
<title>Node17</title>
<g id="a_Node000017"><a xlink:href="../../d8/d14/topn__per__group__executor_8cpp.html" target="_top" xlink:title=" ">
<polygon fill="white" stroke="#666666" points="980,-101.5 843,-101.5 843,-71.5 980,-71.5 980,-101.5"/>
<text text-anchor="start" x="851" y="-89.5" font-family="Helvetica,sans-Serif" font-size="10.00">src/execution/topn</text>
<text text-anchor="middle" x="911.5" y="-78.5" font-family="Helvetica,sans-Serif" font-size="10.00">_per_group_executor.cpp</text>
</a>
</g>
</g>
<!-- Node16&#45;&gt;Node17 -->
<g id="edge23_Node000016_Node000017" class="edge">
<title>Node16&#45;&gt;Node17</title>
<g id="a_edge23_Node000016_Node000017"><a xlink:title=" ">
<path fill="none" stroke="#63b8ff" d="M904.28,-132.61C905.98,-122.01 907.81,-110.57 909.2,-101.86"/>
<polygon fill="#63b8ff" stroke="#63b8ff" points="900.78,-132.37 902.65,-142.79 907.69,-133.47 900.78,-132.37"/>
</a>
</g>
</g>
<!-- Node18&#45;&gt;Node4 -->
<g id="edge25_Node000018_Node000004" class="edge">
<title>Node18&#45;&gt;Node4</title>
<g id="a_edge25_Node000018_Node000004"><a xlink:title=" ">
<path fill="none" stroke="#63b8ff" d="M1263.1,-141.77C1287.29,-121.14 1315.57,-89.29 1294.5,-66 1265.77,-34.24 986.45,-21.77 858.7,-17.69"/>
<polygon fill="#63b8ff" stroke="#63b8ff" points="1260.64,-139.25 1255.13,-148.3 1265.08,-144.67 1260.64,-139.25"/>
</a>
</g>
</g>
<!-- Node19 -->
<g id="Node000019" class="node">
<title>Node19</title>
<g id="a_Node000019"><a xlink:href="../../d2/d2d/values__executor_8cpp.html" target="_top" xlink:title=" ">
<polygon fill="white" stroke="#666666" points="1496.5,-101.5 1380.5,-101.5 1380.5,-71.5 1496.5,-71.5 1496.5,-101.5"/>
<text text-anchor="start" x="1388.5" y="-89.5" font-family="Helvetica,sans-Serif" font-size="10.00">src/execution/values</text>
<text text-anchor="middle" x="1438.5" y="-78.5" font-family="Helvetica,sans-Serif" font-size="10.00">_executor.cpp</text>
</a>
</g>
</g>
<!-- Node18&#45;&gt;Node19 -->
<g id="edge26_Node000018_Node000019" class="edge">
<title>Node18&#45;&gt;Node19</title>
<g id="a_edge26_Node000018_Node000019"><a xlink:title=" ">
<path fill="none" stroke="#63b8ff" d="M1283.42,-144.8C1319.17,-131.59 1367.37,-113.78 1400.49,-101.54"/>
<polygon fill="#63b8ff" stroke="#63b8ff" points="1281.85,-141.64 1273.68,-148.39 1284.28,-148.21 1281.85,-141.64"/>
</a>
</g>
</g>
</g>
</svg>

<g id="navigator" transform="translate(0 0)" fill="#404254">
  <rect fill="#f2f5e9" fill-opacity="0.5" stroke="#606060" stroke-width=".5" x="0" y="0" width="60" height="60"/>
  <use id="zoomplus" xlink:href="#zoomPlus" x="17" y="9" onmousedown="handleZoom(evt,'in')"/>
  <use id="zoomminus" xlink:href="#zoomMin" x="42" y="9" onmousedown="handleZoom(evt,'out')"/>
  <use id="reset" xlink:href="#resetDef" x="30" y="36" onmousedown="handleReset()"/>
   <use id="arrowup" xlink:href="#arrowUp" x="0" y="0" onmousedown="handlePan(0,-1)"/>
  <use id="arrowright" xlink:href="#arrowRight" x="0" y="0" onmousedown="handlePan(1,0)"/>
  <use id="arrowdown" xlink:href="#arrowDown" x="0" y="0" onmousedown="handlePan(0,1)"/>
  <use id="arrowleft" xlink:href="#arrowLeft" x="0" y="0" onmousedown="handlePan(-1,0)"/>
</g>
<svg viewBox="0 0 15 15" width="100%" height="30px" preserveAspectRatio="xMaxYMin meet">
 <g id="arrow_out" transform="scale(0.3 0.3)">
  <a xlink:href="seq__scan__plan_8h__dep__incl_org.svg" target="_base">
   <rect id="button" ry="5" rx="5" y="6" x="6" height="38" width="38"
        fill="#f2f5e9" fill-opacity="0.5" stroke="#606060" stroke-width="1.0"/>
   <path id="arrow"
     d="M 11.500037,31.436501 C 11.940474,20.09759 22.043105,11.32322 32.158766,21.979434 L 37.068811,17.246167 C 37.068811,17.246167 37.088388,32 37.088388,32 L 22.160133,31.978069 C 22.160133,31.978069 26.997745,27.140456 26.997745,27.140456 C 18.528582,18.264221 13.291696,25.230495 11.500037,31.436501 z"
     style="fill:#404040;"/>
  </a>
 </g>
</svg>

<style type='text/css'>
<![CDATA[
[data-mouse-over-selected='false'] { opacity: 0.7; }
[data-mouse-over-selected='true']  { opacity: 1.0; }
]]>
</style>
<script type="application/ecmascript"><![CDATA[
document.addEventListener('DOMContentLoaded', (event) => {
  highlightEdges();
  highlightAdjacentNodes();
});
]]></script>
</svg>
