<?xml version="1.0" encoding="UTF-8" standalone="no"?>
<!DOCTYPE svg PUBLIC "-//W3C//DTD SVG 1.1//EN"
 "http://www.w3.org/Graphics/SVG/1.1/DTD/svg11.dtd">
<!-- Generated by graphviz version 2.43.0 (0)
 -->
<!-- Title: src/include/execution/plans/nested_loop_join_plan.h Pages: 1 -->
<svg width="929pt" height="192pt"
 viewBox="0.00 0.00 929.00 192.00" xmlns="http://www.w3.org/2000/svg" xmlns:xlink="http://www.w3.org/1999/xlink">
<g id="graph0" class="graph" transform="scale(1 1) rotate(0) translate(4 188)">
<title>src/include/execution/plans/nested_loop_join_plan.h</title>
<!-- Node1 -->
<g id="Node000001" class="node">
<title>Node1</title>
<g id="a_Node000001"><a xlink:title=" ">
<polygon fill="#999999" stroke="#666666" points="525,-184 394,-184 394,-143 525,-143 525,-184"/>
<text text-anchor="start" x="402" y="-172" font-family="Helvetica,sans-Serif" font-size="10.00">src/include/execution</text>
<text text-anchor="start" x="402" y="-161" font-family="Helvetica,sans-Serif" font-size="10.00">/plans/nested_loop_join</text>
<text text-anchor="middle" x="459.5" y="-150" font-family="Helvetica,sans-Serif" font-size="10.00">_plan.h</text>
</a>
</g>
</g>
<!-- Node2 -->
<g id="Node000002" class="node">
<title>Node2</title>
<g id="a_Node000002"><a xlink:href="../../dc/dbe/plan__node_8cpp.html" target="_top" xlink:title=" ">
<polygon fill="white" stroke="#666666" points="105,-101.5 0,-101.5 0,-71.5 105,-71.5 105,-101.5"/>
<text text-anchor="start" x="8" y="-89.5" font-family="Helvetica,sans-Serif" font-size="10.00">src/execution/plan</text>
<text text-anchor="middle" x="52.5" y="-78.5" font-family="Helvetica,sans-Serif" font-size="10.00">_node.cpp</text>
</a>
</g>
</g>
<!-- Node1&#45;&gt;Node2 -->
<g id="edge1_Node000001_Node000002" class="edge">
<title>Node1&#45;&gt;Node2</title>
<g id="a_edge1_Node000001_Node000002"><a xlink:title=" ">
<path fill="none" stroke="#63b8ff" d="M383.67,-153.52C313.35,-144.44 206.08,-128.65 114.5,-107 107.91,-105.44 101.01,-103.54 94.29,-101.55"/>
<polygon fill="#63b8ff" stroke="#63b8ff" points="383.4,-157.02 393.77,-154.81 384.29,-150.07 383.4,-157.02"/>
</a>
</g>
</g>
<!-- Node3 -->
<g id="Node000003" class="node">
<title>Node3</title>
<g id="a_Node000003"><a xlink:href="../../da/d3a/nested__loop__join__executor_8h.html" target="_top" xlink:title=" ">
<polygon fill="white" stroke="#666666" points="252,-107 123,-107 123,-66 252,-66 252,-107"/>
<text text-anchor="start" x="131" y="-95" font-family="Helvetica,sans-Serif" font-size="10.00">src/include/execution</text>
<text text-anchor="start" x="131" y="-84" font-family="Helvetica,sans-Serif" font-size="10.00">/executors/nested_loop</text>
<text text-anchor="middle" x="187.5" y="-73" font-family="Helvetica,sans-Serif" font-size="10.00">_join_executor.h</text>
</a>
</g>
</g>
<!-- Node1&#45;&gt;Node3 -->
<g id="edge2_Node000001_Node000003" class="edge">
<title>Node1&#45;&gt;Node3</title>
<g id="a_edge2_Node000001_Node000003"><a xlink:title=" ">
<path fill="none" stroke="#63b8ff" d="M383.9,-141.65C342.53,-130.25 291.8,-116.26 252.27,-105.36"/>
<polygon fill="#63b8ff" stroke="#63b8ff" points="383.09,-145.06 393.66,-144.34 384.95,-138.31 383.09,-145.06"/>
</a>
</g>
</g>
<!-- Node6 -->
<g id="Node000006" class="node">
<title>Node6</title>
<g id="a_Node000006"><a xlink:href="../../dc/d4f/merge__filter__nlj_8cpp.html" target="_top" xlink:title=" ">
<polygon fill="white" stroke="#666666" points="385,-101.5 270,-101.5 270,-71.5 385,-71.5 385,-101.5"/>
<text text-anchor="start" x="278" y="-89.5" font-family="Helvetica,sans-Serif" font-size="10.00">src/optimizer/merge</text>
<text text-anchor="middle" x="327.5" y="-78.5" font-family="Helvetica,sans-Serif" font-size="10.00">_filter_nlj.cpp</text>
</a>
</g>
</g>
<!-- Node1&#45;&gt;Node6 -->
<g id="edge5_Node000001_Node000006" class="edge">
<title>Node1&#45;&gt;Node6</title>
<g id="a_edge5_Node000001_Node000006"><a xlink:title=" ">
<path fill="none" stroke="#63b8ff" d="M416.35,-137.98C395.2,-125.97 370.48,-111.92 352.49,-101.7"/>
<polygon fill="#63b8ff" stroke="#63b8ff" points="414.74,-141.09 425.16,-142.99 418.2,-135.01 414.74,-141.09"/>
</a>
</g>
</g>
<!-- Node7 -->
<g id="Node000007" class="node">
<title>Node7</title>
<g id="a_Node000007"><a xlink:href="../../d5/d99/nlj__as__hash__join_8cpp.html" target="_top" xlink:title=" ">
<polygon fill="white" stroke="#666666" points="515.5,-101.5 403.5,-101.5 403.5,-71.5 515.5,-71.5 515.5,-101.5"/>
<text text-anchor="start" x="411.5" y="-89.5" font-family="Helvetica,sans-Serif" font-size="10.00">src/optimizer/nlj_as</text>
<text text-anchor="middle" x="459.5" y="-78.5" font-family="Helvetica,sans-Serif" font-size="10.00">_hash_join.cpp</text>
</a>
</g>
</g>
<!-- Node1&#45;&gt;Node7 -->
<g id="edge6_Node000001_Node000007" class="edge">
<title>Node1&#45;&gt;Node7</title>
<g id="a_edge6_Node000001_Node000007"><a xlink:title=" ">
<path fill="none" stroke="#63b8ff" d="M459.5,-132.61C459.5,-122.01 459.5,-110.57 459.5,-101.86"/>
<polygon fill="#63b8ff" stroke="#63b8ff" points="456,-132.79 459.5,-142.79 463,-132.79 456,-132.79"/>
</a>
</g>
</g>
<!-- Node8 -->
<g id="Node000008" class="node">
<title>Node8</title>
<g id="a_Node000008"><a xlink:href="../../d0/de1/nlj__as__index__join_8cpp.html" target="_top" xlink:title=" ">
<polygon fill="white" stroke="#666666" points="645.5,-101.5 533.5,-101.5 533.5,-71.5 645.5,-71.5 645.5,-101.5"/>
<text text-anchor="start" x="541.5" y="-89.5" font-family="Helvetica,sans-Serif" font-size="10.00">src/optimizer/nlj_as</text>
<text text-anchor="middle" x="589.5" y="-78.5" font-family="Helvetica,sans-Serif" font-size="10.00">_index_join.cpp</text>
</a>
</g>
</g>
<!-- Node1&#45;&gt;Node8 -->
<g id="edge7_Node000001_Node000008" class="edge">
<title>Node1&#45;&gt;Node8</title>
<g id="a_edge7_Node000001_Node000008"><a xlink:title=" ">
<path fill="none" stroke="#63b8ff" d="M502,-137.98C522.83,-125.97 547.17,-111.92 564.89,-101.7"/>
<polygon fill="#63b8ff" stroke="#63b8ff" points="500.23,-134.96 493.32,-142.99 503.73,-141.02 500.23,-134.96"/>
</a>
</g>
</g>
<!-- Node9 -->
<g id="Node000009" class="node">
<title>Node9</title>
<g id="a_Node000009"><a xlink:href="../../d9/db2/order__by__index__scan_8cpp.html" target="_top" xlink:title=" ">
<polygon fill="white" stroke="#666666" points="777.5,-101.5 663.5,-101.5 663.5,-71.5 777.5,-71.5 777.5,-101.5"/>
<text text-anchor="start" x="671.5" y="-89.5" font-family="Helvetica,sans-Serif" font-size="10.00">src/optimizer/order</text>
<text text-anchor="middle" x="720.5" y="-78.5" font-family="Helvetica,sans-Serif" font-size="10.00">_by_index_scan.cpp</text>
</a>
</g>
</g>
<!-- Node1&#45;&gt;Node9 -->
<g id="edge8_Node000001_Node000009" class="edge">
<title>Node1&#45;&gt;Node9</title>
<g id="a_edge8_Node000001_Node000009"><a xlink:title=" ">
<path fill="none" stroke="#63b8ff" d="M535.41,-141.09C571.51,-130.85 615.26,-118.38 654.5,-107 660.58,-105.24 666.97,-103.37 673.29,-101.51"/>
<polygon fill="#63b8ff" stroke="#63b8ff" points="534.11,-137.82 525.44,-143.91 536.01,-144.55 534.11,-137.82"/>
</a>
</g>
</g>
<!-- Node10 -->
<g id="Node000010" class="node">
<title>Node10</title>
<g id="a_Node000010"><a xlink:href="../../d8/d40/plan__table__ref_8cpp.html" target="_top" xlink:title=" ">
<polygon fill="white" stroke="#666666" points="921,-101.5 796,-101.5 796,-71.5 921,-71.5 921,-101.5"/>
<text text-anchor="start" x="804" y="-89.5" font-family="Helvetica,sans-Serif" font-size="10.00">src/planner/plan_table</text>
<text text-anchor="middle" x="858.5" y="-78.5" font-family="Helvetica,sans-Serif" font-size="10.00">_ref.cpp</text>
</a>
</g>
</g>
<!-- Node1&#45;&gt;Node10 -->
<g id="edge9_Node000001_Node000010" class="edge">
<title>Node1&#45;&gt;Node10</title>
<g id="a_edge9_Node000001_Node000010"><a xlink:title=" ">
<path fill="none" stroke="#63b8ff" d="M534.98,-151.8C601.52,-141.87 700.91,-125.81 786.5,-107 793.84,-105.39 801.54,-103.51 809.08,-101.56"/>
<polygon fill="#63b8ff" stroke="#63b8ff" points="534.38,-148.35 525,-153.28 535.41,-155.28 534.38,-148.35"/>
</a>
</g>
</g>
<!-- Node4 -->
<g id="Node000004" class="node">
<title>Node4</title>
<g id="a_Node000004"><a xlink:href="../../d3/d3e/executor__factory_8cpp.html" target="_top" xlink:title=" ">
<polygon fill="white" stroke="#666666" points="176.5,-30 50.5,-30 50.5,0 176.5,0 176.5,-30"/>
<text text-anchor="start" x="58.5" y="-18" font-family="Helvetica,sans-Serif" font-size="10.00">src/execution/executor</text>
<text text-anchor="middle" x="113.5" y="-7" font-family="Helvetica,sans-Serif" font-size="10.00">_factory.cpp</text>
</a>
</g>
</g>
<!-- Node3&#45;&gt;Node4 -->
<g id="edge3_Node000003_Node000004" class="edge">
<title>Node3&#45;&gt;Node4</title>
<g id="a_edge3_Node000003_Node000004"><a xlink:title=" ">
<path fill="none" stroke="#63b8ff" d="M159.11,-58.83C148.66,-49.02 137.24,-38.3 128.45,-30.04"/>
<polygon fill="#63b8ff" stroke="#63b8ff" points="156.81,-61.48 166.49,-65.77 161.6,-56.37 156.81,-61.48"/>
</a>
</g>
</g>
<!-- Node5 -->
<g id="Node000005" class="node">
<title>Node5</title>
<g id="a_Node000005"><a xlink:href="../../da/d05/nested__loop__join__executor_8cpp.html" target="_top" xlink:title=" ">
<polygon fill="white" stroke="#666666" points="328,-30 195,-30 195,0 328,0 328,-30"/>
<text text-anchor="start" x="203" y="-18" font-family="Helvetica,sans-Serif" font-size="10.00">src/execution/nested</text>
<text text-anchor="middle" x="261.5" y="-7" font-family="Helvetica,sans-Serif" font-size="10.00">_loop_join_executor.cpp</text>
</a>
</g>
</g>
<!-- Node3&#45;&gt;Node5 -->
<g id="edge4_Node000003_Node000005" class="edge">
<title>Node3&#45;&gt;Node5</title>
<g id="a_edge4_Node000003_Node000005"><a xlink:title=" ">
<path fill="none" stroke="#63b8ff" d="M215.89,-58.83C226.34,-49.02 237.76,-38.3 246.55,-30.04"/>
<polygon fill="#63b8ff" stroke="#63b8ff" points="213.4,-56.37 208.51,-65.77 218.19,-61.48 213.4,-56.37"/>
</a>
</g>
</g>
</g>
</svg>
