<?xml version="1.0" encoding="UTF-8" standalone="no"?>
<!DOCTYPE svg PUBLIC "-//W3C//DTD SVG 1.1//EN"
 "http://www.w3.org/Graphics/SVG/1.1/DTD/svg11.dtd">
<!-- Generated by graphviz version 2.43.0 (0)
 -->
<!-- Title: src/include/catalog/schema.h Pages: 1 -->
<!--zoomable 258 -->

<svg id="main" version="1.1" xmlns="http://www.w3.org/2000/svg" xmlns:xlink="http://www.w3.org/1999/xlink" xml:space="preserve" onload="init(evt)">
<style type="text/css"><![CDATA[
.node, .edge {opacity: 0.7;}
.node.selected, .edge.selected {opacity: 1;}
.edge:hover path { stroke: red; }
.edge:hover polygon { stroke: red; fill: red; }
]]></style>

<defs>
  <circle id="rim" cx="0" cy="0" r="7"/>
  <circle id="rim2" cx="0" cy="0" r="3.5"/>
  <g id="zoomPlus">
    <use xlink:href="#rim" fill="#404040"><set attributeName="fill" to="#808080" begin="zoomplus.mouseover" end="zoomplus.mouseout"/></use>
    <path d="M-4,0h8M0,-4v8" fill="none" stroke="white" stroke-width="1.5" pointer-events="none"/>
  </g>
  <g id="zoomMin">
    <use xlink:href="#rim" fill="#404040"><set attributeName="fill" to="#808080" begin="zoomminus.mouseover" end="zoomminus.mouseout"/></use>
    <path d="M-4,0h8" fill="none" stroke="white" stroke-width="1.5" pointer-events="none"/>
  </g>
  <g id="arrowUp" transform="translate(30 24)">
    <use xlink:href="#rim"/>
    <path pointer-events="none" fill="none" stroke="white" stroke-width="1.5" d="M0,-3.0v7 M-2.5,-0.5L0,-3.0L2.5,-0.5"/>
  </g>
  <g id="arrowRight" transform="rotate(90) translate(36 -43)">
    <use xlink:href="#rim"/>
    <path pointer-events="none" fill="none" stroke="white" stroke-width="1.5" d="M0,-3.0v7 M-2.5,-0.5L0,-3.0L2.5,-0.5"/>
  </g>
  <g id="arrowDown" transform="rotate(180) translate(-30 -48)">
    <use xlink:href="#rim"/>
    <path pointer-events="none" fill="none" stroke="white" stroke-width="1.5" d="M0,-3.0v7 M-2.5,-0.5L0,-3.0L2.5,-0.5"/>
  </g>
  <g id="arrowLeft" transform="rotate(270) translate(-36 17)">
    <use xlink:href="#rim"/>
    <path pointer-events="none" fill="none" stroke="white" stroke-width="1.5" d="M0,-3.0v7 M-2.5,-0.5L0,-3.0L2.5,-0.5"/>
  </g>
  <g id="resetDef">
    <use xlink:href="#rim2" fill="#404040"><set attributeName="fill" to="#808080" begin="reset.mouseover" end="reset.mouseout"/></use>
  </g>
</defs>
<script type="application/ecmascript">
var viewWidth = 1057;
var viewHeight = 258;
var sectionId = 'dynsection-0';
</script>
<script type="application/ecmascript" xlink:href="../../svg.min.js"/>
<svg id="graph" class="graph">
<g id="viewport">
<title>src/include/catalog/schema.h</title>
<!-- Node1 -->
<g id="Node000001" class="node">
<title>Node1</title>
<g id="a_Node000001"><a xlink:title=" ">
<polygon fill="#999999" stroke="#666666" points="610.02,-250 502.02,-250 502.02,-220 610.02,-220 610.02,-250"/>
<text text-anchor="start" x="510.02" y="-238" font-family="Helvetica,sans-Serif" font-size="10.00">src/include/catalog</text>
<text text-anchor="middle" x="556.02" y="-227" font-family="Helvetica,sans-Serif" font-size="10.00">/schema.h</text>
</a>
</g>
</g>
<!-- Node2 -->
<g id="Node000002" class="node">
<title>Node2</title>
<g id="a_Node000002"><a xlink:title=" ">
<polygon fill="#e0e0e0" stroke="#999999" points="71.02,-74 13.02,-74 13.02,-55 71.02,-55 71.02,-74"/>
<text text-anchor="middle" x="42.02" y="-62" font-family="Helvetica,sans-Serif" font-size="10.00">memory</text>
</a>
</g>
</g>
<!-- Node1&#45;&gt;Node2 -->
<g id="edge1_Node000001_Node000002" class="edge">
<title>Node1&#45;&gt;Node2</title>
<g id="a_edge1_Node000001_Node000002"><a xlink:title=" ">
<path fill="none" stroke="#63b8ff" d="M501.81,-221.23C428.86,-203.46 295.5,-168.94 185.02,-129 143.43,-113.97 96.9,-92.37 68.54,-78.64"/>
<polygon fill="#63b8ff" stroke="#63b8ff" points="69.82,-75.38 59.3,-74.14 66.75,-81.67 69.82,-75.38"/>
</a>
</g>
</g>
<!-- Node3 -->
<g id="Node000003" class="node">
<title>Node3</title>
<g id="a_Node000003"><a xlink:title=" ">
<polygon fill="#e0e0e0" stroke="#999999" points="983.02,-184 927.02,-184 927.02,-165 983.02,-165 983.02,-184"/>
<text text-anchor="middle" x="955.02" y="-172" font-family="Helvetica,sans-Serif" font-size="10.00">optional</text>
</a>
</g>
</g>
<!-- Node1&#45;&gt;Node3 -->
<g id="edge2_Node000001_Node000003" class="edge">
<title>Node1&#45;&gt;Node3</title>
<g id="a_edge2_Node000001_Node000003"><a xlink:title=" ">
<path fill="none" stroke="#63b8ff" d="M610.3,-227.44C680.42,-218.72 806.14,-202.28 913.02,-184 914.12,-183.81 915.23,-183.62 916.36,-183.42"/>
<polygon fill="#63b8ff" stroke="#63b8ff" points="917.41,-186.78 926.59,-181.49 916.12,-179.9 917.41,-186.78"/>
</a>
</g>
</g>
<!-- Node4 -->
<g id="Node000004" class="node">
<title>Node4</title>
<g id="a_Node000004"><a xlink:title=" ">
<polygon fill="#e0e0e0" stroke="#999999" points="374.02,-19 330.02,-19 330.02,0 374.02,0 374.02,-19"/>
<text text-anchor="middle" x="352.02" y="-7" font-family="Helvetica,sans-Serif" font-size="10.00">string</text>
</a>
</g>
</g>
<!-- Node1&#45;&gt;Node4 -->
<g id="edge3_Node000001_Node000004" class="edge">
<title>Node1&#45;&gt;Node4</title>
<g id="a_edge3_Node000001_Node000004"><a xlink:title=" ">
<path fill="none" stroke="#63b8ff" d="M501.65,-226.59C374.55,-208.03 64.18,-155.16 4.02,-74 -34.55,-21.98 226.55,-12.57 319.79,-10.87"/>
<polygon fill="#63b8ff" stroke="#63b8ff" points="319.86,-14.37 329.8,-10.71 319.74,-7.38 319.86,-14.37"/>
</a>
</g>
</g>
<!-- Node5 -->
<g id="Node000005" class="node">
<title>Node5</title>
<g id="a_Node000005"><a xlink:title=" ">
<polygon fill="#e0e0e0" stroke="#999999" points="1048.52,-184 1001.52,-184 1001.52,-165 1048.52,-165 1048.52,-184"/>
<text text-anchor="middle" x="1025.02" y="-172" font-family="Helvetica,sans-Serif" font-size="10.00">vector</text>
</a>
</g>
</g>
<!-- Node1&#45;&gt;Node5 -->
<g id="edge4_Node000001_Node000005" class="edge">
<title>Node1&#45;&gt;Node5</title>
<g id="a_edge4_Node000001_Node000005"><a xlink:title=" ">
<path fill="none" stroke="#63b8ff" d="M610.07,-230.21C690.96,-224.01 848.39,-209.91 991.47,-183.84"/>
<polygon fill="#63b8ff" stroke="#63b8ff" points="992.11,-187.28 1001.31,-182.02 990.84,-180.4 992.11,-187.28"/>
</a>
</g>
</g>
<!-- Node6 -->
<g id="Node000006" class="node">
<title>Node6</title>
<g id="a_Node000006"><a xlink:href="../../dc/df8/column_8h.html" target="_top" xlink:title=" ">
<polygon fill="white" stroke="#666666" points="606.52,-184 505.52,-184 505.52,-165 606.52,-165 606.52,-184"/>
<text text-anchor="middle" x="556.02" y="-172" font-family="Helvetica,sans-Serif" font-size="10.00">catalog/column.h</text>
</a>
</g>
</g>
<!-- Node1&#45;&gt;Node6 -->
<g id="edge5_Node000001_Node000006" class="edge">
<title>Node1&#45;&gt;Node6</title>
<g id="a_edge5_Node000001_Node000006"><a xlink:title=" ">
<path fill="none" stroke="#63b8ff" d="M556.02,-219.84C556.02,-212.21 556.02,-202.7 556.02,-194.45"/>
<polygon fill="#63b8ff" stroke="#63b8ff" points="559.52,-194.27 556.02,-184.27 552.52,-194.27 559.52,-194.27"/>
</a>
</g>
</g>
<!-- Node10 -->
<g id="Node000010" class="node">
<title>Node10</title>
<g id="a_Node000010"><a xlink:href="../../dd/d2d/exception_8h.html" target="_top" xlink:title=" ">
<polygon fill="white" stroke="#666666" points="390.52,-129 271.52,-129 271.52,-110 390.52,-110 390.52,-129"/>
<text text-anchor="middle" x="331.02" y="-117" font-family="Helvetica,sans-Serif" font-size="10.00">common/exception.h</text>
</a>
</g>
</g>
<!-- Node1&#45;&gt;Node10 -->
<g id="edge28_Node000001_Node000010" class="edge">
<title>Node1&#45;&gt;Node10</title>
<g id="a_edge28_Node000001_Node000010"><a xlink:title=" ">
<path fill="none" stroke="#63b8ff" d="M527.97,-219.85C484.15,-197.75 400.03,-155.31 357.3,-133.76"/>
<polygon fill="#63b8ff" stroke="#63b8ff" points="358.62,-130.5 348.11,-129.12 355.46,-136.75 358.62,-130.5"/>
</a>
</g>
</g>
<!-- Node16 -->
<g id="Node000016" class="node">
<title>Node16</title>
<g id="a_Node000016"><a xlink:href="../../df/def/type_8h.html" target="_top" xlink:title=" ">
<polygon fill="white" stroke="#666666" points="599.02,-74 527.02,-74 527.02,-55 599.02,-55 599.02,-74"/>
<text text-anchor="middle" x="563.02" y="-62" font-family="Helvetica,sans-Serif" font-size="10.00">type/type.h</text>
</a>
</g>
</g>
<!-- Node1&#45;&gt;Node16 -->
<g id="edge29_Node000001_Node000016" class="edge">
<title>Node1&#45;&gt;Node16</title>
<g id="a_edge29_Node000001_Node000016"><a xlink:title=" ">
<path fill="none" stroke="#63b8ff" d="M610.42,-231.65C721.65,-224.96 958.26,-200 880.02,-110 871.2,-99.86 694.8,-79.65 609.04,-70.36"/>
<polygon fill="#63b8ff" stroke="#63b8ff" points="609.37,-66.88 599.05,-69.29 608.62,-73.84 609.37,-66.88"/>
</a>
</g>
</g>
<!-- Node6&#45;&gt;Node2 -->
<g id="edge7_Node000006_Node000002" class="edge">
<title>Node6&#45;&gt;Node2</title>
<g id="a_edge7_Node000006_Node000002"><a xlink:title=" ">
<path fill="none" stroke="#63b8ff" d="M505.45,-167.89C446.58,-160.88 346.61,-147.53 262.02,-129 195.87,-114.51 120.34,-91.19 77.21,-77.2"/>
<polygon fill="#63b8ff" stroke="#63b8ff" points="78.07,-73.8 67.48,-74.03 75.9,-80.46 78.07,-73.8"/>
</a>
</g>
</g>
<!-- Node6&#45;&gt;Node4 -->
<g id="edge8_Node000006_Node000004" class="edge">
<title>Node6&#45;&gt;Node4</title>
<g id="a_edge8_Node000006_Node000004"><a xlink:title=" ">
<path fill="none" stroke="#63b8ff" d="M552.78,-164.96C544.15,-143.37 518.57,-86.07 479.02,-55 451.16,-33.12 411.75,-21.55 384.24,-15.75"/>
<polygon fill="#63b8ff" stroke="#63b8ff" points="384.82,-12.29 374.33,-13.8 383.47,-19.16 384.82,-12.29"/>
</a>
</g>
</g>
<!-- Node7 -->
<g id="Node000007" class="node">
<title>Node7</title>
<g id="a_Node000007"><a xlink:title=" ">
<polygon fill="#e0e0e0" stroke="#999999" points="652.02,-19 602.02,-19 602.02,0 652.02,0 652.02,-19"/>
<text text-anchor="middle" x="627.02" y="-7" font-family="Helvetica,sans-Serif" font-size="10.00">cstdint</text>
</a>
</g>
</g>
<!-- Node6&#45;&gt;Node7 -->
<g id="edge6_Node000006_Node000007" class="edge">
<title>Node6&#45;&gt;Node7</title>
<g id="a_edge6_Node000006_Node000007"><a xlink:title=" ">
<path fill="none" stroke="#63b8ff" d="M561.18,-164.98C571.26,-148.11 593.77,-109.03 608.02,-74 613.98,-59.32 619.03,-42.07 622.41,-29.25"/>
<polygon fill="#63b8ff" stroke="#63b8ff" points="625.87,-29.86 624.95,-19.31 619.09,-28.13 625.87,-29.86"/>
</a>
</g>
</g>
<!-- Node8 -->
<g id="Node000008" class="node">
<title>Node8</title>
<g id="a_Node000008"><a xlink:title=" ">
<polygon fill="#e0e0e0" stroke="#999999" points="773.52,-129 728.52,-129 728.52,-110 773.52,-110 773.52,-129"/>
<text text-anchor="middle" x="751.02" y="-117" font-family="Helvetica,sans-Serif" font-size="10.00">utility</text>
</a>
</g>
</g>
<!-- Node6&#45;&gt;Node8 -->
<g id="edge9_Node000006_Node000008" class="edge">
<title>Node6&#45;&gt;Node8</title>
<g id="a_edge9_Node000006_Node000008"><a xlink:title=" ">
<path fill="none" stroke="#63b8ff" d="M587.46,-164.99C618.48,-156.6 667.51,-143.31 718.46,-129.42"/>
<polygon fill="#63b8ff" stroke="#63b8ff" points="719.6,-132.74 728.33,-126.73 717.76,-125.98 719.6,-132.74"/>
</a>
</g>
</g>
<!-- Node9 -->
<g id="Node000009" class="node">
<title>Node9</title>
<g id="a_Node000009"><a xlink:title=" ">
<polygon fill="#e0e0e0" stroke="#999999" points="870.52,-129 791.52,-129 791.52,-110 870.52,-110 870.52,-129"/>
<text text-anchor="middle" x="831.02" y="-117" font-family="Helvetica,sans-Serif" font-size="10.00">fmt/format.h</text>
</a>
</g>
</g>
<!-- Node6&#45;&gt;Node9 -->
<g id="edge10_Node000006_Node000009" class="edge">
<title>Node6&#45;&gt;Node9</title>
<g id="a_edge10_Node000006_Node000009"><a xlink:title=" ">
<path fill="none" stroke="#63b8ff" d="M600.2,-164.98C649.73,-155.44 729.86,-140 781.48,-130.05"/>
<polygon fill="#63b8ff" stroke="#63b8ff" points="782.25,-133.46 791.4,-128.13 780.92,-126.59 782.25,-133.46"/>
</a>
</g>
</g>
<!-- Node6&#45;&gt;Node10 -->
<g id="edge11_Node000006_Node000010" class="edge">
<title>Node6&#45;&gt;Node10</title>
<g id="a_edge11_Node000006_Node000010"><a xlink:title=" ">
<path fill="none" stroke="#63b8ff" d="M519.87,-164.98C481.11,-155.86 419.46,-141.33 377.21,-131.38"/>
<polygon fill="#63b8ff" stroke="#63b8ff" points="377.99,-127.97 367.45,-129.08 376.38,-134.78 377.99,-127.97"/>
</a>
</g>
</g>
<!-- Node6&#45;&gt;Node16 -->
<g id="edge27_Node000006_Node000016" class="edge">
<title>Node6&#45;&gt;Node16</title>
<g id="a_edge27_Node000006_Node000016"><a xlink:title=" ">
<path fill="none" stroke="#63b8ff" d="M556.59,-164.66C557.72,-147.17 560.27,-107.8 561.8,-84.27"/>
<polygon fill="#63b8ff" stroke="#63b8ff" points="565.3,-84.36 562.45,-74.16 558.32,-83.91 565.3,-84.36"/>
</a>
</g>
</g>
<!-- Node18 -->
<g id="Node000018" class="node">
<title>Node18</title>
<g id="a_Node000018"><a xlink:href="../../de/d3c/macros_8h.html" target="_top" xlink:title=" ">
<polygon fill="white" stroke="#666666" points="710.52,-129 603.52,-129 603.52,-110 710.52,-110 710.52,-129"/>
<text text-anchor="middle" x="657.02" y="-117" font-family="Helvetica,sans-Serif" font-size="10.00">common/macros.h</text>
</a>
</g>
</g>
<!-- Node6&#45;&gt;Node18 -->
<g id="edge23_Node000006_Node000018" class="edge">
<title>Node6&#45;&gt;Node18</title>
<g id="a_edge23_Node000006_Node000018"><a xlink:title=" ">
<path fill="none" stroke="#63b8ff" d="M572.24,-164.98C588.2,-156.61 612.8,-143.7 631.39,-133.95"/>
<polygon fill="#63b8ff" stroke="#63b8ff" points="633.26,-136.92 640.49,-129.17 630.01,-130.72 633.26,-136.92"/>
</a>
</g>
</g>
<!-- Node10&#45;&gt;Node2 -->
<g id="edge16_Node000010_Node000002" class="edge">
<title>Node10&#45;&gt;Node2</title>
<g id="a_edge16_Node000010_Node000002"><a xlink:title=" ">
<path fill="none" stroke="#63b8ff" d="M278.97,-109.97C230.3,-101.83 155.36,-88.91 81.04,-74.13"/>
<polygon fill="#63b8ff" stroke="#63b8ff" points="81.53,-70.66 71.03,-72.13 80.15,-77.52 81.53,-70.66"/>
</a>
</g>
</g>
<!-- Node10&#45;&gt;Node4 -->
<g id="edge18_Node000010_Node000004" class="edge">
<title>Node10&#45;&gt;Node4</title>
<g id="a_edge18_Node000010_Node000004"><a xlink:title=" ">
<path fill="none" stroke="#63b8ff" d="M309.01,-109.87C284.38,-98.83 249.66,-78.34 264.02,-55 276.21,-35.16 300.29,-23.84 320.18,-17.59"/>
<polygon fill="#63b8ff" stroke="#63b8ff" points="321.17,-20.95 329.83,-14.84 319.25,-14.22 321.17,-20.95"/>
</a>
</g>
</g>
<!-- Node11 -->
<g id="Node000011" class="node">
<title>Node11</title>
<g id="a_Node000011"><a xlink:title=" ">
<polygon fill="#e0e0e0" stroke="#999999" points="323.02,-74 273.02,-74 273.02,-55 323.02,-55 323.02,-74"/>
<text text-anchor="middle" x="298.02" y="-62" font-family="Helvetica,sans-Serif" font-size="10.00">atomic</text>
</a>
</g>
</g>
<!-- Node10&#45;&gt;Node11 -->
<g id="edge12_Node000010_Node000011" class="edge">
<title>Node10&#45;&gt;Node11</title>
<g id="a_edge12_Node000010_Node000011"><a xlink:title=" ">
<path fill="none" stroke="#63b8ff" d="M325.57,-109.75C321,-102.42 314.35,-91.73 308.72,-82.7"/>
<polygon fill="#63b8ff" stroke="#63b8ff" points="311.62,-80.73 303.36,-74.09 305.68,-84.43 311.62,-80.73"/>
</a>
</g>
</g>
<!-- Node12 -->
<g id="Node000012" class="node">
<title>Node12</title>
<g id="a_Node000012"><a xlink:title=" ">
<polygon fill="#e0e0e0" stroke="#999999" points="387.02,-74 341.02,-74 341.02,-55 387.02,-55 387.02,-74"/>
<text text-anchor="middle" x="364.02" y="-62" font-family="Helvetica,sans-Serif" font-size="10.00">cstdio</text>
</a>
</g>
</g>
<!-- Node10&#45;&gt;Node12 -->
<g id="edge13_Node000010_Node000012" class="edge">
<title>Node10&#45;&gt;Node12</title>
<g id="a_edge13_Node000010_Node000012"><a xlink:title=" ">
<path fill="none" stroke="#63b8ff" d="M336.47,-109.75C341.03,-102.42 347.68,-91.73 353.31,-82.7"/>
<polygon fill="#63b8ff" stroke="#63b8ff" points="356.35,-84.43 358.67,-74.09 350.41,-80.73 356.35,-84.43"/>
</a>
</g>
</g>
<!-- Node13 -->
<g id="Node000013" class="node">
<title>Node13</title>
<g id="a_Node000013"><a xlink:title=" ">
<polygon fill="#e0e0e0" stroke="#999999" points="138.52,-74 89.52,-74 89.52,-55 138.52,-55 138.52,-74"/>
<text text-anchor="middle" x="114.02" y="-62" font-family="Helvetica,sans-Serif" font-size="10.00">cstdlib</text>
</a>
</g>
</g>
<!-- Node10&#45;&gt;Node13 -->
<g id="edge14_Node000010_Node000013" class="edge">
<title>Node10&#45;&gt;Node13</title>
<g id="a_edge14_Node000010_Node000013"><a xlink:title=" ">
<path fill="none" stroke="#63b8ff" d="M295.58,-109.95C260.71,-101.53 205.72,-88.2 148.48,-74.1"/>
<polygon fill="#63b8ff" stroke="#63b8ff" points="149.07,-70.64 138.53,-71.65 147.4,-77.44 149.07,-70.64"/>
</a>
</g>
</g>
<!-- Node14 -->
<g id="Node000014" class="node">
<title>Node14</title>
<g id="a_Node000014"><a xlink:title=" ">
<polygon fill="#e0e0e0" stroke="#999999" points="217.02,-74 157.02,-74 157.02,-55 217.02,-55 217.02,-74"/>
<text text-anchor="middle" x="187.02" y="-62" font-family="Helvetica,sans-Serif" font-size="10.00">iostream</text>
</a>
</g>
</g>
<!-- Node10&#45;&gt;Node14 -->
<g id="edge15_Node000010_Node000014" class="edge">
<title>Node10&#45;&gt;Node14</title>
<g id="a_edge15_Node000010_Node000014"><a xlink:title=" ">
<path fill="none" stroke="#63b8ff" d="M307.88,-109.98C284.19,-101.27 247.15,-87.63 220.31,-77.75"/>
<polygon fill="#63b8ff" stroke="#63b8ff" points="221.17,-74.34 210.57,-74.17 218.75,-80.91 221.17,-74.34"/>
</a>
</g>
</g>
<!-- Node15 -->
<g id="Node000015" class="node">
<title>Node15</title>
<g id="a_Node000015"><a xlink:title=" ">
<polygon fill="#e0e0e0" stroke="#999999" points="470.52,-74 405.52,-74 405.52,-55 470.52,-55 470.52,-74"/>
<text text-anchor="middle" x="438.02" y="-62" font-family="Helvetica,sans-Serif" font-size="10.00">stdexcept</text>
</a>
</g>
</g>
<!-- Node10&#45;&gt;Node15 -->
<g id="edge17_Node000010_Node000015" class="edge">
<title>Node10&#45;&gt;Node15</title>
<g id="a_edge17_Node000010_Node000015"><a xlink:title=" ">
<path fill="none" stroke="#63b8ff" d="M348.21,-109.98C365.27,-101.54 391.65,-88.47 411.41,-78.68"/>
<polygon fill="#63b8ff" stroke="#63b8ff" points="413.1,-81.75 420.51,-74.17 410,-75.47 413.1,-81.75"/>
</a>
</g>
</g>
<!-- Node10&#45;&gt;Node16 -->
<g id="edge19_Node000010_Node000016" class="edge">
<title>Node10&#45;&gt;Node16</title>
<g id="a_edge19_Node000010_Node000016"><a xlink:title=" ">
<path fill="none" stroke="#63b8ff" d="M368.29,-109.98C408.81,-100.73 473.6,-85.93 517.2,-75.97"/>
<polygon fill="#63b8ff" stroke="#63b8ff" points="518.01,-79.37 526.98,-73.73 516.45,-72.55 518.01,-79.37"/>
</a>
</g>
</g>
<!-- Node16&#45;&gt;Node4 -->
<g id="edge21_Node000016_Node000004" class="edge">
<title>Node16&#45;&gt;Node4</title>
<g id="a_edge21_Node000016_Node000004"><a xlink:title=" ">
<path fill="none" stroke="#63b8ff" d="M529.12,-54.98C489.12,-44.94 423.13,-28.36 383.99,-18.53"/>
<polygon fill="#63b8ff" stroke="#63b8ff" points="384.73,-15.11 374.18,-16.07 383.03,-21.9 384.73,-15.11"/>
</a>
</g>
</g>
<!-- Node16&#45;&gt;Node7 -->
<g id="edge20_Node000016_Node000007" class="edge">
<title>Node16&#45;&gt;Node7</title>
<g id="a_edge20_Node000016_Node000007"><a xlink:title=" ">
<path fill="none" stroke="#63b8ff" d="M573.3,-54.98C582.85,-47.07 597.3,-35.11 608.8,-25.58"/>
<polygon fill="#63b8ff" stroke="#63b8ff" points="611.08,-28.24 616.55,-19.17 606.61,-22.85 611.08,-28.24"/>
</a>
</g>
</g>
<!-- Node17 -->
<g id="Node000017" class="node">
<title>Node17</title>
<g id="a_Node000017"><a xlink:href="../../dc/df2/type__id_8h.html" target="_top" xlink:title=" ">
<polygon fill="white" stroke="#666666" points="584.02,-19 498.02,-19 498.02,0 584.02,0 584.02,-19"/>
<text text-anchor="middle" x="541.02" y="-7" font-family="Helvetica,sans-Serif" font-size="10.00">type/type_id.h</text>
</a>
</g>
</g>
<!-- Node16&#45;&gt;Node17 -->
<g id="edge22_Node000016_Node000017" class="edge">
<title>Node16&#45;&gt;Node17</title>
<g id="a_edge22_Node000016_Node000017"><a xlink:title=" ">
<path fill="none" stroke="#63b8ff" d="M559.38,-54.75C556.44,-47.65 552.18,-37.4 548.51,-28.56"/>
<polygon fill="#63b8ff" stroke="#63b8ff" points="551.65,-26.98 544.58,-19.09 545.18,-29.67 551.65,-26.98"/>
</a>
</g>
</g>
<!-- Node18&#45;&gt;Node15 -->
<g id="edge26_Node000018_Node000015" class="edge">
<title>Node18&#45;&gt;Node15</title>
<g id="a_edge26_Node000018_Node000015"><a xlink:title=" ">
<path fill="none" stroke="#63b8ff" d="M621.83,-109.98C583.29,-100.66 521.51,-85.71 480.35,-75.74"/>
<polygon fill="#63b8ff" stroke="#63b8ff" points="481.15,-72.34 470.61,-73.39 479.51,-79.14 481.15,-72.34"/>
</a>
</g>
</g>
<!-- Node19 -->
<g id="Node000019" class="node">
<title>Node19</title>
<g id="a_Node000019"><a xlink:title=" ">
<polygon fill="#e0e0e0" stroke="#999999" points="707.02,-74 655.02,-74 655.02,-55 707.02,-55 707.02,-74"/>
<text text-anchor="middle" x="681.02" y="-62" font-family="Helvetica,sans-Serif" font-size="10.00">cassert</text>
</a>
</g>
</g>
<!-- Node18&#45;&gt;Node19 -->
<g id="edge24_Node000018_Node000019" class="edge">
<title>Node18&#45;&gt;Node19</title>
<g id="a_edge24_Node000018_Node000019"><a xlink:title=" ">
<path fill="none" stroke="#63b8ff" d="M660.98,-109.75C664.23,-102.57 668.94,-92.18 672.97,-83.27"/>
<polygon fill="#63b8ff" stroke="#63b8ff" points="676.19,-84.64 677.13,-74.09 669.81,-81.75 676.19,-84.64"/>
</a>
</g>
</g>
<!-- Node20 -->
<g id="Node000020" class="node">
<title>Node20</title>
<g id="a_Node000020"><a xlink:title=" ">
<polygon fill="#e0e0e0" stroke="#999999" points="790.52,-74 725.52,-74 725.52,-55 790.52,-55 790.52,-74"/>
<text text-anchor="middle" x="758.02" y="-62" font-family="Helvetica,sans-Serif" font-size="10.00">exception</text>
</a>
</g>
</g>
<!-- Node18&#45;&gt;Node20 -->
<g id="edge25_Node000018_Node000020" class="edge">
<title>Node18&#45;&gt;Node20</title>
<g id="a_edge25_Node000018_Node000020"><a xlink:title=" ">
<path fill="none" stroke="#63b8ff" d="M673.24,-109.98C689.2,-101.61 713.8,-88.7 732.39,-78.95"/>
<polygon fill="#63b8ff" stroke="#63b8ff" points="734.26,-81.92 741.49,-74.17 731.01,-75.72 734.26,-81.92"/>
</a>
</g>
</g>
</g>
</svg>

<g id="navigator" transform="translate(0 0)" fill="#404254">
  <rect fill="#f2f5e9" fill-opacity="0.5" stroke="#606060" stroke-width=".5" x="0" y="0" width="60" height="60"/>
  <use id="zoomplus" xlink:href="#zoomPlus" x="17" y="9" onmousedown="handleZoom(evt,'in')"/>
  <use id="zoomminus" xlink:href="#zoomMin" x="42" y="9" onmousedown="handleZoom(evt,'out')"/>
  <use id="reset" xlink:href="#resetDef" x="30" y="36" onmousedown="handleReset()"/>
   <use id="arrowup" xlink:href="#arrowUp" x="0" y="0" onmousedown="handlePan(0,-1)"/>
  <use id="arrowright" xlink:href="#arrowRight" x="0" y="0" onmousedown="handlePan(1,0)"/>
  <use id="arrowdown" xlink:href="#arrowDown" x="0" y="0" onmousedown="handlePan(0,1)"/>
  <use id="arrowleft" xlink:href="#arrowLeft" x="0" y="0" onmousedown="handlePan(-1,0)"/>
</g>
<svg viewBox="0 0 15 15" width="100%" height="30px" preserveAspectRatio="xMaxYMin meet">
 <g id="arrow_out" transform="scale(0.3 0.3)">
  <a xlink:href="schema_8h__incl_org.svg" target="_base">
   <rect id="button" ry="5" rx="5" y="6" x="6" height="38" width="38"
        fill="#f2f5e9" fill-opacity="0.5" stroke="#606060" stroke-width="1.0"/>
   <path id="arrow"
     d="M 11.500037,31.436501 C 11.940474,20.09759 22.043105,11.32322 32.158766,21.979434 L 37.068811,17.246167 C 37.068811,17.246167 37.088388,32 37.088388,32 L 22.160133,31.978069 C 22.160133,31.978069 26.997745,27.140456 26.997745,27.140456 C 18.528582,18.264221 13.291696,25.230495 11.500037,31.436501 z"
     style="fill:#404040;"/>
  </a>
 </g>
</svg>

<style type='text/css'>
<![CDATA[
[data-mouse-over-selected='false'] { opacity: 0.7; }
[data-mouse-over-selected='true']  { opacity: 1.0; }
]]>
</style>
<script type="application/ecmascript"><![CDATA[
document.addEventListener('DOMContentLoaded', (event) => {
  highlightEdges();
  highlightAdjacentNodes();
});
]]></script>
</svg>
