<?xml version="1.0" encoding="UTF-8" standalone="no"?>
<!DOCTYPE svg PUBLIC "-//W3C//DTD SVG 1.1//EN"
 "http://www.w3.org/Graphics/SVG/1.1/DTD/svg11.dtd">
<!-- Generated by graphviz version 2.43.0 (0)
 -->
<!-- Title: src/include/binder/expressions/bound_func_call.h Pages: 1 -->
<svg width="632pt" height="115pt"
 viewBox="0.00 0.00 632.00 115.00" xmlns="http://www.w3.org/2000/svg" xmlns:xlink="http://www.w3.org/1999/xlink">
<g id="graph0" class="graph" transform="scale(1 1) rotate(0) translate(4 111)">
<title>src/include/binder/expressions/bound_func_call.h</title>
<!-- Node1 -->
<g id="Node000001" class="node">
<title>Node1</title>
<g id="a_Node000001"><a xlink:title=" ">
<polygon fill="#999999" stroke="#666666" points="381,-107 244,-107 244,-66 381,-66 381,-107"/>
<text text-anchor="start" x="252" y="-95" font-family="Helvetica,sans-Serif" font-size="10.00">src/include/binder</text>
<text text-anchor="start" x="252" y="-84" font-family="Helvetica,sans-Serif" font-size="10.00">/expressions/bound_func</text>
<text text-anchor="middle" x="312.5" y="-73" font-family="Helvetica,sans-Serif" font-size="10.00">_call.h</text>
</a>
</g>
</g>
<!-- Node2 -->
<g id="Node000002" class="node">
<title>Node2</title>
<g id="a_Node000002"><a xlink:href="../../d7/d35/bind__select_8cpp.html" target="_top" xlink:title=" ">
<polygon fill="white" stroke="#666666" points="143,-24.5 0,-24.5 0,-5.5 143,-5.5 143,-24.5"/>
<text text-anchor="middle" x="71.5" y="-12.5" font-family="Helvetica,sans-Serif" font-size="10.00">src/binder/bind_select.cpp</text>
</a>
</g>
</g>
<!-- Node1&#45;&gt;Node2 -->
<g id="edge1_Node000001_Node000002" class="edge">
<title>Node1&#45;&gt;Node2</title>
<g id="a_edge1_Node000001_Node000002"><a xlink:title=" ">
<path fill="none" stroke="#63b8ff" d="M234.84,-63.1C189.19,-49.94 134.1,-34.05 100.99,-24.5"/>
<polygon fill="#63b8ff" stroke="#63b8ff" points="234.15,-66.55 244.73,-65.96 236.09,-59.82 234.15,-66.55"/>
</a>
</g>
</g>
<!-- Node3 -->
<g id="Node000003" class="node">
<title>Node3</title>
<g id="a_Node000003"><a xlink:href="../../d9/d02/binder_2fmt__impl_8cpp.html" target="_top" xlink:title=" ">
<polygon fill="white" stroke="#666666" points="293.5,-24.5 161.5,-24.5 161.5,-5.5 293.5,-5.5 293.5,-24.5"/>
<text text-anchor="middle" x="227.5" y="-12.5" font-family="Helvetica,sans-Serif" font-size="10.00">src/binder/fmt_impl.cpp</text>
</a>
</g>
</g>
<!-- Node1&#45;&gt;Node3 -->
<g id="edge2_Node000001_Node000003" class="edge">
<title>Node1&#45;&gt;Node3</title>
<g id="a_edge2_Node000001_Node000003"><a xlink:title=" ">
<path fill="none" stroke="#63b8ff" d="M280.35,-59.22C265.51,-47.07 248.86,-33.46 238.29,-24.82"/>
<polygon fill="#63b8ff" stroke="#63b8ff" points="278.41,-62.15 288.37,-65.77 282.84,-56.73 278.41,-62.15"/>
</a>
</g>
</g>
<!-- Node4 -->
<g id="Node000004" class="node">
<title>Node4</title>
<g id="a_Node000004"><a xlink:href="../../d0/d29/plan__expression_8cpp.html" target="_top" xlink:title=" ">
<polygon fill="white" stroke="#666666" points="485,-24.5 312,-24.5 312,-5.5 485,-5.5 485,-24.5"/>
<text text-anchor="middle" x="398.5" y="-12.5" font-family="Helvetica,sans-Serif" font-size="10.00">src/planner/plan_expression.cpp</text>
</a>
</g>
</g>
<!-- Node1&#45;&gt;Node4 -->
<g id="edge3_Node000001_Node000004" class="edge">
<title>Node1&#45;&gt;Node4</title>
<g id="a_edge3_Node000001_Node000004"><a xlink:title=" ">
<path fill="none" stroke="#63b8ff" d="M345.02,-59.22C360.05,-47.07 376.89,-33.46 387.59,-24.82"/>
<polygon fill="#63b8ff" stroke="#63b8ff" points="342.49,-56.76 336.91,-65.77 346.89,-62.21 342.49,-56.76"/>
</a>
</g>
</g>
<!-- Node5 -->
<g id="Node000005" class="node">
<title>Node5</title>
<g id="a_Node000005"><a xlink:href="../../d6/da3/plan__func__call_8cpp.html" target="_top" xlink:title=" ">
<polygon fill="white" stroke="#666666" points="624,-30 503,-30 503,0 624,0 624,-30"/>
<text text-anchor="start" x="511" y="-18" font-family="Helvetica,sans-Serif" font-size="10.00">src/planner/plan_func</text>
<text text-anchor="middle" x="563.5" y="-7" font-family="Helvetica,sans-Serif" font-size="10.00">_call.cpp</text>
</a>
</g>
</g>
<!-- Node1&#45;&gt;Node5 -->
<g id="edge4_Node000001_Node000005" class="edge">
<title>Node1&#45;&gt;Node5</title>
<g id="a_edge4_Node000001_Node000005"><a xlink:title=" ">
<path fill="none" stroke="#63b8ff" d="M390.78,-63.82C430.62,-52.79 477.9,-39.7 512.91,-30.01"/>
<polygon fill="#63b8ff" stroke="#63b8ff" points="389.79,-60.47 381.09,-66.51 391.66,-67.21 389.79,-60.47"/>
</a>
</g>
</g>
</g>
</svg>
