<?xml version="1.0" encoding="UTF-8" standalone="no"?>
<!DOCTYPE svg PUBLIC "-//W3C//DTD SVG 1.1//EN"
 "http://www.w3.org/Graphics/SVG/1.1/DTD/svg11.dtd">
<!-- Generated by graphviz version 2.43.0 (0)
 -->
<!-- Title: src/include/binder/bound_expression.h Pages: 1 -->
<svg width="351pt" height="148pt"
 viewBox="0.00 0.00 350.50 148.00" xmlns="http://www.w3.org/2000/svg" xmlns:xlink="http://www.w3.org/1999/xlink">
<g id="graph0" class="graph" transform="scale(1 1) rotate(0) translate(4 144)">
<title>src/include/binder/bound_expression.h</title>
<!-- Node1 -->
<g id="Node000001" class="node">
<title>Node1</title>
<g id="a_Node000001"><a xlink:title=" ">
<polygon fill="#999999" stroke="#666666" points="203.5,-140 86.5,-140 86.5,-110 203.5,-110 203.5,-140"/>
<text text-anchor="start" x="94.5" y="-128" font-family="Helvetica,sans-Serif" font-size="10.00">src/include/binder</text>
<text text-anchor="middle" x="145" y="-117" font-family="Helvetica,sans-Serif" font-size="10.00">/bound_expression.h</text>
</a>
</g>
</g>
<!-- Node2 -->
<g id="Node000002" class="node">
<title>Node2</title>
<g id="a_Node000002"><a xlink:title=" ">
<polygon fill="#e0e0e0" stroke="#999999" points="58,-74 0,-74 0,-55 58,-55 58,-74"/>
<text text-anchor="middle" x="29" y="-62" font-family="Helvetica,sans-Serif" font-size="10.00">memory</text>
</a>
</g>
</g>
<!-- Node1&#45;&gt;Node2 -->
<g id="edge1_Node000001_Node000002" class="edge">
<title>Node1&#45;&gt;Node2</title>
<g id="a_edge1_Node000001_Node000002"><a xlink:title=" ">
<path fill="none" stroke="#63b8ff" d="M117.22,-109.99C98.38,-100.49 73.65,-88.02 55.16,-78.69"/>
<polygon fill="#63b8ff" stroke="#63b8ff" points="56.64,-75.52 46.13,-74.14 53.48,-81.77 56.64,-75.52"/>
</a>
</g>
</g>
<!-- Node3 -->
<g id="Node000003" class="node">
<title>Node3</title>
<g id="a_Node000003"><a xlink:title=" ">
<polygon fill="#e0e0e0" stroke="#999999" points="120,-74 76,-74 76,-55 120,-55 120,-74"/>
<text text-anchor="middle" x="98" y="-62" font-family="Helvetica,sans-Serif" font-size="10.00">string</text>
</a>
</g>
</g>
<!-- Node1&#45;&gt;Node3 -->
<g id="edge2_Node000001_Node000003" class="edge">
<title>Node1&#45;&gt;Node3</title>
<g id="a_edge2_Node000001_Node000003"><a xlink:title=" ">
<path fill="none" stroke="#63b8ff" d="M133.62,-109.84C126.94,-101.52 118.45,-90.96 111.44,-82.23"/>
<polygon fill="#63b8ff" stroke="#63b8ff" points="114.03,-79.87 105.04,-74.27 108.58,-84.25 114.03,-79.87"/>
</a>
</g>
</g>
<!-- Node4 -->
<g id="Node000004" class="node">
<title>Node4</title>
<g id="a_Node000004"><a xlink:href="../../de/d3c/macros_8h.html" target="_top" xlink:title=" ">
<polygon fill="white" stroke="#666666" points="245.5,-74 138.5,-74 138.5,-55 245.5,-55 245.5,-74"/>
<text text-anchor="middle" x="192" y="-62" font-family="Helvetica,sans-Serif" font-size="10.00">common/macros.h</text>
</a>
</g>
</g>
<!-- Node1&#45;&gt;Node4 -->
<g id="edge3_Node000001_Node000004" class="edge">
<title>Node1&#45;&gt;Node4</title>
<g id="a_edge3_Node000001_Node000004"><a xlink:title=" ">
<path fill="none" stroke="#63b8ff" d="M156.38,-109.84C163.06,-101.52 171.55,-90.96 178.56,-82.23"/>
<polygon fill="#63b8ff" stroke="#63b8ff" points="181.42,-84.25 184.96,-74.27 175.97,-79.87 181.42,-84.25"/>
</a>
</g>
</g>
<!-- Node8 -->
<g id="Node000008" class="node">
<title>Node8</title>
<g id="a_Node000008"><a xlink:title=" ">
<polygon fill="#e0e0e0" stroke="#999999" points="342.5,-74 263.5,-74 263.5,-55 342.5,-55 342.5,-74"/>
<text text-anchor="middle" x="303" y="-62" font-family="Helvetica,sans-Serif" font-size="10.00">fmt/format.h</text>
</a>
</g>
</g>
<!-- Node1&#45;&gt;Node8 -->
<g id="edge7_Node000001_Node000008" class="edge">
<title>Node1&#45;&gt;Node8</title>
<g id="a_edge7_Node000001_Node000008"><a xlink:title=" ">
<path fill="none" stroke="#63b8ff" d="M182.84,-109.99C209.44,-100.14 244.67,-87.1 270.1,-77.68"/>
<polygon fill="#63b8ff" stroke="#63b8ff" points="271.5,-80.89 279.67,-74.14 269.07,-74.33 271.5,-80.89"/>
</a>
</g>
</g>
<!-- Node5 -->
<g id="Node000005" class="node">
<title>Node5</title>
<g id="a_Node000005"><a xlink:title=" ">
<polygon fill="#e0e0e0" stroke="#999999" points="141,-19 89,-19 89,0 141,0 141,-19"/>
<text text-anchor="middle" x="115" y="-7" font-family="Helvetica,sans-Serif" font-size="10.00">cassert</text>
</a>
</g>
</g>
<!-- Node4&#45;&gt;Node5 -->
<g id="edge4_Node000004_Node000005" class="edge">
<title>Node4&#45;&gt;Node5</title>
<g id="a_edge4_Node000004_Node000005"><a xlink:title=" ">
<path fill="none" stroke="#63b8ff" d="M179.63,-54.98C167.91,-46.92 150.08,-34.65 136.11,-25.03"/>
<polygon fill="#63b8ff" stroke="#63b8ff" points="137.82,-21.96 127.6,-19.17 133.85,-27.72 137.82,-21.96"/>
</a>
</g>
</g>
<!-- Node6 -->
<g id="Node000006" class="node">
<title>Node6</title>
<g id="a_Node000006"><a xlink:title=" ">
<polygon fill="#e0e0e0" stroke="#999999" points="224.5,-19 159.5,-19 159.5,0 224.5,0 224.5,-19"/>
<text text-anchor="middle" x="192" y="-7" font-family="Helvetica,sans-Serif" font-size="10.00">exception</text>
</a>
</g>
</g>
<!-- Node4&#45;&gt;Node6 -->
<g id="edge5_Node000004_Node000006" class="edge">
<title>Node4&#45;&gt;Node6</title>
<g id="a_edge5_Node000004_Node000006"><a xlink:title=" ">
<path fill="none" stroke="#63b8ff" d="M192,-54.75C192,-47.8 192,-37.85 192,-29.13"/>
<polygon fill="#63b8ff" stroke="#63b8ff" points="195.5,-29.09 192,-19.09 188.5,-29.09 195.5,-29.09"/>
</a>
</g>
</g>
<!-- Node7 -->
<g id="Node000007" class="node">
<title>Node7</title>
<g id="a_Node000007"><a xlink:title=" ">
<polygon fill="#e0e0e0" stroke="#999999" points="307.5,-19 242.5,-19 242.5,0 307.5,0 307.5,-19"/>
<text text-anchor="middle" x="275" y="-7" font-family="Helvetica,sans-Serif" font-size="10.00">stdexcept</text>
</a>
</g>
</g>
<!-- Node4&#45;&gt;Node7 -->
<g id="edge6_Node000004_Node000007" class="edge">
<title>Node4&#45;&gt;Node7</title>
<g id="a_edge6_Node000004_Node000007"><a xlink:title=" ">
<path fill="none" stroke="#63b8ff" d="M205.34,-54.98C218.09,-46.84 237.55,-34.41 252.67,-24.76"/>
<polygon fill="#63b8ff" stroke="#63b8ff" points="254.88,-27.5 261.42,-19.17 251.11,-21.6 254.88,-27.5"/>
</a>
</g>
</g>
</g>
</svg>
