<?xml version="1.0" encoding="UTF-8" standalone="no"?>
<!DOCTYPE svg PUBLIC "-//W3C//DTD SVG 1.1//EN"
 "http://www.w3.org/Graphics/SVG/1.1/DTD/svg11.dtd">
<!-- Generated by graphviz version 2.43.0 (0)
 -->
<!-- Title: src/include/binder/table_ref/bound_cross_product_ref.h Pages: 1 -->
<svg width="413pt" height="225pt"
 viewBox="0.00 0.00 412.50 225.00" xmlns="http://www.w3.org/2000/svg" xmlns:xlink="http://www.w3.org/1999/xlink">

<svg id="main" version="1.1" xmlns="http://www.w3.org/2000/svg" xmlns:xlink="http://www.w3.org/1999/xlink" xml:space="preserve" onload="init(evt)">
<style type="text/css"><![CDATA[
.node, .edge {opacity: 0.7;}
.node.selected, .edge.selected {opacity: 1;}
.edge:hover path { stroke: red; }
.edge:hover polygon { stroke: red; fill: red; }
]]></style>
<script type="application/ecmascript" xlink:href="../../svg.min.js"/>
<svg id="graph" class="graph">
<g id="graph0" class="graph" transform="scale(1 1) rotate(0) translate(4 221)">
<title>src/include/binder/table_ref/bound_cross_product_ref.h</title>
<!-- Node1 -->
<g id="Node000001" class="node">
<title>Node1</title>
<g id="a_Node000001"><a xlink:title=" ">
<polygon fill="#999999" stroke="#666666" points="234.5,-217 107.5,-217 107.5,-176 234.5,-176 234.5,-217"/>
<text text-anchor="start" x="115.5" y="-205" font-family="Helvetica,sans-Serif" font-size="10.00">src/include/binder</text>
<text text-anchor="start" x="115.5" y="-194" font-family="Helvetica,sans-Serif" font-size="10.00">/table_ref/bound_cross</text>
<text text-anchor="middle" x="171" y="-183" font-family="Helvetica,sans-Serif" font-size="10.00">_product_ref.h</text>
</a>
</g>
</g>
<!-- Node2 -->
<g id="Node000002" class="node">
<title>Node2</title>
<g id="a_Node000002"><a xlink:title=" ">
<polygon fill="#e0e0e0" stroke="#999999" points="58,-74 0,-74 0,-55 58,-55 58,-74"/>
<text text-anchor="middle" x="29" y="-62" font-family="Helvetica,sans-Serif" font-size="10.00">memory</text>
</a>
</g>
</g>
<!-- Node1&#45;&gt;Node2 -->
<g id="edge1_Node000001_Node000002" class="edge">
<title>Node1&#45;&gt;Node2</title>
<g id="a_edge1_Node000001_Node000002"><a xlink:title=" ">
<path fill="none" stroke="#63b8ff" d="M140.99,-175.82C126.52,-165.78 109.26,-152.98 95,-140 75.13,-121.92 55.05,-98.32 42.34,-82.57"/>
<polygon fill="#63b8ff" stroke="#63b8ff" points="44.74,-79.96 35.77,-74.31 39.26,-84.32 44.74,-79.96"/>
</a>
</g>
</g>
<!-- Node3 -->
<g id="Node000003" class="node">
<title>Node3</title>
<g id="a_Node000003"><a xlink:title=" ">
<polygon fill="#e0e0e0" stroke="#999999" points="120,-74 76,-74 76,-55 120,-55 120,-74"/>
<text text-anchor="middle" x="98" y="-62" font-family="Helvetica,sans-Serif" font-size="10.00">string</text>
</a>
</g>
</g>
<!-- Node1&#45;&gt;Node3 -->
<g id="edge2_Node000001_Node000003" class="edge">
<title>Node1&#45;&gt;Node3</title>
<g id="a_edge2_Node000001_Node000003"><a xlink:title=" ">
<path fill="none" stroke="#63b8ff" d="M139.7,-175.88C127.47,-166.54 114.59,-154.29 107,-140 97.85,-122.78 96.32,-100.23 96.63,-84.47"/>
<polygon fill="#63b8ff" stroke="#63b8ff" points="100.14,-84.52 97.1,-74.36 93.14,-84.19 100.14,-84.52"/>
</a>
</g>
</g>
<!-- Node4 -->
<g id="Node000004" class="node">
<title>Node4</title>
<g id="a_Node000004"><a xlink:title=" ">
<polygon fill="#e0e0e0" stroke="#999999" points="289.5,-134.5 244.5,-134.5 244.5,-115.5 289.5,-115.5 289.5,-134.5"/>
<text text-anchor="middle" x="267" y="-122.5" font-family="Helvetica,sans-Serif" font-size="10.00">utility</text>
</a>
</g>
</g>
<!-- Node1&#45;&gt;Node4 -->
<g id="edge3_Node000001_Node000004" class="edge">
<title>Node1&#45;&gt;Node4</title>
<g id="a_edge3_Node000001_Node000004"><a xlink:title=" ">
<path fill="none" stroke="#63b8ff" d="M198,-175.96C213.61,-164.65 232.92,-150.67 247.14,-140.38"/>
<polygon fill="#63b8ff" stroke="#63b8ff" points="249.21,-143.2 255.25,-134.5 245.1,-137.53 249.21,-143.2"/>
</a>
</g>
</g>
<!-- Node5 -->
<g id="Node000005" class="node">
<title>Node5</title>
<g id="a_Node000005"><a xlink:href="../../d4/d36/bound__table__ref_8h.html" target="_top" xlink:title=" ">
<polygon fill="white" stroke="#666666" points="226,-140 116,-140 116,-110 226,-110 226,-140"/>
<text text-anchor="start" x="124" y="-128" font-family="Helvetica,sans-Serif" font-size="10.00">binder/bound_table</text>
<text text-anchor="middle" x="171" y="-117" font-family="Helvetica,sans-Serif" font-size="10.00">_ref.h</text>
</a>
</g>
</g>
<!-- Node1&#45;&gt;Node5 -->
<g id="edge4_Node000001_Node000005" class="edge">
<title>Node1&#45;&gt;Node5</title>
<g id="a_edge4_Node000001_Node000005"><a xlink:title=" ">
<path fill="none" stroke="#63b8ff" d="M171,-175.77C171,-167.85 171,-158.63 171,-150.3"/>
<polygon fill="#63b8ff" stroke="#63b8ff" points="174.5,-150.04 171,-140.04 167.5,-150.04 174.5,-150.04"/>
</a>
</g>
</g>
<!-- Node11 -->
<g id="Node000011" class="node">
<title>Node11</title>
<g id="a_Node000011"><a xlink:title=" ">
<polygon fill="#e0e0e0" stroke="#999999" points="374.5,-134.5 307.5,-134.5 307.5,-115.5 374.5,-115.5 374.5,-134.5"/>
<text text-anchor="middle" x="341" y="-122.5" font-family="Helvetica,sans-Serif" font-size="10.00">fmt/core.h</text>
</a>
</g>
</g>
<!-- Node1&#45;&gt;Node11 -->
<g id="edge12_Node000001_Node000011" class="edge">
<title>Node1&#45;&gt;Node11</title>
<g id="a_edge12_Node000001_Node000011"><a xlink:title=" ">
<path fill="none" stroke="#63b8ff" d="M218.81,-175.96C248.28,-163.9 285.2,-148.81 310.69,-138.39"/>
<polygon fill="#63b8ff" stroke="#63b8ff" points="312.27,-141.53 320.2,-134.5 309.62,-135.05 312.27,-141.53"/>
</a>
</g>
</g>
<!-- Node5&#45;&gt;Node2 -->
<g id="edge5_Node000005_Node000002" class="edge">
<title>Node5&#45;&gt;Node2</title>
<g id="a_edge5_Node000005_Node000002"><a xlink:title=" ">
<path fill="none" stroke="#63b8ff" d="M136.99,-109.99C113.4,-100.27 82.26,-87.44 59.48,-78.06"/>
<polygon fill="#63b8ff" stroke="#63b8ff" points="60.55,-74.71 49.97,-74.14 57.88,-81.18 60.55,-74.71"/>
</a>
</g>
</g>
<!-- Node5&#45;&gt;Node3 -->
<g id="edge6_Node000005_Node000003" class="edge">
<title>Node5&#45;&gt;Node3</title>
<g id="a_edge6_Node000005_Node000003"><a xlink:title=" ">
<path fill="none" stroke="#63b8ff" d="M153.33,-109.84C142.3,-101 128.11,-89.63 116.87,-80.62"/>
<polygon fill="#63b8ff" stroke="#63b8ff" points="118.93,-77.79 108.94,-74.27 114.55,-83.25 118.93,-77.79"/>
</a>
</g>
</g>
<!-- Node6 -->
<g id="Node000006" class="node">
<title>Node6</title>
<g id="a_Node000006"><a xlink:title=" ">
<polygon fill="#e0e0e0" stroke="#999999" points="217.5,-74 138.5,-74 138.5,-55 217.5,-55 217.5,-74"/>
<text text-anchor="middle" x="178" y="-62" font-family="Helvetica,sans-Serif" font-size="10.00">fmt/format.h</text>
</a>
</g>
</g>
<!-- Node5&#45;&gt;Node6 -->
<g id="edge7_Node000005_Node000006" class="edge">
<title>Node5&#45;&gt;Node6</title>
<g id="a_edge7_Node000005_Node000006"><a xlink:title=" ">
<path fill="none" stroke="#63b8ff" d="M172.69,-109.84C173.61,-102.21 174.74,-92.7 175.73,-84.45"/>
<polygon fill="#63b8ff" stroke="#63b8ff" points="179.24,-84.61 176.95,-74.27 172.29,-83.78 179.24,-84.61"/>
</a>
</g>
</g>
<!-- Node7 -->
<g id="Node000007" class="node">
<title>Node7</title>
<g id="a_Node000007"><a xlink:href="../../de/d3c/macros_8h.html" target="_top" xlink:title=" ">
<polygon fill="white" stroke="#666666" points="342.5,-74 235.5,-74 235.5,-55 342.5,-55 342.5,-74"/>
<text text-anchor="middle" x="289" y="-62" font-family="Helvetica,sans-Serif" font-size="10.00">common/macros.h</text>
</a>
</g>
</g>
<!-- Node5&#45;&gt;Node7 -->
<g id="edge8_Node000005_Node000007" class="edge">
<title>Node5&#45;&gt;Node7</title>
<g id="a_edge8_Node000005_Node000007"><a xlink:title=" ">
<path fill="none" stroke="#63b8ff" d="M199.26,-109.99C218.42,-100.49 243.58,-88.02 262.39,-78.69"/>
<polygon fill="#63b8ff" stroke="#63b8ff" points="264.17,-81.72 271.57,-74.14 261.06,-75.45 264.17,-81.72"/>
</a>
</g>
</g>
<!-- Node8 -->
<g id="Node000008" class="node">
<title>Node8</title>
<g id="a_Node000008"><a xlink:title=" ">
<polygon fill="#e0e0e0" stroke="#999999" points="238,-19 186,-19 186,0 238,0 238,-19"/>
<text text-anchor="middle" x="212" y="-7" font-family="Helvetica,sans-Serif" font-size="10.00">cassert</text>
</a>
</g>
</g>
<!-- Node7&#45;&gt;Node8 -->
<g id="edge9_Node000007_Node000008" class="edge">
<title>Node7&#45;&gt;Node8</title>
<g id="a_edge9_Node000007_Node000008"><a xlink:title=" ">
<path fill="none" stroke="#63b8ff" d="M276.63,-54.98C264.91,-46.92 247.08,-34.65 233.11,-25.03"/>
<polygon fill="#63b8ff" stroke="#63b8ff" points="234.82,-21.96 224.6,-19.17 230.85,-27.72 234.82,-21.96"/>
</a>
</g>
</g>
<!-- Node9 -->
<g id="Node000009" class="node">
<title>Node9</title>
<g id="a_Node000009"><a xlink:title=" ">
<polygon fill="#e0e0e0" stroke="#999999" points="321.5,-19 256.5,-19 256.5,0 321.5,0 321.5,-19"/>
<text text-anchor="middle" x="289" y="-7" font-family="Helvetica,sans-Serif" font-size="10.00">exception</text>
</a>
</g>
</g>
<!-- Node7&#45;&gt;Node9 -->
<g id="edge10_Node000007_Node000009" class="edge">
<title>Node7&#45;&gt;Node9</title>
<g id="a_edge10_Node000007_Node000009"><a xlink:title=" ">
<path fill="none" stroke="#63b8ff" d="M289,-54.75C289,-47.8 289,-37.85 289,-29.13"/>
<polygon fill="#63b8ff" stroke="#63b8ff" points="292.5,-29.09 289,-19.09 285.5,-29.09 292.5,-29.09"/>
</a>
</g>
</g>
<!-- Node10 -->
<g id="Node000010" class="node">
<title>Node10</title>
<g id="a_Node000010"><a xlink:title=" ">
<polygon fill="#e0e0e0" stroke="#999999" points="404.5,-19 339.5,-19 339.5,0 404.5,0 404.5,-19"/>
<text text-anchor="middle" x="372" y="-7" font-family="Helvetica,sans-Serif" font-size="10.00">stdexcept</text>
</a>
</g>
</g>
<!-- Node7&#45;&gt;Node10 -->
<g id="edge11_Node000007_Node000010" class="edge">
<title>Node7&#45;&gt;Node10</title>
<g id="a_edge11_Node000007_Node000010"><a xlink:title=" ">
<path fill="none" stroke="#63b8ff" d="M302.34,-54.98C315.09,-46.84 334.55,-34.41 349.67,-24.76"/>
<polygon fill="#63b8ff" stroke="#63b8ff" points="351.88,-27.5 358.42,-19.17 348.11,-21.6 351.88,-27.5"/>
</a>
</g>
</g>
</g>
</svg>
</svg>

<style type='text/css'>
<![CDATA[
[data-mouse-over-selected='false'] { opacity: 0.7; }
[data-mouse-over-selected='true']  { opacity: 1.0; }
]]>
</style>
<script type="application/ecmascript"><![CDATA[
document.addEventListener('DOMContentLoaded', (event) => {
  highlightEdges();
  highlightAdjacentNodes();
});
]]></script>
</svg>
