<?xml version="1.0" encoding="UTF-8" standalone="no"?>
<!DOCTYPE svg PUBLIC "-//W3C//DTD SVG 1.1//EN"
 "http://www.w3.org/Graphics/SVG/1.1/DTD/svg11.dtd">
<!-- Generated by graphviz version 2.43.0 (0)
 -->
<!-- Title: src/include/execution/plans/limit_plan.h Pages: 1 -->
<svg width="772pt" height="170pt"
 viewBox="0.00 0.00 772.00 170.00" xmlns="http://www.w3.org/2000/svg" xmlns:xlink="http://www.w3.org/1999/xlink">
<g id="graph0" class="graph" transform="scale(1 1) rotate(0) translate(4 166)">
<title>src/include/execution/plans/limit_plan.h</title>
<!-- Node1 -->
<g id="Node000001" class="node">
<title>Node1</title>
<g id="a_Node000001"><a xlink:title=" ">
<polygon fill="#999999" stroke="#666666" points="458,-162 339,-162 339,-132 458,-132 458,-162"/>
<text text-anchor="start" x="347" y="-150" font-family="Helvetica,sans-Serif" font-size="10.00">src/include/execution</text>
<text text-anchor="middle" x="398.5" y="-139" font-family="Helvetica,sans-Serif" font-size="10.00">/plans/limit_plan.h</text>
</a>
</g>
</g>
<!-- Node2 -->
<g id="Node000002" class="node">
<title>Node2</title>
<g id="a_Node000002"><a xlink:href="../../dd/def/execution_2fmt__impl_8cpp.html" target="_top" xlink:title=" ">
<polygon fill="white" stroke="#666666" points="149,-90.5 0,-90.5 0,-71.5 149,-71.5 149,-90.5"/>
<text text-anchor="middle" x="74.5" y="-78.5" font-family="Helvetica,sans-Serif" font-size="10.00">src/execution/fmt_impl.cpp</text>
</a>
</g>
</g>
<!-- Node1&#45;&gt;Node2 -->
<g id="edge1_Node000001_Node000002" class="edge">
<title>Node1&#45;&gt;Node2</title>
<g id="a_edge1_Node000001_Node000002"><a xlink:title=" ">
<path fill="none" stroke="#63b8ff" d="M328.68,-132.21C264.66,-119.56 171.85,-101.23 117.89,-90.57"/>
<polygon fill="#63b8ff" stroke="#63b8ff" points="328.21,-135.68 338.7,-134.19 329.56,-128.82 328.21,-135.68"/>
</a>
</g>
</g>
<!-- Node3 -->
<g id="Node000003" class="node">
<title>Node3</title>
<g id="a_Node000003"><a xlink:href="../../d0/d48/limit__executor_8h.html" target="_top" xlink:title=" ">
<polygon fill="white" stroke="#666666" points="315.5,-96 167.5,-96 167.5,-66 315.5,-66 315.5,-96"/>
<text text-anchor="start" x="175.5" y="-84" font-family="Helvetica,sans-Serif" font-size="10.00">src/include/execution</text>
<text text-anchor="middle" x="241.5" y="-73" font-family="Helvetica,sans-Serif" font-size="10.00">/executors/limit_executor.h</text>
</a>
</g>
</g>
<!-- Node1&#45;&gt;Node3 -->
<g id="edge2_Node000001_Node000003" class="edge">
<title>Node1&#45;&gt;Node3</title>
<g id="a_edge2_Node000001_Node000003"><a xlink:title=" ">
<path fill="none" stroke="#63b8ff" d="M354.48,-128.05C329.6,-117.91 298.97,-105.43 275.87,-96.01"/>
<polygon fill="#63b8ff" stroke="#63b8ff" points="353.46,-131.42 364.05,-131.95 356.11,-124.94 353.46,-131.42"/>
</a>
</g>
</g>
<!-- Node6 -->
<g id="Node000006" class="node">
<title>Node6</title>
<g id="a_Node000006"><a xlink:href="../../d8/dd7/eliminate__true__filter_8cpp.html" target="_top" xlink:title=" ">
<polygon fill="white" stroke="#666666" points="463.5,-96 333.5,-96 333.5,-66 463.5,-66 463.5,-96"/>
<text text-anchor="start" x="341.5" y="-84" font-family="Helvetica,sans-Serif" font-size="10.00">src/optimizer/eliminate</text>
<text text-anchor="middle" x="398.5" y="-73" font-family="Helvetica,sans-Serif" font-size="10.00">_true_filter.cpp</text>
</a>
</g>
</g>
<!-- Node1&#45;&gt;Node6 -->
<g id="edge5_Node000001_Node000006" class="edge">
<title>Node1&#45;&gt;Node6</title>
<g id="a_edge5_Node000001_Node000006"><a xlink:title=" ">
<path fill="none" stroke="#63b8ff" d="M398.5,-121.54C398.5,-112.96 398.5,-103.61 398.5,-96.16"/>
<polygon fill="#63b8ff" stroke="#63b8ff" points="395,-121.8 398.5,-131.8 402,-121.8 395,-121.8"/>
</a>
</g>
</g>
<!-- Node7 -->
<g id="Node000007" class="node">
<title>Node7</title>
<g id="a_Node000007"><a xlink:href="../../d0/d46/merge__filter__scan_8cpp.html" target="_top" xlink:title=" ">
<polygon fill="white" stroke="#666666" points="597,-96 482,-96 482,-66 597,-66 597,-96"/>
<text text-anchor="start" x="490" y="-84" font-family="Helvetica,sans-Serif" font-size="10.00">src/optimizer/merge</text>
<text text-anchor="middle" x="539.5" y="-73" font-family="Helvetica,sans-Serif" font-size="10.00">_filter_scan.cpp</text>
</a>
</g>
</g>
<!-- Node1&#45;&gt;Node7 -->
<g id="edge6_Node000001_Node000007" class="edge">
<title>Node1&#45;&gt;Node7</title>
<g id="a_edge6_Node000001_Node000007"><a xlink:title=" ">
<path fill="none" stroke="#63b8ff" d="M438.63,-127.78C460.86,-117.69 488.07,-105.34 508.63,-96.01"/>
<polygon fill="#63b8ff" stroke="#63b8ff" points="437.1,-124.63 429.44,-131.95 440,-131.01 437.1,-124.63"/>
</a>
</g>
</g>
<!-- Node8 -->
<g id="Node000008" class="node">
<title>Node8</title>
<g id="a_Node000008"><a xlink:href="../../d9/df0/plan__select_8cpp.html" target="_top" xlink:title=" ">
<polygon fill="white" stroke="#666666" points="764,-90.5 615,-90.5 615,-71.5 764,-71.5 764,-90.5"/>
<text text-anchor="middle" x="689.5" y="-78.5" font-family="Helvetica,sans-Serif" font-size="10.00">src/planner/plan_select.cpp</text>
</a>
</g>
</g>
<!-- Node1&#45;&gt;Node8 -->
<g id="edge7_Node000001_Node000008" class="edge">
<title>Node1&#45;&gt;Node8</title>
<g id="a_edge7_Node000001_Node000008"><a xlink:title=" ">
<path fill="none" stroke="#63b8ff" d="M468.12,-130.69C525.19,-118.14 603.87,-100.83 650.44,-90.59"/>
<polygon fill="#63b8ff" stroke="#63b8ff" points="467.11,-127.33 458.09,-132.89 468.61,-134.16 467.11,-127.33"/>
</a>
</g>
</g>
<!-- Node4 -->
<g id="Node000004" class="node">
<title>Node4</title>
<g id="a_Node000004"><a xlink:href="../../d3/d3e/executor__factory_8cpp.html" target="_top" xlink:title=" ">
<polygon fill="white" stroke="#666666" points="236.5,-30 110.5,-30 110.5,0 236.5,0 236.5,-30"/>
<text text-anchor="start" x="118.5" y="-18" font-family="Helvetica,sans-Serif" font-size="10.00">src/execution/executor</text>
<text text-anchor="middle" x="173.5" y="-7" font-family="Helvetica,sans-Serif" font-size="10.00">_factory.cpp</text>
</a>
</g>
</g>
<!-- Node3&#45;&gt;Node4 -->
<g id="edge3_Node000003_Node000004" class="edge">
<title>Node3&#45;&gt;Node4</title>
<g id="a_edge3_Node000003_Node000004"><a xlink:title=" ">
<path fill="none" stroke="#63b8ff" d="M219.11,-58.92C209.08,-49.49 197.52,-38.61 188.55,-30.16"/>
<polygon fill="#63b8ff" stroke="#63b8ff" points="216.73,-61.49 226.41,-65.8 221.53,-56.39 216.73,-61.49"/>
</a>
</g>
</g>
<!-- Node5 -->
<g id="Node000005" class="node">
<title>Node5</title>
<g id="a_Node000005"><a xlink:href="../../d3/df0/limit__executor_8cpp.html" target="_top" xlink:title=" ">
<polygon fill="white" stroke="#666666" points="362,-30 255,-30 255,0 362,0 362,-30"/>
<text text-anchor="start" x="263" y="-18" font-family="Helvetica,sans-Serif" font-size="10.00">src/execution/limit</text>
<text text-anchor="middle" x="308.5" y="-7" font-family="Helvetica,sans-Serif" font-size="10.00">_executor.cpp</text>
</a>
</g>
</g>
<!-- Node3&#45;&gt;Node5 -->
<g id="edge4_Node000003_Node000005" class="edge">
<title>Node3&#45;&gt;Node5</title>
<g id="a_edge4_Node000003_Node000005"><a xlink:title=" ">
<path fill="none" stroke="#63b8ff" d="M263.85,-58.65C273.67,-49.27 284.92,-38.53 293.67,-30.16"/>
<polygon fill="#63b8ff" stroke="#63b8ff" points="261.18,-56.36 256.37,-65.8 266.02,-61.42 261.18,-56.36"/>
</a>
</g>
</g>
</g>
</svg>
