<?xml version="1.0" encoding="UTF-8" standalone="no"?>
<!DOCTYPE svg PUBLIC "-//W3C//DTD SVG 1.1//EN"
 "http://www.w3.org/Graphics/SVG/1.1/DTD/svg11.dtd">
<!-- Generated by graphviz version 2.43.0 (0)
 -->
<!-- Title: bustub::IntegerParentType Pages: 1 -->
<svg width="514pt" height="192pt"
 viewBox="0.00 0.00 513.50 192.00" xmlns="http://www.w3.org/2000/svg" xmlns:xlink="http://www.w3.org/1999/xlink">
<g id="graph0" class="graph" transform="scale(1 1) rotate(0) translate(4 188)">
<title>bustub::IntegerParentType</title>
<!-- Node1 -->
<g id="Node000001" class="node">
<title>Node1</title>
<g id="a_Node000001"><a xlink:title=" ">
<polygon fill="#999999" stroke="#666666" points="320,-74 177,-74 177,-55 320,-55 320,-74"/>
<text text-anchor="middle" x="248.5" y="-62" font-family="Helvetica,sans-Serif" font-size="10.00">bustub::IntegerParentType</text>
</a>
</g>
</g>
<!-- Node4 -->
<g id="Node000004" class="node">
<title>Node4</title>
<g id="a_Node000004"><a xlink:href="../../d9/d45/classbustub_1_1BigintType.html" target="_top" xlink:title=" ">
<polygon fill="white" stroke="#666666" points="107,-19 0,-19 0,0 107,0 107,-19"/>
<text text-anchor="middle" x="53.5" y="-7" font-family="Helvetica,sans-Serif" font-size="10.00">bustub::BigintType</text>
</a>
</g>
</g>
<!-- Node1&#45;&gt;Node4 -->
<g id="edge3_Node000001_Node000004" class="edge">
<title>Node1&#45;&gt;Node4</title>
<g id="a_edge3_Node000001_Node000004"><a xlink:title=" ">
<path fill="none" stroke="#63b8ff" d="M207.33,-52.31C170.84,-42.39 118.33,-28.12 85.08,-19.08"/>
<polygon fill="#63b8ff" stroke="#63b8ff" points="206.6,-55.74 217.17,-54.98 208.44,-48.98 206.6,-55.74"/>
</a>
</g>
</g>
<!-- Node5 -->
<g id="Node000005" class="node">
<title>Node5</title>
<g id="a_Node000005"><a xlink:href="../../d7/d0d/classbustub_1_1IntegerType.html" target="_top" xlink:title=" ">
<polygon fill="white" stroke="#666666" points="238,-19 125,-19 125,0 238,0 238,-19"/>
<text text-anchor="middle" x="181.5" y="-7" font-family="Helvetica,sans-Serif" font-size="10.00">bustub::IntegerType</text>
</a>
</g>
</g>
<!-- Node1&#45;&gt;Node5 -->
<g id="edge4_Node000001_Node000005" class="edge">
<title>Node1&#45;&gt;Node5</title>
<g id="a_edge4_Node000001_Node000005"><a xlink:title=" ">
<path fill="none" stroke="#63b8ff" d="M229.67,-48.6C217.66,-39.11 202.53,-27.13 192.46,-19.17"/>
<polygon fill="#63b8ff" stroke="#63b8ff" points="227.72,-51.53 237.74,-54.98 232.06,-46.04 227.72,-51.53"/>
</a>
</g>
</g>
<!-- Node6 -->
<g id="Node000006" class="node">
<title>Node6</title>
<g id="a_Node000006"><a xlink:href="../../dd/dc2/classbustub_1_1SmallintType.html" target="_top" xlink:title=" ">
<polygon fill="white" stroke="#666666" points="375,-19 256,-19 256,0 375,0 375,-19"/>
<text text-anchor="middle" x="315.5" y="-7" font-family="Helvetica,sans-Serif" font-size="10.00">bustub::SmallintType</text>
</a>
</g>
</g>
<!-- Node1&#45;&gt;Node6 -->
<g id="edge5_Node000001_Node000006" class="edge">
<title>Node1&#45;&gt;Node6</title>
<g id="a_edge5_Node000001_Node000006"><a xlink:title=" ">
<path fill="none" stroke="#63b8ff" d="M267.33,-48.6C279.34,-39.11 294.47,-27.13 304.54,-19.17"/>
<polygon fill="#63b8ff" stroke="#63b8ff" points="264.94,-46.04 259.26,-54.98 269.28,-51.53 264.94,-46.04"/>
</a>
</g>
</g>
<!-- Node7 -->
<g id="Node000007" class="node">
<title>Node7</title>
<g id="a_Node000007"><a xlink:href="../../d2/d1b/classbustub_1_1TinyintType.html" target="_top" xlink:title=" ">
<polygon fill="white" stroke="#666666" points="505.5,-19 393.5,-19 393.5,0 505.5,0 505.5,-19"/>
<text text-anchor="middle" x="449.5" y="-7" font-family="Helvetica,sans-Serif" font-size="10.00">bustub::TinyintType</text>
</a>
</g>
</g>
<!-- Node1&#45;&gt;Node7 -->
<g id="edge6_Node000001_Node000007" class="edge">
<title>Node1&#45;&gt;Node7</title>
<g id="a_edge6_Node000001_Node000007"><a xlink:title=" ">
<path fill="none" stroke="#63b8ff" d="M290.93,-52.31C328.54,-42.39 382.67,-28.12 416.95,-19.08"/>
<polygon fill="#63b8ff" stroke="#63b8ff" points="289.57,-49.05 280.79,-54.98 291.36,-55.82 289.57,-49.05"/>
</a>
</g>
</g>
<!-- Node2 -->
<g id="Node000002" class="node">
<title>Node2</title>
<g id="a_Node000002"><a xlink:href="../../de/def/classbustub_1_1NumericType.html" target="_top" xlink:title=" ">
<polygon fill="white" stroke="#666666" points="308,-129 189,-129 189,-110 308,-110 308,-129"/>
<text text-anchor="middle" x="248.5" y="-117" font-family="Helvetica,sans-Serif" font-size="10.00">bustub::NumericType</text>
</a>
</g>
</g>
<!-- Node2&#45;&gt;Node1 -->
<g id="edge1_Node000001_Node000002" class="edge">
<title>Node2&#45;&gt;Node1</title>
<g id="a_edge1_Node000001_Node000002"><a xlink:title=" ">
<path fill="none" stroke="#63b8ff" d="M248.5,-99.66C248.5,-90.93 248.5,-80.99 248.5,-74.09"/>
<polygon fill="#63b8ff" stroke="#63b8ff" points="245,-99.75 248.5,-109.75 252,-99.75 245,-99.75"/>
</a>
</g>
</g>
<!-- Node3 -->
<g id="Node000003" class="node">
<title>Node3</title>
<g id="a_Node000003"><a xlink:href="../../d9/df4/classbustub_1_1Type.html" target="_top" xlink:title=" ">
<polygon fill="white" stroke="#666666" points="287.5,-184 209.5,-184 209.5,-165 287.5,-165 287.5,-184"/>
<text text-anchor="middle" x="248.5" y="-172" font-family="Helvetica,sans-Serif" font-size="10.00">bustub::Type</text>
</a>
</g>
</g>
<!-- Node3&#45;&gt;Node2 -->
<g id="edge2_Node000002_Node000003" class="edge">
<title>Node3&#45;&gt;Node2</title>
<g id="a_edge2_Node000002_Node000003"><a xlink:title=" ">
<path fill="none" stroke="#63b8ff" d="M248.5,-154.66C248.5,-145.93 248.5,-135.99 248.5,-129.09"/>
<polygon fill="#63b8ff" stroke="#63b8ff" points="245,-154.75 248.5,-164.75 252,-154.75 245,-154.75"/>
</a>
</g>
</g>
</g>
</svg>
