<?xml version="1.0" encoding="UTF-8" standalone="no"?>
<!DOCTYPE svg PUBLIC "-//W3C//DTD SVG 1.1//EN"
 "http://www.w3.org/Graphics/SVG/1.1/DTD/svg11.dtd">
<!-- Generated by graphviz version 2.43.0 (0)
 -->
<!-- Title: src/type/value.cpp Pages: 1 -->
<svg width="1027pt" height="192pt"
 viewBox="0.00 0.00 1026.50 192.00" xmlns="http://www.w3.org/2000/svg" xmlns:xlink="http://www.w3.org/1999/xlink">
<g id="graph0" class="graph" transform="scale(1 1) rotate(0) translate(4 188)">
<title>src/type/value.cpp</title>
<!-- Node1 -->
<g id="Node000001" class="node">
<title>Node1</title>
<g id="a_Node000001"><a xlink:title=" ">
<polygon fill="#999999" stroke="#666666" points="400,-184 294,-184 294,-165 400,-165 400,-184"/>
<text text-anchor="middle" x="347" y="-172" font-family="Helvetica,sans-Serif" font-size="10.00">src/type/value.cpp</text>
</a>
</g>
</g>
<!-- Node2 -->
<g id="Node000002" class="node">
<title>Node2</title>
<g id="a_Node000002"><a xlink:title=" ">
<polygon fill="#e0e0e0" stroke="#999999" points="52,-129 0,-129 0,-110 52,-110 52,-129"/>
<text text-anchor="middle" x="26" y="-117" font-family="Helvetica,sans-Serif" font-size="10.00">cassert</text>
</a>
</g>
</g>
<!-- Node1&#45;&gt;Node2 -->
<g id="edge1_Node000001_Node000002" class="edge">
<title>Node1&#45;&gt;Node2</title>
<g id="a_edge1_Node000001_Node000002"><a xlink:title=" ">
<path fill="none" stroke="#63b8ff" d="M293.77,-165.92C237.15,-157.66 145.04,-143.65 66,-129 64.74,-128.77 63.47,-128.53 62.18,-128.28"/>
<polygon fill="#63b8ff" stroke="#63b8ff" points="62.7,-124.81 52.21,-126.27 61.33,-131.68 62.7,-124.81"/>
</a>
</g>
</g>
<!-- Node3 -->
<g id="Node000003" class="node">
<title>Node3</title>
<g id="a_Node000003"><a xlink:title=" ">
<polygon fill="#e0e0e0" stroke="#999999" points="468,-19 424,-19 424,0 468,0 468,-19"/>
<text text-anchor="middle" x="446" y="-7" font-family="Helvetica,sans-Serif" font-size="10.00">string</text>
</a>
</g>
</g>
<!-- Node1&#45;&gt;Node3 -->
<g id="edge2_Node000001_Node000003" class="edge">
<title>Node1&#45;&gt;Node3</title>
<g id="a_edge2_Node000001_Node000003"><a xlink:title=" ">
<path fill="none" stroke="#63b8ff" d="M293.75,-167.46C204.29,-155.29 39.19,-122.98 99,-55 119.66,-31.52 331.7,-17.02 413.79,-12.24"/>
<polygon fill="#63b8ff" stroke="#63b8ff" points="414.02,-15.74 423.81,-11.67 413.63,-8.75 414.02,-15.74"/>
</a>
</g>
</g>
<!-- Node4 -->
<g id="Node000004" class="node">
<title>Node4</title>
<g id="a_Node000004"><a xlink:title=" ">
<polygon fill="#e0e0e0" stroke="#999999" points="1018.5,-74 973.5,-74 973.5,-55 1018.5,-55 1018.5,-74"/>
<text text-anchor="middle" x="996" y="-62" font-family="Helvetica,sans-Serif" font-size="10.00">utility</text>
</a>
</g>
</g>
<!-- Node1&#45;&gt;Node4 -->
<g id="edge3_Node000001_Node000004" class="edge">
<title>Node1&#45;&gt;Node4</title>
<g id="a_edge3_Node000001_Node000004"><a xlink:title=" ">
<path fill="none" stroke="#63b8ff" d="M400.3,-169.78C476.81,-163.93 621.98,-150.92 744,-129 823.85,-114.65 915.85,-89.13 963.54,-75.21"/>
<polygon fill="#63b8ff" stroke="#63b8ff" points="964.69,-78.52 973.3,-72.35 962.72,-71.81 964.69,-78.52"/>
</a>
</g>
</g>
<!-- Node5 -->
<g id="Node000005" class="node">
<title>Node5</title>
<g id="a_Node000005"><a xlink:href="../../dd/d2d/exception_8h.html" target="_top" xlink:title=" ">
<polygon fill="white" stroke="#666666" points="406.5,-129 287.5,-129 287.5,-110 406.5,-110 406.5,-129"/>
<text text-anchor="middle" x="347" y="-117" font-family="Helvetica,sans-Serif" font-size="10.00">common/exception.h</text>
</a>
</g>
</g>
<!-- Node1&#45;&gt;Node5 -->
<g id="edge4_Node000001_Node000005" class="edge">
<title>Node1&#45;&gt;Node5</title>
<g id="a_edge4_Node000001_Node000005"><a xlink:title=" ">
<path fill="none" stroke="#63b8ff" d="M347,-164.75C347,-157.8 347,-147.85 347,-139.13"/>
<polygon fill="#63b8ff" stroke="#63b8ff" points="350.5,-139.09 347,-129.09 343.5,-139.09 350.5,-139.09"/>
</a>
</g>
</g>
<!-- Node15 -->
<g id="Node000015" class="node">
<title>Node15</title>
<g id="a_Node000015"><a xlink:href="../../d4/d3f/value_8h.html" target="_top" xlink:title=" ">
<polygon fill="white" stroke="#666666" points="735.5,-129 658.5,-129 658.5,-110 735.5,-110 735.5,-129"/>
<text text-anchor="middle" x="697" y="-117" font-family="Helvetica,sans-Serif" font-size="10.00">type/value.h</text>
</a>
</g>
</g>
<!-- Node1&#45;&gt;Node15 -->
<g id="edge16_Node000001_Node000015" class="edge">
<title>Node1&#45;&gt;Node15</title>
<g id="a_edge16_Node000001_Node000015"><a xlink:title=" ">
<path fill="none" stroke="#63b8ff" d="M400.16,-165.45C467.59,-155.24 582.95,-137.77 648.23,-127.89"/>
<polygon fill="#63b8ff" stroke="#63b8ff" points="648.89,-131.32 658.26,-126.37 647.85,-124.4 648.89,-131.32"/>
</a>
</g>
</g>
<!-- Node5&#45;&gt;Node3 -->
<g id="edge11_Node000005_Node000003" class="edge">
<title>Node5&#45;&gt;Node3</title>
<g id="a_edge11_Node000005_Node000003"><a xlink:title=" ">
<path fill="none" stroke="#63b8ff" d="M342.14,-109.88C335.51,-96.84 325.67,-71.86 337,-55 354.03,-29.65 388.31,-18.73 413.91,-14.04"/>
<polygon fill="#63b8ff" stroke="#63b8ff" points="414.6,-17.47 423.92,-12.43 413.49,-10.56 414.6,-17.47"/>
</a>
</g>
</g>
<!-- Node6 -->
<g id="Node000006" class="node">
<title>Node6</title>
<g id="a_Node000006"><a xlink:title=" ">
<polygon fill="#e0e0e0" stroke="#999999" points="158,-74 108,-74 108,-55 158,-55 158,-74"/>
<text text-anchor="middle" x="133" y="-62" font-family="Helvetica,sans-Serif" font-size="10.00">atomic</text>
</a>
</g>
</g>
<!-- Node5&#45;&gt;Node6 -->
<g id="edge5_Node000005_Node000006" class="edge">
<title>Node5&#45;&gt;Node6</title>
<g id="a_edge5_Node000005_Node000006"><a xlink:title=" ">
<path fill="none" stroke="#63b8ff" d="M312.49,-110C278.23,-101.55 223.96,-88.15 167.98,-74.24"/>
<polygon fill="#63b8ff" stroke="#63b8ff" points="168.8,-70.84 158.25,-71.82 167.11,-77.63 168.8,-70.84"/>
</a>
</g>
</g>
<!-- Node7 -->
<g id="Node000007" class="node">
<title>Node7</title>
<g id="a_Node000007"><a xlink:title=" ">
<polygon fill="#e0e0e0" stroke="#999999" points="222,-74 176,-74 176,-55 222,-55 222,-74"/>
<text text-anchor="middle" x="199" y="-62" font-family="Helvetica,sans-Serif" font-size="10.00">cstdio</text>
</a>
</g>
</g>
<!-- Node5&#45;&gt;Node7 -->
<g id="edge6_Node000005_Node000007" class="edge">
<title>Node5&#45;&gt;Node7</title>
<g id="a_edge6_Node000005_Node000007"><a xlink:title=" ">
<path fill="none" stroke="#63b8ff" d="M323.22,-109.98C298.48,-101.12 259.55,-87.18 231.87,-77.27"/>
<polygon fill="#63b8ff" stroke="#63b8ff" points="232.83,-73.9 222.23,-73.82 230.47,-80.49 232.83,-73.9"/>
</a>
</g>
</g>
<!-- Node8 -->
<g id="Node000008" class="node">
<title>Node8</title>
<g id="a_Node000008"><a xlink:title=" ">
<polygon fill="#e0e0e0" stroke="#999999" points="289.5,-74 240.5,-74 240.5,-55 289.5,-55 289.5,-74"/>
<text text-anchor="middle" x="265" y="-62" font-family="Helvetica,sans-Serif" font-size="10.00">cstdlib</text>
</a>
</g>
</g>
<!-- Node5&#45;&gt;Node8 -->
<g id="edge7_Node000005_Node000008" class="edge">
<title>Node5&#45;&gt;Node8</title>
<g id="a_edge7_Node000005_Node000008"><a xlink:title=" ">
<path fill="none" stroke="#63b8ff" d="M333.83,-109.98C321.23,-101.84 302,-89.41 287.06,-79.76"/>
<polygon fill="#63b8ff" stroke="#63b8ff" points="288.71,-76.66 278.41,-74.17 284.91,-82.54 288.71,-76.66"/>
</a>
</g>
</g>
<!-- Node9 -->
<g id="Node000009" class="node">
<title>Node9</title>
<g id="a_Node000009"><a xlink:title=" ">
<polygon fill="#e0e0e0" stroke="#999999" points="406,-74 346,-74 346,-55 406,-55 406,-74"/>
<text text-anchor="middle" x="376" y="-62" font-family="Helvetica,sans-Serif" font-size="10.00">iostream</text>
</a>
</g>
</g>
<!-- Node5&#45;&gt;Node9 -->
<g id="edge8_Node000005_Node000009" class="edge">
<title>Node5&#45;&gt;Node9</title>
<g id="a_edge8_Node000005_Node000009"><a xlink:title=" ">
<path fill="none" stroke="#63b8ff" d="M351.79,-109.75C355.76,-102.49 361.53,-91.95 366.43,-82.98"/>
<polygon fill="#63b8ff" stroke="#63b8ff" points="369.57,-84.54 371.3,-74.09 363.43,-81.18 369.57,-84.54"/>
</a>
</g>
</g>
<!-- Node10 -->
<g id="Node000010" class="node">
<title>Node10</title>
<g id="a_Node000010"><a xlink:title=" ">
<polygon fill="#e0e0e0" stroke="#999999" points="566,-74 508,-74 508,-55 566,-55 566,-74"/>
<text text-anchor="middle" x="537" y="-62" font-family="Helvetica,sans-Serif" font-size="10.00">memory</text>
</a>
</g>
</g>
<!-- Node5&#45;&gt;Node10 -->
<g id="edge9_Node000005_Node000010" class="edge">
<title>Node5&#45;&gt;Node10</title>
<g id="a_edge9_Node000005_Node000010"><a xlink:title=" ">
<path fill="none" stroke="#63b8ff" d="M377.53,-109.98C410.18,-100.88 462.07,-86.4 497.74,-76.45"/>
<polygon fill="#63b8ff" stroke="#63b8ff" points="499.11,-79.7 507.8,-73.65 497.22,-72.96 499.11,-79.7"/>
</a>
</g>
</g>
<!-- Node11 -->
<g id="Node000011" class="node">
<title>Node11</title>
<g id="a_Node000011"><a xlink:title=" ">
<polygon fill="#e0e0e0" stroke="#999999" points="489.5,-74 424.5,-74 424.5,-55 489.5,-55 489.5,-74"/>
<text text-anchor="middle" x="457" y="-62" font-family="Helvetica,sans-Serif" font-size="10.00">stdexcept</text>
</a>
</g>
</g>
<!-- Node5&#45;&gt;Node11 -->
<g id="edge10_Node000005_Node000011" class="edge">
<title>Node5&#45;&gt;Node11</title>
<g id="a_edge10_Node000005_Node000011"><a xlink:title=" ">
<path fill="none" stroke="#63b8ff" d="M364.67,-109.98C382.29,-101.5 409.58,-88.35 429.93,-78.54"/>
<polygon fill="#63b8ff" stroke="#63b8ff" points="431.52,-81.66 439.01,-74.17 428.48,-75.36 431.52,-81.66"/>
</a>
</g>
</g>
<!-- Node12 -->
<g id="Node000012" class="node">
<title>Node12</title>
<g id="a_Node000012"><a xlink:href="../../df/def/type_8h.html" target="_top" xlink:title=" ">
<polygon fill="white" stroke="#666666" points="694,-74 622,-74 622,-55 694,-55 694,-74"/>
<text text-anchor="middle" x="658" y="-62" font-family="Helvetica,sans-Serif" font-size="10.00">type/type.h</text>
</a>
</g>
</g>
<!-- Node5&#45;&gt;Node12 -->
<g id="edge12_Node000005_Node000012" class="edge">
<title>Node5&#45;&gt;Node12</title>
<g id="a_edge12_Node000005_Node000012"><a xlink:title=" ">
<path fill="none" stroke="#63b8ff" d="M396.97,-109.98C456.25,-99.88 554.28,-83.18 611.85,-73.37"/>
<polygon fill="#63b8ff" stroke="#63b8ff" points="612.49,-76.81 621.76,-71.68 611.31,-69.91 612.49,-76.81"/>
</a>
</g>
</g>
<!-- Node12&#45;&gt;Node3 -->
<g id="edge14_Node000012_Node000003" class="edge">
<title>Node12&#45;&gt;Node3</title>
<g id="a_edge14_Node000012_Node000003"><a xlink:title=" ">
<path fill="none" stroke="#63b8ff" d="M623.94,-54.98C583.75,-44.94 517.45,-28.36 478.13,-18.53"/>
<polygon fill="#63b8ff" stroke="#63b8ff" points="478.82,-15.1 468.27,-16.07 477.12,-21.89 478.82,-15.1"/>
</a>
</g>
</g>
<!-- Node13 -->
<g id="Node000013" class="node">
<title>Node13</title>
<g id="a_Node000013"><a xlink:title=" ">
<polygon fill="#e0e0e0" stroke="#999999" points="741,-19 691,-19 691,0 741,0 741,-19"/>
<text text-anchor="middle" x="716" y="-7" font-family="Helvetica,sans-Serif" font-size="10.00">cstdint</text>
</a>
</g>
</g>
<!-- Node12&#45;&gt;Node13 -->
<g id="edge13_Node000012_Node000013" class="edge">
<title>Node12&#45;&gt;Node13</title>
<g id="a_edge13_Node000012_Node000013"><a xlink:title=" ">
<path fill="none" stroke="#63b8ff" d="M667.32,-54.98C675.81,-47.23 688.56,-35.58 698.88,-26.14"/>
<polygon fill="#63b8ff" stroke="#63b8ff" points="701.49,-28.5 706.51,-19.17 696.77,-23.33 701.49,-28.5"/>
</a>
</g>
</g>
<!-- Node14 -->
<g id="Node000014" class="node">
<title>Node14</title>
<g id="a_Node000014"><a xlink:href="../../dc/df2/type__id_8h.html" target="_top" xlink:title=" ">
<polygon fill="white" stroke="#666666" points="673,-19 587,-19 587,0 673,0 673,-19"/>
<text text-anchor="middle" x="630" y="-7" font-family="Helvetica,sans-Serif" font-size="10.00">type/type_id.h</text>
</a>
</g>
</g>
<!-- Node12&#45;&gt;Node14 -->
<g id="edge15_Node000012_Node000014" class="edge">
<title>Node12&#45;&gt;Node14</title>
<g id="a_edge15_Node000012_Node000014"><a xlink:title=" ">
<path fill="none" stroke="#63b8ff" d="M653.38,-54.75C649.54,-47.49 643.98,-36.95 639.24,-27.98"/>
<polygon fill="#63b8ff" stroke="#63b8ff" points="642.3,-26.3 634.54,-19.09 636.11,-29.57 642.3,-26.3"/>
</a>
</g>
</g>
<!-- Node15&#45;&gt;Node3 -->
<g id="edge19_Node000015_Node000003" class="edge">
<title>Node15&#45;&gt;Node3</title>
<g id="a_edge19_Node000015_Node000003"><a xlink:title=" ">
<path fill="none" stroke="#63b8ff" d="M680.87,-109.94C650.22,-93.68 585.64,-59.57 575,-55 542.72,-41.12 504.55,-28.39 478.14,-20.13"/>
<polygon fill="#63b8ff" stroke="#63b8ff" points="478.88,-16.7 468.29,-17.09 476.81,-23.38 478.88,-16.7"/>
</a>
</g>
</g>
<!-- Node15&#45;&gt;Node4 -->
<g id="edge20_Node000015_Node000004" class="edge">
<title>Node15&#45;&gt;Node4</title>
<g id="a_edge20_Node000015_Node000004"><a xlink:title=" ">
<path fill="none" stroke="#63b8ff" d="M735.85,-113.33C786.26,-106.34 877.09,-92.8 963.42,-74.17"/>
<polygon fill="#63b8ff" stroke="#63b8ff" points="964.36,-77.55 973.38,-71.99 962.86,-70.71 964.36,-77.55"/>
</a>
</g>
</g>
<!-- Node15&#45;&gt;Node10 -->
<g id="edge18_Node000015_Node000010" class="edge">
<title>Node15&#45;&gt;Node10</title>
<g id="a_edge18_Node000015_Node000010"><a xlink:title=" ">
<path fill="none" stroke="#63b8ff" d="M671.29,-109.98C644.55,-101.13 602.47,-87.19 572.55,-77.28"/>
<polygon fill="#63b8ff" stroke="#63b8ff" points="573.5,-73.9 562.91,-74.08 571.3,-80.55 573.5,-73.9"/>
</a>
</g>
</g>
<!-- Node15&#45;&gt;Node12 -->
<g id="edge27_Node000015_Node000012" class="edge">
<title>Node15&#45;&gt;Node12</title>
<g id="a_edge27_Node000015_Node000012"><a xlink:title=" ">
<path fill="none" stroke="#63b8ff" d="M690.56,-109.75C685.11,-102.34 677.14,-91.5 670.44,-82.41"/>
<polygon fill="#63b8ff" stroke="#63b8ff" points="673.07,-80.07 664.32,-74.09 667.43,-84.22 673.07,-80.07"/>
</a>
</g>
</g>
<!-- Node16 -->
<g id="Node000016" class="node">
<title>Node16</title>
<g id="a_Node000016"><a xlink:title=" ">
<polygon fill="#e0e0e0" stroke="#999999" points="762,-74 712,-74 712,-55 762,-55 762,-74"/>
<text text-anchor="middle" x="737" y="-62" font-family="Helvetica,sans-Serif" font-size="10.00">cstring</text>
</a>
</g>
</g>
<!-- Node15&#45;&gt;Node16 -->
<g id="edge17_Node000015_Node000016" class="edge">
<title>Node15&#45;&gt;Node16</title>
<g id="a_edge17_Node000015_Node000016"><a xlink:title=" ">
<path fill="none" stroke="#63b8ff" d="M703.61,-109.75C709.26,-102.26 717.54,-91.28 724.45,-82.13"/>
<polygon fill="#63b8ff" stroke="#63b8ff" points="727.29,-84.18 730.52,-74.09 721.7,-79.96 727.29,-84.18"/>
</a>
</g>
</g>
<!-- Node17 -->
<g id="Node000017" class="node">
<title>Node17</title>
<g id="a_Node000017"><a xlink:title=" ">
<polygon fill="#e0e0e0" stroke="#999999" points="955.5,-74 876.5,-74 876.5,-55 955.5,-55 955.5,-74"/>
<text text-anchor="middle" x="916" y="-62" font-family="Helvetica,sans-Serif" font-size="10.00">fmt/format.h</text>
</a>
</g>
</g>
<!-- Node15&#45;&gt;Node17 -->
<g id="edge21_Node000015_Node000017" class="edge">
<title>Node15&#45;&gt;Node17</title>
<g id="a_edge21_Node000015_Node000017"><a xlink:title=" ">
<path fill="none" stroke="#63b8ff" d="M732.19,-109.98C769.83,-100.87 829.66,-86.4 870.77,-76.45"/>
<polygon fill="#63b8ff" stroke="#63b8ff" points="871.64,-79.84 880.54,-74.08 870,-73.03 871.64,-79.84"/>
</a>
</g>
</g>
<!-- Node18 -->
<g id="Node000018" class="node">
<title>Node18</title>
<g id="a_Node000018"><a xlink:href="../../d9/d86/limits_8h.html" target="_top" xlink:title=" ">
<polygon fill="white" stroke="#666666" points="858,-74 780,-74 780,-55 858,-55 858,-74"/>
<text text-anchor="middle" x="819" y="-62" font-family="Helvetica,sans-Serif" font-size="10.00">type/limits.h</text>
</a>
</g>
</g>
<!-- Node15&#45;&gt;Node18 -->
<g id="edge22_Node000015_Node000018" class="edge">
<title>Node15&#45;&gt;Node18</title>
<g id="a_edge22_Node000015_Node000018"><a xlink:title=" ">
<path fill="none" stroke="#63b8ff" d="M716.6,-109.98C736.32,-101.42 766.95,-88.11 789.58,-78.28"/>
<polygon fill="#63b8ff" stroke="#63b8ff" points="791.26,-81.37 799.04,-74.17 788.48,-74.94 791.26,-81.37"/>
</a>
</g>
</g>
<!-- Node18&#45;&gt;Node13 -->
<g id="edge25_Node000018_Node000013" class="edge">
<title>Node18&#45;&gt;Node13</title>
<g id="a_edge25_Node000018_Node000013"><a xlink:title=" ">
<path fill="none" stroke="#63b8ff" d="M802.45,-54.98C786.11,-46.57 760.87,-33.59 741.87,-23.81"/>
<polygon fill="#63b8ff" stroke="#63b8ff" points="743.34,-20.63 732.85,-19.17 740.14,-26.86 743.34,-20.63"/>
</a>
</g>
</g>
<!-- Node19 -->
<g id="Node000019" class="node">
<title>Node19</title>
<g id="a_Node000019"><a xlink:title=" ">
<polygon fill="#e0e0e0" stroke="#999999" points="803,-19 759,-19 759,0 803,0 803,-19"/>
<text text-anchor="middle" x="781" y="-7" font-family="Helvetica,sans-Serif" font-size="10.00">cfloat</text>
</a>
</g>
</g>
<!-- Node18&#45;&gt;Node19 -->
<g id="edge23_Node000018_Node000019" class="edge">
<title>Node18&#45;&gt;Node19</title>
<g id="a_edge23_Node000018_Node000019"><a xlink:title=" ">
<path fill="none" stroke="#63b8ff" d="M812.73,-54.75C807.41,-47.34 799.64,-36.5 793.12,-27.41"/>
<polygon fill="#63b8ff" stroke="#63b8ff" points="795.83,-25.18 787.16,-19.09 790.14,-29.26 795.83,-25.18"/>
</a>
</g>
</g>
<!-- Node20 -->
<g id="Node000020" class="node">
<title>Node20</title>
<g id="a_Node000020"><a xlink:title=" ">
<polygon fill="#e0e0e0" stroke="#999999" points="871,-19 821,-19 821,0 871,0 871,-19"/>
<text text-anchor="middle" x="846" y="-7" font-family="Helvetica,sans-Serif" font-size="10.00">climits</text>
</a>
</g>
</g>
<!-- Node18&#45;&gt;Node20 -->
<g id="edge24_Node000018_Node000020" class="edge">
<title>Node18&#45;&gt;Node20</title>
<g id="a_edge24_Node000018_Node000020"><a xlink:title=" ">
<path fill="none" stroke="#63b8ff" d="M823.46,-54.75C827.12,-47.57 832.41,-37.18 836.95,-28.27"/>
<polygon fill="#63b8ff" stroke="#63b8ff" points="840.2,-29.59 841.62,-19.09 833.97,-26.41 840.2,-29.59"/>
</a>
</g>
</g>
<!-- Node21 -->
<g id="Node000021" class="node">
<title>Node21</title>
<g id="a_Node000021"><a xlink:title=" ">
<polygon fill="#e0e0e0" stroke="#999999" points="933,-19 889,-19 889,0 933,0 933,-19"/>
<text text-anchor="middle" x="911" y="-7" font-family="Helvetica,sans-Serif" font-size="10.00">limits</text>
</a>
</g>
</g>
<!-- Node18&#45;&gt;Node21 -->
<g id="edge26_Node000018_Node000021" class="edge">
<title>Node18&#45;&gt;Node21</title>
<g id="a_edge26_Node000018_Node000021"><a xlink:title=" ">
<path fill="none" stroke="#63b8ff" d="M833.78,-54.98C848.18,-46.69 870.31,-33.94 887.19,-24.22"/>
<polygon fill="#63b8ff" stroke="#63b8ff" points="889.03,-27.19 895.95,-19.17 885.54,-21.13 889.03,-27.19"/>
</a>
</g>
</g>
</g>
</svg>
