<?xml version="1.0" encoding="UTF-8" standalone="no"?>
<!DOCTYPE svg PUBLIC "-//W3C//DTD SVG 1.1//EN"
 "http://www.w3.org/Graphics/SVG/1.1/DTD/svg11.dtd">
<!-- Generated by graphviz version 2.43.0 (0)
 -->
<!-- Title: src/include/execution/plans/projection_plan.h Pages: 1 -->
<!--zoomable 181 -->

<svg id="main" version="1.1" xmlns="http://www.w3.org/2000/svg" xmlns:xlink="http://www.w3.org/1999/xlink" xml:space="preserve" onload="init(evt)">
<style type="text/css"><![CDATA[
.node, .edge {opacity: 0.7;}
.node.selected, .edge.selected {opacity: 1;}
.edge:hover path { stroke: red; }
.edge:hover polygon { stroke: red; fill: red; }
]]></style>

<defs>
  <circle id="rim" cx="0" cy="0" r="7"/>
  <circle id="rim2" cx="0" cy="0" r="3.5"/>
  <g id="zoomPlus">
    <use xlink:href="#rim" fill="#404040"><set attributeName="fill" to="#808080" begin="zoomplus.mouseover" end="zoomplus.mouseout"/></use>
    <path d="M-4,0h8M0,-4v8" fill="none" stroke="white" stroke-width="1.5" pointer-events="none"/>
  </g>
  <g id="zoomMin">
    <use xlink:href="#rim" fill="#404040"><set attributeName="fill" to="#808080" begin="zoomminus.mouseover" end="zoomminus.mouseout"/></use>
    <path d="M-4,0h8" fill="none" stroke="white" stroke-width="1.5" pointer-events="none"/>
  </g>
  <g id="arrowUp" transform="translate(30 24)">
    <use xlink:href="#rim"/>
    <path pointer-events="none" fill="none" stroke="white" stroke-width="1.5" d="M0,-3.0v7 M-2.5,-0.5L0,-3.0L2.5,-0.5"/>
  </g>
  <g id="arrowRight" transform="rotate(90) translate(36 -43)">
    <use xlink:href="#rim"/>
    <path pointer-events="none" fill="none" stroke="white" stroke-width="1.5" d="M0,-3.0v7 M-2.5,-0.5L0,-3.0L2.5,-0.5"/>
  </g>
  <g id="arrowDown" transform="rotate(180) translate(-30 -48)">
    <use xlink:href="#rim"/>
    <path pointer-events="none" fill="none" stroke="white" stroke-width="1.5" d="M0,-3.0v7 M-2.5,-0.5L0,-3.0L2.5,-0.5"/>
  </g>
  <g id="arrowLeft" transform="rotate(270) translate(-36 17)">
    <use xlink:href="#rim"/>
    <path pointer-events="none" fill="none" stroke="white" stroke-width="1.5" d="M0,-3.0v7 M-2.5,-0.5L0,-3.0L2.5,-0.5"/>
  </g>
  <g id="resetDef">
    <use xlink:href="#rim2" fill="#404040"><set attributeName="fill" to="#808080" begin="reset.mouseover" end="reset.mouseout"/></use>
  </g>
</defs>
<script type="application/ecmascript">
var viewWidth = 1904;
var viewHeight = 181;
var sectionId = 'dynsection-1';
</script>
<script type="application/ecmascript" xlink:href="../../svg.min.js"/>
<svg id="graph" class="graph">
<g id="viewport">
<title>src/include/execution/plans/projection_plan.h</title>
<!-- Node1 -->
<g id="Node000001" class="node">
<title>Node1</title>
<g id="a_Node000001"><a xlink:title=" ">
<polygon fill="#999999" stroke="#666666" points="898.93,-173 765.93,-173 765.93,-143 898.93,-143 898.93,-173"/>
<text text-anchor="start" x="773.93" y="-161" font-family="Helvetica,sans-Serif" font-size="10.00">src/include/execution</text>
<text text-anchor="middle" x="832.43" y="-150" font-family="Helvetica,sans-Serif" font-size="10.00">/plans/projection_plan.h</text>
</a>
</g>
</g>
<!-- Node2 -->
<g id="Node000002" class="node">
<title>Node2</title>
<g id="a_Node000002"><a xlink:href="../../d3/d3e/executor__factory_8cpp.html" target="_top" xlink:title=" ">
<polygon fill="white" stroke="#666666" points="168.43,-30 42.43,-30 42.43,0 168.43,0 168.43,-30"/>
<text text-anchor="start" x="50.43" y="-18" font-family="Helvetica,sans-Serif" font-size="10.00">src/execution/executor</text>
<text text-anchor="middle" x="105.43" y="-7" font-family="Helvetica,sans-Serif" font-size="10.00">_factory.cpp</text>
</a>
</g>
</g>
<!-- Node1&#45;&gt;Node2 -->
<g id="edge1_Node000001_Node000002" class="edge">
<title>Node1&#45;&gt;Node2</title>
<g id="a_edge1_Node000001_Node000002"><a xlink:title=" ">
<path fill="none" stroke="#63b8ff" d="M755.58,-155.16C555.8,-149.99 33.82,-133.98 8.43,-107 -4.06,-93.73 -1.06,-81.56 8.43,-66 18.73,-49.09 36.79,-37.66 54.55,-30.05"/>
<polygon fill="#63b8ff" stroke="#63b8ff" points="755.61,-158.66 765.7,-155.42 755.79,-151.66 755.61,-158.66"/>
</a>
</g>
</g>
<!-- Node3 -->
<g id="Node000003" class="node">
<title>Node3</title>
<g id="a_Node000003"><a xlink:href="../../dd/def/execution_2fmt__impl_8cpp.html" target="_top" xlink:title=" ">
<polygon fill="white" stroke="#666666" points="166.93,-96 17.93,-96 17.93,-77 166.93,-77 166.93,-96"/>
<text text-anchor="middle" x="92.43" y="-84" font-family="Helvetica,sans-Serif" font-size="10.00">src/execution/fmt_impl.cpp</text>
</a>
</g>
</g>
<!-- Node1&#45;&gt;Node3 -->
<g id="edge2_Node000001_Node000003" class="edge">
<title>Node1&#45;&gt;Node3</title>
<g id="a_edge2_Node000001_Node000003"><a xlink:title=" ">
<path fill="none" stroke="#63b8ff" d="M755.75,-155.01C632.7,-150.96 383.8,-139.21 175.43,-107 158.17,-104.33 139.18,-99.98 123.73,-96.06"/>
<polygon fill="#63b8ff" stroke="#63b8ff" points="755.72,-158.51 765.83,-155.33 755.95,-151.51 755.72,-158.51"/>
</a>
</g>
</g>
<!-- Node4 -->
<g id="Node000004" class="node">
<title>Node4</title>
<g id="a_Node000004"><a xlink:href="../../dc/dbe/plan__node_8cpp.html" target="_top" xlink:title=" ">
<polygon fill="white" stroke="#666666" points="289.93,-101.5 184.93,-101.5 184.93,-71.5 289.93,-71.5 289.93,-101.5"/>
<text text-anchor="start" x="192.93" y="-89.5" font-family="Helvetica,sans-Serif" font-size="10.00">src/execution/plan</text>
<text text-anchor="middle" x="237.43" y="-78.5" font-family="Helvetica,sans-Serif" font-size="10.00">_node.cpp</text>
</a>
</g>
</g>
<!-- Node1&#45;&gt;Node4 -->
<g id="edge3_Node000001_Node000004" class="edge">
<title>Node1&#45;&gt;Node4</title>
<g id="a_edge3_Node000001_Node000004"><a xlink:title=" ">
<path fill="none" stroke="#63b8ff" d="M755.59,-154.88C651.33,-150.84 459.67,-139.34 299.43,-107 292.35,-105.57 284.93,-103.64 277.79,-101.54"/>
<polygon fill="#63b8ff" stroke="#63b8ff" points="755.59,-158.38 765.71,-155.25 755.85,-151.38 755.59,-158.38"/>
</a>
</g>
</g>
<!-- Node5 -->
<g id="Node000005" class="node">
<title>Node5</title>
<g id="a_Node000005"><a xlink:href="../../df/d91/projection__executor_8h.html" target="_top" xlink:title=" ">
<polygon fill="white" stroke="#666666" points="426.93,-107 307.93,-107 307.93,-66 426.93,-66 426.93,-107"/>
<text text-anchor="start" x="315.93" y="-95" font-family="Helvetica,sans-Serif" font-size="10.00">src/include/execution</text>
<text text-anchor="start" x="315.93" y="-84" font-family="Helvetica,sans-Serif" font-size="10.00">/executors/projection</text>
<text text-anchor="middle" x="367.43" y="-73" font-family="Helvetica,sans-Serif" font-size="10.00">_executor.h</text>
</a>
</g>
</g>
<!-- Node1&#45;&gt;Node5 -->
<g id="edge4_Node000001_Node000005" class="edge">
<title>Node1&#45;&gt;Node5</title>
<g id="a_edge4_Node000001_Node000005"><a xlink:title=" ">
<path fill="none" stroke="#63b8ff" d="M755.71,-150.75C675.52,-143.41 546.32,-129.34 436.43,-107 433.38,-106.38 430.27,-105.7 427.13,-104.96"/>
<polygon fill="#63b8ff" stroke="#63b8ff" points="755.44,-154.24 765.72,-151.65 756.07,-147.27 755.44,-154.24"/>
</a>
</g>
</g>
<!-- Node7 -->
<g id="Node000007" class="node">
<title>Node7</title>
<g id="a_Node000007"><a xlink:href="../../dc/d4f/merge__filter__nlj_8cpp.html" target="_top" xlink:title=" ">
<polygon fill="white" stroke="#666666" points="559.93,-101.5 444.93,-101.5 444.93,-71.5 559.93,-71.5 559.93,-101.5"/>
<text text-anchor="start" x="452.93" y="-89.5" font-family="Helvetica,sans-Serif" font-size="10.00">src/optimizer/merge</text>
<text text-anchor="middle" x="502.43" y="-78.5" font-family="Helvetica,sans-Serif" font-size="10.00">_filter_nlj.cpp</text>
</a>
</g>
</g>
<!-- Node1&#45;&gt;Node7 -->
<g id="edge7_Node000001_Node000007" class="edge">
<title>Node1&#45;&gt;Node7</title>
<g id="a_edge7_Node000001_Node000007"><a xlink:title=" ">
<path fill="none" stroke="#63b8ff" d="M755.9,-144.44C703.21,-135.3 631.73,-121.95 569.43,-107 562.6,-105.36 555.42,-103.46 548.41,-101.51"/>
<polygon fill="#63b8ff" stroke="#63b8ff" points="755.4,-147.9 765.85,-146.15 756.59,-141 755.4,-147.9"/>
</a>
</g>
</g>
<!-- Node8 -->
<g id="Node000008" class="node">
<title>Node8</title>
<g id="a_Node000008"><a xlink:href="../../d1/db4/merge__projection_8cpp.html" target="_top" xlink:title=" ">
<polygon fill="white" stroke="#666666" points="692.93,-101.5 577.93,-101.5 577.93,-71.5 692.93,-71.5 692.93,-101.5"/>
<text text-anchor="start" x="585.93" y="-89.5" font-family="Helvetica,sans-Serif" font-size="10.00">src/optimizer/merge</text>
<text text-anchor="middle" x="635.43" y="-78.5" font-family="Helvetica,sans-Serif" font-size="10.00">_projection.cpp</text>
</a>
</g>
</g>
<!-- Node1&#45;&gt;Node8 -->
<g id="edge8_Node000001_Node000008" class="edge">
<title>Node1&#45;&gt;Node8</title>
<g id="a_edge8_Node000001_Node000008"><a xlink:title=" ">
<path fill="none" stroke="#63b8ff" d="M783.01,-139.57C749.7,-127.81 706.33,-112.51 675.23,-101.54"/>
<polygon fill="#63b8ff" stroke="#63b8ff" points="781.97,-142.91 792.56,-142.94 784.3,-136.31 781.97,-142.91"/>
</a>
</g>
</g>
<!-- Node9 -->
<g id="Node000009" class="node">
<title>Node9</title>
<g id="a_Node000009"><a xlink:href="../../d5/d99/nlj__as__hash__join_8cpp.html" target="_top" xlink:title=" ">
<polygon fill="white" stroke="#666666" points="823.43,-101.5 711.43,-101.5 711.43,-71.5 823.43,-71.5 823.43,-101.5"/>
<text text-anchor="start" x="719.43" y="-89.5" font-family="Helvetica,sans-Serif" font-size="10.00">src/optimizer/nlj_as</text>
<text text-anchor="middle" x="767.43" y="-78.5" font-family="Helvetica,sans-Serif" font-size="10.00">_hash_join.cpp</text>
</a>
</g>
</g>
<!-- Node1&#45;&gt;Node9 -->
<g id="edge9_Node000001_Node000009" class="edge">
<title>Node1&#45;&gt;Node9</title>
<g id="a_edge9_Node000001_Node000009"><a xlink:title=" ">
<path fill="none" stroke="#63b8ff" d="M812.18,-135.35C801.87,-124.33 789.63,-111.24 780.56,-101.54"/>
<polygon fill="#63b8ff" stroke="#63b8ff" points="809.89,-138.02 819.27,-142.94 815,-133.24 809.89,-138.02"/>
</a>
</g>
</g>
<!-- Node10 -->
<g id="Node000010" class="node">
<title>Node10</title>
<g id="a_Node000010"><a xlink:href="../../d0/de1/nlj__as__index__join_8cpp.html" target="_top" xlink:title=" ">
<polygon fill="white" stroke="#666666" points="953.43,-101.5 841.43,-101.5 841.43,-71.5 953.43,-71.5 953.43,-101.5"/>
<text text-anchor="start" x="849.43" y="-89.5" font-family="Helvetica,sans-Serif" font-size="10.00">src/optimizer/nlj_as</text>
<text text-anchor="middle" x="897.43" y="-78.5" font-family="Helvetica,sans-Serif" font-size="10.00">_index_join.cpp</text>
</a>
</g>
</g>
<!-- Node1&#45;&gt;Node10 -->
<g id="edge10_Node000001_Node000010" class="edge">
<title>Node1&#45;&gt;Node10</title>
<g id="a_edge10_Node000001_Node000010"><a xlink:title=" ">
<path fill="none" stroke="#63b8ff" d="M852.68,-135.35C862.99,-124.33 875.22,-111.24 884.29,-101.54"/>
<polygon fill="#63b8ff" stroke="#63b8ff" points="849.86,-133.24 845.58,-142.94 854.97,-138.02 849.86,-133.24"/>
</a>
</g>
</g>
<!-- Node11 -->
<g id="Node000011" class="node">
<title>Node11</title>
<g id="a_Node000011"><a xlink:href="../../d9/db2/order__by__index__scan_8cpp.html" target="_top" xlink:title=" ">
<polygon fill="white" stroke="#666666" points="1085.43,-101.5 971.43,-101.5 971.43,-71.5 1085.43,-71.5 1085.43,-101.5"/>
<text text-anchor="start" x="979.43" y="-89.5" font-family="Helvetica,sans-Serif" font-size="10.00">src/optimizer/order</text>
<text text-anchor="middle" x="1028.43" y="-78.5" font-family="Helvetica,sans-Serif" font-size="10.00">_by_index_scan.cpp</text>
</a>
</g>
</g>
<!-- Node1&#45;&gt;Node11 -->
<g id="edge11_Node000001_Node000011" class="edge">
<title>Node1&#45;&gt;Node11</title>
<g id="a_edge11_Node000001_Node000011"><a xlink:title=" ">
<path fill="none" stroke="#63b8ff" d="M881.59,-139.57C914.74,-127.81 957.89,-112.51 988.82,-101.54"/>
<polygon fill="#63b8ff" stroke="#63b8ff" points="880.35,-136.29 872.09,-142.94 882.69,-142.89 880.35,-136.29"/>
</a>
</g>
</g>
<!-- Node12 -->
<g id="Node000012" class="node">
<title>Node12</title>
<g id="a_Node000012"><a xlink:href="../../da/de4/plan__aggregation_8cpp.html" target="_top" xlink:title=" ">
<polygon fill="white" stroke="#666666" points="1282.93,-96 1103.93,-96 1103.93,-77 1282.93,-77 1282.93,-96"/>
<text text-anchor="middle" x="1193.43" y="-84" font-family="Helvetica,sans-Serif" font-size="10.00">src/planner/plan_aggregation.cpp</text>
</a>
</g>
</g>
<!-- Node1&#45;&gt;Node12 -->
<g id="edge12_Node000001_Node000012" class="edge">
<title>Node1&#45;&gt;Node12</title>
<g id="a_edge12_Node000001_Node000012"><a xlink:title=" ">
<path fill="none" stroke="#63b8ff" d="M908.81,-142.55C961.08,-132.62 1031.97,-119.11 1094.43,-107 1112.83,-103.43 1133.14,-99.44 1150.56,-96"/>
<polygon fill="#63b8ff" stroke="#63b8ff" points="908.11,-139.12 898.94,-144.42 909.42,-145.99 908.11,-139.12"/>
</a>
</g>
</g>
<!-- Node13 -->
<g id="Node000013" class="node">
<title>Node13</title>
<g id="a_Node000013"><a xlink:href="../../d9/df0/plan__select_8cpp.html" target="_top" xlink:title=" ">
<polygon fill="white" stroke="#666666" points="1449.93,-96 1300.93,-96 1300.93,-77 1449.93,-77 1449.93,-96"/>
<text text-anchor="middle" x="1375.43" y="-84" font-family="Helvetica,sans-Serif" font-size="10.00">src/planner/plan_select.cpp</text>
</a>
</g>
</g>
<!-- Node1&#45;&gt;Node13 -->
<g id="edge13_Node000001_Node000013" class="edge">
<title>Node1&#45;&gt;Node13</title>
<g id="a_edge13_Node000001_Node000013"><a xlink:title=" ">
<path fill="none" stroke="#63b8ff" d="M909.08,-151.56C1000.71,-144.38 1158.49,-129.92 1292.43,-107 1309.35,-104.1 1327.98,-99.83 1343.29,-96.02"/>
<polygon fill="#63b8ff" stroke="#63b8ff" points="908.76,-148.07 899.06,-152.33 909.3,-155.05 908.76,-148.07"/>
</a>
</g>
</g>
<!-- Node14 -->
<g id="Node000014" class="node">
<title>Node14</title>
<g id="a_Node000014"><a xlink:href="../../d8/d40/plan__table__ref_8cpp.html" target="_top" xlink:title=" ">
<polygon fill="white" stroke="#666666" points="1592.93,-101.5 1467.93,-101.5 1467.93,-71.5 1592.93,-71.5 1592.93,-101.5"/>
<text text-anchor="start" x="1475.93" y="-89.5" font-family="Helvetica,sans-Serif" font-size="10.00">src/planner/plan_table</text>
<text text-anchor="middle" x="1530.43" y="-78.5" font-family="Helvetica,sans-Serif" font-size="10.00">_ref.cpp</text>
</a>
</g>
</g>
<!-- Node1&#45;&gt;Node14 -->
<g id="edge14_Node000001_Node000014" class="edge">
<title>Node1&#45;&gt;Node14</title>
<g id="a_edge14_Node000001_Node000014"><a xlink:title=" ">
<path fill="none" stroke="#63b8ff" d="M909.39,-155.52C1028.24,-152.19 1263.21,-141.45 1459.43,-107 1467.49,-105.59 1475.95,-103.66 1484.12,-101.57"/>
<polygon fill="#63b8ff" stroke="#63b8ff" points="909.2,-152.02 899.3,-155.79 909.39,-159.02 909.2,-152.02"/>
</a>
</g>
</g>
<!-- Node15 -->
<g id="Node000015" class="node">
<title>Node15</title>
<g id="a_Node000015"><a xlink:href="../../d4/d79/plan__window__function_8cpp.html" target="_top" xlink:title=" ">
<polygon fill="white" stroke="#666666" points="1747.93,-101.5 1610.93,-101.5 1610.93,-71.5 1747.93,-71.5 1747.93,-101.5"/>
<text text-anchor="start" x="1618.93" y="-89.5" font-family="Helvetica,sans-Serif" font-size="10.00">src/planner/plan_window</text>
<text text-anchor="middle" x="1679.43" y="-78.5" font-family="Helvetica,sans-Serif" font-size="10.00">_function.cpp</text>
</a>
</g>
</g>
<!-- Node1&#45;&gt;Node15 -->
<g id="edge15_Node000001_Node000015" class="edge">
<title>Node1&#45;&gt;Node15</title>
<g id="a_edge15_Node000001_Node000015"><a xlink:title=" ">
<path fill="none" stroke="#63b8ff" d="M909.19,-156.65C1048.27,-155 1350.85,-146.68 1602.43,-107 1611.28,-105.6 1620.6,-103.66 1629.59,-101.53"/>
<polygon fill="#63b8ff" stroke="#63b8ff" points="909.02,-153.16 899.06,-156.77 909.09,-160.16 909.02,-153.16"/>
</a>
</g>
</g>
<!-- Node16 -->
<g id="Node000016" class="node">
<title>Node16</title>
<g id="a_Node000016"><a xlink:href="../../de/d3d/planner_8cpp.html" target="_top" xlink:title=" ">
<polygon fill="white" stroke="#666666" points="1896.43,-96 1766.43,-96 1766.43,-77 1896.43,-77 1896.43,-96"/>
<text text-anchor="middle" x="1831.43" y="-84" font-family="Helvetica,sans-Serif" font-size="10.00">src/planner/planner.cpp</text>
</a>
</g>
</g>
<!-- Node1&#45;&gt;Node16 -->
<g id="edge16_Node000001_Node000016" class="edge">
<title>Node1&#45;&gt;Node16</title>
<g id="a_edge16_Node000001_Node000016"><a xlink:title=" ">
<path fill="none" stroke="#63b8ff" d="M909.29,-154.86C1100.67,-149.21 1594.79,-132.55 1757.43,-107 1773.18,-104.53 1790.42,-100.09 1804.3,-96.07"/>
<polygon fill="#63b8ff" stroke="#63b8ff" points="908.93,-151.37 899.04,-155.16 909.14,-158.37 908.93,-151.37"/>
</a>
</g>
</g>
<!-- Node5&#45;&gt;Node2 -->
<g id="edge5_Node000005_Node000002" class="edge">
<title>Node5&#45;&gt;Node2</title>
<g id="a_edge5_Node000005_Node000002"><a xlink:title=" ">
<path fill="none" stroke="#63b8ff" d="M297.85,-65.6C246.78,-51.77 198.01,-39.26 161.56,-30.04"/>
<polygon fill="#63b8ff" stroke="#63b8ff" points="297.18,-69.04 307.75,-68.29 299.02,-62.29 297.18,-69.04"/>
</a>
</g>
</g>
<!-- Node6 -->
<g id="Node000006" class="node">
<title>Node6</title>
<g id="a_Node000006"><a xlink:href="../../d8/d05/projection__executor_8cpp.html" target="_top" xlink:title=" ">
<polygon fill="white" stroke="#666666" points="433.93,-30 300.93,-30 300.93,0 433.93,0 433.93,-30"/>
<text text-anchor="start" x="308.93" y="-18" font-family="Helvetica,sans-Serif" font-size="10.00">src/execution/projection</text>
<text text-anchor="middle" x="367.43" y="-7" font-family="Helvetica,sans-Serif" font-size="10.00">_executor.cpp</text>
</a>
</g>
</g>
<!-- Node5&#45;&gt;Node6 -->
<g id="edge6_Node000005_Node000006" class="edge">
<title>Node5&#45;&gt;Node6</title>
<g id="a_edge6_Node000005_Node000006"><a xlink:title=" ">
<path fill="none" stroke="#63b8ff" d="M367.43,-55.66C367.43,-46.76 367.43,-37.42 367.43,-30.04"/>
<polygon fill="#63b8ff" stroke="#63b8ff" points="363.93,-55.77 367.43,-65.77 370.93,-55.77 363.93,-55.77"/>
</a>
</g>
</g>
</g>
</svg>

<g id="navigator" transform="translate(0 0)" fill="#404254">
  <rect fill="#f2f5e9" fill-opacity="0.5" stroke="#606060" stroke-width=".5" x="0" y="0" width="60" height="60"/>
  <use id="zoomplus" xlink:href="#zoomPlus" x="17" y="9" onmousedown="handleZoom(evt,'in')"/>
  <use id="zoomminus" xlink:href="#zoomMin" x="42" y="9" onmousedown="handleZoom(evt,'out')"/>
  <use id="reset" xlink:href="#resetDef" x="30" y="36" onmousedown="handleReset()"/>
   <use id="arrowup" xlink:href="#arrowUp" x="0" y="0" onmousedown="handlePan(0,-1)"/>
  <use id="arrowright" xlink:href="#arrowRight" x="0" y="0" onmousedown="handlePan(1,0)"/>
  <use id="arrowdown" xlink:href="#arrowDown" x="0" y="0" onmousedown="handlePan(0,1)"/>
  <use id="arrowleft" xlink:href="#arrowLeft" x="0" y="0" onmousedown="handlePan(-1,0)"/>
</g>
<svg viewBox="0 0 15 15" width="100%" height="30px" preserveAspectRatio="xMaxYMin meet">
 <g id="arrow_out" transform="scale(0.3 0.3)">
  <a xlink:href="projection__plan_8h__dep__incl_org.svg" target="_base">
   <rect id="button" ry="5" rx="5" y="6" x="6" height="38" width="38"
        fill="#f2f5e9" fill-opacity="0.5" stroke="#606060" stroke-width="1.0"/>
   <path id="arrow"
     d="M 11.500037,31.436501 C 11.940474,20.09759 22.043105,11.32322 32.158766,21.979434 L 37.068811,17.246167 C 37.068811,17.246167 37.088388,32 37.088388,32 L 22.160133,31.978069 C 22.160133,31.978069 26.997745,27.140456 26.997745,27.140456 C 18.528582,18.264221 13.291696,25.230495 11.500037,31.436501 z"
     style="fill:#404040;"/>
  </a>
 </g>
</svg>

<style type='text/css'>
<![CDATA[
[data-mouse-over-selected='false'] { opacity: 0.7; }
[data-mouse-over-selected='true']  { opacity: 1.0; }
]]>
</style>
<script type="application/ecmascript"><![CDATA[
document.addEventListener('DOMContentLoaded', (event) => {
  highlightEdges();
  highlightAdjacentNodes();
});
]]></script>
</svg>
