<?xml version="1.0" encoding="UTF-8" standalone="no"?>
<!DOCTYPE svg PUBLIC "-//W3C//DTD SVG 1.1//EN"
 "http://www.w3.org/Graphics/SVG/1.1/DTD/svg11.dtd">
<!-- Generated by graphviz version 2.43.0 (0)
 -->
<!-- Title: src/include/storage/table Pages: 1 -->
<!--zoomable 133 -->

<svg id="main" version="1.1" xmlns="http://www.w3.org/2000/svg" xmlns:xlink="http://www.w3.org/1999/xlink" xml:space="preserve" onload="init(evt)">
<style type="text/css"><![CDATA[
.node, .edge {opacity: 0.7;}
.node.selected, .edge.selected {opacity: 1;}
.edge:hover path { stroke: red; }
.edge:hover polygon { stroke: red; fill: red; }
]]></style>

<defs>
  <circle id="rim" cx="0" cy="0" r="7"/>
  <circle id="rim2" cx="0" cy="0" r="3.5"/>
  <g id="zoomPlus">
    <use xlink:href="#rim" fill="#404040"><set attributeName="fill" to="#808080" begin="zoomplus.mouseover" end="zoomplus.mouseout"/></use>
    <path d="M-4,0h8M0,-4v8" fill="none" stroke="white" stroke-width="1.5" pointer-events="none"/>
  </g>
  <g id="zoomMin">
    <use xlink:href="#rim" fill="#404040"><set attributeName="fill" to="#808080" begin="zoomminus.mouseover" end="zoomminus.mouseout"/></use>
    <path d="M-4,0h8" fill="none" stroke="white" stroke-width="1.5" pointer-events="none"/>
  </g>
  <g id="arrowUp" transform="translate(30 24)">
    <use xlink:href="#rim"/>
    <path pointer-events="none" fill="none" stroke="white" stroke-width="1.5" d="M0,-3.0v7 M-2.5,-0.5L0,-3.0L2.5,-0.5"/>
  </g>
  <g id="arrowRight" transform="rotate(90) translate(36 -43)">
    <use xlink:href="#rim"/>
    <path pointer-events="none" fill="none" stroke="white" stroke-width="1.5" d="M0,-3.0v7 M-2.5,-0.5L0,-3.0L2.5,-0.5"/>
  </g>
  <g id="arrowDown" transform="rotate(180) translate(-30 -48)">
    <use xlink:href="#rim"/>
    <path pointer-events="none" fill="none" stroke="white" stroke-width="1.5" d="M0,-3.0v7 M-2.5,-0.5L0,-3.0L2.5,-0.5"/>
  </g>
  <g id="arrowLeft" transform="rotate(270) translate(-36 17)">
    <use xlink:href="#rim"/>
    <path pointer-events="none" fill="none" stroke="white" stroke-width="1.5" d="M0,-3.0v7 M-2.5,-0.5L0,-3.0L2.5,-0.5"/>
  </g>
  <g id="resetDef">
    <use xlink:href="#rim2" fill="#404040"><set attributeName="fill" to="#808080" begin="reset.mouseover" end="reset.mouseout"/></use>
  </g>
</defs>
<script type="application/ecmascript">
var viewWidth = 505;
var viewHeight = 133;
var sectionId = 'dynsection-0';
</script>
<script type="application/ecmascript" xlink:href="svg.min.js"/>
<svg id="graph" class="graph">
<g id="viewport">
<title>src/include/storage/table</title>
<g id="clust1" class="cluster">
<title>clusterdir_0a30ac4aed38d1936bbd6d702d96fbd8</title>
<g id="a_clust1"><a xlink:href="dir_0a30ac4aed38d1936bbd6d702d96fbd8.html" target="_top" xlink:title="storage">
<polygon fill="#edf0f7" stroke="#7f7f7f" stroke-dasharray="5,2" points="8,-8 8,-117 66,-117 66,-8 8,-8"/>
<text text-anchor="middle" x="37" y="-105" font-family="Helvetica,sans-Serif" font-size="10.00">storage</text>
</a>
</g>
</g>
<!-- dir_aa62e7e4f393bdf63f8ca74ad42976cf -->
<g id="node1" class="node">
<title>dir_aa62e7e4f393bdf63f8ca74ad42976cf</title>
<g id="a_node1"><a xlink:href="dir_aa62e7e4f393bdf63f8ca74ad42976cf.html" target="_top" xlink:title="page">
<polygon fill="#a2b4d6" stroke="#404040" points="57.5,-35 16.5,-35 16.5,-16 57.5,-16 57.5,-35"/>
<text text-anchor="middle" x="37" y="-23" font-family="Helvetica,sans-Serif" font-size="10.00">page</text>
</a>
</g>
</g>
<!-- dir_2690c8181e8c10fd9089f1e4ccd3bfb8 -->
<g id="node2" class="node">
<title>dir_2690c8181e8c10fd9089f1e4ccd3bfb8</title>
<g id="a_node2"><a xlink:href="dir_2690c8181e8c10fd9089f1e4ccd3bfb8.html" target="_top" xlink:title="table">
<polygon fill="#edf0f7" stroke="#404040" stroke-width="2" points="57.5,-90 16.5,-90 16.5,-71 57.5,-71 57.5,-90"/>
<text text-anchor="middle" x="37" y="-78" font-family="Helvetica,sans-Serif" font-size="10.00">table</text>
</a>
</g>
</g>
<!-- dir_2690c8181e8c10fd9089f1e4ccd3bfb8&#45;&gt;dir_aa62e7e4f393bdf63f8ca74ad42976cf -->
<g id="edge4" class="edge">
<title>dir_2690c8181e8c10fd9089f1e4ccd3bfb8&#45;&gt;dir_aa62e7e4f393bdf63f8ca74ad42976cf</title>
<g id="a_edge4"><a xlink:href="dir_000044_000030.html" target="_top">
<path fill="none" stroke="#63b8ff" d="M37,-70.75C37,-63.8 37,-53.85 37,-45.13"/>
<polygon fill="#63b8ff" stroke="#63b8ff" points="40.5,-45.09 37,-35.09 33.5,-45.09 40.5,-45.09"/>
</a>
</g>
<g id="a_edge4&#45;headlabel"><a xlink:href="dir_000044_000030.html" target="_top" xlink:title="2">
<text text-anchor="middle" x="43.34" y="-46.18" font-family="Helvetica,sans-Serif" font-size="10.00" fill="#63b8ff">2</text>
</a>
</g>
</g>
<!-- dir_56fb494bfda9b75d921f5a73f9bb6191 -->
<g id="node3" class="node">
<title>dir_56fb494bfda9b75d921f5a73f9bb6191</title>
<g id="a_node3"><a xlink:href="dir_56fb494bfda9b75d921f5a73f9bb6191.html" target="_top" xlink:title="type">
<polygon fill="#edf0f7" stroke="#7f7f7f" points="114,-35 76,-35 76,-16 114,-16 114,-35"/>
<text text-anchor="middle" x="95" y="-23" font-family="Helvetica,sans-Serif" font-size="10.00">type</text>
</a>
</g>
</g>
<!-- dir_2690c8181e8c10fd9089f1e4ccd3bfb8&#45;&gt;dir_56fb494bfda9b75d921f5a73f9bb6191 -->
<g id="edge1" class="edge">
<title>dir_2690c8181e8c10fd9089f1e4ccd3bfb8&#45;&gt;dir_56fb494bfda9b75d921f5a73f9bb6191</title>
<g id="a_edge1"><a xlink:href="dir_000044_000047.html" target="_top">
<path fill="none" stroke="#63b8ff" d="M46.32,-70.98C54.81,-63.23 67.56,-51.58 77.88,-42.14"/>
<polygon fill="#63b8ff" stroke="#63b8ff" points="80.49,-44.5 85.51,-35.17 75.77,-39.33 80.49,-44.5"/>
</a>
</g>
<g id="a_edge1&#45;headlabel"><a xlink:href="dir_000044_000047.html" target="_top" xlink:title="1">
<text text-anchor="middle" x="79.75" y="-46.52" font-family="Helvetica,sans-Serif" font-size="10.00" fill="#63b8ff">1</text>
</a>
</g>
</g>
<!-- dir_a0a7e3c511eabaea002d5842901bfffc -->
<g id="node4" class="node">
<title>dir_a0a7e3c511eabaea002d5842901bfffc</title>
<g id="a_node4"><a xlink:href="dir_a0a7e3c511eabaea002d5842901bfffc.html" target="_top" xlink:title="buffer">
<polygon fill="#edf0f7" stroke="#7f7f7f" points="177.5,-35 132.5,-35 132.5,-16 177.5,-16 177.5,-35"/>
<text text-anchor="middle" x="155" y="-23" font-family="Helvetica,sans-Serif" font-size="10.00">buffer</text>
</a>
</g>
</g>
<!-- dir_2690c8181e8c10fd9089f1e4ccd3bfb8&#45;&gt;dir_a0a7e3c511eabaea002d5842901bfffc -->
<g id="edge2" class="edge">
<title>dir_2690c8181e8c10fd9089f1e4ccd3bfb8&#45;&gt;dir_a0a7e3c511eabaea002d5842901bfffc</title>
<g id="a_edge2"><a xlink:href="dir_000044_000003.html" target="_top">
<path fill="none" stroke="#63b8ff" d="M55.96,-70.98C75.03,-62.42 104.66,-49.11 126.55,-39.28"/>
<polygon fill="#63b8ff" stroke="#63b8ff" points="128.01,-42.46 135.7,-35.17 125.14,-36.07 128.01,-42.46"/>
</a>
</g>
<g id="a_edge2&#45;headlabel"><a xlink:href="dir_000044_000003.html" target="_top" xlink:title="1">
<text text-anchor="middle" x="125.89" y="-44.02" font-family="Helvetica,sans-Serif" font-size="10.00" fill="#63b8ff">1</text>
</a>
</g>
</g>
<!-- dir_a8b1cd4a4819f17e891fed4be1bf613f -->
<g id="node5" class="node">
<title>dir_a8b1cd4a4819f17e891fed4be1bf613f</title>
<g id="a_node5"><a xlink:href="dir_a8b1cd4a4819f17e891fed4be1bf613f.html" target="_top" xlink:title="catalog">
<polygon fill="#edf0f7" stroke="#7f7f7f" points="248.5,-35 195.5,-35 195.5,-16 248.5,-16 248.5,-35"/>
<text text-anchor="middle" x="222" y="-23" font-family="Helvetica,sans-Serif" font-size="10.00">catalog</text>
</a>
</g>
</g>
<!-- dir_2690c8181e8c10fd9089f1e4ccd3bfb8&#45;&gt;dir_a8b1cd4a4819f17e891fed4be1bf613f -->
<g id="edge3" class="edge">
<title>dir_2690c8181e8c10fd9089f1e4ccd3bfb8&#45;&gt;dir_a8b1cd4a4819f17e891fed4be1bf613f</title>
<g id="a_edge3"><a xlink:href="dir_000044_000005.html" target="_top">
<path fill="none" stroke="#63b8ff" d="M57.51,-73.63C88.42,-64.77 147.42,-47.87 185.71,-36.9"/>
<polygon fill="#63b8ff" stroke="#63b8ff" points="186.8,-40.23 195.45,-34.11 184.87,-33.5 186.8,-40.23"/>
</a>
</g>
<g id="a_edge3&#45;headlabel"><a xlink:href="dir_000044_000005.html" target="_top" xlink:title="1">
<text text-anchor="middle" x="184.12" y="-41.44" font-family="Helvetica,sans-Serif" font-size="10.00" fill="#63b8ff">1</text>
</a>
</g>
</g>
<!-- dir_babafc9c8e7694ca3856a36d011a673d -->
<g id="node6" class="node">
<title>dir_babafc9c8e7694ca3856a36d011a673d</title>
<g id="a_node6"><a xlink:href="dir_babafc9c8e7694ca3856a36d011a673d.html" target="_top" xlink:title="recovery">
<polygon fill="#edf0f7" stroke="#7f7f7f" points="325.5,-35 266.5,-35 266.5,-16 325.5,-16 325.5,-35"/>
<text text-anchor="middle" x="296" y="-23" font-family="Helvetica,sans-Serif" font-size="10.00">recovery</text>
</a>
</g>
</g>
<!-- dir_2690c8181e8c10fd9089f1e4ccd3bfb8&#45;&gt;dir_babafc9c8e7694ca3856a36d011a673d -->
<g id="edge5" class="edge">
<title>dir_2690c8181e8c10fd9089f1e4ccd3bfb8&#45;&gt;dir_babafc9c8e7694ca3856a36d011a673d</title>
<g id="a_edge5"><a xlink:href="dir_000044_000037.html" target="_top">
<path fill="none" stroke="#63b8ff" d="M57.75,-75.48C95.33,-68.15 177.39,-52.02 256.07,-35.38"/>
<polygon fill="#63b8ff" stroke="#63b8ff" points="257.09,-38.74 266.14,-33.24 255.63,-31.89 257.09,-38.74"/>
</a>
</g>
<g id="a_edge5&#45;headlabel"><a xlink:href="dir_000044_000037.html" target="_top" xlink:title="1">
<text text-anchor="middle" x="254.16" y="-39.76" font-family="Helvetica,sans-Serif" font-size="10.00" fill="#63b8ff">1</text>
</a>
</g>
</g>
<!-- dir_e73942be4139c49ff686e607a1824de2 -->
<g id="node7" class="node">
<title>dir_e73942be4139c49ff686e607a1824de2</title>
<g id="a_node7"><a xlink:href="dir_e73942be4139c49ff686e607a1824de2.html" target="_top" xlink:title="common">
<polygon fill="#edf0f7" stroke="red" stroke-dasharray="5,2" points="402.5,-35 343.5,-35 343.5,-16 402.5,-16 402.5,-35"/>
<text text-anchor="middle" x="373" y="-23" font-family="Helvetica,sans-Serif" font-size="10.00">common</text>
</a>
</g>
</g>
<!-- dir_2690c8181e8c10fd9089f1e4ccd3bfb8&#45;&gt;dir_e73942be4139c49ff686e607a1824de2 -->
<g id="edge6" class="edge">
<title>dir_2690c8181e8c10fd9089f1e4ccd3bfb8&#45;&gt;dir_e73942be4139c49ff686e607a1824de2</title>
<g id="a_edge6"><a xlink:href="dir_000044_000007.html" target="_top">
<path fill="none" stroke="#63b8ff" d="M57.68,-76.93C104.83,-70.97 224.11,-55.26 333.31,-35.21"/>
<polygon fill="#63b8ff" stroke="#63b8ff" points="333.98,-38.65 343.17,-33.38 332.7,-31.77 333.98,-38.65"/>
</a>
</g>
<g id="a_edge6&#45;headlabel"><a xlink:href="dir_000044_000007.html" target="_top" xlink:title="6">
<text text-anchor="middle" x="330.96" y="-39.6" font-family="Helvetica,sans-Serif" font-size="10.00" fill="#63b8ff">6</text>
</a>
</g>
</g>
<!-- dir_fe2aa8ace742259405f3fccf93b887e4 -->
<g id="node8" class="node">
<title>dir_fe2aa8ace742259405f3fccf93b887e4</title>
<g id="a_node8"><a xlink:href="dir_fe2aa8ace742259405f3fccf93b887e4.html" target="_top" xlink:title="concurrency">
<polygon fill="#edf0f7" stroke="#7f7f7f" points="497,-35 421,-35 421,-16 497,-16 497,-35"/>
<text text-anchor="middle" x="459" y="-23" font-family="Helvetica,sans-Serif" font-size="10.00">concurrency</text>
</a>
</g>
</g>
<!-- dir_2690c8181e8c10fd9089f1e4ccd3bfb8&#45;&gt;dir_fe2aa8ace742259405f3fccf93b887e4 -->
<g id="edge7" class="edge">
<title>dir_2690c8181e8c10fd9089f1e4ccd3bfb8&#45;&gt;dir_fe2aa8ace742259405f3fccf93b887e4</title>
<g id="a_edge7"><a xlink:href="dir_000044_000009.html" target="_top">
<path fill="none" stroke="#63b8ff" d="M57.79,-77.48C113.32,-71.99 269.89,-55.91 410.7,-35.11"/>
<polygon fill="#63b8ff" stroke="#63b8ff" points="411.44,-38.54 420.81,-33.61 410.41,-31.62 411.44,-38.54"/>
</a>
</g>
<g id="a_edge7&#45;headlabel"><a xlink:href="dir_000044_000009.html" target="_top" xlink:title="3">
<text text-anchor="middle" x="408.3" y="-39.38" font-family="Helvetica,sans-Serif" font-size="10.00" fill="#63b8ff">3</text>
</a>
</g>
</g>
</g>
</svg>

<g id="navigator" transform="translate(0 0)" fill="#404254">
  <rect fill="#f2f5e9" fill-opacity="0.5" stroke="#606060" stroke-width=".5" x="0" y="0" width="60" height="60"/>
  <use id="zoomplus" xlink:href="#zoomPlus" x="17" y="9" onmousedown="handleZoom(evt,'in')"/>
  <use id="zoomminus" xlink:href="#zoomMin" x="42" y="9" onmousedown="handleZoom(evt,'out')"/>
  <use id="reset" xlink:href="#resetDef" x="30" y="36" onmousedown="handleReset()"/>
   <use id="arrowup" xlink:href="#arrowUp" x="0" y="0" onmousedown="handlePan(0,-1)"/>
  <use id="arrowright" xlink:href="#arrowRight" x="0" y="0" onmousedown="handlePan(1,0)"/>
  <use id="arrowdown" xlink:href="#arrowDown" x="0" y="0" onmousedown="handlePan(0,1)"/>
  <use id="arrowleft" xlink:href="#arrowLeft" x="0" y="0" onmousedown="handlePan(-1,0)"/>
</g>
<svg viewBox="0 0 15 15" width="100%" height="30px" preserveAspectRatio="xMaxYMin meet">
 <g id="arrow_out" transform="scale(0.3 0.3)">
  <a xlink:href="dir_2690c8181e8c10fd9089f1e4ccd3bfb8_dep_org.svg" target="_base">
   <rect id="button" ry="5" rx="5" y="6" x="6" height="38" width="38"
        fill="#f2f5e9" fill-opacity="0.5" stroke="#606060" stroke-width="1.0"/>
   <path id="arrow"
     d="M 11.500037,31.436501 C 11.940474,20.09759 22.043105,11.32322 32.158766,21.979434 L 37.068811,17.246167 C 37.068811,17.246167 37.088388,32 37.088388,32 L 22.160133,31.978069 C 22.160133,31.978069 26.997745,27.140456 26.997745,27.140456 C 18.528582,18.264221 13.291696,25.230495 11.500037,31.436501 z"
     style="fill:#404040;"/>
  </a>
 </g>
</svg>

<style type='text/css'>
<![CDATA[
[data-mouse-over-selected='false'] { opacity: 0.7; }
[data-mouse-over-selected='true']  { opacity: 1.0; }
]]>
</style>
<script type="application/ecmascript"><![CDATA[
document.addEventListener('DOMContentLoaded', (event) => {
  highlightEdges();
  highlightAdjacentNodes();
});
]]></script>
</svg>
