<?xml version="1.0" encoding="UTF-8" standalone="no"?>
<!DOCTYPE svg PUBLIC "-//W3C//DTD SVG 1.1//EN"
 "http://www.w3.org/Graphics/SVG/1.1/DTD/svg11.dtd">
<!-- Generated by graphviz version 2.43.0 (0)
 -->
<!-- Title: src/include/storage Pages: 1 -->
<svg width="462pt" height="251pt"
 viewBox="0.00 0.00 462.00 251.00" xmlns="http://www.w3.org/2000/svg" xmlns:xlink="http://www.w3.org/1999/xlink">

<svg id="main" version="1.1" xmlns="http://www.w3.org/2000/svg" xmlns:xlink="http://www.w3.org/1999/xlink" xml:space="preserve" onload="init(evt)">
<style type="text/css"><![CDATA[
.node, .edge {opacity: 0.7;}
.node.selected, .edge.selected {opacity: 1;}
.edge:hover path { stroke: red; }
.edge:hover polygon { stroke: red; fill: red; }
]]></style>
<script type="application/ecmascript" xlink:href="svg.min.js"/>
<svg id="graph" class="graph">
<g id="graph0" class="graph" transform="scale(1 1) rotate(0) translate(4 247)">
<title>src/include/storage</title>
<g id="clust1" class="cluster">
<title>clusterdir_b0856f6b0d80ccb263b2f415c91f9e17</title>
<g id="a_clust1"><a xlink:href="dir_b0856f6b0d80ccb263b2f415c91f9e17.html" target="_top" xlink:title="include">
<polygon fill="#edf0f7" stroke="#7f7f7f" stroke-dasharray="5,2" points="8,-8 8,-235 446,-235 446,-8 8,-8"/>
<text text-anchor="middle" x="227" y="-223" font-family="Helvetica,sans-Serif" font-size="10.00">include</text>
</a>
</g>
</g>
<g id="clust2" class="cluster">
<title>clusterdir_0a30ac4aed38d1936bbd6d702d96fbd8</title>
<g id="a_clust2"><a xlink:href="dir_0a30ac4aed38d1936bbd6d702d96fbd8.html" target="_top">
<polygon fill="#edf0f7" stroke="#404040" stroke-width="2" points="131,-63 131,-208 318,-208 318,-63 131,-63"/>
</a>
</g>
</g>
<!-- dir_56fb494bfda9b75d921f5a73f9bb6191 -->
<g id="node1" class="node">
<title>dir_56fb494bfda9b75d921f5a73f9bb6191</title>
<g id="a_node1"><a xlink:href="dir_56fb494bfda9b75d921f5a73f9bb6191.html" target="_top" xlink:title="type">
<polygon fill="#a2b4d6" stroke="#404040" points="54,-35 16,-35 16,-16 54,-16 54,-35"/>
<text text-anchor="middle" x="35" y="-23" font-family="Helvetica,sans-Serif" font-size="10.00">type</text>
</a>
</g>
</g>
<!-- dir_a0a7e3c511eabaea002d5842901bfffc -->
<g id="node2" class="node">
<title>dir_a0a7e3c511eabaea002d5842901bfffc</title>
<g id="a_node2"><a xlink:href="dir_a0a7e3c511eabaea002d5842901bfffc.html" target="_top" xlink:title="buffer">
<polygon fill="#a2b4d6" stroke="#404040" points="117.5,-35 72.5,-35 72.5,-16 117.5,-16 117.5,-35"/>
<text text-anchor="middle" x="95" y="-23" font-family="Helvetica,sans-Serif" font-size="10.00">buffer</text>
</a>
</g>
</g>
<!-- dir_a8b1cd4a4819f17e891fed4be1bf613f -->
<g id="node3" class="node">
<title>dir_a8b1cd4a4819f17e891fed4be1bf613f</title>
<g id="a_node3"><a xlink:href="dir_a8b1cd4a4819f17e891fed4be1bf613f.html" target="_top" xlink:title="catalog">
<polygon fill="#a2b4d6" stroke="#404040" points="360.5,-35 307.5,-35 307.5,-16 360.5,-16 360.5,-35"/>
<text text-anchor="middle" x="334" y="-23" font-family="Helvetica,sans-Serif" font-size="10.00">catalog</text>
</a>
</g>
</g>
<!-- dir_babafc9c8e7694ca3856a36d011a673d -->
<g id="node4" class="node">
<title>dir_babafc9c8e7694ca3856a36d011a673d</title>
<g id="a_node4"><a xlink:href="dir_babafc9c8e7694ca3856a36d011a673d.html" target="_top" xlink:title="recovery">
<polygon fill="#a2b4d6" stroke="#404040" points="194.5,-35 135.5,-35 135.5,-16 194.5,-16 194.5,-35"/>
<text text-anchor="middle" x="165" y="-23" font-family="Helvetica,sans-Serif" font-size="10.00">recovery</text>
</a>
</g>
</g>
<!-- dir_e21de55c57d54251524953d96b13ba6d -->
<g id="node5" class="node">
<title>dir_e21de55c57d54251524953d96b13ba6d</title>
<g id="a_node5"><a xlink:href="dir_e21de55c57d54251524953d96b13ba6d.html" target="_top" xlink:title="container">
<polygon fill="#a2b4d6" stroke="red" points="388,-145 326,-145 326,-126 388,-126 388,-145"/>
<text text-anchor="middle" x="357" y="-133" font-family="Helvetica,sans-Serif" font-size="10.00">container</text>
</a>
</g>
</g>
<!-- dir_e73942be4139c49ff686e607a1824de2 -->
<g id="node6" class="node">
<title>dir_e73942be4139c49ff686e607a1824de2</title>
<g id="a_node6"><a xlink:href="dir_e73942be4139c49ff686e607a1824de2.html" target="_top" xlink:title="common">
<polygon fill="#a2b4d6" stroke="red" points="437.5,-35 378.5,-35 378.5,-16 437.5,-16 437.5,-35"/>
<text text-anchor="middle" x="408" y="-23" font-family="Helvetica,sans-Serif" font-size="10.00">common</text>
</a>
</g>
</g>
<!-- dir_fe2aa8ace742259405f3fccf93b887e4 -->
<g id="node7" class="node">
<title>dir_fe2aa8ace742259405f3fccf93b887e4</title>
<g id="a_node7"><a xlink:href="dir_fe2aa8ace742259405f3fccf93b887e4.html" target="_top" xlink:title="concurrency">
<polygon fill="#a2b4d6" stroke="#404040" points="289,-35 213,-35 213,-16 289,-16 289,-35"/>
<text text-anchor="middle" x="251" y="-23" font-family="Helvetica,sans-Serif" font-size="10.00">concurrency</text>
</a>
</g>
</g>
<!-- dir_0a30ac4aed38d1936bbd6d702d96fbd8 -->
<g id="node8" class="node">
<title>dir_0a30ac4aed38d1936bbd6d702d96fbd8</title>
<text text-anchor="middle" x="283" y="-188" font-family="Helvetica,sans-Serif" font-size="10.00">storage</text>
</g>
<!-- dir_7dd98a27f787fef85ec9f0068acb088b -->
<g id="node9" class="node">
<title>dir_7dd98a27f787fef85ec9f0068acb088b</title>
<g id="a_node9"><a xlink:href="dir_7dd98a27f787fef85ec9f0068acb088b.html" target="_top" xlink:title="disk">
<polygon fill="#a2b4d6" stroke="#404040" points="238.5,-200 201.5,-200 201.5,-181 238.5,-181 238.5,-200"/>
<text text-anchor="middle" x="220" y="-188" font-family="Helvetica,sans-Serif" font-size="10.00">disk</text>
</a>
</g>
</g>
<!-- dir_7dd98a27f787fef85ec9f0068acb088b&#45;&gt;dir_e73942be4139c49ff686e607a1824de2 -->
<g id="edge1" class="edge">
<title>dir_7dd98a27f787fef85ec9f0068acb088b&#45;&gt;dir_e73942be4139c49ff686e607a1824de2</title>
<g id="a_edge1"><a xlink:href="dir_000014_000007.html" target="_top">
<path fill="none" stroke="#63b8ff" d="M238.62,-183.65C241.74,-182.72 244.96,-181.81 248,-181 317.61,-162.53 360.61,-200.92 406,-145 429.04,-116.61 421.06,-70.54 414.02,-45.01"/>
<polygon fill="#63b8ff" stroke="#63b8ff" points="417.29,-43.72 411.06,-35.15 410.58,-45.73 417.29,-43.72"/>
</a>
</g>
<g id="a_edge1&#45;headlabel"><a xlink:href="dir_000014_000007.html" target="_top" xlink:title="2">
<text text-anchor="middle" x="421.04" y="-43.85" font-family="Helvetica,sans-Serif" font-size="10.00" fill="#63b8ff">2</text>
</a>
</g>
</g>
<!-- dir_68b285a99db82172e89ff1958533507d -->
<g id="node10" class="node">
<title>dir_68b285a99db82172e89ff1958533507d</title>
<g id="a_node10"><a xlink:href="dir_68b285a99db82172e89ff1958533507d.html" target="_top" xlink:title="index">
<polygon fill="#a2b4d6" stroke="#404040" points="183,-200 139,-200 139,-181 183,-181 183,-200"/>
<text text-anchor="middle" x="161" y="-188" font-family="Helvetica,sans-Serif" font-size="10.00">index</text>
</a>
</g>
</g>
<!-- dir_68b285a99db82172e89ff1958533507d&#45;&gt;dir_56fb494bfda9b75d921f5a73f9bb6191 -->
<g id="edge3" class="edge">
<title>dir_68b285a99db82172e89ff1958533507d&#45;&gt;dir_56fb494bfda9b75d921f5a73f9bb6191</title>
<g id="a_edge3"><a xlink:href="dir_000026_000047.html" target="_top">
<path fill="none" stroke="#63b8ff" d="M154.23,-180.74C134.14,-154.76 74.68,-77.83 48.09,-43.44"/>
<polygon fill="#63b8ff" stroke="#63b8ff" points="50.69,-41.08 41.81,-35.31 45.15,-45.36 50.69,-41.08"/>
</a>
</g>
<g id="a_edge3&#45;headlabel"><a xlink:href="dir_000026_000047.html" target="_top" xlink:title="2">
<text text-anchor="middle" x="55.14" y="-39.69" font-family="Helvetica,sans-Serif" font-size="10.00" fill="#63b8ff">2</text>
</a>
</g>
</g>
<!-- dir_68b285a99db82172e89ff1958533507d&#45;&gt;dir_a8b1cd4a4819f17e891fed4be1bf613f -->
<g id="edge4" class="edge">
<title>dir_68b285a99db82172e89ff1958533507d&#45;&gt;dir_a8b1cd4a4819f17e891fed4be1bf613f</title>
<g id="a_edge4"><a xlink:href="dir_000026_000005.html" target="_top">
<path fill="none" stroke="#63b8ff" d="M183.29,-183.12C186.21,-182.36 189.17,-181.64 192,-181 237.13,-170.87 367.26,-180.42 397,-145 424.43,-112.34 380.41,-65.79 353.11,-41.92"/>
<polygon fill="#63b8ff" stroke="#63b8ff" points="355.16,-39.07 345.27,-35.28 350.64,-44.42 355.16,-39.07"/>
</a>
</g>
<g id="a_edge4&#45;headlabel"><a xlink:href="dir_000026_000005.html" target="_top" xlink:title="1">
<text text-anchor="middle" x="359.74" y="-36.73" font-family="Helvetica,sans-Serif" font-size="10.00" fill="#63b8ff">1</text>
</a>
</g>
</g>
<!-- dir_68b285a99db82172e89ff1958533507d&#45;&gt;dir_e21de55c57d54251524953d96b13ba6d -->
<g id="edge6" class="edge">
<title>dir_68b285a99db82172e89ff1958533507d&#45;&gt;dir_e21de55c57d54251524953d96b13ba6d</title>
<g id="a_edge6"><a xlink:href="dir_000026_000011.html" target="_top">
<path fill="none" stroke="#63b8ff" d="M183.01,-183.45C186.03,-182.63 189.09,-181.79 192,-181 234.29,-169.5 282.71,-156.45 316.11,-147.48"/>
<polygon fill="#63b8ff" stroke="#63b8ff" points="317.22,-150.8 325.97,-144.83 315.4,-144.04 317.22,-150.8"/>
</a>
</g>
<g id="a_edge6&#45;headlabel"><a xlink:href="dir_000026_000011.html" target="_top" xlink:title="6">
<text text-anchor="middle" x="314.49" y="-151.98" font-family="Helvetica,sans-Serif" font-size="10.00" fill="#63b8ff">6</text>
</a>
</g>
</g>
<!-- dir_68b285a99db82172e89ff1958533507d&#45;&gt;dir_e73942be4139c49ff686e607a1824de2 -->
<g id="edge7" class="edge">
<title>dir_68b285a99db82172e89ff1958533507d&#45;&gt;dir_e73942be4139c49ff686e607a1824de2</title>
<g id="a_edge7"><a xlink:href="dir_000026_000007.html" target="_top">
<path fill="none" stroke="#63b8ff" d="M173.93,-180.97C214.02,-154.51 336.5,-73.68 386.45,-40.72"/>
<polygon fill="#63b8ff" stroke="#63b8ff" points="388.48,-43.58 394.9,-35.15 384.62,-37.73 388.48,-43.58"/>
</a>
</g>
<g id="a_edge7&#45;headlabel"><a xlink:href="dir_000026_000007.html" target="_top" xlink:title="3">
<text text-anchor="middle" x="387.04" y="-45.43" font-family="Helvetica,sans-Serif" font-size="10.00" fill="#63b8ff">3</text>
</a>
</g>
</g>
<!-- dir_68b285a99db82172e89ff1958533507d&#45;&gt;dir_fe2aa8ace742259405f3fccf93b887e4 -->
<g id="edge8" class="edge">
<title>dir_68b285a99db82172e89ff1958533507d&#45;&gt;dir_fe2aa8ace742259405f3fccf93b887e4</title>
<g id="a_edge8"><a xlink:href="dir_000026_000009.html" target="_top">
<path fill="none" stroke="#63b8ff" d="M169.21,-180.97C184.42,-164.69 216.97,-127.44 234,-90 240.58,-75.54 245.03,-58.03 247.72,-45.06"/>
<polygon fill="#63b8ff" stroke="#63b8ff" points="251.2,-45.5 249.64,-35.02 244.32,-44.19 251.2,-45.5"/>
</a>
</g>
<g id="a_edge8&#45;headlabel"><a xlink:href="dir_000026_000009.html" target="_top" xlink:title="1">
<text text-anchor="middle" x="253.31" y="-47.07" font-family="Helvetica,sans-Serif" font-size="10.00" fill="#63b8ff">1</text>
</a>
</g>
</g>
<!-- dir_aa62e7e4f393bdf63f8ca74ad42976cf -->
<g id="node11" class="node">
<title>dir_aa62e7e4f393bdf63f8ca74ad42976cf</title>
<g id="a_node11"><a xlink:href="dir_aa62e7e4f393bdf63f8ca74ad42976cf.html" target="_top" xlink:title="page">
<polygon fill="#a2b4d6" stroke="#404040" points="181.5,-145 140.5,-145 140.5,-126 181.5,-126 181.5,-145"/>
<text text-anchor="middle" x="161" y="-133" font-family="Helvetica,sans-Serif" font-size="10.00">page</text>
</a>
</g>
</g>
<!-- dir_68b285a99db82172e89ff1958533507d&#45;&gt;dir_aa62e7e4f393bdf63f8ca74ad42976cf -->
<g id="edge5" class="edge">
<title>dir_68b285a99db82172e89ff1958533507d&#45;&gt;dir_aa62e7e4f393bdf63f8ca74ad42976cf</title>
<g id="a_edge5"><a xlink:href="dir_000026_000030.html" target="_top">
<path fill="none" stroke="#63b8ff" d="M155.83,-180.75C154.34,-173.8 153.9,-163.85 154.52,-155.13"/>
<polygon fill="#63b8ff" stroke="#63b8ff" points="158.01,-155.47 155.87,-145.09 151.07,-154.53 158.01,-155.47"/>
</a>
</g>
<g id="a_edge5&#45;headlabel"><a xlink:href="dir_000026_000030.html" target="_top" xlink:title="5">
<text text-anchor="middle" x="160.34" y="-156.91" font-family="Helvetica,sans-Serif" font-size="10.00" fill="#63b8ff">5</text>
</a>
</g>
</g>
<!-- dir_2690c8181e8c10fd9089f1e4ccd3bfb8 -->
<g id="node12" class="node">
<title>dir_2690c8181e8c10fd9089f1e4ccd3bfb8</title>
<g id="a_node12"><a xlink:href="dir_2690c8181e8c10fd9089f1e4ccd3bfb8.html" target="_top" xlink:title="table">
<polygon fill="#a2b4d6" stroke="#404040" points="211.5,-90 170.5,-90 170.5,-71 211.5,-71 211.5,-90"/>
<text text-anchor="middle" x="191" y="-78" font-family="Helvetica,sans-Serif" font-size="10.00">table</text>
</a>
</g>
</g>
<!-- dir_68b285a99db82172e89ff1958533507d&#45;&gt;dir_2690c8181e8c10fd9089f1e4ccd3bfb8 -->
<g id="edge2" class="edge">
<title>dir_68b285a99db82172e89ff1958533507d&#45;&gt;dir_2690c8181e8c10fd9089f1e4ccd3bfb8</title>
<g id="a_edge2"><a xlink:href="dir_000026_000044.html" target="_top">
<path fill="none" stroke="#63b8ff" d="M168.89,-180.73C175.95,-172.27 185.79,-158.76 190,-145 194.44,-130.48 194.39,-113.22 193.4,-100.35"/>
<polygon fill="#63b8ff" stroke="#63b8ff" points="196.88,-99.96 192.38,-90.37 189.91,-100.67 196.88,-99.96"/>
</a>
</g>
<g id="a_edge2&#45;headlabel"><a xlink:href="dir_000026_000044.html" target="_top" xlink:title="2">
<text text-anchor="middle" x="200.07" y="-100.74" font-family="Helvetica,sans-Serif" font-size="10.00" fill="#63b8ff">2</text>
</a>
</g>
</g>
<!-- dir_aa62e7e4f393bdf63f8ca74ad42976cf&#45;&gt;dir_a0a7e3c511eabaea002d5842901bfffc -->
<g id="edge11" class="edge">
<title>dir_aa62e7e4f393bdf63f8ca74ad42976cf&#45;&gt;dir_a0a7e3c511eabaea002d5842901bfffc</title>
<g id="a_edge11"><a xlink:href="dir_000030_000003.html" target="_top">
<path fill="none" stroke="#63b8ff" d="M155.6,-125.66C144.67,-107.77 119.75,-67 105.51,-43.69"/>
<polygon fill="#63b8ff" stroke="#63b8ff" points="108.49,-41.87 100.29,-35.16 102.52,-45.52 108.49,-41.87"/>
</a>
</g>
<g id="a_edge11&#45;headlabel"><a xlink:href="dir_000030_000003.html" target="_top" xlink:title="1">
<text text-anchor="middle" x="112.79" y="-40.95" font-family="Helvetica,sans-Serif" font-size="10.00" fill="#63b8ff">1</text>
</a>
</g>
</g>
<!-- dir_aa62e7e4f393bdf63f8ca74ad42976cf&#45;&gt;dir_babafc9c8e7694ca3856a36d011a673d -->
<g id="edge12" class="edge">
<title>dir_aa62e7e4f393bdf63f8ca74ad42976cf&#45;&gt;dir_babafc9c8e7694ca3856a36d011a673d</title>
<g id="a_edge12"><a xlink:href="dir_000030_000037.html" target="_top">
<path fill="none" stroke="#63b8ff" d="M160.69,-125.69C160.29,-112.18 159.77,-85.56 161,-63 161.32,-57.18 161.92,-50.87 162.56,-45.15"/>
<polygon fill="#63b8ff" stroke="#63b8ff" points="166.04,-45.53 163.78,-35.18 159.09,-44.68 166.04,-45.53"/>
</a>
</g>
<g id="a_edge12&#45;headlabel"><a xlink:href="dir_000030_000037.html" target="_top" xlink:title="1">
<text text-anchor="middle" x="168.42" y="-46.94" font-family="Helvetica,sans-Serif" font-size="10.00" fill="#63b8ff">1</text>
</a>
</g>
</g>
<!-- dir_aa62e7e4f393bdf63f8ca74ad42976cf&#45;&gt;dir_e73942be4139c49ff686e607a1824de2 -->
<g id="edge13" class="edge">
<title>dir_aa62e7e4f393bdf63f8ca74ad42976cf&#45;&gt;dir_e73942be4139c49ff686e607a1824de2</title>
<g id="a_edge13"><a xlink:href="dir_000030_000007.html" target="_top">
<path fill="none" stroke="#63b8ff" d="M174.46,-125.81C197.42,-111.28 245.95,-81.78 290,-63 315.43,-52.16 345.17,-42.98 368.44,-36.54"/>
<polygon fill="#63b8ff" stroke="#63b8ff" points="369.57,-39.86 378.3,-33.86 367.74,-33.1 369.57,-39.86"/>
</a>
</g>
<g id="a_edge13&#45;headlabel"><a xlink:href="dir_000030_000007.html" target="_top" xlink:title="12">
<text text-anchor="middle" x="366.84" y="-41.04" font-family="Helvetica,sans-Serif" font-size="10.00" fill="#63b8ff">12</text>
</a>
</g>
</g>
<!-- dir_aa62e7e4f393bdf63f8ca74ad42976cf&#45;&gt;dir_fe2aa8ace742259405f3fccf93b887e4 -->
<g id="edge14" class="edge">
<title>dir_aa62e7e4f393bdf63f8ca74ad42976cf&#45;&gt;dir_fe2aa8ace742259405f3fccf93b887e4</title>
<g id="a_edge14"><a xlink:href="dir_000030_000009.html" target="_top">
<path fill="none" stroke="#63b8ff" d="M176.16,-125.89C189.12,-117.91 207.6,-105.05 220,-90 231.21,-76.41 239.59,-58.08 244.8,-44.61"/>
<polygon fill="#63b8ff" stroke="#63b8ff" points="248.16,-45.63 248.29,-35.03 241.58,-43.23 248.16,-45.63"/>
</a>
</g>
<g id="a_edge14&#45;headlabel"><a xlink:href="dir_000030_000009.html" target="_top" xlink:title="1">
<text text-anchor="middle" x="249.59" y="-47.47" font-family="Helvetica,sans-Serif" font-size="10.00" fill="#63b8ff">1</text>
</a>
</g>
</g>
<!-- dir_aa62e7e4f393bdf63f8ca74ad42976cf&#45;&gt;dir_68b285a99db82172e89ff1958533507d -->
<g id="edge10" class="edge">
<title>dir_aa62e7e4f393bdf63f8ca74ad42976cf&#45;&gt;dir_68b285a99db82172e89ff1958533507d</title>
<g id="a_edge10"><a xlink:href="dir_000030_000026.html" target="_top">
<path fill="none" stroke="#63b8ff" d="M166.13,-145.09C167.64,-151.99 168.09,-161.93 167.49,-170.66"/>
<polygon fill="#63b8ff" stroke="#63b8ff" points="164,-170.38 166.17,-180.75 170.94,-171.29 164,-170.38"/>
</a>
</g>
<g id="a_edge10&#45;headlabel"><a xlink:href="dir_000030_000026.html" target="_top" xlink:title="7">
<text text-anchor="middle" x="161.65" y="-163.94" font-family="Helvetica,sans-Serif" font-size="10.00" fill="#63b8ff">7</text>
</a>
</g>
</g>
<!-- dir_aa62e7e4f393bdf63f8ca74ad42976cf&#45;&gt;dir_2690c8181e8c10fd9089f1e4ccd3bfb8 -->
<g id="edge9" class="edge">
<title>dir_aa62e7e4f393bdf63f8ca74ad42976cf&#45;&gt;dir_2690c8181e8c10fd9089f1e4ccd3bfb8</title>
<g id="a_edge9"><a xlink:href="dir_000030_000044.html" target="_top">
<path fill="none" stroke="#63b8ff" d="M160.79,-125.75C163.39,-118.34 169.13,-107.5 175.09,-98.41"/>
<polygon fill="#63b8ff" stroke="#63b8ff" points="178.06,-100.27 181.01,-90.09 172.36,-96.21 178.06,-100.27"/>
</a>
</g>
<g id="a_edge9&#45;headlabel"><a xlink:href="dir_000030_000044.html" target="_top" xlink:title="4">
<text text-anchor="middle" x="178.29" y="-102.34" font-family="Helvetica,sans-Serif" font-size="10.00" fill="#63b8ff">4</text>
</a>
</g>
</g>
<!-- dir_2690c8181e8c10fd9089f1e4ccd3bfb8&#45;&gt;dir_56fb494bfda9b75d921f5a73f9bb6191 -->
<g id="edge15" class="edge">
<title>dir_2690c8181e8c10fd9089f1e4ccd3bfb8&#45;&gt;dir_56fb494bfda9b75d921f5a73f9bb6191</title>
<g id="a_edge15"><a xlink:href="dir_000044_000047.html" target="_top">
<path fill="none" stroke="#63b8ff" d="M179.74,-70.97C175.59,-68.13 170.74,-65.14 166,-63 125.47,-44.69 110.48,-47.63 63.99,-35.14"/>
<polygon fill="#63b8ff" stroke="#63b8ff" points="64.83,-31.74 54.26,-32.43 62.95,-38.48 64.83,-31.74"/>
</a>
</g>
<g id="a_edge15&#45;headlabel"><a xlink:href="dir_000044_000047.html" target="_top" xlink:title="1">
<text text-anchor="middle" x="69.06" y="-27.47" font-family="Helvetica,sans-Serif" font-size="10.00" fill="#63b8ff">1</text>
</a>
</g>
</g>
<!-- dir_2690c8181e8c10fd9089f1e4ccd3bfb8&#45;&gt;dir_a0a7e3c511eabaea002d5842901bfffc -->
<g id="edge16" class="edge">
<title>dir_2690c8181e8c10fd9089f1e4ccd3bfb8&#45;&gt;dir_a0a7e3c511eabaea002d5842901bfffc</title>
<g id="a_edge16"><a xlink:href="dir_000044_000003.html" target="_top">
<path fill="none" stroke="#63b8ff" d="M178.45,-70.83C174.52,-68.23 170.13,-65.41 166,-63 151.85,-54.72 135.61,-46.3 122.25,-39.64"/>
<polygon fill="#63b8ff" stroke="#63b8ff" points="123.61,-36.41 113.09,-35.12 120.51,-42.68 123.61,-36.41"/>
</a>
</g>
<g id="a_edge16&#45;headlabel"><a xlink:href="dir_000044_000003.html" target="_top" xlink:title="1">
<text text-anchor="middle" x="128.08" y="-32.95" font-family="Helvetica,sans-Serif" font-size="10.00" fill="#63b8ff">1</text>
</a>
</g>
</g>
<!-- dir_2690c8181e8c10fd9089f1e4ccd3bfb8&#45;&gt;dir_a8b1cd4a4819f17e891fed4be1bf613f -->
<g id="edge17" class="edge">
<title>dir_2690c8181e8c10fd9089f1e4ccd3bfb8&#45;&gt;dir_a8b1cd4a4819f17e891fed4be1bf613f</title>
<g id="a_edge17"><a xlink:href="dir_000044_000005.html" target="_top">
<path fill="none" stroke="#63b8ff" d="M202.28,-70.69C206.16,-67.96 210.63,-65.11 215,-63 229.62,-55.94 268.09,-44.59 297.36,-36.42"/>
<polygon fill="#63b8ff" stroke="#63b8ff" points="298.57,-39.72 307.28,-33.68 296.71,-32.97 298.57,-39.72"/>
</a>
</g>
<g id="a_edge17&#45;headlabel"><a xlink:href="dir_000044_000005.html" target="_top" xlink:title="1">
<text text-anchor="middle" x="295.87" y="-40.91" font-family="Helvetica,sans-Serif" font-size="10.00" fill="#63b8ff">1</text>
</a>
</g>
</g>
<!-- dir_2690c8181e8c10fd9089f1e4ccd3bfb8&#45;&gt;dir_babafc9c8e7694ca3856a36d011a673d -->
<g id="edge19" class="edge">
<title>dir_2690c8181e8c10fd9089f1e4ccd3bfb8&#45;&gt;dir_babafc9c8e7694ca3856a36d011a673d</title>
<g id="a_edge19"><a xlink:href="dir_000044_000037.html" target="_top">
<path fill="none" stroke="#63b8ff" d="M186.71,-70.75C183.19,-63.57 178.09,-53.18 173.72,-44.27"/>
<polygon fill="#63b8ff" stroke="#63b8ff" points="176.76,-42.53 169.21,-35.09 170.48,-45.61 176.76,-42.53"/>
</a>
</g>
<g id="a_edge19&#45;headlabel"><a xlink:href="dir_000044_000037.html" target="_top" xlink:title="1">
<text text-anchor="middle" x="180.89" y="-42" font-family="Helvetica,sans-Serif" font-size="10.00" fill="#63b8ff">1</text>
</a>
</g>
</g>
<!-- dir_2690c8181e8c10fd9089f1e4ccd3bfb8&#45;&gt;dir_e73942be4139c49ff686e607a1824de2 -->
<g id="edge20" class="edge">
<title>dir_2690c8181e8c10fd9089f1e4ccd3bfb8&#45;&gt;dir_e73942be4139c49ff686e607a1824de2</title>
<g id="a_edge20"><a xlink:href="dir_000044_000007.html" target="_top">
<path fill="none" stroke="#63b8ff" d="M201.67,-70.73C205.64,-67.86 210.32,-64.92 215,-63 276.83,-37.55 299.35,-47.82 368.13,-35.23"/>
<polygon fill="#63b8ff" stroke="#63b8ff" points="369,-38.63 378.15,-33.3 367.67,-31.76 369,-38.63"/>
</a>
</g>
<g id="a_edge20&#45;headlabel"><a xlink:href="dir_000044_000007.html" target="_top" xlink:title="6">
<text text-anchor="middle" x="366.01" y="-39.6" font-family="Helvetica,sans-Serif" font-size="10.00" fill="#63b8ff">6</text>
</a>
</g>
</g>
<!-- dir_2690c8181e8c10fd9089f1e4ccd3bfb8&#45;&gt;dir_fe2aa8ace742259405f3fccf93b887e4 -->
<g id="edge21" class="edge">
<title>dir_2690c8181e8c10fd9089f1e4ccd3bfb8&#45;&gt;dir_fe2aa8ace742259405f3fccf93b887e4</title>
<g id="a_edge21"><a xlink:href="dir_000044_000009.html" target="_top">
<path fill="none" stroke="#63b8ff" d="M200.64,-70.98C209.51,-63.15 222.87,-51.34 233.61,-41.86"/>
<polygon fill="#63b8ff" stroke="#63b8ff" points="236.01,-44.41 241.18,-35.17 231.37,-39.17 236.01,-44.41"/>
</a>
</g>
<g id="a_edge21&#45;headlabel"><a xlink:href="dir_000044_000009.html" target="_top" xlink:title="3">
<text text-anchor="middle" x="235.19" y="-46.42" font-family="Helvetica,sans-Serif" font-size="10.00" fill="#63b8ff">3</text>
</a>
</g>
</g>
<!-- dir_2690c8181e8c10fd9089f1e4ccd3bfb8&#45;&gt;dir_aa62e7e4f393bdf63f8ca74ad42976cf -->
<g id="edge18" class="edge">
<title>dir_2690c8181e8c10fd9089f1e4ccd3bfb8&#45;&gt;dir_aa62e7e4f393bdf63f8ca74ad42976cf</title>
<g id="a_edge18"><a xlink:href="dir_000044_000030.html" target="_top">
<path fill="none" stroke="#63b8ff" d="M191.27,-90.09C188.71,-97.45 183,-108.27 177.04,-117.39"/>
<polygon fill="#63b8ff" stroke="#63b8ff" points="174.05,-115.57 171.12,-125.75 179.76,-119.61 174.05,-115.57"/>
</a>
</g>
<g id="a_edge18&#45;headlabel"><a xlink:href="dir_000044_000030.html" target="_top" xlink:title="2">
<text text-anchor="middle" x="173.81" y="-108.49" font-family="Helvetica,sans-Serif" font-size="10.00" fill="#63b8ff">2</text>
</a>
</g>
</g>
</g>
</svg>
</svg>

<style type='text/css'>
<![CDATA[
[data-mouse-over-selected='false'] { opacity: 0.7; }
[data-mouse-over-selected='true']  { opacity: 1.0; }
]]>
</style>
<script type="application/ecmascript"><![CDATA[
document.addEventListener('DOMContentLoaded', (event) => {
  highlightEdges();
  highlightAdjacentNodes();
});
]]></script>
</svg>
