<?xml version="1.0" encoding="UTF-8" standalone="no"?>
<!DOCTYPE svg PUBLIC "-//W3C//DTD SVG 1.1//EN"
 "http://www.w3.org/Graphics/SVG/1.1/DTD/svg11.dtd">
<!-- Generated by graphviz version 2.43.0 (0)
 -->
<!-- Title: src/include/storage/index Pages: 1 -->
<!--zoomable 133 -->

<svg id="main" version="1.1" xmlns="http://www.w3.org/2000/svg" xmlns:xlink="http://www.w3.org/1999/xlink" xml:space="preserve" onload="init(evt)">
<style type="text/css"><![CDATA[
.node, .edge {opacity: 0.7;}
.node.selected, .edge.selected {opacity: 1;}
.edge:hover path { stroke: red; }
.edge:hover polygon { stroke: red; fill: red; }
]]></style>

<defs>
  <circle id="rim" cx="0" cy="0" r="7"/>
  <circle id="rim2" cx="0" cy="0" r="3.5"/>
  <g id="zoomPlus">
    <use xlink:href="#rim" fill="#404040"><set attributeName="fill" to="#808080" begin="zoomplus.mouseover" end="zoomplus.mouseout"/></use>
    <path d="M-4,0h8M0,-4v8" fill="none" stroke="white" stroke-width="1.5" pointer-events="none"/>
  </g>
  <g id="zoomMin">
    <use xlink:href="#rim" fill="#404040"><set attributeName="fill" to="#808080" begin="zoomminus.mouseover" end="zoomminus.mouseout"/></use>
    <path d="M-4,0h8" fill="none" stroke="white" stroke-width="1.5" pointer-events="none"/>
  </g>
  <g id="arrowUp" transform="translate(30 24)">
    <use xlink:href="#rim"/>
    <path pointer-events="none" fill="none" stroke="white" stroke-width="1.5" d="M0,-3.0v7 M-2.5,-0.5L0,-3.0L2.5,-0.5"/>
  </g>
  <g id="arrowRight" transform="rotate(90) translate(36 -43)">
    <use xlink:href="#rim"/>
    <path pointer-events="none" fill="none" stroke="white" stroke-width="1.5" d="M0,-3.0v7 M-2.5,-0.5L0,-3.0L2.5,-0.5"/>
  </g>
  <g id="arrowDown" transform="rotate(180) translate(-30 -48)">
    <use xlink:href="#rim"/>
    <path pointer-events="none" fill="none" stroke="white" stroke-width="1.5" d="M0,-3.0v7 M-2.5,-0.5L0,-3.0L2.5,-0.5"/>
  </g>
  <g id="arrowLeft" transform="rotate(270) translate(-36 17)">
    <use xlink:href="#rim"/>
    <path pointer-events="none" fill="none" stroke="white" stroke-width="1.5" d="M0,-3.0v7 M-2.5,-0.5L0,-3.0L2.5,-0.5"/>
  </g>
  <g id="resetDef">
    <use xlink:href="#rim2" fill="#404040"><set attributeName="fill" to="#808080" begin="reset.mouseover" end="reset.mouseout"/></use>
  </g>
</defs>
<script type="application/ecmascript">
var viewWidth = 505;
var viewHeight = 133;
var sectionId = 'dynsection-0';
</script>
<script type="application/ecmascript" xlink:href="svg.min.js"/>
<svg id="graph" class="graph">
<g id="viewport">
<title>src/include/storage/index</title>
<g id="clust1" class="cluster">
<title>clusterdir_0a30ac4aed38d1936bbd6d702d96fbd8</title>
<g id="a_clust1"><a xlink:href="dir_0a30ac4aed38d1936bbd6d702d96fbd8.html" target="_top" xlink:title="storage">
<polygon fill="#edf0f7" stroke="#7f7f7f" stroke-dasharray="5,2" points="8,-8 8,-117 125,-117 125,-8 8,-8"/>
<text text-anchor="middle" x="66.5" y="-105" font-family="Helvetica,sans-Serif" font-size="10.00">storage</text>
</a>
</g>
</g>
<!-- dir_2690c8181e8c10fd9089f1e4ccd3bfb8 -->
<g id="node1" class="node">
<title>dir_2690c8181e8c10fd9089f1e4ccd3bfb8</title>
<g id="a_node1"><a xlink:href="dir_2690c8181e8c10fd9089f1e4ccd3bfb8.html" target="_top" xlink:title="table">
<polygon fill="#a2b4d6" stroke="#404040" points="57.5,-35 16.5,-35 16.5,-16 57.5,-16 57.5,-35"/>
<text text-anchor="middle" x="37" y="-23" font-family="Helvetica,sans-Serif" font-size="10.00">table</text>
</a>
</g>
</g>
<!-- dir_aa62e7e4f393bdf63f8ca74ad42976cf -->
<g id="node2" class="node">
<title>dir_aa62e7e4f393bdf63f8ca74ad42976cf</title>
<g id="a_node2"><a xlink:href="dir_aa62e7e4f393bdf63f8ca74ad42976cf.html" target="_top" xlink:title="page">
<polygon fill="#a2b4d6" stroke="#404040" points="116.5,-35 75.5,-35 75.5,-16 116.5,-16 116.5,-35"/>
<text text-anchor="middle" x="96" y="-23" font-family="Helvetica,sans-Serif" font-size="10.00">page</text>
</a>
</g>
</g>
<!-- dir_68b285a99db82172e89ff1958533507d -->
<g id="node3" class="node">
<title>dir_68b285a99db82172e89ff1958533507d</title>
<g id="a_node3"><a xlink:href="dir_68b285a99db82172e89ff1958533507d.html" target="_top" xlink:title="index">
<polygon fill="#edf0f7" stroke="#404040" stroke-width="2" points="117,-90 73,-90 73,-71 117,-71 117,-90"/>
<text text-anchor="middle" x="95" y="-78" font-family="Helvetica,sans-Serif" font-size="10.00">index</text>
</a>
</g>
</g>
<!-- dir_68b285a99db82172e89ff1958533507d&#45;&gt;dir_2690c8181e8c10fd9089f1e4ccd3bfb8 -->
<g id="edge1" class="edge">
<title>dir_68b285a99db82172e89ff1958533507d&#45;&gt;dir_2690c8181e8c10fd9089f1e4ccd3bfb8</title>
<g id="a_edge1"><a xlink:href="dir_000026_000044.html" target="_top">
<path fill="none" stroke="#63b8ff" d="M85.68,-70.98C77.19,-63.23 64.44,-51.58 54.12,-42.14"/>
<polygon fill="#63b8ff" stroke="#63b8ff" points="56.23,-39.33 46.49,-35.17 51.51,-44.5 56.23,-39.33"/>
</a>
</g>
<g id="a_edge1&#45;headlabel"><a xlink:href="dir_000026_000044.html" target="_top" xlink:title="2">
<text text-anchor="middle" x="60.8" y="-37.16" font-family="Helvetica,sans-Serif" font-size="10.00" fill="#63b8ff">2</text>
</a>
</g>
</g>
<!-- dir_68b285a99db82172e89ff1958533507d&#45;&gt;dir_aa62e7e4f393bdf63f8ca74ad42976cf -->
<g id="edge4" class="edge">
<title>dir_68b285a99db82172e89ff1958533507d&#45;&gt;dir_aa62e7e4f393bdf63f8ca74ad42976cf</title>
<g id="a_edge4"><a xlink:href="dir_000026_000030.html" target="_top">
<path fill="none" stroke="#63b8ff" d="M95.17,-70.75C95.3,-63.8 95.48,-53.85 95.65,-45.13"/>
<polygon fill="#63b8ff" stroke="#63b8ff" points="99.15,-45.15 95.84,-35.09 92.15,-45.02 99.15,-45.15"/>
</a>
</g>
<g id="a_edge4&#45;headlabel"><a xlink:href="dir_000026_000030.html" target="_top" xlink:title="5">
<text text-anchor="middle" x="101.92" y="-46.3" font-family="Helvetica,sans-Serif" font-size="10.00" fill="#63b8ff">5</text>
</a>
</g>
</g>
<!-- dir_56fb494bfda9b75d921f5a73f9bb6191 -->
<g id="node4" class="node">
<title>dir_56fb494bfda9b75d921f5a73f9bb6191</title>
<g id="a_node4"><a xlink:href="dir_56fb494bfda9b75d921f5a73f9bb6191.html" target="_top" xlink:title="type">
<polygon fill="#edf0f7" stroke="#7f7f7f" points="173,-35 135,-35 135,-16 173,-16 173,-35"/>
<text text-anchor="middle" x="154" y="-23" font-family="Helvetica,sans-Serif" font-size="10.00">type</text>
</a>
</g>
</g>
<!-- dir_68b285a99db82172e89ff1958533507d&#45;&gt;dir_56fb494bfda9b75d921f5a73f9bb6191 -->
<g id="edge2" class="edge">
<title>dir_68b285a99db82172e89ff1958533507d&#45;&gt;dir_56fb494bfda9b75d921f5a73f9bb6191</title>
<g id="a_edge2"><a xlink:href="dir_000026_000047.html" target="_top">
<path fill="none" stroke="#63b8ff" d="M104.48,-70.98C113.2,-63.15 126.34,-51.34 136.9,-41.86"/>
<polygon fill="#63b8ff" stroke="#63b8ff" points="139.25,-44.46 144.35,-35.17 134.57,-39.25 139.25,-44.46"/>
</a>
</g>
<g id="a_edge2&#45;headlabel"><a xlink:href="dir_000026_000047.html" target="_top" xlink:title="2">
<text text-anchor="middle" x="138.47" y="-46.47" font-family="Helvetica,sans-Serif" font-size="10.00" fill="#63b8ff">2</text>
</a>
</g>
</g>
<!-- dir_a8b1cd4a4819f17e891fed4be1bf613f -->
<g id="node5" class="node">
<title>dir_a8b1cd4a4819f17e891fed4be1bf613f</title>
<g id="a_node5"><a xlink:href="dir_a8b1cd4a4819f17e891fed4be1bf613f.html" target="_top" xlink:title="catalog">
<polygon fill="#edf0f7" stroke="#7f7f7f" points="244.5,-35 191.5,-35 191.5,-16 244.5,-16 244.5,-35"/>
<text text-anchor="middle" x="218" y="-23" font-family="Helvetica,sans-Serif" font-size="10.00">catalog</text>
</a>
</g>
</g>
<!-- dir_68b285a99db82172e89ff1958533507d&#45;&gt;dir_a8b1cd4a4819f17e891fed4be1bf613f -->
<g id="edge3" class="edge">
<title>dir_68b285a99db82172e89ff1958533507d&#45;&gt;dir_a8b1cd4a4819f17e891fed4be1bf613f</title>
<g id="a_edge3"><a xlink:href="dir_000026_000005.html" target="_top">
<path fill="none" stroke="#63b8ff" d="M114.76,-70.98C134.73,-62.38 165.8,-48.99 188.65,-39.15"/>
<polygon fill="#63b8ff" stroke="#63b8ff" points="190.08,-42.34 197.88,-35.17 187.31,-35.91 190.08,-42.34"/>
</a>
</g>
<g id="a_edge3&#45;headlabel"><a xlink:href="dir_000026_000005.html" target="_top" xlink:title="1">
<text text-anchor="middle" x="187.9" y="-43.87" font-family="Helvetica,sans-Serif" font-size="10.00" fill="#63b8ff">1</text>
</a>
</g>
</g>
<!-- dir_e21de55c57d54251524953d96b13ba6d -->
<g id="node6" class="node">
<title>dir_e21de55c57d54251524953d96b13ba6d</title>
<g id="a_node6"><a xlink:href="dir_e21de55c57d54251524953d96b13ba6d.html" target="_top" xlink:title="container">
<polygon fill="#edf0f7" stroke="red" stroke-dasharray="5,2" points="325,-35 263,-35 263,-16 325,-16 325,-35"/>
<text text-anchor="middle" x="294" y="-23" font-family="Helvetica,sans-Serif" font-size="10.00">container</text>
</a>
</g>
</g>
<!-- dir_68b285a99db82172e89ff1958533507d&#45;&gt;dir_e21de55c57d54251524953d96b13ba6d -->
<g id="edge5" class="edge">
<title>dir_68b285a99db82172e89ff1958533507d&#45;&gt;dir_e21de55c57d54251524953d96b13ba6d</title>
<g id="a_edge5"><a xlink:href="dir_000026_000011.html" target="_top">
<path fill="none" stroke="#63b8ff" d="M117.06,-73.63C149.78,-64.91 211.74,-48.41 252.96,-37.43"/>
<polygon fill="#63b8ff" stroke="#63b8ff" points="253.94,-40.79 262.7,-34.83 252.14,-34.03 253.94,-40.79"/>
</a>
</g>
<g id="a_edge5&#45;headlabel"><a xlink:href="dir_000026_000011.html" target="_top" xlink:title="6">
<text text-anchor="middle" x="251.2" y="-41.96" font-family="Helvetica,sans-Serif" font-size="10.00" fill="#63b8ff">6</text>
</a>
</g>
</g>
<!-- dir_e73942be4139c49ff686e607a1824de2 -->
<g id="node7" class="node">
<title>dir_e73942be4139c49ff686e607a1824de2</title>
<g id="a_node7"><a xlink:href="dir_e73942be4139c49ff686e607a1824de2.html" target="_top" xlink:title="common">
<polygon fill="#edf0f7" stroke="red" stroke-dasharray="5,2" points="402.5,-35 343.5,-35 343.5,-16 402.5,-16 402.5,-35"/>
<text text-anchor="middle" x="373" y="-23" font-family="Helvetica,sans-Serif" font-size="10.00">common</text>
</a>
</g>
</g>
<!-- dir_68b285a99db82172e89ff1958533507d&#45;&gt;dir_e73942be4139c49ff686e607a1824de2 -->
<g id="edge6" class="edge">
<title>dir_68b285a99db82172e89ff1958533507d&#45;&gt;dir_e73942be4139c49ff686e607a1824de2</title>
<g id="a_edge6"><a xlink:href="dir_000026_000007.html" target="_top">
<path fill="none" stroke="#63b8ff" d="M117.12,-75.61C157.79,-68.42 247.38,-52.34 333.3,-35.09"/>
<polygon fill="#63b8ff" stroke="#63b8ff" points="334.1,-38.5 343.21,-33.09 332.71,-31.64 334.1,-38.5"/>
</a>
</g>
<g id="a_edge6&#45;headlabel"><a xlink:href="dir_000026_000007.html" target="_top" xlink:title="3">
<text text-anchor="middle" x="331.14" y="-39.49" font-family="Helvetica,sans-Serif" font-size="10.00" fill="#63b8ff">3</text>
</a>
</g>
</g>
<!-- dir_fe2aa8ace742259405f3fccf93b887e4 -->
<g id="node8" class="node">
<title>dir_fe2aa8ace742259405f3fccf93b887e4</title>
<g id="a_node8"><a xlink:href="dir_fe2aa8ace742259405f3fccf93b887e4.html" target="_top" xlink:title="concurrency">
<polygon fill="#edf0f7" stroke="#7f7f7f" points="497,-35 421,-35 421,-16 497,-16 497,-35"/>
<text text-anchor="middle" x="459" y="-23" font-family="Helvetica,sans-Serif" font-size="10.00">concurrency</text>
</a>
</g>
</g>
<!-- dir_68b285a99db82172e89ff1958533507d&#45;&gt;dir_fe2aa8ace742259405f3fccf93b887e4 -->
<g id="edge7" class="edge">
<title>dir_68b285a99db82172e89ff1958533507d&#45;&gt;dir_fe2aa8ace742259405f3fccf93b887e4</title>
<g id="a_edge7"><a xlink:href="dir_000026_000009.html" target="_top">
<path fill="none" stroke="#63b8ff" d="M117.34,-76.67C167.72,-70.23 294.27,-53.68 410.65,-35.16"/>
<polygon fill="#63b8ff" stroke="#63b8ff" points="411.48,-38.57 420.8,-33.54 410.37,-31.66 411.48,-38.57"/>
</a>
</g>
<g id="a_edge7&#45;headlabel"><a xlink:href="dir_000026_000009.html" target="_top" xlink:title="1">
<text text-anchor="middle" x="408.38" y="-39.45" font-family="Helvetica,sans-Serif" font-size="10.00" fill="#63b8ff">1</text>
</a>
</g>
</g>
</g>
</svg>

<g id="navigator" transform="translate(0 0)" fill="#404254">
  <rect fill="#f2f5e9" fill-opacity="0.5" stroke="#606060" stroke-width=".5" x="0" y="0" width="60" height="60"/>
  <use id="zoomplus" xlink:href="#zoomPlus" x="17" y="9" onmousedown="handleZoom(evt,'in')"/>
  <use id="zoomminus" xlink:href="#zoomMin" x="42" y="9" onmousedown="handleZoom(evt,'out')"/>
  <use id="reset" xlink:href="#resetDef" x="30" y="36" onmousedown="handleReset()"/>
   <use id="arrowup" xlink:href="#arrowUp" x="0" y="0" onmousedown="handlePan(0,-1)"/>
  <use id="arrowright" xlink:href="#arrowRight" x="0" y="0" onmousedown="handlePan(1,0)"/>
  <use id="arrowdown" xlink:href="#arrowDown" x="0" y="0" onmousedown="handlePan(0,1)"/>
  <use id="arrowleft" xlink:href="#arrowLeft" x="0" y="0" onmousedown="handlePan(-1,0)"/>
</g>
<svg viewBox="0 0 15 15" width="100%" height="30px" preserveAspectRatio="xMaxYMin meet">
 <g id="arrow_out" transform="scale(0.3 0.3)">
  <a xlink:href="dir_68b285a99db82172e89ff1958533507d_dep_org.svg" target="_base">
   <rect id="button" ry="5" rx="5" y="6" x="6" height="38" width="38"
        fill="#f2f5e9" fill-opacity="0.5" stroke="#606060" stroke-width="1.0"/>
   <path id="arrow"
     d="M 11.500037,31.436501 C 11.940474,20.09759 22.043105,11.32322 32.158766,21.979434 L 37.068811,17.246167 C 37.068811,17.246167 37.088388,32 37.088388,32 L 22.160133,31.978069 C 22.160133,31.978069 26.997745,27.140456 26.997745,27.140456 C 18.528582,18.264221 13.291696,25.230495 11.500037,31.436501 z"
     style="fill:#404040;"/>
  </a>
 </g>
</svg>

<style type='text/css'>
<![CDATA[
[data-mouse-over-selected='false'] { opacity: 0.7; }
[data-mouse-over-selected='true']  { opacity: 1.0; }
]]>
</style>
<script type="application/ecmascript"><![CDATA[
document.addEventListener('DOMContentLoaded', (event) => {
  highlightEdges();
  highlightAdjacentNodes();
});
]]></script>
</svg>
