<?xml version="1.0" encoding="UTF-8" standalone="no"?>
<!DOCTYPE svg PUBLIC "-//W3C//DTD SVG 1.1//EN"
 "http://www.w3.org/Graphics/SVG/1.1/DTD/svg11.dtd">
<!-- Generated by graphviz version 2.43.0 (0)
 -->
<!-- Title: src/include/execution/executors Pages: 1 -->
<!--zoomable 133 -->

<svg id="main" version="1.1" xmlns="http://www.w3.org/2000/svg" xmlns:xlink="http://www.w3.org/1999/xlink" xml:space="preserve" onload="init(evt)">
<style type="text/css"><![CDATA[
.node, .edge {opacity: 0.7;}
.node.selected, .edge.selected {opacity: 1;}
.edge:hover path { stroke: red; }
.edge:hover polygon { stroke: red; fill: red; }
]]></style>

<defs>
  <circle id="rim" cx="0" cy="0" r="7"/>
  <circle id="rim2" cx="0" cy="0" r="3.5"/>
  <g id="zoomPlus">
    <use xlink:href="#rim" fill="#404040"><set attributeName="fill" to="#808080" begin="zoomplus.mouseover" end="zoomplus.mouseout"/></use>
    <path d="M-4,0h8M0,-4v8" fill="none" stroke="white" stroke-width="1.5" pointer-events="none"/>
  </g>
  <g id="zoomMin">
    <use xlink:href="#rim" fill="#404040"><set attributeName="fill" to="#808080" begin="zoomminus.mouseover" end="zoomminus.mouseout"/></use>
    <path d="M-4,0h8" fill="none" stroke="white" stroke-width="1.5" pointer-events="none"/>
  </g>
  <g id="arrowUp" transform="translate(30 24)">
    <use xlink:href="#rim"/>
    <path pointer-events="none" fill="none" stroke="white" stroke-width="1.5" d="M0,-3.0v7 M-2.5,-0.5L0,-3.0L2.5,-0.5"/>
  </g>
  <g id="arrowRight" transform="rotate(90) translate(36 -43)">
    <use xlink:href="#rim"/>
    <path pointer-events="none" fill="none" stroke="white" stroke-width="1.5" d="M0,-3.0v7 M-2.5,-0.5L0,-3.0L2.5,-0.5"/>
  </g>
  <g id="arrowDown" transform="rotate(180) translate(-30 -48)">
    <use xlink:href="#rim"/>
    <path pointer-events="none" fill="none" stroke="white" stroke-width="1.5" d="M0,-3.0v7 M-2.5,-0.5L0,-3.0L2.5,-0.5"/>
  </g>
  <g id="arrowLeft" transform="rotate(270) translate(-36 17)">
    <use xlink:href="#rim"/>
    <path pointer-events="none" fill="none" stroke="white" stroke-width="1.5" d="M0,-3.0v7 M-2.5,-0.5L0,-3.0L2.5,-0.5"/>
  </g>
  <g id="resetDef">
    <use xlink:href="#rim2" fill="#404040"><set attributeName="fill" to="#808080" begin="reset.mouseover" end="reset.mouseout"/></use>
  </g>
</defs>
<script type="application/ecmascript">
var viewWidth = 517;
var viewHeight = 133;
var sectionId = 'dynsection-0';
</script>
<script type="application/ecmascript" xlink:href="svg.min.js"/>
<svg id="graph" class="graph">
<g id="viewport">
<title>src/include/execution/executors</title>
<g id="clust1" class="cluster">
<title>clusterdir_b06aa2129a2c7a1df27e7eac52e5ce56</title>
<g id="a_clust1"><a xlink:href="dir_b06aa2129a2c7a1df27e7eac52e5ce56.html" target="_top" xlink:title="execution">
<polygon fill="#edf0f7" stroke="#7f7f7f" stroke-dasharray="5,2" points="8,-8 8,-117 160,-117 160,-8 8,-8"/>
<text text-anchor="middle" x="84" y="-105" font-family="Helvetica,sans-Serif" font-size="10.00">execution</text>
</a>
</g>
</g>
<!-- dir_1150d82792479214dd6dff56bb94adfc -->
<g id="node1" class="node">
<title>dir_1150d82792479214dd6dff56bb94adfc</title>
<g id="a_node1"><a xlink:href="dir_1150d82792479214dd6dff56bb94adfc.html" target="_top" xlink:title="expressions">
<polygon fill="#a2b4d6" stroke="#404040" points="90.5,-35 15.5,-35 15.5,-16 90.5,-16 90.5,-35"/>
<text text-anchor="middle" x="53" y="-23" font-family="Helvetica,sans-Serif" font-size="10.00">expressions</text>
</a>
</g>
</g>
<!-- dir_63705f3595bc98d4b211a7e671416fe4 -->
<g id="node2" class="node">
<title>dir_63705f3595bc98d4b211a7e671416fe4</title>
<g id="a_node2"><a xlink:href="dir_63705f3595bc98d4b211a7e671416fe4.html" target="_top" xlink:title="plans">
<polygon fill="#a2b4d6" stroke="#404040" points="151.5,-35 108.5,-35 108.5,-16 151.5,-16 151.5,-35"/>
<text text-anchor="middle" x="130" y="-23" font-family="Helvetica,sans-Serif" font-size="10.00">plans</text>
</a>
</g>
</g>
<!-- dir_29c8d6ae5ae0c042f288130303fd61db -->
<g id="node3" class="node">
<title>dir_29c8d6ae5ae0c042f288130303fd61db</title>
<g id="a_node3"><a xlink:href="dir_29c8d6ae5ae0c042f288130303fd61db.html" target="_top" xlink:title="executors">
<polygon fill="#edf0f7" stroke="#404040" stroke-width="2" points="152,-90 88,-90 88,-71 152,-71 152,-90"/>
<text text-anchor="middle" x="120" y="-78" font-family="Helvetica,sans-Serif" font-size="10.00">executors</text>
</a>
</g>
</g>
<!-- dir_29c8d6ae5ae0c042f288130303fd61db&#45;&gt;dir_1150d82792479214dd6dff56bb94adfc -->
<g id="edge2" class="edge">
<title>dir_29c8d6ae5ae0c042f288130303fd61db&#45;&gt;dir_1150d82792479214dd6dff56bb94adfc</title>
<g id="a_edge2"><a xlink:href="dir_000019_000021.html" target="_top">
<path fill="none" stroke="#63b8ff" d="M109.24,-70.98C99.23,-63.07 84.11,-51.11 72.07,-41.58"/>
<polygon fill="#63b8ff" stroke="#63b8ff" points="73.97,-38.63 63.96,-35.17 69.63,-44.12 73.97,-38.63"/>
</a>
</g>
<g id="a_edge2&#45;headlabel"><a xlink:href="dir_000019_000021.html" target="_top" xlink:title="2">
<text text-anchor="middle" x="78.56" y="-36.13" font-family="Helvetica,sans-Serif" font-size="10.00" fill="#63b8ff">2</text>
</a>
</g>
</g>
<!-- dir_29c8d6ae5ae0c042f288130303fd61db&#45;&gt;dir_63705f3595bc98d4b211a7e671416fe4 -->
<g id="edge4" class="edge">
<title>dir_29c8d6ae5ae0c042f288130303fd61db&#45;&gt;dir_63705f3595bc98d4b211a7e671416fe4</title>
<g id="a_edge4"><a xlink:href="dir_000019_000034.html" target="_top">
<path fill="none" stroke="#63b8ff" d="M121.65,-70.75C122.96,-63.8 124.84,-53.85 126.48,-45.13"/>
<polygon fill="#63b8ff" stroke="#63b8ff" points="129.96,-45.56 128.38,-35.09 123.09,-44.27 129.96,-45.56"/>
</a>
</g>
<g id="a_edge4&#45;headlabel"><a xlink:href="dir_000019_000034.html" target="_top" xlink:title="26">
<text text-anchor="middle" x="132.09" y="-47.12" font-family="Helvetica,sans-Serif" font-size="10.00" fill="#63b8ff">26</text>
</a>
</g>
</g>
<!-- dir_0a30ac4aed38d1936bbd6d702d96fbd8 -->
<g id="node4" class="node">
<title>dir_0a30ac4aed38d1936bbd6d702d96fbd8</title>
<g id="a_node4"><a xlink:href="dir_0a30ac4aed38d1936bbd6d702d96fbd8.html" target="_top" xlink:title="storage">
<polygon fill="#edf0f7" stroke="red" stroke-dasharray="5,2" points="222.5,-35 169.5,-35 169.5,-16 222.5,-16 222.5,-35"/>
<text text-anchor="middle" x="196" y="-23" font-family="Helvetica,sans-Serif" font-size="10.00">storage</text>
</a>
</g>
</g>
<!-- dir_29c8d6ae5ae0c042f288130303fd61db&#45;&gt;dir_0a30ac4aed38d1936bbd6d702d96fbd8 -->
<g id="edge1" class="edge">
<title>dir_29c8d6ae5ae0c042f288130303fd61db&#45;&gt;dir_0a30ac4aed38d1936bbd6d702d96fbd8</title>
<g id="a_edge1"><a xlink:href="dir_000019_000042.html" target="_top">
<path fill="none" stroke="#63b8ff" d="M132.21,-70.98C143.78,-62.92 161.38,-50.65 175.16,-41.03"/>
<polygon fill="#63b8ff" stroke="#63b8ff" points="177.37,-43.76 183.57,-35.17 173.36,-38.02 177.37,-43.76"/>
</a>
</g>
<g id="a_edge1&#45;headlabel"><a xlink:href="dir_000019_000042.html" target="_top" xlink:title="20">
<text text-anchor="middle" x="176.04" y="-45.65" font-family="Helvetica,sans-Serif" font-size="10.00" fill="#63b8ff">20</text>
</a>
</g>
</g>
<!-- dir_56fb494bfda9b75d921f5a73f9bb6191 -->
<g id="node5" class="node">
<title>dir_56fb494bfda9b75d921f5a73f9bb6191</title>
<g id="a_node5"><a xlink:href="dir_56fb494bfda9b75d921f5a73f9bb6191.html" target="_top" xlink:title="type">
<polygon fill="#edf0f7" stroke="#7f7f7f" points="279,-35 241,-35 241,-16 279,-16 279,-35"/>
<text text-anchor="middle" x="260" y="-23" font-family="Helvetica,sans-Serif" font-size="10.00">type</text>
</a>
</g>
</g>
<!-- dir_29c8d6ae5ae0c042f288130303fd61db&#45;&gt;dir_56fb494bfda9b75d921f5a73f9bb6191 -->
<g id="edge3" class="edge">
<title>dir_29c8d6ae5ae0c042f288130303fd61db&#45;&gt;dir_56fb494bfda9b75d921f5a73f9bb6191</title>
<g id="a_edge3"><a xlink:href="dir_000019_000047.html" target="_top">
<path fill="none" stroke="#63b8ff" d="M142.49,-70.98C166.62,-61.85 205,-47.32 231.29,-37.37"/>
<polygon fill="#63b8ff" stroke="#63b8ff" points="232.6,-40.61 240.72,-33.8 230.13,-34.07 232.6,-40.61"/>
</a>
</g>
<g id="a_edge3&#45;headlabel"><a xlink:href="dir_000019_000047.html" target="_top" xlink:title="1">
<text text-anchor="middle" x="230.25" y="-42.04" font-family="Helvetica,sans-Serif" font-size="10.00" fill="#63b8ff">1</text>
</a>
</g>
</g>
<!-- dir_a8b1cd4a4819f17e891fed4be1bf613f -->
<g id="node6" class="node">
<title>dir_a8b1cd4a4819f17e891fed4be1bf613f</title>
<g id="a_node6"><a xlink:href="dir_a8b1cd4a4819f17e891fed4be1bf613f.html" target="_top" xlink:title="catalog">
<polygon fill="#edf0f7" stroke="#7f7f7f" points="350.5,-35 297.5,-35 297.5,-16 350.5,-16 350.5,-35"/>
<text text-anchor="middle" x="324" y="-23" font-family="Helvetica,sans-Serif" font-size="10.00">catalog</text>
</a>
</g>
</g>
<!-- dir_29c8d6ae5ae0c042f288130303fd61db&#45;&gt;dir_a8b1cd4a4819f17e891fed4be1bf613f -->
<g id="edge5" class="edge">
<title>dir_29c8d6ae5ae0c042f288130303fd61db&#45;&gt;dir_a8b1cd4a4819f17e891fed4be1bf613f</title>
<g id="a_edge5"><a xlink:href="dir_000019_000005.html" target="_top">
<path fill="none" stroke="#63b8ff" d="M152.32,-71.1C189.14,-61.54 249.16,-45.94 287.6,-35.96"/>
<polygon fill="#63b8ff" stroke="#63b8ff" points="288.55,-39.33 297.35,-33.42 286.79,-32.55 288.55,-39.33"/>
</a>
</g>
<g id="a_edge5&#45;headlabel"><a xlink:href="dir_000019_000005.html" target="_top" xlink:title="2">
<text text-anchor="middle" x="285.79" y="-40.48" font-family="Helvetica,sans-Serif" font-size="10.00" fill="#63b8ff">2</text>
</a>
</g>
</g>
<!-- dir_e21de55c57d54251524953d96b13ba6d -->
<g id="node7" class="node">
<title>dir_e21de55c57d54251524953d96b13ba6d</title>
<g id="a_node7"><a xlink:href="dir_e21de55c57d54251524953d96b13ba6d.html" target="_top" xlink:title="container">
<polygon fill="#edf0f7" stroke="red" stroke-dasharray="5,2" points="431,-35 369,-35 369,-16 431,-16 431,-35"/>
<text text-anchor="middle" x="400" y="-23" font-family="Helvetica,sans-Serif" font-size="10.00">container</text>
</a>
</g>
</g>
<!-- dir_29c8d6ae5ae0c042f288130303fd61db&#45;&gt;dir_e21de55c57d54251524953d96b13ba6d -->
<g id="edge6" class="edge">
<title>dir_29c8d6ae5ae0c042f288130303fd61db&#45;&gt;dir_e21de55c57d54251524953d96b13ba6d</title>
<g id="a_edge6"><a xlink:href="dir_000019_000011.html" target="_top">
<path fill="none" stroke="#63b8ff" d="M152.27,-73.79C196.51,-65.91 278.71,-51.04 358.37,-35.29"/>
<polygon fill="#63b8ff" stroke="#63b8ff" points="359.45,-38.64 368.57,-33.26 358.08,-31.77 359.45,-38.64"/>
</a>
</g>
<g id="a_edge6&#45;headlabel"><a xlink:href="dir_000019_000011.html" target="_top" xlink:title="1">
<text text-anchor="middle" x="356.47" y="-39.62" font-family="Helvetica,sans-Serif" font-size="10.00" fill="#63b8ff">1</text>
</a>
</g>
</g>
<!-- dir_e73942be4139c49ff686e607a1824de2 -->
<g id="node8" class="node">
<title>dir_e73942be4139c49ff686e607a1824de2</title>
<g id="a_node8"><a xlink:href="dir_e73942be4139c49ff686e607a1824de2.html" target="_top" xlink:title="common">
<polygon fill="#edf0f7" stroke="red" stroke-dasharray="5,2" points="508.5,-35 449.5,-35 449.5,-16 508.5,-16 508.5,-35"/>
<text text-anchor="middle" x="479" y="-23" font-family="Helvetica,sans-Serif" font-size="10.00">common</text>
</a>
</g>
</g>
<!-- dir_29c8d6ae5ae0c042f288130303fd61db&#45;&gt;dir_e73942be4139c49ff686e607a1824de2 -->
<g id="edge7" class="edge">
<title>dir_29c8d6ae5ae0c042f288130303fd61db&#45;&gt;dir_e73942be4139c49ff686e607a1824de2</title>
<g id="a_edge7"><a xlink:href="dir_000019_000007.html" target="_top">
<path fill="none" stroke="#63b8ff" d="M152.38,-75.83C208.6,-69.27 328.09,-54.55 439.2,-35.01"/>
<polygon fill="#63b8ff" stroke="#63b8ff" points="440,-38.43 449.24,-33.23 438.78,-31.53 440,-38.43"/>
</a>
</g>
<g id="a_edge7&#45;headlabel"><a xlink:href="dir_000019_000007.html" target="_top" xlink:title="3">
<text text-anchor="middle" x="436.96" y="-39.35" font-family="Helvetica,sans-Serif" font-size="10.00" fill="#63b8ff">3</text>
</a>
</g>
</g>
</g>
</svg>

<g id="navigator" transform="translate(0 0)" fill="#404254">
  <rect fill="#f2f5e9" fill-opacity="0.5" stroke="#606060" stroke-width=".5" x="0" y="0" width="60" height="60"/>
  <use id="zoomplus" xlink:href="#zoomPlus" x="17" y="9" onmousedown="handleZoom(evt,'in')"/>
  <use id="zoomminus" xlink:href="#zoomMin" x="42" y="9" onmousedown="handleZoom(evt,'out')"/>
  <use id="reset" xlink:href="#resetDef" x="30" y="36" onmousedown="handleReset()"/>
   <use id="arrowup" xlink:href="#arrowUp" x="0" y="0" onmousedown="handlePan(0,-1)"/>
  <use id="arrowright" xlink:href="#arrowRight" x="0" y="0" onmousedown="handlePan(1,0)"/>
  <use id="arrowdown" xlink:href="#arrowDown" x="0" y="0" onmousedown="handlePan(0,1)"/>
  <use id="arrowleft" xlink:href="#arrowLeft" x="0" y="0" onmousedown="handlePan(-1,0)"/>
</g>
<svg viewBox="0 0 15 15" width="100%" height="30px" preserveAspectRatio="xMaxYMin meet">
 <g id="arrow_out" transform="scale(0.3 0.3)">
  <a xlink:href="dir_29c8d6ae5ae0c042f288130303fd61db_dep_org.svg" target="_base">
   <rect id="button" ry="5" rx="5" y="6" x="6" height="38" width="38"
        fill="#f2f5e9" fill-opacity="0.5" stroke="#606060" stroke-width="1.0"/>
   <path id="arrow"
     d="M 11.500037,31.436501 C 11.940474,20.09759 22.043105,11.32322 32.158766,21.979434 L 37.068811,17.246167 C 37.068811,17.246167 37.088388,32 37.088388,32 L 22.160133,31.978069 C 22.160133,31.978069 26.997745,27.140456 26.997745,27.140456 C 18.528582,18.264221 13.291696,25.230495 11.500037,31.436501 z"
     style="fill:#404040;"/>
  </a>
 </g>
</svg>

<style type='text/css'>
<![CDATA[
[data-mouse-over-selected='false'] { opacity: 0.7; }
[data-mouse-over-selected='true']  { opacity: 1.0; }
]]>
</style>
<script type="application/ecmascript"><![CDATA[
document.addEventListener('DOMContentLoaded', (event) => {
  highlightEdges();
  highlightAdjacentNodes();
});
]]></script>
</svg>
