<?xml version="1.0" encoding="UTF-8" standalone="no"?>
<!DOCTYPE svg PUBLIC "-//W3C//DTD SVG 1.1//EN"
 "http://www.w3.org/Graphics/SVG/1.1/DTD/svg11.dtd">
<!-- Generated by graphviz version 2.43.0 (0)
 -->
<!-- Title: src/include/execution Pages: 1 -->
<svg width="492pt" height="306pt"
 viewBox="0.00 0.00 492.00 306.00" xmlns="http://www.w3.org/2000/svg" xmlns:xlink="http://www.w3.org/1999/xlink">
<g id="graph0" class="graph" transform="scale(1 1) rotate(0) translate(4 302)">
<title>src/include/execution</title>
<g id="clust1" class="cluster">
<title>clusterdir_b0856f6b0d80ccb263b2f415c91f9e17</title>
<g id="a_clust1"><a xlink:href="dir_b0856f6b0d80ccb263b2f415c91f9e17.html" target="_top" xlink:title="include">
<polygon fill="#edf0f7" stroke="#7f7f7f" stroke-dasharray="5,2" points="8,-8 8,-290 476,-290 476,-8 8,-8"/>
<text text-anchor="middle" x="242" y="-278" font-family="Helvetica,sans-Serif" font-size="10.00">include</text>
</a>
</g>
</g>
<g id="clust2" class="cluster">
<title>clusterdir_b06aa2129a2c7a1df27e7eac52e5ce56</title>
<g id="a_clust2"><a xlink:href="dir_b06aa2129a2c7a1df27e7eac52e5ce56.html" target="_top">
<polygon fill="#edf0f7" stroke="#404040" stroke-width="2" points="126,-63 126,-263 228,-263 228,-63 126,-63"/>
</a>
</g>
</g>
<!-- dir_0a30ac4aed38d1936bbd6d702d96fbd8 -->
<g id="node1" class="node">
<title>dir_0a30ac4aed38d1936bbd6d702d96fbd8</title>
<g id="a_node1"><a xlink:href="dir_0a30ac4aed38d1936bbd6d702d96fbd8.html" target="_top" xlink:title="storage">
<polygon fill="#a2b4d6" stroke="red" points="83.5,-35 30.5,-35 30.5,-16 83.5,-16 83.5,-35"/>
<text text-anchor="middle" x="57" y="-23" font-family="Helvetica,sans-Serif" font-size="10.00">storage</text>
</a>
</g>
</g>
<!-- dir_a0a7e3c511eabaea002d5842901bfffc -->
<g id="node2" class="node">
<title>dir_a0a7e3c511eabaea002d5842901bfffc</title>
<g id="a_node2"><a xlink:href="dir_a0a7e3c511eabaea002d5842901bfffc.html" target="_top" xlink:title="buffer">
<polygon fill="#a2b4d6" stroke="#404040" points="281.5,-200 236.5,-200 236.5,-181 281.5,-181 281.5,-200"/>
<text text-anchor="middle" x="259" y="-188" font-family="Helvetica,sans-Serif" font-size="10.00">buffer</text>
</a>
</g>
</g>
<!-- dir_a8b1cd4a4819f17e891fed4be1bf613f -->
<g id="node3" class="node">
<title>dir_a8b1cd4a4819f17e891fed4be1bf613f</title>
<g id="a_node3"><a xlink:href="dir_a8b1cd4a4819f17e891fed4be1bf613f.html" target="_top" xlink:title="catalog">
<polygon fill="#a2b4d6" stroke="#404040" points="369.5,-35 316.5,-35 316.5,-16 369.5,-16 369.5,-35"/>
<text text-anchor="middle" x="343" y="-23" font-family="Helvetica,sans-Serif" font-size="10.00">catalog</text>
</a>
</g>
</g>
<!-- dir_fe2aa8ace742259405f3fccf93b887e4 -->
<g id="node4" class="node">
<title>dir_fe2aa8ace742259405f3fccf93b887e4</title>
<g id="a_node4"><a xlink:href="dir_fe2aa8ace742259405f3fccf93b887e4.html" target="_top" xlink:title="concurrency">
<polygon fill="#a2b4d6" stroke="#404040" points="448,-90 372,-90 372,-71 448,-71 448,-90"/>
<text text-anchor="middle" x="410" y="-78" font-family="Helvetica,sans-Serif" font-size="10.00">concurrency</text>
</a>
</g>
</g>
<!-- dir_e73942be4139c49ff686e607a1824de2 -->
<g id="node5" class="node">
<title>dir_e73942be4139c49ff686e607a1824de2</title>
<g id="a_node5"><a xlink:href="dir_e73942be4139c49ff686e607a1824de2.html" target="_top" xlink:title="common">
<polygon fill="#a2b4d6" stroke="red" points="256.5,-35 197.5,-35 197.5,-16 256.5,-16 256.5,-35"/>
<text text-anchor="middle" x="227" y="-23" font-family="Helvetica,sans-Serif" font-size="10.00">common</text>
</a>
</g>
</g>
<!-- dir_e21de55c57d54251524953d96b13ba6d -->
<g id="node6" class="node">
<title>dir_e21de55c57d54251524953d96b13ba6d</title>
<g id="a_node6"><a xlink:href="dir_e21de55c57d54251524953d96b13ba6d.html" target="_top" xlink:title="container">
<polygon fill="#a2b4d6" stroke="red" points="118,-145 56,-145 56,-126 118,-126 118,-145"/>
<text text-anchor="middle" x="87" y="-133" font-family="Helvetica,sans-Serif" font-size="10.00">container</text>
</a>
</g>
</g>
<!-- dir_56fb494bfda9b75d921f5a73f9bb6191 -->
<g id="node7" class="node">
<title>dir_56fb494bfda9b75d921f5a73f9bb6191</title>
<g id="a_node7"><a xlink:href="dir_56fb494bfda9b75d921f5a73f9bb6191.html" target="_top" xlink:title="type">
<polygon fill="#a2b4d6" stroke="#404040" points="166,-35 128,-35 128,-16 166,-16 166,-35"/>
<text text-anchor="middle" x="147" y="-23" font-family="Helvetica,sans-Serif" font-size="10.00">type</text>
</a>
</g>
</g>
<!-- dir_2e0f860ba5ab93b304ae8e341906fe46 -->
<g id="node8" class="node">
<title>dir_2e0f860ba5ab93b304ae8e341906fe46</title>
<g id="a_node8"><a xlink:href="dir_2e0f860ba5ab93b304ae8e341906fe46.html" target="_top" xlink:title="binder">
<polygon fill="#a2b4d6" stroke="red" points="293.5,-90 246.5,-90 246.5,-71 293.5,-71 293.5,-90"/>
<text text-anchor="middle" x="270" y="-78" font-family="Helvetica,sans-Serif" font-size="10.00">binder</text>
</a>
</g>
</g>
<!-- dir_b06aa2129a2c7a1df27e7eac52e5ce56 -->
<g id="node9" class="node">
<title>dir_b06aa2129a2c7a1df27e7eac52e5ce56</title>
<text text-anchor="middle" x="188" y="-243" font-family="Helvetica,sans-Serif" font-size="10.00">execution</text>
</g>
<!-- dir_b06aa2129a2c7a1df27e7eac52e5ce56&#45;&gt;dir_0a30ac4aed38d1936bbd6d702d96fbd8 -->
<g id="edge1" class="edge">
<title>dir_b06aa2129a2c7a1df27e7eac52e5ce56&#45;&gt;dir_0a30ac4aed38d1936bbd6d702d96fbd8</title>
<g id="a_edge1"><a xlink:href="dir_000018_000042.html" target="_top">
<path fill="none" stroke="#63b8ff" d="M161.01,-235.92C124.8,-222.8 61.84,-193.98 34,-145 15.99,-113.3 21.22,-97.82 32,-63 34.15,-56.07 38.12,-49.28 42.27,-43.47"/>
<polygon fill="#63b8ff" stroke="#63b8ff" points="45.28,-45.3 48.71,-35.28 39.78,-40.98 45.28,-45.3"/>
</a>
</g>
<g id="a_edge1&#45;headlabel"><a xlink:href="dir_000018_000042.html" target="_top" xlink:title="32">
<text text-anchor="middle" x="45.29" y="-47.38" font-family="Helvetica,sans-Serif" font-size="10.00" fill="#63b8ff">32</text>
</a>
</g>
</g>
<!-- dir_b06aa2129a2c7a1df27e7eac52e5ce56&#45;&gt;dir_a0a7e3c511eabaea002d5842901bfffc -->
<g id="edge4" class="edge">
<title>dir_b06aa2129a2c7a1df27e7eac52e5ce56&#45;&gt;dir_a0a7e3c511eabaea002d5842901bfffc</title>
<g id="a_edge4"><a xlink:href="dir_000018_000003.html" target="_top">
<path fill="none" stroke="#63b8ff" d="M199.41,-235.98C210.11,-228 226.34,-215.88 239.16,-206.31"/>
<polygon fill="#63b8ff" stroke="#63b8ff" points="241.47,-208.96 247.39,-200.17 237.28,-203.35 241.47,-208.96"/>
</a>
</g>
<g id="a_edge4&#45;headlabel"><a xlink:href="dir_000018_000003.html" target="_top" xlink:title="1">
<text text-anchor="middle" x="240.28" y="-210.88" font-family="Helvetica,sans-Serif" font-size="10.00" fill="#63b8ff">1</text>
</a>
</g>
</g>
<!-- dir_b06aa2129a2c7a1df27e7eac52e5ce56&#45;&gt;dir_a8b1cd4a4819f17e891fed4be1bf613f -->
<g id="edge5" class="edge">
<title>dir_b06aa2129a2c7a1df27e7eac52e5ce56&#45;&gt;dir_a8b1cd4a4819f17e891fed4be1bf613f</title>
<g id="a_edge5"><a xlink:href="dir_000018_000005.html" target="_top">
<path fill="none" stroke="#63b8ff" d="M220.32,-237.88C280.98,-223.45 410.02,-182.72 457,-90 462.42,-79.3 464.07,-72.69 457,-63 439.48,-38.99 405.96,-30.42 379.78,-27.52"/>
<polygon fill="#63b8ff" stroke="#63b8ff" points="380.06,-24.04 369.8,-26.65 379.45,-31.01 380.06,-24.04"/>
</a>
</g>
<g id="a_edge5&#45;headlabel"><a xlink:href="dir_000018_000005.html" target="_top" xlink:title="30">
<text text-anchor="middle" x="383.89" y="-19.02" font-family="Helvetica,sans-Serif" font-size="10.00" fill="#63b8ff">30</text>
</a>
</g>
</g>
<!-- dir_b06aa2129a2c7a1df27e7eac52e5ce56&#45;&gt;dir_fe2aa8ace742259405f3fccf93b887e4 -->
<g id="edge6" class="edge">
<title>dir_b06aa2129a2c7a1df27e7eac52e5ce56&#45;&gt;dir_fe2aa8ace742259405f3fccf93b887e4</title>
<g id="a_edge6"><a xlink:href="dir_000018_000009.html" target="_top">
<path fill="none" stroke="#63b8ff" d="M215.23,-235.9C236.85,-228.35 267.3,-216.06 291,-200 334.85,-170.28 376.4,-123.06 396.82,-98.15"/>
<polygon fill="#63b8ff" stroke="#63b8ff" points="399.8,-100.03 403.36,-90.05 394.35,-95.63 399.8,-100.03"/>
</a>
</g>
<g id="a_edge6&#45;headlabel"><a xlink:href="dir_000018_000009.html" target="_top" xlink:title="6">
<text text-anchor="middle" x="399.75" y="-102.11" font-family="Helvetica,sans-Serif" font-size="10.00" fill="#63b8ff">6</text>
</a>
</g>
</g>
<!-- dir_29c8d6ae5ae0c042f288130303fd61db -->
<g id="node10" class="node">
<title>dir_29c8d6ae5ae0c042f288130303fd61db</title>
<g id="a_node10"><a xlink:href="dir_29c8d6ae5ae0c042f288130303fd61db.html" target="_top" xlink:title="executors">
<polygon fill="#a2b4d6" stroke="#404040" points="198,-200 134,-200 134,-181 198,-181 198,-200"/>
<text text-anchor="middle" x="166" y="-188" font-family="Helvetica,sans-Serif" font-size="10.00">executors</text>
</a>
</g>
</g>
<!-- dir_b06aa2129a2c7a1df27e7eac52e5ce56&#45;&gt;dir_29c8d6ae5ae0c042f288130303fd61db -->
<g id="edge2" class="edge">
<title>dir_b06aa2129a2c7a1df27e7eac52e5ce56&#45;&gt;dir_29c8d6ae5ae0c042f288130303fd61db</title>
<g id="a_edge2"><a xlink:href="dir_000018_000019.html" target="_top">
<path fill="none" stroke="#63b8ff" d="M184.37,-235.75C181.42,-228.65 177.17,-218.4 173.49,-209.56"/>
<polygon fill="#63b8ff" stroke="#63b8ff" points="176.63,-207.98 169.57,-200.09 170.17,-210.67 176.63,-207.98"/>
</a>
</g>
<g id="a_edge2&#45;headlabel"><a xlink:href="dir_000018_000019.html" target="_top" xlink:title="3">
<text text-anchor="middle" x="180.63" y="-207.71" font-family="Helvetica,sans-Serif" font-size="10.00" fill="#63b8ff">3</text>
</a>
</g>
</g>
<!-- dir_63705f3595bc98d4b211a7e671416fe4 -->
<g id="node12" class="node">
<title>dir_63705f3595bc98d4b211a7e671416fe4</title>
<g id="a_node12"><a xlink:href="dir_63705f3595bc98d4b211a7e671416fe4.html" target="_top" xlink:title="plans">
<polygon fill="#a2b4d6" stroke="#404040" points="219.5,-145 176.5,-145 176.5,-126 219.5,-126 219.5,-145"/>
<text text-anchor="middle" x="198" y="-133" font-family="Helvetica,sans-Serif" font-size="10.00">plans</text>
</a>
</g>
</g>
<!-- dir_b06aa2129a2c7a1df27e7eac52e5ce56&#45;&gt;dir_63705f3595bc98d4b211a7e671416fe4 -->
<g id="edge3" class="edge">
<title>dir_b06aa2129a2c7a1df27e7eac52e5ce56&#45;&gt;dir_63705f3595bc98d4b211a7e671416fe4</title>
<g id="a_edge3"><a xlink:href="dir_000018_000034.html" target="_top">
<path fill="none" stroke="#63b8ff" d="M192.88,-235.98C197.56,-227.26 204.31,-213.17 207,-200 210.07,-184.98 207.24,-167.75 203.96,-155.03"/>
<polygon fill="#63b8ff" stroke="#63b8ff" points="207.25,-153.81 201.1,-145.18 200.53,-155.76 207.25,-153.81"/>
</a>
</g>
<g id="a_edge3&#45;headlabel"><a xlink:href="dir_000018_000034.html" target="_top" xlink:title="28">
<text text-anchor="middle" x="210.98" y="-153.98" font-family="Helvetica,sans-Serif" font-size="10.00" fill="#63b8ff">28</text>
</a>
</g>
</g>
<!-- dir_29c8d6ae5ae0c042f288130303fd61db&#45;&gt;dir_0a30ac4aed38d1936bbd6d702d96fbd8 -->
<g id="edge7" class="edge">
<title>dir_29c8d6ae5ae0c042f288130303fd61db&#45;&gt;dir_0a30ac4aed38d1936bbd6d702d96fbd8</title>
<g id="a_edge7"><a xlink:href="dir_000019_000042.html" target="_top">
<path fill="none" stroke="#63b8ff" d="M133.77,-181.84C102.13,-173.6 57.18,-159.68 47,-145 26.1,-114.87 39.02,-69.5 48.88,-44.55"/>
<polygon fill="#63b8ff" stroke="#63b8ff" points="52.16,-45.78 52.82,-35.21 45.71,-43.06 52.16,-45.78"/>
</a>
</g>
<g id="a_edge7&#45;headlabel"><a xlink:href="dir_000019_000042.html" target="_top" xlink:title="20">
<text text-anchor="middle" x="53.38" y="-47.7" font-family="Helvetica,sans-Serif" font-size="10.00" fill="#63b8ff">20</text>
</a>
</g>
</g>
<!-- dir_29c8d6ae5ae0c042f288130303fd61db&#45;&gt;dir_a8b1cd4a4819f17e891fed4be1bf613f -->
<g id="edge11" class="edge">
<title>dir_29c8d6ae5ae0c042f288130303fd61db&#45;&gt;dir_a8b1cd4a4819f17e891fed4be1bf613f</title>
<g id="a_edge11"><a xlink:href="dir_000019_000005.html" target="_top">
<path fill="none" stroke="#63b8ff" d="M195.12,-180.88C217.01,-173.53 247.04,-161.52 270,-145 296.58,-125.88 302.04,-118 319,-90 327.59,-75.82 333.98,-58.06 338,-44.93"/>
<polygon fill="#63b8ff" stroke="#63b8ff" points="341.41,-45.75 340.82,-35.17 334.68,-43.81 341.41,-45.75"/>
</a>
</g>
<g id="a_edge11&#45;headlabel"><a xlink:href="dir_000019_000005.html" target="_top" xlink:title="2">
<text text-anchor="middle" x="343.14" y="-47.49" font-family="Helvetica,sans-Serif" font-size="10.00" fill="#63b8ff">2</text>
</a>
</g>
</g>
<!-- dir_29c8d6ae5ae0c042f288130303fd61db&#45;&gt;dir_e73942be4139c49ff686e607a1824de2 -->
<g id="edge13" class="edge">
<title>dir_29c8d6ae5ae0c042f288130303fd61db&#45;&gt;dir_e73942be4139c49ff686e607a1824de2</title>
<g id="a_edge13"><a xlink:href="dir_000019_000007.html" target="_top">
<path fill="none" stroke="#63b8ff" d="M188.77,-180.9C221.16,-167.26 279.23,-137.27 303,-90 308.39,-79.28 309.39,-73.16 303,-63 294.77,-49.91 280.39,-41.41 266.34,-35.94"/>
<polygon fill="#63b8ff" stroke="#63b8ff" points="267.34,-32.58 256.75,-32.62 265.05,-39.2 267.34,-32.58"/>
</a>
</g>
<g id="a_edge13&#45;headlabel"><a xlink:href="dir_000019_000007.html" target="_top" xlink:title="3">
<text text-anchor="middle" x="271.67" y="-28.58" font-family="Helvetica,sans-Serif" font-size="10.00" fill="#63b8ff">3</text>
</a>
</g>
</g>
<!-- dir_29c8d6ae5ae0c042f288130303fd61db&#45;&gt;dir_e21de55c57d54251524953d96b13ba6d -->
<g id="edge12" class="edge">
<title>dir_29c8d6ae5ae0c042f288130303fd61db&#45;&gt;dir_e21de55c57d54251524953d96b13ba6d</title>
<g id="a_edge12"><a xlink:href="dir_000019_000011.html" target="_top">
<path fill="none" stroke="#63b8ff" d="M153.31,-180.98C141.17,-172.84 122.64,-160.41 108.25,-150.76"/>
<polygon fill="#63b8ff" stroke="#63b8ff" points="110.18,-147.84 99.92,-145.17 106.28,-153.65 110.18,-147.84"/>
</a>
</g>
<g id="a_edge12&#45;headlabel"><a xlink:href="dir_000019_000011.html" target="_top" xlink:title="1">
<text text-anchor="middle" x="114.74" y="-144.98" font-family="Helvetica,sans-Serif" font-size="10.00" fill="#63b8ff">1</text>
</a>
</g>
</g>
<!-- dir_29c8d6ae5ae0c042f288130303fd61db&#45;&gt;dir_56fb494bfda9b75d921f5a73f9bb6191 -->
<g id="edge9" class="edge">
<title>dir_29c8d6ae5ae0c042f288130303fd61db&#45;&gt;dir_56fb494bfda9b75d921f5a73f9bb6191</title>
<g id="a_edge9"><a xlink:href="dir_000019_000047.html" target="_top">
<path fill="none" stroke="#63b8ff" d="M161.05,-180.81C151.75,-163.96 132,-125.37 125,-90 122.67,-78.23 121.79,-74.56 125,-63 126.9,-56.17 130.46,-49.34 134.17,-43.47"/>
<polygon fill="#63b8ff" stroke="#63b8ff" points="137.1,-45.38 139.91,-35.16 131.34,-41.4 137.1,-45.38"/>
</a>
</g>
<g id="a_edge9&#45;headlabel"><a xlink:href="dir_000019_000047.html" target="_top" xlink:title="1">
<text text-anchor="middle" x="137.39" y="-47.45" font-family="Helvetica,sans-Serif" font-size="10.00" fill="#63b8ff">1</text>
</a>
</g>
</g>
<!-- dir_1150d82792479214dd6dff56bb94adfc -->
<g id="node11" class="node">
<title>dir_1150d82792479214dd6dff56bb94adfc</title>
<g id="a_node11"><a xlink:href="dir_1150d82792479214dd6dff56bb94adfc.html" target="_top" xlink:title="expressions">
<polygon fill="#a2b4d6" stroke="#404040" points="208.5,-90 133.5,-90 133.5,-71 208.5,-71 208.5,-90"/>
<text text-anchor="middle" x="171" y="-78" font-family="Helvetica,sans-Serif" font-size="10.00">expressions</text>
</a>
</g>
</g>
<!-- dir_29c8d6ae5ae0c042f288130303fd61db&#45;&gt;dir_1150d82792479214dd6dff56bb94adfc -->
<g id="edge8" class="edge">
<title>dir_29c8d6ae5ae0c042f288130303fd61db&#45;&gt;dir_1150d82792479214dd6dff56bb94adfc</title>
<g id="a_edge8"><a xlink:href="dir_000019_000021.html" target="_top">
<path fill="none" stroke="#63b8ff" d="M166.17,-180.87C166.44,-168.65 167.03,-145.61 168,-126 168.42,-117.48 169.03,-108.06 169.6,-100.09"/>
<polygon fill="#63b8ff" stroke="#63b8ff" points="173.09,-100.25 170.33,-90.03 166.11,-99.74 173.09,-100.25"/>
</a>
</g>
<g id="a_edge8&#45;headlabel"><a xlink:href="dir_000019_000021.html" target="_top" xlink:title="2">
<text text-anchor="middle" x="175.66" y="-101.55" font-family="Helvetica,sans-Serif" font-size="10.00" fill="#63b8ff">2</text>
</a>
</g>
</g>
<!-- dir_29c8d6ae5ae0c042f288130303fd61db&#45;&gt;dir_63705f3595bc98d4b211a7e671416fe4 -->
<g id="edge10" class="edge">
<title>dir_29c8d6ae5ae0c042f288130303fd61db&#45;&gt;dir_63705f3595bc98d4b211a7e671416fe4</title>
<g id="a_edge10"><a xlink:href="dir_000019_000034.html" target="_top">
<path fill="none" stroke="#63b8ff" d="M171.28,-180.75C175.71,-173.42 182.16,-162.73 187.62,-153.7"/>
<polygon fill="#63b8ff" stroke="#63b8ff" points="190.64,-155.46 192.81,-145.09 184.65,-151.84 190.64,-155.46"/>
</a>
</g>
<g id="a_edge10&#45;headlabel"><a xlink:href="dir_000019_000034.html" target="_top" xlink:title="26">
<text text-anchor="middle" x="191.21" y="-157.5" font-family="Helvetica,sans-Serif" font-size="10.00" fill="#63b8ff">26</text>
</a>
</g>
</g>
<!-- dir_1150d82792479214dd6dff56bb94adfc&#45;&gt;dir_0a30ac4aed38d1936bbd6d702d96fbd8 -->
<g id="edge14" class="edge">
<title>dir_1150d82792479214dd6dff56bb94adfc&#45;&gt;dir_0a30ac4aed38d1936bbd6d702d96fbd8</title>
<g id="a_edge14"><a xlink:href="dir_000021_000042.html" target="_top">
<path fill="none" stroke="#63b8ff" d="M152.68,-70.98C134.34,-62.46 105.89,-49.23 84.77,-39.41"/>
<polygon fill="#63b8ff" stroke="#63b8ff" points="86.19,-36.21 75.65,-35.17 83.24,-42.56 86.19,-36.21"/>
</a>
</g>
<g id="a_edge14&#45;headlabel"><a xlink:href="dir_000021_000042.html" target="_top" xlink:title="6">
<text text-anchor="middle" x="90.65" y="-32.65" font-family="Helvetica,sans-Serif" font-size="10.00" fill="#63b8ff">6</text>
</a>
</g>
</g>
<!-- dir_1150d82792479214dd6dff56bb94adfc&#45;&gt;dir_a8b1cd4a4819f17e891fed4be1bf613f -->
<g id="edge16" class="edge">
<title>dir_1150d82792479214dd6dff56bb94adfc&#45;&gt;dir_a8b1cd4a4819f17e891fed4be1bf613f</title>
<g id="a_edge16"><a xlink:href="dir_000021_000005.html" target="_top">
<path fill="none" stroke="#63b8ff" d="M191.78,-70.86C198.5,-68.19 206.02,-65.34 213,-63 244.19,-52.52 280.26,-42.56 306.48,-35.7"/>
<polygon fill="#63b8ff" stroke="#63b8ff" points="307.57,-39.04 316.37,-33.14 305.81,-32.26 307.57,-39.04"/>
</a>
</g>
<g id="a_edge16&#45;headlabel"><a xlink:href="dir_000021_000005.html" target="_top" xlink:title="6">
<text text-anchor="middle" x="304.8" y="-40.19" font-family="Helvetica,sans-Serif" font-size="10.00" fill="#63b8ff">6</text>
</a>
</g>
</g>
<!-- dir_1150d82792479214dd6dff56bb94adfc&#45;&gt;dir_e73942be4139c49ff686e607a1824de2 -->
<g id="edge17" class="edge">
<title>dir_1150d82792479214dd6dff56bb94adfc&#45;&gt;dir_e73942be4139c49ff686e607a1824de2</title>
<g id="a_edge17"><a xlink:href="dir_000021_000007.html" target="_top">
<path fill="none" stroke="#63b8ff" d="M180,-70.98C188.19,-63.23 200.51,-51.58 210.47,-42.14"/>
<polygon fill="#63b8ff" stroke="#63b8ff" points="212.98,-44.59 217.84,-35.17 208.17,-39.5 212.98,-44.59"/>
</a>
</g>
<g id="a_edge17&#45;headlabel"><a xlink:href="dir_000021_000007.html" target="_top" xlink:title="6">
<text text-anchor="middle" x="212.32" y="-46.62" font-family="Helvetica,sans-Serif" font-size="10.00" fill="#63b8ff">6</text>
</a>
</g>
</g>
<!-- dir_1150d82792479214dd6dff56bb94adfc&#45;&gt;dir_56fb494bfda9b75d921f5a73f9bb6191 -->
<g id="edge15" class="edge">
<title>dir_1150d82792479214dd6dff56bb94adfc&#45;&gt;dir_56fb494bfda9b75d921f5a73f9bb6191</title>
<g id="a_edge15"><a xlink:href="dir_000021_000047.html" target="_top">
<path fill="none" stroke="#63b8ff" d="M167.04,-70.75C163.79,-63.57 159.08,-53.18 155.05,-44.27"/>
<polygon fill="#63b8ff" stroke="#63b8ff" points="158.2,-42.75 150.89,-35.09 151.83,-45.64 158.2,-42.75"/>
</a>
</g>
<g id="a_edge15&#45;headlabel"><a xlink:href="dir_000021_000047.html" target="_top" xlink:title="9">
<text text-anchor="middle" x="162.27" y="-42.36" font-family="Helvetica,sans-Serif" font-size="10.00" fill="#63b8ff">9</text>
</a>
</g>
</g>
<!-- dir_63705f3595bc98d4b211a7e671416fe4&#45;&gt;dir_0a30ac4aed38d1936bbd6d702d96fbd8 -->
<g id="edge18" class="edge">
<title>dir_63705f3595bc98d4b211a7e671416fe4&#45;&gt;dir_0a30ac4aed38d1936bbd6d702d96fbd8</title>
<g id="a_edge18"><a xlink:href="dir_000034_000042.html" target="_top">
<path fill="none" stroke="#63b8ff" d="M181.73,-125.84C166.52,-117.46 143.44,-104 125,-90 105.82,-75.44 85.92,-56.31 72.64,-42.86"/>
<polygon fill="#63b8ff" stroke="#63b8ff" points="74.78,-40.04 65.3,-35.32 69.77,-44.92 74.78,-40.04"/>
</a>
</g>
<g id="a_edge18&#45;headlabel"><a xlink:href="dir_000034_000042.html" target="_top" xlink:title="3">
<text text-anchor="middle" x="79.32" y="-38.14" font-family="Helvetica,sans-Serif" font-size="10.00" fill="#63b8ff">3</text>
</a>
</g>
</g>
<!-- dir_63705f3595bc98d4b211a7e671416fe4&#45;&gt;dir_a8b1cd4a4819f17e891fed4be1bf613f -->
<g id="edge21" class="edge">
<title>dir_63705f3595bc98d4b211a7e671416fe4&#45;&gt;dir_a8b1cd4a4819f17e891fed4be1bf613f</title>
<g id="a_edge21"><a xlink:href="dir_000034_000005.html" target="_top">
<path fill="none" stroke="#63b8ff" d="M219.84,-127C246.59,-117.52 289.95,-101.1 303,-90 317.7,-77.5 328.77,-58.22 335.5,-44.18"/>
<polygon fill="#63b8ff" stroke="#63b8ff" points="338.7,-45.61 339.62,-35.06 332.32,-42.73 338.7,-45.61"/>
</a>
</g>
<g id="a_edge21&#45;headlabel"><a xlink:href="dir_000034_000005.html" target="_top" xlink:title="18">
<text text-anchor="middle" x="339.8" y="-47.56" font-family="Helvetica,sans-Serif" font-size="10.00" fill="#63b8ff">18</text>
</a>
</g>
</g>
<!-- dir_63705f3595bc98d4b211a7e671416fe4&#45;&gt;dir_fe2aa8ace742259405f3fccf93b887e4 -->
<g id="edge23" class="edge">
<title>dir_63705f3595bc98d4b211a7e671416fe4&#45;&gt;dir_fe2aa8ace742259405f3fccf93b887e4</title>
<g id="a_edge23"><a xlink:href="dir_000034_000009.html" target="_top">
<path fill="none" stroke="#63b8ff" d="M219.52,-127.31C221.03,-126.86 222.54,-126.41 224,-126 270.29,-112.92 323.76,-100.39 361.45,-91.98"/>
<polygon fill="#63b8ff" stroke="#63b8ff" points="362.64,-95.3 371.65,-89.72 361.13,-88.47 362.64,-95.3"/>
</a>
</g>
<g id="a_edge23&#45;headlabel"><a xlink:href="dir_000034_000009.html" target="_top" xlink:title="2">
<text text-anchor="middle" x="359.75" y="-96.35" font-family="Helvetica,sans-Serif" font-size="10.00" fill="#63b8ff">2</text>
</a>
</g>
</g>
<!-- dir_63705f3595bc98d4b211a7e671416fe4&#45;&gt;dir_e73942be4139c49ff686e607a1824de2 -->
<g id="edge22" class="edge">
<title>dir_63705f3595bc98d4b211a7e671416fe4&#45;&gt;dir_e73942be4139c49ff686e607a1824de2</title>
<g id="a_edge22"><a xlink:href="dir_000034_000007.html" target="_top">
<path fill="none" stroke="#63b8ff" d="M202.74,-125.91C207.36,-117.15 214.23,-103.02 218,-90 222.22,-75.42 224.49,-58.37 225.7,-45.61"/>
<polygon fill="#63b8ff" stroke="#63b8ff" points="229.22,-45.54 226.54,-35.29 222.24,-44.98 229.22,-45.54"/>
</a>
</g>
<g id="a_edge22&#45;headlabel"><a xlink:href="dir_000034_000007.html" target="_top" xlink:title="2">
<text text-anchor="middle" x="231.76" y="-46.85" font-family="Helvetica,sans-Serif" font-size="10.00" fill="#63b8ff">2</text>
</a>
</g>
</g>
<!-- dir_63705f3595bc98d4b211a7e671416fe4&#45;&gt;dir_2e0f860ba5ab93b304ae8e341906fe46 -->
<g id="edge20" class="edge">
<title>dir_63705f3595bc98d4b211a7e671416fe4&#45;&gt;dir_2e0f860ba5ab93b304ae8e341906fe46</title>
<g id="a_edge20"><a xlink:href="dir_000034_000001.html" target="_top">
<path fill="none" stroke="#63b8ff" d="M209.57,-125.98C220.42,-118 236.88,-105.88 249.88,-96.31"/>
<polygon fill="#63b8ff" stroke="#63b8ff" points="252.24,-98.92 258.22,-90.17 248.09,-93.28 252.24,-98.92"/>
</a>
</g>
<g id="a_edge20&#45;headlabel"><a xlink:href="dir_000034_000001.html" target="_top" xlink:title="8">
<text text-anchor="middle" x="251.03" y="-100.83" font-family="Helvetica,sans-Serif" font-size="10.00" fill="#63b8ff">8</text>
</a>
</g>
</g>
<!-- dir_63705f3595bc98d4b211a7e671416fe4&#45;&gt;dir_1150d82792479214dd6dff56bb94adfc -->
<g id="edge19" class="edge">
<title>dir_63705f3595bc98d4b211a7e671416fe4&#45;&gt;dir_1150d82792479214dd6dff56bb94adfc</title>
<g id="a_edge19"><a xlink:href="dir_000034_000021.html" target="_top">
<path fill="none" stroke="#63b8ff" d="M193.54,-125.75C189.88,-118.57 184.59,-108.18 180.05,-99.27"/>
<polygon fill="#63b8ff" stroke="#63b8ff" points="183.03,-97.41 175.38,-90.09 176.8,-100.59 183.03,-97.41"/>
</a>
</g>
<g id="a_edge19&#45;headlabel"><a xlink:href="dir_000034_000021.html" target="_top" xlink:title="18">
<text text-anchor="middle" x="187.2" y="-96.82" font-family="Helvetica,sans-Serif" font-size="10.00" fill="#63b8ff">18</text>
</a>
</g>
</g>
</g>
</svg>
