<?xml version="1.0" encoding="UTF-8" standalone="no"?>
<!DOCTYPE svg PUBLIC "-//W3C//DTD SVG 1.1//EN"
 "http://www.w3.org/Graphics/SVG/1.1/DTD/svg11.dtd">
<!-- Generated by graphviz version 2.43.0 (0)
 -->
<!-- Title: src/include/binder Pages: 1 -->
<svg width="321pt" height="251pt"
 viewBox="0.00 0.00 321.00 251.00" xmlns="http://www.w3.org/2000/svg" xmlns:xlink="http://www.w3.org/1999/xlink">
<g id="graph0" class="graph" transform="scale(1 1) rotate(0) translate(4 247)">
<title>src/include/binder</title>
<g id="clust1" class="cluster">
<title>clusterdir_b0856f6b0d80ccb263b2f415c91f9e17</title>
<g id="a_clust1"><a xlink:href="dir_b0856f6b0d80ccb263b2f415c91f9e17.html" target="_top" xlink:title="include">
<polygon fill="#edf0f7" stroke="#7f7f7f" stroke-dasharray="5,2" points="8,-8 8,-235 305,-235 305,-8 8,-8"/>
<text text-anchor="middle" x="156.5" y="-223" font-family="Helvetica,sans-Serif" font-size="10.00">include</text>
</a>
</g>
</g>
<g id="clust2" class="cluster">
<title>clusterdir_2e0f860ba5ab93b304ae8e341906fe46</title>
<g id="a_clust2"><a xlink:href="dir_2e0f860ba5ab93b304ae8e341906fe46.html" target="_top">
<polygon fill="#edf0f7" stroke="#404040" stroke-width="2" points="96,-63 96,-208 265,-208 265,-63 96,-63"/>
</a>
</g>
</g>
<!-- dir_56fb494bfda9b75d921f5a73f9bb6191 -->
<g id="node1" class="node">
<title>dir_56fb494bfda9b75d921f5a73f9bb6191</title>
<g id="a_node1"><a xlink:href="dir_56fb494bfda9b75d921f5a73f9bb6191.html" target="_top" xlink:title="type">
<polygon fill="#a2b4d6" stroke="#404040" points="297,-35 259,-35 259,-16 297,-16 297,-35"/>
<text text-anchor="middle" x="278" y="-23" font-family="Helvetica,sans-Serif" font-size="10.00">type</text>
</a>
</g>
</g>
<!-- dir_a8b1cd4a4819f17e891fed4be1bf613f -->
<g id="node2" class="node">
<title>dir_a8b1cd4a4819f17e891fed4be1bf613f</title>
<g id="a_node2"><a xlink:href="dir_a8b1cd4a4819f17e891fed4be1bf613f.html" target="_top" xlink:title="catalog">
<polygon fill="#a2b4d6" stroke="#404040" points="69.5,-35 16.5,-35 16.5,-16 69.5,-16 69.5,-35"/>
<text text-anchor="middle" x="43" y="-23" font-family="Helvetica,sans-Serif" font-size="10.00">catalog</text>
</a>
</g>
</g>
<!-- dir_e73942be4139c49ff686e607a1824de2 -->
<g id="node3" class="node">
<title>dir_e73942be4139c49ff686e607a1824de2</title>
<g id="a_node3"><a xlink:href="dir_e73942be4139c49ff686e607a1824de2.html" target="_top" xlink:title="common">
<polygon fill="#a2b4d6" stroke="red" points="146.5,-35 87.5,-35 87.5,-16 146.5,-16 146.5,-35"/>
<text text-anchor="middle" x="117" y="-23" font-family="Helvetica,sans-Serif" font-size="10.00">common</text>
</a>
</g>
</g>
<!-- dir_fe2aa8ace742259405f3fccf93b887e4 -->
<g id="node4" class="node">
<title>dir_fe2aa8ace742259405f3fccf93b887e4</title>
<g id="a_node4"><a xlink:href="dir_fe2aa8ace742259405f3fccf93b887e4.html" target="_top" xlink:title="concurrency">
<polygon fill="#a2b4d6" stroke="#404040" points="241,-35 165,-35 165,-16 241,-16 241,-35"/>
<text text-anchor="middle" x="203" y="-23" font-family="Helvetica,sans-Serif" font-size="10.00">concurrency</text>
</a>
</g>
</g>
<!-- dir_2e0f860ba5ab93b304ae8e341906fe46 -->
<g id="node5" class="node">
<title>dir_2e0f860ba5ab93b304ae8e341906fe46</title>
<text text-anchor="middle" x="138" y="-188" font-family="Helvetica,sans-Serif" font-size="10.00">binder</text>
</g>
<!-- dir_2e0f860ba5ab93b304ae8e341906fe46&#45;&gt;dir_56fb494bfda9b75d921f5a73f9bb6191 -->
<g id="edge1" class="edge">
<title>dir_2e0f860ba5ab93b304ae8e341906fe46&#45;&gt;dir_56fb494bfda9b75d921f5a73f9bb6191</title>
<g id="a_edge1"><a xlink:href="dir_000001_000047.html" target="_top">
<path fill="none" stroke="#63b8ff" d="M160.92,-180.91C193.56,-167.29 252.21,-137.32 277,-90 284.2,-76.27 283.79,-58.46 281.96,-45.2"/>
<polygon fill="#63b8ff" stroke="#63b8ff" points="285.4,-44.56 280.22,-35.32 278.51,-45.77 285.4,-44.56"/>
</a>
</g>
<g id="a_edge1&#45;headlabel"><a xlink:href="dir_000001_000047.html" target="_top" xlink:title="6">
<text text-anchor="middle" x="288.82" y="-45.11" font-family="Helvetica,sans-Serif" font-size="10.00" fill="#63b8ff">6</text>
</a>
</g>
</g>
<!-- dir_2e0f860ba5ab93b304ae8e341906fe46&#45;&gt;dir_a8b1cd4a4819f17e891fed4be1bf613f -->
<g id="edge3" class="edge">
<title>dir_2e0f860ba5ab93b304ae8e341906fe46&#45;&gt;dir_a8b1cd4a4819f17e891fed4be1bf613f</title>
<g id="a_edge3"><a xlink:href="dir_000001_000005.html" target="_top">
<path fill="none" stroke="#63b8ff" d="M123.72,-180.94C111.6,-173.01 94.54,-160.16 84,-145 62.24,-113.69 51.06,-69.74 46.17,-45.11"/>
<polygon fill="#63b8ff" stroke="#63b8ff" points="49.61,-44.47 44.35,-35.27 42.73,-45.74 49.61,-44.47"/>
</a>
</g>
<g id="a_edge3&#45;headlabel"><a xlink:href="dir_000001_000005.html" target="_top" xlink:title="9">
<text text-anchor="middle" x="53.06" y="-44.99" font-family="Helvetica,sans-Serif" font-size="10.00" fill="#63b8ff">9</text>
</a>
</g>
</g>
<!-- dir_2e0f860ba5ab93b304ae8e341906fe46&#45;&gt;dir_e73942be4139c49ff686e607a1824de2 -->
<g id="edge5" class="edge">
<title>dir_2e0f860ba5ab93b304ae8e341906fe46&#45;&gt;dir_e73942be4139c49ff686e607a1824de2</title>
<g id="a_edge5"><a xlink:href="dir_000001_000007.html" target="_top">
<path fill="none" stroke="#63b8ff" d="M125.91,-180.75C115.79,-172.7 101.93,-159.79 95,-145 79.49,-111.91 77.26,-97.6 89,-63 91.48,-55.68 96.09,-48.68 100.86,-42.81"/>
<polygon fill="#63b8ff" stroke="#63b8ff" points="103.69,-44.89 107.73,-35.09 98.47,-40.23 103.69,-44.89"/>
</a>
</g>
<g id="a_edge5&#45;headlabel"><a xlink:href="dir_000001_000007.html" target="_top" xlink:title="12">
<text text-anchor="middle" x="103.42" y="-46.96" font-family="Helvetica,sans-Serif" font-size="10.00" fill="#63b8ff">12</text>
</a>
</g>
</g>
<!-- dir_d5e23e06757c608612918fbbc353c268 -->
<g id="node6" class="node">
<title>dir_d5e23e06757c608612918fbbc353c268</title>
<g id="a_node6"><a xlink:href="dir_d5e23e06757c608612918fbbc353c268.html" target="_top" xlink:title="expressions">
<polygon fill="#a2b4d6" stroke="#404040" points="257.5,-90 182.5,-90 182.5,-71 257.5,-71 257.5,-90"/>
<text text-anchor="middle" x="220" y="-78" font-family="Helvetica,sans-Serif" font-size="10.00">expressions</text>
</a>
</g>
</g>
<!-- dir_2e0f860ba5ab93b304ae8e341906fe46&#45;&gt;dir_d5e23e06757c608612918fbbc353c268 -->
<g id="edge4" class="edge">
<title>dir_2e0f860ba5ab93b304ae8e341906fe46&#45;&gt;dir_d5e23e06757c608612918fbbc353c268</title>
<g id="a_edge4"><a xlink:href="dir_000001_000020.html" target="_top">
<path fill="none" stroke="#63b8ff" d="M147.51,-180.83C156.66,-172.22 170.6,-158.41 181,-145 192.37,-130.33 203.24,-112.17 210.61,-99.03"/>
<polygon fill="#63b8ff" stroke="#63b8ff" points="213.76,-100.55 215.5,-90.1 207.62,-97.19 213.76,-100.55"/>
</a>
</g>
<g id="a_edge4&#45;headlabel"><a xlink:href="dir_000001_000020.html" target="_top" xlink:title="3">
<text text-anchor="middle" x="214.52" y="-102.57" font-family="Helvetica,sans-Serif" font-size="10.00" fill="#63b8ff">3</text>
</a>
</g>
</g>
<!-- dir_652bcf7e192847c9241ffc1ea719f121 -->
<g id="node7" class="node">
<title>dir_652bcf7e192847c9241ffc1ea719f121</title>
<g id="a_node7"><a xlink:href="dir_652bcf7e192847c9241ffc1ea719f121.html" target="_top" xlink:title="statement">
<polygon fill="#a2b4d6" stroke="#404040" points="171.5,-145 104.5,-145 104.5,-126 171.5,-126 171.5,-145"/>
<text text-anchor="middle" x="138" y="-133" font-family="Helvetica,sans-Serif" font-size="10.00">statement</text>
</a>
</g>
</g>
<!-- dir_2e0f860ba5ab93b304ae8e341906fe46&#45;&gt;dir_652bcf7e192847c9241ffc1ea719f121 -->
<g id="edge2" class="edge">
<title>dir_2e0f860ba5ab93b304ae8e341906fe46&#45;&gt;dir_652bcf7e192847c9241ffc1ea719f121</title>
<g id="a_edge2"><a xlink:href="dir_000001_000041.html" target="_top">
<path fill="none" stroke="#63b8ff" d="M138,-180.75C138,-173.8 138,-163.85 138,-155.13"/>
<polygon fill="#63b8ff" stroke="#63b8ff" points="141.5,-155.09 138,-145.09 134.5,-155.09 141.5,-155.09"/>
</a>
</g>
<g id="a_edge2&#45;headlabel"><a xlink:href="dir_000001_000041.html" target="_top" xlink:title="2">
<text text-anchor="middle" x="144.34" y="-156.18" font-family="Helvetica,sans-Serif" font-size="10.00" fill="#63b8ff">2</text>
</a>
</g>
</g>
<!-- dir_d5e23e06757c608612918fbbc353c268&#45;&gt;dir_56fb494bfda9b75d921f5a73f9bb6191 -->
<g id="edge6" class="edge">
<title>dir_d5e23e06757c608612918fbbc353c268&#45;&gt;dir_56fb494bfda9b75d921f5a73f9bb6191</title>
<g id="a_edge6"><a xlink:href="dir_000020_000047.html" target="_top">
<path fill="none" stroke="#63b8ff" d="M229.32,-70.98C237.81,-63.23 250.56,-51.58 260.88,-42.14"/>
<polygon fill="#63b8ff" stroke="#63b8ff" points="263.49,-44.5 268.51,-35.17 258.77,-39.33 263.49,-44.5"/>
</a>
</g>
<g id="a_edge6&#45;headlabel"><a xlink:href="dir_000020_000047.html" target="_top" xlink:title="1">
<text text-anchor="middle" x="262.75" y="-46.52" font-family="Helvetica,sans-Serif" font-size="10.00" fill="#63b8ff">1</text>
</a>
</g>
</g>
<!-- dir_d5e23e06757c608612918fbbc353c268&#45;&gt;dir_e73942be4139c49ff686e607a1824de2 -->
<g id="edge7" class="edge">
<title>dir_d5e23e06757c608612918fbbc353c268&#45;&gt;dir_e73942be4139c49ff686e607a1824de2</title>
<g id="a_edge7"><a xlink:href="dir_000020_000007.html" target="_top">
<path fill="none" stroke="#63b8ff" d="M203.45,-70.98C187.11,-62.57 161.87,-49.59 142.87,-39.81"/>
<polygon fill="#63b8ff" stroke="#63b8ff" points="144.34,-36.63 133.85,-35.17 141.14,-42.86 144.34,-36.63"/>
</a>
</g>
<g id="a_edge7&#45;headlabel"><a xlink:href="dir_000020_000007.html" target="_top" xlink:title="2">
<text text-anchor="middle" x="148.84" y="-33.25" font-family="Helvetica,sans-Serif" font-size="10.00" fill="#63b8ff">2</text>
</a>
</g>
</g>
<!-- dir_652bcf7e192847c9241ffc1ea719f121&#45;&gt;dir_56fb494bfda9b75d921f5a73f9bb6191 -->
<g id="edge8" class="edge">
<title>dir_652bcf7e192847c9241ffc1ea719f121&#45;&gt;dir_56fb494bfda9b75d921f5a73f9bb6191</title>
<g id="a_edge8"><a xlink:href="dir_000041_000047.html" target="_top">
<path fill="none" stroke="#63b8ff" d="M171.75,-126.97C205.61,-118.72 254.49,-104.7 267,-90 277.42,-77.75 279.61,-59.24 279.52,-45.35"/>
<polygon fill="#63b8ff" stroke="#63b8ff" points="283,-44.85 279.05,-35.02 276.01,-45.17 283,-44.85"/>
</a>
</g>
<g id="a_edge8&#45;headlabel"><a xlink:href="dir_000041_000047.html" target="_top" xlink:title="2">
<text text-anchor="middle" x="286" y="-45.81" font-family="Helvetica,sans-Serif" font-size="10.00" fill="#63b8ff">2</text>
</a>
</g>
</g>
<!-- dir_652bcf7e192847c9241ffc1ea719f121&#45;&gt;dir_a8b1cd4a4819f17e891fed4be1bf613f -->
<g id="edge10" class="edge">
<title>dir_652bcf7e192847c9241ffc1ea719f121&#45;&gt;dir_a8b1cd4a4819f17e891fed4be1bf613f</title>
<g id="a_edge10"><a xlink:href="dir_000041_000005.html" target="_top">
<path fill="none" stroke="#63b8ff" d="M127.28,-125.88C116.94,-117.31 101.11,-103.53 89,-90 75.85,-75.31 62.85,-56.91 54.05,-43.71"/>
<polygon fill="#63b8ff" stroke="#63b8ff" points="56.84,-41.59 48.43,-35.14 50.99,-45.42 56.84,-41.59"/>
</a>
</g>
<g id="a_edge10&#45;headlabel"><a xlink:href="dir_000041_000005.html" target="_top" xlink:title="5">
<text text-anchor="middle" x="61.19" y="-40.54" font-family="Helvetica,sans-Serif" font-size="10.00" fill="#63b8ff">5</text>
</a>
</g>
</g>
<!-- dir_652bcf7e192847c9241ffc1ea719f121&#45;&gt;dir_e73942be4139c49ff686e607a1824de2 -->
<g id="edge12" class="edge">
<title>dir_652bcf7e192847c9241ffc1ea719f121&#45;&gt;dir_e73942be4139c49ff686e607a1824de2</title>
<g id="a_edge12"><a xlink:href="dir_000041_000007.html" target="_top">
<path fill="none" stroke="#63b8ff" d="M125.51,-125.93C115.13,-117.99 101.12,-105.14 95,-90 90.5,-78.87 91.79,-74.56 95,-63 96.9,-56.17 100.46,-49.34 104.17,-43.47"/>
<polygon fill="#63b8ff" stroke="#63b8ff" points="107.1,-45.38 109.91,-35.16 101.34,-41.4 107.1,-45.38"/>
</a>
</g>
<g id="a_edge12&#45;headlabel"><a xlink:href="dir_000041_000007.html" target="_top" xlink:title="2">
<text text-anchor="middle" x="107.39" y="-47.45" font-family="Helvetica,sans-Serif" font-size="10.00" fill="#63b8ff">2</text>
</a>
</g>
</g>
<!-- dir_652bcf7e192847c9241ffc1ea719f121&#45;&gt;dir_d5e23e06757c608612918fbbc353c268 -->
<g id="edge11" class="edge">
<title>dir_652bcf7e192847c9241ffc1ea719f121&#45;&gt;dir_d5e23e06757c608612918fbbc353c268</title>
<g id="a_edge11"><a xlink:href="dir_000041_000020.html" target="_top">
<path fill="none" stroke="#63b8ff" d="M151.17,-125.98C163.77,-117.84 183,-105.41 197.94,-95.76"/>
<polygon fill="#63b8ff" stroke="#63b8ff" points="200.09,-98.54 206.59,-90.17 196.29,-92.66 200.09,-98.54"/>
</a>
</g>
<g id="a_edge11&#45;headlabel"><a xlink:href="dir_000041_000020.html" target="_top" xlink:title="2">
<text text-anchor="middle" x="198.61" y="-100.37" font-family="Helvetica,sans-Serif" font-size="10.00" fill="#63b8ff">2</text>
</a>
</g>
</g>
<!-- dir_93a7ffd7f322a5d0f52642ab88e4386e -->
<g id="node8" class="node">
<title>dir_93a7ffd7f322a5d0f52642ab88e4386e</title>
<g id="a_node8"><a xlink:href="dir_93a7ffd7f322a5d0f52642ab88e4386e.html" target="_top" xlink:title="table_ref">
<polygon fill="#a2b4d6" stroke="#404040" points="164,-90 104,-90 104,-71 164,-71 164,-90"/>
<text text-anchor="middle" x="134" y="-78" font-family="Helvetica,sans-Serif" font-size="10.00">table_ref</text>
</a>
</g>
</g>
<!-- dir_652bcf7e192847c9241ffc1ea719f121&#45;&gt;dir_93a7ffd7f322a5d0f52642ab88e4386e -->
<g id="edge9" class="edge">
<title>dir_652bcf7e192847c9241ffc1ea719f121&#45;&gt;dir_93a7ffd7f322a5d0f52642ab88e4386e</title>
<g id="a_edge9"><a xlink:href="dir_000041_000046.html" target="_top">
<path fill="none" stroke="#63b8ff" d="M137.34,-125.75C136.82,-118.8 136.06,-108.85 135.41,-100.13"/>
<polygon fill="#63b8ff" stroke="#63b8ff" points="138.89,-99.8 134.65,-90.09 131.91,-100.32 138.89,-99.8"/>
</a>
</g>
<g id="a_edge9&#45;headlabel"><a xlink:href="dir_000041_000046.html" target="_top" xlink:title="5">
<text text-anchor="middle" x="141.99" y="-100.67" font-family="Helvetica,sans-Serif" font-size="10.00" fill="#63b8ff">5</text>
</a>
</g>
</g>
<!-- dir_93a7ffd7f322a5d0f52642ab88e4386e&#45;&gt;dir_56fb494bfda9b75d921f5a73f9bb6191 -->
<g id="edge13" class="edge">
<title>dir_93a7ffd7f322a5d0f52642ab88e4386e&#45;&gt;dir_56fb494bfda9b75d921f5a73f9bb6191</title>
<g id="a_edge13"><a xlink:href="dir_000046_000047.html" target="_top">
<path fill="none" stroke="#63b8ff" d="M154.26,-70.89C160.56,-68.29 167.54,-65.46 174,-63 199.2,-53.39 228.17,-43.3 249.13,-36.17"/>
<polygon fill="#63b8ff" stroke="#63b8ff" points="250.37,-39.44 258.72,-32.92 248.13,-32.81 250.37,-39.44"/>
</a>
</g>
<g id="a_edge13&#45;headlabel"><a xlink:href="dir_000046_000047.html" target="_top" xlink:title="1">
<text text-anchor="middle" x="247.88" y="-40.78" font-family="Helvetica,sans-Serif" font-size="10.00" fill="#63b8ff">1</text>
</a>
</g>
</g>
<!-- dir_93a7ffd7f322a5d0f52642ab88e4386e&#45;&gt;dir_a8b1cd4a4819f17e891fed4be1bf613f -->
<g id="edge14" class="edge">
<title>dir_93a7ffd7f322a5d0f52642ab88e4386e&#45;&gt;dir_a8b1cd4a4819f17e891fed4be1bf613f</title>
<g id="a_edge14"><a xlink:href="dir_000046_000005.html" target="_top">
<path fill="none" stroke="#63b8ff" d="M119.38,-70.98C105.14,-62.69 83.25,-49.94 66.55,-40.22"/>
<polygon fill="#63b8ff" stroke="#63b8ff" points="68.29,-37.18 57.89,-35.17 64.77,-43.23 68.29,-37.18"/>
</a>
</g>
<g id="a_edge14&#45;headlabel"><a xlink:href="dir_000046_000005.html" target="_top" xlink:title="2">
<text text-anchor="middle" x="72.82" y="-34.03" font-family="Helvetica,sans-Serif" font-size="10.00" fill="#63b8ff">2</text>
</a>
</g>
</g>
<!-- dir_93a7ffd7f322a5d0f52642ab88e4386e&#45;&gt;dir_fe2aa8ace742259405f3fccf93b887e4 -->
<g id="edge15" class="edge">
<title>dir_93a7ffd7f322a5d0f52642ab88e4386e&#45;&gt;dir_fe2aa8ace742259405f3fccf93b887e4</title>
<g id="a_edge15"><a xlink:href="dir_000046_000009.html" target="_top">
<path fill="none" stroke="#63b8ff" d="M145.09,-70.98C155.49,-63 171.26,-50.88 183.72,-41.31"/>
<polygon fill="#63b8ff" stroke="#63b8ff" points="185.91,-44.04 191.71,-35.17 181.65,-38.49 185.91,-44.04"/>
</a>
</g>
<g id="a_edge15&#45;headlabel"><a xlink:href="dir_000046_000009.html" target="_top" xlink:title="1">
<text text-anchor="middle" x="184.79" y="-45.98" font-family="Helvetica,sans-Serif" font-size="10.00" fill="#63b8ff">1</text>
</a>
</g>
</g>
</g>
</svg>
