<?xml version="1.0" encoding="UTF-8" standalone="no"?>
<!DOCTYPE svg PUBLIC "-//W3C//DTD SVG 1.1//EN"
 "http://www.w3.org/Graphics/SVG/1.1/DTD/svg11.dtd">
<!-- Generated by graphviz version 2.43.0 (0)
 -->
<!-- Title: src Pages: 1 -->
<svg width="1028pt" height="114pt"
 viewBox="0.00 0.00 1028.00 114.00" xmlns="http://www.w3.org/2000/svg" xmlns:xlink="http://www.w3.org/1999/xlink">
<g id="graph0" class="graph" transform="scale(1 1) rotate(0) translate(4 110)">
<title>src</title>
<g id="clust1" class="cluster">
<title>clusterdir_68267d1309a1af8e8297ef4c3efbcdba</title>
<g id="a_clust1"><a xlink:href="dir_68267d1309a1af8e8297ef4c3efbcdba.html" target="_top">
<polygon fill="#edf0f7" stroke="#404040" stroke-width="2" points="8,-8 8,-98 1012,-98 1012,-8 8,-8"/>
</a>
</g>
</g>
<!-- dir_68267d1309a1af8e8297ef4c3efbcdba -->
<g id="node1" class="node">
<title>dir_68267d1309a1af8e8297ef4c3efbcdba</title>
<text text-anchor="middle" x="988" y="-78" font-family="Helvetica,sans-Serif" font-size="10.00">src</text>
</g>
<!-- dir_9d8ed7771f1803edb22858d839d79fbd -->
<g id="node2" class="node">
<title>dir_9d8ed7771f1803edb22858d839d79fbd</title>
<g id="a_node2"><a xlink:href="dir_9d8ed7771f1803edb22858d839d79fbd.html" target="_top" xlink:title="binder">
<polygon fill="#a2b4d6" stroke="#404040" points="954.5,-90 907.5,-90 907.5,-71 954.5,-71 954.5,-90"/>
<text text-anchor="middle" x="931" y="-78" font-family="Helvetica,sans-Serif" font-size="10.00">binder</text>
</a>
</g>
</g>
<!-- dir_b0856f6b0d80ccb263b2f415c91f9e17 -->
<g id="node9" class="node">
<title>dir_b0856f6b0d80ccb263b2f415c91f9e17</title>
<g id="a_node9"><a xlink:href="dir_b0856f6b0d80ccb263b2f415c91f9e17.html" target="_top" xlink:title="include">
<polygon fill="#a2b4d6" stroke="#404040" points="498,-35 446,-35 446,-16 498,-16 498,-35"/>
<text text-anchor="middle" x="472" y="-23" font-family="Helvetica,sans-Serif" font-size="10.00">include</text>
</a>
</g>
</g>
<!-- dir_9d8ed7771f1803edb22858d839d79fbd&#45;&gt;dir_b0856f6b0d80ccb263b2f415c91f9e17 -->
<g id="edge1" class="edge">
<title>dir_9d8ed7771f1803edb22858d839d79fbd&#45;&gt;dir_b0856f6b0d80ccb263b2f415c91f9e17</title>
<g id="a_edge1"><a xlink:href="dir_000000_000025.html" target="_top">
<path fill="none" stroke="#63b8ff" d="M907.33,-72.77C904.53,-72.11 901.71,-71.5 899,-71 755.77,-44.68 582.43,-32.61 508.38,-28.38"/>
<polygon fill="#63b8ff" stroke="#63b8ff" points="508.38,-24.87 498.2,-27.81 507.98,-31.86 508.38,-24.87"/>
</a>
</g>
<g id="a_edge1&#45;headlabel"><a xlink:href="dir_000000_000025.html" target="_top" xlink:title="141">
<text text-anchor="middle" x="512.12" y="-19.74" font-family="Helvetica,sans-Serif" font-size="10.00" fill="#63b8ff">141</text>
</a>
</g>
</g>
<!-- dir_bb677b0aa0cb8f6cf37e5f61e8bc8b6d -->
<g id="node3" class="node">
<title>dir_bb677b0aa0cb8f6cf37e5f61e8bc8b6d</title>
<g id="a_node3"><a xlink:href="dir_bb677b0aa0cb8f6cf37e5f61e8bc8b6d.html" target="_top" xlink:title="buffer">
<polygon fill="#a2b4d6" stroke="#404040" points="889.5,-90 844.5,-90 844.5,-71 889.5,-71 889.5,-90"/>
<text text-anchor="middle" x="867" y="-78" font-family="Helvetica,sans-Serif" font-size="10.00">buffer</text>
</a>
</g>
</g>
<!-- dir_bb677b0aa0cb8f6cf37e5f61e8bc8b6d&#45;&gt;dir_b0856f6b0d80ccb263b2f415c91f9e17 -->
<g id="edge2" class="edge">
<title>dir_bb677b0aa0cb8f6cf37e5f61e8bc8b6d&#45;&gt;dir_b0856f6b0d80ccb263b2f415c91f9e17</title>
<g id="a_edge2"><a xlink:href="dir_000002_000025.html" target="_top">
<path fill="none" stroke="#63b8ff" d="M844.4,-72.89C841.59,-72.19 838.74,-71.54 836,-71 717.37,-47.61 574.41,-34.43 508.52,-29.19"/>
<polygon fill="#63b8ff" stroke="#63b8ff" points="508.49,-25.68 498.25,-28.39 507.94,-32.66 508.49,-25.68"/>
</a>
</g>
<g id="a_edge2&#45;headlabel"><a xlink:href="dir_000002_000025.html" target="_top" xlink:title="8">
<text text-anchor="middle" x="512.3" y="-20.63" font-family="Helvetica,sans-Serif" font-size="10.00" fill="#63b8ff">8</text>
</a>
</g>
</g>
<!-- dir_e3894046d46ff04cb91c5590b09dc001 -->
<g id="node4" class="node">
<title>dir_e3894046d46ff04cb91c5590b09dc001</title>
<g id="a_node4"><a xlink:href="dir_e3894046d46ff04cb91c5590b09dc001.html" target="_top" xlink:title="catalog">
<polygon fill="#a2b4d6" stroke="#404040" points="826.5,-90 773.5,-90 773.5,-71 826.5,-71 826.5,-90"/>
<text text-anchor="middle" x="800" y="-78" font-family="Helvetica,sans-Serif" font-size="10.00">catalog</text>
</a>
</g>
</g>
<!-- dir_e3894046d46ff04cb91c5590b09dc001&#45;&gt;dir_b0856f6b0d80ccb263b2f415c91f9e17 -->
<g id="edge3" class="edge">
<title>dir_e3894046d46ff04cb91c5590b09dc001&#45;&gt;dir_b0856f6b0d80ccb263b2f415c91f9e17</title>
<g id="a_edge3"><a xlink:href="dir_000004_000025.html" target="_top">
<path fill="none" stroke="#63b8ff" d="M773.3,-72.76C770.5,-72.13 767.7,-71.53 765,-71 673,-52.88 563.49,-38 508.03,-30.94"/>
<polygon fill="#63b8ff" stroke="#63b8ff" points="508.36,-27.45 498,-29.67 507.48,-34.4 508.36,-27.45"/>
</a>
</g>
<g id="a_edge3&#45;headlabel"><a xlink:href="dir_000004_000025.html" target="_top" xlink:title="4">
<text text-anchor="middle" x="512.28" y="-22.59" font-family="Helvetica,sans-Serif" font-size="10.00" fill="#63b8ff">4</text>
</a>
</g>
</g>
<!-- dir_fdedb0aba14d44ce9d99bc100e026e6a -->
<g id="node5" class="node">
<title>dir_fdedb0aba14d44ce9d99bc100e026e6a</title>
<g id="a_node5"><a xlink:href="dir_fdedb0aba14d44ce9d99bc100e026e6a.html" target="_top" xlink:title="common">
<polygon fill="#a2b4d6" stroke="#404040" points="755.5,-90 696.5,-90 696.5,-71 755.5,-71 755.5,-90"/>
<text text-anchor="middle" x="726" y="-78" font-family="Helvetica,sans-Serif" font-size="10.00">common</text>
</a>
</g>
</g>
<!-- dir_fdedb0aba14d44ce9d99bc100e026e6a&#45;&gt;dir_b0856f6b0d80ccb263b2f415c91f9e17 -->
<g id="edge4" class="edge">
<title>dir_fdedb0aba14d44ce9d99bc100e026e6a&#45;&gt;dir_b0856f6b0d80ccb263b2f415c91f9e17</title>
<g id="a_edge4"><a xlink:href="dir_000006_000025.html" target="_top">
<path fill="none" stroke="#63b8ff" d="M696.2,-72.97C693.09,-72.3 689.98,-71.63 687,-71 624.14,-57.64 550.82,-42.58 508.09,-33.85"/>
<polygon fill="#63b8ff" stroke="#63b8ff" points="508.66,-30.39 498.16,-31.82 507.26,-37.25 508.66,-30.39"/>
</a>
</g>
<g id="a_edge4&#45;headlabel"><a xlink:href="dir_000006_000025.html" target="_top" xlink:title="64">
<text text-anchor="middle" x="512.75" y="-25.83" font-family="Helvetica,sans-Serif" font-size="10.00" fill="#63b8ff">64</text>
</a>
</g>
</g>
<!-- dir_2c0c1a91490a41565d9fe0ee1c4cba07 -->
<g id="node6" class="node">
<title>dir_2c0c1a91490a41565d9fe0ee1c4cba07</title>
<g id="a_node6"><a xlink:href="dir_2c0c1a91490a41565d9fe0ee1c4cba07.html" target="_top" xlink:title="concurrency">
<polygon fill="#a2b4d6" stroke="#404040" points="678,-90 602,-90 602,-71 678,-71 678,-90"/>
<text text-anchor="middle" x="640" y="-78" font-family="Helvetica,sans-Serif" font-size="10.00">concurrency</text>
</a>
</g>
</g>
<!-- dir_2c0c1a91490a41565d9fe0ee1c4cba07&#45;&gt;dir_b0856f6b0d80ccb263b2f415c91f9e17 -->
<g id="edge5" class="edge">
<title>dir_2c0c1a91490a41565d9fe0ee1c4cba07&#45;&gt;dir_b0856f6b0d80ccb263b2f415c91f9e17</title>
<g id="a_edge5"><a xlink:href="dir_000008_000025.html" target="_top">
<path fill="none" stroke="#63b8ff" d="M613.01,-70.98C584.47,-61.98 539.3,-47.73 507.8,-37.8"/>
<polygon fill="#63b8ff" stroke="#63b8ff" points="508.69,-34.4 498.1,-34.73 506.58,-41.08 508.69,-34.4"/>
</a>
</g>
<g id="a_edge5&#45;headlabel"><a xlink:href="dir_000008_000025.html" target="_top" xlink:title="34">
<text text-anchor="middle" x="512.97" y="-30.28" font-family="Helvetica,sans-Serif" font-size="10.00" fill="#63b8ff">34</text>
</a>
</g>
</g>
<!-- dir_1b313d86a3cedf427c8a82c0995b1bb6 -->
<g id="node7" class="node">
<title>dir_1b313d86a3cedf427c8a82c0995b1bb6</title>
<g id="a_node7"><a xlink:href="dir_1b313d86a3cedf427c8a82c0995b1bb6.html" target="_top" xlink:title="container">
<polygon fill="#a2b4d6" stroke="#404040" points="584,-90 522,-90 522,-71 584,-71 584,-90"/>
<text text-anchor="middle" x="553" y="-78" font-family="Helvetica,sans-Serif" font-size="10.00">container</text>
</a>
</g>
</g>
<!-- dir_1b313d86a3cedf427c8a82c0995b1bb6&#45;&gt;dir_b0856f6b0d80ccb263b2f415c91f9e17 -->
<g id="edge6" class="edge">
<title>dir_1b313d86a3cedf427c8a82c0995b1bb6&#45;&gt;dir_b0856f6b0d80ccb263b2f415c91f9e17</title>
<g id="a_edge6"><a xlink:href="dir_000010_000025.html" target="_top">
<path fill="none" stroke="#63b8ff" d="M539.99,-70.98C527.54,-62.84 508.54,-50.41 493.79,-40.76"/>
<polygon fill="#63b8ff" stroke="#63b8ff" points="495.54,-37.72 485.25,-35.17 491.7,-43.57 495.54,-37.72"/>
</a>
</g>
<g id="a_edge6&#45;headlabel"><a xlink:href="dir_000010_000025.html" target="_top" xlink:title="13">
<text text-anchor="middle" x="500.1" y="-34.81" font-family="Helvetica,sans-Serif" font-size="10.00" fill="#63b8ff">13</text>
</a>
</g>
</g>
<!-- dir_bd0755c95a42e835fb06f38bbeb1d6ed -->
<g id="node8" class="node">
<title>dir_bd0755c95a42e835fb06f38bbeb1d6ed</title>
<g id="a_node8"><a xlink:href="dir_bd0755c95a42e835fb06f38bbeb1d6ed.html" target="_top" xlink:title="execution">
<polygon fill="#a2b4d6" stroke="#404040" points="504,-90 440,-90 440,-71 504,-71 504,-90"/>
<text text-anchor="middle" x="472" y="-78" font-family="Helvetica,sans-Serif" font-size="10.00">execution</text>
</a>
</g>
</g>
<!-- dir_bd0755c95a42e835fb06f38bbeb1d6ed&#45;&gt;dir_b0856f6b0d80ccb263b2f415c91f9e17 -->
<g id="edge7" class="edge">
<title>dir_bd0755c95a42e835fb06f38bbeb1d6ed&#45;&gt;dir_b0856f6b0d80ccb263b2f415c91f9e17</title>
<g id="a_edge7"><a xlink:href="dir_000017_000025.html" target="_top">
<path fill="none" stroke="#63b8ff" d="M472,-70.75C472,-63.8 472,-53.85 472,-45.13"/>
<polygon fill="#63b8ff" stroke="#63b8ff" points="475.5,-45.09 472,-35.09 468.5,-45.09 475.5,-45.09"/>
</a>
</g>
<g id="a_edge7&#45;headlabel"><a xlink:href="dir_000017_000025.html" target="_top" xlink:title="99">
<text text-anchor="middle" x="478.34" y="-46.18" font-family="Helvetica,sans-Serif" font-size="10.00" fill="#63b8ff">99</text>
</a>
</g>
</g>
<!-- dir_fef26d3633d38d4ca65fa53115b5e5dd -->
<g id="node10" class="node">
<title>dir_fef26d3633d38d4ca65fa53115b5e5dd</title>
<g id="a_node10"><a xlink:href="dir_fef26d3633d38d4ca65fa53115b5e5dd.html" target="_top" xlink:title="optimizer">
<polygon fill="#a2b4d6" stroke="#404040" points="421.5,-90 358.5,-90 358.5,-71 421.5,-71 421.5,-90"/>
<text text-anchor="middle" x="390" y="-78" font-family="Helvetica,sans-Serif" font-size="10.00">optimizer</text>
</a>
</g>
</g>
<!-- dir_fef26d3633d38d4ca65fa53115b5e5dd&#45;&gt;dir_b0856f6b0d80ccb263b2f415c91f9e17 -->
<g id="edge8" class="edge">
<title>dir_fef26d3633d38d4ca65fa53115b5e5dd&#45;&gt;dir_b0856f6b0d80ccb263b2f415c91f9e17</title>
<g id="a_edge8"><a xlink:href="dir_000029_000025.html" target="_top">
<path fill="none" stroke="#63b8ff" d="M403.17,-70.98C415.77,-62.84 435,-50.41 449.94,-40.76"/>
<polygon fill="#63b8ff" stroke="#63b8ff" points="452.09,-43.54 458.59,-35.17 448.29,-37.66 452.09,-43.54"/>
</a>
</g>
<g id="a_edge8&#45;headlabel"><a xlink:href="dir_000029_000025.html" target="_top" xlink:title="83">
<text text-anchor="middle" x="450.61" y="-45.37" font-family="Helvetica,sans-Serif" font-size="10.00" fill="#63b8ff">83</text>
</a>
</g>
</g>
<!-- dir_3feec11478e6a4e85cb0c0b3f238d10d -->
<g id="node11" class="node">
<title>dir_3feec11478e6a4e85cb0c0b3f238d10d</title>
<g id="a_node11"><a xlink:href="dir_3feec11478e6a4e85cb0c0b3f238d10d.html" target="_top" xlink:title="planner">
<polygon fill="#a2b4d6" stroke="#404040" points="340.5,-90 287.5,-90 287.5,-71 340.5,-71 340.5,-90"/>
<text text-anchor="middle" x="314" y="-78" font-family="Helvetica,sans-Serif" font-size="10.00">planner</text>
</a>
</g>
</g>
<!-- dir_3feec11478e6a4e85cb0c0b3f238d10d&#45;&gt;dir_b0856f6b0d80ccb263b2f415c91f9e17 -->
<g id="edge9" class="edge">
<title>dir_3feec11478e6a4e85cb0c0b3f238d10d&#45;&gt;dir_b0856f6b0d80ccb263b2f415c91f9e17</title>
<g id="a_edge9"><a xlink:href="dir_000033_000025.html" target="_top">
<path fill="none" stroke="#63b8ff" d="M339.39,-70.98C365.8,-62.13 407.35,-48.19 436.89,-38.28"/>
<polygon fill="#63b8ff" stroke="#63b8ff" points="438.05,-41.58 446.42,-35.08 435.82,-34.94 438.05,-41.58"/>
</a>
</g>
<g id="a_edge9&#45;headlabel"><a xlink:href="dir_000033_000025.html" target="_top" xlink:title="175">
<text text-anchor="middle" x="435.54" y="-42.92" font-family="Helvetica,sans-Serif" font-size="10.00" fill="#63b8ff">175</text>
</a>
</g>
</g>
<!-- dir_3660c4b97e1e53512107163a8b8eddf2 -->
<g id="node12" class="node">
<title>dir_3660c4b97e1e53512107163a8b8eddf2</title>
<g id="a_node12"><a xlink:href="dir_3660c4b97e1e53512107163a8b8eddf2.html" target="_top" xlink:title="primer">
<polygon fill="#a2b4d6" stroke="#404040" points="269.5,-90 220.5,-90 220.5,-71 269.5,-71 269.5,-90"/>
<text text-anchor="middle" x="245" y="-78" font-family="Helvetica,sans-Serif" font-size="10.00">primer</text>
</a>
</g>
</g>
<!-- dir_3660c4b97e1e53512107163a8b8eddf2&#45;&gt;dir_b0856f6b0d80ccb263b2f415c91f9e17 -->
<g id="edge10" class="edge">
<title>dir_3660c4b97e1e53512107163a8b8eddf2&#45;&gt;dir_b0856f6b0d80ccb263b2f415c91f9e17</title>
<g id="a_edge10"><a xlink:href="dir_000036_000025.html" target="_top">
<path fill="none" stroke="#63b8ff" d="M269.5,-73.32C272.69,-72.53 275.92,-71.74 279,-71 333.63,-57.87 397.15,-43.37 435.95,-34.6"/>
<polygon fill="#63b8ff" stroke="#63b8ff" points="436.76,-38.01 445.74,-32.39 435.22,-31.18 436.76,-38.01"/>
</a>
</g>
<g id="a_edge10&#45;headlabel"><a xlink:href="dir_000036_000025.html" target="_top" xlink:title="5">
<text text-anchor="middle" x="433.88" y="-39.07" font-family="Helvetica,sans-Serif" font-size="10.00" fill="#63b8ff">5</text>
</a>
</g>
</g>
<!-- dir_65bf857df52c5bb0cdbe90b3869de0ee -->
<g id="node13" class="node">
<title>dir_65bf857df52c5bb0cdbe90b3869de0ee</title>
<g id="a_node13"><a xlink:href="dir_65bf857df52c5bb0cdbe90b3869de0ee.html" target="_top" xlink:title="recovery">
<polygon fill="#a2b4d6" stroke="#404040" points="202.5,-90 143.5,-90 143.5,-71 202.5,-71 202.5,-90"/>
<text text-anchor="middle" x="173" y="-78" font-family="Helvetica,sans-Serif" font-size="10.00">recovery</text>
</a>
</g>
</g>
<!-- dir_65bf857df52c5bb0cdbe90b3869de0ee&#45;&gt;dir_b0856f6b0d80ccb263b2f415c91f9e17 -->
<g id="edge11" class="edge">
<title>dir_65bf857df52c5bb0cdbe90b3869de0ee&#45;&gt;dir_b0856f6b0d80ccb263b2f415c91f9e17</title>
<g id="a_edge11"><a xlink:href="dir_000038_000025.html" target="_top">
<path fill="none" stroke="#63b8ff" d="M202.78,-72.86C205.89,-72.22 209.01,-71.58 212,-71 291.53,-55.54 385.31,-40.19 435.66,-32.19"/>
<polygon fill="#63b8ff" stroke="#63b8ff" points="436.4,-35.62 445.73,-30.6 435.3,-28.7 436.4,-35.62"/>
</a>
</g>
<g id="a_edge11&#45;headlabel"><a xlink:href="dir_000038_000025.html" target="_top" xlink:title="2">
<text text-anchor="middle" x="433.29" y="-36.48" font-family="Helvetica,sans-Serif" font-size="10.00" fill="#63b8ff">2</text>
</a>
</g>
</g>
<!-- dir_452baf35e1d7639c9f2a5ece4ec85855 -->
<g id="node14" class="node">
<title>dir_452baf35e1d7639c9f2a5ece4ec85855</title>
<g id="a_node14"><a xlink:href="dir_452baf35e1d7639c9f2a5ece4ec85855.html" target="_top" xlink:title="storage">
<polygon fill="#a2b4d6" stroke="#404040" points="125.5,-90 72.5,-90 72.5,-71 125.5,-71 125.5,-90"/>
<text text-anchor="middle" x="99" y="-78" font-family="Helvetica,sans-Serif" font-size="10.00">storage</text>
</a>
</g>
</g>
<!-- dir_452baf35e1d7639c9f2a5ece4ec85855&#45;&gt;dir_b0856f6b0d80ccb263b2f415c91f9e17 -->
<g id="edge12" class="edge">
<title>dir_452baf35e1d7639c9f2a5ece4ec85855&#45;&gt;dir_b0856f6b0d80ccb263b2f415c91f9e17</title>
<g id="a_edge12"><a xlink:href="dir_000043_000025.html" target="_top">
<path fill="none" stroke="#63b8ff" d="M125.67,-72.89C128.81,-72.2 131.97,-71.56 135,-71 243.64,-51.05 373.57,-36.49 435.58,-30.09"/>
<polygon fill="#63b8ff" stroke="#63b8ff" points="436.05,-33.57 445.64,-29.07 435.34,-26.6 436.05,-33.57"/>
</a>
</g>
<g id="a_edge12&#45;headlabel"><a xlink:href="dir_000043_000025.html" target="_top" xlink:title="64">
<text text-anchor="middle" x="432.76" y="-34.25" font-family="Helvetica,sans-Serif" font-size="10.00" fill="#63b8ff">64</text>
</a>
</g>
</g>
<!-- dir_372c2b9db8884546e49e64b9093f9351 -->
<g id="node15" class="node">
<title>dir_372c2b9db8884546e49e64b9093f9351</title>
<g id="a_node15"><a xlink:href="dir_372c2b9db8884546e49e64b9093f9351.html" target="_top" xlink:title="type">
<polygon fill="#a2b4d6" stroke="#404040" points="54,-90 16,-90 16,-71 54,-71 54,-90"/>
<text text-anchor="middle" x="35" y="-78" font-family="Helvetica,sans-Serif" font-size="10.00">type</text>
</a>
</g>
</g>
<!-- dir_372c2b9db8884546e49e64b9093f9351&#45;&gt;dir_b0856f6b0d80ccb263b2f415c91f9e17 -->
<g id="edge13" class="edge">
<title>dir_372c2b9db8884546e49e64b9093f9351&#45;&gt;dir_b0856f6b0d80ccb263b2f415c91f9e17</title>
<g id="a_edge13"><a xlink:href="dir_000048_000025.html" target="_top">
<path fill="none" stroke="#63b8ff" d="M54.23,-73.35C57.46,-72.46 60.81,-71.64 64,-71 199.59,-43.96 364.03,-32.34 435.7,-28.31"/>
<polygon fill="#63b8ff" stroke="#63b8ff" points="436.19,-31.78 445.98,-27.74 435.81,-24.79 436.19,-31.78"/>
</a>
</g>
<g id="a_edge13&#45;headlabel"><a xlink:href="dir_000048_000025.html" target="_top" xlink:title="27">
<text text-anchor="middle" x="432.75" y="-32.32" font-family="Helvetica,sans-Serif" font-size="10.00" fill="#63b8ff">27</text>
</a>
</g>
</g>
</g>
</svg>
