<?xml version="1.0" encoding="UTF-8" standalone="no"?>
<!DOCTYPE svg PUBLIC "-//W3C//DTD SVG 1.1//EN"
 "http://www.w3.org/Graphics/SVG/1.1/DTD/svg11.dtd">
<!-- Generated by graphviz version 2.43.0 (0)
 -->
<!-- Title: 类继承关系图 Pages: 1 -->
<svg width="474pt" height="64pt"
 viewBox="0.00 0.00 474.00 64.00" xmlns="http://www.w3.org/2000/svg" xmlns:xlink="http://www.w3.org/1999/xlink">
<g id="graph0" class="graph" transform="scale(1 1) rotate(0) translate(4 60)">
<title>类继承关系图</title>
<!-- Node0 -->
<g id="Node000000" class="node">
<title>Node0</title>
<g id="a_Node000000"><a xlink:title=" ">
<polygon fill="#e0e0e0" stroke="#999999" points="104,-37 0,-37 0,-18 104,-18 104,-37"/>
<text text-anchor="middle" x="52" y="-25" font-family="Helvetica,sans-Serif" font-size="10.00">std::runtime_error</text>
</a>
</g>
</g>
<!-- Node1 -->
<g id="Node000001" class="node">
<title>Node1</title>
<g id="a_Node000001"><a xlink:href="de/d90/classbustub_1_1Exception.html" target="_top" xlink:title=" ">
<polygon fill="white" stroke="#666666" points="244,-37 140,-37 140,-18 244,-18 244,-37"/>
<text text-anchor="middle" x="192" y="-25" font-family="Helvetica,sans-Serif" font-size="10.00">bustub::Exception</text>
</a>
</g>
</g>
<!-- Node0&#45;&gt;Node1 -->
<g id="edge129_Node000000_Node000001" class="edge">
<title>Node0&#45;&gt;Node1</title>
<g id="a_edge129_Node000000_Node000001"><a xlink:title=" ">
<path fill="none" stroke="#63b8ff" d="M114.5,-27.5C122.87,-27.5 131.4,-27.5 139.57,-27.5"/>
<polygon fill="#63b8ff" stroke="#63b8ff" points="114.39,-24 104.39,-27.5 114.39,-31 114.39,-24"/>
</a>
</g>
</g>
<!-- Node2 -->
<g id="Node000002" class="node">
<title>Node2</title>
<g id="a_Node000002"><a xlink:href="d2/d07/classbustub_1_1ExecutionException.html" target="_top" xlink:title=" ">
<polygon fill="white" stroke="#666666" points="448.5,-56 297.5,-56 297.5,-37 448.5,-37 448.5,-56"/>
<text text-anchor="middle" x="373" y="-44" font-family="Helvetica,sans-Serif" font-size="10.00">bustub::ExecutionException</text>
</a>
</g>
</g>
<!-- Node1&#45;&gt;Node2 -->
<g id="edge130_Node000001_Node000002" class="edge">
<title>Node1&#45;&gt;Node2</title>
<g id="a_edge130_Node000001_Node000002"><a xlink:title=" ">
<path fill="none" stroke="#63b8ff" d="M254.61,-34.04C268.37,-35.5 283.12,-37.07 297.35,-38.58"/>
<polygon fill="#63b8ff" stroke="#63b8ff" points="254.61,-30.52 244.29,-32.94 253.87,-37.48 254.61,-30.52"/>
</a>
</g>
</g>
<!-- Node3 -->
<g id="Node000003" class="node">
<title>Node3</title>
<g id="a_Node000003"><a xlink:href="d9/df6/classbustub_1_1NotImplementedException.html" target="_top" xlink:title=" ">
<polygon fill="white" stroke="#666666" points="466,-19 280,-19 280,0 466,0 466,-19"/>
<text text-anchor="middle" x="373" y="-7" font-family="Helvetica,sans-Serif" font-size="10.00">bustub::NotImplementedException</text>
</a>
</g>
</g>
<!-- Node1&#45;&gt;Node3 -->
<g id="edge131_Node000001_Node000003" class="edge">
<title>Node1&#45;&gt;Node3</title>
<g id="a_edge131_Node000001_Node000003"><a xlink:title=" ">
<path fill="none" stroke="#63b8ff" d="M254.47,-21.32C262.66,-20.49 271.21,-19.64 279.78,-18.77"/>
<polygon fill="#63b8ff" stroke="#63b8ff" points="253.89,-17.86 244.29,-22.34 254.59,-24.82 253.89,-17.86"/>
</a>
</g>
</g>
</g>
</svg>
