<?xml version="1.0" encoding="UTF-8" standalone="no"?>
<!DOCTYPE svg PUBLIC "-//W3C//DTD SVG 1.1//EN"
 "http://www.w3.org/Graphics/SVG/1.1/DTD/svg11.dtd">
<!-- Generated by graphviz version 2.43.0 (0)
 -->
<!-- Title: 类继承关系图 Pages: 1 -->
<svg width="332pt" height="76pt"
 viewBox="0.00 0.00 332.00 75.50" xmlns="http://www.w3.org/2000/svg" xmlns:xlink="http://www.w3.org/1999/xlink">
<g id="graph0" class="graph" transform="scale(1 1) rotate(0) translate(4 71.5)">
<title>类继承关系图</title>
<!-- Node0 -->
<g id="Node000000" class="node">
<title>Node0</title>
<g id="a_Node000000"><a xlink:href="da/dfe/classbustub_1_1DiskManager.html" target="_top" xlink:title=" ">
<polygon fill="white" stroke="#666666" points="120,-45.5 0,-45.5 0,-26.5 120,-26.5 120,-45.5"/>
<text text-anchor="middle" x="60" y="-33.5" font-family="Helvetica,sans-Serif" font-size="10.00">bustub::DiskManager</text>
</a>
</g>
</g>
<!-- Node1 -->
<g id="Node000001" class="node">
<title>Node1</title>
<g id="a_Node000001"><a xlink:href="d5/da4/classbustub_1_1DiskManagerMemory.html" target="_top" xlink:title=" ">
<polygon fill="white" stroke="#666666" points="320.5,-67.5 159.5,-67.5 159.5,-48.5 320.5,-48.5 320.5,-67.5"/>
<text text-anchor="middle" x="240" y="-55.5" font-family="Helvetica,sans-Serif" font-size="10.00">bustub::DiskManagerMemory</text>
</a>
</g>
</g>
<!-- Node0&#45;&gt;Node1 -->
<g id="edge72_Node000000_Node000001" class="edge">
<title>Node0&#45;&gt;Node1</title>
<g id="a_edge72_Node000000_Node000001"><a xlink:title=" ">
<path fill="none" stroke="#63b8ff" d="M130.45,-44.58C140.77,-45.86 151.47,-47.18 161.94,-48.48"/>
<polygon fill="#63b8ff" stroke="#63b8ff" points="130.63,-41.08 120.27,-43.33 129.77,-48.03 130.63,-41.08"/>
</a>
</g>
</g>
<!-- Node2 -->
<g id="Node000002" class="node">
<title>Node2</title>
<g id="a_Node000002"><a xlink:href="d3/db8/classbustub_1_1DiskManagerUnlimitedMemory.html" target="_top" xlink:title=" ">
<polygon fill="white" stroke="#666666" points="324,-30 156,-30 156,0 324,0 324,-30"/>
<text text-anchor="start" x="164" y="-18" font-family="Helvetica,sans-Serif" font-size="10.00">bustub::DiskManagerUnlimited</text>
<text text-anchor="middle" x="240" y="-7" font-family="Helvetica,sans-Serif" font-size="10.00">Memory</text>
</a>
</g>
</g>
<!-- Node0&#45;&gt;Node2 -->
<g id="edge73_Node000000_Node000002" class="edge">
<title>Node0&#45;&gt;Node2</title>
<g id="a_edge73_Node000000_Node000002"><a xlink:title=" ">
<path fill="none" stroke="#63b8ff" d="M130.35,-27.82C138.72,-26.83 147.34,-25.81 155.89,-24.81"/>
<polygon fill="#63b8ff" stroke="#63b8ff" points="129.79,-24.36 120.27,-29.01 130.61,-31.31 129.79,-24.36"/>
</a>
</g>
</g>
</g>
</svg>
