<?xml version="1.0" encoding="UTF-8" standalone="no"?>
<!DOCTYPE svg PUBLIC "-//W3C//DTD SVG 1.1//EN"
 "http://www.w3.org/Graphics/SVG/1.1/DTD/svg11.dtd">
<!-- Generated by graphviz version 2.43.0 (0)
 -->
<!-- Title: 类继承关系图 Pages: 1 -->
<svg width="337pt" height="2148pt"
 viewBox="0.00 0.00 337.00 2148.00" xmlns="http://www.w3.org/2000/svg" xmlns:xlink="http://www.w3.org/1999/xlink">
<g id="graph0" class="graph" transform="scale(1 1) rotate(0) translate(4 2144)">
<title>类继承关系图</title>
<!-- Node0 -->
<g id="Node000000" class="node">
<title>Node0</title>
<g id="a_Node000000"><a xlink:title=" ">
<polygon fill="#e0e0e0" stroke="#999999" points="86,-1135 0,-1135 0,-1116 86,-1116 86,-1135"/>
<text text-anchor="middle" x="43" y="-1123" font-family="Helvetica,sans-Serif" font-size="10.00">fmt::formatter</text>
</a>
</g>
</g>
<!-- Node1 -->
<g id="Node000001" class="node">
<title>Node1</title>
<g id="a_Node000001"><a xlink:href="d8/db8/structfmt_1_1formatter_3_01T_00_01std_1_1enable__if__t_3_01std_1_1is__base__of_3_01bustub_1_1Abs886a78890360091a997245056715c8d5.html" target="_top" xlink:title=" ">
<polygon fill="white" stroke="#666666" points="292.5,-2140 158.5,-2140 158.5,-2077 292.5,-2077 292.5,-2140"/>
<text text-anchor="start" x="166.5" y="-2128" font-family="Helvetica,sans-Serif" font-size="10.00">fmt::formatter&lt; T,</text>
<text text-anchor="start" x="166.5" y="-2117" font-family="Helvetica,sans-Serif" font-size="10.00"> std::enable_if_t&lt; std</text>
<text text-anchor="start" x="166.5" y="-2106" font-family="Helvetica,sans-Serif" font-size="10.00">::is_base_of&lt; bustub::</text>
<text text-anchor="start" x="166.5" y="-2095" font-family="Helvetica,sans-Serif" font-size="10.00">AbstractExpression, T &gt;</text>
<text text-anchor="middle" x="225.5" y="-2084" font-family="Helvetica,sans-Serif" font-size="10.00">::value, char &gt; &gt;</text>
</a>
</g>
</g>
<!-- Node0&#45;&gt;Node1 -->
<g id="edge96_Node000000_Node000001" class="edge">
<title>Node0&#45;&gt;Node1</title>
<g id="a_edge96_Node000000_Node000001"><a xlink:title=" ">
<path fill="none" stroke="#63b8ff" d="M44.4,-1145.55C47.15,-1275.19 64.87,-1991.87 122,-2068.5 131.08,-2080.68 144.4,-2089.15 158.46,-2095.04"/>
<polygon fill="#63b8ff" stroke="#63b8ff" points="47.89,-1145.09 44.19,-1135.16 40.89,-1145.23 47.89,-1145.09"/>
</a>
</g>
</g>
<!-- Node2 -->
<g id="Node000002" class="node">
<title>Node2</title>
<g id="a_Node000002"><a xlink:href="d4/d23/structfmt_1_1formatter_3_01T_00_01std_1_1enable__if__t_3_01std_1_1is__base__of_3_01bustub_1_1Abs046c72eb56125bbd3b742433f5d2c095.html" target="_top" xlink:title=" ">
<polygon fill="white" stroke="#666666" points="292,-2059 159,-2059 159,-1996 292,-1996 292,-2059"/>
<text text-anchor="start" x="167" y="-2047" font-family="Helvetica,sans-Serif" font-size="10.00">fmt::formatter&lt; T,</text>
<text text-anchor="start" x="167" y="-2036" font-family="Helvetica,sans-Serif" font-size="10.00"> std::enable_if_t&lt; std</text>
<text text-anchor="start" x="167" y="-2025" font-family="Helvetica,sans-Serif" font-size="10.00">::is_base_of&lt; bustub::</text>
<text text-anchor="start" x="167" y="-2014" font-family="Helvetica,sans-Serif" font-size="10.00">AbstractPlanNode, T &gt;::</text>
<text text-anchor="middle" x="225.5" y="-2003" font-family="Helvetica,sans-Serif" font-size="10.00">value, char &gt; &gt;</text>
</a>
</g>
</g>
<!-- Node0&#45;&gt;Node2 -->
<g id="edge97_Node000000_Node000002" class="edge">
<title>Node0&#45;&gt;Node2</title>
<g id="a_edge97_Node000000_Node000002"><a xlink:title=" ">
<path fill="none" stroke="#63b8ff" d="M44.56,-1145.33C48.16,-1267.76 69.69,-1917.9 122,-1987.5 131.18,-1999.72 144.63,-2008.2 158.79,-2014.1"/>
<polygon fill="#63b8ff" stroke="#63b8ff" points="48.05,-1145.06 44.26,-1135.17 41.05,-1145.26 48.05,-1145.06"/>
</a>
</g>
</g>
<!-- Node3 -->
<g id="Node000003" class="node">
<title>Node3</title>
<g id="a_Node000003"><a xlink:href="d9/d8e/structfmt_1_1formatter_3_01T_00_01std_1_1enable__if__t_3_01std_1_1is__base__of_3_01bustub_1_1Bouc1d62e550ac0324b4b9187256464c9eb.html" target="_top" xlink:title=" ">
<polygon fill="white" stroke="#666666" points="305.5,-1978 145.5,-1978 145.5,-1915 305.5,-1915 305.5,-1978"/>
<text text-anchor="start" x="153.5" y="-1966" font-family="Helvetica,sans-Serif" font-size="10.00">fmt::formatter&lt; T,</text>
<text text-anchor="start" x="153.5" y="-1955" font-family="Helvetica,sans-Serif" font-size="10.00"> std::enable_if_t&lt; std</text>
<text text-anchor="start" x="153.5" y="-1944" font-family="Helvetica,sans-Serif" font-size="10.00">::is_base_of&lt; bustub::</text>
<text text-anchor="start" x="153.5" y="-1933" font-family="Helvetica,sans-Serif" font-size="10.00">BoundExpression, T &gt;::value,</text>
<text text-anchor="middle" x="225.5" y="-1922" font-family="Helvetica,sans-Serif" font-size="10.00"> char &gt; &gt;</text>
</a>
</g>
</g>
<!-- Node0&#45;&gt;Node3 -->
<g id="edge98_Node000000_Node000003" class="edge">
<title>Node0&#45;&gt;Node3</title>
<g id="a_edge98_Node000000_Node000003"><a xlink:title=" ">
<path fill="none" stroke="#63b8ff" d="M44.75,-1145.22C49.29,-1260.47 74.52,-1843.93 122,-1906.5 128.24,-1914.72 136.4,-1921.25 145.41,-1926.44"/>
<polygon fill="#63b8ff" stroke="#63b8ff" points="48.24,-1144.9 44.36,-1135.04 41.25,-1145.17 48.24,-1144.9"/>
</a>
</g>
</g>
<!-- Node4 -->
<g id="Node000004" class="node">
<title>Node4</title>
<g id="a_Node000004"><a xlink:href="d8/d70/structfmt_1_1formatter_3_01T_00_01std_1_1enable__if__t_3_01std_1_1is__base__of_3_01bustub_1_1Bou96e3b8bc84aea76a8676fc5a22d4b321.html" target="_top" xlink:title=" ">
<polygon fill="white" stroke="#666666" points="298.5,-1897 152.5,-1897 152.5,-1834 298.5,-1834 298.5,-1897"/>
<text text-anchor="start" x="160.5" y="-1885" font-family="Helvetica,sans-Serif" font-size="10.00">fmt::formatter&lt; T,</text>
<text text-anchor="start" x="160.5" y="-1874" font-family="Helvetica,sans-Serif" font-size="10.00"> std::enable_if_t&lt; std</text>
<text text-anchor="start" x="160.5" y="-1863" font-family="Helvetica,sans-Serif" font-size="10.00">::is_base_of&lt; bustub::</text>
<text text-anchor="start" x="160.5" y="-1852" font-family="Helvetica,sans-Serif" font-size="10.00">BoundOrderBy, T &gt;::value,</text>
<text text-anchor="middle" x="225.5" y="-1841" font-family="Helvetica,sans-Serif" font-size="10.00"> char &gt; &gt;</text>
</a>
</g>
</g>
<!-- Node0&#45;&gt;Node4 -->
<g id="edge99_Node000000_Node000004" class="edge">
<title>Node0&#45;&gt;Node4</title>
<g id="a_edge99_Node000000_Node000004"><a xlink:title=" ">
<path fill="none" stroke="#63b8ff" d="M44.99,-1145.15C50.55,-1252.98 79.34,-1769.94 122,-1825.5 129.85,-1835.73 140.69,-1843.34 152.39,-1849.01"/>
<polygon fill="#63b8ff" stroke="#63b8ff" points="48.48,-1144.85 44.47,-1135.04 41.48,-1145.2 48.48,-1144.85"/>
</a>
</g>
</g>
<!-- Node5 -->
<g id="Node000005" class="node">
<title>Node5</title>
<g id="a_Node000005"><a xlink:href="d4/d71/structfmt_1_1formatter_3_01T_00_01std_1_1enable__if__t_3_01std_1_1is__base__of_3_01bustub_1_1Bou5eb13bcd725637dae725ce69bbd54076.html" target="_top" xlink:title=" ">
<polygon fill="white" stroke="#666666" points="300,-1816 151,-1816 151,-1753 300,-1753 300,-1816"/>
<text text-anchor="start" x="159" y="-1804" font-family="Helvetica,sans-Serif" font-size="10.00">fmt::formatter&lt; T,</text>
<text text-anchor="start" x="159" y="-1793" font-family="Helvetica,sans-Serif" font-size="10.00"> std::enable_if_t&lt; std</text>
<text text-anchor="start" x="159" y="-1782" font-family="Helvetica,sans-Serif" font-size="10.00">::is_base_of&lt; bustub::</text>
<text text-anchor="start" x="159" y="-1771" font-family="Helvetica,sans-Serif" font-size="10.00">BoundTableRef, T &gt;::value,</text>
<text text-anchor="middle" x="225.5" y="-1760" font-family="Helvetica,sans-Serif" font-size="10.00"> char &gt; &gt;</text>
</a>
</g>
</g>
<!-- Node0&#45;&gt;Node5 -->
<g id="edge100_Node000000_Node000005" class="edge">
<title>Node0&#45;&gt;Node5</title>
<g id="a_edge100_Node000000_Node000005"><a xlink:title=" ">
<path fill="none" stroke="#63b8ff" d="M43.88,-1145.5C43.71,-1240.67 47.41,-1646.98 122,-1743.5 129.56,-1753.28 139.82,-1760.74 150.93,-1766.42"/>
<polygon fill="#63b8ff" stroke="#63b8ff" points="47.38,-1145.28 43.92,-1135.26 40.38,-1145.25 47.38,-1145.28"/>
</a>
</g>
</g>
<!-- Node6 -->
<g id="Node000006" class="node">
<title>Node6</title>
<g id="a_Node000006"><a xlink:href="da/d2b/structfmt_1_1formatter_3_01T_00_01std_1_1enable__if__t_3_01std_1_1is__base__of_3_01bustub_1_1Colfb0dee29a3593d1af193ccde9afa2ee5.html" target="_top" xlink:title=" ">
<polygon fill="white" stroke="#666666" points="305.5,-1734.5 145.5,-1734.5 145.5,-1682.5 305.5,-1682.5 305.5,-1734.5"/>
<text text-anchor="start" x="153.5" y="-1722.5" font-family="Helvetica,sans-Serif" font-size="10.00">fmt::formatter&lt; T,</text>
<text text-anchor="start" x="153.5" y="-1711.5" font-family="Helvetica,sans-Serif" font-size="10.00"> std::enable_if_t&lt; std</text>
<text text-anchor="start" x="153.5" y="-1700.5" font-family="Helvetica,sans-Serif" font-size="10.00">::is_base_of&lt; bustub::</text>
<text text-anchor="middle" x="225.5" y="-1689.5" font-family="Helvetica,sans-Serif" font-size="10.00">Column, T &gt;::value, char &gt; &gt;</text>
</a>
</g>
</g>
<!-- Node0&#45;&gt;Node6 -->
<g id="edge101_Node000000_Node000006" class="edge">
<title>Node0&#45;&gt;Node6</title>
<g id="a_edge101_Node000000_Node000006"><a xlink:title=" ">
<path fill="none" stroke="#63b8ff" d="M44.13,-1145.23C45.13,-1233.39 53.38,-1590.62 122,-1673.5 128.36,-1681.18 136.47,-1687.17 145.35,-1691.86"/>
<polygon fill="#63b8ff" stroke="#63b8ff" points="47.63,-1144.99 44.04,-1135.03 40.63,-1145.06 47.63,-1144.99"/>
</a>
</g>
</g>
<!-- Node7 -->
<g id="Node000007" class="node">
<title>Node7</title>
<g id="a_Node000007"><a xlink:href="d8/d7e/structfmt_1_1formatter_3_01T_00_01std_1_1enable__if__t_3_01std_1_1is__base__of_3_01bustub_1_1Sch18c522a2af692b99e6540a63922f7a72.html" target="_top" xlink:title=" ">
<polygon fill="white" stroke="#666666" points="306,-1664.5 145,-1664.5 145,-1612.5 306,-1612.5 306,-1664.5"/>
<text text-anchor="start" x="153" y="-1652.5" font-family="Helvetica,sans-Serif" font-size="10.00">fmt::formatter&lt; T,</text>
<text text-anchor="start" x="153" y="-1641.5" font-family="Helvetica,sans-Serif" font-size="10.00"> std::enable_if_t&lt; std</text>
<text text-anchor="start" x="153" y="-1630.5" font-family="Helvetica,sans-Serif" font-size="10.00">::is_base_of&lt; bustub::</text>
<text text-anchor="middle" x="225.5" y="-1619.5" font-family="Helvetica,sans-Serif" font-size="10.00">Schema, T &gt;::value, char &gt; &gt;</text>
</a>
</g>
</g>
<!-- Node0&#45;&gt;Node7 -->
<g id="edge102_Node000000_Node000007" class="edge">
<title>Node0&#45;&gt;Node7</title>
<g id="a_edge102_Node000000_Node000007"><a xlink:title=" ">
<path fill="none" stroke="#63b8ff" d="M44.61,-1145.74C47.45,-1227.52 61.99,-1532.5 122,-1603.5 128.31,-1610.97 136.29,-1616.85 144.99,-1621.47"/>
<polygon fill="#63b8ff" stroke="#63b8ff" points="48.09,-1145.23 44.27,-1135.35 41.1,-1145.46 48.09,-1145.23"/>
</a>
</g>
</g>
<!-- Node8 -->
<g id="Node000008" class="node">
<title>Node8</title>
<g id="a_Node000008"><a xlink:href="df/de2/structfmt_1_1formatter_3_01T_00_01std_1_1enable__if__t_3_01std_1_1is__base__of_3_01bustub_1_1Val815ddac0f1a6f7494d1c19cf850862ca.html" target="_top" xlink:title=" ">
<polygon fill="white" stroke="#666666" points="300,-1594.5 151,-1594.5 151,-1542.5 300,-1542.5 300,-1594.5"/>
<text text-anchor="start" x="159" y="-1582.5" font-family="Helvetica,sans-Serif" font-size="10.00">fmt::formatter&lt; T,</text>
<text text-anchor="start" x="159" y="-1571.5" font-family="Helvetica,sans-Serif" font-size="10.00"> std::enable_if_t&lt; std</text>
<text text-anchor="start" x="159" y="-1560.5" font-family="Helvetica,sans-Serif" font-size="10.00">::is_base_of&lt; bustub::</text>
<text text-anchor="middle" x="225.5" y="-1549.5" font-family="Helvetica,sans-Serif" font-size="10.00">Value, T &gt;::value, char &gt; &gt;</text>
</a>
</g>
</g>
<!-- Node0&#45;&gt;Node8 -->
<g id="edge103_Node000000_Node000008" class="edge">
<title>Node0&#45;&gt;Node8</title>
<g id="a_edge103_Node000000_Node000008"><a xlink:title=" ">
<path fill="none" stroke="#63b8ff" d="M45.22,-1145.55C50.07,-1219.27 70.37,-1474.07 122,-1533.5 129.77,-1542.44 139.92,-1549.1 150.82,-1554.06"/>
<polygon fill="#63b8ff" stroke="#63b8ff" points="48.69,-1145.09 44.57,-1135.33 41.71,-1145.54 48.69,-1145.09"/>
</a>
</g>
</g>
<!-- Node9 -->
<g id="Node000009" class="node">
<title>Node9</title>
<g id="a_Node000009"><a xlink:href="d4/dc5/structfmt_1_1formatter_3_01bustub_1_1AggregationType_01_4.html" target="_top" xlink:title=" ">
<polygon fill="white" stroke="#666666" points="291,-1524.5 160,-1524.5 160,-1494.5 291,-1494.5 291,-1524.5"/>
<text text-anchor="start" x="168" y="-1512.5" font-family="Helvetica,sans-Serif" font-size="10.00">fmt::formatter&lt; bustub</text>
<text text-anchor="middle" x="225.5" y="-1501.5" font-family="Helvetica,sans-Serif" font-size="10.00">::AggregationType &gt;</text>
</a>
</g>
</g>
<!-- Node0&#45;&gt;Node9 -->
<g id="edge104_Node000000_Node000009" class="edge">
<title>Node0&#45;&gt;Node9</title>
<g id="a_edge104_Node000000_Node000009"><a xlink:title=" ">
<path fill="none" stroke="#63b8ff" d="M45.57,-1145.51C51.34,-1213.81 73.57,-1436.26 122,-1485.5 132.12,-1495.79 145.76,-1502.02 159.78,-1505.71"/>
<polygon fill="#63b8ff" stroke="#63b8ff" points="49.04,-1144.95 44.73,-1135.27 42.06,-1145.52 49.04,-1144.95"/>
</a>
</g>
</g>
<!-- Node10 -->
<g id="Node000010" class="node">
<title>Node10</title>
<g id="a_Node000010"><a xlink:href="d6/d6f/structfmt_1_1formatter_3_01bustub_1_1ArithmeticType_01_4.html" target="_top" xlink:title=" ">
<polygon fill="white" stroke="#666666" points="291,-1476.5 160,-1476.5 160,-1446.5 291,-1446.5 291,-1476.5"/>
<text text-anchor="start" x="168" y="-1464.5" font-family="Helvetica,sans-Serif" font-size="10.00">fmt::formatter&lt; bustub</text>
<text text-anchor="middle" x="225.5" y="-1453.5" font-family="Helvetica,sans-Serif" font-size="10.00">::ArithmeticType &gt;</text>
</a>
</g>
</g>
<!-- Node0&#45;&gt;Node10 -->
<g id="edge105_Node000000_Node000010" class="edge">
<title>Node0&#45;&gt;Node10</title>
<g id="a_edge105_Node000000_Node000010"><a xlink:title=" ">
<path fill="none" stroke="#63b8ff" d="M46.25,-1145.22C53.72,-1207.09 79.59,-1395.72 122,-1437.5 132.22,-1447.57 145.81,-1453.72 159.74,-1457.41"/>
<polygon fill="#63b8ff" stroke="#63b8ff" points="49.72,-1144.73 45.07,-1135.21 42.77,-1145.55 49.72,-1144.73"/>
</a>
</g>
</g>
<!-- Node11 -->
<g id="Node000011" class="node">
<title>Node11</title>
<g id="a_Node000011"><a xlink:href="da/d83/structfmt_1_1formatter_3_01bustub_1_1ComparisonType_01_4.html" target="_top" xlink:title=" ">
<polygon fill="white" stroke="#666666" points="291,-1428.5 160,-1428.5 160,-1398.5 291,-1398.5 291,-1428.5"/>
<text text-anchor="start" x="168" y="-1416.5" font-family="Helvetica,sans-Serif" font-size="10.00">fmt::formatter&lt; bustub</text>
<text text-anchor="middle" x="225.5" y="-1405.5" font-family="Helvetica,sans-Serif" font-size="10.00">::ComparisonType &gt;</text>
</a>
</g>
</g>
<!-- Node0&#45;&gt;Node11 -->
<g id="edge106_Node000000_Node000011" class="edge">
<title>Node0&#45;&gt;Node11</title>
<g id="a_edge106_Node000000_Node000011"><a xlink:title=" ">
<path fill="none" stroke="#63b8ff" d="M43.57,-1145.37C43.66,-1194.5 51.07,-1322.52 122,-1389.5 132.36,-1399.29 145.93,-1405.34 159.78,-1409.02"/>
<polygon fill="#63b8ff" stroke="#63b8ff" points="47.07,-1145.18 43.66,-1135.15 40.08,-1145.12 47.07,-1145.18"/>
</a>
</g>
</g>
<!-- Node12 -->
<g id="Node000012" class="node">
<title>Node12</title>
<g id="a_Node000012"><a xlink:href="df/d46/structfmt_1_1formatter_3_01bustub_1_1ExpressionType_01_4.html" target="_top" xlink:title=" ">
<polygon fill="white" stroke="#666666" points="291,-1380.5 160,-1380.5 160,-1350.5 291,-1350.5 291,-1380.5"/>
<text text-anchor="start" x="168" y="-1368.5" font-family="Helvetica,sans-Serif" font-size="10.00">fmt::formatter&lt; bustub</text>
<text text-anchor="middle" x="225.5" y="-1357.5" font-family="Helvetica,sans-Serif" font-size="10.00">::ExpressionType &gt;</text>
</a>
</g>
</g>
<!-- Node0&#45;&gt;Node12 -->
<g id="edge107_Node000000_Node000012" class="edge">
<title>Node0&#45;&gt;Node12</title>
<g id="a_edge107_Node000000_Node000012"><a xlink:title=" ">
<path fill="none" stroke="#63b8ff" d="M45.07,-1145.16C48.5,-1187.72 62.79,-1288.82 122,-1341.5 132.58,-1350.92 146.15,-1356.83 159.93,-1360.5"/>
<polygon fill="#63b8ff" stroke="#63b8ff" points="48.55,-1144.74 44.38,-1135.01 41.57,-1145.22 48.55,-1144.74"/>
</a>
</g>
</g>
<!-- Node13 -->
<g id="Node000013" class="node">
<title>Node13</title>
<g id="a_Node000013"><a xlink:href="d0/d8c/structfmt_1_1formatter_3_01bustub_1_1IsolationLevel_01_4.html" target="_top" xlink:title=" ">
<polygon fill="white" stroke="#666666" points="291,-1332.5 160,-1332.5 160,-1302.5 291,-1302.5 291,-1332.5"/>
<text text-anchor="start" x="168" y="-1320.5" font-family="Helvetica,sans-Serif" font-size="10.00">fmt::formatter&lt; bustub</text>
<text text-anchor="middle" x="225.5" y="-1309.5" font-family="Helvetica,sans-Serif" font-size="10.00">::IsolationLevel &gt;</text>
</a>
</g>
</g>
<!-- Node0&#45;&gt;Node13 -->
<g id="edge108_Node000000_Node000013" class="edge">
<title>Node0&#45;&gt;Node13</title>
<g id="a_edge108_Node000000_Node000013"><a xlink:title=" ">
<path fill="none" stroke="#63b8ff" d="M47.39,-1145.33C54.52,-1180.77 74.51,-1254.86 122,-1293.5 132.84,-1302.32 146.36,-1308.02 159.98,-1311.66"/>
<polygon fill="#63b8ff" stroke="#63b8ff" points="50.78,-1144.46 45.5,-1135.28 43.9,-1145.75 50.78,-1144.46"/>
</a>
</g>
</g>
<!-- Node14 -->
<g id="Node000014" class="node">
<title>Node14</title>
<g id="a_Node000014"><a xlink:href="dc/d01/structfmt_1_1formatter_3_01bustub_1_1JoinType_01_4.html" target="_top" xlink:title=" ">
<polygon fill="white" stroke="#666666" points="291,-1284.5 160,-1284.5 160,-1254.5 291,-1254.5 291,-1284.5"/>
<text text-anchor="start" x="168" y="-1272.5" font-family="Helvetica,sans-Serif" font-size="10.00">fmt::formatter&lt; bustub</text>
<text text-anchor="middle" x="225.5" y="-1261.5" font-family="Helvetica,sans-Serif" font-size="10.00">::JoinType &gt;</text>
</a>
</g>
</g>
<!-- Node0&#45;&gt;Node14 -->
<g id="edge109_Node000000_Node000014" class="edge">
<title>Node0&#45;&gt;Node14</title>
<g id="a_edge109_Node000000_Node000014"><a xlink:title=" ">
<path fill="none" stroke="#63b8ff" d="M51.01,-1144.51C61.91,-1171.34 85.56,-1219.91 122,-1245.5 133.14,-1253.32 146.48,-1258.63 159.79,-1262.21"/>
<polygon fill="#63b8ff" stroke="#63b8ff" points="54.23,-1143.12 47.34,-1135.07 47.7,-1145.66 54.23,-1143.12"/>
</a>
</g>
</g>
<!-- Node15 -->
<g id="Node000015" class="node">
<title>Node15</title>
<g id="a_Node000015"><a xlink:href="db/d5f/structfmt_1_1formatter_3_01bustub_1_1LockManager_1_1LockMode_01_4.html" target="_top" xlink:title=" ">
<polygon fill="white" stroke="#666666" points="303,-1236.5 148,-1236.5 148,-1206.5 303,-1206.5 303,-1236.5"/>
<text text-anchor="start" x="156" y="-1224.5" font-family="Helvetica,sans-Serif" font-size="10.00">fmt::formatter&lt; bustub</text>
<text text-anchor="middle" x="225.5" y="-1213.5" font-family="Helvetica,sans-Serif" font-size="10.00">::LockManager::LockMode &gt;</text>
</a>
</g>
</g>
<!-- Node0&#45;&gt;Node15 -->
<g id="edge110_Node000000_Node000015" class="edge">
<title>Node0&#45;&gt;Node15</title>
<g id="a_edge110_Node000000_Node000015"><a xlink:title=" ">
<path fill="none" stroke="#63b8ff" d="M58.13,-1142.95C72.48,-1159.51 96.21,-1183.82 122,-1197.5 130.07,-1201.78 138.9,-1205.31 147.88,-1208.21"/>
<polygon fill="#63b8ff" stroke="#63b8ff" points="60.63,-1140.5 51.51,-1135.1 55.28,-1145.01 60.63,-1140.5"/>
</a>
</g>
</g>
<!-- Node16 -->
<g id="Node000016" class="node">
<title>Node16</title>
<g id="a_Node000016"><a xlink:href="dc/de9/structfmt_1_1formatter_3_01bustub_1_1LogicType_01_4.html" target="_top" xlink:title=" ">
<polygon fill="white" stroke="#666666" points="291,-1188.5 160,-1188.5 160,-1158.5 291,-1158.5 291,-1188.5"/>
<text text-anchor="start" x="168" y="-1176.5" font-family="Helvetica,sans-Serif" font-size="10.00">fmt::formatter&lt; bustub</text>
<text text-anchor="middle" x="225.5" y="-1165.5" font-family="Helvetica,sans-Serif" font-size="10.00">::LogicType &gt;</text>
</a>
</g>
</g>
<!-- Node0&#45;&gt;Node16 -->
<g id="edge111_Node000000_Node000016" class="edge">
<title>Node0&#45;&gt;Node16</title>
<g id="a_edge111_Node000000_Node000016"><a xlink:title=" ">
<path fill="none" stroke="#63b8ff" d="M83.08,-1138.1C95.48,-1141.94 109.27,-1146.05 122,-1149.5 134.17,-1152.79 147.23,-1156.06 159.81,-1159.06"/>
<polygon fill="#63b8ff" stroke="#63b8ff" points="84.08,-1134.74 73.49,-1135.1 81.99,-1141.42 84.08,-1134.74"/>
</a>
</g>
</g>
<!-- Node17 -->
<g id="Node000017" class="node">
<title>Node17</title>
<g id="a_Node000017"><a xlink:href="dc/d83/structfmt_1_1formatter_3_01bustub_1_1OrderByType_01_4.html" target="_top" xlink:title=" ">
<polygon fill="white" stroke="#666666" points="291,-1140.5 160,-1140.5 160,-1110.5 291,-1110.5 291,-1140.5"/>
<text text-anchor="start" x="168" y="-1128.5" font-family="Helvetica,sans-Serif" font-size="10.00">fmt::formatter&lt; bustub</text>
<text text-anchor="middle" x="225.5" y="-1117.5" font-family="Helvetica,sans-Serif" font-size="10.00">::OrderByType &gt;</text>
</a>
</g>
</g>
<!-- Node0&#45;&gt;Node17 -->
<g id="edge112_Node000000_Node000017" class="edge">
<title>Node0&#45;&gt;Node17</title>
<g id="a_edge112_Node000000_Node000017"><a xlink:title=" ">
<path fill="none" stroke="#63b8ff" d="M96.39,-1125.5C116.21,-1125.5 139.01,-1125.5 159.83,-1125.5"/>
<polygon fill="#63b8ff" stroke="#63b8ff" points="96.32,-1122 86.32,-1125.5 96.32,-1129 96.32,-1122"/>
</a>
</g>
</g>
<!-- Node18 -->
<g id="Node000018" class="node">
<title>Node18</title>
<g id="a_Node000018"><a xlink:href="d2/d23/structfmt_1_1formatter_3_01bustub_1_1StatementType_01_4.html" target="_top" xlink:title=" ">
<polygon fill="white" stroke="#666666" points="291,-1092.5 160,-1092.5 160,-1062.5 291,-1062.5 291,-1092.5"/>
<text text-anchor="start" x="168" y="-1080.5" font-family="Helvetica,sans-Serif" font-size="10.00">fmt::formatter&lt; bustub</text>
<text text-anchor="middle" x="225.5" y="-1069.5" font-family="Helvetica,sans-Serif" font-size="10.00">::StatementType &gt;</text>
</a>
</g>
</g>
<!-- Node0&#45;&gt;Node18 -->
<g id="edge113_Node000000_Node000018" class="edge">
<title>Node0&#45;&gt;Node18</title>
<g id="a_edge113_Node000000_Node000018"><a xlink:title=" ">
<path fill="none" stroke="#63b8ff" d="M83.08,-1112.9C95.48,-1109.06 109.27,-1104.95 122,-1101.5 134.17,-1098.21 147.23,-1094.94 159.81,-1091.94"/>
<polygon fill="#63b8ff" stroke="#63b8ff" points="81.99,-1109.58 73.49,-1115.9 84.08,-1116.26 81.99,-1109.58"/>
</a>
</g>
</g>
<!-- Node19 -->
<g id="Node000019" class="node">
<title>Node19</title>
<g id="a_Node000019"><a xlink:href="d1/d65/structfmt_1_1formatter_3_01bustub_1_1StringExpressionType_01_4.html" target="_top" xlink:title=" ">
<polygon fill="white" stroke="#666666" points="294.5,-1044.5 156.5,-1044.5 156.5,-1014.5 294.5,-1014.5 294.5,-1044.5"/>
<text text-anchor="start" x="164.5" y="-1032.5" font-family="Helvetica,sans-Serif" font-size="10.00">fmt::formatter&lt; bustub</text>
<text text-anchor="middle" x="225.5" y="-1021.5" font-family="Helvetica,sans-Serif" font-size="10.00">::StringExpressionType &gt;</text>
</a>
</g>
</g>
<!-- Node0&#45;&gt;Node19 -->
<g id="edge114_Node000000_Node000019" class="edge">
<title>Node0&#45;&gt;Node19</title>
<g id="a_edge114_Node000000_Node000019"><a xlink:title=" ">
<path fill="none" stroke="#63b8ff" d="M58.13,-1108.05C72.48,-1091.49 96.21,-1067.18 122,-1053.5 132.58,-1047.89 144.45,-1043.58 156.26,-1040.27"/>
<polygon fill="#63b8ff" stroke="#63b8ff" points="55.28,-1105.99 51.51,-1115.9 60.63,-1110.5 55.28,-1105.99"/>
</a>
</g>
</g>
<!-- Node20 -->
<g id="Node000020" class="node">
<title>Node20</title>
<g id="a_Node000020"><a xlink:href="d1/df5/structfmt_1_1formatter_3_01bustub_1_1TableReferenceType_01_4.html" target="_top" xlink:title=" ">
<polygon fill="white" stroke="#666666" points="291,-996.5 160,-996.5 160,-966.5 291,-966.5 291,-996.5"/>
<text text-anchor="start" x="168" y="-984.5" font-family="Helvetica,sans-Serif" font-size="10.00">fmt::formatter&lt; bustub</text>
<text text-anchor="middle" x="225.5" y="-973.5" font-family="Helvetica,sans-Serif" font-size="10.00">::TableReferenceType &gt;</text>
</a>
</g>
</g>
<!-- Node0&#45;&gt;Node20 -->
<g id="edge115_Node000000_Node000020" class="edge">
<title>Node0&#45;&gt;Node20</title>
<g id="a_edge115_Node000000_Node000020"><a xlink:title=" ">
<path fill="none" stroke="#63b8ff" d="M51.01,-1106.49C61.91,-1079.66 85.56,-1031.09 122,-1005.5 133.14,-997.68 146.48,-992.37 159.79,-988.79"/>
<polygon fill="#63b8ff" stroke="#63b8ff" points="47.7,-1105.34 47.34,-1115.93 54.23,-1107.88 47.7,-1105.34"/>
</a>
</g>
</g>
<!-- Node21 -->
<g id="Node000021" class="node">
<title>Node21</title>
<g id="a_Node000021"><a xlink:href="d7/d4a/structfmt_1_1formatter_3_01bustub_1_1TransactionState_01_4.html" target="_top" xlink:title=" ">
<polygon fill="white" stroke="#666666" points="291,-948.5 160,-948.5 160,-918.5 291,-918.5 291,-948.5"/>
<text text-anchor="start" x="168" y="-936.5" font-family="Helvetica,sans-Serif" font-size="10.00">fmt::formatter&lt; bustub</text>
<text text-anchor="middle" x="225.5" y="-925.5" font-family="Helvetica,sans-Serif" font-size="10.00">::TransactionState &gt;</text>
</a>
</g>
</g>
<!-- Node0&#45;&gt;Node21 -->
<g id="edge116_Node000000_Node000021" class="edge">
<title>Node0&#45;&gt;Node21</title>
<g id="a_edge116_Node000000_Node000021"><a xlink:title=" ">
<path fill="none" stroke="#63b8ff" d="M47.39,-1105.67C54.52,-1070.23 74.51,-996.14 122,-957.5 132.84,-948.68 146.36,-942.98 159.98,-939.34"/>
<polygon fill="#63b8ff" stroke="#63b8ff" points="43.9,-1105.25 45.5,-1115.72 50.78,-1106.54 43.9,-1105.25"/>
</a>
</g>
</g>
<!-- Node22 -->
<g id="Node000022" class="node">
<title>Node22</title>
<g id="a_Node000022"><a xlink:href="d4/dd6/structfmt_1_1formatter_3_01bustub_1_1WindowFunctionPlanNode_1_1WindowFunction_01_4.html" target="_top" xlink:title=" ">
<polygon fill="white" stroke="#666666" points="300,-900 151,-900 151,-859 300,-859 300,-900"/>
<text text-anchor="start" x="159" y="-888" font-family="Helvetica,sans-Serif" font-size="10.00">fmt::formatter&lt; bustub</text>
<text text-anchor="start" x="159" y="-877" font-family="Helvetica,sans-Serif" font-size="10.00">::WindowFunctionPlanNode</text>
<text text-anchor="middle" x="225.5" y="-866" font-family="Helvetica,sans-Serif" font-size="10.00">::WindowFunction &gt;</text>
</a>
</g>
</g>
<!-- Node0&#45;&gt;Node22 -->
<g id="edge117_Node000000_Node000022" class="edge">
<title>Node0&#45;&gt;Node22</title>
<g id="a_edge117_Node000000_Node000022"><a xlink:title=" ">
<path fill="none" stroke="#63b8ff" d="M45.35,-1105.5C49.3,-1063.07 64.52,-963.53 122,-909.5 130.17,-901.82 140.21,-896.09 150.77,-891.82"/>
<polygon fill="#63b8ff" stroke="#63b8ff" points="41.84,-1105.4 44.52,-1115.65 48.82,-1105.96 41.84,-1105.4"/>
</a>
</g>
</g>
<!-- Node23 -->
<g id="Node000023" class="node">
<title>Node23</title>
<g id="a_Node000023"><a xlink:href="d5/df2/structfmt_1_1formatter_3_01bustub_1_1WindowFunctionType_01_4.html" target="_top" xlink:title=" ">
<polygon fill="white" stroke="#666666" points="294,-840.5 157,-840.5 157,-810.5 294,-810.5 294,-840.5"/>
<text text-anchor="start" x="165" y="-828.5" font-family="Helvetica,sans-Serif" font-size="10.00">fmt::formatter&lt; bustub</text>
<text text-anchor="middle" x="225.5" y="-817.5" font-family="Helvetica,sans-Serif" font-size="10.00">::WindowFunctionType &gt;</text>
</a>
</g>
</g>
<!-- Node0&#45;&gt;Node23 -->
<g id="edge118_Node000000_Node000023" class="edge">
<title>Node0&#45;&gt;Node23</title>
<g id="a_edge118_Node000000_Node000023"><a xlink:title=" ">
<path fill="none" stroke="#63b8ff" d="M43.33,-1105.53C42.79,-1055.01 48.73,-921.1 122,-850.5 131.56,-841.29 143.93,-835.29 156.75,-831.42"/>
<polygon fill="#63b8ff" stroke="#63b8ff" points="39.84,-1105.83 43.55,-1115.75 46.83,-1105.68 39.84,-1105.83"/>
</a>
</g>
</g>
<!-- Node24 -->
<g id="Node000024" class="node">
<title>Node24</title>
<g id="a_Node000024"><a xlink:href="d4/d0f/structfmt_1_1formatter_3_01std_1_1shared__ptr_3_01T_01_4_00_01std_1_1enable__if__t_3_01std_1_1is7b3566aaa32fab8089c2d60637a24806.html" target="_top" xlink:title=" ">
<polygon fill="white" stroke="#666666" points="329,-792 122,-792 122,-729 329,-729 329,-792"/>
<text text-anchor="start" x="130" y="-780" font-family="Helvetica,sans-Serif" font-size="10.00">fmt::formatter&lt; std</text>
<text text-anchor="start" x="130" y="-769" font-family="Helvetica,sans-Serif" font-size="10.00">::shared_ptr&lt; T &gt;, std</text>
<text text-anchor="start" x="130" y="-758" font-family="Helvetica,sans-Serif" font-size="10.00">::enable_if_t&lt; std::is</text>
<text text-anchor="start" x="130" y="-747" font-family="Helvetica,sans-Serif" font-size="10.00">_base_of&lt; bustub::AbstractExpression,</text>
<text text-anchor="middle" x="225.5" y="-736" font-family="Helvetica,sans-Serif" font-size="10.00"> T &gt;::value, char &gt; &gt;</text>
</a>
</g>
</g>
<!-- Node0&#45;&gt;Node24 -->
<g id="edge119_Node000000_Node000024" class="edge">
<title>Node0&#45;&gt;Node24</title>
<g id="a_edge119_Node000000_Node000024"><a xlink:title=" ">
<path fill="none" stroke="#63b8ff" d="M46.37,-1105.71C54.28,-1042.72 81.55,-848.25 122,-801.5 124.88,-798.17 128.08,-795.1 131.5,-792.28"/>
<polygon fill="#63b8ff" stroke="#63b8ff" points="42.87,-1105.53 45.12,-1115.88 49.82,-1106.38 42.87,-1105.53"/>
</a>
</g>
</g>
<!-- Node25 -->
<g id="Node000025" class="node">
<title>Node25</title>
<g id="a_Node000025"><a xlink:href="d3/d58/structfmt_1_1formatter_3_01std_1_1shared__ptr_3_01T_01_4_00_01std_1_1enable__if__t_3_01std_1_1is6017001ca96bca0776be8861eb26e1c6.html" target="_top" xlink:title=" ">
<polygon fill="white" stroke="#666666" points="301.5,-711 149.5,-711 149.5,-648 301.5,-648 301.5,-711"/>
<text text-anchor="start" x="157.5" y="-699" font-family="Helvetica,sans-Serif" font-size="10.00">fmt::formatter&lt; std</text>
<text text-anchor="start" x="157.5" y="-688" font-family="Helvetica,sans-Serif" font-size="10.00">::shared_ptr&lt; T &gt;, std</text>
<text text-anchor="start" x="157.5" y="-677" font-family="Helvetica,sans-Serif" font-size="10.00">::enable_if_t&lt; std::is</text>
<text text-anchor="start" x="157.5" y="-666" font-family="Helvetica,sans-Serif" font-size="10.00">_base_of&lt; bustub::Schema,</text>
<text text-anchor="middle" x="225.5" y="-655" font-family="Helvetica,sans-Serif" font-size="10.00"> T &gt;::value, char &gt; &gt;</text>
</a>
</g>
</g>
<!-- Node0&#45;&gt;Node25 -->
<g id="edge120_Node000000_Node000025" class="edge">
<title>Node0&#45;&gt;Node25</title>
<g id="a_edge120_Node000000_Node000025"><a xlink:title=" ">
<path fill="none" stroke="#63b8ff" d="M45.34,-1105.68C50.62,-1032.79 72.23,-780.77 122,-720.5 129.38,-711.56 139,-704.55 149.39,-699.07"/>
<polygon fill="#63b8ff" stroke="#63b8ff" points="41.84,-1105.56 44.63,-1115.78 48.82,-1106.05 41.84,-1105.56"/>
</a>
</g>
</g>
<!-- Node26 -->
<g id="Node000026" class="node">
<title>Node26</title>
<g id="a_Node000026"><a xlink:href="dc/d95/structfmt_1_1formatter_3_01std_1_1unique__ptr_3_01T_01_4_00_01std_1_1enable__if__t_3_01std_1_1is58c514c21abf42eb5ed1d95711265c23.html" target="_top" xlink:title=" ">
<polygon fill="white" stroke="#666666" points="329,-630 122,-630 122,-567 329,-567 329,-630"/>
<text text-anchor="start" x="130" y="-618" font-family="Helvetica,sans-Serif" font-size="10.00">fmt::formatter&lt; std</text>
<text text-anchor="start" x="130" y="-607" font-family="Helvetica,sans-Serif" font-size="10.00">::unique_ptr&lt; T &gt;, std</text>
<text text-anchor="start" x="130" y="-596" font-family="Helvetica,sans-Serif" font-size="10.00">::enable_if_t&lt; std::is</text>
<text text-anchor="start" x="130" y="-585" font-family="Helvetica,sans-Serif" font-size="10.00">_base_of&lt; bustub::AbstractExpression,</text>
<text text-anchor="middle" x="225.5" y="-574" font-family="Helvetica,sans-Serif" font-size="10.00"> T &gt;::value, char &gt; &gt;</text>
</a>
</g>
</g>
<!-- Node0&#45;&gt;Node26 -->
<g id="edge121_Node000000_Node000026" class="edge">
<title>Node0&#45;&gt;Node26</title>
<g id="a_edge121_Node000000_Node000026"><a xlink:title=" ">
<path fill="none" stroke="#63b8ff" d="M44.64,-1105.54C47.66,-1023.54 62.85,-713.44 122,-639.5 124.75,-636.06 127.84,-632.9 131.18,-630.01"/>
<polygon fill="#63b8ff" stroke="#63b8ff" points="41.13,-1105.81 44.28,-1115.93 48.13,-1106.05 41.13,-1105.81"/>
</a>
</g>
</g>
<!-- Node27 -->
<g id="Node000027" class="node">
<title>Node27</title>
<g id="a_Node000027"><a xlink:href="d8/d70/structfmt_1_1formatter_3_01std_1_1unique__ptr_3_01T_01_4_00_01std_1_1enable__if__t_3_01std_1_1isa97d2ca8d2f4e45c5ad1c447ea87613d.html" target="_top" xlink:title=" ">
<polygon fill="white" stroke="#666666" points="311.5,-549 139.5,-549 139.5,-486 311.5,-486 311.5,-549"/>
<text text-anchor="start" x="147.5" y="-537" font-family="Helvetica,sans-Serif" font-size="10.00">fmt::formatter&lt; std</text>
<text text-anchor="start" x="147.5" y="-526" font-family="Helvetica,sans-Serif" font-size="10.00">::unique_ptr&lt; T &gt;, std</text>
<text text-anchor="start" x="147.5" y="-515" font-family="Helvetica,sans-Serif" font-size="10.00">::enable_if_t&lt; std::is</text>
<text text-anchor="start" x="147.5" y="-504" font-family="Helvetica,sans-Serif" font-size="10.00">_base_of&lt; bustub::AbstractPlan</text>
<text text-anchor="middle" x="225.5" y="-493" font-family="Helvetica,sans-Serif" font-size="10.00">Node, T &gt;::value, char &gt; &gt;</text>
</a>
</g>
</g>
<!-- Node0&#45;&gt;Node27 -->
<g id="edge122_Node000000_Node000027" class="edge">
<title>Node0&#45;&gt;Node27</title>
<g id="a_edge122_Node000000_Node000027"><a xlink:title=" ">
<path fill="none" stroke="#63b8ff" d="M44.14,-1105.46C45.13,-1015.1 53.41,-646.25 122,-558.5 126.84,-552.31 132.76,-547.05 139.29,-542.58"/>
<polygon fill="#63b8ff" stroke="#63b8ff" points="40.63,-1105.66 44.04,-1115.69 47.63,-1105.72 40.63,-1105.66"/>
</a>
</g>
</g>
<!-- Node28 -->
<g id="Node000028" class="node">
<title>Node28</title>
<g id="a_Node000028"><a xlink:href="d1/d9d/structfmt_1_1formatter_3_01std_1_1unique__ptr_3_01T_01_4_00_01std_1_1enable__if__t_3_01std_1_1is33298db1cd19343f8e4279616d13ed8c.html" target="_top" xlink:title=" ">
<polygon fill="white" stroke="#666666" points="324,-468 127,-468 127,-405 324,-405 324,-468"/>
<text text-anchor="start" x="135" y="-456" font-family="Helvetica,sans-Serif" font-size="10.00">fmt::formatter&lt; std</text>
<text text-anchor="start" x="135" y="-445" font-family="Helvetica,sans-Serif" font-size="10.00">::unique_ptr&lt; T &gt;, std</text>
<text text-anchor="start" x="135" y="-434" font-family="Helvetica,sans-Serif" font-size="10.00">::enable_if_t&lt; std::is</text>
<text text-anchor="start" x="135" y="-423" font-family="Helvetica,sans-Serif" font-size="10.00">_base_of&lt; bustub::BoundExpression,</text>
<text text-anchor="middle" x="225.5" y="-412" font-family="Helvetica,sans-Serif" font-size="10.00"> T &gt;::value, char &gt; &gt;</text>
</a>
</g>
</g>
<!-- Node0&#45;&gt;Node28 -->
<g id="edge123_Node000000_Node000028" class="edge">
<title>Node0&#45;&gt;Node28</title>
<g id="a_edge123_Node000000_Node000028"><a xlink:title=" ">
<path fill="none" stroke="#63b8ff" d="M43.75,-1105.46C42.93,-1007.46 43.89,-579.18 122,-477.5 124.57,-474.16 127.45,-471.08 130.58,-468.26"/>
<polygon fill="#63b8ff" stroke="#63b8ff" points="40.25,-1105.77 43.86,-1115.74 47.25,-1105.7 40.25,-1105.77"/>
</a>
</g>
</g>
<!-- Node29 -->
<g id="Node000029" class="node">
<title>Node29</title>
<g id="a_Node000029"><a xlink:href="d5/d60/structfmt_1_1formatter_3_01std_1_1unique__ptr_3_01T_01_4_00_01std_1_1enable__if__t_3_01std_1_1is697a13f22cee5039ab9bb40482914978.html" target="_top" xlink:title=" ">
<polygon fill="white" stroke="#666666" points="317.5,-387 133.5,-387 133.5,-324 317.5,-324 317.5,-387"/>
<text text-anchor="start" x="141.5" y="-375" font-family="Helvetica,sans-Serif" font-size="10.00">fmt::formatter&lt; std</text>
<text text-anchor="start" x="141.5" y="-364" font-family="Helvetica,sans-Serif" font-size="10.00">::unique_ptr&lt; T &gt;, std</text>
<text text-anchor="start" x="141.5" y="-353" font-family="Helvetica,sans-Serif" font-size="10.00">::enable_if_t&lt; std::is</text>
<text text-anchor="start" x="141.5" y="-342" font-family="Helvetica,sans-Serif" font-size="10.00">_base_of&lt; bustub::BoundOrderBy,</text>
<text text-anchor="middle" x="225.5" y="-331" font-family="Helvetica,sans-Serif" font-size="10.00"> T &gt;::value, char &gt; &gt;</text>
</a>
</g>
</g>
<!-- Node0&#45;&gt;Node29 -->
<g id="edge124_Node000000_Node000029" class="edge">
<title>Node0&#45;&gt;Node29</title>
<g id="a_edge124_Node000000_Node000029"><a xlink:title=" ">
<path fill="none" stroke="#63b8ff" d="M44.91,-1105.73C50.15,-995.02 77.87,-454.74 122,-396.5 125.24,-392.22 129,-388.39 133.12,-384.96"/>
<polygon fill="#63b8ff" stroke="#63b8ff" points="41.41,-1105.68 44.44,-1115.83 48.4,-1106.01 41.41,-1105.68"/>
</a>
</g>
</g>
<!-- Node30 -->
<g id="Node000030" class="node">
<title>Node30</title>
<g id="a_Node000030"><a xlink:href="d1/d5b/structfmt_1_1formatter_3_01std_1_1unique__ptr_3_01T_01_4_00_01std_1_1enable__if__t_3_01std_1_1isb01991c996872e322f250aa044630ce0.html" target="_top" xlink:title=" ">
<polygon fill="white" stroke="#666666" points="318.5,-306 132.5,-306 132.5,-243 318.5,-243 318.5,-306"/>
<text text-anchor="start" x="140.5" y="-294" font-family="Helvetica,sans-Serif" font-size="10.00">fmt::formatter&lt; std</text>
<text text-anchor="start" x="140.5" y="-283" font-family="Helvetica,sans-Serif" font-size="10.00">::unique_ptr&lt; T &gt;, std</text>
<text text-anchor="start" x="140.5" y="-272" font-family="Helvetica,sans-Serif" font-size="10.00">::enable_if_t&lt; std::is</text>
<text text-anchor="start" x="140.5" y="-261" font-family="Helvetica,sans-Serif" font-size="10.00">_base_of&lt; bustub::BoundTableRef,</text>
<text text-anchor="middle" x="225.5" y="-250" font-family="Helvetica,sans-Serif" font-size="10.00"> T &gt;::value, char &gt; &gt;</text>
</a>
</g>
</g>
<!-- Node0&#45;&gt;Node30 -->
<g id="edge125_Node000000_Node000030" class="edge">
<title>Node0&#45;&gt;Node30</title>
<g id="a_edge125_Node000000_Node000030"><a xlink:title=" ">
<path fill="none" stroke="#63b8ff" d="M44.68,-1105.79C48.92,-988.07 73.06,-380.8 122,-315.5 124.99,-311.51 128.43,-307.91 132.19,-304.66"/>
<polygon fill="#63b8ff" stroke="#63b8ff" points="41.18,-1105.76 44.33,-1115.88 48.18,-1106.01 41.18,-1105.76"/>
</a>
</g>
</g>
<!-- Node31 -->
<g id="Node000031" class="node">
<title>Node31</title>
<g id="a_Node000031"><a xlink:href="de/df9/structfmt_1_1formatter_3_01std_1_1unique__ptr_3_01T_01_4_00_01std_1_1enable__if__t_3_01std_1_1is2598e58a6390d2f965a4fb2199bc7eab.html" target="_top" xlink:title=" ">
<polygon fill="white" stroke="#666666" points="301,-225 150,-225 150,-162 301,-162 301,-225"/>
<text text-anchor="start" x="158" y="-213" font-family="Helvetica,sans-Serif" font-size="10.00">fmt::formatter&lt; std</text>
<text text-anchor="start" x="158" y="-202" font-family="Helvetica,sans-Serif" font-size="10.00">::unique_ptr&lt; T &gt;, std</text>
<text text-anchor="start" x="158" y="-191" font-family="Helvetica,sans-Serif" font-size="10.00">::enable_if_t&lt; std::is</text>
<text text-anchor="start" x="158" y="-180" font-family="Helvetica,sans-Serif" font-size="10.00">_base_of&lt; bustub::Column,</text>
<text text-anchor="middle" x="225.5" y="-169" font-family="Helvetica,sans-Serif" font-size="10.00"> T &gt;::value, char &gt; &gt;</text>
</a>
</g>
</g>
<!-- Node0&#45;&gt;Node31 -->
<g id="edge126_Node000000_Node000031" class="edge">
<title>Node0&#45;&gt;Node31</title>
<g id="a_edge126_Node000000_Node000031"><a xlink:title=" ">
<path fill="none" stroke="#63b8ff" d="M44.5,-1105.78C47.83,-981.27 68.24,-306.88 122,-234.5 129.2,-224.81 139.06,-217.4 149.84,-211.74"/>
<polygon fill="#63b8ff" stroke="#63b8ff" points="41,-1105.72 44.24,-1115.8 48,-1105.9 41,-1105.72"/>
</a>
</g>
</g>
<!-- Node32 -->
<g id="Node000032" class="node">
<title>Node32</title>
<g id="a_Node000032"><a xlink:href="df/dcd/structfmt_1_1formatter_3_01std_1_1unique__ptr_3_01T_01_4_00_01std_1_1enable__if__t_3_01std_1_1is1166b43ed22e9d162a84c756aef916b5.html" target="_top" xlink:title=" ">
<polygon fill="white" stroke="#666666" points="301.5,-144 149.5,-144 149.5,-81 301.5,-81 301.5,-144"/>
<text text-anchor="start" x="157.5" y="-132" font-family="Helvetica,sans-Serif" font-size="10.00">fmt::formatter&lt; std</text>
<text text-anchor="start" x="157.5" y="-121" font-family="Helvetica,sans-Serif" font-size="10.00">::unique_ptr&lt; T &gt;, std</text>
<text text-anchor="start" x="157.5" y="-110" font-family="Helvetica,sans-Serif" font-size="10.00">::enable_if_t&lt; std::is</text>
<text text-anchor="start" x="157.5" y="-99" font-family="Helvetica,sans-Serif" font-size="10.00">_base_of&lt; bustub::Schema,</text>
<text text-anchor="middle" x="225.5" y="-88" font-family="Helvetica,sans-Serif" font-size="10.00"> T &gt;::value, char &gt; &gt;</text>
</a>
</g>
</g>
<!-- Node0&#45;&gt;Node32 -->
<g id="edge127_Node000000_Node000032" class="edge">
<title>Node0&#45;&gt;Node32</title>
<g id="a_edge127_Node000000_Node000032"><a xlink:title=" ">
<path fill="none" stroke="#63b8ff" d="M44.35,-1105.65C46.84,-974.3 63.44,-232.95 122,-153.5 129.05,-143.93 138.7,-136.6 149.27,-130.97"/>
<polygon fill="#63b8ff" stroke="#63b8ff" points="40.85,-1105.78 44.16,-1115.84 47.85,-1105.91 40.85,-1105.78"/>
</a>
</g>
</g>
<!-- Node33 -->
<g id="Node000033" class="node">
<title>Node33</title>
<g id="a_Node000033"><a xlink:href="d6/dc2/structfmt_1_1formatter_3_01std_1_1unique__ptr_3_01T_01_4_00_01std_1_1enable__if__t_3_01std_1_1is40838307b75c4029573d0a9f1e643fad.html" target="_top" xlink:title=" ">
<polygon fill="white" stroke="#666666" points="295.5,-63 155.5,-63 155.5,0 295.5,0 295.5,-63"/>
<text text-anchor="start" x="163.5" y="-51" font-family="Helvetica,sans-Serif" font-size="10.00">fmt::formatter&lt; std</text>
<text text-anchor="start" x="163.5" y="-40" font-family="Helvetica,sans-Serif" font-size="10.00">::unique_ptr&lt; T &gt;, std</text>
<text text-anchor="start" x="163.5" y="-29" font-family="Helvetica,sans-Serif" font-size="10.00">::enable_if_t&lt; std::is</text>
<text text-anchor="start" x="163.5" y="-18" font-family="Helvetica,sans-Serif" font-size="10.00">_base_of&lt; bustub::Value,</text>
<text text-anchor="middle" x="225.5" y="-7" font-family="Helvetica,sans-Serif" font-size="10.00"> T &gt;::value, char &gt; &gt;</text>
</a>
</g>
</g>
<!-- Node0&#45;&gt;Node33 -->
<g id="edge128_Node000000_Node000033" class="edge">
<title>Node0&#45;&gt;Node33</title>
<g id="a_edge128_Node000000_Node000033"><a xlink:title=" ">
<path fill="none" stroke="#63b8ff" d="M44.22,-1105.73C45.92,-968.37 58.59,-159.08 122,-72.5 130.38,-61.06 142.48,-52.8 155.45,-46.85"/>
<polygon fill="#63b8ff" stroke="#63b8ff" points="40.72,-1105.96 44.1,-1116 47.72,-1106.04 40.72,-1105.96"/>
</a>
</g>
</g>
</g>
</svg>
