<?xml version="1.0" encoding="UTF-8" standalone="no"?>
<!DOCTYPE svg PUBLIC "-//W3C//DTD SVG 1.1//EN"
 "http://www.w3.org/Graphics/SVG/1.1/DTD/svg11.dtd">
<!-- Generated by graphviz version 2.43.0 (0)
 -->
<!-- Title: 类继承关系图 Pages: 1 -->
<svg width="334pt" height="64pt"
 viewBox="0.00 0.00 334.00 64.00" xmlns="http://www.w3.org/2000/svg" xmlns:xlink="http://www.w3.org/1999/xlink">
<g id="graph0" class="graph" transform="scale(1 1) rotate(0) translate(4 60)">
<title>类继承关系图</title>
<!-- Node0 -->
<g id="Node000000" class="node">
<title>Node0</title>
<g id="a_Node000000"><a xlink:href="d6/d48/classbustub_1_1BPlusTreePage.html" target="_top" xlink:title=" ">
<polygon fill="white" stroke="#666666" points="126,-37 0,-37 0,-18 126,-18 126,-37"/>
<text text-anchor="middle" x="63" y="-25" font-family="Helvetica,sans-Serif" font-size="10.00">bustub::BPlusTreePage</text>
</a>
</g>
</g>
<!-- Node1 -->
<g id="Node000001" class="node">
<title>Node1</title>
<g id="a_Node000001"><a xlink:href="da/d05/classbustub_1_1BPlusTreeInternalPage.html" target="_top" xlink:title=" ">
<polygon fill="white" stroke="#666666" points="326,-56 162,-56 162,-37 326,-37 326,-56"/>
<text text-anchor="middle" x="244" y="-44" font-family="Helvetica,sans-Serif" font-size="10.00">bustub::BPlusTreeInternalPage</text>
</a>
</g>
</g>
<!-- Node0&#45;&gt;Node1 -->
<g id="edge70_Node000000_Node000001" class="edge">
<title>Node0&#45;&gt;Node1</title>
<g id="a_edge70_Node000000_Node000001"><a xlink:title=" ">
<path fill="none" stroke="#63b8ff" d="M136.23,-35.17C144.64,-36.06 153.26,-36.97 161.78,-37.88"/>
<polygon fill="#63b8ff" stroke="#63b8ff" points="136.42,-31.67 126.1,-34.09 135.68,-38.63 136.42,-31.67"/>
</a>
</g>
</g>
<!-- Node2 -->
<g id="Node000002" class="node">
<title>Node2</title>
<g id="a_Node000002"><a xlink:href="dc/d79/classbustub_1_1BPlusTreeLeafPage.html" target="_top" xlink:title=" ">
<polygon fill="white" stroke="#666666" points="317.5,-19 170.5,-19 170.5,0 317.5,0 317.5,-19"/>
<text text-anchor="middle" x="244" y="-7" font-family="Helvetica,sans-Serif" font-size="10.00">bustub::BPlusTreeLeafPage</text>
</a>
</g>
</g>
<!-- Node0&#45;&gt;Node2 -->
<g id="edge71_Node000000_Node000002" class="edge">
<title>Node0&#45;&gt;Node2</title>
<g id="a_edge71_Node000000_Node000002"><a xlink:title=" ">
<path fill="none" stroke="#63b8ff" d="M136.26,-20.23C147.46,-19.11 159.03,-17.94 170.24,-16.82"/>
<polygon fill="#63b8ff" stroke="#63b8ff" points="135.7,-16.77 126.1,-21.25 136.4,-23.74 135.7,-16.77"/>
</a>
</g>
</g>
</g>
</svg>
