<?xml version="1.0" encoding="UTF-8" standalone="no"?>
<!DOCTYPE svg PUBLIC "-//W3C//DTD SVG 1.1//EN"
 "http://www.w3.org/Graphics/SVG/1.1/DTD/svg11.dtd">
<!-- Generated by graphviz version 2.43.0 (0)
 -->
<!-- Title: 类继承关系图 Pages: 1 -->
<svg width="590pt" height="138pt"
 viewBox="0.00 0.00 590.00 138.00" xmlns="http://www.w3.org/2000/svg" xmlns:xlink="http://www.w3.org/1999/xlink">
<g id="graph0" class="graph" transform="scale(1 1) rotate(0) translate(4 134)">
<title>类继承关系图</title>
<!-- Node0 -->
<g id="Node000000" class="node">
<title>Node0</title>
<g id="a_Node000000"><a xlink:href="d9/df4/classbustub_1_1Type.html" target="_top" xlink:title=" ">
<polygon fill="white" stroke="#666666" points="78,-74 0,-74 0,-55 78,-55 78,-74"/>
<text text-anchor="middle" x="39" y="-62" font-family="Helvetica,sans-Serif" font-size="10.00">bustub::Type</text>
</a>
</g>
</g>
<!-- Node1 -->
<g id="Node000001" class="node">
<title>Node1</title>
<g id="a_Node000001"><a xlink:href="da/d83/classbustub_1_1BooleanType.html" target="_top" xlink:title=" ">
<polygon fill="white" stroke="#666666" points="240,-130 122,-130 122,-111 240,-111 240,-130"/>
<text text-anchor="middle" x="181" y="-118" font-family="Helvetica,sans-Serif" font-size="10.00">bustub::BooleanType</text>
</a>
</g>
</g>
<!-- Node0&#45;&gt;Node1 -->
<g id="edge86_Node000000_Node000001" class="edge">
<title>Node0&#45;&gt;Node1</title>
<g id="a_edge86_Node000000_Node000001"><a xlink:title=" ">
<path fill="none" stroke="#63b8ff" d="M65.31,-79.16C79.33,-86.85 97.26,-96 114,-102.5 122.19,-105.68 131.16,-108.53 139.78,-110.97"/>
<polygon fill="#63b8ff" stroke="#63b8ff" points="66.73,-75.95 56.29,-74.12 63.31,-82.06 66.73,-75.95"/>
</a>
</g>
</g>
<!-- Node2 -->
<g id="Node000002" class="node">
<title>Node2</title>
<g id="a_Node000002"><a xlink:href="de/def/classbustub_1_1NumericType.html" target="_top" xlink:title=" ">
<polygon fill="white" stroke="#666666" points="240.5,-93 121.5,-93 121.5,-74 240.5,-74 240.5,-93"/>
<text text-anchor="middle" x="181" y="-81" font-family="Helvetica,sans-Serif" font-size="10.00">bustub::NumericType</text>
</a>
</g>
</g>
<!-- Node0&#45;&gt;Node2 -->
<g id="edge87_Node000000_Node000002" class="edge">
<title>Node0&#45;&gt;Node2</title>
<g id="a_edge87_Node000000_Node000002"><a xlink:title=" ">
<path fill="none" stroke="#63b8ff" d="M88.21,-71.04C98.86,-72.49 110.27,-74.04 121.29,-75.53"/>
<polygon fill="#63b8ff" stroke="#63b8ff" points="88.64,-67.57 78.26,-69.69 87.69,-74.5 88.64,-67.57"/>
</a>
</g>
</g>
<!-- Node9 -->
<g id="Node000009" class="node">
<title>Node9</title>
<g id="a_Node000009"><a xlink:href="dc/da4/classbustub_1_1TimestampType.html" target="_top" xlink:title=" ">
<polygon fill="white" stroke="#666666" points="248,-56 114,-56 114,-37 248,-37 248,-56"/>
<text text-anchor="middle" x="181" y="-44" font-family="Helvetica,sans-Serif" font-size="10.00">bustub::TimestampType</text>
</a>
</g>
</g>
<!-- Node0&#45;&gt;Node9 -->
<g id="edge94_Node000000_Node000009" class="edge">
<title>Node0&#45;&gt;Node9</title>
<g id="a_edge94_Node000000_Node000009"><a xlink:title=" ">
<path fill="none" stroke="#63b8ff" d="M88.37,-58.28C96.58,-57.23 105.22,-56.11 113.79,-55.01"/>
<polygon fill="#63b8ff" stroke="#63b8ff" points="87.73,-54.83 78.26,-59.58 88.62,-61.78 87.73,-54.83"/>
</a>
</g>
</g>
<!-- Node10 -->
<g id="Node000010" class="node">
<title>Node10</title>
<g id="a_Node000010"><a xlink:href="d4/d2c/classbustub_1_1VarlenType.html" target="_top" xlink:title=" ">
<polygon fill="white" stroke="#666666" points="235.5,-19 126.5,-19 126.5,0 235.5,0 235.5,-19"/>
<text text-anchor="middle" x="181" y="-7" font-family="Helvetica,sans-Serif" font-size="10.00">bustub::VarlenType</text>
</a>
</g>
</g>
<!-- Node0&#45;&gt;Node10 -->
<g id="edge95_Node000000_Node000010" class="edge">
<title>Node0&#45;&gt;Node10</title>
<g id="a_edge95_Node000000_Node000010"><a xlink:title=" ">
<path fill="none" stroke="#63b8ff" d="M66.55,-50.2C80.43,-43.09 97.85,-34.7 114,-28.5 123.13,-25 133.18,-21.79 142.63,-19.04"/>
<polygon fill="#63b8ff" stroke="#63b8ff" points="64.81,-47.16 57.56,-54.89 68.05,-53.37 64.81,-47.16"/>
</a>
</g>
</g>
<!-- Node3 -->
<g id="Node000003" class="node">
<title>Node3</title>
<g id="a_Node000003"><a xlink:href="de/d8f/classbustub_1_1DecimalType.html" target="_top" xlink:title=" ">
<polygon fill="white" stroke="#666666" points="415,-111 296,-111 296,-92 415,-92 415,-111"/>
<text text-anchor="middle" x="355.5" y="-99" font-family="Helvetica,sans-Serif" font-size="10.00">bustub::DecimalType</text>
</a>
</g>
</g>
<!-- Node2&#45;&gt;Node3 -->
<g id="edge88_Node000002_Node000003" class="edge">
<title>Node2&#45;&gt;Node3</title>
<g id="a_edge88_Node000002_Node000003"><a xlink:title=" ">
<path fill="none" stroke="#63b8ff" d="M251.03,-90.7C265.89,-92.25 281.46,-93.88 295.88,-95.38"/>
<polygon fill="#63b8ff" stroke="#63b8ff" points="251.19,-87.2 240.88,-89.64 250.46,-94.16 251.19,-87.2"/>
</a>
</g>
</g>
<!-- Node4 -->
<g id="Node000004" class="node">
<title>Node4</title>
<g id="a_Node000004"><a xlink:href="db/d01/classbustub_1_1IntegerParentType.html" target="_top" xlink:title=" ">
<polygon fill="white" stroke="#666666" points="427,-74 284,-74 284,-55 427,-55 427,-74"/>
<text text-anchor="middle" x="355.5" y="-62" font-family="Helvetica,sans-Serif" font-size="10.00">bustub::IntegerParentType</text>
</a>
</g>
</g>
<!-- Node2&#45;&gt;Node4 -->
<g id="edge89_Node000002_Node000004" class="edge">
<title>Node2&#45;&gt;Node4</title>
<g id="a_edge89_Node000002_Node000004"><a xlink:title=" ">
<path fill="none" stroke="#63b8ff" d="M251.11,-75.89C261.93,-74.7 273.12,-73.46 283.97,-72.27"/>
<polygon fill="#63b8ff" stroke="#63b8ff" points="250.44,-72.44 240.88,-77.01 251.21,-79.4 250.44,-72.44"/>
</a>
</g>
</g>
<!-- Node5 -->
<g id="Node000005" class="node">
<title>Node5</title>
<g id="a_Node000005"><a xlink:href="d9/d45/classbustub_1_1BigintType.html" target="_top" xlink:title=" ">
<polygon fill="white" stroke="#666666" points="576,-130 469,-130 469,-111 576,-111 576,-130"/>
<text text-anchor="middle" x="522.5" y="-118" font-family="Helvetica,sans-Serif" font-size="10.00">bustub::BigintType</text>
</a>
</g>
</g>
<!-- Node4&#45;&gt;Node5 -->
<g id="edge90_Node000004_Node000005" class="edge">
<title>Node4&#45;&gt;Node5</title>
<g id="a_edge90_Node000004_Node000005"><a xlink:title=" ">
<path fill="none" stroke="#63b8ff" d="M407.61,-76.83C414.21,-78.84 420.82,-81.07 427,-83.5 443.84,-90.12 446.28,-95.59 463,-102.5 470.56,-105.63 478.87,-108.5 486.78,-110.99"/>
<polygon fill="#63b8ff" stroke="#63b8ff" points="408.59,-73.46 398.01,-74.04 406.63,-80.19 408.59,-73.46"/>
</a>
</g>
</g>
<!-- Node6 -->
<g id="Node000006" class="node">
<title>Node6</title>
<g id="a_Node000006"><a xlink:href="d7/d0d/classbustub_1_1IntegerType.html" target="_top" xlink:title=" ">
<polygon fill="white" stroke="#666666" points="579,-93 466,-93 466,-74 579,-74 579,-93"/>
<text text-anchor="middle" x="522.5" y="-81" font-family="Helvetica,sans-Serif" font-size="10.00">bustub::IntegerType</text>
</a>
</g>
</g>
<!-- Node4&#45;&gt;Node6 -->
<g id="edge91_Node000004_Node000006" class="edge">
<title>Node4&#45;&gt;Node6</title>
<g id="a_edge91_Node000004_Node000006"><a xlink:title=" ">
<path fill="none" stroke="#63b8ff" d="M437.42,-73.82C447.03,-74.92 456.67,-76.03 465.82,-77.09"/>
<polygon fill="#63b8ff" stroke="#63b8ff" points="437.77,-70.33 427.43,-72.67 436.97,-77.29 437.77,-70.33"/>
</a>
</g>
</g>
<!-- Node7 -->
<g id="Node000007" class="node">
<title>Node7</title>
<g id="a_Node000007"><a xlink:href="dd/dc2/classbustub_1_1SmallintType.html" target="_top" xlink:title=" ">
<polygon fill="white" stroke="#666666" points="582,-56 463,-56 463,-37 582,-37 582,-56"/>
<text text-anchor="middle" x="522.5" y="-44" font-family="Helvetica,sans-Serif" font-size="10.00">bustub::SmallintType</text>
</a>
</g>
</g>
<!-- Node4&#45;&gt;Node7 -->
<g id="edge92_Node000004_Node000007" class="edge">
<title>Node4&#45;&gt;Node7</title>
<g id="a_edge92_Node000004_Node000007"><a xlink:title=" ">
<path fill="none" stroke="#63b8ff" d="M437.44,-55.67C445.98,-54.74 454.56,-53.8 462.78,-52.91"/>
<polygon fill="#63b8ff" stroke="#63b8ff" points="436.99,-52.2 427.43,-56.76 437.75,-59.16 436.99,-52.2"/>
</a>
</g>
</g>
<!-- Node8 -->
<g id="Node000008" class="node">
<title>Node8</title>
<g id="a_Node000008"><a xlink:href="d2/d1b/classbustub_1_1TinyintType.html" target="_top" xlink:title=" ">
<polygon fill="white" stroke="#666666" points="578.5,-19 466.5,-19 466.5,0 578.5,0 578.5,-19"/>
<text text-anchor="middle" x="522.5" y="-7" font-family="Helvetica,sans-Serif" font-size="10.00">bustub::TinyintType</text>
</a>
</g>
</g>
<!-- Node4&#45;&gt;Node8 -->
<g id="edge93_Node000004_Node000008" class="edge">
<title>Node4&#45;&gt;Node8</title>
<g id="a_edge93_Node000004_Node000008"><a xlink:title=" ">
<path fill="none" stroke="#63b8ff" d="M394.05,-51.69C414.43,-44.76 440.07,-36.1 463,-28.5 472.33,-25.41 482.5,-22.09 491.72,-19.1"/>
<polygon fill="#63b8ff" stroke="#63b8ff" points="392.84,-48.4 384.5,-54.93 395.09,-55.03 392.84,-48.4"/>
</a>
</g>
</g>
</g>
</svg>
