<?xml version="1.0" encoding="UTF-8" standalone="no"?>
<!DOCTYPE svg PUBLIC "-//W3C//DTD SVG 1.1//EN"
 "http://www.w3.org/Graphics/SVG/1.1/DTD/svg11.dtd">
<!-- Generated by graphviz version 2.43.0 (0)
 -->
<!-- Title: 类继承关系图 Pages: 1 -->
<svg width="267pt" height="64pt"
 viewBox="0.00 0.00 267.00 64.00" xmlns="http://www.w3.org/2000/svg" xmlns:xlink="http://www.w3.org/1999/xlink">
<g id="graph0" class="graph" transform="scale(1 1) rotate(0) translate(4 60)">
<title>类继承关系图</title>
<!-- Node0 -->
<g id="Node000000" class="node">
<title>Node0</title>
<g id="a_Node000000"><a xlink:href="de/dda/classbustub_1_1Replacer.html" target="_top" xlink:title=" ">
<polygon fill="white" stroke="#666666" points="98,-37 0,-37 0,-18 98,-18 98,-37"/>
<text text-anchor="middle" x="49" y="-25" font-family="Helvetica,sans-Serif" font-size="10.00">bustub::Replacer</text>
</a>
</g>
</g>
<!-- Node1 -->
<g id="Node000001" class="node">
<title>Node1</title>
<g id="a_Node000001"><a xlink:href="df/d83/classbustub_1_1ClockReplacer.html" target="_top" xlink:title=" ">
<polygon fill="white" stroke="#666666" points="259,-56 134,-56 134,-37 259,-37 259,-56"/>
<text text-anchor="middle" x="196.5" y="-44" font-family="Helvetica,sans-Serif" font-size="10.00">bustub::ClockReplacer</text>
</a>
</g>
</g>
<!-- Node0&#45;&gt;Node1 -->
<g id="edge78_Node000000_Node000001" class="edge">
<title>Node0&#45;&gt;Node1</title>
<g id="a_edge78_Node000000_Node000001"><a xlink:title=" ">
<path fill="none" stroke="#63b8ff" d="M108.15,-35.09C116.57,-36.19 125.26,-37.33 133.75,-38.44"/>
<polygon fill="#63b8ff" stroke="#63b8ff" points="108.41,-31.6 98.05,-33.77 107.51,-38.54 108.41,-31.6"/>
</a>
</g>
</g>
<!-- Node2 -->
<g id="Node000002" class="node">
<title>Node2</title>
<g id="a_Node000002"><a xlink:href="d1/d87/classbustub_1_1LRUReplacer.html" target="_top" xlink:title=" ">
<polygon fill="white" stroke="#666666" points="255.5,-19 137.5,-19 137.5,0 255.5,0 255.5,-19"/>
<text text-anchor="middle" x="196.5" y="-7" font-family="Helvetica,sans-Serif" font-size="10.00">bustub::LRUReplacer</text>
</a>
</g>
</g>
<!-- Node0&#45;&gt;Node2 -->
<g id="edge79_Node000000_Node000002" class="edge">
<title>Node0&#45;&gt;Node2</title>
<g id="a_edge79_Node000000_Node000002"><a xlink:title=" ">
<path fill="none" stroke="#63b8ff" d="M108.28,-20.29C117.86,-19.11 127.79,-17.88 137.37,-16.69"/>
<polygon fill="#63b8ff" stroke="#63b8ff" points="107.54,-16.85 98.05,-21.56 108.4,-23.8 107.54,-16.85"/>
</a>
</g>
</g>
</g>
</svg>
