<?xml version="1.0" encoding="UTF-8" standalone="no"?>
<!DOCTYPE svg PUBLIC "-//W3C//DTD SVG 1.1//EN"
 "http://www.w3.org/Graphics/SVG/1.1/DTD/svg11.dtd">
<!-- Generated by graphviz version 2.43.0 (0)
 -->
<!-- Title: src/binder/statement/select_statement.cpp Pages: 1 -->
<!--zoomable 346 -->

<svg id="main" version="1.1" xmlns="http://www.w3.org/2000/svg" xmlns:xlink="http://www.w3.org/1999/xlink" xml:space="preserve" onload="init(evt)">
<style type="text/css"><![CDATA[
.node, .edge {opacity: 0.7;}
.node.selected, .edge.selected {opacity: 1;}
.edge:hover path { stroke: red; }
.edge:hover polygon { stroke: red; fill: red; }
]]></style>

<defs>
  <circle id="rim" cx="0" cy="0" r="7"/>
  <circle id="rim2" cx="0" cy="0" r="3.5"/>
  <g id="zoomPlus">
    <use xlink:href="#rim" fill="#404040"><set attributeName="fill" to="#808080" begin="zoomplus.mouseover" end="zoomplus.mouseout"/></use>
    <path d="M-4,0h8M0,-4v8" fill="none" stroke="white" stroke-width="1.5" pointer-events="none"/>
  </g>
  <g id="zoomMin">
    <use xlink:href="#rim" fill="#404040"><set attributeName="fill" to="#808080" begin="zoomminus.mouseover" end="zoomminus.mouseout"/></use>
    <path d="M-4,0h8" fill="none" stroke="white" stroke-width="1.5" pointer-events="none"/>
  </g>
  <g id="arrowUp" transform="translate(30 24)">
    <use xlink:href="#rim"/>
    <path pointer-events="none" fill="none" stroke="white" stroke-width="1.5" d="M0,-3.0v7 M-2.5,-0.5L0,-3.0L2.5,-0.5"/>
  </g>
  <g id="arrowRight" transform="rotate(90) translate(36 -43)">
    <use xlink:href="#rim"/>
    <path pointer-events="none" fill="none" stroke="white" stroke-width="1.5" d="M0,-3.0v7 M-2.5,-0.5L0,-3.0L2.5,-0.5"/>
  </g>
  <g id="arrowDown" transform="rotate(180) translate(-30 -48)">
    <use xlink:href="#rim"/>
    <path pointer-events="none" fill="none" stroke="white" stroke-width="1.5" d="M0,-3.0v7 M-2.5,-0.5L0,-3.0L2.5,-0.5"/>
  </g>
  <g id="arrowLeft" transform="rotate(270) translate(-36 17)">
    <use xlink:href="#rim"/>
    <path pointer-events="none" fill="none" stroke="white" stroke-width="1.5" d="M0,-3.0v7 M-2.5,-0.5L0,-3.0L2.5,-0.5"/>
  </g>
  <g id="resetDef">
    <use xlink:href="#rim2" fill="#404040"><set attributeName="fill" to="#808080" begin="reset.mouseover" end="reset.mouseout"/></use>
  </g>
</defs>
<script type="application/ecmascript">
var viewWidth = 1490;
var viewHeight = 346;
var sectionId = 'dynsection-0';
</script>
<script type="application/ecmascript" xlink:href="../../svg.min.js"/>
<svg id="graph" class="graph">
<g id="viewport">
<title>src/binder/statement/select_statement.cpp</title>
<!-- Node1 -->
<g id="Node000001" class="node">
<title>Node1</title>
<g id="a_Node000001"><a xlink:title=" ">
<polygon fill="#999999" stroke="#666666" points="975.5,-338 850.5,-338 850.5,-308 975.5,-308 975.5,-338"/>
<text text-anchor="start" x="858.5" y="-326" font-family="Helvetica,sans-Serif" font-size="10.00">src/binder/statement</text>
<text text-anchor="middle" x="913" y="-315" font-family="Helvetica,sans-Serif" font-size="10.00">/select_statement.cpp</text>
</a>
</g>
</g>
<!-- Node2 -->
<g id="Node000002" class="node">
<title>Node2</title>
<g id="a_Node000002"><a xlink:title=" ">
<polygon fill="#e0e0e0" stroke="#999999" points="725,-74 667,-74 667,-55 725,-55 725,-74"/>
<text text-anchor="middle" x="696" y="-62" font-family="Helvetica,sans-Serif" font-size="10.00">memory</text>
</a>
</g>
</g>
<!-- Node1&#45;&gt;Node2 -->
<g id="edge1_Node000001_Node000002" class="edge">
<title>Node1&#45;&gt;Node2</title>
<g id="a_edge1_Node000001_Node000002"><a xlink:title=" ">
<path fill="none" stroke="#63b8ff" d="M850.34,-311.62C755.84,-294.47 584.42,-256.96 552,-206 516.62,-150.37 611.69,-100.39 664.09,-77.98"/>
<polygon fill="#63b8ff" stroke="#63b8ff" points="665.45,-81.2 673.33,-74.12 662.75,-74.74 665.45,-81.2"/>
</a>
</g>
</g>
<!-- Node3 -->
<g id="Node000003" class="node">
<title>Node3</title>
<g id="a_Node000003"><a xlink:href="../../df/d21/bound__order__by_8h.html" target="_top" xlink:title=" ">
<polygon fill="white" stroke="#666666" points="697,-200.5 561,-200.5 561,-181.5 697,-181.5 697,-200.5"/>
<text text-anchor="middle" x="629" y="-188.5" font-family="Helvetica,sans-Serif" font-size="10.00">binder/bound_order_by.h</text>
</a>
</g>
</g>
<!-- Node1&#45;&gt;Node3 -->
<g id="edge2_Node000001_Node000003" class="edge">
<title>Node1&#45;&gt;Node3</title>
<g id="a_edge2_Node000001_Node000003"><a xlink:title=" ">
<path fill="none" stroke="#63b8ff" d="M851.83,-307.91C820.29,-299.52 781.69,-287.47 749,-272 710.64,-253.85 670.47,-224.66 647.7,-207.01"/>
<polygon fill="#63b8ff" stroke="#63b8ff" points="649.63,-204.07 639.6,-200.64 645.3,-209.58 649.63,-204.07"/>
</a>
</g>
</g>
<!-- Node6 -->
<g id="Node000006" class="node">
<title>Node6</title>
<g id="a_Node000006"><a xlink:href="../../dc/d8b/bound__expression_8h.html" target="_top" xlink:title=" ">
<polygon fill="white" stroke="#666666" points="872,-134.5 724,-134.5 724,-115.5 872,-115.5 872,-134.5"/>
<text text-anchor="middle" x="798" y="-122.5" font-family="Helvetica,sans-Serif" font-size="10.00">binder/bound_expression.h</text>
</a>
</g>
</g>
<!-- Node1&#45;&gt;Node6 -->
<g id="edge32_Node000001_Node000006" class="edge">
<title>Node1&#45;&gt;Node6</title>
<g id="a_edge32_Node000001_Node000006"><a xlink:title=" ">
<path fill="none" stroke="#63b8ff" d="M885.28,-307.88C869.98,-299.08 851.42,-286.66 838,-272 815.44,-247.35 811.06,-238.16 802,-206 796.29,-185.75 795.94,-161.5 796.6,-145.04"/>
<polygon fill="#63b8ff" stroke="#63b8ff" points="800.12,-144.79 797.2,-134.61 793.13,-144.39 800.12,-144.79"/>
</a>
</g>
</g>
<!-- Node11 -->
<g id="Node000011" class="node">
<title>Node11</title>
<g id="a_Node000011"><a xlink:title=" ">
<polygon fill="#e0e0e0" stroke="#999999" points="958.5,-74 879.5,-74 879.5,-55 958.5,-55 958.5,-74"/>
<text text-anchor="middle" x="919" y="-62" font-family="Helvetica,sans-Serif" font-size="10.00">fmt/format.h</text>
</a>
</g>
</g>
<!-- Node1&#45;&gt;Node11 -->
<g id="edge30_Node000001_Node000011" class="edge">
<title>Node1&#45;&gt;Node11</title>
<g id="a_edge30_Node000001_Node000011"><a xlink:title=" ">
<path fill="none" stroke="#63b8ff" d="M975.54,-309.32C1096.43,-282.18 1342.7,-212.45 1253,-110 1234.58,-88.96 1057.4,-74.53 968.85,-68.57"/>
<polygon fill="#63b8ff" stroke="#63b8ff" points="968.98,-65.07 958.77,-67.9 968.51,-72.05 968.98,-65.07"/>
</a>
</g>
</g>
<!-- Node20 -->
<g id="Node000020" class="node">
<title>Node20</title>
<g id="a_Node000020"><a xlink:href="../../dd/d70/string__util_8h.html" target="_top" xlink:title=" ">
<polygon fill="white" stroke="#666666" points="1443.5,-206 1334.5,-206 1334.5,-176 1443.5,-176 1443.5,-206"/>
<text text-anchor="start" x="1342.5" y="-194" font-family="Helvetica,sans-Serif" font-size="10.00">common/util/string</text>
<text text-anchor="middle" x="1389" y="-183" font-family="Helvetica,sans-Serif" font-size="10.00">_util.h</text>
</a>
</g>
</g>
<!-- Node1&#45;&gt;Node20 -->
<g id="edge27_Node000001_Node000020" class="edge">
<title>Node1&#45;&gt;Node20</title>
<g id="a_edge27_Node000001_Node000020"><a xlink:title=" ">
<path fill="none" stroke="#63b8ff" d="M975.75,-319.77C1074.73,-315.36 1261.84,-303.07 1320,-272 1344.47,-258.93 1364.11,-233.38 1376.09,-214.66"/>
<polygon fill="#63b8ff" stroke="#63b8ff" points="1379.09,-216.45 1381.34,-206.1 1373.12,-212.79 1379.09,-216.45"/>
</a>
</g>
</g>
<!-- Node22 -->
<g id="Node000022" class="node">
<title>Node22</title>
<g id="a_Node000022"><a xlink:title=" ">
<polygon fill="#e0e0e0" stroke="#999999" points="1451.5,-266.5 1372.5,-266.5 1372.5,-247.5 1451.5,-247.5 1451.5,-266.5"/>
<text text-anchor="middle" x="1412" y="-254.5" font-family="Helvetica,sans-Serif" font-size="10.00">fmt/ranges.h</text>
</a>
</g>
</g>
<!-- Node1&#45;&gt;Node22 -->
<g id="edge31_Node000001_Node000022" class="edge">
<title>Node1&#45;&gt;Node22</title>
<g id="a_edge31_Node000001_Node000022"><a xlink:title=" ">
<path fill="none" stroke="#63b8ff" d="M975.69,-317.77C1062.21,-311.3 1222.88,-296.98 1358,-272 1362.69,-271.13 1367.58,-270.08 1372.41,-268.95"/>
<polygon fill="#63b8ff" stroke="#63b8ff" points="1373.31,-272.33 1382.18,-266.54 1371.63,-265.53 1373.31,-272.33"/>
</a>
</g>
</g>
<!-- Node23 -->
<g id="Node000023" class="node">
<title>Node23</title>
<g id="a_Node000023"><a xlink:href="../../de/d1a/bound__statement_8h.html" target="_top" xlink:title=" ">
<polygon fill="white" stroke="#666666" points="504.5,-200.5 359.5,-200.5 359.5,-181.5 504.5,-181.5 504.5,-200.5"/>
<text text-anchor="middle" x="432" y="-188.5" font-family="Helvetica,sans-Serif" font-size="10.00">binder/bound_statement.h</text>
</a>
</g>
</g>
<!-- Node1&#45;&gt;Node23 -->
<g id="edge33_Node000001_Node000023" class="edge">
<title>Node1&#45;&gt;Node23</title>
<g id="a_edge33_Node000001_Node000023"><a xlink:title=" ">
<path fill="none" stroke="#63b8ff" d="M850.29,-318.68C754.42,-312.82 576.45,-298.69 519,-272 487.67,-257.45 459.93,-227.44 444.6,-208.6"/>
<polygon fill="#63b8ff" stroke="#63b8ff" points="447.22,-206.28 438.28,-200.59 441.73,-210.61 447.22,-206.28"/>
</a>
</g>
</g>
<!-- Node27 -->
<g id="Node000027" class="node">
<title>Node27</title>
<g id="a_Node000027"><a xlink:href="../../d4/d36/bound__table__ref_8h.html" target="_top" xlink:title=" ">
<polygon fill="white" stroke="#666666" points="1178,-140 1068,-140 1068,-110 1178,-110 1178,-140"/>
<text text-anchor="start" x="1076" y="-128" font-family="Helvetica,sans-Serif" font-size="10.00">binder/bound_table</text>
<text text-anchor="middle" x="1123" y="-117" font-family="Helvetica,sans-Serif" font-size="10.00">_ref.h</text>
</a>
</g>
</g>
<!-- Node1&#45;&gt;Node27 -->
<g id="edge42_Node000001_Node000027" class="edge">
<title>Node1&#45;&gt;Node27</title>
<g id="a_edge42_Node000001_Node000027"><a xlink:title=" ">
<path fill="none" stroke="#63b8ff" d="M975.67,-308.26C1028.44,-293.03 1100.64,-262.72 1135,-206 1145.24,-189.09 1140.59,-166.58 1134.33,-149.75"/>
<polygon fill="#63b8ff" stroke="#63b8ff" points="1137.4,-148.01 1130.34,-140.11 1130.93,-150.68 1137.4,-148.01"/>
</a>
</g>
</g>
<!-- Node28 -->
<g id="Node000028" class="node">
<title>Node28</title>
<g id="a_Node000028"><a xlink:href="../../d7/d14/select__statement_8h.html" target="_top" xlink:title=" ">
<polygon fill="white" stroke="#666666" points="979.5,-272 846.5,-272 846.5,-242 979.5,-242 979.5,-272"/>
<text text-anchor="start" x="854.5" y="-260" font-family="Helvetica,sans-Serif" font-size="10.00">binder/statement/select</text>
<text text-anchor="middle" x="913" y="-249" font-family="Helvetica,sans-Serif" font-size="10.00">_statement.h</text>
</a>
</g>
</g>
<!-- Node1&#45;&gt;Node28 -->
<g id="edge47_Node000001_Node000028" class="edge">
<title>Node1&#45;&gt;Node28</title>
<g id="a_edge47_Node000001_Node000028"><a xlink:title=" ">
<path fill="none" stroke="#63b8ff" d="M913,-307.8C913,-300.34 913,-290.99 913,-282.41"/>
<polygon fill="#63b8ff" stroke="#63b8ff" points="916.5,-282.16 913,-272.16 909.5,-282.16 916.5,-282.16"/>
</a>
</g>
</g>
<!-- Node3&#45;&gt;Node2 -->
<g id="edge3_Node000003_Node000002" class="edge">
<title>Node3&#45;&gt;Node2</title>
<g id="a_edge3_Node000003_Node000002"><a xlink:title=" ">
<path fill="none" stroke="#63b8ff" d="M628.8,-181.42C628.81,-166.05 630.56,-133.24 644,-110 650.97,-97.94 662.45,-87.6 672.86,-79.93"/>
<polygon fill="#63b8ff" stroke="#63b8ff" points="675,-82.71 681.23,-74.13 671.01,-76.95 675,-82.71"/>
</a>
</g>
</g>
<!-- Node4 -->
<g id="Node000004" class="node">
<title>Node4</title>
<g id="a_Node000004"><a xlink:title=" ">
<polygon fill="#e0e0e0" stroke="#999999" points="820,-19 776,-19 776,0 820,0 820,-19"/>
<text text-anchor="middle" x="798" y="-7" font-family="Helvetica,sans-Serif" font-size="10.00">string</text>
</a>
</g>
</g>
<!-- Node3&#45;&gt;Node4 -->
<g id="edge4_Node000003_Node000004" class="edge">
<title>Node3&#45;&gt;Node4</title>
<g id="a_edge4_Node000003_Node000004"><a xlink:title=" ">
<path fill="none" stroke="#63b8ff" d="M627.71,-181.3C624.65,-156.89 619.8,-87.42 658,-55 688.7,-28.94 734.78,-18.1 765.6,-13.62"/>
<polygon fill="#63b8ff" stroke="#63b8ff" points="766.35,-17.05 775.81,-12.28 765.44,-10.11 766.35,-17.05"/>
</a>
</g>
</g>
<!-- Node5 -->
<g id="Node000005" class="node">
<title>Node5</title>
<g id="a_Node000005"><a xlink:title=" ">
<polygon fill="#e0e0e0" stroke="#999999" points="935.5,-134.5 890.5,-134.5 890.5,-115.5 935.5,-115.5 935.5,-134.5"/>
<text text-anchor="middle" x="913" y="-122.5" font-family="Helvetica,sans-Serif" font-size="10.00">utility</text>
</a>
</g>
</g>
<!-- Node3&#45;&gt;Node5 -->
<g id="edge5_Node000003_Node000005" class="edge">
<title>Node3&#45;&gt;Node5</title>
<g id="a_edge5_Node000003_Node000005"><a xlink:title=" ">
<path fill="none" stroke="#63b8ff" d="M691.3,-181.49C742.88,-173.53 817.7,-159.87 881,-140 882.63,-139.49 884.29,-138.92 885.95,-138.31"/>
<polygon fill="#63b8ff" stroke="#63b8ff" points="887.35,-141.52 895.32,-134.55 884.74,-135.03 887.35,-141.52"/>
</a>
</g>
</g>
<!-- Node3&#45;&gt;Node6 -->
<g id="edge6_Node000003_Node000006" class="edge">
<title>Node3&#45;&gt;Node6</title>
<g id="a_edge6_Node000003_Node000006"><a xlink:title=" ">
<path fill="none" stroke="#63b8ff" d="M651.79,-181.37C681.1,-170.27 732.2,-150.92 765.56,-138.28"/>
<polygon fill="#63b8ff" stroke="#63b8ff" points="767.19,-141.41 775.3,-134.6 764.71,-134.86 767.19,-141.41"/>
</a>
</g>
</g>
<!-- Node3&#45;&gt;Node11 -->
<g id="edge26_Node000003_Node000011" class="edge">
<title>Node3&#45;&gt;Node11</title>
<g id="a_edge26_Node000003_Node000011"><a xlink:title=" ">
<path fill="none" stroke="#63b8ff" d="M635.52,-181.42C648.63,-164.83 679.95,-128.34 715,-110 763.66,-84.54 826.18,-73.63 869.11,-68.96"/>
<polygon fill="#63b8ff" stroke="#63b8ff" points="869.71,-72.42 879.31,-67.93 869,-65.46 869.71,-72.42"/>
</a>
</g>
</g>
<!-- Node12 -->
<g id="Node000012" class="node">
<title>Node12</title>
<g id="a_Node000012"><a xlink:href="../../dd/d2d/exception_8h.html" target="_top" xlink:title=" ">
<polygon fill="white" stroke="#666666" points="477.5,-134.5 358.5,-134.5 358.5,-115.5 477.5,-115.5 477.5,-134.5"/>
<text text-anchor="middle" x="418" y="-122.5" font-family="Helvetica,sans-Serif" font-size="10.00">common/exception.h</text>
</a>
</g>
</g>
<!-- Node3&#45;&gt;Node12 -->
<g id="edge14_Node000003_Node000012" class="edge">
<title>Node3&#45;&gt;Node12</title>
<g id="a_edge14_Node000003_Node000012"><a xlink:title=" ">
<path fill="none" stroke="#63b8ff" d="M600.54,-181.37C563.24,-170.05 497.67,-150.16 456.1,-137.56"/>
<polygon fill="#63b8ff" stroke="#63b8ff" points="456.93,-134.15 446.34,-134.6 454.9,-140.85 456.93,-134.15"/>
</a>
</g>
</g>
<!-- Node6&#45;&gt;Node2 -->
<g id="edge7_Node000006_Node000002" class="edge">
<title>Node6&#45;&gt;Node2</title>
<g id="a_edge7_Node000006_Node000002"><a xlink:title=" ">
<path fill="none" stroke="#63b8ff" d="M782.95,-115.37C766.38,-105.86 739.5,-90.45 720.01,-79.27"/>
<polygon fill="#63b8ff" stroke="#63b8ff" points="721.53,-76.11 711.11,-74.17 718.05,-82.18 721.53,-76.11"/>
</a>
</g>
</g>
<!-- Node6&#45;&gt;Node4 -->
<g id="edge8_Node000006_Node000004" class="edge">
<title>Node6&#45;&gt;Node4</title>
<g id="a_edge8_Node000006_Node000004"><a xlink:title=" ">
<path fill="none" stroke="#63b8ff" d="M798,-115.47C798,-97.23 798,-54.07 798,-29.14"/>
<polygon fill="#63b8ff" stroke="#63b8ff" points="801.5,-29.13 798,-19.13 794.5,-29.13 801.5,-29.13"/>
</a>
</g>
</g>
<!-- Node7 -->
<g id="Node000007" class="node">
<title>Node7</title>
<g id="a_Node000007"><a xlink:href="../../de/d3c/macros_8h.html" target="_top" xlink:title=" ">
<polygon fill="white" stroke="#666666" points="1464.5,-74 1357.5,-74 1357.5,-55 1464.5,-55 1464.5,-74"/>
<text text-anchor="middle" x="1411" y="-62" font-family="Helvetica,sans-Serif" font-size="10.00">common/macros.h</text>
</a>
</g>
</g>
<!-- Node6&#45;&gt;Node7 -->
<g id="edge9_Node000006_Node000007" class="edge">
<title>Node6&#45;&gt;Node7</title>
<g id="a_edge9_Node000006_Node000007"><a xlink:title=" ">
<path fill="none" stroke="#63b8ff" d="M844.99,-115.48C857.03,-113.48 869.97,-111.51 882,-110 1049.16,-89.07 1247.29,-75.35 1346.95,-69.2"/>
<polygon fill="#63b8ff" stroke="#63b8ff" points="1347.39,-72.68 1357.16,-68.58 1346.97,-65.7 1347.39,-72.68"/>
</a>
</g>
</g>
<!-- Node6&#45;&gt;Node11 -->
<g id="edge13_Node000006_Node000011" class="edge">
<title>Node6&#45;&gt;Node11</title>
<g id="a_edge13_Node000006_Node000011"><a xlink:title=" ">
<path fill="none" stroke="#63b8ff" d="M815.59,-115.49C835.76,-105.75 869.02,-89.66 892.36,-78.38"/>
<polygon fill="#63b8ff" stroke="#63b8ff" points="893.9,-81.52 901.38,-74.02 890.86,-75.22 893.9,-81.52"/>
</a>
</g>
</g>
<!-- Node8 -->
<g id="Node000008" class="node">
<title>Node8</title>
<g id="a_Node000008"><a xlink:title=" ">
<polygon fill="#e0e0e0" stroke="#999999" points="1398,-19 1346,-19 1346,0 1398,0 1398,-19"/>
<text text-anchor="middle" x="1372" y="-7" font-family="Helvetica,sans-Serif" font-size="10.00">cassert</text>
</a>
</g>
</g>
<!-- Node7&#45;&gt;Node8 -->
<g id="edge10_Node000007_Node000008" class="edge">
<title>Node7&#45;&gt;Node8</title>
<g id="a_edge10_Node000007_Node000008"><a xlink:title=" ">
<path fill="none" stroke="#63b8ff" d="M1404.56,-54.75C1399.11,-47.34 1391.14,-36.5 1384.44,-27.41"/>
<polygon fill="#63b8ff" stroke="#63b8ff" points="1387.07,-25.07 1378.32,-19.09 1381.43,-29.22 1387.07,-25.07"/>
</a>
</g>
</g>
<!-- Node9 -->
<g id="Node000009" class="node">
<title>Node9</title>
<g id="a_Node000009"><a xlink:title=" ">
<polygon fill="#e0e0e0" stroke="#999999" points="1481.5,-19 1416.5,-19 1416.5,0 1481.5,0 1481.5,-19"/>
<text text-anchor="middle" x="1449" y="-7" font-family="Helvetica,sans-Serif" font-size="10.00">exception</text>
</a>
</g>
</g>
<!-- Node7&#45;&gt;Node9 -->
<g id="edge11_Node000007_Node000009" class="edge">
<title>Node7&#45;&gt;Node9</title>
<g id="a_edge11_Node000007_Node000009"><a xlink:title=" ">
<path fill="none" stroke="#63b8ff" d="M1417.27,-54.75C1422.59,-47.34 1430.36,-36.5 1436.88,-27.41"/>
<polygon fill="#63b8ff" stroke="#63b8ff" points="1439.86,-29.26 1442.84,-19.09 1434.17,-25.18 1439.86,-29.26"/>
</a>
</g>
</g>
<!-- Node10 -->
<g id="Node000010" class="node">
<title>Node10</title>
<g id="a_Node000010"><a xlink:title=" ">
<polygon fill="#e0e0e0" stroke="#999999" points="1144.5,-19 1079.5,-19 1079.5,0 1144.5,0 1144.5,-19"/>
<text text-anchor="middle" x="1112" y="-7" font-family="Helvetica,sans-Serif" font-size="10.00">stdexcept</text>
</a>
</g>
</g>
<!-- Node7&#45;&gt;Node10 -->
<g id="edge12_Node000007_Node000010" class="edge">
<title>Node7&#45;&gt;Node10</title>
<g id="a_edge12_Node000007_Node000010"><a xlink:title=" ">
<path fill="none" stroke="#63b8ff" d="M1362.96,-54.98C1305.42,-44.79 1209.93,-27.86 1154.81,-18.09"/>
<polygon fill="#63b8ff" stroke="#63b8ff" points="1155.14,-14.59 1144.68,-16.29 1153.92,-21.48 1155.14,-14.59"/>
</a>
</g>
</g>
<!-- Node12&#45;&gt;Node2 -->
<g id="edge19_Node000012_Node000002" class="edge">
<title>Node12&#45;&gt;Node2</title>
<g id="a_edge19_Node000012_Node000002"><a xlink:title=" ">
<path fill="none" stroke="#63b8ff" d="M458.42,-115.49C511.51,-104.32 604.11,-84.84 656.65,-73.78"/>
<polygon fill="#63b8ff" stroke="#63b8ff" points="657.54,-77.17 666.6,-71.69 656.1,-70.32 657.54,-77.17"/>
</a>
</g>
</g>
<!-- Node12&#45;&gt;Node4 -->
<g id="edge21_Node000012_Node000004" class="edge">
<title>Node12&#45;&gt;Node4</title>
<g id="a_edge21_Node000012_Node000004"><a xlink:title=" ">
<path fill="none" stroke="#63b8ff" d="M425.53,-115.03C438.84,-99.85 468.12,-69.39 500,-55 590.04,-14.37 709.38,-9.47 765.81,-9.69"/>
<polygon fill="#63b8ff" stroke="#63b8ff" points="765.88,-13.19 775.92,-9.79 765.95,-6.19 765.88,-13.19"/>
</a>
</g>
</g>
<!-- Node12&#45;&gt;Node10 -->
<g id="edge20_Node000012_Node000010" class="edge">
<title>Node12&#45;&gt;Node10</title>
<g id="a_edge20_Node000012_Node000010"><a xlink:title=" ">
<path fill="none" stroke="#63b8ff" d="M442.17,-115.46C485.06,-100.66 577.52,-70.38 658,-55 807.27,-26.47 987.84,-15.71 1068.92,-12.11"/>
<polygon fill="#63b8ff" stroke="#63b8ff" points="1069.39,-15.59 1079.23,-11.66 1069.09,-8.6 1069.39,-15.59"/>
</a>
</g>
</g>
<!-- Node13 -->
<g id="Node000013" class="node">
<title>Node13</title>
<g id="a_Node000013"><a xlink:title=" ">
<polygon fill="#e0e0e0" stroke="#999999" points="118,-19 68,-19 68,0 118,0 118,-19"/>
<text text-anchor="middle" x="93" y="-7" font-family="Helvetica,sans-Serif" font-size="10.00">atomic</text>
</a>
</g>
</g>
<!-- Node12&#45;&gt;Node13 -->
<g id="edge15_Node000012_Node000013" class="edge">
<title>Node12&#45;&gt;Node13</title>
<g id="a_edge15_Node000012_Node000013"><a xlink:title=" ">
<path fill="none" stroke="#63b8ff" d="M376.42,-115.46C367.39,-113.63 357.88,-111.73 349,-110 263.79,-93.37 233.87,-114.35 157,-74 135.65,-62.79 116.82,-42.08 105.21,-27.36"/>
<polygon fill="#63b8ff" stroke="#63b8ff" points="107.79,-24.97 98.96,-19.11 102.21,-29.2 107.79,-24.97"/>
</a>
</g>
</g>
<!-- Node14 -->
<g id="Node000014" class="node">
<title>Node14</title>
<g id="a_Node000014"><a xlink:title=" ">
<polygon fill="#e0e0e0" stroke="#999999" points="302,-74 256,-74 256,-55 302,-55 302,-74"/>
<text text-anchor="middle" x="279" y="-62" font-family="Helvetica,sans-Serif" font-size="10.00">cstdio</text>
</a>
</g>
</g>
<!-- Node12&#45;&gt;Node14 -->
<g id="edge16_Node000012_Node000014" class="edge">
<title>Node12&#45;&gt;Node14</title>
<g id="a_edge16_Node000012_Node000014"><a xlink:title=" ">
<path fill="none" stroke="#63b8ff" d="M397.79,-115.49C374.32,-105.62 335.39,-89.23 308.54,-77.93"/>
<polygon fill="#63b8ff" stroke="#63b8ff" points="309.81,-74.67 299.24,-74.02 307.1,-81.12 309.81,-74.67"/>
</a>
</g>
</g>
<!-- Node15 -->
<g id="Node000015" class="node">
<title>Node15</title>
<g id="a_Node000015"><a xlink:title=" ">
<polygon fill="#e0e0e0" stroke="#999999" points="369.5,-74 320.5,-74 320.5,-55 369.5,-55 369.5,-74"/>
<text text-anchor="middle" x="345" y="-62" font-family="Helvetica,sans-Serif" font-size="10.00">cstdlib</text>
</a>
</g>
</g>
<!-- Node12&#45;&gt;Node15 -->
<g id="edge17_Node000012_Node000015" class="edge">
<title>Node12&#45;&gt;Node15</title>
<g id="a_edge17_Node000012_Node000015"><a xlink:title=" ">
<path fill="none" stroke="#63b8ff" d="M407.23,-115.37C395.8,-106.21 377.52,-91.56 363.72,-80.51"/>
<polygon fill="#63b8ff" stroke="#63b8ff" points="365.81,-77.69 355.82,-74.17 361.43,-83.15 365.81,-77.69"/>
</a>
</g>
</g>
<!-- Node16 -->
<g id="Node000016" class="node">
<title>Node16</title>
<g id="a_Node000016"><a xlink:title=" ">
<polygon fill="#e0e0e0" stroke="#999999" points="448,-74 388,-74 388,-55 448,-55 448,-74"/>
<text text-anchor="middle" x="418" y="-62" font-family="Helvetica,sans-Serif" font-size="10.00">iostream</text>
</a>
</g>
</g>
<!-- Node12&#45;&gt;Node16 -->
<g id="edge18_Node000012_Node000016" class="edge">
<title>Node12&#45;&gt;Node16</title>
<g id="a_edge18_Node000012_Node000016"><a xlink:title=" ">
<path fill="none" stroke="#63b8ff" d="M418,-115.37C418,-107.25 418,-94.81 418,-84.39"/>
<polygon fill="#63b8ff" stroke="#63b8ff" points="421.5,-84.17 418,-74.17 414.5,-84.17 421.5,-84.17"/>
</a>
</g>
</g>
<!-- Node17 -->
<g id="Node000017" class="node">
<title>Node17</title>
<g id="a_Node000017"><a xlink:href="../../df/def/type_8h.html" target="_top" xlink:title=" ">
<polygon fill="white" stroke="#666666" points="238,-74 166,-74 166,-55 238,-55 238,-74"/>
<text text-anchor="middle" x="202" y="-62" font-family="Helvetica,sans-Serif" font-size="10.00">type/type.h</text>
</a>
</g>
</g>
<!-- Node12&#45;&gt;Node17 -->
<g id="edge22_Node000012_Node000017" class="edge">
<title>Node12&#45;&gt;Node17</title>
<g id="a_edge22_Node000012_Node000017"><a xlink:title=" ">
<path fill="none" stroke="#63b8ff" d="M386.59,-115.49C348.76,-105.25 285.09,-88 243.31,-76.69"/>
<polygon fill="#63b8ff" stroke="#63b8ff" points="244.01,-73.25 233.45,-74.02 242.18,-80.01 244.01,-73.25"/>
</a>
</g>
</g>
<!-- Node17&#45;&gt;Node4 -->
<g id="edge24_Node000017_Node000004" class="edge">
<title>Node17&#45;&gt;Node4</title>
<g id="a_edge24_Node000017_Node000004"><a xlink:title=" ">
<path fill="none" stroke="#63b8ff" d="M238.3,-56.3C241.23,-55.82 244.16,-55.38 247,-55 443.11,-28.63 680.74,-15.87 765.8,-11.9"/>
<polygon fill="#63b8ff" stroke="#63b8ff" points="766.03,-15.4 775.86,-11.44 765.71,-8.4 766.03,-15.4"/>
</a>
</g>
</g>
<!-- Node18 -->
<g id="Node000018" class="node">
<title>Node18</title>
<g id="a_Node000018"><a xlink:title=" ">
<polygon fill="#e0e0e0" stroke="#999999" points="186,-19 136,-19 136,0 186,0 186,-19"/>
<text text-anchor="middle" x="161" y="-7" font-family="Helvetica,sans-Serif" font-size="10.00">cstdint</text>
</a>
</g>
</g>
<!-- Node17&#45;&gt;Node18 -->
<g id="edge23_Node000017_Node000018" class="edge">
<title>Node17&#45;&gt;Node18</title>
<g id="a_edge23_Node000017_Node000018"><a xlink:title=" ">
<path fill="none" stroke="#63b8ff" d="M195.23,-54.75C189.44,-47.26 180.94,-36.28 173.86,-27.13"/>
<polygon fill="#63b8ff" stroke="#63b8ff" points="176.53,-24.86 167.64,-19.09 170.99,-29.14 176.53,-24.86"/>
</a>
</g>
</g>
<!-- Node19 -->
<g id="Node000019" class="node">
<title>Node19</title>
<g id="a_Node000019"><a xlink:href="../../dc/df2/type__id_8h.html" target="_top" xlink:title=" ">
<polygon fill="white" stroke="#666666" points="290,-19 204,-19 204,0 290,0 290,-19"/>
<text text-anchor="middle" x="247" y="-7" font-family="Helvetica,sans-Serif" font-size="10.00">type/type_id.h</text>
</a>
</g>
</g>
<!-- Node17&#45;&gt;Node19 -->
<g id="edge25_Node000017_Node000019" class="edge">
<title>Node17&#45;&gt;Node19</title>
<g id="a_edge25_Node000017_Node000019"><a xlink:title=" ">
<path fill="none" stroke="#63b8ff" d="M209.43,-54.75C215.85,-47.18 225.31,-36.05 233.12,-26.84"/>
<polygon fill="#63b8ff" stroke="#63b8ff" points="235.9,-28.98 239.71,-19.09 230.57,-24.45 235.9,-28.98"/>
</a>
</g>
</g>
<!-- Node20&#45;&gt;Node4 -->
<g id="edge28_Node000020_Node000004" class="edge">
<title>Node20&#45;&gt;Node4</title>
<g id="a_edge28_Node000020_Node000004"><a xlink:title=" ">
<path fill="none" stroke="#63b8ff" d="M1383.01,-175.84C1370.08,-147.24 1336.57,-82.95 1286,-55 1246.22,-33.01 932.84,-16.73 830.33,-11.94"/>
<polygon fill="#63b8ff" stroke="#63b8ff" points="830.41,-8.44 820.26,-11.48 830.09,-15.44 830.41,-8.44"/>
</a>
</g>
</g>
<!-- Node21 -->
<g id="Node000021" class="node">
<title>Node21</title>
<g id="a_Node000021"><a xlink:title=" ">
<polygon fill="#e0e0e0" stroke="#999999" points="1243.5,-134.5 1196.5,-134.5 1196.5,-115.5 1243.5,-115.5 1243.5,-134.5"/>
<text text-anchor="middle" x="1220" y="-122.5" font-family="Helvetica,sans-Serif" font-size="10.00">vector</text>
</a>
</g>
</g>
<!-- Node20&#45;&gt;Node21 -->
<g id="edge29_Node000020_Node000021" class="edge">
<title>Node20&#45;&gt;Node21</title>
<g id="a_edge29_Node000020_Node000021"><a xlink:title=" ">
<path fill="none" stroke="#63b8ff" d="M1351.91,-175.95C1322.01,-164.63 1280.4,-148.88 1251.96,-138.1"/>
<polygon fill="#63b8ff" stroke="#63b8ff" points="1253.08,-134.79 1242.49,-134.52 1250.6,-141.33 1253.08,-134.79"/>
</a>
</g>
</g>
<!-- Node23&#45;&gt;Node4 -->
<g id="edge34_Node000023_Node000004" class="edge">
<title>Node23&#45;&gt;Node4</title>
<g id="a_edge34_Node000023_Node000004"><a xlink:title=" ">
<path fill="none" stroke="#63b8ff" d="M442.53,-181.43C471.86,-157.93 557.71,-91.83 639,-55 681.06,-35.95 733.13,-23.25 765.97,-16.46"/>
<polygon fill="#63b8ff" stroke="#63b8ff" points="766.81,-19.86 775.92,-14.46 765.43,-13 766.81,-19.86"/>
</a>
</g>
</g>
<!-- Node23&#45;&gt;Node12 -->
<g id="edge41_Node000023_Node000012" class="edge">
<title>Node23&#45;&gt;Node12</title>
<g id="a_edge41_Node000023_Node000012"><a xlink:title=" ">
<path fill="none" stroke="#63b8ff" d="M430.11,-181.37C428.08,-172.07 424.78,-156.98 422.13,-144.9"/>
<polygon fill="#63b8ff" stroke="#63b8ff" points="425.5,-143.93 419.95,-134.91 418.67,-145.42 425.5,-143.93"/>
</a>
</g>
</g>
<!-- Node24 -->
<g id="Node000024" class="node">
<title>Node24</title>
<g id="a_Node000024"><a xlink:href="../../dc/dba/statement__type_8h.html" target="_top" xlink:title=" ">
<polygon fill="white" stroke="#666666" points="340.5,-140 191.5,-140 191.5,-110 340.5,-110 340.5,-140"/>
<text text-anchor="start" x="199.5" y="-128" font-family="Helvetica,sans-Serif" font-size="10.00">common/enums/statement</text>
<text text-anchor="middle" x="266" y="-117" font-family="Helvetica,sans-Serif" font-size="10.00">_type.h</text>
</a>
</g>
</g>
<!-- Node23&#45;&gt;Node24 -->
<g id="edge35_Node000023_Node000024" class="edge">
<title>Node23&#45;&gt;Node24</title>
<g id="a_edge35_Node000023_Node000024"><a xlink:title=" ">
<path fill="none" stroke="#63b8ff" d="M409.61,-181.37C384.75,-171.78 343.93,-156.05 312.16,-143.8"/>
<polygon fill="#63b8ff" stroke="#63b8ff" points="313.2,-140.45 302.61,-140.12 310.68,-146.98 313.2,-140.45"/>
</a>
</g>
</g>
<!-- Node24&#45;&gt;Node11 -->
<g id="edge40_Node000024_Node000011" class="edge">
<title>Node24&#45;&gt;Node11</title>
<g id="a_edge40_Node000024_Node000011"><a xlink:title=" ">
<path fill="none" stroke="#63b8ff" d="M340.61,-111.09C343.44,-110.71 346.24,-110.34 349,-110 540.72,-86.39 770.36,-72.96 869.46,-67.88"/>
<polygon fill="#63b8ff" stroke="#63b8ff" points="869.68,-71.37 879.49,-67.37 869.32,-64.38 869.68,-71.37"/>
</a>
</g>
</g>
<!-- Node25 -->
<g id="Node000025" class="node">
<title>Node25</title>
<g id="a_Node000025"><a xlink:href="../../db/d16/config_8h.html" target="_top" xlink:title=" ">
<polygon fill="white" stroke="#666666" points="109.5,-74 8.5,-74 8.5,-55 109.5,-55 109.5,-74"/>
<text text-anchor="middle" x="59" y="-62" font-family="Helvetica,sans-Serif" font-size="10.00">common/config.h</text>
</a>
</g>
</g>
<!-- Node24&#45;&gt;Node25 -->
<g id="edge36_Node000024_Node000025" class="edge">
<title>Node24&#45;&gt;Node25</title>
<g id="a_edge36_Node000024_Node000025"><a xlink:title=" ">
<path fill="none" stroke="#63b8ff" d="M216.42,-109.99C180.54,-99.85 132.67,-86.32 99.17,-76.85"/>
<polygon fill="#63b8ff" stroke="#63b8ff" points="99.84,-73.41 89.27,-74.05 97.94,-80.14 99.84,-73.41"/>
</a>
</g>
</g>
<!-- Node25&#45;&gt;Node13 -->
<g id="edge37_Node000025_Node000013" class="edge">
<title>Node25&#45;&gt;Node13</title>
<g id="a_edge37_Node000025_Node000013"><a xlink:title=" ">
<path fill="none" stroke="#63b8ff" d="M64.61,-54.75C69.32,-47.42 76.17,-36.73 81.97,-27.7"/>
<polygon fill="#63b8ff" stroke="#63b8ff" points="85.04,-29.4 87.49,-19.09 79.14,-25.62 85.04,-29.4"/>
</a>
</g>
</g>
<!-- Node25&#45;&gt;Node18 -->
<g id="edge39_Node000025_Node000018" class="edge">
<title>Node25&#45;&gt;Node18</title>
<g id="a_edge39_Node000025_Node000018"><a xlink:title=" ">
<path fill="none" stroke="#63b8ff" d="M75.39,-54.98C91.57,-46.57 116.57,-33.59 135.38,-23.81"/>
<polygon fill="#63b8ff" stroke="#63b8ff" points="137.05,-26.89 144.31,-19.17 133.83,-20.68 137.05,-26.89"/>
</a>
</g>
</g>
<!-- Node26 -->
<g id="Node000026" class="node">
<title>Node26</title>
<g id="a_Node000026"><a xlink:title=" ">
<polygon fill="#e0e0e0" stroke="#999999" points="50,-19 0,-19 0,0 50,0 50,-19"/>
<text text-anchor="middle" x="25" y="-7" font-family="Helvetica,sans-Serif" font-size="10.00">chrono</text>
</a>
</g>
</g>
<!-- Node25&#45;&gt;Node26 -->
<g id="edge38_Node000025_Node000026" class="edge">
<title>Node25&#45;&gt;Node26</title>
<g id="a_edge38_Node000025_Node000026"><a xlink:title=" ">
<path fill="none" stroke="#63b8ff" d="M53.39,-54.75C48.68,-47.42 41.83,-36.73 36.03,-27.7"/>
<polygon fill="#63b8ff" stroke="#63b8ff" points="38.86,-25.62 30.51,-19.09 32.96,-29.4 38.86,-25.62"/>
</a>
</g>
</g>
<!-- Node27&#45;&gt;Node2 -->
<g id="edge43_Node000027_Node000002" class="edge">
<title>Node27&#45;&gt;Node2</title>
<g id="a_edge43_Node000027_Node000002"><a xlink:title=" ">
<path fill="none" stroke="#63b8ff" d="M1067.61,-116.41C980.01,-104.41 811.59,-81.34 735.29,-70.88"/>
<polygon fill="#63b8ff" stroke="#63b8ff" points="735.53,-67.38 725.15,-69.49 734.58,-74.32 735.53,-67.38"/>
</a>
</g>
</g>
<!-- Node27&#45;&gt;Node4 -->
<g id="edge44_Node000027_Node000004" class="edge">
<title>Node27&#45;&gt;Node4</title>
<g id="a_edge44_Node000027_Node000004"><a xlink:title=" ">
<path fill="none" stroke="#63b8ff" d="M1113.1,-109.79C1101.08,-93.73 1079.26,-68.11 1054,-55 980.55,-16.88 880.91,-10.54 830.33,-10.01"/>
<polygon fill="#63b8ff" stroke="#63b8ff" points="830.32,-6.51 820.31,-9.98 830.3,-13.51 830.32,-6.51"/>
</a>
</g>
</g>
<!-- Node27&#45;&gt;Node7 -->
<g id="edge46_Node000027_Node000007" class="edge">
<title>Node27&#45;&gt;Node7</title>
<g id="a_edge46_Node000027_Node000007"><a xlink:title=" ">
<path fill="none" stroke="#63b8ff" d="M1178.31,-112.03C1181.59,-111.34 1184.84,-110.66 1188,-110 1245.86,-98 1312.29,-84.82 1357.5,-75.94"/>
<polygon fill="#63b8ff" stroke="#63b8ff" points="1358.24,-79.36 1367.38,-74 1356.89,-72.49 1358.24,-79.36"/>
</a>
</g>
</g>
<!-- Node27&#45;&gt;Node11 -->
<g id="edge45_Node000027_Node000011" class="edge">
<title>Node27&#45;&gt;Node11</title>
<g id="a_edge45_Node000027_Node000011"><a xlink:title=" ">
<path fill="none" stroke="#63b8ff" d="M1074.14,-109.99C1038.78,-99.85 991.6,-86.32 958.59,-76.85"/>
<polygon fill="#63b8ff" stroke="#63b8ff" points="959.41,-73.45 948.83,-74.05 957.48,-80.17 959.41,-73.45"/>
</a>
</g>
</g>
<!-- Node28&#45;&gt;Node2 -->
<g id="edge48_Node000028_Node000002" class="edge">
<title>Node28&#45;&gt;Node2</title>
<g id="a_edge48_Node000028_Node000002"><a xlink:title=" ">
<path fill="none" stroke="#63b8ff" d="M865.65,-241.86C819.2,-225.35 750.35,-193.28 715,-140 703.84,-123.17 699.23,-100.22 697.33,-84.25"/>
<polygon fill="#63b8ff" stroke="#63b8ff" points="700.79,-83.68 696.37,-74.05 693.83,-84.33 700.79,-83.68"/>
</a>
</g>
</g>
<!-- Node28&#45;&gt;Node3 -->
<g id="edge54_Node000028_Node000003" class="edge">
<title>Node28&#45;&gt;Node3</title>
<g id="a_edge54_Node000028_Node000003"><a xlink:title=" ">
<path fill="none" stroke="#63b8ff" d="M850.67,-241.95C798.24,-230.14 724.36,-213.49 676.58,-202.72"/>
<polygon fill="#63b8ff" stroke="#63b8ff" points="677.32,-199.3 666.8,-200.52 675.78,-206.13 677.32,-199.3"/>
</a>
</g>
</g>
<!-- Node28&#45;&gt;Node4 -->
<g id="edge49_Node000028_Node000004" class="edge">
<title>Node28&#45;&gt;Node4</title>
<g id="a_edge49_Node000028_Node000004"><a xlink:title=" ">
<path fill="none" stroke="#63b8ff" d="M979.76,-251.87C1098.12,-241.93 1325.73,-209.62 1253,-110 1202.67,-41.07 925.92,-18.16 830.42,-12.25"/>
<polygon fill="#63b8ff" stroke="#63b8ff" points="830.4,-8.74 820.21,-11.64 829.98,-15.73 830.4,-8.74"/>
</a>
</g>
</g>
<!-- Node28&#45;&gt;Node5 -->
<g id="edge51_Node000028_Node000005" class="edge">
<title>Node28&#45;&gt;Node5</title>
<g id="a_edge51_Node000028_Node000005"><a xlink:title=" ">
<path fill="none" stroke="#63b8ff" d="M919.91,-241.96C924.35,-232.15 929.69,-218.6 932,-206 934.41,-192.89 934.41,-189.11 932,-176 929.98,-164.98 925.64,-153.25 921.62,-143.92"/>
<polygon fill="#63b8ff" stroke="#63b8ff" points="924.7,-142.22 917.36,-134.57 918.33,-145.12 924.7,-142.22"/>
</a>
</g>
</g>
<!-- Node28&#45;&gt;Node6 -->
<g id="edge53_Node000028_Node000006" class="edge">
<title>Node28&#45;&gt;Node6</title>
<g id="a_edge53_Node000028_Node000006"><a xlink:title=" ">
<path fill="none" stroke="#63b8ff" d="M871.46,-241.83C853.64,-233.84 833.97,-222.16 821,-206 806.82,-188.34 801.39,-162.33 799.3,-144.81"/>
<polygon fill="#63b8ff" stroke="#63b8ff" points="802.77,-144.32 798.35,-134.69 795.8,-144.97 802.77,-144.32"/>
</a>
</g>
</g>
<!-- Node28&#45;&gt;Node21 -->
<g id="edge52_Node000028_Node000021" class="edge">
<title>Node28&#45;&gt;Node21</title>
<g id="a_edge52_Node000028_Node000021"><a xlink:title=" ">
<path fill="none" stroke="#63b8ff" d="M979.83,-250.29C1025.66,-244.2 1086.68,-231.67 1135,-206 1164.84,-190.15 1191.86,-161.01 1207.08,-142.62"/>
<polygon fill="#63b8ff" stroke="#63b8ff" points="1210.03,-144.54 1213.57,-134.56 1204.57,-140.16 1210.03,-144.54"/>
</a>
</g>
</g>
<!-- Node28&#45;&gt;Node23 -->
<g id="edge55_Node000028_Node000023" class="edge">
<title>Node28&#45;&gt;Node23</title>
<g id="a_edge55_Node000028_Node000023"><a xlink:title=" ">
<path fill="none" stroke="#63b8ff" d="M846.37,-247.13C757.12,-235.26 599.24,-214.25 506.26,-201.88"/>
<polygon fill="#63b8ff" stroke="#63b8ff" points="506.46,-198.38 496.09,-200.53 505.54,-205.32 506.46,-198.38"/>
</a>
</g>
</g>
<!-- Node28&#45;&gt;Node27 -->
<g id="edge56_Node000028_Node000027" class="edge">
<title>Node28&#45;&gt;Node27</title>
<g id="a_edge56_Node000028_Node000027"><a xlink:title=" ">
<path fill="none" stroke="#63b8ff" d="M979.74,-247.98C1031.86,-240.24 1098.32,-226.64 1116,-206 1128.92,-190.92 1129.63,-167.85 1127.72,-150.36"/>
<polygon fill="#63b8ff" stroke="#63b8ff" points="1131.16,-149.71 1126.27,-140.3 1124.23,-150.7 1131.16,-149.71"/>
</a>
</g>
</g>
<!-- Node29 -->
<g id="Node000029" class="node">
<title>Node29</title>
<g id="a_Node000029"><a xlink:title=" ">
<polygon fill="#e0e0e0" stroke="#999999" points="922.5,-200.5 829.5,-200.5 829.5,-181.5 922.5,-181.5 922.5,-200.5"/>
<text text-anchor="middle" x="876" y="-188.5" font-family="Helvetica,sans-Serif" font-size="10.00">unordered_map</text>
</a>
</g>
</g>
<!-- Node28&#45;&gt;Node29 -->
<g id="edge50_Node000028_Node000029" class="edge">
<title>Node28&#45;&gt;Node29</title>
<g id="a_edge50_Node000028_Node000029"><a xlink:title=" ">
<path fill="none" stroke="#63b8ff" d="M904.79,-241.8C899.3,-232.31 892.05,-219.76 886.19,-209.63"/>
<polygon fill="#63b8ff" stroke="#63b8ff" points="889.15,-207.75 881.11,-200.84 883.09,-211.25 889.15,-207.75"/>
</a>
</g>
</g>
<!-- Node30 -->
<g id="Node000030" class="node">
<title>Node30</title>
<g id="a_Node000030"><a xlink:href="../../d4/d90/bound__subquery__ref_8h.html" target="_top" xlink:title=" ">
<polygon fill="white" stroke="#666666" points="1106.5,-206 979.5,-206 979.5,-176 1106.5,-176 1106.5,-206"/>
<text text-anchor="start" x="987.5" y="-194" font-family="Helvetica,sans-Serif" font-size="10.00">binder/table_ref/bound</text>
<text text-anchor="middle" x="1043" y="-183" font-family="Helvetica,sans-Serif" font-size="10.00">_subquery_ref.h</text>
</a>
</g>
</g>
<!-- Node28&#45;&gt;Node30 -->
<g id="edge57_Node000028_Node000030" class="edge">
<title>Node28&#45;&gt;Node30</title>
<g id="a_edge57_Node000028_Node000030"><a xlink:title=" ">
<path fill="none" stroke="#63b8ff" d="M941.53,-241.95C960.33,-232.7 985.14,-220.49 1005.52,-210.45"/>
<polygon fill="#63b8ff" stroke="#63b8ff" points="1007.11,-213.57 1014.54,-206.01 1004.02,-207.29 1007.11,-213.57"/>
</a>
</g>
</g>
<!-- Node30&#45;&gt;Node2 -->
<g id="edge58_Node000030_Node000002" class="edge">
<title>Node30&#45;&gt;Node2</title>
<g id="a_edge58_Node000030_Node000002"><a xlink:title=" ">
<path fill="none" stroke="#63b8ff" d="M1023.91,-175.96C1010.78,-166.15 993.07,-152.61 978,-140 962.8,-127.28 962.78,-118.75 945,-110 876.58,-76.33 786.41,-67.86 735.48,-65.9"/>
<polygon fill="#63b8ff" stroke="#63b8ff" points="735.34,-62.39 725.23,-65.57 735.12,-69.39 735.34,-62.39"/>
</a>
</g>
</g>
<!-- Node30&#45;&gt;Node4 -->
<g id="edge59_Node000030_Node000004" class="edge">
<title>Node30&#45;&gt;Node4</title>
<g id="a_edge59_Node000030_Node000004"><a xlink:title=" ">
<path fill="none" stroke="#63b8ff" d="M1039.52,-175.81C1031.83,-147.75 1010.63,-85.26 968,-55 926.45,-25.51 866.76,-15.56 830.28,-12.2"/>
<polygon fill="#63b8ff" stroke="#63b8ff" points="830.45,-8.7 820.2,-11.39 829.88,-15.68 830.45,-8.7"/>
</a>
</g>
</g>
<!-- Node30&#45;&gt;Node5 -->
<g id="edge60_Node000030_Node000005" class="edge">
<title>Node30&#45;&gt;Node5</title>
<g id="a_edge60_Node000030_Node000005"><a xlink:title=" ">
<path fill="none" stroke="#63b8ff" d="M1014.47,-175.95C992.07,-164.93 961.14,-149.7 939.33,-138.96"/>
<polygon fill="#63b8ff" stroke="#63b8ff" points="940.82,-135.79 930.3,-134.52 937.73,-142.07 940.82,-135.79"/>
</a>
</g>
</g>
<!-- Node30&#45;&gt;Node6 -->
<g id="edge62_Node000030_Node000006" class="edge">
<title>Node30&#45;&gt;Node6</title>
<g id="a_edge62_Node000030_Node000006"><a xlink:title=" ">
<path fill="none" stroke="#63b8ff" d="M989.23,-175.95C944.47,-164.26 881.6,-147.84 840.35,-137.06"/>
<polygon fill="#63b8ff" stroke="#63b8ff" points="841.17,-133.66 830.61,-134.52 839.4,-140.43 841.17,-133.66"/>
</a>
</g>
</g>
<!-- Node30&#45;&gt;Node11 -->
<g id="edge64_Node000030_Node000011" class="edge">
<title>Node30&#45;&gt;Node11</title>
<g id="a_edge64_Node000030_Node000011"><a xlink:title=" ">
<path fill="none" stroke="#63b8ff" d="M1033.12,-175.84C1021.12,-159.13 999.77,-131 978,-110 966.52,-98.93 952.28,-88.12 940.66,-79.92"/>
<polygon fill="#63b8ff" stroke="#63b8ff" points="942.6,-77.01 932.38,-74.21 938.62,-82.77 942.6,-77.01"/>
</a>
</g>
</g>
<!-- Node30&#45;&gt;Node21 -->
<g id="edge61_Node000030_Node000021" class="edge">
<title>Node30&#45;&gt;Node21</title>
<g id="a_edge61_Node000030_Node000021"><a xlink:title=" ">
<path fill="none" stroke="#63b8ff" d="M1085.8,-175.98C1114.59,-166.34 1153.29,-152.99 1187,-140 1188.38,-139.47 1189.79,-138.92 1191.21,-138.35"/>
<polygon fill="#63b8ff" stroke="#63b8ff" points="1192.63,-141.55 1200.54,-134.51 1189.96,-135.07 1192.63,-141.55"/>
</a>
</g>
</g>
<!-- Node30&#45;&gt;Node27 -->
<g id="edge63_Node000030_Node000027" class="edge">
<title>Node30&#45;&gt;Node27</title>
<g id="a_edge63_Node000030_Node000027"><a xlink:title=" ">
<path fill="none" stroke="#63b8ff" d="M1060.75,-175.8C1071.53,-167.18 1085.45,-156.04 1097.4,-146.48"/>
<polygon fill="#63b8ff" stroke="#63b8ff" points="1099.67,-149.14 1105.3,-140.16 1095.3,-143.68 1099.67,-149.14"/>
</a>
</g>
</g>
</g>
</svg>

<g id="navigator" transform="translate(0 0)" fill="#404254">
  <rect fill="#f2f5e9" fill-opacity="0.5" stroke="#606060" stroke-width=".5" x="0" y="0" width="60" height="60"/>
  <use id="zoomplus" xlink:href="#zoomPlus" x="17" y="9" onmousedown="handleZoom(evt,'in')"/>
  <use id="zoomminus" xlink:href="#zoomMin" x="42" y="9" onmousedown="handleZoom(evt,'out')"/>
  <use id="reset" xlink:href="#resetDef" x="30" y="36" onmousedown="handleReset()"/>
   <use id="arrowup" xlink:href="#arrowUp" x="0" y="0" onmousedown="handlePan(0,-1)"/>
  <use id="arrowright" xlink:href="#arrowRight" x="0" y="0" onmousedown="handlePan(1,0)"/>
  <use id="arrowdown" xlink:href="#arrowDown" x="0" y="0" onmousedown="handlePan(0,1)"/>
  <use id="arrowleft" xlink:href="#arrowLeft" x="0" y="0" onmousedown="handlePan(-1,0)"/>
</g>
<svg viewBox="0 0 15 15" width="100%" height="30px" preserveAspectRatio="xMaxYMin meet">
 <g id="arrow_out" transform="scale(0.3 0.3)">
  <a xlink:href="select__statement_8cpp__incl_org.svg" target="_base">
   <rect id="button" ry="5" rx="5" y="6" x="6" height="38" width="38"
        fill="#f2f5e9" fill-opacity="0.5" stroke="#606060" stroke-width="1.0"/>
   <path id="arrow"
     d="M 11.500037,31.436501 C 11.940474,20.09759 22.043105,11.32322 32.158766,21.979434 L 37.068811,17.246167 C 37.068811,17.246167 37.088388,32 37.088388,32 L 22.160133,31.978069 C 22.160133,31.978069 26.997745,27.140456 26.997745,27.140456 C 18.528582,18.264221 13.291696,25.230495 11.500037,31.436501 z"
     style="fill:#404040;"/>
  </a>
 </g>
</svg>

<style type='text/css'>
<![CDATA[
[data-mouse-over-selected='false'] { opacity: 0.7; }
[data-mouse-over-selected='true']  { opacity: 1.0; }
]]>
</style>
<script type="application/ecmascript"><![CDATA[
document.addEventListener('DOMContentLoaded', (event) => {
  highlightEdges();
  highlightAdjacentNodes();
});
]]></script>
</svg>
