<?xml version="1.0" encoding="UTF-8" standalone="no"?>
<!DOCTYPE svg PUBLIC "-//W3C//DTD SVG 1.1//EN"
 "http://www.w3.org/Graphics/SVG/1.1/DTD/svg11.dtd">
<!-- Generated by graphviz version 2.43.0 (0)
 -->
<!-- Title: src/include/concurrency/transaction_manager.h Pages: 1 -->
<!--zoomable 170 -->

<svg id="main" version="1.1" xmlns="http://www.w3.org/2000/svg" xmlns:xlink="http://www.w3.org/1999/xlink" xml:space="preserve" onload="init(evt)">
<style type="text/css"><![CDATA[
.node, .edge {opacity: 0.7;}
.node.selected, .edge.selected {opacity: 1;}
.edge:hover path { stroke: red; }
.edge:hover polygon { stroke: red; fill: red; }
]]></style>

<defs>
  <circle id="rim" cx="0" cy="0" r="7"/>
  <circle id="rim2" cx="0" cy="0" r="3.5"/>
  <g id="zoomPlus">
    <use xlink:href="#rim" fill="#404040"><set attributeName="fill" to="#808080" begin="zoomplus.mouseover" end="zoomplus.mouseout"/></use>
    <path d="M-4,0h8M0,-4v8" fill="none" stroke="white" stroke-width="1.5" pointer-events="none"/>
  </g>
  <g id="zoomMin">
    <use xlink:href="#rim" fill="#404040"><set attributeName="fill" to="#808080" begin="zoomminus.mouseover" end="zoomminus.mouseout"/></use>
    <path d="M-4,0h8" fill="none" stroke="white" stroke-width="1.5" pointer-events="none"/>
  </g>
  <g id="arrowUp" transform="translate(30 24)">
    <use xlink:href="#rim"/>
    <path pointer-events="none" fill="none" stroke="white" stroke-width="1.5" d="M0,-3.0v7 M-2.5,-0.5L0,-3.0L2.5,-0.5"/>
  </g>
  <g id="arrowRight" transform="rotate(90) translate(36 -43)">
    <use xlink:href="#rim"/>
    <path pointer-events="none" fill="none" stroke="white" stroke-width="1.5" d="M0,-3.0v7 M-2.5,-0.5L0,-3.0L2.5,-0.5"/>
  </g>
  <g id="arrowDown" transform="rotate(180) translate(-30 -48)">
    <use xlink:href="#rim"/>
    <path pointer-events="none" fill="none" stroke="white" stroke-width="1.5" d="M0,-3.0v7 M-2.5,-0.5L0,-3.0L2.5,-0.5"/>
  </g>
  <g id="arrowLeft" transform="rotate(270) translate(-36 17)">
    <use xlink:href="#rim"/>
    <path pointer-events="none" fill="none" stroke="white" stroke-width="1.5" d="M0,-3.0v7 M-2.5,-0.5L0,-3.0L2.5,-0.5"/>
  </g>
  <g id="resetDef">
    <use xlink:href="#rim2" fill="#404040"><set attributeName="fill" to="#808080" begin="reset.mouseover" end="reset.mouseout"/></use>
  </g>
</defs>
<script type="application/ecmascript">
var viewWidth = 1060;
var viewHeight = 170;
var sectionId = 'dynsection-1';
</script>
<script type="application/ecmascript" xlink:href="../../svg.min.js"/>
<svg id="graph" class="graph">
<g id="viewport">
<title>src/include/concurrency/transaction_manager.h</title>
<!-- Node1 -->
<g id="Node000001" class="node">
<title>Node1</title>
<g id="a_Node000001"><a xlink:title=" ">
<polygon fill="#999999" stroke="#666666" points="523.5,-162 392.5,-162 392.5,-132 523.5,-132 523.5,-162"/>
<text text-anchor="start" x="400.5" y="-150" font-family="Helvetica,sans-Serif" font-size="10.00">src/include/concurrency</text>
<text text-anchor="middle" x="458" y="-139" font-family="Helvetica,sans-Serif" font-size="10.00">/transaction_manager.h</text>
</a>
</g>
</g>
<!-- Node2 -->
<g id="Node000002" class="node">
<title>Node2</title>
<g id="a_Node000002"><a xlink:href="../../d5/d14/lock__manager_8cpp.html" target="_top" xlink:title=" ">
<polygon fill="white" stroke="#666666" points="116,-96 0,-96 0,-66 116,-66 116,-96"/>
<text text-anchor="start" x="8" y="-84" font-family="Helvetica,sans-Serif" font-size="10.00">src/concurrency/lock</text>
<text text-anchor="middle" x="58" y="-73" font-family="Helvetica,sans-Serif" font-size="10.00">_manager.cpp</text>
</a>
</g>
</g>
<!-- Node1&#45;&gt;Node2 -->
<g id="edge1_Node000001_Node000002" class="edge">
<title>Node1&#45;&gt;Node2</title>
<g id="a_edge1_Node000001_Node000002"><a xlink:title=" ">
<path fill="none" stroke="#63b8ff" d="M382.28,-135.88C314.66,-126.55 212.98,-111.78 125,-96 122.08,-95.48 119.08,-94.92 116.07,-94.34"/>
<polygon fill="#63b8ff" stroke="#63b8ff" points="382.04,-139.38 392.42,-137.28 382.99,-132.45 382.04,-139.38"/>
</a>
</g>
</g>
<!-- Node3 -->
<g id="Node000003" class="node">
<title>Node3</title>
<g id="a_Node000003"><a xlink:href="../../d1/d14/transaction__manager_8cpp.html" target="_top" xlink:title=" ">
<polygon fill="white" stroke="#666666" points="285.5,-96 134.5,-96 134.5,-66 285.5,-66 285.5,-96"/>
<text text-anchor="start" x="142.5" y="-84" font-family="Helvetica,sans-Serif" font-size="10.00">src/concurrency/transaction</text>
<text text-anchor="middle" x="210" y="-73" font-family="Helvetica,sans-Serif" font-size="10.00">_manager.cpp</text>
</a>
</g>
</g>
<!-- Node1&#45;&gt;Node3 -->
<g id="edge2_Node000001_Node000003" class="edge">
<title>Node1&#45;&gt;Node3</title>
<g id="a_edge2_Node000001_Node000003"><a xlink:title=" ">
<path fill="none" stroke="#63b8ff" d="M393.87,-129.45C353.69,-119.08 302.47,-105.86 264.3,-96.01"/>
<polygon fill="#63b8ff" stroke="#63b8ff" points="393.02,-132.85 403.58,-131.95 394.77,-126.07 393.02,-132.85"/>
</a>
</g>
</g>
<!-- Node4 -->
<g id="Node000004" class="node">
<title>Node4</title>
<g id="a_Node000004"><a xlink:href="../../d3/d72/transaction__manager__impl_8cpp.html" target="_top" xlink:title=" ">
<polygon fill="white" stroke="#666666" points="454.5,-96 303.5,-96 303.5,-66 454.5,-66 454.5,-96"/>
<text text-anchor="start" x="311.5" y="-84" font-family="Helvetica,sans-Serif" font-size="10.00">src/concurrency/transaction</text>
<text text-anchor="middle" x="379" y="-73" font-family="Helvetica,sans-Serif" font-size="10.00">_manager_impl.cpp</text>
</a>
</g>
</g>
<!-- Node1&#45;&gt;Node4 -->
<g id="edge3_Node000001_Node000004" class="edge">
<title>Node1&#45;&gt;Node4</title>
<g id="a_edge3_Node000001_Node000004"><a xlink:title=" ">
<path fill="none" stroke="#63b8ff" d="M432.67,-125.48C420.86,-115.91 407.11,-104.77 396.48,-96.16"/>
<polygon fill="#63b8ff" stroke="#63b8ff" points="430.49,-128.22 440.47,-131.8 434.9,-122.78 430.49,-128.22"/>
</a>
</g>
</g>
<!-- Node5 -->
<g id="Node000005" class="node">
<title>Node5</title>
<g id="a_Node000005"><a xlink:href="../../dd/df1/execution__common_8cpp.html" target="_top" xlink:title=" ">
<polygon fill="white" stroke="#666666" points="603.5,-96 472.5,-96 472.5,-66 603.5,-66 603.5,-96"/>
<text text-anchor="start" x="480.5" y="-84" font-family="Helvetica,sans-Serif" font-size="10.00">src/execution/execution</text>
<text text-anchor="middle" x="538" y="-73" font-family="Helvetica,sans-Serif" font-size="10.00">_common.cpp</text>
</a>
</g>
</g>
<!-- Node1&#45;&gt;Node5 -->
<g id="edge4_Node000001_Node000005" class="edge">
<title>Node1&#45;&gt;Node5</title>
<g id="a_edge4_Node000001_Node000005"><a xlink:title=" ">
<path fill="none" stroke="#63b8ff" d="M483.65,-125.48C495.61,-115.91 509.53,-104.77 520.3,-96.16"/>
<polygon fill="#63b8ff" stroke="#63b8ff" points="481.38,-122.82 475.75,-131.8 485.75,-128.28 481.38,-122.82"/>
</a>
</g>
</g>
<!-- Node6 -->
<g id="Node000006" class="node">
<title>Node6</title>
<g id="a_Node000006"><a xlink:href="../../d1/d8d/execution__engine_8h.html" target="_top" xlink:title=" ">
<polygon fill="white" stroke="#666666" points="740.5,-96 621.5,-96 621.5,-66 740.5,-66 740.5,-96"/>
<text text-anchor="start" x="629.5" y="-84" font-family="Helvetica,sans-Serif" font-size="10.00">src/include/execution</text>
<text text-anchor="middle" x="681" y="-73" font-family="Helvetica,sans-Serif" font-size="10.00">/execution_engine.h</text>
</a>
</g>
</g>
<!-- Node1&#45;&gt;Node6 -->
<g id="edge5_Node000001_Node000006" class="edge">
<title>Node1&#45;&gt;Node6</title>
<g id="a_edge5_Node000001_Node000006"><a xlink:title=" ">
<path fill="none" stroke="#63b8ff" d="M516.81,-129.12C552.77,-118.8 598.22,-105.76 632.18,-96.01"/>
<polygon fill="#63b8ff" stroke="#63b8ff" points="515.58,-125.83 506.94,-131.95 517.52,-132.56 515.58,-125.83"/>
</a>
</g>
</g>
<!-- Node9 -->
<g id="Node000009" class="node">
<title>Node9</title>
<g id="a_Node000009"><a xlink:href="../../d8/dc4/checkpoint__manager_8h.html" target="_top" xlink:title=" ">
<polygon fill="white" stroke="#666666" points="889,-96 759,-96 759,-66 889,-66 889,-96"/>
<text text-anchor="start" x="767" y="-84" font-family="Helvetica,sans-Serif" font-size="10.00">src/include/recovery</text>
<text text-anchor="middle" x="824" y="-73" font-family="Helvetica,sans-Serif" font-size="10.00">/checkpoint_manager.h</text>
</a>
</g>
</g>
<!-- Node1&#45;&gt;Node9 -->
<g id="edge8_Node000001_Node000009" class="edge">
<title>Node1&#45;&gt;Node9</title>
<g id="a_edge8_Node000001_Node000009"><a xlink:title=" ">
<path fill="none" stroke="#63b8ff" d="M533.56,-133.43C592.55,-123.53 676.55,-109.24 750,-96 752.83,-95.49 755.72,-94.96 758.64,-94.43"/>
<polygon fill="#63b8ff" stroke="#63b8ff" points="532.86,-130 523.58,-135.11 534.02,-136.9 532.86,-130"/>
</a>
</g>
</g>
<!-- Node7 -->
<g id="Node000007" class="node">
<title>Node7</title>
<g id="a_Node000007"><a xlink:href="../../dc/de0/bustub__ddl_8cpp.html" target="_top" xlink:title=" ">
<polygon fill="white" stroke="#666666" points="900.5,-24.5 747.5,-24.5 747.5,-5.5 900.5,-5.5 900.5,-24.5"/>
<text text-anchor="middle" x="824" y="-12.5" font-family="Helvetica,sans-Serif" font-size="10.00">src/common/bustub_ddl.cpp</text>
</a>
</g>
</g>
<!-- Node6&#45;&gt;Node7 -->
<g id="edge6_Node000006_Node000007" class="edge">
<title>Node6&#45;&gt;Node7</title>
<g id="a_edge6_Node000006_Node000007"><a xlink:title=" ">
<path fill="none" stroke="#63b8ff" d="M721.71,-61.78C749.05,-49.54 783.82,-33.98 804.97,-24.52"/>
<polygon fill="#63b8ff" stroke="#63b8ff" points="720.08,-58.68 712.38,-65.95 722.94,-65.06 720.08,-58.68"/>
</a>
</g>
</g>
<!-- Node8 -->
<g id="Node000008" class="node">
<title>Node8</title>
<g id="a_Node000008"><a xlink:href="../../da/d08/bustub__instance_8cpp.html" target="_top" xlink:title=" ">
<polygon fill="white" stroke="#666666" points="729.5,-24.5 550.5,-24.5 550.5,-5.5 729.5,-5.5 729.5,-24.5"/>
<text text-anchor="middle" x="640" y="-12.5" font-family="Helvetica,sans-Serif" font-size="10.00">src/common/bustub_instance.cpp</text>
</a>
</g>
</g>
<!-- Node6&#45;&gt;Node8 -->
<g id="edge7_Node000006_Node000008" class="edge">
<title>Node6&#45;&gt;Node8</title>
<g id="a_edge7_Node000006_Node000008"><a xlink:title=" ">
<path fill="none" stroke="#63b8ff" d="M666.44,-57.28C659.26,-46.07 651.01,-33.19 645.67,-24.84"/>
<polygon fill="#63b8ff" stroke="#63b8ff" points="663.56,-59.26 671.9,-65.8 669.45,-55.49 663.56,-59.26"/>
</a>
</g>
</g>
<!-- Node9&#45;&gt;Node7 -->
<g id="edge9_Node000009_Node000007" class="edge">
<title>Node9&#45;&gt;Node7</title>
<g id="a_edge9_Node000009_Node000007"><a xlink:title=" ">
<path fill="none" stroke="#63b8ff" d="M824,-55.6C824,-44.8 824,-32.78 824,-24.84"/>
<polygon fill="#63b8ff" stroke="#63b8ff" points="820.5,-55.8 824,-65.8 827.5,-55.8 820.5,-55.8"/>
</a>
</g>
</g>
<!-- Node9&#45;&gt;Node8 -->
<g id="edge10_Node000009_Node000008" class="edge">
<title>Node9&#45;&gt;Node8</title>
<g id="a_edge10_Node000009_Node000008"><a xlink:title=" ">
<path fill="none" stroke="#63b8ff" d="M773.91,-62.58C738.4,-50.23 692.29,-34.19 664.49,-24.52"/>
<polygon fill="#63b8ff" stroke="#63b8ff" points="773.03,-65.98 783.62,-65.95 775.33,-59.36 773.03,-65.98"/>
</a>
</g>
</g>
<!-- Node10 -->
<g id="Node000010" class="node">
<title>Node10</title>
<g id="a_Node000010"><a xlink:href="../../df/d98/checkpoint__manager_8cpp.html" target="_top" xlink:title=" ">
<polygon fill="white" stroke="#666666" points="1051.5,-30 918.5,-30 918.5,0 1051.5,0 1051.5,-30"/>
<text text-anchor="start" x="926.5" y="-18" font-family="Helvetica,sans-Serif" font-size="10.00">src/recovery/checkpoint</text>
<text text-anchor="middle" x="985" y="-7" font-family="Helvetica,sans-Serif" font-size="10.00">_manager.cpp</text>
</a>
</g>
</g>
<!-- Node9&#45;&gt;Node10 -->
<g id="edge11_Node000009_Node000010" class="edge">
<title>Node9&#45;&gt;Node10</title>
<g id="a_edge11_Node000009_Node000010"><a xlink:title=" ">
<path fill="none" stroke="#63b8ff" d="M868.81,-62.19C894.37,-52.02 925.97,-39.47 949.75,-30.01"/>
<polygon fill="#63b8ff" stroke="#63b8ff" points="867.33,-59.01 859.33,-65.95 869.92,-65.51 867.33,-59.01"/>
</a>
</g>
</g>
</g>
</svg>

<g id="navigator" transform="translate(0 0)" fill="#404254">
  <rect fill="#f2f5e9" fill-opacity="0.5" stroke="#606060" stroke-width=".5" x="0" y="0" width="60" height="60"/>
  <use id="zoomplus" xlink:href="#zoomPlus" x="17" y="9" onmousedown="handleZoom(evt,'in')"/>
  <use id="zoomminus" xlink:href="#zoomMin" x="42" y="9" onmousedown="handleZoom(evt,'out')"/>
  <use id="reset" xlink:href="#resetDef" x="30" y="36" onmousedown="handleReset()"/>
   <use id="arrowup" xlink:href="#arrowUp" x="0" y="0" onmousedown="handlePan(0,-1)"/>
  <use id="arrowright" xlink:href="#arrowRight" x="0" y="0" onmousedown="handlePan(1,0)"/>
  <use id="arrowdown" xlink:href="#arrowDown" x="0" y="0" onmousedown="handlePan(0,1)"/>
  <use id="arrowleft" xlink:href="#arrowLeft" x="0" y="0" onmousedown="handlePan(-1,0)"/>
</g>
<svg viewBox="0 0 15 15" width="100%" height="30px" preserveAspectRatio="xMaxYMin meet">
 <g id="arrow_out" transform="scale(0.3 0.3)">
  <a xlink:href="transaction__manager_8h__dep__incl_org.svg" target="_base">
   <rect id="button" ry="5" rx="5" y="6" x="6" height="38" width="38"
        fill="#f2f5e9" fill-opacity="0.5" stroke="#606060" stroke-width="1.0"/>
   <path id="arrow"
     d="M 11.500037,31.436501 C 11.940474,20.09759 22.043105,11.32322 32.158766,21.979434 L 37.068811,17.246167 C 37.068811,17.246167 37.088388,32 37.088388,32 L 22.160133,31.978069 C 22.160133,31.978069 26.997745,27.140456 26.997745,27.140456 C 18.528582,18.264221 13.291696,25.230495 11.500037,31.436501 z"
     style="fill:#404040;"/>
  </a>
 </g>
</svg>

<style type='text/css'>
<![CDATA[
[data-mouse-over-selected='false'] { opacity: 0.7; }
[data-mouse-over-selected='true']  { opacity: 1.0; }
]]>
</style>
<script type="application/ecmascript"><![CDATA[
document.addEventListener('DOMContentLoaded', (event) => {
  highlightEdges();
  highlightAdjacentNodes();
});
]]></script>
</svg>
