<?xml version="1.0" encoding="UTF-8" standalone="no"?>
<!DOCTYPE svg PUBLIC "-//W3C//DTD SVG 1.1//EN"
 "http://www.w3.org/Graphics/SVG/1.1/DTD/svg11.dtd">
<!-- Generated by graphviz version 2.43.0 (0)
 -->
<!-- Title: src/primer/trie_store.cpp Pages: 1 -->
<!--zoomable 247 -->

<svg id="main" version="1.1" xmlns="http://www.w3.org/2000/svg" xmlns:xlink="http://www.w3.org/1999/xlink" xml:space="preserve" onload="init(evt)">
<style type="text/css"><![CDATA[
.node, .edge {opacity: 0.7;}
.node.selected, .edge.selected {opacity: 1;}
.edge:hover path { stroke: red; }
.edge:hover polygon { stroke: red; fill: red; }
]]></style>

<defs>
  <circle id="rim" cx="0" cy="0" r="7"/>
  <circle id="rim2" cx="0" cy="0" r="3.5"/>
  <g id="zoomPlus">
    <use xlink:href="#rim" fill="#404040"><set attributeName="fill" to="#808080" begin="zoomplus.mouseover" end="zoomplus.mouseout"/></use>
    <path d="M-4,0h8M0,-4v8" fill="none" stroke="white" stroke-width="1.5" pointer-events="none"/>
  </g>
  <g id="zoomMin">
    <use xlink:href="#rim" fill="#404040"><set attributeName="fill" to="#808080" begin="zoomminus.mouseover" end="zoomminus.mouseout"/></use>
    <path d="M-4,0h8" fill="none" stroke="white" stroke-width="1.5" pointer-events="none"/>
  </g>
  <g id="arrowUp" transform="translate(30 24)">
    <use xlink:href="#rim"/>
    <path pointer-events="none" fill="none" stroke="white" stroke-width="1.5" d="M0,-3.0v7 M-2.5,-0.5L0,-3.0L2.5,-0.5"/>
  </g>
  <g id="arrowRight" transform="rotate(90) translate(36 -43)">
    <use xlink:href="#rim"/>
    <path pointer-events="none" fill="none" stroke="white" stroke-width="1.5" d="M0,-3.0v7 M-2.5,-0.5L0,-3.0L2.5,-0.5"/>
  </g>
  <g id="arrowDown" transform="rotate(180) translate(-30 -48)">
    <use xlink:href="#rim"/>
    <path pointer-events="none" fill="none" stroke="white" stroke-width="1.5" d="M0,-3.0v7 M-2.5,-0.5L0,-3.0L2.5,-0.5"/>
  </g>
  <g id="arrowLeft" transform="rotate(270) translate(-36 17)">
    <use xlink:href="#rim"/>
    <path pointer-events="none" fill="none" stroke="white" stroke-width="1.5" d="M0,-3.0v7 M-2.5,-0.5L0,-3.0L2.5,-0.5"/>
  </g>
  <g id="resetDef">
    <use xlink:href="#rim2" fill="#404040"><set attributeName="fill" to="#808080" begin="reset.mouseover" end="reset.mouseout"/></use>
  </g>
</defs>
<script type="application/ecmascript">
var viewWidth = 1530;
var viewHeight = 247;
var sectionId = 'dynsection-0';
</script>
<script type="application/ecmascript" xlink:href="../../svg.min.js"/>
<svg id="graph" class="graph">
<g id="viewport">
<title>src/primer/trie_store.cpp</title>
<!-- Node1 -->
<g id="Node000001" class="node">
<title>Node1</title>
<g id="a_Node000001"><a xlink:title=" ">
<polygon fill="#999999" stroke="#666666" points="809,-239 673,-239 673,-220 809,-220 809,-239"/>
<text text-anchor="middle" x="741" y="-227" font-family="Helvetica,sans-Serif" font-size="10.00">src/primer/trie_store.cpp</text>
</a>
</g>
</g>
<!-- Node2 -->
<g id="Node000002" class="node">
<title>Node2</title>
<g id="a_Node000002"><a xlink:href="../../d1/dce/trie__store_8h.html" target="_top" xlink:title=" ">
<polygon fill="white" stroke="#666666" points="565.5,-184 458.5,-184 458.5,-165 565.5,-165 565.5,-184"/>
<text text-anchor="middle" x="512" y="-172" font-family="Helvetica,sans-Serif" font-size="10.00">primer/trie_store.h</text>
</a>
</g>
</g>
<!-- Node1&#45;&gt;Node2 -->
<g id="edge1_Node000001_Node000002" class="edge">
<title>Node1&#45;&gt;Node2</title>
<g id="a_edge1_Node000001_Node000002"><a xlink:title=" ">
<path fill="none" stroke="#63b8ff" d="M704.21,-219.98C664.76,-210.86 602.02,-196.33 559.02,-186.38"/>
<polygon fill="#63b8ff" stroke="#63b8ff" points="559.61,-182.93 549.08,-184.08 558.03,-189.75 559.61,-182.93"/>
</a>
</g>
</g>
<!-- Node3 -->
<g id="Node000003" class="node">
<title>Node3</title>
<g id="a_Node000003"><a xlink:title=" ">
<polygon fill="#e0e0e0" stroke="#999999" points="56,-74 0,-74 0,-55 56,-55 56,-74"/>
<text text-anchor="middle" x="28" y="-62" font-family="Helvetica,sans-Serif" font-size="10.00">optional</text>
</a>
</g>
</g>
<!-- Node1&#45;&gt;Node3 -->
<g id="edge18_Node000001_Node000003" class="edge">
<title>Node1&#45;&gt;Node3</title>
<g id="a_edge18_Node000001_Node000003"><a xlink:title=" ">
<path fill="none" stroke="#63b8ff" d="M672.81,-220.03C613.42,-212.2 525.14,-199.46 449,-184 351.92,-164.29 328.34,-155.89 233,-129 173.33,-112.17 104.62,-90.39 63.83,-77.21"/>
<polygon fill="#63b8ff" stroke="#63b8ff" points="64.68,-73.8 54.08,-74.05 62.52,-80.46 64.68,-73.8"/>
</a>
</g>
</g>
<!-- Node16 -->
<g id="Node000016" class="node">
<title>Node16</title>
<g id="a_Node000016"><a xlink:title=" ">
<polygon fill="#e0e0e0" stroke="#999999" points="765,-184 717,-184 717,-165 765,-165 765,-184"/>
<text text-anchor="middle" x="741" y="-172" font-family="Helvetica,sans-Serif" font-size="10.00">mutex</text>
</a>
</g>
</g>
<!-- Node1&#45;&gt;Node16 -->
<g id="edge17_Node000001_Node000016" class="edge">
<title>Node1&#45;&gt;Node16</title>
<g id="a_edge17_Node000001_Node000016"><a xlink:title=" ">
<path fill="none" stroke="#63b8ff" d="M741,-219.75C741,-212.8 741,-202.85 741,-194.13"/>
<polygon fill="#63b8ff" stroke="#63b8ff" points="744.5,-194.09 741,-184.09 737.5,-194.09 744.5,-194.09"/>
</a>
</g>
</g>
<!-- Node17 -->
<g id="Node000017" class="node">
<title>Node17</title>
<g id="a_Node000017"><a xlink:href="../../dd/d2d/exception_8h.html" target="_top" xlink:title=" ">
<polygon fill="white" stroke="#666666" points="936.5,-129 817.5,-129 817.5,-110 936.5,-110 936.5,-129"/>
<text text-anchor="middle" x="877" y="-117" font-family="Helvetica,sans-Serif" font-size="10.00">common/exception.h</text>
</a>
</g>
</g>
<!-- Node1&#45;&gt;Node17 -->
<g id="edge19_Node000001_Node000017" class="edge">
<title>Node1&#45;&gt;Node17</title>
<g id="a_edge19_Node000001_Node000017"><a xlink:title=" ">
<path fill="none" stroke="#63b8ff" d="M752.13,-219.66C775.36,-201.22 829.22,-158.45 858.02,-135.57"/>
<polygon fill="#63b8ff" stroke="#63b8ff" points="860.44,-138.12 866.1,-129.16 856.09,-132.64 860.44,-138.12"/>
</a>
</g>
</g>
<!-- Node25 -->
<g id="Node000025" class="node">
<title>Node25</title>
<g id="a_Node000025"><a xlink:href="../../d4/d3f/value_8h.html" target="_top" xlink:title=" ">
<polygon fill="white" stroke="#666666" points="1182.5,-129 1105.5,-129 1105.5,-110 1182.5,-110 1182.5,-129"/>
<text text-anchor="middle" x="1144" y="-117" font-family="Helvetica,sans-Serif" font-size="10.00">type/value.h</text>
</a>
</g>
</g>
<!-- Node1&#45;&gt;Node25 -->
<g id="edge31_Node000001_Node000025" class="edge">
<title>Node1&#45;&gt;Node25</title>
<g id="a_edge31_Node000001_Node000025"><a xlink:title=" ">
<path fill="none" stroke="#63b8ff" d="M772.96,-219.94C845.27,-200.56 1021.38,-153.36 1102.21,-131.7"/>
<polygon fill="#63b8ff" stroke="#63b8ff" points="1103.28,-135.04 1112.04,-129.07 1101.47,-128.27 1103.28,-135.04"/>
</a>
</g>
</g>
<!-- Node2&#45;&gt;Node3 -->
<g id="edge2_Node000002_Node000003" class="edge">
<title>Node2&#45;&gt;Node3</title>
<g id="a_edge2_Node000002_Node000003"><a xlink:title=" ">
<path fill="none" stroke="#63b8ff" d="M473.12,-164.94C397.09,-148.18 223.15,-109.73 66.12,-74.24"/>
<polygon fill="#63b8ff" stroke="#63b8ff" points="66.8,-70.81 56.28,-72.02 65.26,-77.64 66.8,-70.81"/>
</a>
</g>
</g>
<!-- Node4 -->
<g id="Node000004" class="node">
<title>Node4</title>
<g id="a_Node000004"><a xlink:title=" ">
<polygon fill="#e0e0e0" stroke="#999999" points="626,-129 540,-129 540,-110 626,-110 626,-129"/>
<text text-anchor="middle" x="583" y="-117" font-family="Helvetica,sans-Serif" font-size="10.00">shared_mutex</text>
</a>
</g>
</g>
<!-- Node2&#45;&gt;Node4 -->
<g id="edge3_Node000002_Node000004" class="edge">
<title>Node2&#45;&gt;Node4</title>
<g id="a_edge3_Node000002_Node000004"><a xlink:title=" ">
<path fill="none" stroke="#63b8ff" d="M523.41,-164.98C534.11,-157 550.34,-144.88 563.16,-135.31"/>
<polygon fill="#63b8ff" stroke="#63b8ff" points="565.47,-137.96 571.39,-129.17 561.28,-132.35 565.47,-137.96"/>
</a>
</g>
</g>
<!-- Node5 -->
<g id="Node000005" class="node">
<title>Node5</title>
<g id="a_Node000005"><a xlink:title=" ">
<polygon fill="#e0e0e0" stroke="#999999" points="691.5,-74 646.5,-74 646.5,-55 691.5,-55 691.5,-74"/>
<text text-anchor="middle" x="669" y="-62" font-family="Helvetica,sans-Serif" font-size="10.00">utility</text>
</a>
</g>
</g>
<!-- Node2&#45;&gt;Node5 -->
<g id="edge4_Node000002_Node000005" class="edge">
<title>Node2&#45;&gt;Node5</title>
<g id="a_edge4_Node000002_Node000005"><a xlink:title=" ">
<path fill="none" stroke="#63b8ff" d="M512.15,-164.85C512.85,-151.31 516.19,-125.13 531,-110 538.58,-102.26 598.35,-84.81 636.7,-74.21"/>
<polygon fill="#63b8ff" stroke="#63b8ff" points="637.7,-77.56 646.42,-71.54 635.85,-70.81 637.7,-77.56"/>
</a>
</g>
</g>
<!-- Node6 -->
<g id="Node000006" class="node">
<title>Node6</title>
<g id="a_Node000006"><a xlink:href="../../d7/dc8/trie_8h.html" target="_top" xlink:title=" ">
<polygon fill="white" stroke="#666666" points="450.5,-129 373.5,-129 373.5,-110 450.5,-110 450.5,-129"/>
<text text-anchor="middle" x="412" y="-117" font-family="Helvetica,sans-Serif" font-size="10.00">primer/trie.h</text>
</a>
</g>
</g>
<!-- Node2&#45;&gt;Node6 -->
<g id="edge5_Node000002_Node000006" class="edge">
<title>Node2&#45;&gt;Node6</title>
<g id="a_edge5_Node000002_Node000006"><a xlink:title=" ">
<path fill="none" stroke="#63b8ff" d="M495.93,-164.98C480.14,-156.61 455.78,-143.7 437.37,-133.95"/>
<polygon fill="#63b8ff" stroke="#63b8ff" points="438.83,-130.76 428.36,-129.17 435.56,-136.95 438.83,-130.76"/>
</a>
</g>
</g>
<!-- Node6&#45;&gt;Node3 -->
<g id="edge11_Node000006_Node000003" class="edge">
<title>Node6&#45;&gt;Node3</title>
<g id="a_edge11_Node000006_Node000003"><a xlink:title=" ">
<path fill="none" stroke="#63b8ff" d="M373.3,-114.79C310.76,-108.53 183.42,-94.64 66.09,-74.04"/>
<polygon fill="#63b8ff" stroke="#63b8ff" points="66.68,-70.59 56.22,-72.28 65.46,-77.48 66.68,-70.59"/>
</a>
</g>
</g>
<!-- Node6&#45;&gt;Node5 -->
<g id="edge15_Node000006_Node000005" class="edge">
<title>Node6&#45;&gt;Node5</title>
<g id="a_edge15_Node000006_Node000005"><a xlink:title=" ">
<path fill="none" stroke="#63b8ff" d="M450.78,-111.61C493.73,-103.82 565.23,-90.32 636.3,-74.03"/>
<polygon fill="#63b8ff" stroke="#63b8ff" points="637.36,-77.38 646.32,-71.72 635.79,-70.56 637.36,-77.38"/>
</a>
</g>
</g>
<!-- Node7 -->
<g id="Node000007" class="node">
<title>Node7</title>
<g id="a_Node000007"><a xlink:title=" ">
<polygon fill="#e0e0e0" stroke="#999999" points="138,-74 74,-74 74,-55 138,-55 138,-74"/>
<text text-anchor="middle" x="106" y="-62" font-family="Helvetica,sans-Serif" font-size="10.00">algorithm</text>
</a>
</g>
</g>
<!-- Node6&#45;&gt;Node7 -->
<g id="edge6_Node000006_Node000007" class="edge">
<title>Node6&#45;&gt;Node7</title>
<g id="a_edge6_Node000006_Node000007"><a xlink:title=" ">
<path fill="none" stroke="#63b8ff" d="M373.3,-112.47C323.53,-104.62 234.19,-90.17 148.14,-74.16"/>
<polygon fill="#63b8ff" stroke="#63b8ff" points="148.68,-70.7 138.21,-72.3 147.39,-77.58 148.68,-70.7"/>
</a>
</g>
</g>
<!-- Node8 -->
<g id="Node000008" class="node">
<title>Node8</title>
<g id="a_Node000008"><a xlink:title=" ">
<polygon fill="#e0e0e0" stroke="#999999" points="209.5,-74 156.5,-74 156.5,-55 209.5,-55 209.5,-74"/>
<text text-anchor="middle" x="183" y="-62" font-family="Helvetica,sans-Serif" font-size="10.00">cstddef</text>
</a>
</g>
</g>
<!-- Node6&#45;&gt;Node8 -->
<g id="edge7_Node000006_Node000008" class="edge">
<title>Node6&#45;&gt;Node8</title>
<g id="a_edge7_Node000006_Node000008"><a xlink:title=" ">
<path fill="none" stroke="#63b8ff" d="M374.63,-109.94C337.79,-101.5 279.62,-88.12 219.75,-74.16"/>
<polygon fill="#63b8ff" stroke="#63b8ff" points="220.27,-70.69 209.73,-71.83 218.68,-77.51 220.27,-70.69"/>
</a>
</g>
</g>
<!-- Node9 -->
<g id="Node000009" class="node">
<title>Node9</title>
<g id="a_Node000009"><a xlink:title=" ">
<polygon fill="#e0e0e0" stroke="#999999" points="274,-74 228,-74 228,-55 274,-55 274,-74"/>
<text text-anchor="middle" x="251" y="-62" font-family="Helvetica,sans-Serif" font-size="10.00">future</text>
</a>
</g>
</g>
<!-- Node6&#45;&gt;Node9 -->
<g id="edge8_Node000006_Node000009" class="edge">
<title>Node6&#45;&gt;Node9</title>
<g id="a_edge8_Node000006_Node000009"><a xlink:title=" ">
<path fill="none" stroke="#63b8ff" d="M386.13,-109.98C358.34,-100.84 314.1,-86.27 283.86,-76.32"/>
<polygon fill="#63b8ff" stroke="#63b8ff" points="284.78,-72.94 274.19,-73.13 282.59,-79.59 284.78,-72.94"/>
</a>
</g>
</g>
<!-- Node10 -->
<g id="Node000010" class="node">
<title>Node10</title>
<g id="a_Node000010"><a xlink:title=" ">
<polygon fill="#e0e0e0" stroke="#999999" points="330,-74 292,-74 292,-55 330,-55 330,-74"/>
<text text-anchor="middle" x="311" y="-62" font-family="Helvetica,sans-Serif" font-size="10.00">map</text>
</a>
</g>
</g>
<!-- Node6&#45;&gt;Node10 -->
<g id="edge9_Node000006_Node000010" class="edge">
<title>Node6&#45;&gt;Node10</title>
<g id="a_edge9_Node000006_Node000010"><a xlink:title=" ">
<path fill="none" stroke="#63b8ff" d="M395.77,-109.98C379.82,-101.61 355.22,-88.7 336.62,-78.95"/>
<polygon fill="#63b8ff" stroke="#63b8ff" points="338,-75.72 327.52,-74.17 334.75,-81.92 338,-75.72"/>
</a>
</g>
</g>
<!-- Node11 -->
<g id="Node000011" class="node">
<title>Node11</title>
<g id="a_Node000011"><a xlink:title=" ">
<polygon fill="#e0e0e0" stroke="#999999" points="768,-74 710,-74 710,-55 768,-55 768,-74"/>
<text text-anchor="middle" x="739" y="-62" font-family="Helvetica,sans-Serif" font-size="10.00">memory</text>
</a>
</g>
</g>
<!-- Node6&#45;&gt;Node11 -->
<g id="edge10_Node000006_Node000011" class="edge">
<title>Node6&#45;&gt;Node11</title>
<g id="a_edge10_Node000006_Node000011"><a xlink:title=" ">
<path fill="none" stroke="#63b8ff" d="M450.79,-113.28C504.33,-105.9 604.1,-91.54 699.54,-73.98"/>
<polygon fill="#63b8ff" stroke="#63b8ff" points="700.46,-77.36 709.65,-72.1 699.18,-70.48 700.46,-77.36"/>
</a>
</g>
</g>
<!-- Node12 -->
<g id="Node000012" class="node">
<title>Node12</title>
<g id="a_Node000012"><a xlink:title=" ">
<polygon fill="#e0e0e0" stroke="#999999" points="628.5,-74 563.5,-74 563.5,-55 628.5,-55 628.5,-74"/>
<text text-anchor="middle" x="596" y="-62" font-family="Helvetica,sans-Serif" font-size="10.00">stdexcept</text>
</a>
</g>
</g>
<!-- Node6&#45;&gt;Node12 -->
<g id="edge12_Node000006_Node000012" class="edge">
<title>Node6&#45;&gt;Node12</title>
<g id="a_edge12_Node000006_Node000012"><a xlink:title=" ">
<path fill="none" stroke="#63b8ff" d="M441.56,-109.98C472.72,-101.01 521.97,-86.82 556.46,-76.89"/>
<polygon fill="#63b8ff" stroke="#63b8ff" points="557.57,-80.21 566.21,-74.08 555.63,-73.49 557.57,-80.21"/>
</a>
</g>
</g>
<!-- Node13 -->
<g id="Node000013" class="node">
<title>Node13</title>
<g id="a_Node000013"><a xlink:title=" ">
<polygon fill="#e0e0e0" stroke="#999999" points="1106,-19 1062,-19 1062,0 1106,0 1106,-19"/>
<text text-anchor="middle" x="1084" y="-7" font-family="Helvetica,sans-Serif" font-size="10.00">string</text>
</a>
</g>
</g>
<!-- Node6&#45;&gt;Node13 -->
<g id="edge13_Node000006_Node000013" class="edge">
<title>Node6&#45;&gt;Node13</title>
<g id="a_edge13_Node000006_Node000013"><a xlink:title=" ">
<path fill="none" stroke="#63b8ff" d="M432.64,-109.91C453.52,-101.14 486.68,-87.01 515,-74 532.52,-65.95 535.41,-60.12 554,-55 648.7,-28.94 952.04,-15.46 1051.84,-11.65"/>
<polygon fill="#63b8ff" stroke="#63b8ff" points="1052.05,-15.14 1061.91,-11.27 1051.79,-8.15 1052.05,-15.14"/>
</a>
</g>
</g>
<!-- Node14 -->
<g id="Node000014" class="node">
<title>Node14</title>
<g id="a_Node000014"><a xlink:title=" ">
<polygon fill="#e0e0e0" stroke="#999999" points="441.5,-74 348.5,-74 348.5,-55 441.5,-55 441.5,-74"/>
<text text-anchor="middle" x="395" y="-62" font-family="Helvetica,sans-Serif" font-size="10.00">unordered_map</text>
</a>
</g>
</g>
<!-- Node6&#45;&gt;Node14 -->
<g id="edge14_Node000006_Node000014" class="edge">
<title>Node6&#45;&gt;Node14</title>
<g id="a_edge14_Node000006_Node000014"><a xlink:title=" ">
<path fill="none" stroke="#63b8ff" d="M409.19,-109.75C406.94,-102.72 403.7,-92.62 400.88,-83.84"/>
<polygon fill="#63b8ff" stroke="#63b8ff" points="404.14,-82.54 397.75,-74.09 397.48,-84.68 404.14,-82.54"/>
</a>
</g>
</g>
<!-- Node15 -->
<g id="Node000015" class="node">
<title>Node15</title>
<g id="a_Node000015"><a xlink:title=" ">
<polygon fill="#e0e0e0" stroke="#999999" points="506.5,-74 459.5,-74 459.5,-55 506.5,-55 506.5,-74"/>
<text text-anchor="middle" x="483" y="-62" font-family="Helvetica,sans-Serif" font-size="10.00">vector</text>
</a>
</g>
</g>
<!-- Node6&#45;&gt;Node15 -->
<g id="edge16_Node000006_Node000015" class="edge">
<title>Node6&#45;&gt;Node15</title>
<g id="a_edge16_Node000006_Node000015"><a xlink:title=" ">
<path fill="none" stroke="#63b8ff" d="M423.41,-109.98C434.11,-102 450.34,-89.88 463.16,-80.31"/>
<polygon fill="#63b8ff" stroke="#63b8ff" points="465.47,-82.96 471.39,-74.17 461.28,-77.35 465.47,-82.96"/>
</a>
</g>
</g>
<!-- Node17&#45;&gt;Node11 -->
<g id="edge24_Node000017_Node000011" class="edge">
<title>Node17&#45;&gt;Node11</title>
<g id="a_edge24_Node000017_Node000011"><a xlink:title=" ">
<path fill="none" stroke="#63b8ff" d="M854.83,-109.98C832.23,-101.3 796.94,-87.75 771.25,-77.88"/>
<polygon fill="#63b8ff" stroke="#63b8ff" points="772.17,-74.49 761.58,-74.17 769.66,-81.02 772.17,-74.49"/>
</a>
</g>
</g>
<!-- Node17&#45;&gt;Node12 -->
<g id="edge25_Node000017_Node000012" class="edge">
<title>Node17&#45;&gt;Node12</title>
<g id="a_edge25_Node000017_Node000012"><a xlink:title=" ">
<path fill="none" stroke="#63b8ff" d="M829.13,-109.93C782.83,-101.57 710.4,-88.32 638.76,-74.32"/>
<polygon fill="#63b8ff" stroke="#63b8ff" points="639.15,-70.83 628.66,-72.34 637.8,-77.69 639.15,-70.83"/>
</a>
</g>
</g>
<!-- Node17&#45;&gt;Node13 -->
<g id="edge26_Node000017_Node000013" class="edge">
<title>Node17&#45;&gt;Node13</title>
<g id="a_edge26_Node000017_Node000013"><a xlink:title=" ">
<path fill="none" stroke="#63b8ff" d="M936.55,-116.5C974.24,-112.37 1021.94,-101.49 1055,-74 1068.66,-62.64 1076.19,-43.46 1080.12,-29.15"/>
<polygon fill="#63b8ff" stroke="#63b8ff" points="1083.54,-29.9 1082.48,-19.36 1076.74,-28.26 1083.54,-29.9"/>
</a>
</g>
</g>
<!-- Node18 -->
<g id="Node000018" class="node">
<title>Node18</title>
<g id="a_Node000018"><a xlink:title=" ">
<polygon fill="#e0e0e0" stroke="#999999" points="836,-74 786,-74 786,-55 836,-55 836,-74"/>
<text text-anchor="middle" x="811" y="-62" font-family="Helvetica,sans-Serif" font-size="10.00">atomic</text>
</a>
</g>
</g>
<!-- Node17&#45;&gt;Node18 -->
<g id="edge20_Node000017_Node000018" class="edge">
<title>Node17&#45;&gt;Node18</title>
<g id="a_edge20_Node000017_Node000018"><a xlink:title=" ">
<path fill="none" stroke="#63b8ff" d="M866.4,-109.98C856.54,-102.07 841.65,-90.11 829.78,-80.58"/>
<polygon fill="#63b8ff" stroke="#63b8ff" points="831.79,-77.7 821.8,-74.17 827.4,-83.16 831.79,-77.7"/>
</a>
</g>
</g>
<!-- Node19 -->
<g id="Node000019" class="node">
<title>Node19</title>
<g id="a_Node000019"><a xlink:title=" ">
<polygon fill="#e0e0e0" stroke="#999999" points="900,-74 854,-74 854,-55 900,-55 900,-74"/>
<text text-anchor="middle" x="877" y="-62" font-family="Helvetica,sans-Serif" font-size="10.00">cstdio</text>
</a>
</g>
</g>
<!-- Node17&#45;&gt;Node19 -->
<g id="edge21_Node000017_Node000019" class="edge">
<title>Node17&#45;&gt;Node19</title>
<g id="a_edge21_Node000017_Node000019"><a xlink:title=" ">
<path fill="none" stroke="#63b8ff" d="M877,-109.75C877,-102.8 877,-92.85 877,-84.13"/>
<polygon fill="#63b8ff" stroke="#63b8ff" points="880.5,-84.09 877,-74.09 873.5,-84.09 880.5,-84.09"/>
</a>
</g>
</g>
<!-- Node20 -->
<g id="Node000020" class="node">
<title>Node20</title>
<g id="a_Node000020"><a xlink:title=" ">
<polygon fill="#e0e0e0" stroke="#999999" points="967.5,-74 918.5,-74 918.5,-55 967.5,-55 967.5,-74"/>
<text text-anchor="middle" x="943" y="-62" font-family="Helvetica,sans-Serif" font-size="10.00">cstdlib</text>
</a>
</g>
</g>
<!-- Node17&#45;&gt;Node20 -->
<g id="edge22_Node000017_Node000020" class="edge">
<title>Node17&#45;&gt;Node20</title>
<g id="a_edge22_Node000017_Node000020"><a xlink:title=" ">
<path fill="none" stroke="#63b8ff" d="M887.6,-109.98C897.46,-102.07 912.35,-90.11 924.22,-80.58"/>
<polygon fill="#63b8ff" stroke="#63b8ff" points="926.6,-83.16 932.2,-74.17 922.21,-77.7 926.6,-83.16"/>
</a>
</g>
</g>
<!-- Node21 -->
<g id="Node000021" class="node">
<title>Node21</title>
<g id="a_Node000021"><a xlink:title=" ">
<polygon fill="#e0e0e0" stroke="#999999" points="1046,-74 986,-74 986,-55 1046,-55 1046,-74"/>
<text text-anchor="middle" x="1016" y="-62" font-family="Helvetica,sans-Serif" font-size="10.00">iostream</text>
</a>
</g>
</g>
<!-- Node17&#45;&gt;Node21 -->
<g id="edge23_Node000017_Node000021" class="edge">
<title>Node17&#45;&gt;Node21</title>
<g id="a_edge23_Node000017_Node000021"><a xlink:title=" ">
<path fill="none" stroke="#63b8ff" d="M899.33,-109.98C922.2,-101.27 957.96,-87.63 983.86,-77.75"/>
<polygon fill="#63b8ff" stroke="#63b8ff" points="985.16,-81 993.26,-74.17 982.67,-74.46 985.16,-81"/>
</a>
</g>
</g>
<!-- Node22 -->
<g id="Node000022" class="node">
<title>Node22</title>
<g id="a_Node000022"><a xlink:href="../../df/def/type_8h.html" target="_top" xlink:title=" ">
<polygon fill="white" stroke="#666666" points="1212,-74 1140,-74 1140,-55 1212,-55 1212,-74"/>
<text text-anchor="middle" x="1176" y="-62" font-family="Helvetica,sans-Serif" font-size="10.00">type/type.h</text>
</a>
</g>
</g>
<!-- Node17&#45;&gt;Node22 -->
<g id="edge27_Node000017_Node000022" class="edge">
<title>Node17&#45;&gt;Node22</title>
<g id="a_edge27_Node000017_Node000022"><a xlink:title=" ">
<path fill="none" stroke="#63b8ff" d="M925.04,-109.98C981.45,-99.99 1074.36,-83.52 1129.91,-73.67"/>
<polygon fill="#63b8ff" stroke="#63b8ff" points="1130.6,-77.1 1139.83,-71.91 1129.38,-70.21 1130.6,-77.1"/>
</a>
</g>
</g>
<!-- Node22&#45;&gt;Node13 -->
<g id="edge29_Node000022_Node000013" class="edge">
<title>Node22&#45;&gt;Node13</title>
<g id="a_edge29_Node000022_Node000013"><a xlink:title=" ">
<path fill="none" stroke="#63b8ff" d="M1161.22,-54.98C1146.82,-46.69 1124.69,-33.94 1107.81,-24.22"/>
<polygon fill="#63b8ff" stroke="#63b8ff" points="1109.46,-21.13 1099.05,-19.17 1105.97,-27.19 1109.46,-21.13"/>
</a>
</g>
</g>
<!-- Node23 -->
<g id="Node000023" class="node">
<title>Node23</title>
<g id="a_Node000023"><a xlink:title=" ">
<polygon fill="#e0e0e0" stroke="#999999" points="1309,-19 1259,-19 1259,0 1309,0 1309,-19"/>
<text text-anchor="middle" x="1284" y="-7" font-family="Helvetica,sans-Serif" font-size="10.00">cstdint</text>
</a>
</g>
</g>
<!-- Node22&#45;&gt;Node23 -->
<g id="edge28_Node000022_Node000023" class="edge">
<title>Node22&#45;&gt;Node23</title>
<g id="a_edge28_Node000022_Node000023"><a xlink:title=" ">
<path fill="none" stroke="#63b8ff" d="M1193.35,-54.98C1210.57,-46.54 1237.2,-33.47 1257.15,-23.68"/>
<polygon fill="#63b8ff" stroke="#63b8ff" points="1258.9,-26.72 1266.33,-19.17 1255.81,-20.43 1258.9,-26.72"/>
</a>
</g>
</g>
<!-- Node24 -->
<g id="Node000024" class="node">
<title>Node24</title>
<g id="a_Node000024"><a xlink:href="../../dc/df2/type__id_8h.html" target="_top" xlink:title=" ">
<polygon fill="white" stroke="#666666" points="1219,-19 1133,-19 1133,0 1219,0 1219,-19"/>
<text text-anchor="middle" x="1176" y="-7" font-family="Helvetica,sans-Serif" font-size="10.00">type/type_id.h</text>
</a>
</g>
</g>
<!-- Node22&#45;&gt;Node24 -->
<g id="edge30_Node000022_Node000024" class="edge">
<title>Node22&#45;&gt;Node24</title>
<g id="a_edge30_Node000022_Node000024"><a xlink:title=" ">
<path fill="none" stroke="#63b8ff" d="M1176,-54.75C1176,-47.8 1176,-37.85 1176,-29.13"/>
<polygon fill="#63b8ff" stroke="#63b8ff" points="1179.5,-29.09 1176,-19.09 1172.5,-29.09 1179.5,-29.09"/>
</a>
</g>
</g>
<!-- Node25&#45;&gt;Node5 -->
<g id="edge35_Node000025_Node000005" class="edge">
<title>Node25&#45;&gt;Node5</title>
<g id="a_edge35_Node000025_Node000005"><a xlink:title=" ">
<path fill="none" stroke="#63b8ff" d="M1105.49,-116.7C1029.91,-112.73 856.76,-101.43 701.8,-73.83"/>
<polygon fill="#63b8ff" stroke="#63b8ff" points="702.09,-70.32 691.62,-71.99 700.84,-77.21 702.09,-70.32"/>
</a>
</g>
</g>
<!-- Node25&#45;&gt;Node11 -->
<g id="edge33_Node000025_Node000011" class="edge">
<title>Node25&#45;&gt;Node11</title>
<g id="a_edge33_Node000025_Node000011"><a xlink:title=" ">
<path fill="none" stroke="#63b8ff" d="M1105.24,-115.08C1039.87,-109.03 903.36,-95.21 778.52,-74.11"/>
<polygon fill="#63b8ff" stroke="#63b8ff" points="778.85,-70.62 768.4,-72.38 777.67,-77.52 778.85,-70.62"/>
</a>
</g>
</g>
<!-- Node25&#45;&gt;Node13 -->
<g id="edge34_Node000025_Node000013" class="edge">
<title>Node25&#45;&gt;Node13</title>
<g id="a_edge34_Node000025_Node000013"><a xlink:title=" ">
<path fill="none" stroke="#63b8ff" d="M1139.09,-109.66C1129.2,-91.85 1106.7,-51.37 1093.73,-28.01"/>
<polygon fill="#63b8ff" stroke="#63b8ff" points="1096.73,-26.2 1088.81,-19.16 1090.61,-29.6 1096.73,-26.2"/>
</a>
</g>
</g>
<!-- Node25&#45;&gt;Node22 -->
<g id="edge42_Node000025_Node000022" class="edge">
<title>Node25&#45;&gt;Node22</title>
<g id="a_edge42_Node000025_Node000022"><a xlink:title=" ">
<path fill="none" stroke="#63b8ff" d="M1149.28,-109.75C1153.71,-102.42 1160.16,-91.73 1165.62,-82.7"/>
<polygon fill="#63b8ff" stroke="#63b8ff" points="1168.64,-84.46 1170.81,-74.09 1162.65,-80.84 1168.64,-84.46"/>
</a>
</g>
</g>
<!-- Node26 -->
<g id="Node000026" class="node">
<title>Node26</title>
<g id="a_Node000026"><a xlink:title=" ">
<polygon fill="#e0e0e0" stroke="#999999" points="1280,-74 1230,-74 1230,-55 1280,-55 1280,-74"/>
<text text-anchor="middle" x="1255" y="-62" font-family="Helvetica,sans-Serif" font-size="10.00">cstring</text>
</a>
</g>
</g>
<!-- Node25&#45;&gt;Node26 -->
<g id="edge32_Node000025_Node000026" class="edge">
<title>Node25&#45;&gt;Node26</title>
<g id="a_edge32_Node000025_Node000026"><a xlink:title=" ">
<path fill="none" stroke="#63b8ff" d="M1161.83,-109.98C1179.61,-101.5 1207.15,-88.35 1227.68,-78.54"/>
<polygon fill="#63b8ff" stroke="#63b8ff" points="1229.33,-81.64 1236.84,-74.17 1226.31,-75.32 1229.33,-81.64"/>
</a>
</g>
</g>
<!-- Node27 -->
<g id="Node000027" class="node">
<title>Node27</title>
<g id="a_Node000027"><a xlink:title=" ">
<polygon fill="#e0e0e0" stroke="#999999" points="1377.5,-74 1298.5,-74 1298.5,-55 1377.5,-55 1377.5,-74"/>
<text text-anchor="middle" x="1338" y="-62" font-family="Helvetica,sans-Serif" font-size="10.00">fmt/format.h</text>
</a>
</g>
</g>
<!-- Node25&#45;&gt;Node27 -->
<g id="edge36_Node000025_Node000027" class="edge">
<title>Node25&#45;&gt;Node27</title>
<g id="a_edge36_Node000025_Node000027"><a xlink:title=" ">
<path fill="none" stroke="#63b8ff" d="M1175.17,-109.98C1208.16,-100.97 1260.4,-86.7 1296.77,-76.76"/>
<polygon fill="#63b8ff" stroke="#63b8ff" points="1297.86,-80.09 1306.59,-74.08 1296.02,-73.34 1297.86,-80.09"/>
</a>
</g>
</g>
<!-- Node28 -->
<g id="Node000028" class="node">
<title>Node28</title>
<g id="a_Node000028"><a xlink:href="../../d9/d86/limits_8h.html" target="_top" xlink:title=" ">
<polygon fill="white" stroke="#666666" points="1474,-74 1396,-74 1396,-55 1474,-55 1474,-74"/>
<text text-anchor="middle" x="1435" y="-62" font-family="Helvetica,sans-Serif" font-size="10.00">type/limits.h</text>
</a>
</g>
</g>
<!-- Node25&#45;&gt;Node28 -->
<g id="edge37_Node000025_Node000028" class="edge">
<title>Node25&#45;&gt;Node28</title>
<g id="a_edge37_Node000025_Node000028"><a xlink:title=" ">
<path fill="none" stroke="#63b8ff" d="M1182.64,-111.46C1235,-101.93 1328.51,-84.9 1385.82,-74.46"/>
<polygon fill="#63b8ff" stroke="#63b8ff" points="1386.52,-77.89 1395.73,-72.65 1385.27,-71 1386.52,-77.89"/>
</a>
</g>
</g>
<!-- Node28&#45;&gt;Node23 -->
<g id="edge40_Node000028_Node000023" class="edge">
<title>Node28&#45;&gt;Node23</title>
<g id="a_edge40_Node000028_Node000023"><a xlink:title=" ">
<path fill="none" stroke="#63b8ff" d="M1410.74,-54.98C1385.68,-46.19 1346.37,-32.39 1318.17,-22.49"/>
<polygon fill="#63b8ff" stroke="#63b8ff" points="1319.3,-19.18 1308.7,-19.17 1316.98,-25.78 1319.3,-19.18"/>
</a>
</g>
</g>
<!-- Node29 -->
<g id="Node000029" class="node">
<title>Node29</title>
<g id="a_Node000029"><a xlink:title=" ">
<polygon fill="#e0e0e0" stroke="#999999" points="1392,-19 1348,-19 1348,0 1392,0 1392,-19"/>
<text text-anchor="middle" x="1370" y="-7" font-family="Helvetica,sans-Serif" font-size="10.00">cfloat</text>
</a>
</g>
</g>
<!-- Node28&#45;&gt;Node29 -->
<g id="edge38_Node000028_Node000029" class="edge">
<title>Node28&#45;&gt;Node29</title>
<g id="a_edge38_Node000028_Node000029"><a xlink:title=" ">
<path fill="none" stroke="#63b8ff" d="M1424.56,-54.98C1414.85,-47.07 1400.18,-35.11 1388.5,-25.58"/>
<polygon fill="#63b8ff" stroke="#63b8ff" points="1390.6,-22.78 1380.63,-19.17 1386.17,-28.2 1390.6,-22.78"/>
</a>
</g>
</g>
<!-- Node30 -->
<g id="Node000030" class="node">
<title>Node30</title>
<g id="a_Node000030"><a xlink:title=" ">
<polygon fill="#e0e0e0" stroke="#999999" points="1460,-19 1410,-19 1410,0 1460,0 1460,-19"/>
<text text-anchor="middle" x="1435" y="-7" font-family="Helvetica,sans-Serif" font-size="10.00">climits</text>
</a>
</g>
</g>
<!-- Node28&#45;&gt;Node30 -->
<g id="edge39_Node000028_Node000030" class="edge">
<title>Node28&#45;&gt;Node30</title>
<g id="a_edge39_Node000028_Node000030"><a xlink:title=" ">
<path fill="none" stroke="#63b8ff" d="M1435,-54.75C1435,-47.8 1435,-37.85 1435,-29.13"/>
<polygon fill="#63b8ff" stroke="#63b8ff" points="1438.5,-29.09 1435,-19.09 1431.5,-29.09 1438.5,-29.09"/>
</a>
</g>
</g>
<!-- Node31 -->
<g id="Node000031" class="node">
<title>Node31</title>
<g id="a_Node000031"><a xlink:title=" ">
<polygon fill="#e0e0e0" stroke="#999999" points="1522,-19 1478,-19 1478,0 1522,0 1522,-19"/>
<text text-anchor="middle" x="1500" y="-7" font-family="Helvetica,sans-Serif" font-size="10.00">limits</text>
</a>
</g>
</g>
<!-- Node28&#45;&gt;Node31 -->
<g id="edge41_Node000028_Node000031" class="edge">
<title>Node28&#45;&gt;Node31</title>
<g id="a_edge41_Node000028_Node000031"><a xlink:title=" ">
<path fill="none" stroke="#63b8ff" d="M1445.44,-54.98C1455.15,-47.07 1469.82,-35.11 1481.5,-25.58"/>
<polygon fill="#63b8ff" stroke="#63b8ff" points="1483.83,-28.2 1489.37,-19.17 1479.4,-22.78 1483.83,-28.2"/>
</a>
</g>
</g>
</g>
</svg>

<g id="navigator" transform="translate(0 0)" fill="#404254">
  <rect fill="#f2f5e9" fill-opacity="0.5" stroke="#606060" stroke-width=".5" x="0" y="0" width="60" height="60"/>
  <use id="zoomplus" xlink:href="#zoomPlus" x="17" y="9" onmousedown="handleZoom(evt,'in')"/>
  <use id="zoomminus" xlink:href="#zoomMin" x="42" y="9" onmousedown="handleZoom(evt,'out')"/>
  <use id="reset" xlink:href="#resetDef" x="30" y="36" onmousedown="handleReset()"/>
   <use id="arrowup" xlink:href="#arrowUp" x="0" y="0" onmousedown="handlePan(0,-1)"/>
  <use id="arrowright" xlink:href="#arrowRight" x="0" y="0" onmousedown="handlePan(1,0)"/>
  <use id="arrowdown" xlink:href="#arrowDown" x="0" y="0" onmousedown="handlePan(0,1)"/>
  <use id="arrowleft" xlink:href="#arrowLeft" x="0" y="0" onmousedown="handlePan(-1,0)"/>
</g>
<svg viewBox="0 0 15 15" width="100%" height="30px" preserveAspectRatio="xMaxYMin meet">
 <g id="arrow_out" transform="scale(0.3 0.3)">
  <a xlink:href="trie__store_8cpp__incl_org.svg" target="_base">
   <rect id="button" ry="5" rx="5" y="6" x="6" height="38" width="38"
        fill="#f2f5e9" fill-opacity="0.5" stroke="#606060" stroke-width="1.0"/>
   <path id="arrow"
     d="M 11.500037,31.436501 C 11.940474,20.09759 22.043105,11.32322 32.158766,21.979434 L 37.068811,17.246167 C 37.068811,17.246167 37.088388,32 37.088388,32 L 22.160133,31.978069 C 22.160133,31.978069 26.997745,27.140456 26.997745,27.140456 C 18.528582,18.264221 13.291696,25.230495 11.500037,31.436501 z"
     style="fill:#404040;"/>
  </a>
 </g>
</svg>

<style type='text/css'>
<![CDATA[
[data-mouse-over-selected='false'] { opacity: 0.7; }
[data-mouse-over-selected='true']  { opacity: 1.0; }
]]>
</style>
<script type="application/ecmascript"><![CDATA[
document.addEventListener('DOMContentLoaded', (event) => {
  highlightEdges();
  highlightAdjacentNodes();
});
]]></script>
</svg>
