<?xml version="1.0" encoding="UTF-8" standalone="no"?>
<!DOCTYPE svg PUBLIC "-//W3C//DTD SVG 1.1//EN"
 "http://www.w3.org/Graphics/SVG/1.1/DTD/svg11.dtd">
<!-- Generated by graphviz version 2.43.0 (0)
 -->
<!-- Title: src/storage/page/hash_table_block_page.cpp Pages: 1 -->
<svg width="1409pt" height="456pt"
 viewBox="0.00 0.00 1408.50 456.00" xmlns="http://www.w3.org/2000/svg" xmlns:xlink="http://www.w3.org/1999/xlink">
<g id="graph0" class="graph" transform="scale(1 1) rotate(0) translate(4 452)">
<title>src/storage/page/hash_table_block_page.cpp</title>
<!-- Node1 -->
<g id="Node000001" class="node">
<title>Node1</title>
<g id="a_Node000001"><a xlink:title=" ">
<polygon fill="#999999" stroke="#666666" points="891,-448 763,-448 763,-418 891,-418 891,-448"/>
<text text-anchor="start" x="771" y="-436" font-family="Helvetica,sans-Serif" font-size="10.00">src/storage/page/hash</text>
<text text-anchor="middle" x="827" y="-425" font-family="Helvetica,sans-Serif" font-size="10.00">_table_block_page.cpp</text>
</a>
</g>
</g>
<!-- Node2 -->
<g id="Node000002" class="node">
<title>Node2</title>
<g id="a_Node000002"><a xlink:href="../../d4/dfd/hash__table__block__page_8h.html" target="_top" xlink:title=" ">
<polygon fill="white" stroke="#666666" points="1096.5,-261 959.5,-261 959.5,-231 1096.5,-231 1096.5,-261"/>
<text text-anchor="start" x="967.5" y="-249" font-family="Helvetica,sans-Serif" font-size="10.00">storage/page/hash_table</text>
<text text-anchor="middle" x="1028" y="-238" font-family="Helvetica,sans-Serif" font-size="10.00">_block_page.h</text>
</a>
</g>
</g>
<!-- Node1&#45;&gt;Node2 -->
<g id="edge1_Node000001_Node000002" class="edge">
<title>Node1&#45;&gt;Node2</title>
<g id="a_edge1_Node000001_Node000002"><a xlink:title=" ">
<path fill="none" stroke="#63b8ff" d="M842.44,-417.79C877.67,-385.36 964.15,-305.77 1005.4,-267.8"/>
<polygon fill="#63b8ff" stroke="#63b8ff" points="1007.8,-270.35 1012.78,-261 1003.06,-265.2 1007.8,-270.35"/>
</a>
</g>
</g>
<!-- Node11 -->
<g id="Node000011" class="node">
<title>Node11</title>
<g id="a_Node000011"><a xlink:href="../../da/d28/generic__key_8h.html" target="_top" xlink:title=" ">
<polygon fill="white" stroke="#666666" points="844,-382 722,-382 722,-352 844,-352 844,-382"/>
<text text-anchor="start" x="730" y="-370" font-family="Helvetica,sans-Serif" font-size="10.00">storage/index/generic</text>
<text text-anchor="middle" x="783" y="-359" font-family="Helvetica,sans-Serif" font-size="10.00">_key.h</text>
</a>
</g>
</g>
<!-- Node1&#45;&gt;Node11 -->
<g id="edge11_Node000001_Node000011" class="edge">
<title>Node1&#45;&gt;Node11</title>
<g id="a_edge11_Node000001_Node000011"><a xlink:title=" ">
<path fill="none" stroke="#63b8ff" d="M817.23,-417.8C811.71,-409.76 804.67,-399.53 798.42,-390.43"/>
<polygon fill="#63b8ff" stroke="#63b8ff" points="801.29,-388.42 792.74,-382.16 795.52,-392.39 801.29,-388.42"/>
</a>
</g>
</g>
<!-- Node3 -->
<g id="Node000003" class="node">
<title>Node3</title>
<g id="a_Node000003"><a xlink:title=" ">
<polygon fill="#e0e0e0" stroke="#999999" points="967,-74 917,-74 917,-55 967,-55 967,-74"/>
<text text-anchor="middle" x="942" y="-62" font-family="Helvetica,sans-Serif" font-size="10.00">atomic</text>
</a>
</g>
</g>
<!-- Node2&#45;&gt;Node3 -->
<g id="edge2_Node000002_Node000003" class="edge">
<title>Node2&#45;&gt;Node3</title>
<g id="a_edge2_Node000002_Node000003"><a xlink:title=" ">
<path fill="none" stroke="#63b8ff" d="M1067.65,-230.9C1102.31,-216.37 1144.05,-192.06 1123,-165 1083.02,-113.62 1033.45,-167.58 981,-129 965.57,-117.65 954.94,-98.19 948.72,-83.79"/>
<polygon fill="#63b8ff" stroke="#63b8ff" points="951.93,-82.38 944.97,-74.4 945.43,-84.98 951.93,-82.38"/>
</a>
</g>
</g>
<!-- Node4 -->
<g id="Node000004" class="node">
<title>Node4</title>
<g id="a_Node000004"><a xlink:title=" ">
<polygon fill="#e0e0e0" stroke="#999999" points="759.5,-129 714.5,-129 714.5,-110 759.5,-110 759.5,-129"/>
<text text-anchor="middle" x="737" y="-117" font-family="Helvetica,sans-Serif" font-size="10.00">utility</text>
</a>
</g>
</g>
<!-- Node2&#45;&gt;Node4 -->
<g id="edge3_Node000002_Node000004" class="edge">
<title>Node2&#45;&gt;Node4</title>
<g id="a_edge3_Node000002_Node000004"><a xlink:title=" ">
<path fill="none" stroke="#63b8ff" d="M1058.61,-230.94C1088.69,-215.26 1127.23,-188.95 1106,-165 1083.81,-139.97 855.48,-126.29 769.51,-122"/>
<polygon fill="#63b8ff" stroke="#63b8ff" points="769.68,-118.5 759.52,-121.51 769.34,-125.49 769.68,-118.5"/>
</a>
</g>
</g>
<!-- Node5 -->
<g id="Node000005" class="node">
<title>Node5</title>
<g id="a_Node000005"><a xlink:title=" ">
<polygon fill="#e0e0e0" stroke="#999999" points="754.5,-189.5 707.5,-189.5 707.5,-170.5 754.5,-170.5 754.5,-189.5"/>
<text text-anchor="middle" x="731" y="-177.5" font-family="Helvetica,sans-Serif" font-size="10.00">vector</text>
</a>
</g>
</g>
<!-- Node2&#45;&gt;Node5 -->
<g id="edge4_Node000002_Node000005" class="edge">
<title>Node2&#45;&gt;Node5</title>
<g id="a_edge4_Node000002_Node000005"><a xlink:title=" ">
<path fill="none" stroke="#63b8ff" d="M959.49,-236.14C905.62,-228.19 829.07,-214.72 764,-195 762.32,-194.49 760.61,-193.92 758.9,-193.32"/>
<polygon fill="#63b8ff" stroke="#63b8ff" points="759.83,-189.93 749.24,-189.56 757.29,-196.45 759.83,-189.93"/>
</a>
</g>
</g>
<!-- Node6 -->
<g id="Node000006" class="node">
<title>Node6</title>
<g id="a_Node000006"><a xlink:href="../../db/d16/config_8h.html" target="_top" xlink:title=" ">
<polygon fill="white" stroke="#666666" points="1400.5,-129 1299.5,-129 1299.5,-110 1400.5,-110 1400.5,-129"/>
<text text-anchor="middle" x="1350" y="-117" font-family="Helvetica,sans-Serif" font-size="10.00">common/config.h</text>
</a>
</g>
</g>
<!-- Node2&#45;&gt;Node6 -->
<g id="edge5_Node000002_Node000006" class="edge">
<title>Node2&#45;&gt;Node6</title>
<g id="a_edge5_Node000002_Node000006"><a xlink:title=" ">
<path fill="none" stroke="#63b8ff" d="M1096.78,-241.12C1172.67,-235.52 1288.5,-222.64 1322,-195 1338.7,-181.22 1345.45,-156.4 1348.17,-139.22"/>
<polygon fill="#63b8ff" stroke="#63b8ff" points="1351.65,-139.58 1349.44,-129.22 1344.7,-138.7 1351.65,-139.58"/>
</a>
</g>
</g>
<!-- Node9 -->
<g id="Node000009" class="node">
<title>Node9</title>
<g id="a_Node000009"><a xlink:href="../../d5/d78/int__comparator_8h.html" target="_top" xlink:title=" ">
<polygon fill="white" stroke="#666666" points="941.5,-189.5 772.5,-189.5 772.5,-170.5 941.5,-170.5 941.5,-189.5"/>
<text text-anchor="middle" x="857" y="-177.5" font-family="Helvetica,sans-Serif" font-size="10.00">storage/index/int_comparator.h</text>
</a>
</g>
</g>
<!-- Node2&#45;&gt;Node9 -->
<g id="edge9_Node000002_Node000009" class="edge">
<title>Node2&#45;&gt;Node9</title>
<g id="a_edge9_Node000002_Node000009"><a xlink:title=" ">
<path fill="none" stroke="#63b8ff" d="M990.47,-230.95C960.22,-219.63 918.12,-203.88 889.34,-193.1"/>
<polygon fill="#63b8ff" stroke="#63b8ff" points="890.35,-189.74 879.76,-189.52 887.9,-196.3 890.35,-189.74"/>
</a>
</g>
</g>
<!-- Node10 -->
<g id="Node000010" class="node">
<title>Node10</title>
<g id="a_Node000010"><a xlink:href="../../d6/d3b/hash__table__page__defs_8h.html" target="_top" xlink:title=" ">
<polygon fill="white" stroke="#666666" points="1096.5,-195 959.5,-195 959.5,-165 1096.5,-165 1096.5,-195"/>
<text text-anchor="start" x="967.5" y="-183" font-family="Helvetica,sans-Serif" font-size="10.00">storage/page/hash_table</text>
<text text-anchor="middle" x="1028" y="-172" font-family="Helvetica,sans-Serif" font-size="10.00">_page_defs.h</text>
</a>
</g>
</g>
<!-- Node2&#45;&gt;Node10 -->
<g id="edge10_Node000002_Node000010" class="edge">
<title>Node2&#45;&gt;Node10</title>
<g id="a_edge10_Node000002_Node000010"><a xlink:title=" ">
<path fill="none" stroke="#63b8ff" d="M1028,-230.8C1028,-223.34 1028,-213.99 1028,-205.41"/>
<polygon fill="#63b8ff" stroke="#63b8ff" points="1031.5,-205.16 1028,-195.16 1024.5,-205.16 1031.5,-205.16"/>
</a>
</g>
</g>
<!-- Node6&#45;&gt;Node3 -->
<g id="edge6_Node000006_Node000003" class="edge">
<title>Node6&#45;&gt;Node3</title>
<g id="a_edge6_Node000006_Node000003"><a xlink:title=" ">
<path fill="none" stroke="#63b8ff" d="M1299.15,-111.89C1215.06,-100.97 1049.16,-79.42 976.95,-70.04"/>
<polygon fill="#63b8ff" stroke="#63b8ff" points="977.37,-66.56 967,-68.75 976.47,-73.51 977.37,-66.56"/>
</a>
</g>
</g>
<!-- Node7 -->
<g id="Node000007" class="node">
<title>Node7</title>
<g id="a_Node000007"><a xlink:title=" ">
<polygon fill="#e0e0e0" stroke="#999999" points="1349,-74 1299,-74 1299,-55 1349,-55 1349,-74"/>
<text text-anchor="middle" x="1324" y="-62" font-family="Helvetica,sans-Serif" font-size="10.00">chrono</text>
</a>
</g>
</g>
<!-- Node6&#45;&gt;Node7 -->
<g id="edge7_Node000006_Node000007" class="edge">
<title>Node6&#45;&gt;Node7</title>
<g id="a_edge7_Node000006_Node000007"><a xlink:title=" ">
<path fill="none" stroke="#63b8ff" d="M1345.71,-109.75C1342.19,-102.57 1337.09,-92.18 1332.72,-83.27"/>
<polygon fill="#63b8ff" stroke="#63b8ff" points="1335.76,-81.53 1328.21,-74.09 1329.48,-84.61 1335.76,-81.53"/>
</a>
</g>
</g>
<!-- Node8 -->
<g id="Node000008" class="node">
<title>Node8</title>
<g id="a_Node000008"><a xlink:title=" ">
<polygon fill="#e0e0e0" stroke="#999999" points="1250,-19 1200,-19 1200,0 1250,0 1250,-19"/>
<text text-anchor="middle" x="1225" y="-7" font-family="Helvetica,sans-Serif" font-size="10.00">cstdint</text>
</a>
</g>
</g>
<!-- Node6&#45;&gt;Node8 -->
<g id="edge8_Node000006_Node000008" class="edge">
<title>Node6&#45;&gt;Node8</title>
<g id="a_edge8_Node000006_Node000008"><a xlink:title=" ">
<path fill="none" stroke="#63b8ff" d="M1354.58,-109.76C1360.79,-96.58 1369.82,-71.41 1358,-55 1335.89,-24.29 1291.6,-14.46 1260.21,-11.49"/>
<polygon fill="#63b8ff" stroke="#63b8ff" points="1260.35,-7.99 1250.12,-10.72 1259.82,-14.97 1260.35,-7.99"/>
</a>
</g>
</g>
<!-- Node12 -->
<g id="Node000012" class="node">
<title>Node12</title>
<g id="a_Node000012"><a xlink:title=" ">
<polygon fill="#e0e0e0" stroke="#999999" points="1169,-129 1119,-129 1119,-110 1169,-110 1169,-129"/>
<text text-anchor="middle" x="1144" y="-117" font-family="Helvetica,sans-Serif" font-size="10.00">cstring</text>
</a>
</g>
</g>
<!-- Node11&#45;&gt;Node12 -->
<g id="edge12_Node000011_Node000012" class="edge">
<title>Node11&#45;&gt;Node12</title>
<g id="a_edge12_Node000011_Node000012"><a xlink:title=" ">
<path fill="none" stroke="#63b8ff" d="M844.02,-360.3C914.59,-350.8 1030.7,-325.82 1106,-261 1141.66,-230.3 1145.55,-169.93 1145.02,-139.29"/>
<polygon fill="#63b8ff" stroke="#63b8ff" points="1148.51,-138.99 1144.66,-129.13 1141.51,-139.24 1148.51,-138.99"/>
</a>
</g>
</g>
<!-- Node13 -->
<g id="Node000013" class="node">
<title>Node13</title>
<g id="a_Node000013"><a xlink:href="../../d2/d20/tuple_8h.html" target="_top" xlink:title=" ">
<polygon fill="white" stroke="#666666" points="790,-316 672,-316 672,-297 790,-297 790,-316"/>
<text text-anchor="middle" x="731" y="-304" font-family="Helvetica,sans-Serif" font-size="10.00">storage/table/tuple.h</text>
</a>
</g>
</g>
<!-- Node11&#45;&gt;Node13 -->
<g id="edge13_Node000011_Node000013" class="edge">
<title>Node11&#45;&gt;Node13</title>
<g id="a_edge13_Node000011_Node000013"><a xlink:title=" ">
<path fill="none" stroke="#63b8ff" d="M770.41,-351.84C762.94,-343.43 753.44,-332.74 745.63,-323.96"/>
<polygon fill="#63b8ff" stroke="#63b8ff" points="748.05,-321.41 738.79,-316.27 742.82,-326.07 748.05,-321.41"/>
</a>
</g>
</g>
<!-- Node32 -->
<g id="Node000032" class="node">
<title>Node32</title>
<g id="a_Node000032"><a xlink:href="../../d4/d3f/value_8h.html" target="_top" xlink:title=" ">
<polygon fill="white" stroke="#666666" points="650.5,-189.5 573.5,-189.5 573.5,-170.5 650.5,-170.5 650.5,-189.5"/>
<text text-anchor="middle" x="612" y="-177.5" font-family="Helvetica,sans-Serif" font-size="10.00">type/value.h</text>
</a>
</g>
</g>
<!-- Node11&#45;&gt;Node32 -->
<g id="edge64_Node000011_Node000032" class="edge">
<title>Node11&#45;&gt;Node32</title>
<g id="a_edge64_Node000011_Node000032"><a xlink:title=" ">
<path fill="none" stroke="#63b8ff" d="M723.58,-351.9C702.18,-344.29 679.32,-332.87 663,-316 631.16,-283.07 618.79,-228.33 614.31,-199.72"/>
<polygon fill="#63b8ff" stroke="#63b8ff" points="617.74,-198.93 612.89,-189.51 610.81,-199.9 617.74,-198.93"/>
</a>
</g>
</g>
<!-- Node13&#45;&gt;Node5 -->
<g id="edge15_Node000013_Node000005" class="edge">
<title>Node13&#45;&gt;Node5</title>
<g id="a_edge15_Node000013_Node000005"><a xlink:title=" ">
<path fill="none" stroke="#63b8ff" d="M731,-296.94C731,-277.04 731,-227.26 731,-199.85"/>
<polygon fill="#63b8ff" stroke="#63b8ff" points="734.5,-199.62 731,-189.62 727.5,-199.62 734.5,-199.62"/>
</a>
</g>
</g>
<!-- Node13&#45;&gt;Node6 -->
<g id="edge46_Node000013_Node000006" class="edge">
<title>Node13&#45;&gt;Node6</title>
<g id="a_edge46_Node000013_Node000006"><a xlink:title=" ">
<path fill="none" stroke="#63b8ff" d="M790.27,-303.67C873.22,-300.13 1028.22,-289.91 1157,-261 1243.4,-241.6 1291.4,-265.49 1345,-195 1356.98,-179.24 1356.45,-155.76 1354.06,-139.39"/>
<polygon fill="#63b8ff" stroke="#63b8ff" points="1357.48,-138.59 1352.25,-129.37 1350.59,-139.83 1357.48,-138.59"/>
</a>
</g>
</g>
<!-- Node14 -->
<g id="Node000014" class="node">
<title>Node14</title>
<g id="a_Node000014"><a xlink:title=" ">
<polygon fill="#e0e0e0" stroke="#999999" points="450,-19 406,-19 406,0 450,0 450,-19"/>
<text text-anchor="middle" x="428" y="-7" font-family="Helvetica,sans-Serif" font-size="10.00">string</text>
</a>
</g>
</g>
<!-- Node13&#45;&gt;Node14 -->
<g id="edge14_Node000013_Node000014" class="edge">
<title>Node13&#45;&gt;Node14</title>
<g id="a_edge14_Node000013_Node000014"><a xlink:title=" ">
<path fill="none" stroke="#63b8ff" d="M671.8,-301.65C497.77,-289.55 0,-248.99 0,-181 0,-181 0,-181 0,-118.5 0,-77.79 29.24,-72.49 66,-55 124.16,-27.32 318.48,-15.53 395.83,-11.86"/>
<polygon fill="#63b8ff" stroke="#63b8ff" points="396.12,-15.35 405.95,-11.39 395.79,-8.36 396.12,-15.35"/>
</a>
</g>
</g>
<!-- Node15 -->
<g id="Node000015" class="node">
<title>Node15</title>
<g id="a_Node000015"><a xlink:href="../../d7/de3/schema_8h.html" target="_top" xlink:title=" ">
<polygon fill="white" stroke="#666666" points="530.5,-255.5 427.5,-255.5 427.5,-236.5 530.5,-236.5 530.5,-255.5"/>
<text text-anchor="middle" x="479" y="-243.5" font-family="Helvetica,sans-Serif" font-size="10.00">catalog/schema.h</text>
</a>
</g>
</g>
<!-- Node13&#45;&gt;Node15 -->
<g id="edge16_Node000013_Node000015" class="edge">
<title>Node13&#45;&gt;Node15</title>
<g id="a_edge16_Node000013_Node000015"><a xlink:title=" ">
<path fill="none" stroke="#63b8ff" d="M694.36,-296.99C649.75,-286.64 574.37,-269.14 525.66,-257.83"/>
<polygon fill="#63b8ff" stroke="#63b8ff" points="526.22,-254.37 515.69,-255.52 524.64,-261.19 526.22,-254.37"/>
</a>
</g>
</g>
<!-- Node30 -->
<g id="Node000030" class="node">
<title>Node30</title>
<g id="a_Node000030"><a xlink:href="../../d8/d5f/rid_8h.html" target="_top" xlink:title=" ">
<polygon fill="white" stroke="#666666" points="1313,-189.5 1229,-189.5 1229,-170.5 1313,-170.5 1313,-189.5"/>
<text text-anchor="middle" x="1271" y="-177.5" font-family="Helvetica,sans-Serif" font-size="10.00">common/rid.h</text>
</a>
</g>
</g>
<!-- Node13&#45;&gt;Node30 -->
<g id="edge47_Node000013_Node000030" class="edge">
<title>Node13&#45;&gt;Node30</title>
<g id="a_edge47_Node000013_Node000030"><a xlink:title=" ">
<path fill="none" stroke="#63b8ff" d="M790.02,-304.53C864.93,-301.93 997.46,-292.77 1106,-261 1159.72,-245.28 1217.47,-213.42 1248.39,-195"/>
<polygon fill="#63b8ff" stroke="#63b8ff" points="1250.33,-197.92 1257.08,-189.75 1246.71,-191.92 1250.33,-197.92"/>
</a>
</g>
</g>
<!-- Node13&#45;&gt;Node32 -->
<g id="edge52_Node000013_Node000032" class="edge">
<title>Node13&#45;&gt;Node32</title>
<g id="a_edge52_Node000013_Node000032"><a xlink:title=" ">
<path fill="none" stroke="#63b8ff" d="M722.82,-296.94C703.12,-276.33 652.78,-223.67 627.29,-197"/>
<polygon fill="#63b8ff" stroke="#63b8ff" points="629.68,-194.43 620.24,-189.62 624.62,-199.26 629.68,-194.43"/>
</a>
</g>
</g>
<!-- Node15&#45;&gt;Node5 -->
<g id="edge20_Node000015_Node000005" class="edge">
<title>Node15&#45;&gt;Node5</title>
<g id="a_edge20_Node000015_Node000005"><a xlink:title=" ">
<path fill="none" stroke="#63b8ff" d="M522.45,-236.49C565.98,-227.58 634.71,-212.47 693,-195 695.13,-194.36 697.32,-193.66 699.52,-192.94"/>
<polygon fill="#63b8ff" stroke="#63b8ff" points="700.76,-196.21 709.05,-189.61 698.46,-189.6 700.76,-196.21"/>
</a>
</g>
</g>
<!-- Node15&#45;&gt;Node14 -->
<g id="edge19_Node000015_Node000014" class="edge">
<title>Node15&#45;&gt;Node14</title>
<g id="a_edge19_Node000015_Node000014"><a xlink:title=" ">
<path fill="none" stroke="#63b8ff" d="M427.32,-237.42C330.02,-221.99 125.56,-183.71 83,-129 62.8,-103.03 59.27,-79.7 81,-55 101.66,-31.52 313.7,-17.02 395.79,-12.24"/>
<polygon fill="#63b8ff" stroke="#63b8ff" points="396.02,-15.74 405.81,-11.67 395.63,-8.75 396.02,-15.74"/>
</a>
</g>
</g>
<!-- Node16 -->
<g id="Node000016" class="node">
<title>Node16</title>
<g id="a_Node000016"><a xlink:title=" ">
<polygon fill="#e0e0e0" stroke="#999999" points="400,-74 342,-74 342,-55 400,-55 400,-74"/>
<text text-anchor="middle" x="371" y="-62" font-family="Helvetica,sans-Serif" font-size="10.00">memory</text>
</a>
</g>
</g>
<!-- Node15&#45;&gt;Node16 -->
<g id="edge17_Node000015_Node000016" class="edge">
<title>Node15&#45;&gt;Node16</title>
<g id="a_edge17_Node000015_Node000016"><a xlink:title=" ">
<path fill="none" stroke="#63b8ff" d="M446.67,-236.44C421.64,-228.65 387.12,-215.23 362,-195 333.95,-172.41 325.97,-163.3 315,-129 312.43,-120.96 311.33,-117.61 315,-110 321.22,-97.12 333.18,-86.82 344.46,-79.38"/>
<polygon fill="#63b8ff" stroke="#63b8ff" points="346.51,-82.23 353.23,-74.04 342.87,-76.25 346.51,-82.23"/>
</a>
</g>
</g>
<!-- Node17 -->
<g id="Node000017" class="node">
<title>Node17</title>
<g id="a_Node000017"><a xlink:title=" ">
<polygon fill="#e0e0e0" stroke="#999999" points="555,-189.5 499,-189.5 499,-170.5 555,-170.5 555,-189.5"/>
<text text-anchor="middle" x="527" y="-177.5" font-family="Helvetica,sans-Serif" font-size="10.00">optional</text>
</a>
</g>
</g>
<!-- Node15&#45;&gt;Node17 -->
<g id="edge18_Node000015_Node000017" class="edge">
<title>Node15&#45;&gt;Node17</title>
<g id="a_edge18_Node000015_Node000017"><a xlink:title=" ">
<path fill="none" stroke="#63b8ff" d="M485.47,-236.37C492.8,-226.59 504.93,-210.42 514.19,-198.08"/>
<polygon fill="#63b8ff" stroke="#63b8ff" points="517.12,-200.01 520.32,-189.91 511.52,-195.81 517.12,-200.01"/>
</a>
</g>
</g>
<!-- Node18 -->
<g id="Node000018" class="node">
<title>Node18</title>
<g id="a_Node000018"><a xlink:href="../../dc/df8/column_8h.html" target="_top" xlink:title=" ">
<polygon fill="white" stroke="#666666" points="480.5,-189.5 379.5,-189.5 379.5,-170.5 480.5,-170.5 480.5,-189.5"/>
<text text-anchor="middle" x="430" y="-177.5" font-family="Helvetica,sans-Serif" font-size="10.00">catalog/column.h</text>
</a>
</g>
</g>
<!-- Node15&#45;&gt;Node18 -->
<g id="edge21_Node000015_Node000018" class="edge">
<title>Node15&#45;&gt;Node18</title>
<g id="a_edge21_Node000015_Node000018"><a xlink:title=" ">
<path fill="none" stroke="#63b8ff" d="M472.39,-236.37C464.91,-226.59 452.53,-210.42 443.07,-198.08"/>
<polygon fill="#63b8ff" stroke="#63b8ff" points="445.68,-195.72 436.82,-189.91 440.12,-199.97 445.68,-195.72"/>
</a>
</g>
</g>
<!-- Node20 -->
<g id="Node000020" class="node">
<title>Node20</title>
<g id="a_Node000020"><a xlink:href="../../dd/d2d/exception_8h.html" target="_top" xlink:title=" ">
<polygon fill="white" stroke="#666666" points="483.5,-129 364.5,-129 364.5,-110 483.5,-110 483.5,-129"/>
<text text-anchor="middle" x="424" y="-117" font-family="Helvetica,sans-Serif" font-size="10.00">common/exception.h</text>
</a>
</g>
</g>
<!-- Node15&#45;&gt;Node20 -->
<g id="edge44_Node000015_Node000020" class="edge">
<title>Node15&#45;&gt;Node20</title>
<g id="a_edge44_Node000015_Node000020"><a xlink:title=" ">
<path fill="none" stroke="#63b8ff" d="M434.18,-236.5C410.79,-229.54 384.16,-217.08 370,-195 362.8,-183.78 364.31,-177.06 370,-165 376.01,-152.26 387.66,-141.92 398.61,-134.44"/>
<polygon fill="#63b8ff" stroke="#63b8ff" points="400.54,-137.36 407.11,-129.05 396.79,-131.44 400.54,-137.36"/>
</a>
</g>
</g>
<!-- Node25 -->
<g id="Node000025" class="node">
<title>Node25</title>
<g id="a_Node000025"><a xlink:href="../../df/def/type_8h.html" target="_top" xlink:title=" ">
<polygon fill="white" stroke="#666666" points="783,-74 711,-74 711,-55 783,-55 783,-74"/>
<text text-anchor="middle" x="747" y="-62" font-family="Helvetica,sans-Serif" font-size="10.00">type/type.h</text>
</a>
</g>
</g>
<!-- Node15&#45;&gt;Node25 -->
<g id="edge45_Node000015_Node000025" class="edge">
<title>Node15&#45;&gt;Node25</title>
<g id="a_edge45_Node000015_Node000025"><a xlink:title=" ">
<path fill="none" stroke="#63b8ff" d="M529.67,-236.46C567.05,-228.88 618.43,-215.73 660,-195 679.57,-185.24 680.09,-175.98 699,-165 734.83,-144.19 762.04,-163.5 785,-129 795.75,-112.85 780.59,-93.65 766.35,-80.63"/>
<polygon fill="#63b8ff" stroke="#63b8ff" points="768.58,-77.93 758.7,-74.08 764.03,-83.24 768.58,-77.93"/>
</a>
</g>
</g>
<!-- Node18&#45;&gt;Node4 -->
<g id="edge25_Node000018_Node000004" class="edge">
<title>Node18&#45;&gt;Node4</title>
<g id="a_edge25_Node000018_Node000004"><a xlink:title=" ">
<path fill="none" stroke="#63b8ff" d="M465.15,-170.48C473.29,-168.6 481.93,-166.67 490,-165 566.56,-149.18 657.14,-133.68 704.48,-125.82"/>
<polygon fill="#63b8ff" stroke="#63b8ff" points="705.15,-129.25 714.45,-124.17 704.01,-122.35 705.15,-129.25"/>
</a>
</g>
</g>
<!-- Node18&#45;&gt;Node8 -->
<g id="edge22_Node000018_Node000008" class="edge">
<title>Node18&#45;&gt;Node8</title>
<g id="a_edge22_Node000018_Node000008"><a xlink:title=" ">
<path fill="none" stroke="#63b8ff" d="M447.21,-170.48C484.27,-152.13 568.39,-110.51 570,-110 665.21,-79.57 693.35,-90.08 792,-74 843.56,-65.6 856.35,-62.85 908,-55 1010.15,-39.47 1131.14,-23.02 1189.71,-15.19"/>
<polygon fill="#63b8ff" stroke="#63b8ff" points="1190.46,-18.62 1199.9,-13.82 1189.53,-11.68 1190.46,-18.62"/>
</a>
</g>
</g>
<!-- Node18&#45;&gt;Node14 -->
<g id="edge24_Node000018_Node000014" class="edge">
<title>Node18&#45;&gt;Node14</title>
<g id="a_edge24_Node000018_Node000014"><a xlink:title=" ">
<path fill="none" stroke="#63b8ff" d="M379.31,-177.3C266.87,-171.8 12.8,-148.92 95,-55 114.63,-32.57 315.18,-17.59 395.24,-12.46"/>
<polygon fill="#63b8ff" stroke="#63b8ff" points="395.95,-15.93 405.71,-11.8 395.51,-8.94 395.95,-15.93"/>
</a>
</g>
</g>
<!-- Node18&#45;&gt;Node16 -->
<g id="edge23_Node000018_Node000016" class="edge">
<title>Node18&#45;&gt;Node16</title>
<g id="a_edge23_Node000018_Node000016"><a xlink:title=" ">
<path fill="none" stroke="#63b8ff" d="M385.86,-170.47C362.61,-163.49 336.07,-151.02 322,-129 310.66,-111.25 329.82,-92.31 347.41,-79.78"/>
<polygon fill="#63b8ff" stroke="#63b8ff" points="349.41,-82.65 355.77,-74.18 345.51,-76.84 349.41,-82.65"/>
</a>
</g>
</g>
<!-- Node19 -->
<g id="Node000019" class="node">
<title>Node19</title>
<g id="a_Node000019"><a xlink:title=" ">
<polygon fill="#e0e0e0" stroke="#999999" points="657.5,-129 578.5,-129 578.5,-110 657.5,-110 657.5,-129"/>
<text text-anchor="middle" x="618" y="-117" font-family="Helvetica,sans-Serif" font-size="10.00">fmt/format.h</text>
</a>
</g>
</g>
<!-- Node18&#45;&gt;Node19 -->
<g id="edge26_Node000018_Node000019" class="edge">
<title>Node18&#45;&gt;Node19</title>
<g id="a_edge26_Node000018_Node000019"><a xlink:title=" ">
<path fill="none" stroke="#63b8ff" d="M457.34,-170.49C489.92,-160.36 544.51,-143.37 580.89,-132.05"/>
<polygon fill="#63b8ff" stroke="#63b8ff" points="582.12,-135.33 590.63,-129.02 580.04,-128.65 582.12,-135.33"/>
</a>
</g>
</g>
<!-- Node18&#45;&gt;Node20 -->
<g id="edge27_Node000018_Node000020" class="edge">
<title>Node18&#45;&gt;Node20</title>
<g id="a_edge27_Node000018_Node000020"><a xlink:title=" ">
<path fill="none" stroke="#63b8ff" d="M429.11,-170.37C428.28,-162.25 427.01,-149.81 425.94,-139.39"/>
<polygon fill="#63b8ff" stroke="#63b8ff" points="429.39,-138.76 424.89,-129.17 422.43,-139.47 429.39,-138.76"/>
</a>
</g>
</g>
<!-- Node18&#45;&gt;Node25 -->
<g id="edge43_Node000018_Node000025" class="edge">
<title>Node18&#45;&gt;Node25</title>
<g id="a_edge43_Node000018_Node000025"><a xlink:title=" ">
<path fill="none" stroke="#63b8ff" d="M440.39,-170.32C458.57,-155.6 497.86,-125.79 536,-110 590.12,-87.6 656.9,-75.96 700.65,-70.29"/>
<polygon fill="#63b8ff" stroke="#63b8ff" points="701.22,-73.75 710.71,-69.04 700.36,-66.8 701.22,-73.75"/>
</a>
</g>
</g>
<!-- Node27 -->
<g id="Node000027" class="node">
<title>Node27</title>
<g id="a_Node000027"><a xlink:href="../../de/d3c/macros_8h.html" target="_top" xlink:title=" ">
<polygon fill="white" stroke="#666666" points="231.5,-129 124.5,-129 124.5,-110 231.5,-110 231.5,-129"/>
<text text-anchor="middle" x="178" y="-117" font-family="Helvetica,sans-Serif" font-size="10.00">common/macros.h</text>
</a>
</g>
</g>
<!-- Node18&#45;&gt;Node27 -->
<g id="edge39_Node000018_Node000027" class="edge">
<title>Node18&#45;&gt;Node27</title>
<g id="a_edge39_Node000018_Node000027"><a xlink:title=" ">
<path fill="none" stroke="#63b8ff" d="M393.36,-170.49C348.75,-160.14 273.37,-142.64 224.66,-131.33"/>
<polygon fill="#63b8ff" stroke="#63b8ff" points="225.22,-127.87 214.69,-129.02 223.64,-134.69 225.22,-127.87"/>
</a>
</g>
</g>
<!-- Node20&#45;&gt;Node3 -->
<g id="edge28_Node000020_Node000003" class="edge">
<title>Node20&#45;&gt;Node3</title>
<g id="a_edge28_Node000020_Node000003"><a xlink:title=" ">
<path fill="none" stroke="#63b8ff" d="M483.67,-112.39C592.34,-101.28 819.33,-78.05 906.68,-69.11"/>
<polygon fill="#63b8ff" stroke="#63b8ff" points="907.28,-72.57 916.87,-68.07 906.56,-65.61 907.28,-72.57"/>
</a>
</g>
</g>
<!-- Node20&#45;&gt;Node14 -->
<g id="edge34_Node000020_Node000014" class="edge">
<title>Node20&#45;&gt;Node14</title>
<g id="a_edge34_Node000020_Node000014"><a xlink:title=" ">
<path fill="none" stroke="#63b8ff" d="M424.33,-109.66C424.98,-92.17 426.43,-52.8 427.3,-29.27"/>
<polygon fill="#63b8ff" stroke="#63b8ff" points="430.81,-29.28 427.68,-19.16 423.81,-29.02 430.81,-29.28"/>
</a>
</g>
</g>
<!-- Node20&#45;&gt;Node16 -->
<g id="edge32_Node000020_Node000016" class="edge">
<title>Node20&#45;&gt;Node16</title>
<g id="a_edge32_Node000020_Node000016"><a xlink:title=" ">
<path fill="none" stroke="#63b8ff" d="M415.25,-109.75C407.53,-102.03 396.1,-90.6 386.78,-81.28"/>
<polygon fill="#63b8ff" stroke="#63b8ff" points="389.14,-78.69 379.59,-74.09 384.19,-83.64 389.14,-78.69"/>
</a>
</g>
</g>
<!-- Node21 -->
<g id="Node000021" class="node">
<title>Node21</title>
<g id="a_Node000021"><a xlink:title=" ">
<polygon fill="#e0e0e0" stroke="#999999" points="502,-74 456,-74 456,-55 502,-55 502,-74"/>
<text text-anchor="middle" x="479" y="-62" font-family="Helvetica,sans-Serif" font-size="10.00">cstdio</text>
</a>
</g>
</g>
<!-- Node20&#45;&gt;Node21 -->
<g id="edge29_Node000020_Node000021" class="edge">
<title>Node20&#45;&gt;Node21</title>
<g id="a_edge29_Node000020_Node000021"><a xlink:title=" ">
<path fill="none" stroke="#63b8ff" d="M433.08,-109.75C441.09,-102.03 452.96,-90.6 462.62,-81.28"/>
<polygon fill="#63b8ff" stroke="#63b8ff" points="465.31,-83.55 470.09,-74.09 460.46,-78.51 465.31,-83.55"/>
</a>
</g>
</g>
<!-- Node22 -->
<g id="Node000022" class="node">
<title>Node22</title>
<g id="a_Node000022"><a xlink:title=" ">
<polygon fill="#e0e0e0" stroke="#999999" points="569.5,-74 520.5,-74 520.5,-55 569.5,-55 569.5,-74"/>
<text text-anchor="middle" x="545" y="-62" font-family="Helvetica,sans-Serif" font-size="10.00">cstdlib</text>
</a>
</g>
</g>
<!-- Node20&#45;&gt;Node22 -->
<g id="edge30_Node000020_Node000022" class="edge">
<title>Node20&#45;&gt;Node22</title>
<g id="a_edge30_Node000020_Node000022"><a xlink:title=" ">
<path fill="none" stroke="#63b8ff" d="M443.44,-109.98C462.99,-101.42 493.38,-88.11 515.82,-78.28"/>
<polygon fill="#63b8ff" stroke="#63b8ff" points="517.45,-81.39 525.21,-74.17 514.64,-74.98 517.45,-81.39"/>
</a>
</g>
</g>
<!-- Node23 -->
<g id="Node000023" class="node">
<title>Node23</title>
<g id="a_Node000023"><a xlink:title=" ">
<polygon fill="#e0e0e0" stroke="#999999" points="648,-74 588,-74 588,-55 648,-55 648,-74"/>
<text text-anchor="middle" x="618" y="-62" font-family="Helvetica,sans-Serif" font-size="10.00">iostream</text>
</a>
</g>
</g>
<!-- Node20&#45;&gt;Node23 -->
<g id="edge31_Node000020_Node000023" class="edge">
<title>Node20&#45;&gt;Node23</title>
<g id="a_edge31_Node000020_Node000023"><a xlink:title=" ">
<path fill="none" stroke="#63b8ff" d="M455.17,-109.98C488.55,-100.86 541.64,-86.36 578.06,-76.41"/>
<polygon fill="#63b8ff" stroke="#63b8ff" points="579.14,-79.74 587.87,-73.73 577.3,-72.99 579.14,-79.74"/>
</a>
</g>
</g>
<!-- Node24 -->
<g id="Node000024" class="node">
<title>Node24</title>
<g id="a_Node000024"><a xlink:title=" ">
<polygon fill="#e0e0e0" stroke="#999999" points="323.5,-74 258.5,-74 258.5,-55 323.5,-55 323.5,-74"/>
<text text-anchor="middle" x="291" y="-62" font-family="Helvetica,sans-Serif" font-size="10.00">stdexcept</text>
</a>
</g>
</g>
<!-- Node20&#45;&gt;Node24 -->
<g id="edge33_Node000020_Node000024" class="edge">
<title>Node20&#45;&gt;Node24</title>
<g id="a_edge33_Node000020_Node000024"><a xlink:title=" ">
<path fill="none" stroke="#63b8ff" d="M402.63,-109.98C380.85,-101.3 346.84,-87.75 322.08,-77.88"/>
<polygon fill="#63b8ff" stroke="#63b8ff" points="323.34,-74.62 312.76,-74.17 320.75,-81.12 323.34,-74.62"/>
</a>
</g>
</g>
<!-- Node20&#45;&gt;Node25 -->
<g id="edge35_Node000020_Node000025" class="edge">
<title>Node20&#45;&gt;Node25</title>
<g id="a_edge35_Node000020_Node000025"><a xlink:title=" ">
<path fill="none" stroke="#63b8ff" d="M475.9,-109.98C538.1,-99.78 641.38,-82.83 700.9,-73.07"/>
<polygon fill="#63b8ff" stroke="#63b8ff" points="701.47,-76.52 710.77,-71.45 700.33,-69.61 701.47,-76.52"/>
</a>
</g>
</g>
<!-- Node25&#45;&gt;Node8 -->
<g id="edge36_Node000025_Node000008" class="edge">
<title>Node25&#45;&gt;Node8</title>
<g id="a_edge36_Node000025_Node000008"><a xlink:title=" ">
<path fill="none" stroke="#63b8ff" d="M783.01,-57.09C787.71,-56.34 792.46,-55.62 797,-55 942.33,-35.11 1116.5,-19.55 1189.78,-13.38"/>
<polygon fill="#63b8ff" stroke="#63b8ff" points="1190.17,-16.86 1199.85,-12.54 1189.59,-9.89 1190.17,-16.86"/>
</a>
</g>
</g>
<!-- Node25&#45;&gt;Node14 -->
<g id="edge37_Node000025_Node000014" class="edge">
<title>Node25&#45;&gt;Node14</title>
<g id="a_edge37_Node000025_Node000014"><a xlink:title=" ">
<path fill="none" stroke="#63b8ff" d="M710.95,-57.35C706.26,-56.56 701.52,-55.76 697,-55 611.58,-40.67 510.83,-24.09 460.32,-15.8"/>
<polygon fill="#63b8ff" stroke="#63b8ff" points="460.76,-12.32 450.32,-14.16 459.63,-19.23 460.76,-12.32"/>
</a>
</g>
</g>
<!-- Node26 -->
<g id="Node000026" class="node">
<title>Node26</title>
<g id="a_Node000026"><a xlink:href="../../dc/df2/type__id_8h.html" target="_top" xlink:title=" ">
<polygon fill="white" stroke="#666666" points="790,-19 704,-19 704,0 790,0 790,-19"/>
<text text-anchor="middle" x="747" y="-7" font-family="Helvetica,sans-Serif" font-size="10.00">type/type_id.h</text>
</a>
</g>
</g>
<!-- Node25&#45;&gt;Node26 -->
<g id="edge38_Node000025_Node000026" class="edge">
<title>Node25&#45;&gt;Node26</title>
<g id="a_edge38_Node000025_Node000026"><a xlink:title=" ">
<path fill="none" stroke="#63b8ff" d="M747,-54.75C747,-47.8 747,-37.85 747,-29.13"/>
<polygon fill="#63b8ff" stroke="#63b8ff" points="750.5,-29.09 747,-19.09 743.5,-29.09 750.5,-29.09"/>
</a>
</g>
</g>
<!-- Node27&#45;&gt;Node24 -->
<g id="edge42_Node000027_Node000024" class="edge">
<title>Node27&#45;&gt;Node24</title>
<g id="a_edge42_Node000027_Node000024"><a xlink:title=" ">
<path fill="none" stroke="#63b8ff" d="M196.16,-109.98C214.25,-101.5 242.28,-88.35 263.19,-78.54"/>
<polygon fill="#63b8ff" stroke="#63b8ff" points="264.95,-81.59 272.51,-74.17 261.97,-75.25 264.95,-81.59"/>
</a>
</g>
</g>
<!-- Node28 -->
<g id="Node000028" class="node">
<title>Node28</title>
<g id="a_Node000028"><a xlink:title=" ">
<polygon fill="#e0e0e0" stroke="#999999" points="240,-74 188,-74 188,-55 240,-55 240,-74"/>
<text text-anchor="middle" x="214" y="-62" font-family="Helvetica,sans-Serif" font-size="10.00">cassert</text>
</a>
</g>
</g>
<!-- Node27&#45;&gt;Node28 -->
<g id="edge40_Node000027_Node000028" class="edge">
<title>Node27&#45;&gt;Node28</title>
<g id="a_edge40_Node000027_Node000028"><a xlink:title=" ">
<path fill="none" stroke="#63b8ff" d="M183.94,-109.75C188.98,-102.34 196.34,-91.5 202.51,-82.41"/>
<polygon fill="#63b8ff" stroke="#63b8ff" points="205.44,-84.33 208.17,-74.09 199.65,-80.39 205.44,-84.33"/>
</a>
</g>
</g>
<!-- Node29 -->
<g id="Node000029" class="node">
<title>Node29</title>
<g id="a_Node000029"><a xlink:title=" ">
<polygon fill="#e0e0e0" stroke="#999999" points="169.5,-74 104.5,-74 104.5,-55 169.5,-55 169.5,-74"/>
<text text-anchor="middle" x="137" y="-62" font-family="Helvetica,sans-Serif" font-size="10.00">exception</text>
</a>
</g>
</g>
<!-- Node27&#45;&gt;Node29 -->
<g id="edge41_Node000027_Node000029" class="edge">
<title>Node27&#45;&gt;Node29</title>
<g id="a_edge41_Node000027_Node000029"><a xlink:title=" ">
<path fill="none" stroke="#63b8ff" d="M171.23,-109.75C165.44,-102.26 156.94,-91.28 149.86,-82.13"/>
<polygon fill="#63b8ff" stroke="#63b8ff" points="152.53,-79.86 143.64,-74.09 146.99,-84.14 152.53,-79.86"/>
</a>
</g>
</g>
<!-- Node30&#45;&gt;Node6 -->
<g id="edge51_Node000030_Node000006" class="edge">
<title>Node30&#45;&gt;Node6</title>
<g id="a_edge51_Node000030_Node000006"><a xlink:title=" ">
<path fill="none" stroke="#63b8ff" d="M1282.66,-170.37C1295.14,-161.12 1315.18,-146.28 1330.16,-135.19"/>
<polygon fill="#63b8ff" stroke="#63b8ff" points="1332.34,-137.93 1338.3,-129.17 1328.18,-132.31 1332.34,-137.93"/>
</a>
</g>
</g>
<!-- Node30&#45;&gt;Node8 -->
<g id="edge48_Node000030_Node000008" class="edge">
<title>Node30&#45;&gt;Node8</title>
<g id="a_edge48_Node000030_Node000008"><a xlink:title=" ">
<path fill="none" stroke="#63b8ff" d="M1268.66,-170.41C1261.52,-144.28 1239.96,-65.29 1230.06,-29.04"/>
<polygon fill="#63b8ff" stroke="#63b8ff" points="1233.4,-28 1227.39,-19.27 1226.65,-29.84 1233.4,-28"/>
</a>
</g>
</g>
<!-- Node30&#45;&gt;Node14 -->
<g id="edge50_Node000030_Node000014" class="edge">
<title>Node30&#45;&gt;Node14</title>
<g id="a_edge50_Node000030_Node000014"><a xlink:title=" ">
<path fill="none" stroke="#63b8ff" d="M1228.86,-175.27C1164.93,-168.88 1047.34,-154.05 1014,-129 984.44,-106.79 1006.75,-75.53 976,-55 933.07,-26.34 571.48,-14.34 460.36,-11.31"/>
<polygon fill="#63b8ff" stroke="#63b8ff" points="460.2,-7.81 450.11,-11.04 460.01,-14.8 460.2,-7.81"/>
</a>
</g>
</g>
<!-- Node31 -->
<g id="Node000031" class="node">
<title>Node31</title>
<g id="a_Node000031"><a xlink:title=" ">
<polygon fill="#e0e0e0" stroke="#999999" points="1243,-129 1187,-129 1187,-110 1243,-110 1243,-129"/>
<text text-anchor="middle" x="1215" y="-117" font-family="Helvetica,sans-Serif" font-size="10.00">sstream</text>
</a>
</g>
</g>
<!-- Node30&#45;&gt;Node31 -->
<g id="edge49_Node000030_Node000031" class="edge">
<title>Node30&#45;&gt;Node31</title>
<g id="a_edge49_Node000030_Node000031"><a xlink:title=" ">
<path fill="none" stroke="#63b8ff" d="M1262.74,-170.37C1254.22,-161.47 1240.74,-147.39 1230.27,-136.45"/>
<polygon fill="#63b8ff" stroke="#63b8ff" points="1232.74,-133.97 1223.3,-129.17 1227.68,-138.81 1232.74,-133.97"/>
</a>
</g>
</g>
<!-- Node32&#45;&gt;Node4 -->
<g id="edge56_Node000032_Node000004" class="edge">
<title>Node32&#45;&gt;Node4</title>
<g id="a_edge56_Node000032_Node000004"><a xlink:title=" ">
<path fill="none" stroke="#63b8ff" d="M630.18,-170.49C651.01,-160.75 685.37,-144.66 709.48,-133.38"/>
<polygon fill="#63b8ff" stroke="#63b8ff" points="711.23,-136.43 718.8,-129.02 708.26,-130.09 711.23,-136.43"/>
</a>
</g>
</g>
<!-- Node32&#45;&gt;Node12 -->
<g id="edge53_Node000032_Node000012" class="edge">
<title>Node32&#45;&gt;Node12</title>
<g id="a_edge53_Node000032_Node000012"><a xlink:title=" ">
<path fill="none" stroke="#63b8ff" d="M650.89,-172.13C665.89,-169.64 683.21,-166.96 699,-165 877.77,-142.82 927.42,-158.75 1108.97,-128.91"/>
<polygon fill="#63b8ff" stroke="#63b8ff" points="1109.55,-132.36 1118.84,-127.26 1108.4,-125.45 1109.55,-132.36"/>
</a>
</g>
</g>
<!-- Node32&#45;&gt;Node14 -->
<g id="edge55_Node000032_Node000014" class="edge">
<title>Node32&#45;&gt;Node14</title>
<g id="a_edge55_Node000032_Node000014"><a xlink:title=" ">
<path fill="none" stroke="#63b8ff" d="M626.89,-170.5C640.21,-161.95 658.86,-147.41 667,-129 675.41,-109.98 666.91,-65.03 657,-55 629.92,-27.6 516.63,-16.35 460.21,-12.38"/>
<polygon fill="#63b8ff" stroke="#63b8ff" points="460.26,-8.87 450.05,-11.7 459.79,-15.86 460.26,-8.87"/>
</a>
</g>
</g>
<!-- Node32&#45;&gt;Node16 -->
<g id="edge54_Node000032_Node000016" class="edge">
<title>Node32&#45;&gt;Node16</title>
<g id="a_edge54_Node000032_Node000016"><a xlink:title=" ">
<path fill="none" stroke="#63b8ff" d="M584.73,-170.46C577.99,-168.52 570.77,-166.56 564,-165 518.08,-154.39 385.36,-165.04 355,-129 344.17,-116.14 351.19,-96.95 359.05,-83.03"/>
<polygon fill="#63b8ff" stroke="#63b8ff" points="362.12,-84.73 364.42,-74.38 356.17,-81.03 362.12,-84.73"/>
</a>
</g>
</g>
<!-- Node32&#45;&gt;Node19 -->
<g id="edge57_Node000032_Node000019" class="edge">
<title>Node32&#45;&gt;Node19</title>
<g id="a_edge57_Node000032_Node000019"><a xlink:title=" ">
<path fill="none" stroke="#63b8ff" d="M612.89,-170.37C613.72,-162.25 614.99,-149.81 616.06,-139.39"/>
<polygon fill="#63b8ff" stroke="#63b8ff" points="619.57,-139.47 617.11,-129.17 612.61,-138.76 619.57,-139.47"/>
</a>
</g>
</g>
<!-- Node32&#45;&gt;Node25 -->
<g id="edge63_Node000032_Node000025" class="edge">
<title>Node32&#45;&gt;Node25</title>
<g id="a_edge63_Node000032_Node000025"><a xlink:title=" ">
<path fill="none" stroke="#63b8ff" d="M642.08,-170.41C686.57,-157.56 765.14,-134.28 769,-129 779.28,-114.94 770.09,-95.68 760.64,-82.07"/>
<polygon fill="#63b8ff" stroke="#63b8ff" points="763.41,-79.93 754.59,-74.05 757.82,-84.15 763.41,-79.93"/>
</a>
</g>
</g>
<!-- Node33 -->
<g id="Node000033" class="node">
<title>Node33</title>
<g id="a_Node000033"><a xlink:href="../../d9/d86/limits_8h.html" target="_top" xlink:title=" ">
<polygon fill="white" stroke="#666666" points="1101,-129 1023,-129 1023,-110 1101,-110 1101,-129"/>
<text text-anchor="middle" x="1062" y="-117" font-family="Helvetica,sans-Serif" font-size="10.00">type/limits.h</text>
</a>
</g>
</g>
<!-- Node32&#45;&gt;Node33 -->
<g id="edge58_Node000032_Node000033" class="edge">
<title>Node32&#45;&gt;Node33</title>
<g id="a_edge58_Node000032_Node000033"><a xlink:title=" ">
<path fill="none" stroke="#63b8ff" d="M650.93,-172.42C665.93,-169.96 683.25,-167.23 699,-165 810.97,-149.13 942.84,-133.81 1012.73,-125.95"/>
<polygon fill="#63b8ff" stroke="#63b8ff" points="1013.44,-129.39 1022.99,-124.8 1012.66,-122.43 1013.44,-129.39"/>
</a>
</g>
</g>
<!-- Node33&#45;&gt;Node8 -->
<g id="edge61_Node000033_Node000008" class="edge">
<title>Node33&#45;&gt;Node8</title>
<g id="a_edge61_Node000033_Node000008"><a xlink:title=" ">
<path fill="none" stroke="#63b8ff" d="M1101.35,-110.69C1138.7,-102.53 1191.26,-88.87 1206,-74 1217.76,-62.13 1222.29,-43.3 1224.01,-29.22"/>
<polygon fill="#63b8ff" stroke="#63b8ff" points="1227.51,-29.44 1224.87,-19.17 1220.53,-28.84 1227.51,-29.44"/>
</a>
</g>
</g>
<!-- Node34 -->
<g id="Node000034" class="node">
<title>Node34</title>
<g id="a_Node000034"><a xlink:title=" ">
<polygon fill="#e0e0e0" stroke="#999999" points="1129,-74 1085,-74 1085,-55 1129,-55 1129,-74"/>
<text text-anchor="middle" x="1107" y="-62" font-family="Helvetica,sans-Serif" font-size="10.00">cfloat</text>
</a>
</g>
</g>
<!-- Node33&#45;&gt;Node34 -->
<g id="edge59_Node000033_Node000034" class="edge">
<title>Node33&#45;&gt;Node34</title>
<g id="a_edge59_Node000033_Node000034"><a xlink:title=" ">
<path fill="none" stroke="#63b8ff" d="M1069.43,-109.75C1075.85,-102.18 1085.31,-91.05 1093.12,-81.84"/>
<polygon fill="#63b8ff" stroke="#63b8ff" points="1095.9,-83.98 1099.71,-74.09 1090.57,-79.45 1095.9,-83.98"/>
</a>
</g>
</g>
<!-- Node35 -->
<g id="Node000035" class="node">
<title>Node35</title>
<g id="a_Node000035"><a xlink:title=" ">
<polygon fill="#e0e0e0" stroke="#999999" points="1197,-74 1147,-74 1147,-55 1197,-55 1197,-74"/>
<text text-anchor="middle" x="1172" y="-62" font-family="Helvetica,sans-Serif" font-size="10.00">climits</text>
</a>
</g>
</g>
<!-- Node33&#45;&gt;Node35 -->
<g id="edge60_Node000033_Node000035" class="edge">
<title>Node33&#45;&gt;Node35</title>
<g id="a_edge60_Node000033_Node000035"><a xlink:title=" ">
<path fill="none" stroke="#63b8ff" d="M1079.67,-109.98C1097.29,-101.5 1124.58,-88.35 1144.93,-78.54"/>
<polygon fill="#63b8ff" stroke="#63b8ff" points="1146.52,-81.66 1154.01,-74.17 1143.48,-75.36 1146.52,-81.66"/>
</a>
</g>
</g>
<!-- Node36 -->
<g id="Node000036" class="node">
<title>Node36</title>
<g id="a_Node000036"><a xlink:title=" ">
<polygon fill="#e0e0e0" stroke="#999999" points="1067,-74 1023,-74 1023,-55 1067,-55 1067,-74"/>
<text text-anchor="middle" x="1045" y="-62" font-family="Helvetica,sans-Serif" font-size="10.00">limits</text>
</a>
</g>
</g>
<!-- Node33&#45;&gt;Node36 -->
<g id="edge62_Node000033_Node000036" class="edge">
<title>Node33&#45;&gt;Node36</title>
<g id="a_edge62_Node000033_Node000036"><a xlink:title=" ">
<path fill="none" stroke="#63b8ff" d="M1059.19,-109.75C1056.94,-102.72 1053.7,-92.62 1050.88,-83.84"/>
<polygon fill="#63b8ff" stroke="#63b8ff" points="1054.14,-82.54 1047.75,-74.09 1047.48,-84.68 1054.14,-82.54"/>
</a>
</g>
</g>
</g>
</svg>
