<?xml version="1.0" encoding="UTF-8" standalone="no"?>
<!DOCTYPE svg PUBLIC "-//W3C//DTD SVG 1.1//EN"
 "http://www.w3.org/Graphics/SVG/1.1/DTD/svg11.dtd">
<!-- Generated by graphviz version 2.43.0 (0)
 -->
<!-- Title: src/include/execution/plans/mock_scan_plan.h Pages: 1 -->
<svg width="632pt" height="181pt"
 viewBox="0.00 0.00 631.50 181.00" xmlns="http://www.w3.org/2000/svg" xmlns:xlink="http://www.w3.org/1999/xlink">
<g id="graph0" class="graph" transform="scale(1 1) rotate(0) translate(4 177)">
<title>src/include/execution/plans/mock_scan_plan.h</title>
<!-- Node1 -->
<g id="Node000001" class="node">
<title>Node1</title>
<g id="a_Node000001"><a xlink:title=" ">
<polygon fill="#999999" stroke="#666666" points="290.5,-173 151.5,-173 151.5,-143 290.5,-143 290.5,-173"/>
<text text-anchor="start" x="159.5" y="-161" font-family="Helvetica,sans-Serif" font-size="10.00">src/include/execution</text>
<text text-anchor="middle" x="221" y="-150" font-family="Helvetica,sans-Serif" font-size="10.00">/plans/mock_scan_plan.h</text>
</a>
</g>
</g>
<!-- Node2 -->
<g id="Node000002" class="node">
<title>Node2</title>
<g id="a_Node000002"><a xlink:href="../../d3/d3e/executor__factory_8cpp.html" target="_top" xlink:title=" ">
<polygon fill="white" stroke="#666666" points="126,-30 0,-30 0,0 126,0 126,-30"/>
<text text-anchor="start" x="8" y="-18" font-family="Helvetica,sans-Serif" font-size="10.00">src/execution/executor</text>
<text text-anchor="middle" x="63" y="-7" font-family="Helvetica,sans-Serif" font-size="10.00">_factory.cpp</text>
</a>
</g>
</g>
<!-- Node1&#45;&gt;Node2 -->
<g id="edge1_Node000001_Node000002" class="edge">
<title>Node1&#45;&gt;Node2</title>
<g id="a_edge1_Node000001_Node000002"><a xlink:title=" ">
<path fill="none" stroke="#63b8ff" d="M189.44,-137.14C176.46,-128.46 161.56,-117.8 149,-107 120.16,-82.19 90.56,-48.78 74.72,-30.12"/>
<polygon fill="#63b8ff" stroke="#63b8ff" points="187.79,-140.25 198.06,-142.82 191.63,-134.4 187.79,-140.25"/>
</a>
</g>
</g>
<!-- Node3 -->
<g id="Node000003" class="node">
<title>Node3</title>
<g id="a_Node000003"><a xlink:href="../../d7/dc1/mock__scan__executor_8h.html" target="_top" xlink:title=" ">
<polygon fill="white" stroke="#666666" points="283.5,-107 158.5,-107 158.5,-66 283.5,-66 283.5,-107"/>
<text text-anchor="start" x="166.5" y="-95" font-family="Helvetica,sans-Serif" font-size="10.00">src/include/execution</text>
<text text-anchor="start" x="166.5" y="-84" font-family="Helvetica,sans-Serif" font-size="10.00">/executors/mock_scan</text>
<text text-anchor="middle" x="221" y="-73" font-family="Helvetica,sans-Serif" font-size="10.00">_executor.h</text>
</a>
</g>
</g>
<!-- Node1&#45;&gt;Node3 -->
<g id="edge2_Node000001_Node000003" class="edge">
<title>Node1&#45;&gt;Node3</title>
<g id="a_edge2_Node000001_Node000003"><a xlink:title=" ">
<path fill="none" stroke="#63b8ff" d="M221,-132.91C221,-124.47 221,-115.1 221,-107.07"/>
<polygon fill="#63b8ff" stroke="#63b8ff" points="217.5,-132.94 221,-142.94 224.5,-132.94 217.5,-132.94"/>
</a>
</g>
</g>
<!-- Node7 -->
<g id="Node000007" class="node">
<title>Node7</title>
<g id="a_Node000007"><a xlink:href="../../d8/d40/plan__table__ref_8cpp.html" target="_top" xlink:title=" ">
<polygon fill="white" stroke="#666666" points="426.5,-101.5 301.5,-101.5 301.5,-71.5 426.5,-71.5 426.5,-101.5"/>
<text text-anchor="start" x="309.5" y="-89.5" font-family="Helvetica,sans-Serif" font-size="10.00">src/planner/plan_table</text>
<text text-anchor="middle" x="364" y="-78.5" font-family="Helvetica,sans-Serif" font-size="10.00">_ref.cpp</text>
</a>
</g>
</g>
<!-- Node1&#45;&gt;Node7 -->
<g id="edge7_Node000001_Node000007" class="edge">
<title>Node1&#45;&gt;Node7</title>
<g id="a_edge7_Node000001_Node000007"><a xlink:title=" ">
<path fill="none" stroke="#63b8ff" d="M259.07,-138.5C282.93,-126.9 313.21,-112.18 335.1,-101.54"/>
<polygon fill="#63b8ff" stroke="#63b8ff" points="257.4,-135.42 249.94,-142.94 260.46,-141.71 257.4,-135.42"/>
</a>
</g>
</g>
<!-- Node3&#45;&gt;Node2 -->
<g id="edge5_Node000003_Node000002" class="edge">
<title>Node3&#45;&gt;Node2</title>
<g id="a_edge5_Node000003_Node000002"><a xlink:title=" ">
<path fill="none" stroke="#63b8ff" d="M167.22,-61.85C143.24,-51.3 115.79,-39.22 95.08,-30.11"/>
<polygon fill="#63b8ff" stroke="#63b8ff" points="166,-65.13 176.57,-65.96 168.82,-58.73 166,-65.13"/>
</a>
</g>
</g>
<!-- Node4 -->
<g id="Node000004" class="node">
<title>Node4</title>
<g id="a_Node000004"><a xlink:href="../../dc/de0/bustub__ddl_8cpp.html" target="_top" xlink:title=" ">
<polygon fill="white" stroke="#666666" points="297.5,-24.5 144.5,-24.5 144.5,-5.5 297.5,-5.5 297.5,-24.5"/>
<text text-anchor="middle" x="221" y="-12.5" font-family="Helvetica,sans-Serif" font-size="10.00">src/common/bustub_ddl.cpp</text>
</a>
</g>
</g>
<!-- Node3&#45;&gt;Node4 -->
<g id="edge3_Node000003_Node000004" class="edge">
<title>Node3&#45;&gt;Node4</title>
<g id="a_edge3_Node000003_Node000004"><a xlink:title=" ">
<path fill="none" stroke="#63b8ff" d="M221,-55.47C221,-44.35 221,-32.58 221,-24.82"/>
<polygon fill="#63b8ff" stroke="#63b8ff" points="217.5,-55.77 221,-65.77 224.5,-55.77 217.5,-55.77"/>
</a>
</g>
</g>
<!-- Node5 -->
<g id="Node000005" class="node">
<title>Node5</title>
<g id="a_Node000005"><a xlink:href="../../da/d08/bustub__instance_8cpp.html" target="_top" xlink:title=" ">
<polygon fill="white" stroke="#666666" points="494.5,-24.5 315.5,-24.5 315.5,-5.5 494.5,-5.5 494.5,-24.5"/>
<text text-anchor="middle" x="405" y="-12.5" font-family="Helvetica,sans-Serif" font-size="10.00">src/common/bustub_instance.cpp</text>
</a>
</g>
</g>
<!-- Node3&#45;&gt;Node5 -->
<g id="edge4_Node000003_Node000005" class="edge">
<title>Node3&#45;&gt;Node5</title>
<g id="a_edge4_Node000003_Node000005"><a xlink:title=" ">
<path fill="none" stroke="#63b8ff" d="M282.27,-62.36C316.73,-49.34 357.68,-33.87 382.49,-24.5"/>
<polygon fill="#63b8ff" stroke="#63b8ff" points="280.86,-59.15 272.74,-65.96 283.34,-65.7 280.86,-59.15"/>
</a>
</g>
</g>
<!-- Node6 -->
<g id="Node000006" class="node">
<title>Node6</title>
<g id="a_Node000006"><a xlink:href="../../da/dd8/mock__scan__executor_8cpp.html" target="_top" xlink:title=" ">
<polygon fill="white" stroke="#666666" points="623.5,-30 512.5,-30 512.5,0 623.5,0 623.5,-30"/>
<text text-anchor="start" x="520.5" y="-18" font-family="Helvetica,sans-Serif" font-size="10.00">src/execution/mock</text>
<text text-anchor="middle" x="568" y="-7" font-family="Helvetica,sans-Serif" font-size="10.00">_scan_executor.cpp</text>
</a>
</g>
</g>
<!-- Node3&#45;&gt;Node6 -->
<g id="edge6_Node000003_Node000006" class="edge">
<title>Node3&#45;&gt;Node6</title>
<g id="a_edge6_Node000003_Node000006"><a xlink:title=" ">
<path fill="none" stroke="#63b8ff" d="M293.67,-65.96C387.62,-45.69 413.72,-47.57 504,-30 506.68,-29.48 509.42,-28.93 512.18,-28.37"/>
<polygon fill="#63b8ff" stroke="#63b8ff" points="292.76,-62.58 283.74,-68.13 294.26,-69.41 292.76,-62.58"/>
</a>
</g>
</g>
</g>
</svg>
