<?xml version="1.0" encoding="UTF-8" standalone="no"?>
<!DOCTYPE svg PUBLIC "-//W3C//DTD SVG 1.1//EN"
 "http://www.w3.org/Graphics/SVG/1.1/DTD/svg11.dtd">
<!-- Generated by graphviz version 2.43.0 (0)
 -->
<!-- Title: src/include/type/decimal_type.h Pages: 1 -->
<!--zoomable 247 -->

<svg id="main" version="1.1" xmlns="http://www.w3.org/2000/svg" xmlns:xlink="http://www.w3.org/1999/xlink" xml:space="preserve" onload="init(evt)">
<style type="text/css"><![CDATA[
.node, .edge {opacity: 0.7;}
.node.selected, .edge.selected {opacity: 1;}
.edge:hover path { stroke: red; }
.edge:hover polygon { stroke: red; fill: red; }
]]></style>

<defs>
  <circle id="rim" cx="0" cy="0" r="7"/>
  <circle id="rim2" cx="0" cy="0" r="3.5"/>
  <g id="zoomPlus">
    <use xlink:href="#rim" fill="#404040"><set attributeName="fill" to="#808080" begin="zoomplus.mouseover" end="zoomplus.mouseout"/></use>
    <path d="M-4,0h8M0,-4v8" fill="none" stroke="white" stroke-width="1.5" pointer-events="none"/>
  </g>
  <g id="zoomMin">
    <use xlink:href="#rim" fill="#404040"><set attributeName="fill" to="#808080" begin="zoomminus.mouseover" end="zoomminus.mouseout"/></use>
    <path d="M-4,0h8" fill="none" stroke="white" stroke-width="1.5" pointer-events="none"/>
  </g>
  <g id="arrowUp" transform="translate(30 24)">
    <use xlink:href="#rim"/>
    <path pointer-events="none" fill="none" stroke="white" stroke-width="1.5" d="M0,-3.0v7 M-2.5,-0.5L0,-3.0L2.5,-0.5"/>
  </g>
  <g id="arrowRight" transform="rotate(90) translate(36 -43)">
    <use xlink:href="#rim"/>
    <path pointer-events="none" fill="none" stroke="white" stroke-width="1.5" d="M0,-3.0v7 M-2.5,-0.5L0,-3.0L2.5,-0.5"/>
  </g>
  <g id="arrowDown" transform="rotate(180) translate(-30 -48)">
    <use xlink:href="#rim"/>
    <path pointer-events="none" fill="none" stroke="white" stroke-width="1.5" d="M0,-3.0v7 M-2.5,-0.5L0,-3.0L2.5,-0.5"/>
  </g>
  <g id="arrowLeft" transform="rotate(270) translate(-36 17)">
    <use xlink:href="#rim"/>
    <path pointer-events="none" fill="none" stroke="white" stroke-width="1.5" d="M0,-3.0v7 M-2.5,-0.5L0,-3.0L2.5,-0.5"/>
  </g>
  <g id="resetDef">
    <use xlink:href="#rim2" fill="#404040"><set attributeName="fill" to="#808080" begin="reset.mouseover" end="reset.mouseout"/></use>
  </g>
</defs>
<script type="application/ecmascript">
var viewWidth = 3241;
var viewHeight = 247;
var sectionId = 'dynsection-1';
</script>
<script type="application/ecmascript" xlink:href="../../svg.min.js"/>
<svg id="graph" class="graph">
<g id="viewport">
<title>src/include/type/decimal_type.h</title>
<!-- Node1 -->
<g id="Node000001" class="node">
<title>Node1</title>
<g id="a_Node000001"><a xlink:title=" ">
<polygon fill="#999999" stroke="#666666" points="1637,-239 1501,-239 1501,-209 1637,-209 1637,-239"/>
<text text-anchor="start" x="1509" y="-227" font-family="Helvetica,sans-Serif" font-size="10.00">src/include/type/decimal</text>
<text text-anchor="middle" x="1569" y="-216" font-family="Helvetica,sans-Serif" font-size="10.00">_type.h</text>
</a>
</g>
</g>
<!-- Node2 -->
<g id="Node000002" class="node">
<title>Node2</title>
<g id="a_Node000002"><a xlink:href="../../dc/de9/binder_8cpp.html" target="_top" xlink:title=" ">
<polygon fill="white" stroke="#666666" points="1325,-167.5 1207,-167.5 1207,-148.5 1325,-148.5 1325,-167.5"/>
<text text-anchor="middle" x="1266" y="-155.5" font-family="Helvetica,sans-Serif" font-size="10.00">src/binder/binder.cpp</text>
</a>
</g>
</g>
<!-- Node1&#45;&gt;Node2 -->
<g id="edge1_Node000001_Node000002" class="edge">
<title>Node1&#45;&gt;Node2</title>
<g id="a_edge1_Node000001_Node000002"><a xlink:title=" ">
<path fill="none" stroke="#63b8ff" d="M1492.45,-206.83C1433.26,-194.33 1353.68,-177.52 1306.32,-167.52"/>
<polygon fill="#63b8ff" stroke="#63b8ff" points="1492,-210.31 1502.51,-208.95 1493.44,-203.46 1492,-210.31"/>
</a>
</g>
</g>
<!-- Node3 -->
<g id="Node000003" class="node">
<title>Node3</title>
<g id="a_Node000003"><a xlink:href="../../df/d93/transformer_8cpp.html" target="_top" xlink:title=" ">
<polygon fill="white" stroke="#666666" points="1488.5,-167.5 1343.5,-167.5 1343.5,-148.5 1488.5,-148.5 1488.5,-167.5"/>
<text text-anchor="middle" x="1416" y="-155.5" font-family="Helvetica,sans-Serif" font-size="10.00">src/binder/transformer.cpp</text>
</a>
</g>
</g>
<!-- Node1&#45;&gt;Node3 -->
<g id="edge2_Node000001_Node000003" class="edge">
<title>Node1&#45;&gt;Node3</title>
<g id="a_edge2_Node000001_Node000003"><a xlink:title=" ">
<path fill="none" stroke="#63b8ff" d="M1525.83,-204.94C1496.51,-192.68 1459.09,-177.02 1436.36,-167.52"/>
<polygon fill="#63b8ff" stroke="#63b8ff" points="1524.85,-208.32 1535.42,-208.95 1527.55,-201.87 1524.85,-208.32"/>
</a>
</g>
</g>
<!-- Node4 -->
<g id="Node000004" class="node">
<title>Node4</title>
<g id="a_Node000004"><a xlink:href="../../d1/db2/value__factory_8h.html" target="_top" xlink:title=" ">
<polygon fill="white" stroke="#666666" points="1631,-173 1507,-173 1507,-143 1631,-143 1631,-173"/>
<text text-anchor="start" x="1515" y="-161" font-family="Helvetica,sans-Serif" font-size="10.00">src/include/type/value</text>
<text text-anchor="middle" x="1569" y="-150" font-family="Helvetica,sans-Serif" font-size="10.00">_factory.h</text>
</a>
</g>
</g>
<!-- Node1&#45;&gt;Node4 -->
<g id="edge3_Node000001_Node000004" class="edge">
<title>Node1&#45;&gt;Node4</title>
<g id="a_edge3_Node000001_Node000004"><a xlink:title=" ">
<path fill="none" stroke="#63b8ff" d="M1569,-198.54C1569,-189.96 1569,-180.61 1569,-173.16"/>
<polygon fill="#63b8ff" stroke="#63b8ff" points="1565.5,-198.8 1569,-208.8 1572.5,-198.8 1565.5,-198.8"/>
</a>
</g>
</g>
<!-- Node31 -->
<g id="Node000031" class="node">
<title>Node31</title>
<g id="a_Node000031"><a xlink:href="../../d5/d54/decimal__type_8cpp.html" target="_top" xlink:title=" ">
<polygon fill="white" stroke="#666666" points="1794.5,-167.5 1649.5,-167.5 1649.5,-148.5 1794.5,-148.5 1794.5,-167.5"/>
<text text-anchor="middle" x="1722" y="-155.5" font-family="Helvetica,sans-Serif" font-size="10.00">src/type/decimal_type.cpp</text>
</a>
</g>
</g>
<!-- Node1&#45;&gt;Node31 -->
<g id="edge32_Node000001_Node000031" class="edge">
<title>Node1&#45;&gt;Node31</title>
<g id="a_edge32_Node000001_Node000031"><a xlink:title=" ">
<path fill="none" stroke="#63b8ff" d="M1612.17,-204.94C1641.49,-192.68 1678.91,-177.02 1701.64,-167.52"/>
<polygon fill="#63b8ff" stroke="#63b8ff" points="1610.45,-201.87 1602.58,-208.95 1613.15,-208.32 1610.45,-201.87"/>
</a>
</g>
</g>
<!-- Node32 -->
<g id="Node000032" class="node">
<title>Node32</title>
<g id="a_Node000032"><a xlink:href="../../d9/d88/type_8cpp.html" target="_top" xlink:title=" ">
<polygon fill="white" stroke="#666666" points="1913.5,-167.5 1812.5,-167.5 1812.5,-148.5 1913.5,-148.5 1913.5,-167.5"/>
<text text-anchor="middle" x="1863" y="-155.5" font-family="Helvetica,sans-Serif" font-size="10.00">src/type/type.cpp</text>
</a>
</g>
</g>
<!-- Node1&#45;&gt;Node32 -->
<g id="edge33_Node000001_Node000032" class="edge">
<title>Node1&#45;&gt;Node32</title>
<g id="a_edge33_Node000001_Node000032"><a xlink:title=" ">
<path fill="none" stroke="#63b8ff" d="M1646.83,-206.92C1692.64,-197.33 1751.68,-184.77 1804,-173 1811.7,-171.27 1819.96,-169.35 1827.78,-167.5"/>
<polygon fill="#63b8ff" stroke="#63b8ff" points="1646.04,-203.51 1636.96,-208.98 1647.47,-210.36 1646.04,-203.51"/>
</a>
</g>
</g>
<!-- Node5 -->
<g id="Node000005" class="node">
<title>Node5</title>
<g id="a_Node000005"><a xlink:href="../../d9/d88/bind__insert_8cpp.html" target="_top" xlink:title=" ">
<polygon fill="white" stroke="#666666" points="142,-96 0,-96 0,-77 142,-77 142,-96"/>
<text text-anchor="middle" x="71" y="-84" font-family="Helvetica,sans-Serif" font-size="10.00">src/binder/bind_insert.cpp</text>
</a>
</g>
</g>
<!-- Node4&#45;&gt;Node5 -->
<g id="edge4_Node000004_Node000005" class="edge">
<title>Node4&#45;&gt;Node5</title>
<g id="a_edge4_Node000004_Node000005"><a xlink:title=" ">
<path fill="none" stroke="#63b8ff" d="M1496.51,-143.12C900.35,-78.88 740.83,-185.86 151,-107 133.71,-104.69 114.73,-100.15 99.6,-96.04"/>
<polygon fill="#63b8ff" stroke="#63b8ff" points="1496.34,-146.62 1506.66,-144.22 1497.09,-139.66 1496.34,-146.62"/>
</a>
</g>
</g>
<!-- Node6 -->
<g id="Node000006" class="node">
<title>Node6</title>
<g id="a_Node000006"><a xlink:href="../../d7/d35/bind__select_8cpp.html" target="_top" xlink:title=" ">
<polygon fill="white" stroke="#666666" points="303.5,-96 160.5,-96 160.5,-77 303.5,-77 303.5,-96"/>
<text text-anchor="middle" x="232" y="-84" font-family="Helvetica,sans-Serif" font-size="10.00">src/binder/bind_select.cpp</text>
</a>
</g>
</g>
<!-- Node4&#45;&gt;Node6 -->
<g id="edge5_Node000004_Node000006" class="edge">
<title>Node4&#45;&gt;Node6</title>
<g id="a_edge5_Node000004_Node000006"><a xlink:title=" ">
<path fill="none" stroke="#63b8ff" d="M1496.55,-143.12C971.56,-85.7 830.82,-177.33 312,-107 294.72,-104.66 275.74,-100.12 260.6,-96.01"/>
<polygon fill="#63b8ff" stroke="#63b8ff" points="1496.33,-146.62 1506.65,-144.24 1497.1,-139.66 1496.33,-146.62"/>
</a>
</g>
</g>
<!-- Node7 -->
<g id="Node000007" class="node">
<title>Node7</title>
<g id="a_Node000007"><a xlink:href="../../dc/de0/bustub__ddl_8cpp.html" target="_top" xlink:title=" ">
<polygon fill="white" stroke="#666666" points="474.5,-96 321.5,-96 321.5,-77 474.5,-77 474.5,-96"/>
<text text-anchor="middle" x="398" y="-84" font-family="Helvetica,sans-Serif" font-size="10.00">src/common/bustub_ddl.cpp</text>
</a>
</g>
</g>
<!-- Node4&#45;&gt;Node7 -->
<g id="edge6_Node000004_Node000007" class="edge">
<title>Node4&#45;&gt;Node7</title>
<g id="a_edge6_Node000004_Node000007"><a xlink:title=" ">
<path fill="none" stroke="#63b8ff" d="M1496.65,-143.13C1047.21,-92.88 926.84,-165.25 483,-107 464.84,-104.62 444.85,-100.13 428.83,-96.06"/>
<polygon fill="#63b8ff" stroke="#63b8ff" points="1496.32,-146.61 1506.65,-144.26 1497.11,-139.65 1496.32,-146.61"/>
</a>
</g>
</g>
<!-- Node8 -->
<g id="Node000008" class="node">
<title>Node8</title>
<g id="a_Node000008"><a xlink:href="../../da/d08/bustub__instance_8cpp.html" target="_top" xlink:title=" ">
<polygon fill="white" stroke="#666666" points="671.5,-96 492.5,-96 492.5,-77 671.5,-77 671.5,-96"/>
<text text-anchor="middle" x="582" y="-84" font-family="Helvetica,sans-Serif" font-size="10.00">src/common/bustub_instance.cpp</text>
</a>
</g>
</g>
<!-- Node4&#45;&gt;Node8 -->
<g id="edge7_Node000004_Node000008" class="edge">
<title>Node4&#45;&gt;Node8</title>
<g id="a_edge7_Node000004_Node000008"><a xlink:title=" ">
<path fill="none" stroke="#63b8ff" d="M1496.67,-143.12C1134.32,-101.1 1037.58,-150.2 680,-107 659.33,-104.5 636.51,-100.06 618.09,-96.05"/>
<polygon fill="#63b8ff" stroke="#63b8ff" points="1496.31,-146.6 1506.65,-144.29 1497.12,-139.65 1496.31,-146.6"/>
</a>
</g>
</g>
<!-- Node9 -->
<g id="Node000009" class="node">
<title>Node9</title>
<g id="a_Node000009"><a xlink:href="../../d1/d14/transaction__manager_8cpp.html" target="_top" xlink:title=" ">
<polygon fill="white" stroke="#666666" points="840.5,-101.5 689.5,-101.5 689.5,-71.5 840.5,-71.5 840.5,-101.5"/>
<text text-anchor="start" x="697.5" y="-89.5" font-family="Helvetica,sans-Serif" font-size="10.00">src/concurrency/transaction</text>
<text text-anchor="middle" x="765" y="-78.5" font-family="Helvetica,sans-Serif" font-size="10.00">_manager.cpp</text>
</a>
</g>
</g>
<!-- Node4&#45;&gt;Node9 -->
<g id="edge8_Node000004_Node000009" class="edge">
<title>Node4&#45;&gt;Node9</title>
<g id="a_edge8_Node000004_Node000009"><a xlink:title=" ">
<path fill="none" stroke="#63b8ff" d="M1496.33,-143.07C1208.95,-108.32 1131.2,-147.29 849,-107 839.37,-105.62 829.21,-103.69 819.42,-101.57"/>
<polygon fill="#63b8ff" stroke="#63b8ff" points="1496.29,-146.59 1506.64,-144.33 1497.14,-139.64 1496.29,-146.59"/>
</a>
</g>
</g>
<!-- Node10 -->
<g id="Node000010" class="node">
<title>Node10</title>
<g id="a_Node000010"><a xlink:href="../../d3/d72/transaction__manager__impl_8cpp.html" target="_top" xlink:title=" ">
<polygon fill="white" stroke="#666666" points="1009.5,-101.5 858.5,-101.5 858.5,-71.5 1009.5,-71.5 1009.5,-101.5"/>
<text text-anchor="start" x="866.5" y="-89.5" font-family="Helvetica,sans-Serif" font-size="10.00">src/concurrency/transaction</text>
<text text-anchor="middle" x="934" y="-78.5" font-family="Helvetica,sans-Serif" font-size="10.00">_manager_impl.cpp</text>
</a>
</g>
</g>
<!-- Node4&#45;&gt;Node10 -->
<g id="edge9_Node000004_Node000010" class="edge">
<title>Node4&#45;&gt;Node10</title>
<g id="a_edge9_Node000004_Node000010"><a xlink:title=" ">
<path fill="none" stroke="#63b8ff" d="M1496.7,-143.09C1283.67,-115.31 1225.85,-138.74 1018,-107 1008.53,-105.55 998.54,-103.61 988.89,-101.51"/>
<polygon fill="#63b8ff" stroke="#63b8ff" points="1496.26,-146.56 1506.63,-144.41 1497.18,-139.63 1496.26,-146.56"/>
</a>
</g>
</g>
<!-- Node11 -->
<g id="Node000011" class="node">
<title>Node11</title>
<g id="a_Node000011"><a xlink:href="../../dd/df1/execution__common_8cpp.html" target="_top" xlink:title=" ">
<polygon fill="white" stroke="#666666" points="1158.5,-101.5 1027.5,-101.5 1027.5,-71.5 1158.5,-71.5 1158.5,-101.5"/>
<text text-anchor="start" x="1035.5" y="-89.5" font-family="Helvetica,sans-Serif" font-size="10.00">src/execution/execution</text>
<text text-anchor="middle" x="1093" y="-78.5" font-family="Helvetica,sans-Serif" font-size="10.00">_common.cpp</text>
</a>
</g>
</g>
<!-- Node4&#45;&gt;Node11 -->
<g id="edge10_Node000004_Node000011" class="edge">
<title>Node4&#45;&gt;Node11</title>
<g id="a_edge10_Node000004_Node000011"><a xlink:title=" ">
<path fill="none" stroke="#63b8ff" d="M1496.31,-143C1349.32,-121.46 1308.81,-133.27 1167,-107 1158.9,-105.5 1150.38,-103.58 1142.13,-101.54"/>
<polygon fill="#63b8ff" stroke="#63b8ff" points="1496.21,-146.52 1506.61,-144.54 1497.24,-139.6 1496.21,-146.52"/>
</a>
</g>
</g>
<!-- Node12 -->
<g id="Node000012" class="node">
<title>Node12</title>
<g id="a_Node000012"><a xlink:href="../../d2/d5a/filter__executor_8cpp.html" target="_top" xlink:title=" ">
<polygon fill="white" stroke="#666666" points="1283.5,-101.5 1176.5,-101.5 1176.5,-71.5 1283.5,-71.5 1283.5,-101.5"/>
<text text-anchor="start" x="1184.5" y="-89.5" font-family="Helvetica,sans-Serif" font-size="10.00">src/execution/filter</text>
<text text-anchor="middle" x="1230" y="-78.5" font-family="Helvetica,sans-Serif" font-size="10.00">_executor.cpp</text>
</a>
</g>
</g>
<!-- Node4&#45;&gt;Node12 -->
<g id="edge11_Node000004_Node000012" class="edge">
<title>Node4&#45;&gt;Node12</title>
<g id="a_edge11_Node000004_Node000012"><a xlink:title=" ">
<path fill="none" stroke="#63b8ff" d="M1497.31,-143.06C1497.2,-143.04 1497.1,-143.02 1497,-143 1406.04,-126.17 1381.87,-128.92 1292,-107 1285.53,-105.42 1278.75,-103.54 1272.15,-101.57"/>
<polygon fill="#63b8ff" stroke="#63b8ff" points="1496.49,-146.46 1506.96,-144.86 1497.77,-139.58 1496.49,-146.46"/>
</a>
</g>
</g>
<!-- Node13 -->
<g id="Node000013" class="node">
<title>Node13</title>
<g id="a_Node000013"><a xlink:href="../../da/dd8/mock__scan__executor_8cpp.html" target="_top" xlink:title=" ">
<polygon fill="white" stroke="#666666" points="1412.5,-101.5 1301.5,-101.5 1301.5,-71.5 1412.5,-71.5 1412.5,-101.5"/>
<text text-anchor="start" x="1309.5" y="-89.5" font-family="Helvetica,sans-Serif" font-size="10.00">src/execution/mock</text>
<text text-anchor="middle" x="1357" y="-78.5" font-family="Helvetica,sans-Serif" font-size="10.00">_scan_executor.cpp</text>
</a>
</g>
</g>
<!-- Node4&#45;&gt;Node13 -->
<g id="edge12_Node000004_Node000013" class="edge">
<title>Node4&#45;&gt;Node13</title>
<g id="a_edge12_Node000004_Node000013"><a xlink:title=" ">
<path fill="none" stroke="#63b8ff" d="M1516.28,-139.72C1480.37,-127.95 1433.44,-112.56 1399.84,-101.54"/>
<polygon fill="#63b8ff" stroke="#63b8ff" points="1515.51,-143.15 1526.1,-142.94 1517.69,-136.49 1515.51,-143.15"/>
</a>
</g>
</g>
<!-- Node14 -->
<g id="Node000014" class="node">
<title>Node14</title>
<g id="a_Node000014"><a xlink:href="../../dd/d51/aggregation__executor_8h.html" target="_top" xlink:title=" ">
<polygon fill="white" stroke="#666666" points="1559,-107 1431,-107 1431,-66 1559,-66 1559,-107"/>
<text text-anchor="start" x="1439" y="-95" font-family="Helvetica,sans-Serif" font-size="10.00">src/include/execution</text>
<text text-anchor="start" x="1439" y="-84" font-family="Helvetica,sans-Serif" font-size="10.00">/executors/aggregation</text>
<text text-anchor="middle" x="1495" y="-73" font-family="Helvetica,sans-Serif" font-size="10.00">_executor.h</text>
</a>
</g>
</g>
<!-- Node4&#45;&gt;Node14 -->
<g id="edge13_Node000004_Node000014" class="edge">
<title>Node4&#45;&gt;Node14</title>
<g id="a_edge13_Node000004_Node000014"><a xlink:title=" ">
<path fill="none" stroke="#63b8ff" d="M1546.6,-135.96C1536.82,-126.78 1525.43,-116.08 1515.84,-107.07"/>
<polygon fill="#63b8ff" stroke="#63b8ff" points="1544.34,-138.64 1554.02,-142.94 1549.13,-133.54 1544.34,-138.64"/>
</a>
</g>
</g>
<!-- Node17 -->
<g id="Node000017" class="node">
<title>Node17</title>
<g id="a_Node000017"><a xlink:href="../../d3/d6d/arithmetic__expression_8h.html" target="_top" xlink:title=" ">
<polygon fill="white" stroke="#666666" points="1708.5,-107 1577.5,-107 1577.5,-66 1708.5,-66 1708.5,-107"/>
<text text-anchor="start" x="1585.5" y="-95" font-family="Helvetica,sans-Serif" font-size="10.00">src/include/execution</text>
<text text-anchor="start" x="1585.5" y="-84" font-family="Helvetica,sans-Serif" font-size="10.00">/expressions/arithmetic</text>
<text text-anchor="middle" x="1643" y="-73" font-family="Helvetica,sans-Serif" font-size="10.00">_expression.h</text>
</a>
</g>
</g>
<!-- Node4&#45;&gt;Node17 -->
<g id="edge16_Node000004_Node000017" class="edge">
<title>Node4&#45;&gt;Node17</title>
<g id="a_edge16_Node000004_Node000017"><a xlink:title=" ">
<path fill="none" stroke="#63b8ff" d="M1591.4,-135.96C1601.18,-126.78 1612.57,-116.08 1622.16,-107.07"/>
<polygon fill="#63b8ff" stroke="#63b8ff" points="1588.87,-133.54 1583.98,-142.94 1593.66,-138.64 1588.87,-133.54"/>
</a>
</g>
</g>
<!-- Node19 -->
<g id="Node000019" class="node">
<title>Node19</title>
<g id="a_Node000019"><a xlink:href="../../d7/da4/comparison__expression_8h.html" target="_top" xlink:title=" ">
<polygon fill="white" stroke="#666666" points="2055,-107 1917,-107 1917,-66 2055,-66 2055,-107"/>
<text text-anchor="start" x="1925" y="-95" font-family="Helvetica,sans-Serif" font-size="10.00">src/include/execution</text>
<text text-anchor="start" x="1925" y="-84" font-family="Helvetica,sans-Serif" font-size="10.00">/expressions/comparison</text>
<text text-anchor="middle" x="1986" y="-73" font-family="Helvetica,sans-Serif" font-size="10.00">_expression.h</text>
</a>
</g>
</g>
<!-- Node4&#45;&gt;Node19 -->
<g id="edge18_Node000004_Node000019" class="edge">
<title>Node4&#45;&gt;Node19</title>
<g id="a_edge18_Node000004_Node000019"><a xlink:title=" ">
<path fill="none" stroke="#63b8ff" d="M1641.17,-142.88C1760.28,-123.68 1793.08,-129.01 1908,-107 1910.88,-106.45 1913.81,-105.86 1916.77,-105.23"/>
<polygon fill="#63b8ff" stroke="#63b8ff" points="1640.6,-139.42 1631.3,-144.49 1641.73,-146.33 1640.6,-139.42"/>
</a>
</g>
</g>
<!-- Node22 -->
<g id="Node000022" class="node">
<title>Node22</title>
<g id="a_Node000022"><a xlink:href="../../dd/d76/logic__expression_8h.html" target="_top" xlink:title=" ">
<polygon fill="white" stroke="#666666" points="1899,-101.5 1727,-101.5 1727,-71.5 1899,-71.5 1899,-101.5"/>
<text text-anchor="start" x="1735" y="-89.5" font-family="Helvetica,sans-Serif" font-size="10.00">src/include/execution</text>
<text text-anchor="middle" x="1813" y="-78.5" font-family="Helvetica,sans-Serif" font-size="10.00">/expressions/logic_expression.h</text>
</a>
</g>
</g>
<!-- Node4&#45;&gt;Node22 -->
<g id="edge22_Node000004_Node000022" class="edge">
<title>Node4&#45;&gt;Node22</title>
<g id="a_edge22_Node000004_Node000022"><a xlink:title=" ">
<path fill="none" stroke="#63b8ff" d="M1628.09,-140.17C1669.62,-128.34 1724.53,-112.7 1763.7,-101.54"/>
<polygon fill="#63b8ff" stroke="#63b8ff" points="1627.04,-136.83 1618.38,-142.94 1628.95,-143.56 1627.04,-136.83"/>
</a>
</g>
</g>
<!-- Node23 -->
<g id="Node000023" class="node">
<title>Node23</title>
<g id="a_Node000023"><a xlink:href="../../df/d13/string__expression_8h.html" target="_top" xlink:title=" ">
<polygon fill="white" stroke="#666666" points="2249,-101.5 2073,-101.5 2073,-71.5 2249,-71.5 2249,-101.5"/>
<text text-anchor="start" x="2081" y="-89.5" font-family="Helvetica,sans-Serif" font-size="10.00">src/include/execution</text>
<text text-anchor="middle" x="2161" y="-78.5" font-family="Helvetica,sans-Serif" font-size="10.00">/expressions/string_expression.h</text>
</a>
</g>
</g>
<!-- Node4&#45;&gt;Node23 -->
<g id="edge24_Node000004_Node000023" class="edge">
<title>Node4&#45;&gt;Node23</title>
<g id="a_edge24_Node000004_Node000023"><a xlink:title=" ">
<path fill="none" stroke="#63b8ff" d="M1641.19,-142.94C1829.01,-117.24 1879.97,-133.22 2064,-107 2074.54,-105.5 2085.67,-103.58 2096.48,-101.53"/>
<polygon fill="#63b8ff" stroke="#63b8ff" points="1640.7,-139.48 1631.27,-144.32 1641.66,-146.41 1640.7,-139.48"/>
</a>
</g>
</g>
<!-- Node25 -->
<g id="Node000025" class="node">
<title>Node25</title>
<g id="a_Node000025"><a xlink:href="../../da/de4/plan__aggregation_8cpp.html" target="_top" xlink:title=" ">
<polygon fill="white" stroke="#666666" points="2446.5,-96 2267.5,-96 2267.5,-77 2446.5,-77 2446.5,-96"/>
<text text-anchor="middle" x="2357" y="-84" font-family="Helvetica,sans-Serif" font-size="10.00">src/planner/plan_aggregation.cpp</text>
</a>
</g>
</g>
<!-- Node4&#45;&gt;Node25 -->
<g id="edge26_Node000004_Node000025" class="edge">
<title>Node4&#45;&gt;Node25</title>
<g id="a_edge26_Node000004_Node000025"><a xlink:title=" ">
<path fill="none" stroke="#63b8ff" d="M1641.48,-142.94C1914.73,-109.11 1988.39,-141.24 2258,-107 2278.68,-104.37 2301.53,-99.98 2320.06,-96.02"/>
<polygon fill="#63b8ff" stroke="#63b8ff" points="1640.75,-139.5 1631.26,-144.22 1641.62,-146.45 1640.75,-139.5"/>
</a>
</g>
</g>
<!-- Node26 -->
<g id="Node000026" class="node">
<title>Node26</title>
<g id="a_Node000026"><a xlink:href="../../d0/d29/plan__expression_8cpp.html" target="_top" xlink:title=" ">
<polygon fill="white" stroke="#666666" points="2637.5,-96 2464.5,-96 2464.5,-77 2637.5,-77 2637.5,-96"/>
<text text-anchor="middle" x="2551" y="-84" font-family="Helvetica,sans-Serif" font-size="10.00">src/planner/plan_expression.cpp</text>
</a>
</g>
</g>
<!-- Node4&#45;&gt;Node26 -->
<g id="edge27_Node000004_Node000026" class="edge">
<title>Node4&#45;&gt;Node26</title>
<g id="a_edge27_Node000004_Node000026"><a xlink:title=" ">
<path fill="none" stroke="#63b8ff" d="M1641.19,-142.99C2002.18,-100.69 2098.99,-151.23 2456,-107 2476.05,-104.52 2498.18,-100.08 2516.03,-96.06"/>
<polygon fill="#63b8ff" stroke="#63b8ff" points="1640.77,-139.52 1631.25,-144.17 1641.6,-146.47 1640.77,-139.52"/>
</a>
</g>
</g>
<!-- Node27 -->
<g id="Node000027" class="node">
<title>Node27</title>
<g id="a_Node000027"><a xlink:href="../../d9/df0/plan__select_8cpp.html" target="_top" xlink:title=" ">
<polygon fill="white" stroke="#666666" points="2804.5,-96 2655.5,-96 2655.5,-77 2804.5,-77 2804.5,-96"/>
<text text-anchor="middle" x="2730" y="-84" font-family="Helvetica,sans-Serif" font-size="10.00">src/planner/plan_select.cpp</text>
</a>
</g>
</g>
<!-- Node4&#45;&gt;Node27 -->
<g id="edge28_Node000004_Node000027" class="edge">
<title>Node4&#45;&gt;Node27</title>
<g id="a_edge28_Node000004_Node000027"><a xlink:title=" ">
<path fill="none" stroke="#63b8ff" d="M1641.49,-142.97C2086.68,-92.65 2206.49,-166.05 2647,-107 2664.75,-104.62 2684.27,-100.13 2699.91,-96.06"/>
<polygon fill="#63b8ff" stroke="#63b8ff" points="1640.79,-139.53 1631.25,-144.14 1641.58,-146.48 1640.79,-139.53"/>
</a>
</g>
</g>
<!-- Node28 -->
<g id="Node000028" class="node">
<title>Node28</title>
<g id="a_Node000028"><a xlink:href="../../d8/d40/plan__table__ref_8cpp.html" target="_top" xlink:title=" ">
<polygon fill="white" stroke="#666666" points="2947.5,-101.5 2822.5,-101.5 2822.5,-71.5 2947.5,-71.5 2947.5,-101.5"/>
<text text-anchor="start" x="2830.5" y="-89.5" font-family="Helvetica,sans-Serif" font-size="10.00">src/planner/plan_table</text>
<text text-anchor="middle" x="2885" y="-78.5" font-family="Helvetica,sans-Serif" font-size="10.00">_ref.cpp</text>
</a>
</g>
</g>
<!-- Node4&#45;&gt;Node28 -->
<g id="edge29_Node000004_Node000028" class="edge">
<title>Node4&#45;&gt;Node28</title>
<g id="a_edge29_Node000004_Node000028"><a xlink:title=" ">
<path fill="none" stroke="#63b8ff" d="M1641.25,-143.01C2160.49,-85.57 2301.06,-184.18 2814,-107 2822.6,-105.71 2831.63,-103.72 2840.27,-101.51"/>
<polygon fill="#63b8ff" stroke="#63b8ff" points="1640.8,-139.53 1631.25,-144.13 1641.58,-146.49 1640.8,-139.53"/>
</a>
</g>
</g>
<!-- Node29 -->
<g id="Node000029" class="node">
<title>Node29</title>
<g id="a_Node000029"><a xlink:href="../../d4/d79/plan__window__function_8cpp.html" target="_top" xlink:title=" ">
<polygon fill="white" stroke="#666666" points="3102.5,-101.5 2965.5,-101.5 2965.5,-71.5 3102.5,-71.5 3102.5,-101.5"/>
<text text-anchor="start" x="2973.5" y="-89.5" font-family="Helvetica,sans-Serif" font-size="10.00">src/planner/plan_window</text>
<text text-anchor="middle" x="3034" y="-78.5" font-family="Helvetica,sans-Serif" font-size="10.00">_function.cpp</text>
</a>
</g>
</g>
<!-- Node4&#45;&gt;Node29 -->
<g id="edge30_Node000004_Node000029" class="edge">
<title>Node4&#45;&gt;Node29</title>
<g id="a_edge30_Node000004_Node000029"><a xlink:title=" ">
<path fill="none" stroke="#63b8ff" d="M1641.59,-142.97C2223.78,-79.41 2380.39,-186.89 2957,-107 2966.29,-105.71 2976.08,-103.73 2985.44,-101.52"/>
<polygon fill="#63b8ff" stroke="#63b8ff" points="1640.8,-139.54 1631.25,-144.11 1641.57,-146.5 1640.8,-139.54"/>
</a>
</g>
</g>
<!-- Node30 -->
<g id="Node000030" class="node">
<title>Node30</title>
<g id="a_Node000030"><a xlink:href="../../d2/d0e/timestamp__type_8cpp.html" target="_top" xlink:title=" ">
<polygon fill="white" stroke="#666666" points="3233,-101.5 3121,-101.5 3121,-71.5 3233,-71.5 3233,-101.5"/>
<text text-anchor="start" x="3129" y="-89.5" font-family="Helvetica,sans-Serif" font-size="10.00">src/type/timestamp</text>
<text text-anchor="middle" x="3177" y="-78.5" font-family="Helvetica,sans-Serif" font-size="10.00">_type.cpp</text>
</a>
</g>
</g>
<!-- Node4&#45;&gt;Node30 -->
<g id="edge31_Node000004_Node000030" class="edge">
<title>Node4&#45;&gt;Node30</title>
<g id="a_edge31_Node000004_Node000030"><a xlink:title=" ">
<path fill="none" stroke="#63b8ff" d="M1641.42,-143.02C1981.69,-108.24 2792.1,-157.95 3112,-107 3119.91,-105.74 3128.21,-103.77 3136.12,-101.56"/>
<polygon fill="#63b8ff" stroke="#63b8ff" points="1640.82,-139.57 1631.25,-144.1 1641.56,-146.53 1640.82,-139.57"/>
</a>
</g>
</g>
<!-- Node15 -->
<g id="Node000015" class="node">
<title>Node15</title>
<g id="a_Node000015"><a xlink:href="../../da/d4d/aggregation__executor_8cpp.html" target="_top" xlink:title=" ">
<polygon fill="white" stroke="#666666" points="1499.5,-30 1356.5,-30 1356.5,0 1499.5,0 1499.5,-30"/>
<text text-anchor="start" x="1364.5" y="-18" font-family="Helvetica,sans-Serif" font-size="10.00">src/execution/aggregation</text>
<text text-anchor="middle" x="1428" y="-7" font-family="Helvetica,sans-Serif" font-size="10.00">_executor.cpp</text>
</a>
</g>
</g>
<!-- Node14&#45;&gt;Node15 -->
<g id="edge14_Node000014_Node000015" class="edge">
<title>Node14&#45;&gt;Node15</title>
<g id="a_edge14_Node000014_Node000015"><a xlink:title=" ">
<path fill="none" stroke="#63b8ff" d="M1469.02,-58.55C1459.63,-48.81 1449.42,-38.22 1441.53,-30.04"/>
<polygon fill="#63b8ff" stroke="#63b8ff" points="1466.52,-61 1475.98,-65.77 1471.56,-56.14 1466.52,-61"/>
</a>
</g>
</g>
<!-- Node16 -->
<g id="Node000016" class="node">
<title>Node16</title>
<g id="a_Node000016"><a xlink:href="../../d3/d3e/executor__factory_8cpp.html" target="_top" xlink:title=" ">
<polygon fill="white" stroke="#666666" points="1644,-30 1518,-30 1518,0 1644,0 1644,-30"/>
<text text-anchor="start" x="1526" y="-18" font-family="Helvetica,sans-Serif" font-size="10.00">src/execution/executor</text>
<text text-anchor="middle" x="1581" y="-7" font-family="Helvetica,sans-Serif" font-size="10.00">_factory.cpp</text>
</a>
</g>
</g>
<!-- Node14&#45;&gt;Node16 -->
<g id="edge15_Node000014_Node000016" class="edge">
<title>Node14&#45;&gt;Node16</title>
<g id="a_edge15_Node000014_Node000016"><a xlink:title=" ">
<path fill="none" stroke="#63b8ff" d="M1527.29,-59.41C1539.62,-49.44 1553.21,-38.46 1563.63,-30.04"/>
<polygon fill="#63b8ff" stroke="#63b8ff" points="1524.99,-56.76 1519.41,-65.77 1529.39,-62.21 1524.99,-56.76"/>
</a>
</g>
</g>
<!-- Node18 -->
<g id="Node000018" class="node">
<title>Node18</title>
<g id="a_Node000018"><a xlink:href="../../df/dfb/expression__factory_8cpp.html" target="_top" xlink:title=" ">
<polygon fill="white" stroke="#666666" points="1848.5,-30 1721.5,-30 1721.5,0 1848.5,0 1848.5,-30"/>
<text text-anchor="start" x="1729.5" y="-18" font-family="Helvetica,sans-Serif" font-size="10.00">src/planner/expression</text>
<text text-anchor="middle" x="1785" y="-7" font-family="Helvetica,sans-Serif" font-size="10.00">_factory.cpp</text>
</a>
</g>
</g>
<!-- Node17&#45;&gt;Node18 -->
<g id="edge17_Node000017_Node000018" class="edge">
<title>Node17&#45;&gt;Node18</title>
<g id="a_edge17_Node000017_Node000018"><a xlink:title=" ">
<path fill="none" stroke="#63b8ff" d="M1692.19,-61.42C1713.54,-50.98 1737.8,-39.1 1756.17,-30.11"/>
<polygon fill="#63b8ff" stroke="#63b8ff" points="1690.38,-58.42 1682.93,-65.96 1693.45,-64.7 1690.38,-58.42"/>
</a>
</g>
</g>
<!-- Node19&#45;&gt;Node18 -->
<g id="edge21_Node000019_Node000018" class="edge">
<title>Node19&#45;&gt;Node18</title>
<g id="a_edge21_Node000019_Node000018"><a xlink:title=" ">
<path fill="none" stroke="#63b8ff" d="M1919.97,-62.67C1888.79,-51.89 1852.57,-39.36 1825.5,-30"/>
<polygon fill="#63b8ff" stroke="#63b8ff" points="1918.88,-66 1929.48,-65.96 1921.17,-59.38 1918.88,-66"/>
</a>
</g>
</g>
<!-- Node20 -->
<g id="Node000020" class="node">
<title>Node20</title>
<g id="a_Node000020"><a xlink:href="../../d5/d99/nlj__as__hash__join_8cpp.html" target="_top" xlink:title=" ">
<polygon fill="white" stroke="#666666" points="1979,-30 1867,-30 1867,0 1979,0 1979,-30"/>
<text text-anchor="start" x="1875" y="-18" font-family="Helvetica,sans-Serif" font-size="10.00">src/optimizer/nlj_as</text>
<text text-anchor="middle" x="1923" y="-7" font-family="Helvetica,sans-Serif" font-size="10.00">_hash_join.cpp</text>
</a>
</g>
</g>
<!-- Node19&#45;&gt;Node20 -->
<g id="edge19_Node000019_Node000020" class="edge">
<title>Node19&#45;&gt;Node20</title>
<g id="a_edge19_Node000019_Node000020"><a xlink:title=" ">
<path fill="none" stroke="#63b8ff" d="M1961.31,-58.26C1952.56,-48.61 1943.07,-38.14 1935.73,-30.04"/>
<polygon fill="#63b8ff" stroke="#63b8ff" points="1958.81,-60.71 1968.12,-65.77 1963.99,-56.01 1958.81,-60.71"/>
</a>
</g>
</g>
<!-- Node21 -->
<g id="Node000021" class="node">
<title>Node21</title>
<g id="a_Node000021"><a xlink:href="../../d0/de1/nlj__as__index__join_8cpp.html" target="_top" xlink:title=" ">
<polygon fill="white" stroke="#666666" points="2109,-30 1997,-30 1997,0 2109,0 2109,-30"/>
<text text-anchor="start" x="2005" y="-18" font-family="Helvetica,sans-Serif" font-size="10.00">src/optimizer/nlj_as</text>
<text text-anchor="middle" x="2053" y="-7" font-family="Helvetica,sans-Serif" font-size="10.00">_index_join.cpp</text>
</a>
</g>
</g>
<!-- Node19&#45;&gt;Node21 -->
<g id="edge20_Node000019_Node000021" class="edge">
<title>Node19&#45;&gt;Node21</title>
<g id="a_edge20_Node000019_Node000021"><a xlink:title=" ">
<path fill="none" stroke="#63b8ff" d="M2011.98,-58.55C2021.37,-48.81 2031.58,-38.22 2039.47,-30.04"/>
<polygon fill="#63b8ff" stroke="#63b8ff" points="2009.44,-56.14 2005.02,-65.77 2014.48,-61 2009.44,-56.14"/>
</a>
</g>
</g>
<!-- Node22&#45;&gt;Node18 -->
<g id="edge23_Node000022_Node000018" class="edge">
<title>Node22&#45;&gt;Node18</title>
<g id="a_edge23_Node000022_Node000018"><a xlink:title=" ">
<path fill="none" stroke="#63b8ff" d="M1803.49,-61.9C1799.23,-51.31 1794.34,-39.18 1790.66,-30.04"/>
<polygon fill="#63b8ff" stroke="#63b8ff" points="1800.35,-63.47 1807.33,-71.44 1806.84,-60.85 1800.35,-63.47"/>
</a>
</g>
</g>
<!-- Node24 -->
<g id="Node000024" class="node">
<title>Node24</title>
<g id="a_Node000024"><a xlink:href="../../d6/da3/plan__func__call_8cpp.html" target="_top" xlink:title=" ">
<polygon fill="white" stroke="#666666" points="2248.5,-30 2127.5,-30 2127.5,0 2248.5,0 2248.5,-30"/>
<text text-anchor="start" x="2135.5" y="-18" font-family="Helvetica,sans-Serif" font-size="10.00">src/planner/plan_func</text>
<text text-anchor="middle" x="2188" y="-7" font-family="Helvetica,sans-Serif" font-size="10.00">_call.cpp</text>
</a>
</g>
</g>
<!-- Node23&#45;&gt;Node24 -->
<g id="edge25_Node000023_Node000024" class="edge">
<title>Node23&#45;&gt;Node24</title>
<g id="a_edge25_Node000023_Node000024"><a xlink:title=" ">
<path fill="none" stroke="#63b8ff" d="M2170.17,-61.9C2174.28,-51.31 2179,-39.18 2182.54,-30.04"/>
<polygon fill="#63b8ff" stroke="#63b8ff" points="2166.82,-60.85 2166.46,-71.44 2173.35,-63.38 2166.82,-60.85"/>
</a>
</g>
</g>
</g>
</svg>

<g id="navigator" transform="translate(0 0)" fill="#404254">
  <rect fill="#f2f5e9" fill-opacity="0.5" stroke="#606060" stroke-width=".5" x="0" y="0" width="60" height="60"/>
  <use id="zoomplus" xlink:href="#zoomPlus" x="17" y="9" onmousedown="handleZoom(evt,'in')"/>
  <use id="zoomminus" xlink:href="#zoomMin" x="42" y="9" onmousedown="handleZoom(evt,'out')"/>
  <use id="reset" xlink:href="#resetDef" x="30" y="36" onmousedown="handleReset()"/>
   <use id="arrowup" xlink:href="#arrowUp" x="0" y="0" onmousedown="handlePan(0,-1)"/>
  <use id="arrowright" xlink:href="#arrowRight" x="0" y="0" onmousedown="handlePan(1,0)"/>
  <use id="arrowdown" xlink:href="#arrowDown" x="0" y="0" onmousedown="handlePan(0,1)"/>
  <use id="arrowleft" xlink:href="#arrowLeft" x="0" y="0" onmousedown="handlePan(-1,0)"/>
</g>
<svg viewBox="0 0 15 15" width="100%" height="30px" preserveAspectRatio="xMaxYMin meet">
 <g id="arrow_out" transform="scale(0.3 0.3)">
  <a xlink:href="decimal__type_8h__dep__incl_org.svg" target="_base">
   <rect id="button" ry="5" rx="5" y="6" x="6" height="38" width="38"
        fill="#f2f5e9" fill-opacity="0.5" stroke="#606060" stroke-width="1.0"/>
   <path id="arrow"
     d="M 11.500037,31.436501 C 11.940474,20.09759 22.043105,11.32322 32.158766,21.979434 L 37.068811,17.246167 C 37.068811,17.246167 37.088388,32 37.088388,32 L 22.160133,31.978069 C 22.160133,31.978069 26.997745,27.140456 26.997745,27.140456 C 18.528582,18.264221 13.291696,25.230495 11.500037,31.436501 z"
     style="fill:#404040;"/>
  </a>
 </g>
</svg>

<style type='text/css'>
<![CDATA[
[data-mouse-over-selected='false'] { opacity: 0.7; }
[data-mouse-over-selected='true']  { opacity: 1.0; }
]]>
</style>
<script type="application/ecmascript"><![CDATA[
document.addEventListener('DOMContentLoaded', (event) => {
  highlightEdges();
  highlightAdjacentNodes();
});
]]></script>
</svg>
