<?xml version="1.0" encoding="UTF-8" standalone="no"?>
<!DOCTYPE svg PUBLIC "-//W3C//DTD SVG 1.1//EN"
 "http://www.w3.org/Graphics/SVG/1.1/DTD/svg11.dtd">
<!-- Generated by graphviz version 2.43.0 (0)
 -->
<!-- Title: bustub::BoundTableRef Pages: 1 -->
<svg width="345pt" height="212pt"
 viewBox="0.00 0.00 345.00 212.00" xmlns="http://www.w3.org/2000/svg" xmlns:xlink="http://www.w3.org/1999/xlink">
<g id="graph0" class="graph" transform="scale(1 1) rotate(0) translate(4 208)">
<title>bustub::BoundTableRef</title>
<!-- Node1 -->
<g id="Node000001" class="node">
<title>Node1</title>
<g id="a_Node000001"><a xlink:title=" ">
<polygon fill="#999999" stroke="#666666" points="128,-111 0,-111 0,-92 128,-92 128,-111"/>
<text text-anchor="middle" x="64" y="-99" font-family="Helvetica,sans-Serif" font-size="10.00">bustub::BoundTableRef</text>
</a>
</g>
</g>
<!-- Node2 -->
<g id="Node000002" class="node">
<title>Node2</title>
<g id="a_Node000002"><a xlink:href="../../d1/d86/classbustub_1_1BoundBaseTableRef.html" target="_top" xlink:title=" ">
<polygon fill="white" stroke="#666666" points="326.5,-204 174.5,-204 174.5,-185 326.5,-185 326.5,-204"/>
<text text-anchor="middle" x="250.5" y="-192" font-family="Helvetica,sans-Serif" font-size="10.00">bustub::BoundBaseTableRef</text>
</a>
</g>
</g>
<!-- Node1&#45;&gt;Node2 -->
<g id="edge1_Node000001_Node000002" class="edge">
<title>Node1&#45;&gt;Node2</title>
<g id="a_edge1_Node000001_Node000002"><a xlink:title=" ">
<path fill="none" stroke="#63b8ff" d="M81.78,-117.99C100.34,-135.25 131.87,-161.85 164,-176.5 171.45,-179.9 179.57,-182.67 187.73,-184.91"/>
<polygon fill="#63b8ff" stroke="#63b8ff" points="84.1,-115.36 74.44,-111 79.27,-120.43 84.1,-115.36"/>
</a>
</g>
</g>
<!-- Node3 -->
<g id="Node000003" class="node">
<title>Node3</title>
<g id="a_Node000003"><a xlink:href="../../d3/dbf/classbustub_1_1BoundCTERef.html" target="_top" xlink:title=" ">
<polygon fill="white" stroke="#666666" points="311.5,-167 189.5,-167 189.5,-148 311.5,-148 311.5,-167"/>
<text text-anchor="middle" x="250.5" y="-155" font-family="Helvetica,sans-Serif" font-size="10.00">bustub::BoundCTERef</text>
</a>
</g>
</g>
<!-- Node1&#45;&gt;Node3 -->
<g id="edge2_Node000001_Node000003" class="edge">
<title>Node1&#45;&gt;Node3</title>
<g id="a_edge2_Node000001_Node000003"><a xlink:title=" ">
<path fill="none" stroke="#63b8ff" d="M96.53,-115.08C115.76,-122.99 140.99,-132.71 164,-139.5 174.77,-142.68 186.45,-145.52 197.63,-147.96"/>
<polygon fill="#63b8ff" stroke="#63b8ff" points="97.64,-111.75 87.06,-111.13 94.95,-118.21 97.64,-111.75"/>
</a>
</g>
</g>
<!-- Node4 -->
<g id="Node000004" class="node">
<title>Node4</title>
<g id="a_Node000004"><a xlink:href="../../d7/d4a/classbustub_1_1BoundCrossProductRef.html" target="_top" xlink:title=" ">
<polygon fill="white" stroke="#666666" points="334,-130 167,-130 167,-111 334,-111 334,-130"/>
<text text-anchor="middle" x="250.5" y="-118" font-family="Helvetica,sans-Serif" font-size="10.00">bustub::BoundCrossProductRef</text>
</a>
</g>
</g>
<!-- Node1&#45;&gt;Node4 -->
<g id="edge3_Node000001_Node000004" class="edge">
<title>Node1&#45;&gt;Node4</title>
<g id="a_edge3_Node000001_Node000004"><a xlink:title=" ">
<path fill="none" stroke="#63b8ff" d="M138.27,-109.05C147.64,-110.01 157.28,-111 166.78,-111.98"/>
<polygon fill="#63b8ff" stroke="#63b8ff" points="138.54,-105.56 128.24,-108.01 137.83,-112.52 138.54,-105.56"/>
</a>
</g>
</g>
<!-- Node5 -->
<g id="Node000005" class="node">
<title>Node5</title>
<g id="a_Node000005"><a xlink:href="../../d0/d86/classbustub_1_1BoundExpressionListRef.html" target="_top" xlink:title=" ">
<polygon fill="white" stroke="#666666" points="337,-93 164,-93 164,-74 337,-74 337,-93"/>
<text text-anchor="middle" x="250.5" y="-81" font-family="Helvetica,sans-Serif" font-size="10.00">bustub::BoundExpressionListRef</text>
</a>
</g>
</g>
<!-- Node1&#45;&gt;Node5 -->
<g id="edge4_Node000001_Node000005" class="edge">
<title>Node1&#45;&gt;Node5</title>
<g id="a_edge4_Node000001_Node000005"><a xlink:title=" ">
<path fill="none" stroke="#63b8ff" d="M138.33,-94.35C146.72,-93.53 155.32,-92.69 163.84,-91.86"/>
<polygon fill="#63b8ff" stroke="#63b8ff" points="137.85,-90.88 128.24,-95.33 138.53,-97.84 137.85,-90.88"/>
</a>
</g>
</g>
<!-- Node6 -->
<g id="Node000006" class="node">
<title>Node6</title>
<g id="a_Node000006"><a xlink:href="../../df/d50/classbustub_1_1BoundJoinRef.html" target="_top" xlink:title=" ">
<polygon fill="white" stroke="#666666" points="311,-56 190,-56 190,-37 311,-37 311,-56"/>
<text text-anchor="middle" x="250.5" y="-44" font-family="Helvetica,sans-Serif" font-size="10.00">bustub::BoundJoinRef</text>
</a>
</g>
</g>
<!-- Node1&#45;&gt;Node6 -->
<g id="edge5_Node000001_Node000006" class="edge">
<title>Node1&#45;&gt;Node6</title>
<g id="a_edge5_Node000001_Node000006"><a xlink:title=" ">
<path fill="none" stroke="#63b8ff" d="M98.15,-88.22C117.21,-80.9 141.72,-72 164,-65.5 175.97,-62.01 189.04,-58.81 201.29,-56.06"/>
<polygon fill="#63b8ff" stroke="#63b8ff" points="96.77,-85 88.72,-91.89 99.31,-91.53 96.77,-85"/>
</a>
</g>
</g>
<!-- Node7 -->
<g id="Node000007" class="node">
<title>Node7</title>
<g id="a_Node000007"><a xlink:href="../../d2/d8e/classbustub_1_1BoundSubqueryRef.html" target="_top" xlink:title=" ">
<polygon fill="white" stroke="#666666" points="325,-19 176,-19 176,0 325,0 325,-19"/>
<text text-anchor="middle" x="250.5" y="-7" font-family="Helvetica,sans-Serif" font-size="10.00">bustub::BoundSubqueryRef</text>
</a>
</g>
</g>
<!-- Node1&#45;&gt;Node7 -->
<g id="edge6_Node000001_Node000007" class="edge">
<title>Node1&#45;&gt;Node7</title>
<g id="a_edge6_Node000001_Node000007"><a xlink:title=" ">
<path fill="none" stroke="#63b8ff" d="M82.5,-85C101.22,-68.26 132.51,-42.83 164,-28.5 172.44,-24.66 181.72,-21.57 190.95,-19.09"/>
<polygon fill="#63b8ff" stroke="#63b8ff" points="80.08,-82.47 75.05,-91.8 84.79,-87.64 80.08,-82.47"/>
</a>
</g>
</g>
</g>
</svg>
