<?xml version="1.0" encoding="UTF-8" standalone="no"?>
<!DOCTYPE svg PUBLIC "-//W3C//DTD SVG 1.1//EN"
 "http://www.w3.org/Graphics/SVG/1.1/DTD/svg11.dtd">
<!-- Generated by graphviz version 2.43.0 (0)
 -->
<!-- Title: src/catalog/schema.cpp Pages: 1 -->
<svg width="906pt" height="302pt"
 viewBox="0.00 0.00 906.00 302.00" xmlns="http://www.w3.org/2000/svg" xmlns:xlink="http://www.w3.org/1999/xlink">
<g id="graph0" class="graph" transform="scale(1 1) rotate(0) translate(4 298)">
<title>src/catalog/schema.cpp</title>
<!-- Node1 -->
<g id="Node000001" class="node">
<title>Node1</title>
<g id="a_Node000001"><a xlink:title=" ">
<polygon fill="#999999" stroke="#666666" points="641.5,-294 510.5,-294 510.5,-275 641.5,-275 641.5,-294"/>
<text text-anchor="middle" x="576" y="-282" font-family="Helvetica,sans-Serif" font-size="10.00">src/catalog/schema.cpp</text>
</a>
</g>
</g>
<!-- Node2 -->
<g id="Node000002" class="node">
<title>Node2</title>
<g id="a_Node000002"><a xlink:href="../../d7/de3/schema_8h.html" target="_top" xlink:title=" ">
<polygon fill="white" stroke="#666666" points="587.5,-239 484.5,-239 484.5,-220 587.5,-220 587.5,-239"/>
<text text-anchor="middle" x="536" y="-227" font-family="Helvetica,sans-Serif" font-size="10.00">catalog/schema.h</text>
</a>
</g>
</g>
<!-- Node1&#45;&gt;Node2 -->
<g id="edge1_Node000001_Node000002" class="edge">
<title>Node1&#45;&gt;Node2</title>
<g id="a_edge1_Node000001_Node000002"><a xlink:title=" ">
<path fill="none" stroke="#63b8ff" d="M569.39,-274.75C563.74,-267.26 555.46,-256.28 548.55,-247.13"/>
<polygon fill="#63b8ff" stroke="#63b8ff" points="551.3,-244.96 542.48,-239.09 545.71,-249.18 551.3,-244.96"/>
</a>
</g>
</g>
<!-- Node5 -->
<g id="Node000005" class="node">
<title>Node5</title>
<g id="a_Node000005"><a xlink:title=" ">
<polygon fill="#e0e0e0" stroke="#999999" points="299,-19 255,-19 255,0 299,0 299,-19"/>
<text text-anchor="middle" x="277" y="-7" font-family="Helvetica,sans-Serif" font-size="10.00">string</text>
</a>
</g>
</g>
<!-- Node1&#45;&gt;Node5 -->
<g id="edge32_Node000001_Node000005" class="edge">
<title>Node1&#45;&gt;Node5</title>
<g id="a_edge32_Node000001_Node000005"><a xlink:title=" ">
<path fill="none" stroke="#63b8ff" d="M510.49,-278.02C359.52,-264.51 0,-226.94 0,-175.5 0,-175.5 0,-175.5 0,-118.5 0,-81.16 22.74,-73.79 55,-55 115.53,-19.74 199.37,-12.01 244.73,-10.56"/>
<polygon fill="#63b8ff" stroke="#63b8ff" points="244.95,-14.06 254.87,-10.33 244.79,-7.06 244.95,-14.06"/>
</a>
</g>
</g>
<!-- Node6 -->
<g id="Node000006" class="node">
<title>Node6</title>
<g id="a_Node000006"><a xlink:title=" ">
<polygon fill="#e0e0e0" stroke="#999999" points="767.5,-184 720.5,-184 720.5,-165 767.5,-165 767.5,-184"/>
<text text-anchor="middle" x="744" y="-172" font-family="Helvetica,sans-Serif" font-size="10.00">vector</text>
</a>
</g>
</g>
<!-- Node1&#45;&gt;Node6 -->
<g id="edge33_Node000001_Node000006" class="edge">
<title>Node1&#45;&gt;Node6</title>
<g id="a_edge33_Node000001_Node000006"><a xlink:title=" ">
<path fill="none" stroke="#63b8ff" d="M581.97,-274.99C591.71,-261.66 612.22,-235.75 635,-220 658.18,-203.97 688.01,-192.3 710.61,-184.94"/>
<polygon fill="#63b8ff" stroke="#63b8ff" points="711.93,-188.2 720.43,-181.87 709.84,-181.52 711.93,-188.2"/>
</a>
</g>
</g>
<!-- Node22 -->
<g id="Node000022" class="node">
<title>Node22</title>
<g id="a_Node000022"><a xlink:title=" ">
<polygon fill="#e0e0e0" stroke="#999999" points="700,-239 644,-239 644,-220 700,-220 700,-239"/>
<text text-anchor="middle" x="672" y="-227" font-family="Helvetica,sans-Serif" font-size="10.00">sstream</text>
</a>
</g>
</g>
<!-- Node1&#45;&gt;Node22 -->
<g id="edge31_Node000001_Node000022" class="edge">
<title>Node1&#45;&gt;Node22</title>
<g id="a_edge31_Node000001_Node000022"><a xlink:title=" ">
<path fill="none" stroke="#63b8ff" d="M591.42,-274.98C606.45,-266.69 629.54,-253.94 647.16,-244.22"/>
<polygon fill="#63b8ff" stroke="#63b8ff" points="649.23,-247.07 656.3,-239.17 645.85,-240.94 649.23,-247.07"/>
</a>
</g>
</g>
<!-- Node3 -->
<g id="Node000003" class="node">
<title>Node3</title>
<g id="a_Node000003"><a xlink:title=" ">
<polygon fill="#e0e0e0" stroke="#999999" points="447,-74 389,-74 389,-55 447,-55 447,-74"/>
<text text-anchor="middle" x="418" y="-62" font-family="Helvetica,sans-Serif" font-size="10.00">memory</text>
</a>
</g>
</g>
<!-- Node2&#45;&gt;Node3 -->
<g id="edge2_Node000002_Node000003" class="edge">
<title>Node2&#45;&gt;Node3</title>
<g id="a_edge2_Node000002_Node000003"><a xlink:title=" ">
<path fill="none" stroke="#63b8ff" d="M484.38,-219.97C403.06,-205.34 251.27,-172.74 221,-129 216.2,-122.06 215.73,-116.6 221,-110 222.25,-108.44 321.88,-86.48 378.95,-74"/>
<polygon fill="#63b8ff" stroke="#63b8ff" points="379.72,-77.42 388.74,-71.87 378.23,-70.58 379.72,-77.42"/>
</a>
</g>
</g>
<!-- Node4 -->
<g id="Node000004" class="node">
<title>Node4</title>
<g id="a_Node000004"><a xlink:title=" ">
<polygon fill="#e0e0e0" stroke="#999999" points="620,-184 564,-184 564,-165 620,-165 620,-184"/>
<text text-anchor="middle" x="592" y="-172" font-family="Helvetica,sans-Serif" font-size="10.00">optional</text>
</a>
</g>
</g>
<!-- Node2&#45;&gt;Node4 -->
<g id="edge3_Node000002_Node000004" class="edge">
<title>Node2&#45;&gt;Node4</title>
<g id="a_edge3_Node000002_Node000004"><a xlink:title=" ">
<path fill="none" stroke="#63b8ff" d="M545,-219.98C553.19,-212.23 565.51,-200.58 575.47,-191.14"/>
<polygon fill="#63b8ff" stroke="#63b8ff" points="577.98,-193.59 582.84,-184.17 573.17,-188.5 577.98,-193.59"/>
</a>
</g>
</g>
<!-- Node2&#45;&gt;Node5 -->
<g id="edge4_Node000002_Node000005" class="edge">
<title>Node2&#45;&gt;Node5</title>
<g id="a_edge4_Node000002_Node000005"><a xlink:title=" ">
<path fill="none" stroke="#63b8ff" d="M484.34,-225.89C371.55,-218.97 109.17,-195.89 57,-129 43.66,-111.9 51.9,-73.41 71,-55 95.47,-31.41 192.92,-18.62 244.53,-13.38"/>
<polygon fill="#63b8ff" stroke="#63b8ff" points="245.2,-16.83 254.81,-12.38 244.51,-9.87 245.2,-16.83"/>
</a>
</g>
</g>
<!-- Node2&#45;&gt;Node6 -->
<g id="edge5_Node000002_Node000006" class="edge">
<title>Node2&#45;&gt;Node6</title>
<g id="a_edge5_Node000002_Node000006"><a xlink:title=" ">
<path fill="none" stroke="#63b8ff" d="M569.42,-219.98C608.21,-210.1 671.81,-193.89 710.6,-184.01"/>
<polygon fill="#63b8ff" stroke="#63b8ff" points="711.54,-187.38 720.37,-181.52 709.81,-180.6 711.54,-187.38"/>
</a>
</g>
</g>
<!-- Node7 -->
<g id="Node000007" class="node">
<title>Node7</title>
<g id="a_Node000007"><a xlink:href="../../dc/df8/column_8h.html" target="_top" xlink:title=" ">
<polygon fill="white" stroke="#666666" points="477.5,-184 376.5,-184 376.5,-165 477.5,-165 477.5,-184"/>
<text text-anchor="middle" x="427" y="-172" font-family="Helvetica,sans-Serif" font-size="10.00">catalog/column.h</text>
</a>
</g>
</g>
<!-- Node2&#45;&gt;Node7 -->
<g id="edge6_Node000002_Node000007" class="edge">
<title>Node2&#45;&gt;Node7</title>
<g id="a_edge6_Node000002_Node000007"><a xlink:title=" ">
<path fill="none" stroke="#63b8ff" d="M518.49,-219.98C501.03,-211.5 473.99,-198.35 453.83,-188.54"/>
<polygon fill="#63b8ff" stroke="#63b8ff" points="455.36,-185.4 444.83,-184.17 452.29,-191.69 455.36,-185.4"/>
</a>
</g>
</g>
<!-- Node11 -->
<g id="Node000011" class="node">
<title>Node11</title>
<g id="a_Node000011"><a xlink:href="../../dd/d2d/exception_8h.html" target="_top" xlink:title=" ">
<polygon fill="white" stroke="#666666" points="625.5,-129 506.5,-129 506.5,-110 625.5,-110 625.5,-129"/>
<text text-anchor="middle" x="566" y="-117" font-family="Helvetica,sans-Serif" font-size="10.00">common/exception.h</text>
</a>
</g>
</g>
<!-- Node2&#45;&gt;Node11 -->
<g id="edge29_Node000002_Node000011" class="edge">
<title>Node2&#45;&gt;Node11</title>
<g id="a_edge29_Node000002_Node000011"><a xlink:title=" ">
<path fill="none" stroke="#63b8ff" d="M538.46,-219.66C543.34,-202.09 554.35,-162.45 560.87,-138.95"/>
<polygon fill="#63b8ff" stroke="#63b8ff" points="564.29,-139.73 563.59,-129.16 557.55,-137.86 564.29,-139.73"/>
</a>
</g>
</g>
<!-- Node17 -->
<g id="Node000017" class="node">
<title>Node17</title>
<g id="a_Node000017"><a xlink:href="../../df/def/type_8h.html" target="_top" xlink:title=" ">
<polygon fill="white" stroke="#666666" points="891,-74 819,-74 819,-55 891,-55 891,-74"/>
<text text-anchor="middle" x="855" y="-62" font-family="Helvetica,sans-Serif" font-size="10.00">type/type.h</text>
</a>
</g>
</g>
<!-- Node2&#45;&gt;Node17 -->
<g id="edge30_Node000002_Node000017" class="edge">
<title>Node2&#45;&gt;Node17</title>
<g id="a_edge30_Node000002_Node000017"><a xlink:title=" ">
<path fill="none" stroke="#63b8ff" d="M554.27,-220C573.1,-211.18 603.24,-196.91 629,-184 702.86,-146.98 789.03,-101.02 830.39,-78.78"/>
<polygon fill="#63b8ff" stroke="#63b8ff" points="832.06,-81.86 839.21,-74.03 828.75,-75.69 832.06,-81.86"/>
</a>
</g>
</g>
<!-- Node7&#45;&gt;Node3 -->
<g id="edge8_Node000007_Node000003" class="edge">
<title>Node7&#45;&gt;Node3</title>
<g id="a_edge8_Node000007_Node000003"><a xlink:title=" ">
<path fill="none" stroke="#63b8ff" d="M418.25,-164.9C410.44,-156.56 399.55,-143.13 395,-129 389.9,-113.17 397.51,-95.39 405.32,-82.68"/>
<polygon fill="#63b8ff" stroke="#63b8ff" points="408.43,-84.31 411.11,-74.06 402.63,-80.4 408.43,-84.31"/>
</a>
</g>
</g>
<!-- Node7&#45;&gt;Node5 -->
<g id="edge9_Node000007_Node000005" class="edge">
<title>Node7&#45;&gt;Node5</title>
<g id="a_edge9_Node000007_Node000005"><a xlink:title=" ">
<path fill="none" stroke="#63b8ff" d="M409.3,-164.81C381.1,-150.05 326.09,-117.43 296,-74 286.68,-60.55 281.85,-42.45 279.4,-29.02"/>
<polygon fill="#63b8ff" stroke="#63b8ff" points="282.84,-28.38 277.85,-19.04 275.93,-29.45 282.84,-28.38"/>
</a>
</g>
</g>
<!-- Node8 -->
<g id="Node000008" class="node">
<title>Node8</title>
<g id="a_Node000008"><a xlink:title=" ">
<polygon fill="#e0e0e0" stroke="#999999" points="647,-19 597,-19 597,0 647,0 647,-19"/>
<text text-anchor="middle" x="622" y="-7" font-family="Helvetica,sans-Serif" font-size="10.00">cstdint</text>
</a>
</g>
</g>
<!-- Node7&#45;&gt;Node8 -->
<g id="edge7_Node000007_Node000008" class="edge">
<title>Node7&#45;&gt;Node8</title>
<g id="a_edge7_Node000007_Node000008"><a xlink:title=" ">
<path fill="none" stroke="#63b8ff" d="M432.94,-164.72C447.62,-143.54 487.66,-88.88 532,-55 549.41,-41.7 571.43,-30.73 589.33,-23.01"/>
<polygon fill="#63b8ff" stroke="#63b8ff" points="590.91,-26.14 598.79,-19.06 588.21,-19.68 590.91,-26.14"/>
</a>
</g>
</g>
<!-- Node9 -->
<g id="Node000009" class="node">
<title>Node9</title>
<g id="a_Node000009"><a xlink:title=" ">
<polygon fill="#e0e0e0" stroke="#999999" points="449.5,-129 404.5,-129 404.5,-110 449.5,-110 449.5,-129"/>
<text text-anchor="middle" x="427" y="-117" font-family="Helvetica,sans-Serif" font-size="10.00">utility</text>
</a>
</g>
</g>
<!-- Node7&#45;&gt;Node9 -->
<g id="edge10_Node000007_Node000009" class="edge">
<title>Node7&#45;&gt;Node9</title>
<g id="a_edge10_Node000007_Node000009"><a xlink:title=" ">
<path fill="none" stroke="#63b8ff" d="M427,-164.75C427,-157.8 427,-147.85 427,-139.13"/>
<polygon fill="#63b8ff" stroke="#63b8ff" points="430.5,-139.09 427,-129.09 423.5,-139.09 430.5,-139.09"/>
</a>
</g>
</g>
<!-- Node10 -->
<g id="Node000010" class="node">
<title>Node10</title>
<g id="a_Node000010"><a xlink:title=" ">
<polygon fill="#e0e0e0" stroke="#999999" points="309.5,-129 230.5,-129 230.5,-110 309.5,-110 309.5,-129"/>
<text text-anchor="middle" x="270" y="-117" font-family="Helvetica,sans-Serif" font-size="10.00">fmt/format.h</text>
</a>
</g>
</g>
<!-- Node7&#45;&gt;Node10 -->
<g id="edge11_Node000007_Node000010" class="edge">
<title>Node7&#45;&gt;Node10</title>
<g id="a_edge11_Node000007_Node000010"><a xlink:title=" ">
<path fill="none" stroke="#63b8ff" d="M401.78,-164.98C375.64,-156.16 334.6,-142.31 305.27,-132.41"/>
<polygon fill="#63b8ff" stroke="#63b8ff" points="306.02,-128.96 295.42,-129.08 303.78,-135.6 306.02,-128.96"/>
</a>
</g>
</g>
<!-- Node7&#45;&gt;Node11 -->
<g id="edge12_Node000007_Node000011" class="edge">
<title>Node7&#45;&gt;Node11</title>
<g id="a_edge12_Node000007_Node000011"><a xlink:title=" ">
<path fill="none" stroke="#63b8ff" d="M449.33,-164.98C472.2,-156.27 507.96,-142.63 533.86,-132.75"/>
<polygon fill="#63b8ff" stroke="#63b8ff" points="535.16,-136 543.26,-129.17 532.67,-129.46 535.16,-136"/>
</a>
</g>
</g>
<!-- Node7&#45;&gt;Node17 -->
<g id="edge28_Node000007_Node000017" class="edge">
<title>Node7&#45;&gt;Node17</title>
<g id="a_edge28_Node000007_Node000017"><a xlink:title=" ">
<path fill="none" stroke="#63b8ff" d="M477.92,-165.42C520.27,-158.03 581.84,-145.69 634,-129 654.29,-122.51 657.83,-116.84 678,-110 721.56,-95.23 772.64,-82.9 808.69,-74.99"/>
<polygon fill="#63b8ff" stroke="#63b8ff" points="809.88,-78.32 818.91,-72.78 808.4,-71.48 809.88,-78.32"/>
</a>
</g>
</g>
<!-- Node19 -->
<g id="Node000019" class="node">
<title>Node19</title>
<g id="a_Node000019"><a xlink:href="../../de/d3c/macros_8h.html" target="_top" xlink:title=" ">
<polygon fill="white" stroke="#666666" points="173.5,-129 66.5,-129 66.5,-110 173.5,-110 173.5,-129"/>
<text text-anchor="middle" x="120" y="-117" font-family="Helvetica,sans-Serif" font-size="10.00">common/macros.h</text>
</a>
</g>
</g>
<!-- Node7&#45;&gt;Node19 -->
<g id="edge24_Node000007_Node000019" class="edge">
<title>Node7&#45;&gt;Node19</title>
<g id="a_edge24_Node000007_Node000019"><a xlink:title=" ">
<path fill="none" stroke="#63b8ff" d="M377.68,-164.98C323.71,-155.67 237.22,-140.74 179.52,-130.78"/>
<polygon fill="#63b8ff" stroke="#63b8ff" points="179.91,-127.29 169.46,-129.04 178.72,-134.19 179.91,-127.29"/>
</a>
</g>
</g>
<!-- Node11&#45;&gt;Node3 -->
<g id="edge17_Node000011_Node000003" class="edge">
<title>Node11&#45;&gt;Node3</title>
<g id="a_edge17_Node000011_Node000003"><a xlink:title=" ">
<path fill="none" stroke="#63b8ff" d="M542.22,-109.98C517.77,-101.23 479.47,-87.51 451.85,-77.62"/>
<polygon fill="#63b8ff" stroke="#63b8ff" points="452.81,-74.25 442.21,-74.17 450.45,-80.84 452.81,-74.25"/>
</a>
</g>
</g>
<!-- Node11&#45;&gt;Node5 -->
<g id="edge19_Node000011_Node000005" class="edge">
<title>Node11&#45;&gt;Node5</title>
<g id="a_edge19_Node000011_Node000005"><a xlink:title=" ">
<path fill="none" stroke="#63b8ff" d="M553.72,-109.86C533.99,-96.35 493.62,-70.19 456,-55 406.54,-35.04 345.67,-22.21 309.17,-15.69"/>
<polygon fill="#63b8ff" stroke="#63b8ff" points="309.56,-12.21 299.11,-13.94 308.36,-19.1 309.56,-12.21"/>
</a>
</g>
</g>
<!-- Node12 -->
<g id="Node000012" class="node">
<title>Node12</title>
<g id="a_Node000012"><a xlink:title=" ">
<polygon fill="#e0e0e0" stroke="#999999" points="591,-74 541,-74 541,-55 591,-55 591,-74"/>
<text text-anchor="middle" x="566" y="-62" font-family="Helvetica,sans-Serif" font-size="10.00">atomic</text>
</a>
</g>
</g>
<!-- Node11&#45;&gt;Node12 -->
<g id="edge13_Node000011_Node000012" class="edge">
<title>Node11&#45;&gt;Node12</title>
<g id="a_edge13_Node000011_Node000012"><a xlink:title=" ">
<path fill="none" stroke="#63b8ff" d="M566,-109.75C566,-102.8 566,-92.85 566,-84.13"/>
<polygon fill="#63b8ff" stroke="#63b8ff" points="569.5,-84.09 566,-74.09 562.5,-84.09 569.5,-84.09"/>
</a>
</g>
</g>
<!-- Node13 -->
<g id="Node000013" class="node">
<title>Node13</title>
<g id="a_Node000013"><a xlink:title=" ">
<polygon fill="#e0e0e0" stroke="#999999" points="655,-74 609,-74 609,-55 655,-55 655,-74"/>
<text text-anchor="middle" x="632" y="-62" font-family="Helvetica,sans-Serif" font-size="10.00">cstdio</text>
</a>
</g>
</g>
<!-- Node11&#45;&gt;Node13 -->
<g id="edge14_Node000011_Node000013" class="edge">
<title>Node11&#45;&gt;Node13</title>
<g id="a_edge14_Node000011_Node000013"><a xlink:title=" ">
<path fill="none" stroke="#63b8ff" d="M576.6,-109.98C586.46,-102.07 601.35,-90.11 613.22,-80.58"/>
<polygon fill="#63b8ff" stroke="#63b8ff" points="615.6,-83.16 621.2,-74.17 611.21,-77.7 615.6,-83.16"/>
</a>
</g>
</g>
<!-- Node14 -->
<g id="Node000014" class="node">
<title>Node14</title>
<g id="a_Node000014"><a xlink:title=" ">
<polygon fill="#e0e0e0" stroke="#999999" points="722.5,-74 673.5,-74 673.5,-55 722.5,-55 722.5,-74"/>
<text text-anchor="middle" x="698" y="-62" font-family="Helvetica,sans-Serif" font-size="10.00">cstdlib</text>
</a>
</g>
</g>
<!-- Node11&#45;&gt;Node14 -->
<g id="edge15_Node000011_Node000014" class="edge">
<title>Node11&#45;&gt;Node14</title>
<g id="a_edge15_Node000011_Node000014"><a xlink:title=" ">
<path fill="none" stroke="#63b8ff" d="M587.21,-109.98C608.73,-101.34 642.28,-87.87 666.83,-78.02"/>
<polygon fill="#63b8ff" stroke="#63b8ff" points="668.43,-81.14 676.41,-74.17 665.82,-74.65 668.43,-81.14"/>
</a>
</g>
</g>
<!-- Node15 -->
<g id="Node000015" class="node">
<title>Node15</title>
<g id="a_Node000015"><a xlink:title=" ">
<polygon fill="#e0e0e0" stroke="#999999" points="801,-74 741,-74 741,-55 801,-55 801,-74"/>
<text text-anchor="middle" x="771" y="-62" font-family="Helvetica,sans-Serif" font-size="10.00">iostream</text>
</a>
</g>
</g>
<!-- Node11&#45;&gt;Node15 -->
<g id="edge16_Node000011_Node000015" class="edge">
<title>Node11&#45;&gt;Node15</title>
<g id="a_edge16_Node000011_Node000015"><a xlink:title=" ">
<path fill="none" stroke="#63b8ff" d="M598.94,-109.98C634.89,-100.69 692.45,-85.81 730.97,-75.85"/>
<polygon fill="#63b8ff" stroke="#63b8ff" points="732.01,-79.2 740.82,-73.3 730.26,-72.42 732.01,-79.2"/>
</a>
</g>
</g>
<!-- Node16 -->
<g id="Node000016" class="node">
<title>Node16</title>
<g id="a_Node000016"><a xlink:title=" ">
<polygon fill="#e0e0e0" stroke="#999999" points="370.5,-74 305.5,-74 305.5,-55 370.5,-55 370.5,-74"/>
<text text-anchor="middle" x="338" y="-62" font-family="Helvetica,sans-Serif" font-size="10.00">stdexcept</text>
</a>
</g>
</g>
<!-- Node11&#45;&gt;Node16 -->
<g id="edge18_Node000011_Node000016" class="edge">
<title>Node11&#45;&gt;Node16</title>
<g id="a_edge18_Node000011_Node000016"><a xlink:title=" ">
<path fill="none" stroke="#63b8ff" d="M529.37,-109.98C488.81,-100.56 423.52,-85.38 380.69,-75.42"/>
<polygon fill="#63b8ff" stroke="#63b8ff" points="381.37,-71.99 370.84,-73.13 379.79,-78.81 381.37,-71.99"/>
</a>
</g>
</g>
<!-- Node11&#45;&gt;Node17 -->
<g id="edge20_Node000011_Node000017" class="edge">
<title>Node11&#45;&gt;Node17</title>
<g id="a_edge20_Node000011_Node000017"><a xlink:title=" ">
<path fill="none" stroke="#63b8ff" d="M613.25,-109.97C660.3,-101.46 734.87,-87.92 808.72,-74.23"/>
<polygon fill="#63b8ff" stroke="#63b8ff" points="809.46,-77.65 818.65,-72.39 808.18,-70.77 809.46,-77.65"/>
</a>
</g>
</g>
<!-- Node17&#45;&gt;Node5 -->
<g id="edge22_Node000017_Node000005" class="edge">
<title>Node17&#45;&gt;Node5</title>
<g id="a_edge22_Node000017_Node000005"><a xlink:title=" ">
<path fill="none" stroke="#63b8ff" d="M818.7,-56.31C815.76,-55.83 812.84,-55.39 810,-55 621.14,-29.35 392.49,-16.22 309.27,-12.03"/>
<polygon fill="#63b8ff" stroke="#63b8ff" points="309.34,-8.53 299.18,-11.53 308.99,-15.52 309.34,-8.53"/>
</a>
</g>
</g>
<!-- Node17&#45;&gt;Node8 -->
<g id="edge21_Node000017_Node000008" class="edge">
<title>Node17&#45;&gt;Node8</title>
<g id="a_edge21_Node000017_Node000008"><a xlink:title=" ">
<path fill="none" stroke="#63b8ff" d="M818.85,-55.28C774.71,-45.24 700.57,-28.37 656.97,-18.45"/>
<polygon fill="#63b8ff" stroke="#63b8ff" points="657.63,-15.02 647.11,-16.21 656.08,-21.84 657.63,-15.02"/>
</a>
</g>
</g>
<!-- Node18 -->
<g id="Node000018" class="node">
<title>Node18</title>
<g id="a_Node000018"><a xlink:href="../../dc/df2/type__id_8h.html" target="_top" xlink:title=" ">
<polygon fill="white" stroke="#666666" points="898,-19 812,-19 812,0 898,0 898,-19"/>
<text text-anchor="middle" x="855" y="-7" font-family="Helvetica,sans-Serif" font-size="10.00">type/type_id.h</text>
</a>
</g>
</g>
<!-- Node17&#45;&gt;Node18 -->
<g id="edge23_Node000017_Node000018" class="edge">
<title>Node17&#45;&gt;Node18</title>
<g id="a_edge23_Node000017_Node000018"><a xlink:title=" ">
<path fill="none" stroke="#63b8ff" d="M855,-54.75C855,-47.8 855,-37.85 855,-29.13"/>
<polygon fill="#63b8ff" stroke="#63b8ff" points="858.5,-29.09 855,-19.09 851.5,-29.09 858.5,-29.09"/>
</a>
</g>
</g>
<!-- Node19&#45;&gt;Node16 -->
<g id="edge27_Node000019_Node000016" class="edge">
<title>Node19&#45;&gt;Node16</title>
<g id="a_edge27_Node000019_Node000016"><a xlink:title=" ">
<path fill="none" stroke="#63b8ff" d="M155.03,-109.98C193.19,-100.71 254.28,-85.85 295.24,-75.89"/>
<polygon fill="#63b8ff" stroke="#63b8ff" points="296.31,-79.24 305.2,-73.47 294.66,-72.44 296.31,-79.24"/>
</a>
</g>
</g>
<!-- Node20 -->
<g id="Node000020" class="node">
<title>Node20</title>
<g id="a_Node000020"><a xlink:title=" ">
<polygon fill="#e0e0e0" stroke="#999999" points="132,-74 80,-74 80,-55 132,-55 132,-74"/>
<text text-anchor="middle" x="106" y="-62" font-family="Helvetica,sans-Serif" font-size="10.00">cassert</text>
</a>
</g>
</g>
<!-- Node19&#45;&gt;Node20 -->
<g id="edge25_Node000019_Node000020" class="edge">
<title>Node19&#45;&gt;Node20</title>
<g id="a_edge25_Node000019_Node000020"><a xlink:title=" ">
<path fill="none" stroke="#63b8ff" d="M117.69,-109.75C115.83,-102.72 113.16,-92.62 110.85,-83.84"/>
<polygon fill="#63b8ff" stroke="#63b8ff" points="114.21,-82.86 108.27,-74.09 107.44,-84.65 114.21,-82.86"/>
</a>
</g>
</g>
<!-- Node21 -->
<g id="Node000021" class="node">
<title>Node21</title>
<g id="a_Node000021"><a xlink:title=" ">
<polygon fill="#e0e0e0" stroke="#999999" points="215.5,-74 150.5,-74 150.5,-55 215.5,-55 215.5,-74"/>
<text text-anchor="middle" x="183" y="-62" font-family="Helvetica,sans-Serif" font-size="10.00">exception</text>
</a>
</g>
</g>
<!-- Node19&#45;&gt;Node21 -->
<g id="edge26_Node000019_Node000021" class="edge">
<title>Node19&#45;&gt;Node21</title>
<g id="a_edge26_Node000019_Node000021"><a xlink:title=" ">
<path fill="none" stroke="#63b8ff" d="M130.12,-109.98C139.44,-102.15 153.47,-90.34 164.74,-80.86"/>
<polygon fill="#63b8ff" stroke="#63b8ff" points="167.29,-83.29 172.69,-74.17 162.79,-77.93 167.29,-83.29"/>
</a>
</g>
</g>
</g>
</svg>
