<?xml version="1.0" encoding="UTF-8" standalone="no"?>
<!DOCTYPE svg PUBLIC "-//W3C//DTD SVG 1.1//EN"
 "http://www.w3.org/Graphics/SVG/1.1/DTD/svg11.dtd">
<!-- Generated by graphviz version 2.43.0 (0)
 -->
<!-- Title: src/include/binder/expressions/bound_func_call.h Pages: 1 -->
<svg width="1427pt" height="335pt"
 viewBox="0.00 0.00 1426.50 335.00" xmlns="http://www.w3.org/2000/svg" xmlns:xlink="http://www.w3.org/1999/xlink">
<g id="graph0" class="graph" transform="scale(1 1) rotate(0) translate(4 331)">
<title>src/include/binder/expressions/bound_func_call.h</title>
<!-- Node1 -->
<g id="Node000001" class="node">
<title>Node1</title>
<g id="a_Node000001"><a xlink:title=" ">
<polygon fill="#999999" stroke="#666666" points="353,-327 216,-327 216,-286 353,-286 353,-327"/>
<text text-anchor="start" x="224" y="-315" font-family="Helvetica,sans-Serif" font-size="10.00">src/include/binder</text>
<text text-anchor="start" x="224" y="-304" font-family="Helvetica,sans-Serif" font-size="10.00">/expressions/bound_func</text>
<text text-anchor="middle" x="284.5" y="-293" font-family="Helvetica,sans-Serif" font-size="10.00">_call.h</text>
</a>
</g>
</g>
<!-- Node2 -->
<g id="Node000002" class="node">
<title>Node2</title>
<g id="a_Node000002"><a xlink:title=" ">
<polygon fill="#e0e0e0" stroke="#999999" points="423.5,-74 365.5,-74 365.5,-55 423.5,-55 423.5,-74"/>
<text text-anchor="middle" x="394.5" y="-62" font-family="Helvetica,sans-Serif" font-size="10.00">memory</text>
</a>
</g>
</g>
<!-- Node1&#45;&gt;Node2 -->
<g id="edge1_Node000001_Node000002" class="edge">
<title>Node1&#45;&gt;Node2</title>
<g id="a_edge1_Node000001_Node000002"><a xlink:title=" ">
<path fill="none" stroke="#63b8ff" d="M265.22,-285.82C230.76,-248.24 166.08,-165.11 209.5,-110 227.26,-87.46 306.13,-75.02 354.98,-69.35"/>
<polygon fill="#63b8ff" stroke="#63b8ff" points="355.66,-72.79 365.21,-68.21 354.89,-65.84 355.66,-72.79"/>
</a>
</g>
</g>
<!-- Node3 -->
<g id="Node000003" class="node">
<title>Node3</title>
<g id="a_Node000003"><a xlink:title=" ">
<polygon fill="#e0e0e0" stroke="#999999" points="312.5,-184 256.5,-184 256.5,-165 312.5,-165 312.5,-184"/>
<text text-anchor="middle" x="284.5" y="-172" font-family="Helvetica,sans-Serif" font-size="10.00">optional</text>
</a>
</g>
</g>
<!-- Node1&#45;&gt;Node3 -->
<g id="edge2_Node000001_Node000003" class="edge">
<title>Node1&#45;&gt;Node3</title>
<g id="a_edge2_Node000001_Node000003"><a xlink:title=" ">
<path fill="none" stroke="#63b8ff" d="M284.5,-285.76C284.5,-260.86 284.5,-218.38 284.5,-194.06"/>
<polygon fill="#63b8ff" stroke="#63b8ff" points="288,-194.01 284.5,-184.01 281,-194.01 288,-194.01"/>
</a>
</g>
</g>
<!-- Node4 -->
<g id="Node000004" class="node">
<title>Node4</title>
<g id="a_Node000004"><a xlink:title=" ">
<polygon fill="#e0e0e0" stroke="#999999" points="955.5,-19 911.5,-19 911.5,0 955.5,0 955.5,-19"/>
<text text-anchor="middle" x="933.5" y="-7" font-family="Helvetica,sans-Serif" font-size="10.00">string</text>
</a>
</g>
</g>
<!-- Node1&#45;&gt;Node4 -->
<g id="edge3_Node000001_Node000004" class="edge">
<title>Node1&#45;&gt;Node4</title>
<g id="a_edge3_Node000001_Node000004"><a xlink:title=" ">
<path fill="none" stroke="#63b8ff" d="M242.37,-285.88C203.74,-264.64 152.5,-226.8 152.5,-175.5 152.5,-175.5 152.5,-175.5 152.5,-118.5 152.5,-36.6 245.44,-72.27 325.5,-55 437.01,-30.95 791.85,-15.85 901.14,-11.68"/>
<polygon fill="#63b8ff" stroke="#63b8ff" points="901.36,-15.17 911.23,-11.3 901.1,-8.18 901.36,-15.17"/>
</a>
</g>
</g>
<!-- Node5 -->
<g id="Node000005" class="node">
<title>Node5</title>
<g id="a_Node000005"><a xlink:title=" ">
<polygon fill="#e0e0e0" stroke="#999999" points="1240,-129 1195,-129 1195,-110 1240,-110 1240,-129"/>
<text text-anchor="middle" x="1217.5" y="-117" font-family="Helvetica,sans-Serif" font-size="10.00">utility</text>
</a>
</g>
</g>
<!-- Node1&#45;&gt;Node5 -->
<g id="edge4_Node000001_Node000005" class="edge">
<title>Node1&#45;&gt;Node5</title>
<g id="a_edge4_Node000001_Node000005"><a xlink:title=" ">
<path fill="none" stroke="#63b8ff" d="M353.37,-303.03C579.52,-294.19 1288.61,-260.53 1353.5,-184 1384.73,-147.17 1299.48,-130.38 1250.02,-123.93"/>
<polygon fill="#63b8ff" stroke="#63b8ff" points="1250.42,-120.45 1240.06,-122.7 1249.56,-127.4 1250.42,-120.45"/>
</a>
</g>
</g>
<!-- Node6 -->
<g id="Node000006" class="node">
<title>Node6</title>
<g id="a_Node000006"><a xlink:title=" ">
<polygon fill="#e0e0e0" stroke="#999999" points="1344,-184 1297,-184 1297,-165 1344,-165 1344,-184"/>
<text text-anchor="middle" x="1320.5" y="-172" font-family="Helvetica,sans-Serif" font-size="10.00">vector</text>
</a>
</g>
</g>
<!-- Node1&#45;&gt;Node6 -->
<g id="edge5_Node000001_Node000006" class="edge">
<title>Node1&#45;&gt;Node6</title>
<g id="a_edge5_Node000001_Node000006"><a xlink:title=" ">
<path fill="none" stroke="#63b8ff" d="M353.26,-299.8C515.75,-285.76 935.87,-246.04 1282.5,-184 1283.96,-183.74 1285.44,-183.46 1286.94,-183.17"/>
<polygon fill="#63b8ff" stroke="#63b8ff" points="1287.76,-186.57 1296.85,-181.12 1286.35,-179.72 1287.76,-186.57"/>
</a>
</g>
</g>
<!-- Node7 -->
<g id="Node000007" class="node">
<title>Node7</title>
<g id="a_Node000007"><a xlink:href="../../dc/d8b/bound__expression_8h.html" target="_top" xlink:title=" ">
<polygon fill="white" stroke="#666666" points="366.5,-129 218.5,-129 218.5,-110 366.5,-110 366.5,-129"/>
<text text-anchor="middle" x="292.5" y="-117" font-family="Helvetica,sans-Serif" font-size="10.00">binder/bound_expression.h</text>
</a>
</g>
</g>
<!-- Node1&#45;&gt;Node7 -->
<g id="edge6_Node000001_Node000007" class="edge">
<title>Node1&#45;&gt;Node7</title>
<g id="a_edge6_Node000001_Node000007"><a xlink:title=" ">
<path fill="none" stroke="#63b8ff" d="M271.47,-285.86C254.85,-258.17 230.2,-206.43 247.5,-165 252.36,-153.36 261.92,-143.2 270.98,-135.55"/>
<polygon fill="#63b8ff" stroke="#63b8ff" points="273.3,-138.17 279.01,-129.25 268.98,-132.67 273.3,-138.17"/>
</a>
</g>
</g>
<!-- Node13 -->
<g id="Node000013" class="node">
<title>Node13</title>
<g id="a_Node000013"><a xlink:href="../../db/d2b/bound__window_8h.html" target="_top" xlink:title=" ">
<polygon fill="white" stroke="#666666" points="784,-250 675,-250 675,-220 784,-220 784,-250"/>
<text text-anchor="start" x="683" y="-238" font-family="Helvetica,sans-Serif" font-size="10.00">binder/expressions</text>
<text text-anchor="middle" x="729.5" y="-227" font-family="Helvetica,sans-Serif" font-size="10.00">/bound_window.h</text>
</a>
</g>
</g>
<!-- Node1&#45;&gt;Node13 -->
<g id="edge14_Node000001_Node000013" class="edge">
<title>Node1&#45;&gt;Node13</title>
<g id="a_edge14_Node000001_Node000013"><a xlink:title=" ">
<path fill="none" stroke="#63b8ff" d="M353.06,-294.79C438.01,-281.52 581.7,-259.08 664.82,-246.1"/>
<polygon fill="#63b8ff" stroke="#63b8ff" points="665.56,-249.53 674.9,-244.53 664.48,-242.61 665.56,-249.53"/>
</a>
</g>
</g>
<!-- Node7&#45;&gt;Node2 -->
<g id="edge7_Node000007_Node000002" class="edge">
<title>Node7&#45;&gt;Node2</title>
<g id="a_edge7_Node000007_Node000002"><a xlink:title=" ">
<path fill="none" stroke="#63b8ff" d="M308.89,-109.98C325.07,-101.57 350.07,-88.59 368.88,-78.81"/>
<polygon fill="#63b8ff" stroke="#63b8ff" points="370.55,-81.89 377.81,-74.17 367.33,-75.68 370.55,-81.89"/>
</a>
</g>
</g>
<!-- Node7&#45;&gt;Node4 -->
<g id="edge8_Node000007_Node000004" class="edge">
<title>Node7&#45;&gt;Node4</title>
<g id="a_edge8_Node000007_Node000004"><a xlink:title=" ">
<path fill="none" stroke="#63b8ff" d="M298.3,-109.57C308.24,-95.15 330.03,-67.12 356.5,-55 406.12,-32.29 787.04,-16.08 901.24,-11.69"/>
<polygon fill="#63b8ff" stroke="#63b8ff" points="901.58,-15.18 911.44,-11.3 901.31,-8.18 901.58,-15.18"/>
</a>
</g>
</g>
<!-- Node8 -->
<g id="Node000008" class="node">
<title>Node8</title>
<g id="a_Node000008"><a xlink:href="../../de/d3c/macros_8h.html" target="_top" xlink:title=" ">
<polygon fill="white" stroke="#666666" points="124,-74 17,-74 17,-55 124,-55 124,-74"/>
<text text-anchor="middle" x="70.5" y="-62" font-family="Helvetica,sans-Serif" font-size="10.00">common/macros.h</text>
</a>
</g>
</g>
<!-- Node7&#45;&gt;Node8 -->
<g id="edge9_Node000007_Node000008" class="edge">
<title>Node7&#45;&gt;Node8</title>
<g id="a_edge9_Node000007_Node000008"><a xlink:title=" ">
<path fill="none" stroke="#63b8ff" d="M256.83,-109.98C218.67,-100.87 158.03,-86.4 116.35,-76.45"/>
<polygon fill="#63b8ff" stroke="#63b8ff" points="116.99,-73 106.45,-74.08 115.36,-79.81 116.99,-73"/>
</a>
</g>
</g>
<!-- Node12 -->
<g id="Node000012" class="node">
<title>Node12</title>
<g id="a_Node000012"><a xlink:title=" ">
<polygon fill="#e0e0e0" stroke="#999999" points="603,-74 524,-74 524,-55 603,-55 603,-74"/>
<text text-anchor="middle" x="563.5" y="-62" font-family="Helvetica,sans-Serif" font-size="10.00">fmt/format.h</text>
</a>
</g>
</g>
<!-- Node7&#45;&gt;Node12 -->
<g id="edge13_Node000007_Node000012" class="edge">
<title>Node7&#45;&gt;Node12</title>
<g id="a_edge13_Node000007_Node000012"><a xlink:title=" ">
<path fill="none" stroke="#63b8ff" d="M336.04,-109.98C384.47,-100.51 462.58,-85.24 513.48,-75.28"/>
<polygon fill="#63b8ff" stroke="#63b8ff" points="514.46,-78.66 523.6,-73.3 513.11,-71.79 514.46,-78.66"/>
</a>
</g>
</g>
<!-- Node9 -->
<g id="Node000009" class="node">
<title>Node9</title>
<g id="a_Node000009"><a xlink:title=" ">
<polygon fill="#e0e0e0" stroke="#999999" points="135.5,-19 83.5,-19 83.5,0 135.5,0 135.5,-19"/>
<text text-anchor="middle" x="109.5" y="-7" font-family="Helvetica,sans-Serif" font-size="10.00">cassert</text>
</a>
</g>
</g>
<!-- Node8&#45;&gt;Node9 -->
<g id="edge10_Node000008_Node000009" class="edge">
<title>Node8&#45;&gt;Node9</title>
<g id="a_edge10_Node000008_Node000009"><a xlink:title=" ">
<path fill="none" stroke="#63b8ff" d="M76.94,-54.75C82.39,-47.34 90.36,-36.5 97.06,-27.41"/>
<polygon fill="#63b8ff" stroke="#63b8ff" points="100.07,-29.22 103.18,-19.09 94.43,-25.07 100.07,-29.22"/>
</a>
</g>
</g>
<!-- Node10 -->
<g id="Node000010" class="node">
<title>Node10</title>
<g id="a_Node000010"><a xlink:title=" ">
<polygon fill="#e0e0e0" stroke="#999999" points="65,-19 0,-19 0,0 65,0 65,-19"/>
<text text-anchor="middle" x="32.5" y="-7" font-family="Helvetica,sans-Serif" font-size="10.00">exception</text>
</a>
</g>
</g>
<!-- Node8&#45;&gt;Node10 -->
<g id="edge11_Node000008_Node000010" class="edge">
<title>Node8&#45;&gt;Node10</title>
<g id="a_edge11_Node000008_Node000010"><a xlink:title=" ">
<path fill="none" stroke="#63b8ff" d="M64.23,-54.75C58.91,-47.34 51.14,-36.5 44.62,-27.41"/>
<polygon fill="#63b8ff" stroke="#63b8ff" points="47.33,-25.18 38.66,-19.09 41.64,-29.26 47.33,-25.18"/>
</a>
</g>
</g>
<!-- Node11 -->
<g id="Node000011" class="node">
<title>Node11</title>
<g id="a_Node000011"><a xlink:title=" ">
<polygon fill="#e0e0e0" stroke="#999999" points="566,-19 501,-19 501,0 566,0 566,-19"/>
<text text-anchor="middle" x="533.5" y="-7" font-family="Helvetica,sans-Serif" font-size="10.00">stdexcept</text>
</a>
</g>
</g>
<!-- Node8&#45;&gt;Node11 -->
<g id="edge12_Node000008_Node000011" class="edge">
<title>Node8&#45;&gt;Node11</title>
<g id="a_edge12_Node000008_Node000011"><a xlink:title=" ">
<path fill="none" stroke="#63b8ff" d="M124.31,-56.71C129.11,-56.13 133.89,-55.55 138.5,-55 266.68,-39.77 418.43,-23.04 490.87,-15.13"/>
<polygon fill="#63b8ff" stroke="#63b8ff" points="491.41,-18.59 500.97,-14.03 490.65,-11.63 491.41,-18.59"/>
</a>
</g>
</g>
<!-- Node13&#45;&gt;Node2 -->
<g id="edge15_Node000013_Node000002" class="edge">
<title>Node13&#45;&gt;Node2</title>
<g id="a_edge15_Node000013_Node000002"><a xlink:title=" ">
<path fill="none" stroke="#63b8ff" d="M674.8,-234.97C582.18,-235.32 400.64,-229.95 360.5,-184 354.94,-177.64 358.84,-173.28 360.5,-165 363.9,-148 369.67,-145.33 375.5,-129 380.82,-114.08 385.92,-96.84 389.49,-84.09"/>
<polygon fill="#63b8ff" stroke="#63b8ff" points="392.93,-84.79 392.2,-74.22 386.18,-82.94 392.93,-84.79"/>
</a>
</g>
</g>
<!-- Node13&#45;&gt;Node3 -->
<g id="edge16_Node000013_Node000003" class="edge">
<title>Node13&#45;&gt;Node3</title>
<g id="a_edge16_Node000013_Node000003"><a xlink:title=" ">
<path fill="none" stroke="#63b8ff" d="M674.88,-228.56C597.22,-220.52 450.53,-204.22 326.5,-184 325.4,-183.82 324.28,-183.63 323.16,-183.44"/>
<polygon fill="#63b8ff" stroke="#63b8ff" points="323.38,-179.92 312.91,-181.56 322.11,-186.81 323.38,-179.92"/>
</a>
</g>
</g>
<!-- Node13&#45;&gt;Node4 -->
<g id="edge17_Node000013_Node000004" class="edge">
<title>Node13&#45;&gt;Node4</title>
<g id="a_edge17_Node000013_Node000004"><a xlink:title=" ">
<path fill="none" stroke="#63b8ff" d="M784.15,-226.82C802.37,-224.51 822.8,-222.04 841.5,-220 927.58,-210.63 1160.95,-236.9 1229.5,-184 1275.43,-148.55 1287.56,-98.79 1249.5,-55 1212.96,-12.95 1038.81,-9.5 965.81,-9.96"/>
<polygon fill="#63b8ff" stroke="#63b8ff" points="965.77,-6.46 955.81,-10.05 965.84,-13.46 965.77,-6.46"/>
</a>
</g>
</g>
<!-- Node13&#45;&gt;Node5 -->
<g id="edge18_Node000013_Node000005" class="edge">
<title>Node13&#45;&gt;Node5</title>
<g id="a_edge18_Node000013_Node000005"><a xlink:title=" ">
<path fill="none" stroke="#63b8ff" d="M784.35,-232.16C904.36,-227.59 1181.89,-213.88 1211.5,-184 1222.82,-172.58 1223.23,-153.69 1221.46,-139.47"/>
<polygon fill="#63b8ff" stroke="#63b8ff" points="1224.86,-138.59 1219.75,-129.31 1217.96,-139.75 1224.86,-138.59"/>
</a>
</g>
</g>
<!-- Node13&#45;&gt;Node6 -->
<g id="edge19_Node000013_Node000006" class="edge">
<title>Node13&#45;&gt;Node6</title>
<g id="a_edge19_Node000013_Node000006"><a xlink:title=" ">
<path fill="none" stroke="#63b8ff" d="M784.34,-231.41C884.01,-226.17 1101.3,-212.33 1282.5,-184 1283.96,-183.77 1285.45,-183.52 1286.95,-183.25"/>
<polygon fill="#63b8ff" stroke="#63b8ff" points="1287.75,-186.66 1296.87,-181.28 1286.38,-179.8 1287.75,-186.66"/>
</a>
</g>
</g>
<!-- Node13&#45;&gt;Node7 -->
<g id="edge20_Node000013_Node000007" class="edge">
<title>Node13&#45;&gt;Node7</title>
<g id="a_edge20_Node000013_Node000007"><a xlink:title=" ">
<path fill="none" stroke="#63b8ff" d="M709.84,-219.97C684.04,-201.83 639.88,-171.74 621.5,-165 541.72,-135.74 444.71,-125.43 376.78,-121.94"/>
<polygon fill="#63b8ff" stroke="#63b8ff" points="376.71,-118.43 366.56,-121.45 376.38,-125.42 376.71,-118.43"/>
</a>
</g>
</g>
<!-- Node14 -->
<g id="Node000014" class="node">
<title>Node14</title>
<g id="a_Node000014"><a xlink:href="../../df/d21/bound__order__by_8h.html" target="_top" xlink:title=" ">
<polygon fill="white" stroke="#666666" points="1202.5,-184 1066.5,-184 1066.5,-165 1202.5,-165 1202.5,-184"/>
<text text-anchor="middle" x="1134.5" y="-172" font-family="Helvetica,sans-Serif" font-size="10.00">binder/bound_order_by.h</text>
</a>
</g>
</g>
<!-- Node13&#45;&gt;Node14 -->
<g id="edge21_Node000013_Node000014" class="edge">
<title>Node13&#45;&gt;Node14</title>
<g id="a_edge21_Node000013_Node000014"><a xlink:title=" ">
<path fill="none" stroke="#63b8ff" d="M784.12,-226.11C857,-215.58 986.09,-196.94 1065.58,-185.45"/>
<polygon fill="#63b8ff" stroke="#63b8ff" points="1066.1,-188.92 1075.5,-184.02 1065.1,-181.99 1066.1,-188.92"/>
</a>
</g>
</g>
<!-- Node23 -->
<g id="Node000023" class="node">
<title>Node23</title>
<g id="a_Node000023"><a xlink:title=" ">
<polygon fill="#e0e0e0" stroke="#999999" points="468,-184 369,-184 369,-165 468,-165 468,-184"/>
<text text-anchor="middle" x="418.5" y="-172" font-family="Helvetica,sans-Serif" font-size="10.00">nodes/nodes.hpp</text>
</a>
</g>
</g>
<!-- Node13&#45;&gt;Node23 -->
<g id="edge39_Node000013_Node000023" class="edge">
<title>Node13&#45;&gt;Node23</title>
<g id="a_edge39_Node000013_Node000023"><a xlink:title=" ">
<path fill="none" stroke="#63b8ff" d="M674.97,-223.74C618.44,-213.11 530.54,-196.57 473.74,-185.89"/>
<polygon fill="#63b8ff" stroke="#63b8ff" points="474.34,-182.44 463.86,-184.03 473.04,-189.32 474.34,-182.44"/>
</a>
</g>
</g>
<!-- Node24 -->
<g id="Node000024" class="node">
<title>Node24</title>
<g id="a_Node000024"><a xlink:title=" ">
<polygon fill="#e0e0e0" stroke="#999999" points="612.5,-184 486.5,-184 486.5,-165 612.5,-165 612.5,-184"/>
<text text-anchor="middle" x="549.5" y="-172" font-family="Helvetica,sans-Serif" font-size="10.00">nodes/parsenodes.hpp</text>
</a>
</g>
</g>
<!-- Node13&#45;&gt;Node24 -->
<g id="edge40_Node000013_Node000024" class="edge">
<title>Node13&#45;&gt;Node24</title>
<g id="a_edge40_Node000013_Node000024"><a xlink:title=" ">
<path fill="none" stroke="#63b8ff" d="M686.39,-219.99C655.59,-209.98 614.63,-196.67 585.57,-187.22"/>
<polygon fill="#63b8ff" stroke="#63b8ff" points="586.41,-183.82 575.82,-184.05 584.25,-190.47 586.41,-183.82"/>
</a>
</g>
</g>
<!-- Node25 -->
<g id="Node000025" class="node">
<title>Node25</title>
<g id="a_Node000025"><a xlink:title=" ">
<polygon fill="#e0e0e0" stroke="#999999" points="790.5,-184 668.5,-184 668.5,-165 790.5,-165 790.5,-184"/>
<text text-anchor="middle" x="729.5" y="-172" font-family="Helvetica,sans-Serif" font-size="10.00">nodes/primnodes.hpp</text>
</a>
</g>
</g>
<!-- Node13&#45;&gt;Node25 -->
<g id="edge41_Node000013_Node000025" class="edge">
<title>Node13&#45;&gt;Node25</title>
<g id="a_edge41_Node000013_Node000025"><a xlink:title=" ">
<path fill="none" stroke="#63b8ff" d="M729.5,-219.84C729.5,-212.21 729.5,-202.7 729.5,-194.45"/>
<polygon fill="#63b8ff" stroke="#63b8ff" points="733,-194.27 729.5,-184.27 726,-194.27 733,-194.27"/>
</a>
</g>
</g>
<!-- Node26 -->
<g id="Node000026" class="node">
<title>Node26</title>
<g id="a_Node000026"><a xlink:title=" ">
<polygon fill="#e0e0e0" stroke="#999999" points="914.5,-184 808.5,-184 808.5,-165 914.5,-165 914.5,-184"/>
<text text-anchor="middle" x="861.5" y="-172" font-family="Helvetica,sans-Serif" font-size="10.00">pg_definitions.hpp</text>
</a>
</g>
</g>
<!-- Node13&#45;&gt;Node26 -->
<g id="edge42_Node000013_Node000026" class="edge">
<title>Node13&#45;&gt;Node26</title>
<g id="a_edge42_Node000013_Node000026"><a xlink:title=" ">
<path fill="none" stroke="#63b8ff" d="M761.12,-219.99C782.85,-210.36 811.47,-197.67 832.59,-188.31"/>
<polygon fill="#63b8ff" stroke="#63b8ff" points="834.28,-191.39 842.01,-184.14 831.45,-184.99 834.28,-191.39"/>
</a>
</g>
</g>
<!-- Node27 -->
<g id="Node000027" class="node">
<title>Node27</title>
<g id="a_Node000027"><a xlink:title=" ">
<polygon fill="#e0e0e0" stroke="#999999" points="1048,-184 933,-184 933,-165 1048,-165 1048,-184"/>
<text text-anchor="middle" x="990.5" y="-172" font-family="Helvetica,sans-Serif" font-size="10.00">postgres_parser.hpp</text>
</a>
</g>
</g>
<!-- Node13&#45;&gt;Node27 -->
<g id="edge43_Node000013_Node000027" class="edge">
<title>Node13&#45;&gt;Node27</title>
<g id="a_edge43_Node000013_Node000027"><a xlink:title=" ">
<path fill="none" stroke="#63b8ff" d="M784.21,-221.74C831.05,-211.24 897.81,-196.28 942.57,-186.24"/>
<polygon fill="#63b8ff" stroke="#63b8ff" points="943.34,-189.66 952.33,-184.06 941.81,-182.83 943.34,-189.66"/>
</a>
</g>
</g>
<!-- Node14&#45;&gt;Node2 -->
<g id="edge22_Node000014_Node000002" class="edge">
<title>Node14&#45;&gt;Node2</title>
<g id="a_edge22_Node000014_Node000002"><a xlink:title=" ">
<path fill="none" stroke="#63b8ff" d="M1070.22,-164.96C1004.82,-156.2 900.55,-142.06 810.5,-129 671.98,-108.92 507.81,-83.33 433.96,-71.72"/>
<polygon fill="#63b8ff" stroke="#63b8ff" points="434.15,-68.21 423.73,-70.12 433.06,-75.13 434.15,-68.21"/>
</a>
</g>
</g>
<!-- Node14&#45;&gt;Node4 -->
<g id="edge23_Node000014_Node000004" class="edge">
<title>Node14&#45;&gt;Node4</title>
<g id="a_edge23_Node000014_Node000004"><a xlink:title=" ">
<path fill="none" stroke="#63b8ff" d="M1093.26,-164.96C1066.25,-158.1 1030.99,-146.64 1003.5,-129 975.19,-110.83 968.12,-103.25 951.5,-74 943.62,-60.13 938.99,-42.57 936.4,-29.43"/>
<polygon fill="#63b8ff" stroke="#63b8ff" points="939.79,-28.48 934.62,-19.23 932.89,-29.68 939.79,-28.48"/>
</a>
</g>
</g>
<!-- Node14&#45;&gt;Node5 -->
<g id="edge24_Node000014_Node000005" class="edge">
<title>Node14&#45;&gt;Node5</title>
<g id="a_edge24_Node000014_Node000005"><a xlink:title=" ">
<path fill="none" stroke="#63b8ff" d="M1147.84,-164.98C1160.59,-156.84 1180.05,-144.41 1195.17,-134.76"/>
<polygon fill="#63b8ff" stroke="#63b8ff" points="1197.38,-137.5 1203.92,-129.17 1193.61,-131.6 1197.38,-137.5"/>
</a>
</g>
</g>
<!-- Node14&#45;&gt;Node7 -->
<g id="edge25_Node000014_Node000007" class="edge">
<title>Node14&#45;&gt;Node7</title>
<g id="a_edge25_Node000014_Node000007"><a xlink:title=" ">
<path fill="none" stroke="#63b8ff" d="M1066.5,-165.8C1063.46,-165.52 1060.45,-165.25 1057.5,-165 810.64,-144.21 518.14,-130.12 377.02,-123.98"/>
<polygon fill="#63b8ff" stroke="#63b8ff" points="376.85,-120.47 366.71,-123.54 376.55,-127.47 376.85,-120.47"/>
</a>
</g>
</g>
<!-- Node14&#45;&gt;Node12 -->
<g id="edge38_Node000014_Node000012" class="edge">
<title>Node14&#45;&gt;Node12</title>
<g id="a_edge38_Node000014_Node000012"><a xlink:title=" ">
<path fill="none" stroke="#63b8ff" d="M1089.22,-164.94C983.81,-145 722.69,-95.61 613.14,-74.89"/>
<polygon fill="#63b8ff" stroke="#63b8ff" points="613.49,-71.39 603.02,-72.97 612.19,-78.27 613.49,-71.39"/>
</a>
</g>
</g>
<!-- Node15 -->
<g id="Node000015" class="node">
<title>Node15</title>
<g id="a_Node000015"><a xlink:href="../../dd/d2d/exception_8h.html" target="_top" xlink:title=" ">
<polygon fill="white" stroke="#666666" points="1131,-129 1012,-129 1012,-110 1131,-110 1131,-129"/>
<text text-anchor="middle" x="1071.5" y="-117" font-family="Helvetica,sans-Serif" font-size="10.00">common/exception.h</text>
</a>
</g>
</g>
<!-- Node14&#45;&gt;Node15 -->
<g id="edge26_Node000014_Node000015" class="edge">
<title>Node14&#45;&gt;Node15</title>
<g id="a_edge26_Node000014_Node000015"><a xlink:title=" ">
<path fill="none" stroke="#63b8ff" d="M1124.38,-164.98C1115.06,-157.15 1101.03,-145.34 1089.76,-135.86"/>
<polygon fill="#63b8ff" stroke="#63b8ff" points="1091.71,-132.93 1081.81,-129.17 1087.21,-138.29 1091.71,-132.93"/>
</a>
</g>
</g>
<!-- Node15&#45;&gt;Node2 -->
<g id="edge31_Node000015_Node000002" class="edge">
<title>Node15&#45;&gt;Node2</title>
<g id="a_edge31_Node000015_Node000002"><a xlink:title=" ">
<path fill="none" stroke="#63b8ff" d="M1011.72,-113.82C875.88,-103.19 547.02,-77.44 433.67,-68.57"/>
<polygon fill="#63b8ff" stroke="#63b8ff" points="433.94,-65.08 423.7,-67.79 433.4,-72.06 433.94,-65.08"/>
</a>
</g>
</g>
<!-- Node15&#45;&gt;Node4 -->
<g id="edge33_Node000015_Node000004" class="edge">
<title>Node15&#45;&gt;Node4</title>
<g id="a_edge33_Node000015_Node000004"><a xlink:title=" ">
<path fill="none" stroke="#63b8ff" d="M1039.86,-109.94C1018.65,-102.96 991.13,-91.39 971.5,-74 957.4,-61.51 946.99,-42.49 940.66,-28.53"/>
<polygon fill="#63b8ff" stroke="#63b8ff" points="943.76,-26.86 936.63,-19.02 937.31,-29.6 943.76,-26.86"/>
</a>
</g>
</g>
<!-- Node15&#45;&gt;Node11 -->
<g id="edge32_Node000015_Node000011" class="edge">
<title>Node15&#45;&gt;Node11</title>
<g id="a_edge32_Node000015_Node000011"><a xlink:title=" ">
<path fill="none" stroke="#63b8ff" d="M1028.83,-109.94C928.16,-89.72 676.72,-39.25 576.1,-19.05"/>
<polygon fill="#63b8ff" stroke="#63b8ff" points="576.78,-15.62 566.28,-17.08 575.4,-22.48 576.78,-15.62"/>
</a>
</g>
</g>
<!-- Node16 -->
<g id="Node000016" class="node">
<title>Node16</title>
<g id="a_Node000016"><a xlink:title=" ">
<polygon fill="#e0e0e0" stroke="#999999" points="1030.5,-74 980.5,-74 980.5,-55 1030.5,-55 1030.5,-74"/>
<text text-anchor="middle" x="1005.5" y="-62" font-family="Helvetica,sans-Serif" font-size="10.00">atomic</text>
</a>
</g>
</g>
<!-- Node15&#45;&gt;Node16 -->
<g id="edge27_Node000015_Node000016" class="edge">
<title>Node15&#45;&gt;Node16</title>
<g id="a_edge27_Node000015_Node000016"><a xlink:title=" ">
<path fill="none" stroke="#63b8ff" d="M1060.9,-109.98C1051.04,-102.07 1036.15,-90.11 1024.28,-80.58"/>
<polygon fill="#63b8ff" stroke="#63b8ff" points="1026.29,-77.7 1016.3,-74.17 1021.9,-83.16 1026.29,-77.7"/>
</a>
</g>
</g>
<!-- Node17 -->
<g id="Node000017" class="node">
<title>Node17</title>
<g id="a_Node000017"><a xlink:title=" ">
<polygon fill="#e0e0e0" stroke="#999999" points="1094.5,-74 1048.5,-74 1048.5,-55 1094.5,-55 1094.5,-74"/>
<text text-anchor="middle" x="1071.5" y="-62" font-family="Helvetica,sans-Serif" font-size="10.00">cstdio</text>
</a>
</g>
</g>
<!-- Node15&#45;&gt;Node17 -->
<g id="edge28_Node000015_Node000017" class="edge">
<title>Node15&#45;&gt;Node17</title>
<g id="a_edge28_Node000015_Node000017"><a xlink:title=" ">
<path fill="none" stroke="#63b8ff" d="M1071.5,-109.75C1071.5,-102.8 1071.5,-92.85 1071.5,-84.13"/>
<polygon fill="#63b8ff" stroke="#63b8ff" points="1075,-84.09 1071.5,-74.09 1068,-84.09 1075,-84.09"/>
</a>
</g>
</g>
<!-- Node18 -->
<g id="Node000018" class="node">
<title>Node18</title>
<g id="a_Node000018"><a xlink:title=" ">
<polygon fill="#e0e0e0" stroke="#999999" points="1162,-74 1113,-74 1113,-55 1162,-55 1162,-74"/>
<text text-anchor="middle" x="1137.5" y="-62" font-family="Helvetica,sans-Serif" font-size="10.00">cstdlib</text>
</a>
</g>
</g>
<!-- Node15&#45;&gt;Node18 -->
<g id="edge29_Node000015_Node000018" class="edge">
<title>Node15&#45;&gt;Node18</title>
<g id="a_edge29_Node000015_Node000018"><a xlink:title=" ">
<path fill="none" stroke="#63b8ff" d="M1082.1,-109.98C1091.96,-102.07 1106.85,-90.11 1118.72,-80.58"/>
<polygon fill="#63b8ff" stroke="#63b8ff" points="1121.1,-83.16 1126.7,-74.17 1116.71,-77.7 1121.1,-83.16"/>
</a>
</g>
</g>
<!-- Node19 -->
<g id="Node000019" class="node">
<title>Node19</title>
<g id="a_Node000019"><a xlink:title=" ">
<polygon fill="#e0e0e0" stroke="#999999" points="1240.5,-74 1180.5,-74 1180.5,-55 1240.5,-55 1240.5,-74"/>
<text text-anchor="middle" x="1210.5" y="-62" font-family="Helvetica,sans-Serif" font-size="10.00">iostream</text>
</a>
</g>
</g>
<!-- Node15&#45;&gt;Node19 -->
<g id="edge30_Node000015_Node000019" class="edge">
<title>Node15&#45;&gt;Node19</title>
<g id="a_edge30_Node000015_Node000019"><a xlink:title=" ">
<path fill="none" stroke="#63b8ff" d="M1093.83,-109.98C1116.7,-101.27 1152.46,-87.63 1178.36,-77.75"/>
<polygon fill="#63b8ff" stroke="#63b8ff" points="1179.66,-81 1187.76,-74.17 1177.17,-74.46 1179.66,-81"/>
</a>
</g>
</g>
<!-- Node20 -->
<g id="Node000020" class="node">
<title>Node20</title>
<g id="a_Node000020"><a xlink:href="../../df/def/type_8h.html" target="_top" xlink:title=" ">
<polygon fill="white" stroke="#666666" points="1368.5,-74 1296.5,-74 1296.5,-55 1368.5,-55 1368.5,-74"/>
<text text-anchor="middle" x="1332.5" y="-62" font-family="Helvetica,sans-Serif" font-size="10.00">type/type.h</text>
</a>
</g>
</g>
<!-- Node15&#45;&gt;Node20 -->
<g id="edge34_Node000015_Node000020" class="edge">
<title>Node15&#45;&gt;Node20</title>
<g id="a_edge34_Node000015_Node000020"><a xlink:title=" ">
<path fill="none" stroke="#63b8ff" d="M1113.43,-109.98C1160.65,-100.4 1237.17,-84.86 1286.13,-74.92"/>
<polygon fill="#63b8ff" stroke="#63b8ff" points="1287.04,-78.3 1296.14,-72.88 1285.65,-71.44 1287.04,-78.3"/>
</a>
</g>
</g>
<!-- Node20&#45;&gt;Node4 -->
<g id="edge36_Node000020_Node000004" class="edge">
<title>Node20&#45;&gt;Node4</title>
<g id="a_edge36_Node000020_Node000004"><a xlink:title=" ">
<path fill="none" stroke="#63b8ff" d="M1296.48,-57.19C1291.78,-56.42 1287.03,-55.67 1282.5,-55 1166.23,-37.71 1027.55,-21.27 965.85,-14.17"/>
<polygon fill="#63b8ff" stroke="#63b8ff" points="965.93,-10.66 955.59,-12.99 965.13,-17.61 965.93,-10.66"/>
</a>
</g>
</g>
<!-- Node21 -->
<g id="Node000021" class="node">
<title>Node21</title>
<g id="a_Node000021"><a xlink:title=" ">
<polygon fill="#e0e0e0" stroke="#999999" points="1314.5,-19 1264.5,-19 1264.5,0 1314.5,0 1314.5,-19"/>
<text text-anchor="middle" x="1289.5" y="-7" font-family="Helvetica,sans-Serif" font-size="10.00">cstdint</text>
</a>
</g>
</g>
<!-- Node20&#45;&gt;Node21 -->
<g id="edge35_Node000020_Node000021" class="edge">
<title>Node20&#45;&gt;Node21</title>
<g id="a_edge35_Node000020_Node000021"><a xlink:title=" ">
<path fill="none" stroke="#63b8ff" d="M1325.4,-54.75C1319.33,-47.26 1310.41,-36.28 1302.99,-27.13"/>
<polygon fill="#63b8ff" stroke="#63b8ff" points="1305.49,-24.65 1296.47,-19.09 1300.05,-29.06 1305.49,-24.65"/>
</a>
</g>
</g>
<!-- Node22 -->
<g id="Node000022" class="node">
<title>Node22</title>
<g id="a_Node000022"><a xlink:href="../../dc/df2/type__id_8h.html" target="_top" xlink:title=" ">
<polygon fill="white" stroke="#666666" points="1418.5,-19 1332.5,-19 1332.5,0 1418.5,0 1418.5,-19"/>
<text text-anchor="middle" x="1375.5" y="-7" font-family="Helvetica,sans-Serif" font-size="10.00">type/type_id.h</text>
</a>
</g>
</g>
<!-- Node20&#45;&gt;Node22 -->
<g id="edge37_Node000020_Node000022" class="edge">
<title>Node20&#45;&gt;Node22</title>
<g id="a_edge37_Node000020_Node000022"><a xlink:title=" ">
<path fill="none" stroke="#63b8ff" d="M1339.6,-54.75C1345.67,-47.26 1354.59,-36.28 1362.01,-27.13"/>
<polygon fill="#63b8ff" stroke="#63b8ff" points="1364.95,-29.06 1368.53,-19.09 1359.51,-24.65 1364.95,-29.06"/>
</a>
</g>
</g>
</g>
</svg>
