<?xml version="1.0" encoding="UTF-8" standalone="no"?>
<!DOCTYPE svg PUBLIC "-//W3C//DTD SVG 1.1//EN"
 "http://www.w3.org/Graphics/SVG/1.1/DTD/svg11.dtd">
<!-- Generated by graphviz version 2.43.0 (0)
 -->
<!-- Title: src/include/binder/expressions/bound_unary_op.h Pages: 1 -->
<svg width="644pt" height="104pt"
 viewBox="0.00 0.00 644.00 104.00" xmlns="http://www.w3.org/2000/svg" xmlns:xlink="http://www.w3.org/1999/xlink">
<g id="graph0" class="graph" transform="scale(1 1) rotate(0) translate(4 100)">
<title>src/include/binder/expressions/bound_unary_op.h</title>
<!-- Node1 -->
<g id="Node000001" class="node">
<title>Node1</title>
<g id="a_Node000001"><a xlink:title=" ">
<polygon fill="#999999" stroke="#666666" points="407.5,-96 237.5,-96 237.5,-66 407.5,-66 407.5,-96"/>
<text text-anchor="start" x="245.5" y="-84" font-family="Helvetica,sans-Serif" font-size="10.00">src/include/binder</text>
<text text-anchor="middle" x="322.5" y="-73" font-family="Helvetica,sans-Serif" font-size="10.00">/expressions/bound_unary_op.h</text>
</a>
</g>
</g>
<!-- Node2 -->
<g id="Node000002" class="node">
<title>Node2</title>
<g id="a_Node000002"><a xlink:href="../../db/d4b/bind__create_8cpp.html" target="_top" xlink:title=" ">
<polygon fill="white" stroke="#666666" points="145,-24.5 0,-24.5 0,-5.5 145,-5.5 145,-24.5"/>
<text text-anchor="middle" x="72.5" y="-12.5" font-family="Helvetica,sans-Serif" font-size="10.00">src/binder/bind_create.cpp</text>
</a>
</g>
</g>
<!-- Node1&#45;&gt;Node2 -->
<g id="edge1_Node000001_Node000002" class="edge">
<title>Node1&#45;&gt;Node2</title>
<g id="a_edge1_Node000001_Node000002"><a xlink:title=" ">
<path fill="none" stroke="#63b8ff" d="M257.82,-63.44C209.15,-50.98 144.44,-34.42 105.77,-24.52"/>
<polygon fill="#63b8ff" stroke="#63b8ff" points="257.08,-66.87 267.64,-65.95 258.82,-60.08 257.08,-66.87"/>
</a>
</g>
</g>
<!-- Node3 -->
<g id="Node000003" class="node">
<title>Node3</title>
<g id="a_Node000003"><a xlink:href="../../d7/d35/bind__select_8cpp.html" target="_top" xlink:title=" ">
<polygon fill="white" stroke="#666666" points="306,-24.5 163,-24.5 163,-5.5 306,-5.5 306,-24.5"/>
<text text-anchor="middle" x="234.5" y="-12.5" font-family="Helvetica,sans-Serif" font-size="10.00">src/binder/bind_select.cpp</text>
</a>
</g>
</g>
<!-- Node1&#45;&gt;Node3 -->
<g id="edge2_Node000001_Node000003" class="edge">
<title>Node1&#45;&gt;Node3</title>
<g id="a_edge2_Node000001_Node000003"><a xlink:title=" ">
<path fill="none" stroke="#63b8ff" d="M294.83,-59.87C278.54,-48.03 258.77,-33.65 246.41,-24.66"/>
<polygon fill="#63b8ff" stroke="#63b8ff" points="292.82,-62.75 302.97,-65.8 296.94,-57.08 292.82,-62.75"/>
</a>
</g>
</g>
<!-- Node4 -->
<g id="Node000004" class="node">
<title>Node4</title>
<g id="a_Node000004"><a xlink:href="../../d0/d29/plan__expression_8cpp.html" target="_top" xlink:title=" ">
<polygon fill="white" stroke="#666666" points="497,-24.5 324,-24.5 324,-5.5 497,-5.5 497,-24.5"/>
<text text-anchor="middle" x="410.5" y="-12.5" font-family="Helvetica,sans-Serif" font-size="10.00">src/planner/plan_expression.cpp</text>
</a>
</g>
</g>
<!-- Node1&#45;&gt;Node4 -->
<g id="edge3_Node000001_Node000004" class="edge">
<title>Node1&#45;&gt;Node4</title>
<g id="a_edge3_Node000001_Node000004"><a xlink:title=" ">
<path fill="none" stroke="#63b8ff" d="M350.17,-59.87C366.46,-48.03 386.23,-33.65 398.59,-24.66"/>
<polygon fill="#63b8ff" stroke="#63b8ff" points="348.06,-57.08 342.03,-65.8 352.18,-62.75 348.06,-57.08"/>
</a>
</g>
</g>
<!-- Node5 -->
<g id="Node000005" class="node">
<title>Node5</title>
<g id="a_Node000005"><a xlink:href="../../d6/da3/plan__func__call_8cpp.html" target="_top" xlink:title=" ">
<polygon fill="white" stroke="#666666" points="636,-30 515,-30 515,0 636,0 636,-30"/>
<text text-anchor="start" x="523" y="-18" font-family="Helvetica,sans-Serif" font-size="10.00">src/planner/plan_func</text>
<text text-anchor="middle" x="575.5" y="-7" font-family="Helvetica,sans-Serif" font-size="10.00">_call.cpp</text>
</a>
</g>
</g>
<!-- Node1&#45;&gt;Node5 -->
<g id="edge4_Node000001_Node000005" class="edge">
<title>Node1&#45;&gt;Node5</title>
<g id="a_edge4_Node000001_Node000005"><a xlink:title=" ">
<path fill="none" stroke="#63b8ff" d="M387.92,-63.45C428.91,-53.08 481.17,-39.86 520.11,-30.01"/>
<polygon fill="#63b8ff" stroke="#63b8ff" points="386.86,-60.11 378.02,-65.95 388.57,-66.9 386.86,-60.11"/>
</a>
</g>
</g>
</g>
</svg>
