<?xml version="1.0" encoding="UTF-8" standalone="no"?>
<!DOCTYPE svg PUBLIC "-//W3C//DTD SVG 1.1//EN"
 "http://www.w3.org/Graphics/SVG/1.1/DTD/svg11.dtd">
<!-- Generated by graphviz version 2.43.0 (0)
 -->
<!-- Title: src/include/binder/binder.h Pages: 1 -->
<svg width="1872pt" height="104pt"
 viewBox="0.00 0.00 1872.00 104.00" xmlns="http://www.w3.org/2000/svg" xmlns:xlink="http://www.w3.org/1999/xlink">
<g id="graph0" class="graph" transform="scale(1 1) rotate(0) translate(4 100)">
<title>src/include/binder/binder.h</title>
<!-- Node1 -->
<g id="Node000001" class="node">
<title>Node1</title>
<g id="a_Node000001"><a xlink:title=" ">
<polygon fill="#999999" stroke="#666666" points="980,-96 877,-96 877,-66 980,-66 980,-96"/>
<text text-anchor="start" x="885" y="-84" font-family="Helvetica,sans-Serif" font-size="10.00">src/include/binder</text>
<text text-anchor="middle" x="928.5" y="-73" font-family="Helvetica,sans-Serif" font-size="10.00">/binder.h</text>
</a>
</g>
</g>
<!-- Node2 -->
<g id="Node000002" class="node">
<title>Node2</title>
<g id="a_Node000002"><a xlink:href="../../db/d4b/bind__create_8cpp.html" target="_top" xlink:title=" ">
<polygon fill="white" stroke="#666666" points="145,-24.5 0,-24.5 0,-5.5 145,-5.5 145,-24.5"/>
<text text-anchor="middle" x="72.5" y="-12.5" font-family="Helvetica,sans-Serif" font-size="10.00">src/binder/bind_create.cpp</text>
</a>
</g>
</g>
<!-- Node1&#45;&gt;Node2 -->
<g id="edge1_Node000001_Node000002" class="edge">
<title>Node1&#45;&gt;Node2</title>
<g id="a_edge1_Node000001_Node000002"><a xlink:title=" ">
<path fill="none" stroke="#63b8ff" d="M866.42,-78.19C734.8,-73.88 418.18,-60.94 154.5,-30 142.45,-28.59 129.48,-26.59 117.49,-24.55"/>
<polygon fill="#63b8ff" stroke="#63b8ff" points="866.59,-81.7 876.7,-78.53 866.82,-74.7 866.59,-81.7"/>
</a>
</g>
</g>
<!-- Node3 -->
<g id="Node000003" class="node">
<title>Node3</title>
<g id="a_Node000003"><a xlink:href="../../d9/d88/bind__insert_8cpp.html" target="_top" xlink:title=" ">
<polygon fill="white" stroke="#666666" points="305.5,-24.5 163.5,-24.5 163.5,-5.5 305.5,-5.5 305.5,-24.5"/>
<text text-anchor="middle" x="234.5" y="-12.5" font-family="Helvetica,sans-Serif" font-size="10.00">src/binder/bind_insert.cpp</text>
</a>
</g>
</g>
<!-- Node1&#45;&gt;Node3 -->
<g id="edge2_Node000001_Node000003" class="edge">
<title>Node1&#45;&gt;Node3</title>
<g id="a_edge2_Node000001_Node000003"><a xlink:title=" ">
<path fill="none" stroke="#63b8ff" d="M866.99,-76.87C756.2,-70.81 515.88,-55.76 314.5,-30 302.89,-28.51 290.4,-26.52 278.82,-24.5"/>
<polygon fill="#63b8ff" stroke="#63b8ff" points="866.81,-80.36 876.99,-77.41 867.19,-73.37 866.81,-80.36"/>
</a>
</g>
</g>
<!-- Node4 -->
<g id="Node000004" class="node">
<title>Node4</title>
<g id="a_Node000004"><a xlink:href="../../d7/d35/bind__select_8cpp.html" target="_top" xlink:title=" ">
<polygon fill="white" stroke="#666666" points="467,-24.5 324,-24.5 324,-5.5 467,-5.5 467,-24.5"/>
<text text-anchor="middle" x="395.5" y="-12.5" font-family="Helvetica,sans-Serif" font-size="10.00">src/binder/bind_select.cpp</text>
</a>
</g>
</g>
<!-- Node1&#45;&gt;Node4 -->
<g id="edge3_Node000001_Node000004" class="edge">
<title>Node1&#45;&gt;Node4</title>
<g id="a_edge3_Node000001_Node000004"><a xlink:title=" ">
<path fill="none" stroke="#63b8ff" d="M866.87,-74.38C779.73,-66.17 615.61,-49.7 476.5,-30 465.34,-28.42 453.35,-26.48 442.11,-24.56"/>
<polygon fill="#63b8ff" stroke="#63b8ff" points="866.57,-77.87 876.85,-75.32 867.22,-70.9 866.57,-77.87"/>
</a>
</g>
</g>
<!-- Node5 -->
<g id="Node000005" class="node">
<title>Node5</title>
<g id="a_Node000005"><a xlink:href="../../db/db0/bind__variable_8cpp.html" target="_top" xlink:title=" ">
<polygon fill="white" stroke="#666666" points="639.5,-24.5 485.5,-24.5 485.5,-5.5 639.5,-5.5 639.5,-24.5"/>
<text text-anchor="middle" x="562.5" y="-12.5" font-family="Helvetica,sans-Serif" font-size="10.00">src/binder/bind_variable.cpp</text>
</a>
</g>
</g>
<!-- Node1&#45;&gt;Node5 -->
<g id="edge4_Node000001_Node000005" class="edge">
<title>Node1&#45;&gt;Node5</title>
<g id="a_edge4_Node000001_Node000005"><a xlink:title=" ">
<path fill="none" stroke="#63b8ff" d="M866.55,-69.17C794.52,-56.57 677.13,-36.04 611.27,-24.53"/>
<polygon fill="#63b8ff" stroke="#63b8ff" points="866.38,-72.69 876.84,-70.97 867.59,-65.8 866.38,-72.69"/>
</a>
</g>
</g>
<!-- Node6 -->
<g id="Node000006" class="node">
<title>Node6</title>
<g id="a_Node000006"><a xlink:href="../../dc/de9/binder_8cpp.html" target="_top" xlink:title=" ">
<polygon fill="white" stroke="#666666" points="775.5,-24.5 657.5,-24.5 657.5,-5.5 775.5,-5.5 775.5,-24.5"/>
<text text-anchor="middle" x="716.5" y="-12.5" font-family="Helvetica,sans-Serif" font-size="10.00">src/binder/binder.cpp</text>
</a>
</g>
</g>
<!-- Node1&#45;&gt;Node6 -->
<g id="edge5_Node000001_Node000006" class="edge">
<title>Node1&#45;&gt;Node6</title>
<g id="a_edge5_Node000001_Node000006"><a xlink:title=" ">
<path fill="none" stroke="#63b8ff" d="M872.35,-63.05C831.24,-50.64 777.16,-34.31 744.71,-24.52"/>
<polygon fill="#63b8ff" stroke="#63b8ff" points="871.39,-66.42 881.98,-65.95 873.41,-59.71 871.39,-66.42"/>
</a>
</g>
</g>
<!-- Node7 -->
<g id="Node000007" class="node">
<title>Node7</title>
<g id="a_Node000007"><a xlink:href="../../d9/d02/binder_2fmt__impl_8cpp.html" target="_top" xlink:title=" ">
<polygon fill="white" stroke="#666666" points="925.5,-24.5 793.5,-24.5 793.5,-5.5 925.5,-5.5 925.5,-24.5"/>
<text text-anchor="middle" x="859.5" y="-12.5" font-family="Helvetica,sans-Serif" font-size="10.00">src/binder/fmt_impl.cpp</text>
</a>
</g>
</g>
<!-- Node1&#45;&gt;Node7 -->
<g id="edge6_Node000001_Node000007" class="edge">
<title>Node1&#45;&gt;Node7</title>
<g id="a_edge6_Node000001_Node000007"><a xlink:title=" ">
<path fill="none" stroke="#63b8ff" d="M905.79,-58.93C893.3,-47.35 878.48,-33.61 869.04,-24.84"/>
<polygon fill="#63b8ff" stroke="#63b8ff" points="903.47,-61.56 913.19,-65.8 908.24,-56.43 903.47,-61.56"/>
</a>
</g>
</g>
<!-- Node8 -->
<g id="Node000008" class="node">
<title>Node8</title>
<g id="a_Node000008"><a xlink:href="../../d3/d6b/keyword__helper_8cpp.html" target="_top" xlink:title=" ">
<polygon fill="white" stroke="#666666" points="1053,-30 944,-30 944,0 1053,0 1053,-30"/>
<text text-anchor="start" x="952" y="-18" font-family="Helvetica,sans-Serif" font-size="10.00">src/binder/keyword</text>
<text text-anchor="middle" x="998.5" y="-7" font-family="Helvetica,sans-Serif" font-size="10.00">_helper.cpp</text>
</a>
</g>
</g>
<!-- Node1&#45;&gt;Node8 -->
<g id="edge7_Node000001_Node000008" class="edge">
<title>Node1&#45;&gt;Node8</title>
<g id="a_edge7_Node000001_Node000008"><a xlink:title=" ">
<path fill="none" stroke="#63b8ff" d="M951.55,-58.92C961.87,-49.49 973.77,-38.61 983.01,-30.16"/>
<polygon fill="#63b8ff" stroke="#63b8ff" points="949.05,-56.47 944.04,-65.8 953.78,-61.63 949.05,-56.47"/>
</a>
</g>
</g>
<!-- Node9 -->
<g id="Node000009" class="node">
<title>Node9</title>
<g id="a_Node000009"><a xlink:href="../../d5/db7/node__tag__to__string_8cpp.html" target="_top" xlink:title=" ">
<polygon fill="white" stroke="#666666" points="1184,-30 1071,-30 1071,0 1184,0 1184,-30"/>
<text text-anchor="start" x="1079" y="-18" font-family="Helvetica,sans-Serif" font-size="10.00">src/binder/node_tag</text>
<text text-anchor="middle" x="1127.5" y="-7" font-family="Helvetica,sans-Serif" font-size="10.00">_to_string.cpp</text>
</a>
</g>
</g>
<!-- Node1&#45;&gt;Node9 -->
<g id="edge8_Node000001_Node000009" class="edge">
<title>Node1&#45;&gt;Node9</title>
<g id="a_edge8_Node000001_Node000009"><a xlink:title=" ">
<path fill="none" stroke="#63b8ff" d="M981.81,-62.86C1013.76,-52.58 1053.88,-39.68 1083.93,-30.01"/>
<polygon fill="#63b8ff" stroke="#63b8ff" points="980.62,-59.56 972.17,-65.95 982.76,-66.23 980.62,-59.56"/>
</a>
</g>
</g>
<!-- Node10 -->
<g id="Node000010" class="node">
<title>Node10</title>
<g id="a_Node000010"><a xlink:href="../../d1/d11/explain__statement_8cpp.html" target="_top" xlink:title=" ">
<polygon fill="white" stroke="#666666" points="1333,-30 1202,-30 1202,0 1333,0 1333,-30"/>
<text text-anchor="start" x="1210" y="-18" font-family="Helvetica,sans-Serif" font-size="10.00">src/binder/statement</text>
<text text-anchor="middle" x="1267.5" y="-7" font-family="Helvetica,sans-Serif" font-size="10.00">/explain_statement.cpp</text>
</a>
</g>
</g>
<!-- Node1&#45;&gt;Node10 -->
<g id="edge9_Node000001_Node000010" class="edge">
<title>Node1&#45;&gt;Node10</title>
<g id="a_edge9_Node000001_Node000010"><a xlink:title=" ">
<path fill="none" stroke="#63b8ff" d="M990.34,-68.34C1044.05,-58.21 1123.92,-43.15 1193.5,-30 1196.2,-29.49 1198.95,-28.97 1201.73,-28.44"/>
<polygon fill="#63b8ff" stroke="#63b8ff" points="989.47,-64.94 980.3,-70.24 990.77,-71.82 989.47,-64.94"/>
</a>
</g>
</g>
<!-- Node11 -->
<g id="Node000011" class="node">
<title>Node11</title>
<g id="a_Node000011"><a xlink:href="../../df/d93/transformer_8cpp.html" target="_top" xlink:title=" ">
<polygon fill="white" stroke="#666666" points="1496,-24.5 1351,-24.5 1351,-5.5 1496,-5.5 1496,-24.5"/>
<text text-anchor="middle" x="1423.5" y="-12.5" font-family="Helvetica,sans-Serif" font-size="10.00">src/binder/transformer.cpp</text>
</a>
</g>
</g>
<!-- Node1&#45;&gt;Node11 -->
<g id="edge10_Node000001_Node000011" class="edge">
<title>Node1&#45;&gt;Node11</title>
<g id="a_edge10_Node000001_Node000011"><a xlink:title=" ">
<path fill="none" stroke="#63b8ff" d="M990.28,-73.53C1071.3,-64.82 1217.82,-48.29 1342.5,-30 1353.51,-28.38 1365.34,-26.45 1376.45,-24.55"/>
<polygon fill="#63b8ff" stroke="#63b8ff" points="989.82,-70.06 980.25,-74.61 990.56,-77.02 989.82,-70.06"/>
</a>
</g>
</g>
<!-- Node12 -->
<g id="Node000012" class="node">
<title>Node12</title>
<g id="a_Node000012"><a xlink:href="../../dc/de0/bustub__ddl_8cpp.html" target="_top" xlink:title=" ">
<polygon fill="white" stroke="#666666" points="1667,-24.5 1514,-24.5 1514,-5.5 1667,-5.5 1667,-24.5"/>
<text text-anchor="middle" x="1590.5" y="-12.5" font-family="Helvetica,sans-Serif" font-size="10.00">src/common/bustub_ddl.cpp</text>
</a>
</g>
</g>
<!-- Node1&#45;&gt;Node12 -->
<g id="edge11_Node000001_Node000012" class="edge">
<title>Node1&#45;&gt;Node12</title>
<g id="a_edge11_Node000001_Node000012"><a xlink:title=" ">
<path fill="none" stroke="#63b8ff" d="M990.55,-76.19C1096.43,-69.34 1318.67,-53.45 1505.5,-30 1517.52,-28.49 1530.44,-26.54 1542.49,-24.57"/>
<polygon fill="#63b8ff" stroke="#63b8ff" points="990.12,-72.71 980.36,-76.85 990.57,-79.7 990.12,-72.71"/>
</a>
</g>
</g>
<!-- Node13 -->
<g id="Node000013" class="node">
<title>Node13</title>
<g id="a_Node000013"><a xlink:href="../../da/d08/bustub__instance_8cpp.html" target="_top" xlink:title=" ">
<polygon fill="white" stroke="#666666" points="1864,-24.5 1685,-24.5 1685,-5.5 1864,-5.5 1864,-24.5"/>
<text text-anchor="middle" x="1774.5" y="-12.5" font-family="Helvetica,sans-Serif" font-size="10.00">src/common/bustub_instance.cpp</text>
</a>
</g>
</g>
<!-- Node1&#45;&gt;Node13 -->
<g id="edge12_Node000001_Node000013" class="edge">
<title>Node1&#45;&gt;Node13</title>
<g id="a_edge12_Node000001_Node000013"><a xlink:title=" ">
<path fill="none" stroke="#63b8ff" d="M990.33,-77.44C1118.53,-71.79 1422.55,-56.59 1676.5,-30 1690.69,-28.51 1705.98,-26.52 1720.16,-24.5"/>
<polygon fill="#63b8ff" stroke="#63b8ff" points="990.14,-73.95 980.3,-77.88 990.45,-80.94 990.14,-73.95"/>
</a>
</g>
</g>
</g>
</svg>
