<?xml version="1.0" encoding="UTF-8" standalone="no"?>
<!DOCTYPE svg PUBLIC "-//W3C//DTD SVG 1.1//EN"
 "http://www.w3.org/Graphics/SVG/1.1/DTD/svg11.dtd">
<!-- Generated by graphviz version 2.43.0 (0)
 -->
<!-- Title: src/type/decimal_type.cpp Pages: 1 -->
<svg width="1112pt" height="302pt"
 viewBox="0.00 0.00 1112.00 302.00" xmlns="http://www.w3.org/2000/svg" xmlns:xlink="http://www.w3.org/1999/xlink">
<g id="graph0" class="graph" transform="scale(1 1) rotate(0) translate(4 298)">
<title>src/type/decimal_type.cpp</title>
<!-- Node1 -->
<g id="Node000001" class="node">
<title>Node1</title>
<g id="a_Node000001"><a xlink:title=" ">
<polygon fill="#999999" stroke="#666666" points="314.5,-294 169.5,-294 169.5,-275 314.5,-275 314.5,-294"/>
<text text-anchor="middle" x="242" y="-282" font-family="Helvetica,sans-Serif" font-size="10.00">src/type/decimal_type.cpp</text>
</a>
</g>
</g>
<!-- Node2 -->
<g id="Node000002" class="node">
<title>Node2</title>
<g id="a_Node000002"><a xlink:title=" ">
<polygon fill="#e0e0e0" stroke="#999999" points="52,-239 0,-239 0,-220 52,-220 52,-239"/>
<text text-anchor="middle" x="26" y="-227" font-family="Helvetica,sans-Serif" font-size="10.00">cassert</text>
</a>
</g>
</g>
<!-- Node1&#45;&gt;Node2 -->
<g id="edge1_Node000001_Node000002" class="edge">
<title>Node1&#45;&gt;Node2</title>
<g id="a_edge1_Node000001_Node000002"><a xlink:title=" ">
<path fill="none" stroke="#63b8ff" d="M207.3,-274.98C167.47,-265.21 102.48,-249.27 62.08,-239.35"/>
<polygon fill="#63b8ff" stroke="#63b8ff" points="62.67,-235.89 52.13,-236.91 61,-242.69 62.67,-235.89"/>
</a>
</g>
</g>
<!-- Node3 -->
<g id="Node000003" class="node">
<title>Node3</title>
<g id="a_Node000003"><a xlink:title=" ">
<polygon fill="#e0e0e0" stroke="#999999" points="798.5,-129 751.5,-129 751.5,-110 798.5,-110 798.5,-129"/>
<text text-anchor="middle" x="775" y="-117" font-family="Helvetica,sans-Serif" font-size="10.00">cmath</text>
</a>
</g>
</g>
<!-- Node1&#45;&gt;Node3 -->
<g id="edge2_Node000001_Node000003" class="edge">
<title>Node1&#45;&gt;Node3</title>
<g id="a_edge2_Node000001_Node000003"><a xlink:title=" ">
<path fill="none" stroke="#63b8ff" d="M314.72,-277.86C384.41,-271.56 492.25,-259.46 584,-239 662.33,-221.53 699.78,-241.28 756,-184 767.7,-172.08 772.24,-153.25 773.98,-139.19"/>
<polygon fill="#63b8ff" stroke="#63b8ff" points="777.47,-139.42 774.86,-129.16 770.5,-138.82 777.47,-139.42"/>
</a>
</g>
</g>
<!-- Node4 -->
<g id="Node000004" class="node">
<title>Node4</title>
<g id="a_Node000004"><a xlink:title=" ">
<polygon fill="#e0e0e0" stroke="#999999" points="168,-74 108,-74 108,-55 168,-55 168,-74"/>
<text text-anchor="middle" x="138" y="-62" font-family="Helvetica,sans-Serif" font-size="10.00">iostream</text>
</a>
</g>
</g>
<!-- Node1&#45;&gt;Node4 -->
<g id="edge3_Node000001_Node000004" class="edge">
<title>Node1&#45;&gt;Node4</title>
<g id="a_edge3_Node000001_Node000004"><a xlink:title=" ">
<path fill="none" stroke="#63b8ff" d="M237.92,-274.95C222.52,-242.67 167.7,-127.75 146.47,-83.26"/>
<polygon fill="#63b8ff" stroke="#63b8ff" points="149.63,-81.74 142.16,-74.22 143.31,-84.76 149.63,-81.74"/>
</a>
</g>
</g>
<!-- Node5 -->
<g id="Node000005" class="node">
<title>Node5</title>
<g id="a_Node000005"><a xlink:title=" ">
<polygon fill="#e0e0e0" stroke="#999999" points="539,-19 495,-19 495,0 539,0 539,-19"/>
<text text-anchor="middle" x="517" y="-7" font-family="Helvetica,sans-Serif" font-size="10.00">string</text>
</a>
</g>
</g>
<!-- Node1&#45;&gt;Node5 -->
<g id="edge4_Node000001_Node000005" class="edge">
<title>Node1&#45;&gt;Node5</title>
<g id="a_edge4_Node000001_Node000005"><a xlink:title=" ">
<path fill="none" stroke="#63b8ff" d="M200.7,-274.92C152.7,-262.24 80,-233.47 80,-175.5 80,-175.5 80,-175.5 80,-118.5 80,-89.04 76.34,-73.82 99,-55 128.53,-30.47 391.92,-16.2 484.77,-11.9"/>
<polygon fill="#63b8ff" stroke="#63b8ff" points="485.14,-15.38 494.98,-11.43 484.83,-8.39 485.14,-15.38"/>
</a>
</g>
</g>
<!-- Node6 -->
<g id="Node000006" class="node">
<title>Node6</title>
<g id="a_Node000006"><a xlink:href="../../dd/d2d/exception_8h.html" target="_top" xlink:title=" ">
<polygon fill="white" stroke="#666666" points="402.5,-129 283.5,-129 283.5,-110 402.5,-110 402.5,-129"/>
<text text-anchor="middle" x="343" y="-117" font-family="Helvetica,sans-Serif" font-size="10.00">common/exception.h</text>
</a>
</g>
</g>
<!-- Node1&#45;&gt;Node6 -->
<g id="edge5_Node000001_Node000006" class="edge">
<title>Node1&#45;&gt;Node6</title>
<g id="a_edge5_Node000001_Node000006"><a xlink:title=" ">
<path fill="none" stroke="#63b8ff" d="M247.43,-274.74C263.46,-248.87 310.79,-172.48 332.23,-137.88"/>
<polygon fill="#63b8ff" stroke="#63b8ff" points="335.25,-139.65 337.54,-129.31 329.3,-135.96 335.25,-139.65"/>
</a>
</g>
</g>
<!-- Node15 -->
<g id="Node000015" class="node">
<title>Node15</title>
<g id="a_Node000015"><a xlink:href="../../d6/dcc/decimal__type_8h.html" target="_top" xlink:title=" ">
<polygon fill="white" stroke="#666666" points="575,-239 459,-239 459,-220 575,-220 575,-239"/>
<text text-anchor="middle" x="517" y="-227" font-family="Helvetica,sans-Serif" font-size="10.00">type/decimal_type.h</text>
</a>
</g>
</g>
<!-- Node1&#45;&gt;Node15 -->
<g id="edge17_Node000001_Node000015" class="edge">
<title>Node1&#45;&gt;Node15</title>
<g id="a_edge17_Node000001_Node000015"><a xlink:title=" ">
<path fill="none" stroke="#63b8ff" d="M286.18,-274.98C334.15,-265.74 410.81,-250.97 462.48,-241.01"/>
<polygon fill="#63b8ff" stroke="#63b8ff" points="463.31,-244.41 472.47,-239.08 461.99,-237.54 463.31,-244.41"/>
</a>
</g>
</g>
<!-- Node6&#45;&gt;Node4 -->
<g id="edge9_Node000006_Node000004" class="edge">
<title>Node6&#45;&gt;Node4</title>
<g id="a_edge9_Node000006_Node000004"><a xlink:title=" ">
<path fill="none" stroke="#63b8ff" d="M310.06,-109.98C274.11,-100.69 216.55,-85.81 178.03,-75.85"/>
<polygon fill="#63b8ff" stroke="#63b8ff" points="178.74,-72.42 168.18,-73.3 176.99,-79.2 178.74,-72.42"/>
</a>
</g>
</g>
<!-- Node6&#45;&gt;Node5 -->
<g id="edge12_Node000006_Node000005" class="edge">
<title>Node6&#45;&gt;Node5</title>
<g id="a_edge12_Node000006_Node000005"><a xlink:title=" ">
<path fill="none" stroke="#63b8ff" d="M377.84,-109.97C402.27,-102.91 434.91,-91.21 460,-74 478.44,-61.35 494.95,-41.54 505.39,-27.41"/>
<polygon fill="#63b8ff" stroke="#63b8ff" points="508.38,-29.26 511.34,-19.08 502.68,-25.19 508.38,-29.26"/>
</a>
</g>
</g>
<!-- Node7 -->
<g id="Node000007" class="node">
<title>Node7</title>
<g id="a_Node000007"><a xlink:title=" ">
<polygon fill="#e0e0e0" stroke="#999999" points="236,-74 186,-74 186,-55 236,-55 236,-74"/>
<text text-anchor="middle" x="211" y="-62" font-family="Helvetica,sans-Serif" font-size="10.00">atomic</text>
</a>
</g>
</g>
<!-- Node6&#45;&gt;Node7 -->
<g id="edge6_Node000006_Node000007" class="edge">
<title>Node6&#45;&gt;Node7</title>
<g id="a_edge6_Node000006_Node000007"><a xlink:title=" ">
<path fill="none" stroke="#63b8ff" d="M321.79,-109.98C300.27,-101.34 266.72,-87.87 242.17,-78.02"/>
<polygon fill="#63b8ff" stroke="#63b8ff" points="243.18,-74.65 232.59,-74.17 240.57,-81.14 243.18,-74.65"/>
</a>
</g>
</g>
<!-- Node8 -->
<g id="Node000008" class="node">
<title>Node8</title>
<g id="a_Node000008"><a xlink:title=" ">
<polygon fill="#e0e0e0" stroke="#999999" points="300,-74 254,-74 254,-55 300,-55 300,-74"/>
<text text-anchor="middle" x="277" y="-62" font-family="Helvetica,sans-Serif" font-size="10.00">cstdio</text>
</a>
</g>
</g>
<!-- Node6&#45;&gt;Node8 -->
<g id="edge7_Node000006_Node000008" class="edge">
<title>Node6&#45;&gt;Node8</title>
<g id="a_edge7_Node000006_Node000008"><a xlink:title=" ">
<path fill="none" stroke="#63b8ff" d="M332.4,-109.98C322.54,-102.07 307.65,-90.11 295.78,-80.58"/>
<polygon fill="#63b8ff" stroke="#63b8ff" points="297.79,-77.7 287.8,-74.17 293.4,-83.16 297.79,-77.7"/>
</a>
</g>
</g>
<!-- Node9 -->
<g id="Node000009" class="node">
<title>Node9</title>
<g id="a_Node000009"><a xlink:title=" ">
<polygon fill="#e0e0e0" stroke="#999999" points="367.5,-74 318.5,-74 318.5,-55 367.5,-55 367.5,-74"/>
<text text-anchor="middle" x="343" y="-62" font-family="Helvetica,sans-Serif" font-size="10.00">cstdlib</text>
</a>
</g>
</g>
<!-- Node6&#45;&gt;Node9 -->
<g id="edge8_Node000006_Node000009" class="edge">
<title>Node6&#45;&gt;Node9</title>
<g id="a_edge8_Node000006_Node000009"><a xlink:title=" ">
<path fill="none" stroke="#63b8ff" d="M343,-109.75C343,-102.8 343,-92.85 343,-84.13"/>
<polygon fill="#63b8ff" stroke="#63b8ff" points="346.5,-84.09 343,-74.09 339.5,-84.09 346.5,-84.09"/>
</a>
</g>
</g>
<!-- Node10 -->
<g id="Node000010" class="node">
<title>Node10</title>
<g id="a_Node000010"><a xlink:title=" ">
<polygon fill="#e0e0e0" stroke="#999999" points="603,-74 545,-74 545,-55 603,-55 603,-74"/>
<text text-anchor="middle" x="574" y="-62" font-family="Helvetica,sans-Serif" font-size="10.00">memory</text>
</a>
</g>
</g>
<!-- Node6&#45;&gt;Node10 -->
<g id="edge10_Node000006_Node000010" class="edge">
<title>Node6&#45;&gt;Node10</title>
<g id="a_edge10_Node000006_Node000010"><a xlink:title=" ">
<path fill="none" stroke="#63b8ff" d="M380.11,-109.98C422.5,-100.26 491.56,-84.42 534.8,-74.49"/>
<polygon fill="#63b8ff" stroke="#63b8ff" points="535.71,-77.88 544.67,-72.23 534.14,-71.05 535.71,-77.88"/>
</a>
</g>
</g>
<!-- Node11 -->
<g id="Node000011" class="node">
<title>Node11</title>
<g id="a_Node000011"><a xlink:title=" ">
<polygon fill="#e0e0e0" stroke="#999999" points="450.5,-74 385.5,-74 385.5,-55 450.5,-55 450.5,-74"/>
<text text-anchor="middle" x="418" y="-62" font-family="Helvetica,sans-Serif" font-size="10.00">stdexcept</text>
</a>
</g>
</g>
<!-- Node6&#45;&gt;Node11 -->
<g id="edge11_Node000006_Node000011" class="edge">
<title>Node6&#45;&gt;Node11</title>
<g id="a_edge11_Node000006_Node000011"><a xlink:title=" ">
<path fill="none" stroke="#63b8ff" d="M355.05,-109.98C366.46,-101.92 383.83,-89.65 397.43,-80.03"/>
<polygon fill="#63b8ff" stroke="#63b8ff" points="399.58,-82.8 405.73,-74.17 395.54,-77.08 399.58,-82.8"/>
</a>
</g>
</g>
<!-- Node12 -->
<g id="Node000012" class="node">
<title>Node12</title>
<g id="a_Node000012"><a xlink:href="../../df/def/type_8h.html" target="_top" xlink:title=" ">
<polygon fill="white" stroke="#666666" points="731,-74 659,-74 659,-55 731,-55 731,-74"/>
<text text-anchor="middle" x="695" y="-62" font-family="Helvetica,sans-Serif" font-size="10.00">type/type.h</text>
</a>
</g>
</g>
<!-- Node6&#45;&gt;Node12 -->
<g id="edge13_Node000006_Node000012" class="edge">
<title>Node6&#45;&gt;Node12</title>
<g id="a_edge13_Node000006_Node000012"><a xlink:title=" ">
<path fill="none" stroke="#63b8ff" d="M399.55,-109.98C468.59,-99.59 584.05,-82.21 648.28,-72.53"/>
<polygon fill="#63b8ff" stroke="#63b8ff" points="649.15,-75.94 658.51,-70.99 648.1,-69.02 649.15,-75.94"/>
</a>
</g>
</g>
<!-- Node12&#45;&gt;Node5 -->
<g id="edge15_Node000012_Node000005" class="edge">
<title>Node12&#45;&gt;Node5</title>
<g id="a_edge15_Node000012_Node000005"><a xlink:title=" ">
<path fill="none" stroke="#63b8ff" d="M666.4,-54.98C634.25,-45.41 582.19,-29.91 548.79,-19.96"/>
<polygon fill="#63b8ff" stroke="#63b8ff" points="549.65,-16.57 539.06,-17.07 547.65,-23.28 549.65,-16.57"/>
</a>
</g>
</g>
<!-- Node13 -->
<g id="Node000013" class="node">
<title>Node13</title>
<g id="a_Node000013"><a xlink:title=" ">
<polygon fill="#e0e0e0" stroke="#999999" points="859,-19 809,-19 809,0 859,0 859,-19"/>
<text text-anchor="middle" x="834" y="-7" font-family="Helvetica,sans-Serif" font-size="10.00">cstdint</text>
</a>
</g>
</g>
<!-- Node12&#45;&gt;Node13 -->
<g id="edge14_Node000012_Node000013" class="edge">
<title>Node12&#45;&gt;Node13</title>
<g id="a_edge14_Node000012_Node000013"><a xlink:title=" ">
<path fill="none" stroke="#63b8ff" d="M717.33,-54.98C740.2,-46.27 775.96,-32.63 801.86,-22.75"/>
<polygon fill="#63b8ff" stroke="#63b8ff" points="803.16,-26 811.26,-19.17 800.67,-19.46 803.16,-26"/>
</a>
</g>
</g>
<!-- Node14 -->
<g id="Node000014" class="node">
<title>Node14</title>
<g id="a_Node000014"><a xlink:href="../../dc/df2/type__id_8h.html" target="_top" xlink:title=" ">
<polygon fill="white" stroke="#666666" points="738,-19 652,-19 652,0 738,0 738,-19"/>
<text text-anchor="middle" x="695" y="-7" font-family="Helvetica,sans-Serif" font-size="10.00">type/type_id.h</text>
</a>
</g>
</g>
<!-- Node12&#45;&gt;Node14 -->
<g id="edge16_Node000012_Node000014" class="edge">
<title>Node12&#45;&gt;Node14</title>
<g id="a_edge16_Node000012_Node000014"><a xlink:title=" ">
<path fill="none" stroke="#63b8ff" d="M695,-54.75C695,-47.8 695,-37.85 695,-29.13"/>
<polygon fill="#63b8ff" stroke="#63b8ff" points="698.5,-29.09 695,-19.09 691.5,-29.09 698.5,-29.09"/>
</a>
</g>
</g>
<!-- Node15&#45;&gt;Node5 -->
<g id="edge18_Node000015_Node000005" class="edge">
<title>Node15&#45;&gt;Node5</title>
<g id="a_edge18_Node000015_Node000005"><a xlink:title=" ">
<path fill="none" stroke="#63b8ff" d="M517,-219.95C517,-187.95 517,-74.68 517,-29.4"/>
<polygon fill="#63b8ff" stroke="#63b8ff" points="520.5,-29.22 517,-19.22 513.5,-29.22 520.5,-29.22"/>
</a>
</g>
</g>
<!-- Node16 -->
<g id="Node000016" class="node">
<title>Node16</title>
<g id="a_Node000016"><a xlink:href="../../d4/d5c/numeric__type_8h.html" target="_top" xlink:title=" ">
<polygon fill="white" stroke="#666666" points="746.5,-184 629.5,-184 629.5,-165 746.5,-165 746.5,-184"/>
<text text-anchor="middle" x="688" y="-172" font-family="Helvetica,sans-Serif" font-size="10.00">type/numeric_type.h</text>
</a>
</g>
</g>
<!-- Node15&#45;&gt;Node16 -->
<g id="edge19_Node000015_Node000016" class="edge">
<title>Node15&#45;&gt;Node16</title>
<g id="a_edge19_Node000015_Node000016"><a xlink:title=" ">
<path fill="none" stroke="#63b8ff" d="M544.47,-219.98C573.18,-211.09 618.42,-197.07 650.42,-187.15"/>
<polygon fill="#63b8ff" stroke="#63b8ff" points="651.8,-190.39 660.31,-184.08 649.72,-183.7 651.8,-190.39"/>
</a>
</g>
</g>
<!-- Node16&#45;&gt;Node3 -->
<g id="edge20_Node000016_Node000003" class="edge">
<title>Node16&#45;&gt;Node3</title>
<g id="a_edge20_Node000016_Node000003"><a xlink:title=" ">
<path fill="none" stroke="#63b8ff" d="M701.98,-164.98C715.47,-156.77 736.13,-144.18 752.04,-134.49"/>
<polygon fill="#63b8ff" stroke="#63b8ff" points="754.05,-137.36 760.77,-129.17 750.41,-131.38 754.05,-137.36"/>
</a>
</g>
</g>
<!-- Node17 -->
<g id="Node000017" class="node">
<title>Node17</title>
<g id="a_Node000017"><a xlink:href="../../d4/d3f/value_8h.html" target="_top" xlink:title=" ">
<polygon fill="white" stroke="#666666" points="733.5,-129 656.5,-129 656.5,-110 733.5,-110 733.5,-129"/>
<text text-anchor="middle" x="695" y="-117" font-family="Helvetica,sans-Serif" font-size="10.00">type/value.h</text>
</a>
</g>
</g>
<!-- Node16&#45;&gt;Node17 -->
<g id="edge21_Node000016_Node000017" class="edge">
<title>Node16&#45;&gt;Node17</title>
<g id="a_edge21_Node000016_Node000017"><a xlink:title=" ">
<path fill="none" stroke="#63b8ff" d="M689.16,-164.75C690.07,-157.8 691.39,-147.85 692.54,-139.13"/>
<polygon fill="#63b8ff" stroke="#63b8ff" points="696.03,-139.46 693.87,-129.09 689.09,-138.54 696.03,-139.46"/>
</a>
</g>
</g>
<!-- Node17&#45;&gt;Node5 -->
<g id="edge24_Node000017_Node000005" class="edge">
<title>Node17&#45;&gt;Node5</title>
<g id="a_edge24_Node000017_Node000005"><a xlink:title=" ">
<path fill="none" stroke="#63b8ff" d="M685.28,-109.94C670.27,-97 640.23,-72.13 612,-55 591.58,-42.61 567.15,-31.23 548.18,-23.09"/>
<polygon fill="#63b8ff" stroke="#63b8ff" points="549.38,-19.79 538.81,-19.13 546.66,-26.24 549.38,-19.79"/>
</a>
</g>
</g>
<!-- Node17&#45;&gt;Node10 -->
<g id="edge23_Node000017_Node000010" class="edge">
<title>Node17&#45;&gt;Node10</title>
<g id="a_edge23_Node000017_Node000010"><a xlink:title=" ">
<path fill="none" stroke="#63b8ff" d="M675.56,-109.98C656.01,-101.42 625.62,-88.11 603.18,-78.28"/>
<polygon fill="#63b8ff" stroke="#63b8ff" points="604.36,-74.98 593.79,-74.17 601.55,-81.39 604.36,-74.98"/>
</a>
</g>
</g>
<!-- Node17&#45;&gt;Node12 -->
<g id="edge32_Node000017_Node000012" class="edge">
<title>Node17&#45;&gt;Node12</title>
<g id="a_edge32_Node000017_Node000012"><a xlink:title=" ">
<path fill="none" stroke="#63b8ff" d="M695,-109.75C695,-102.8 695,-92.85 695,-84.13"/>
<polygon fill="#63b8ff" stroke="#63b8ff" points="698.5,-84.09 695,-74.09 691.5,-84.09 698.5,-84.09"/>
</a>
</g>
</g>
<!-- Node18 -->
<g id="Node000018" class="node">
<title>Node18</title>
<g id="a_Node000018"><a xlink:title=" ">
<polygon fill="#e0e0e0" stroke="#999999" points="799,-74 749,-74 749,-55 799,-55 799,-74"/>
<text text-anchor="middle" x="774" y="-62" font-family="Helvetica,sans-Serif" font-size="10.00">cstring</text>
</a>
</g>
</g>
<!-- Node17&#45;&gt;Node18 -->
<g id="edge22_Node000017_Node000018" class="edge">
<title>Node17&#45;&gt;Node18</title>
<g id="a_edge22_Node000017_Node000018"><a xlink:title=" ">
<path fill="none" stroke="#63b8ff" d="M707.69,-109.98C719.83,-101.84 738.36,-89.41 752.75,-79.76"/>
<polygon fill="#63b8ff" stroke="#63b8ff" points="754.72,-82.65 761.08,-74.17 750.82,-76.84 754.72,-82.65"/>
</a>
</g>
</g>
<!-- Node19 -->
<g id="Node000019" class="node">
<title>Node19</title>
<g id="a_Node000019"><a xlink:title=" ">
<polygon fill="#e0e0e0" stroke="#999999" points="862.5,-74 817.5,-74 817.5,-55 862.5,-55 862.5,-74"/>
<text text-anchor="middle" x="840" y="-62" font-family="Helvetica,sans-Serif" font-size="10.00">utility</text>
</a>
</g>
</g>
<!-- Node17&#45;&gt;Node19 -->
<g id="edge25_Node000017_Node000019" class="edge">
<title>Node17&#45;&gt;Node19</title>
<g id="a_edge25_Node000017_Node000019"><a xlink:title=" ">
<path fill="none" stroke="#63b8ff" d="M718.3,-109.98C742.54,-101.12 780.68,-87.18 807.79,-77.27"/>
<polygon fill="#63b8ff" stroke="#63b8ff" points="809.05,-80.54 817.24,-73.82 806.65,-73.97 809.05,-80.54"/>
</a>
</g>
</g>
<!-- Node20 -->
<g id="Node000020" class="node">
<title>Node20</title>
<g id="a_Node000020"><a xlink:title=" ">
<polygon fill="#e0e0e0" stroke="#999999" points="959.5,-74 880.5,-74 880.5,-55 959.5,-55 959.5,-74"/>
<text text-anchor="middle" x="920" y="-62" font-family="Helvetica,sans-Serif" font-size="10.00">fmt/format.h</text>
</a>
</g>
</g>
<!-- Node17&#45;&gt;Node20 -->
<g id="edge26_Node000017_Node000020" class="edge">
<title>Node17&#45;&gt;Node20</title>
<g id="a_edge26_Node000017_Node000020"><a xlink:title=" ">
<path fill="none" stroke="#63b8ff" d="M731.15,-109.98C769.91,-100.86 831.55,-86.33 873.8,-76.38"/>
<polygon fill="#63b8ff" stroke="#63b8ff" points="874.64,-79.78 883.57,-74.08 873.03,-72.97 874.64,-79.78"/>
</a>
</g>
</g>
<!-- Node21 -->
<g id="Node000021" class="node">
<title>Node21</title>
<g id="a_Node000021"><a xlink:href="../../d9/d86/limits_8h.html" target="_top" xlink:title=" ">
<polygon fill="white" stroke="#666666" points="1056,-74 978,-74 978,-55 1056,-55 1056,-74"/>
<text text-anchor="middle" x="1017" y="-62" font-family="Helvetica,sans-Serif" font-size="10.00">type/limits.h</text>
</a>
</g>
</g>
<!-- Node17&#45;&gt;Node21 -->
<g id="edge27_Node000017_Node000021" class="edge">
<title>Node17&#45;&gt;Node21</title>
<g id="a_edge27_Node000017_Node000021"><a xlink:title=" ">
<path fill="none" stroke="#63b8ff" d="M733.5,-111.62C736.71,-111.07 739.91,-110.52 743,-110 840.17,-93.66 867.04,-91.02 967.97,-74.15"/>
<polygon fill="#63b8ff" stroke="#63b8ff" points="968.69,-77.58 977.98,-72.47 967.54,-70.67 968.69,-77.58"/>
</a>
</g>
</g>
<!-- Node21&#45;&gt;Node13 -->
<g id="edge30_Node000021_Node000013" class="edge">
<title>Node21&#45;&gt;Node13</title>
<g id="a_edge30_Node000021_Node000013"><a xlink:title=" ">
<path fill="none" stroke="#63b8ff" d="M987.6,-54.98C955.23,-45.61 903.23,-30.55 868.84,-20.59"/>
<polygon fill="#63b8ff" stroke="#63b8ff" points="869.78,-17.22 859.21,-17.8 867.84,-23.94 869.78,-17.22"/>
</a>
</g>
</g>
<!-- Node22 -->
<g id="Node000022" class="node">
<title>Node22</title>
<g id="a_Node000022"><a xlink:title=" ">
<polygon fill="#e0e0e0" stroke="#999999" points="974,-19 930,-19 930,0 974,0 974,-19"/>
<text text-anchor="middle" x="952" y="-7" font-family="Helvetica,sans-Serif" font-size="10.00">cfloat</text>
</a>
</g>
</g>
<!-- Node21&#45;&gt;Node22 -->
<g id="edge28_Node000021_Node000022" class="edge">
<title>Node21&#45;&gt;Node22</title>
<g id="a_edge28_Node000021_Node000022"><a xlink:title=" ">
<path fill="none" stroke="#63b8ff" d="M1006.56,-54.98C996.85,-47.07 982.18,-35.11 970.5,-25.58"/>
<polygon fill="#63b8ff" stroke="#63b8ff" points="972.6,-22.78 962.63,-19.17 968.17,-28.2 972.6,-22.78"/>
</a>
</g>
</g>
<!-- Node23 -->
<g id="Node000023" class="node">
<title>Node23</title>
<g id="a_Node000023"><a xlink:title=" ">
<polygon fill="#e0e0e0" stroke="#999999" points="1042,-19 992,-19 992,0 1042,0 1042,-19"/>
<text text-anchor="middle" x="1017" y="-7" font-family="Helvetica,sans-Serif" font-size="10.00">climits</text>
</a>
</g>
</g>
<!-- Node21&#45;&gt;Node23 -->
<g id="edge29_Node000021_Node000023" class="edge">
<title>Node21&#45;&gt;Node23</title>
<g id="a_edge29_Node000021_Node000023"><a xlink:title=" ">
<path fill="none" stroke="#63b8ff" d="M1017,-54.75C1017,-47.8 1017,-37.85 1017,-29.13"/>
<polygon fill="#63b8ff" stroke="#63b8ff" points="1020.5,-29.09 1017,-19.09 1013.5,-29.09 1020.5,-29.09"/>
</a>
</g>
</g>
<!-- Node24 -->
<g id="Node000024" class="node">
<title>Node24</title>
<g id="a_Node000024"><a xlink:title=" ">
<polygon fill="#e0e0e0" stroke="#999999" points="1104,-19 1060,-19 1060,0 1104,0 1104,-19"/>
<text text-anchor="middle" x="1082" y="-7" font-family="Helvetica,sans-Serif" font-size="10.00">limits</text>
</a>
</g>
</g>
<!-- Node21&#45;&gt;Node24 -->
<g id="edge31_Node000021_Node000024" class="edge">
<title>Node21&#45;&gt;Node24</title>
<g id="a_edge31_Node000021_Node000024"><a xlink:title=" ">
<path fill="none" stroke="#63b8ff" d="M1027.44,-54.98C1037.15,-47.07 1051.82,-35.11 1063.5,-25.58"/>
<polygon fill="#63b8ff" stroke="#63b8ff" points="1065.83,-28.2 1071.37,-19.17 1061.4,-22.78 1065.83,-28.2"/>
</a>
</g>
</g>
</g>
</svg>
