<?xml version="1.0" encoding="UTF-8" standalone="no"?>
<!DOCTYPE svg PUBLIC "-//W3C//DTD SVG 1.1//EN"
 "http://www.w3.org/Graphics/SVG/1.1/DTD/svg11.dtd">
<!-- Generated by graphviz version 2.43.0 (0)
 -->
<!-- Title: bustub::ResultWriter Pages: 1 -->
<svg width="315pt" height="175pt"
 viewBox="0.00 0.00 315.00 175.00" xmlns="http://www.w3.org/2000/svg" xmlns:xlink="http://www.w3.org/1999/xlink">
<g id="graph0" class="graph" transform="scale(1 1) rotate(0) translate(4 171)">
<title>bustub::ResultWriter</title>
<!-- Node1 -->
<g id="Node000001" class="node">
<title>Node1</title>
<g id="a_Node000001"><a xlink:title=" ">
<polygon fill="#999999" stroke="#666666" points="116,-93 0,-93 0,-74 116,-74 116,-93"/>
<text text-anchor="middle" x="58" y="-81" font-family="Helvetica,sans-Serif" font-size="10.00">bustub::ResultWriter</text>
</a>
</g>
</g>
<!-- Node2 -->
<g id="Node000002" class="node">
<title>Node2</title>
<g id="a_Node000002"><a xlink:href="../../d1/de7/classbustub_1_1FortTableWriter.html" target="_top" xlink:title=" ">
<polygon fill="white" stroke="#666666" points="294.5,-167 164.5,-167 164.5,-148 294.5,-148 294.5,-167"/>
<text text-anchor="middle" x="229.5" y="-155" font-family="Helvetica,sans-Serif" font-size="10.00">bustub::FortTableWriter</text>
</a>
</g>
</g>
<!-- Node1&#45;&gt;Node2 -->
<g id="edge1_Node000001_Node000002" class="edge">
<title>Node1&#45;&gt;Node2</title>
<g id="a_edge1_Node000001_Node000002"><a xlink:title=" ">
<path fill="none" stroke="#63b8ff" d="M80.52,-99.12C98.74,-111.67 125.99,-128.91 152,-139.5 160.21,-142.84 169.19,-145.65 178.01,-147.98"/>
<polygon fill="#63b8ff" stroke="#63b8ff" points="82.06,-95.92 71.86,-93.04 78.04,-101.65 82.06,-95.92"/>
</a>
</g>
</g>
<!-- Node3 -->
<g id="Node000003" class="node">
<title>Node3</title>
<g id="a_Node000003"><a xlink:href="../../dd/db6/classbustub_1_1HtmlWriter.html" target="_top" xlink:title=" ">
<polygon fill="white" stroke="#666666" points="284.5,-130 174.5,-130 174.5,-111 284.5,-111 284.5,-130"/>
<text text-anchor="middle" x="229.5" y="-118" font-family="Helvetica,sans-Serif" font-size="10.00">bustub::HtmlWriter</text>
</a>
</g>
</g>
<!-- Node1&#45;&gt;Node3 -->
<g id="edge2_Node000001_Node000003" class="edge">
<title>Node1&#45;&gt;Node3</title>
<g id="a_edge2_Node000001_Node000003"><a xlink:title=" ">
<path fill="none" stroke="#63b8ff" d="M112.69,-95.22C135.9,-100.29 162.72,-106.14 184.7,-110.94"/>
<polygon fill="#63b8ff" stroke="#63b8ff" points="113.17,-91.74 102.65,-93.03 111.67,-98.58 113.17,-91.74"/>
</a>
</g>
</g>
<!-- Node4 -->
<g id="Node000004" class="node">
<title>Node4</title>
<g id="a_Node000004"><a xlink:href="../../d8/d19/classbustub_1_1NoopWriter.html" target="_top" xlink:title=" ">
<polygon fill="white" stroke="#666666" points="285,-93 174,-93 174,-74 285,-74 285,-93"/>
<text text-anchor="middle" x="229.5" y="-81" font-family="Helvetica,sans-Serif" font-size="10.00">bustub::NoopWriter</text>
</a>
</g>
</g>
<!-- Node1&#45;&gt;Node4 -->
<g id="edge3_Node000001_Node000004" class="edge">
<title>Node1&#45;&gt;Node4</title>
<g id="a_edge3_Node000001_Node000004"><a xlink:title=" ">
<path fill="none" stroke="#63b8ff" d="M126.54,-83.5C142.22,-83.5 158.71,-83.5 173.75,-83.5"/>
<polygon fill="#63b8ff" stroke="#63b8ff" points="126.39,-80 116.38,-83.5 126.38,-87 126.39,-80"/>
</a>
</g>
</g>
<!-- Node5 -->
<g id="Node000005" class="node">
<title>Node5</title>
<g id="a_Node000005"><a xlink:href="../../df/db8/classbustub_1_1SimpleStreamWriter.html" target="_top" xlink:title=" ">
<polygon fill="white" stroke="#666666" points="307,-56 152,-56 152,-37 307,-37 307,-56"/>
<text text-anchor="middle" x="229.5" y="-44" font-family="Helvetica,sans-Serif" font-size="10.00">bustub::SimpleStreamWriter</text>
</a>
</g>
</g>
<!-- Node1&#45;&gt;Node5 -->
<g id="edge4_Node000001_Node000005" class="edge">
<title>Node1&#45;&gt;Node5</title>
<g id="a_edge4_Node000001_Node000005"><a xlink:title=" ">
<path fill="none" stroke="#63b8ff" d="M112.69,-71.78C135.9,-66.71 162.72,-60.86 184.7,-56.06"/>
<polygon fill="#63b8ff" stroke="#63b8ff" points="111.67,-68.42 102.65,-73.97 113.17,-75.26 111.67,-68.42"/>
</a>
</g>
</g>
<!-- Node6 -->
<g id="Node000006" class="node">
<title>Node6</title>
<g id="a_Node000006"><a xlink:href="../../d5/d89/classbustub_1_1StringVectorWriter.html" target="_top" xlink:title=" ">
<polygon fill="white" stroke="#666666" points="302,-19 157,-19 157,0 302,0 302,-19"/>
<text text-anchor="middle" x="229.5" y="-7" font-family="Helvetica,sans-Serif" font-size="10.00">bustub::StringVectorWriter</text>
</a>
</g>
</g>
<!-- Node1&#45;&gt;Node6 -->
<g id="edge5_Node000001_Node000006" class="edge">
<title>Node1&#45;&gt;Node6</title>
<g id="a_edge5_Node000001_Node000006"><a xlink:title=" ">
<path fill="none" stroke="#63b8ff" d="M80.66,-68.22C98.93,-55.95 126.16,-39.08 152,-28.5 161.12,-24.77 171.16,-21.63 180.88,-19.05"/>
<polygon fill="#63b8ff" stroke="#63b8ff" points="78.5,-65.46 72.22,-73.99 82.45,-71.24 78.5,-65.46"/>
</a>
</g>
</g>
</g>
</svg>
