<?xml version="1.0" encoding="UTF-8" standalone="no"?>
<!DOCTYPE svg PUBLIC "-//W3C//DTD SVG 1.1//EN"
 "http://www.w3.org/Graphics/SVG/1.1/DTD/svg11.dtd">
<!-- Generated by graphviz version 2.43.0 (0)
 -->
<!-- Title: src/include/storage/table/tuple.h Pages: 1 -->
<svg width="1464pt" height="313pt"
 viewBox="0.00 0.00 1463.72 313.00" xmlns="http://www.w3.org/2000/svg" xmlns:xlink="http://www.w3.org/1999/xlink">
<g id="graph0" class="graph" transform="scale(1 1) rotate(0) translate(4 309)">
<title>src/include/storage/table/tuple.h</title>
<!-- Node1 -->
<g id="Node000001" class="node">
<title>Node1</title>
<g id="a_Node000001"><a xlink:title=" ">
<polygon fill="#999999" stroke="#666666" points="613.5,-305 504.5,-305 504.5,-275 613.5,-275 613.5,-305"/>
<text text-anchor="start" x="512.5" y="-293" font-family="Helvetica,sans-Serif" font-size="10.00">src/include/storage</text>
<text text-anchor="middle" x="559" y="-282" font-family="Helvetica,sans-Serif" font-size="10.00">/table/tuple.h</text>
</a>
</g>
</g>
<!-- Node2 -->
<g id="Node000002" class="node">
<title>Node2</title>
<g id="a_Node000002"><a xlink:title=" ">
<polygon fill="#e0e0e0" stroke="#999999" points="831,-19 787,-19 787,0 831,0 831,-19"/>
<text text-anchor="middle" x="809" y="-7" font-family="Helvetica,sans-Serif" font-size="10.00">string</text>
</a>
</g>
</g>
<!-- Node1&#45;&gt;Node2 -->
<g id="edge1_Node000001_Node000002" class="edge">
<title>Node1&#45;&gt;Node2</title>
<g id="a_edge1_Node000001_Node000002"><a xlink:title=" ">
<path fill="none" stroke="#63b8ff" d="M504.38,-285.15C393.83,-275.87 154,-247.43 154,-175.5 154,-175.5 154,-175.5 154,-118.5 154,-83.39 170.24,-71.94 201,-55 251.57,-27.15 657.6,-14.45 776.44,-11.3"/>
<polygon fill="#63b8ff" stroke="#63b8ff" points="776.8,-14.79 786.71,-11.04 776.62,-7.8 776.8,-14.79"/>
</a>
</g>
</g>
<!-- Node3 -->
<g id="Node000003" class="node">
<title>Node3</title>
<g id="a_Node000003"><a xlink:title=" ">
<polygon fill="#e0e0e0" stroke="#999999" points="448.5,-184 401.5,-184 401.5,-165 448.5,-165 448.5,-184"/>
<text text-anchor="middle" x="425" y="-172" font-family="Helvetica,sans-Serif" font-size="10.00">vector</text>
</a>
</g>
</g>
<!-- Node1&#45;&gt;Node3 -->
<g id="edge2_Node000001_Node000003" class="edge">
<title>Node1&#45;&gt;Node3</title>
<g id="a_edge2_Node000001_Node000003"><a xlink:title=" ">
<path fill="none" stroke="#63b8ff" d="M542.3,-274.85C516.98,-253.41 469.06,-212.82 442.99,-190.74"/>
<polygon fill="#63b8ff" stroke="#63b8ff" points="445.25,-188.06 435.35,-184.27 440.72,-193.4 445.25,-188.06"/>
</a>
</g>
</g>
<!-- Node4 -->
<g id="Node000004" class="node">
<title>Node4</title>
<g id="a_Node000004"><a xlink:href="../../d7/de3/schema_8h.html" target="_top" xlink:title=" ">
<polygon fill="white" stroke="#666666" points="694.5,-239 591.5,-239 591.5,-220 694.5,-220 694.5,-239"/>
<text text-anchor="middle" x="643" y="-227" font-family="Helvetica,sans-Serif" font-size="10.00">catalog/schema.h</text>
</a>
</g>
</g>
<!-- Node1&#45;&gt;Node4 -->
<g id="edge3_Node000001_Node000004" class="edge">
<title>Node1&#45;&gt;Node4</title>
<g id="a_edge3_Node000001_Node000004"><a xlink:title=" ">
<path fill="none" stroke="#63b8ff" d="M579.33,-274.84C592.27,-265.83 608.99,-254.18 622.05,-245.09"/>
<polygon fill="#63b8ff" stroke="#63b8ff" points="624.21,-247.85 630.41,-239.27 620.21,-242.11 624.21,-247.85"/>
</a>
</g>
</g>
<!-- Node22 -->
<g id="Node000022" class="node">
<title>Node22</title>
<g id="a_Node000022"><a xlink:href="../../db/d16/config_8h.html" target="_top" xlink:title=" ">
<polygon fill="white" stroke="#666666" points="1330.5,-129 1229.5,-129 1229.5,-110 1330.5,-110 1330.5,-129"/>
<text text-anchor="middle" x="1280" y="-117" font-family="Helvetica,sans-Serif" font-size="10.00">common/config.h</text>
</a>
</g>
</g>
<!-- Node1&#45;&gt;Node22 -->
<g id="edge33_Node000001_Node000022" class="edge">
<title>Node1&#45;&gt;Node22</title>
<g id="a_edge33_Node000001_Node000022"><a xlink:title=" ">
<path fill="none" stroke="#63b8ff" d="M613.78,-276.2C750.73,-244.19 1106.07,-161.15 1233.59,-131.35"/>
<polygon fill="#63b8ff" stroke="#63b8ff" points="1234.5,-134.73 1243.44,-129.04 1232.91,-127.91 1234.5,-134.73"/>
</a>
</g>
</g>
<!-- Node24 -->
<g id="Node000024" class="node">
<title>Node24</title>
<g id="a_Node000024"><a xlink:href="../../d8/d5f/rid_8h.html" target="_top" xlink:title=" ">
<polygon fill="white" stroke="#666666" points="1401,-184 1317,-184 1317,-165 1401,-165 1401,-184"/>
<text text-anchor="middle" x="1359" y="-172" font-family="Helvetica,sans-Serif" font-size="10.00">common/rid.h</text>
</a>
</g>
</g>
<!-- Node1&#45;&gt;Node24 -->
<g id="edge37_Node000001_Node000024" class="edge">
<title>Node1&#45;&gt;Node24</title>
<g id="a_edge37_Node000001_Node000024"><a xlink:title=" ">
<path fill="none" stroke="#63b8ff" d="M613.76,-289.14C759.35,-288.87 1153.13,-283.91 1274,-239 1301.64,-228.73 1327.95,-206.47 1343.79,-191.23"/>
<polygon fill="#63b8ff" stroke="#63b8ff" points="1346.44,-193.54 1351.07,-184.01 1341.5,-188.57 1346.44,-193.54"/>
</a>
</g>
</g>
<!-- Node26 -->
<g id="Node000026" class="node">
<title>Node26</title>
<g id="a_Node000026"><a xlink:href="../../d4/d3f/value_8h.html" target="_top" xlink:title=" ">
<polygon fill="white" stroke="#666666" points="352.5,-129 275.5,-129 275.5,-110 352.5,-110 352.5,-129"/>
<text text-anchor="middle" x="314" y="-117" font-family="Helvetica,sans-Serif" font-size="10.00">type/value.h</text>
</a>
</g>
</g>
<!-- Node1&#45;&gt;Node26 -->
<g id="edge42_Node000001_Node000026" class="edge">
<title>Node1&#45;&gt;Node26</title>
<g id="a_edge42_Node000001_Node000026"><a xlink:title=" ">
<path fill="none" stroke="#63b8ff" d="M534.53,-274.9C517.66,-265.07 494.79,-251.52 475,-239 437.91,-215.55 428.36,-209.99 393,-184 371.47,-168.17 347.68,-148.77 331.89,-135.61"/>
<polygon fill="#63b8ff" stroke="#63b8ff" points="333.92,-132.75 324.01,-129.01 329.42,-138.11 333.92,-132.75"/>
</a>
</g>
</g>
<!-- Node4&#45;&gt;Node2 -->
<g id="edge6_Node000004_Node000002" class="edge">
<title>Node4&#45;&gt;Node2</title>
<g id="a_edge6_Node000004_Node000002"><a xlink:title=" ">
<path fill="none" stroke="#63b8ff" d="M668.4,-219.94C686.94,-212.67 711.76,-200.75 729,-184 774.72,-139.58 796.88,-64.06 805.09,-29.18"/>
<polygon fill="#63b8ff" stroke="#63b8ff" points="808.52,-29.9 807.28,-19.37 801.68,-28.37 808.52,-29.9"/>
</a>
</g>
</g>
<!-- Node4&#45;&gt;Node3 -->
<g id="edge7_Node000004_Node000003" class="edge">
<title>Node4&#45;&gt;Node3</title>
<g id="a_edge7_Node000004_Node000003"><a xlink:title=" ">
<path fill="none" stroke="#63b8ff" d="M607.97,-219.98C566.79,-209.97 498.92,-193.47 458.43,-183.63"/>
<polygon fill="#63b8ff" stroke="#63b8ff" points="459.06,-180.18 448.52,-181.22 457.41,-186.98 459.06,-180.18"/>
</a>
</g>
</g>
<!-- Node5 -->
<g id="Node000005" class="node">
<title>Node5</title>
<g id="a_Node000005"><a xlink:title=" ">
<polygon fill="#e0e0e0" stroke="#999999" points="506,-74 448,-74 448,-55 506,-55 506,-74"/>
<text text-anchor="middle" x="477" y="-62" font-family="Helvetica,sans-Serif" font-size="10.00">memory</text>
</a>
</g>
</g>
<!-- Node4&#45;&gt;Node5 -->
<g id="edge4_Node000004_Node000005" class="edge">
<title>Node4&#45;&gt;Node5</title>
<g id="a_edge4_Node000004_Node000005"><a xlink:title=" ">
<path fill="none" stroke="#63b8ff" d="M605.41,-219.98C583.04,-213.31 555.33,-202.06 536,-184 506.16,-156.12 489.32,-109.85 481.81,-84.15"/>
<polygon fill="#63b8ff" stroke="#63b8ff" points="485.1,-82.93 479.07,-74.22 478.35,-84.79 485.1,-82.93"/>
</a>
</g>
</g>
<!-- Node6 -->
<g id="Node000006" class="node">
<title>Node6</title>
<g id="a_Node000006"><a xlink:title=" ">
<polygon fill="#e0e0e0" stroke="#999999" points="720,-184 664,-184 664,-165 720,-165 720,-184"/>
<text text-anchor="middle" x="692" y="-172" font-family="Helvetica,sans-Serif" font-size="10.00">optional</text>
</a>
</g>
</g>
<!-- Node4&#45;&gt;Node6 -->
<g id="edge5_Node000004_Node000006" class="edge">
<title>Node4&#45;&gt;Node6</title>
<g id="a_edge5_Node000004_Node000006"><a xlink:title=" ">
<path fill="none" stroke="#63b8ff" d="M651.09,-219.75C658.16,-212.11 668.59,-200.82 677.15,-191.56"/>
<polygon fill="#63b8ff" stroke="#63b8ff" points="679.84,-193.81 684.06,-184.09 674.7,-189.06 679.84,-193.81"/>
</a>
</g>
</g>
<!-- Node7 -->
<g id="Node000007" class="node">
<title>Node7</title>
<g id="a_Node000007"><a xlink:href="../../dc/df8/column_8h.html" target="_top" xlink:title=" ">
<polygon fill="white" stroke="#666666" points="645.5,-184 544.5,-184 544.5,-165 645.5,-165 645.5,-184"/>
<text text-anchor="middle" x="595" y="-172" font-family="Helvetica,sans-Serif" font-size="10.00">catalog/column.h</text>
</a>
</g>
</g>
<!-- Node4&#45;&gt;Node7 -->
<g id="edge8_Node000004_Node000007" class="edge">
<title>Node4&#45;&gt;Node7</title>
<g id="a_edge8_Node000004_Node000007"><a xlink:title=" ">
<path fill="none" stroke="#63b8ff" d="M635.07,-219.75C628.15,-212.11 617.93,-200.82 609.55,-191.56"/>
<polygon fill="#63b8ff" stroke="#63b8ff" points="612.09,-189.15 602.78,-184.09 606.9,-193.85 612.09,-189.15"/>
</a>
</g>
</g>
<!-- Node11 -->
<g id="Node000011" class="node">
<title>Node11</title>
<g id="a_Node000011"><a xlink:href="../../dd/d2d/exception_8h.html" target="_top" xlink:title=" ">
<polygon fill="white" stroke="#666666" points="960.5,-129 841.5,-129 841.5,-110 960.5,-110 960.5,-129"/>
<text text-anchor="middle" x="901" y="-117" font-family="Helvetica,sans-Serif" font-size="10.00">common/exception.h</text>
</a>
</g>
</g>
<!-- Node4&#45;&gt;Node11 -->
<g id="edge31_Node000004_Node000011" class="edge">
<title>Node4&#45;&gt;Node11</title>
<g id="a_edge31_Node000004_Node000011"><a xlink:title=" ">
<path fill="none" stroke="#63b8ff" d="M694.75,-221.9C731.91,-215.71 782.39,-204.27 823,-184 847.26,-171.9 870.78,-151.12 885.54,-136.64"/>
<polygon fill="#63b8ff" stroke="#63b8ff" points="888.22,-138.9 892.78,-129.34 883.25,-133.97 888.22,-138.9"/>
</a>
</g>
</g>
<!-- Node17 -->
<g id="Node000017" class="node">
<title>Node17</title>
<g id="a_Node000017"><a xlink:href="../../df/def/type_8h.html" target="_top" xlink:title=" ">
<polygon fill="white" stroke="#666666" points="1157,-74 1085,-74 1085,-55 1157,-55 1157,-74"/>
<text text-anchor="middle" x="1121" y="-62" font-family="Helvetica,sans-Serif" font-size="10.00">type/type.h</text>
</a>
</g>
</g>
<!-- Node4&#45;&gt;Node17 -->
<g id="edge32_Node000004_Node000017" class="edge">
<title>Node4&#45;&gt;Node17</title>
<g id="a_edge32_Node000004_Node000017"><a xlink:title=" ">
<path fill="none" stroke="#63b8ff" d="M694.8,-219.99C767.73,-206.79 903.74,-177.72 1011,-129 1042.97,-114.48 1077.73,-93.45 1099.44,-79.63"/>
<polygon fill="#63b8ff" stroke="#63b8ff" points="1101.38,-82.54 1107.9,-74.19 1097.6,-76.66 1101.38,-82.54"/>
</a>
</g>
</g>
<!-- Node7&#45;&gt;Node2 -->
<g id="edge11_Node000007_Node000002" class="edge">
<title>Node7&#45;&gt;Node2</title>
<g id="a_edge11_Node000007_Node000002"><a xlink:title=" ">
<path fill="none" stroke="#63b8ff" d="M586.68,-164.73C567.6,-143.55 524.48,-88.91 553,-55 581.27,-21.39 714.66,-13.16 776.89,-11.15"/>
<polygon fill="#63b8ff" stroke="#63b8ff" points="777.05,-14.65 786.94,-10.86 776.84,-7.65 777.05,-14.65"/>
</a>
</g>
</g>
<!-- Node7&#45;&gt;Node5 -->
<g id="edge10_Node000007_Node000005" class="edge">
<title>Node7&#45;&gt;Node5</title>
<g id="a_edge10_Node000007_Node000005"><a xlink:title=" ">
<path fill="none" stroke="#63b8ff" d="M583.07,-164.71C571.48,-156.02 553.56,-142.15 539,-129 521.95,-113.61 503.74,-94.61 491.49,-81.43"/>
<polygon fill="#63b8ff" stroke="#63b8ff" points="494.05,-79.04 484.71,-74.05 488.9,-83.78 494.05,-79.04"/>
</a>
</g>
</g>
<!-- Node8 -->
<g id="Node000008" class="node">
<title>Node8</title>
<g id="a_Node000008"><a xlink:title=" ">
<polygon fill="#e0e0e0" stroke="#999999" points="1221,-19 1171,-19 1171,0 1221,0 1221,-19"/>
<text text-anchor="middle" x="1196" y="-7" font-family="Helvetica,sans-Serif" font-size="10.00">cstdint</text>
</a>
</g>
</g>
<!-- Node7&#45;&gt;Node8 -->
<g id="edge9_Node000007_Node000008" class="edge">
<title>Node7&#45;&gt;Node8</title>
<g id="a_edge9_Node000007_Node000008"><a xlink:title=" ">
<path fill="none" stroke="#63b8ff" d="M645.72,-166.17C648.86,-165.76 651.97,-165.37 655,-165 812.87,-145.84 855.83,-163.84 1011,-129 1082.32,-112.99 1111.78,-123.03 1166,-74 1179.13,-62.13 1187.02,-43.3 1191.38,-29.22"/>
<polygon fill="#63b8ff" stroke="#63b8ff" points="1194.87,-29.74 1194.16,-19.17 1188.12,-27.88 1194.87,-29.74"/>
</a>
</g>
</g>
<!-- Node9 -->
<g id="Node000009" class="node">
<title>Node9</title>
<g id="a_Node000009"><a xlink:title=" ">
<polygon fill="#e0e0e0" stroke="#999999" points="333.5,-74 288.5,-74 288.5,-55 333.5,-55 333.5,-74"/>
<text text-anchor="middle" x="311" y="-62" font-family="Helvetica,sans-Serif" font-size="10.00">utility</text>
</a>
</g>
</g>
<!-- Node7&#45;&gt;Node9 -->
<g id="edge12_Node000007_Node000009" class="edge">
<title>Node7&#45;&gt;Node9</title>
<g id="a_edge12_Node000007_Node000009"><a xlink:title=" ">
<path fill="none" stroke="#63b8ff" d="M571.72,-164.87C547.71,-155.95 509.2,-141.6 476,-129 429.58,-111.39 375.94,-90.68 342.74,-77.82"/>
<polygon fill="#63b8ff" stroke="#63b8ff" points="343.71,-74.44 333.13,-74.09 341.19,-80.97 343.71,-74.44"/>
</a>
</g>
</g>
<!-- Node10 -->
<g id="Node000010" class="node">
<title>Node10</title>
<g id="a_Node000010"><a xlink:title=" ">
<polygon fill="#e0e0e0" stroke="#999999" points="430.5,-74 351.5,-74 351.5,-55 430.5,-55 430.5,-74"/>
<text text-anchor="middle" x="391" y="-62" font-family="Helvetica,sans-Serif" font-size="10.00">fmt/format.h</text>
</a>
</g>
</g>
<!-- Node7&#45;&gt;Node10 -->
<g id="edge13_Node000007_Node000010" class="edge">
<title>Node7&#45;&gt;Node10</title>
<g id="a_edge13_Node000007_Node000010"><a xlink:title=" ">
<path fill="none" stroke="#63b8ff" d="M578.65,-164.84C543.05,-146 458.33,-101.14 415.98,-78.73"/>
<polygon fill="#63b8ff" stroke="#63b8ff" points="417.62,-75.63 407.14,-74.05 414.34,-81.82 417.62,-75.63"/>
</a>
</g>
</g>
<!-- Node7&#45;&gt;Node11 -->
<g id="edge14_Node000007_Node000011" class="edge">
<title>Node7&#45;&gt;Node11</title>
<g id="a_edge14_Node000007_Node000011"><a xlink:title=" ">
<path fill="none" stroke="#63b8ff" d="M644.16,-164.98C697.95,-155.67 784.16,-140.74 841.67,-130.78"/>
<polygon fill="#63b8ff" stroke="#63b8ff" points="842.45,-134.19 851.7,-129.04 841.25,-127.3 842.45,-134.19"/>
</a>
</g>
</g>
<!-- Node7&#45;&gt;Node17 -->
<g id="edge30_Node000007_Node000017" class="edge">
<title>Node7&#45;&gt;Node17</title>
<g id="a_edge30_Node000007_Node000017"><a xlink:title=" ">
<path fill="none" stroke="#63b8ff" d="M645.73,-166.22C648.86,-165.8 651.97,-165.39 655,-165 794.77,-147.12 833.68,-164.67 970,-129 1015.98,-116.97 1066.27,-93.59 1095.66,-78.8"/>
<polygon fill="#63b8ff" stroke="#63b8ff" points="1097.47,-81.81 1104.78,-74.14 1094.28,-75.57 1097.47,-81.81"/>
</a>
</g>
</g>
<!-- Node19 -->
<g id="Node000019" class="node">
<title>Node19</title>
<g id="a_Node000019"><a xlink:href="../../de/d3c/macros_8h.html" target="_top" xlink:title=" ">
<polygon fill="white" stroke="#666666" points="703.5,-129 596.5,-129 596.5,-110 703.5,-110 703.5,-129"/>
<text text-anchor="middle" x="650" y="-117" font-family="Helvetica,sans-Serif" font-size="10.00">common/macros.h</text>
</a>
</g>
</g>
<!-- Node7&#45;&gt;Node19 -->
<g id="edge26_Node000007_Node000019" class="edge">
<title>Node7&#45;&gt;Node19</title>
<g id="a_edge26_Node000007_Node000019"><a xlink:title=" ">
<path fill="none" stroke="#63b8ff" d="M604.08,-164.75C612.09,-157.03 623.96,-145.6 633.62,-136.28"/>
<polygon fill="#63b8ff" stroke="#63b8ff" points="636.31,-138.55 641.09,-129.09 631.46,-133.51 636.31,-138.55"/>
</a>
</g>
</g>
<!-- Node11&#45;&gt;Node2 -->
<g id="edge21_Node000011_Node000002" class="edge">
<title>Node11&#45;&gt;Node2</title>
<g id="a_edge21_Node000011_Node000002"><a xlink:title=" ">
<path fill="none" stroke="#63b8ff" d="M893.47,-109.66C878.1,-91.61 842.88,-50.28 823.12,-27.08"/>
<polygon fill="#63b8ff" stroke="#63b8ff" points="825.52,-24.5 816.38,-19.16 820.2,-29.04 825.52,-24.5"/>
</a>
</g>
</g>
<!-- Node11&#45;&gt;Node5 -->
<g id="edge19_Node000011_Node000005" class="edge">
<title>Node11&#45;&gt;Node5</title>
<g id="a_edge19_Node000011_Node000005"><a xlink:title=" ">
<path fill="none" stroke="#63b8ff" d="M841.15,-111.02C753.14,-100.02 591.2,-79.77 516.56,-70.45"/>
<polygon fill="#63b8ff" stroke="#63b8ff" points="516.56,-66.92 506.21,-69.15 515.7,-73.86 516.56,-66.92"/>
</a>
</g>
</g>
<!-- Node12 -->
<g id="Node000012" class="node">
<title>Node12</title>
<g id="a_Node000012"><a xlink:title=" ">
<polygon fill="#e0e0e0" stroke="#999999" points="1263,-74 1213,-74 1213,-55 1263,-55 1263,-74"/>
<text text-anchor="middle" x="1238" y="-62" font-family="Helvetica,sans-Serif" font-size="10.00">atomic</text>
</a>
</g>
</g>
<!-- Node11&#45;&gt;Node12 -->
<g id="edge15_Node000011_Node000012" class="edge">
<title>Node11&#45;&gt;Node12</title>
<g id="a_edge15_Node000011_Node000012"><a xlink:title=" ">
<path fill="none" stroke="#63b8ff" d="M955.14,-109.98C1024.83,-99.03 1143.91,-80.3 1202.84,-71.03"/>
<polygon fill="#63b8ff" stroke="#63b8ff" points="1203.45,-74.48 1212.78,-69.47 1202.36,-67.56 1203.45,-74.48"/>
</a>
</g>
</g>
<!-- Node13 -->
<g id="Node000013" class="node">
<title>Node13</title>
<g id="a_Node000013"><a xlink:title=" ">
<polygon fill="#e0e0e0" stroke="#999999" points="999,-74 953,-74 953,-55 999,-55 999,-74"/>
<text text-anchor="middle" x="976" y="-62" font-family="Helvetica,sans-Serif" font-size="10.00">cstdio</text>
</a>
</g>
</g>
<!-- Node11&#45;&gt;Node13 -->
<g id="edge16_Node000011_Node000013" class="edge">
<title>Node11&#45;&gt;Node13</title>
<g id="a_edge16_Node000011_Node000013"><a xlink:title=" ">
<path fill="none" stroke="#63b8ff" d="M913.05,-109.98C924.46,-101.92 941.83,-89.65 955.43,-80.03"/>
<polygon fill="#63b8ff" stroke="#63b8ff" points="957.58,-82.8 963.73,-74.17 953.54,-77.08 957.58,-82.8"/>
</a>
</g>
</g>
<!-- Node14 -->
<g id="Node000014" class="node">
<title>Node14</title>
<g id="a_Node000014"><a xlink:title=" ">
<polygon fill="#e0e0e0" stroke="#999999" points="1066.5,-74 1017.5,-74 1017.5,-55 1066.5,-55 1066.5,-74"/>
<text text-anchor="middle" x="1042" y="-62" font-family="Helvetica,sans-Serif" font-size="10.00">cstdlib</text>
</a>
</g>
</g>
<!-- Node11&#45;&gt;Node14 -->
<g id="edge17_Node000011_Node000014" class="edge">
<title>Node11&#45;&gt;Node14</title>
<g id="a_edge17_Node000011_Node000014"><a xlink:title=" ">
<path fill="none" stroke="#63b8ff" d="M923.65,-109.98C946.85,-101.27 983.12,-87.63 1009.4,-77.75"/>
<polygon fill="#63b8ff" stroke="#63b8ff" points="1010.8,-80.97 1018.93,-74.17 1008.34,-74.41 1010.8,-80.97"/>
</a>
</g>
</g>
<!-- Node15 -->
<g id="Node000015" class="node">
<title>Node15</title>
<g id="a_Node000015"><a xlink:title=" ">
<polygon fill="#e0e0e0" stroke="#999999" points="935,-74 875,-74 875,-55 935,-55 935,-74"/>
<text text-anchor="middle" x="905" y="-62" font-family="Helvetica,sans-Serif" font-size="10.00">iostream</text>
</a>
</g>
</g>
<!-- Node11&#45;&gt;Node15 -->
<g id="edge18_Node000011_Node000015" class="edge">
<title>Node11&#45;&gt;Node15</title>
<g id="a_edge18_Node000011_Node000015"><a xlink:title=" ">
<path fill="none" stroke="#63b8ff" d="M901.66,-109.75C902.18,-102.8 902.94,-92.85 903.59,-84.13"/>
<polygon fill="#63b8ff" stroke="#63b8ff" points="907.09,-84.32 904.35,-74.09 900.11,-83.8 907.09,-84.32"/>
</a>
</g>
</g>
<!-- Node16 -->
<g id="Node000016" class="node">
<title>Node16</title>
<g id="a_Node000016"><a xlink:title=" ">
<polygon fill="#e0e0e0" stroke="#999999" points="780.5,-74 715.5,-74 715.5,-55 780.5,-55 780.5,-74"/>
<text text-anchor="middle" x="748" y="-62" font-family="Helvetica,sans-Serif" font-size="10.00">stdexcept</text>
</a>
</g>
</g>
<!-- Node11&#45;&gt;Node16 -->
<g id="edge20_Node000011_Node000016" class="edge">
<title>Node11&#45;&gt;Node16</title>
<g id="a_edge20_Node000011_Node000016"><a xlink:title=" ">
<path fill="none" stroke="#63b8ff" d="M876.42,-109.98C850.95,-101.16 810.96,-87.31 782.37,-77.41"/>
<polygon fill="#63b8ff" stroke="#63b8ff" points="783.37,-74.05 772.77,-74.08 781.08,-80.66 783.37,-74.05"/>
</a>
</g>
</g>
<!-- Node11&#45;&gt;Node17 -->
<g id="edge22_Node000011_Node000017" class="edge">
<title>Node11&#45;&gt;Node17</title>
<g id="a_edge22_Node000011_Node000017"><a xlink:title=" ">
<path fill="none" stroke="#63b8ff" d="M936.35,-109.98C974.16,-100.87 1034.26,-86.4 1075.57,-76.45"/>
<polygon fill="#63b8ff" stroke="#63b8ff" points="1076.47,-79.83 1085.38,-74.08 1074.83,-73.02 1076.47,-79.83"/>
</a>
</g>
</g>
<!-- Node17&#45;&gt;Node2 -->
<g id="edge24_Node000017_Node000002" class="edge">
<title>Node17&#45;&gt;Node2</title>
<g id="a_edge24_Node000017_Node000002"><a xlink:title=" ">
<path fill="none" stroke="#63b8ff" d="M1084.66,-56.57C1081.73,-56.03 1078.82,-55.5 1076,-55 991.34,-39.95 891.29,-23.68 841.11,-15.62"/>
<polygon fill="#63b8ff" stroke="#63b8ff" points="841.61,-12.16 831.18,-14.03 840.5,-19.07 841.61,-12.16"/>
</a>
</g>
</g>
<!-- Node17&#45;&gt;Node8 -->
<g id="edge23_Node000017_Node000008" class="edge">
<title>Node17&#45;&gt;Node8</title>
<g id="a_edge23_Node000017_Node000008"><a xlink:title=" ">
<path fill="none" stroke="#63b8ff" d="M1133.05,-54.98C1144.46,-46.92 1161.83,-34.65 1175.43,-25.03"/>
<polygon fill="#63b8ff" stroke="#63b8ff" points="1177.58,-27.8 1183.73,-19.17 1173.54,-22.08 1177.58,-27.8"/>
</a>
</g>
</g>
<!-- Node18 -->
<g id="Node000018" class="node">
<title>Node18</title>
<g id="a_Node000018"><a xlink:href="../../dc/df2/type__id_8h.html" target="_top" xlink:title=" ">
<polygon fill="white" stroke="#666666" points="1153,-19 1067,-19 1067,0 1153,0 1153,-19"/>
<text text-anchor="middle" x="1110" y="-7" font-family="Helvetica,sans-Serif" font-size="10.00">type/type_id.h</text>
</a>
</g>
</g>
<!-- Node17&#45;&gt;Node18 -->
<g id="edge25_Node000017_Node000018" class="edge">
<title>Node17&#45;&gt;Node18</title>
<g id="a_edge25_Node000017_Node000018"><a xlink:title=" ">
<path fill="none" stroke="#63b8ff" d="M1119.18,-54.75C1117.74,-47.8 1115.68,-37.85 1113.87,-29.13"/>
<polygon fill="#63b8ff" stroke="#63b8ff" points="1117.24,-28.17 1111.78,-19.09 1110.39,-29.59 1117.24,-28.17"/>
</a>
</g>
</g>
<!-- Node19&#45;&gt;Node16 -->
<g id="edge29_Node000019_Node000016" class="edge">
<title>Node19&#45;&gt;Node16</title>
<g id="a_edge29_Node000019_Node000016"><a xlink:title=" ">
<path fill="none" stroke="#63b8ff" d="M665.75,-109.98C681.23,-101.61 705.09,-88.7 723.14,-78.95"/>
<polygon fill="#63b8ff" stroke="#63b8ff" points="724.84,-82.01 731.97,-74.17 721.51,-75.85 724.84,-82.01"/>
</a>
</g>
</g>
<!-- Node20 -->
<g id="Node000020" class="node">
<title>Node20</title>
<g id="a_Node000020"><a xlink:title=" ">
<polygon fill="#e0e0e0" stroke="#999999" points="614,-74 562,-74 562,-55 614,-55 614,-74"/>
<text text-anchor="middle" x="588" y="-62" font-family="Helvetica,sans-Serif" font-size="10.00">cassert</text>
</a>
</g>
</g>
<!-- Node19&#45;&gt;Node20 -->
<g id="edge27_Node000019_Node000020" class="edge">
<title>Node19&#45;&gt;Node20</title>
<g id="a_edge27_Node000019_Node000020"><a xlink:title=" ">
<path fill="none" stroke="#63b8ff" d="M640.04,-109.98C630.87,-102.15 617.06,-90.34 605.97,-80.86"/>
<polygon fill="#63b8ff" stroke="#63b8ff" points="608.02,-78.01 598.14,-74.17 603.47,-83.33 608.02,-78.01"/>
</a>
</g>
</g>
<!-- Node21 -->
<g id="Node000021" class="node">
<title>Node21</title>
<g id="a_Node000021"><a xlink:title=" ">
<polygon fill="#e0e0e0" stroke="#999999" points="697.5,-74 632.5,-74 632.5,-55 697.5,-55 697.5,-74"/>
<text text-anchor="middle" x="665" y="-62" font-family="Helvetica,sans-Serif" font-size="10.00">exception</text>
</a>
</g>
</g>
<!-- Node19&#45;&gt;Node21 -->
<g id="edge28_Node000019_Node000021" class="edge">
<title>Node19&#45;&gt;Node21</title>
<g id="a_edge28_Node000019_Node000021"><a xlink:title=" ">
<path fill="none" stroke="#63b8ff" d="M652.48,-109.75C654.46,-102.72 657.32,-92.62 659.81,-83.84"/>
<polygon fill="#63b8ff" stroke="#63b8ff" points="663.21,-84.66 662.57,-74.09 656.48,-82.76 663.21,-84.66"/>
</a>
</g>
</g>
<!-- Node22&#45;&gt;Node8 -->
<g id="edge36_Node000022_Node000008" class="edge">
<title>Node22&#45;&gt;Node8</title>
<g id="a_edge36_Node000022_Node000008"><a xlink:title=" ">
<path fill="none" stroke="#63b8ff" d="M1298.95,-109.87C1321.93,-98.19 1355.76,-76.36 1340,-55 1315.15,-21.32 1265.14,-12.35 1231.11,-10.37"/>
<polygon fill="#63b8ff" stroke="#63b8ff" points="1231.24,-6.87 1221.1,-9.96 1230.95,-13.86 1231.24,-6.87"/>
</a>
</g>
</g>
<!-- Node22&#45;&gt;Node12 -->
<g id="edge34_Node000022_Node000012" class="edge">
<title>Node22&#45;&gt;Node12</title>
<g id="a_edge34_Node000022_Node000012"><a xlink:title=" ">
<path fill="none" stroke="#63b8ff" d="M1273.06,-109.75C1267.13,-102.26 1258.43,-91.28 1251.18,-82.13"/>
<polygon fill="#63b8ff" stroke="#63b8ff" points="1253.76,-79.75 1244.81,-74.09 1248.27,-84.1 1253.76,-79.75"/>
</a>
</g>
</g>
<!-- Node23 -->
<g id="Node000023" class="node">
<title>Node23</title>
<g id="a_Node000023"><a xlink:title=" ">
<polygon fill="#e0e0e0" stroke="#999999" points="1331,-74 1281,-74 1281,-55 1331,-55 1331,-74"/>
<text text-anchor="middle" x="1306" y="-62" font-family="Helvetica,sans-Serif" font-size="10.00">chrono</text>
</a>
</g>
</g>
<!-- Node22&#45;&gt;Node23 -->
<g id="edge35_Node000022_Node000023" class="edge">
<title>Node22&#45;&gt;Node23</title>
<g id="a_edge35_Node000022_Node000023"><a xlink:title=" ">
<path fill="none" stroke="#63b8ff" d="M1284.29,-109.75C1287.81,-102.57 1292.91,-92.18 1297.28,-83.27"/>
<polygon fill="#63b8ff" stroke="#63b8ff" points="1300.52,-84.61 1301.79,-74.09 1294.24,-81.53 1300.52,-84.61"/>
</a>
</g>
</g>
<!-- Node24&#45;&gt;Node2 -->
<g id="edge40_Node000024_Node000002" class="edge">
<title>Node24&#45;&gt;Node2</title>
<g id="a_edge40_Node000024_Node000002"><a xlink:title=" ">
<path fill="none" stroke="#63b8ff" d="M1360.77,-164.72C1364.66,-142.56 1371.32,-84.04 1340,-55 1321.62,-37.96 953.68,-17.87 841.31,-12.11"/>
<polygon fill="#63b8ff" stroke="#63b8ff" points="841.42,-8.62 831.25,-11.6 841.06,-15.61 841.42,-8.62"/>
</a>
</g>
</g>
<!-- Node24&#45;&gt;Node8 -->
<g id="edge38_Node000024_Node000008" class="edge">
<title>Node24&#45;&gt;Node8</title>
<g id="a_edge38_Node000024_Node000008"><a xlink:title=" ">
<path fill="none" stroke="#63b8ff" d="M1394.74,-164.92C1427.18,-155.22 1467.73,-137.15 1452,-110 1407.11,-32.55 1290.39,-15.19 1231.33,-11.43"/>
<polygon fill="#63b8ff" stroke="#63b8ff" points="1231.52,-7.94 1221.35,-10.89 1231.14,-14.93 1231.52,-7.94"/>
</a>
</g>
</g>
<!-- Node24&#45;&gt;Node22 -->
<g id="edge41_Node000024_Node000022" class="edge">
<title>Node24&#45;&gt;Node22</title>
<g id="a_edge41_Node000024_Node000022"><a xlink:title=" ">
<path fill="none" stroke="#63b8ff" d="M1346.31,-164.98C1334.17,-156.84 1315.64,-144.41 1301.25,-134.76"/>
<polygon fill="#63b8ff" stroke="#63b8ff" points="1303.18,-131.84 1292.92,-129.17 1299.28,-137.65 1303.18,-131.84"/>
</a>
</g>
</g>
<!-- Node25 -->
<g id="Node000025" class="node">
<title>Node25</title>
<g id="a_Node000025"><a xlink:title=" ">
<polygon fill="#e0e0e0" stroke="#999999" points="1443,-129 1387,-129 1387,-110 1443,-110 1443,-129"/>
<text text-anchor="middle" x="1415" y="-117" font-family="Helvetica,sans-Serif" font-size="10.00">sstream</text>
</a>
</g>
</g>
<!-- Node24&#45;&gt;Node25 -->
<g id="edge39_Node000024_Node000025" class="edge">
<title>Node24&#45;&gt;Node25</title>
<g id="a_edge39_Node000024_Node000025"><a xlink:title=" ">
<path fill="none" stroke="#63b8ff" d="M1368,-164.98C1376.19,-157.23 1388.51,-145.58 1398.47,-136.14"/>
<polygon fill="#63b8ff" stroke="#63b8ff" points="1400.98,-138.59 1405.84,-129.17 1396.17,-133.5 1400.98,-138.59"/>
</a>
</g>
</g>
<!-- Node26&#45;&gt;Node2 -->
<g id="edge45_Node000026_Node000002" class="edge">
<title>Node26&#45;&gt;Node2</title>
<g id="a_edge45_Node000026_Node000002"><a xlink:title=" ">
<path fill="none" stroke="#63b8ff" d="M275.96,-109.95C237.63,-99.67 187.27,-80.56 211,-55 249.68,-13.34 657.71,-10.37 776.64,-10.4"/>
<polygon fill="#63b8ff" stroke="#63b8ff" points="776.91,-13.9 786.92,-10.41 776.92,-6.9 776.91,-13.9"/>
</a>
</g>
</g>
<!-- Node26&#45;&gt;Node5 -->
<g id="edge44_Node000026_Node000005" class="edge">
<title>Node26&#45;&gt;Node5</title>
<g id="a_edge44_Node000026_Node000005"><a xlink:title=" ">
<path fill="none" stroke="#63b8ff" d="M340.19,-109.98C367.44,-101.13 410.3,-87.19 440.78,-77.28"/>
<polygon fill="#63b8ff" stroke="#63b8ff" points="442.18,-80.5 450.61,-74.08 440.01,-73.85 442.18,-80.5"/>
</a>
</g>
</g>
<!-- Node26&#45;&gt;Node9 -->
<g id="edge46_Node000026_Node000009" class="edge">
<title>Node26&#45;&gt;Node9</title>
<g id="a_edge46_Node000026_Node000009"><a xlink:title=" ">
<path fill="none" stroke="#63b8ff" d="M313.5,-109.75C313.11,-102.8 312.55,-92.85 312.05,-84.13"/>
<polygon fill="#63b8ff" stroke="#63b8ff" points="315.55,-83.88 311.49,-74.09 308.56,-84.27 315.55,-83.88"/>
</a>
</g>
</g>
<!-- Node26&#45;&gt;Node10 -->
<g id="edge47_Node000026_Node000010" class="edge">
<title>Node26&#45;&gt;Node10</title>
<g id="a_edge47_Node000026_Node000010"><a xlink:title=" ">
<path fill="none" stroke="#63b8ff" d="M326.37,-109.98C338.09,-101.92 355.92,-89.65 369.89,-80.03"/>
<polygon fill="#63b8ff" stroke="#63b8ff" points="372.15,-82.72 378.4,-74.17 368.18,-76.96 372.15,-82.72"/>
</a>
</g>
</g>
<!-- Node26&#45;&gt;Node17 -->
<g id="edge53_Node000026_Node000017" class="edge">
<title>Node26&#45;&gt;Node17</title>
<g id="a_edge53_Node000026_Node000017"><a xlink:title=" ">
<path fill="none" stroke="#63b8ff" d="M352.66,-116.9C484.18,-111.36 914.58,-92.37 1074.57,-73.98"/>
<polygon fill="#63b8ff" stroke="#63b8ff" points="1075.2,-77.43 1084.71,-72.77 1074.37,-70.48 1075.2,-77.43"/>
</a>
</g>
</g>
<!-- Node27 -->
<g id="Node000027" class="node">
<title>Node27</title>
<g id="a_Node000027"><a xlink:title=" ">
<polygon fill="#e0e0e0" stroke="#999999" points="270,-74 220,-74 220,-55 270,-55 270,-74"/>
<text text-anchor="middle" x="245" y="-62" font-family="Helvetica,sans-Serif" font-size="10.00">cstring</text>
</a>
</g>
</g>
<!-- Node26&#45;&gt;Node27 -->
<g id="edge43_Node000026_Node000027" class="edge">
<title>Node26&#45;&gt;Node27</title>
<g id="a_edge43_Node000026_Node000027"><a xlink:title=" ">
<path fill="none" stroke="#63b8ff" d="M302.91,-109.98C292.51,-102 276.74,-89.88 264.28,-80.31"/>
<polygon fill="#63b8ff" stroke="#63b8ff" points="266.35,-77.49 256.29,-74.17 262.09,-83.04 266.35,-77.49"/>
</a>
</g>
</g>
<!-- Node28 -->
<g id="Node000028" class="node">
<title>Node28</title>
<g id="a_Node000028"><a xlink:href="../../d9/d86/limits_8h.html" target="_top" xlink:title=" ">
<polygon fill="white" stroke="#666666" points="126,-74 48,-74 48,-55 126,-55 126,-74"/>
<text text-anchor="middle" x="87" y="-62" font-family="Helvetica,sans-Serif" font-size="10.00">type/limits.h</text>
</a>
</g>
</g>
<!-- Node26&#45;&gt;Node28 -->
<g id="edge48_Node000026_Node000028" class="edge">
<title>Node26&#45;&gt;Node28</title>
<g id="a_edge48_Node000026_Node000028"><a xlink:title=" ">
<path fill="none" stroke="#63b8ff" d="M277.53,-109.98C238.43,-100.86 176.23,-86.33 133.61,-76.38"/>
<polygon fill="#63b8ff" stroke="#63b8ff" points="134.29,-72.95 123.76,-74.08 132.7,-79.76 134.29,-72.95"/>
</a>
</g>
</g>
<!-- Node28&#45;&gt;Node8 -->
<g id="edge51_Node000028_Node000008" class="edge">
<title>Node28&#45;&gt;Node8</title>
<g id="a_edge51_Node000028_Node000008"><a xlink:title=" ">
<path fill="none" stroke="#63b8ff" d="M126.07,-60.51C150.48,-58.73 182.56,-56.51 211,-55 630.07,-32.71 741.52,-77.9 1160.9,-18.82"/>
<polygon fill="#63b8ff" stroke="#63b8ff" points="1161.46,-22.27 1170.86,-17.4 1160.47,-15.34 1161.46,-22.27"/>
</a>
</g>
</g>
<!-- Node29 -->
<g id="Node000029" class="node">
<title>Node29</title>
<g id="a_Node000029"><a xlink:title=" ">
<polygon fill="#e0e0e0" stroke="#999999" points="44,-19 0,-19 0,0 44,0 44,-19"/>
<text text-anchor="middle" x="22" y="-7" font-family="Helvetica,sans-Serif" font-size="10.00">cfloat</text>
</a>
</g>
</g>
<!-- Node28&#45;&gt;Node29 -->
<g id="edge49_Node000028_Node000029" class="edge">
<title>Node28&#45;&gt;Node29</title>
<g id="a_edge49_Node000028_Node000029"><a xlink:title=" ">
<path fill="none" stroke="#63b8ff" d="M76.56,-54.98C66.85,-47.07 52.18,-35.11 40.5,-25.58"/>
<polygon fill="#63b8ff" stroke="#63b8ff" points="42.6,-22.78 32.63,-19.17 38.17,-28.2 42.6,-22.78"/>
</a>
</g>
</g>
<!-- Node30 -->
<g id="Node000030" class="node">
<title>Node30</title>
<g id="a_Node000030"><a xlink:title=" ">
<polygon fill="#e0e0e0" stroke="#999999" points="112,-19 62,-19 62,0 112,0 112,-19"/>
<text text-anchor="middle" x="87" y="-7" font-family="Helvetica,sans-Serif" font-size="10.00">climits</text>
</a>
</g>
</g>
<!-- Node28&#45;&gt;Node30 -->
<g id="edge50_Node000028_Node000030" class="edge">
<title>Node28&#45;&gt;Node30</title>
<g id="a_edge50_Node000028_Node000030"><a xlink:title=" ">
<path fill="none" stroke="#63b8ff" d="M87,-54.75C87,-47.8 87,-37.85 87,-29.13"/>
<polygon fill="#63b8ff" stroke="#63b8ff" points="90.5,-29.09 87,-19.09 83.5,-29.09 90.5,-29.09"/>
</a>
</g>
</g>
<!-- Node31 -->
<g id="Node000031" class="node">
<title>Node31</title>
<g id="a_Node000031"><a xlink:title=" ">
<polygon fill="#e0e0e0" stroke="#999999" points="174,-19 130,-19 130,0 174,0 174,-19"/>
<text text-anchor="middle" x="152" y="-7" font-family="Helvetica,sans-Serif" font-size="10.00">limits</text>
</a>
</g>
</g>
<!-- Node28&#45;&gt;Node31 -->
<g id="edge52_Node000028_Node000031" class="edge">
<title>Node28&#45;&gt;Node31</title>
<g id="a_edge52_Node000028_Node000031"><a xlink:title=" ">
<path fill="none" stroke="#63b8ff" d="M97.44,-54.98C107.15,-47.07 121.82,-35.11 133.5,-25.58"/>
<polygon fill="#63b8ff" stroke="#63b8ff" points="135.83,-28.2 141.37,-19.17 131.4,-22.78 135.83,-28.2"/>
</a>
</g>
</g>
</g>
</svg>
