<?xml version="1.0" encoding="UTF-8" standalone="no"?>
<!DOCTYPE svg PUBLIC "-//W3C//DTD SVG 1.1//EN"
 "http://www.w3.org/Graphics/SVG/1.1/DTD/svg11.dtd">
<!-- Generated by graphviz version 2.43.0 (0)
 -->
<!-- Title: bustub::TransactionManager Pages: 1 -->
<svg width="897pt" height="232pt"
 viewBox="0.00 0.00 897.00 232.20" xmlns="http://www.w3.org/2000/svg" xmlns:xlink="http://www.w3.org/1999/xlink">
<g id="graph0" class="graph" transform="scale(1 1) rotate(0) translate(4 228.2)">
<title>bustub::TransactionManager</title>
<!-- Node1 -->
<g id="Node000001" class="node">
<title>Node1</title>
<g id="a_Node000001"><a xlink:title=" ">
<polygon fill="#999999" stroke="#666666" points="408,-25.2 254,-25.2 254,-6.2 408,-6.2 408,-25.2"/>
<text text-anchor="middle" x="331" y="-13.2" font-family="Helvetica,sans-Serif" font-size="10.00">bustub::TransactionManager</text>
</a>
</g>
</g>
<!-- Node11 -->
<g id="Node000011" class="node">
<title>Node11</title>
<g id="a_Node000011"><a xlink:href="../../df/d43/classbustub_1_1LockManager.html" target="_top" xlink:title=" ">
<polygon fill="white" stroke="#666666" points="652,-46.2 531,-46.2 531,-27.2 652,-27.2 652,-46.2"/>
<text text-anchor="middle" x="591.5" y="-34.2" font-family="Helvetica,sans-Serif" font-size="10.00">bustub::LockManager</text>
</a>
</g>
</g>
<!-- Node1&#45;&gt;Node11 -->
<g id="edge12_Node000011_Node000001" class="edge">
<title>Node1&#45;&gt;Node11</title>
<g id="a_edge12_Node000011_Node000001"><a xlink:title=" ">
<path fill="none" stroke="#9a32cd" stroke-dasharray="5,2" d="M418.42,-22.72C455.34,-25.72 497.51,-29.14 530.86,-31.85"/>
<polygon fill="#9a32cd" stroke="#9a32cd" points="418.41,-19.21 408.16,-21.89 417.84,-26.18 418.41,-19.21"/>
</a>
</g>
<text text-anchor="middle" x="462.5" y="-31.7" font-family="Helvetica,sans-Serif" font-size="10.00" fill="grey"> txn_manager_</text>
</g>
<!-- Node2 -->
<g id="Node000002" class="node">
<title>Node2</title>
<g id="a_Node000002"><a xlink:href="../../d8/d96/classbustub_1_1Watermark.html" target="_top" xlink:title="tracks all the read timestamps.">
<polygon fill="white" stroke="#666666" points="128,-25.2 18,-25.2 18,-6.2 128,-6.2 128,-25.2"/>
<text text-anchor="middle" x="73" y="-13.2" font-family="Helvetica,sans-Serif" font-size="10.00">bustub::Watermark</text>
</a>
</g>
</g>
<!-- Node2&#45;&gt;Node1 -->
<g id="edge1_Node000001_Node000002" class="edge">
<title>Node2&#45;&gt;Node1</title>
<g id="a_edge1_Node000001_Node000002"><a xlink:title=" ">
<path fill="none" stroke="#9a32cd" stroke-dasharray="5,2" d="M138.42,-15.7C173.52,-15.7 217.17,-15.7 253.94,-15.7"/>
<polygon fill="#9a32cd" stroke="#9a32cd" points="138.29,-12.2 128.29,-15.7 138.29,-19.2 138.29,-12.2"/>
</a>
</g>
<text text-anchor="middle" x="200" y="-18.7" font-family="Helvetica,sans-Serif" font-size="10.00" fill="grey"> running_txns_</text>
</g>
<!-- Node3 -->
<g id="Node000003" class="node">
<title>Node3</title>
<g id="a_Node000003"><a xlink:href="../../d7/ddd/classbustub_1_1Catalog.html" target="_top" xlink:title=" ">
<polygon fill="white" stroke="#666666" points="889,-108.2 796,-108.2 796,-89.2 889,-89.2 889,-108.2"/>
<text text-anchor="middle" x="842.5" y="-96.2" font-family="Helvetica,sans-Serif" font-size="10.00">bustub::Catalog</text>
</a>
</g>
</g>
<!-- Node3&#45;&gt;Node1 -->
<g id="edge2_Node000001_Node000003" class="edge">
<title>Node3&#45;&gt;Node1</title>
<g id="a_edge2_Node000001_Node000003"><a xlink:title=" ">
<path fill="none" stroke="#9a32cd" stroke-dasharray="5,2" d="M828.05,-80.9C816.34,-66.62 798.12,-47.15 778,-35.7 733.31,-10.26 717.01,-13.19 666,-6.7 578.1,4.5 476.19,-0.87 408.27,-7.02"/>
<polygon fill="#9a32cd" stroke="#9a32cd" points="825.51,-83.32 834.46,-88.99 830.99,-78.98 825.51,-83.32"/>
</a>
</g>
<text text-anchor="middle" x="591.5" y="-9.7" font-family="Helvetica,sans-Serif" font-size="10.00" fill="grey"> catalog_</text>
</g>
<!-- Node4 -->
<g id="Node000004" class="node">
<title>Node4</title>
<g id="a_Node000004"><a xlink:href="../../df/d04/structbustub_1_1TableInfo.html" target="_top" xlink:title=" ">
<polygon fill="white" stroke="#666666" points="641.5,-224.2 541.5,-224.2 541.5,-205.2 641.5,-205.2 641.5,-224.2"/>
<text text-anchor="middle" x="591.5" y="-212.2" font-family="Helvetica,sans-Serif" font-size="10.00">bustub::TableInfo</text>
</a>
</g>
</g>
<!-- Node4&#45;&gt;Node3 -->
<g id="edge3_Node000003_Node000004" class="edge">
<title>Node4&#45;&gt;Node3</title>
<g id="a_edge3_Node000003_Node000004"><a xlink:title=" ">
<path fill="none" stroke="#9a32cd" stroke-dasharray="5,2" d="M651.83,-208.04C689.97,-201.73 739.42,-189.64 778,-166.7 803.55,-151.51 825.17,-123.03 835.32,-108.2"/>
<polygon fill="#9a32cd" stroke="#9a32cd" points="651.23,-204.59 641.89,-209.59 652.31,-211.51 651.23,-204.59"/>
</a>
</g>
<text text-anchor="middle" x="731" y="-203.7" font-family="Helvetica,sans-Serif" font-size="10.00" fill="grey"> NULL_TABLE_INFO</text>
</g>
<!-- Node5 -->
<g id="Node000005" class="node">
<title>Node5</title>
<g id="a_Node000005"><a xlink:href="../../da/d36/classbustub_1_1Schema.html" target="_top" xlink:title=" ">
<polygon fill="white" stroke="#666666" points="378.5,-211.2 283.5,-211.2 283.5,-192.2 378.5,-192.2 378.5,-211.2"/>
<text text-anchor="middle" x="331" y="-199.2" font-family="Helvetica,sans-Serif" font-size="10.00">bustub::Schema</text>
</a>
</g>
</g>
<!-- Node5&#45;&gt;Node4 -->
<g id="edge4_Node000004_Node000005" class="edge">
<title>Node5&#45;&gt;Node4</title>
<g id="a_edge4_Node000004_Node000005"><a xlink:title=" ">
<path fill="none" stroke="#9a32cd" stroke-dasharray="5,2" d="M388.54,-204.54C434.17,-206.84 497.73,-210.03 541.28,-212.22"/>
<polygon fill="#9a32cd" stroke="#9a32cd" points="388.68,-201.04 378.51,-204.04 388.32,-208.04 388.68,-201.04"/>
</a>
</g>
<text text-anchor="middle" x="462.5" y="-212.7" font-family="Helvetica,sans-Serif" font-size="10.00" fill="grey"> schema_</text>
</g>
<!-- Node6 -->
<g id="Node000006" class="node">
<title>Node6</title>
<g id="a_Node000006"><a xlink:href="../../d4/d5c/structbustub_1_1IndexInfo.html" target="_top" xlink:title=" ">
<polygon fill="white" stroke="#666666" points="642,-180.2 541,-180.2 541,-161.2 642,-161.2 642,-180.2"/>
<text text-anchor="middle" x="591.5" y="-168.2" font-family="Helvetica,sans-Serif" font-size="10.00">bustub::IndexInfo</text>
</a>
</g>
</g>
<!-- Node5&#45;&gt;Node6 -->
<g id="edge6_Node000006_Node000005" class="edge">
<title>Node5&#45;&gt;Node6</title>
<g id="a_edge6_Node000006_Node000005"><a xlink:title=" ">
<path fill="none" stroke="#9a32cd" stroke-dasharray="5,2" d="M388.51,-194.92C433.99,-189.47 497.28,-181.88 540.84,-176.65"/>
<polygon fill="#9a32cd" stroke="#9a32cd" points="388.03,-191.45 378.51,-196.12 388.86,-198.4 388.03,-191.45"/>
</a>
</g>
<text text-anchor="middle" x="462.5" y="-192.7" font-family="Helvetica,sans-Serif" font-size="10.00" fill="grey"> key_schema_</text>
</g>
<!-- Node6&#45;&gt;Node3 -->
<g id="edge5_Node000003_Node000006" class="edge">
<title>Node6&#45;&gt;Node3</title>
<g id="a_edge5_Node000003_Node000006"><a xlink:title=" ">
<path fill="none" stroke="#9a32cd" stroke-dasharray="5,2" d="M652.14,-160.04C688.94,-152.69 736.81,-141.72 778,-127.7 793.72,-122.35 810.8,-114.42 823.28,-108.2"/>
<polygon fill="#9a32cd" stroke="#9a32cd" points="651.21,-156.66 642.07,-162.02 652.56,-163.52 651.21,-156.66"/>
</a>
</g>
<text text-anchor="middle" x="731" y="-154.7" font-family="Helvetica,sans-Serif" font-size="10.00" fill="grey"> NULL_INDEX_INFO</text>
</g>
<!-- Node7 -->
<g id="Node000007" class="node">
<title>Node7</title>
<g id="a_Node000007"><a xlink:href="../../d6/d5d/classbustub_1_1BufferPoolManager.html" target="_top" xlink:title=" ">
<polygon fill="white" stroke="#666666" points="666,-131.2 517,-131.2 517,-112.2 666,-112.2 666,-131.2"/>
<text text-anchor="middle" x="591.5" y="-119.2" font-family="Helvetica,sans-Serif" font-size="10.00">bustub::BufferPoolManager</text>
</a>
</g>
</g>
<!-- Node7&#45;&gt;Node3 -->
<g id="edge7_Node000003_Node000007" class="edge">
<title>Node7&#45;&gt;Node3</title>
<g id="a_edge7_Node000003_Node000007"><a xlink:title=" ">
<path fill="none" stroke="#9a32cd" stroke-dasharray="5,2" d="M676.2,-113.97C716.14,-110.28 762.38,-106.01 795.78,-102.92"/>
<polygon fill="#9a32cd" stroke="#9a32cd" points="675.83,-110.49 666.2,-114.89 676.48,-117.46 675.83,-110.49"/>
</a>
</g>
<text text-anchor="middle" x="731" y="-115.7" font-family="Helvetica,sans-Serif" font-size="10.00" fill="grey"> bpm_</text>
</g>
<!-- Node8 -->
<g id="Node000008" class="node">
<title>Node8</title>
<g id="a_Node000008"><a xlink:href="../../d4/d87/classbustub_1_1Page.html" target="_top" xlink:title=" ">
<polygon fill="white" stroke="#666666" points="370.5,-159.2 291.5,-159.2 291.5,-140.2 370.5,-140.2 370.5,-159.2"/>
<text text-anchor="middle" x="331" y="-147.2" font-family="Helvetica,sans-Serif" font-size="10.00">bustub::Page</text>
</a>
</g>
</g>
<!-- Node8&#45;&gt;Node7 -->
<g id="edge8_Node000007_Node000008" class="edge">
<title>Node8&#45;&gt;Node7</title>
<g id="a_edge8_Node000007_Node000008"><a xlink:title=" ">
<path fill="none" stroke="#9a32cd" stroke-dasharray="5,2" d="M381.09,-144.38C419.46,-140.22 473.4,-134.38 516.93,-129.67"/>
<polygon fill="#9a32cd" stroke="#9a32cd" points="380.26,-140.95 370.7,-145.51 381.02,-147.91 380.26,-140.95"/>
</a>
</g>
<text text-anchor="middle" x="462.5" y="-141.7" font-family="Helvetica,sans-Serif" font-size="10.00" fill="grey"> pages_</text>
</g>
<!-- Node9 -->
<g id="Node000009" class="node">
<title>Node9</title>
<g id="a_Node000009"><a xlink:href="../../d8/dbd/classbustub_1_1ReaderWriterLatch.html" target="_top" xlink:title=" ">
<polygon fill="white" stroke="#666666" points="146,-159.2 0,-159.2 0,-140.2 146,-140.2 146,-159.2"/>
<text text-anchor="middle" x="73" y="-147.2" font-family="Helvetica,sans-Serif" font-size="10.00">bustub::ReaderWriterLatch</text>
</a>
</g>
</g>
<!-- Node9&#45;&gt;Node8 -->
<g id="edge9_Node000008_Node000009" class="edge">
<title>Node9&#45;&gt;Node8</title>
<g id="a_edge9_Node000008_Node000009"><a xlink:title=" ">
<path fill="none" stroke="#9a32cd" stroke-dasharray="5,2" d="M156.46,-149.7C201.79,-149.7 255.88,-149.7 291.49,-149.7"/>
<polygon fill="#9a32cd" stroke="#9a32cd" points="156.33,-146.2 146.33,-149.7 156.33,-153.2 156.33,-146.2"/>
</a>
</g>
<text text-anchor="middle" x="200" y="-152.7" font-family="Helvetica,sans-Serif" font-size="10.00" fill="grey"> rwlatch_</text>
</g>
<!-- Node10 -->
<g id="Node000010" class="node">
<title>Node10</title>
<g id="a_Node000010"><a xlink:href="../../d7/d4e/classbustub_1_1LogManager.html" target="_top" xlink:title=" ">
<polygon fill="white" stroke="#666666" points="389,-107.2 273,-107.2 273,-88.2 389,-88.2 389,-107.2"/>
<text text-anchor="middle" x="331" y="-95.2" font-family="Helvetica,sans-Serif" font-size="10.00">bustub::LogManager</text>
</a>
</g>
</g>
<!-- Node10&#45;&gt;Node3 -->
<g id="edge13_Node000003_Node000010" class="edge">
<title>Node10&#45;&gt;Node3</title>
<g id="a_edge13_Node000003_Node000010"><a xlink:title=" ">
<path fill="none" stroke="#9a32cd" stroke-dasharray="5,2" d="M399.21,-95.44C434.31,-94.38 477.96,-93.23 517,-92.7 583.22,-91.8 599.79,-91.57 666,-92.7 710.05,-93.45 760.28,-95.27 795.69,-96.7"/>
<polygon fill="#9a32cd" stroke="#9a32cd" points="398.97,-91.95 389.08,-95.76 399.18,-98.95 398.97,-91.95"/>
</a>
</g>
<text text-anchor="middle" x="591.5" y="-95.7" font-family="Helvetica,sans-Serif" font-size="10.00" fill="grey"> log_manager_</text>
</g>
<!-- Node10&#45;&gt;Node7 -->
<g id="edge10_Node000007_Node000010" class="edge">
<title>Node10&#45;&gt;Node7</title>
<g id="a_edge10_Node000007_Node000010"><a xlink:title=" ">
<path fill="none" stroke="#9a32cd" stroke-dasharray="5,2" d="M399.46,-103.96C435.51,-107.31 479.94,-111.43 516.88,-114.86"/>
<polygon fill="#9a32cd" stroke="#9a32cd" points="399.33,-100.43 389.05,-102.99 398.68,-107.4 399.33,-100.43"/>
</a>
</g>
<text text-anchor="middle" x="462.5" y="-114.7" font-family="Helvetica,sans-Serif" font-size="10.00" fill="grey"> log_manager_</text>
</g>
<!-- Node11&#45;&gt;Node3 -->
<g id="edge11_Node000003_Node000011" class="edge">
<title>Node11&#45;&gt;Node3</title>
<g id="a_edge11_Node000003_Node000011"><a xlink:title=" ">
<path fill="none" stroke="#9a32cd" stroke-dasharray="5,2" d="M662.4,-37.07C697.9,-39.13 741.19,-44.55 778,-57.7 798.02,-64.85 818.13,-79.37 830.2,-89.07"/>
<polygon fill="#9a32cd" stroke="#9a32cd" points="662.29,-33.57 652.12,-36.56 661.94,-40.56 662.29,-33.57"/>
</a>
</g>
<text text-anchor="middle" x="731" y="-60.7" font-family="Helvetica,sans-Serif" font-size="10.00" fill="grey"> lock_manager_</text>
</g>
</g>
</svg>
