<?xml version="1.0" encoding="UTF-8" standalone="no"?>
<!DOCTYPE svg PUBLIC "-//W3C//DTD SVG 1.1//EN"
 "http://www.w3.org/Graphics/SVG/1.1/DTD/svg11.dtd">
<!-- Generated by graphviz version 2.43.0 (0)
 -->
<!-- Title: src/type/integer_parent_type.cpp Pages: 1 -->
<svg width="1066pt" height="324pt"
 viewBox="0.00 0.00 1065.50 324.00" xmlns="http://www.w3.org/2000/svg" xmlns:xlink="http://www.w3.org/1999/xlink">
<g id="graph0" class="graph" transform="scale(1 1) rotate(0) translate(4 320)">
<title>src/type/integer_parent_type.cpp</title>
<!-- Node1 -->
<g id="Node000001" class="node">
<title>Node1</title>
<g id="a_Node000001"><a xlink:title=" ">
<polygon fill="#999999" stroke="#666666" points="145,-316 15,-316 15,-286 145,-286 145,-316"/>
<text text-anchor="start" x="23" y="-304" font-family="Helvetica,sans-Serif" font-size="10.00">src/type/integer_parent</text>
<text text-anchor="middle" x="80" y="-293" font-family="Helvetica,sans-Serif" font-size="10.00">_type.cpp</text>
</a>
</g>
</g>
<!-- Node2 -->
<g id="Node000002" class="node">
<title>Node2</title>
<g id="a_Node000002"><a xlink:title=" ">
<polygon fill="#e0e0e0" stroke="#999999" points="52,-244.5 0,-244.5 0,-225.5 52,-225.5 52,-244.5"/>
<text text-anchor="middle" x="26" y="-232.5" font-family="Helvetica,sans-Serif" font-size="10.00">cassert</text>
</a>
</g>
</g>
<!-- Node1&#45;&gt;Node2 -->
<g id="edge1_Node000001_Node000002" class="edge">
<title>Node1&#45;&gt;Node2</title>
<g id="a_edge1_Node000001_Node000002"><a xlink:title=" ">
<path fill="none" stroke="#63b8ff" d="M68.02,-285.8C59.76,-276.01 48.76,-262.98 40.09,-252.7"/>
<polygon fill="#63b8ff" stroke="#63b8ff" points="42.59,-250.23 33.46,-244.84 37.24,-254.74 42.59,-250.23"/>
</a>
</g>
</g>
<!-- Node3 -->
<g id="Node000003" class="node">
<title>Node3</title>
<g id="a_Node000003"><a xlink:title=" ">
<polygon fill="#e0e0e0" stroke="#999999" points="211.5,-129 164.5,-129 164.5,-110 211.5,-110 211.5,-129"/>
<text text-anchor="middle" x="188" y="-117" font-family="Helvetica,sans-Serif" font-size="10.00">cmath</text>
</a>
</g>
</g>
<!-- Node1&#45;&gt;Node3 -->
<g id="edge2_Node000001_Node000003" class="edge">
<title>Node1&#45;&gt;Node3</title>
<g id="a_edge2_Node000001_Node000003"><a xlink:title=" ">
<path fill="none" stroke="#63b8ff" d="M83.65,-285.92C90.8,-260.14 108.51,-204.37 137,-165 145.29,-153.55 157.05,-143.03 167.19,-135.1"/>
<polygon fill="#63b8ff" stroke="#63b8ff" points="169.31,-137.88 175.22,-129.08 165.12,-132.28 169.31,-137.88"/>
</a>
</g>
</g>
<!-- Node4 -->
<g id="Node000004" class="node">
<title>Node4</title>
<g id="a_Node000004"><a xlink:href="../../d2/d58/integer__parent__type_8h.html" target="_top" xlink:title=" ">
<polygon fill="white" stroke="#666666" points="241.5,-250 128.5,-250 128.5,-220 241.5,-220 241.5,-250"/>
<text text-anchor="start" x="136.5" y="-238" font-family="Helvetica,sans-Serif" font-size="10.00">type/integer_parent</text>
<text text-anchor="middle" x="185" y="-227" font-family="Helvetica,sans-Serif" font-size="10.00">_type.h</text>
</a>
</g>
</g>
<!-- Node1&#45;&gt;Node4 -->
<g id="edge3_Node000001_Node000004" class="edge">
<title>Node1&#45;&gt;Node4</title>
<g id="a_edge3_Node000001_Node000004"><a xlink:title=" ">
<path fill="none" stroke="#63b8ff" d="M103.04,-285.95C117.81,-276.95 137.19,-265.14 153.39,-255.27"/>
<polygon fill="#63b8ff" stroke="#63b8ff" points="155.29,-258.21 162.01,-250.01 151.65,-252.23 155.29,-258.21"/>
</a>
</g>
</g>
<!-- Node5 -->
<g id="Node000005" class="node">
<title>Node5</title>
<g id="a_Node000005"><a xlink:title=" ">
<polygon fill="#e0e0e0" stroke="#999999" points="559,-19 515,-19 515,0 559,0 559,-19"/>
<text text-anchor="middle" x="537" y="-7" font-family="Helvetica,sans-Serif" font-size="10.00">string</text>
</a>
</g>
</g>
<!-- Node4&#45;&gt;Node5 -->
<g id="edge4_Node000004_Node000005" class="edge">
<title>Node4&#45;&gt;Node5</title>
<g id="a_edge4_Node000004_Node000005"><a xlink:title=" ">
<path fill="none" stroke="#63b8ff" d="M165.31,-219.72C154.75,-210.79 142.75,-198.29 137,-184 115.6,-130.81 98.77,-97.72 137,-55 161.4,-27.73 413.71,-15.29 504.6,-11.67"/>
<polygon fill="#63b8ff" stroke="#63b8ff" points="505,-15.16 514.85,-11.27 504.73,-8.17 505,-15.16"/>
</a>
</g>
</g>
<!-- Node6 -->
<g id="Node000006" class="node">
<title>Node6</title>
<g id="a_Node000006"><a xlink:href="../../dd/d2d/exception_8h.html" target="_top" xlink:title=" ">
<polygon fill="white" stroke="#666666" points="458.5,-129 339.5,-129 339.5,-110 458.5,-110 458.5,-129"/>
<text text-anchor="middle" x="399" y="-117" font-family="Helvetica,sans-Serif" font-size="10.00">common/exception.h</text>
</a>
</g>
</g>
<!-- Node4&#45;&gt;Node6 -->
<g id="edge5_Node000004_Node000006" class="edge">
<title>Node4&#45;&gt;Node6</title>
<g id="a_edge5_Node000004_Node000006"><a xlink:title=" ">
<path fill="none" stroke="#63b8ff" d="M211.67,-219.85C253.27,-197.79 333.03,-155.49 373.74,-133.9"/>
<polygon fill="#63b8ff" stroke="#63b8ff" points="375.54,-136.9 382.74,-129.12 372.26,-130.72 375.54,-136.9"/>
</a>
</g>
</g>
<!-- Node16 -->
<g id="Node000016" class="node">
<title>Node16</title>
<g id="a_Node000016"><a xlink:href="../../d4/d5c/numeric__type_8h.html" target="_top" xlink:title=" ">
<polygon fill="white" stroke="#666666" points="263.5,-184 146.5,-184 146.5,-165 263.5,-165 263.5,-184"/>
<text text-anchor="middle" x="205" y="-172" font-family="Helvetica,sans-Serif" font-size="10.00">type/numeric_type.h</text>
</a>
</g>
</g>
<!-- Node4&#45;&gt;Node16 -->
<g id="edge17_Node000004_Node000016" class="edge">
<title>Node4&#45;&gt;Node16</title>
<g id="a_edge17_Node000004_Node000016"><a xlink:title=" ">
<path fill="none" stroke="#63b8ff" d="M189.84,-219.84C192.51,-212.04 195.85,-202.27 198.71,-193.89"/>
<polygon fill="#63b8ff" stroke="#63b8ff" points="202.08,-194.86 202,-184.27 195.46,-192.6 202.08,-194.86"/>
</a>
</g>
</g>
<!-- Node6&#45;&gt;Node5 -->
<g id="edge12_Node000006_Node000005" class="edge">
<title>Node6&#45;&gt;Node5</title>
<g id="a_edge12_Node000006_Node000005"><a xlink:title=" ">
<path fill="none" stroke="#63b8ff" d="M429.81,-109.95C450.83,-102.93 478.33,-91.3 498,-74 512.25,-61.47 522.97,-42.47 529.53,-28.51"/>
<polygon fill="#63b8ff" stroke="#63b8ff" points="532.88,-29.57 533.72,-19.01 526.48,-26.75 532.88,-29.57"/>
</a>
</g>
</g>
<!-- Node7 -->
<g id="Node000007" class="node">
<title>Node7</title>
<g id="a_Node000007"><a xlink:title=" ">
<polygon fill="#e0e0e0" stroke="#999999" points="358,-74 308,-74 308,-55 358,-55 358,-74"/>
<text text-anchor="middle" x="333" y="-62" font-family="Helvetica,sans-Serif" font-size="10.00">atomic</text>
</a>
</g>
</g>
<!-- Node6&#45;&gt;Node7 -->
<g id="edge6_Node000006_Node000007" class="edge">
<title>Node6&#45;&gt;Node7</title>
<g id="a_edge6_Node000006_Node000007"><a xlink:title=" ">
<path fill="none" stroke="#63b8ff" d="M388.4,-109.98C378.54,-102.07 363.65,-90.11 351.78,-80.58"/>
<polygon fill="#63b8ff" stroke="#63b8ff" points="353.79,-77.7 343.8,-74.17 349.4,-83.16 353.79,-77.7"/>
</a>
</g>
</g>
<!-- Node8 -->
<g id="Node000008" class="node">
<title>Node8</title>
<g id="a_Node000008"><a xlink:title=" ">
<polygon fill="#e0e0e0" stroke="#999999" points="422,-74 376,-74 376,-55 422,-55 422,-74"/>
<text text-anchor="middle" x="399" y="-62" font-family="Helvetica,sans-Serif" font-size="10.00">cstdio</text>
</a>
</g>
</g>
<!-- Node6&#45;&gt;Node8 -->
<g id="edge7_Node000006_Node000008" class="edge">
<title>Node6&#45;&gt;Node8</title>
<g id="a_edge7_Node000006_Node000008"><a xlink:title=" ">
<path fill="none" stroke="#63b8ff" d="M399,-109.75C399,-102.8 399,-92.85 399,-84.13"/>
<polygon fill="#63b8ff" stroke="#63b8ff" points="402.5,-84.09 399,-74.09 395.5,-84.09 402.5,-84.09"/>
</a>
</g>
</g>
<!-- Node9 -->
<g id="Node000009" class="node">
<title>Node9</title>
<g id="a_Node000009"><a xlink:title=" ">
<polygon fill="#e0e0e0" stroke="#999999" points="489.5,-74 440.5,-74 440.5,-55 489.5,-55 489.5,-74"/>
<text text-anchor="middle" x="465" y="-62" font-family="Helvetica,sans-Serif" font-size="10.00">cstdlib</text>
</a>
</g>
</g>
<!-- Node6&#45;&gt;Node9 -->
<g id="edge8_Node000006_Node000009" class="edge">
<title>Node6&#45;&gt;Node9</title>
<g id="a_edge8_Node000006_Node000009"><a xlink:title=" ">
<path fill="none" stroke="#63b8ff" d="M409.6,-109.98C419.46,-102.07 434.35,-90.11 446.22,-80.58"/>
<polygon fill="#63b8ff" stroke="#63b8ff" points="448.6,-83.16 454.2,-74.17 444.21,-77.7 448.6,-83.16"/>
</a>
</g>
</g>
<!-- Node10 -->
<g id="Node000010" class="node">
<title>Node10</title>
<g id="a_Node000010"><a xlink:title=" ">
<polygon fill="#e0e0e0" stroke="#999999" points="206,-74 146,-74 146,-55 206,-55 206,-74"/>
<text text-anchor="middle" x="176" y="-62" font-family="Helvetica,sans-Serif" font-size="10.00">iostream</text>
</a>
</g>
</g>
<!-- Node6&#45;&gt;Node10 -->
<g id="edge9_Node000006_Node000010" class="edge">
<title>Node6&#45;&gt;Node10</title>
<g id="a_edge9_Node000006_Node000010"><a xlink:title=" ">
<path fill="none" stroke="#63b8ff" d="M363.17,-109.98C322.91,-100.42 257.72,-84.92 215.87,-74.98"/>
<polygon fill="#63b8ff" stroke="#63b8ff" points="216.56,-71.54 206.02,-72.63 214.94,-78.35 216.56,-71.54"/>
</a>
</g>
</g>
<!-- Node11 -->
<g id="Node000011" class="node">
<title>Node11</title>
<g id="a_Node000011"><a xlink:title=" ">
<polygon fill="#e0e0e0" stroke="#999999" points="604,-74 546,-74 546,-55 604,-55 604,-74"/>
<text text-anchor="middle" x="575" y="-62" font-family="Helvetica,sans-Serif" font-size="10.00">memory</text>
</a>
</g>
</g>
<!-- Node6&#45;&gt;Node11 -->
<g id="edge10_Node000006_Node000011" class="edge">
<title>Node6&#45;&gt;Node11</title>
<g id="a_edge10_Node000006_Node000011"><a xlink:title=" ">
<path fill="none" stroke="#63b8ff" d="M427.28,-109.98C456.95,-101.05 503.79,-86.94 536.75,-77.02"/>
<polygon fill="#63b8ff" stroke="#63b8ff" points="537.93,-80.32 546.5,-74.08 535.92,-73.61 537.93,-80.32"/>
</a>
</g>
</g>
<!-- Node12 -->
<g id="Node000012" class="node">
<title>Node12</title>
<g id="a_Node000012"><a xlink:title=" ">
<polygon fill="#e0e0e0" stroke="#999999" points="289.5,-74 224.5,-74 224.5,-55 289.5,-55 289.5,-74"/>
<text text-anchor="middle" x="257" y="-62" font-family="Helvetica,sans-Serif" font-size="10.00">stdexcept</text>
</a>
</g>
</g>
<!-- Node6&#45;&gt;Node12 -->
<g id="edge11_Node000006_Node000012" class="edge">
<title>Node6&#45;&gt;Node12</title>
<g id="a_edge11_Node000006_Node000012"><a xlink:title=" ">
<path fill="none" stroke="#63b8ff" d="M376.19,-109.98C352.83,-101.27 316.3,-87.63 289.83,-77.75"/>
<polygon fill="#63b8ff" stroke="#63b8ff" points="290.82,-74.39 280.23,-74.17 288.37,-80.95 290.82,-74.39"/>
</a>
</g>
</g>
<!-- Node13 -->
<g id="Node000013" class="node">
<title>Node13</title>
<g id="a_Node000013"><a xlink:href="../../df/def/type_8h.html" target="_top" xlink:title=" ">
<polygon fill="white" stroke="#666666" points="732,-74 660,-74 660,-55 732,-55 732,-74"/>
<text text-anchor="middle" x="696" y="-62" font-family="Helvetica,sans-Serif" font-size="10.00">type/type.h</text>
</a>
</g>
</g>
<!-- Node6&#45;&gt;Node13 -->
<g id="edge13_Node000006_Node000013" class="edge">
<title>Node6&#45;&gt;Node13</title>
<g id="a_edge13_Node000006_Node000013"><a xlink:title=" ">
<path fill="none" stroke="#63b8ff" d="M446.72,-109.98C502.6,-100.01 594.53,-83.61 649.76,-73.75"/>
<polygon fill="#63b8ff" stroke="#63b8ff" points="650.4,-77.19 659.63,-71.99 649.17,-70.3 650.4,-77.19"/>
</a>
</g>
</g>
<!-- Node13&#45;&gt;Node5 -->
<g id="edge15_Node000013_Node000005" class="edge">
<title>Node13&#45;&gt;Node5</title>
<g id="a_edge15_Node000013_Node000005"><a xlink:title=" ">
<path fill="none" stroke="#63b8ff" d="M670.45,-54.98C642.77,-45.76 598.56,-31.02 568.69,-21.06"/>
<polygon fill="#63b8ff" stroke="#63b8ff" points="569.74,-17.72 559.15,-17.88 567.53,-24.37 569.74,-17.72"/>
</a>
</g>
</g>
<!-- Node14 -->
<g id="Node000014" class="node">
<title>Node14</title>
<g id="a_Node000014"><a xlink:title=" ">
<polygon fill="#e0e0e0" stroke="#999999" points="735,-19 685,-19 685,0 735,0 735,-19"/>
<text text-anchor="middle" x="710" y="-7" font-family="Helvetica,sans-Serif" font-size="10.00">cstdint</text>
</a>
</g>
</g>
<!-- Node13&#45;&gt;Node14 -->
<g id="edge14_Node000013_Node000014" class="edge">
<title>Node13&#45;&gt;Node14</title>
<g id="a_edge14_Node000013_Node000014"><a xlink:title=" ">
<path fill="none" stroke="#63b8ff" d="M698.31,-54.75C700.17,-47.72 702.84,-37.62 705.15,-28.84"/>
<polygon fill="#63b8ff" stroke="#63b8ff" points="708.56,-29.65 707.73,-19.09 701.79,-27.86 708.56,-29.65"/>
</a>
</g>
</g>
<!-- Node15 -->
<g id="Node000015" class="node">
<title>Node15</title>
<g id="a_Node000015"><a xlink:href="../../dc/df2/type__id_8h.html" target="_top" xlink:title=" ">
<polygon fill="white" stroke="#666666" points="667,-19 581,-19 581,0 667,0 667,-19"/>
<text text-anchor="middle" x="624" y="-7" font-family="Helvetica,sans-Serif" font-size="10.00">type/type_id.h</text>
</a>
</g>
</g>
<!-- Node13&#45;&gt;Node15 -->
<g id="edge16_Node000013_Node000015" class="edge">
<title>Node13&#45;&gt;Node15</title>
<g id="a_edge16_Node000013_Node000015"><a xlink:title=" ">
<path fill="none" stroke="#63b8ff" d="M684.43,-54.98C673.58,-47 657.12,-34.88 644.12,-25.31"/>
<polygon fill="#63b8ff" stroke="#63b8ff" points="645.91,-22.28 635.78,-19.17 641.76,-27.92 645.91,-22.28"/>
</a>
</g>
</g>
<!-- Node16&#45;&gt;Node3 -->
<g id="edge18_Node000016_Node000003" class="edge">
<title>Node16&#45;&gt;Node3</title>
<g id="a_edge18_Node000016_Node000003"><a xlink:title=" ">
<path fill="none" stroke="#63b8ff" d="M202.19,-164.75C199.94,-157.72 196.7,-147.62 193.88,-138.84"/>
<polygon fill="#63b8ff" stroke="#63b8ff" points="197.14,-137.54 190.75,-129.09 190.48,-139.68 197.14,-137.54"/>
</a>
</g>
</g>
<!-- Node17 -->
<g id="Node000017" class="node">
<title>Node17</title>
<g id="a_Node000017"><a xlink:href="../../d4/d3f/value_8h.html" target="_top" xlink:title=" ">
<polygon fill="white" stroke="#666666" points="780.5,-129 703.5,-129 703.5,-110 780.5,-110 780.5,-129"/>
<text text-anchor="middle" x="742" y="-117" font-family="Helvetica,sans-Serif" font-size="10.00">type/value.h</text>
</a>
</g>
</g>
<!-- Node16&#45;&gt;Node17 -->
<g id="edge19_Node000016_Node000017" class="edge">
<title>Node16&#45;&gt;Node17</title>
<g id="a_edge19_Node000016_Node000017"><a xlink:title=" ">
<path fill="none" stroke="#63b8ff" d="M263.75,-167.7C370.46,-157.17 594.24,-135.08 693.17,-125.32"/>
<polygon fill="#63b8ff" stroke="#63b8ff" points="693.59,-128.79 703.2,-124.33 692.9,-121.83 693.59,-128.79"/>
</a>
</g>
</g>
<!-- Node17&#45;&gt;Node5 -->
<g id="edge22_Node000017_Node000005" class="edge">
<title>Node17&#45;&gt;Node5</title>
<g id="a_edge22_Node000017_Node000005"><a xlink:title=" ">
<path fill="none" stroke="#63b8ff" d="M723.73,-109.92C705.25,-101.16 675.94,-87.03 651,-74 619.41,-57.49 583.59,-37.29 560.68,-24.17"/>
<polygon fill="#63b8ff" stroke="#63b8ff" points="562.4,-21.13 551.98,-19.18 558.91,-27.2 562.4,-21.13"/>
</a>
</g>
</g>
<!-- Node17&#45;&gt;Node11 -->
<g id="edge21_Node000017_Node000011" class="edge">
<title>Node17&#45;&gt;Node11</title>
<g id="a_edge21_Node000017_Node000011"><a xlink:title=" ">
<path fill="none" stroke="#63b8ff" d="M715.17,-109.98C687.13,-101.09 642.95,-87.07 611.7,-77.15"/>
<polygon fill="#63b8ff" stroke="#63b8ff" points="612.63,-73.77 602.04,-74.08 610.51,-80.44 612.63,-73.77"/>
</a>
</g>
</g>
<!-- Node17&#45;&gt;Node13 -->
<g id="edge30_Node000017_Node000013" class="edge">
<title>Node17&#45;&gt;Node13</title>
<g id="a_edge30_Node000017_Node000013"><a xlink:title=" ">
<path fill="none" stroke="#63b8ff" d="M734.4,-109.75C727.84,-102.18 718.18,-91.05 710.19,-81.84"/>
<polygon fill="#63b8ff" stroke="#63b8ff" points="712.65,-79.35 703.45,-74.09 707.37,-83.94 712.65,-79.35"/>
</a>
</g>
</g>
<!-- Node18 -->
<g id="Node000018" class="node">
<title>Node18</title>
<g id="a_Node000018"><a xlink:title=" ">
<polygon fill="#e0e0e0" stroke="#999999" points="994,-74 944,-74 944,-55 994,-55 994,-74"/>
<text text-anchor="middle" x="969" y="-62" font-family="Helvetica,sans-Serif" font-size="10.00">cstring</text>
</a>
</g>
</g>
<!-- Node17&#45;&gt;Node18 -->
<g id="edge20_Node000017_Node000018" class="edge">
<title>Node17&#45;&gt;Node18</title>
<g id="a_edge20_Node000017_Node000018"><a xlink:title=" ">
<path fill="none" stroke="#63b8ff" d="M780.13,-109.92C817.05,-101.58 874.84,-88.38 933.89,-74.23"/>
<polygon fill="#63b8ff" stroke="#63b8ff" points="934.86,-77.6 943.76,-71.86 933.22,-70.8 934.86,-77.6"/>
</a>
</g>
</g>
<!-- Node19 -->
<g id="Node000019" class="node">
<title>Node19</title>
<g id="a_Node000019"><a xlink:title=" ">
<polygon fill="#e0e0e0" stroke="#999999" points="1057.5,-74 1012.5,-74 1012.5,-55 1057.5,-55 1057.5,-74"/>
<text text-anchor="middle" x="1035" y="-62" font-family="Helvetica,sans-Serif" font-size="10.00">utility</text>
</a>
</g>
</g>
<!-- Node17&#45;&gt;Node19 -->
<g id="edge23_Node000017_Node000019" class="edge">
<title>Node17&#45;&gt;Node19</title>
<g id="a_edge23_Node000017_Node000019"><a xlink:title=" ">
<path fill="none" stroke="#63b8ff" d="M780.68,-113.03C829.93,-105.81 917.79,-92.12 1002.55,-73.92"/>
<polygon fill="#63b8ff" stroke="#63b8ff" points="1003.31,-77.33 1012.34,-71.79 1001.82,-70.49 1003.31,-77.33"/>
</a>
</g>
</g>
<!-- Node20 -->
<g id="Node000020" class="node">
<title>Node20</title>
<g id="a_Node000020"><a xlink:title=" ">
<polygon fill="#e0e0e0" stroke="#999999" points="925.5,-74 846.5,-74 846.5,-55 925.5,-55 925.5,-74"/>
<text text-anchor="middle" x="886" y="-62" font-family="Helvetica,sans-Serif" font-size="10.00">fmt/format.h</text>
</a>
</g>
</g>
<!-- Node17&#45;&gt;Node20 -->
<g id="edge24_Node000017_Node000020" class="edge">
<title>Node17&#45;&gt;Node20</title>
<g id="a_edge24_Node000017_Node000020"><a xlink:title=" ">
<path fill="none" stroke="#63b8ff" d="M765.14,-109.98C788.82,-101.27 825.87,-87.63 852.71,-77.75"/>
<polygon fill="#63b8ff" stroke="#63b8ff" points="854.27,-80.91 862.44,-74.17 851.85,-74.34 854.27,-80.91"/>
</a>
</g>
</g>
<!-- Node21 -->
<g id="Node000021" class="node">
<title>Node21</title>
<g id="a_Node000021"><a xlink:href="../../d9/d86/limits_8h.html" target="_top" xlink:title=" ">
<polygon fill="white" stroke="#666666" points="828,-74 750,-74 750,-55 828,-55 828,-74"/>
<text text-anchor="middle" x="789" y="-62" font-family="Helvetica,sans-Serif" font-size="10.00">type/limits.h</text>
</a>
</g>
</g>
<!-- Node17&#45;&gt;Node21 -->
<g id="edge25_Node000017_Node000021" class="edge">
<title>Node17&#45;&gt;Node21</title>
<g id="a_edge25_Node000017_Node000021"><a xlink:title=" ">
<path fill="none" stroke="#63b8ff" d="M749.76,-109.75C756.47,-102.18 766.34,-91.05 774.51,-81.84"/>
<polygon fill="#63b8ff" stroke="#63b8ff" points="777.37,-83.89 781.38,-74.09 772.13,-79.25 777.37,-83.89"/>
</a>
</g>
</g>
<!-- Node21&#45;&gt;Node14 -->
<g id="edge28_Node000021_Node000014" class="edge">
<title>Node21&#45;&gt;Node14</title>
<g id="a_edge28_Node000021_Node000014"><a xlink:title=" ">
<path fill="none" stroke="#63b8ff" d="M776.31,-54.98C764.17,-46.84 745.64,-34.41 731.25,-24.76"/>
<polygon fill="#63b8ff" stroke="#63b8ff" points="733.18,-21.84 722.92,-19.17 729.28,-27.65 733.18,-21.84"/>
</a>
</g>
</g>
<!-- Node22 -->
<g id="Node000022" class="node">
<title>Node22</title>
<g id="a_Node000022"><a xlink:title=" ">
<polygon fill="#e0e0e0" stroke="#999999" points="797,-19 753,-19 753,0 797,0 797,-19"/>
<text text-anchor="middle" x="775" y="-7" font-family="Helvetica,sans-Serif" font-size="10.00">cfloat</text>
</a>
</g>
</g>
<!-- Node21&#45;&gt;Node22 -->
<g id="edge26_Node000021_Node000022" class="edge">
<title>Node21&#45;&gt;Node22</title>
<g id="a_edge26_Node000021_Node000022"><a xlink:title=" ">
<path fill="none" stroke="#63b8ff" d="M786.69,-54.75C784.83,-47.72 782.16,-37.62 779.85,-28.84"/>
<polygon fill="#63b8ff" stroke="#63b8ff" points="783.21,-27.86 777.27,-19.09 776.44,-29.65 783.21,-27.86"/>
</a>
</g>
</g>
<!-- Node23 -->
<g id="Node000023" class="node">
<title>Node23</title>
<g id="a_Node000023"><a xlink:title=" ">
<polygon fill="#e0e0e0" stroke="#999999" points="865,-19 815,-19 815,0 865,0 865,-19"/>
<text text-anchor="middle" x="840" y="-7" font-family="Helvetica,sans-Serif" font-size="10.00">climits</text>
</a>
</g>
</g>
<!-- Node21&#45;&gt;Node23 -->
<g id="edge27_Node000021_Node000023" class="edge">
<title>Node21&#45;&gt;Node23</title>
<g id="a_edge27_Node000021_Node000023"><a xlink:title=" ">
<path fill="none" stroke="#63b8ff" d="M797.42,-54.75C804.77,-47.11 815.63,-35.82 824.54,-26.56"/>
<polygon fill="#63b8ff" stroke="#63b8ff" points="827.32,-28.72 831.74,-19.09 822.28,-23.87 827.32,-28.72"/>
</a>
</g>
</g>
<!-- Node24 -->
<g id="Node000024" class="node">
<title>Node24</title>
<g id="a_Node000024"><a xlink:title=" ">
<polygon fill="#e0e0e0" stroke="#999999" points="927,-19 883,-19 883,0 927,0 927,-19"/>
<text text-anchor="middle" x="905" y="-7" font-family="Helvetica,sans-Serif" font-size="10.00">limits</text>
</a>
</g>
</g>
<!-- Node21&#45;&gt;Node24 -->
<g id="edge29_Node000021_Node000024" class="edge">
<title>Node21&#45;&gt;Node24</title>
<g id="a_edge29_Node000021_Node000024"><a xlink:title=" ">
<path fill="none" stroke="#63b8ff" d="M807.64,-54.98C826.3,-46.46 855.25,-33.23 876.74,-23.41"/>
<polygon fill="#63b8ff" stroke="#63b8ff" points="878.38,-26.51 886.02,-19.17 875.47,-20.14 878.38,-26.51"/>
</a>
</g>
</g>
</g>
</svg>
