<?xml version="1.0" encoding="UTF-8" standalone="no"?>
<!DOCTYPE svg PUBLIC "-//W3C//DTD SVG 1.1//EN"
 "http://www.w3.org/Graphics/SVG/1.1/DTD/svg11.dtd">
<!-- Generated by graphviz version 2.43.0 (0)
 -->
<!-- Title: src/include/binder/bound_order_by.h Pages: 1 -->
<svg width="809pt" height="203pt"
 viewBox="0.00 0.00 808.50 203.00" xmlns="http://www.w3.org/2000/svg" xmlns:xlink="http://www.w3.org/1999/xlink">
<g id="graph0" class="graph" transform="scale(1 1) rotate(0) translate(4 199)">
<title>src/include/binder/bound_order_by.h</title>
<!-- Node1 -->
<g id="Node000001" class="node">
<title>Node1</title>
<g id="a_Node000001"><a xlink:title=" ">
<polygon fill="#999999" stroke="#666666" points="418,-195 313,-195 313,-165 418,-165 418,-195"/>
<text text-anchor="start" x="321" y="-183" font-family="Helvetica,sans-Serif" font-size="10.00">src/include/binder</text>
<text text-anchor="middle" x="365.5" y="-172" font-family="Helvetica,sans-Serif" font-size="10.00">/bound_order_by.h</text>
</a>
</g>
</g>
<!-- Node2 -->
<g id="Node000002" class="node">
<title>Node2</title>
<g id="a_Node000002"><a xlink:title=" ">
<polygon fill="#e0e0e0" stroke="#999999" points="318.5,-74 260.5,-74 260.5,-55 318.5,-55 318.5,-74"/>
<text text-anchor="middle" x="289.5" y="-62" font-family="Helvetica,sans-Serif" font-size="10.00">memory</text>
</a>
</g>
</g>
<!-- Node1&#45;&gt;Node2 -->
<g id="edge1_Node000001_Node000002" class="edge">
<title>Node1&#45;&gt;Node2</title>
<g id="a_edge1_Node000001_Node000002"><a xlink:title=" ">
<path fill="none" stroke="#63b8ff" d="M355.87,-164.63C341.89,-143.75 316.01,-105.09 301.03,-82.72"/>
<polygon fill="#63b8ff" stroke="#63b8ff" points="303.82,-80.59 295.35,-74.23 298,-84.49 303.82,-80.59"/>
</a>
</g>
</g>
<!-- Node3 -->
<g id="Node000003" class="node">
<title>Node3</title>
<g id="a_Node000003"><a xlink:title=" ">
<polygon fill="#e0e0e0" stroke="#999999" points="425.5,-19 381.5,-19 381.5,0 425.5,0 425.5,-19"/>
<text text-anchor="middle" x="403.5" y="-7" font-family="Helvetica,sans-Serif" font-size="10.00">string</text>
</a>
</g>
</g>
<!-- Node1&#45;&gt;Node3 -->
<g id="edge2_Node000001_Node000003" class="edge">
<title>Node1&#45;&gt;Node3</title>
<g id="a_edge2_Node000001_Node000003"><a xlink:title=" ">
<path fill="none" stroke="#63b8ff" d="M368.67,-164.92C375.5,-134.65 391.58,-63.35 399.27,-29.27"/>
<polygon fill="#63b8ff" stroke="#63b8ff" points="402.74,-29.78 401.53,-19.25 395.91,-28.24 402.74,-29.78"/>
</a>
</g>
</g>
<!-- Node4 -->
<g id="Node000004" class="node">
<title>Node4</title>
<g id="a_Node000004"><a xlink:title=" ">
<polygon fill="#e0e0e0" stroke="#999999" points="614,-129 569,-129 569,-110 614,-110 614,-129"/>
<text text-anchor="middle" x="591.5" y="-117" font-family="Helvetica,sans-Serif" font-size="10.00">utility</text>
</a>
</g>
</g>
<!-- Node1&#45;&gt;Node4 -->
<g id="edge3_Node000001_Node000004" class="edge">
<title>Node1&#45;&gt;Node4</title>
<g id="a_edge3_Node000001_Node000004"><a xlink:title=" ">
<path fill="none" stroke="#63b8ff" d="M418.12,-165.76C455.09,-156.4 505.97,-143.4 558.92,-129.39"/>
<polygon fill="#63b8ff" stroke="#63b8ff" points="560.06,-132.71 568.82,-126.76 558.26,-125.94 560.06,-132.71"/>
</a>
</g>
</g>
<!-- Node5 -->
<g id="Node000005" class="node">
<title>Node5</title>
<g id="a_Node000005"><a xlink:href="../../dc/d8b/bound__expression_8h.html" target="_top" xlink:title=" ">
<polygon fill="white" stroke="#666666" points="306.5,-129 158.5,-129 158.5,-110 306.5,-110 306.5,-129"/>
<text text-anchor="middle" x="232.5" y="-117" font-family="Helvetica,sans-Serif" font-size="10.00">binder/bound_expression.h</text>
</a>
</g>
</g>
<!-- Node1&#45;&gt;Node5 -->
<g id="edge4_Node000001_Node000005" class="edge">
<title>Node1&#45;&gt;Node5</title>
<g id="a_edge4_Node000001_Node000005"><a xlink:title=" ">
<path fill="none" stroke="#63b8ff" d="M333.64,-164.99C311.65,-155.31 282.65,-142.56 261.34,-133.18"/>
<polygon fill="#63b8ff" stroke="#63b8ff" points="262.7,-129.96 252.14,-129.14 259.89,-136.37 262.7,-129.96"/>
</a>
</g>
</g>
<!-- Node10 -->
<g id="Node000010" class="node">
<title>Node10</title>
<g id="a_Node000010"><a xlink:title=" ">
<polygon fill="#e0e0e0" stroke="#999999" points="79,-74 0,-74 0,-55 79,-55 79,-74"/>
<text text-anchor="middle" x="39.5" y="-62" font-family="Helvetica,sans-Serif" font-size="10.00">fmt/format.h</text>
</a>
</g>
</g>
<!-- Node1&#45;&gt;Node10 -->
<g id="edge24_Node000001_Node000010" class="edge">
<title>Node1&#45;&gt;Node10</title>
<g id="a_edge24_Node000001_Node000010"><a xlink:title=" ">
<path fill="none" stroke="#63b8ff" d="M312.7,-171.27C268.14,-163.7 203.21,-150.17 149.5,-129 116.47,-115.98 81.48,-94.22 60.06,-79.86"/>
<polygon fill="#63b8ff" stroke="#63b8ff" points="61.99,-76.95 51.75,-74.21 58.05,-82.73 61.99,-76.95"/>
</a>
</g>
</g>
<!-- Node11 -->
<g id="Node000011" class="node">
<title>Node11</title>
<g id="a_Node000011"><a xlink:href="../../dd/d2d/exception_8h.html" target="_top" xlink:title=" ">
<polygon fill="white" stroke="#666666" points="551,-129 432,-129 432,-110 551,-110 551,-129"/>
<text text-anchor="middle" x="491.5" y="-117" font-family="Helvetica,sans-Serif" font-size="10.00">common/exception.h</text>
</a>
</g>
</g>
<!-- Node1&#45;&gt;Node11 -->
<g id="edge12_Node000001_Node000011" class="edge">
<title>Node1&#45;&gt;Node11</title>
<g id="a_edge12_Node000001_Node000011"><a xlink:title=" ">
<path fill="none" stroke="#63b8ff" d="M395.68,-164.99C416.33,-155.4 443.5,-142.79 463.63,-133.44"/>
<polygon fill="#63b8ff" stroke="#63b8ff" points="465.3,-136.52 472.89,-129.14 462.35,-130.18 465.3,-136.52"/>
</a>
</g>
</g>
<!-- Node5&#45;&gt;Node2 -->
<g id="edge5_Node000005_Node000002" class="edge">
<title>Node5&#45;&gt;Node2</title>
<g id="a_edge5_Node000005_Node000002"><a xlink:title=" ">
<path fill="none" stroke="#63b8ff" d="M241.66,-109.98C250,-102.23 262.53,-90.58 272.68,-81.14"/>
<polygon fill="#63b8ff" stroke="#63b8ff" points="275.24,-83.54 280.18,-74.17 270.47,-78.42 275.24,-83.54"/>
</a>
</g>
</g>
<!-- Node5&#45;&gt;Node3 -->
<g id="edge6_Node000005_Node000003" class="edge">
<title>Node5&#45;&gt;Node3</title>
<g id="a_edge6_Node000005_Node000003"><a xlink:title=" ">
<path fill="none" stroke="#63b8ff" d="M232.6,-109.8C233.24,-96.2 236.48,-69.93 251.5,-55 255.86,-50.67 328.18,-30.71 371.47,-19.04"/>
<polygon fill="#63b8ff" stroke="#63b8ff" points="372.52,-22.38 381.27,-16.41 370.7,-15.62 372.52,-22.38"/>
</a>
</g>
</g>
<!-- Node6 -->
<g id="Node000006" class="node">
<title>Node6</title>
<g id="a_Node000006"><a xlink:href="../../de/d3c/macros_8h.html" target="_top" xlink:title=" ">
<polygon fill="white" stroke="#666666" points="204,-74 97,-74 97,-55 204,-55 204,-74"/>
<text text-anchor="middle" x="150.5" y="-62" font-family="Helvetica,sans-Serif" font-size="10.00">common/macros.h</text>
</a>
</g>
</g>
<!-- Node5&#45;&gt;Node6 -->
<g id="edge7_Node000005_Node000006" class="edge">
<title>Node5&#45;&gt;Node6</title>
<g id="a_edge7_Node000005_Node000006"><a xlink:title=" ">
<path fill="none" stroke="#63b8ff" d="M219.33,-109.98C206.73,-101.84 187.5,-89.41 172.56,-79.76"/>
<polygon fill="#63b8ff" stroke="#63b8ff" points="174.21,-76.66 163.91,-74.17 170.41,-82.54 174.21,-76.66"/>
</a>
</g>
</g>
<!-- Node5&#45;&gt;Node10 -->
<g id="edge11_Node000005_Node000010" class="edge">
<title>Node5&#45;&gt;Node10</title>
<g id="a_edge11_Node000005_Node000010"><a xlink:title=" ">
<path fill="none" stroke="#63b8ff" d="M201.49,-109.98C168.67,-100.97 116.7,-86.7 80.51,-76.76"/>
<polygon fill="#63b8ff" stroke="#63b8ff" points="81.32,-73.36 70.75,-74.08 79.47,-80.11 81.32,-73.36"/>
</a>
</g>
</g>
<!-- Node7 -->
<g id="Node000007" class="node">
<title>Node7</title>
<g id="a_Node000007"><a xlink:title=" ">
<polygon fill="#e0e0e0" stroke="#999999" points="215.5,-19 163.5,-19 163.5,0 215.5,0 215.5,-19"/>
<text text-anchor="middle" x="189.5" y="-7" font-family="Helvetica,sans-Serif" font-size="10.00">cassert</text>
</a>
</g>
</g>
<!-- Node6&#45;&gt;Node7 -->
<g id="edge8_Node000006_Node000007" class="edge">
<title>Node6&#45;&gt;Node7</title>
<g id="a_edge8_Node000006_Node000007"><a xlink:title=" ">
<path fill="none" stroke="#63b8ff" d="M156.94,-54.75C162.39,-47.34 170.36,-36.5 177.06,-27.41"/>
<polygon fill="#63b8ff" stroke="#63b8ff" points="180.07,-29.22 183.18,-19.09 174.43,-25.07 180.07,-29.22"/>
</a>
</g>
</g>
<!-- Node8 -->
<g id="Node000008" class="node">
<title>Node8</title>
<g id="a_Node000008"><a xlink:title=" ">
<polygon fill="#e0e0e0" stroke="#999999" points="145,-19 80,-19 80,0 145,0 145,-19"/>
<text text-anchor="middle" x="112.5" y="-7" font-family="Helvetica,sans-Serif" font-size="10.00">exception</text>
</a>
</g>
</g>
<!-- Node6&#45;&gt;Node8 -->
<g id="edge9_Node000006_Node000008" class="edge">
<title>Node6&#45;&gt;Node8</title>
<g id="a_edge9_Node000006_Node000008"><a xlink:title=" ">
<path fill="none" stroke="#63b8ff" d="M144.23,-54.75C138.91,-47.34 131.14,-36.5 124.62,-27.41"/>
<polygon fill="#63b8ff" stroke="#63b8ff" points="127.33,-25.18 118.66,-19.09 121.64,-29.26 127.33,-25.18"/>
</a>
</g>
</g>
<!-- Node9 -->
<g id="Node000009" class="node">
<title>Node9</title>
<g id="a_Node000009"><a xlink:title=" ">
<polygon fill="#e0e0e0" stroke="#999999" points="360,-19 295,-19 295,0 360,0 360,-19"/>
<text text-anchor="middle" x="327.5" y="-7" font-family="Helvetica,sans-Serif" font-size="10.00">stdexcept</text>
</a>
</g>
</g>
<!-- Node6&#45;&gt;Node9 -->
<g id="edge10_Node000006_Node000009" class="edge">
<title>Node6&#45;&gt;Node9</title>
<g id="a_edge10_Node000006_Node000009"><a xlink:title=" ">
<path fill="none" stroke="#63b8ff" d="M178.94,-54.98C208.78,-46.05 255.88,-31.94 289.03,-22.02"/>
<polygon fill="#63b8ff" stroke="#63b8ff" points="290.26,-25.3 298.84,-19.08 288.26,-18.6 290.26,-25.3"/>
</a>
</g>
</g>
<!-- Node11&#45;&gt;Node2 -->
<g id="edge17_Node000011_Node000002" class="edge">
<title>Node11&#45;&gt;Node2</title>
<g id="a_edge17_Node000011_Node000002"><a xlink:title=" ">
<path fill="none" stroke="#63b8ff" d="M459.05,-109.98C423.42,-100.64 366.25,-85.64 328.28,-75.68"/>
<polygon fill="#63b8ff" stroke="#63b8ff" points="329.16,-72.29 318.6,-73.13 327.38,-79.06 329.16,-72.29"/>
</a>
</g>
</g>
<!-- Node11&#45;&gt;Node3 -->
<g id="edge19_Node000011_Node000003" class="edge">
<title>Node11&#45;&gt;Node3</title>
<g id="a_edge19_Node000011_Node000003"><a xlink:title=" ">
<path fill="none" stroke="#63b8ff" d="M509.53,-109.96C531.86,-98.21 565.14,-76.12 549.5,-55 523.42,-19.78 470.1,-11.5 435.62,-10.04"/>
<polygon fill="#63b8ff" stroke="#63b8ff" points="435.66,-6.54 425.58,-9.79 435.48,-13.54 435.66,-6.54"/>
</a>
</g>
</g>
<!-- Node11&#45;&gt;Node9 -->
<g id="edge18_Node000011_Node000009" class="edge">
<title>Node11&#45;&gt;Node9</title>
<g id="a_edge18_Node000011_Node000009"><a xlink:title=" ">
<path fill="none" stroke="#63b8ff" d="M471.57,-110C453.25,-101.83 425.67,-88.59 403.5,-74 381.45,-59.48 358.5,-39.53 343.67,-25.89"/>
<polygon fill="#63b8ff" stroke="#63b8ff" points="346.03,-23.3 336.33,-19.04 341.25,-28.42 346.03,-23.3"/>
</a>
</g>
</g>
<!-- Node12 -->
<g id="Node000012" class="node">
<title>Node12</title>
<g id="a_Node000012"><a xlink:title=" ">
<polygon fill="#e0e0e0" stroke="#999999" points="736.5,-74 686.5,-74 686.5,-55 736.5,-55 736.5,-74"/>
<text text-anchor="middle" x="711.5" y="-62" font-family="Helvetica,sans-Serif" font-size="10.00">atomic</text>
</a>
</g>
</g>
<!-- Node11&#45;&gt;Node12 -->
<g id="edge13_Node000011_Node000012" class="edge">
<title>Node11&#45;&gt;Node12</title>
<g id="a_edge13_Node000011_Node000012"><a xlink:title=" ">
<path fill="none" stroke="#63b8ff" d="M527.53,-109.99C562.97,-101.6 618.88,-88.3 676.28,-74.28"/>
<polygon fill="#63b8ff" stroke="#63b8ff" points="677.37,-77.62 686.26,-71.84 675.71,-70.82 677.37,-77.62"/>
</a>
</g>
</g>
<!-- Node13 -->
<g id="Node000013" class="node">
<title>Node13</title>
<g id="a_Node000013"><a xlink:title=" ">
<polygon fill="#e0e0e0" stroke="#999999" points="800.5,-74 754.5,-74 754.5,-55 800.5,-55 800.5,-74"/>
<text text-anchor="middle" x="777.5" y="-62" font-family="Helvetica,sans-Serif" font-size="10.00">cstdio</text>
</a>
</g>
</g>
<!-- Node11&#45;&gt;Node13 -->
<g id="edge14_Node000011_Node000013" class="edge">
<title>Node11&#45;&gt;Node13</title>
<g id="a_edge14_Node000011_Node000013"><a xlink:title=" ">
<path fill="none" stroke="#63b8ff" d="M548.27,-109.99C597.71,-102.25 671.49,-89.93 744.64,-74.03"/>
<polygon fill="#63b8ff" stroke="#63b8ff" points="745.47,-77.43 754.49,-71.87 743.97,-70.59 745.47,-77.43"/>
</a>
</g>
</g>
<!-- Node14 -->
<g id="Node000014" class="node">
<title>Node14</title>
<g id="a_Node000014"><a xlink:title=" ">
<polygon fill="#e0e0e0" stroke="#999999" points="462,-74 413,-74 413,-55 462,-55 462,-74"/>
<text text-anchor="middle" x="437.5" y="-62" font-family="Helvetica,sans-Serif" font-size="10.00">cstdlib</text>
</a>
</g>
</g>
<!-- Node11&#45;&gt;Node14 -->
<g id="edge15_Node000011_Node000014" class="edge">
<title>Node11&#45;&gt;Node14</title>
<g id="a_edge15_Node000011_Node000014"><a xlink:title=" ">
<path fill="none" stroke="#63b8ff" d="M482.58,-109.75C474.72,-102.03 463.07,-90.6 453.58,-81.28"/>
<polygon fill="#63b8ff" stroke="#63b8ff" points="455.84,-78.6 446.25,-74.09 450.94,-83.59 455.84,-78.6"/>
</a>
</g>
</g>
<!-- Node15 -->
<g id="Node000015" class="node">
<title>Node15</title>
<g id="a_Node000015"><a xlink:title=" ">
<polygon fill="#e0e0e0" stroke="#999999" points="540.5,-74 480.5,-74 480.5,-55 540.5,-55 540.5,-74"/>
<text text-anchor="middle" x="510.5" y="-62" font-family="Helvetica,sans-Serif" font-size="10.00">iostream</text>
</a>
</g>
</g>
<!-- Node11&#45;&gt;Node15 -->
<g id="edge16_Node000011_Node000015" class="edge">
<title>Node11&#45;&gt;Node15</title>
<g id="a_edge16_Node000011_Node000015"><a xlink:title=" ">
<path fill="none" stroke="#63b8ff" d="M494.64,-109.75C497.18,-102.65 500.86,-92.4 504.03,-83.56"/>
<polygon fill="#63b8ff" stroke="#63b8ff" points="507.34,-84.68 507.42,-74.09 500.75,-82.32 507.34,-84.68"/>
</a>
</g>
</g>
<!-- Node16 -->
<g id="Node000016" class="node">
<title>Node16</title>
<g id="a_Node000016"><a xlink:href="../../df/def/type_8h.html" target="_top" xlink:title=" ">
<polygon fill="white" stroke="#666666" points="668.5,-74 596.5,-74 596.5,-55 668.5,-55 668.5,-74"/>
<text text-anchor="middle" x="632.5" y="-62" font-family="Helvetica,sans-Serif" font-size="10.00">type/type.h</text>
</a>
</g>
</g>
<!-- Node11&#45;&gt;Node16 -->
<g id="edge20_Node000011_Node000016" class="edge">
<title>Node11&#45;&gt;Node16</title>
<g id="a_edge20_Node000011_Node000016"><a xlink:title=" ">
<path fill="none" stroke="#63b8ff" d="M514.15,-109.98C537.35,-101.27 573.62,-87.63 599.9,-77.75"/>
<polygon fill="#63b8ff" stroke="#63b8ff" points="601.3,-80.97 609.43,-74.17 598.84,-74.41 601.3,-80.97"/>
</a>
</g>
</g>
<!-- Node16&#45;&gt;Node3 -->
<g id="edge22_Node000016_Node000003" class="edge">
<title>Node16&#45;&gt;Node3</title>
<g id="a_edge22_Node000016_Node000003"><a xlink:title=" ">
<path fill="none" stroke="#63b8ff" d="M596.47,-55.16C552.13,-44.9 477.56,-27.64 435.27,-17.85"/>
<polygon fill="#63b8ff" stroke="#63b8ff" points="436.04,-14.44 425.51,-15.59 434.46,-21.26 436.04,-14.44"/>
</a>
</g>
</g>
<!-- Node17 -->
<g id="Node000017" class="node">
<title>Node17</title>
<g id="a_Node000017"><a xlink:title=" ">
<polygon fill="#e0e0e0" stroke="#999999" points="614.5,-19 564.5,-19 564.5,0 614.5,0 614.5,-19"/>
<text text-anchor="middle" x="589.5" y="-7" font-family="Helvetica,sans-Serif" font-size="10.00">cstdint</text>
</a>
</g>
</g>
<!-- Node16&#45;&gt;Node17 -->
<g id="edge21_Node000016_Node000017" class="edge">
<title>Node16&#45;&gt;Node17</title>
<g id="a_edge21_Node000016_Node000017"><a xlink:title=" ">
<path fill="none" stroke="#63b8ff" d="M625.4,-54.75C619.33,-47.26 610.41,-36.28 602.99,-27.13"/>
<polygon fill="#63b8ff" stroke="#63b8ff" points="605.49,-24.65 596.47,-19.09 600.05,-29.06 605.49,-24.65"/>
</a>
</g>
</g>
<!-- Node18 -->
<g id="Node000018" class="node">
<title>Node18</title>
<g id="a_Node000018"><a xlink:href="../../dc/df2/type__id_8h.html" target="_top" xlink:title=" ">
<polygon fill="white" stroke="#666666" points="718.5,-19 632.5,-19 632.5,0 718.5,0 718.5,-19"/>
<text text-anchor="middle" x="675.5" y="-7" font-family="Helvetica,sans-Serif" font-size="10.00">type/type_id.h</text>
</a>
</g>
</g>
<!-- Node16&#45;&gt;Node18 -->
<g id="edge23_Node000016_Node000018" class="edge">
<title>Node16&#45;&gt;Node18</title>
<g id="a_edge23_Node000016_Node000018"><a xlink:title=" ">
<path fill="none" stroke="#63b8ff" d="M639.6,-54.75C645.67,-47.26 654.59,-36.28 662.01,-27.13"/>
<polygon fill="#63b8ff" stroke="#63b8ff" points="664.95,-29.06 668.53,-19.09 659.51,-24.65 664.95,-29.06"/>
</a>
</g>
</g>
</g>
</svg>
