<?xml version="1.0" encoding="UTF-8" standalone="no"?>
<!DOCTYPE svg PUBLIC "-//W3C//DTD SVG 1.1//EN"
 "http://www.w3.org/Graphics/SVG/1.1/DTD/svg11.dtd">
<!-- Generated by graphviz version 2.43.0 (0)
 -->
<!-- Title: src/include/execution/execution_common.h Pages: 1 -->
<svg width="674pt" height="104pt"
 viewBox="0.00 0.00 674.00 104.00" xmlns="http://www.w3.org/2000/svg" xmlns:xlink="http://www.w3.org/1999/xlink">
<g id="graph0" class="graph" transform="scale(1 1) rotate(0) translate(4 100)">
<title>src/include/execution/execution_common.h</title>
<!-- Node1 -->
<g id="Node000001" class="node">
<title>Node1</title>
<g id="a_Node000001"><a xlink:title=" ">
<polygon fill="#999999" stroke="#666666" points="418.5,-96 294.5,-96 294.5,-66 418.5,-66 418.5,-96"/>
<text text-anchor="start" x="302.5" y="-84" font-family="Helvetica,sans-Serif" font-size="10.00">src/include/execution</text>
<text text-anchor="middle" x="356.5" y="-73" font-family="Helvetica,sans-Serif" font-size="10.00">/execution_common.h</text>
</a>
</g>
</g>
<!-- Node2 -->
<g id="Node000002" class="node">
<title>Node2</title>
<g id="a_Node000002"><a xlink:href="../../da/d08/bustub__instance_8cpp.html" target="_top" xlink:title=" ">
<polygon fill="white" stroke="#666666" points="179,-24.5 0,-24.5 0,-5.5 179,-5.5 179,-24.5"/>
<text text-anchor="middle" x="89.5" y="-12.5" font-family="Helvetica,sans-Serif" font-size="10.00">src/common/bustub_instance.cpp</text>
</a>
</g>
</g>
<!-- Node1&#45;&gt;Node2 -->
<g id="edge1_Node000001_Node000002" class="edge">
<title>Node1&#45;&gt;Node2</title>
<g id="a_edge1_Node000001_Node000002"><a xlink:title=" ">
<path fill="none" stroke="#63b8ff" d="M288.07,-63.6C236.02,-51.12 166.5,-34.46 125.03,-24.52"/>
<polygon fill="#63b8ff" stroke="#63b8ff" points="287.37,-67.03 297.91,-65.95 289,-60.22 287.37,-67.03"/>
</a>
</g>
</g>
<!-- Node3 -->
<g id="Node000003" class="node">
<title>Node3</title>
<g id="a_Node000003"><a xlink:href="../../d1/d14/transaction__manager_8cpp.html" target="_top" xlink:title=" ">
<polygon fill="white" stroke="#666666" points="348,-30 197,-30 197,0 348,0 348,-30"/>
<text text-anchor="start" x="205" y="-18" font-family="Helvetica,sans-Serif" font-size="10.00">src/concurrency/transaction</text>
<text text-anchor="middle" x="272.5" y="-7" font-family="Helvetica,sans-Serif" font-size="10.00">_manager.cpp</text>
</a>
</g>
</g>
<!-- Node1&#45;&gt;Node3 -->
<g id="edge2_Node000001_Node000003" class="edge">
<title>Node1&#45;&gt;Node3</title>
<g id="a_edge2_Node000001_Node000003"><a xlink:title=" ">
<path fill="none" stroke="#63b8ff" d="M329.56,-59.48C317.01,-49.91 302.39,-38.77 291.09,-30.16"/>
<polygon fill="#63b8ff" stroke="#63b8ff" points="327.78,-62.52 337.86,-65.8 332.02,-56.95 327.78,-62.52"/>
</a>
</g>
</g>
<!-- Node4 -->
<g id="Node000004" class="node">
<title>Node4</title>
<g id="a_Node000004"><a xlink:href="../../d3/d72/transaction__manager__impl_8cpp.html" target="_top" xlink:title=" ">
<polygon fill="white" stroke="#666666" points="517,-30 366,-30 366,0 517,0 517,-30"/>
<text text-anchor="start" x="374" y="-18" font-family="Helvetica,sans-Serif" font-size="10.00">src/concurrency/transaction</text>
<text text-anchor="middle" x="441.5" y="-7" font-family="Helvetica,sans-Serif" font-size="10.00">_manager_impl.cpp</text>
</a>
</g>
</g>
<!-- Node1&#45;&gt;Node4 -->
<g id="edge3_Node000001_Node000004" class="edge">
<title>Node1&#45;&gt;Node4</title>
<g id="a_edge3_Node000001_Node000004"><a xlink:title=" ">
<path fill="none" stroke="#63b8ff" d="M383.39,-59.75C396.17,-50.13 411.14,-38.86 422.69,-30.16"/>
<polygon fill="#63b8ff" stroke="#63b8ff" points="381.25,-56.99 375.36,-65.8 385.46,-62.58 381.25,-56.99"/>
</a>
</g>
</g>
<!-- Node5 -->
<g id="Node000005" class="node">
<title>Node5</title>
<g id="a_Node000005"><a xlink:href="../../dd/df1/execution__common_8cpp.html" target="_top" xlink:title=" ">
<polygon fill="white" stroke="#666666" points="666,-30 535,-30 535,0 666,0 666,-30"/>
<text text-anchor="start" x="543" y="-18" font-family="Helvetica,sans-Serif" font-size="10.00">src/execution/execution</text>
<text text-anchor="middle" x="600.5" y="-7" font-family="Helvetica,sans-Serif" font-size="10.00">_common.cpp</text>
</a>
</g>
</g>
<!-- Node1&#45;&gt;Node5 -->
<g id="edge4_Node000001_Node000005" class="edge">
<title>Node1&#45;&gt;Node5</title>
<g id="a_edge4_Node000001_Node000005"><a xlink:title=" ">
<path fill="none" stroke="#63b8ff" d="M419.84,-63.39C459.34,-53.03 509.6,-39.84 547.08,-30.01"/>
<polygon fill="#63b8ff" stroke="#63b8ff" points="418.83,-60.03 410.05,-65.95 420.61,-66.8 418.83,-60.03"/>
</a>
</g>
</g>
</g>
</svg>
