<?xml version="1.0" encoding="UTF-8" standalone="no"?>
<!DOCTYPE svg PUBLIC "-//W3C//DTD SVG 1.1//EN"
 "http://www.w3.org/Graphics/SVG/1.1/DTD/svg11.dtd">
<!-- Generated by graphviz version 2.43.0 (0)
 -->
<!-- Title: src/include/binder/expressions/bound_constant.h Pages: 1 -->
<svg width="756pt" height="203pt"
 viewBox="0.00 0.00 756.18 203.00" xmlns="http://www.w3.org/2000/svg" xmlns:xlink="http://www.w3.org/1999/xlink">
<g id="graph0" class="graph" transform="scale(1 1) rotate(0) translate(4 199)">
<title>src/include/binder/expressions/bound_constant.h</title>
<!-- Node1 -->
<g id="Node000001" class="node">
<title>Node1</title>
<g id="a_Node000001"><a xlink:title=" ">
<polygon fill="#999999" stroke="#666666" points="709,-195 542,-195 542,-165 709,-165 709,-195"/>
<text text-anchor="start" x="550" y="-183" font-family="Helvetica,sans-Serif" font-size="10.00">src/include/binder</text>
<text text-anchor="middle" x="625.5" y="-172" font-family="Helvetica,sans-Serif" font-size="10.00">/expressions/bound_constant.h</text>
</a>
</g>
</g>
<!-- Node2 -->
<g id="Node000002" class="node">
<title>Node2</title>
<g id="a_Node000002"><a xlink:title=" ">
<polygon fill="#e0e0e0" stroke="#999999" points="648.5,-19 604.5,-19 604.5,0 648.5,0 648.5,-19"/>
<text text-anchor="middle" x="626.5" y="-7" font-family="Helvetica,sans-Serif" font-size="10.00">string</text>
</a>
</g>
</g>
<!-- Node1&#45;&gt;Node2 -->
<g id="edge1_Node000001_Node000002" class="edge">
<title>Node1&#45;&gt;Node2</title>
<g id="a_edge1_Node000001_Node000002"><a xlink:title=" ">
<path fill="none" stroke="#63b8ff" d="M656.33,-164.97C699.8,-143.18 770.64,-99.12 740.5,-55 722.3,-28.36 685.59,-17.67 658.72,-13.38"/>
<polygon fill="#63b8ff" stroke="#63b8ff" points="658.99,-9.88 648.61,-11.98 658.04,-16.82 658.99,-9.88"/>
</a>
</g>
</g>
<!-- Node3 -->
<g id="Node000003" class="node">
<title>Node3</title>
<g id="a_Node000003"><a xlink:title=" ">
<polygon fill="#e0e0e0" stroke="#999999" points="731,-74 686,-74 686,-55 731,-55 731,-74"/>
<text text-anchor="middle" x="708.5" y="-62" font-family="Helvetica,sans-Serif" font-size="10.00">utility</text>
</a>
</g>
</g>
<!-- Node1&#45;&gt;Node3 -->
<g id="edge2_Node000001_Node000003" class="edge">
<title>Node1&#45;&gt;Node3</title>
<g id="a_edge2_Node000001_Node000003"><a xlink:title=" ">
<path fill="none" stroke="#63b8ff" d="M636.01,-164.63C651.35,-143.65 679.8,-104.75 696.13,-82.42"/>
<polygon fill="#63b8ff" stroke="#63b8ff" points="699.04,-84.37 702.12,-74.23 693.39,-80.24 699.04,-84.37"/>
</a>
</g>
</g>
<!-- Node4 -->
<g id="Node000004" class="node">
<title>Node4</title>
<g id="a_Node000004"><a xlink:href="../../dc/d8b/bound__expression_8h.html" target="_top" xlink:title=" ">
<polygon fill="white" stroke="#666666" points="371.5,-129 223.5,-129 223.5,-110 371.5,-110 371.5,-129"/>
<text text-anchor="middle" x="297.5" y="-117" font-family="Helvetica,sans-Serif" font-size="10.00">binder/bound_expression.h</text>
</a>
</g>
</g>
<!-- Node1&#45;&gt;Node4 -->
<g id="edge3_Node000001_Node000004" class="edge">
<title>Node1&#45;&gt;Node4</title>
<g id="a_edge3_Node000001_Node000004"><a xlink:title=" ">
<path fill="none" stroke="#63b8ff" d="M546.94,-164.99C488,-154.48 408.65,-140.32 355.41,-130.83"/>
<polygon fill="#63b8ff" stroke="#63b8ff" points="355.92,-127.36 345.46,-129.05 354.69,-134.26 355.92,-127.36"/>
</a>
</g>
</g>
<!-- Node11 -->
<g id="Node000011" class="node">
<title>Node11</title>
<g id="a_Node000011"><a xlink:href="../../d4/d3f/value_8h.html" target="_top" xlink:title=" ">
<polygon fill="white" stroke="#666666" points="554,-129 477,-129 477,-110 554,-110 554,-129"/>
<text text-anchor="middle" x="515.5" y="-117" font-family="Helvetica,sans-Serif" font-size="10.00">type/value.h</text>
</a>
</g>
</g>
<!-- Node1&#45;&gt;Node11 -->
<g id="edge11_Node000001_Node000011" class="edge">
<title>Node1&#45;&gt;Node11</title>
<g id="a_edge11_Node000001_Node000011"><a xlink:title=" ">
<path fill="none" stroke="#63b8ff" d="M599.15,-164.99C581.45,-155.58 558.27,-143.24 540.79,-133.95"/>
<polygon fill="#63b8ff" stroke="#63b8ff" points="542.22,-130.74 531.74,-129.14 538.93,-136.92 542.22,-130.74"/>
</a>
</g>
</g>
<!-- Node4&#45;&gt;Node2 -->
<g id="edge5_Node000004_Node000002" class="edge">
<title>Node4&#45;&gt;Node2</title>
<g id="a_edge5_Node000004_Node000002"><a xlink:title=" ">
<path fill="none" stroke="#63b8ff" d="M371.69,-112.25C419.07,-106.39 481.05,-95.19 532.5,-74 547.93,-67.64 584.14,-41.87 606.84,-25.17"/>
<polygon fill="#63b8ff" stroke="#63b8ff" points="609.13,-27.83 615.09,-19.07 604.97,-22.21 609.13,-27.83"/>
</a>
</g>
</g>
<!-- Node5 -->
<g id="Node000005" class="node">
<title>Node5</title>
<g id="a_Node000005"><a xlink:title=" ">
<polygon fill="#e0e0e0" stroke="#999999" points="239.5,-74 181.5,-74 181.5,-55 239.5,-55 239.5,-74"/>
<text text-anchor="middle" x="210.5" y="-62" font-family="Helvetica,sans-Serif" font-size="10.00">memory</text>
</a>
</g>
</g>
<!-- Node4&#45;&gt;Node5 -->
<g id="edge4_Node000004_Node000005" class="edge">
<title>Node4&#45;&gt;Node5</title>
<g id="a_edge4_Node000004_Node000005"><a xlink:title=" ">
<path fill="none" stroke="#63b8ff" d="M283.52,-109.98C270.03,-101.77 249.37,-89.18 233.46,-79.49"/>
<polygon fill="#63b8ff" stroke="#63b8ff" points="235.09,-76.38 224.73,-74.17 231.45,-82.36 235.09,-76.38"/>
</a>
</g>
</g>
<!-- Node6 -->
<g id="Node000006" class="node">
<title>Node6</title>
<g id="a_Node000006"><a xlink:href="../../de/d3c/macros_8h.html" target="_top" xlink:title=" ">
<polygon fill="white" stroke="#666666" points="163,-74 56,-74 56,-55 163,-55 163,-74"/>
<text text-anchor="middle" x="109.5" y="-62" font-family="Helvetica,sans-Serif" font-size="10.00">common/macros.h</text>
</a>
</g>
</g>
<!-- Node4&#45;&gt;Node6 -->
<g id="edge6_Node000004_Node000006" class="edge">
<title>Node4&#45;&gt;Node6</title>
<g id="a_edge6_Node000004_Node000006"><a xlink:title=" ">
<path fill="none" stroke="#63b8ff" d="M267.29,-109.98C235.46,-101.01 185.14,-86.82 149.9,-76.89"/>
<polygon fill="#63b8ff" stroke="#63b8ff" points="150.52,-73.43 139.94,-74.08 148.62,-80.16 150.52,-73.43"/>
</a>
</g>
</g>
<!-- Node10 -->
<g id="Node000010" class="node">
<title>Node10</title>
<g id="a_Node000010"><a xlink:title=" ">
<polygon fill="#e0e0e0" stroke="#999999" points="337,-74 258,-74 258,-55 337,-55 337,-74"/>
<text text-anchor="middle" x="297.5" y="-62" font-family="Helvetica,sans-Serif" font-size="10.00">fmt/format.h</text>
</a>
</g>
</g>
<!-- Node4&#45;&gt;Node10 -->
<g id="edge10_Node000004_Node000010" class="edge">
<title>Node4&#45;&gt;Node10</title>
<g id="a_edge10_Node000004_Node000010"><a xlink:title=" ">
<path fill="none" stroke="#63b8ff" d="M297.5,-109.75C297.5,-102.8 297.5,-92.85 297.5,-84.13"/>
<polygon fill="#63b8ff" stroke="#63b8ff" points="301,-84.09 297.5,-74.09 294,-84.09 301,-84.09"/>
</a>
</g>
</g>
<!-- Node7 -->
<g id="Node000007" class="node">
<title>Node7</title>
<g id="a_Node000007"><a xlink:title=" ">
<polygon fill="#e0e0e0" stroke="#999999" points="135.5,-19 83.5,-19 83.5,0 135.5,0 135.5,-19"/>
<text text-anchor="middle" x="109.5" y="-7" font-family="Helvetica,sans-Serif" font-size="10.00">cassert</text>
</a>
</g>
</g>
<!-- Node6&#45;&gt;Node7 -->
<g id="edge7_Node000006_Node000007" class="edge">
<title>Node6&#45;&gt;Node7</title>
<g id="a_edge7_Node000006_Node000007"><a xlink:title=" ">
<path fill="none" stroke="#63b8ff" d="M109.5,-54.75C109.5,-47.8 109.5,-37.85 109.5,-29.13"/>
<polygon fill="#63b8ff" stroke="#63b8ff" points="113,-29.09 109.5,-19.09 106,-29.09 113,-29.09"/>
</a>
</g>
</g>
<!-- Node8 -->
<g id="Node000008" class="node">
<title>Node8</title>
<g id="a_Node000008"><a xlink:title=" ">
<polygon fill="#e0e0e0" stroke="#999999" points="219,-19 154,-19 154,0 219,0 219,-19"/>
<text text-anchor="middle" x="186.5" y="-7" font-family="Helvetica,sans-Serif" font-size="10.00">exception</text>
</a>
</g>
</g>
<!-- Node6&#45;&gt;Node8 -->
<g id="edge8_Node000006_Node000008" class="edge">
<title>Node6&#45;&gt;Node8</title>
<g id="a_edge8_Node000006_Node000008"><a xlink:title=" ">
<path fill="none" stroke="#63b8ff" d="M121.87,-54.98C133.59,-46.92 151.42,-34.65 165.39,-25.03"/>
<polygon fill="#63b8ff" stroke="#63b8ff" points="167.65,-27.72 173.9,-19.17 163.68,-21.96 167.65,-27.72"/>
</a>
</g>
</g>
<!-- Node9 -->
<g id="Node000009" class="node">
<title>Node9</title>
<g id="a_Node000009"><a xlink:title=" ">
<polygon fill="#e0e0e0" stroke="#999999" points="65,-19 0,-19 0,0 65,0 65,-19"/>
<text text-anchor="middle" x="32.5" y="-7" font-family="Helvetica,sans-Serif" font-size="10.00">stdexcept</text>
</a>
</g>
</g>
<!-- Node6&#45;&gt;Node9 -->
<g id="edge9_Node000006_Node000009" class="edge">
<title>Node6&#45;&gt;Node9</title>
<g id="a_edge9_Node000006_Node000009"><a xlink:title=" ">
<path fill="none" stroke="#63b8ff" d="M97.13,-54.98C85.41,-46.92 67.58,-34.65 53.61,-25.03"/>
<polygon fill="#63b8ff" stroke="#63b8ff" points="55.32,-21.96 45.1,-19.17 51.35,-27.72 55.32,-21.96"/>
</a>
</g>
</g>
<!-- Node11&#45;&gt;Node2 -->
<g id="edge14_Node000011_Node000002" class="edge">
<title>Node11&#45;&gt;Node2</title>
<g id="a_edge14_Node000011_Node000002"><a xlink:title=" ">
<path fill="none" stroke="#63b8ff" d="M525.67,-109.86C535.92,-101.05 552.11,-86.89 565.5,-74 581.58,-58.52 599.16,-40.04 611.3,-27.02"/>
<polygon fill="#63b8ff" stroke="#63b8ff" points="614.19,-29.05 618.42,-19.34 609.06,-24.29 614.19,-29.05"/>
</a>
</g>
</g>
<!-- Node11&#45;&gt;Node3 -->
<g id="edge15_Node000011_Node000003" class="edge">
<title>Node11&#45;&gt;Node3</title>
<g id="a_edge15_Node000011_Node000003"><a xlink:title=" ">
<path fill="none" stroke="#63b8ff" d="M546.51,-109.98C581.91,-100.26 639.57,-84.43 675.7,-74.51"/>
<polygon fill="#63b8ff" stroke="#63b8ff" points="677.01,-77.78 685.73,-71.75 675.16,-71.03 677.01,-77.78"/>
</a>
</g>
</g>
<!-- Node11&#45;&gt;Node5 -->
<g id="edge13_Node000011_Node000005" class="edge">
<title>Node11&#45;&gt;Node5</title>
<g id="a_edge13_Node000011_Node000005"><a xlink:title=" ">
<path fill="none" stroke="#63b8ff" d="M476.91,-112.75C426.82,-105.14 336.47,-90.89 249.54,-74.11"/>
<polygon fill="#63b8ff" stroke="#63b8ff" points="250,-70.64 239.51,-72.16 248.66,-77.51 250,-70.64"/>
</a>
</g>
</g>
<!-- Node11&#45;&gt;Node10 -->
<g id="edge16_Node000011_Node000010" class="edge">
<title>Node11&#45;&gt;Node10</title>
<g id="a_edge16_Node000011_Node000010"><a xlink:title=" ">
<path fill="none" stroke="#63b8ff" d="M480.47,-109.98C443,-100.87 383.45,-86.4 342.52,-76.45"/>
<polygon fill="#63b8ff" stroke="#63b8ff" points="343.34,-73.04 332.8,-74.08 341.69,-79.85 343.34,-73.04"/>
</a>
</g>
</g>
<!-- Node12 -->
<g id="Node000012" class="node">
<title>Node12</title>
<g id="a_Node000012"><a xlink:title=" ">
<polygon fill="#e0e0e0" stroke="#999999" points="667.5,-74 617.5,-74 617.5,-55 667.5,-55 667.5,-74"/>
<text text-anchor="middle" x="642.5" y="-62" font-family="Helvetica,sans-Serif" font-size="10.00">cstring</text>
</a>
</g>
</g>
<!-- Node11&#45;&gt;Node12 -->
<g id="edge12_Node000011_Node000012" class="edge">
<title>Node11&#45;&gt;Node12</title>
<g id="a_edge12_Node000011_Node000012"><a xlink:title=" ">
<path fill="none" stroke="#63b8ff" d="M535.9,-109.98C556.52,-101.38 588.61,-87.99 612.19,-78.15"/>
<polygon fill="#63b8ff" stroke="#63b8ff" points="613.84,-81.25 621.72,-74.17 611.15,-74.79 613.84,-81.25"/>
</a>
</g>
</g>
<!-- Node13 -->
<g id="Node000013" class="node">
<title>Node13</title>
<g id="a_Node000013"><a xlink:href="../../d9/d86/limits_8h.html" target="_top" xlink:title=" ">
<polygon fill="white" stroke="#666666" points="433.5,-74 355.5,-74 355.5,-55 433.5,-55 433.5,-74"/>
<text text-anchor="middle" x="394.5" y="-62" font-family="Helvetica,sans-Serif" font-size="10.00">type/limits.h</text>
</a>
</g>
</g>
<!-- Node11&#45;&gt;Node13 -->
<g id="edge17_Node000011_Node000013" class="edge">
<title>Node11&#45;&gt;Node13</title>
<g id="a_edge17_Node000011_Node000013"><a xlink:title=" ">
<path fill="none" stroke="#63b8ff" d="M496.06,-109.98C476.51,-101.42 446.12,-88.11 423.68,-78.28"/>
<polygon fill="#63b8ff" stroke="#63b8ff" points="424.86,-74.98 414.29,-74.17 422.05,-81.39 424.86,-74.98"/>
</a>
</g>
</g>
<!-- Node18 -->
<g id="Node000018" class="node">
<title>Node18</title>
<g id="a_Node000018"><a xlink:href="../../df/def/type_8h.html" target="_top" xlink:title=" ">
<polygon fill="white" stroke="#666666" points="523.5,-74 451.5,-74 451.5,-55 523.5,-55 523.5,-74"/>
<text text-anchor="middle" x="487.5" y="-62" font-family="Helvetica,sans-Serif" font-size="10.00">type/type.h</text>
</a>
</g>
</g>
<!-- Node11&#45;&gt;Node18 -->
<g id="edge22_Node000011_Node000018" class="edge">
<title>Node11&#45;&gt;Node18</title>
<g id="a_edge22_Node000011_Node000018"><a xlink:title=" ">
<path fill="none" stroke="#63b8ff" d="M510.88,-109.75C507.04,-102.49 501.48,-91.95 496.74,-82.98"/>
<polygon fill="#63b8ff" stroke="#63b8ff" points="499.8,-81.3 492.04,-74.09 493.61,-84.57 499.8,-81.3"/>
</a>
</g>
</g>
<!-- Node14 -->
<g id="Node000014" class="node">
<title>Node14</title>
<g id="a_Node000014"><a xlink:title=" ">
<polygon fill="#e0e0e0" stroke="#999999" points="284.5,-19 240.5,-19 240.5,0 284.5,0 284.5,-19"/>
<text text-anchor="middle" x="262.5" y="-7" font-family="Helvetica,sans-Serif" font-size="10.00">cfloat</text>
</a>
</g>
</g>
<!-- Node13&#45;&gt;Node14 -->
<g id="edge18_Node000013_Node000014" class="edge">
<title>Node13&#45;&gt;Node14</title>
<g id="a_edge18_Node000013_Node000014"><a xlink:title=" ">
<path fill="none" stroke="#63b8ff" d="M373.29,-54.98C351.77,-46.34 318.22,-32.87 293.67,-23.02"/>
<polygon fill="#63b8ff" stroke="#63b8ff" points="294.68,-19.65 284.09,-19.17 292.07,-26.14 294.68,-19.65"/>
</a>
</g>
</g>
<!-- Node15 -->
<g id="Node000015" class="node">
<title>Node15</title>
<g id="a_Node000015"><a xlink:title=" ">
<polygon fill="#e0e0e0" stroke="#999999" points="352.5,-19 302.5,-19 302.5,0 352.5,0 352.5,-19"/>
<text text-anchor="middle" x="327.5" y="-7" font-family="Helvetica,sans-Serif" font-size="10.00">climits</text>
</a>
</g>
</g>
<!-- Node13&#45;&gt;Node15 -->
<g id="edge19_Node000013_Node000015" class="edge">
<title>Node13&#45;&gt;Node15</title>
<g id="a_edge19_Node000013_Node000015"><a xlink:title=" ">
<path fill="none" stroke="#63b8ff" d="M383.74,-54.98C373.73,-47.07 358.61,-35.11 346.57,-25.58"/>
<polygon fill="#63b8ff" stroke="#63b8ff" points="348.47,-22.63 338.46,-19.17 344.13,-28.12 348.47,-22.63"/>
</a>
</g>
</g>
<!-- Node16 -->
<g id="Node000016" class="node">
<title>Node16</title>
<g id="a_Node000016"><a xlink:title=" ">
<polygon fill="#e0e0e0" stroke="#999999" points="482.5,-19 432.5,-19 432.5,0 482.5,0 482.5,-19"/>
<text text-anchor="middle" x="457.5" y="-7" font-family="Helvetica,sans-Serif" font-size="10.00">cstdint</text>
</a>
</g>
</g>
<!-- Node13&#45;&gt;Node16 -->
<g id="edge20_Node000013_Node000016" class="edge">
<title>Node13&#45;&gt;Node16</title>
<g id="a_edge20_Node000013_Node000016"><a xlink:title=" ">
<path fill="none" stroke="#63b8ff" d="M404.62,-54.98C413.94,-47.15 427.97,-35.34 439.24,-25.86"/>
<polygon fill="#63b8ff" stroke="#63b8ff" points="441.79,-28.29 447.19,-19.17 437.29,-22.93 441.79,-28.29"/>
</a>
</g>
</g>
<!-- Node17 -->
<g id="Node000017" class="node">
<title>Node17</title>
<g id="a_Node000017"><a xlink:title=" ">
<polygon fill="#e0e0e0" stroke="#999999" points="414.5,-19 370.5,-19 370.5,0 414.5,0 414.5,-19"/>
<text text-anchor="middle" x="392.5" y="-7" font-family="Helvetica,sans-Serif" font-size="10.00">limits</text>
</a>
</g>
</g>
<!-- Node13&#45;&gt;Node17 -->
<g id="edge21_Node000013_Node000017" class="edge">
<title>Node13&#45;&gt;Node17</title>
<g id="a_edge21_Node000013_Node000017"><a xlink:title=" ">
<path fill="none" stroke="#63b8ff" d="M394.17,-54.75C393.91,-47.8 393.53,-37.85 393.2,-29.13"/>
<polygon fill="#63b8ff" stroke="#63b8ff" points="396.7,-28.95 392.82,-19.09 389.7,-29.21 396.7,-28.95"/>
</a>
</g>
</g>
<!-- Node18&#45;&gt;Node2 -->
<g id="edge24_Node000018_Node000002" class="edge">
<title>Node18&#45;&gt;Node2</title>
<g id="a_edge24_Node000018_Node000002"><a xlink:title=" ">
<path fill="none" stroke="#63b8ff" d="M509.83,-54.98C532.83,-46.21 568.88,-32.47 594.82,-22.58"/>
<polygon fill="#63b8ff" stroke="#63b8ff" points="596.13,-25.83 604.22,-18.99 593.63,-19.29 596.13,-25.83"/>
</a>
</g>
</g>
<!-- Node18&#45;&gt;Node16 -->
<g id="edge23_Node000018_Node000016" class="edge">
<title>Node18&#45;&gt;Node16</title>
<g id="a_edge23_Node000018_Node000016"><a xlink:title=" ">
<path fill="none" stroke="#63b8ff" d="M482.55,-54.75C478.44,-47.49 472.47,-36.95 467.4,-27.98"/>
<polygon fill="#63b8ff" stroke="#63b8ff" points="470.33,-26.07 462.36,-19.09 464.24,-29.52 470.33,-26.07"/>
</a>
</g>
</g>
<!-- Node19 -->
<g id="Node000019" class="node">
<title>Node19</title>
<g id="a_Node000019"><a xlink:href="../../dc/df2/type__id_8h.html" target="_top" xlink:title=" ">
<polygon fill="white" stroke="#666666" points="586.5,-19 500.5,-19 500.5,0 586.5,0 586.5,-19"/>
<text text-anchor="middle" x="543.5" y="-7" font-family="Helvetica,sans-Serif" font-size="10.00">type/type_id.h</text>
</a>
</g>
</g>
<!-- Node18&#45;&gt;Node19 -->
<g id="edge25_Node000018_Node000019" class="edge">
<title>Node18&#45;&gt;Node19</title>
<g id="a_edge25_Node000018_Node000019"><a xlink:title=" ">
<path fill="none" stroke="#63b8ff" d="M496.5,-54.98C504.69,-47.23 517.01,-35.58 526.97,-26.14"/>
<polygon fill="#63b8ff" stroke="#63b8ff" points="529.48,-28.59 534.34,-19.17 524.67,-23.5 529.48,-28.59"/>
</a>
</g>
</g>
</g>
</svg>
