<?xml version="1.0" encoding="UTF-8" standalone="no"?>
<!DOCTYPE svg PUBLIC "-//W3C//DTD SVG 1.1//EN"
 "http://www.w3.org/Graphics/SVG/1.1/DTD/svg11.dtd">
<!-- Generated by graphviz version 2.43.0 (0)
 -->
<!-- Title: src/include/binder/statement/select_statement.h Pages: 1 -->
<!--zoomable 280 -->

<svg id="main" version="1.1" xmlns="http://www.w3.org/2000/svg" xmlns:xlink="http://www.w3.org/1999/xlink" xml:space="preserve" onload="init(evt)">
<style type="text/css"><![CDATA[
.node, .edge {opacity: 0.7;}
.node.selected, .edge.selected {opacity: 1;}
.edge:hover path { stroke: red; }
.edge:hover polygon { stroke: red; fill: red; }
]]></style>

<defs>
  <circle id="rim" cx="0" cy="0" r="7"/>
  <circle id="rim2" cx="0" cy="0" r="3.5"/>
  <g id="zoomPlus">
    <use xlink:href="#rim" fill="#404040"><set attributeName="fill" to="#808080" begin="zoomplus.mouseover" end="zoomplus.mouseout"/></use>
    <path d="M-4,0h8M0,-4v8" fill="none" stroke="white" stroke-width="1.5" pointer-events="none"/>
  </g>
  <g id="zoomMin">
    <use xlink:href="#rim" fill="#404040"><set attributeName="fill" to="#808080" begin="zoomminus.mouseover" end="zoomminus.mouseout"/></use>
    <path d="M-4,0h8" fill="none" stroke="white" stroke-width="1.5" pointer-events="none"/>
  </g>
  <g id="arrowUp" transform="translate(30 24)">
    <use xlink:href="#rim"/>
    <path pointer-events="none" fill="none" stroke="white" stroke-width="1.5" d="M0,-3.0v7 M-2.5,-0.5L0,-3.0L2.5,-0.5"/>
  </g>
  <g id="arrowRight" transform="rotate(90) translate(36 -43)">
    <use xlink:href="#rim"/>
    <path pointer-events="none" fill="none" stroke="white" stroke-width="1.5" d="M0,-3.0v7 M-2.5,-0.5L0,-3.0L2.5,-0.5"/>
  </g>
  <g id="arrowDown" transform="rotate(180) translate(-30 -48)">
    <use xlink:href="#rim"/>
    <path pointer-events="none" fill="none" stroke="white" stroke-width="1.5" d="M0,-3.0v7 M-2.5,-0.5L0,-3.0L2.5,-0.5"/>
  </g>
  <g id="arrowLeft" transform="rotate(270) translate(-36 17)">
    <use xlink:href="#rim"/>
    <path pointer-events="none" fill="none" stroke="white" stroke-width="1.5" d="M0,-3.0v7 M-2.5,-0.5L0,-3.0L2.5,-0.5"/>
  </g>
  <g id="resetDef">
    <use xlink:href="#rim2" fill="#404040"><set attributeName="fill" to="#808080" begin="reset.mouseover" end="reset.mouseout"/></use>
  </g>
</defs>
<script type="application/ecmascript">
var viewWidth = 1338;
var viewHeight = 280;
var sectionId = 'dynsection-0';
</script>
<script type="application/ecmascript" xlink:href="../../svg.min.js"/>
<svg id="graph" class="graph">
<g id="viewport">
<title>src/include/binder/statement/select_statement.h</title>
<!-- Node1 -->
<g id="Node000001" class="node">
<title>Node1</title>
<g id="a_Node000001"><a xlink:title=" ">
<polygon fill="#999999" stroke="#666666" points="455.5,-272 288.5,-272 288.5,-242 455.5,-242 455.5,-272"/>
<text text-anchor="start" x="296.5" y="-260" font-family="Helvetica,sans-Serif" font-size="10.00">src/include/binder</text>
<text text-anchor="middle" x="372" y="-249" font-family="Helvetica,sans-Serif" font-size="10.00">/statement/select_statement.h</text>
</a>
</g>
</g>
<!-- Node2 -->
<g id="Node000002" class="node">
<title>Node2</title>
<g id="a_Node000002"><a xlink:title=" ">
<polygon fill="#e0e0e0" stroke="#999999" points="382,-74 324,-74 324,-55 382,-55 382,-74"/>
<text text-anchor="middle" x="353" y="-62" font-family="Helvetica,sans-Serif" font-size="10.00">memory</text>
</a>
</g>
</g>
<!-- Node1&#45;&gt;Node2 -->
<g id="edge1_Node000001_Node000002" class="edge">
<title>Node1&#45;&gt;Node2</title>
<g id="a_edge1_Node000001_Node000002"><a xlink:title=" ">
<path fill="none" stroke="#63b8ff" d="M288.33,-249.82C215.12,-242.94 115.66,-229.55 84,-206 47.8,-179.07 21.51,-144.15 51,-110 84.47,-71.24 239.49,-65.64 313.49,-65.22"/>
<polygon fill="#63b8ff" stroke="#63b8ff" points="313.8,-68.72 323.79,-65.2 313.78,-61.72 313.8,-68.72"/>
</a>
</g>
</g>
<!-- Node3 -->
<g id="Node000003" class="node">
<title>Node3</title>
<g id="a_Node000003"><a xlink:title=" ">
<polygon fill="#e0e0e0" stroke="#999999" points="725,-19 681,-19 681,0 725,0 725,-19"/>
<text text-anchor="middle" x="703" y="-7" font-family="Helvetica,sans-Serif" font-size="10.00">string</text>
</a>
</g>
</g>
<!-- Node1&#45;&gt;Node3 -->
<g id="edge2_Node000001_Node000003" class="edge">
<title>Node1&#45;&gt;Node3</title>
<g id="a_edge2_Node000001_Node000003"><a xlink:title=" ">
<path fill="none" stroke="#63b8ff" d="M455.56,-253.79C589.32,-249.38 845.11,-237.06 930,-206 977.94,-188.46 1000.46,-185.29 1024,-140 1082.31,-27.8 827.9,-12.56 735.45,-10.68"/>
<polygon fill="#63b8ff" stroke="#63b8ff" points="735.32,-7.18 725.26,-10.52 735.2,-14.18 735.32,-7.18"/>
</a>
</g>
</g>
<!-- Node4 -->
<g id="Node000004" class="node">
<title>Node4</title>
<g id="a_Node000004"><a xlink:title=" ">
<polygon fill="#e0e0e0" stroke="#999999" points="205.5,-200.5 112.5,-200.5 112.5,-181.5 205.5,-181.5 205.5,-200.5"/>
<text text-anchor="middle" x="159" y="-188.5" font-family="Helvetica,sans-Serif" font-size="10.00">unordered_map</text>
</a>
</g>
</g>
<!-- Node1&#45;&gt;Node4 -->
<g id="edge3_Node000001_Node000004" class="edge">
<title>Node1&#45;&gt;Node4</title>
<g id="a_edge3_Node000001_Node000004"><a xlink:title=" ">
<path fill="none" stroke="#63b8ff" d="M325.26,-241.95C286.75,-230.38 232.83,-214.18 196.96,-203.41"/>
<polygon fill="#63b8ff" stroke="#63b8ff" points="197.93,-200.04 187.35,-200.52 195.92,-206.75 197.93,-200.04"/>
</a>
</g>
</g>
<!-- Node5 -->
<g id="Node000005" class="node">
<title>Node5</title>
<g id="a_Node000005"><a xlink:title=" ">
<polygon fill="#e0e0e0" stroke="#999999" points="579.5,-134.5 534.5,-134.5 534.5,-115.5 579.5,-115.5 579.5,-134.5"/>
<text text-anchor="middle" x="557" y="-122.5" font-family="Helvetica,sans-Serif" font-size="10.00">utility</text>
</a>
</g>
</g>
<!-- Node1&#45;&gt;Node5 -->
<g id="edge4_Node000001_Node000005" class="edge">
<title>Node1&#45;&gt;Node5</title>
<g id="a_edge4_Node000001_Node000005"><a xlink:title=" ">
<path fill="none" stroke="#63b8ff" d="M392.15,-241.84C427.55,-216.97 500.52,-165.69 536.3,-140.55"/>
<polygon fill="#63b8ff" stroke="#63b8ff" points="538.38,-143.36 544.55,-134.75 534.36,-137.63 538.38,-143.36"/>
</a>
</g>
</g>
<!-- Node6 -->
<g id="Node000006" class="node">
<title>Node6</title>
<g id="a_Node000006"><a xlink:title=" ">
<polygon fill="#e0e0e0" stroke="#999999" points="107.5,-134.5 60.5,-134.5 60.5,-115.5 107.5,-115.5 107.5,-134.5"/>
<text text-anchor="middle" x="84" y="-122.5" font-family="Helvetica,sans-Serif" font-size="10.00">vector</text>
</a>
</g>
</g>
<!-- Node1&#45;&gt;Node6 -->
<g id="edge5_Node000001_Node000006" class="edge">
<title>Node1&#45;&gt;Node6</title>
<g id="a_edge5_Node000001_Node000006"><a xlink:title=" ">
<path fill="none" stroke="#63b8ff" d="M288.17,-250.3C219.38,-243.89 129.19,-230.93 103,-206 86.56,-190.35 83.21,-163.28 83.03,-145.01"/>
<polygon fill="#63b8ff" stroke="#63b8ff" points="86.54,-145.03 83.25,-134.96 79.54,-144.88 86.54,-145.03"/>
</a>
</g>
</g>
<!-- Node7 -->
<g id="Node000007" class="node">
<title>Node7</title>
<g id="a_Node000007"><a xlink:href="../../dc/d8b/bound__expression_8h.html" target="_top" xlink:title=" ">
<polygon fill="white" stroke="#666666" points="478,-134.5 330,-134.5 330,-115.5 478,-115.5 478,-134.5"/>
<text text-anchor="middle" x="404" y="-122.5" font-family="Helvetica,sans-Serif" font-size="10.00">binder/bound_expression.h</text>
</a>
</g>
</g>
<!-- Node1&#45;&gt;Node7 -->
<g id="edge6_Node000001_Node000007" class="edge">
<title>Node1&#45;&gt;Node7</title>
<g id="a_edge6_Node000001_Node000007"><a xlink:title=" ">
<path fill="none" stroke="#63b8ff" d="M381.8,-241.84C387.92,-232.2 395.31,-218.9 399,-206 404.79,-185.76 405.49,-161.5 405.08,-145.05"/>
<polygon fill="#63b8ff" stroke="#63b8ff" points="408.56,-144.46 404.65,-134.61 401.57,-144.75 408.56,-144.46"/>
</a>
</g>
</g>
<!-- Node13 -->
<g id="Node000013" class="node">
<title>Node13</title>
<g id="a_Node000013"><a xlink:href="../../df/d21/bound__order__by_8h.html" target="_top" xlink:title=" ">
<polygon fill="white" stroke="#666666" points="676,-200.5 540,-200.5 540,-181.5 676,-181.5 676,-200.5"/>
<text text-anchor="middle" x="608" y="-188.5" font-family="Helvetica,sans-Serif" font-size="10.00">binder/bound_order_by.h</text>
</a>
</g>
</g>
<!-- Node1&#45;&gt;Node13 -->
<g id="edge14_Node000001_Node000013" class="edge">
<title>Node1&#45;&gt;Node13</title>
<g id="a_edge14_Node000001_Node000013"><a xlink:title=" ">
<path fill="none" stroke="#63b8ff" d="M423.79,-241.95C466.73,-230.31 526.96,-213.98 566.7,-203.2"/>
<polygon fill="#63b8ff" stroke="#63b8ff" points="567.86,-206.51 576.59,-200.52 566.02,-199.76 567.86,-206.51"/>
</a>
</g>
</g>
<!-- Node22 -->
<g id="Node000022" class="node">
<title>Node22</title>
<g id="a_Node000022"><a xlink:href="../../de/d1a/bound__statement_8h.html" target="_top" xlink:title=" ">
<polygon fill="white" stroke="#666666" points="920.5,-200.5 775.5,-200.5 775.5,-181.5 920.5,-181.5 920.5,-200.5"/>
<text text-anchor="middle" x="848" y="-188.5" font-family="Helvetica,sans-Serif" font-size="10.00">binder/bound_statement.h</text>
</a>
</g>
</g>
<!-- Node1&#45;&gt;Node22 -->
<g id="edge32_Node000001_Node000022" class="edge">
<title>Node1&#45;&gt;Node22</title>
<g id="a_edge32_Node000001_Node000022"><a xlink:title=" ">
<path fill="none" stroke="#63b8ff" d="M455.73,-244.74C546.05,-232.6 688.47,-213.45 774.57,-201.87"/>
<polygon fill="#63b8ff" stroke="#63b8ff" points="775.09,-205.34 784.53,-200.53 774.15,-198.4 775.09,-205.34"/>
</a>
</g>
</g>
<!-- Node26 -->
<g id="Node000026" class="node">
<title>Node26</title>
<g id="a_Node000026"><a xlink:href="../../d4/d36/bound__table__ref_8h.html" target="_top" xlink:title=" ">
<polygon fill="white" stroke="#666666" points="274,-140 164,-140 164,-110 274,-110 274,-140"/>
<text text-anchor="start" x="172" y="-128" font-family="Helvetica,sans-Serif" font-size="10.00">binder/bound_table</text>
<text text-anchor="middle" x="219" y="-117" font-family="Helvetica,sans-Serif" font-size="10.00">_ref.h</text>
</a>
</g>
</g>
<!-- Node1&#45;&gt;Node26 -->
<g id="edge41_Node000001_Node000026" class="edge">
<title>Node1&#45;&gt;Node26</title>
<g id="a_edge41_Node000001_Node000026"><a xlink:title=" ">
<path fill="none" stroke="#63b8ff" d="M314.95,-241.99C293.35,-234.32 269.91,-222.84 253,-206 237.77,-190.83 228.96,-167.78 224.14,-150.31"/>
<polygon fill="#63b8ff" stroke="#63b8ff" points="227.46,-149.13 221.64,-140.27 220.67,-150.82 227.46,-149.13"/>
</a>
</g>
</g>
<!-- Node27 -->
<g id="Node000027" class="node">
<title>Node27</title>
<g id="a_Node000027"><a xlink:href="../../d4/d90/bound__subquery__ref_8h.html" target="_top" xlink:title=" ">
<polygon fill="white" stroke="#666666" points="389.5,-206 262.5,-206 262.5,-176 389.5,-176 389.5,-206"/>
<text text-anchor="start" x="270.5" y="-194" font-family="Helvetica,sans-Serif" font-size="10.00">binder/table_ref/bound</text>
<text text-anchor="middle" x="326" y="-183" font-family="Helvetica,sans-Serif" font-size="10.00">_subquery_ref.h</text>
</a>
</g>
</g>
<!-- Node1&#45;&gt;Node27 -->
<g id="edge46_Node000001_Node000027" class="edge">
<title>Node1&#45;&gt;Node27</title>
<g id="a_edge46_Node000001_Node000027"><a xlink:title=" ">
<path fill="none" stroke="#63b8ff" d="M361.79,-241.8C356.01,-233.76 348.66,-223.53 342.12,-214.43"/>
<polygon fill="#63b8ff" stroke="#63b8ff" points="344.86,-212.24 336.18,-206.16 339.17,-216.33 344.86,-212.24"/>
</a>
</g>
</g>
<!-- Node7&#45;&gt;Node2 -->
<g id="edge7_Node000007_Node000002" class="edge">
<title>Node7&#45;&gt;Node2</title>
<g id="a_edge7_Node000007_Node000002"><a xlink:title=" ">
<path fill="none" stroke="#63b8ff" d="M396.47,-115.37C388.79,-106.55 376.68,-92.66 367.19,-81.77"/>
<polygon fill="#63b8ff" stroke="#63b8ff" points="369.77,-79.41 360.56,-74.17 364.49,-84.01 369.77,-79.41"/>
</a>
</g>
</g>
<!-- Node7&#45;&gt;Node3 -->
<g id="edge8_Node000007_Node000003" class="edge">
<title>Node7&#45;&gt;Node3</title>
<g id="a_edge8_Node000007_Node000003"><a xlink:title=" ">
<path fill="none" stroke="#63b8ff" d="M408.22,-115.11C415.87,-100.06 433.52,-69.78 458,-55 493.36,-33.65 612.46,-19.38 670.57,-13.51"/>
<polygon fill="#63b8ff" stroke="#63b8ff" points="671.07,-16.98 680.67,-12.52 670.38,-10.01 671.07,-16.98"/>
</a>
</g>
</g>
<!-- Node8 -->
<g id="Node000008" class="node">
<title>Node8</title>
<g id="a_Node000008"><a xlink:href="../../de/d3c/macros_8h.html" target="_top" xlink:title=" ">
<polygon fill="white" stroke="#666666" points="117.5,-74 10.5,-74 10.5,-55 117.5,-55 117.5,-74"/>
<text text-anchor="middle" x="64" y="-62" font-family="Helvetica,sans-Serif" font-size="10.00">common/macros.h</text>
</a>
</g>
</g>
<!-- Node7&#45;&gt;Node8 -->
<g id="edge9_Node000007_Node000008" class="edge">
<title>Node7&#45;&gt;Node8</title>
<g id="a_edge9_Node000007_Node000008"><a xlink:title=" ">
<path fill="none" stroke="#63b8ff" d="M354.56,-115.49C293.37,-104.97 189.25,-87.05 123.68,-75.77"/>
<polygon fill="#63b8ff" stroke="#63b8ff" points="123.95,-72.26 113.5,-74.02 122.76,-79.16 123.95,-72.26"/>
</a>
</g>
</g>
<!-- Node12 -->
<g id="Node000012" class="node">
<title>Node12</title>
<g id="a_Node000012"><a xlink:title=" ">
<polygon fill="#e0e0e0" stroke="#999999" points="545.5,-74 466.5,-74 466.5,-55 545.5,-55 545.5,-74"/>
<text text-anchor="middle" x="506" y="-62" font-family="Helvetica,sans-Serif" font-size="10.00">fmt/format.h</text>
</a>
</g>
</g>
<!-- Node7&#45;&gt;Node12 -->
<g id="edge13_Node000007_Node000012" class="edge">
<title>Node7&#45;&gt;Node12</title>
<g id="a_edge13_Node000007_Node000012"><a xlink:title=" ">
<path fill="none" stroke="#63b8ff" d="M419.05,-115.37C435.62,-105.86 462.5,-90.45 481.99,-79.27"/>
<polygon fill="#63b8ff" stroke="#63b8ff" points="483.95,-82.18 490.89,-74.17 480.47,-76.11 483.95,-82.18"/>
</a>
</g>
</g>
<!-- Node9 -->
<g id="Node000009" class="node">
<title>Node9</title>
<g id="a_Node000009"><a xlink:title=" ">
<polygon fill="#e0e0e0" stroke="#999999" points="52,-19 0,-19 0,0 52,0 52,-19"/>
<text text-anchor="middle" x="26" y="-7" font-family="Helvetica,sans-Serif" font-size="10.00">cassert</text>
</a>
</g>
</g>
<!-- Node8&#45;&gt;Node9 -->
<g id="edge10_Node000008_Node000009" class="edge">
<title>Node8&#45;&gt;Node9</title>
<g id="a_edge10_Node000008_Node000009"><a xlink:title=" ">
<path fill="none" stroke="#63b8ff" d="M57.73,-54.75C52.41,-47.34 44.64,-36.5 38.12,-27.41"/>
<polygon fill="#63b8ff" stroke="#63b8ff" points="40.83,-25.18 32.16,-19.09 35.14,-29.26 40.83,-25.18"/>
</a>
</g>
</g>
<!-- Node10 -->
<g id="Node000010" class="node">
<title>Node10</title>
<g id="a_Node000010"><a xlink:title=" ">
<polygon fill="#e0e0e0" stroke="#999999" points="135.5,-19 70.5,-19 70.5,0 135.5,0 135.5,-19"/>
<text text-anchor="middle" x="103" y="-7" font-family="Helvetica,sans-Serif" font-size="10.00">exception</text>
</a>
</g>
</g>
<!-- Node8&#45;&gt;Node10 -->
<g id="edge11_Node000008_Node000010" class="edge">
<title>Node8&#45;&gt;Node10</title>
<g id="a_edge11_Node000008_Node000010"><a xlink:title=" ">
<path fill="none" stroke="#63b8ff" d="M70.44,-54.75C75.89,-47.34 83.86,-36.5 90.56,-27.41"/>
<polygon fill="#63b8ff" stroke="#63b8ff" points="93.57,-29.22 96.68,-19.09 87.93,-25.07 93.57,-29.22"/>
</a>
</g>
</g>
<!-- Node11 -->
<g id="Node000011" class="node">
<title>Node11</title>
<g id="a_Node000011"><a xlink:title=" ">
<polygon fill="#e0e0e0" stroke="#999999" points="520.5,-19 455.5,-19 455.5,0 520.5,0 520.5,-19"/>
<text text-anchor="middle" x="488" y="-7" font-family="Helvetica,sans-Serif" font-size="10.00">stdexcept</text>
</a>
</g>
</g>
<!-- Node8&#45;&gt;Node11 -->
<g id="edge12_Node000008_Node000011" class="edge">
<title>Node8&#45;&gt;Node11</title>
<g id="a_edge12_Node000008_Node000011"><a xlink:title=" ">
<path fill="none" stroke="#63b8ff" d="M117.7,-56.79C203,-46.12 367.76,-25.53 445.46,-15.82"/>
<polygon fill="#63b8ff" stroke="#63b8ff" points="445.9,-19.29 455.39,-14.58 445.03,-12.34 445.9,-19.29"/>
</a>
</g>
</g>
<!-- Node13&#45;&gt;Node2 -->
<g id="edge15_Node000013_Node000002" class="edge">
<title>Node13&#45;&gt;Node2</title>
<g id="a_edge15_Node000013_Node000002"><a xlink:title=" ">
<path fill="none" stroke="#63b8ff" d="M608.75,-181.05C609.6,-164.46 608.83,-128.92 589,-110 561.33,-83.59 452.09,-72.18 392.42,-67.83"/>
<polygon fill="#63b8ff" stroke="#63b8ff" points="392.46,-64.33 382.24,-67.12 391.97,-71.31 392.46,-64.33"/>
</a>
</g>
</g>
<!-- Node13&#45;&gt;Node3 -->
<g id="edge16_Node000013_Node000003" class="edge">
<title>Node13&#45;&gt;Node3</title>
<g id="a_edge16_Node000013_Node000003"><a xlink:title=" ">
<path fill="none" stroke="#63b8ff" d="M613.75,-181.3C620.18,-171.45 630.77,-154.82 639,-140 660.63,-101.06 683.05,-53.81 694.76,-28.53"/>
<polygon fill="#63b8ff" stroke="#63b8ff" points="698.08,-29.68 699.08,-19.13 691.73,-26.75 698.08,-29.68"/>
</a>
</g>
</g>
<!-- Node13&#45;&gt;Node5 -->
<g id="edge17_Node000013_Node000005" class="edge">
<title>Node13&#45;&gt;Node5</title>
<g id="a_edge17_Node000013_Node000005"><a xlink:title=" ">
<path fill="none" stroke="#63b8ff" d="M601.12,-181.37C593.33,-171.59 580.45,-155.42 570.61,-143.08"/>
<polygon fill="#63b8ff" stroke="#63b8ff" points="573.07,-140.54 564.1,-134.91 567.59,-144.91 573.07,-140.54"/>
</a>
</g>
</g>
<!-- Node13&#45;&gt;Node7 -->
<g id="edge18_Node000013_Node000007" class="edge">
<title>Node13&#45;&gt;Node7</title>
<g id="a_edge18_Node000013_Node000007"><a xlink:title=" ">
<path fill="none" stroke="#63b8ff" d="M580.49,-181.37C544.49,-170.08 481.29,-150.25 441.09,-137.64"/>
<polygon fill="#63b8ff" stroke="#63b8ff" points="441.99,-134.25 431.4,-134.6 439.9,-140.93 441.99,-134.25"/>
</a>
</g>
</g>
<!-- Node13&#45;&gt;Node12 -->
<g id="edge31_Node000013_Node000012" class="edge">
<title>Node13&#45;&gt;Node12</title>
<g id="a_edge31_Node000013_Node000012"><a xlink:title=" ">
<path fill="none" stroke="#63b8ff" d="M613.2,-181.44C621.95,-165.8 637.26,-132.19 622,-110 607.02,-88.21 579.78,-77.08 555.46,-71.4"/>
<polygon fill="#63b8ff" stroke="#63b8ff" points="556.12,-67.97 545.61,-69.35 554.69,-74.82 556.12,-67.97"/>
</a>
</g>
</g>
<!-- Node14 -->
<g id="Node000014" class="node">
<title>Node14</title>
<g id="a_Node000014"><a xlink:href="../../dd/d2d/exception_8h.html" target="_top" xlink:title=" ">
<polygon fill="white" stroke="#666666" points="831.5,-134.5 712.5,-134.5 712.5,-115.5 831.5,-115.5 831.5,-134.5"/>
<text text-anchor="middle" x="772" y="-122.5" font-family="Helvetica,sans-Serif" font-size="10.00">common/exception.h</text>
</a>
</g>
</g>
<!-- Node13&#45;&gt;Node14 -->
<g id="edge19_Node000013_Node000014" class="edge">
<title>Node13&#45;&gt;Node14</title>
<g id="a_edge19_Node000013_Node000014"><a xlink:title=" ">
<path fill="none" stroke="#63b8ff" d="M630.12,-181.37C658.56,-170.27 708.15,-150.92 740.52,-138.28"/>
<polygon fill="#63b8ff" stroke="#63b8ff" points="741.93,-141.49 749.97,-134.6 739.38,-134.97 741.93,-141.49"/>
</a>
</g>
</g>
<!-- Node14&#45;&gt;Node2 -->
<g id="edge24_Node000014_Node000002" class="edge">
<title>Node14&#45;&gt;Node2</title>
<g id="a_edge24_Node000014_Node000002"><a xlink:title=" ">
<path fill="none" stroke="#63b8ff" d="M712.41,-115.68C625.41,-103.53 465.98,-81.27 392.28,-70.98"/>
<polygon fill="#63b8ff" stroke="#63b8ff" points="392.43,-67.47 382.05,-69.56 391.47,-74.4 392.43,-67.47"/>
</a>
</g>
</g>
<!-- Node14&#45;&gt;Node3 -->
<g id="edge26_Node000014_Node000003" class="edge">
<title>Node14&#45;&gt;Node3</title>
<g id="a_edge26_Node000014_Node000003"><a xlink:title=" ">
<path fill="none" stroke="#63b8ff" d="M766.47,-115.17C760.24,-105.2 749.82,-88.48 741,-74 731.52,-58.44 720.88,-40.63 713.27,-27.84"/>
<polygon fill="#63b8ff" stroke="#63b8ff" points="716.23,-25.97 708.12,-19.15 710.22,-29.54 716.23,-25.97"/>
</a>
</g>
</g>
<!-- Node14&#45;&gt;Node11 -->
<g id="edge25_Node000014_Node000011" class="edge">
<title>Node14&#45;&gt;Node11</title>
<g id="a_edge25_Node000014_Node000011"><a xlink:title=" ">
<path fill="none" stroke="#63b8ff" d="M750.65,-115.47C700.9,-95.59 577.06,-46.09 518.99,-22.88"/>
<polygon fill="#63b8ff" stroke="#63b8ff" points="520.18,-19.59 509.59,-19.13 517.58,-26.09 520.18,-19.59"/>
</a>
</g>
</g>
<!-- Node15 -->
<g id="Node000015" class="node">
<title>Node15</title>
<g id="a_Node000015"><a xlink:title=" ">
<polygon fill="#e0e0e0" stroke="#999999" points="1262,-19 1212,-19 1212,0 1262,0 1262,-19"/>
<text text-anchor="middle" x="1237" y="-7" font-family="Helvetica,sans-Serif" font-size="10.00">atomic</text>
</a>
</g>
</g>
<!-- Node14&#45;&gt;Node15 -->
<g id="edge20_Node000014_Node000015" class="edge">
<title>Node14&#45;&gt;Node15</title>
<g id="a_edge20_Node000014_Node000015"><a xlink:title=" ">
<path fill="none" stroke="#63b8ff" d="M810.93,-115.45C820.72,-113.48 831.22,-111.52 841,-110 987.66,-87.22 1039.02,-137.85 1173,-74 1194.76,-63.63 1213.51,-42.75 1224.99,-27.76"/>
<polygon fill="#63b8ff" stroke="#63b8ff" points="1228.07,-29.47 1231.16,-19.34 1222.42,-25.34 1228.07,-29.47"/>
</a>
</g>
</g>
<!-- Node16 -->
<g id="Node000016" class="node">
<title>Node16</title>
<g id="a_Node000016"><a xlink:title=" ">
<polygon fill="#e0e0e0" stroke="#999999" points="796,-74 750,-74 750,-55 796,-55 796,-74"/>
<text text-anchor="middle" x="773" y="-62" font-family="Helvetica,sans-Serif" font-size="10.00">cstdio</text>
</a>
</g>
</g>
<!-- Node14&#45;&gt;Node16 -->
<g id="edge21_Node000014_Node000016" class="edge">
<title>Node14&#45;&gt;Node16</title>
<g id="a_edge21_Node000014_Node000016"><a xlink:title=" ">
<path fill="none" stroke="#63b8ff" d="M772.15,-115.37C772.29,-107.25 772.5,-94.81 772.68,-84.39"/>
<polygon fill="#63b8ff" stroke="#63b8ff" points="776.18,-84.23 772.85,-74.17 769.18,-84.11 776.18,-84.23"/>
</a>
</g>
</g>
<!-- Node17 -->
<g id="Node000017" class="node">
<title>Node17</title>
<g id="a_Node000017"><a xlink:title=" ">
<polygon fill="#e0e0e0" stroke="#999999" points="863.5,-74 814.5,-74 814.5,-55 863.5,-55 863.5,-74"/>
<text text-anchor="middle" x="839" y="-62" font-family="Helvetica,sans-Serif" font-size="10.00">cstdlib</text>
</a>
</g>
</g>
<!-- Node14&#45;&gt;Node17 -->
<g id="edge22_Node000014_Node000017" class="edge">
<title>Node14&#45;&gt;Node17</title>
<g id="a_edge22_Node000014_Node000017"><a xlink:title=" ">
<path fill="none" stroke="#63b8ff" d="M781.89,-115.37C792.28,-106.3 808.84,-91.84 821.45,-80.82"/>
<polygon fill="#63b8ff" stroke="#63b8ff" points="823.84,-83.38 829.07,-74.17 819.24,-78.11 823.84,-83.38"/>
</a>
</g>
</g>
<!-- Node18 -->
<g id="Node000018" class="node">
<title>Node18</title>
<g id="a_Node000018"><a xlink:title=" ">
<polygon fill="#e0e0e0" stroke="#999999" points="942,-74 882,-74 882,-55 942,-55 942,-74"/>
<text text-anchor="middle" x="912" y="-62" font-family="Helvetica,sans-Serif" font-size="10.00">iostream</text>
</a>
</g>
</g>
<!-- Node14&#45;&gt;Node18 -->
<g id="edge23_Node000014_Node000018" class="edge">
<title>Node14&#45;&gt;Node18</title>
<g id="a_edge23_Node000014_Node000018"><a xlink:title=" ">
<path fill="none" stroke="#63b8ff" d="M792.36,-115.49C816,-105.62 855.2,-89.23 882.25,-77.93"/>
<polygon fill="#63b8ff" stroke="#63b8ff" points="883.74,-81.1 891.62,-74.02 881.04,-74.64 883.74,-81.1"/>
</a>
</g>
</g>
<!-- Node19 -->
<g id="Node000019" class="node">
<title>Node19</title>
<g id="a_Node000019"><a xlink:href="../../df/def/type_8h.html" target="_top" xlink:title=" ">
<polygon fill="white" stroke="#666666" points="1164,-74 1092,-74 1092,-55 1164,-55 1164,-74"/>
<text text-anchor="middle" x="1128" y="-62" font-family="Helvetica,sans-Serif" font-size="10.00">type/type.h</text>
</a>
</g>
</g>
<!-- Node14&#45;&gt;Node19 -->
<g id="edge27_Node000014_Node000019" class="edge">
<title>Node14&#45;&gt;Node19</title>
<g id="a_edge27_Node000014_Node000019"><a xlink:title=" ">
<path fill="none" stroke="#63b8ff" d="M812.44,-115.47C821.8,-113.58 831.74,-111.66 841,-110 925.57,-94.87 1024.71,-80.17 1081.56,-72.03"/>
<polygon fill="#63b8ff" stroke="#63b8ff" points="1082.26,-75.46 1091.67,-70.58 1081.27,-68.53 1082.26,-75.46"/>
</a>
</g>
</g>
<!-- Node19&#45;&gt;Node3 -->
<g id="edge29_Node000019_Node000003" class="edge">
<title>Node19&#45;&gt;Node3</title>
<g id="a_edge29_Node000019_Node000003"><a xlink:title=" ">
<path fill="none" stroke="#63b8ff" d="M1091.98,-57.15C1087.29,-56.39 1082.53,-55.65 1078,-55 951.38,-36.74 799.91,-20.46 735.04,-13.75"/>
<polygon fill="#63b8ff" stroke="#63b8ff" points="735.34,-10.26 725.03,-12.72 734.62,-17.23 735.34,-10.26"/>
</a>
</g>
</g>
<!-- Node20 -->
<g id="Node000020" class="node">
<title>Node20</title>
<g id="a_Node000020"><a xlink:title=" ">
<polygon fill="#e0e0e0" stroke="#999999" points="1194,-19 1144,-19 1144,0 1194,0 1194,-19"/>
<text text-anchor="middle" x="1169" y="-7" font-family="Helvetica,sans-Serif" font-size="10.00">cstdint</text>
</a>
</g>
</g>
<!-- Node19&#45;&gt;Node20 -->
<g id="edge28_Node000019_Node000020" class="edge">
<title>Node19&#45;&gt;Node20</title>
<g id="a_edge28_Node000019_Node000020"><a xlink:title=" ">
<path fill="none" stroke="#63b8ff" d="M1134.77,-54.75C1140.56,-47.26 1149.06,-36.28 1156.14,-27.13"/>
<polygon fill="#63b8ff" stroke="#63b8ff" points="1159.01,-29.14 1162.36,-19.09 1153.47,-24.86 1159.01,-29.14"/>
</a>
</g>
</g>
<!-- Node21 -->
<g id="Node000021" class="node">
<title>Node21</title>
<g id="a_Node000021"><a xlink:href="../../dc/df2/type__id_8h.html" target="_top" xlink:title=" ">
<polygon fill="white" stroke="#666666" points="1126,-19 1040,-19 1040,0 1126,0 1126,-19"/>
<text text-anchor="middle" x="1083" y="-7" font-family="Helvetica,sans-Serif" font-size="10.00">type/type_id.h</text>
</a>
</g>
</g>
<!-- Node19&#45;&gt;Node21 -->
<g id="edge30_Node000019_Node000021" class="edge">
<title>Node19&#45;&gt;Node21</title>
<g id="a_edge30_Node000019_Node000021"><a xlink:title=" ">
<path fill="none" stroke="#63b8ff" d="M1120.57,-54.75C1114.15,-47.18 1104.69,-36.05 1096.88,-26.84"/>
<polygon fill="#63b8ff" stroke="#63b8ff" points="1099.43,-24.45 1090.29,-19.09 1094.1,-28.98 1099.43,-24.45"/>
</a>
</g>
</g>
<!-- Node22&#45;&gt;Node3 -->
<g id="edge33_Node000022_Node000003" class="edge">
<title>Node22&#45;&gt;Node3</title>
<g id="a_edge33_Node000022_Node000003"><a xlink:title=" ">
<path fill="none" stroke="#63b8ff" d="M920.86,-185.97C952.98,-180.13 987.92,-167.32 1008,-140 1015.9,-129.26 1013.21,-122.27 1008,-110 994.24,-77.6 982.35,-71.02 951,-55 880.06,-18.74 784.53,-11.55 735.31,-10.42"/>
<polygon fill="#63b8ff" stroke="#63b8ff" points="735.3,-6.92 725.25,-10.26 735.19,-13.92 735.3,-6.92"/>
</a>
</g>
</g>
<!-- Node22&#45;&gt;Node14 -->
<g id="edge40_Node000022_Node000014" class="edge">
<title>Node22&#45;&gt;Node14</title>
<g id="a_edge40_Node000022_Node000014"><a xlink:title=" ">
<path fill="none" stroke="#63b8ff" d="M837.75,-181.37C825.69,-171.21 805.44,-154.16 790.59,-141.65"/>
<polygon fill="#63b8ff" stroke="#63b8ff" points="792.48,-138.67 782.57,-134.91 787.97,-144.02 792.48,-138.67"/>
</a>
</g>
</g>
<!-- Node23 -->
<g id="Node000023" class="node">
<title>Node23</title>
<g id="a_Node000023"><a xlink:href="../../dc/dba/statement__type_8h.html" target="_top" xlink:title=" ">
<polygon fill="white" stroke="#666666" points="998.5,-140 849.5,-140 849.5,-110 998.5,-110 998.5,-140"/>
<text text-anchor="start" x="857.5" y="-128" font-family="Helvetica,sans-Serif" font-size="10.00">common/enums/statement</text>
<text text-anchor="middle" x="924" y="-117" font-family="Helvetica,sans-Serif" font-size="10.00">_type.h</text>
</a>
</g>
</g>
<!-- Node22&#45;&gt;Node23 -->
<g id="edge34_Node000022_Node000023" class="edge">
<title>Node22&#45;&gt;Node23</title>
<g id="a_edge34_Node000022_Node000023"><a xlink:title=" ">
<path fill="none" stroke="#63b8ff" d="M858.25,-181.37C868.75,-172.53 885.46,-158.45 899.41,-146.71"/>
<polygon fill="#63b8ff" stroke="#63b8ff" points="901.84,-149.23 907.24,-140.12 897.33,-143.88 901.84,-149.23"/>
</a>
</g>
</g>
<!-- Node23&#45;&gt;Node12 -->
<g id="edge39_Node000023_Node000012" class="edge">
<title>Node23&#45;&gt;Node12</title>
<g id="a_edge39_Node000023_Node000012"><a xlink:title=" ">
<path fill="none" stroke="#63b8ff" d="M849.36,-111.28C846.54,-110.84 843.75,-110.41 841,-110 739.81,-94.75 621,-79.62 555.55,-71.53"/>
<polygon fill="#63b8ff" stroke="#63b8ff" points="555.87,-68.04 545.52,-70.29 555.01,-74.99 555.87,-68.04"/>
</a>
</g>
</g>
<!-- Node24 -->
<g id="Node000024" class="node">
<title>Node24</title>
<g id="a_Node000024"><a xlink:href="../../db/d16/config_8h.html" target="_top" xlink:title=" ">
<polygon fill="white" stroke="#666666" points="1321.5,-74 1220.5,-74 1220.5,-55 1321.5,-55 1321.5,-74"/>
<text text-anchor="middle" x="1271" y="-62" font-family="Helvetica,sans-Serif" font-size="10.00">common/config.h</text>
</a>
</g>
</g>
<!-- Node23&#45;&gt;Node24 -->
<g id="edge35_Node000023_Node000024" class="edge">
<title>Node23&#45;&gt;Node24</title>
<g id="a_edge35_Node000023_Node000024"><a xlink:title=" ">
<path fill="none" stroke="#63b8ff" d="M998.87,-111.38C1062.15,-100.71 1151.65,-85.62 1210.48,-75.7"/>
<polygon fill="#63b8ff" stroke="#63b8ff" points="1211.09,-79.15 1220.37,-74.04 1209.93,-72.25 1211.09,-79.15"/>
</a>
</g>
</g>
<!-- Node24&#45;&gt;Node15 -->
<g id="edge36_Node000024_Node000015" class="edge">
<title>Node24&#45;&gt;Node15</title>
<g id="a_edge36_Node000024_Node000015"><a xlink:title=" ">
<path fill="none" stroke="#63b8ff" d="M1265.39,-54.75C1260.68,-47.42 1253.83,-36.73 1248.03,-27.7"/>
<polygon fill="#63b8ff" stroke="#63b8ff" points="1250.86,-25.62 1242.51,-19.09 1244.96,-29.4 1250.86,-25.62"/>
</a>
</g>
</g>
<!-- Node24&#45;&gt;Node20 -->
<g id="edge38_Node000024_Node000020" class="edge">
<title>Node24&#45;&gt;Node20</title>
<g id="a_edge38_Node000024_Node000020"><a xlink:title=" ">
<path fill="none" stroke="#63b8ff" d="M1254.61,-54.98C1238.43,-46.57 1213.43,-33.59 1194.62,-23.81"/>
<polygon fill="#63b8ff" stroke="#63b8ff" points="1196.17,-20.68 1185.69,-19.17 1192.95,-26.89 1196.17,-20.68"/>
</a>
</g>
</g>
<!-- Node25 -->
<g id="Node000025" class="node">
<title>Node25</title>
<g id="a_Node000025"><a xlink:title=" ">
<polygon fill="#e0e0e0" stroke="#999999" points="1330,-19 1280,-19 1280,0 1330,0 1330,-19"/>
<text text-anchor="middle" x="1305" y="-7" font-family="Helvetica,sans-Serif" font-size="10.00">chrono</text>
</a>
</g>
</g>
<!-- Node24&#45;&gt;Node25 -->
<g id="edge37_Node000024_Node000025" class="edge">
<title>Node24&#45;&gt;Node25</title>
<g id="a_edge37_Node000024_Node000025"><a xlink:title=" ">
<path fill="none" stroke="#63b8ff" d="M1276.61,-54.75C1281.32,-47.42 1288.17,-36.73 1293.97,-27.7"/>
<polygon fill="#63b8ff" stroke="#63b8ff" points="1297.04,-29.4 1299.49,-19.09 1291.14,-25.62 1297.04,-29.4"/>
</a>
</g>
</g>
<!-- Node26&#45;&gt;Node2 -->
<g id="edge42_Node000026_Node000002" class="edge">
<title>Node26&#45;&gt;Node2</title>
<g id="a_edge42_Node000026_Node000002"><a xlink:title=" ">
<path fill="none" stroke="#63b8ff" d="M251.1,-109.99C273.25,-100.31 302.48,-87.56 323.95,-78.18"/>
<polygon fill="#63b8ff" stroke="#63b8ff" points="325.45,-81.35 333.21,-74.14 322.65,-74.93 325.45,-81.35"/>
</a>
</g>
</g>
<!-- Node26&#45;&gt;Node3 -->
<g id="edge43_Node000026_Node000003" class="edge">
<title>Node26&#45;&gt;Node3</title>
<g id="a_edge43_Node000026_Node000003"><a xlink:title=" ">
<path fill="none" stroke="#63b8ff" d="M233.52,-109.84C251.17,-93.57 282.64,-67.5 315,-55 379.77,-29.98 589.24,-16.51 670.43,-12.13"/>
<polygon fill="#63b8ff" stroke="#63b8ff" points="670.76,-15.61 680.56,-11.59 670.39,-8.62 670.76,-15.61"/>
</a>
</g>
</g>
<!-- Node26&#45;&gt;Node8 -->
<g id="edge45_Node000026_Node000008" class="edge">
<title>Node26&#45;&gt;Node8</title>
<g id="a_edge45_Node000026_Node000008"><a xlink:title=" ">
<path fill="none" stroke="#63b8ff" d="M181.87,-109.99C155.78,-100.14 121.22,-87.1 96.27,-77.68"/>
<polygon fill="#63b8ff" stroke="#63b8ff" points="97.48,-74.4 86.89,-74.14 95.01,-80.94 97.48,-74.4"/>
</a>
</g>
</g>
<!-- Node26&#45;&gt;Node12 -->
<g id="edge44_Node000026_Node000012" class="edge">
<title>Node26&#45;&gt;Node12</title>
<g id="a_edge44_Node000026_Node000012"><a xlink:title=" ">
<path fill="none" stroke="#63b8ff" d="M274.34,-112.72C326.91,-102 405.26,-86.03 456,-75.69"/>
<polygon fill="#63b8ff" stroke="#63b8ff" points="456.98,-79.06 466.08,-73.64 455.58,-72.21 456.98,-79.06"/>
</a>
</g>
</g>
<!-- Node27&#45;&gt;Node2 -->
<g id="edge47_Node000027_Node000002" class="edge">
<title>Node27&#45;&gt;Node2</title>
<g id="a_edge47_Node000027_Node000002"><a xlink:title=" ">
<path fill="none" stroke="#63b8ff" d="M322.02,-175.74C318.17,-159.42 313.87,-132.12 321,-110 324.34,-99.62 331.1,-89.62 337.55,-81.74"/>
<polygon fill="#63b8ff" stroke="#63b8ff" points="340.29,-83.92 344.25,-74.1 335.03,-79.31 340.29,-83.92"/>
</a>
</g>
</g>
<!-- Node27&#45;&gt;Node3 -->
<g id="edge48_Node000027_Node000003" class="edge">
<title>Node27&#45;&gt;Node3</title>
<g id="a_edge48_Node000027_Node000003"><a xlink:title=" ">
<path fill="none" stroke="#63b8ff" d="M262.39,-183.64C202.55,-174.85 126.14,-154.67 155,-110 187.28,-60.04 219.58,-70.51 277,-55 351.44,-34.89 584.83,-18.16 670.79,-12.53"/>
<polygon fill="#63b8ff" stroke="#63b8ff" points="671.24,-16.01 680.99,-11.87 670.79,-9.02 671.24,-16.01"/>
</a>
</g>
</g>
<!-- Node27&#45;&gt;Node5 -->
<g id="edge49_Node000027_Node000005" class="edge">
<title>Node27&#45;&gt;Node5</title>
<g id="a_edge49_Node000027_Node000005"><a xlink:title=" ">
<path fill="none" stroke="#63b8ff" d="M387.65,-175.94C426.02,-166.73 476.24,-153.87 520,-140 521.91,-139.39 523.88,-138.74 525.85,-138.06"/>
<polygon fill="#63b8ff" stroke="#63b8ff" points="527.4,-141.23 535.62,-134.55 525.02,-134.64 527.4,-141.23"/>
</a>
</g>
</g>
<!-- Node27&#45;&gt;Node6 -->
<g id="edge50_Node000027_Node000006" class="edge">
<title>Node27&#45;&gt;Node6</title>
<g id="a_edge50_Node000027_Node000006"><a xlink:title=" ">
<path fill="none" stroke="#63b8ff" d="M262.09,-176.28C221.63,-167.12 168.38,-154.18 122,-140 119.87,-139.35 117.68,-138.64 115.49,-137.91"/>
<polygon fill="#63b8ff" stroke="#63b8ff" points="116.56,-134.57 105.96,-134.57 114.24,-141.18 116.56,-134.57"/>
</a>
</g>
</g>
<!-- Node27&#45;&gt;Node7 -->
<g id="edge51_Node000027_Node000007" class="edge">
<title>Node27&#45;&gt;Node7</title>
<g id="a_edge51_Node000027_Node000007"><a xlink:title=" ">
<path fill="none" stroke="#63b8ff" d="M343.31,-175.8C355.71,-165.62 372.4,-151.93 385.13,-141.48"/>
<polygon fill="#63b8ff" stroke="#63b8ff" points="387.71,-143.89 393.22,-134.84 383.27,-138.48 387.71,-143.89"/>
</a>
</g>
</g>
<!-- Node27&#45;&gt;Node12 -->
<g id="edge53_Node000027_Node000012" class="edge">
<title>Node27&#45;&gt;Node12</title>
<g id="a_edge53_Node000027_Node000012"><a xlink:title=" ">
<path fill="none" stroke="#63b8ff" d="M389.54,-184.96C422.83,-179.07 461.8,-166.53 487,-140 501.19,-125.06 505.18,-101.05 506.1,-84.34"/>
<polygon fill="#63b8ff" stroke="#63b8ff" points="509.61,-84.22 506.35,-74.14 502.61,-84.05 509.61,-84.22"/>
</a>
</g>
</g>
<!-- Node27&#45;&gt;Node26 -->
<g id="edge52_Node000027_Node000026" class="edge">
<title>Node27&#45;&gt;Node26</title>
<g id="a_edge52_Node000027_Node000026"><a xlink:title=" ">
<path fill="none" stroke="#63b8ff" d="M302.52,-175.95C287.47,-166.95 267.73,-155.14 251.22,-145.27"/>
<polygon fill="#63b8ff" stroke="#63b8ff" points="252.81,-142.14 242.43,-140.01 249.21,-148.15 252.81,-142.14"/>
</a>
</g>
</g>
</g>
</svg>

<g id="navigator" transform="translate(0 0)" fill="#404254">
  <rect fill="#f2f5e9" fill-opacity="0.5" stroke="#606060" stroke-width=".5" x="0" y="0" width="60" height="60"/>
  <use id="zoomplus" xlink:href="#zoomPlus" x="17" y="9" onmousedown="handleZoom(evt,'in')"/>
  <use id="zoomminus" xlink:href="#zoomMin" x="42" y="9" onmousedown="handleZoom(evt,'out')"/>
  <use id="reset" xlink:href="#resetDef" x="30" y="36" onmousedown="handleReset()"/>
   <use id="arrowup" xlink:href="#arrowUp" x="0" y="0" onmousedown="handlePan(0,-1)"/>
  <use id="arrowright" xlink:href="#arrowRight" x="0" y="0" onmousedown="handlePan(1,0)"/>
  <use id="arrowdown" xlink:href="#arrowDown" x="0" y="0" onmousedown="handlePan(0,1)"/>
  <use id="arrowleft" xlink:href="#arrowLeft" x="0" y="0" onmousedown="handlePan(-1,0)"/>
</g>
<svg viewBox="0 0 15 15" width="100%" height="30px" preserveAspectRatio="xMaxYMin meet">
 <g id="arrow_out" transform="scale(0.3 0.3)">
  <a xlink:href="select__statement_8h__incl_org.svg" target="_base">
   <rect id="button" ry="5" rx="5" y="6" x="6" height="38" width="38"
        fill="#f2f5e9" fill-opacity="0.5" stroke="#606060" stroke-width="1.0"/>
   <path id="arrow"
     d="M 11.500037,31.436501 C 11.940474,20.09759 22.043105,11.32322 32.158766,21.979434 L 37.068811,17.246167 C 37.068811,17.246167 37.088388,32 37.088388,32 L 22.160133,31.978069 C 22.160133,31.978069 26.997745,27.140456 26.997745,27.140456 C 18.528582,18.264221 13.291696,25.230495 11.500037,31.436501 z"
     style="fill:#404040;"/>
  </a>
 </g>
</svg>

<style type='text/css'>
<![CDATA[
[data-mouse-over-selected='false'] { opacity: 0.7; }
[data-mouse-over-selected='true']  { opacity: 1.0; }
]]>
</style>
<script type="application/ecmascript"><![CDATA[
document.addEventListener('DOMContentLoaded', (event) => {
  highlightEdges();
  highlightAdjacentNodes();
});
]]></script>
</svg>
