<?xml version="1.0" encoding="UTF-8" standalone="no"?>
<!DOCTYPE svg PUBLIC "-//W3C//DTD SVG 1.1//EN"
 "http://www.w3.org/Graphics/SVG/1.1/DTD/svg11.dtd">
<!-- Generated by graphviz version 2.43.0 (0)
 -->
<!-- Title: bustub::WritePageGuard Pages: 1 -->
<svg width="276pt" height="291pt"
 viewBox="0.00 0.00 275.50 291.00" xmlns="http://www.w3.org/2000/svg" xmlns:xlink="http://www.w3.org/1999/xlink">
<g id="graph0" class="graph" transform="scale(1 1) rotate(0) translate(4 287)">
<title>bustub::WritePageGuard</title>
<!-- Node1 -->
<g id="Node000001" class="node">
<title>Node1</title>
<g id="a_Node000001"><a xlink:title=" ">
<polygon fill="#999999" stroke="#666666" points="151,-19 17,-19 17,0 151,0 151,-19"/>
<text text-anchor="middle" x="84" y="-7" font-family="Helvetica,sans-Serif" font-size="10.00">bustub::WritePageGuard</text>
</a>
</g>
</g>
<!-- Node2 -->
<g id="Node000002" class="node">
<title>Node2</title>
<g id="a_Node000002"><a xlink:href="../../db/d3a/classbustub_1_1BasicPageGuard.html" target="_top" xlink:title=" ">
<polygon fill="white" stroke="#666666" points="151,-85 17,-85 17,-66 151,-66 151,-85"/>
<text text-anchor="middle" x="84" y="-73" font-family="Helvetica,sans-Serif" font-size="10.00">bustub::BasicPageGuard</text>
</a>
</g>
</g>
<!-- Node2&#45;&gt;Node1 -->
<g id="edge1_Node000001_Node000002" class="edge">
<title>Node2&#45;&gt;Node1</title>
<g id="a_edge1_Node000001_Node000002"><a xlink:title=" ">
<path fill="none" stroke="#9a32cd" stroke-dasharray="5,2" d="M84,-55.58C84,-43.63 84,-28.72 84,-19.41"/>
<polygon fill="#9a32cd" stroke="#9a32cd" points="80.5,-55.87 84,-65.87 87.5,-55.87 80.5,-55.87"/>
</a>
</g>
<text text-anchor="middle" x="102.5" y="-40" font-family="Helvetica,sans-Serif" font-size="10.00" fill="grey"> guard_</text>
</g>
<!-- Node3 -->
<g id="Node000003" class="node">
<title>Node3</title>
<g id="a_Node000003"><a xlink:href="../../d6/d5d/classbustub_1_1BufferPoolManager.html" target="_top" xlink:title=" ">
<polygon fill="white" stroke="#666666" points="267.5,-151 118.5,-151 118.5,-132 267.5,-132 267.5,-151"/>
<text text-anchor="middle" x="193" y="-139" font-family="Helvetica,sans-Serif" font-size="10.00">bustub::BufferPoolManager</text>
</a>
</g>
</g>
<!-- Node3&#45;&gt;Node2 -->
<g id="edge2_Node000002_Node000003" class="edge">
<title>Node3&#45;&gt;Node2</title>
<g id="a_edge2_Node000002_Node000003"><a xlink:title=" ">
<path fill="none" stroke="#9a32cd" stroke-dasharray="5,2" d="M169.48,-126.69C148.03,-114.09 116.99,-95.87 98.82,-85.2"/>
<polygon fill="#9a32cd" stroke="#9a32cd" points="167.9,-129.82 178.3,-131.87 171.45,-123.79 167.9,-129.82"/>
</a>
</g>
<text text-anchor="middle" x="160.5" y="-106" font-family="Helvetica,sans-Serif" font-size="10.00" fill="grey"> bpm_</text>
</g>
<!-- Node4 -->
<g id="Node000004" class="node">
<title>Node4</title>
<g id="a_Node000004"><a xlink:href="../../d4/d87/classbustub_1_1Page.html" target="_top" xlink:title=" ">
<polygon fill="white" stroke="#666666" points="112.5,-217 33.5,-217 33.5,-198 112.5,-198 112.5,-217"/>
<text text-anchor="middle" x="73" y="-205" font-family="Helvetica,sans-Serif" font-size="10.00">bustub::Page</text>
</a>
</g>
</g>
<!-- Node4&#45;&gt;Node2 -->
<g id="edge6_Node000002_Node000004" class="edge">
<title>Node4&#45;&gt;Node2</title>
<g id="a_edge6_Node000002_Node000004"><a xlink:title=" ">
<path fill="none" stroke="#9a32cd" stroke-dasharray="5,2" d="M73.64,-187.68C74.24,-172.6 75.3,-150.92 77,-132 78.49,-115.36 81.14,-96.03 82.72,-85.13"/>
<polygon fill="#9a32cd" stroke="#9a32cd" points="70.14,-187.65 73.27,-197.77 77.13,-187.9 70.14,-187.65"/>
</a>
</g>
<text text-anchor="middle" x="93.5" y="-139" font-family="Helvetica,sans-Serif" font-size="10.00" fill="grey"> page_</text>
</g>
<!-- Node4&#45;&gt;Node3 -->
<g id="edge3_Node000003_Node000004" class="edge">
<title>Node4&#45;&gt;Node3</title>
<g id="a_edge3_Node000003_Node000004"><a xlink:title=" ">
<path fill="none" stroke="#9a32cd" stroke-dasharray="5,2" d="M98.26,-193.03C121.9,-180.42 156.5,-161.97 176.69,-151.2"/>
<polygon fill="#9a32cd" stroke="#9a32cd" points="96.36,-190.07 89.18,-197.87 99.65,-196.25 96.36,-190.07"/>
</a>
</g>
<text text-anchor="middle" x="159" y="-172" font-family="Helvetica,sans-Serif" font-size="10.00" fill="grey"> pages_</text>
</g>
<!-- Node5 -->
<g id="Node000005" class="node">
<title>Node5</title>
<g id="a_Node000005"><a xlink:href="../../d8/dbd/classbustub_1_1ReaderWriterLatch.html" target="_top" xlink:title=" ">
<polygon fill="white" stroke="#666666" points="146,-283 0,-283 0,-264 146,-264 146,-283"/>
<text text-anchor="middle" x="73" y="-271" font-family="Helvetica,sans-Serif" font-size="10.00">bustub::ReaderWriterLatch</text>
</a>
</g>
</g>
<!-- Node5&#45;&gt;Node4 -->
<g id="edge4_Node000004_Node000005" class="edge">
<title>Node5&#45;&gt;Node4</title>
<g id="a_edge4_Node000004_Node000005"><a xlink:title=" ">
<path fill="none" stroke="#9a32cd" stroke-dasharray="5,2" d="M73,-253.58C73,-241.63 73,-226.72 73,-217.41"/>
<polygon fill="#9a32cd" stroke="#9a32cd" points="69.5,-253.87 73,-263.87 76.5,-253.87 69.5,-253.87"/>
</a>
</g>
<text text-anchor="middle" x="95.5" y="-238" font-family="Helvetica,sans-Serif" font-size="10.00" fill="grey"> rwlatch_</text>
</g>
<!-- Node6 -->
<g id="Node000006" class="node">
<title>Node6</title>
<g id="a_Node000006"><a xlink:href="../../d7/d4e/classbustub_1_1LogManager.html" target="_top" xlink:title=" ">
<polygon fill="white" stroke="#666666" points="251,-217 135,-217 135,-198 251,-198 251,-217"/>
<text text-anchor="middle" x="193" y="-205" font-family="Helvetica,sans-Serif" font-size="10.00">bustub::LogManager</text>
</a>
</g>
</g>
<!-- Node6&#45;&gt;Node3 -->
<g id="edge5_Node000003_Node000006" class="edge">
<title>Node6&#45;&gt;Node3</title>
<g id="a_edge5_Node000003_Node000006"><a xlink:title=" ">
<path fill="none" stroke="#9a32cd" stroke-dasharray="5,2" d="M193,-187.58C193,-175.63 193,-160.72 193,-151.41"/>
<polygon fill="#9a32cd" stroke="#9a32cd" points="189.5,-187.87 193,-197.87 196.5,-187.87 189.5,-187.87"/>
</a>
</g>
<text text-anchor="middle" x="229.5" y="-172" font-family="Helvetica,sans-Serif" font-size="10.00" fill="grey"> log_manager_</text>
</g>
</g>
</svg>
