<?xml version="1.0" encoding="UTF-8" standalone="no"?>
<!DOCTYPE svg PUBLIC "-//W3C//DTD SVG 1.1//EN"
 "http://www.w3.org/Graphics/SVG/1.1/DTD/svg11.dtd">
<!-- Generated by graphviz version 2.43.0 (0)
 -->
<!-- Title: bustub::SeqScanExecutor Pages: 1 -->
<svg width="2020pt" height="269pt"
 viewBox="0.00 0.00 2020.00 268.50" xmlns="http://www.w3.org/2000/svg" xmlns:xlink="http://www.w3.org/1999/xlink">
<g id="graph0" class="graph" transform="scale(1 1) rotate(0) translate(4 264.5)">
<title>bustub::SeqScanExecutor</title>
<!-- Node1 -->
<g id="Node000001" class="node">
<title>Node1</title>
<g id="a_Node000001"><a xlink:title=" ">
<polygon fill="#999999" stroke="#666666" points="2012,-57 1873,-57 1873,-38 2012,-38 2012,-57"/>
<text text-anchor="middle" x="1942.5" y="-45" font-family="Helvetica,sans-Serif" font-size="10.00">bustub::SeqScanExecutor</text>
</a>
</g>
</g>
<!-- Node2 -->
<g id="Node000002" class="node">
<title>Node2</title>
<g id="a_Node000002"><a xlink:href="../../d2/d28/classbustub_1_1AbstractExecutor.html" target="_top" xlink:title=" ">
<polygon fill="white" stroke="#666666" points="1804.5,-114 1666.5,-114 1666.5,-95 1804.5,-95 1804.5,-114"/>
<text text-anchor="middle" x="1735.5" y="-102" font-family="Helvetica,sans-Serif" font-size="10.00">bustub::AbstractExecutor</text>
</a>
</g>
</g>
<!-- Node2&#45;&gt;Node1 -->
<g id="edge1_Node000001_Node000002" class="edge">
<title>Node2&#45;&gt;Node1</title>
<g id="a_edge1_Node000001_Node000002"><a xlink:title=" ">
<path fill="none" stroke="#63b8ff" d="M1780.56,-92.25C1818.43,-81.72 1872.3,-66.74 1907.08,-57.07"/>
<polygon fill="#63b8ff" stroke="#63b8ff" points="1779.51,-88.91 1770.81,-94.96 1781.38,-95.65 1779.51,-88.91"/>
</a>
</g>
</g>
<!-- Node3 -->
<g id="Node000003" class="node">
<title>Node3</title>
<g id="a_Node000003"><a xlink:href="../../dd/d02/classbustub_1_1ExecutorContext.html" target="_top" xlink:title=" ">
<polygon fill="white" stroke="#666666" points="1572.5,-152 1436.5,-152 1436.5,-133 1572.5,-133 1572.5,-152"/>
<text text-anchor="middle" x="1504.5" y="-140" font-family="Helvetica,sans-Serif" font-size="10.00">bustub::ExecutorContext</text>
</a>
</g>
</g>
<!-- Node3&#45;&gt;Node2 -->
<g id="edge2_Node000002_Node000003" class="edge">
<title>Node3&#45;&gt;Node2</title>
<g id="a_edge2_Node000002_Node000003"><a xlink:title=" ">
<path fill="none" stroke="#9a32cd" stroke-dasharray="5,2" d="M1573.02,-131.3C1606.06,-125.81 1645.4,-119.28 1676.99,-114.04"/>
<polygon fill="#9a32cd" stroke="#9a32cd" points="1572.28,-127.87 1562.99,-132.96 1573.43,-134.78 1572.28,-127.87"/>
</a>
</g>
<text text-anchor="middle" x="1620" y="-129.5" font-family="Helvetica,sans-Serif" font-size="10.00" fill="grey"> exec_ctx_</text>
</g>
<!-- Node4 -->
<g id="Node000004" class="node">
<title>Node4</title>
<g id="a_Node000004"><a xlink:href="../../db/d88/classbustub_1_1Transaction.html" target="_top" xlink:title=" ">
<polygon fill="white" stroke="#666666" points="1328,-133 1217,-133 1217,-114 1328,-114 1328,-133"/>
<text text-anchor="middle" x="1272.5" y="-121" font-family="Helvetica,sans-Serif" font-size="10.00">bustub::Transaction</text>
</a>
</g>
</g>
<!-- Node4&#45;&gt;Node3 -->
<g id="edge3_Node000003_Node000004" class="edge">
<title>Node4&#45;&gt;Node3</title>
<g id="a_edge3_Node000003_Node000004"><a xlink:title=" ">
<path fill="none" stroke="#9a32cd" stroke-dasharray="5,2" d="M1338.14,-128.84C1368.75,-131.37 1405.29,-134.39 1436.23,-136.94"/>
<polygon fill="#9a32cd" stroke="#9a32cd" points="1338.26,-125.34 1328.01,-128 1337.68,-132.31 1338.26,-125.34"/>
</a>
</g>
<text text-anchor="middle" x="1383" y="-137.5" font-family="Helvetica,sans-Serif" font-size="10.00" fill="grey"> transaction_</text>
</g>
<!-- Node5 -->
<g id="Node000005" class="node">
<title>Node5</title>
<g id="a_Node000005"><a xlink:href="../../d7/ddd/classbustub_1_1Catalog.html" target="_top" xlink:title=" ">
<polygon fill="white" stroke="#666666" points="832.5,-157 739.5,-157 739.5,-138 832.5,-138 832.5,-157"/>
<text text-anchor="middle" x="786" y="-145" font-family="Helvetica,sans-Serif" font-size="10.00">bustub::Catalog</text>
</a>
</g>
</g>
<!-- Node5&#45;&gt;Node3 -->
<g id="edge4_Node000003_Node000005" class="edge">
<title>Node5&#45;&gt;Node3</title>
<g id="a_edge4_Node000003_Node000005"><a xlink:title=" ">
<path fill="none" stroke="#9a32cd" stroke-dasharray="5,2" d="M842.92,-147.16C921.37,-146.74 1068.56,-146.1 1194,-146.5 1263.78,-146.72 1281.22,-147.28 1351,-147.5 1379.44,-147.59 1386.57,-148.3 1415,-147.5 1421.92,-147.3 1429.15,-147.02 1436.35,-146.69"/>
<polygon fill="#9a32cd" stroke="#9a32cd" points="842.76,-143.66 832.78,-147.22 842.8,-150.66 842.76,-143.66"/>
</a>
</g>
<text text-anchor="middle" x="1157.5" y="-149.5" font-family="Helvetica,sans-Serif" font-size="10.00" fill="grey"> catalog_</text>
</g>
<!-- Node14 -->
<g id="Node000014" class="node">
<title>Node14</title>
<g id="a_Node000014"><a xlink:href="../../dc/ddc/classbustub_1_1TransactionManager.html" target="_top" xlink:title=" ">
<polygon fill="white" stroke="#666666" points="1103,-204 949,-204 949,-185 1103,-185 1103,-204"/>
<text text-anchor="middle" x="1026" y="-192" font-family="Helvetica,sans-Serif" font-size="10.00">bustub::TransactionManager</text>
</a>
</g>
</g>
<!-- Node5&#45;&gt;Node14 -->
<g id="edge16_Node000014_Node000005" class="edge">
<title>Node5&#45;&gt;Node14</title>
<g id="a_edge16_Node000014_Node000005"><a xlink:title=" ">
<path fill="none" stroke="#9a32cd" stroke-dasharray="5,2" d="M842.62,-158.48C883.27,-166.51 937.85,-177.29 976.69,-184.96"/>
<polygon fill="#9a32cd" stroke="#9a32cd" points="843.1,-155.01 832.61,-156.51 841.74,-161.88 843.1,-155.01"/>
</a>
</g>
<text text-anchor="middle" x="895" y="-177.5" font-family="Helvetica,sans-Serif" font-size="10.00" fill="grey"> catalog_</text>
</g>
<!-- Node6 -->
<g id="Node000006" class="node">
<title>Node6</title>
<g id="a_Node000006"><a xlink:href="../../df/d04/structbustub_1_1TableInfo.html" target="_top" xlink:title=" ">
<polygon fill="white" stroke="#666666" points="576.5,-78 476.5,-78 476.5,-59 576.5,-59 576.5,-78"/>
<text text-anchor="middle" x="526.5" y="-66" font-family="Helvetica,sans-Serif" font-size="10.00">bustub::TableInfo</text>
</a>
</g>
</g>
<!-- Node6&#45;&gt;Node1 -->
<g id="edge23_Node000001_Node000006" class="edge">
<title>Node6&#45;&gt;Node1</title>
<g id="a_edge23_Node000001_Node000006"><a xlink:title=" ">
<path fill="none" stroke="#9a32cd" stroke-dasharray="5,2" d="M586.84,-60.9C638.96,-54.89 716.88,-47.5 785,-47.5 785,-47.5 785,-47.5 1736.5,-47.5 1781.88,-47.5 1832.91,-47.5 1872.7,-47.5"/>
<polygon fill="#9a32cd" stroke="#9a32cd" points="586.29,-57.44 576.77,-62.09 587.11,-64.4 586.29,-57.44"/>
</a>
</g>
<text text-anchor="middle" x="1272.5" y="-50.5" font-family="Helvetica,sans-Serif" font-size="10.00" fill="grey"> table_info_</text>
</g>
<!-- Node6&#45;&gt;Node5 -->
<g id="edge5_Node000005_Node000006" class="edge">
<title>Node6&#45;&gt;Node5</title>
<g id="a_edge5_Node000005_Node000006"><a xlink:title=" ">
<path fill="none" stroke="#9a32cd" stroke-dasharray="5,2" d="M586.95,-70.99C624.26,-74.18 672.76,-81.38 713,-97.5 737.02,-107.12 760.89,-126.01 774.21,-137.62"/>
<polygon fill="#9a32cd" stroke="#9a32cd" points="586.98,-67.48 576.74,-70.19 586.44,-74.46 586.98,-67.48"/>
</a>
</g>
<text text-anchor="middle" x="666" y="-100.5" font-family="Helvetica,sans-Serif" font-size="10.00" fill="grey"> NULL_TABLE_INFO</text>
</g>
<!-- Node7 -->
<g id="Node000007" class="node">
<title>Node7</title>
<g id="a_Node000007"><a xlink:href="../../da/d36/classbustub_1_1Schema.html" target="_top" xlink:title=" ">
<polygon fill="white" stroke="#666666" points="332.5,-96 237.5,-96 237.5,-77 332.5,-77 332.5,-96"/>
<text text-anchor="middle" x="285" y="-84" font-family="Helvetica,sans-Serif" font-size="10.00">bustub::Schema</text>
</a>
</g>
</g>
<!-- Node7&#45;&gt;Node6 -->
<g id="edge6_Node000006_Node000007" class="edge">
<title>Node7&#45;&gt;Node6</title>
<g id="a_edge6_Node000006_Node000007"><a xlink:title=" ">
<path fill="none" stroke="#9a32cd" stroke-dasharray="5,2" d="M336.74,-75.08C344.82,-73.63 353.11,-72.35 361,-71.5 399.62,-67.32 443.63,-66.73 476.41,-67.1"/>
<polygon fill="#9a32cd" stroke="#9a32cd" points="335.84,-71.68 326.67,-76.99 337.14,-78.56 335.84,-71.68"/>
</a>
</g>
<text text-anchor="middle" x="397.5" y="-74.5" font-family="Helvetica,sans-Serif" font-size="10.00" fill="grey"> schema_</text>
</g>
<!-- Node8 -->
<g id="Node000008" class="node">
<title>Node8</title>
<g id="a_Node000008"><a xlink:href="../../d4/d5c/structbustub_1_1IndexInfo.html" target="_top" xlink:title=" ">
<polygon fill="white" stroke="#666666" points="577,-115 476,-115 476,-96 577,-96 577,-115"/>
<text text-anchor="middle" x="526.5" y="-103" font-family="Helvetica,sans-Serif" font-size="10.00">bustub::IndexInfo</text>
</a>
</g>
</g>
<!-- Node7&#45;&gt;Node8 -->
<g id="edge8_Node000008_Node000007" class="edge">
<title>Node7&#45;&gt;Node8</title>
<g id="a_edge8_Node000008_Node000007"><a xlink:title=" ">
<path fill="none" stroke="#9a32cd" stroke-dasharray="5,2" d="M342.74,-91C383.25,-94.22 437.21,-98.5 475.99,-101.57"/>
<polygon fill="#9a32cd" stroke="#9a32cd" points="342.99,-87.51 332.75,-90.21 342.44,-94.49 342.99,-87.51"/>
</a>
</g>
<text text-anchor="middle" x="397.5" y="-100.5" font-family="Helvetica,sans-Serif" font-size="10.00" fill="grey"> key_schema_</text>
</g>
<!-- Node8&#45;&gt;Node5 -->
<g id="edge7_Node000005_Node000008" class="edge">
<title>Node8&#45;&gt;Node5</title>
<g id="a_edge7_Node000005_Node000008"><a xlink:title=" ">
<path fill="none" stroke="#9a32cd" stroke-dasharray="5,2" d="M587.08,-109.64C623.65,-112.82 671.32,-118.13 713,-126.5 727.55,-129.42 743.42,-133.91 756.55,-137.98"/>
<polygon fill="#9a32cd" stroke="#9a32cd" points="587.33,-106.15 577.07,-108.79 586.74,-113.12 587.33,-106.15"/>
</a>
</g>
<text text-anchor="middle" x="666" y="-129.5" font-family="Helvetica,sans-Serif" font-size="10.00" fill="grey"> NULL_INDEX_INFO</text>
</g>
<!-- Node9 -->
<g id="Node000009" class="node">
<title>Node9</title>
<g id="a_Node000009"><a xlink:href="../../d6/d5d/classbustub_1_1BufferPoolManager.html" target="_top" xlink:title=" ">
<polygon fill="white" stroke="#666666" points="601,-214 452,-214 452,-195 601,-195 601,-214"/>
<text text-anchor="middle" x="526.5" y="-202" font-family="Helvetica,sans-Serif" font-size="10.00">bustub::BufferPoolManager</text>
</a>
</g>
</g>
<!-- Node9&#45;&gt;Node3 -->
<g id="edge18_Node000003_Node000009" class="edge">
<title>Node9&#45;&gt;Node3</title>
<g id="a_edge18_Node000003_Node000009"><a xlink:title=" ">
<path fill="none" stroke="#9a32cd" stroke-dasharray="5,2" d="M570.47,-216.7C621.27,-230.03 708.58,-249.5 785,-249.5 785,-249.5 785,-249.5 1273.5,-249.5 1365.1,-249.5 1459.69,-178.86 1491.94,-152.37"/>
<polygon fill="#9a32cd" stroke="#9a32cd" points="571.07,-213.24 560.51,-214.04 569.27,-220 571.07,-213.24"/>
</a>
</g>
<text text-anchor="middle" x="1026" y="-252.5" font-family="Helvetica,sans-Serif" font-size="10.00" fill="grey"> bpm_</text>
</g>
<!-- Node9&#45;&gt;Node5 -->
<g id="edge9_Node000005_Node000009" class="edge">
<title>Node9&#45;&gt;Node5</title>
<g id="a_edge9_Node000005_Node000009"><a xlink:title=" ">
<path fill="none" stroke="#9a32cd" stroke-dasharray="5,2" d="M585.28,-192.94C621.95,-185.45 670.35,-175.31 713,-165.5 724.43,-162.87 736.83,-159.84 748.07,-157.02"/>
<polygon fill="#9a32cd" stroke="#9a32cd" points="584.37,-189.55 575.27,-194.97 585.76,-196.41 584.37,-189.55"/>
</a>
</g>
<text text-anchor="middle" x="666" y="-187.5" font-family="Helvetica,sans-Serif" font-size="10.00" fill="grey"> bpm_</text>
</g>
<!-- Node10 -->
<g id="Node000010" class="node">
<title>Node10</title>
<g id="a_Node000010"><a xlink:href="../../d4/d87/classbustub_1_1Page.html" target="_top" xlink:title=" ">
<polygon fill="white" stroke="#666666" points="324.5,-228 245.5,-228 245.5,-209 324.5,-209 324.5,-228"/>
<text text-anchor="middle" x="285" y="-216" font-family="Helvetica,sans-Serif" font-size="10.00">bustub::Page</text>
</a>
</g>
</g>
<!-- Node10&#45;&gt;Node9 -->
<g id="edge10_Node000009_Node000010" class="edge">
<title>Node10&#45;&gt;Node9</title>
<g id="a_edge10_Node000009_Node000010"><a xlink:title=" ">
<path fill="none" stroke="#9a32cd" stroke-dasharray="5,2" d="M334.77,-215.65C368.33,-213.69 413.54,-211.04 451.52,-208.82"/>
<polygon fill="#9a32cd" stroke="#9a32cd" points="334.52,-212.16 324.75,-216.24 334.93,-219.15 334.52,-212.16"/>
</a>
</g>
<text text-anchor="middle" x="397.5" y="-216.5" font-family="Helvetica,sans-Serif" font-size="10.00" fill="grey"> pages_</text>
</g>
<!-- Node11 -->
<g id="Node000011" class="node">
<title>Node11</title>
<g id="a_Node000011"><a xlink:href="../../d8/dbd/classbustub_1_1ReaderWriterLatch.html" target="_top" xlink:title=" ">
<polygon fill="white" stroke="#666666" points="146,-228 0,-228 0,-209 146,-209 146,-228"/>
<text text-anchor="middle" x="73" y="-216" font-family="Helvetica,sans-Serif" font-size="10.00">bustub::ReaderWriterLatch</text>
</a>
</g>
</g>
<!-- Node11&#45;&gt;Node10 -->
<g id="edge11_Node000010_Node000011" class="edge">
<title>Node11&#45;&gt;Node10</title>
<g id="a_edge11_Node000010_Node000011"><a xlink:title=" ">
<path fill="none" stroke="#9a32cd" stroke-dasharray="5,2" d="M156.53,-218.5C187.12,-218.5 220.38,-218.5 245.25,-218.5"/>
<polygon fill="#9a32cd" stroke="#9a32cd" points="156.27,-215 146.27,-218.5 156.27,-222 156.27,-215"/>
</a>
</g>
<text text-anchor="middle" x="186.5" y="-221.5" font-family="Helvetica,sans-Serif" font-size="10.00" fill="grey"> rwlatch_</text>
</g>
<!-- Node12 -->
<g id="Node000012" class="node">
<title>Node12</title>
<g id="a_Node000012"><a xlink:href="../../d7/d4e/classbustub_1_1LogManager.html" target="_top" xlink:title=" ">
<polygon fill="white" stroke="#666666" points="343,-176 227,-176 227,-157 343,-157 343,-176"/>
<text text-anchor="middle" x="285" y="-164" font-family="Helvetica,sans-Serif" font-size="10.00">bustub::LogManager</text>
</a>
</g>
</g>
<!-- Node12&#45;&gt;Node5 -->
<g id="edge17_Node000005_Node000012" class="edge">
<title>Node12&#45;&gt;Node5</title>
<g id="a_edge17_Node000005_Node000012"><a xlink:title=" ">
<path fill="none" stroke="#9a32cd" stroke-dasharray="5,2" d="M353.24,-163.94C456.42,-160.01 651.12,-152.6 739.42,-149.24"/>
<polygon fill="#9a32cd" stroke="#9a32cd" points="353.1,-160.44 343.24,-164.32 353.37,-167.44 353.1,-160.44"/>
</a>
</g>
<text text-anchor="middle" x="526.5" y="-162.5" font-family="Helvetica,sans-Serif" font-size="10.00" fill="grey"> log_manager_</text>
</g>
<!-- Node12&#45;&gt;Node9 -->
<g id="edge12_Node000009_Node000012" class="edge">
<title>Node12&#45;&gt;Node9</title>
<g id="a_edge12_Node000009_Node000012"><a xlink:title=" ">
<path fill="none" stroke="#9a32cd" stroke-dasharray="5,2" d="M353.27,-177.17C388.55,-182.77 431.4,-189.57 465.53,-194.99"/>
<polygon fill="#9a32cd" stroke="#9a32cd" points="353.49,-173.66 343.06,-175.55 352.39,-180.58 353.49,-173.66"/>
</a>
</g>
<text text-anchor="middle" x="397.5" y="-191.5" font-family="Helvetica,sans-Serif" font-size="10.00" fill="grey"> log_manager_</text>
</g>
<!-- Node13 -->
<g id="Node000013" class="node">
<title>Node13</title>
<g id="a_Node000013"><a xlink:href="../../df/d43/classbustub_1_1LockManager.html" target="_top" xlink:title=" ">
<polygon fill="white" stroke="#666666" points="1333,-96 1212,-96 1212,-77 1333,-77 1333,-96"/>
<text text-anchor="middle" x="1272.5" y="-84" font-family="Helvetica,sans-Serif" font-size="10.00">bustub::LockManager</text>
</a>
</g>
</g>
<!-- Node13&#45;&gt;Node3 -->
<g id="edge20_Node000003_Node000013" class="edge">
<title>Node13&#45;&gt;Node3</title>
<g id="a_edge20_Node000003_Node000013"><a xlink:title=" ">
<path fill="none" stroke="#9a32cd" stroke-dasharray="5,2" d="M1339.31,-97.95C1363.27,-102.53 1390.48,-108.22 1415,-114.5 1435.61,-119.78 1458.49,-127.06 1475.83,-132.87"/>
<polygon fill="#9a32cd" stroke="#9a32cd" points="1339.74,-94.47 1329.26,-96.06 1338.44,-101.35 1339.74,-94.47"/>
</a>
</g>
<text text-anchor="middle" x="1383" y="-117.5" font-family="Helvetica,sans-Serif" font-size="10.00" fill="grey"> lock_mgr_</text>
</g>
<!-- Node13&#45;&gt;Node5 -->
<g id="edge13_Node000005_Node000013" class="edge">
<title>Node13&#45;&gt;Node5</title>
<g id="a_edge13_Node000005_Node000013"><a xlink:title=" ">
<path fill="none" stroke="#9a32cd" stroke-dasharray="5,2" d="M1201.88,-92.57C1119.67,-100.18 978.94,-114.53 859,-133.5 850.45,-134.85 841.36,-136.47 832.62,-138.13"/>
<polygon fill="#9a32cd" stroke="#9a32cd" points="1202.21,-96.06 1211.85,-91.66 1201.57,-89.09 1202.21,-96.06"/>
</a>
</g>
<text text-anchor="middle" x="1026" y="-122.5" font-family="Helvetica,sans-Serif" font-size="10.00" fill="grey"> lock_manager_</text>
</g>
<!-- Node14&#45;&gt;Node3 -->
<g id="edge19_Node000003_Node000014" class="edge">
<title>Node14&#45;&gt;Node3</title>
<g id="a_edge19_Node000003_Node000014"><a xlink:title=" ">
<path fill="none" stroke="#9a32cd" stroke-dasharray="5,2" d="M1113.53,-198.48C1192.89,-200.2 1313.2,-197.93 1415,-175.5 1439.02,-170.21 1465.28,-159.79 1482.9,-152.07"/>
<polygon fill="#9a32cd" stroke="#9a32cd" points="1113.18,-194.97 1103.1,-198.22 1113.01,-201.97 1113.18,-194.97"/>
</a>
</g>
<text text-anchor="middle" x="1272.5" y="-200.5" font-family="Helvetica,sans-Serif" font-size="10.00" fill="grey"> txn_mgr_</text>
</g>
<!-- Node14&#45;&gt;Node13 -->
<g id="edge14_Node000013_Node000014" class="edge">
<title>Node14&#45;&gt;Node13</title>
<g id="a_edge14_Node000013_Node000014"><a xlink:title=" ">
<path fill="none" stroke="#9a32cd" stroke-dasharray="5,2" d="M1096.78,-183.22C1139.12,-175.8 1186.42,-166.25 1194,-159.5 1212.89,-142.67 1194,-123.27 1212,-105.5 1215.94,-101.61 1220.66,-98.52 1225.71,-96.06"/>
<polygon fill="#9a32cd" stroke="#9a32cd" points="1095.98,-179.81 1086.72,-184.96 1097.17,-186.71 1095.98,-179.81"/>
</a>
</g>
<text text-anchor="middle" x="1157.5" y="-180.5" font-family="Helvetica,sans-Serif" font-size="10.00" fill="grey"> txn_manager_</text>
</g>
<!-- Node15 -->
<g id="Node000015" class="node">
<title>Node15</title>
<g id="a_Node000015"><a xlink:href="../../d8/d96/classbustub_1_1Watermark.html" target="_top" xlink:title="tracks all the read timestamps.">
<polygon fill="white" stroke="#666666" points="841,-221 731,-221 731,-202 841,-202 841,-221"/>
<text text-anchor="middle" x="786" y="-209" font-family="Helvetica,sans-Serif" font-size="10.00">bustub::Watermark</text>
</a>
</g>
</g>
<!-- Node15&#45;&gt;Node14 -->
<g id="edge15_Node000014_Node000015" class="edge">
<title>Node15&#45;&gt;Node14</title>
<g id="a_edge15_Node000014_Node000015"><a xlink:title=" ">
<path fill="none" stroke="#9a32cd" stroke-dasharray="5,2" d="M851.35,-206.9C881.36,-204.76 917.28,-202.19 948.65,-199.95"/>
<polygon fill="#9a32cd" stroke="#9a32cd" points="850.73,-203.44 841.01,-207.64 851.23,-210.42 850.73,-203.44"/>
</a>
</g>
<text text-anchor="middle" x="895" y="-208.5" font-family="Helvetica,sans-Serif" font-size="10.00" fill="grey"> running_txns_</text>
</g>
<!-- Node16 -->
<g id="Node000016" class="node">
<title>Node16</title>
<g id="a_Node000016"><a xlink:href="../../db/d74/classbustub_1_1SeqScanPlanNode.html" target="_top" xlink:title=" ">
<polygon fill="white" stroke="#666666" points="1807,-19 1664,-19 1664,0 1807,0 1807,-19"/>
<text text-anchor="middle" x="1735.5" y="-7" font-family="Helvetica,sans-Serif" font-size="10.00">bustub::SeqScanPlanNode</text>
</a>
</g>
</g>
<!-- Node16&#45;&gt;Node1 -->
<g id="edge21_Node000001_Node000016" class="edge">
<title>Node16&#45;&gt;Node1</title>
<g id="a_edge21_Node000001_Node000016"><a xlink:title=" ">
<path fill="none" stroke="#9a32cd" stroke-dasharray="5,2" d="M1817.37,-16.49C1830.02,-18.12 1842.9,-20.11 1855,-22.5 1874.63,-26.38 1896.25,-32.63 1912.97,-37.91"/>
<polygon fill="#9a32cd" stroke="#9a32cd" points="1817.65,-13 1807.3,-15.25 1816.8,-19.95 1817.65,-13"/>
</a>
</g>
<text text-anchor="middle" x="1840" y="-25.5" font-family="Helvetica,sans-Serif" font-size="10.00" fill="grey"> plan_</text>
</g>
<!-- Node17 -->
<g id="Node000017" class="node">
<title>Node17</title>
<g id="a_Node000017"><a xlink:href="../../d6/d8c/classbustub_1_1AbstractPlanNode.html" target="_top" xlink:title=" ">
<polygon fill="white" stroke="#666666" points="1576,-19 1433,-19 1433,0 1576,0 1576,-19"/>
<text text-anchor="middle" x="1504.5" y="-7" font-family="Helvetica,sans-Serif" font-size="10.00">bustub::AbstractPlanNode</text>
</a>
</g>
</g>
<!-- Node17&#45;&gt;Node16 -->
<g id="edge22_Node000016_Node000017" class="edge">
<title>Node17&#45;&gt;Node16</title>
<g id="a_edge22_Node000016_Node000017"><a xlink:title=" ">
<path fill="none" stroke="#63b8ff" d="M1586.36,-9.5C1611.61,-9.5 1639.26,-9.5 1663.76,-9.5"/>
<polygon fill="#63b8ff" stroke="#63b8ff" points="1586.08,-6 1576.08,-9.5 1586.08,-13 1586.08,-6"/>
</a>
</g>
</g>
</g>
</svg>
