<?xml version="1.0" encoding="UTF-8" standalone="no"?>
<!DOCTYPE svg PUBLIC "-//W3C//DTD SVG 1.1//EN"
 "http://www.w3.org/Graphics/SVG/1.1/DTD/svg11.dtd">
<!-- Generated by graphviz version 2.43.0 (0)
 -->
<!-- Title: bustub::ExecutionEngine Pages: 1 -->
<svg width="551pt" height="357pt"
 viewBox="0.00 0.00 551.00 357.00" xmlns="http://www.w3.org/2000/svg" xmlns:xlink="http://www.w3.org/1999/xlink">
<g id="graph0" class="graph" transform="scale(1 1) rotate(0) translate(4 353)">
<title>bustub::ExecutionEngine</title>
<!-- Node1 -->
<g id="Node000001" class="node">
<title>Node1</title>
<g id="a_Node000001"><a xlink:title=" ">
<polygon fill="#999999" stroke="#666666" points="226,-19 90,-19 90,0 226,0 226,-19"/>
<text text-anchor="middle" x="158" y="-7" font-family="Helvetica,sans-Serif" font-size="10.00">bustub::ExecutionEngine</text>
</a>
</g>
</g>
<!-- Node2 -->
<g id="Node000002" class="node">
<title>Node2</title>
<g id="a_Node000002"><a xlink:href="../../d6/d5d/classbustub_1_1BufferPoolManager.html" target="_top" xlink:title=" ">
<polygon fill="white" stroke="#666666" points="186.5,-217 37.5,-217 37.5,-198 186.5,-198 186.5,-217"/>
<text text-anchor="middle" x="112" y="-205" font-family="Helvetica,sans-Serif" font-size="10.00">bustub::BufferPoolManager</text>
</a>
</g>
</g>
<!-- Node2&#45;&gt;Node1 -->
<g id="edge1_Node000001_Node000002" class="edge">
<title>Node2&#45;&gt;Node1</title>
<g id="a_edge1_Node000001_Node000002"><a xlink:title=" ">
<path fill="none" stroke="#9a32cd" stroke-dasharray="5,2" d="M115.67,-188.1C122,-156.87 135.67,-91.55 150,-37 151.56,-31.05 153.56,-24.43 155.17,-19.29"/>
<polygon fill="#9a32cd" stroke="#9a32cd" points="112.22,-187.49 113.68,-197.98 119.08,-188.87 112.22,-187.49"/>
</a>
</g>
<text text-anchor="middle" x="149.5" y="-106" font-family="Helvetica,sans-Serif" font-size="10.00" fill="grey"> bpm_</text>
</g>
<!-- Node8 -->
<g id="Node000008" class="node">
<title>Node8</title>
<g id="a_Node000008"><a xlink:href="../../d7/ddd/classbustub_1_1Catalog.html" target="_top" xlink:title=" ">
<polygon fill="white" stroke="#666666" points="344.5,-151 251.5,-151 251.5,-132 344.5,-132 344.5,-151"/>
<text text-anchor="middle" x="298" y="-139" font-family="Helvetica,sans-Serif" font-size="10.00">bustub::Catalog</text>
</a>
</g>
</g>
<!-- Node2&#45;&gt;Node8 -->
<g id="edge12_Node000008_Node000002" class="edge">
<title>Node2&#45;&gt;Node8</title>
<g id="a_edge12_Node000008_Node000002"><a xlink:title=" ">
<path fill="none" stroke="#9a32cd" stroke-dasharray="5,2" d="M132.98,-192.17C145.33,-184.32 161.51,-175 177,-169 200.76,-159.8 228.45,-153.44 251.34,-149.26"/>
<polygon fill="#9a32cd" stroke="#9a32cd" points="130.82,-189.41 124.37,-197.81 134.65,-195.26 130.82,-189.41"/>
</a>
</g>
<text text-anchor="middle" x="192.5" y="-172" font-family="Helvetica,sans-Serif" font-size="10.00" fill="grey"> bpm_</text>
</g>
<!-- Node3 -->
<g id="Node000003" class="node">
<title>Node3</title>
<g id="a_Node000003"><a xlink:href="../../d4/d87/classbustub_1_1Page.html" target="_top" xlink:title=" ">
<polygon fill="white" stroke="#666666" points="112.5,-283 33.5,-283 33.5,-264 112.5,-264 112.5,-283"/>
<text text-anchor="middle" x="73" y="-271" font-family="Helvetica,sans-Serif" font-size="10.00">bustub::Page</text>
</a>
</g>
</g>
<!-- Node3&#45;&gt;Node2 -->
<g id="edge2_Node000002_Node000003" class="edge">
<title>Node3&#45;&gt;Node2</title>
<g id="a_edge2_Node000002_Node000003"><a xlink:title=" ">
<path fill="none" stroke="#9a32cd" stroke-dasharray="5,2" d="M70.21,-253.6C70.12,-247.36 70.99,-240.59 74,-235 78.12,-227.35 85.53,-221.44 92.71,-217.16"/>
<polygon fill="#9a32cd" stroke="#9a32cd" points="66.76,-254.25 71.13,-263.9 73.73,-253.63 66.76,-254.25"/>
</a>
</g>
<text text-anchor="middle" x="93" y="-238" font-family="Helvetica,sans-Serif" font-size="10.00" fill="grey"> pages_</text>
</g>
<!-- Node4 -->
<g id="Node000004" class="node">
<title>Node4</title>
<g id="a_Node000004"><a xlink:href="../../d8/dbd/classbustub_1_1ReaderWriterLatch.html" target="_top" xlink:title=" ">
<polygon fill="white" stroke="#666666" points="146,-349 0,-349 0,-330 146,-330 146,-349"/>
<text text-anchor="middle" x="73" y="-337" font-family="Helvetica,sans-Serif" font-size="10.00">bustub::ReaderWriterLatch</text>
</a>
</g>
</g>
<!-- Node4&#45;&gt;Node3 -->
<g id="edge3_Node000003_Node000004" class="edge">
<title>Node4&#45;&gt;Node3</title>
<g id="a_edge3_Node000003_Node000004"><a xlink:title=" ">
<path fill="none" stroke="#9a32cd" stroke-dasharray="5,2" d="M73,-319.58C73,-307.63 73,-292.72 73,-283.41"/>
<polygon fill="#9a32cd" stroke="#9a32cd" points="69.5,-319.87 73,-329.87 76.5,-319.87 69.5,-319.87"/>
</a>
</g>
<text text-anchor="middle" x="95.5" y="-304" font-family="Helvetica,sans-Serif" font-size="10.00" fill="grey"> rwlatch_</text>
</g>
<!-- Node5 -->
<g id="Node000005" class="node">
<title>Node5</title>
<g id="a_Node000005"><a xlink:href="../../d7/d4e/classbustub_1_1LogManager.html" target="_top" xlink:title=" ">
<polygon fill="white" stroke="#666666" points="263,-283 147,-283 147,-264 263,-264 263,-283"/>
<text text-anchor="middle" x="205" y="-271" font-family="Helvetica,sans-Serif" font-size="10.00">bustub::LogManager</text>
</a>
</g>
</g>
<!-- Node5&#45;&gt;Node2 -->
<g id="edge4_Node000002_Node000005" class="edge">
<title>Node5&#45;&gt;Node2</title>
<g id="a_edge4_Node000002_Node000005"><a xlink:title=" ">
<path fill="none" stroke="#9a32cd" stroke-dasharray="5,2" d="M159.66,-260.35C150.89,-256.67 142.21,-251.96 135,-246 125.59,-238.21 118.95,-225.51 115.31,-217.08"/>
<polygon fill="#9a32cd" stroke="#9a32cd" points="158.54,-263.67 169.13,-263.95 161.03,-257.13 158.54,-263.67"/>
</a>
</g>
<text text-anchor="middle" x="171.5" y="-238" font-family="Helvetica,sans-Serif" font-size="10.00" fill="grey"> log_manager_</text>
</g>
<!-- Node5&#45;&gt;Node8 -->
<g id="edge15_Node000008_Node000005" class="edge">
<title>Node5&#45;&gt;Node8</title>
<g id="a_edge15_Node000008_Node000005"><a xlink:title=" ">
<path fill="none" stroke="#9a32cd" stroke-dasharray="5,2" d="M208.55,-253.84C212.24,-237.94 219.17,-215.02 231,-198 245.05,-177.78 268.37,-160.81 283.46,-151.15"/>
<polygon fill="#9a32cd" stroke="#9a32cd" points="205.05,-253.49 206.42,-264 211.9,-254.93 205.05,-253.49"/>
</a>
</g>
<text text-anchor="middle" x="267.5" y="-205" font-family="Helvetica,sans-Serif" font-size="10.00" fill="grey"> log_manager_</text>
</g>
<!-- Node6 -->
<g id="Node000006" class="node">
<title>Node6</title>
<g id="a_Node000006"><a xlink:href="../../dc/ddc/classbustub_1_1TransactionManager.html" target="_top" xlink:title=" ">
<polygon fill="white" stroke="#666666" points="375,-85 221,-85 221,-66 375,-66 375,-85"/>
<text text-anchor="middle" x="298" y="-73" font-family="Helvetica,sans-Serif" font-size="10.00">bustub::TransactionManager</text>
</a>
</g>
</g>
<!-- Node6&#45;&gt;Node1 -->
<g id="edge5_Node000001_Node000006" class="edge">
<title>Node6&#45;&gt;Node1</title>
<g id="a_edge5_Node000001_Node000006"><a xlink:title=" ">
<path fill="none" stroke="#9a32cd" stroke-dasharray="5,2" d="M269.99,-61.69C242.4,-49.08 201,-30.16 177.03,-19.2"/>
<polygon fill="#9a32cd" stroke="#9a32cd" points="268.57,-64.89 279.12,-65.87 271.48,-58.53 268.57,-64.89"/>
</a>
</g>
<text text-anchor="middle" x="260.5" y="-40" font-family="Helvetica,sans-Serif" font-size="10.00" fill="grey"> txn_mgr_</text>
</g>
<!-- Node12 -->
<g id="Node000012" class="node">
<title>Node12</title>
<g id="a_Node000012"><a xlink:href="../../df/d43/classbustub_1_1LockManager.html" target="_top" xlink:title=" ">
<polygon fill="white" stroke="#666666" points="415.5,-19 294.5,-19 294.5,0 415.5,0 415.5,-19"/>
<text text-anchor="middle" x="355" y="-7" font-family="Helvetica,sans-Serif" font-size="10.00">bustub::LockManager</text>
</a>
</g>
</g>
<!-- Node6&#45;&gt;Node12 -->
<g id="edge14_Node000012_Node000006" class="edge">
<title>Node6&#45;&gt;Node12</title>
<g id="a_edge14_Node000012_Node000006"><a xlink:title=" ">
<path fill="none" stroke="#9a32cd" stroke-dasharray="5,2" d="M308.84,-56.9C313.2,-50.37 318.5,-43.08 324,-37 329.89,-30.49 337.34,-24.07 343.47,-19.18"/>
<polygon fill="#9a32cd" stroke="#9a32cd" points="305.65,-55.39 303.2,-65.7 311.54,-59.17 305.65,-55.39"/>
</a>
</g>
<text text-anchor="middle" x="360.5" y="-40" font-family="Helvetica,sans-Serif" font-size="10.00" fill="grey"> txn_manager_</text>
</g>
<!-- Node7 -->
<g id="Node000007" class="node">
<title>Node7</title>
<g id="a_Node000007"><a xlink:href="../../d8/d96/classbustub_1_1Watermark.html" target="_top" xlink:title="tracks all the read timestamps.">
<polygon fill="white" stroke="#666666" points="499,-151 389,-151 389,-132 499,-132 499,-151"/>
<text text-anchor="middle" x="444" y="-139" font-family="Helvetica,sans-Serif" font-size="10.00">bustub::Watermark</text>
</a>
</g>
</g>
<!-- Node7&#45;&gt;Node6 -->
<g id="edge6_Node000006_Node000007" class="edge">
<title>Node7&#45;&gt;Node6</title>
<g id="a_edge6_Node000006_Node000007"><a xlink:title=" ">
<path fill="none" stroke="#9a32cd" stroke-dasharray="5,2" d="M414.79,-127.69C386.01,-115.08 342.85,-96.16 317.84,-85.2"/>
<polygon fill="#9a32cd" stroke="#9a32cd" points="413.75,-131.06 424.31,-131.87 416.56,-124.65 413.75,-131.06"/>
</a>
</g>
<text text-anchor="middle" x="415" y="-106" font-family="Helvetica,sans-Serif" font-size="10.00" fill="grey"> running_txns_</text>
</g>
<!-- Node8&#45;&gt;Node1 -->
<g id="edge16_Node000001_Node000008" class="edge">
<title>Node8&#45;&gt;Node1</title>
<g id="a_edge16_Node000001_Node000008"><a xlink:title=" ">
<path fill="none" stroke="#9a32cd" stroke-dasharray="5,2" d="M241.61,-130.25C214.84,-122.41 184.86,-108.73 167,-85 152.27,-65.43 154.32,-34.43 156.45,-19.33"/>
<polygon fill="#9a32cd" stroke="#9a32cd" points="240.74,-133.64 251.31,-132.88 242.57,-126.88 240.74,-133.64"/>
</a>
</g>
<text text-anchor="middle" x="189.5" y="-73" font-family="Helvetica,sans-Serif" font-size="10.00" fill="grey"> catalog_</text>
</g>
<!-- Node8&#45;&gt;Node6 -->
<g id="edge7_Node000006_Node000008" class="edge">
<title>Node8&#45;&gt;Node6</title>
<g id="a_edge7_Node000006_Node000008"><a xlink:title=" ">
<path fill="none" stroke="#9a32cd" stroke-dasharray="5,2" d="M298,-121.58C298,-109.63 298,-94.72 298,-85.41"/>
<polygon fill="#9a32cd" stroke="#9a32cd" points="294.5,-121.87 298,-131.87 301.5,-121.87 294.5,-121.87"/>
</a>
</g>
<text text-anchor="middle" x="320.5" y="-106" font-family="Helvetica,sans-Serif" font-size="10.00" fill="grey"> catalog_</text>
</g>
<!-- Node9 -->
<g id="Node000009" class="node">
<title>Node9</title>
<g id="a_Node000009"><a xlink:href="../../df/d04/structbustub_1_1TableInfo.html" target="_top" xlink:title=" ">
<polygon fill="white" stroke="#666666" points="413,-217 313,-217 313,-198 413,-198 413,-217"/>
<text text-anchor="middle" x="363" y="-205" font-family="Helvetica,sans-Serif" font-size="10.00">bustub::TableInfo</text>
</a>
</g>
</g>
<!-- Node9&#45;&gt;Node8 -->
<g id="edge8_Node000008_Node000009" class="edge">
<title>Node9&#45;&gt;Node8</title>
<g id="a_edge8_Node000008_Node000009"><a xlink:title=" ">
<path fill="none" stroke="#9a32cd" stroke-dasharray="5,2" d="M347.08,-190.83C334.5,-178.44 317.38,-161.59 307.04,-151.41"/>
<polygon fill="#9a32cd" stroke="#9a32cd" points="344.65,-193.35 354.23,-197.87 349.56,-188.36 344.65,-193.35"/>
</a>
</g>
<text text-anchor="middle" x="381" y="-172" font-family="Helvetica,sans-Serif" font-size="10.00" fill="grey"> NULL_TABLE_INFO</text>
</g>
<!-- Node10 -->
<g id="Node000010" class="node">
<title>Node10</title>
<g id="a_Node000010"><a xlink:href="../../da/d36/classbustub_1_1Schema.html" target="_top" xlink:title=" ">
<polygon fill="white" stroke="#666666" points="457.5,-283 362.5,-283 362.5,-264 457.5,-264 457.5,-283"/>
<text text-anchor="middle" x="410" y="-271" font-family="Helvetica,sans-Serif" font-size="10.00">bustub::Schema</text>
</a>
</g>
</g>
<!-- Node10&#45;&gt;Node9 -->
<g id="edge9_Node000009_Node000010" class="edge">
<title>Node10&#45;&gt;Node9</title>
<g id="a_edge9_Node000009_Node000010"><a xlink:title=" ">
<path fill="none" stroke="#9a32cd" stroke-dasharray="5,2" d="M397.71,-255.77C388.7,-243.49 376.8,-227.3 369.54,-217.41"/>
<polygon fill="#9a32cd" stroke="#9a32cd" points="394.92,-257.88 403.66,-263.87 400.56,-253.74 394.92,-257.88"/>
</a>
</g>
<text text-anchor="middle" x="412.5" y="-238" font-family="Helvetica,sans-Serif" font-size="10.00" fill="grey"> schema_</text>
</g>
<!-- Node11 -->
<g id="Node000011" class="node">
<title>Node11</title>
<g id="a_Node000011"><a xlink:href="../../d4/d5c/structbustub_1_1IndexInfo.html" target="_top" xlink:title=" ">
<polygon fill="white" stroke="#666666" points="532.5,-217 431.5,-217 431.5,-198 532.5,-198 532.5,-217"/>
<text text-anchor="middle" x="482" y="-205" font-family="Helvetica,sans-Serif" font-size="10.00">bustub::IndexInfo</text>
</a>
</g>
</g>
<!-- Node10&#45;&gt;Node11 -->
<g id="edge11_Node000011_Node000010" class="edge">
<title>Node10&#45;&gt;Node11</title>
<g id="a_edge11_Node000011_Node000010"><a xlink:title=" ">
<path fill="none" stroke="#9a32cd" stroke-dasharray="5,2" d="M427.27,-257.27C431.44,-253.59 435.88,-249.66 440,-246 451.11,-236.13 463.83,-224.76 472.34,-217.15"/>
<polygon fill="#9a32cd" stroke="#9a32cd" points="424.92,-254.68 419.74,-263.92 429.55,-259.93 424.92,-254.68"/>
</a>
</g>
<text text-anchor="middle" x="486" y="-238" font-family="Helvetica,sans-Serif" font-size="10.00" fill="grey"> key_schema_</text>
</g>
<!-- Node11&#45;&gt;Node8 -->
<g id="edge10_Node000008_Node000011" class="edge">
<title>Node11&#45;&gt;Node8</title>
<g id="a_edge10_Node000008_Node000011"><a xlink:title=" ">
<path fill="none" stroke="#9a32cd" stroke-dasharray="5,2" d="M465.64,-191.25C456.41,-183.45 444.29,-174.48 432,-169 404.38,-156.69 371.04,-150.07 344.52,-146.52"/>
<polygon fill="#9a32cd" stroke="#9a32cd" points="463.41,-193.95 473.22,-197.94 468.04,-188.7 463.41,-193.95"/>
</a>
</g>
<text text-anchor="middle" x="496" y="-172" font-family="Helvetica,sans-Serif" font-size="10.00" fill="grey"> NULL_INDEX_INFO</text>
</g>
<!-- Node12&#45;&gt;Node8 -->
<g id="edge13_Node000008_Node000012" class="edge">
<title>Node12&#45;&gt;Node8</title>
<g id="a_edge13_Node000008_Node000012"><a xlink:title=" ">
<path fill="none" stroke="#9a32cd" stroke-dasharray="5,2" d="M385.73,-24.55C390.25,-27.97 394.29,-32.09 397,-37 407.67,-56.35 396.88,-67.04 384,-85 367.95,-107.39 339.81,-123.01 320.1,-131.85"/>
<polygon fill="#9a32cd" stroke="#9a32cd" points="387.57,-21.57 377.26,-19.13 383.8,-27.46 387.57,-21.57"/>
</a>
</g>
<text text-anchor="middle" x="435" y="-73" font-family="Helvetica,sans-Serif" font-size="10.00" fill="grey"> lock_manager_</text>
</g>
</g>
</svg>
