<?xml version="1.0" encoding="UTF-8" standalone="no"?>
<!DOCTYPE svg PUBLIC "-//W3C//DTD SVG 1.1//EN"
 "http://www.w3.org/Graphics/SVG/1.1/DTD/svg11.dtd">
<!-- Generated by graphviz version 2.43.0 (0)
 -->
<!-- Title: bustub::AbstractExecutor Pages: 1 -->
<!--zoomable 730 -->

<svg id="main" version="1.1" xmlns="http://www.w3.org/2000/svg" xmlns:xlink="http://www.w3.org/1999/xlink" xml:space="preserve" onload="init(evt)">
<style type="text/css"><![CDATA[
.node, .edge {opacity: 0.7;}
.node.selected, .edge.selected {opacity: 1;}
.edge:hover path { stroke: red; }
.edge:hover polygon { stroke: red; fill: red; }
]]></style>

<defs>
  <circle id="rim" cx="0" cy="0" r="7"/>
  <circle id="rim2" cx="0" cy="0" r="3.5"/>
  <g id="zoomPlus">
    <use xlink:href="#rim" fill="#404040"><set attributeName="fill" to="#808080" begin="zoomplus.mouseover" end="zoomplus.mouseout"/></use>
    <path d="M-4,0h8M0,-4v8" fill="none" stroke="white" stroke-width="1.5" pointer-events="none"/>
  </g>
  <g id="zoomMin">
    <use xlink:href="#rim" fill="#404040"><set attributeName="fill" to="#808080" begin="zoomminus.mouseover" end="zoomminus.mouseout"/></use>
    <path d="M-4,0h8" fill="none" stroke="white" stroke-width="1.5" pointer-events="none"/>
  </g>
  <g id="arrowUp" transform="translate(30 24)">
    <use xlink:href="#rim"/>
    <path pointer-events="none" fill="none" stroke="white" stroke-width="1.5" d="M0,-3.0v7 M-2.5,-0.5L0,-3.0L2.5,-0.5"/>
  </g>
  <g id="arrowRight" transform="rotate(90) translate(36 -43)">
    <use xlink:href="#rim"/>
    <path pointer-events="none" fill="none" stroke="white" stroke-width="1.5" d="M0,-3.0v7 M-2.5,-0.5L0,-3.0L2.5,-0.5"/>
  </g>
  <g id="arrowDown" transform="rotate(180) translate(-30 -48)">
    <use xlink:href="#rim"/>
    <path pointer-events="none" fill="none" stroke="white" stroke-width="1.5" d="M0,-3.0v7 M-2.5,-0.5L0,-3.0L2.5,-0.5"/>
  </g>
  <g id="arrowLeft" transform="rotate(270) translate(-36 17)">
    <use xlink:href="#rim"/>
    <path pointer-events="none" fill="none" stroke="white" stroke-width="1.5" d="M0,-3.0v7 M-2.5,-0.5L0,-3.0L2.5,-0.5"/>
  </g>
  <g id="resetDef">
    <use xlink:href="#rim2" fill="#404040"><set attributeName="fill" to="#808080" begin="reset.mouseover" end="reset.mouseout"/></use>
  </g>
</defs>
<script type="application/ecmascript">
var viewWidth = 360;
var viewHeight = 730;
var sectionId = 'dynsection-0';
</script>
<script type="application/ecmascript" xlink:href="../../svg.min.js"/>
<svg id="graph" class="graph">
<g id="viewport">
<title>bustub::AbstractExecutor</title>
<!-- Node1 -->
<g id="Node000001" class="node">
<title>Node1</title>
<g id="a_Node000001"><a xlink:title=" ">
<polygon fill="#999999" stroke="#666666" points="138,-370 0,-370 0,-351 138,-351 138,-370"/>
<text text-anchor="middle" x="69" y="-358" font-family="Helvetica,sans-Serif" font-size="10.00">bustub::AbstractExecutor</text>
</a>
</g>
</g>
<!-- Node2 -->
<g id="Node000002" class="node">
<title>Node2</title>
<g id="a_Node000002"><a xlink:href="../../d5/d93/classbustub_1_1AggregationExecutor.html" target="_top" xlink:title=" ">
<polygon fill="white" stroke="#666666" points="341.5,-722 184.5,-722 184.5,-703 341.5,-703 341.5,-722"/>
<text text-anchor="middle" x="263" y="-710" font-family="Helvetica,sans-Serif" font-size="10.00">bustub::AggregationExecutor</text>
</a>
</g>
</g>
<!-- Node1&#45;&gt;Node2 -->
<g id="edge1_Node000001_Node000002" class="edge">
<title>Node1&#45;&gt;Node2</title>
<g id="a_edge1_Node000001_Node000002"><a xlink:title=" ">
<path fill="none" stroke="#63b8ff" d="M69.7,-380.3C69.99,-438.24 79.21,-608.75 174,-694.5 177.7,-697.85 181.85,-700.64 186.28,-702.96"/>
<polygon fill="#63b8ff" stroke="#63b8ff" points="73.2,-380.29 69.74,-370.27 66.2,-380.26 73.2,-380.29"/>
</a>
</g>
</g>
<!-- Node3 -->
<g id="Node000003" class="node">
<title>Node3</title>
<g id="a_Node000003"><a xlink:href="../../d8/d40/classbustub_1_1DeleteExecutor.html" target="_top" xlink:title=" ">
<polygon fill="white" stroke="#666666" points="328,-685 198,-685 198,-666 328,-666 328,-685"/>
<text text-anchor="middle" x="263" y="-673" font-family="Helvetica,sans-Serif" font-size="10.00">bustub::DeleteExecutor</text>
</a>
</g>
</g>
<!-- Node1&#45;&gt;Node3 -->
<g id="edge2_Node000001_Node000003" class="edge">
<title>Node1&#45;&gt;Node3</title>
<g id="a_edge2_Node000001_Node000003"><a xlink:title=" ">
<path fill="none" stroke="#63b8ff" d="M70.58,-380.21C73.28,-433.75 88.51,-582.84 174,-657.5 180.81,-663.45 189.06,-667.63 197.73,-670.53"/>
<polygon fill="#63b8ff" stroke="#63b8ff" points="74.07,-379.89 70.16,-370.04 67.08,-380.17 74.07,-379.89"/>
</a>
</g>
</g>
<!-- Node4 -->
<g id="Node000004" class="node">
<title>Node4</title>
<g id="a_Node000004"><a xlink:href="../../d0/d4f/classbustub_1_1FilterExecutor.html" target="_top" xlink:title=" ">
<polygon fill="white" stroke="#666666" points="324,-648 202,-648 202,-629 324,-629 324,-648"/>
<text text-anchor="middle" x="263" y="-636" font-family="Helvetica,sans-Serif" font-size="10.00">bustub::FilterExecutor</text>
</a>
</g>
</g>
<!-- Node1&#45;&gt;Node4 -->
<g id="edge3_Node000001_Node000004" class="edge">
<title>Node1&#45;&gt;Node4</title>
<g id="a_edge3_Node000001_Node000004"><a xlink:title=" ">
<path fill="none" stroke="#63b8ff" d="M71.7,-380.36C77.01,-429.4 97.84,-556.87 174,-620.5 181.9,-627.1 191.57,-631.49 201.58,-634.38"/>
<polygon fill="#63b8ff" stroke="#63b8ff" points="75.16,-379.76 70.7,-370.15 68.19,-380.44 75.16,-379.76"/>
</a>
</g>
</g>
<!-- Node5 -->
<g id="Node000005" class="node">
<title>Node5</title>
<g id="a_Node000005"><a xlink:href="../../d2/dde/classbustub_1_1HashJoinExecutor.html" target="_top" xlink:title=" ">
<polygon fill="white" stroke="#666666" points="333,-611 193,-611 193,-592 333,-592 333,-611"/>
<text text-anchor="middle" x="263" y="-599" font-family="Helvetica,sans-Serif" font-size="10.00">bustub::HashJoinExecutor</text>
</a>
</g>
</g>
<!-- Node1&#45;&gt;Node5 -->
<g id="edge4_Node000001_Node000005" class="edge">
<title>Node1&#45;&gt;Node5</title>
<g id="a_edge4_Node000001_Node000005"><a xlink:title=" ">
<path fill="none" stroke="#63b8ff" d="M73.17,-380.5C81.28,-424.64 107.06,-530.67 174,-583.5 179.63,-587.94 186.08,-591.37 192.87,-594.01"/>
<polygon fill="#63b8ff" stroke="#63b8ff" points="76.59,-379.71 71.44,-370.45 69.69,-380.9 76.59,-379.71"/>
</a>
</g>
</g>
<!-- Node6 -->
<g id="Node000006" class="node">
<title>Node6</title>
<g id="a_Node000006"><a xlink:href="../../d3/d27/classbustub_1_1IndexScanExecutor.html" target="_top" xlink:title=" ">
<polygon fill="white" stroke="#666666" points="337,-574 189,-574 189,-555 337,-555 337,-574"/>
<text text-anchor="middle" x="263" y="-562" font-family="Helvetica,sans-Serif" font-size="10.00">bustub::IndexScanExecutor</text>
</a>
</g>
</g>
<!-- Node1&#45;&gt;Node6 -->
<g id="edge5_Node000001_Node000006" class="edge">
<title>Node1&#45;&gt;Node6</title>
<g id="a_edge5_Node000001_Node000006"><a xlink:title=" ">
<path fill="none" stroke="#63b8ff" d="M75.02,-380.03C85.97,-418.49 115.83,-503.97 174,-546.5 178.66,-549.91 183.81,-552.7 189.21,-555"/>
<polygon fill="#63b8ff" stroke="#63b8ff" points="78.32,-378.83 72.32,-370.1 71.57,-380.67 78.32,-378.83"/>
</a>
</g>
</g>
<!-- Node7 -->
<g id="Node000007" class="node">
<title>Node7</title>
<g id="a_Node000007"><a xlink:href="../../d5/def/classbustub_1_1InitCheckExecutor.html" target="_top" xlink:title=" ">
<polygon fill="white" stroke="#666666" points="334.5,-537 191.5,-537 191.5,-518 334.5,-518 334.5,-537"/>
<text text-anchor="middle" x="263" y="-525" font-family="Helvetica,sans-Serif" font-size="10.00">bustub::InitCheckExecutor</text>
</a>
</g>
</g>
<!-- Node1&#45;&gt;Node7 -->
<g id="edge6_Node000001_Node000007" class="edge">
<title>Node1&#45;&gt;Node7</title>
<g id="a_edge6_Node000001_Node000007"><a xlink:title=" ">
<path fill="none" stroke="#63b8ff" d="M77.68,-379.67C91.66,-411.99 124.5,-476.96 174,-509.5 179.34,-513.01 185.23,-515.86 191.35,-518.17"/>
<polygon fill="#63b8ff" stroke="#63b8ff" points="80.74,-377.94 73.66,-370.06 74.29,-380.64 80.74,-377.94"/>
</a>
</g>
</g>
<!-- Node8 -->
<g id="Node000008" class="node">
<title>Node8</title>
<g id="a_Node000008"><a xlink:href="../../d5/db3/classbustub_1_1InsertExecutor.html" target="_top" xlink:title=" ">
<polygon fill="white" stroke="#666666" points="325.5,-500 200.5,-500 200.5,-481 325.5,-481 325.5,-500"/>
<text text-anchor="middle" x="263" y="-488" font-family="Helvetica,sans-Serif" font-size="10.00">bustub::InsertExecutor</text>
</a>
</g>
</g>
<!-- Node1&#45;&gt;Node8 -->
<g id="edge7_Node000001_Node000008" class="edge">
<title>Node1&#45;&gt;Node8</title>
<g id="a_edge7_Node000001_Node000008"><a xlink:title=" ">
<path fill="none" stroke="#63b8ff" d="M81.55,-378.81C98.54,-404.13 132.77,-449.33 174,-472.5 182.02,-477.01 191.02,-480.39 200.12,-482.94"/>
<polygon fill="#63b8ff" stroke="#63b8ff" points="84.3,-376.63 75.9,-370.17 78.44,-380.45 84.3,-376.63"/>
</a>
</g>
</g>
<!-- Node9 -->
<g id="Node000009" class="node">
<title>Node9</title>
<g id="a_Node000009"><a xlink:href="../../db/d35/classbustub_1_1LimitExecutor.html" target="_top" xlink:title=" ">
<polygon fill="white" stroke="#666666" points="324,-463 202,-463 202,-444 324,-444 324,-463"/>
<text text-anchor="middle" x="263" y="-451" font-family="Helvetica,sans-Serif" font-size="10.00">bustub::LimitExecutor</text>
</a>
</g>
</g>
<!-- Node1&#45;&gt;Node9 -->
<g id="edge8_Node000001_Node000009" class="edge">
<title>Node1&#45;&gt;Node9</title>
<g id="a_edge8_Node000001_Node000009"><a xlink:title=" ">
<path fill="none" stroke="#63b8ff" d="M87.51,-376.76C107.08,-394.02 140.46,-420.79 174,-435.5 182.71,-439.32 192.27,-442.34 201.77,-444.73"/>
<polygon fill="#63b8ff" stroke="#63b8ff" points="89.78,-374.09 80,-370.01 85.1,-379.3 89.78,-374.09"/>
</a>
</g>
</g>
<!-- Node10 -->
<g id="Node000010" class="node">
<title>Node10</title>
<g id="a_Node000010"><a xlink:href="../../d1/dde/classbustub_1_1MockScanExecutor.html" target="_top" xlink:title=" ">
<polygon fill="white" stroke="#666666" points="336.5,-426 189.5,-426 189.5,-407 336.5,-407 336.5,-426"/>
<text text-anchor="middle" x="263" y="-414" font-family="Helvetica,sans-Serif" font-size="10.00">bustub::MockScanExecutor</text>
</a>
</g>
</g>
<!-- Node1&#45;&gt;Node10 -->
<g id="edge9_Node000001_Node000010" class="edge">
<title>Node1&#45;&gt;Node10</title>
<g id="a_edge9_Node000001_Node000010"><a xlink:title=" ">
<path fill="none" stroke="#63b8ff" d="M102.62,-373.84C122.91,-381.77 149.68,-391.61 174,-398.5 185.1,-401.65 197.14,-404.48 208.64,-406.91"/>
<polygon fill="#63b8ff" stroke="#63b8ff" points="103.8,-370.54 93.22,-370.11 101.22,-377.05 103.8,-370.54"/>
</a>
</g>
</g>
<!-- Node11 -->
<g id="Node000011" class="node">
<title>Node11</title>
<g id="a_Node000011"><a xlink:href="../../da/da8/classbustub_1_1NestIndexJoinExecutor.html" target="_top" xlink:title=" ">
<polygon fill="white" stroke="#666666" points="345.5,-389 180.5,-389 180.5,-370 345.5,-370 345.5,-389"/>
<text text-anchor="middle" x="263" y="-377" font-family="Helvetica,sans-Serif" font-size="10.00">bustub::NestIndexJoinExecutor</text>
</a>
</g>
</g>
<!-- Node1&#45;&gt;Node11 -->
<g id="edge10_Node000001_Node000011" class="edge">
<title>Node1&#45;&gt;Node11</title>
<g id="a_edge10_Node000001_Node000011"><a xlink:title=" ">
<path fill="none" stroke="#63b8ff" d="M148.23,-368.24C158.76,-369.28 169.59,-370.36 180.19,-371.4"/>
<polygon fill="#63b8ff" stroke="#63b8ff" points="148.53,-364.75 138.23,-367.25 147.84,-371.72 148.53,-364.75"/>
</a>
</g>
</g>
<!-- Node12 -->
<g id="Node000012" class="node">
<title>Node12</title>
<g id="a_Node000012"><a xlink:href="../../d2/d43/classbustub_1_1NestedLoopJoinExecutor.html" target="_top" xlink:title=" ">
<polygon fill="white" stroke="#666666" points="349.5,-352 176.5,-352 176.5,-333 349.5,-333 349.5,-352"/>
<text text-anchor="middle" x="263" y="-340" font-family="Helvetica,sans-Serif" font-size="10.00">bustub::NestedLoopJoinExecutor</text>
</a>
</g>
</g>
<!-- Node1&#45;&gt;Node12 -->
<g id="edge11_Node000001_Node000012" class="edge">
<title>Node1&#45;&gt;Node12</title>
<g id="a_edge11_Node000001_Node000012"><a xlink:title=" ">
<path fill="none" stroke="#63b8ff" d="M148.44,-353.15C157.59,-352.29 166.95,-351.41 176.18,-350.55"/>
<polygon fill="#63b8ff" stroke="#63b8ff" points="147.86,-349.68 138.23,-354.1 148.52,-356.65 147.86,-349.68"/>
</a>
</g>
</g>
<!-- Node13 -->
<g id="Node000013" class="node">
<title>Node13</title>
<g id="a_Node000013"><a xlink:href="../../da/d41/classbustub_1_1ProjectionExecutor.html" target="_top" xlink:title=" ">
<polygon fill="white" stroke="#666666" points="336,-315 190,-315 190,-296 336,-296 336,-315"/>
<text text-anchor="middle" x="263" y="-303" font-family="Helvetica,sans-Serif" font-size="10.00">bustub::ProjectionExecutor</text>
</a>
</g>
</g>
<!-- Node1&#45;&gt;Node13 -->
<g id="edge12_Node000001_Node000013" class="edge">
<title>Node1&#45;&gt;Node13</title>
<g id="a_edge12_Node000001_Node000013"><a xlink:title=" ">
<path fill="none" stroke="#63b8ff" d="M104.59,-347.35C124.67,-340.02 150.55,-331.07 174,-324.5 186.49,-321 200.13,-317.78 212.87,-315.01"/>
<polygon fill="#63b8ff" stroke="#63b8ff" points="103.12,-344.16 94.95,-350.91 105.54,-350.73 103.12,-344.16"/>
</a>
</g>
</g>
<!-- Node14 -->
<g id="Node000014" class="node">
<title>Node14</title>
<g id="a_Node000014"><a xlink:href="../../da/d83/classbustub_1_1SeqScanExecutor.html" target="_top" xlink:title=" ">
<polygon fill="white" stroke="#666666" points="332.5,-278 193.5,-278 193.5,-259 332.5,-259 332.5,-278"/>
<text text-anchor="middle" x="263" y="-266" font-family="Helvetica,sans-Serif" font-size="10.00">bustub::SeqScanExecutor</text>
</a>
</g>
</g>
<!-- Node1&#45;&gt;Node14 -->
<g id="edge13_Node000001_Node000014" class="edge">
<title>Node1&#45;&gt;Node14</title>
<g id="a_edge13_Node000001_Node000014"><a xlink:title=" ">
<path fill="none" stroke="#63b8ff" d="M88.25,-344.23C108,-327.49 141.11,-301.89 174,-287.5 182.88,-283.62 192.62,-280.5 202.28,-278.01"/>
<polygon fill="#63b8ff" stroke="#63b8ff" points="85.92,-341.61 80.64,-350.8 90.5,-346.91 85.92,-341.61"/>
</a>
</g>
</g>
<!-- Node15 -->
<g id="Node000015" class="node">
<title>Node15</title>
<g id="a_Node000015"><a xlink:href="../../d1/d76/classbustub_1_1SortExecutor.html" target="_top" xlink:title=" ">
<polygon fill="white" stroke="#666666" points="321.5,-241 204.5,-241 204.5,-222 321.5,-222 321.5,-241"/>
<text text-anchor="middle" x="263" y="-229" font-family="Helvetica,sans-Serif" font-size="10.00">bustub::SortExecutor</text>
</a>
</g>
</g>
<!-- Node1&#45;&gt;Node15 -->
<g id="edge14_Node000001_Node000015" class="edge">
<title>Node1&#45;&gt;Node15</title>
<g id="a_edge14_Node000001_Node000015"><a xlink:title=" ">
<path fill="none" stroke="#63b8ff" d="M81.92,-342.21C99.14,-317.35 133.39,-273.38 174,-250.5 183.26,-245.28 193.81,-241.5 204.31,-238.75"/>
<polygon fill="#63b8ff" stroke="#63b8ff" points="78.87,-340.47 76.18,-350.72 84.67,-344.38 78.87,-340.47"/>
</a>
</g>
</g>
<!-- Node16 -->
<g id="Node000016" class="node">
<title>Node16</title>
<g id="a_Node000016"><a xlink:href="../../d8/df7/classbustub_1_1TopNCheckExecutor.html" target="_top" xlink:title=" ">
<polygon fill="white" stroke="#666666" points="339,-204 187,-204 187,-185 339,-185 339,-204"/>
<text text-anchor="middle" x="263" y="-192" font-family="Helvetica,sans-Serif" font-size="10.00">bustub::TopNCheckExecutor</text>
</a>
</g>
</g>
<!-- Node1&#45;&gt;Node16 -->
<g id="edge15_Node000001_Node000016" class="edge">
<title>Node1&#45;&gt;Node16</title>
<g id="a_edge15_Node000001_Node000016"><a xlink:title=" ">
<path fill="none" stroke="#63b8ff" d="M77.99,-341.18C92.26,-309.22 125.26,-245.7 174,-213.5 179.87,-209.62 186.39,-206.52 193.16,-204.04"/>
<polygon fill="#63b8ff" stroke="#63b8ff" points="74.62,-340.15 73.88,-350.71 81.05,-342.92 74.62,-340.15"/>
</a>
</g>
</g>
<!-- Node17 -->
<g id="Node000017" class="node">
<title>Node17</title>
<g id="a_Node000017"><a xlink:href="../../d6/d1c/classbustub_1_1TopNExecutor.html" target="_top" xlink:title=" ">
<polygon fill="white" stroke="#666666" points="324,-167 202,-167 202,-148 324,-148 324,-167"/>
<text text-anchor="middle" x="263" y="-155" font-family="Helvetica,sans-Serif" font-size="10.00">bustub::TopNExecutor</text>
</a>
</g>
</g>
<!-- Node1&#45;&gt;Node17 -->
<g id="edge16_Node000001_Node000017" class="edge">
<title>Node1&#45;&gt;Node17</title>
<g id="a_edge16_Node000001_Node000017"><a xlink:title=" ">
<path fill="none" stroke="#63b8ff" d="M75.28,-340.69C86.55,-302.49 116.71,-218.67 174,-176.5 182.18,-170.48 191.88,-166.29 201.8,-163.39"/>
<polygon fill="#63b8ff" stroke="#63b8ff" points="71.84,-340.02 72.49,-350.59 78.57,-341.92 71.84,-340.02"/>
</a>
</g>
</g>
<!-- Node18 -->
<g id="Node000018" class="node">
<title>Node18</title>
<g id="a_Node000018"><a xlink:href="../../dd/dca/classbustub_1_1TopNPerGroupExecutor.html" target="_top" xlink:title=" ">
<polygon fill="white" stroke="#666666" points="346.5,-130 179.5,-130 179.5,-111 346.5,-111 346.5,-130"/>
<text text-anchor="middle" x="263" y="-118" font-family="Helvetica,sans-Serif" font-size="10.00">bustub::TopNPerGroupExecutor</text>
</a>
</g>
</g>
<!-- Node1&#45;&gt;Node18 -->
<g id="edge17_Node000001_Node000018" class="edge">
<title>Node1&#45;&gt;Node18</title>
<g id="a_edge17_Node000001_Node000018"><a xlink:title=" ">
<path fill="none" stroke="#63b8ff" d="M73.27,-340.73C81.58,-297.08 107.75,-192.18 174,-139.5 178.77,-135.71 184.13,-132.63 189.79,-130.13"/>
<polygon fill="#63b8ff" stroke="#63b8ff" points="69.81,-340.2 71.49,-350.66 76.7,-341.44 69.81,-340.2"/>
</a>
</g>
</g>
<!-- Node19 -->
<g id="Node000019" class="node">
<title>Node19</title>
<g id="a_Node000019"><a xlink:href="../../d5/d87/classbustub_1_1UpdateExecutor.html" target="_top" xlink:title=" ">
<polygon fill="white" stroke="#666666" points="329.5,-93 196.5,-93 196.5,-74 329.5,-74 329.5,-93"/>
<text text-anchor="middle" x="263" y="-81" font-family="Helvetica,sans-Serif" font-size="10.00">bustub::UpdateExecutor</text>
</a>
</g>
</g>
<!-- Node1&#45;&gt;Node19 -->
<g id="edge18_Node000001_Node000019" class="edge">
<title>Node1&#45;&gt;Node19</title>
<g id="a_edge18_Node000001_Node000019"><a xlink:title=" ">
<path fill="none" stroke="#63b8ff" d="M71.79,-340.84C77.32,-292.29 98.61,-166.02 174,-102.5 180.45,-97.06 188.1,-93.07 196.15,-90.16"/>
<polygon fill="#63b8ff" stroke="#63b8ff" points="68.29,-340.64 70.75,-350.95 75.26,-341.36 68.29,-340.64"/>
</a>
</g>
</g>
<!-- Node20 -->
<g id="Node000020" class="node">
<title>Node20</title>
<g id="a_Node000020"><a xlink:href="../../d7/d80/classbustub_1_1ValuesExecutor.html" target="_top" xlink:title=" ">
<polygon fill="white" stroke="#666666" points="328,-56 198,-56 198,-37 328,-37 328,-56"/>
<text text-anchor="middle" x="263" y="-44" font-family="Helvetica,sans-Serif" font-size="10.00">bustub::ValuesExecutor</text>
</a>
</g>
</g>
<!-- Node1&#45;&gt;Node20 -->
<g id="edge19_Node000001_Node000020" class="edge">
<title>Node1&#45;&gt;Node20</title>
<g id="a_edge19_Node000001_Node000020"><a xlink:title=" ">
<path fill="none" stroke="#63b8ff" d="M70.69,-340.61C73.67,-287.24 89.54,-139.92 174,-65.5 180.8,-59.51 189.04,-55.25 197.71,-52.26"/>
<polygon fill="#63b8ff" stroke="#63b8ff" points="67.18,-340.62 70.22,-350.77 74.18,-340.94 67.18,-340.62"/>
</a>
</g>
</g>
<!-- Node21 -->
<g id="Node000021" class="node">
<title>Node21</title>
<g id="a_Node000021"><a xlink:href="../../dd/df2/classbustub_1_1WindowFunctionExecutor.html" target="_top" xlink:title=" ">
<polygon fill="white" stroke="#666666" points="352,-19 174,-19 174,0 352,0 352,-19"/>
<text text-anchor="middle" x="263" y="-7" font-family="Helvetica,sans-Serif" font-size="10.00">bustub::WindowFunctionExecutor</text>
</a>
</g>
</g>
<!-- Node1&#45;&gt;Node21 -->
<g id="edge20_Node000001_Node000021" class="edge">
<title>Node1&#45;&gt;Node21</title>
<g id="a_edge20_Node000001_Node000021"><a xlink:title=" ">
<path fill="none" stroke="#63b8ff" d="M69.79,-340.5C70.35,-282.69 80.31,-114.03 174,-28.5 178.16,-24.71 182.88,-21.6 187.94,-19.07"/>
<polygon fill="#63b8ff" stroke="#63b8ff" points="66.29,-340.81 69.79,-350.81 73.29,-340.81 66.29,-340.81"/>
</a>
</g>
</g>
</g>
</svg>

<g id="navigator" transform="translate(0 0)" fill="#404254">
  <rect fill="#f2f5e9" fill-opacity="0.5" stroke="#606060" stroke-width=".5" x="0" y="0" width="60" height="60"/>
  <use id="zoomplus" xlink:href="#zoomPlus" x="17" y="9" onmousedown="handleZoom(evt,'in')"/>
  <use id="zoomminus" xlink:href="#zoomMin" x="42" y="9" onmousedown="handleZoom(evt,'out')"/>
  <use id="reset" xlink:href="#resetDef" x="30" y="36" onmousedown="handleReset()"/>
   <use id="arrowup" xlink:href="#arrowUp" x="0" y="0" onmousedown="handlePan(0,-1)"/>
  <use id="arrowright" xlink:href="#arrowRight" x="0" y="0" onmousedown="handlePan(1,0)"/>
  <use id="arrowdown" xlink:href="#arrowDown" x="0" y="0" onmousedown="handlePan(0,1)"/>
  <use id="arrowleft" xlink:href="#arrowLeft" x="0" y="0" onmousedown="handlePan(-1,0)"/>
</g>
<svg viewBox="0 0 15 15" width="100%" height="30px" preserveAspectRatio="xMaxYMin meet">
 <g id="arrow_out" transform="scale(0.3 0.3)">
  <a xlink:href="classbustub_1_1AbstractExecutor__inherit__graph_org.svg" target="_base">
   <rect id="button" ry="5" rx="5" y="6" x="6" height="38" width="38"
        fill="#f2f5e9" fill-opacity="0.5" stroke="#606060" stroke-width="1.0"/>
   <path id="arrow"
     d="M 11.500037,31.436501 C 11.940474,20.09759 22.043105,11.32322 32.158766,21.979434 L 37.068811,17.246167 C 37.068811,17.246167 37.088388,32 37.088388,32 L 22.160133,31.978069 C 22.160133,31.978069 26.997745,27.140456 26.997745,27.140456 C 18.528582,18.264221 13.291696,25.230495 11.500037,31.436501 z"
     style="fill:#404040;"/>
  </a>
 </g>
</svg>

<style type='text/css'>
<![CDATA[
[data-mouse-over-selected='false'] { opacity: 0.7; }
[data-mouse-over-selected='true']  { opacity: 1.0; }
]]>
</style>
<script type="application/ecmascript"><![CDATA[
document.addEventListener('DOMContentLoaded', (event) => {
  highlightEdges();
  highlightAdjacentNodes();
});
]]></script>
</svg>
