<?xml version="1.0" encoding="UTF-8" standalone="no"?>
<!DOCTYPE svg PUBLIC "-//W3C//DTD SVG 1.1//EN"
 "http://www.w3.org/Graphics/SVG/1.1/DTD/svg11.dtd">
<!-- Generated by graphviz version 2.43.0 (0)
 -->
<!-- Title: bustub::SortExecutor Pages: 1 -->
<!--zoomable 205 -->

<svg id="main" version="1.1" xmlns="http://www.w3.org/2000/svg" xmlns:xlink="http://www.w3.org/1999/xlink" xml:space="preserve" onload="init(evt)">
<style type="text/css"><![CDATA[
.node, .edge {opacity: 0.7;}
.node.selected, .edge.selected {opacity: 1;}
.edge:hover path { stroke: red; }
.edge:hover polygon { stroke: red; fill: red; }
]]></style>

<defs>
  <circle id="rim" cx="0" cy="0" r="7"/>
  <circle id="rim2" cx="0" cy="0" r="3.5"/>
  <g id="zoomPlus">
    <use xlink:href="#rim" fill="#404040"><set attributeName="fill" to="#808080" begin="zoomplus.mouseover" end="zoomplus.mouseout"/></use>
    <path d="M-4,0h8M0,-4v8" fill="none" stroke="white" stroke-width="1.5" pointer-events="none"/>
  </g>
  <g id="zoomMin">
    <use xlink:href="#rim" fill="#404040"><set attributeName="fill" to="#808080" begin="zoomminus.mouseover" end="zoomminus.mouseout"/></use>
    <path d="M-4,0h8" fill="none" stroke="white" stroke-width="1.5" pointer-events="none"/>
  </g>
  <g id="arrowUp" transform="translate(30 24)">
    <use xlink:href="#rim"/>
    <path pointer-events="none" fill="none" stroke="white" stroke-width="1.5" d="M0,-3.0v7 M-2.5,-0.5L0,-3.0L2.5,-0.5"/>
  </g>
  <g id="arrowRight" transform="rotate(90) translate(36 -43)">
    <use xlink:href="#rim"/>
    <path pointer-events="none" fill="none" stroke="white" stroke-width="1.5" d="M0,-3.0v7 M-2.5,-0.5L0,-3.0L2.5,-0.5"/>
  </g>
  <g id="arrowDown" transform="rotate(180) translate(-30 -48)">
    <use xlink:href="#rim"/>
    <path pointer-events="none" fill="none" stroke="white" stroke-width="1.5" d="M0,-3.0v7 M-2.5,-0.5L0,-3.0L2.5,-0.5"/>
  </g>
  <g id="arrowLeft" transform="rotate(270) translate(-36 17)">
    <use xlink:href="#rim"/>
    <path pointer-events="none" fill="none" stroke="white" stroke-width="1.5" d="M0,-3.0v7 M-2.5,-0.5L0,-3.0L2.5,-0.5"/>
  </g>
  <g id="resetDef">
    <use xlink:href="#rim2" fill="#404040"><set attributeName="fill" to="#808080" begin="reset.mouseover" end="reset.mouseout"/></use>
  </g>
</defs>
<script type="application/ecmascript">
var viewWidth = 1993;
var viewHeight = 205;
var sectionId = 'dynsection-1';
</script>
<script type="application/ecmascript" xlink:href="../../svg.min.js"/>
<svg id="graph" class="graph">
<g id="viewport">
<title>bustub::SortExecutor</title>
<!-- Node1 -->
<g id="Node000001" class="node">
<title>Node1</title>
<g id="a_Node000001"><a xlink:title=" ">
<polygon fill="#999999" stroke="#666666" points="1985,-91 1868,-91 1868,-72 1985,-72 1985,-91"/>
<text text-anchor="middle" x="1926.5" y="-79" font-family="Helvetica,sans-Serif" font-size="10.00">bustub::SortExecutor</text>
</a>
</g>
</g>
<!-- Node2 -->
<g id="Node000002" class="node">
<title>Node2</title>
<g id="a_Node000002"><a xlink:href="../../d2/d28/classbustub_1_1AbstractExecutor.html" target="_top" xlink:title=" ">
<polygon fill="white" stroke="#666666" points="1802,-110 1664,-110 1664,-91 1802,-91 1802,-110"/>
<text text-anchor="middle" x="1733" y="-98" font-family="Helvetica,sans-Serif" font-size="10.00">bustub::AbstractExecutor</text>
</a>
</g>
</g>
<!-- Node2&#45;&gt;Node1 -->
<g id="edge1_Node000001_Node000002" class="edge">
<title>Node2&#45;&gt;Node1</title>
<g id="a_edge1_Node000001_Node000002"><a xlink:title=" ">
<path fill="none" stroke="#63b8ff" d="M1812.01,-92.76C1830.66,-90.91 1850.25,-88.97 1867.8,-87.22"/>
<polygon fill="#63b8ff" stroke="#63b8ff" points="1811.66,-89.28 1802.05,-93.75 1812.35,-96.24 1811.66,-89.28"/>
</a>
</g>
</g>
<!-- Node3 -->
<g id="Node000003" class="node">
<title>Node3</title>
<g id="a_Node000003"><a xlink:href="../../dd/d02/classbustub_1_1ExecutorContext.html" target="_top" xlink:title=" ">
<polygon fill="white" stroke="#666666" points="1572.5,-110 1436.5,-110 1436.5,-91 1572.5,-91 1572.5,-110"/>
<text text-anchor="middle" x="1504.5" y="-98" font-family="Helvetica,sans-Serif" font-size="10.00">bustub::ExecutorContext</text>
</a>
</g>
</g>
<!-- Node3&#45;&gt;Node2 -->
<g id="edge2_Node000002_Node000003" class="edge">
<title>Node3&#45;&gt;Node2</title>
<g id="a_edge2_Node000002_Node000003"><a xlink:title=" ">
<path fill="none" stroke="#9a32cd" stroke-dasharray="5,2" d="M1582.86,-100.5C1609.19,-100.5 1638.41,-100.5 1663.96,-100.5"/>
<polygon fill="#9a32cd" stroke="#9a32cd" points="1582.54,-97 1572.54,-100.5 1582.54,-104 1582.54,-97"/>
</a>
</g>
<text text-anchor="middle" x="1620" y="-103.5" font-family="Helvetica,sans-Serif" font-size="10.00" fill="grey"> exec_ctx_</text>
</g>
<!-- Node4 -->
<g id="Node000004" class="node">
<title>Node4</title>
<g id="a_Node000004"><a xlink:href="../../db/d88/classbustub_1_1Transaction.html" target="_top" xlink:title=" ">
<polygon fill="white" stroke="#666666" points="1328,-197 1217,-197 1217,-178 1328,-178 1328,-197"/>
<text text-anchor="middle" x="1272.5" y="-185" font-family="Helvetica,sans-Serif" font-size="10.00">bustub::Transaction</text>
</a>
</g>
</g>
<!-- Node4&#45;&gt;Node3 -->
<g id="edge3_Node000003_Node000004" class="edge">
<title>Node4&#45;&gt;Node3</title>
<g id="a_edge3_Node000003_Node000004"><a xlink:title=" ">
<path fill="none" stroke="#9a32cd" stroke-dasharray="5,2" d="M1338.18,-182.73C1362.91,-179.32 1390.93,-173.49 1415,-163.5 1446.53,-150.42 1477.72,-124.34 1493.28,-110.18"/>
<polygon fill="#9a32cd" stroke="#9a32cd" points="1337.65,-179.27 1328.17,-184 1338.53,-186.21 1337.65,-179.27"/>
</a>
</g>
<text text-anchor="middle" x="1383" y="-182.5" font-family="Helvetica,sans-Serif" font-size="10.00" fill="grey"> transaction_</text>
</g>
<!-- Node5 -->
<g id="Node000005" class="node">
<title>Node5</title>
<g id="a_Node000005"><a xlink:href="../../d7/ddd/classbustub_1_1Catalog.html" target="_top" xlink:title=" ">
<polygon fill="white" stroke="#666666" points="832.5,-118 739.5,-118 739.5,-99 832.5,-99 832.5,-118"/>
<text text-anchor="middle" x="786" y="-106" font-family="Helvetica,sans-Serif" font-size="10.00">bustub::Catalog</text>
</a>
</g>
</g>
<!-- Node5&#45;&gt;Node3 -->
<g id="edge4_Node000003_Node000005" class="edge">
<title>Node5&#45;&gt;Node3</title>
<g id="a_edge4_Node000003_Node000005"><a xlink:title=" ">
<path fill="none" stroke="#9a32cd" stroke-dasharray="5,2" d="M842.49,-119.54C848.05,-120.34 853.62,-121.02 859,-121.5 1068.83,-140.29 1122.39,-123.73 1333,-118.5 1369.46,-117.6 1378.72,-119.22 1415,-115.5 1427.71,-114.2 1441.36,-112.19 1454.04,-110.06"/>
<polygon fill="#9a32cd" stroke="#9a32cd" points="842.96,-116.07 832.54,-117.99 841.88,-122.99 842.96,-116.07"/>
</a>
</g>
<text text-anchor="middle" x="1157.5" y="-131.5" font-family="Helvetica,sans-Serif" font-size="10.00" fill="grey"> catalog_</text>
</g>
<!-- Node14 -->
<g id="Node000014" class="node">
<title>Node14</title>
<g id="a_Node000014"><a xlink:href="../../dc/ddc/classbustub_1_1TransactionManager.html" target="_top" xlink:title=" ">
<polygon fill="white" stroke="#666666" points="1103,-68 949,-68 949,-49 1103,-49 1103,-68"/>
<text text-anchor="middle" x="1026" y="-56" font-family="Helvetica,sans-Serif" font-size="10.00">bustub::TransactionManager</text>
</a>
</g>
</g>
<!-- Node5&#45;&gt;Node14 -->
<g id="edge16_Node000014_Node000005" class="edge">
<title>Node5&#45;&gt;Node14</title>
<g id="a_edge16_Node000014_Node000005"><a xlink:title=" ">
<path fill="none" stroke="#9a32cd" stroke-dasharray="5,2" d="M823.32,-95.75C834.65,-92.08 847.25,-88.31 859,-85.5 889.1,-78.29 922.73,-72.42 951.81,-68.02"/>
<polygon fill="#9a32cd" stroke="#9a32cd" points="822.14,-92.45 813.74,-98.92 824.34,-99.09 822.14,-92.45"/>
</a>
</g>
<text text-anchor="middle" x="895" y="-88.5" font-family="Helvetica,sans-Serif" font-size="10.00" fill="grey"> catalog_</text>
</g>
<!-- Node6 -->
<g id="Node000006" class="node">
<title>Node6</title>
<g id="a_Node000006"><a xlink:href="../../df/d04/structbustub_1_1TableInfo.html" target="_top" xlink:title=" ">
<polygon fill="white" stroke="#666666" points="576.5,-155 476.5,-155 476.5,-136 576.5,-136 576.5,-155"/>
<text text-anchor="middle" x="526.5" y="-143" font-family="Helvetica,sans-Serif" font-size="10.00">bustub::TableInfo</text>
</a>
</g>
</g>
<!-- Node6&#45;&gt;Node5 -->
<g id="edge5_Node000005_Node000006" class="edge">
<title>Node6&#45;&gt;Node5</title>
<g id="a_edge5_Node000005_Node000006"><a xlink:title=" ">
<path fill="none" stroke="#9a32cd" stroke-dasharray="5,2" d="M586.82,-139.2C623.3,-135.06 670.96,-129.19 713,-122.5 721.55,-121.14 730.64,-119.51 739.38,-117.86"/>
<polygon fill="#9a32cd" stroke="#9a32cd" points="586.39,-135.72 576.84,-140.32 587.17,-142.68 586.39,-135.72"/>
</a>
</g>
<text text-anchor="middle" x="666" y="-138.5" font-family="Helvetica,sans-Serif" font-size="10.00" fill="grey"> NULL_TABLE_INFO</text>
</g>
<!-- Node7 -->
<g id="Node000007" class="node">
<title>Node7</title>
<g id="a_Node000007"><a xlink:href="../../da/d36/classbustub_1_1Schema.html" target="_top" xlink:title=" ">
<polygon fill="white" stroke="#666666" points="332.5,-136 237.5,-136 237.5,-117 332.5,-117 332.5,-136"/>
<text text-anchor="middle" x="285" y="-124" font-family="Helvetica,sans-Serif" font-size="10.00">bustub::Schema</text>
</a>
</g>
</g>
<!-- Node7&#45;&gt;Node6 -->
<g id="edge6_Node000006_Node000007" class="edge">
<title>Node7&#45;&gt;Node6</title>
<g id="a_edge6_Node000006_Node000007"><a xlink:title=" ">
<path fill="none" stroke="#9a32cd" stroke-dasharray="5,2" d="M342.77,-131C383.42,-134.23 437.61,-138.53 476.4,-141.6"/>
<polygon fill="#9a32cd" stroke="#9a32cd" points="342.99,-127.51 332.75,-130.21 342.44,-134.49 342.99,-127.51"/>
</a>
</g>
<text text-anchor="middle" x="397.5" y="-141.5" font-family="Helvetica,sans-Serif" font-size="10.00" fill="grey"> schema_</text>
</g>
<!-- Node8 -->
<g id="Node000008" class="node">
<title>Node8</title>
<g id="a_Node000008"><a xlink:href="../../d4/d5c/structbustub_1_1IndexInfo.html" target="_top" xlink:title=" ">
<polygon fill="white" stroke="#666666" points="577,-118 476,-118 476,-99 577,-99 577,-118"/>
<text text-anchor="middle" x="526.5" y="-106" font-family="Helvetica,sans-Serif" font-size="10.00">bustub::IndexInfo</text>
</a>
</g>
</g>
<!-- Node7&#45;&gt;Node8 -->
<g id="edge8_Node000008_Node000007" class="edge">
<title>Node7&#45;&gt;Node8</title>
<g id="a_edge8_Node000008_Node000007"><a xlink:title=" ">
<path fill="none" stroke="#9a32cd" stroke-dasharray="5,2" d="M336.74,-115.08C344.82,-113.63 353.11,-112.35 361,-111.5 399.34,-107.35 442.99,-106.74 475.68,-107.1"/>
<polygon fill="#9a32cd" stroke="#9a32cd" points="335.84,-111.68 326.67,-116.99 337.14,-118.56 335.84,-111.68"/>
</a>
</g>
<text text-anchor="middle" x="397.5" y="-114.5" font-family="Helvetica,sans-Serif" font-size="10.00" fill="grey"> key_schema_</text>
</g>
<!-- Node8&#45;&gt;Node5 -->
<g id="edge7_Node000005_Node000008" class="edge">
<title>Node8&#45;&gt;Node5</title>
<g id="a_edge7_Node000005_Node000008"><a xlink:title=" ">
<path fill="none" stroke="#9a32cd" stroke-dasharray="5,2" d="M587.37,-108.5C633.76,-108.5 697.05,-108.5 739.39,-108.5"/>
<polygon fill="#9a32cd" stroke="#9a32cd" points="587.15,-105 577.15,-108.5 587.15,-112 587.15,-105"/>
</a>
</g>
<text text-anchor="middle" x="666" y="-111.5" font-family="Helvetica,sans-Serif" font-size="10.00" fill="grey"> NULL_INDEX_INFO</text>
</g>
<!-- Node9 -->
<g id="Node000009" class="node">
<title>Node9</title>
<g id="a_Node000009"><a xlink:href="../../d6/d5d/classbustub_1_1BufferPoolManager.html" target="_top" xlink:title=" ">
<polygon fill="white" stroke="#666666" points="601,-21 452,-21 452,-2 601,-2 601,-21"/>
<text text-anchor="middle" x="526.5" y="-9" font-family="Helvetica,sans-Serif" font-size="10.00">bustub::BufferPoolManager</text>
</a>
</g>
</g>
<!-- Node9&#45;&gt;Node3 -->
<g id="edge18_Node000003_Node000009" class="edge">
<title>Node9&#45;&gt;Node3</title>
<g id="a_edge18_Node000003_Node000009"><a xlink:title=" ">
<path fill="none" stroke="#9a32cd" stroke-dasharray="5,2" d="M611.21,-8.56C661.57,-7.04 726.95,-5.5 785,-5.5 785,-5.5 785,-5.5 1273.5,-5.5 1342.52,-5.5 1354.64,-36.02 1415,-69.5 1423.41,-74.16 1424.24,-77.53 1433,-81.5 1441.2,-85.22 1450.27,-88.33 1459.1,-90.9"/>
<polygon fill="#9a32cd" stroke="#9a32cd" points="610.91,-5.07 601.02,-8.88 611.13,-12.07 610.91,-5.07"/>
</a>
</g>
<text text-anchor="middle" x="1026" y="-8.5" font-family="Helvetica,sans-Serif" font-size="10.00" fill="grey"> bpm_</text>
</g>
<!-- Node9&#45;&gt;Node5 -->
<g id="edge9_Node000005_Node000009" class="edge">
<title>Node9&#45;&gt;Node5</title>
<g id="a_edge9_Node000005_Node000009"><a xlink:title=" ">
<path fill="none" stroke="#9a32cd" stroke-dasharray="5,2" d="M611.02,-20.32C651.81,-25.82 695.76,-33.89 713,-44.5 724.36,-51.49 721.54,-59.1 731,-68.5 742.75,-80.18 758.08,-91.21 769.4,-98.72"/>
<polygon fill="#9a32cd" stroke="#9a32cd" points="611.39,-16.84 601.02,-19.01 610.48,-23.78 611.39,-16.84"/>
</a>
</g>
<text text-anchor="middle" x="666" y="-47.5" font-family="Helvetica,sans-Serif" font-size="10.00" fill="grey"> bpm_</text>
</g>
<!-- Node10 -->
<g id="Node000010" class="node">
<title>Node10</title>
<g id="a_Node000010"><a xlink:href="../../d4/d87/classbustub_1_1Page.html" target="_top" xlink:title=" ">
<polygon fill="white" stroke="#666666" points="324.5,-19 245.5,-19 245.5,0 324.5,0 324.5,-19"/>
<text text-anchor="middle" x="285" y="-7" font-family="Helvetica,sans-Serif" font-size="10.00">bustub::Page</text>
</a>
</g>
</g>
<!-- Node10&#45;&gt;Node9 -->
<g id="edge10_Node000009_Node000010" class="edge">
<title>Node10&#45;&gt;Node9</title>
<g id="a_edge10_Node000009_Node000010"><a xlink:title=" ">
<path fill="none" stroke="#9a32cd" stroke-dasharray="5,2" d="M334.87,-9.78C363.71,-9.96 400.93,-10.21 434,-10.5 439.72,-10.55 445.64,-10.61 451.59,-10.67"/>
<polygon fill="#9a32cd" stroke="#9a32cd" points="334.66,-6.28 324.64,-9.72 334.62,-13.28 334.66,-6.28"/>
</a>
</g>
<text text-anchor="middle" x="397.5" y="-13.5" font-family="Helvetica,sans-Serif" font-size="10.00" fill="grey"> pages_</text>
</g>
<!-- Node11 -->
<g id="Node000011" class="node">
<title>Node11</title>
<g id="a_Node000011"><a xlink:href="../../d8/dbd/classbustub_1_1ReaderWriterLatch.html" target="_top" xlink:title=" ">
<polygon fill="white" stroke="#666666" points="146,-19 0,-19 0,0 146,0 146,-19"/>
<text text-anchor="middle" x="73" y="-7" font-family="Helvetica,sans-Serif" font-size="10.00">bustub::ReaderWriterLatch</text>
</a>
</g>
</g>
<!-- Node11&#45;&gt;Node10 -->
<g id="edge11_Node000010_Node000011" class="edge">
<title>Node11&#45;&gt;Node10</title>
<g id="a_edge11_Node000010_Node000011"><a xlink:title=" ">
<path fill="none" stroke="#9a32cd" stroke-dasharray="5,2" d="M156.53,-9.5C187.12,-9.5 220.38,-9.5 245.25,-9.5"/>
<polygon fill="#9a32cd" stroke="#9a32cd" points="156.27,-6 146.27,-9.5 156.27,-13 156.27,-6"/>
</a>
</g>
<text text-anchor="middle" x="186.5" y="-12.5" font-family="Helvetica,sans-Serif" font-size="10.00" fill="grey"> rwlatch_</text>
</g>
<!-- Node12 -->
<g id="Node000012" class="node">
<title>Node12</title>
<g id="a_Node000012"><a xlink:href="../../d7/d4e/classbustub_1_1LogManager.html" target="_top" xlink:title=" ">
<polygon fill="white" stroke="#666666" points="343,-68 227,-68 227,-49 343,-49 343,-68"/>
<text text-anchor="middle" x="285" y="-56" font-family="Helvetica,sans-Serif" font-size="10.00">bustub::LogManager</text>
</a>
</g>
</g>
<!-- Node12&#45;&gt;Node5 -->
<g id="edge17_Node000005_Node000012" class="edge">
<title>Node12&#45;&gt;Node5</title>
<g id="a_edge17_Node000005_Node000012"><a xlink:title=" ">
<path fill="none" stroke="#9a32cd" stroke-dasharray="5,2" d="M353.39,-60.86C417.29,-63.55 515.89,-68.88 601,-78.5 648.44,-83.86 702.29,-93 739.42,-99.79"/>
<polygon fill="#9a32cd" stroke="#9a32cd" points="353.19,-57.35 343.05,-60.44 352.9,-64.34 353.19,-57.35"/>
</a>
</g>
<text text-anchor="middle" x="526.5" y="-81.5" font-family="Helvetica,sans-Serif" font-size="10.00" fill="grey"> log_manager_</text>
</g>
<!-- Node12&#45;&gt;Node9 -->
<g id="edge12_Node000009_Node000012" class="edge">
<title>Node12&#45;&gt;Node9</title>
<g id="a_edge12_Node000009_Node000012"><a xlink:title=" ">
<path fill="none" stroke="#9a32cd" stroke-dasharray="5,2" d="M344.48,-47.02C385.04,-39.06 438.43,-28.59 476.7,-21.08"/>
<polygon fill="#9a32cd" stroke="#9a32cd" points="343.61,-43.63 334.47,-48.99 344.95,-50.5 343.61,-43.63"/>
</a>
</g>
<text text-anchor="middle" x="397.5" y="-46.5" font-family="Helvetica,sans-Serif" font-size="10.00" fill="grey"> log_manager_</text>
</g>
<!-- Node13 -->
<g id="Node000013" class="node">
<title>Node13</title>
<g id="a_Node000013"><a xlink:href="../../df/d43/classbustub_1_1LockManager.html" target="_top" xlink:title=" ">
<polygon fill="white" stroke="#666666" points="1333,-110 1212,-110 1212,-91 1333,-91 1333,-110"/>
<text text-anchor="middle" x="1272.5" y="-98" font-family="Helvetica,sans-Serif" font-size="10.00">bustub::LockManager</text>
</a>
</g>
</g>
<!-- Node13&#45;&gt;Node3 -->
<g id="edge20_Node000003_Node000013" class="edge">
<title>Node13&#45;&gt;Node3</title>
<g id="a_edge20_Node000003_Node000013"><a xlink:title=" ">
<path fill="none" stroke="#9a32cd" stroke-dasharray="5,2" d="M1343.24,-100.5C1372.7,-100.5 1406.89,-100.5 1436.09,-100.5"/>
<polygon fill="#9a32cd" stroke="#9a32cd" points="1343.03,-97 1333.03,-100.5 1343.03,-104 1343.03,-97"/>
</a>
</g>
<text text-anchor="middle" x="1383" y="-103.5" font-family="Helvetica,sans-Serif" font-size="10.00" fill="grey"> lock_mgr_</text>
</g>
<!-- Node13&#45;&gt;Node5 -->
<g id="edge13_Node000005_Node000013" class="edge">
<title>Node13&#45;&gt;Node5</title>
<g id="a_edge13_Node000005_Node000013"><a xlink:title=" ">
<path fill="none" stroke="#9a32cd" stroke-dasharray="5,2" d="M1201.76,-101.65C1101.04,-103.31 917.64,-106.34 832.58,-107.75"/>
<polygon fill="#9a32cd" stroke="#9a32cd" points="1201.9,-105.15 1211.84,-101.49 1201.78,-98.15 1201.9,-105.15"/>
</a>
</g>
<text text-anchor="middle" x="1026" y="-109.5" font-family="Helvetica,sans-Serif" font-size="10.00" fill="grey"> lock_manager_</text>
</g>
<!-- Node14&#45;&gt;Node3 -->
<g id="edge19_Node000003_Node000014" class="edge">
<title>Node14&#45;&gt;Node3</title>
<g id="a_edge19_Node000003_Node000014"><a xlink:title=" ">
<path fill="none" stroke="#9a32cd" stroke-dasharray="5,2" d="M1113.33,-58.78C1174.75,-59.74 1259.14,-62.59 1333,-70.5 1376.03,-75.11 1424.6,-84.02 1458.86,-90.94"/>
<polygon fill="#9a32cd" stroke="#9a32cd" points="1113.34,-55.28 1103.29,-58.64 1113.24,-62.28 1113.34,-55.28"/>
</a>
</g>
<text text-anchor="middle" x="1272.5" y="-73.5" font-family="Helvetica,sans-Serif" font-size="10.00" fill="grey"> txn_mgr_</text>
</g>
<!-- Node14&#45;&gt;Node13 -->
<g id="edge14_Node000013_Node000014" class="edge">
<title>Node14&#45;&gt;Node13</title>
<g id="a_edge14_Node000013_Node000014"><a xlink:title=" ">
<path fill="none" stroke="#9a32cd" stroke-dasharray="5,2" d="M1099.14,-69.66C1128.59,-74.35 1162.96,-79.99 1194,-85.5 1203.58,-87.2 1213.81,-89.11 1223.59,-90.99"/>
<polygon fill="#9a32cd" stroke="#9a32cd" points="1099.36,-66.16 1088.94,-68.05 1098.27,-73.07 1099.36,-66.16"/>
</a>
</g>
<text text-anchor="middle" x="1157.5" y="-88.5" font-family="Helvetica,sans-Serif" font-size="10.00" fill="grey"> txn_manager_</text>
</g>
<!-- Node15 -->
<g id="Node000015" class="node">
<title>Node15</title>
<g id="a_Node000015"><a xlink:href="../../d8/d96/classbustub_1_1Watermark.html" target="_top" xlink:title="tracks all the read timestamps.">
<polygon fill="white" stroke="#666666" points="841,-60 731,-60 731,-41 841,-41 841,-60"/>
<text text-anchor="middle" x="786" y="-48" font-family="Helvetica,sans-Serif" font-size="10.00">bustub::Watermark</text>
</a>
</g>
</g>
<!-- Node15&#45;&gt;Node14 -->
<g id="edge15_Node000014_Node000015" class="edge">
<title>Node15&#45;&gt;Node14</title>
<g id="a_edge15_Node000014_Node000015"><a xlink:title=" ">
<path fill="none" stroke="#9a32cd" stroke-dasharray="5,2" d="M851.11,-50.02C876.06,-50.08 904.87,-50.44 931,-51.5 936.8,-51.74 942.81,-52.04 948.84,-52.39"/>
<polygon fill="#9a32cd" stroke="#9a32cd" points="851.04,-46.52 841.04,-50.01 851.04,-53.52 851.04,-46.52"/>
</a>
</g>
<text text-anchor="middle" x="895" y="-54.5" font-family="Helvetica,sans-Serif" font-size="10.00" fill="grey"> running_txns_</text>
</g>
<!-- Node16 -->
<g id="Node000016" class="node">
<title>Node16</title>
<g id="a_Node000016"><a xlink:href="../../de/db5/classbustub_1_1SortPlanNode.html" target="_top" xlink:title=" ">
<polygon fill="white" stroke="#666666" points="1794,-73 1672,-73 1672,-54 1794,-54 1794,-73"/>
<text text-anchor="middle" x="1733" y="-61" font-family="Helvetica,sans-Serif" font-size="10.00">bustub::SortPlanNode</text>
</a>
</g>
</g>
<!-- Node16&#45;&gt;Node1 -->
<g id="edge21_Node000001_Node000016" class="edge">
<title>Node16&#45;&gt;Node1</title>
<g id="a_edge21_Node000001_Node000016"><a xlink:title=" ">
<path fill="none" stroke="#9a32cd" stroke-dasharray="5,2" d="M1804.51,-68.5C1819.53,-69.7 1835.3,-71.05 1850,-72.5 1855.78,-73.07 1861.8,-73.71 1867.82,-74.38"/>
<polygon fill="#9a32cd" stroke="#9a32cd" points="1804.49,-64.99 1794.25,-67.7 1803.94,-71.97 1804.49,-64.99"/>
</a>
</g>
<text text-anchor="middle" x="1835" y="-75.5" font-family="Helvetica,sans-Serif" font-size="10.00" fill="grey"> plan_</text>
</g>
<!-- Node17 -->
<g id="Node000017" class="node">
<title>Node17</title>
<g id="a_Node000017"><a xlink:href="../../d6/d8c/classbustub_1_1AbstractPlanNode.html" target="_top" xlink:title=" ">
<polygon fill="white" stroke="#666666" points="1576,-73 1433,-73 1433,-54 1576,-54 1576,-73"/>
<text text-anchor="middle" x="1504.5" y="-61" font-family="Helvetica,sans-Serif" font-size="10.00">bustub::AbstractPlanNode</text>
</a>
</g>
</g>
<!-- Node17&#45;&gt;Node16 -->
<g id="edge22_Node000016_Node000017" class="edge">
<title>Node17&#45;&gt;Node16</title>
<g id="a_edge22_Node000016_Node000017"><a xlink:title=" ">
<path fill="none" stroke="#63b8ff" d="M1586.45,-63.5C1614.56,-63.5 1645.57,-63.5 1671.71,-63.5"/>
<polygon fill="#63b8ff" stroke="#63b8ff" points="1586.23,-60 1576.23,-63.5 1586.23,-67 1586.23,-60"/>
</a>
</g>
</g>
</g>
</svg>

<g id="navigator" transform="translate(0 0)" fill="#404254">
  <rect fill="#f2f5e9" fill-opacity="0.5" stroke="#606060" stroke-width=".5" x="0" y="0" width="60" height="60"/>
  <use id="zoomplus" xlink:href="#zoomPlus" x="17" y="9" onmousedown="handleZoom(evt,'in')"/>
  <use id="zoomminus" xlink:href="#zoomMin" x="42" y="9" onmousedown="handleZoom(evt,'out')"/>
  <use id="reset" xlink:href="#resetDef" x="30" y="36" onmousedown="handleReset()"/>
   <use id="arrowup" xlink:href="#arrowUp" x="0" y="0" onmousedown="handlePan(0,-1)"/>
  <use id="arrowright" xlink:href="#arrowRight" x="0" y="0" onmousedown="handlePan(1,0)"/>
  <use id="arrowdown" xlink:href="#arrowDown" x="0" y="0" onmousedown="handlePan(0,1)"/>
  <use id="arrowleft" xlink:href="#arrowLeft" x="0" y="0" onmousedown="handlePan(-1,0)"/>
</g>
<svg viewBox="0 0 15 15" width="100%" height="30px" preserveAspectRatio="xMaxYMin meet">
 <g id="arrow_out" transform="scale(0.3 0.3)">
  <a xlink:href="classbustub_1_1SortExecutor__coll__graph_org.svg" target="_base">
   <rect id="button" ry="5" rx="5" y="6" x="6" height="38" width="38"
        fill="#f2f5e9" fill-opacity="0.5" stroke="#606060" stroke-width="1.0"/>
   <path id="arrow"
     d="M 11.500037,31.436501 C 11.940474,20.09759 22.043105,11.32322 32.158766,21.979434 L 37.068811,17.246167 C 37.068811,17.246167 37.088388,32 37.088388,32 L 22.160133,31.978069 C 22.160133,31.978069 26.997745,27.140456 26.997745,27.140456 C 18.528582,18.264221 13.291696,25.230495 11.500037,31.436501 z"
     style="fill:#404040;"/>
  </a>
 </g>
</svg>

<style type='text/css'>
<![CDATA[
[data-mouse-over-selected='false'] { opacity: 0.7; }
[data-mouse-over-selected='true']  { opacity: 1.0; }
]]>
</style>
<script type="application/ecmascript"><![CDATA[
document.addEventListener('DOMContentLoaded', (event) => {
  highlightEdges();
  highlightAdjacentNodes();
});
]]></script>
</svg>
