<?xml version="1.0" encoding="UTF-8" standalone="no"?>
<!DOCTYPE svg PUBLIC "-//W3C//DTD SVG 1.1//EN"
 "http://www.w3.org/Graphics/SVG/1.1/DTD/svg11.dtd">
<!-- Generated by graphviz version 2.43.0 (0)
 -->
<!-- Title: bustub::ValuesExecutor Pages: 1 -->
<!--zoomable 231 -->

<svg id="main" version="1.1" xmlns="http://www.w3.org/2000/svg" xmlns:xlink="http://www.w3.org/1999/xlink" xml:space="preserve" onload="init(evt)">
<style type="text/css"><![CDATA[
.node, .edge {opacity: 0.7;}
.node.selected, .edge.selected {opacity: 1;}
.edge:hover path { stroke: red; }
.edge:hover polygon { stroke: red; fill: red; }
]]></style>

<defs>
  <circle id="rim" cx="0" cy="0" r="7"/>
  <circle id="rim2" cx="0" cy="0" r="3.5"/>
  <g id="zoomPlus">
    <use xlink:href="#rim" fill="#404040"><set attributeName="fill" to="#808080" begin="zoomplus.mouseover" end="zoomplus.mouseout"/></use>
    <path d="M-4,0h8M0,-4v8" fill="none" stroke="white" stroke-width="1.5" pointer-events="none"/>
  </g>
  <g id="zoomMin">
    <use xlink:href="#rim" fill="#404040"><set attributeName="fill" to="#808080" begin="zoomminus.mouseover" end="zoomminus.mouseout"/></use>
    <path d="M-4,0h8" fill="none" stroke="white" stroke-width="1.5" pointer-events="none"/>
  </g>
  <g id="arrowUp" transform="translate(30 24)">
    <use xlink:href="#rim"/>
    <path pointer-events="none" fill="none" stroke="white" stroke-width="1.5" d="M0,-3.0v7 M-2.5,-0.5L0,-3.0L2.5,-0.5"/>
  </g>
  <g id="arrowRight" transform="rotate(90) translate(36 -43)">
    <use xlink:href="#rim"/>
    <path pointer-events="none" fill="none" stroke="white" stroke-width="1.5" d="M0,-3.0v7 M-2.5,-0.5L0,-3.0L2.5,-0.5"/>
  </g>
  <g id="arrowDown" transform="rotate(180) translate(-30 -48)">
    <use xlink:href="#rim"/>
    <path pointer-events="none" fill="none" stroke="white" stroke-width="1.5" d="M0,-3.0v7 M-2.5,-0.5L0,-3.0L2.5,-0.5"/>
  </g>
  <g id="arrowLeft" transform="rotate(270) translate(-36 17)">
    <use xlink:href="#rim"/>
    <path pointer-events="none" fill="none" stroke="white" stroke-width="1.5" d="M0,-3.0v7 M-2.5,-0.5L0,-3.0L2.5,-0.5"/>
  </g>
  <g id="resetDef">
    <use xlink:href="#rim2" fill="#404040"><set attributeName="fill" to="#808080" begin="reset.mouseover" end="reset.mouseout"/></use>
  </g>
</defs>
<script type="application/ecmascript">
var viewWidth = 2023;
var viewHeight = 231;
var sectionId = 'dynsection-1';
</script>
<script type="application/ecmascript" xlink:href="../../svg.min.js"/>
<svg id="graph" class="graph">
<g id="viewport">
<title>bustub::ValuesExecutor</title>
<!-- Node1 -->
<g id="Node000001" class="node">
<title>Node1</title>
<g id="a_Node000001"><a xlink:title=" ">
<polygon fill="#999999" stroke="#666666" points="2015,-100.78 1885,-100.78 1885,-81.78 2015,-81.78 2015,-100.78"/>
<text text-anchor="middle" x="1950" y="-88.78" font-family="Helvetica,sans-Serif" font-size="10.00">bustub::ValuesExecutor</text>
</a>
</g>
</g>
<!-- Node2 -->
<g id="Node000002" class="node">
<title>Node2</title>
<g id="a_Node000002"><a xlink:href="../../d2/d28/classbustub_1_1AbstractExecutor.html" target="_top" xlink:title=" ">
<polygon fill="white" stroke="#666666" points="1819,-100.78 1681,-100.78 1681,-81.78 1819,-81.78 1819,-100.78"/>
<text text-anchor="middle" x="1750" y="-88.78" font-family="Helvetica,sans-Serif" font-size="10.00">bustub::AbstractExecutor</text>
</a>
</g>
</g>
<!-- Node2&#45;&gt;Node1 -->
<g id="edge1_Node000001_Node000002" class="edge">
<title>Node2&#45;&gt;Node1</title>
<g id="a_edge1_Node000001_Node000002"><a xlink:title=" ">
<path fill="none" stroke="#63b8ff" d="M1829.24,-91.28C1847.64,-91.28 1867.04,-91.28 1884.74,-91.28"/>
<polygon fill="#63b8ff" stroke="#63b8ff" points="1829.14,-87.78 1819.14,-91.28 1829.14,-94.78 1829.14,-87.78"/>
</a>
</g>
</g>
<!-- Node3 -->
<g id="Node000003" class="node">
<title>Node3</title>
<g id="a_Node000003"><a xlink:href="../../dd/d02/classbustub_1_1ExecutorContext.html" target="_top" xlink:title=" ">
<polygon fill="white" stroke="#666666" points="1589.5,-100.78 1453.5,-100.78 1453.5,-81.78 1589.5,-81.78 1589.5,-100.78"/>
<text text-anchor="middle" x="1521.5" y="-88.78" font-family="Helvetica,sans-Serif" font-size="10.00">bustub::ExecutorContext</text>
</a>
</g>
</g>
<!-- Node3&#45;&gt;Node2 -->
<g id="edge2_Node000002_Node000003" class="edge">
<title>Node3&#45;&gt;Node2</title>
<g id="a_edge2_Node000002_Node000003"><a xlink:title=" ">
<path fill="none" stroke="#9a32cd" stroke-dasharray="5,2" d="M1599.86,-91.28C1626.19,-91.28 1655.41,-91.28 1680.96,-91.28"/>
<polygon fill="#9a32cd" stroke="#9a32cd" points="1599.54,-87.78 1589.54,-91.28 1599.54,-94.78 1599.54,-87.78"/>
</a>
</g>
<text text-anchor="middle" x="1637" y="-94.28" font-family="Helvetica,sans-Serif" font-size="10.00" fill="grey"> exec_ctx_</text>
</g>
<!-- Node4 -->
<g id="Node000004" class="node">
<title>Node4</title>
<g id="a_Node000004"><a xlink:href="../../db/d88/classbustub_1_1Transaction.html" target="_top" xlink:title=" ">
<polygon fill="white" stroke="#666666" points="1345,-157.78 1234,-157.78 1234,-138.78 1345,-138.78 1345,-157.78"/>
<text text-anchor="middle" x="1289.5" y="-145.78" font-family="Helvetica,sans-Serif" font-size="10.00">bustub::Transaction</text>
</a>
</g>
</g>
<!-- Node4&#45;&gt;Node3 -->
<g id="edge3_Node000003_Node000004" class="edge">
<title>Node4&#45;&gt;Node3</title>
<g id="a_edge3_Node000003_Node000004"><a xlink:title=" ">
<path fill="none" stroke="#9a32cd" stroke-dasharray="5,2" d="M1355.29,-139.93C1379.57,-136.11 1407.26,-130.93 1432,-124.28 1455.12,-118.07 1480.65,-108.21 1498.33,-100.88"/>
<polygon fill="#9a32cd" stroke="#9a32cd" points="1354.47,-136.51 1345.11,-141.48 1355.52,-143.43 1354.47,-136.51"/>
</a>
</g>
<text text-anchor="middle" x="1400" y="-140.28" font-family="Helvetica,sans-Serif" font-size="10.00" fill="grey"> transaction_</text>
</g>
<!-- Node5 -->
<g id="Node000005" class="node">
<title>Node5</title>
<g id="a_Node000005"><a xlink:href="../../d7/ddd/classbustub_1_1Catalog.html" target="_top" xlink:title=" ">
<polygon fill="white" stroke="#666666" points="832.5,-44.78 739.5,-44.78 739.5,-25.78 832.5,-25.78 832.5,-44.78"/>
<text text-anchor="middle" x="786" y="-32.78" font-family="Helvetica,sans-Serif" font-size="10.00">bustub::Catalog</text>
</a>
</g>
</g>
<!-- Node5&#45;&gt;Node3 -->
<g id="edge4_Node000003_Node000005" class="edge">
<title>Node5&#45;&gt;Node3</title>
<g id="a_edge4_Node000003_Node000005"><a xlink:title=" ">
<path fill="none" stroke="#9a32cd" stroke-dasharray="5,2" d="M842.71,-26.97C943.93,-13.09 1164.69,11.63 1350,-6.28 1386.96,-9.86 1403.82,1.89 1432,-22.28 1449.93,-37.66 1432.63,-56.28 1450,-72.28 1454.2,-76.15 1459.1,-79.24 1464.32,-81.71"/>
<polygon fill="#9a32cd" stroke="#9a32cd" points="842.14,-23.52 832.71,-28.36 843.1,-30.45 842.14,-23.52"/>
</a>
</g>
<text text-anchor="middle" x="1166" y="-5.28" font-family="Helvetica,sans-Serif" font-size="10.00" fill="grey"> catalog_</text>
</g>
<!-- Node14 -->
<g id="Node000014" class="node">
<title>Node14</title>
<g id="a_Node000014"><a xlink:href="../../dc/ddc/classbustub_1_1TransactionManager.html" target="_top" xlink:title=" ">
<polygon fill="white" stroke="#666666" points="1103,-67.78 949,-67.78 949,-48.78 1103,-48.78 1103,-67.78"/>
<text text-anchor="middle" x="1026" y="-55.78" font-family="Helvetica,sans-Serif" font-size="10.00">bustub::TransactionManager</text>
</a>
</g>
</g>
<!-- Node5&#45;&gt;Node14 -->
<g id="edge16_Node000014_Node000005" class="edge">
<title>Node5&#45;&gt;Node14</title>
<g id="a_edge16_Node000014_Node000005"><a xlink:title=" ">
<path fill="none" stroke="#9a32cd" stroke-dasharray="5,2" d="M842.96,-40.69C874.48,-43.74 914.29,-47.58 948.64,-50.9"/>
<polygon fill="#9a32cd" stroke="#9a32cd" points="842.9,-37.17 832.61,-39.69 842.22,-44.14 842.9,-37.17"/>
</a>
</g>
<text text-anchor="middle" x="895" y="-52.28" font-family="Helvetica,sans-Serif" font-size="10.00" fill="grey"> catalog_</text>
</g>
<!-- Node6 -->
<g id="Node000006" class="node">
<title>Node6</title>
<g id="a_Node000006"><a xlink:href="../../df/d04/structbustub_1_1TableInfo.html" target="_top" xlink:title=" ">
<polygon fill="white" stroke="#666666" points="576.5,-183.78 476.5,-183.78 476.5,-164.78 576.5,-164.78 576.5,-183.78"/>
<text text-anchor="middle" x="526.5" y="-171.78" font-family="Helvetica,sans-Serif" font-size="10.00">bustub::TableInfo</text>
</a>
</g>
</g>
<!-- Node6&#45;&gt;Node5 -->
<g id="edge5_Node000005_Node000006" class="edge">
<title>Node6&#45;&gt;Node5</title>
<g id="a_edge5_Node000005_Node000006"><a xlink:title=" ">
<path fill="none" stroke="#9a32cd" stroke-dasharray="5,2" d="M586.95,-179.4C627.72,-179.5 680.19,-172.35 713,-140.28 741.24,-112.68 704.77,-82.8 731,-53.28 734.02,-49.89 737.7,-47.13 741.7,-44.89"/>
<polygon fill="#9a32cd" stroke="#9a32cd" points="586.91,-175.9 576.85,-179.23 586.79,-182.9 586.91,-175.9"/>
</a>
</g>
<text text-anchor="middle" x="666" y="-180.28" font-family="Helvetica,sans-Serif" font-size="10.00" fill="grey"> NULL_TABLE_INFO</text>
</g>
<!-- Node7 -->
<g id="Node000007" class="node">
<title>Node7</title>
<g id="a_Node000007"><a xlink:href="../../da/d36/classbustub_1_1Schema.html" target="_top" xlink:title=" ">
<polygon fill="white" stroke="#666666" points="332.5,-183.78 237.5,-183.78 237.5,-164.78 332.5,-164.78 332.5,-183.78"/>
<text text-anchor="middle" x="285" y="-171.78" font-family="Helvetica,sans-Serif" font-size="10.00">bustub::Schema</text>
</a>
</g>
</g>
<!-- Node7&#45;&gt;Node1 -->
<g id="edge23_Node000001_Node000007" class="edge">
<title>Node7&#45;&gt;Node1</title>
<g id="a_edge23_Node000001_Node000007"><a xlink:title=" ">
<path fill="none" stroke="#9a32cd" stroke-dasharray="5,2" d="M332.84,-186.19C380.87,-197.33 457.9,-212.28 525.5,-212.28 525.5,-212.28 525.5,-212.28 1751,-212.28 1836,-212.28 1915.39,-130.08 1940.68,-101.18"/>
<polygon fill="#9a32cd" stroke="#9a32cd" points="333.58,-182.76 323.05,-183.87 331.97,-189.58 333.58,-182.76"/>
</a>
</g>
<text text-anchor="middle" x="1166" y="-215.28" font-family="Helvetica,sans-Serif" font-size="10.00" fill="grey"> dummy_schema_</text>
</g>
<!-- Node7&#45;&gt;Node6 -->
<g id="edge6_Node000006_Node000007" class="edge">
<title>Node7&#45;&gt;Node6</title>
<g id="a_edge6_Node000006_Node000007"><a xlink:title=" ">
<path fill="none" stroke="#9a32cd" stroke-dasharray="5,2" d="M342.77,-174.28C383.42,-174.28 437.61,-174.28 476.4,-174.28"/>
<polygon fill="#9a32cd" stroke="#9a32cd" points="342.75,-170.78 332.75,-174.28 342.75,-177.78 342.75,-170.78"/>
</a>
</g>
<text text-anchor="middle" x="397.5" y="-177.28" font-family="Helvetica,sans-Serif" font-size="10.00" fill="grey"> schema_</text>
</g>
<!-- Node8 -->
<g id="Node000008" class="node">
<title>Node8</title>
<g id="a_Node000008"><a xlink:href="../../d4/d5c/structbustub_1_1IndexInfo.html" target="_top" xlink:title=" ">
<polygon fill="white" stroke="#666666" points="577,-146.78 476,-146.78 476,-127.78 577,-127.78 577,-146.78"/>
<text text-anchor="middle" x="526.5" y="-134.78" font-family="Helvetica,sans-Serif" font-size="10.00">bustub::IndexInfo</text>
</a>
</g>
</g>
<!-- Node7&#45;&gt;Node8 -->
<g id="edge8_Node000008_Node000007" class="edge">
<title>Node7&#45;&gt;Node8</title>
<g id="a_edge8_Node000008_Node000007"><a xlink:title=" ">
<path fill="none" stroke="#9a32cd" stroke-dasharray="5,2" d="M341.4,-162.79C347.99,-161.54 354.64,-160.34 361,-159.28 399.37,-152.89 443.02,-147.12 475.71,-143.1"/>
<polygon fill="#9a32cd" stroke="#9a32cd" points="340.28,-159.44 331.13,-164.77 341.61,-166.31 340.28,-159.44"/>
</a>
</g>
<text text-anchor="middle" x="397.5" y="-162.28" font-family="Helvetica,sans-Serif" font-size="10.00" fill="grey"> key_schema_</text>
</g>
<!-- Node8&#45;&gt;Node5 -->
<g id="edge7_Node000005_Node000008" class="edge">
<title>Node8&#45;&gt;Node5</title>
<g id="a_edge7_Node000005_Node000008"><a xlink:title=" ">
<path fill="none" stroke="#9a32cd" stroke-dasharray="5,2" d="M587.07,-132.38C626.32,-126.5 676.95,-113.6 713,-85.28 725.83,-75.2 718.42,-63.67 731,-53.28 735.12,-49.89 739.9,-47.12 744.88,-44.87"/>
<polygon fill="#9a32cd" stroke="#9a32cd" points="586.52,-128.92 577.09,-133.76 587.48,-135.85 586.52,-128.92"/>
</a>
</g>
<text text-anchor="middle" x="666" y="-128.28" font-family="Helvetica,sans-Serif" font-size="10.00" fill="grey"> NULL_INDEX_INFO</text>
</g>
<!-- Node9 -->
<g id="Node000009" class="node">
<title>Node9</title>
<g id="a_Node000009"><a xlink:href="../../d6/d5d/classbustub_1_1BufferPoolManager.html" target="_top" xlink:title=" ">
<polygon fill="white" stroke="#666666" points="601,-100.78 452,-100.78 452,-81.78 601,-81.78 601,-100.78"/>
<text text-anchor="middle" x="526.5" y="-88.78" font-family="Helvetica,sans-Serif" font-size="10.00">bustub::BufferPoolManager</text>
</a>
</g>
</g>
<!-- Node9&#45;&gt;Node3 -->
<g id="edge18_Node000003_Node000009" class="edge">
<title>Node9&#45;&gt;Node3</title>
<g id="a_edge18_Node000003_Node000009"><a xlink:title=" ">
<path fill="none" stroke="#9a32cd" stroke-dasharray="5,2" d="M611.37,-98.11C685.62,-103.56 796.94,-110.28 894,-110.28 894,-110.28 894,-110.28 1290.5,-110.28 1345.49,-110.28 1407.63,-104.82 1453.44,-99.76"/>
<polygon fill="#9a32cd" stroke="#9a32cd" points="611.38,-94.6 601.15,-97.35 610.86,-101.58 611.38,-94.6"/>
</a>
</g>
<text text-anchor="middle" x="1026" y="-113.28" font-family="Helvetica,sans-Serif" font-size="10.00" fill="grey"> bpm_</text>
</g>
<!-- Node9&#45;&gt;Node5 -->
<g id="edge9_Node000005_Node000009" class="edge">
<title>Node9&#45;&gt;Node5</title>
<g id="a_edge9_Node000005_Node000009"><a xlink:title=" ">
<path fill="none" stroke="#9a32cd" stroke-dasharray="5,2" d="M581.27,-79.59C628.71,-69.27 697.02,-54.42 741.21,-44.81"/>
<polygon fill="#9a32cd" stroke="#9a32cd" points="580.5,-76.17 571.47,-81.72 581.99,-83.01 580.5,-76.17"/>
</a>
</g>
<text text-anchor="middle" x="666" y="-73.28" font-family="Helvetica,sans-Serif" font-size="10.00" fill="grey"> bpm_</text>
</g>
<!-- Node10 -->
<g id="Node000010" class="node">
<title>Node10</title>
<g id="a_Node000010"><a xlink:href="../../d4/d87/classbustub_1_1Page.html" target="_top" xlink:title=" ">
<polygon fill="white" stroke="#666666" points="324.5,-111.78 245.5,-111.78 245.5,-92.78 324.5,-92.78 324.5,-111.78"/>
<text text-anchor="middle" x="285" y="-99.78" font-family="Helvetica,sans-Serif" font-size="10.00">bustub::Page</text>
</a>
</g>
</g>
<!-- Node10&#45;&gt;Node9 -->
<g id="edge10_Node000009_Node000010" class="edge">
<title>Node10&#45;&gt;Node9</title>
<g id="a_edge10_Node000009_Node000010"><a xlink:title=" ">
<path fill="none" stroke="#9a32cd" stroke-dasharray="5,2" d="M334.77,-100.04C368.33,-98.5 413.54,-96.43 451.52,-94.68"/>
<polygon fill="#9a32cd" stroke="#9a32cd" points="334.57,-96.55 324.75,-100.5 334.9,-103.54 334.57,-96.55"/>
</a>
</g>
<text text-anchor="middle" x="397.5" y="-102.28" font-family="Helvetica,sans-Serif" font-size="10.00" fill="grey"> pages_</text>
</g>
<!-- Node11 -->
<g id="Node000011" class="node">
<title>Node11</title>
<g id="a_Node000011"><a xlink:href="../../d8/dbd/classbustub_1_1ReaderWriterLatch.html" target="_top" xlink:title=" ">
<polygon fill="white" stroke="#666666" points="146,-111.78 0,-111.78 0,-92.78 146,-92.78 146,-111.78"/>
<text text-anchor="middle" x="73" y="-99.78" font-family="Helvetica,sans-Serif" font-size="10.00">bustub::ReaderWriterLatch</text>
</a>
</g>
</g>
<!-- Node11&#45;&gt;Node10 -->
<g id="edge11_Node000010_Node000011" class="edge">
<title>Node11&#45;&gt;Node10</title>
<g id="a_edge11_Node000010_Node000011"><a xlink:title=" ">
<path fill="none" stroke="#9a32cd" stroke-dasharray="5,2" d="M156.53,-102.28C187.12,-102.28 220.38,-102.28 245.25,-102.28"/>
<polygon fill="#9a32cd" stroke="#9a32cd" points="156.27,-98.78 146.27,-102.28 156.27,-105.78 156.27,-98.78"/>
</a>
</g>
<text text-anchor="middle" x="186.5" y="-105.28" font-family="Helvetica,sans-Serif" font-size="10.00" fill="grey"> rwlatch_</text>
</g>
<!-- Node12 -->
<g id="Node000012" class="node">
<title>Node12</title>
<g id="a_Node000012"><a xlink:href="../../d7/d4e/classbustub_1_1LogManager.html" target="_top" xlink:title=" ">
<polygon fill="white" stroke="#666666" points="343,-59.78 227,-59.78 227,-40.78 343,-40.78 343,-59.78"/>
<text text-anchor="middle" x="285" y="-47.78" font-family="Helvetica,sans-Serif" font-size="10.00">bustub::LogManager</text>
</a>
</g>
</g>
<!-- Node12&#45;&gt;Node5 -->
<g id="edge17_Node000005_Node000012" class="edge">
<title>Node12&#45;&gt;Node5</title>
<g id="a_edge17_Node000005_Node000012"><a xlink:title=" ">
<path fill="none" stroke="#9a32cd" stroke-dasharray="5,2" d="M353.24,-48.26C456.42,-45.16 651.12,-39.31 739.42,-36.65"/>
<polygon fill="#9a32cd" stroke="#9a32cd" points="353.13,-44.76 343.24,-48.56 353.34,-51.76 353.13,-44.76"/>
</a>
</g>
<text text-anchor="middle" x="526.5" y="-48.28" font-family="Helvetica,sans-Serif" font-size="10.00" fill="grey"> log_manager_</text>
</g>
<!-- Node12&#45;&gt;Node9 -->
<g id="edge12_Node000009_Node000012" class="edge">
<title>Node12&#45;&gt;Node9</title>
<g id="a_edge12_Node000009_Node000012"><a xlink:title=" ">
<path fill="none" stroke="#9a32cd" stroke-dasharray="5,2" d="M351.75,-61.54C388.8,-67.88 434.58,-75.72 469.84,-81.75"/>
<polygon fill="#9a32cd" stroke="#9a32cd" points="352,-58.03 341.55,-59.79 350.81,-64.93 352,-58.03"/>
</a>
</g>
<text text-anchor="middle" x="397.5" y="-78.28" font-family="Helvetica,sans-Serif" font-size="10.00" fill="grey"> log_manager_</text>
</g>
<!-- Node13 -->
<g id="Node000013" class="node">
<title>Node13</title>
<g id="a_Node000013"><a xlink:href="../../df/d43/classbustub_1_1LockManager.html" target="_top" xlink:title=" ">
<polygon fill="white" stroke="#666666" points="1350,-34.78 1229,-34.78 1229,-15.78 1350,-15.78 1350,-34.78"/>
<text text-anchor="middle" x="1289.5" y="-22.78" font-family="Helvetica,sans-Serif" font-size="10.00">bustub::LockManager</text>
</a>
</g>
</g>
<!-- Node13&#45;&gt;Node3 -->
<g id="edge20_Node000003_Node000013" class="edge">
<title>Node13&#45;&gt;Node3</title>
<g id="a_edge20_Node000003_Node000013"><a xlink:title=" ">
<path fill="none" stroke="#9a32cd" stroke-dasharray="5,2" d="M1360.46,-24.55C1384.61,-27.07 1410.87,-33.14 1432,-46.28 1443.94,-53.7 1438.51,-64.18 1450,-72.28 1455.49,-76.16 1461.73,-79.24 1468.17,-81.69"/>
<polygon fill="#9a32cd" stroke="#9a32cd" points="1360.53,-21.04 1350.27,-23.68 1359.93,-28.02 1360.53,-21.04"/>
</a>
</g>
<text text-anchor="middle" x="1400" y="-49.28" font-family="Helvetica,sans-Serif" font-size="10.00" fill="grey"> lock_mgr_</text>
</g>
<!-- Node13&#45;&gt;Node5 -->
<g id="edge13_Node000005_Node000013" class="edge">
<title>Node13&#45;&gt;Node5</title>
<g id="a_edge13_Node000005_Node000013"><a xlink:title=" ">
<path fill="none" stroke="#9a32cd" stroke-dasharray="5,2" d="M1218.44,-25.2C1149.78,-25.28 1042.18,-25.86 949,-28.28 909.74,-29.3 865.17,-31.29 832.72,-32.89"/>
<polygon fill="#9a32cd" stroke="#9a32cd" points="1218.7,-28.7 1228.7,-25.19 1218.69,-21.7 1218.7,-28.7"/>
</a>
</g>
<text text-anchor="middle" x="1026" y="-31.28" font-family="Helvetica,sans-Serif" font-size="10.00" fill="grey"> lock_manager_</text>
</g>
<!-- Node14&#45;&gt;Node3 -->
<g id="edge19_Node000003_Node000014" class="edge">
<title>Node14&#45;&gt;Node3</title>
<g id="a_edge19_Node000003_Node000014"><a xlink:title=" ">
<path fill="none" stroke="#9a32cd" stroke-dasharray="5,2" d="M1113.07,-64.04C1209.79,-70.51 1364.8,-80.87 1453.11,-86.78"/>
<polygon fill="#9a32cd" stroke="#9a32cd" points="1113.24,-60.54 1103.03,-63.37 1112.77,-67.53 1113.24,-60.54"/>
</a>
</g>
<text text-anchor="middle" x="1289.5" y="-83.28" font-family="Helvetica,sans-Serif" font-size="10.00" fill="grey"> txn_mgr_</text>
</g>
<!-- Node14&#45;&gt;Node13 -->
<g id="edge14_Node000013_Node000014" class="edge">
<title>Node14&#45;&gt;Node13</title>
<g id="a_edge14_Node000013_Node000014"><a xlink:title=" ">
<path fill="none" stroke="#9a32cd" stroke-dasharray="5,2" d="M1111.6,-47.47C1114.78,-47.07 1117.92,-46.67 1121,-46.28 1156.76,-41.76 1196.83,-36.73 1228.8,-32.73"/>
<polygon fill="#9a32cd" stroke="#9a32cd" points="1110.88,-44.04 1101.4,-48.77 1111.76,-50.98 1110.88,-44.04"/>
</a>
</g>
<text text-anchor="middle" x="1166" y="-49.28" font-family="Helvetica,sans-Serif" font-size="10.00" fill="grey"> txn_manager_</text>
</g>
<!-- Node15 -->
<g id="Node000015" class="node">
<title>Node15</title>
<g id="a_Node000015"><a xlink:href="../../d8/d96/classbustub_1_1Watermark.html" target="_top" xlink:title="tracks all the read timestamps.">
<polygon fill="white" stroke="#666666" points="841,-81.78 731,-81.78 731,-62.78 841,-62.78 841,-81.78"/>
<text text-anchor="middle" x="786" y="-69.78" font-family="Helvetica,sans-Serif" font-size="10.00">bustub::Watermark</text>
</a>
</g>
</g>
<!-- Node15&#45;&gt;Node14 -->
<g id="edge15_Node000014_Node000015" class="edge">
<title>Node15&#45;&gt;Node14</title>
<g id="a_edge15_Node000014_Node000015"><a xlink:title=" ">
<path fill="none" stroke="#9a32cd" stroke-dasharray="5,2" d="M851.35,-68.5C881.36,-66.73 917.28,-64.62 948.65,-62.77"/>
<polygon fill="#9a32cd" stroke="#9a32cd" points="850.78,-65.02 841.01,-69.11 851.19,-72.01 850.78,-65.02"/>
</a>
</g>
<text text-anchor="middle" x="895" y="-71.28" font-family="Helvetica,sans-Serif" font-size="10.00" fill="grey"> running_txns_</text>
</g>
<!-- Node16 -->
<g id="Node000016" class="node">
<title>Node16</title>
<g id="a_Node000016"><a xlink:href="../../dd/d5e/classbustub_1_1ValuesPlanNode.html" target="_top" xlink:title=" ">
<polygon fill="white" stroke="#666666" points="1817,-63.78 1683,-63.78 1683,-44.78 1817,-44.78 1817,-63.78"/>
<text text-anchor="middle" x="1750" y="-51.78" font-family="Helvetica,sans-Serif" font-size="10.00">bustub::ValuesPlanNode</text>
</a>
</g>
</g>
<!-- Node16&#45;&gt;Node1 -->
<g id="edge21_Node000001_Node000016" class="edge">
<title>Node16&#45;&gt;Node1</title>
<g id="a_edge21_Node000001_Node000016"><a xlink:title=" ">
<path fill="none" stroke="#9a32cd" stroke-dasharray="5,2" d="M1811.9,-65.66C1839.43,-70.81 1871.59,-76.82 1897.84,-81.72"/>
<polygon fill="#9a32cd" stroke="#9a32cd" points="1812.46,-62.21 1801.99,-63.81 1811.18,-69.09 1812.46,-62.21"/>
</a>
</g>
<text text-anchor="middle" x="1852" y="-78.28" font-family="Helvetica,sans-Serif" font-size="10.00" fill="grey"> plan_</text>
</g>
<!-- Node17 -->
<g id="Node000017" class="node">
<title>Node17</title>
<g id="a_Node000017"><a xlink:href="../../d6/d8c/classbustub_1_1AbstractPlanNode.html" target="_top" xlink:title=" ">
<polygon fill="white" stroke="#666666" points="1593,-63.78 1450,-63.78 1450,-44.78 1593,-44.78 1593,-63.78"/>
<text text-anchor="middle" x="1521.5" y="-51.78" font-family="Helvetica,sans-Serif" font-size="10.00">bustub::AbstractPlanNode</text>
</a>
</g>
</g>
<!-- Node17&#45;&gt;Node16 -->
<g id="edge22_Node000016_Node000017" class="edge">
<title>Node17&#45;&gt;Node16</title>
<g id="a_edge22_Node000016_Node000017"><a xlink:title=" ">
<path fill="none" stroke="#63b8ff" d="M1603.43,-54.28C1629.41,-54.28 1657.86,-54.28 1682.66,-54.28"/>
<polygon fill="#63b8ff" stroke="#63b8ff" points="1603.23,-50.78 1593.23,-54.28 1603.23,-57.78 1603.23,-50.78"/>
</a>
</g>
</g>
</g>
</svg>

<g id="navigator" transform="translate(0 0)" fill="#404254">
  <rect fill="#f2f5e9" fill-opacity="0.5" stroke="#606060" stroke-width=".5" x="0" y="0" width="60" height="60"/>
  <use id="zoomplus" xlink:href="#zoomPlus" x="17" y="9" onmousedown="handleZoom(evt,'in')"/>
  <use id="zoomminus" xlink:href="#zoomMin" x="42" y="9" onmousedown="handleZoom(evt,'out')"/>
  <use id="reset" xlink:href="#resetDef" x="30" y="36" onmousedown="handleReset()"/>
   <use id="arrowup" xlink:href="#arrowUp" x="0" y="0" onmousedown="handlePan(0,-1)"/>
  <use id="arrowright" xlink:href="#arrowRight" x="0" y="0" onmousedown="handlePan(1,0)"/>
  <use id="arrowdown" xlink:href="#arrowDown" x="0" y="0" onmousedown="handlePan(0,1)"/>
  <use id="arrowleft" xlink:href="#arrowLeft" x="0" y="0" onmousedown="handlePan(-1,0)"/>
</g>
<svg viewBox="0 0 15 15" width="100%" height="30px" preserveAspectRatio="xMaxYMin meet">
 <g id="arrow_out" transform="scale(0.3 0.3)">
  <a xlink:href="classbustub_1_1ValuesExecutor__coll__graph_org.svg" target="_base">
   <rect id="button" ry="5" rx="5" y="6" x="6" height="38" width="38"
        fill="#f2f5e9" fill-opacity="0.5" stroke="#606060" stroke-width="1.0"/>
   <path id="arrow"
     d="M 11.500037,31.436501 C 11.940474,20.09759 22.043105,11.32322 32.158766,21.979434 L 37.068811,17.246167 C 37.068811,17.246167 37.088388,32 37.088388,32 L 22.160133,31.978069 C 22.160133,31.978069 26.997745,27.140456 26.997745,27.140456 C 18.528582,18.264221 13.291696,25.230495 11.500037,31.436501 z"
     style="fill:#404040;"/>
  </a>
 </g>
</svg>

<style type='text/css'>
<![CDATA[
[data-mouse-over-selected='false'] { opacity: 0.7; }
[data-mouse-over-selected='true']  { opacity: 1.0; }
]]>
</style>
<script type="application/ecmascript"><![CDATA[
document.addEventListener('DOMContentLoaded', (event) => {
  highlightEdges();
  highlightAdjacentNodes();
});
]]></script>
</svg>
