<?xml version="1.0" encoding="UTF-8" standalone="no"?>
<!DOCTYPE svg PUBLIC "-//W3C//DTD SVG 1.1//EN"
 "http://www.w3.org/Graphics/SVG/1.1/DTD/svg11.dtd">
<!-- Generated by graphviz version 2.43.0 (0)
 -->
<!-- Title: bustub::BoundExpression Pages: 1 -->
<svg width="324pt" height="323pt"
 viewBox="0.00 0.00 324.00 323.00" xmlns="http://www.w3.org/2000/svg" xmlns:xlink="http://www.w3.org/1999/xlink">
<g id="graph0" class="graph" transform="scale(1 1) rotate(0) translate(4 319)">
<title>bustub::BoundExpression</title>
<!-- Node1 -->
<g id="Node000001" class="node">
<title>Node1</title>
<g id="a_Node000001"><a xlink:title=" ">
<polygon fill="#999999" stroke="#666666" points="140,-167 0,-167 0,-148 140,-148 140,-167"/>
<text text-anchor="middle" x="70" y="-155" font-family="Helvetica,sans-Serif" font-size="10.00">bustub::BoundExpression</text>
</a>
</g>
</g>
<!-- Node2 -->
<g id="Node000002" class="node">
<title>Node2</title>
<g id="a_Node000002"><a xlink:href="../../db/d7e/classbustub_1_1BoundAggCall.html" target="_top" xlink:title=" ">
<polygon fill="white" stroke="#666666" points="308,-315 184,-315 184,-296 308,-296 308,-315"/>
<text text-anchor="middle" x="246" y="-303" font-family="Helvetica,sans-Serif" font-size="10.00">bustub::BoundAggCall</text>
</a>
</g>
</g>
<!-- Node1&#45;&gt;Node2 -->
<g id="edge1_Node000001_Node000002" class="edge">
<title>Node1&#45;&gt;Node2</title>
<g id="a_edge1_Node000001_Node000002"><a xlink:title=" ">
<path fill="none" stroke="#63b8ff" d="M80.76,-175.98C96.76,-204.42 131.3,-258.64 176,-287.5 181.3,-290.92 187.23,-293.7 193.33,-295.95"/>
<polygon fill="#63b8ff" stroke="#63b8ff" points="83.76,-174.17 75.89,-167.08 77.62,-177.53 83.76,-174.17"/>
</a>
</g>
</g>
<!-- Node3 -->
<g id="Node000003" class="node">
<title>Node3</title>
<g id="a_Node000003"><a xlink:href="../../d3/d6d/classbustub_1_1BoundAlias.html" target="_top" xlink:title=" ">
<polygon fill="white" stroke="#666666" points="301,-278 191,-278 191,-259 301,-259 301,-278"/>
<text text-anchor="middle" x="246" y="-266" font-family="Helvetica,sans-Serif" font-size="10.00">bustub::BoundAlias</text>
</a>
</g>
</g>
<!-- Node1&#45;&gt;Node3 -->
<g id="edge2_Node000001_Node000003" class="edge">
<title>Node1&#45;&gt;Node3</title>
<g id="a_edge2_Node000001_Node000003"><a xlink:title=" ">
<path fill="none" stroke="#63b8ff" d="M85.51,-174.55C104.29,-195.52 139.01,-230.77 176,-250.5 182.34,-253.88 189.34,-256.65 196.39,-258.92"/>
<polygon fill="#63b8ff" stroke="#63b8ff" points="88.13,-172.23 78.91,-167.02 82.87,-176.84 88.13,-172.23"/>
</a>
</g>
</g>
<!-- Node4 -->
<g id="Node000004" class="node">
<title>Node4</title>
<g id="a_Node000004"><a xlink:href="../../d4/dbb/classbustub_1_1BoundBinaryOp.html" target="_top" xlink:title=" ">
<polygon fill="white" stroke="#666666" points="311.5,-241 180.5,-241 180.5,-222 311.5,-222 311.5,-241"/>
<text text-anchor="middle" x="246" y="-229" font-family="Helvetica,sans-Serif" font-size="10.00">bustub::BoundBinaryOp</text>
</a>
</g>
</g>
<!-- Node1&#45;&gt;Node4 -->
<g id="edge3_Node000001_Node000004" class="edge">
<title>Node1&#45;&gt;Node4</title>
<g id="a_edge3_Node000001_Node000004"><a xlink:title=" ">
<path fill="none" stroke="#63b8ff" d="M94.88,-172.33C115.68,-184.73 146.97,-202.15 176,-213.5 184.3,-216.74 193.39,-219.59 202.17,-222"/>
<polygon fill="#63b8ff" stroke="#63b8ff" points="96.48,-169.21 86.11,-167.03 92.86,-175.2 96.48,-169.21"/>
</a>
</g>
</g>
<!-- Node5 -->
<g id="Node000005" class="node">
<title>Node5</title>
<g id="a_Node000005"><a xlink:href="../../d1/dd0/classbustub_1_1BoundColumnRef.html" target="_top" xlink:title=" ">
<polygon fill="white" stroke="#666666" points="316,-204 176,-204 176,-185 316,-185 316,-204"/>
<text text-anchor="middle" x="246" y="-192" font-family="Helvetica,sans-Serif" font-size="10.00">bustub::BoundColumnRef</text>
</a>
</g>
</g>
<!-- Node1&#45;&gt;Node5 -->
<g id="edge4_Node000001_Node000005" class="edge">
<title>Node1&#45;&gt;Node5</title>
<g id="a_edge4_Node000001_Node000005"><a xlink:title=" ">
<path fill="none" stroke="#63b8ff" d="M125.8,-169.15C149.7,-174.23 177.37,-180.12 200.04,-184.94"/>
<polygon fill="#63b8ff" stroke="#63b8ff" points="126.32,-165.68 115.81,-167.03 124.86,-172.53 126.32,-165.68"/>
</a>
</g>
</g>
<!-- Node6 -->
<g id="Node000006" class="node">
<title>Node6</title>
<g id="a_Node000006"><a xlink:href="../../d0/de2/classbustub_1_1BoundConstant.html" target="_top" xlink:title=" ">
<polygon fill="white" stroke="#666666" points="311,-167 181,-167 181,-148 311,-148 311,-167"/>
<text text-anchor="middle" x="246" y="-155" font-family="Helvetica,sans-Serif" font-size="10.00">bustub::BoundConstant</text>
</a>
</g>
</g>
<!-- Node1&#45;&gt;Node6 -->
<g id="edge5_Node000001_Node000006" class="edge">
<title>Node1&#45;&gt;Node6</title>
<g id="a_edge5_Node000001_Node000006"><a xlink:title=" ">
<path fill="none" stroke="#63b8ff" d="M150.22,-157.5C160.48,-157.5 170.89,-157.5 180.87,-157.5"/>
<polygon fill="#63b8ff" stroke="#63b8ff" points="150.02,-154 140.02,-157.5 150.02,-161 150.02,-154"/>
</a>
</g>
</g>
<!-- Node7 -->
<g id="Node000007" class="node">
<title>Node7</title>
<g id="a_Node000007"><a xlink:href="../../d1/dbc/classbustub_1_1BoundFuncCall.html" target="_top" xlink:title=" ">
<polygon fill="white" stroke="#666666" points="310,-130 182,-130 182,-111 310,-111 310,-130"/>
<text text-anchor="middle" x="246" y="-118" font-family="Helvetica,sans-Serif" font-size="10.00">bustub::BoundFuncCall</text>
</a>
</g>
</g>
<!-- Node1&#45;&gt;Node7 -->
<g id="edge6_Node000001_Node000007" class="edge">
<title>Node1&#45;&gt;Node7</title>
<g id="a_edge6_Node000001_Node000007"><a xlink:title=" ">
<path fill="none" stroke="#63b8ff" d="M125.8,-145.85C149.7,-140.77 177.37,-134.88 200.04,-130.06"/>
<polygon fill="#63b8ff" stroke="#63b8ff" points="124.86,-142.47 115.81,-147.97 126.32,-149.32 124.86,-142.47"/>
</a>
</g>
</g>
<!-- Node8 -->
<g id="Node000008" class="node">
<title>Node8</title>
<g id="a_Node000008"><a xlink:href="../../d9/d16/classbustub_1_1BoundStar.html" target="_top" xlink:title=" ">
<polygon fill="white" stroke="#666666" points="299,-93 193,-93 193,-74 299,-74 299,-93"/>
<text text-anchor="middle" x="246" y="-81" font-family="Helvetica,sans-Serif" font-size="10.00">bustub::BoundStar</text>
</a>
</g>
</g>
<!-- Node1&#45;&gt;Node8 -->
<g id="edge7_Node000001_Node000008" class="edge">
<title>Node1&#45;&gt;Node8</title>
<g id="a_edge7_Node000001_Node000008"><a xlink:title=" ">
<path fill="none" stroke="#63b8ff" d="M95.68,-142.64C116.52,-130.57 147.45,-113.76 176,-102.5 185.13,-98.9 195.2,-95.71 204.75,-93.02"/>
<polygon fill="#63b8ff" stroke="#63b8ff" points="93.71,-139.74 86.86,-147.82 97.26,-145.77 93.71,-139.74"/>
</a>
</g>
</g>
<!-- Node9 -->
<g id="Node000009" class="node">
<title>Node9</title>
<g id="a_Node000009"><a xlink:href="../../d4/d00/classbustub_1_1BoundUnaryOp.html" target="_top" xlink:title=" ">
<polygon fill="white" stroke="#666666" points="310.5,-56 181.5,-56 181.5,-37 310.5,-37 310.5,-56"/>
<text text-anchor="middle" x="246" y="-44" font-family="Helvetica,sans-Serif" font-size="10.00">bustub::BoundUnaryOp</text>
</a>
</g>
</g>
<!-- Node1&#45;&gt;Node9 -->
<g id="edge8_Node000001_Node000009" class="edge">
<title>Node1&#45;&gt;Node9</title>
<g id="a_edge8_Node000001_Node000009"><a xlink:title=" ">
<path fill="none" stroke="#63b8ff" d="M86.14,-140.13C105.12,-119.4 139.62,-85.1 176,-65.5 183.11,-61.67 191.06,-58.56 198.96,-56.05"/>
<polygon fill="#63b8ff" stroke="#63b8ff" points="83.28,-138.07 79.21,-147.85 88.49,-142.74 83.28,-138.07"/>
</a>
</g>
</g>
<!-- Node10 -->
<g id="Node000010" class="node">
<title>Node10</title>
<g id="a_Node000010"><a xlink:href="../../d3/df6/classbustub_1_1BoundWindow.html" target="_top" xlink:title=" ">
<polygon fill="white" stroke="#666666" points="308.5,-19 183.5,-19 183.5,0 308.5,0 308.5,-19"/>
<text text-anchor="middle" x="246" y="-7" font-family="Helvetica,sans-Serif" font-size="10.00">bustub::BoundWindow</text>
</a>
</g>
</g>
<!-- Node1&#45;&gt;Node10 -->
<g id="edge9_Node000001_Node000010" class="edge">
<title>Node1&#45;&gt;Node10</title>
<g id="a_edge9_Node000001_Node000010"><a xlink:title=" ">
<path fill="none" stroke="#63b8ff" d="M81.09,-138.82C97.3,-110.59 131.87,-57.3 176,-28.5 181.93,-24.63 188.64,-21.54 195.49,-19.08"/>
<polygon fill="#63b8ff" stroke="#63b8ff" points="77.96,-137.24 76.13,-147.68 84.07,-140.66 77.96,-137.24"/>
</a>
</g>
</g>
</g>
</svg>
