<?xml version="1.0" encoding="UTF-8" standalone="no"?>
<!DOCTYPE svg PUBLIC "-//W3C//DTD SVG 1.1//EN"
 "http://www.w3.org/Graphics/SVG/1.1/DTD/svg11.dtd">
<!-- Generated by graphviz version 2.43.0 (0)
 -->
<!-- Title: src/include/storage/page/hash_table_bucket_page.h Pages: 1 -->
<svg width="579pt" height="170pt"
 viewBox="0.00 0.00 579.00 170.00" xmlns="http://www.w3.org/2000/svg" xmlns:xlink="http://www.w3.org/1999/xlink">
<g id="graph0" class="graph" transform="scale(1 1) rotate(0) translate(4 166)">
<title>src/include/storage/page/hash_table_bucket_page.h</title>
<!-- Node1 -->
<g id="Node000001" class="node">
<title>Node1</title>
<g id="a_Node000001"><a xlink:title=" ">
<polygon fill="#999999" stroke="#666666" points="247,-162 110,-162 110,-121 247,-121 247,-162"/>
<text text-anchor="start" x="118" y="-150" font-family="Helvetica,sans-Serif" font-size="10.00">src/include/storage</text>
<text text-anchor="start" x="118" y="-139" font-family="Helvetica,sans-Serif" font-size="10.00">/page/hash_table_bucket</text>
<text text-anchor="middle" x="178.5" y="-128" font-family="Helvetica,sans-Serif" font-size="10.00">_page.h</text>
</a>
</g>
</g>
<!-- Node2 -->
<g id="Node000002" class="node">
<title>Node2</title>
<g id="a_Node000002"><a xlink:title=" ">
<polygon fill="#e0e0e0" stroke="#999999" points="45,-79.5 0,-79.5 0,-60.5 45,-60.5 45,-79.5"/>
<text text-anchor="middle" x="22.5" y="-67.5" font-family="Helvetica,sans-Serif" font-size="10.00">utility</text>
</a>
</g>
</g>
<!-- Node1&#45;&gt;Node2 -->
<g id="edge1_Node000001_Node000002" class="edge">
<title>Node1&#45;&gt;Node2</title>
<g id="a_edge1_Node000001_Node000002"><a xlink:title=" ">
<path fill="none" stroke="#63b8ff" d="M134.63,-120.96C107.82,-109.01 74.31,-94.08 50.93,-83.67"/>
<polygon fill="#63b8ff" stroke="#63b8ff" points="52.15,-80.38 41.59,-79.5 49.3,-86.77 52.15,-80.38"/>
</a>
</g>
</g>
<!-- Node3 -->
<g id="Node000003" class="node">
<title>Node3</title>
<g id="a_Node000003"><a xlink:title=" ">
<polygon fill="#e0e0e0" stroke="#999999" points="110,-79.5 63,-79.5 63,-60.5 110,-60.5 110,-79.5"/>
<text text-anchor="middle" x="86.5" y="-67.5" font-family="Helvetica,sans-Serif" font-size="10.00">vector</text>
</a>
</g>
</g>
<!-- Node1&#45;&gt;Node3 -->
<g id="edge2_Node000001_Node000003" class="edge">
<title>Node1&#45;&gt;Node3</title>
<g id="a_edge2_Node000001_Node000003"><a xlink:title=" ">
<path fill="none" stroke="#63b8ff" d="M152.38,-120.77C137.74,-109.71 119.77,-96.13 106.3,-85.96"/>
<polygon fill="#63b8ff" stroke="#63b8ff" points="108.26,-83.05 98.18,-79.82 104.04,-88.64 108.26,-83.05"/>
</a>
</g>
</g>
<!-- Node4 -->
<g id="Node000004" class="node">
<title>Node4</title>
<g id="a_Node000004"><a xlink:href="../../db/d16/config_8h.html" target="_top" xlink:title=" ">
<polygon fill="white" stroke="#666666" points="229,-79.5 128,-79.5 128,-60.5 229,-60.5 229,-79.5"/>
<text text-anchor="middle" x="178.5" y="-67.5" font-family="Helvetica,sans-Serif" font-size="10.00">common/config.h</text>
</a>
</g>
</g>
<!-- Node1&#45;&gt;Node4 -->
<g id="edge3_Node000001_Node000004" class="edge">
<title>Node1&#45;&gt;Node4</title>
<g id="a_edge3_Node000001_Node000004"><a xlink:title=" ">
<path fill="none" stroke="#63b8ff" d="M178.5,-120.77C178.5,-111.08 178.5,-99.46 178.5,-89.88"/>
<polygon fill="#63b8ff" stroke="#63b8ff" points="182,-89.82 178.5,-79.82 175,-89.82 182,-89.82"/>
</a>
</g>
</g>
<!-- Node8 -->
<g id="Node000008" class="node">
<title>Node8</title>
<g id="a_Node000008"><a xlink:href="../../d5/d78/int__comparator_8h.html" target="_top" xlink:title=" ">
<polygon fill="white" stroke="#666666" points="416,-79.5 247,-79.5 247,-60.5 416,-60.5 416,-79.5"/>
<text text-anchor="middle" x="331.5" y="-67.5" font-family="Helvetica,sans-Serif" font-size="10.00">storage/index/int_comparator.h</text>
</a>
</g>
</g>
<!-- Node1&#45;&gt;Node8 -->
<g id="edge7_Node000001_Node000008" class="edge">
<title>Node1&#45;&gt;Node8</title>
<g id="a_edge7_Node000001_Node000008"><a xlink:title=" ">
<path fill="none" stroke="#63b8ff" d="M221.53,-120.96C247.82,-109.01 280.69,-94.08 303.61,-83.67"/>
<polygon fill="#63b8ff" stroke="#63b8ff" points="305.12,-86.83 312.78,-79.5 302.23,-80.45 305.12,-86.83"/>
</a>
</g>
</g>
<!-- Node9 -->
<g id="Node000009" class="node">
<title>Node9</title>
<g id="a_Node000009"><a xlink:href="../../d6/d3b/hash__table__page__defs_8h.html" target="_top" xlink:title=" ">
<polygon fill="white" stroke="#666666" points="571,-85 434,-85 434,-55 571,-55 571,-85"/>
<text text-anchor="start" x="442" y="-73" font-family="Helvetica,sans-Serif" font-size="10.00">storage/page/hash_table</text>
<text text-anchor="middle" x="502.5" y="-62" font-family="Helvetica,sans-Serif" font-size="10.00">_page_defs.h</text>
</a>
</g>
</g>
<!-- Node1&#45;&gt;Node9 -->
<g id="edge8_Node000001_Node000009" class="edge">
<title>Node1&#45;&gt;Node9</title>
<g id="a_edge8_Node000001_Node000009"><a xlink:title=" ">
<path fill="none" stroke="#63b8ff" d="M247.21,-125.76C300.02,-114.43 372.9,-98.8 427.27,-87.14"/>
<polygon fill="#63b8ff" stroke="#63b8ff" points="428.16,-90.53 437.2,-85.01 426.69,-83.68 428.16,-90.53"/>
</a>
</g>
</g>
<!-- Node5 -->
<g id="Node000005" class="node">
<title>Node5</title>
<g id="a_Node000005"><a xlink:title=" ">
<polygon fill="#e0e0e0" stroke="#999999" points="135.5,-19 85.5,-19 85.5,0 135.5,0 135.5,-19"/>
<text text-anchor="middle" x="110.5" y="-7" font-family="Helvetica,sans-Serif" font-size="10.00">atomic</text>
</a>
</g>
</g>
<!-- Node4&#45;&gt;Node5 -->
<g id="edge4_Node000004_Node000005" class="edge">
<title>Node4&#45;&gt;Node5</title>
<g id="a_edge4_Node000004_Node000005"><a xlink:title=" ">
<path fill="none" stroke="#63b8ff" d="M168.47,-60.37C157.92,-51.3 141.11,-36.84 128.31,-25.82"/>
<polygon fill="#63b8ff" stroke="#63b8ff" points="130.44,-23.04 120.57,-19.17 125.87,-28.34 130.44,-23.04"/>
</a>
</g>
</g>
<!-- Node6 -->
<g id="Node000006" class="node">
<title>Node6</title>
<g id="a_Node000006"><a xlink:title=" ">
<polygon fill="#e0e0e0" stroke="#999999" points="203.5,-19 153.5,-19 153.5,0 203.5,0 203.5,-19"/>
<text text-anchor="middle" x="178.5" y="-7" font-family="Helvetica,sans-Serif" font-size="10.00">chrono</text>
</a>
</g>
</g>
<!-- Node4&#45;&gt;Node6 -->
<g id="edge5_Node000004_Node000006" class="edge">
<title>Node4&#45;&gt;Node6</title>
<g id="a_edge5_Node000004_Node000006"><a xlink:title=" ">
<path fill="none" stroke="#63b8ff" d="M178.5,-60.37C178.5,-52.25 178.5,-39.81 178.5,-29.39"/>
<polygon fill="#63b8ff" stroke="#63b8ff" points="182,-29.17 178.5,-19.17 175,-29.17 182,-29.17"/>
</a>
</g>
</g>
<!-- Node7 -->
<g id="Node000007" class="node">
<title>Node7</title>
<g id="a_Node000007"><a xlink:title=" ">
<polygon fill="#e0e0e0" stroke="#999999" points="271.5,-19 221.5,-19 221.5,0 271.5,0 271.5,-19"/>
<text text-anchor="middle" x="246.5" y="-7" font-family="Helvetica,sans-Serif" font-size="10.00">cstdint</text>
</a>
</g>
</g>
<!-- Node4&#45;&gt;Node7 -->
<g id="edge6_Node000004_Node000007" class="edge">
<title>Node4&#45;&gt;Node7</title>
<g id="a_edge6_Node000004_Node000007"><a xlink:title=" ">
<path fill="none" stroke="#63b8ff" d="M188.53,-60.37C199.08,-51.3 215.89,-36.84 228.69,-25.82"/>
<polygon fill="#63b8ff" stroke="#63b8ff" points="231.13,-28.34 236.43,-19.17 226.56,-23.04 231.13,-28.34"/>
</a>
</g>
</g>
</g>
</svg>
