<?xml version="1.0" encoding="UTF-8" standalone="no"?>
<!DOCTYPE svg PUBLIC "-//W3C//DTD SVG 1.1//EN"
 "http://www.w3.org/Graphics/SVG/1.1/DTD/svg11.dtd">
<!-- Generated by graphviz version 2.43.0 (0)
 -->
<!-- Title: bustub::BoundConstant Pages: 1 -->
<svg width="260pt" height="159pt"
 viewBox="0.00 0.00 260.00 159.00" xmlns="http://www.w3.org/2000/svg" xmlns:xlink="http://www.w3.org/1999/xlink">
<g id="graph0" class="graph" transform="scale(1 1) rotate(0) translate(4 155)">
<title>bustub::BoundConstant</title>
<!-- Node1 -->
<g id="Node000001" class="node">
<title>Node1</title>
<g id="a_Node000001"><a xlink:title=" ">
<polygon fill="#999999" stroke="#666666" points="151,-19 21,-19 21,0 151,0 151,-19"/>
<text text-anchor="middle" x="86" y="-7" font-family="Helvetica,sans-Serif" font-size="10.00">bustub::BoundConstant</text>
</a>
</g>
</g>
<!-- Node2 -->
<g id="Node000002" class="node">
<title>Node2</title>
<g id="a_Node000002"><a xlink:href="../../de/d78/classbustub_1_1BoundExpression.html" target="_top" xlink:title=" ">
<polygon fill="white" stroke="#666666" points="140,-85 0,-85 0,-66 140,-66 140,-85"/>
<text text-anchor="middle" x="70" y="-73" font-family="Helvetica,sans-Serif" font-size="10.00">bustub::BoundExpression</text>
</a>
</g>
</g>
<!-- Node2&#45;&gt;Node1 -->
<g id="edge1_Node000001_Node000002" class="edge">
<title>Node2&#45;&gt;Node1</title>
<g id="a_edge1_Node000001_Node000002"><a xlink:title=" ">
<path fill="none" stroke="#63b8ff" d="M74.64,-55.95C77.64,-43.93 81.42,-28.82 83.77,-19.41"/>
<polygon fill="#63b8ff" stroke="#63b8ff" points="71.19,-55.32 72.16,-65.87 77.98,-57.02 71.19,-55.32"/>
</a>
</g>
</g>
<!-- Node3 -->
<g id="Node000003" class="node">
<title>Node3</title>
<g id="a_Node000003"><a xlink:href="../../d4/df7/classbustub_1_1Value.html" target="_top" xlink:title=" ">
<polygon fill="white" stroke="#666666" points="241.5,-85 158.5,-85 158.5,-66 241.5,-66 241.5,-85"/>
<text text-anchor="middle" x="200" y="-73" font-family="Helvetica,sans-Serif" font-size="10.00">bustub::Value</text>
</a>
</g>
</g>
<!-- Node3&#45;&gt;Node1 -->
<g id="edge2_Node000001_Node000003" class="edge">
<title>Node3&#45;&gt;Node1</title>
<g id="a_edge2_Node000001_Node000003"><a xlink:title=" ">
<path fill="none" stroke="#9a32cd" stroke-dasharray="5,2" d="M175.7,-60.86C153.26,-48.26 120.59,-29.92 101.5,-19.2"/>
<polygon fill="#9a32cd" stroke="#9a32cd" points="174.19,-64.03 184.63,-65.87 177.62,-57.92 174.19,-64.03"/>
</a>
</g>
<text text-anchor="middle" x="161" y="-40" font-family="Helvetica,sans-Serif" font-size="10.00" fill="grey"> val_</text>
</g>
<!-- Node4 -->
<g id="Node000004" class="node">
<title>Node4</title>
<g id="a_Node000004"><a xlink:href="../../d7/db9/unionbustub_1_1Value_1_1Val.html" target="_top" xlink:title=" ">
<polygon fill="white" stroke="#666666" points="252,-151 148,-151 148,-132 252,-132 252,-151"/>
<text text-anchor="middle" x="200" y="-139" font-family="Helvetica,sans-Serif" font-size="10.00">bustub::Value::Val</text>
</a>
</g>
</g>
<!-- Node4&#45;&gt;Node3 -->
<g id="edge3_Node000003_Node000004" class="edge">
<title>Node4&#45;&gt;Node3</title>
<g id="a_edge3_Node000003_Node000004"><a xlink:title=" ">
<path fill="none" stroke="#9a32cd" stroke-dasharray="5,2" d="M200,-121.58C200,-109.63 200,-94.72 200,-85.41"/>
<polygon fill="#9a32cd" stroke="#9a32cd" points="196.5,-121.87 200,-131.87 203.5,-121.87 196.5,-121.87"/>
</a>
</g>
<text text-anchor="middle" x="218" y="-106" font-family="Helvetica,sans-Serif" font-size="10.00" fill="grey"> value_</text>
</g>
</g>
</svg>
