<?xml version="1.0" encoding="UTF-8" standalone="no"?>
<!DOCTYPE svg PUBLIC "-//W3C//DTD SVG 1.1//EN"
 "http://www.w3.org/Graphics/SVG/1.1/DTD/svg11.dtd">
<!-- Generated by graphviz version 2.43.0 (0)
 -->
<!-- Title: bustub::LinearProbeHashTable&lt; KeyType, ValueType, KeyComparator &gt; Pages: 1 -->
<svg width="325pt" height="236pt"
 viewBox="0.00 0.00 324.50 236.00" xmlns="http://www.w3.org/2000/svg" xmlns:xlink="http://www.w3.org/1999/xlink">

<svg id="main" version="1.1" xmlns="http://www.w3.org/2000/svg" xmlns:xlink="http://www.w3.org/1999/xlink" xml:space="preserve" onload="init(evt)">
<style type="text/css"><![CDATA[
.node, .edge {opacity: 0.7;}
.node.selected, .edge.selected {opacity: 1;}
.edge:hover path { stroke: red; }
.edge:hover polygon { stroke: red; fill: red; }
]]></style>
<script type="application/ecmascript" xlink:href="../../svg.min.js"/>
<svg id="graph" class="graph">
<g id="graph0" class="graph" transform="scale(1 1) rotate(0) translate(4 232)">
<title>bustub::LinearProbeHashTable&lt; KeyType, ValueType, KeyComparator &gt;</title>
<!-- Node1 -->
<g id="Node000001" class="node">
<title>Node1</title>
<g id="a_Node000001"><a xlink:title=" ">
<polygon fill="#999999" stroke="#666666" points="217,-30 0,-30 0,0 217,0 217,-30"/>
<text text-anchor="start" x="8" y="-18" font-family="Helvetica,sans-Serif" font-size="10.00">bustub::LinearProbeHashTable</text>
<text text-anchor="middle" x="108.5" y="-7" font-family="Helvetica,sans-Serif" font-size="10.00">&lt; KeyType, ValueType, KeyComparator &gt;</text>
</a>
</g>
</g>
<!-- Node2 -->
<g id="Node000002" class="node">
<title>Node2</title>
<g id="a_Node000002"><a xlink:href="../../d6/d5d/classbustub_1_1BufferPoolManager.html" target="_top" xlink:title=" ">
<polygon fill="white" stroke="#666666" points="252,-96 103,-96 103,-77 252,-77 252,-96"/>
<text text-anchor="middle" x="177.5" y="-84" font-family="Helvetica,sans-Serif" font-size="10.00">bustub::BufferPoolManager</text>
</a>
</g>
</g>
<!-- Node2&#45;&gt;Node1 -->
<g id="edge1_Node000001_Node000002" class="edge">
<title>Node2&#45;&gt;Node1</title>
<g id="a_edge1_Node000001_Node000002"><a xlink:title=" ">
<path fill="none" stroke="#9a32cd" stroke-dasharray="5,2" d="M161.98,-69.87C150.15,-57.95 133.99,-41.67 122.54,-30.14"/>
<polygon fill="#9a32cd" stroke="#9a32cd" points="159.51,-72.35 169.04,-76.98 164.48,-67.42 159.51,-72.35"/>
</a>
</g>
<text text-anchor="middle" x="205.5" y="-51" font-family="Helvetica,sans-Serif" font-size="10.00" fill="grey"> buffer_pool_manager_</text>
</g>
<!-- Node3 -->
<g id="Node000003" class="node">
<title>Node3</title>
<g id="a_Node000003"><a xlink:href="../../d4/d87/classbustub_1_1Page.html" target="_top" xlink:title=" ">
<polygon fill="white" stroke="#666666" points="183,-162 104,-162 104,-143 183,-143 183,-162"/>
<text text-anchor="middle" x="143.5" y="-150" font-family="Helvetica,sans-Serif" font-size="10.00">bustub::Page</text>
</a>
</g>
</g>
<!-- Node3&#45;&gt;Node2 -->
<g id="edge2_Node000002_Node000003" class="edge">
<title>Node3&#45;&gt;Node2</title>
<g id="a_edge2_Node000002_Node000003"><a xlink:title=" ">
<path fill="none" stroke="#9a32cd" stroke-dasharray="5,2" d="M152.96,-133.68C159.41,-121.55 167.67,-106.01 172.77,-96.41"/>
<polygon fill="#9a32cd" stroke="#9a32cd" points="149.69,-132.4 148.09,-142.87 155.87,-135.68 149.69,-132.4"/>
</a>
</g>
<text text-anchor="middle" x="182.5" y="-117" font-family="Helvetica,sans-Serif" font-size="10.00" fill="grey"> pages_</text>
</g>
<!-- Node4 -->
<g id="Node000004" class="node">
<title>Node4</title>
<g id="a_Node000004"><a xlink:href="../../d8/dbd/classbustub_1_1ReaderWriterLatch.html" target="_top" xlink:title=" ">
<polygon fill="white" stroke="#666666" points="164.5,-228 18.5,-228 18.5,-209 164.5,-209 164.5,-228"/>
<text text-anchor="middle" x="91.5" y="-216" font-family="Helvetica,sans-Serif" font-size="10.00">bustub::ReaderWriterLatch</text>
</a>
</g>
</g>
<!-- Node4&#45;&gt;Node1 -->
<g id="edge5_Node000001_Node000004" class="edge">
<title>Node4&#45;&gt;Node1</title>
<g id="a_edge5_Node000001_Node000004"><a xlink:title=" ">
<path fill="none" stroke="#9a32cd" stroke-dasharray="5,2" d="M90.33,-198.53C89.02,-171.41 87.85,-120.06 94.5,-77 96.99,-60.89 101.37,-42.72 104.57,-30.43"/>
<polygon fill="#9a32cd" stroke="#9a32cd" points="86.86,-199.09 90.9,-208.88 93.85,-198.7 86.86,-199.09"/>
</a>
</g>
<text text-anchor="middle" x="123" y="-117" font-family="Helvetica,sans-Serif" font-size="10.00" fill="grey"> table_latch_</text>
</g>
<!-- Node4&#45;&gt;Node3 -->
<g id="edge3_Node000003_Node000004" class="edge">
<title>Node4&#45;&gt;Node3</title>
<g id="a_edge3_Node000003_Node000004"><a xlink:title=" ">
<path fill="none" stroke="#9a32cd" stroke-dasharray="5,2" d="M105.1,-200.77C115.07,-188.49 128.23,-172.3 136.26,-162.41"/>
<polygon fill="#9a32cd" stroke="#9a32cd" points="102.1,-198.9 98.51,-208.87 107.54,-203.31 102.1,-198.9"/>
</a>
</g>
<text text-anchor="middle" x="144" y="-183" font-family="Helvetica,sans-Serif" font-size="10.00" fill="grey"> rwlatch_</text>
</g>
<!-- Node5 -->
<g id="Node000005" class="node">
<title>Node5</title>
<g id="a_Node000005"><a xlink:href="../../d7/d4e/classbustub_1_1LogManager.html" target="_top" xlink:title=" ">
<polygon fill="white" stroke="#666666" points="316.5,-162 200.5,-162 200.5,-143 316.5,-143 316.5,-162"/>
<text text-anchor="middle" x="258.5" y="-150" font-family="Helvetica,sans-Serif" font-size="10.00">bustub::LogManager</text>
</a>
</g>
</g>
<!-- Node5&#45;&gt;Node2 -->
<g id="edge4_Node000002_Node000005" class="edge">
<title>Node5&#45;&gt;Node2</title>
<g id="a_edge4_Node000002_Node000005"><a xlink:title=" ">
<path fill="none" stroke="#9a32cd" stroke-dasharray="5,2" d="M239.5,-136.49C223.64,-123.96 201.59,-106.54 188.51,-96.2"/>
<polygon fill="#9a32cd" stroke="#9a32cd" points="237.56,-139.42 247.58,-142.87 241.9,-133.92 237.56,-139.42"/>
</a>
</g>
<text text-anchor="middle" x="259" y="-117" font-family="Helvetica,sans-Serif" font-size="10.00" fill="grey"> log_manager_</text>
</g>
</g>
</svg>
</svg>

<style type='text/css'>
<![CDATA[
[data-mouse-over-selected='false'] { opacity: 0.7; }
[data-mouse-over-selected='true']  { opacity: 1.0; }
]]>
</style>
<script type="application/ecmascript"><![CDATA[
document.addEventListener('DOMContentLoaded', (event) => {
  highlightEdges();
  highlightAdjacentNodes();
});
]]></script>
</svg>
