<?xml version="1.0" encoding="UTF-8" standalone="no"?>
<!DOCTYPE svg PUBLIC "-//W3C//DTD SVG 1.1//EN"
 "http://www.w3.org/Graphics/SVG/1.1/DTD/svg11.dtd">
<!-- Generated by graphviz version 2.43.0 (0)
 -->
<!-- Title: src/storage/page/extendible_htable_header_page.cpp Pages: 1 -->
<svg width="436pt" height="214pt"
 viewBox="0.00 0.00 435.50 214.00" xmlns="http://www.w3.org/2000/svg" xmlns:xlink="http://www.w3.org/1999/xlink">
<g id="graph0" class="graph" transform="scale(1 1) rotate(0) translate(4 210)">
<title>src/storage/page/extendible_htable_header_page.cpp</title>
<!-- Node1 -->
<g id="Node000001" class="node">
<title>Node1</title>
<g id="a_Node000001"><a xlink:title=" ">
<polygon fill="#999999" stroke="#666666" points="304.5,-206 152.5,-206 152.5,-176 304.5,-176 304.5,-206"/>
<text text-anchor="start" x="160.5" y="-194" font-family="Helvetica,sans-Serif" font-size="10.00">src/storage/page/extendible</text>
<text text-anchor="middle" x="228.5" y="-183" font-family="Helvetica,sans-Serif" font-size="10.00">_htable_header_page.cpp</text>
</a>
</g>
</g>
<!-- Node2 -->
<g id="Node000002" class="node">
<title>Node2</title>
<g id="a_Node000002"><a xlink:href="../../dd/d8b/extendible__htable__header__page_8h.html" target="_top" xlink:title=" ">
<polygon fill="white" stroke="#666666" points="181,-140 46,-140 46,-110 181,-110 181,-140"/>
<text text-anchor="start" x="54" y="-128" font-family="Helvetica,sans-Serif" font-size="10.00">storage/page/extendible</text>
<text text-anchor="middle" x="113.5" y="-117" font-family="Helvetica,sans-Serif" font-size="10.00">_htable_header_page.h</text>
</a>
</g>
</g>
<!-- Node1&#45;&gt;Node2 -->
<g id="edge1_Node000001_Node000002" class="edge">
<title>Node1&#45;&gt;Node2</title>
<g id="a_edge1_Node000001_Node000002"><a xlink:title=" ">
<path fill="none" stroke="#63b8ff" d="M203.26,-175.95C186.93,-166.87 165.48,-154.93 147.63,-145"/>
<polygon fill="#63b8ff" stroke="#63b8ff" points="149.12,-141.82 138.68,-140.01 145.71,-147.93 149.12,-141.82"/>
</a>
</g>
</g>
<!-- Node4 -->
<g id="Node000004" class="node">
<title>Node4</title>
<g id="a_Node000004"><a xlink:href="../../db/d16/config_8h.html" target="_top" xlink:title=" ">
<polygon fill="white" stroke="#666666" points="339,-74 238,-74 238,-55 339,-55 339,-74"/>
<text text-anchor="middle" x="288.5" y="-62" font-family="Helvetica,sans-Serif" font-size="10.00">common/config.h</text>
</a>
</g>
</g>
<!-- Node1&#45;&gt;Node4 -->
<g id="edge13_Node000001_Node000004" class="edge">
<title>Node1&#45;&gt;Node4</title>
<g id="a_edge13_Node000001_Node000004"><a xlink:title=" ">
<path fill="none" stroke="#63b8ff" d="M235.16,-175.81C242.69,-159.79 255.37,-132.97 266.5,-110 270.83,-101.07 275.72,-91.17 279.78,-82.97"/>
<polygon fill="#63b8ff" stroke="#63b8ff" points="282.92,-84.52 284.24,-74.01 276.65,-81.4 282.92,-84.52"/>
</a>
</g>
</g>
<!-- Node9 -->
<g id="Node000009" class="node">
<title>Node9</title>
<g id="a_Node000009"><a xlink:title=" ">
<polygon fill="#e0e0e0" stroke="#999999" points="223.5,-19 171.5,-19 171.5,0 223.5,0 223.5,-19"/>
<text text-anchor="middle" x="197.5" y="-7" font-family="Helvetica,sans-Serif" font-size="10.00">cassert</text>
</a>
</g>
</g>
<!-- Node1&#45;&gt;Node9 -->
<g id="edge12_Node000001_Node000009" class="edge">
<title>Node1&#45;&gt;Node9</title>
<g id="a_edge12_Node000001_Node000009"><a xlink:title=" ">
<path fill="none" stroke="#63b8ff" d="M226.07,-175.91C220.53,-143.85 206.98,-65.38 200.74,-29.26"/>
<polygon fill="#63b8ff" stroke="#63b8ff" points="204.14,-28.39 198.99,-19.13 197.24,-29.58 204.14,-28.39"/>
</a>
</g>
</g>
<!-- Node12 -->
<g id="Node000012" class="node">
<title>Node12</title>
<g id="a_Node000012"><a xlink:title=" ">
<polygon fill="#e0e0e0" stroke="#999999" points="339.5,-134.5 275.5,-134.5 275.5,-115.5 339.5,-115.5 339.5,-134.5"/>
<text text-anchor="middle" x="307.5" y="-122.5" font-family="Helvetica,sans-Serif" font-size="10.00">algorithm</text>
</a>
</g>
</g>
<!-- Node1&#45;&gt;Node12 -->
<g id="edge11_Node000001_Node000012" class="edge">
<title>Node1&#45;&gt;Node12</title>
<g id="a_edge11_Node000001_Node000012"><a xlink:title=" ">
<path fill="none" stroke="#63b8ff" d="M246.03,-175.8C258.71,-165.53 275.82,-151.67 288.76,-141.18"/>
<polygon fill="#63b8ff" stroke="#63b8ff" points="291.02,-143.86 296.58,-134.84 286.61,-138.42 291.02,-143.86"/>
</a>
</g>
</g>
<!-- Node3 -->
<g id="Node000003" class="node">
<title>Node3</title>
<g id="a_Node000003"><a xlink:title=" ">
<polygon fill="#e0e0e0" stroke="#999999" points="49,-74 0,-74 0,-55 49,-55 49,-74"/>
<text text-anchor="middle" x="24.5" y="-62" font-family="Helvetica,sans-Serif" font-size="10.00">cstdlib</text>
</a>
</g>
</g>
<!-- Node2&#45;&gt;Node3 -->
<g id="edge2_Node000002_Node000003" class="edge">
<title>Node2&#45;&gt;Node3</title>
<g id="a_edge2_Node000002_Node000003"><a xlink:title=" ">
<path fill="none" stroke="#63b8ff" d="M91.96,-109.84C78.03,-100.68 59.97,-88.82 46.05,-79.66"/>
<polygon fill="#63b8ff" stroke="#63b8ff" points="47.85,-76.66 37.58,-74.09 44.01,-82.51 47.85,-76.66"/>
</a>
</g>
</g>
<!-- Node2&#45;&gt;Node4 -->
<g id="edge3_Node000002_Node000004" class="edge">
<title>Node2&#45;&gt;Node4</title>
<g id="a_edge3_Node000002_Node000004"><a xlink:title=" ">
<path fill="none" stroke="#63b8ff" d="M155.42,-109.99C185.23,-100.02 224.83,-86.78 253.06,-77.35"/>
<polygon fill="#63b8ff" stroke="#63b8ff" points="254.54,-80.54 262.91,-74.05 252.32,-73.9 254.54,-80.54"/>
</a>
</g>
</g>
<!-- Node8 -->
<g id="Node000008" class="node">
<title>Node8</title>
<g id="a_Node000008"><a xlink:href="../../de/d3c/macros_8h.html" target="_top" xlink:title=" ">
<polygon fill="white" stroke="#666666" points="174,-74 67,-74 67,-55 174,-55 174,-74"/>
<text text-anchor="middle" x="120.5" y="-62" font-family="Helvetica,sans-Serif" font-size="10.00">common/macros.h</text>
</a>
</g>
</g>
<!-- Node2&#45;&gt;Node8 -->
<g id="edge7_Node000002_Node000008" class="edge">
<title>Node2&#45;&gt;Node8</title>
<g id="a_edge7_Node000002_Node000008"><a xlink:title=" ">
<path fill="none" stroke="#63b8ff" d="M115.19,-109.84C116.11,-102.21 117.24,-92.7 118.23,-84.45"/>
<polygon fill="#63b8ff" stroke="#63b8ff" points="121.74,-84.61 119.45,-74.27 114.79,-83.78 121.74,-84.61"/>
</a>
</g>
</g>
<!-- Node5 -->
<g id="Node000005" class="node">
<title>Node5</title>
<g id="a_Node000005"><a xlink:title=" ">
<polygon fill="#e0e0e0" stroke="#999999" points="359.5,-19 309.5,-19 309.5,0 359.5,0 359.5,-19"/>
<text text-anchor="middle" x="334.5" y="-7" font-family="Helvetica,sans-Serif" font-size="10.00">atomic</text>
</a>
</g>
</g>
<!-- Node4&#45;&gt;Node5 -->
<g id="edge4_Node000004_Node000005" class="edge">
<title>Node4&#45;&gt;Node5</title>
<g id="a_edge4_Node000004_Node000005"><a xlink:title=" ">
<path fill="none" stroke="#63b8ff" d="M296.1,-54.75C302.66,-47.18 312.32,-36.05 320.31,-26.84"/>
<polygon fill="#63b8ff" stroke="#63b8ff" points="323.13,-28.94 327.05,-19.09 317.85,-24.35 323.13,-28.94"/>
</a>
</g>
</g>
<!-- Node6 -->
<g id="Node000006" class="node">
<title>Node6</title>
<g id="a_Node000006"><a xlink:title=" ">
<polygon fill="#e0e0e0" stroke="#999999" points="427.5,-19 377.5,-19 377.5,0 427.5,0 427.5,-19"/>
<text text-anchor="middle" x="402.5" y="-7" font-family="Helvetica,sans-Serif" font-size="10.00">chrono</text>
</a>
</g>
</g>
<!-- Node4&#45;&gt;Node6 -->
<g id="edge5_Node000004_Node000006" class="edge">
<title>Node4&#45;&gt;Node6</title>
<g id="a_edge5_Node000004_Node000006"><a xlink:title=" ">
<path fill="none" stroke="#63b8ff" d="M306.82,-54.98C325.16,-46.46 353.61,-33.23 374.73,-23.41"/>
<polygon fill="#63b8ff" stroke="#63b8ff" points="376.26,-26.56 383.85,-19.17 373.31,-20.21 376.26,-26.56"/>
</a>
</g>
</g>
<!-- Node7 -->
<g id="Node000007" class="node">
<title>Node7</title>
<g id="a_Node000007"><a xlink:title=" ">
<polygon fill="#e0e0e0" stroke="#999999" points="291.5,-19 241.5,-19 241.5,0 291.5,0 291.5,-19"/>
<text text-anchor="middle" x="266.5" y="-7" font-family="Helvetica,sans-Serif" font-size="10.00">cstdint</text>
</a>
</g>
</g>
<!-- Node4&#45;&gt;Node7 -->
<g id="edge6_Node000004_Node000007" class="edge">
<title>Node4&#45;&gt;Node7</title>
<g id="a_edge6_Node000004_Node000007"><a xlink:title=" ">
<path fill="none" stroke="#63b8ff" d="M284.87,-54.75C281.92,-47.65 277.67,-37.4 273.99,-28.56"/>
<polygon fill="#63b8ff" stroke="#63b8ff" points="277.13,-26.98 270.07,-19.09 270.67,-29.67 277.13,-26.98"/>
</a>
</g>
</g>
<!-- Node8&#45;&gt;Node9 -->
<g id="edge8_Node000008_Node000009" class="edge">
<title>Node8&#45;&gt;Node9</title>
<g id="a_edge8_Node000008_Node000009"><a xlink:title=" ">
<path fill="none" stroke="#63b8ff" d="M132.87,-54.98C144.59,-46.92 162.42,-34.65 176.39,-25.03"/>
<polygon fill="#63b8ff" stroke="#63b8ff" points="178.65,-27.72 184.9,-19.17 174.68,-21.96 178.65,-27.72"/>
</a>
</g>
</g>
<!-- Node10 -->
<g id="Node000010" class="node">
<title>Node10</title>
<g id="a_Node000010"><a xlink:title=" ">
<polygon fill="#e0e0e0" stroke="#999999" points="70,-19 5,-19 5,0 70,0 70,-19"/>
<text text-anchor="middle" x="37.5" y="-7" font-family="Helvetica,sans-Serif" font-size="10.00">exception</text>
</a>
</g>
</g>
<!-- Node8&#45;&gt;Node10 -->
<g id="edge9_Node000008_Node000010" class="edge">
<title>Node8&#45;&gt;Node10</title>
<g id="a_edge9_Node000008_Node000010"><a xlink:title=" ">
<path fill="none" stroke="#63b8ff" d="M107.16,-54.98C94.41,-46.84 74.95,-34.41 59.83,-24.76"/>
<polygon fill="#63b8ff" stroke="#63b8ff" points="61.39,-21.6 51.08,-19.17 57.62,-27.5 61.39,-21.6"/>
</a>
</g>
</g>
<!-- Node11 -->
<g id="Node000011" class="node">
<title>Node11</title>
<g id="a_Node000011"><a xlink:title=" ">
<polygon fill="#e0e0e0" stroke="#999999" points="153,-19 88,-19 88,0 153,0 153,-19"/>
<text text-anchor="middle" x="120.5" y="-7" font-family="Helvetica,sans-Serif" font-size="10.00">stdexcept</text>
</a>
</g>
</g>
<!-- Node8&#45;&gt;Node11 -->
<g id="edge10_Node000008_Node000011" class="edge">
<title>Node8&#45;&gt;Node11</title>
<g id="a_edge10_Node000008_Node000011"><a xlink:title=" ">
<path fill="none" stroke="#63b8ff" d="M120.5,-54.75C120.5,-47.8 120.5,-37.85 120.5,-29.13"/>
<polygon fill="#63b8ff" stroke="#63b8ff" points="124,-29.09 120.5,-19.09 117,-29.09 124,-29.09"/>
</a>
</g>
</g>
</g>
</svg>
