<?xml version="1.0" encoding="UTF-8" standalone="no"?>
<!DOCTYPE svg PUBLIC "-//W3C//DTD SVG 1.1//EN"
 "http://www.w3.org/Graphics/SVG/1.1/DTD/svg11.dtd">
<!-- Generated by graphviz version 2.43.0 (0)
 -->
<!-- Title: src/include/planner/planner.h Pages: 1 -->
<svg width="1811pt" height="104pt"
 viewBox="0.00 0.00 1810.50 104.00" xmlns="http://www.w3.org/2000/svg" xmlns:xlink="http://www.w3.org/1999/xlink">
<g id="graph0" class="graph" transform="scale(1 1) rotate(0) translate(4 100)">
<title>src/include/planner/planner.h</title>
<!-- Node1 -->
<g id="Node000001" class="node">
<title>Node1</title>
<g id="a_Node000001"><a xlink:title=" ">
<polygon fill="#999999" stroke="#666666" points="1016,-96 907,-96 907,-66 1016,-66 1016,-96"/>
<text text-anchor="start" x="915" y="-84" font-family="Helvetica,sans-Serif" font-size="10.00">src/include/planner</text>
<text text-anchor="middle" x="961.5" y="-73" font-family="Helvetica,sans-Serif" font-size="10.00">/planner.h</text>
</a>
</g>
</g>
<!-- Node2 -->
<g id="Node000002" class="node">
<title>Node2</title>
<g id="a_Node000002"><a xlink:href="../../dc/de0/bustub__ddl_8cpp.html" target="_top" xlink:title=" ">
<polygon fill="white" stroke="#666666" points="153,-24.5 0,-24.5 0,-5.5 153,-5.5 153,-24.5"/>
<text text-anchor="middle" x="76.5" y="-12.5" font-family="Helvetica,sans-Serif" font-size="10.00">src/common/bustub_ddl.cpp</text>
</a>
</g>
</g>
<!-- Node1&#45;&gt;Node2 -->
<g id="edge1_Node000001_Node000002" class="edge">
<title>Node1&#45;&gt;Node2</title>
<g id="a_edge1_Node000001_Node000002"><a xlink:title=" ">
<path fill="none" stroke="#63b8ff" d="M896.24,-78.15C759.57,-73.79 433.39,-60.81 161.5,-30 149.02,-28.59 135.57,-26.59 123.15,-24.55"/>
<polygon fill="#63b8ff" stroke="#63b8ff" points="896.43,-81.66 906.53,-78.47 896.65,-74.66 896.43,-81.66"/>
</a>
</g>
</g>
<!-- Node3 -->
<g id="Node000003" class="node">
<title>Node3</title>
<g id="a_Node000003"><a xlink:href="../../da/d08/bustub__instance_8cpp.html" target="_top" xlink:title=" ">
<polygon fill="white" stroke="#666666" points="350,-24.5 171,-24.5 171,-5.5 350,-5.5 350,-24.5"/>
<text text-anchor="middle" x="260.5" y="-12.5" font-family="Helvetica,sans-Serif" font-size="10.00">src/common/bustub_instance.cpp</text>
</a>
</g>
</g>
<!-- Node1&#45;&gt;Node3 -->
<g id="edge2_Node000001_Node000003" class="edge">
<title>Node1&#45;&gt;Node3</title>
<g id="a_edge2_Node000001_Node000003"><a xlink:title=" ">
<path fill="none" stroke="#63b8ff" d="M896.95,-75.91C786.47,-68.62 554.12,-52.06 358.5,-30 344.75,-28.45 329.96,-26.49 316.14,-24.53"/>
<polygon fill="#63b8ff" stroke="#63b8ff" points="896.72,-79.4 906.93,-76.56 897.18,-72.41 896.72,-79.4"/>
</a>
</g>
</g>
<!-- Node4 -->
<g id="Node000004" class="node">
<title>Node4</title>
<g id="a_Node000004"><a xlink:href="../../df/dfb/expression__factory_8cpp.html" target="_top" xlink:title=" ">
<polygon fill="white" stroke="#666666" points="495,-30 368,-30 368,0 495,0 495,-30"/>
<text text-anchor="start" x="376" y="-18" font-family="Helvetica,sans-Serif" font-size="10.00">src/planner/expression</text>
<text text-anchor="middle" x="431.5" y="-7" font-family="Helvetica,sans-Serif" font-size="10.00">_factory.cpp</text>
</a>
</g>
</g>
<!-- Node1&#45;&gt;Node4 -->
<g id="edge3_Node000001_Node000004" class="edge">
<title>Node1&#45;&gt;Node4</title>
<g id="a_edge3_Node000001_Node000004"><a xlink:title=" ">
<path fill="none" stroke="#63b8ff" d="M896.46,-74.62C807.47,-66.86 642.9,-51.12 503.5,-30 500.73,-29.58 497.9,-29.13 495.05,-28.66"/>
<polygon fill="#63b8ff" stroke="#63b8ff" points="896.41,-78.13 906.67,-75.5 897.01,-71.15 896.41,-78.13"/>
</a>
</g>
</g>
<!-- Node5 -->
<g id="Node000005" class="node">
<title>Node5</title>
<g id="a_Node000005"><a xlink:href="../../da/de4/plan__aggregation_8cpp.html" target="_top" xlink:title=" ">
<polygon fill="white" stroke="#666666" points="692,-24.5 513,-24.5 513,-5.5 692,-5.5 692,-24.5"/>
<text text-anchor="middle" x="602.5" y="-12.5" font-family="Helvetica,sans-Serif" font-size="10.00">src/planner/plan_aggregation.cpp</text>
</a>
</g>
</g>
<!-- Node1&#45;&gt;Node5 -->
<g id="edge4_Node000001_Node000005" class="edge">
<title>Node1&#45;&gt;Node5</title>
<g id="a_edge4_Node000001_Node000005"><a xlink:title=" ">
<path fill="none" stroke="#63b8ff" d="M896.82,-68.47C825.9,-55.83 713.77,-35.84 650.34,-24.53"/>
<polygon fill="#63b8ff" stroke="#63b8ff" points="896.52,-71.97 906.98,-70.28 897.75,-65.08 896.52,-71.97"/>
</a>
</g>
</g>
<!-- Node6 -->
<g id="Node000006" class="node">
<title>Node6</title>
<g id="a_Node000006"><a xlink:href="../../d0/d29/plan__expression_8cpp.html" target="_top" xlink:title=" ">
<polygon fill="white" stroke="#666666" points="883,-24.5 710,-24.5 710,-5.5 883,-5.5 883,-24.5"/>
<text text-anchor="middle" x="796.5" y="-12.5" font-family="Helvetica,sans-Serif" font-size="10.00">src/planner/plan_expression.cpp</text>
</a>
</g>
</g>
<!-- Node1&#45;&gt;Node6 -->
<g id="edge5_Node000001_Node000006" class="edge">
<title>Node1&#45;&gt;Node6</title>
<g id="a_edge5_Node000001_Node000006"><a xlink:title=" ">
<path fill="none" stroke="#63b8ff" d="M915.76,-62.26C884.03,-49.95 843.18,-34.11 818.46,-24.52"/>
<polygon fill="#63b8ff" stroke="#63b8ff" points="914.7,-65.6 925.29,-65.95 917.23,-59.08 914.7,-65.6"/>
</a>
</g>
</g>
<!-- Node7 -->
<g id="Node000007" class="node">
<title>Node7</title>
<g id="a_Node000007"><a xlink:href="../../d6/da3/plan__func__call_8cpp.html" target="_top" xlink:title=" ">
<polygon fill="white" stroke="#666666" points="1022,-30 901,-30 901,0 1022,0 1022,-30"/>
<text text-anchor="start" x="909" y="-18" font-family="Helvetica,sans-Serif" font-size="10.00">src/planner/plan_func</text>
<text text-anchor="middle" x="961.5" y="-7" font-family="Helvetica,sans-Serif" font-size="10.00">_call.cpp</text>
</a>
</g>
</g>
<!-- Node1&#45;&gt;Node7 -->
<g id="edge6_Node000001_Node000007" class="edge">
<title>Node1&#45;&gt;Node7</title>
<g id="a_edge6_Node000001_Node000007"><a xlink:title=" ">
<path fill="none" stroke="#63b8ff" d="M961.5,-55.54C961.5,-46.96 961.5,-37.61 961.5,-30.16"/>
<polygon fill="#63b8ff" stroke="#63b8ff" points="958,-55.8 961.5,-65.8 965,-55.8 958,-55.8"/>
</a>
</g>
</g>
<!-- Node8 -->
<g id="Node000008" class="node">
<title>Node8</title>
<g id="a_Node000008"><a xlink:href="../../d2/dbb/plan__insert_8cpp.html" target="_top" xlink:title=" ">
<polygon fill="white" stroke="#666666" points="1188.5,-24.5 1040.5,-24.5 1040.5,-5.5 1188.5,-5.5 1188.5,-24.5"/>
<text text-anchor="middle" x="1114.5" y="-12.5" font-family="Helvetica,sans-Serif" font-size="10.00">src/planner/plan_insert.cpp</text>
</a>
</g>
</g>
<!-- Node1&#45;&gt;Node8 -->
<g id="edge7_Node000001_Node000008" class="edge">
<title>Node1&#45;&gt;Node8</title>
<g id="a_edge7_Node000001_Node000008"><a xlink:title=" ">
<path fill="none" stroke="#63b8ff" d="M1004.67,-61.94C1033.99,-49.68 1071.41,-34.02 1094.14,-24.52"/>
<polygon fill="#63b8ff" stroke="#63b8ff" points="1002.95,-58.87 995.08,-65.95 1005.65,-65.32 1002.95,-58.87"/>
</a>
</g>
</g>
<!-- Node9 -->
<g id="Node000009" class="node">
<title>Node9</title>
<g id="a_Node000009"><a xlink:href="../../d9/df0/plan__select_8cpp.html" target="_top" xlink:title=" ">
<polygon fill="white" stroke="#666666" points="1356,-24.5 1207,-24.5 1207,-5.5 1356,-5.5 1356,-24.5"/>
<text text-anchor="middle" x="1281.5" y="-12.5" font-family="Helvetica,sans-Serif" font-size="10.00">src/planner/plan_select.cpp</text>
</a>
</g>
</g>
<!-- Node1&#45;&gt;Node9 -->
<g id="edge8_Node000001_Node000009" class="edge">
<title>Node1&#45;&gt;Node9</title>
<g id="a_edge8_Node000001_Node000009"><a xlink:title=" ">
<path fill="none" stroke="#63b8ff" d="M1026.04,-67.09C1089.43,-54.41 1184.33,-35.43 1238.85,-24.53"/>
<polygon fill="#63b8ff" stroke="#63b8ff" points="1025.27,-63.68 1016.15,-69.07 1026.64,-70.54 1025.27,-63.68"/>
</a>
</g>
</g>
<!-- Node10 -->
<g id="Node000010" class="node">
<title>Node10</title>
<g id="a_Node000010"><a xlink:href="../../d8/d40/plan__table__ref_8cpp.html" target="_top" xlink:title=" ">
<polygon fill="white" stroke="#666666" points="1499,-30 1374,-30 1374,0 1499,0 1499,-30"/>
<text text-anchor="start" x="1382" y="-18" font-family="Helvetica,sans-Serif" font-size="10.00">src/planner/plan_table</text>
<text text-anchor="middle" x="1436.5" y="-7" font-family="Helvetica,sans-Serif" font-size="10.00">_ref.cpp</text>
</a>
</g>
</g>
<!-- Node1&#45;&gt;Node10 -->
<g id="edge9_Node000001_Node000010" class="edge">
<title>Node1&#45;&gt;Node10</title>
<g id="a_edge9_Node000001_Node000010"><a xlink:title=" ">
<path fill="none" stroke="#63b8ff" d="M1026.65,-73.39C1106.67,-64.93 1246.46,-49.08 1365.5,-30 1368.23,-29.56 1371.01,-29.1 1373.82,-28.61"/>
<polygon fill="#63b8ff" stroke="#63b8ff" points="1025.82,-69.96 1016.24,-74.48 1026.55,-76.92 1025.82,-69.96"/>
</a>
</g>
</g>
<!-- Node11 -->
<g id="Node000011" class="node">
<title>Node11</title>
<g id="a_Node000011"><a xlink:href="../../d4/d79/plan__window__function_8cpp.html" target="_top" xlink:title=" ">
<polygon fill="white" stroke="#666666" points="1654,-30 1517,-30 1517,0 1654,0 1654,-30"/>
<text text-anchor="start" x="1525" y="-18" font-family="Helvetica,sans-Serif" font-size="10.00">src/planner/plan_window</text>
<text text-anchor="middle" x="1585.5" y="-7" font-family="Helvetica,sans-Serif" font-size="10.00">_function.cpp</text>
</a>
</g>
</g>
<!-- Node1&#45;&gt;Node11 -->
<g id="edge10_Node000001_Node000011" class="edge">
<title>Node1&#45;&gt;Node11</title>
<g id="a_edge10_Node000001_Node000011"><a xlink:title=" ">
<path fill="none" stroke="#63b8ff" d="M1026.23,-75.95C1128.82,-69.11 1334.94,-53.66 1508.5,-30 1511.19,-29.63 1513.93,-29.24 1516.7,-28.82"/>
<polygon fill="#63b8ff" stroke="#63b8ff" points="1025.78,-72.47 1016.03,-76.62 1026.24,-79.46 1025.78,-72.47"/>
</a>
</g>
</g>
<!-- Node12 -->
<g id="Node000012" class="node">
<title>Node12</title>
<g id="a_Node000012"><a xlink:href="../../de/d3d/planner_8cpp.html" target="_top" xlink:title=" ">
<polygon fill="white" stroke="#666666" points="1802.5,-24.5 1672.5,-24.5 1672.5,-5.5 1802.5,-5.5 1802.5,-24.5"/>
<text text-anchor="middle" x="1737.5" y="-12.5" font-family="Helvetica,sans-Serif" font-size="10.00">src/planner/planner.cpp</text>
</a>
</g>
</g>
<!-- Node1&#45;&gt;Node12 -->
<g id="edge11_Node000001_Node000012" class="edge">
<title>Node1&#45;&gt;Node12</title>
<g id="a_edge11_Node000001_Node000012"><a xlink:title=" ">
<path fill="none" stroke="#63b8ff" d="M1026.43,-77.89C1150.6,-73.3 1430.15,-60.28 1663.5,-30 1674.39,-28.59 1686.1,-26.59 1696.92,-24.55"/>
<polygon fill="#63b8ff" stroke="#63b8ff" points="1026.2,-74.4 1016.33,-78.26 1026.45,-81.39 1026.2,-74.4"/>
</a>
</g>
</g>
</g>
</svg>
