<?xml version="1.0" encoding="UTF-8" standalone="no"?>
<!DOCTYPE svg PUBLIC "-//W3C//DTD SVG 1.1//EN"
 "http://www.w3.org/Graphics/SVG/1.1/DTD/svg11.dtd">
<!-- Generated by graphviz version 2.43.0 (0)
 -->
<!-- Title: src/storage/table/tuple.cpp Pages: 1 -->
<!--zoomable 357 -->

<svg id="main" version="1.1" xmlns="http://www.w3.org/2000/svg" xmlns:xlink="http://www.w3.org/1999/xlink" xml:space="preserve" onload="init(evt)">
<style type="text/css"><![CDATA[
.node, .edge {opacity: 0.7;}
.node.selected, .edge.selected {opacity: 1;}
.edge:hover path { stroke: red; }
.edge:hover polygon { stroke: red; fill: red; }
]]></style>

<defs>
  <circle id="rim" cx="0" cy="0" r="7"/>
  <circle id="rim2" cx="0" cy="0" r="3.5"/>
  <g id="zoomPlus">
    <use xlink:href="#rim" fill="#404040"><set attributeName="fill" to="#808080" begin="zoomplus.mouseover" end="zoomplus.mouseout"/></use>
    <path d="M-4,0h8M0,-4v8" fill="none" stroke="white" stroke-width="1.5" pointer-events="none"/>
  </g>
  <g id="zoomMin">
    <use xlink:href="#rim" fill="#404040"><set attributeName="fill" to="#808080" begin="zoomminus.mouseover" end="zoomminus.mouseout"/></use>
    <path d="M-4,0h8" fill="none" stroke="white" stroke-width="1.5" pointer-events="none"/>
  </g>
  <g id="arrowUp" transform="translate(30 24)">
    <use xlink:href="#rim"/>
    <path pointer-events="none" fill="none" stroke="white" stroke-width="1.5" d="M0,-3.0v7 M-2.5,-0.5L0,-3.0L2.5,-0.5"/>
  </g>
  <g id="arrowRight" transform="rotate(90) translate(36 -43)">
    <use xlink:href="#rim"/>
    <path pointer-events="none" fill="none" stroke="white" stroke-width="1.5" d="M0,-3.0v7 M-2.5,-0.5L0,-3.0L2.5,-0.5"/>
  </g>
  <g id="arrowDown" transform="rotate(180) translate(-30 -48)">
    <use xlink:href="#rim"/>
    <path pointer-events="none" fill="none" stroke="white" stroke-width="1.5" d="M0,-3.0v7 M-2.5,-0.5L0,-3.0L2.5,-0.5"/>
  </g>
  <g id="arrowLeft" transform="rotate(270) translate(-36 17)">
    <use xlink:href="#rim"/>
    <path pointer-events="none" fill="none" stroke="white" stroke-width="1.5" d="M0,-3.0v7 M-2.5,-0.5L0,-3.0L2.5,-0.5"/>
  </g>
  <g id="resetDef">
    <use xlink:href="#rim2" fill="#404040"><set attributeName="fill" to="#808080" begin="reset.mouseover" end="reset.mouseout"/></use>
  </g>
</defs>
<script type="application/ecmascript">
var viewWidth = 1426;
var viewHeight = 357;
var sectionId = 'dynsection-0';
</script>
<script type="application/ecmascript" xlink:href="../../svg.min.js"/>
<svg id="graph" class="graph">
<g id="viewport">
<title>src/storage/table/tuple.cpp</title>
<!-- Node1 -->
<g id="Node000001" class="node">
<title>Node1</title>
<g id="a_Node000001"><a xlink:title=" ">
<polygon fill="#999999" stroke="#666666" points="335.96,-349 189.96,-349 189.96,-330 335.96,-330 335.96,-349"/>
<text text-anchor="middle" x="262.96" y="-337" font-family="Helvetica,sans-Serif" font-size="10.00">src/storage/table/tuple.cpp</text>
</a>
</g>
</g>
<!-- Node2 -->
<g id="Node000002" class="node">
<title>Node2</title>
<g id="a_Node000002"><a xlink:title=" ">
<polygon fill="#e0e0e0" stroke="#999999" points="80.96,-74 28.96,-74 28.96,-55 80.96,-55 80.96,-74"/>
<text text-anchor="middle" x="54.96" y="-62" font-family="Helvetica,sans-Serif" font-size="10.00">cassert</text>
</a>
</g>
</g>
<!-- Node1&#45;&gt;Node2 -->
<g id="edge1_Node000001_Node000002" class="edge">
<title>Node1&#45;&gt;Node2</title>
<g id="a_edge1_Node000001_Node000002"><a xlink:title=" ">
<path fill="none" stroke="#63b8ff" d="M194.41,-329.95C136.52,-318.44 62.96,-291.76 62.96,-230.5 62.96,-230.5 62.96,-230.5 62.96,-173.5 62.96,-142.1 59.56,-105.71 57.19,-84.2"/>
<polygon fill="#63b8ff" stroke="#63b8ff" points="60.66,-83.7 56.04,-74.16 53.7,-84.5 60.66,-83.7"/>
</a>
</g>
</g>
<!-- Node3 -->
<g id="Node000003" class="node">
<title>Node3</title>
<g id="a_Node000003"><a xlink:title=" ">
<polygon fill="#e0e0e0" stroke="#999999" points="307.46,-74 258.46,-74 258.46,-55 307.46,-55 307.46,-74"/>
<text text-anchor="middle" x="282.96" y="-62" font-family="Helvetica,sans-Serif" font-size="10.00">cstdlib</text>
</a>
</g>
</g>
<!-- Node1&#45;&gt;Node3 -->
<g id="edge2_Node000001_Node000003" class="edge">
<title>Node1&#45;&gt;Node3</title>
<g id="a_edge2_Node000001_Node000003"><a xlink:title=" ">
<path fill="none" stroke="#63b8ff" d="M259.46,-329.99C252.36,-311.97 236.96,-268.49 236.96,-230.5 236.96,-230.5 236.96,-230.5 236.96,-173.5 236.96,-139.04 257.03,-102.98 270.66,-82.47"/>
<polygon fill="#63b8ff" stroke="#63b8ff" points="273.57,-84.42 276.37,-74.2 267.81,-80.44 273.57,-84.42"/>
</a>
</g>
</g>
<!-- Node4 -->
<g id="Node000004" class="node">
<title>Node4</title>
<g id="a_Node000004"><a xlink:title=" ">
<polygon fill="#e0e0e0" stroke="#999999" points="1417.96,-129 1361.96,-129 1361.96,-110 1417.96,-110 1417.96,-129"/>
<text text-anchor="middle" x="1389.96" y="-117" font-family="Helvetica,sans-Serif" font-size="10.00">sstream</text>
</a>
</g>
</g>
<!-- Node1&#45;&gt;Node4 -->
<g id="edge3_Node000001_Node000004" class="edge">
<title>Node1&#45;&gt;Node4</title>
<g id="a_edge3_Node000001_Node000004"><a xlink:title=" ">
<path fill="none" stroke="#63b8ff" d="M336.23,-338.11C491.62,-335.63 864.52,-320.83 1163.96,-239 1245.86,-216.62 1331.79,-161.34 1369.82,-134.96"/>
<polygon fill="#63b8ff" stroke="#63b8ff" points="1371.84,-137.82 1378.02,-129.21 1367.82,-132.09 1371.84,-137.82"/>
</a>
</g>
</g>
<!-- Node5 -->
<g id="Node000005" class="node">
<title>Node5</title>
<g id="a_Node000005"><a xlink:title=" ">
<polygon fill="#e0e0e0" stroke="#999999" points="558.96,-19 514.96,-19 514.96,0 558.96,0 558.96,-19"/>
<text text-anchor="middle" x="536.96" y="-7" font-family="Helvetica,sans-Serif" font-size="10.00">string</text>
</a>
</g>
</g>
<!-- Node1&#45;&gt;Node5 -->
<g id="edge4_Node000001_Node000005" class="edge">
<title>Node1&#45;&gt;Node5</title>
<g id="a_edge4_Node000001_Node000005"><a xlink:title=" ">
<path fill="none" stroke="#63b8ff" d="M189.63,-338.19C112.12,-333.53 0.96,-312.54 0.96,-230.5 0.96,-230.5 0.96,-230.5 0.96,-118.5 0.96,-89.04 -2.89,-73.59 19.96,-55 57.54,-24.42 397.01,-13.81 504.49,-11.2"/>
<polygon fill="#63b8ff" stroke="#63b8ff" points="504.8,-14.7 514.72,-10.96 504.64,-7.7 504.8,-14.7"/>
</a>
</g>
</g>
<!-- Node6 -->
<g id="Node000006" class="node">
<title>Node6</title>
<g id="a_Node000006"><a xlink:title=" ">
<polygon fill="#e0e0e0" stroke="#999999" points="312.46,-184 265.46,-184 265.46,-165 312.46,-165 312.46,-184"/>
<text text-anchor="middle" x="288.96" y="-172" font-family="Helvetica,sans-Serif" font-size="10.00">vector</text>
</a>
</g>
</g>
<!-- Node1&#45;&gt;Node6 -->
<g id="edge5_Node000001_Node000006" class="edge">
<title>Node1&#45;&gt;Node6</title>
<g id="a_edge5_Node000001_Node000006"><a xlink:title=" ">
<path fill="none" stroke="#63b8ff" d="M264.36,-329.74C268.43,-304.2 280.36,-229.43 285.97,-194.23"/>
<polygon fill="#63b8ff" stroke="#63b8ff" points="289.44,-194.73 287.56,-184.31 282.53,-193.63 289.44,-194.73"/>
</a>
</g>
</g>
<!-- Node7 -->
<g id="Node000007" class="node">
<title>Node7</title>
<g id="a_Node000007"><a xlink:href="../../d2/d20/tuple_8h.html" target="_top" xlink:title=" ">
<polygon fill="white" stroke="#666666" points="629.96,-294 511.96,-294 511.96,-275 629.96,-275 629.96,-294"/>
<text text-anchor="middle" x="570.96" y="-282" font-family="Helvetica,sans-Serif" font-size="10.00">storage/table/tuple.h</text>
</a>
</g>
</g>
<!-- Node1&#45;&gt;Node7 -->
<g id="edge6_Node000001_Node000007" class="edge">
<title>Node1&#45;&gt;Node7</title>
<g id="a_edge6_Node000001_Node000007"><a xlink:title=" ">
<path fill="none" stroke="#63b8ff" d="M312.45,-329.98C366.59,-320.67 453.36,-305.74 511.24,-295.78"/>
<polygon fill="#63b8ff" stroke="#63b8ff" points="512.08,-299.18 521.34,-294.04 510.9,-292.28 512.08,-299.18"/>
</a>
</g>
</g>
<!-- Node7&#45;&gt;Node5 -->
<g id="edge7_Node000007_Node000005" class="edge">
<title>Node7&#45;&gt;Node5</title>
<g id="a_edge7_Node000007_Node000005"><a xlink:title=" ">
<path fill="none" stroke="#63b8ff" d="M511.51,-281.98C386.73,-277.16 108.96,-257.25 108.96,-175.5 108.96,-175.5 108.96,-175.5 108.96,-118.5 108.96,-83.39 125.58,-72.6 155.96,-55 214.98,-20.82 423.42,-12.85 504.43,-11.03"/>
<polygon fill="#63b8ff" stroke="#63b8ff" points="504.62,-14.52 514.54,-10.82 504.47,-7.53 504.62,-14.52"/>
</a>
</g>
</g>
<!-- Node7&#45;&gt;Node6 -->
<g id="edge8_Node000007_Node000006" class="edge">
<title>Node7&#45;&gt;Node6</title>
<g id="a_edge8_Node000007_Node000006"><a xlink:title=" ">
<path fill="none" stroke="#63b8ff" d="M548.36,-274.84C498.43,-255.72 378.57,-209.82 320.96,-187.75"/>
<polygon fill="#63b8ff" stroke="#63b8ff" points="321.87,-184.35 311.28,-184.05 319.37,-190.89 321.87,-184.35"/>
</a>
</g>
</g>
<!-- Node8 -->
<g id="Node000008" class="node">
<title>Node8</title>
<g id="a_Node000008"><a xlink:href="../../d7/de3/schema_8h.html" target="_top" xlink:title=" ">
<polygon fill="white" stroke="#666666" points="622.46,-239 519.46,-239 519.46,-220 622.46,-220 622.46,-239"/>
<text text-anchor="middle" x="570.96" y="-227" font-family="Helvetica,sans-Serif" font-size="10.00">catalog/schema.h</text>
</a>
</g>
</g>
<!-- Node7&#45;&gt;Node8 -->
<g id="edge9_Node000007_Node000008" class="edge">
<title>Node7&#45;&gt;Node8</title>
<g id="a_edge9_Node000007_Node000008"><a xlink:title=" ">
<path fill="none" stroke="#63b8ff" d="M570.96,-274.75C570.96,-267.8 570.96,-257.85 570.96,-249.13"/>
<polygon fill="#63b8ff" stroke="#63b8ff" points="574.46,-249.09 570.96,-239.09 567.46,-249.09 574.46,-249.09"/>
</a>
</g>
</g>
<!-- Node24 -->
<g id="Node000024" class="node">
<title>Node24</title>
<g id="a_Node000024"><a xlink:href="../../db/d16/config_8h.html" target="_top" xlink:title=" ">
<polygon fill="white" stroke="#666666" points="1343.46,-129 1242.46,-129 1242.46,-110 1343.46,-110 1343.46,-129"/>
<text text-anchor="middle" x="1292.96" y="-117" font-family="Helvetica,sans-Serif" font-size="10.00">common/config.h</text>
</a>
</g>
</g>
<!-- Node7&#45;&gt;Node24 -->
<g id="edge39_Node000007_Node000024" class="edge">
<title>Node7&#45;&gt;Node24</title>
<g id="a_edge39_Node000007_Node000024"><a xlink:title=" ">
<path fill="none" stroke="#63b8ff" d="M630.16,-282.48C779.57,-278.76 1167.03,-261.67 1264.96,-184 1278.95,-172.9 1286.13,-153.37 1289.69,-138.89"/>
<polygon fill="#63b8ff" stroke="#63b8ff" points="1293.13,-139.53 1291.77,-129.02 1286.28,-138.09 1293.13,-139.53"/>
</a>
</g>
</g>
<!-- Node26 -->
<g id="Node000026" class="node">
<title>Node26</title>
<g id="a_Node000026"><a xlink:href="../../d8/d5f/rid_8h.html" target="_top" xlink:title=" ">
<polygon fill="white" stroke="#666666" points="1255.96,-184 1171.96,-184 1171.96,-165 1255.96,-165 1255.96,-184"/>
<text text-anchor="middle" x="1213.96" y="-172" font-family="Helvetica,sans-Serif" font-size="10.00">common/rid.h</text>
</a>
</g>
</g>
<!-- Node7&#45;&gt;Node26 -->
<g id="edge43_Node000007_Node000026" class="edge">
<title>Node7&#45;&gt;Node26</title>
<g id="a_edge43_Node000007_Node000026"><a xlink:title=" ">
<path fill="none" stroke="#63b8ff" d="M630.21,-277.01C697.67,-269.31 811.09,-255.43 907.96,-239 1000.25,-223.35 1107.12,-199.96 1167.01,-186.36"/>
<polygon fill="#63b8ff" stroke="#63b8ff" points="1167.94,-189.74 1176.92,-184.1 1166.39,-182.91 1167.94,-189.74"/>
</a>
</g>
</g>
<!-- Node27 -->
<g id="Node000027" class="node">
<title>Node27</title>
<g id="a_Node000027"><a xlink:href="../../d4/d3f/value_8h.html" target="_top" xlink:title=" ">
<polygon fill="white" stroke="#666666" points="984.46,-129 907.46,-129 907.46,-110 984.46,-110 984.46,-129"/>
<text text-anchor="middle" x="945.96" y="-117" font-family="Helvetica,sans-Serif" font-size="10.00">type/value.h</text>
</a>
</g>
</g>
<!-- Node7&#45;&gt;Node27 -->
<g id="edge48_Node000007_Node000027" class="edge">
<title>Node7&#45;&gt;Node27</title>
<g id="a_edge48_Node000007_Node000027"><a xlink:title=" ">
<path fill="none" stroke="#63b8ff" d="M591.07,-274.91C631.21,-257.74 724.11,-217.93 801.96,-184 842.02,-166.54 888.22,-146.12 917.26,-133.24"/>
<polygon fill="#63b8ff" stroke="#63b8ff" points="918.7,-136.43 926.42,-129.18 915.86,-130.04 918.7,-136.43"/>
</a>
</g>
</g>
<!-- Node8&#45;&gt;Node5 -->
<g id="edge12_Node000008_Node000005" class="edge">
<title>Node8&#45;&gt;Node5</title>
<g id="a_edge12_Node000008_Node000005"><a xlink:title=" ">
<path fill="none" stroke="#63b8ff" d="M533.25,-219.99C423,-194.27 112.34,-115.44 165.96,-55 188.31,-29.81 418.43,-16.21 504.61,-11.97"/>
<polygon fill="#63b8ff" stroke="#63b8ff" points="505.03,-15.45 514.86,-11.48 504.7,-8.46 505.03,-15.45"/>
</a>
</g>
</g>
<!-- Node8&#45;&gt;Node6 -->
<g id="edge13_Node000008_Node000006" class="edge">
<title>Node8&#45;&gt;Node6</title>
<g id="a_edge13_Node000008_Node000006"><a xlink:title=" ">
<path fill="none" stroke="#63b8ff" d="M520.85,-219.96C471.45,-211.4 393.85,-197.57 326.96,-184 325.51,-183.71 324.03,-183.4 322.54,-183.09"/>
<polygon fill="#63b8ff" stroke="#63b8ff" points="323.16,-179.64 312.65,-180.95 321.68,-186.48 323.16,-179.64"/>
</a>
</g>
</g>
<!-- Node9 -->
<g id="Node000009" class="node">
<title>Node9</title>
<g id="a_Node000009"><a xlink:title=" ">
<polygon fill="#e0e0e0" stroke="#999999" points="646.96,-74 588.96,-74 588.96,-55 646.96,-55 646.96,-74"/>
<text text-anchor="middle" x="617.96" y="-62" font-family="Helvetica,sans-Serif" font-size="10.00">memory</text>
</a>
</g>
</g>
<!-- Node8&#45;&gt;Node9 -->
<g id="edge10_Node000008_Node000009" class="edge">
<title>Node8&#45;&gt;Node9</title>
<g id="a_edge10_Node000008_Node000009"><a xlink:title=" ">
<path fill="none" stroke="#63b8ff" d="M573.49,-219.74C580.85,-194.2 602.41,-119.43 612.56,-84.23"/>
<polygon fill="#63b8ff" stroke="#63b8ff" points="616.02,-84.89 615.42,-74.31 609.29,-82.95 616.02,-84.89"/>
</a>
</g>
</g>
<!-- Node10 -->
<g id="Node000010" class="node">
<title>Node10</title>
<g id="a_Node000010"><a xlink:title=" ">
<polygon fill="#e0e0e0" stroke="#999999" points="654.96,-184 598.96,-184 598.96,-165 654.96,-165 654.96,-184"/>
<text text-anchor="middle" x="626.96" y="-172" font-family="Helvetica,sans-Serif" font-size="10.00">optional</text>
</a>
</g>
</g>
<!-- Node8&#45;&gt;Node10 -->
<g id="edge11_Node000008_Node000010" class="edge">
<title>Node8&#45;&gt;Node10</title>
<g id="a_edge11_Node000008_Node000010"><a xlink:title=" ">
<path fill="none" stroke="#63b8ff" d="M579.96,-219.98C588.16,-212.23 600.47,-200.58 610.43,-191.14"/>
<polygon fill="#63b8ff" stroke="#63b8ff" points="612.94,-193.59 617.8,-184.17 608.13,-188.5 612.94,-193.59"/>
</a>
</g>
</g>
<!-- Node11 -->
<g id="Node000011" class="node">
<title>Node11</title>
<g id="a_Node000011"><a xlink:href="../../dc/df8/column_8h.html" target="_top" xlink:title=" ">
<polygon fill="white" stroke="#666666" points="774.46,-184 673.46,-184 673.46,-165 774.46,-165 774.46,-184"/>
<text text-anchor="middle" x="723.96" y="-172" font-family="Helvetica,sans-Serif" font-size="10.00">catalog/column.h</text>
</a>
</g>
</g>
<!-- Node8&#45;&gt;Node11 -->
<g id="edge14_Node000008_Node000011" class="edge">
<title>Node8&#45;&gt;Node11</title>
<g id="a_edge14_Node000008_Node000011"><a xlink:title=" ">
<path fill="none" stroke="#63b8ff" d="M595.54,-219.98C621.01,-211.16 661.01,-197.31 689.59,-187.41"/>
<polygon fill="#63b8ff" stroke="#63b8ff" points="690.88,-190.66 699.19,-184.08 688.59,-184.05 690.88,-190.66"/>
</a>
</g>
</g>
<!-- Node15 -->
<g id="Node000015" class="node">
<title>Node15</title>
<g id="a_Node000015"><a xlink:href="../../dd/d2d/exception_8h.html" target="_top" xlink:title=" ">
<polygon fill="white" stroke="#666666" points="542.46,-129 423.46,-129 423.46,-110 542.46,-110 542.46,-129"/>
<text text-anchor="middle" x="482.96" y="-117" font-family="Helvetica,sans-Serif" font-size="10.00">common/exception.h</text>
</a>
</g>
</g>
<!-- Node8&#45;&gt;Node15 -->
<g id="edge37_Node000008_Node000015" class="edge">
<title>Node8&#45;&gt;Node15</title>
<g id="a_edge37_Node000008_Node000015"><a xlink:title=" ">
<path fill="none" stroke="#63b8ff" d="M563.76,-219.66C549.06,-201.61 515.37,-160.28 496.47,-137.08"/>
<polygon fill="#63b8ff" stroke="#63b8ff" points="499.05,-134.7 490.02,-129.16 493.62,-139.12 499.05,-134.7"/>
</a>
</g>
</g>
<!-- Node20 -->
<g id="Node000020" class="node">
<title>Node20</title>
<g id="a_Node000020"><a xlink:href="../../df/def/type_8h.html" target="_top" xlink:title=" ">
<polygon fill="white" stroke="#666666" points="774.96,-74 702.96,-74 702.96,-55 774.96,-55 774.96,-74"/>
<text text-anchor="middle" x="738.96" y="-62" font-family="Helvetica,sans-Serif" font-size="10.00">type/type.h</text>
</a>
</g>
</g>
<!-- Node8&#45;&gt;Node20 -->
<g id="edge38_Node000008_Node000020" class="edge">
<title>Node8&#45;&gt;Node20</title>
<g id="a_edge38_Node000008_Node000020"><a xlink:title=" ">
<path fill="none" stroke="#63b8ff" d="M622.58,-225.03C678.98,-220.03 764.01,-208.55 783.96,-184 809.17,-152.99 775.97,-106.35 754.55,-81.85"/>
<polygon fill="#63b8ff" stroke="#63b8ff" points="756.89,-79.23 747.57,-74.18 751.71,-83.93 756.89,-79.23"/>
</a>
</g>
</g>
<!-- Node11&#45;&gt;Node5 -->
<g id="edge17_Node000011_Node000005" class="edge">
<title>Node11&#45;&gt;Node5</title>
<g id="a_edge17_Node000011_Node000005"><a xlink:title=" ">
<path fill="none" stroke="#63b8ff" d="M721.25,-164.69C714.13,-142.97 692.85,-86.31 655.96,-55 630.99,-33.8 594.93,-22.22 569.06,-16.23"/>
<polygon fill="#63b8ff" stroke="#63b8ff" points="569.52,-12.75 559.01,-14.07 568.05,-19.59 569.52,-12.75"/>
</a>
</g>
</g>
<!-- Node11&#45;&gt;Node9 -->
<g id="edge16_Node000011_Node000009" class="edge">
<title>Node11&#45;&gt;Node9</title>
<g id="a_edge16_Node000011_Node000009"><a xlink:title=" ">
<path fill="none" stroke="#63b8ff" d="M708.8,-164.95C695.27,-156.84 675.4,-143.73 660.96,-129 647.31,-115.08 635.21,-96.3 627.35,-82.78"/>
<polygon fill="#63b8ff" stroke="#63b8ff" points="630.37,-81.01 622.41,-74.01 624.27,-84.44 630.37,-81.01"/>
</a>
</g>
</g>
<!-- Node12 -->
<g id="Node000012" class="node">
<title>Node12</title>
<g id="a_Node000012"><a xlink:title=" ">
<polygon fill="#e0e0e0" stroke="#999999" points="1208.96,-19 1158.96,-19 1158.96,0 1208.96,0 1208.96,-19"/>
<text text-anchor="middle" x="1183.96" y="-7" font-family="Helvetica,sans-Serif" font-size="10.00">cstdint</text>
</a>
</g>
</g>
<!-- Node11&#45;&gt;Node12 -->
<g id="edge15_Node000011_Node000012" class="edge">
<title>Node11&#45;&gt;Node12</title>
<g id="a_edge15_Node000011_Node000012"><a xlink:title=" ">
<path fill="none" stroke="#63b8ff" d="M728.27,-164.73C739.91,-142.05 774.47,-81.41 822.96,-55 878.69,-24.65 1069.41,-14.53 1148.82,-11.58"/>
<polygon fill="#63b8ff" stroke="#63b8ff" points="1148.95,-15.07 1158.82,-11.22 1148.71,-8.08 1148.95,-15.07"/>
</a>
</g>
</g>
<!-- Node13 -->
<g id="Node000013" class="node">
<title>Node13</title>
<g id="a_Node000013"><a xlink:title=" ">
<polygon fill="#e0e0e0" stroke="#999999" points="876.46,-74 831.46,-74 831.46,-55 876.46,-55 876.46,-74"/>
<text text-anchor="middle" x="853.96" y="-62" font-family="Helvetica,sans-Serif" font-size="10.00">utility</text>
</a>
</g>
</g>
<!-- Node11&#45;&gt;Node13 -->
<g id="edge18_Node000011_Node000013" class="edge">
<title>Node11&#45;&gt;Node13</title>
<g id="a_edge18_Node000011_Node000013"><a xlink:title=" ">
<path fill="none" stroke="#63b8ff" d="M734.98,-164.71C746.12,-155.78 763.82,-141.53 778.96,-129 798.7,-112.66 821.09,-93.64 836.23,-80.7"/>
<polygon fill="#63b8ff" stroke="#63b8ff" points="838.51,-83.36 843.83,-74.2 833.96,-78.04 838.51,-83.36"/>
</a>
</g>
</g>
<!-- Node14 -->
<g id="Node000014" class="node">
<title>Node14</title>
<g id="a_Node000014"><a xlink:title=" ">
<polygon fill="#e0e0e0" stroke="#999999" points="973.46,-74 894.46,-74 894.46,-55 973.46,-55 973.46,-74"/>
<text text-anchor="middle" x="933.96" y="-62" font-family="Helvetica,sans-Serif" font-size="10.00">fmt/format.h</text>
</a>
</g>
</g>
<!-- Node11&#45;&gt;Node14 -->
<g id="edge19_Node000011_Node000014" class="edge">
<title>Node11&#45;&gt;Node14</title>
<g id="a_edge19_Node000011_Node000014"><a xlink:title=" ">
<path fill="none" stroke="#63b8ff" d="M740.79,-164.84C777.44,-146 864.65,-101.14 908.24,-78.73"/>
<polygon fill="#63b8ff" stroke="#63b8ff" points="910.05,-81.73 917.34,-74.05 906.85,-75.51 910.05,-81.73"/>
</a>
</g>
</g>
<!-- Node11&#45;&gt;Node15 -->
<g id="edge20_Node000011_Node000015" class="edge">
<title>Node11&#45;&gt;Node15</title>
<g id="a_edge20_Node000011_Node000015"><a xlink:title=" ">
<path fill="none" stroke="#63b8ff" d="M685.24,-164.98C643.55,-155.82 577.14,-141.21 531.88,-131.26"/>
<polygon fill="#63b8ff" stroke="#63b8ff" points="532.51,-127.81 521.99,-129.08 531,-134.65 532.51,-127.81"/>
</a>
</g>
</g>
<!-- Node11&#45;&gt;Node20 -->
<g id="edge36_Node000011_Node000020" class="edge">
<title>Node11&#45;&gt;Node20</title>
<g id="a_edge36_Node000011_Node000020"><a xlink:title=" ">
<path fill="none" stroke="#63b8ff" d="M725.19,-164.66C727.62,-147.17 733.09,-107.8 736.36,-84.27"/>
<polygon fill="#63b8ff" stroke="#63b8ff" points="739.85,-84.54 737.76,-74.16 732.92,-83.58 739.85,-84.54"/>
</a>
</g>
</g>
<!-- Node22 -->
<g id="Node000022" class="node">
<title>Node22</title>
<g id="a_Node000022"><a xlink:href="../../de/d3c/macros_8h.html" target="_top" xlink:title=" ">
<polygon fill="white" stroke="#666666" points="392.46,-129 285.46,-129 285.46,-110 392.46,-110 392.46,-129"/>
<text text-anchor="middle" x="338.96" y="-117" font-family="Helvetica,sans-Serif" font-size="10.00">common/macros.h</text>
</a>
</g>
</g>
<!-- Node11&#45;&gt;Node22 -->
<g id="edge32_Node000011_Node000022" class="edge">
<title>Node11&#45;&gt;Node22</title>
<g id="a_edge32_Node000011_Node000022"><a xlink:title=" ">
<path fill="none" stroke="#63b8ff" d="M673.23,-166.3C670.09,-165.86 666.98,-165.42 663.96,-165 573.34,-152.38 468.47,-138.07 402.92,-129.17"/>
<polygon fill="#63b8ff" stroke="#63b8ff" points="403.12,-125.66 392.74,-127.79 402.18,-132.6 403.12,-125.66"/>
</a>
</g>
</g>
<!-- Node15&#45;&gt;Node3 -->
<g id="edge23_Node000015_Node000003" class="edge">
<title>Node15&#45;&gt;Node3</title>
<g id="a_edge23_Node000015_Node000003"><a xlink:title=" ">
<path fill="none" stroke="#63b8ff" d="M450.83,-109.98C414.39,-100.33 355.2,-84.64 317.71,-74.71"/>
<polygon fill="#63b8ff" stroke="#63b8ff" points="318.31,-71.25 307.75,-72.07 316.52,-78.01 318.31,-71.25"/>
</a>
</g>
</g>
<!-- Node15&#45;&gt;Node5 -->
<g id="edge27_Node000015_Node000005" class="edge">
<title>Node15&#45;&gt;Node5</title>
<g id="a_edge27_Node000015_Node000005"><a xlink:title=" ">
<path fill="none" stroke="#63b8ff" d="M469.04,-109.83C451.46,-97.75 424.97,-75.08 437.96,-55 452.61,-32.36 481.81,-21.13 504.72,-15.62"/>
<polygon fill="#63b8ff" stroke="#63b8ff" points="505.69,-18.99 514.73,-13.47 504.22,-12.15 505.69,-18.99"/>
</a>
</g>
</g>
<!-- Node15&#45;&gt;Node9 -->
<g id="edge25_Node000015_Node000009" class="edge">
<title>Node15&#45;&gt;Node9</title>
<g id="a_edge25_Node000015_Node000009"><a xlink:title=" ">
<path fill="none" stroke="#63b8ff" d="M504.65,-109.98C526.76,-101.3 561.28,-87.75 586.42,-77.88"/>
<polygon fill="#63b8ff" stroke="#63b8ff" points="587.85,-81.08 595.88,-74.17 585.29,-74.57 587.85,-81.08"/>
</a>
</g>
</g>
<!-- Node16 -->
<g id="Node000016" class="node">
<title>Node16</title>
<g id="a_Node000016"><a xlink:title=" ">
<polygon fill="#e0e0e0" stroke="#999999" points="1147.96,-74 1097.96,-74 1097.96,-55 1147.96,-55 1147.96,-74"/>
<text text-anchor="middle" x="1122.96" y="-62" font-family="Helvetica,sans-Serif" font-size="10.00">atomic</text>
</a>
</g>
</g>
<!-- Node15&#45;&gt;Node16 -->
<g id="edge21_Node000015_Node000016" class="edge">
<title>Node15&#45;&gt;Node16</title>
<g id="a_edge21_Node000015_Node000016"><a xlink:title=" ">
<path fill="none" stroke="#63b8ff" d="M542.71,-117.51C650.1,-114.98 882.88,-106.14 1087.77,-73.9"/>
<polygon fill="#63b8ff" stroke="#63b8ff" points="1088.49,-77.33 1097.81,-72.3 1087.38,-70.42 1088.49,-77.33"/>
</a>
</g>
</g>
<!-- Node17 -->
<g id="Node000017" class="node">
<title>Node17</title>
<g id="a_Node000017"><a xlink:title=" ">
<polygon fill="#e0e0e0" stroke="#999999" points="570.96,-74 524.96,-74 524.96,-55 570.96,-55 570.96,-74"/>
<text text-anchor="middle" x="547.96" y="-62" font-family="Helvetica,sans-Serif" font-size="10.00">cstdio</text>
</a>
</g>
</g>
<!-- Node15&#45;&gt;Node17 -->
<g id="edge22_Node000015_Node000017" class="edge">
<title>Node15&#45;&gt;Node17</title>
<g id="a_edge22_Node000015_Node000017"><a xlink:title=" ">
<path fill="none" stroke="#63b8ff" d="M493.41,-109.98C503.11,-102.07 517.78,-90.11 529.46,-80.58"/>
<polygon fill="#63b8ff" stroke="#63b8ff" points="531.79,-83.2 537.33,-74.17 527.37,-77.78 531.79,-83.2"/>
</a>
</g>
</g>
<!-- Node18 -->
<g id="Node000018" class="node">
<title>Node18</title>
<g id="a_Node000018"><a xlink:title=" ">
<polygon fill="#e0e0e0" stroke="#999999" points="506.96,-74 446.96,-74 446.96,-55 506.96,-55 506.96,-74"/>
<text text-anchor="middle" x="476.96" y="-62" font-family="Helvetica,sans-Serif" font-size="10.00">iostream</text>
</a>
</g>
</g>
<!-- Node15&#45;&gt;Node18 -->
<g id="edge24_Node000015_Node000018" class="edge">
<title>Node15&#45;&gt;Node18</title>
<g id="a_edge24_Node000015_Node000018"><a xlink:title=" ">
<path fill="none" stroke="#63b8ff" d="M481.97,-109.75C481.19,-102.8 480.06,-92.85 479.07,-84.13"/>
<polygon fill="#63b8ff" stroke="#63b8ff" points="482.54,-83.63 477.94,-74.09 475.58,-84.42 482.54,-83.63"/>
</a>
</g>
</g>
<!-- Node19 -->
<g id="Node000019" class="node">
<title>Node19</title>
<g id="a_Node000019"><a xlink:title=" ">
<polygon fill="#e0e0e0" stroke="#999999" points="390.46,-74 325.46,-74 325.46,-55 390.46,-55 390.46,-74"/>
<text text-anchor="middle" x="357.96" y="-62" font-family="Helvetica,sans-Serif" font-size="10.00">stdexcept</text>
</a>
</g>
</g>
<!-- Node15&#45;&gt;Node19 -->
<g id="edge26_Node000015_Node000019" class="edge">
<title>Node15&#45;&gt;Node19</title>
<g id="a_edge26_Node000015_Node000019"><a xlink:title=" ">
<path fill="none" stroke="#63b8ff" d="M462.88,-109.98C442.59,-101.38 411.01,-87.99 387.79,-78.15"/>
<polygon fill="#63b8ff" stroke="#63b8ff" points="388.98,-74.85 378.41,-74.17 386.25,-81.3 388.98,-74.85"/>
</a>
</g>
</g>
<!-- Node15&#45;&gt;Node20 -->
<g id="edge28_Node000015_Node000020" class="edge">
<title>Node15&#45;&gt;Node20</title>
<g id="a_edge28_Node000015_Node000020"><a xlink:title=" ">
<path fill="none" stroke="#63b8ff" d="M524.09,-109.98C570.28,-100.42 645.03,-84.95 693.07,-75"/>
<polygon fill="#63b8ff" stroke="#63b8ff" points="693.82,-78.42 702.9,-72.97 692.4,-71.57 693.82,-78.42"/>
</a>
</g>
</g>
<!-- Node20&#45;&gt;Node5 -->
<g id="edge30_Node000020_Node000005" class="edge">
<title>Node20&#45;&gt;Node5</title>
<g id="a_edge30_Node000020_Node000005"><a xlink:title=" ">
<path fill="none" stroke="#63b8ff" d="M706.51,-54.98C668.69,-45.06 606.59,-28.77 568.96,-18.9"/>
<polygon fill="#63b8ff" stroke="#63b8ff" points="569.6,-15.45 559.04,-16.29 567.83,-22.22 569.6,-15.45"/>
</a>
</g>
</g>
<!-- Node20&#45;&gt;Node12 -->
<g id="edge29_Node000020_Node000012" class="edge">
<title>Node20&#45;&gt;Node12</title>
<g id="a_edge29_Node000020_Node000012"><a xlink:title=" ">
<path fill="none" stroke="#63b8ff" d="M774.98,-57.13C779.67,-56.37 784.43,-55.64 788.96,-55 921.28,-36.31 1079.43,-20.44 1148.62,-13.81"/>
<polygon fill="#63b8ff" stroke="#63b8ff" points="1149.32,-17.26 1158.95,-12.83 1148.66,-10.29 1149.32,-17.26"/>
</a>
</g>
</g>
<!-- Node21 -->
<g id="Node000021" class="node">
<title>Node21</title>
<g id="a_Node000021"><a xlink:href="../../dc/df2/type__id_8h.html" target="_top" xlink:title=" ">
<polygon fill="white" stroke="#666666" points="781.96,-19 695.96,-19 695.96,0 781.96,0 781.96,-19"/>
<text text-anchor="middle" x="738.96" y="-7" font-family="Helvetica,sans-Serif" font-size="10.00">type/type_id.h</text>
</a>
</g>
</g>
<!-- Node20&#45;&gt;Node21 -->
<g id="edge31_Node000020_Node000021" class="edge">
<title>Node20&#45;&gt;Node21</title>
<g id="a_edge31_Node000020_Node000021"><a xlink:title=" ">
<path fill="none" stroke="#63b8ff" d="M738.96,-54.75C738.96,-47.8 738.96,-37.85 738.96,-29.13"/>
<polygon fill="#63b8ff" stroke="#63b8ff" points="742.46,-29.09 738.96,-19.09 735.46,-29.09 742.46,-29.09"/>
</a>
</g>
</g>
<!-- Node22&#45;&gt;Node2 -->
<g id="edge33_Node000022_Node000002" class="edge">
<title>Node22&#45;&gt;Node2</title>
<g id="a_edge33_Node000022_Node000002"><a xlink:title=" ">
<path fill="none" stroke="#63b8ff" d="M293.33,-109.98C237.15,-99.5 142.86,-81.9 91.31,-72.28"/>
<polygon fill="#63b8ff" stroke="#63b8ff" points="91.77,-68.81 81.3,-70.41 90.48,-75.69 91.77,-68.81"/>
</a>
</g>
</g>
<!-- Node22&#45;&gt;Node19 -->
<g id="edge35_Node000022_Node000019" class="edge">
<title>Node22&#45;&gt;Node19</title>
<g id="a_edge35_Node000022_Node000019"><a xlink:title=" ">
<path fill="none" stroke="#63b8ff" d="M342.1,-109.75C344.65,-102.65 348.32,-92.4 351.49,-83.56"/>
<polygon fill="#63b8ff" stroke="#63b8ff" points="354.8,-84.68 354.88,-74.09 348.21,-82.32 354.8,-84.68"/>
</a>
</g>
</g>
<!-- Node23 -->
<g id="Node000023" class="node">
<title>Node23</title>
<g id="a_Node000023"><a xlink:title=" ">
<polygon fill="#e0e0e0" stroke="#999999" points="240.46,-74 175.46,-74 175.46,-55 240.46,-55 240.46,-74"/>
<text text-anchor="middle" x="207.96" y="-62" font-family="Helvetica,sans-Serif" font-size="10.00">exception</text>
</a>
</g>
</g>
<!-- Node22&#45;&gt;Node23 -->
<g id="edge34_Node000022_Node000023" class="edge">
<title>Node22&#45;&gt;Node23</title>
<g id="a_edge34_Node000022_Node000023"><a xlink:title=" ">
<path fill="none" stroke="#63b8ff" d="M317.92,-109.98C296.56,-101.34 263.26,-87.87 238.9,-78.02"/>
<polygon fill="#63b8ff" stroke="#63b8ff" points="239.98,-74.68 229.39,-74.17 237.35,-81.17 239.98,-74.68"/>
</a>
</g>
</g>
<!-- Node24&#45;&gt;Node12 -->
<g id="edge42_Node000024_Node000012" class="edge">
<title>Node24&#45;&gt;Node12</title>
<g id="a_edge42_Node000024_Node000012"><a xlink:title=" ">
<path fill="none" stroke="#63b8ff" d="M1333.16,-109.92C1370.97,-100.01 1418.74,-81.6 1396.96,-55 1347.56,5.33 1300.91,-33.52 1219.31,-18.99"/>
<polygon fill="#63b8ff" stroke="#63b8ff" points="1219.68,-15.49 1209.18,-16.94 1218.29,-22.36 1219.68,-15.49"/>
</a>
</g>
</g>
<!-- Node24&#45;&gt;Node16 -->
<g id="edge40_Node000024_Node000016" class="edge">
<title>Node24&#45;&gt;Node16</title>
<g id="a_edge40_Node000024_Node000016"><a xlink:title=" ">
<path fill="none" stroke="#63b8ff" d="M1265.65,-109.98C1236.35,-100.85 1189.72,-86.31 1157.8,-76.36"/>
<polygon fill="#63b8ff" stroke="#63b8ff" points="1158.58,-72.94 1147.99,-73.3 1156.5,-79.62 1158.58,-72.94"/>
</a>
</g>
</g>
<!-- Node25 -->
<g id="Node000025" class="node">
<title>Node25</title>
<g id="a_Node000025"><a xlink:title=" ">
<polygon fill="#e0e0e0" stroke="#999999" points="1387.96,-74 1337.96,-74 1337.96,-55 1387.96,-55 1387.96,-74"/>
<text text-anchor="middle" x="1362.96" y="-62" font-family="Helvetica,sans-Serif" font-size="10.00">chrono</text>
</a>
</g>
</g>
<!-- Node24&#45;&gt;Node25 -->
<g id="edge41_Node000024_Node000025" class="edge">
<title>Node24&#45;&gt;Node25</title>
<g id="a_edge41_Node000024_Node000025"><a xlink:title=" ">
<path fill="none" stroke="#63b8ff" d="M1304.21,-109.98C1314.76,-102 1330.76,-89.88 1343.4,-80.31"/>
<polygon fill="#63b8ff" stroke="#63b8ff" points="1345.65,-83 1351.51,-74.17 1341.43,-77.42 1345.65,-83"/>
</a>
</g>
</g>
<!-- Node26&#45;&gt;Node4 -->
<g id="edge45_Node000026_Node000004" class="edge">
<title>Node26&#45;&gt;Node4</title>
<g id="a_edge45_Node000026_Node000004"><a xlink:title=" ">
<path fill="none" stroke="#63b8ff" d="M1242.24,-164.98C1272,-156.02 1319.03,-141.86 1352.01,-131.93"/>
<polygon fill="#63b8ff" stroke="#63b8ff" points="1353.19,-135.23 1361.76,-128.99 1351.17,-128.53 1353.19,-135.23"/>
</a>
</g>
</g>
<!-- Node26&#45;&gt;Node5 -->
<g id="edge46_Node000026_Node000005" class="edge">
<title>Node26&#45;&gt;Node5</title>
<g id="a_edge46_Node000026_Node000005"><a xlink:title=" ">
<path fill="none" stroke="#63b8ff" d="M1211.02,-164.7C1202.44,-139.58 1176.79,-68.48 1156.96,-55 1144.69,-46.65 695.28,-19.77 569.42,-12.39"/>
<polygon fill="#63b8ff" stroke="#63b8ff" points="569.45,-8.88 559.26,-11.79 569.04,-15.87 569.45,-8.88"/>
</a>
</g>
</g>
<!-- Node26&#45;&gt;Node12 -->
<g id="edge44_Node000026_Node000012" class="edge">
<title>Node26&#45;&gt;Node12</title>
<g id="a_edge44_Node000026_Node000012"><a xlink:title=" ">
<path fill="none" stroke="#63b8ff" d="M1212.35,-164.74C1207.65,-139.2 1193.89,-64.43 1187.41,-29.23"/>
<polygon fill="#63b8ff" stroke="#63b8ff" points="1190.84,-28.51 1185.58,-19.31 1183.95,-29.78 1190.84,-28.51"/>
</a>
</g>
</g>
<!-- Node26&#45;&gt;Node24 -->
<g id="edge47_Node000026_Node000024" class="edge">
<title>Node26&#45;&gt;Node24</title>
<g id="a_edge47_Node000026_Node000024"><a xlink:title=" ">
<path fill="none" stroke="#63b8ff" d="M1226.66,-164.98C1238.79,-156.84 1257.32,-144.41 1271.71,-134.76"/>
<polygon fill="#63b8ff" stroke="#63b8ff" points="1273.68,-137.65 1280.04,-129.17 1269.78,-131.84 1273.68,-137.65"/>
</a>
</g>
</g>
<!-- Node27&#45;&gt;Node5 -->
<g id="edge51_Node000027_Node000005" class="edge">
<title>Node27&#45;&gt;Node5</title>
<g id="a_edge51_Node000027_Node000005"><a xlink:title=" ">
<path fill="none" stroke="#63b8ff" d="M957.36,-109.97C973.27,-97.05 998.55,-72.22 982.96,-55 969.06,-39.64 669.57,-19.04 569.32,-12.55"/>
<polygon fill="#63b8ff" stroke="#63b8ff" points="569.39,-9.04 559.18,-11.89 568.94,-16.03 569.39,-9.04"/>
</a>
</g>
</g>
<!-- Node27&#45;&gt;Node9 -->
<g id="edge50_Node000027_Node000009" class="edge">
<title>Node27&#45;&gt;Node9</title>
<g id="a_edge50_Node000027_Node000009"><a xlink:title=" ">
<path fill="none" stroke="#63b8ff" d="M907.37,-112.26C844.49,-102.1 720.59,-82.08 657.26,-71.85"/>
<polygon fill="#63b8ff" stroke="#63b8ff" points="657.69,-68.37 647.26,-70.23 656.58,-75.29 657.69,-68.37"/>
</a>
</g>
</g>
<!-- Node27&#45;&gt;Node13 -->
<g id="edge52_Node000027_Node000013" class="edge">
<title>Node27&#45;&gt;Node13</title>
<g id="a_edge52_Node000027_Node000013"><a xlink:title=" ">
<path fill="none" stroke="#63b8ff" d="M931.18,-109.98C916.78,-101.69 894.65,-88.94 877.77,-79.22"/>
<polygon fill="#63b8ff" stroke="#63b8ff" points="879.43,-76.13 869.01,-74.17 875.93,-82.19 879.43,-76.13"/>
</a>
</g>
</g>
<!-- Node27&#45;&gt;Node14 -->
<g id="edge53_Node000027_Node000014" class="edge">
<title>Node27&#45;&gt;Node14</title>
<g id="a_edge53_Node000027_Node000014"><a xlink:title=" ">
<path fill="none" stroke="#63b8ff" d="M943.98,-109.75C942.39,-102.72 940.1,-92.62 938.12,-83.84"/>
<polygon fill="#63b8ff" stroke="#63b8ff" points="941.53,-83.07 935.91,-74.09 934.7,-84.62 941.53,-83.07"/>
</a>
</g>
</g>
<!-- Node27&#45;&gt;Node20 -->
<g id="edge59_Node000027_Node000020" class="edge">
<title>Node27&#45;&gt;Node20</title>
<g id="a_edge59_Node000027_Node000020"><a xlink:title=" ">
<path fill="none" stroke="#63b8ff" d="M912.7,-109.98C877.35,-100.93 821.29,-86.58 782.45,-76.64"/>
<polygon fill="#63b8ff" stroke="#63b8ff" points="783.04,-73.17 772.48,-74.08 781.3,-79.95 783.04,-73.17"/>
</a>
</g>
</g>
<!-- Node28 -->
<g id="Node000028" class="node">
<title>Node28</title>
<g id="a_Node000028"><a xlink:title=" ">
<polygon fill="#e0e0e0" stroke="#999999" points="1079.96,-74 1029.96,-74 1029.96,-55 1079.96,-55 1079.96,-74"/>
<text text-anchor="middle" x="1054.96" y="-62" font-family="Helvetica,sans-Serif" font-size="10.00">cstring</text>
</a>
</g>
</g>
<!-- Node27&#45;&gt;Node28 -->
<g id="edge49_Node000027_Node000028" class="edge">
<title>Node27&#45;&gt;Node28</title>
<g id="a_edge49_Node000027_Node000028"><a xlink:title=" ">
<path fill="none" stroke="#63b8ff" d="M963.48,-109.98C980.93,-101.5 1007.97,-88.35 1028.13,-78.54"/>
<polygon fill="#63b8ff" stroke="#63b8ff" points="1029.67,-81.69 1037.13,-74.17 1026.61,-75.4 1029.67,-81.69"/>
</a>
</g>
</g>
<!-- Node29 -->
<g id="Node000029" class="node">
<title>Node29</title>
<g id="a_Node000029"><a xlink:href="../../d9/d86/limits_8h.html" target="_top" xlink:title=" ">
<polygon fill="white" stroke="#666666" points="1319.96,-74 1241.96,-74 1241.96,-55 1319.96,-55 1319.96,-74"/>
<text text-anchor="middle" x="1280.96" y="-62" font-family="Helvetica,sans-Serif" font-size="10.00">type/limits.h</text>
</a>
</g>
</g>
<!-- Node27&#45;&gt;Node29 -->
<g id="edge54_Node000027_Node000029" class="edge">
<title>Node27&#45;&gt;Node29</title>
<g id="a_edge54_Node000027_Node000029"><a xlink:title=" ">
<path fill="none" stroke="#63b8ff" d="M984.72,-112.37C1045.91,-102.69 1164.81,-83.88 1231.88,-73.27"/>
<polygon fill="#63b8ff" stroke="#63b8ff" points="1232.45,-76.72 1241.78,-71.7 1231.36,-69.8 1232.45,-76.72"/>
</a>
</g>
</g>
<!-- Node29&#45;&gt;Node12 -->
<g id="edge57_Node000029_Node000012" class="edge">
<title>Node29&#45;&gt;Node12</title>
<g id="a_edge57_Node000029_Node000012"><a xlink:title=" ">
<path fill="none" stroke="#63b8ff" d="M1265.38,-54.98C1250.2,-46.69 1226.86,-33.94 1209.06,-24.22"/>
<polygon fill="#63b8ff" stroke="#63b8ff" points="1210.28,-20.89 1199.83,-19.17 1206.93,-27.04 1210.28,-20.89"/>
</a>
</g>
</g>
<!-- Node30 -->
<g id="Node000030" class="node">
<title>Node30</title>
<g id="a_Node000030"><a xlink:title=" ">
<polygon fill="#e0e0e0" stroke="#999999" points="1332.96,-19 1288.96,-19 1288.96,0 1332.96,0 1332.96,-19"/>
<text text-anchor="middle" x="1310.96" y="-7" font-family="Helvetica,sans-Serif" font-size="10.00">cfloat</text>
</a>
</g>
</g>
<!-- Node29&#45;&gt;Node30 -->
<g id="edge55_Node000029_Node000030" class="edge">
<title>Node29&#45;&gt;Node30</title>
<g id="a_edge55_Node000029_Node000030"><a xlink:title=" ">
<path fill="none" stroke="#63b8ff" d="M1285.92,-54.75C1290.02,-47.49 1295.99,-36.95 1301.07,-27.98"/>
<polygon fill="#63b8ff" stroke="#63b8ff" points="1304.22,-29.52 1306.1,-19.09 1298.13,-26.07 1304.22,-29.52"/>
</a>
</g>
</g>
<!-- Node31 -->
<g id="Node000031" class="node">
<title>Node31</title>
<g id="a_Node000031"><a xlink:title=" ">
<polygon fill="#e0e0e0" stroke="#999999" points="1400.96,-19 1350.96,-19 1350.96,0 1400.96,0 1400.96,-19"/>
<text text-anchor="middle" x="1375.96" y="-7" font-family="Helvetica,sans-Serif" font-size="10.00">climits</text>
</a>
</g>
</g>
<!-- Node29&#45;&gt;Node31 -->
<g id="edge56_Node000029_Node000031" class="edge">
<title>Node29&#45;&gt;Node31</title>
<g id="a_edge56_Node000029_Node000031"><a xlink:title=" ">
<path fill="none" stroke="#63b8ff" d="M1296.23,-54.98C1311.1,-46.69 1333.95,-33.94 1351.38,-24.22"/>
<polygon fill="#63b8ff" stroke="#63b8ff" points="1353.39,-27.1 1360.42,-19.17 1349.98,-20.99 1353.39,-27.1"/>
</a>
</g>
</g>
<!-- Node32 -->
<g id="Node000032" class="node">
<title>Node32</title>
<g id="a_Node000032"><a xlink:title=" ">
<polygon fill="#e0e0e0" stroke="#999999" points="1270.96,-19 1226.96,-19 1226.96,0 1270.96,0 1270.96,-19"/>
<text text-anchor="middle" x="1248.96" y="-7" font-family="Helvetica,sans-Serif" font-size="10.00">limits</text>
</a>
</g>
</g>
<!-- Node29&#45;&gt;Node32 -->
<g id="edge58_Node000029_Node000032" class="edge">
<title>Node29&#45;&gt;Node32</title>
<g id="a_edge58_Node000029_Node000032"><a xlink:title=" ">
<path fill="none" stroke="#63b8ff" d="M1275.68,-54.75C1271.25,-47.42 1264.8,-36.73 1259.34,-27.7"/>
<polygon fill="#63b8ff" stroke="#63b8ff" points="1262.31,-25.84 1254.15,-19.09 1256.32,-29.46 1262.31,-25.84"/>
</a>
</g>
</g>
</g>
</svg>

<g id="navigator" transform="translate(0 0)" fill="#404254">
  <rect fill="#f2f5e9" fill-opacity="0.5" stroke="#606060" stroke-width=".5" x="0" y="0" width="60" height="60"/>
  <use id="zoomplus" xlink:href="#zoomPlus" x="17" y="9" onmousedown="handleZoom(evt,'in')"/>
  <use id="zoomminus" xlink:href="#zoomMin" x="42" y="9" onmousedown="handleZoom(evt,'out')"/>
  <use id="reset" xlink:href="#resetDef" x="30" y="36" onmousedown="handleReset()"/>
   <use id="arrowup" xlink:href="#arrowUp" x="0" y="0" onmousedown="handlePan(0,-1)"/>
  <use id="arrowright" xlink:href="#arrowRight" x="0" y="0" onmousedown="handlePan(1,0)"/>
  <use id="arrowdown" xlink:href="#arrowDown" x="0" y="0" onmousedown="handlePan(0,1)"/>
  <use id="arrowleft" xlink:href="#arrowLeft" x="0" y="0" onmousedown="handlePan(-1,0)"/>
</g>
<svg viewBox="0 0 15 15" width="100%" height="30px" preserveAspectRatio="xMaxYMin meet">
 <g id="arrow_out" transform="scale(0.3 0.3)">
  <a xlink:href="tuple_8cpp__incl_org.svg" target="_base">
   <rect id="button" ry="5" rx="5" y="6" x="6" height="38" width="38"
        fill="#f2f5e9" fill-opacity="0.5" stroke="#606060" stroke-width="1.0"/>
   <path id="arrow"
     d="M 11.500037,31.436501 C 11.940474,20.09759 22.043105,11.32322 32.158766,21.979434 L 37.068811,17.246167 C 37.068811,17.246167 37.088388,32 37.088388,32 L 22.160133,31.978069 C 22.160133,31.978069 26.997745,27.140456 26.997745,27.140456 C 18.528582,18.264221 13.291696,25.230495 11.500037,31.436501 z"
     style="fill:#404040;"/>
  </a>
 </g>
</svg>

<style type='text/css'>
<![CDATA[
[data-mouse-over-selected='false'] { opacity: 0.7; }
[data-mouse-over-selected='true']  { opacity: 1.0; }
]]>
</style>
<script type="application/ecmascript"><![CDATA[
document.addEventListener('DOMContentLoaded', (event) => {
  highlightEdges();
  highlightAdjacentNodes();
});
]]></script>
</svg>
