<?xml version="1.0" encoding="UTF-8" standalone="no"?>
<!DOCTYPE svg PUBLIC "-//W3C//DTD SVG 1.1//EN"
 "http://www.w3.org/Graphics/SVG/1.1/DTD/svg11.dtd">
<!-- Generated by graphviz version 2.43.0 (0)
 -->
<!-- Title: src/recovery/log_manager.cpp Pages: 1 -->
<!--zoomable 467 -->

<svg id="main" version="1.1" xmlns="http://www.w3.org/2000/svg" xmlns:xlink="http://www.w3.org/1999/xlink" xml:space="preserve" onload="init(evt)">
<style type="text/css"><![CDATA[
.node, .edge {opacity: 0.7;}
.node.selected, .edge.selected {opacity: 1;}
.edge:hover path { stroke: red; }
.edge:hover polygon { stroke: red; fill: red; }
]]></style>

<defs>
  <circle id="rim" cx="0" cy="0" r="7"/>
  <circle id="rim2" cx="0" cy="0" r="3.5"/>
  <g id="zoomPlus">
    <use xlink:href="#rim" fill="#404040"><set attributeName="fill" to="#808080" begin="zoomplus.mouseover" end="zoomplus.mouseout"/></use>
    <path d="M-4,0h8M0,-4v8" fill="none" stroke="white" stroke-width="1.5" pointer-events="none"/>
  </g>
  <g id="zoomMin">
    <use xlink:href="#rim" fill="#404040"><set attributeName="fill" to="#808080" begin="zoomminus.mouseover" end="zoomminus.mouseout"/></use>
    <path d="M-4,0h8" fill="none" stroke="white" stroke-width="1.5" pointer-events="none"/>
  </g>
  <g id="arrowUp" transform="translate(30 24)">
    <use xlink:href="#rim"/>
    <path pointer-events="none" fill="none" stroke="white" stroke-width="1.5" d="M0,-3.0v7 M-2.5,-0.5L0,-3.0L2.5,-0.5"/>
  </g>
  <g id="arrowRight" transform="rotate(90) translate(36 -43)">
    <use xlink:href="#rim"/>
    <path pointer-events="none" fill="none" stroke="white" stroke-width="1.5" d="M0,-3.0v7 M-2.5,-0.5L0,-3.0L2.5,-0.5"/>
  </g>
  <g id="arrowDown" transform="rotate(180) translate(-30 -48)">
    <use xlink:href="#rim"/>
    <path pointer-events="none" fill="none" stroke="white" stroke-width="1.5" d="M0,-3.0v7 M-2.5,-0.5L0,-3.0L2.5,-0.5"/>
  </g>
  <g id="arrowLeft" transform="rotate(270) translate(-36 17)">
    <use xlink:href="#rim"/>
    <path pointer-events="none" fill="none" stroke="white" stroke-width="1.5" d="M0,-3.0v7 M-2.5,-0.5L0,-3.0L2.5,-0.5"/>
  </g>
  <g id="resetDef">
    <use xlink:href="#rim2" fill="#404040"><set attributeName="fill" to="#808080" begin="reset.mouseover" end="reset.mouseout"/></use>
  </g>
</defs>
<script type="application/ecmascript">
var viewWidth = 1824;
var viewHeight = 467;
var sectionId = 'dynsection-0';
</script>
<script type="application/ecmascript" xlink:href="../../svg.min.js"/>
<svg id="graph" class="graph">
<g id="viewport">
<title>src/recovery/log_manager.cpp</title>
<!-- Node1 -->
<g id="Node000001" class="node">
<title>Node1</title>
<g id="a_Node000001"><a xlink:title=" ">
<polygon fill="#999999" stroke="#666666" points="318.5,-459 155.5,-459 155.5,-440 318.5,-440 318.5,-459"/>
<text text-anchor="middle" x="237" y="-447" font-family="Helvetica,sans-Serif" font-size="10.00">src/recovery/log_manager.cpp</text>
</a>
</g>
</g>
<!-- Node2 -->
<g id="Node000002" class="node">
<title>Node2</title>
<g id="a_Node000002"><a xlink:href="../../db/d36/log__manager_8h.html" target="_top" xlink:title=" ">
<polygon fill="white" stroke="#666666" points="304,-404 170,-404 170,-385 304,-385 304,-404"/>
<text text-anchor="middle" x="237" y="-392" font-family="Helvetica,sans-Serif" font-size="10.00">recovery/log_manager.h</text>
</a>
</g>
</g>
<!-- Node1&#45;&gt;Node2 -->
<g id="edge1_Node000001_Node000002" class="edge">
<title>Node1&#45;&gt;Node2</title>
<g id="a_edge1_Node000001_Node000002"><a xlink:title=" ">
<path fill="none" stroke="#63b8ff" d="M237,-439.75C237,-432.8 237,-422.85 237,-414.13"/>
<polygon fill="#63b8ff" stroke="#63b8ff" points="240.5,-414.09 237,-404.09 233.5,-414.09 240.5,-414.09"/>
</a>
</g>
</g>
<!-- Node3 -->
<g id="Node000003" class="node">
<title>Node3</title>
<g id="a_Node000003"><a xlink:title=" ">
<polygon fill="#e0e0e0" stroke="#999999" points="64,-349 0,-349 0,-330 64,-330 64,-349"/>
<text text-anchor="middle" x="32" y="-337" font-family="Helvetica,sans-Serif" font-size="10.00">algorithm</text>
</a>
</g>
</g>
<!-- Node2&#45;&gt;Node3 -->
<g id="edge2_Node000002_Node000003" class="edge">
<title>Node2&#45;&gt;Node3</title>
<g id="a_edge2_Node000002_Node000003"><a xlink:title=" ">
<path fill="none" stroke="#63b8ff" d="M204.06,-384.98C168.74,-375.85 112.54,-361.32 74.05,-351.37"/>
<polygon fill="#63b8ff" stroke="#63b8ff" points="74.74,-347.93 64.18,-348.82 72.98,-354.71 74.74,-347.93"/>
</a>
</g>
</g>
<!-- Node4 -->
<g id="Node000004" class="node">
<title>Node4</title>
<g id="a_Node000004"><a xlink:title=" ">
<polygon fill="#e0e0e0" stroke="#999999" points="189.5,-349 82.5,-349 82.5,-330 189.5,-330 189.5,-349"/>
<text text-anchor="middle" x="136" y="-337" font-family="Helvetica,sans-Serif" font-size="10.00">condition_variable</text>
</a>
</g>
</g>
<!-- Node2&#45;&gt;Node4 -->
<g id="edge3_Node000002_Node000004" class="edge">
<title>Node2&#45;&gt;Node4</title>
<g id="a_edge3_Node000002_Node000004"><a xlink:title=" ">
<path fill="none" stroke="#63b8ff" d="M220.77,-384.98C204.82,-376.61 180.22,-363.7 161.62,-353.95"/>
<polygon fill="#63b8ff" stroke="#63b8ff" points="163,-350.72 152.52,-349.17 159.75,-356.92 163,-350.72"/>
</a>
</g>
</g>
<!-- Node5 -->
<g id="Node000005" class="node">
<title>Node5</title>
<g id="a_Node000005"><a xlink:title=" ">
<polygon fill="#e0e0e0" stroke="#999999" points="239,-294 193,-294 193,-275 239,-275 239,-294"/>
<text text-anchor="middle" x="216" y="-282" font-family="Helvetica,sans-Serif" font-size="10.00">future</text>
</a>
</g>
</g>
<!-- Node2&#45;&gt;Node5 -->
<g id="edge4_Node000002_Node000005" class="edge">
<title>Node2&#45;&gt;Node5</title>
<g id="a_edge4_Node000002_Node000005"><a xlink:title=" ">
<path fill="none" stroke="#63b8ff" d="M235.28,-384.66C231.88,-367.17 224.23,-327.8 219.65,-304.27"/>
<polygon fill="#63b8ff" stroke="#63b8ff" points="223.03,-303.31 217.68,-294.16 216.16,-304.64 223.03,-303.31"/>
</a>
</g>
</g>
<!-- Node6 -->
<g id="Node000006" class="node">
<title>Node6</title>
<g id="a_Node000006"><a xlink:title=" ">
<polygon fill="#e0e0e0" stroke="#999999" points="305,-294 257,-294 257,-275 305,-275 305,-294"/>
<text text-anchor="middle" x="281" y="-282" font-family="Helvetica,sans-Serif" font-size="10.00">mutex</text>
</a>
</g>
</g>
<!-- Node2&#45;&gt;Node6 -->
<g id="edge5_Node000002_Node000006" class="edge">
<title>Node2&#45;&gt;Node6</title>
<g id="a_edge5_Node000002_Node000006"><a xlink:title=" ">
<path fill="none" stroke="#63b8ff" d="M240.6,-384.66C247.79,-367.01 264.06,-327.09 273.61,-303.64"/>
<polygon fill="#63b8ff" stroke="#63b8ff" points="276.94,-304.74 277.47,-294.16 270.46,-302.1 276.94,-304.74"/>
</a>
</g>
</g>
<!-- Node7 -->
<g id="Node000007" class="node">
<title>Node7</title>
<g id="a_Node000007"><a xlink:href="../../db/d40/log__record_8h.html" target="_top" xlink:title=" ">
<polygon fill="white" stroke="#666666" points="585,-349 463,-349 463,-330 585,-330 585,-349"/>
<text text-anchor="middle" x="524" y="-337" font-family="Helvetica,sans-Serif" font-size="10.00">recovery/log_record.h</text>
</a>
</g>
</g>
<!-- Node2&#45;&gt;Node7 -->
<g id="edge6_Node000002_Node000007" class="edge">
<title>Node2&#45;&gt;Node7</title>
<g id="a_edge6_Node000002_Node000007"><a xlink:title=" ">
<path fill="none" stroke="#63b8ff" d="M283.11,-384.98C333.28,-375.72 413.51,-360.9 467.44,-350.94"/>
<polygon fill="#63b8ff" stroke="#63b8ff" points="468.33,-354.34 477.53,-349.08 467.06,-347.46 468.33,-354.34"/>
</a>
</g>
</g>
<!-- Node39 -->
<g id="Node000039" class="node">
<title>Node39</title>
<g id="a_Node000039"><a xlink:href="../../d6/d30/disk__manager_8h.html" target="_top" xlink:title=" ">
<polygon fill="white" stroke="#666666" points="441.5,-349 284.5,-349 284.5,-330 441.5,-330 441.5,-349"/>
<text text-anchor="middle" x="363" y="-337" font-family="Helvetica,sans-Serif" font-size="10.00">storage/disk/disk_manager.h</text>
</a>
</g>
</g>
<!-- Node2&#45;&gt;Node39 -->
<g id="edge64_Node000002_Node000039" class="edge">
<title>Node2&#45;&gt;Node39</title>
<g id="a_edge64_Node000002_Node000039"><a xlink:title=" ">
<path fill="none" stroke="#63b8ff" d="M257.24,-384.98C277.7,-376.38 309.53,-362.99 332.93,-353.15"/>
<polygon fill="#63b8ff" stroke="#63b8ff" points="334.53,-356.27 342.39,-349.17 331.81,-349.82 334.53,-356.27"/>
</a>
</g>
</g>
<!-- Node8 -->
<g id="Node000008" class="node">
<title>Node8</title>
<g id="a_Node000008"><a xlink:title=" ">
<polygon fill="#e0e0e0" stroke="#999999" points="1343,-74 1291,-74 1291,-55 1343,-55 1343,-74"/>
<text text-anchor="middle" x="1317" y="-62" font-family="Helvetica,sans-Serif" font-size="10.00">cassert</text>
</a>
</g>
</g>
<!-- Node7&#45;&gt;Node8 -->
<g id="edge7_Node000007_Node000008" class="edge">
<title>Node7&#45;&gt;Node8</title>
<g id="a_edge7_Node000007_Node000008"><a xlink:title=" ">
<path fill="none" stroke="#63b8ff" d="M585.38,-334.5C699.79,-325.81 952.46,-300.78 1156,-239 1212.53,-221.84 1234.32,-224.84 1277,-184 1305.02,-157.2 1313.41,-110.13 1315.93,-84.11"/>
<polygon fill="#63b8ff" stroke="#63b8ff" points="1319.42,-84.31 1316.7,-74.07 1312.44,-83.77 1319.42,-84.31"/>
</a>
</g>
</g>
<!-- Node9 -->
<g id="Node000009" class="node">
<title>Node9</title>
<g id="a_Node000009"><a xlink:title=" ">
<polygon fill="#e0e0e0" stroke="#999999" points="965,-19 921,-19 921,0 965,0 965,-19"/>
<text text-anchor="middle" x="943" y="-7" font-family="Helvetica,sans-Serif" font-size="10.00">string</text>
</a>
</g>
</g>
<!-- Node7&#45;&gt;Node9 -->
<g id="edge8_Node000007_Node000009" class="edge">
<title>Node7&#45;&gt;Node9</title>
<g id="a_edge8_Node000007_Node000009"><a xlink:title=" ">
<path fill="none" stroke="#63b8ff" d="M516.14,-329.69C496.15,-306.35 445,-240.28 445,-175.5 445,-175.5 445,-175.5 445,-118.5 445,-22.82 800.51,-11.72 910.78,-10.58"/>
<polygon fill="#63b8ff" stroke="#63b8ff" points="910.99,-14.08 920.96,-10.5 910.93,-7.08 910.99,-14.08"/>
</a>
</g>
</g>
<!-- Node10 -->
<g id="Node000010" class="node">
<title>Node10</title>
<g id="a_Node000010"><a xlink:href="../../db/d16/config_8h.html" target="_top" xlink:title=" ">
<polygon fill="white" stroke="#666666" points="574.5,-184 473.5,-184 473.5,-165 574.5,-165 574.5,-184"/>
<text text-anchor="middle" x="524" y="-172" font-family="Helvetica,sans-Serif" font-size="10.00">common/config.h</text>
</a>
</g>
</g>
<!-- Node7&#45;&gt;Node10 -->
<g id="edge9_Node000007_Node000010" class="edge">
<title>Node7&#45;&gt;Node10</title>
<g id="a_edge9_Node000007_Node000010"><a xlink:title=" ">
<path fill="none" stroke="#63b8ff" d="M524,-329.74C524,-304.31 524,-230.08 524,-194.69"/>
<polygon fill="#63b8ff" stroke="#63b8ff" points="527.5,-194.31 524,-184.31 520.5,-194.31 527.5,-194.31"/>
</a>
</g>
</g>
<!-- Node14 -->
<g id="Node000014" class="node">
<title>Node14</title>
<g id="a_Node000014"><a xlink:href="../../d2/d20/tuple_8h.html" target="_top" xlink:title=" ">
<polygon fill="white" stroke="#666666" points="812,-294 694,-294 694,-275 812,-275 812,-294"/>
<text text-anchor="middle" x="753" y="-282" font-family="Helvetica,sans-Serif" font-size="10.00">storage/table/tuple.h</text>
</a>
</g>
</g>
<!-- Node7&#45;&gt;Node14 -->
<g id="edge13_Node000007_Node000014" class="edge">
<title>Node7&#45;&gt;Node14</title>
<g id="a_edge13_Node000007_Node000014"><a xlink:title=" ">
<path fill="none" stroke="#63b8ff" d="M560.79,-329.98C600.24,-320.86 662.98,-306.33 705.98,-296.38"/>
<polygon fill="#63b8ff" stroke="#63b8ff" points="706.97,-299.75 715.92,-294.08 705.39,-292.93 706.97,-299.75"/>
</a>
</g>
</g>
<!-- Node11 -->
<g id="Node000011" class="node">
<title>Node11</title>
<g id="a_Node000011"><a xlink:title=" ">
<polygon fill="#e0e0e0" stroke="#999999" points="705,-74 655,-74 655,-55 705,-55 705,-74"/>
<text text-anchor="middle" x="680" y="-62" font-family="Helvetica,sans-Serif" font-size="10.00">atomic</text>
</a>
</g>
</g>
<!-- Node10&#45;&gt;Node11 -->
<g id="edge10_Node000010_Node000011" class="edge">
<title>Node10&#45;&gt;Node11</title>
<g id="a_edge10_Node000010_Node000011"><a xlink:title=" ">
<path fill="none" stroke="#63b8ff" d="M541.16,-164.95C557.52,-156.55 582.62,-142.98 603,-129 624.7,-114.11 647.75,-94.54 662.92,-81.08"/>
<polygon fill="#63b8ff" stroke="#63b8ff" points="665.37,-83.59 670.47,-74.3 660.69,-78.38 665.37,-83.59"/>
</a>
</g>
</g>
<!-- Node12 -->
<g id="Node000012" class="node">
<title>Node12</title>
<g id="a_Node000012"><a xlink:title=" ">
<polygon fill="#e0e0e0" stroke="#999999" points="523,-129 473,-129 473,-110 523,-110 523,-129"/>
<text text-anchor="middle" x="498" y="-117" font-family="Helvetica,sans-Serif" font-size="10.00">chrono</text>
</a>
</g>
</g>
<!-- Node10&#45;&gt;Node12 -->
<g id="edge11_Node000010_Node000012" class="edge">
<title>Node10&#45;&gt;Node12</title>
<g id="a_edge11_Node000010_Node000012"><a xlink:title=" ">
<path fill="none" stroke="#63b8ff" d="M519.71,-164.75C516.19,-157.57 511.09,-147.18 506.72,-138.27"/>
<polygon fill="#63b8ff" stroke="#63b8ff" points="509.76,-136.53 502.21,-129.09 503.48,-139.61 509.76,-136.53"/>
</a>
</g>
</g>
<!-- Node13 -->
<g id="Node000013" class="node">
<title>Node13</title>
<g id="a_Node000013"><a xlink:title=" ">
<polygon fill="#e0e0e0" stroke="#999999" points="1204,-19 1154,-19 1154,0 1204,0 1204,-19"/>
<text text-anchor="middle" x="1179" y="-7" font-family="Helvetica,sans-Serif" font-size="10.00">cstdint</text>
</a>
</g>
</g>
<!-- Node10&#45;&gt;Node13 -->
<g id="edge12_Node000010_Node000013" class="edge">
<title>Node10&#45;&gt;Node13</title>
<g id="a_edge12_Node000010_Node000013"><a xlink:title=" ">
<path fill="none" stroke="#63b8ff" d="M527.4,-164.96C536.94,-142.3 566.33,-80.65 613,-55 636.32,-42.18 1023.17,-19.32 1143.54,-12.48"/>
<polygon fill="#63b8ff" stroke="#63b8ff" points="1143.91,-15.97 1153.69,-11.91 1143.51,-8.98 1143.91,-15.97"/>
</a>
</g>
</g>
<!-- Node14&#45;&gt;Node9 -->
<g id="edge14_Node000014_Node000009" class="edge">
<title>Node14&#45;&gt;Node9</title>
<g id="a_edge14_Node000014_Node000009"><a xlink:title=" ">
<path fill="none" stroke="#63b8ff" d="M750.82,-274.83C745.6,-254.77 731.28,-203.91 711,-165 684.76,-114.64 608.94,-98.03 646,-55 679.83,-15.72 840.32,-10.61 910.27,-10.29"/>
<polygon fill="#63b8ff" stroke="#63b8ff" points="910.7,-13.79 920.69,-10.28 910.69,-6.79 910.7,-13.79"/>
</a>
</g>
</g>
<!-- Node14&#45;&gt;Node10 -->
<g id="edge46_Node000014_Node000010" class="edge">
<title>Node14&#45;&gt;Node10</title>
<g id="a_edge46_Node000014_Node000010"><a xlink:title=" ">
<path fill="none" stroke="#63b8ff" d="M711.84,-274.93C681.98,-267.77 641.18,-255.96 608,-239 582.49,-225.96 556.74,-205.1 540.6,-190.87"/>
<polygon fill="#63b8ff" stroke="#63b8ff" points="542.86,-188.2 533.09,-184.11 538.18,-193.4 542.86,-188.2"/>
</a>
</g>
</g>
<!-- Node15 -->
<g id="Node000015" class="node">
<title>Node15</title>
<g id="a_Node000015"><a xlink:title=" ">
<polygon fill="#e0e0e0" stroke="#999999" points="879.5,-184 832.5,-184 832.5,-165 879.5,-165 879.5,-184"/>
<text text-anchor="middle" x="856" y="-172" font-family="Helvetica,sans-Serif" font-size="10.00">vector</text>
</a>
</g>
</g>
<!-- Node14&#45;&gt;Node15 -->
<g id="edge15_Node000014_Node000015" class="edge">
<title>Node14&#45;&gt;Node15</title>
<g id="a_edge15_Node000014_Node000015"><a xlink:title=" ">
<path fill="none" stroke="#63b8ff" d="M761.43,-274.66C778.79,-256.46 818.76,-214.55 840.77,-191.47"/>
<polygon fill="#63b8ff" stroke="#63b8ff" points="843.37,-193.81 847.74,-184.16 838.31,-188.98 843.37,-193.81"/>
</a>
</g>
</g>
<!-- Node16 -->
<g id="Node000016" class="node">
<title>Node16</title>
<g id="a_Node000016"><a xlink:href="../../d7/de3/schema_8h.html" target="_top" xlink:title=" ">
<polygon fill="white" stroke="#666666" points="1146.5,-239 1043.5,-239 1043.5,-220 1146.5,-220 1146.5,-239"/>
<text text-anchor="middle" x="1095" y="-227" font-family="Helvetica,sans-Serif" font-size="10.00">catalog/schema.h</text>
</a>
</g>
</g>
<!-- Node14&#45;&gt;Node16 -->
<g id="edge16_Node000014_Node000016" class="edge">
<title>Node14&#45;&gt;Node16</title>
<g id="a_edge16_Node000014_Node000016"><a xlink:title=" ">
<path fill="none" stroke="#63b8ff" d="M807.95,-274.98C869.51,-265.44 969.08,-250.01 1033.28,-240.06"/>
<polygon fill="#63b8ff" stroke="#63b8ff" points="1033.92,-243.51 1043.27,-238.52 1032.85,-236.59 1033.92,-243.51"/>
</a>
</g>
</g>
<!-- Node31 -->
<g id="Node000031" class="node">
<title>Node31</title>
<g id="a_Node000031"><a xlink:href="../../d8/d5f/rid_8h.html" target="_top" xlink:title=" ">
<polygon fill="white" stroke="#666666" points="701,-239 617,-239 617,-220 701,-220 701,-239"/>
<text text-anchor="middle" x="659" y="-227" font-family="Helvetica,sans-Serif" font-size="10.00">common/rid.h</text>
</a>
</g>
</g>
<!-- Node14&#45;&gt;Node31 -->
<g id="edge47_Node000014_Node000031" class="edge">
<title>Node14&#45;&gt;Node31</title>
<g id="a_edge47_Node000014_Node000031"><a xlink:title=" ">
<path fill="none" stroke="#63b8ff" d="M737.9,-274.98C723.18,-266.69 700.58,-253.94 683.33,-244.22"/>
<polygon fill="#63b8ff" stroke="#63b8ff" points="684.81,-241.03 674.38,-239.17 681.37,-247.13 684.81,-241.03"/>
</a>
</g>
</g>
<!-- Node33 -->
<g id="Node000033" class="node">
<title>Node33</title>
<g id="a_Node000033"><a xlink:href="../../d4/d3f/value_8h.html" target="_top" xlink:title=" ">
<polygon fill="white" stroke="#666666" points="1627.5,-129 1550.5,-129 1550.5,-110 1627.5,-110 1627.5,-129"/>
<text text-anchor="middle" x="1589" y="-117" font-family="Helvetica,sans-Serif" font-size="10.00">type/value.h</text>
</a>
</g>
</g>
<!-- Node14&#45;&gt;Node33 -->
<g id="edge52_Node000014_Node000033" class="edge">
<title>Node14&#45;&gt;Node33</title>
<g id="a_edge52_Node000014_Node000033"><a xlink:title=" ">
<path fill="none" stroke="#63b8ff" d="M812.15,-279.05C964.28,-267.06 1365.86,-231.69 1490,-184 1520.61,-172.24 1551.77,-150.25 1570.74,-135.49"/>
<polygon fill="#63b8ff" stroke="#63b8ff" points="1573.14,-138.05 1578.79,-129.09 1568.79,-132.58 1573.14,-138.05"/>
</a>
</g>
</g>
<!-- Node16&#45;&gt;Node9 -->
<g id="edge19_Node000016_Node000009" class="edge">
<title>Node16&#45;&gt;Node9</title>
<g id="a_edge19_Node000016_Node000009"><a xlink:title=" ">
<path fill="none" stroke="#63b8ff" d="M1146.52,-225.77C1185.36,-221.5 1238.37,-210.78 1277,-184 1331.51,-146.22 1396.29,-104.37 1352,-55 1326.94,-27.06 1067.34,-15 975.21,-11.58"/>
<polygon fill="#63b8ff" stroke="#63b8ff" points="975.2,-8.08 965.08,-11.22 974.95,-15.07 975.2,-8.08"/>
</a>
</g>
</g>
<!-- Node16&#45;&gt;Node15 -->
<g id="edge20_Node000016_Node000015" class="edge">
<title>Node16&#45;&gt;Node15</title>
<g id="a_edge20_Node000016_Node000015"><a xlink:title=" ">
<path fill="none" stroke="#63b8ff" d="M1056.6,-219.98C1010.42,-209.74 933.66,-192.72 889.69,-182.97"/>
<polygon fill="#63b8ff" stroke="#63b8ff" points="890.3,-179.52 879.78,-180.77 888.78,-186.36 890.3,-179.52"/>
</a>
</g>
</g>
<!-- Node17 -->
<g id="Node000017" class="node">
<title>Node17</title>
<g id="a_Node000017"><a xlink:title=" ">
<polygon fill="#e0e0e0" stroke="#999999" points="1113,-74 1055,-74 1055,-55 1113,-55 1113,-74"/>
<text text-anchor="middle" x="1084" y="-62" font-family="Helvetica,sans-Serif" font-size="10.00">memory</text>
</a>
</g>
</g>
<!-- Node16&#45;&gt;Node17 -->
<g id="edge17_Node000016_Node000017" class="edge">
<title>Node16&#45;&gt;Node17</title>
<g id="a_edge17_Node000016_Node000017"><a xlink:title=" ">
<path fill="none" stroke="#63b8ff" d="M1092.17,-219.75C1089.45,-210.86 1085.54,-196.64 1084,-184 1079.75,-149.06 1081.18,-107.89 1082.6,-84.43"/>
<polygon fill="#63b8ff" stroke="#63b8ff" points="1086.11,-84.38 1083.29,-74.17 1079.12,-83.91 1086.11,-84.38"/>
</a>
</g>
</g>
<!-- Node18 -->
<g id="Node000018" class="node">
<title>Node18</title>
<g id="a_Node000018"><a xlink:title=" ">
<polygon fill="#e0e0e0" stroke="#999999" points="1268,-184 1212,-184 1212,-165 1268,-165 1268,-184"/>
<text text-anchor="middle" x="1240" y="-172" font-family="Helvetica,sans-Serif" font-size="10.00">optional</text>
</a>
</g>
</g>
<!-- Node16&#45;&gt;Node18 -->
<g id="edge18_Node000016_Node000018" class="edge">
<title>Node16&#45;&gt;Node18</title>
<g id="a_edge18_Node000016_Node000018"><a xlink:title=" ">
<path fill="none" stroke="#63b8ff" d="M1118.3,-219.98C1142.25,-211.23 1179.78,-197.51 1206.83,-187.62"/>
<polygon fill="#63b8ff" stroke="#63b8ff" points="1208.09,-190.89 1216.28,-184.17 1205.69,-184.32 1208.09,-190.89"/>
</a>
</g>
</g>
<!-- Node19 -->
<g id="Node000019" class="node">
<title>Node19</title>
<g id="a_Node000019"><a xlink:href="../../dc/df8/column_8h.html" target="_top" xlink:title=" ">
<polygon fill="white" stroke="#666666" points="1193.5,-184 1092.5,-184 1092.5,-165 1193.5,-165 1193.5,-184"/>
<text text-anchor="middle" x="1143" y="-172" font-family="Helvetica,sans-Serif" font-size="10.00">catalog/column.h</text>
</a>
</g>
</g>
<!-- Node16&#45;&gt;Node19 -->
<g id="edge21_Node000016_Node000019" class="edge">
<title>Node16&#45;&gt;Node19</title>
<g id="a_edge21_Node000016_Node000019"><a xlink:title=" ">
<path fill="none" stroke="#63b8ff" d="M1102.93,-219.75C1109.85,-212.11 1120.07,-200.82 1128.45,-191.56"/>
<polygon fill="#63b8ff" stroke="#63b8ff" points="1131.1,-193.85 1135.22,-184.09 1125.91,-189.15 1131.1,-193.85"/>
</a>
</g>
</g>
<!-- Node22 -->
<g id="Node000022" class="node">
<title>Node22</title>
<g id="a_Node000022"><a xlink:href="../../dd/d2d/exception_8h.html" target="_top" xlink:title=" ">
<polygon fill="white" stroke="#666666" points="1010.5,-129 891.5,-129 891.5,-110 1010.5,-110 1010.5,-129"/>
<text text-anchor="middle" x="951" y="-117" font-family="Helvetica,sans-Serif" font-size="10.00">common/exception.h</text>
</a>
</g>
</g>
<!-- Node16&#45;&gt;Node22 -->
<g id="edge44_Node000016_Node000022" class="edge">
<title>Node16&#45;&gt;Node22</title>
<g id="a_edge44_Node000016_Node000022"><a xlink:title=" ">
<path fill="none" stroke="#63b8ff" d="M1082.32,-219.82C1069.5,-210.98 1049.19,-196.79 1032,-184 1010.35,-167.88 986.05,-148.68 969.77,-135.65"/>
<polygon fill="#63b8ff" stroke="#63b8ff" points="971.6,-132.63 961.61,-129.09 967.22,-138.09 971.6,-132.63"/>
</a>
</g>
</g>
<!-- Node27 -->
<g id="Node000027" class="node">
<title>Node27</title>
<g id="a_Node000027"><a xlink:href="../../df/def/type_8h.html" target="_top" xlink:title=" ">
<polygon fill="white" stroke="#666666" points="1471,-74 1399,-74 1399,-55 1471,-55 1471,-74"/>
<text text-anchor="middle" x="1435" y="-62" font-family="Helvetica,sans-Serif" font-size="10.00">type/type.h</text>
</a>
</g>
</g>
<!-- Node16&#45;&gt;Node27 -->
<g id="edge45_Node000016_Node000027" class="edge">
<title>Node16&#45;&gt;Node27</title>
<g id="a_edge45_Node000016_Node000027"><a xlink:title=" ">
<path fill="none" stroke="#63b8ff" d="M1146.68,-221.56C1184.17,-215.19 1235.39,-203.67 1277,-184 1334.59,-156.77 1391.8,-106.65 1418.86,-81.21"/>
<polygon fill="#63b8ff" stroke="#63b8ff" points="1421.43,-83.59 1426.25,-74.16 1416.6,-78.53 1421.43,-83.59"/>
</a>
</g>
</g>
<!-- Node19&#45;&gt;Node9 -->
<g id="edge24_Node000019_Node000009" class="edge">
<title>Node19&#45;&gt;Node9</title>
<g id="a_edge24_Node000019_Node000009"><a xlink:title=" ">
<path fill="none" stroke="#63b8ff" d="M1144.31,-164.99C1147.11,-143.46 1151.24,-86.3 1122,-55 1102.23,-33.83 1021.01,-20.36 975.07,-14.28"/>
<polygon fill="#63b8ff" stroke="#63b8ff" points="975.38,-10.79 965.02,-12.99 974.49,-17.73 975.38,-10.79"/>
</a>
</g>
</g>
<!-- Node19&#45;&gt;Node13 -->
<g id="edge22_Node000019_Node000013" class="edge">
<title>Node19&#45;&gt;Node13</title>
<g id="a_edge22_Node000019_Node000013"><a xlink:title=" ">
<path fill="none" stroke="#63b8ff" d="M1144.94,-164.74C1150.58,-139.2 1167.09,-64.43 1174.86,-29.23"/>
<polygon fill="#63b8ff" stroke="#63b8ff" points="1178.32,-29.83 1177.05,-19.31 1171.48,-28.32 1178.32,-29.83"/>
</a>
</g>
</g>
<!-- Node19&#45;&gt;Node17 -->
<g id="edge23_Node000019_Node000017" class="edge">
<title>Node19&#45;&gt;Node17</title>
<g id="a_edge23_Node000019_Node000017"><a xlink:title=" ">
<path fill="none" stroke="#63b8ff" d="M1134.9,-164.87C1127.18,-156.31 1115.63,-142.52 1108,-129 1099.85,-114.57 1093.41,-96.83 1089.27,-83.77"/>
<polygon fill="#63b8ff" stroke="#63b8ff" points="1092.58,-82.64 1086.33,-74.08 1085.88,-84.67 1092.58,-82.64"/>
</a>
</g>
</g>
<!-- Node20 -->
<g id="Node000020" class="node">
<title>Node20</title>
<g id="a_Node000020"><a xlink:title=" ">
<polygon fill="#e0e0e0" stroke="#999999" points="1534.5,-74 1489.5,-74 1489.5,-55 1534.5,-55 1534.5,-74"/>
<text text-anchor="middle" x="1512" y="-62" font-family="Helvetica,sans-Serif" font-size="10.00">utility</text>
</a>
</g>
</g>
<!-- Node19&#45;&gt;Node20 -->
<g id="edge25_Node000019_Node000020" class="edge">
<title>Node19&#45;&gt;Node20</title>
<g id="a_edge25_Node000019_Node000020"><a xlink:title=" ">
<path fill="none" stroke="#63b8ff" d="M1188.82,-164.93C1229.03,-156.98 1288.9,-144.13 1340,-129 1390.84,-113.95 1448.33,-91.6 1482.3,-77.82"/>
<polygon fill="#63b8ff" stroke="#63b8ff" points="1483.71,-81.03 1491.64,-74.01 1481.06,-74.55 1483.71,-81.03"/>
</a>
</g>
</g>
<!-- Node21 -->
<g id="Node000021" class="node">
<title>Node21</title>
<g id="a_Node000021"><a xlink:title=" ">
<polygon fill="#e0e0e0" stroke="#999999" points="1631.5,-74 1552.5,-74 1552.5,-55 1631.5,-55 1631.5,-74"/>
<text text-anchor="middle" x="1592" y="-62" font-family="Helvetica,sans-Serif" font-size="10.00">fmt/format.h</text>
</a>
</g>
</g>
<!-- Node19&#45;&gt;Node21 -->
<g id="edge26_Node000019_Node000021" class="edge">
<title>Node19&#45;&gt;Node21</title>
<g id="a_edge26_Node000019_Node000021"><a xlink:title=" ">
<path fill="none" stroke="#63b8ff" d="M1193.7,-165.72C1242.31,-157.86 1317.62,-144.68 1382,-129 1444.56,-113.76 1516.08,-90.96 1557.44,-77.23"/>
<polygon fill="#63b8ff" stroke="#63b8ff" points="1558.65,-80.51 1567.03,-74.02 1556.44,-73.87 1558.65,-80.51"/>
</a>
</g>
</g>
<!-- Node19&#45;&gt;Node22 -->
<g id="edge27_Node000019_Node000022" class="edge">
<title>Node19&#45;&gt;Node22</title>
<g id="a_edge27_Node000019_Node000022"><a xlink:title=" ">
<path fill="none" stroke="#63b8ff" d="M1112.15,-164.98C1079.5,-155.97 1027.8,-141.7 991.8,-131.76"/>
<polygon fill="#63b8ff" stroke="#63b8ff" points="992.66,-128.37 982.09,-129.08 990.8,-135.12 992.66,-128.37"/>
</a>
</g>
</g>
<!-- Node19&#45;&gt;Node27 -->
<g id="edge43_Node000019_Node000027" class="edge">
<title>Node19&#45;&gt;Node27</title>
<g id="a_edge43_Node000019_Node000027"><a xlink:title=" ">
<path fill="none" stroke="#63b8ff" d="M1181.94,-164.96C1215.17,-157.17 1263.94,-144.51 1305,-129 1343.13,-114.59 1385.15,-92.94 1410.81,-79.01"/>
<polygon fill="#63b8ff" stroke="#63b8ff" points="1412.72,-81.96 1419.81,-74.08 1409.35,-75.82 1412.72,-81.96"/>
</a>
</g>
</g>
<!-- Node29 -->
<g id="Node000029" class="node">
<title>Node29</title>
<g id="a_Node000029"><a xlink:href="../../de/d3c/macros_8h.html" target="_top" xlink:title=" ">
<polygon fill="white" stroke="#666666" points="1295.5,-129 1188.5,-129 1188.5,-110 1295.5,-110 1295.5,-129"/>
<text text-anchor="middle" x="1242" y="-117" font-family="Helvetica,sans-Serif" font-size="10.00">common/macros.h</text>
</a>
</g>
</g>
<!-- Node19&#45;&gt;Node29 -->
<g id="edge39_Node000019_Node000029" class="edge">
<title>Node19&#45;&gt;Node29</title>
<g id="a_edge39_Node000019_Node000029"><a xlink:title=" ">
<path fill="none" stroke="#63b8ff" d="M1158.91,-164.98C1174.55,-156.61 1198.66,-143.7 1216.88,-133.95"/>
<polygon fill="#63b8ff" stroke="#63b8ff" points="1218.64,-136.98 1225.8,-129.17 1215.34,-130.8 1218.64,-136.98"/>
</a>
</g>
</g>
<!-- Node22&#45;&gt;Node9 -->
<g id="edge34_Node000022_Node000009" class="edge">
<title>Node22&#45;&gt;Node9</title>
<g id="a_edge34_Node000022_Node000009"><a xlink:title=" ">
<path fill="none" stroke="#63b8ff" d="M950.35,-109.66C949.05,-92.17 946.13,-52.8 944.39,-29.27"/>
<polygon fill="#63b8ff" stroke="#63b8ff" points="947.87,-28.87 943.64,-19.16 940.89,-29.39 947.87,-28.87"/>
</a>
</g>
</g>
<!-- Node22&#45;&gt;Node11 -->
<g id="edge28_Node000022_Node000011" class="edge">
<title>Node22&#45;&gt;Node11</title>
<g id="a_edge28_Node000022_Node000011"><a xlink:title=" ">
<path fill="none" stroke="#63b8ff" d="M900.89,-109.98C854.96,-101.97 784.86,-89.25 715.06,-74.13"/>
<polygon fill="#63b8ff" stroke="#63b8ff" points="715.73,-70.69 705.21,-71.98 714.24,-77.53 715.73,-70.69"/>
</a>
</g>
</g>
<!-- Node22&#45;&gt;Node17 -->
<g id="edge32_Node000022_Node000017" class="edge">
<title>Node22&#45;&gt;Node17</title>
<g id="a_edge32_Node000022_Node000017"><a xlink:title=" ">
<path fill="none" stroke="#63b8ff" d="M972.37,-109.98C994.15,-101.3 1028.16,-87.75 1052.92,-77.88"/>
<polygon fill="#63b8ff" stroke="#63b8ff" points="1054.25,-81.12 1062.24,-74.17 1051.66,-74.62 1054.25,-81.12"/>
</a>
</g>
</g>
<!-- Node23 -->
<g id="Node000023" class="node">
<title>Node23</title>
<g id="a_Node000023"><a xlink:title=" ">
<polygon fill="#e0e0e0" stroke="#999999" points="769,-74 723,-74 723,-55 769,-55 769,-74"/>
<text text-anchor="middle" x="746" y="-62" font-family="Helvetica,sans-Serif" font-size="10.00">cstdio</text>
</a>
</g>
</g>
<!-- Node22&#45;&gt;Node23 -->
<g id="edge29_Node000022_Node000023" class="edge">
<title>Node22&#45;&gt;Node23</title>
<g id="a_edge29_Node000022_Node000023"><a xlink:title=" ">
<path fill="none" stroke="#63b8ff" d="M918.06,-109.98C879.99,-100.14 817.68,-84.03 779.41,-74.14"/>
<polygon fill="#63b8ff" stroke="#63b8ff" points="779.85,-70.64 769.29,-71.52 778.1,-77.41 779.85,-70.64"/>
</a>
</g>
</g>
<!-- Node24 -->
<g id="Node000024" class="node">
<title>Node24</title>
<g id="a_Node000024"><a xlink:title=" ">
<polygon fill="#e0e0e0" stroke="#999999" points="836.5,-74 787.5,-74 787.5,-55 836.5,-55 836.5,-74"/>
<text text-anchor="middle" x="812" y="-62" font-family="Helvetica,sans-Serif" font-size="10.00">cstdlib</text>
</a>
</g>
</g>
<!-- Node22&#45;&gt;Node24 -->
<g id="edge30_Node000022_Node000024" class="edge">
<title>Node22&#45;&gt;Node24</title>
<g id="a_edge30_Node000022_Node000024"><a xlink:title=" ">
<path fill="none" stroke="#63b8ff" d="M928.67,-109.98C905.8,-101.27 870.04,-87.63 844.14,-77.75"/>
<polygon fill="#63b8ff" stroke="#63b8ff" points="845.33,-74.46 834.74,-74.17 842.84,-81 845.33,-74.46"/>
</a>
</g>
</g>
<!-- Node25 -->
<g id="Node000025" class="node">
<title>Node25</title>
<g id="a_Node000025"><a xlink:title=" ">
<polygon fill="#e0e0e0" stroke="#999999" points="915,-74 855,-74 855,-55 915,-55 915,-74"/>
<text text-anchor="middle" x="885" y="-62" font-family="Helvetica,sans-Serif" font-size="10.00">iostream</text>
</a>
</g>
</g>
<!-- Node22&#45;&gt;Node25 -->
<g id="edge31_Node000022_Node000025" class="edge">
<title>Node22&#45;&gt;Node25</title>
<g id="a_edge31_Node000022_Node000025"><a xlink:title=" ">
<path fill="none" stroke="#63b8ff" d="M940.4,-109.98C930.54,-102.07 915.65,-90.11 903.78,-80.58"/>
<polygon fill="#63b8ff" stroke="#63b8ff" points="905.79,-77.7 895.8,-74.17 901.4,-83.16 905.79,-77.7"/>
</a>
</g>
</g>
<!-- Node26 -->
<g id="Node000026" class="node">
<title>Node26</title>
<g id="a_Node000026"><a xlink:title=" ">
<polygon fill="#e0e0e0" stroke="#999999" points="1036.5,-74 971.5,-74 971.5,-55 1036.5,-55 1036.5,-74"/>
<text text-anchor="middle" x="1004" y="-62" font-family="Helvetica,sans-Serif" font-size="10.00">stdexcept</text>
</a>
</g>
</g>
<!-- Node22&#45;&gt;Node26 -->
<g id="edge33_Node000022_Node000026" class="edge">
<title>Node22&#45;&gt;Node26</title>
<g id="a_edge33_Node000022_Node000026"><a xlink:title=" ">
<path fill="none" stroke="#63b8ff" d="M959.75,-109.75C967.47,-102.03 978.9,-90.6 988.22,-81.28"/>
<polygon fill="#63b8ff" stroke="#63b8ff" points="990.81,-83.64 995.41,-74.09 985.86,-78.69 990.81,-83.64"/>
</a>
</g>
</g>
<!-- Node22&#45;&gt;Node27 -->
<g id="edge35_Node000022_Node000027" class="edge">
<title>Node22&#45;&gt;Node27</title>
<g id="a_edge35_Node000022_Node000027"><a xlink:title=" ">
<path fill="none" stroke="#63b8ff" d="M1010.83,-111.95C1108.63,-101.24 1300.65,-80.21 1388.79,-70.56"/>
<polygon fill="#63b8ff" stroke="#63b8ff" points="1389.2,-74.04 1398.76,-69.47 1388.43,-67.08 1389.2,-74.04"/>
</a>
</g>
</g>
<!-- Node27&#45;&gt;Node9 -->
<g id="edge37_Node000027_Node000009" class="edge">
<title>Node27&#45;&gt;Node9</title>
<g id="a_edge37_Node000027_Node000009"><a xlink:title=" ">
<path fill="none" stroke="#63b8ff" d="M1398.99,-57.08C1394.29,-56.33 1389.54,-55.61 1385,-55 1232.34,-34.36 1048.82,-18.84 975.53,-13.01"/>
<polygon fill="#63b8ff" stroke="#63b8ff" points="975.38,-9.49 965.14,-12.19 974.83,-16.47 975.38,-9.49"/>
</a>
</g>
</g>
<!-- Node27&#45;&gt;Node13 -->
<g id="edge36_Node000027_Node000013" class="edge">
<title>Node27&#45;&gt;Node13</title>
<g id="a_edge36_Node000027_Node000013"><a xlink:title=" ">
<path fill="none" stroke="#63b8ff" d="M1398.86,-56.02C1349.81,-45.86 1262.72,-27.83 1214.18,-17.78"/>
<polygon fill="#63b8ff" stroke="#63b8ff" points="1214.64,-14.31 1204.14,-15.71 1213.23,-21.16 1214.64,-14.31"/>
</a>
</g>
</g>
<!-- Node28 -->
<g id="Node000028" class="node">
<title>Node28</title>
<g id="a_Node000028"><a xlink:href="../../dc/df2/type__id_8h.html" target="_top" xlink:title=" ">
<polygon fill="white" stroke="#666666" points="1478,-19 1392,-19 1392,0 1478,0 1478,-19"/>
<text text-anchor="middle" x="1435" y="-7" font-family="Helvetica,sans-Serif" font-size="10.00">type/type_id.h</text>
</a>
</g>
</g>
<!-- Node27&#45;&gt;Node28 -->
<g id="edge38_Node000027_Node000028" class="edge">
<title>Node27&#45;&gt;Node28</title>
<g id="a_edge38_Node000027_Node000028"><a xlink:title=" ">
<path fill="none" stroke="#63b8ff" d="M1435,-54.75C1435,-47.8 1435,-37.85 1435,-29.13"/>
<polygon fill="#63b8ff" stroke="#63b8ff" points="1438.5,-29.09 1435,-19.09 1431.5,-29.09 1438.5,-29.09"/>
</a>
</g>
</g>
<!-- Node29&#45;&gt;Node8 -->
<g id="edge40_Node000029_Node000008" class="edge">
<title>Node29&#45;&gt;Node8</title>
<g id="a_edge40_Node000029_Node000008"><a xlink:title=" ">
<path fill="none" stroke="#63b8ff" d="M1254.05,-109.98C1265.46,-101.92 1282.83,-89.65 1296.43,-80.03"/>
<polygon fill="#63b8ff" stroke="#63b8ff" points="1298.58,-82.8 1304.73,-74.17 1294.54,-77.08 1298.58,-82.8"/>
</a>
</g>
</g>
<!-- Node29&#45;&gt;Node26 -->
<g id="edge42_Node000029_Node000026" class="edge">
<title>Node29&#45;&gt;Node26</title>
<g id="a_edge42_Node000029_Node000026"><a xlink:title=" ">
<path fill="none" stroke="#63b8ff" d="M1203.76,-109.98C1160.85,-100.43 1091.41,-84.97 1046.74,-75.02"/>
<polygon fill="#63b8ff" stroke="#63b8ff" points="1047.3,-71.56 1036.78,-72.8 1045.78,-78.39 1047.3,-71.56"/>
</a>
</g>
</g>
<!-- Node30 -->
<g id="Node000030" class="node">
<title>Node30</title>
<g id="a_Node000030"><a xlink:title=" ">
<polygon fill="#e0e0e0" stroke="#999999" points="1272.5,-74 1207.5,-74 1207.5,-55 1272.5,-55 1272.5,-74"/>
<text text-anchor="middle" x="1240" y="-62" font-family="Helvetica,sans-Serif" font-size="10.00">exception</text>
</a>
</g>
</g>
<!-- Node29&#45;&gt;Node30 -->
<g id="edge41_Node000029_Node000030" class="edge">
<title>Node29&#45;&gt;Node30</title>
<g id="a_edge41_Node000029_Node000030"><a xlink:title=" ">
<path fill="none" stroke="#63b8ff" d="M1241.67,-109.75C1241.41,-102.8 1241.03,-92.85 1240.7,-84.13"/>
<polygon fill="#63b8ff" stroke="#63b8ff" points="1244.2,-83.95 1240.32,-74.09 1237.2,-84.21 1244.2,-83.95"/>
</a>
</g>
</g>
<!-- Node31&#45;&gt;Node9 -->
<g id="edge50_Node000031_Node000009" class="edge">
<title>Node31&#45;&gt;Node9</title>
<g id="a_edge50_Node000031_Node000009"><a xlink:title=" ">
<path fill="none" stroke="#63b8ff" d="M670.38,-219.88C685.05,-207.67 707.39,-184.65 696,-165 652.89,-90.66 479.64,-118.99 537,-55 561.84,-27.29 818.98,-15.1 910.71,-11.61"/>
<polygon fill="#63b8ff" stroke="#63b8ff" points="910.94,-15.11 920.8,-11.24 910.68,-8.11 910.94,-15.11"/>
</a>
</g>
</g>
<!-- Node31&#45;&gt;Node10 -->
<g id="edge51_Node000031_Node000010" class="edge">
<title>Node31&#45;&gt;Node10</title>
<g id="a_edge51_Node000031_Node000010"><a xlink:title=" ">
<path fill="none" stroke="#63b8ff" d="M637.31,-219.98C615.2,-211.3 580.68,-197.75 555.55,-187.88"/>
<polygon fill="#63b8ff" stroke="#63b8ff" points="556.67,-184.57 546.08,-184.17 554.11,-191.08 556.67,-184.57"/>
</a>
</g>
</g>
<!-- Node31&#45;&gt;Node13 -->
<g id="edge48_Node000031_Node000013" class="edge">
<title>Node31&#45;&gt;Node13</title>
<g id="a_edge48_Node000031_Node000013"><a xlink:title=" ">
<path fill="none" stroke="#63b8ff" d="M648.56,-219.87C639.58,-211.7 627.26,-198.55 622,-184 607.12,-142.82 591.6,-102.68 646,-55 664.77,-38.55 1028.08,-18.34 1143.87,-12.29"/>
<polygon fill="#63b8ff" stroke="#63b8ff" points="1144.17,-15.78 1153.97,-11.77 1143.8,-8.79 1144.17,-15.78"/>
</a>
</g>
</g>
<!-- Node32 -->
<g id="Node000032" class="node">
<title>Node32</title>
<g id="a_Node000032"><a xlink:title=" ">
<polygon fill="#e0e0e0" stroke="#999999" points="687,-184 631,-184 631,-165 687,-165 687,-184"/>
<text text-anchor="middle" x="659" y="-172" font-family="Helvetica,sans-Serif" font-size="10.00">sstream</text>
</a>
</g>
</g>
<!-- Node31&#45;&gt;Node32 -->
<g id="edge49_Node000031_Node000032" class="edge">
<title>Node31&#45;&gt;Node32</title>
<g id="a_edge49_Node000031_Node000032"><a xlink:title=" ">
<path fill="none" stroke="#63b8ff" d="M659,-219.75C659,-212.8 659,-202.85 659,-194.13"/>
<polygon fill="#63b8ff" stroke="#63b8ff" points="662.5,-194.09 659,-184.09 655.5,-194.09 662.5,-194.09"/>
</a>
</g>
</g>
<!-- Node33&#45;&gt;Node9 -->
<g id="edge55_Node000033_Node000009" class="edge">
<title>Node33&#45;&gt;Node9</title>
<g id="a_edge55_Node000033_Node000009"><a xlink:title=" ">
<path fill="none" stroke="#63b8ff" d="M1627.73,-118.83C1703.11,-118.26 1857.76,-110.55 1805,-55 1797.72,-47.33 1132.49,-18.56 975.79,-11.89"/>
<polygon fill="#63b8ff" stroke="#63b8ff" points="975.54,-8.38 965.4,-11.45 975.25,-15.37 975.54,-8.38"/>
</a>
</g>
</g>
<!-- Node33&#45;&gt;Node17 -->
<g id="edge54_Node000033_Node000017" class="edge">
<title>Node33&#45;&gt;Node17</title>
<g id="a_edge54_Node000033_Node000017"><a xlink:title=" ">
<path fill="none" stroke="#63b8ff" d="M1550.21,-114.43C1456.27,-104.57 1217.35,-79.49 1123.09,-69.6"/>
<polygon fill="#63b8ff" stroke="#63b8ff" points="1123.43,-66.12 1113.12,-68.56 1122.7,-73.08 1123.43,-66.12"/>
</a>
</g>
</g>
<!-- Node33&#45;&gt;Node20 -->
<g id="edge56_Node000033_Node000020" class="edge">
<title>Node33&#45;&gt;Node20</title>
<g id="a_edge56_Node000033_Node000020"><a xlink:title=" ">
<path fill="none" stroke="#63b8ff" d="M1576.63,-109.98C1564.91,-101.92 1547.08,-89.65 1533.11,-80.03"/>
<polygon fill="#63b8ff" stroke="#63b8ff" points="1534.82,-76.96 1524.6,-74.17 1530.85,-82.72 1534.82,-76.96"/>
</a>
</g>
</g>
<!-- Node33&#45;&gt;Node21 -->
<g id="edge57_Node000033_Node000021" class="edge">
<title>Node33&#45;&gt;Node21</title>
<g id="a_edge57_Node000033_Node000021"><a xlink:title=" ">
<path fill="none" stroke="#63b8ff" d="M1589.5,-109.75C1589.89,-102.8 1590.45,-92.85 1590.95,-84.13"/>
<polygon fill="#63b8ff" stroke="#63b8ff" points="1594.44,-84.27 1591.51,-74.09 1587.45,-83.88 1594.44,-84.27"/>
</a>
</g>
</g>
<!-- Node33&#45;&gt;Node27 -->
<g id="edge63_Node000033_Node000027" class="edge">
<title>Node33&#45;&gt;Node27</title>
<g id="a_edge63_Node000033_Node000027"><a xlink:title=" ">
<path fill="none" stroke="#63b8ff" d="M1564.26,-109.98C1538.63,-101.16 1498.37,-87.31 1469.59,-77.41"/>
<polygon fill="#63b8ff" stroke="#63b8ff" points="1470.53,-74.03 1459.94,-74.08 1468.25,-80.65 1470.53,-74.03"/>
</a>
</g>
</g>
<!-- Node34 -->
<g id="Node000034" class="node">
<title>Node34</title>
<g id="a_Node000034"><a xlink:title=" ">
<polygon fill="#e0e0e0" stroke="#999999" points="1796,-74 1746,-74 1746,-55 1796,-55 1796,-74"/>
<text text-anchor="middle" x="1771" y="-62" font-family="Helvetica,sans-Serif" font-size="10.00">cstring</text>
</a>
</g>
</g>
<!-- Node33&#45;&gt;Node34 -->
<g id="edge53_Node000033_Node000034" class="edge">
<title>Node33&#45;&gt;Node34</title>
<g id="a_edge53_Node000033_Node000034"><a xlink:title=" ">
<path fill="none" stroke="#63b8ff" d="M1618.24,-109.98C1650.3,-100.65 1701.71,-85.68 1735.91,-75.72"/>
<polygon fill="#63b8ff" stroke="#63b8ff" points="1737.31,-78.96 1745.93,-72.8 1735.35,-72.24 1737.31,-78.96"/>
</a>
</g>
</g>
<!-- Node35 -->
<g id="Node000035" class="node">
<title>Node35</title>
<g id="a_Node000035"><a xlink:href="../../d9/d86/limits_8h.html" target="_top" xlink:title=" ">
<polygon fill="white" stroke="#666666" points="1728,-74 1650,-74 1650,-55 1728,-55 1728,-74"/>
<text text-anchor="middle" x="1689" y="-62" font-family="Helvetica,sans-Serif" font-size="10.00">type/limits.h</text>
</a>
</g>
</g>
<!-- Node33&#45;&gt;Node35 -->
<g id="edge58_Node000033_Node000035" class="edge">
<title>Node33&#45;&gt;Node35</title>
<g id="a_edge58_Node000033_Node000035"><a xlink:title=" ">
<path fill="none" stroke="#63b8ff" d="M1605.07,-109.98C1620.86,-101.61 1645.22,-88.7 1663.63,-78.95"/>
<polygon fill="#63b8ff" stroke="#63b8ff" points="1665.44,-81.95 1672.64,-74.17 1662.17,-75.76 1665.44,-81.95"/>
</a>
</g>
</g>
<!-- Node35&#45;&gt;Node13 -->
<g id="edge61_Node000035_Node000013" class="edge">
<title>Node35&#45;&gt;Node13</title>
<g id="a_edge61_Node000035_Node000013"><a xlink:title=" ">
<path fill="none" stroke="#63b8ff" d="M1649.75,-56.29C1646.79,-55.82 1643.85,-55.39 1641,-55 1482.39,-33.35 1291.74,-18.51 1214.28,-12.94"/>
<polygon fill="#63b8ff" stroke="#63b8ff" points="1214.34,-9.44 1204.12,-12.22 1213.85,-16.42 1214.34,-9.44"/>
</a>
</g>
</g>
<!-- Node36 -->
<g id="Node000036" class="node">
<title>Node36</title>
<g id="a_Node000036"><a xlink:title=" ">
<polygon fill="#e0e0e0" stroke="#999999" points="1646,-19 1602,-19 1602,0 1646,0 1646,-19"/>
<text text-anchor="middle" x="1624" y="-7" font-family="Helvetica,sans-Serif" font-size="10.00">cfloat</text>
</a>
</g>
</g>
<!-- Node35&#45;&gt;Node36 -->
<g id="edge59_Node000035_Node000036" class="edge">
<title>Node35&#45;&gt;Node36</title>
<g id="a_edge59_Node000035_Node000036"><a xlink:title=" ">
<path fill="none" stroke="#63b8ff" d="M1678.56,-54.98C1668.85,-47.07 1654.18,-35.11 1642.5,-25.58"/>
<polygon fill="#63b8ff" stroke="#63b8ff" points="1644.6,-22.78 1634.63,-19.17 1640.17,-28.2 1644.6,-22.78"/>
</a>
</g>
</g>
<!-- Node37 -->
<g id="Node000037" class="node">
<title>Node37</title>
<g id="a_Node000037"><a xlink:title=" ">
<polygon fill="#e0e0e0" stroke="#999999" points="1714,-19 1664,-19 1664,0 1714,0 1714,-19"/>
<text text-anchor="middle" x="1689" y="-7" font-family="Helvetica,sans-Serif" font-size="10.00">climits</text>
</a>
</g>
</g>
<!-- Node35&#45;&gt;Node37 -->
<g id="edge60_Node000035_Node000037" class="edge">
<title>Node35&#45;&gt;Node37</title>
<g id="a_edge60_Node000035_Node000037"><a xlink:title=" ">
<path fill="none" stroke="#63b8ff" d="M1689,-54.75C1689,-47.8 1689,-37.85 1689,-29.13"/>
<polygon fill="#63b8ff" stroke="#63b8ff" points="1692.5,-29.09 1689,-19.09 1685.5,-29.09 1692.5,-29.09"/>
</a>
</g>
</g>
<!-- Node38 -->
<g id="Node000038" class="node">
<title>Node38</title>
<g id="a_Node000038"><a xlink:title=" ">
<polygon fill="#e0e0e0" stroke="#999999" points="1776,-19 1732,-19 1732,0 1776,0 1776,-19"/>
<text text-anchor="middle" x="1754" y="-7" font-family="Helvetica,sans-Serif" font-size="10.00">limits</text>
</a>
</g>
</g>
<!-- Node35&#45;&gt;Node38 -->
<g id="edge62_Node000035_Node000038" class="edge">
<title>Node35&#45;&gt;Node38</title>
<g id="a_edge62_Node000035_Node000038"><a xlink:title=" ">
<path fill="none" stroke="#63b8ff" d="M1699.44,-54.98C1709.15,-47.07 1723.82,-35.11 1735.5,-25.58"/>
<polygon fill="#63b8ff" stroke="#63b8ff" points="1737.83,-28.2 1743.37,-19.17 1733.4,-22.78 1737.83,-28.2"/>
</a>
</g>
</g>
<!-- Node39&#45;&gt;Node5 -->
<g id="edge66_Node000039_Node000005" class="edge">
<title>Node39&#45;&gt;Node5</title>
<g id="a_edge66_Node000039_Node000005"><a xlink:title=" ">
<path fill="none" stroke="#63b8ff" d="M339.38,-329.98C314.81,-321.12 276.14,-307.18 248.65,-297.27"/>
<polygon fill="#63b8ff" stroke="#63b8ff" points="249.67,-293.92 239.07,-293.82 247.29,-300.5 249.67,-293.92"/>
</a>
</g>
</g>
<!-- Node39&#45;&gt;Node6 -->
<g id="edge67_Node000039_Node000006" class="edge">
<title>Node39&#45;&gt;Node6</title>
<g id="a_edge67_Node000039_Node000006"><a xlink:title=" ">
<path fill="none" stroke="#63b8ff" d="M349.83,-329.98C337.23,-321.84 318,-309.41 303.06,-299.76"/>
<polygon fill="#63b8ff" stroke="#63b8ff" points="304.71,-296.66 294.41,-294.17 300.91,-302.54 304.71,-296.66"/>
</a>
</g>
</g>
<!-- Node39&#45;&gt;Node9 -->
<g id="edge68_Node000039_Node000009" class="edge">
<title>Node39&#45;&gt;Node9</title>
<g id="a_edge68_Node000039_Node000009"><a xlink:title=" ">
<path fill="none" stroke="#63b8ff" d="M369.3,-329.75C381.47,-311.98 407,-269.98 407,-230.5 407,-230.5 407,-230.5 407,-118.5 407,-77.15 437.29,-71.97 475,-55 553.12,-19.83 817.85,-12.42 910.59,-10.89"/>
<polygon fill="#63b8ff" stroke="#63b8ff" points="910.82,-14.38 920.77,-10.73 910.72,-7.39 910.82,-14.38"/>
</a>
</g>
</g>
<!-- Node39&#45;&gt;Node10 -->
<g id="edge69_Node000039_Node000010" class="edge">
<title>Node39&#45;&gt;Node10</title>
<g id="a_edge69_Node000039_Node000010"><a xlink:title=" ">
<path fill="none" stroke="#63b8ff" d="M375.57,-329.97C387.72,-321.47 406.39,-307.74 421,-294 456.56,-260.55 492.78,-215.89 511.33,-192.09"/>
<polygon fill="#63b8ff" stroke="#63b8ff" points="514.2,-194.11 517.54,-184.06 508.66,-189.83 514.2,-194.11"/>
</a>
</g>
</g>
<!-- Node40 -->
<g id="Node000040" class="node">
<title>Node40</title>
<g id="a_Node000040"><a xlink:title=" ">
<polygon fill="#e0e0e0" stroke="#999999" points="378.5,-294 323.5,-294 323.5,-275 378.5,-275 378.5,-294"/>
<text text-anchor="middle" x="351" y="-282" font-family="Helvetica,sans-Serif" font-size="10.00">fstream</text>
</a>
</g>
</g>
<!-- Node39&#45;&gt;Node40 -->
<g id="edge65_Node000039_Node000040" class="edge">
<title>Node39&#45;&gt;Node40</title>
<g id="a_edge65_Node000039_Node000040"><a xlink:title=" ">
<path fill="none" stroke="#63b8ff" d="M361.02,-329.75C359.43,-322.72 357.14,-312.62 355.15,-303.84"/>
<polygon fill="#63b8ff" stroke="#63b8ff" points="358.57,-303.07 352.94,-294.09 351.74,-304.62 358.57,-303.07"/>
</a>
</g>
</g>
</g>
</svg>

<g id="navigator" transform="translate(0 0)" fill="#404254">
  <rect fill="#f2f5e9" fill-opacity="0.5" stroke="#606060" stroke-width=".5" x="0" y="0" width="60" height="60"/>
  <use id="zoomplus" xlink:href="#zoomPlus" x="17" y="9" onmousedown="handleZoom(evt,'in')"/>
  <use id="zoomminus" xlink:href="#zoomMin" x="42" y="9" onmousedown="handleZoom(evt,'out')"/>
  <use id="reset" xlink:href="#resetDef" x="30" y="36" onmousedown="handleReset()"/>
   <use id="arrowup" xlink:href="#arrowUp" x="0" y="0" onmousedown="handlePan(0,-1)"/>
  <use id="arrowright" xlink:href="#arrowRight" x="0" y="0" onmousedown="handlePan(1,0)"/>
  <use id="arrowdown" xlink:href="#arrowDown" x="0" y="0" onmousedown="handlePan(0,1)"/>
  <use id="arrowleft" xlink:href="#arrowLeft" x="0" y="0" onmousedown="handlePan(-1,0)"/>
</g>
<svg viewBox="0 0 15 15" width="100%" height="30px" preserveAspectRatio="xMaxYMin meet">
 <g id="arrow_out" transform="scale(0.3 0.3)">
  <a xlink:href="log__manager_8cpp__incl_org.svg" target="_base">
   <rect id="button" ry="5" rx="5" y="6" x="6" height="38" width="38"
        fill="#f2f5e9" fill-opacity="0.5" stroke="#606060" stroke-width="1.0"/>
   <path id="arrow"
     d="M 11.500037,31.436501 C 11.940474,20.09759 22.043105,11.32322 32.158766,21.979434 L 37.068811,17.246167 C 37.068811,17.246167 37.088388,32 37.088388,32 L 22.160133,31.978069 C 22.160133,31.978069 26.997745,27.140456 26.997745,27.140456 C 18.528582,18.264221 13.291696,25.230495 11.500037,31.436501 z"
     style="fill:#404040;"/>
  </a>
 </g>
</svg>

<style type='text/css'>
<![CDATA[
[data-mouse-over-selected='false'] { opacity: 0.7; }
[data-mouse-over-selected='true']  { opacity: 1.0; }
]]>
</style>
<script type="application/ecmascript"><![CDATA[
document.addEventListener('DOMContentLoaded', (event) => {
  highlightEdges();
  highlightAdjacentNodes();
});
]]></script>
</svg>
