<?xml version="1.0" encoding="UTF-8" standalone="no"?>
<!DOCTYPE svg PUBLIC "-//W3C//DTD SVG 1.1//EN"
 "http://www.w3.org/Graphics/SVG/1.1/DTD/svg11.dtd">
<!-- Generated by graphviz version 2.43.0 (0)
 -->
<!-- Title: src/include/binder/statement/set_show_statement.h Pages: 1 -->
<!--zoomable 280 -->

<svg id="main" version="1.1" xmlns="http://www.w3.org/2000/svg" xmlns:xlink="http://www.w3.org/1999/xlink" xml:space="preserve" onload="init(evt)">
<style type="text/css"><![CDATA[
.node, .edge {opacity: 0.7;}
.node.selected, .edge.selected {opacity: 1;}
.edge:hover path { stroke: red; }
.edge:hover polygon { stroke: red; fill: red; }
]]></style>

<defs>
  <circle id="rim" cx="0" cy="0" r="7"/>
  <circle id="rim2" cx="0" cy="0" r="3.5"/>
  <g id="zoomPlus">
    <use xlink:href="#rim" fill="#404040"><set attributeName="fill" to="#808080" begin="zoomplus.mouseover" end="zoomplus.mouseout"/></use>
    <path d="M-4,0h8M0,-4v8" fill="none" stroke="white" stroke-width="1.5" pointer-events="none"/>
  </g>
  <g id="zoomMin">
    <use xlink:href="#rim" fill="#404040"><set attributeName="fill" to="#808080" begin="zoomminus.mouseover" end="zoomminus.mouseout"/></use>
    <path d="M-4,0h8" fill="none" stroke="white" stroke-width="1.5" pointer-events="none"/>
  </g>
  <g id="arrowUp" transform="translate(30 24)">
    <use xlink:href="#rim"/>
    <path pointer-events="none" fill="none" stroke="white" stroke-width="1.5" d="M0,-3.0v7 M-2.5,-0.5L0,-3.0L2.5,-0.5"/>
  </g>
  <g id="arrowRight" transform="rotate(90) translate(36 -43)">
    <use xlink:href="#rim"/>
    <path pointer-events="none" fill="none" stroke="white" stroke-width="1.5" d="M0,-3.0v7 M-2.5,-0.5L0,-3.0L2.5,-0.5"/>
  </g>
  <g id="arrowDown" transform="rotate(180) translate(-30 -48)">
    <use xlink:href="#rim"/>
    <path pointer-events="none" fill="none" stroke="white" stroke-width="1.5" d="M0,-3.0v7 M-2.5,-0.5L0,-3.0L2.5,-0.5"/>
  </g>
  <g id="arrowLeft" transform="rotate(270) translate(-36 17)">
    <use xlink:href="#rim"/>
    <path pointer-events="none" fill="none" stroke="white" stroke-width="1.5" d="M0,-3.0v7 M-2.5,-0.5L0,-3.0L2.5,-0.5"/>
  </g>
  <g id="resetDef">
    <use xlink:href="#rim2" fill="#404040"><set attributeName="fill" to="#808080" begin="reset.mouseover" end="reset.mouseout"/></use>
  </g>
</defs>
<script type="application/ecmascript">
var viewWidth = 786;
var viewHeight = 280;
var sectionId = 'dynsection-0';
</script>
<script type="application/ecmascript" xlink:href="../../svg.min.js"/>
<svg id="graph" class="graph">
<g id="viewport">
<title>src/include/binder/statement/set_show_statement.h</title>
<!-- Node1 -->
<g id="Node000001" class="node">
<title>Node1</title>
<g id="a_Node000001"><a xlink:title=" ">
<polygon fill="#999999" stroke="#666666" points="672.58,-272 553.58,-272 553.58,-231 672.58,-231 672.58,-272"/>
<text text-anchor="start" x="561.58" y="-260" font-family="Helvetica,sans-Serif" font-size="10.00">src/include/binder</text>
<text text-anchor="start" x="561.58" y="-249" font-family="Helvetica,sans-Serif" font-size="10.00">/statement/set_show</text>
<text text-anchor="middle" x="613.08" y="-238" font-family="Helvetica,sans-Serif" font-size="10.00">_statement.h</text>
</a>
</g>
</g>
<!-- Node2 -->
<g id="Node000002" class="node">
<title>Node2</title>
<g id="a_Node000002"><a xlink:title=" ">
<polygon fill="#e0e0e0" stroke="#999999" points="117.08,-19 73.08,-19 73.08,0 117.08,0 117.08,-19"/>
<text text-anchor="middle" x="95.08" y="-7" font-family="Helvetica,sans-Serif" font-size="10.00">string</text>
</a>
</g>
</g>
<!-- Node1&#45;&gt;Node2 -->
<g id="edge1_Node000001_Node000002" class="edge">
<title>Node1&#45;&gt;Node2</title>
<g id="a_edge1_Node000001_Node000002"><a xlink:title=" ">
<path fill="none" stroke="#63b8ff" d="M553.44,-249.65C449.25,-245.81 230.07,-227.05 71.08,-140 29.6,-117.29 -17.69,-95.28 7.08,-55 19.28,-35.16 43.36,-23.84 63.25,-17.59"/>
<polygon fill="#63b8ff" stroke="#63b8ff" points="64.24,-20.95 72.9,-14.84 62.32,-14.22 64.24,-20.95"/>
</a>
</g>
</g>
<!-- Node3 -->
<g id="Node000003" class="node">
<title>Node3</title>
<g id="a_Node000003"><a xlink:title=" ">
<polygon fill="#e0e0e0" stroke="#999999" points="712.58,-195 667.58,-195 667.58,-176 712.58,-176 712.58,-195"/>
<text text-anchor="middle" x="690.08" y="-183" font-family="Helvetica,sans-Serif" font-size="10.00">utility</text>
</a>
</g>
</g>
<!-- Node1&#45;&gt;Node3 -->
<g id="edge2_Node000001_Node000003" class="edge">
<title>Node1&#45;&gt;Node3</title>
<g id="a_edge2_Node000001_Node000003"><a xlink:title=" ">
<path fill="none" stroke="#63b8ff" d="M636.6,-230.95C647.91,-221.55 661.26,-210.46 671.79,-201.7"/>
<polygon fill="#63b8ff" stroke="#63b8ff" points="674.09,-204.34 679.54,-195.26 669.61,-198.96 674.09,-204.34"/>
</a>
</g>
</g>
<!-- Node4 -->
<g id="Node000004" class="node">
<title>Node4</title>
<g id="a_Node000004"><a xlink:title=" ">
<polygon fill="#e0e0e0" stroke="#999999" points="777.58,-195 730.58,-195 730.58,-176 777.58,-176 777.58,-195"/>
<text text-anchor="middle" x="754.08" y="-183" font-family="Helvetica,sans-Serif" font-size="10.00">vector</text>
</a>
</g>
</g>
<!-- Node1&#45;&gt;Node4 -->
<g id="edge3_Node000001_Node000004" class="edge">
<title>Node1&#45;&gt;Node4</title>
<g id="a_edge3_Node000001_Node000004"><a xlink:title=" ">
<path fill="none" stroke="#63b8ff" d="M656.15,-230.95C678.84,-220.65 706.02,-208.31 725.98,-199.25"/>
<polygon fill="#63b8ff" stroke="#63b8ff" points="727.49,-202.41 735.15,-195.09 724.6,-196.04 727.49,-202.41"/>
</a>
</g>
</g>
<!-- Node5 -->
<g id="Node000005" class="node">
<title>Node5</title>
<g id="a_Node000005"><a xlink:href="../../de/d1a/bound__statement_8h.html" target="_top" xlink:title=" ">
<polygon fill="white" stroke="#666666" points="508.58,-195 363.58,-195 363.58,-176 508.58,-176 508.58,-195"/>
<text text-anchor="middle" x="436.08" y="-183" font-family="Helvetica,sans-Serif" font-size="10.00">binder/bound_statement.h</text>
</a>
</g>
</g>
<!-- Node1&#45;&gt;Node5 -->
<g id="edge4_Node000001_Node000005" class="edge">
<title>Node1&#45;&gt;Node5</title>
<g id="a_edge4_Node000001_Node000005"><a xlink:title=" ">
<path fill="none" stroke="#63b8ff" d="M559.01,-230.95C529.76,-220.37 494.55,-207.64 469.32,-198.52"/>
<polygon fill="#63b8ff" stroke="#63b8ff" points="470.44,-195.2 459.84,-195.09 468.06,-201.78 470.44,-195.2"/>
</a>
</g>
</g>
<!-- Node6 -->
<g id="Node000006" class="node">
<title>Node6</title>
<g id="a_Node000006"><a xlink:href="../../dc/dba/statement__type_8h.html" target="_top" xlink:title=" ">
<polygon fill="white" stroke="#666666" points="611.58,-140 462.58,-140 462.58,-110 611.58,-110 611.58,-140"/>
<text text-anchor="start" x="470.58" y="-128" font-family="Helvetica,sans-Serif" font-size="10.00">common/enums/statement</text>
<text text-anchor="middle" x="537.08" y="-117" font-family="Helvetica,sans-Serif" font-size="10.00">_type.h</text>
</a>
</g>
</g>
<!-- Node1&#45;&gt;Node6 -->
<g id="edge24_Node000001_Node000006" class="edge">
<title>Node1&#45;&gt;Node6</title>
<g id="a_edge24_Node000001_Node000006"><a xlink:title=" ">
<path fill="none" stroke="#63b8ff" d="M601.04,-230.77C587.44,-208.5 565.35,-172.31 551.02,-148.83"/>
<polygon fill="#63b8ff" stroke="#63b8ff" points="553.96,-146.93 545.76,-140.21 547.98,-150.57 553.96,-146.93"/>
</a>
</g>
</g>
<!-- Node11 -->
<g id="Node000011" class="node">
<title>Node11</title>
<g id="a_Node000011"><a xlink:title=" ">
<polygon fill="#e0e0e0" stroke="#999999" points="758.58,-74 679.58,-74 679.58,-55 758.58,-55 758.58,-74"/>
<text text-anchor="middle" x="719.08" y="-62" font-family="Helvetica,sans-Serif" font-size="10.00">fmt/format.h</text>
</a>
</g>
</g>
<!-- Node1&#45;&gt;Node11 -->
<g id="edge25_Node000001_Node000011" class="edge">
<title>Node1&#45;&gt;Node11</title>
<g id="a_edge25_Node000001_Node000011"><a xlink:title=" ">
<path fill="none" stroke="#63b8ff" d="M624.43,-230.7C645.23,-194.39 689.17,-117.7 709,-83.1"/>
<polygon fill="#63b8ff" stroke="#63b8ff" points="712.19,-84.58 714.12,-74.16 706.11,-81.1 712.19,-84.58"/>
</a>
</g>
</g>
<!-- Node5&#45;&gt;Node2 -->
<g id="edge5_Node000005_Node000002" class="edge">
<title>Node5&#45;&gt;Node2</title>
<g id="a_edge5_Node000005_Node000002"><a xlink:title=" ">
<path fill="none" stroke="#63b8ff" d="M363.48,-176.22C254.43,-162.09 56.65,-129.37 15.08,-74 -2.13,-51.07 34.33,-31.77 63.52,-20.66"/>
<polygon fill="#63b8ff" stroke="#63b8ff" points="64.83,-23.91 73.05,-17.22 62.46,-17.32 64.83,-23.91"/>
</a>
</g>
</g>
<!-- Node5&#45;&gt;Node6 -->
<g id="edge6_Node000005_Node000006" class="edge">
<title>Node5&#45;&gt;Node6</title>
<g id="a_edge6_Node000005_Node000006"><a xlink:title=" ">
<path fill="none" stroke="#63b8ff" d="M450.98,-175.87C464.82,-167.86 485.9,-155.65 503.74,-145.31"/>
<polygon fill="#63b8ff" stroke="#63b8ff" points="505.81,-148.16 512.71,-140.11 502.31,-142.1 505.81,-148.16"/>
</a>
</g>
</g>
<!-- Node12 -->
<g id="Node000012" class="node">
<title>Node12</title>
<g id="a_Node000012"><a xlink:href="../../dd/d2d/exception_8h.html" target="_top" xlink:title=" ">
<polygon fill="white" stroke="#666666" points="370.58,-134.5 251.58,-134.5 251.58,-115.5 370.58,-115.5 370.58,-134.5"/>
<text text-anchor="middle" x="311.08" y="-122.5" font-family="Helvetica,sans-Serif" font-size="10.00">common/exception.h</text>
</a>
</g>
</g>
<!-- Node5&#45;&gt;Node12 -->
<g id="edge12_Node000005_Node000012" class="edge">
<title>Node5&#45;&gt;Node12</title>
<g id="a_edge12_Node000005_Node000012"><a xlink:title=" ">
<path fill="none" stroke="#63b8ff" d="M417.91,-175.99C397.08,-166.25 362.72,-150.16 338.6,-138.88"/>
<polygon fill="#63b8ff" stroke="#63b8ff" points="339.82,-135.59 329.28,-134.52 336.85,-141.93 339.82,-135.59"/>
</a>
</g>
</g>
<!-- Node7 -->
<g id="Node000007" class="node">
<title>Node7</title>
<g id="a_Node000007"><a xlink:href="../../db/d16/config_8h.html" target="_top" xlink:title=" ">
<polygon fill="white" stroke="#666666" points="661.58,-74 560.58,-74 560.58,-55 661.58,-55 661.58,-74"/>
<text text-anchor="middle" x="611.08" y="-62" font-family="Helvetica,sans-Serif" font-size="10.00">common/config.h</text>
</a>
</g>
</g>
<!-- Node6&#45;&gt;Node7 -->
<g id="edge7_Node000006_Node000007" class="edge">
<title>Node6&#45;&gt;Node7</title>
<g id="a_edge7_Node000006_Node000007"><a xlink:title=" ">
<path fill="none" stroke="#63b8ff" d="M555,-109.84C566.18,-101 580.56,-89.63 591.96,-80.62"/>
<polygon fill="#63b8ff" stroke="#63b8ff" points="594.32,-83.21 599.99,-74.27 589.98,-77.72 594.32,-83.21"/>
</a>
</g>
</g>
<!-- Node6&#45;&gt;Node11 -->
<g id="edge11_Node000006_Node000011" class="edge">
<title>Node6&#45;&gt;Node11</title>
<g id="a_edge11_Node000006_Node000011"><a xlink:title=" ">
<path fill="none" stroke="#63b8ff" d="M580.68,-109.99C611.81,-99.98 653.22,-86.67 682.61,-77.22"/>
<polygon fill="#63b8ff" stroke="#63b8ff" points="684.02,-80.45 692.47,-74.05 681.88,-73.78 684.02,-80.45"/>
</a>
</g>
</g>
<!-- Node8 -->
<g id="Node000008" class="node">
<title>Node8</title>
<g id="a_Node000008"><a xlink:title=" ">
<polygon fill="#e0e0e0" stroke="#999999" points="602.08,-19 552.08,-19 552.08,0 602.08,0 602.08,-19"/>
<text text-anchor="middle" x="577.08" y="-7" font-family="Helvetica,sans-Serif" font-size="10.00">atomic</text>
</a>
</g>
</g>
<!-- Node7&#45;&gt;Node8 -->
<g id="edge8_Node000007_Node000008" class="edge">
<title>Node7&#45;&gt;Node8</title>
<g id="a_edge8_Node000007_Node000008"><a xlink:title=" ">
<path fill="none" stroke="#63b8ff" d="M605.47,-54.75C600.76,-47.42 593.91,-36.73 588.11,-27.7"/>
<polygon fill="#63b8ff" stroke="#63b8ff" points="590.94,-25.62 582.59,-19.09 585.05,-29.4 590.94,-25.62"/>
</a>
</g>
</g>
<!-- Node9 -->
<g id="Node000009" class="node">
<title>Node9</title>
<g id="a_Node000009"><a xlink:title=" ">
<polygon fill="#e0e0e0" stroke="#999999" points="670.08,-19 620.08,-19 620.08,0 670.08,0 670.08,-19"/>
<text text-anchor="middle" x="645.08" y="-7" font-family="Helvetica,sans-Serif" font-size="10.00">chrono</text>
</a>
</g>
</g>
<!-- Node7&#45;&gt;Node9 -->
<g id="edge9_Node000007_Node000009" class="edge">
<title>Node7&#45;&gt;Node9</title>
<g id="a_edge9_Node000007_Node000009"><a xlink:title=" ">
<path fill="none" stroke="#63b8ff" d="M616.7,-54.75C621.4,-47.42 628.26,-36.73 634.05,-27.7"/>
<polygon fill="#63b8ff" stroke="#63b8ff" points="637.12,-29.4 639.57,-19.09 631.23,-25.62 637.12,-29.4"/>
</a>
</g>
</g>
<!-- Node10 -->
<g id="Node000010" class="node">
<title>Node10</title>
<g id="a_Node000010"><a xlink:title=" ">
<polygon fill="#e0e0e0" stroke="#999999" points="534.08,-19 484.08,-19 484.08,0 534.08,0 534.08,-19"/>
<text text-anchor="middle" x="509.08" y="-7" font-family="Helvetica,sans-Serif" font-size="10.00">cstdint</text>
</a>
</g>
</g>
<!-- Node7&#45;&gt;Node10 -->
<g id="edge10_Node000007_Node000010" class="edge">
<title>Node7&#45;&gt;Node10</title>
<g id="a_edge10_Node000007_Node000010"><a xlink:title=" ">
<path fill="none" stroke="#63b8ff" d="M594.69,-54.98C578.51,-46.57 553.51,-33.59 534.7,-23.81"/>
<polygon fill="#63b8ff" stroke="#63b8ff" points="536.26,-20.68 525.77,-19.17 533.03,-26.89 536.26,-20.68"/>
</a>
</g>
</g>
<!-- Node12&#45;&gt;Node2 -->
<g id="edge19_Node000012_Node000002" class="edge">
<title>Node12&#45;&gt;Node2</title>
<g id="a_edge19_Node000012_Node000002"><a xlink:title=" ">
<path fill="none" stroke="#63b8ff" d="M294.03,-115.44C274.43,-105.57 241.33,-88.81 213.08,-74 180.66,-57.01 143.53,-36.92 119.71,-23.96"/>
<polygon fill="#63b8ff" stroke="#63b8ff" points="121.13,-20.74 110.68,-19.03 117.78,-26.89 121.13,-20.74"/>
</a>
</g>
</g>
<!-- Node12&#45;&gt;Node8 -->
<g id="edge13_Node000012_Node000008" class="edge">
<title>Node12&#45;&gt;Node8</title>
<g id="a_edge13_Node000012_Node000008"><a xlink:title=" ">
<path fill="none" stroke="#63b8ff" d="M370.76,-117.77C412.71,-111.41 468.99,-98.78 513.08,-74 533.87,-62.31 552.59,-42.04 564.33,-27.55"/>
<polygon fill="#63b8ff" stroke="#63b8ff" points="567.3,-29.43 570.7,-19.39 561.79,-25.12 567.3,-29.43"/>
</a>
</g>
</g>
<!-- Node13 -->
<g id="Node000013" class="node">
<title>Node13</title>
<g id="a_Node000013"><a xlink:title=" ">
<polygon fill="#e0e0e0" stroke="#999999" points="268.08,-74 222.08,-74 222.08,-55 268.08,-55 268.08,-74"/>
<text text-anchor="middle" x="245.08" y="-62" font-family="Helvetica,sans-Serif" font-size="10.00">cstdio</text>
</a>
</g>
</g>
<!-- Node12&#45;&gt;Node13 -->
<g id="edge14_Node000012_Node000013" class="edge">
<title>Node12&#45;&gt;Node13</title>
<g id="a_edge14_Node000012_Node000013"><a xlink:title=" ">
<path fill="none" stroke="#63b8ff" d="M301.34,-115.37C291.11,-106.3 274.8,-91.84 262.37,-80.82"/>
<polygon fill="#63b8ff" stroke="#63b8ff" points="264.67,-78.18 254.86,-74.17 260.02,-83.42 264.67,-78.18"/>
</a>
</g>
</g>
<!-- Node14 -->
<g id="Node000014" class="node">
<title>Node14</title>
<g id="a_Node000014"><a xlink:title=" ">
<polygon fill="#e0e0e0" stroke="#999999" points="335.58,-74 286.58,-74 286.58,-55 335.58,-55 335.58,-74"/>
<text text-anchor="middle" x="311.08" y="-62" font-family="Helvetica,sans-Serif" font-size="10.00">cstdlib</text>
</a>
</g>
</g>
<!-- Node12&#45;&gt;Node14 -->
<g id="edge15_Node000012_Node000014" class="edge">
<title>Node12&#45;&gt;Node14</title>
<g id="a_edge15_Node000012_Node000014"><a xlink:title=" ">
<path fill="none" stroke="#63b8ff" d="M311.08,-115.37C311.08,-107.25 311.08,-94.81 311.08,-84.39"/>
<polygon fill="#63b8ff" stroke="#63b8ff" points="314.58,-84.17 311.08,-74.17 307.58,-84.17 314.58,-84.17"/>
</a>
</g>
</g>
<!-- Node15 -->
<g id="Node000015" class="node">
<title>Node15</title>
<g id="a_Node000015"><a xlink:title=" ">
<polygon fill="#e0e0e0" stroke="#999999" points="414.08,-74 354.08,-74 354.08,-55 414.08,-55 414.08,-74"/>
<text text-anchor="middle" x="384.08" y="-62" font-family="Helvetica,sans-Serif" font-size="10.00">iostream</text>
</a>
</g>
</g>
<!-- Node12&#45;&gt;Node15 -->
<g id="edge16_Node000012_Node000015" class="edge">
<title>Node12&#45;&gt;Node15</title>
<g id="a_edge16_Node000012_Node000015"><a xlink:title=" ">
<path fill="none" stroke="#63b8ff" d="M321.85,-115.37C333.28,-106.21 351.56,-91.56 365.36,-80.51"/>
<polygon fill="#63b8ff" stroke="#63b8ff" points="367.65,-83.15 373.27,-74.17 363.27,-77.69 367.65,-83.15"/>
</a>
</g>
</g>
<!-- Node16 -->
<g id="Node000016" class="node">
<title>Node16</title>
<g id="a_Node000016"><a xlink:title=" ">
<polygon fill="#e0e0e0" stroke="#999999" points="82.08,-74 24.08,-74 24.08,-55 82.08,-55 82.08,-74"/>
<text text-anchor="middle" x="53.08" y="-62" font-family="Helvetica,sans-Serif" font-size="10.00">memory</text>
</a>
</g>
</g>
<!-- Node12&#45;&gt;Node16 -->
<g id="edge17_Node000012_Node000016" class="edge">
<title>Node12&#45;&gt;Node16</title>
<g id="a_edge17_Node000012_Node000016"><a xlink:title=" ">
<path fill="none" stroke="#63b8ff" d="M273.57,-115.49C225.16,-104.52 141.34,-85.51 92.18,-74.37"/>
<polygon fill="#63b8ff" stroke="#63b8ff" points="92.77,-70.91 82.24,-72.11 91.22,-77.74 92.77,-70.91"/>
</a>
</g>
</g>
<!-- Node17 -->
<g id="Node000017" class="node">
<title>Node17</title>
<g id="a_Node000017"><a xlink:title=" ">
<polygon fill="#e0e0e0" stroke="#999999" points="165.58,-74 100.58,-74 100.58,-55 165.58,-55 165.58,-74"/>
<text text-anchor="middle" x="133.08" y="-62" font-family="Helvetica,sans-Serif" font-size="10.00">stdexcept</text>
</a>
</g>
</g>
<!-- Node12&#45;&gt;Node17 -->
<g id="edge18_Node000012_Node000017" class="edge">
<title>Node12&#45;&gt;Node17</title>
<g id="a_edge18_Node000012_Node000017"><a xlink:title=" ">
<path fill="none" stroke="#63b8ff" d="M285.2,-115.49C254.48,-105.4 203.1,-88.51 168.66,-77.19"/>
<polygon fill="#63b8ff" stroke="#63b8ff" points="169.59,-73.81 159,-74.02 167.4,-80.46 169.59,-73.81"/>
</a>
</g>
</g>
<!-- Node18 -->
<g id="Node000018" class="node">
<title>Node18</title>
<g id="a_Node000018"><a xlink:href="../../df/def/type_8h.html" target="_top" xlink:title=" ">
<polygon fill="white" stroke="#666666" points="504.08,-74 432.08,-74 432.08,-55 504.08,-55 504.08,-74"/>
<text text-anchor="middle" x="468.08" y="-62" font-family="Helvetica,sans-Serif" font-size="10.00">type/type.h</text>
</a>
</g>
</g>
<!-- Node12&#45;&gt;Node18 -->
<g id="edge20_Node000012_Node000018" class="edge">
<title>Node12&#45;&gt;Node18</title>
<g id="a_edge20_Node000012_Node000018"><a xlink:title=" ">
<path fill="none" stroke="#63b8ff" d="M333.91,-115.49C360.65,-105.53 405.16,-88.95 435.52,-77.63"/>
<polygon fill="#63b8ff" stroke="#63b8ff" points="437.08,-80.79 445.23,-74.02 434.63,-74.23 437.08,-80.79"/>
</a>
</g>
</g>
<!-- Node18&#45;&gt;Node2 -->
<g id="edge22_Node000018_Node000002" class="edge">
<title>Node18&#45;&gt;Node2</title>
<g id="a_edge22_Node000018_Node000002"><a xlink:title=" ">
<path fill="none" stroke="#63b8ff" d="M431.76,-56.47C428.83,-55.96 425.91,-55.46 423.08,-55 315.21,-37.51 186.61,-21.45 127.6,-14.34"/>
<polygon fill="#63b8ff" stroke="#63b8ff" points="127.76,-10.84 117.41,-13.12 126.93,-17.79 127.76,-10.84"/>
</a>
</g>
</g>
<!-- Node18&#45;&gt;Node10 -->
<g id="edge21_Node000018_Node000010" class="edge">
<title>Node18&#45;&gt;Node10</title>
<g id="a_edge21_Node000018_Node000010"><a xlink:title=" ">
<path fill="none" stroke="#63b8ff" d="M474.85,-54.75C480.64,-47.26 489.14,-36.28 496.22,-27.13"/>
<polygon fill="#63b8ff" stroke="#63b8ff" points="499.09,-29.14 502.44,-19.09 493.55,-24.86 499.09,-29.14"/>
</a>
</g>
</g>
<!-- Node19 -->
<g id="Node000019" class="node">
<title>Node19</title>
<g id="a_Node000019"><a xlink:href="../../dc/df2/type__id_8h.html" target="_top" xlink:title=" ">
<polygon fill="white" stroke="#666666" points="466.08,-19 380.08,-19 380.08,0 466.08,0 466.08,-19"/>
<text text-anchor="middle" x="423.08" y="-7" font-family="Helvetica,sans-Serif" font-size="10.00">type/type_id.h</text>
</a>
</g>
</g>
<!-- Node18&#45;&gt;Node19 -->
<g id="edge23_Node000018_Node000019" class="edge">
<title>Node18&#45;&gt;Node19</title>
<g id="a_edge23_Node000018_Node000019"><a xlink:title=" ">
<path fill="none" stroke="#63b8ff" d="M460.65,-54.75C454.23,-47.18 444.78,-36.05 436.96,-26.84"/>
<polygon fill="#63b8ff" stroke="#63b8ff" points="439.51,-24.45 430.37,-19.09 434.18,-28.98 439.51,-24.45"/>
</a>
</g>
</g>
</g>
</svg>

<g id="navigator" transform="translate(0 0)" fill="#404254">
  <rect fill="#f2f5e9" fill-opacity="0.5" stroke="#606060" stroke-width=".5" x="0" y="0" width="60" height="60"/>
  <use id="zoomplus" xlink:href="#zoomPlus" x="17" y="9" onmousedown="handleZoom(evt,'in')"/>
  <use id="zoomminus" xlink:href="#zoomMin" x="42" y="9" onmousedown="handleZoom(evt,'out')"/>
  <use id="reset" xlink:href="#resetDef" x="30" y="36" onmousedown="handleReset()"/>
   <use id="arrowup" xlink:href="#arrowUp" x="0" y="0" onmousedown="handlePan(0,-1)"/>
  <use id="arrowright" xlink:href="#arrowRight" x="0" y="0" onmousedown="handlePan(1,0)"/>
  <use id="arrowdown" xlink:href="#arrowDown" x="0" y="0" onmousedown="handlePan(0,1)"/>
  <use id="arrowleft" xlink:href="#arrowLeft" x="0" y="0" onmousedown="handlePan(-1,0)"/>
</g>
<svg viewBox="0 0 15 15" width="100%" height="30px" preserveAspectRatio="xMaxYMin meet">
 <g id="arrow_out" transform="scale(0.3 0.3)">
  <a xlink:href="set__show__statement_8h__incl_org.svg" target="_base">
   <rect id="button" ry="5" rx="5" y="6" x="6" height="38" width="38"
        fill="#f2f5e9" fill-opacity="0.5" stroke="#606060" stroke-width="1.0"/>
   <path id="arrow"
     d="M 11.500037,31.436501 C 11.940474,20.09759 22.043105,11.32322 32.158766,21.979434 L 37.068811,17.246167 C 37.068811,17.246167 37.088388,32 37.088388,32 L 22.160133,31.978069 C 22.160133,31.978069 26.997745,27.140456 26.997745,27.140456 C 18.528582,18.264221 13.291696,25.230495 11.500037,31.436501 z"
     style="fill:#404040;"/>
  </a>
 </g>
</svg>

<style type='text/css'>
<![CDATA[
[data-mouse-over-selected='false'] { opacity: 0.7; }
[data-mouse-over-selected='true']  { opacity: 1.0; }
]]>
</style>
<script type="application/ecmascript"><![CDATA[
document.addEventListener('DOMContentLoaded', (event) => {
  highlightEdges();
  highlightAdjacentNodes();
});
]]></script>
</svg>
