<?xml version="1.0" encoding="UTF-8" standalone="no"?>
<!DOCTYPE svg PUBLIC "-//W3C//DTD SVG 1.1//EN"
 "http://www.w3.org/Graphics/SVG/1.1/DTD/svg11.dtd">
<!-- Generated by graphviz version 2.43.0 (0)
 -->
<!-- Title: src/include/type/timestamp_type.h Pages: 1 -->
<svg width="3241pt" height="247pt"
 viewBox="0.00 0.00 3241.00 247.00" xmlns="http://www.w3.org/2000/svg" xmlns:xlink="http://www.w3.org/1999/xlink">
<g id="graph0" class="graph" transform="scale(1 1) rotate(0) translate(4 243)">
<title>src/include/type/timestamp_type.h</title>
<!-- Node1 -->
<g id="Node000001" class="node">
<title>Node1</title>
<g id="a_Node000001"><a xlink:title=" ">
<polygon fill="#999999" stroke="#666666" points="1763,-239 1613,-239 1613,-209 1763,-209 1763,-239"/>
<text text-anchor="start" x="1621" y="-227" font-family="Helvetica,sans-Serif" font-size="10.00">src/include/type/timestamp</text>
<text text-anchor="middle" x="1688" y="-216" font-family="Helvetica,sans-Serif" font-size="10.00">_type.h</text>
</a>
</g>
</g>
<!-- Node2 -->
<g id="Node000002" class="node">
<title>Node2</title>
<g id="a_Node000002"><a xlink:href="../../d1/db2/value__factory_8h.html" target="_top" xlink:title=" ">
<polygon fill="white" stroke="#666666" points="1705,-173 1581,-173 1581,-143 1705,-143 1705,-173"/>
<text text-anchor="start" x="1589" y="-161" font-family="Helvetica,sans-Serif" font-size="10.00">src/include/type/value</text>
<text text-anchor="middle" x="1643" y="-150" font-family="Helvetica,sans-Serif" font-size="10.00">_factory.h</text>
</a>
</g>
</g>
<!-- Node1&#45;&gt;Node2 -->
<g id="edge1_Node000001_Node000002" class="edge">
<title>Node1&#45;&gt;Node2</title>
<g id="a_edge1_Node000001_Node000002"><a xlink:title=" ">
<path fill="none" stroke="#63b8ff" d="M1672.2,-200.53C1665.8,-191.43 1658.61,-181.19 1652.96,-173.16"/>
<polygon fill="#63b8ff" stroke="#63b8ff" points="1669.4,-202.63 1678.01,-208.8 1675.12,-198.6 1669.4,-202.63"/>
</a>
</g>
</g>
<!-- Node28 -->
<g id="Node000028" class="node">
<title>Node28</title>
<g id="a_Node000028"><a xlink:href="../../d2/d0e/timestamp__type_8cpp.html" target="_top" xlink:title=" ">
<polygon fill="white" stroke="#666666" points="3233,-101.5 3121,-101.5 3121,-71.5 3233,-71.5 3233,-101.5"/>
<text text-anchor="start" x="3129" y="-89.5" font-family="Helvetica,sans-Serif" font-size="10.00">src/type/timestamp</text>
<text text-anchor="middle" x="3177" y="-78.5" font-family="Helvetica,sans-Serif" font-size="10.00">_type.cpp</text>
</a>
</g>
</g>
<!-- Node1&#45;&gt;Node28 -->
<g id="edge30_Node000001_Node000028" class="edge">
<title>Node1&#45;&gt;Node28</title>
<g id="a_edge30_Node000001_Node000028"><a xlink:title=" ">
<path fill="none" stroke="#63b8ff" d="M1773.46,-222.14C1995.82,-218.6 2609.99,-200.4 3111,-107 3118.52,-105.6 3126.4,-103.68 3134,-101.59"/>
<polygon fill="#63b8ff" stroke="#63b8ff" points="1773.11,-218.65 1763.17,-222.3 1773.22,-225.65 1773.11,-218.65"/>
</a>
</g>
</g>
<!-- Node3 -->
<g id="Node000003" class="node">
<title>Node3</title>
<g id="a_Node000003"><a xlink:href="../../d9/d88/bind__insert_8cpp.html" target="_top" xlink:title=" ">
<polygon fill="white" stroke="#666666" points="142,-96 0,-96 0,-77 142,-77 142,-96"/>
<text text-anchor="middle" x="71" y="-84" font-family="Helvetica,sans-Serif" font-size="10.00">src/binder/bind_insert.cpp</text>
</a>
</g>
</g>
<!-- Node2&#45;&gt;Node3 -->
<g id="edge2_Node000002_Node000003" class="edge">
<title>Node2&#45;&gt;Node3</title>
<g id="a_edge2_Node000002_Node000003"><a xlink:title=" ">
<path fill="none" stroke="#63b8ff" d="M1570.75,-156.55C1311.72,-154.61 430.2,-145.29 151,-107 133.86,-104.65 115.05,-100.16 99.98,-96.09"/>
<polygon fill="#63b8ff" stroke="#63b8ff" points="1570.77,-160.05 1580.8,-156.62 1570.82,-153.05 1570.77,-160.05"/>
</a>
</g>
</g>
<!-- Node4 -->
<g id="Node000004" class="node">
<title>Node4</title>
<g id="a_Node000004"><a xlink:href="../../d7/d35/bind__select_8cpp.html" target="_top" xlink:title=" ">
<polygon fill="white" stroke="#666666" points="303.5,-96 160.5,-96 160.5,-77 303.5,-77 303.5,-96"/>
<text text-anchor="middle" x="232" y="-84" font-family="Helvetica,sans-Serif" font-size="10.00">src/binder/bind_select.cpp</text>
</a>
</g>
</g>
<!-- Node2&#45;&gt;Node4 -->
<g id="edge3_Node000002_Node000004" class="edge">
<title>Node2&#45;&gt;Node4</title>
<g id="a_edge3_Node000002_Node000004"><a xlink:title=" ">
<path fill="none" stroke="#63b8ff" d="M1570.58,-156.2C1329.93,-153.25 558.25,-141.28 312,-107 294.87,-104.62 276.06,-100.13 260.98,-96.06"/>
<polygon fill="#63b8ff" stroke="#63b8ff" points="1570.58,-159.7 1580.62,-156.32 1570.66,-152.7 1570.58,-159.7"/>
</a>
</g>
</g>
<!-- Node5 -->
<g id="Node000005" class="node">
<title>Node5</title>
<g id="a_Node000005"><a xlink:href="../../dc/de0/bustub__ddl_8cpp.html" target="_top" xlink:title=" ">
<polygon fill="white" stroke="#666666" points="474.5,-96 321.5,-96 321.5,-77 474.5,-77 474.5,-96"/>
<text text-anchor="middle" x="398" y="-84" font-family="Helvetica,sans-Serif" font-size="10.00">src/common/bustub_ddl.cpp</text>
</a>
</g>
</g>
<!-- Node2&#45;&gt;Node5 -->
<g id="edge4_Node000002_Node000005" class="edge">
<title>Node2&#45;&gt;Node5</title>
<g id="a_edge4_Node000002_Node000005"><a xlink:title=" ">
<path fill="none" stroke="#63b8ff" d="M1570.77,-155.61C1351.37,-151.13 694.76,-135.61 483,-107 464.85,-104.55 444.86,-100.06 428.84,-96"/>
<polygon fill="#63b8ff" stroke="#63b8ff" points="1570.82,-159.11 1580.89,-155.82 1570.96,-152.12 1570.82,-159.11"/>
</a>
</g>
</g>
<!-- Node6 -->
<g id="Node000006" class="node">
<title>Node6</title>
<g id="a_Node000006"><a xlink:href="../../da/d08/bustub__instance_8cpp.html" target="_top" xlink:title=" ">
<polygon fill="white" stroke="#666666" points="671.5,-96 492.5,-96 492.5,-77 671.5,-77 671.5,-96"/>
<text text-anchor="middle" x="582" y="-84" font-family="Helvetica,sans-Serif" font-size="10.00">src/common/bustub_instance.cpp</text>
</a>
</g>
</g>
<!-- Node2&#45;&gt;Node6 -->
<g id="edge5_Node000002_Node000006" class="edge">
<title>Node2&#45;&gt;Node6</title>
<g id="a_edge5_Node000002_Node000006"><a xlink:title=" ">
<path fill="none" stroke="#63b8ff" d="M1570.51,-156.81C1409.63,-155.59 1010.8,-148.28 680,-107 659.52,-104.44 636.9,-100.05 618.56,-96.08"/>
<polygon fill="#63b8ff" stroke="#63b8ff" points="1570.74,-160.31 1580.76,-156.88 1570.79,-153.31 1570.74,-160.31"/>
</a>
</g>
</g>
<!-- Node7 -->
<g id="Node000007" class="node">
<title>Node7</title>
<g id="a_Node000007"><a xlink:href="../../d1/d14/transaction__manager_8cpp.html" target="_top" xlink:title=" ">
<polygon fill="white" stroke="#666666" points="840.5,-101.5 689.5,-101.5 689.5,-71.5 840.5,-71.5 840.5,-101.5"/>
<text text-anchor="start" x="697.5" y="-89.5" font-family="Helvetica,sans-Serif" font-size="10.00">src/concurrency/transaction</text>
<text text-anchor="middle" x="765" y="-78.5" font-family="Helvetica,sans-Serif" font-size="10.00">_manager.cpp</text>
</a>
</g>
</g>
<!-- Node2&#45;&gt;Node7 -->
<g id="edge6_Node000002_Node000007" class="edge">
<title>Node2&#45;&gt;Node7</title>
<g id="a_edge6_Node000002_Node000007"><a xlink:title=" ">
<path fill="none" stroke="#63b8ff" d="M1570.69,-156.43C1430.65,-154.46 1112.98,-145.68 849,-107 839.37,-105.59 829.22,-103.64 819.42,-101.51"/>
<polygon fill="#63b8ff" stroke="#63b8ff" points="1570.82,-159.94 1580.87,-156.57 1570.91,-152.94 1570.82,-159.94"/>
</a>
</g>
</g>
<!-- Node8 -->
<g id="Node000008" class="node">
<title>Node8</title>
<g id="a_Node000008"><a xlink:href="../../d3/d72/transaction__manager__impl_8cpp.html" target="_top" xlink:title=" ">
<polygon fill="white" stroke="#666666" points="1009.5,-101.5 858.5,-101.5 858.5,-71.5 1009.5,-71.5 1009.5,-101.5"/>
<text text-anchor="start" x="866.5" y="-89.5" font-family="Helvetica,sans-Serif" font-size="10.00">src/concurrency/transaction</text>
<text text-anchor="middle" x="934" y="-78.5" font-family="Helvetica,sans-Serif" font-size="10.00">_manager_impl.cpp</text>
</a>
</g>
</g>
<!-- Node2&#45;&gt;Node8 -->
<g id="edge7_Node000002_Node000008" class="edge">
<title>Node2&#45;&gt;Node8</title>
<g id="a_edge7_Node000002_Node000008"><a xlink:title=" ">
<path fill="none" stroke="#63b8ff" d="M1570.75,-154.7C1453.94,-150.2 1216.65,-137.83 1018,-107 1008.68,-105.55 998.86,-103.64 989.35,-101.57"/>
<polygon fill="#63b8ff" stroke="#63b8ff" points="1570.87,-158.21 1580.99,-155.08 1571.13,-151.21 1570.87,-158.21"/>
</a>
</g>
</g>
<!-- Node9 -->
<g id="Node000009" class="node">
<title>Node9</title>
<g id="a_Node000009"><a xlink:href="../../dd/df1/execution__common_8cpp.html" target="_top" xlink:title=" ">
<polygon fill="white" stroke="#666666" points="1158.5,-101.5 1027.5,-101.5 1027.5,-71.5 1158.5,-71.5 1158.5,-101.5"/>
<text text-anchor="start" x="1035.5" y="-89.5" font-family="Helvetica,sans-Serif" font-size="10.00">src/execution/execution</text>
<text text-anchor="middle" x="1093" y="-78.5" font-family="Helvetica,sans-Serif" font-size="10.00">_common.cpp</text>
</a>
</g>
</g>
<!-- Node2&#45;&gt;Node9 -->
<g id="edge8_Node000002_Node000009" class="edge">
<title>Node2&#45;&gt;Node9</title>
<g id="a_edge8_Node000002_Node000009"><a xlink:title=" ">
<path fill="none" stroke="#63b8ff" d="M1570.73,-152.86C1477.03,-146.71 1308.8,-132.97 1167,-107 1158.9,-105.52 1150.38,-103.61 1142.12,-101.57"/>
<polygon fill="#63b8ff" stroke="#63b8ff" points="1570.75,-156.37 1580.95,-153.52 1571.2,-149.38 1570.75,-156.37"/>
</a>
</g>
</g>
<!-- Node10 -->
<g id="Node000010" class="node">
<title>Node10</title>
<g id="a_Node000010"><a xlink:href="../../d2/d5a/filter__executor_8cpp.html" target="_top" xlink:title=" ">
<polygon fill="white" stroke="#666666" points="1283.5,-101.5 1176.5,-101.5 1176.5,-71.5 1283.5,-71.5 1283.5,-101.5"/>
<text text-anchor="start" x="1184.5" y="-89.5" font-family="Helvetica,sans-Serif" font-size="10.00">src/execution/filter</text>
<text text-anchor="middle" x="1230" y="-78.5" font-family="Helvetica,sans-Serif" font-size="10.00">_executor.cpp</text>
</a>
</g>
</g>
<!-- Node2&#45;&gt;Node10 -->
<g id="edge9_Node000002_Node000010" class="edge">
<title>Node2&#45;&gt;Node10</title>
<g id="a_edge9_Node000002_Node000010"><a xlink:title=" ">
<path fill="none" stroke="#63b8ff" d="M1570.71,-150.19C1499.3,-142.64 1387.26,-128.61 1292,-107 1285.29,-105.48 1278.25,-103.57 1271.43,-101.56"/>
<polygon fill="#63b8ff" stroke="#63b8ff" points="1570.63,-153.7 1580.94,-151.25 1571.36,-146.74 1570.63,-153.7"/>
</a>
</g>
</g>
<!-- Node11 -->
<g id="Node000011" class="node">
<title>Node11</title>
<g id="a_Node000011"><a xlink:href="../../da/dd8/mock__scan__executor_8cpp.html" target="_top" xlink:title=" ">
<polygon fill="white" stroke="#666666" points="1412.5,-101.5 1301.5,-101.5 1301.5,-71.5 1412.5,-71.5 1412.5,-101.5"/>
<text text-anchor="start" x="1309.5" y="-89.5" font-family="Helvetica,sans-Serif" font-size="10.00">src/execution/mock</text>
<text text-anchor="middle" x="1357" y="-78.5" font-family="Helvetica,sans-Serif" font-size="10.00">_scan_executor.cpp</text>
</a>
</g>
</g>
<!-- Node2&#45;&gt;Node11 -->
<g id="edge10_Node000002_Node000011" class="edge">
<title>Node2&#45;&gt;Node11</title>
<g id="a_edge10_Node000002_Node000011"><a xlink:title=" ">
<path fill="none" stroke="#63b8ff" d="M1570.92,-142.01C1527.58,-132.67 1471.42,-119.99 1422,-107 1415.62,-105.32 1408.92,-103.45 1402.35,-101.54"/>
<polygon fill="#63b8ff" stroke="#63b8ff" points="1570.29,-145.45 1580.8,-144.13 1571.76,-138.61 1570.29,-145.45"/>
</a>
</g>
</g>
<!-- Node12 -->
<g id="Node000012" class="node">
<title>Node12</title>
<g id="a_Node000012"><a xlink:href="../../dd/d51/aggregation__executor_8h.html" target="_top" xlink:title=" ">
<polygon fill="white" stroke="#666666" points="1559,-107 1431,-107 1431,-66 1559,-66 1559,-107"/>
<text text-anchor="start" x="1439" y="-95" font-family="Helvetica,sans-Serif" font-size="10.00">src/include/execution</text>
<text text-anchor="start" x="1439" y="-84" font-family="Helvetica,sans-Serif" font-size="10.00">/executors/aggregation</text>
<text text-anchor="middle" x="1495" y="-73" font-family="Helvetica,sans-Serif" font-size="10.00">_executor.h</text>
</a>
</g>
</g>
<!-- Node2&#45;&gt;Node12 -->
<g id="edge11_Node000002_Node000012" class="edge">
<title>Node2&#45;&gt;Node12</title>
<g id="a_edge11_Node000002_Node000012"><a xlink:title=" ">
<path fill="none" stroke="#63b8ff" d="M1603.9,-138.64C1583.2,-128.92 1557.76,-116.97 1536.68,-107.07"/>
<polygon fill="#63b8ff" stroke="#63b8ff" points="1602.51,-141.85 1613.05,-142.94 1605.49,-135.52 1602.51,-141.85"/>
</a>
</g>
</g>
<!-- Node15 -->
<g id="Node000015" class="node">
<title>Node15</title>
<g id="a_Node000015"><a xlink:href="../../d3/d6d/arithmetic__expression_8h.html" target="_top" xlink:title=" ">
<polygon fill="white" stroke="#666666" points="1708.5,-107 1577.5,-107 1577.5,-66 1708.5,-66 1708.5,-107"/>
<text text-anchor="start" x="1585.5" y="-95" font-family="Helvetica,sans-Serif" font-size="10.00">src/include/execution</text>
<text text-anchor="start" x="1585.5" y="-84" font-family="Helvetica,sans-Serif" font-size="10.00">/expressions/arithmetic</text>
<text text-anchor="middle" x="1643" y="-73" font-family="Helvetica,sans-Serif" font-size="10.00">_expression.h</text>
</a>
</g>
</g>
<!-- Node2&#45;&gt;Node15 -->
<g id="edge14_Node000002_Node000015" class="edge">
<title>Node2&#45;&gt;Node15</title>
<g id="a_edge14_Node000002_Node000015"><a xlink:title=" ">
<path fill="none" stroke="#63b8ff" d="M1643,-132.91C1643,-124.47 1643,-115.1 1643,-107.07"/>
<polygon fill="#63b8ff" stroke="#63b8ff" points="1639.5,-132.94 1643,-142.94 1646.5,-132.94 1639.5,-132.94"/>
</a>
</g>
</g>
<!-- Node17 -->
<g id="Node000017" class="node">
<title>Node17</title>
<g id="a_Node000017"><a xlink:href="../../d7/da4/comparison__expression_8h.html" target="_top" xlink:title=" ">
<polygon fill="white" stroke="#666666" points="2055,-107 1917,-107 1917,-66 2055,-66 2055,-107"/>
<text text-anchor="start" x="1925" y="-95" font-family="Helvetica,sans-Serif" font-size="10.00">src/include/execution</text>
<text text-anchor="start" x="1925" y="-84" font-family="Helvetica,sans-Serif" font-size="10.00">/expressions/comparison</text>
<text text-anchor="middle" x="1986" y="-73" font-family="Helvetica,sans-Serif" font-size="10.00">_expression.h</text>
</a>
</g>
</g>
<!-- Node2&#45;&gt;Node17 -->
<g id="edge16_Node000002_Node000017" class="edge">
<title>Node2&#45;&gt;Node17</title>
<g id="a_edge16_Node000002_Node000017"><a xlink:title=" ">
<path fill="none" stroke="#63b8ff" d="M1715.11,-144.57C1768.53,-135.08 1843.02,-121.24 1908,-107 1910.86,-106.37 1913.78,-105.72 1916.73,-105.04"/>
<polygon fill="#63b8ff" stroke="#63b8ff" points="1714.29,-141.16 1705.05,-146.35 1715.51,-148.05 1714.29,-141.16"/>
</a>
</g>
</g>
<!-- Node20 -->
<g id="Node000020" class="node">
<title>Node20</title>
<g id="a_Node000020"><a xlink:href="../../dd/d76/logic__expression_8h.html" target="_top" xlink:title=" ">
<polygon fill="white" stroke="#666666" points="1899,-101.5 1727,-101.5 1727,-71.5 1899,-71.5 1899,-101.5"/>
<text text-anchor="start" x="1735" y="-89.5" font-family="Helvetica,sans-Serif" font-size="10.00">src/include/execution</text>
<text text-anchor="middle" x="1813" y="-78.5" font-family="Helvetica,sans-Serif" font-size="10.00">/expressions/logic_expression.h</text>
</a>
</g>
</g>
<!-- Node2&#45;&gt;Node20 -->
<g id="edge20_Node000002_Node000020" class="edge">
<title>Node2&#45;&gt;Node20</title>
<g id="a_edge20_Node000002_Node000020"><a xlink:title=" ">
<path fill="none" stroke="#63b8ff" d="M1686.76,-139.11C1715.35,-127.42 1752.16,-112.37 1778.65,-101.54"/>
<polygon fill="#63b8ff" stroke="#63b8ff" points="1685.33,-135.91 1677.4,-142.94 1687.98,-142.39 1685.33,-135.91"/>
</a>
</g>
</g>
<!-- Node21 -->
<g id="Node000021" class="node">
<title>Node21</title>
<g id="a_Node000021"><a xlink:href="../../df/d13/string__expression_8h.html" target="_top" xlink:title=" ">
<polygon fill="white" stroke="#666666" points="2249,-101.5 2073,-101.5 2073,-71.5 2249,-71.5 2249,-101.5"/>
<text text-anchor="start" x="2081" y="-89.5" font-family="Helvetica,sans-Serif" font-size="10.00">src/include/execution</text>
<text text-anchor="middle" x="2161" y="-78.5" font-family="Helvetica,sans-Serif" font-size="10.00">/expressions/string_expression.h</text>
</a>
</g>
</g>
<!-- Node2&#45;&gt;Node21 -->
<g id="edge22_Node000002_Node000021" class="edge">
<title>Node2&#45;&gt;Node21</title>
<g id="a_edge22_Node000002_Node000021"><a xlink:title=" ">
<path fill="none" stroke="#63b8ff" d="M1715.23,-150.2C1799.28,-141.88 1942.12,-126.46 2064,-107 2074.01,-105.4 2084.55,-103.51 2094.86,-101.53"/>
<polygon fill="#63b8ff" stroke="#63b8ff" points="1714.88,-146.72 1705.28,-151.18 1715.57,-153.68 1714.88,-146.72"/>
</a>
</g>
</g>
<!-- Node23 -->
<g id="Node000023" class="node">
<title>Node23</title>
<g id="a_Node000023"><a xlink:href="../../da/de4/plan__aggregation_8cpp.html" target="_top" xlink:title=" ">
<polygon fill="white" stroke="#666666" points="2446.5,-96 2267.5,-96 2267.5,-77 2446.5,-77 2446.5,-96"/>
<text text-anchor="middle" x="2357" y="-84" font-family="Helvetica,sans-Serif" font-size="10.00">src/planner/plan_aggregation.cpp</text>
</a>
</g>
</g>
<!-- Node2&#45;&gt;Node23 -->
<g id="edge24_Node000002_Node000023" class="edge">
<title>Node2&#45;&gt;Node23</title>
<g id="a_edge24_Node000002_Node000023"><a xlink:title=" ">
<path fill="none" stroke="#63b8ff" d="M1715.34,-153.78C1830.6,-148.05 2062.82,-134.07 2258,-107 2278.3,-104.18 2300.73,-99.87 2319.09,-96.01"/>
<polygon fill="#63b8ff" stroke="#63b8ff" points="1715.05,-150.29 1705.23,-154.28 1715.39,-157.28 1715.05,-150.29"/>
</a>
</g>
</g>
<!-- Node24 -->
<g id="Node000024" class="node">
<title>Node24</title>
<g id="a_Node000024"><a xlink:href="../../d0/d29/plan__expression_8cpp.html" target="_top" xlink:title=" ">
<polygon fill="white" stroke="#666666" points="2637.5,-96 2464.5,-96 2464.5,-77 2637.5,-77 2637.5,-96"/>
<text text-anchor="middle" x="2551" y="-84" font-family="Helvetica,sans-Serif" font-size="10.00">src/planner/plan_expression.cpp</text>
</a>
</g>
</g>
<!-- Node2&#45;&gt;Node24 -->
<g id="edge25_Node000002_Node000024" class="edge">
<title>Node2&#45;&gt;Node24</title>
<g id="a_edge25_Node000002_Node000024"><a xlink:title=" ">
<path fill="none" stroke="#63b8ff" d="M1715.5,-155.91C1857.85,-153.02 2183.66,-142.74 2455,-107 2475.07,-104.36 2497.22,-99.96 2515.19,-96.01"/>
<polygon fill="#63b8ff" stroke="#63b8ff" points="1715.1,-152.42 1705.17,-156.11 1715.23,-159.41 1715.1,-152.42"/>
</a>
</g>
</g>
<!-- Node25 -->
<g id="Node000025" class="node">
<title>Node25</title>
<g id="a_Node000025"><a xlink:href="../../d9/df0/plan__select_8cpp.html" target="_top" xlink:title=" ">
<polygon fill="white" stroke="#666666" points="2804.5,-96 2655.5,-96 2655.5,-77 2804.5,-77 2804.5,-96"/>
<text text-anchor="middle" x="2730" y="-84" font-family="Helvetica,sans-Serif" font-size="10.00">src/planner/plan_select.cpp</text>
</a>
</g>
</g>
<!-- Node2&#45;&gt;Node25 -->
<g id="edge26_Node000002_Node000025" class="edge">
<title>Node2&#45;&gt;Node25</title>
<g id="a_edge26_Node000002_Node000025"><a xlink:title=" ">
<path fill="none" stroke="#63b8ff" d="M1715.35,-157.8C1880.94,-158.66 2299.92,-155.4 2646,-107 2663.79,-104.51 2683.36,-100.07 2699.13,-96.06"/>
<polygon fill="#63b8ff" stroke="#63b8ff" points="1715.3,-154.3 1705.28,-157.74 1715.26,-161.3 1715.3,-154.3"/>
</a>
</g>
</g>
<!-- Node26 -->
<g id="Node000026" class="node">
<title>Node26</title>
<g id="a_Node000026"><a xlink:href="../../d8/d40/plan__table__ref_8cpp.html" target="_top" xlink:title=" ">
<polygon fill="white" stroke="#666666" points="2947.5,-101.5 2822.5,-101.5 2822.5,-71.5 2947.5,-71.5 2947.5,-101.5"/>
<text text-anchor="start" x="2830.5" y="-89.5" font-family="Helvetica,sans-Serif" font-size="10.00">src/planner/plan_table</text>
<text text-anchor="middle" x="2885" y="-78.5" font-family="Helvetica,sans-Serif" font-size="10.00">_ref.cpp</text>
</a>
</g>
</g>
<!-- Node2&#45;&gt;Node26 -->
<g id="edge27_Node000002_Node000026" class="edge">
<title>Node2&#45;&gt;Node26</title>
<g id="a_edge27_Node000002_Node000026"><a xlink:title=" ">
<path fill="none" stroke="#63b8ff" d="M1715.52,-156C1936.59,-152.64 2599.89,-139.99 2813,-107 2821.57,-105.67 2830.59,-103.7 2839.23,-101.52"/>
<polygon fill="#63b8ff" stroke="#63b8ff" points="1715.28,-152.51 1705.33,-156.16 1715.38,-159.51 1715.28,-152.51"/>
</a>
</g>
</g>
<!-- Node27 -->
<g id="Node000027" class="node">
<title>Node27</title>
<g id="a_Node000027"><a xlink:href="../../d4/d79/plan__window__function_8cpp.html" target="_top" xlink:title=" ">
<polygon fill="white" stroke="#666666" points="3102.5,-101.5 2965.5,-101.5 2965.5,-71.5 3102.5,-71.5 3102.5,-101.5"/>
<text text-anchor="start" x="2973.5" y="-89.5" font-family="Helvetica,sans-Serif" font-size="10.00">src/planner/plan_window</text>
<text text-anchor="middle" x="3034" y="-78.5" font-family="Helvetica,sans-Serif" font-size="10.00">_function.cpp</text>
</a>
</g>
</g>
<!-- Node2&#45;&gt;Node27 -->
<g id="edge28_Node000002_Node000027" class="edge">
<title>Node2&#45;&gt;Node27</title>
<g id="a_edge28_Node000002_Node000027"><a xlink:title=" ">
<path fill="none" stroke="#63b8ff" d="M1715.62,-156.21C1954.37,-153.31 2713.58,-141.54 2956,-107 2965.26,-105.68 2975.01,-103.72 2984.37,-101.54"/>
<polygon fill="#63b8ff" stroke="#63b8ff" points="1715.28,-152.72 1705.32,-156.34 1715.36,-159.72 1715.28,-152.72"/>
</a>
</g>
</g>
<!-- Node2&#45;&gt;Node28 -->
<g id="edge29_Node000002_Node000028" class="edge">
<title>Node2&#45;&gt;Node28</title>
<g id="a_edge29_Node000002_Node000028"><a xlink:title=" ">
<path fill="none" stroke="#63b8ff" d="M1715.4,-155.61C1991.91,-150.15 2972.83,-129.39 3111,-107 3119.02,-105.7 3127.44,-103.72 3135.47,-101.5"/>
<polygon fill="#63b8ff" stroke="#63b8ff" points="1715.01,-152.12 1705.08,-155.81 1715.15,-159.12 1715.01,-152.12"/>
</a>
</g>
</g>
<!-- Node13 -->
<g id="Node000013" class="node">
<title>Node13</title>
<g id="a_Node000013"><a xlink:href="../../da/d4d/aggregation__executor_8cpp.html" target="_top" xlink:title=" ">
<polygon fill="white" stroke="#666666" points="1544.5,-30 1401.5,-30 1401.5,0 1544.5,0 1544.5,-30"/>
<text text-anchor="start" x="1409.5" y="-18" font-family="Helvetica,sans-Serif" font-size="10.00">src/execution/aggregation</text>
<text text-anchor="middle" x="1473" y="-7" font-family="Helvetica,sans-Serif" font-size="10.00">_executor.cpp</text>
</a>
</g>
</g>
<!-- Node12&#45;&gt;Node13 -->
<g id="edge12_Node000012_Node000013" class="edge">
<title>Node12&#45;&gt;Node13</title>
<g id="a_edge12_Node000012_Node000013"><a xlink:title=" ">
<path fill="none" stroke="#63b8ff" d="M1485.65,-55.95C1482.8,-46.96 1479.81,-37.5 1477.44,-30.04"/>
<polygon fill="#63b8ff" stroke="#63b8ff" points="1482.4,-57.29 1488.75,-65.77 1489.07,-55.18 1482.4,-57.29"/>
</a>
</g>
</g>
<!-- Node14 -->
<g id="Node000014" class="node">
<title>Node14</title>
<g id="a_Node000014"><a xlink:href="../../d3/d3e/executor__factory_8cpp.html" target="_top" xlink:title=" ">
<polygon fill="white" stroke="#666666" points="1689,-30 1563,-30 1563,0 1689,0 1689,-30"/>
<text text-anchor="start" x="1571" y="-18" font-family="Helvetica,sans-Serif" font-size="10.00">src/execution/executor</text>
<text text-anchor="middle" x="1626" y="-7" font-family="Helvetica,sans-Serif" font-size="10.00">_factory.cpp</text>
</a>
</g>
</g>
<!-- Node12&#45;&gt;Node14 -->
<g id="edge13_Node000012_Node000014" class="edge">
<title>Node12&#45;&gt;Node14</title>
<g id="a_edge13_Node000012_Node000014"><a xlink:title=" ">
<path fill="none" stroke="#63b8ff" d="M1540.91,-61.14C1560.48,-50.76 1582.61,-39.02 1599.4,-30.11"/>
<polygon fill="#63b8ff" stroke="#63b8ff" points="1539.03,-58.18 1531.84,-65.96 1542.31,-64.36 1539.03,-58.18"/>
</a>
</g>
</g>
<!-- Node16 -->
<g id="Node000016" class="node">
<title>Node16</title>
<g id="a_Node000016"><a xlink:href="../../df/dfb/expression__factory_8cpp.html" target="_top" xlink:title=" ">
<polygon fill="white" stroke="#666666" points="1844.5,-30 1717.5,-30 1717.5,0 1844.5,0 1844.5,-30"/>
<text text-anchor="start" x="1725.5" y="-18" font-family="Helvetica,sans-Serif" font-size="10.00">src/planner/expression</text>
<text text-anchor="middle" x="1781" y="-7" font-family="Helvetica,sans-Serif" font-size="10.00">_factory.cpp</text>
</a>
</g>
</g>
<!-- Node15&#45;&gt;Node16 -->
<g id="edge15_Node000015_Node000016" class="edge">
<title>Node15&#45;&gt;Node16</title>
<g id="a_edge15_Node000015_Node000016"><a xlink:title=" ">
<path fill="none" stroke="#63b8ff" d="M1690.81,-61.42C1711.55,-50.98 1735.13,-39.1 1752.98,-30.11"/>
<polygon fill="#63b8ff" stroke="#63b8ff" points="1689.16,-58.33 1681.81,-65.96 1692.31,-64.58 1689.16,-58.33"/>
</a>
</g>
</g>
<!-- Node17&#45;&gt;Node16 -->
<g id="edge19_Node000017_Node000016" class="edge">
<title>Node17&#45;&gt;Node16</title>
<g id="a_edge19_Node000017_Node000016"><a xlink:title=" ">
<path fill="none" stroke="#63b8ff" d="M1918.66,-62.67C1886.86,-51.89 1849.91,-39.36 1822.31,-30"/>
<polygon fill="#63b8ff" stroke="#63b8ff" points="1917.76,-66.06 1928.35,-65.96 1920,-59.43 1917.76,-66.06"/>
</a>
</g>
</g>
<!-- Node18 -->
<g id="Node000018" class="node">
<title>Node18</title>
<g id="a_Node000018"><a xlink:href="../../d5/d99/nlj__as__hash__join_8cpp.html" target="_top" xlink:title=" ">
<polygon fill="white" stroke="#666666" points="1975,-30 1863,-30 1863,0 1975,0 1975,-30"/>
<text text-anchor="start" x="1871" y="-18" font-family="Helvetica,sans-Serif" font-size="10.00">src/optimizer/nlj_as</text>
<text text-anchor="middle" x="1919" y="-7" font-family="Helvetica,sans-Serif" font-size="10.00">_hash_join.cpp</text>
</a>
</g>
</g>
<!-- Node17&#45;&gt;Node18 -->
<g id="edge17_Node000017_Node000018" class="edge">
<title>Node17&#45;&gt;Node18</title>
<g id="a_edge17_Node000017_Node000018"><a xlink:title=" ">
<path fill="none" stroke="#63b8ff" d="M1960.02,-58.55C1950.63,-48.81 1940.42,-38.22 1932.53,-30.04"/>
<polygon fill="#63b8ff" stroke="#63b8ff" points="1957.52,-61 1966.98,-65.77 1962.56,-56.14 1957.52,-61"/>
</a>
</g>
</g>
<!-- Node19 -->
<g id="Node000019" class="node">
<title>Node19</title>
<g id="a_Node000019"><a xlink:href="../../d0/de1/nlj__as__index__join_8cpp.html" target="_top" xlink:title=" ">
<polygon fill="white" stroke="#666666" points="2105,-30 1993,-30 1993,0 2105,0 2105,-30"/>
<text text-anchor="start" x="2001" y="-18" font-family="Helvetica,sans-Serif" font-size="10.00">src/optimizer/nlj_as</text>
<text text-anchor="middle" x="2049" y="-7" font-family="Helvetica,sans-Serif" font-size="10.00">_index_join.cpp</text>
</a>
</g>
</g>
<!-- Node17&#45;&gt;Node19 -->
<g id="edge18_Node000017_Node000019" class="edge">
<title>Node17&#45;&gt;Node19</title>
<g id="a_edge18_Node000017_Node000019"><a xlink:title=" ">
<path fill="none" stroke="#63b8ff" d="M2010.69,-58.26C2019.44,-48.61 2028.93,-38.14 2036.27,-30.04"/>
<polygon fill="#63b8ff" stroke="#63b8ff" points="2008.01,-56.01 2003.88,-65.77 2013.19,-60.71 2008.01,-56.01"/>
</a>
</g>
</g>
<!-- Node20&#45;&gt;Node16 -->
<g id="edge21_Node000020_Node000016" class="edge">
<title>Node20&#45;&gt;Node16</title>
<g id="a_edge21_Node000020_Node000016"><a xlink:title=" ">
<path fill="none" stroke="#63b8ff" d="M1802.29,-62.23C1797.37,-51.56 1791.71,-39.27 1787.47,-30.04"/>
<polygon fill="#63b8ff" stroke="#63b8ff" points="1799.16,-63.82 1806.52,-71.44 1805.52,-60.89 1799.16,-63.82"/>
</a>
</g>
</g>
<!-- Node22 -->
<g id="Node000022" class="node">
<title>Node22</title>
<g id="a_Node000022"><a xlink:href="../../d6/da3/plan__func__call_8cpp.html" target="_top" xlink:title=" ">
<polygon fill="white" stroke="#666666" points="2244.5,-30 2123.5,-30 2123.5,0 2244.5,0 2244.5,-30"/>
<text text-anchor="start" x="2131.5" y="-18" font-family="Helvetica,sans-Serif" font-size="10.00">src/planner/plan_func</text>
<text text-anchor="middle" x="2184" y="-7" font-family="Helvetica,sans-Serif" font-size="10.00">_call.cpp</text>
</a>
</g>
</g>
<!-- Node21&#45;&gt;Node22 -->
<g id="edge23_Node000021_Node000022" class="edge">
<title>Node21&#45;&gt;Node22</title>
<g id="a_edge23_Node000021_Node000022"><a xlink:title=" ">
<path fill="none" stroke="#63b8ff" d="M2168.81,-61.9C2172.31,-51.31 2176.33,-39.18 2179.35,-30.04"/>
<polygon fill="#63b8ff" stroke="#63b8ff" points="2165.47,-60.84 2165.65,-71.44 2172.12,-63.04 2165.47,-60.84"/>
</a>
</g>
</g>
</g>
</svg>
