<?xml version="1.0" encoding="UTF-8" standalone="no"?>
<!DOCTYPE svg PUBLIC "-//W3C//DTD SVG 1.1//EN"
 "http://www.w3.org/Graphics/SVG/1.1/DTD/svg11.dtd">
<!-- Generated by graphviz version 2.43.0 (0)
 -->
<!-- Title: src/include/storage/page/extendible_htable_directory_page.h Pages: 1 -->
<svg width="1433pt" height="445pt"
 viewBox="0.00 0.00 1432.67 445.00" xmlns="http://www.w3.org/2000/svg" xmlns:xlink="http://www.w3.org/1999/xlink">
<g id="graph0" class="graph" transform="scale(1 1) rotate(0) translate(4 441)">
<title>src/include/storage/page/extendible_htable_directory_page.h</title>
<!-- Node1 -->
<g id="Node000001" class="node">
<title>Node1</title>
<g id="a_Node000001"><a xlink:title=" ">
<polygon fill="#999999" stroke="#666666" points="896.67,-437 762.67,-437 762.67,-396 896.67,-396 896.67,-437"/>
<text text-anchor="start" x="770.67" y="-425" font-family="Helvetica,sans-Serif" font-size="10.00">src/include/storage</text>
<text text-anchor="start" x="770.67" y="-414" font-family="Helvetica,sans-Serif" font-size="10.00">/page/extendible_htable</text>
<text text-anchor="middle" x="829.67" y="-403" font-family="Helvetica,sans-Serif" font-size="10.00">_directory_page.h</text>
</a>
</g>
</g>
<!-- Node2 -->
<g id="Node000002" class="node">
<title>Node2</title>
<g id="a_Node000002"><a xlink:title=" ">
<polygon fill="#e0e0e0" stroke="#999999" points="748.67,-74 696.67,-74 696.67,-55 748.67,-55 748.67,-74"/>
<text text-anchor="middle" x="722.67" y="-62" font-family="Helvetica,sans-Serif" font-size="10.00">cassert</text>
</a>
</g>
</g>
<!-- Node1&#45;&gt;Node2 -->
<g id="edge1_Node000001_Node000002" class="edge">
<title>Node1&#45;&gt;Node2</title>
<g id="a_edge1_Node000001_Node000002"><a xlink:title=" ">
<path fill="none" stroke="#63b8ff" d="M762.39,-407.48C692.32,-394.94 592.67,-363.4 592.67,-285.5 592.67,-285.5 592.67,-285.5 592.67,-173.5 592.67,-143.91 592.59,-131.74 612.67,-110 623.1,-98.71 658.73,-85.47 686.64,-76.38"/>
<polygon fill="#63b8ff" stroke="#63b8ff" points="688.05,-79.61 696.52,-73.23 685.93,-72.94 688.05,-79.61"/>
</a>
</g>
</g>
<!-- Node3 -->
<g id="Node000003" class="node">
<title>Node3</title>
<g id="a_Node000003"><a xlink:title=" ">
<polygon fill="#e0e0e0" stroke="#999999" points="1348.67,-74 1298.67,-74 1298.67,-55 1348.67,-55 1348.67,-74"/>
<text text-anchor="middle" x="1323.67" y="-62" font-family="Helvetica,sans-Serif" font-size="10.00">climits</text>
</a>
</g>
</g>
<!-- Node1&#45;&gt;Node3 -->
<g id="edge2_Node000001_Node000003" class="edge">
<title>Node1&#45;&gt;Node3</title>
<g id="a_edge2_Node000001_Node000003"><a xlink:title=" ">
<path fill="none" stroke="#63b8ff" d="M896.86,-413.86C1045,-408.41 1386.67,-385.05 1386.67,-285.5 1386.67,-285.5 1386.67,-285.5 1386.67,-173.5 1386.67,-136.49 1358.72,-100.87 1340.06,-81.21"/>
<polygon fill="#63b8ff" stroke="#63b8ff" points="1342.48,-78.68 1332.97,-74.03 1337.5,-83.6 1342.48,-78.68"/>
</a>
</g>
</g>
<!-- Node4 -->
<g id="Node000004" class="node">
<title>Node4</title>
<g id="a_Node000004"><a xlink:title=" ">
<polygon fill="#e0e0e0" stroke="#999999" points="256.17,-74 207.17,-74 207.17,-55 256.17,-55 256.17,-74"/>
<text text-anchor="middle" x="231.67" y="-62" font-family="Helvetica,sans-Serif" font-size="10.00">cstdlib</text>
</a>
</g>
</g>
<!-- Node1&#45;&gt;Node4 -->
<g id="edge3_Node000001_Node000004" class="edge">
<title>Node1&#45;&gt;Node4</title>
<g id="a_edge3_Node000001_Node000004"><a xlink:title=" ">
<path fill="none" stroke="#63b8ff" d="M762.65,-415.26C647.28,-413.58 404.29,-404.5 204.67,-360 110.46,-339 0.67,-382.02 0.67,-285.5 0.67,-285.5 0.67,-285.5 0.67,-173.5 0.67,-144.04 -2.01,-129.94 19.67,-110 45.17,-86.55 143.75,-73.81 197.03,-68.5"/>
<polygon fill="#63b8ff" stroke="#63b8ff" points="197.43,-71.98 207.05,-67.54 196.76,-65.01 197.43,-71.98"/>
</a>
</g>
</g>
<!-- Node5 -->
<g id="Node000005" class="node">
<title>Node5</title>
<g id="a_Node000005"><a xlink:title=" ">
<polygon fill="#e0e0e0" stroke="#999999" points="1006.67,-19 962.67,-19 962.67,0 1006.67,0 1006.67,-19"/>
<text text-anchor="middle" x="984.67" y="-7" font-family="Helvetica,sans-Serif" font-size="10.00">string</text>
</a>
</g>
</g>
<!-- Node1&#45;&gt;Node5 -->
<g id="edge4_Node000001_Node000005" class="edge">
<title>Node1&#45;&gt;Node5</title>
<g id="a_edge4_Node000001_Node000005"><a xlink:title=" ">
<path fill="none" stroke="#63b8ff" d="M896.83,-413.5C1017.68,-409.05 1266.46,-395.74 1344.67,-360 1388.86,-339.81 1424.67,-334.09 1424.67,-285.5 1424.67,-285.5 1424.67,-285.5 1424.67,-118.5 1424.67,-83.12 1407.4,-72.53 1376.67,-55 1315.4,-20.06 1098.96,-12.54 1016.71,-10.93"/>
<polygon fill="#63b8ff" stroke="#63b8ff" points="1016.75,-7.43 1006.69,-10.75 1016.63,-14.43 1016.75,-7.43"/>
</a>
</g>
</g>
<!-- Node6 -->
<g id="Node000006" class="node">
<title>Node6</title>
<g id="a_Node000006"><a xlink:href="../../db/d16/config_8h.html" target="_top" xlink:title=" ">
<polygon fill="white" stroke="#666666" points="130.17,-129 29.17,-129 29.17,-110 130.17,-110 130.17,-129"/>
<text text-anchor="middle" x="79.67" y="-117" font-family="Helvetica,sans-Serif" font-size="10.00">common/config.h</text>
</a>
</g>
</g>
<!-- Node1&#45;&gt;Node6 -->
<g id="edge5_Node000001_Node000006" class="edge">
<title>Node1&#45;&gt;Node6</title>
<g id="a_edge5_Node000001_Node000006"><a xlink:title=" ">
<path fill="none" stroke="#63b8ff" d="M762.43,-410.2C585.7,-395.36 121.67,-350.25 121.67,-285.5 121.67,-285.5 121.67,-285.5 121.67,-228.5 121.67,-194.46 103.32,-158.24 90.88,-137.59"/>
<polygon fill="#63b8ff" stroke="#63b8ff" points="93.79,-135.63 85.51,-129.02 87.86,-139.35 93.79,-135.63"/>
</a>
</g>
</g>
<!-- Node10 -->
<g id="Node000010" class="node">
<title>Node10</title>
<g id="a_Node000010"><a xlink:href="../../da/d28/generic__key_8h.html" target="_top" xlink:title=" ">
<polygon fill="white" stroke="#666666" points="1222.67,-360 1100.67,-360 1100.67,-330 1222.67,-330 1222.67,-360"/>
<text text-anchor="start" x="1108.67" y="-348" font-family="Helvetica,sans-Serif" font-size="10.00">storage/index/generic</text>
<text text-anchor="middle" x="1161.67" y="-337" font-family="Helvetica,sans-Serif" font-size="10.00">_key.h</text>
</a>
</g>
</g>
<!-- Node1&#45;&gt;Node10 -->
<g id="edge9_Node000001_Node000010" class="edge">
<title>Node1&#45;&gt;Node10</title>
<g id="a_edge9_Node000001_Node000010"><a xlink:title=" ">
<path fill="none" stroke="#63b8ff" d="M896.86,-401.44C953.07,-389.67 1033.06,-372.92 1090.39,-360.92"/>
<polygon fill="#63b8ff" stroke="#63b8ff" points="1091.39,-364.29 1100.46,-358.81 1089.95,-357.44 1091.39,-364.29"/>
</a>
</g>
</g>
<!-- Node7 -->
<g id="Node000007" class="node">
<title>Node7</title>
<g id="a_Node000007"><a xlink:title=" ">
<polygon fill="#e0e0e0" stroke="#999999" points="324.67,-74 274.67,-74 274.67,-55 324.67,-55 324.67,-74"/>
<text text-anchor="middle" x="299.67" y="-62" font-family="Helvetica,sans-Serif" font-size="10.00">atomic</text>
</a>
</g>
</g>
<!-- Node6&#45;&gt;Node7 -->
<g id="edge6_Node000006_Node000007" class="edge">
<title>Node6&#45;&gt;Node7</title>
<g id="a_edge6_Node000006_Node000007"><a xlink:title=" ">
<path fill="none" stroke="#63b8ff" d="M115.7,-109.99C151.14,-101.6 207.05,-88.3 264.45,-74.28"/>
<polygon fill="#63b8ff" stroke="#63b8ff" points="265.54,-77.62 274.43,-71.84 263.88,-70.82 265.54,-77.62"/>
</a>
</g>
</g>
<!-- Node8 -->
<g id="Node000008" class="node">
<title>Node8</title>
<g id="a_Node000008"><a xlink:title=" ">
<polygon fill="#e0e0e0" stroke="#999999" points="112.67,-74 62.67,-74 62.67,-55 112.67,-55 112.67,-74"/>
<text text-anchor="middle" x="87.67" y="-62" font-family="Helvetica,sans-Serif" font-size="10.00">chrono</text>
</a>
</g>
</g>
<!-- Node6&#45;&gt;Node8 -->
<g id="edge7_Node000006_Node000008" class="edge">
<title>Node6&#45;&gt;Node8</title>
<g id="a_edge7_Node000006_Node000008"><a xlink:title=" ">
<path fill="none" stroke="#63b8ff" d="M80.99,-109.75C82.04,-102.8 83.54,-92.85 84.86,-84.13"/>
<polygon fill="#63b8ff" stroke="#63b8ff" points="88.34,-84.5 86.37,-74.09 81.42,-83.45 88.34,-84.5"/>
</a>
</g>
</g>
<!-- Node9 -->
<g id="Node000009" class="node">
<title>Node9</title>
<g id="a_Node000009"><a xlink:title=" ">
<polygon fill="#e0e0e0" stroke="#999999" points="446.67,-19 396.67,-19 396.67,0 446.67,0 446.67,-19"/>
<text text-anchor="middle" x="421.67" y="-7" font-family="Helvetica,sans-Serif" font-size="10.00">cstdint</text>
</a>
</g>
</g>
<!-- Node6&#45;&gt;Node9 -->
<g id="edge8_Node000006_Node000009" class="edge">
<title>Node6&#45;&gt;Node9</title>
<g id="a_edge8_Node000006_Node000009"><a xlink:title=" ">
<path fill="none" stroke="#63b8ff" d="M70.78,-109.69C58.44,-96.42 39.19,-71.13 53.67,-55 101.65,-1.57 298.36,-29.73 386.55,-18.7"/>
<polygon fill="#63b8ff" stroke="#63b8ff" points="387.14,-22.15 396.5,-17.2 386.09,-15.23 387.14,-22.15"/>
</a>
</g>
</g>
<!-- Node11 -->
<g id="Node000011" class="node">
<title>Node11</title>
<g id="a_Node000011"><a xlink:title=" ">
<polygon fill="#e0e0e0" stroke="#999999" points="1320.67,-129 1270.67,-129 1270.67,-110 1320.67,-110 1320.67,-129"/>
<text text-anchor="middle" x="1295.67" y="-117" font-family="Helvetica,sans-Serif" font-size="10.00">cstring</text>
</a>
</g>
</g>
<!-- Node10&#45;&gt;Node11 -->
<g id="edge10_Node000010_Node000011" class="edge">
<title>Node10&#45;&gt;Node11</title>
<g id="a_edge10_Node000010_Node000011"><a xlink:title=" ">
<path fill="none" stroke="#63b8ff" d="M1170.26,-329.68C1193.84,-290.35 1259.54,-180.77 1285.21,-137.96"/>
<polygon fill="#63b8ff" stroke="#63b8ff" points="1288.3,-139.61 1290.44,-129.23 1282.29,-136.01 1288.3,-139.61"/>
</a>
</g>
</g>
<!-- Node12 -->
<g id="Node000012" class="node">
<title>Node12</title>
<g id="a_Node000012"><a xlink:href="../../d2/d20/tuple_8h.html" target="_top" xlink:title=" ">
<polygon fill="white" stroke="#666666" points="1125.67,-294 1007.67,-294 1007.67,-275 1125.67,-275 1125.67,-294"/>
<text text-anchor="middle" x="1066.67" y="-282" font-family="Helvetica,sans-Serif" font-size="10.00">storage/table/tuple.h</text>
</a>
</g>
</g>
<!-- Node10&#45;&gt;Node12 -->
<g id="edge11_Node000010_Node000012" class="edge">
<title>Node10&#45;&gt;Node12</title>
<g id="a_edge11_Node000010_Node000012"><a xlink:title=" ">
<path fill="none" stroke="#63b8ff" d="M1138.67,-329.84C1123.67,-320.6 1104.17,-308.59 1089.25,-299.4"/>
<polygon fill="#63b8ff" stroke="#63b8ff" points="1090.98,-296.36 1080.63,-294.09 1087.31,-302.32 1090.98,-296.36"/>
</a>
</g>
</g>
<!-- Node30 -->
<g id="Node000030" class="node">
<title>Node30</title>
<g id="a_Node000030"><a xlink:href="../../d4/d3f/value_8h.html" target="_top" xlink:title=" ">
<polygon fill="white" stroke="#666666" points="1185.17,-184 1108.17,-184 1108.17,-165 1185.17,-165 1185.17,-184"/>
<text text-anchor="middle" x="1146.67" y="-172" font-family="Helvetica,sans-Serif" font-size="10.00">type/value.h</text>
</a>
</g>
</g>
<!-- Node10&#45;&gt;Node30 -->
<g id="edge62_Node000010_Node000030" class="edge">
<title>Node10&#45;&gt;Node30</title>
<g id="a_edge62_Node000010_Node000030"><a xlink:title=" ">
<path fill="none" stroke="#63b8ff" d="M1160.42,-329.92C1157.72,-299.65 1151.38,-228.35 1148.34,-194.27"/>
<polygon fill="#63b8ff" stroke="#63b8ff" points="1151.82,-193.91 1147.45,-184.25 1144.85,-194.53 1151.82,-193.91"/>
</a>
</g>
</g>
<!-- Node12&#45;&gt;Node5 -->
<g id="edge12_Node000012_Node000005" class="edge">
<title>Node12&#45;&gt;Node5</title>
<g id="a_edge12_Node000012_Node000005"><a xlink:title=" ">
<path fill="none" stroke="#63b8ff" d="M1096.23,-274.99C1186.73,-247.56 1448.51,-157.32 1357.67,-55 1335.17,-29.66 1103.37,-16.13 1016.93,-11.94"/>
<polygon fill="#63b8ff" stroke="#63b8ff" points="1017.05,-8.44 1006.9,-11.47 1016.72,-15.44 1017.05,-8.44"/>
</a>
</g>
</g>
<!-- Node12&#45;&gt;Node6 -->
<g id="edge44_Node000012_Node000006" class="edge">
<title>Node12&#45;&gt;Node6</title>
<g id="a_edge44_Node000012_Node000006"><a xlink:title=" ">
<path fill="none" stroke="#63b8ff" d="M1007.65,-283.01C867.94,-280.47 507.15,-265.81 219.67,-184 176.96,-171.85 130.63,-148.67 103.43,-133.93"/>
<polygon fill="#63b8ff" stroke="#63b8ff" points="105.09,-130.85 94.64,-129.1 101.72,-136.98 105.09,-130.85"/>
</a>
</g>
</g>
<!-- Node13 -->
<g id="Node000013" class="node">
<title>Node13</title>
<g id="a_Node000013"><a xlink:title=" ">
<polygon fill="#e0e0e0" stroke="#999999" points="1090.17,-184 1043.17,-184 1043.17,-165 1090.17,-165 1090.17,-184"/>
<text text-anchor="middle" x="1066.67" y="-172" font-family="Helvetica,sans-Serif" font-size="10.00">vector</text>
</a>
</g>
</g>
<!-- Node12&#45;&gt;Node13 -->
<g id="edge13_Node000012_Node000013" class="edge">
<title>Node12&#45;&gt;Node13</title>
<g id="a_edge13_Node000012_Node000013"><a xlink:title=" ">
<path fill="none" stroke="#63b8ff" d="M1066.67,-274.66C1066.67,-257.17 1066.67,-217.8 1066.67,-194.27"/>
<polygon fill="#63b8ff" stroke="#63b8ff" points="1070.17,-194.16 1066.67,-184.16 1063.17,-194.16 1070.17,-194.16"/>
</a>
</g>
</g>
<!-- Node14 -->
<g id="Node000014" class="node">
<title>Node14</title>
<g id="a_Node000014"><a xlink:href="../../d7/de3/schema_8h.html" target="_top" xlink:title=" ">
<polygon fill="white" stroke="#666666" points="940.17,-239 837.17,-239 837.17,-220 940.17,-220 940.17,-239"/>
<text text-anchor="middle" x="888.67" y="-227" font-family="Helvetica,sans-Serif" font-size="10.00">catalog/schema.h</text>
</a>
</g>
</g>
<!-- Node12&#45;&gt;Node14 -->
<g id="edge14_Node000012_Node000014" class="edge">
<title>Node12&#45;&gt;Node14</title>
<g id="a_edge14_Node000012_Node000014"><a xlink:title=" ">
<path fill="none" stroke="#63b8ff" d="M1038.07,-274.98C1008.06,-266.05 960.69,-251.94 927.36,-242.02"/>
<polygon fill="#63b8ff" stroke="#63b8ff" points="928.08,-238.58 917.49,-239.08 926.08,-245.29 928.08,-238.58"/>
</a>
</g>
</g>
<!-- Node28 -->
<g id="Node000028" class="node">
<title>Node28</title>
<g id="a_Node000028"><a xlink:href="../../d8/d5f/rid_8h.html" target="_top" xlink:title=" ">
<polygon fill="white" stroke="#666666" points="312.67,-184 228.67,-184 228.67,-165 312.67,-165 312.67,-184"/>
<text text-anchor="middle" x="270.67" y="-172" font-family="Helvetica,sans-Serif" font-size="10.00">common/rid.h</text>
</a>
</g>
</g>
<!-- Node12&#45;&gt;Node28 -->
<g id="edge45_Node000012_Node000028" class="edge">
<title>Node12&#45;&gt;Node28</title>
<g id="a_edge45_Node000012_Node000028"><a xlink:title=" ">
<path fill="none" stroke="#63b8ff" d="M1014.13,-274.96C934.39,-262.15 777.99,-237.57 644.67,-220 503.65,-201.41 467.68,-202.68 326.67,-184 325.41,-183.83 324.13,-183.66 322.85,-183.49"/>
<polygon fill="#63b8ff" stroke="#63b8ff" points="323.23,-180.01 312.84,-182.08 322.26,-186.94 323.23,-180.01"/>
</a>
</g>
</g>
<!-- Node12&#45;&gt;Node30 -->
<g id="edge50_Node000012_Node000030" class="edge">
<title>Node12&#45;&gt;Node30</title>
<g id="a_edge50_Node000012_Node000030"><a xlink:title=" ">
<path fill="none" stroke="#63b8ff" d="M1073.22,-274.66C1086.53,-256.69 1116.94,-215.64 1134.16,-192.38"/>
<polygon fill="#63b8ff" stroke="#63b8ff" points="1137.12,-194.28 1140.26,-184.16 1131.49,-190.11 1137.12,-194.28"/>
</a>
</g>
</g>
<!-- Node14&#45;&gt;Node5 -->
<g id="edge17_Node000014_Node000005" class="edge">
<title>Node14&#45;&gt;Node5</title>
<g id="a_edge17_Node000014_Node000005"><a xlink:title=" ">
<path fill="none" stroke="#63b8ff" d="M919.44,-219.9C958.28,-207.2 1023.44,-179.31 1051.67,-129 1072.54,-91.8 1030.69,-48.16 1004.18,-25.65"/>
<polygon fill="#63b8ff" stroke="#63b8ff" points="1006.16,-22.75 996.21,-19.11 1001.72,-28.16 1006.16,-22.75"/>
</a>
</g>
</g>
<!-- Node14&#45;&gt;Node13 -->
<g id="edge18_Node000014_Node000013" class="edge">
<title>Node14&#45;&gt;Node13</title>
<g id="a_edge18_Node000014_Node000013"><a xlink:title=" ">
<path fill="none" stroke="#63b8ff" d="M917.27,-219.98C948.89,-210.57 999.76,-195.42 1033.2,-185.46"/>
<polygon fill="#63b8ff" stroke="#63b8ff" points="1034.4,-188.76 1042.98,-182.55 1032.4,-182.05 1034.4,-188.76"/>
</a>
</g>
</g>
<!-- Node15 -->
<g id="Node000015" class="node">
<title>Node15</title>
<g id="a_Node000015"><a xlink:title=" ">
<polygon fill="#e0e0e0" stroke="#999999" points="984.67,-74 926.67,-74 926.67,-55 984.67,-55 984.67,-74"/>
<text text-anchor="middle" x="955.67" y="-62" font-family="Helvetica,sans-Serif" font-size="10.00">memory</text>
</a>
</g>
</g>
<!-- Node14&#45;&gt;Node15 -->
<g id="edge15_Node000014_Node000015" class="edge">
<title>Node14&#45;&gt;Node15</title>
<g id="a_edge15_Node000014_Node000015"><a xlink:title=" ">
<path fill="none" stroke="#63b8ff" d="M892.27,-219.74C902.82,-194.09 933.77,-118.78 948.16,-83.78"/>
<polygon fill="#63b8ff" stroke="#63b8ff" points="951.49,-84.89 952.05,-74.31 945.01,-82.23 951.49,-84.89"/>
</a>
</g>
</g>
<!-- Node16 -->
<g id="Node000016" class="node">
<title>Node16</title>
<g id="a_Node000016"><a xlink:title=" ">
<polygon fill="#e0e0e0" stroke="#999999" points="744.67,-184 688.67,-184 688.67,-165 744.67,-165 744.67,-184"/>
<text text-anchor="middle" x="716.67" y="-172" font-family="Helvetica,sans-Serif" font-size="10.00">optional</text>
</a>
</g>
</g>
<!-- Node14&#45;&gt;Node16 -->
<g id="edge16_Node000014_Node000016" class="edge">
<title>Node14&#45;&gt;Node16</title>
<g id="a_edge16_Node000014_Node000016"><a xlink:title=" ">
<path fill="none" stroke="#63b8ff" d="M861.04,-219.98C832.16,-211.09 786.66,-197.07 754.47,-187.15"/>
<polygon fill="#63b8ff" stroke="#63b8ff" points="755.11,-183.68 744.52,-184.08 753.05,-190.37 755.11,-183.68"/>
</a>
</g>
</g>
<!-- Node17 -->
<g id="Node000017" class="node">
<title>Node17</title>
<g id="a_Node000017"><a xlink:href="../../dc/df8/column_8h.html" target="_top" xlink:title=" ">
<polygon fill="white" stroke="#666666" points="864.17,-184 763.17,-184 763.17,-165 864.17,-165 864.17,-184"/>
<text text-anchor="middle" x="813.67" y="-172" font-family="Helvetica,sans-Serif" font-size="10.00">catalog/column.h</text>
</a>
</g>
</g>
<!-- Node14&#45;&gt;Node17 -->
<g id="edge19_Node000014_Node000017" class="edge">
<title>Node14&#45;&gt;Node17</title>
<g id="a_edge19_Node000014_Node000017"><a xlink:title=" ">
<path fill="none" stroke="#63b8ff" d="M876.62,-219.98C865.21,-211.92 847.84,-199.65 834.24,-190.03"/>
<polygon fill="#63b8ff" stroke="#63b8ff" points="836.13,-187.08 825.94,-184.17 832.09,-192.8 836.13,-187.08"/>
</a>
</g>
</g>
<!-- Node20 -->
<g id="Node000020" class="node">
<title>Node20</title>
<g id="a_Node000020"><a xlink:href="../../dd/d2d/exception_8h.html" target="_top" xlink:title=" ">
<polygon fill="white" stroke="#666666" points="564.17,-129 445.17,-129 445.17,-110 564.17,-110 564.17,-129"/>
<text text-anchor="middle" x="504.67" y="-117" font-family="Helvetica,sans-Serif" font-size="10.00">common/exception.h</text>
</a>
</g>
</g>
<!-- Node14&#45;&gt;Node20 -->
<g id="edge42_Node000014_Node000020" class="edge">
<title>Node14&#45;&gt;Node20</title>
<g id="a_edge42_Node000014_Node000020"><a xlink:title=" ">
<path fill="none" stroke="#63b8ff" d="M839.21,-219.97C796.56,-212.13 733.52,-199.42 679.67,-184 627.92,-169.18 569.43,-146.76 534.88,-132.91"/>
<polygon fill="#63b8ff" stroke="#63b8ff" points="535.96,-129.57 525.38,-129.07 533.34,-136.06 535.96,-129.57"/>
</a>
</g>
</g>
<!-- Node24 -->
<g id="Node000024" class="node">
<title>Node24</title>
<g id="a_Node000024"><a xlink:href="../../df/def/type_8h.html" target="_top" xlink:title=" ">
<polygon fill="white" stroke="#666666" points="414.67,-74 342.67,-74 342.67,-55 414.67,-55 414.67,-74"/>
<text text-anchor="middle" x="378.67" y="-62" font-family="Helvetica,sans-Serif" font-size="10.00">type/type.h</text>
</a>
</g>
</g>
<!-- Node14&#45;&gt;Node24 -->
<g id="edge43_Node000014_Node000024" class="edge">
<title>Node14&#45;&gt;Node24</title>
<g id="a_edge43_Node000014_Node000024"><a xlink:title=" ">
<path fill="none" stroke="#63b8ff" d="M836.85,-226.14C720.11,-219.63 442.13,-197.18 383.67,-129 373.22,-116.81 373.02,-98.02 374.8,-84.04"/>
<polygon fill="#63b8ff" stroke="#63b8ff" points="378.26,-84.52 376.49,-74.08 371.36,-83.35 378.26,-84.52"/>
</a>
</g>
</g>
<!-- Node17&#45;&gt;Node5 -->
<g id="edge22_Node000017_Node000005" class="edge">
<title>Node17&#45;&gt;Node5</title>
<g id="a_edge22_Node000017_Node000005"><a xlink:title=" ">
<path fill="none" stroke="#63b8ff" d="M814.21,-164.86C815.42,-151.8 819.3,-126.79 831.67,-110 849,-86.49 920.73,-45.23 959.51,-23.99"/>
<polygon fill="#63b8ff" stroke="#63b8ff" points="961.5,-26.89 968.61,-19.04 958.15,-20.74 961.5,-26.89"/>
</a>
</g>
</g>
<!-- Node17&#45;&gt;Node9 -->
<g id="edge20_Node000017_Node000009" class="edge">
<title>Node17&#45;&gt;Node9</title>
<g id="a_edge20_Node000017_Node000009"><a xlink:title=" ">
<path fill="none" stroke="#63b8ff" d="M812.81,-164.6C811.91,-152.05 811.38,-128.63 817.67,-110 826.2,-84.73 859.51,-74.83 841.67,-55 816.09,-26.56 553.14,-14.92 456.8,-11.58"/>
<polygon fill="#63b8ff" stroke="#63b8ff" points="456.8,-8.08 446.69,-11.24 456.56,-15.08 456.8,-8.08"/>
</a>
</g>
</g>
<!-- Node17&#45;&gt;Node15 -->
<g id="edge21_Node000017_Node000015" class="edge">
<title>Node17&#45;&gt;Node15</title>
<g id="a_edge21_Node000017_Node000015"><a xlink:title=" ">
<path fill="none" stroke="#63b8ff" d="M816.92,-164.96C822.4,-151.57 834.68,-125.59 852.67,-110 871.02,-94.11 895.91,-83.14 916.62,-76.07"/>
<polygon fill="#63b8ff" stroke="#63b8ff" points="917.97,-79.32 926.41,-72.91 915.82,-72.66 917.97,-79.32"/>
</a>
</g>
</g>
<!-- Node18 -->
<g id="Node000018" class="node">
<title>Node18</title>
<g id="a_Node000018"><a xlink:title=" ">
<polygon fill="#e0e0e0" stroke="#999999" points="906.17,-129 861.17,-129 861.17,-110 906.17,-110 906.17,-129"/>
<text text-anchor="middle" x="883.67" y="-117" font-family="Helvetica,sans-Serif" font-size="10.00">utility</text>
</a>
</g>
</g>
<!-- Node17&#45;&gt;Node18 -->
<g id="edge23_Node000017_Node000018" class="edge">
<title>Node17&#45;&gt;Node18</title>
<g id="a_edge23_Node000017_Node000018"><a xlink:title=" ">
<path fill="none" stroke="#63b8ff" d="M824.92,-164.98C835.47,-157 851.47,-144.88 864.11,-135.31"/>
<polygon fill="#63b8ff" stroke="#63b8ff" points="866.36,-138 872.22,-129.17 862.13,-132.42 866.36,-138"/>
</a>
</g>
</g>
<!-- Node19 -->
<g id="Node000019" class="node">
<title>Node19</title>
<g id="a_Node000019"><a xlink:title=" ">
<polygon fill="#e0e0e0" stroke="#999999" points="1042.17,-129 963.17,-129 963.17,-110 1042.17,-110 1042.17,-129"/>
<text text-anchor="middle" x="1002.67" y="-117" font-family="Helvetica,sans-Serif" font-size="10.00">fmt/format.h</text>
</a>
</g>
</g>
<!-- Node17&#45;&gt;Node19 -->
<g id="edge24_Node000017_Node000019" class="edge">
<title>Node17&#45;&gt;Node19</title>
<g id="a_edge24_Node000017_Node000019"><a xlink:title=" ">
<path fill="none" stroke="#63b8ff" d="M844.04,-164.98C876.04,-156.01 926.63,-141.82 962.05,-131.89"/>
<polygon fill="#63b8ff" stroke="#63b8ff" points="963.38,-135.15 972.07,-129.08 961.49,-128.41 963.38,-135.15"/>
</a>
</g>
</g>
<!-- Node17&#45;&gt;Node20 -->
<g id="edge25_Node000017_Node000020" class="edge">
<title>Node17&#45;&gt;Node20</title>
<g id="a_edge25_Node000017_Node000020"><a xlink:title=" ">
<path fill="none" stroke="#63b8ff" d="M764.03,-164.98C709.71,-155.67 622.66,-140.74 564.58,-130.78"/>
<polygon fill="#63b8ff" stroke="#63b8ff" points="564.9,-127.28 554.45,-129.04 563.71,-134.18 564.9,-127.28"/>
</a>
</g>
</g>
<!-- Node17&#45;&gt;Node24 -->
<g id="edge41_Node000017_Node000024" class="edge">
<title>Node17&#45;&gt;Node24</title>
<g id="a_edge41_Node000017_Node000024"><a xlink:title=" ">
<path fill="none" stroke="#63b8ff" d="M762.95,-166.17C759.81,-165.76 756.7,-165.37 753.67,-165 675.84,-155.5 464.81,-176.81 402.67,-129 388.83,-118.35 382.97,-98.74 380.49,-84.13"/>
<polygon fill="#63b8ff" stroke="#63b8ff" points="383.95,-83.61 379.18,-74.15 377.01,-84.52 383.95,-83.61"/>
</a>
</g>
</g>
<!-- Node26 -->
<g id="Node000026" class="node">
<title>Node26</title>
<g id="a_Node000026"><a xlink:href="../../de/d3c/macros_8h.html" target="_top" xlink:title=" ">
<polygon fill="white" stroke="#666666" points="728.17,-129 621.17,-129 621.17,-110 728.17,-110 728.17,-129"/>
<text text-anchor="middle" x="674.67" y="-117" font-family="Helvetica,sans-Serif" font-size="10.00">common/macros.h</text>
</a>
</g>
</g>
<!-- Node17&#45;&gt;Node26 -->
<g id="edge37_Node000017_Node000026" class="edge">
<title>Node17&#45;&gt;Node26</title>
<g id="a_edge37_Node000017_Node000026"><a xlink:title=" ">
<path fill="none" stroke="#63b8ff" d="M791.34,-164.98C768.47,-156.27 732.71,-142.63 706.81,-132.75"/>
<polygon fill="#63b8ff" stroke="#63b8ff" points="708,-129.46 697.41,-129.17 705.51,-136 708,-129.46"/>
</a>
</g>
</g>
<!-- Node20&#45;&gt;Node4 -->
<g id="edge28_Node000020_Node000004" class="edge">
<title>Node20&#45;&gt;Node4</title>
<g id="a_edge28_Node000020_Node000004"><a xlink:title=" ">
<path fill="none" stroke="#63b8ff" d="M453.67,-109.93C407.34,-101.94 336.89,-89.26 266.45,-74.06"/>
<polygon fill="#63b8ff" stroke="#63b8ff" points="267.03,-70.6 256.51,-71.9 265.54,-77.44 267.03,-70.6"/>
</a>
</g>
</g>
<!-- Node20&#45;&gt;Node5 -->
<g id="edge32_Node000020_Node000005" class="edge">
<title>Node20&#45;&gt;Node5</title>
<g id="a_edge32_Node000020_Node000005"><a xlink:title=" ">
<path fill="none" stroke="#63b8ff" d="M516.81,-109.82C539.12,-94.02 586.07,-61.61 604.67,-55 668.56,-32.31 872.21,-17.51 952.08,-12.45"/>
<polygon fill="#63b8ff" stroke="#63b8ff" points="952.74,-15.91 962.5,-11.8 952.3,-8.92 952.74,-15.91"/>
</a>
</g>
</g>
<!-- Node20&#45;&gt;Node7 -->
<g id="edge26_Node000020_Node000007" class="edge">
<title>Node20&#45;&gt;Node7</title>
<g id="a_edge26_Node000020_Node000007"><a xlink:title=" ">
<path fill="none" stroke="#63b8ff" d="M471.73,-109.98C434.12,-100.26 372.85,-84.42 334.48,-74.5"/>
<polygon fill="#63b8ff" stroke="#63b8ff" points="335.33,-71.1 324.77,-71.99 333.58,-77.88 335.33,-71.1"/>
</a>
</g>
</g>
<!-- Node20&#45;&gt;Node15 -->
<g id="edge30_Node000020_Node000015" class="edge">
<title>Node20&#45;&gt;Node15</title>
<g id="a_edge30_Node000020_Node000015"><a xlink:title=" ">
<path fill="none" stroke="#63b8ff" d="M564.56,-111.46C658.35,-100.44 837.33,-79.41 916.42,-70.11"/>
<polygon fill="#63b8ff" stroke="#63b8ff" points="916.93,-73.58 926.45,-68.93 916.11,-66.62 916.93,-73.58"/>
</a>
</g>
</g>
<!-- Node21 -->
<g id="Node000021" class="node">
<title>Node21</title>
<g id="a_Node000021"><a xlink:title=" ">
<polygon fill="#e0e0e0" stroke="#999999" points="556.67,-74 510.67,-74 510.67,-55 556.67,-55 556.67,-74"/>
<text text-anchor="middle" x="533.67" y="-62" font-family="Helvetica,sans-Serif" font-size="10.00">cstdio</text>
</a>
</g>
</g>
<!-- Node20&#45;&gt;Node21 -->
<g id="edge27_Node000020_Node000021" class="edge">
<title>Node20&#45;&gt;Node21</title>
<g id="a_edge27_Node000020_Node000021"><a xlink:title=" ">
<path fill="none" stroke="#63b8ff" d="M509.46,-109.75C513.43,-102.49 519.2,-91.95 524.11,-82.98"/>
<polygon fill="#63b8ff" stroke="#63b8ff" points="527.24,-84.54 528.97,-74.09 521.1,-81.18 527.24,-84.54"/>
</a>
</g>
</g>
<!-- Node22 -->
<g id="Node000022" class="node">
<title>Node22</title>
<g id="a_Node000022"><a xlink:title=" ">
<polygon fill="#e0e0e0" stroke="#999999" points="492.67,-74 432.67,-74 432.67,-55 492.67,-55 492.67,-74"/>
<text text-anchor="middle" x="462.67" y="-62" font-family="Helvetica,sans-Serif" font-size="10.00">iostream</text>
</a>
</g>
</g>
<!-- Node20&#45;&gt;Node22 -->
<g id="edge29_Node000020_Node000022" class="edge">
<title>Node20&#45;&gt;Node22</title>
<g id="a_edge29_Node000020_Node000022"><a xlink:title=" ">
<path fill="none" stroke="#63b8ff" d="M497.74,-109.75C491.8,-102.26 483.1,-91.28 475.85,-82.13"/>
<polygon fill="#63b8ff" stroke="#63b8ff" points="478.43,-79.75 469.48,-74.09 472.95,-84.1 478.43,-79.75"/>
</a>
</g>
</g>
<!-- Node23 -->
<g id="Node000023" class="node">
<title>Node23</title>
<g id="a_Node000023"><a xlink:title=" ">
<polygon fill="#e0e0e0" stroke="#999999" points="678.17,-74 613.17,-74 613.17,-55 678.17,-55 678.17,-74"/>
<text text-anchor="middle" x="645.67" y="-62" font-family="Helvetica,sans-Serif" font-size="10.00">stdexcept</text>
</a>
</g>
</g>
<!-- Node20&#45;&gt;Node23 -->
<g id="edge31_Node000020_Node000023" class="edge">
<title>Node20&#45;&gt;Node23</title>
<g id="a_edge31_Node000020_Node000023"><a xlink:title=" ">
<path fill="none" stroke="#63b8ff" d="M527.33,-109.98C550.52,-101.27 586.79,-87.63 613.07,-77.75"/>
<polygon fill="#63b8ff" stroke="#63b8ff" points="614.48,-80.97 622.6,-74.17 612.01,-74.41 614.48,-80.97"/>
</a>
</g>
</g>
<!-- Node20&#45;&gt;Node24 -->
<g id="edge33_Node000020_Node000024" class="edge">
<title>Node20&#45;&gt;Node24</title>
<g id="a_edge33_Node000020_Node000024"><a xlink:title=" ">
<path fill="none" stroke="#63b8ff" d="M484.43,-109.98C463.98,-101.38 432.14,-87.99 408.74,-78.15"/>
<polygon fill="#63b8ff" stroke="#63b8ff" points="409.86,-74.82 399.28,-74.17 407.14,-81.27 409.86,-74.82"/>
</a>
</g>
</g>
<!-- Node24&#45;&gt;Node5 -->
<g id="edge35_Node000024_Node000005" class="edge">
<title>Node24&#45;&gt;Node5</title>
<g id="a_edge35_Node000024_Node000005"><a xlink:title=" ">
<path fill="none" stroke="#63b8ff" d="M414.97,-56.3C417.91,-55.82 420.83,-55.38 423.67,-55 623.8,-28.24 866.41,-15.69 952.49,-11.84"/>
<polygon fill="#63b8ff" stroke="#63b8ff" points="952.82,-15.33 962.66,-11.39 952.52,-8.34 952.82,-15.33"/>
</a>
</g>
</g>
<!-- Node24&#45;&gt;Node9 -->
<g id="edge34_Node000024_Node000009" class="edge">
<title>Node24&#45;&gt;Node9</title>
<g id="a_edge34_Node000024_Node000009"><a xlink:title=" ">
<path fill="none" stroke="#63b8ff" d="M385.77,-54.75C391.85,-47.26 400.76,-36.28 408.18,-27.13"/>
<polygon fill="#63b8ff" stroke="#63b8ff" points="411.12,-29.06 414.7,-19.09 405.68,-24.65 411.12,-29.06"/>
</a>
</g>
</g>
<!-- Node25 -->
<g id="Node000025" class="node">
<title>Node25</title>
<g id="a_Node000025"><a xlink:href="../../dc/df2/type__id_8h.html" target="_top" xlink:title=" ">
<polygon fill="white" stroke="#666666" points="378.67,-19 292.67,-19 292.67,0 378.67,0 378.67,-19"/>
<text text-anchor="middle" x="335.67" y="-7" font-family="Helvetica,sans-Serif" font-size="10.00">type/type_id.h</text>
</a>
</g>
</g>
<!-- Node24&#45;&gt;Node25 -->
<g id="edge36_Node000024_Node000025" class="edge">
<title>Node24&#45;&gt;Node25</title>
<g id="a_edge36_Node000024_Node000025"><a xlink:title=" ">
<path fill="none" stroke="#63b8ff" d="M371.57,-54.75C365.5,-47.26 356.59,-36.28 349.16,-27.13"/>
<polygon fill="#63b8ff" stroke="#63b8ff" points="351.66,-24.65 342.64,-19.09 346.22,-29.06 351.66,-24.65"/>
</a>
</g>
</g>
<!-- Node26&#45;&gt;Node2 -->
<g id="edge38_Node000026_Node000002" class="edge">
<title>Node26&#45;&gt;Node2</title>
<g id="a_edge38_Node000026_Node000002"><a xlink:title=" ">
<path fill="none" stroke="#63b8ff" d="M682.6,-109.75C689.52,-102.11 699.74,-90.82 708.12,-81.56"/>
<polygon fill="#63b8ff" stroke="#63b8ff" points="710.77,-83.85 714.89,-74.09 705.59,-79.15 710.77,-83.85"/>
</a>
</g>
</g>
<!-- Node26&#45;&gt;Node23 -->
<g id="edge40_Node000026_Node000023" class="edge">
<title>Node26&#45;&gt;Node23</title>
<g id="a_edge40_Node000026_Node000023"><a xlink:title=" ">
<path fill="none" stroke="#63b8ff" d="M669.88,-109.75C665.91,-102.49 660.15,-91.95 655.24,-82.98"/>
<polygon fill="#63b8ff" stroke="#63b8ff" points="658.24,-81.18 650.37,-74.09 652.1,-84.54 658.24,-81.18"/>
</a>
</g>
</g>
<!-- Node27 -->
<g id="Node000027" class="node">
<title>Node27</title>
<g id="a_Node000027"><a xlink:title=" ">
<polygon fill="#e0e0e0" stroke="#999999" points="832.17,-74 767.17,-74 767.17,-55 832.17,-55 832.17,-74"/>
<text text-anchor="middle" x="799.67" y="-62" font-family="Helvetica,sans-Serif" font-size="10.00">exception</text>
</a>
</g>
</g>
<!-- Node26&#45;&gt;Node27 -->
<g id="edge39_Node000026_Node000027" class="edge">
<title>Node26&#45;&gt;Node27</title>
<g id="a_edge39_Node000026_Node000027"><a xlink:title=" ">
<path fill="none" stroke="#63b8ff" d="M694.75,-109.98C715.04,-101.38 746.63,-87.99 769.84,-78.15"/>
<polygon fill="#63b8ff" stroke="#63b8ff" points="771.38,-81.3 779.22,-74.17 768.65,-74.85 771.38,-81.3"/>
</a>
</g>
</g>
<!-- Node28&#45;&gt;Node5 -->
<g id="edge48_Node000028_Node000005" class="edge">
<title>Node28&#45;&gt;Node5</title>
<g id="a_edge48_Node000028_Node000005"><a xlink:title=" ">
<path fill="none" stroke="#63b8ff" d="M269.93,-164.88C268.43,-151.86 264.05,-126.89 251.67,-110 231.6,-82.62 175.36,-79.67 198.67,-55 224.97,-27.17 807.76,-13.96 952.4,-11.1"/>
<polygon fill="#63b8ff" stroke="#63b8ff" points="952.49,-14.6 962.42,-10.91 952.36,-7.6 952.49,-14.6"/>
</a>
</g>
</g>
<!-- Node28&#45;&gt;Node6 -->
<g id="edge49_Node000028_Node000006" class="edge">
<title>Node28&#45;&gt;Node6</title>
<g id="a_edge49_Node000028_Node000006"><a xlink:title=" ">
<path fill="none" stroke="#63b8ff" d="M239.98,-164.98C207.5,-155.97 156.08,-141.7 120.26,-131.76"/>
<polygon fill="#63b8ff" stroke="#63b8ff" points="121.17,-128.38 110.6,-129.08 119.3,-135.13 121.17,-128.38"/>
</a>
</g>
</g>
<!-- Node28&#45;&gt;Node9 -->
<g id="edge46_Node000028_Node000009" class="edge">
<title>Node28&#45;&gt;Node9</title>
<g id="a_edge46_Node000028_Node000009"><a xlink:title=" ">
<path fill="none" stroke="#63b8ff" d="M235.87,-164.94C216.03,-158.31 192.27,-147.12 177.67,-129 156.72,-103 143.02,-80.42 164.67,-55 195.44,-18.87 323.37,-27.9 386.25,-18.82"/>
<polygon fill="#63b8ff" stroke="#63b8ff" points="387.22,-22.21 396.47,-17.05 386.02,-15.31 387.22,-22.21"/>
</a>
</g>
</g>
<!-- Node29 -->
<g id="Node000029" class="node">
<title>Node29</title>
<g id="a_Node000029"><a xlink:title=" ">
<polygon fill="#e0e0e0" stroke="#999999" points="242.67,-129 186.67,-129 186.67,-110 242.67,-110 242.67,-129"/>
<text text-anchor="middle" x="214.67" y="-117" font-family="Helvetica,sans-Serif" font-size="10.00">sstream</text>
</a>
</g>
</g>
<!-- Node28&#45;&gt;Node29 -->
<g id="edge47_Node000028_Node000029" class="edge">
<title>Node28&#45;&gt;Node29</title>
<g id="a_edge47_Node000028_Node000029"><a xlink:title=" ">
<path fill="none" stroke="#63b8ff" d="M261.67,-164.98C253.48,-157.23 241.17,-145.58 231.2,-136.14"/>
<polygon fill="#63b8ff" stroke="#63b8ff" points="233.5,-133.5 223.83,-129.17 228.69,-138.59 233.5,-133.5"/>
</a>
</g>
</g>
<!-- Node30&#45;&gt;Node5 -->
<g id="edge53_Node000030_Node000005" class="edge">
<title>Node30&#45;&gt;Node5</title>
<g id="a_edge53_Node000030_Node000005"><a xlink:title=" ">
<path fill="none" stroke="#63b8ff" d="M1144.31,-164.83C1138.07,-143.42 1119.21,-87.42 1084.67,-55 1065.53,-37.04 1037.94,-25.5 1016.58,-18.69"/>
<polygon fill="#63b8ff" stroke="#63b8ff" points="1017.54,-15.33 1006.96,-15.8 1015.53,-22.03 1017.54,-15.33"/>
</a>
</g>
</g>
<!-- Node30&#45;&gt;Node11 -->
<g id="edge51_Node000030_Node000011" class="edge">
<title>Node30&#45;&gt;Node11</title>
<g id="a_edge51_Node000030_Node000011"><a xlink:title=" ">
<path fill="none" stroke="#63b8ff" d="M1170.61,-164.98C1195.23,-156.23 1233.79,-142.51 1261.59,-132.62"/>
<polygon fill="#63b8ff" stroke="#63b8ff" points="1263.05,-135.82 1271.3,-129.17 1260.7,-129.22 1263.05,-135.82"/>
</a>
</g>
</g>
<!-- Node30&#45;&gt;Node15 -->
<g id="edge52_Node000030_Node000015" class="edge">
<title>Node30&#45;&gt;Node15</title>
<g id="a_edge52_Node000030_Node000015"><a xlink:title=" ">
<path fill="none" stroke="#63b8ff" d="M1135.05,-164.87C1117.51,-152.04 1082.98,-127.58 1051.67,-110 1030.39,-98.05 1005.35,-86.52 986.17,-78.19"/>
<polygon fill="#63b8ff" stroke="#63b8ff" points="987.3,-74.87 976.73,-74.14 984.54,-81.3 987.3,-74.87"/>
</a>
</g>
</g>
<!-- Node30&#45;&gt;Node18 -->
<g id="edge54_Node000030_Node000018" class="edge">
<title>Node30&#45;&gt;Node18</title>
<g id="a_edge54_Node000030_Node000018"><a xlink:title=" ">
<path fill="none" stroke="#63b8ff" d="M1108.15,-165.74C1056.31,-155.29 965,-136.89 916.34,-127.08"/>
<polygon fill="#63b8ff" stroke="#63b8ff" points="916.85,-123.62 906.36,-125.07 915.47,-130.48 916.85,-123.62"/>
</a>
</g>
</g>
<!-- Node30&#45;&gt;Node19 -->
<g id="edge55_Node000030_Node000019" class="edge">
<title>Node30&#45;&gt;Node19</title>
<g id="a_edge55_Node000030_Node000019"><a xlink:title=" ">
<path fill="none" stroke="#63b8ff" d="M1123.54,-164.98C1099.85,-156.27 1062.8,-142.63 1035.96,-132.75"/>
<polygon fill="#63b8ff" stroke="#63b8ff" points="1036.82,-129.34 1026.23,-129.17 1034.4,-135.91 1036.82,-129.34"/>
</a>
</g>
</g>
<!-- Node30&#45;&gt;Node24 -->
<g id="edge61_Node000030_Node000024" class="edge">
<title>Node30&#45;&gt;Node24</title>
<g id="a_edge61_Node000030_Node000024"><a xlink:title=" ">
<path fill="none" stroke="#63b8ff" d="M1108,-166.11C1105.19,-165.7 1102.39,-165.32 1099.67,-165 953.12,-147.84 570.01,-192.17 436.67,-129 415.66,-119.05 398.76,-97.71 388.73,-82.52"/>
<polygon fill="#63b8ff" stroke="#63b8ff" points="391.68,-80.63 383.4,-74.02 385.75,-84.35 391.68,-80.63"/>
</a>
</g>
</g>
<!-- Node31 -->
<g id="Node000031" class="node">
<title>Node31</title>
<g id="a_Node000031"><a xlink:href="../../d9/d86/limits_8h.html" target="_top" xlink:title=" ">
<polygon fill="white" stroke="#666666" points="1252.67,-129 1174.67,-129 1174.67,-110 1252.67,-110 1252.67,-129"/>
<text text-anchor="middle" x="1213.67" y="-117" font-family="Helvetica,sans-Serif" font-size="10.00">type/limits.h</text>
</a>
</g>
</g>
<!-- Node30&#45;&gt;Node31 -->
<g id="edge56_Node000030_Node000031" class="edge">
<title>Node30&#45;&gt;Node31</title>
<g id="a_edge56_Node000030_Node000031"><a xlink:title=" ">
<path fill="none" stroke="#63b8ff" d="M1157.44,-164.98C1167.44,-157.07 1182.56,-145.11 1194.6,-135.58"/>
<polygon fill="#63b8ff" stroke="#63b8ff" points="1197.04,-138.12 1202.71,-129.17 1192.7,-132.63 1197.04,-138.12"/>
</a>
</g>
</g>
<!-- Node31&#45;&gt;Node3 -->
<g id="edge58_Node000031_Node000003" class="edge">
<title>Node31&#45;&gt;Node3</title>
<g id="a_edge58_Node000031_Node000003"><a xlink:title=" ">
<path fill="none" stroke="#63b8ff" d="M1231.34,-109.98C1248.96,-101.5 1276.25,-88.35 1296.6,-78.54"/>
<polygon fill="#63b8ff" stroke="#63b8ff" points="1298.19,-81.66 1305.68,-74.17 1295.15,-75.36 1298.19,-81.66"/>
</a>
</g>
</g>
<!-- Node31&#45;&gt;Node9 -->
<g id="edge59_Node000031_Node000009" class="edge">
<title>Node31&#45;&gt;Node9</title>
<g id="a_edge59_Node000031_Node000009"><a xlink:title=" ">
<path fill="none" stroke="#63b8ff" d="M1189.96,-109.92C1150.04,-95.88 1066.62,-68.22 993.67,-55 792.83,-18.59 547.01,-11.96 456.91,-10.76"/>
<polygon fill="#63b8ff" stroke="#63b8ff" points="456.75,-7.26 446.71,-10.64 456.67,-14.26 456.75,-7.26"/>
</a>
</g>
</g>
<!-- Node32 -->
<g id="Node000032" class="node">
<title>Node32</title>
<g id="a_Node000032"><a xlink:title=" ">
<polygon fill="#e0e0e0" stroke="#999999" points="1280.67,-74 1236.67,-74 1236.67,-55 1280.67,-55 1280.67,-74"/>
<text text-anchor="middle" x="1258.67" y="-62" font-family="Helvetica,sans-Serif" font-size="10.00">cfloat</text>
</a>
</g>
</g>
<!-- Node31&#45;&gt;Node32 -->
<g id="edge57_Node000031_Node000032" class="edge">
<title>Node31&#45;&gt;Node32</title>
<g id="a_edge57_Node000031_Node000032"><a xlink:title=" ">
<path fill="none" stroke="#63b8ff" d="M1221.1,-109.75C1227.52,-102.18 1236.98,-91.05 1244.79,-81.84"/>
<polygon fill="#63b8ff" stroke="#63b8ff" points="1247.57,-83.98 1251.38,-74.09 1242.24,-79.45 1247.57,-83.98"/>
</a>
</g>
</g>
<!-- Node33 -->
<g id="Node000033" class="node">
<title>Node33</title>
<g id="a_Node000033"><a xlink:title=" ">
<polygon fill="#e0e0e0" stroke="#999999" points="1218.67,-74 1174.67,-74 1174.67,-55 1218.67,-55 1218.67,-74"/>
<text text-anchor="middle" x="1196.67" y="-62" font-family="Helvetica,sans-Serif" font-size="10.00">limits</text>
</a>
</g>
</g>
<!-- Node31&#45;&gt;Node33 -->
<g id="edge60_Node000031_Node000033" class="edge">
<title>Node31&#45;&gt;Node33</title>
<g id="a_edge60_Node000031_Node000033"><a xlink:title=" ">
<path fill="none" stroke="#63b8ff" d="M1210.86,-109.75C1208.61,-102.72 1205.37,-92.62 1202.56,-83.84"/>
<polygon fill="#63b8ff" stroke="#63b8ff" points="1205.81,-82.54 1199.43,-74.09 1199.15,-84.68 1205.81,-82.54"/>
</a>
</g>
</g>
</g>
</svg>
