<?xml version="1.0" encoding="UTF-8" standalone="no"?>
<!DOCTYPE svg PUBLIC "-//W3C//DTD SVG 1.1//EN"
 "http://www.w3.org/Graphics/SVG/1.1/DTD/svg11.dtd">
<!-- Generated by graphviz version 2.43.0 (0)
 -->
<!-- Title: src/include/execution/expressions/column_value_expression.h Pages: 1 -->
<!--zoomable 445 -->

<svg id="main" version="1.1" xmlns="http://www.w3.org/2000/svg" xmlns:xlink="http://www.w3.org/1999/xlink" xml:space="preserve" onload="init(evt)">
<style type="text/css"><![CDATA[
.node, .edge {opacity: 0.7;}
.node.selected, .edge.selected {opacity: 1;}
.edge:hover path { stroke: red; }
.edge:hover polygon { stroke: red; fill: red; }
]]></style>

<defs>
  <circle id="rim" cx="0" cy="0" r="7"/>
  <circle id="rim2" cx="0" cy="0" r="3.5"/>
  <g id="zoomPlus">
    <use xlink:href="#rim" fill="#404040"><set attributeName="fill" to="#808080" begin="zoomplus.mouseover" end="zoomplus.mouseout"/></use>
    <path d="M-4,0h8M0,-4v8" fill="none" stroke="white" stroke-width="1.5" pointer-events="none"/>
  </g>
  <g id="zoomMin">
    <use xlink:href="#rim" fill="#404040"><set attributeName="fill" to="#808080" begin="zoomminus.mouseover" end="zoomminus.mouseout"/></use>
    <path d="M-4,0h8" fill="none" stroke="white" stroke-width="1.5" pointer-events="none"/>
  </g>
  <g id="arrowUp" transform="translate(30 24)">
    <use xlink:href="#rim"/>
    <path pointer-events="none" fill="none" stroke="white" stroke-width="1.5" d="M0,-3.0v7 M-2.5,-0.5L0,-3.0L2.5,-0.5"/>
  </g>
  <g id="arrowRight" transform="rotate(90) translate(36 -43)">
    <use xlink:href="#rim"/>
    <path pointer-events="none" fill="none" stroke="white" stroke-width="1.5" d="M0,-3.0v7 M-2.5,-0.5L0,-3.0L2.5,-0.5"/>
  </g>
  <g id="arrowDown" transform="rotate(180) translate(-30 -48)">
    <use xlink:href="#rim"/>
    <path pointer-events="none" fill="none" stroke="white" stroke-width="1.5" d="M0,-3.0v7 M-2.5,-0.5L0,-3.0L2.5,-0.5"/>
  </g>
  <g id="arrowLeft" transform="rotate(270) translate(-36 17)">
    <use xlink:href="#rim"/>
    <path pointer-events="none" fill="none" stroke="white" stroke-width="1.5" d="M0,-3.0v7 M-2.5,-0.5L0,-3.0L2.5,-0.5"/>
  </g>
  <g id="resetDef">
    <use xlink:href="#rim2" fill="#404040"><set attributeName="fill" to="#808080" begin="reset.mouseover" end="reset.mouseout"/></use>
  </g>
</defs>
<script type="application/ecmascript">
var viewWidth = 1458;
var viewHeight = 445;
var sectionId = 'dynsection-0';
</script>
<script type="application/ecmascript" xlink:href="../../svg.min.js"/>
<svg id="graph" class="graph">
<g id="viewport">
<title>src/include/execution/expressions/column_value_expression.h</title>
<!-- Node1 -->
<g id="Node000001" class="node">
<title>Node1</title>
<g id="a_Node000001"><a xlink:title=" ">
<polygon fill="#999999" stroke="#666666" points="390.5,-437 241.5,-437 241.5,-396 390.5,-396 390.5,-437"/>
<text text-anchor="start" x="249.5" y="-425" font-family="Helvetica,sans-Serif" font-size="10.00">src/include/execution</text>
<text text-anchor="start" x="249.5" y="-414" font-family="Helvetica,sans-Serif" font-size="10.00">/expressions/column_value</text>
<text text-anchor="middle" x="316" y="-403" font-family="Helvetica,sans-Serif" font-size="10.00">_expression.h</text>
</a>
</g>
</g>
<!-- Node2 -->
<g id="Node000002" class="node">
<title>Node2</title>
<g id="a_Node000002"><a xlink:title=" ">
<polygon fill="#e0e0e0" stroke="#999999" points="124,-74 66,-74 66,-55 124,-55 124,-74"/>
<text text-anchor="middle" x="95" y="-62" font-family="Helvetica,sans-Serif" font-size="10.00">memory</text>
</a>
</g>
</g>
<!-- Node1&#45;&gt;Node2 -->
<g id="edge1_Node000001_Node000002" class="edge">
<title>Node1&#45;&gt;Node2</title>
<g id="a_edge1_Node000001_Node000002"><a xlink:title=" ">
<path fill="none" stroke="#63b8ff" d="M241.47,-407.24C169.71,-394.66 72,-363.26 72,-285.5 72,-285.5 72,-285.5 72,-228.5 72,-175.79 83.94,-114.42 90.61,-84.23"/>
<polygon fill="#63b8ff" stroke="#63b8ff" points="94.07,-84.8 92.88,-74.27 87.25,-83.25 94.07,-84.8"/>
</a>
</g>
</g>
<!-- Node3 -->
<g id="Node000003" class="node">
<title>Node3</title>
<g id="a_Node000003"><a xlink:title=" ">
<polygon fill="#e0e0e0" stroke="#999999" points="682,-19 638,-19 638,0 682,0 682,-19"/>
<text text-anchor="middle" x="660" y="-7" font-family="Helvetica,sans-Serif" font-size="10.00">string</text>
</a>
</g>
</g>
<!-- Node1&#45;&gt;Node3 -->
<g id="edge2_Node000001_Node000003" class="edge">
<title>Node1&#45;&gt;Node3</title>
<g id="a_edge2_Node000001_Node000003"><a xlink:title=" ">
<path fill="none" stroke="#63b8ff" d="M241.47,-407.56C193.74,-400.18 131.68,-386.19 82,-360 38.44,-337.04 0,-334.74 0,-285.5 0,-285.5 0,-285.5 0,-118.5 0,-84.91 12.09,-72.12 41,-55 91.73,-24.96 508.27,-13.76 627.95,-11.14"/>
<polygon fill="#63b8ff" stroke="#63b8ff" points="628.04,-14.64 637.96,-10.93 627.89,-7.64 628.04,-14.64"/>
</a>
</g>
</g>
<!-- Node4 -->
<g id="Node000004" class="node">
<title>Node4</title>
<g id="a_Node000004"><a xlink:title=" ">
<polygon fill="#e0e0e0" stroke="#999999" points="1361.5,-184 1314.5,-184 1314.5,-165 1361.5,-165 1361.5,-184"/>
<text text-anchor="middle" x="1338" y="-172" font-family="Helvetica,sans-Serif" font-size="10.00">vector</text>
</a>
</g>
</g>
<!-- Node1&#45;&gt;Node4 -->
<g id="edge3_Node000001_Node000004" class="edge">
<title>Node1&#45;&gt;Node4</title>
<g id="a_edge3_Node000001_Node000004"><a xlink:title=" ">
<path fill="none" stroke="#63b8ff" d="M390.71,-411.69C542.53,-402.52 896.94,-373.7 1183,-294 1247.8,-275.95 1280.26,-290.1 1324,-239 1334.44,-226.81 1337.6,-208.57 1338.35,-194.76"/>
<polygon fill="#63b8ff" stroke="#63b8ff" points="1341.85,-194.49 1338.52,-184.44 1334.85,-194.38 1341.85,-194.49"/>
</a>
</g>
</g>
<!-- Node5 -->
<g id="Node000005" class="node">
<title>Node5</title>
<g id="a_Node000005"><a xlink:href="../../d7/de3/schema_8h.html" target="_top" xlink:title=" ">
<polygon fill="white" stroke="#666666" points="613.5,-239 510.5,-239 510.5,-220 613.5,-220 613.5,-239"/>
<text text-anchor="middle" x="562" y="-227" font-family="Helvetica,sans-Serif" font-size="10.00">catalog/schema.h</text>
</a>
</g>
</g>
<!-- Node1&#45;&gt;Node5 -->
<g id="edge4_Node000001_Node000005" class="edge">
<title>Node1&#45;&gt;Node5</title>
<g id="a_edge4_Node000001_Node000005"><a xlink:title=" ">
<path fill="none" stroke="#63b8ff" d="M342.33,-395.7C391.96,-358.38 498.32,-278.39 542.32,-245.3"/>
<polygon fill="#63b8ff" stroke="#63b8ff" points="544.6,-247.97 550.49,-239.16 540.39,-242.37 544.6,-247.97"/>
</a>
</g>
</g>
<!-- Node22 -->
<g id="Node000022" class="node">
<title>Node22</title>
<g id="a_Node000022"><a xlink:href="../../df/d86/abstract__expression_8h.html" target="_top" xlink:title=" ">
<polygon fill="white" stroke="#666666" points="709.5,-360 582.5,-360 582.5,-330 709.5,-330 709.5,-360"/>
<text text-anchor="start" x="590.5" y="-348" font-family="Helvetica,sans-Serif" font-size="10.00">execution/expressions</text>
<text text-anchor="middle" x="646" y="-337" font-family="Helvetica,sans-Serif" font-size="10.00">/abstract_expression.h</text>
</a>
</g>
</g>
<!-- Node1&#45;&gt;Node22 -->
<g id="edge34_Node000001_Node000022" class="edge">
<title>Node1&#45;&gt;Node22</title>
<g id="a_edge34_Node000001_Node000022"><a xlink:title=" ">
<path fill="none" stroke="#63b8ff" d="M390.88,-399.73C445.22,-388.29 518.35,-372.88 572.39,-361.5"/>
<polygon fill="#63b8ff" stroke="#63b8ff" points="573.18,-364.91 582.25,-359.43 571.74,-358.06 573.18,-364.91"/>
</a>
</g>
</g>
<!-- Node23 -->
<g id="Node000023" class="node">
<title>Node23</title>
<g id="a_Node000023"><a xlink:href="../../d2/d20/tuple_8h.html" target="_top" xlink:title=" ">
<polygon fill="white" stroke="#666666" points="1094,-294 976,-294 976,-275 1094,-275 1094,-294"/>
<text text-anchor="middle" x="1035" y="-282" font-family="Helvetica,sans-Serif" font-size="10.00">storage/table/tuple.h</text>
</a>
</g>
</g>
<!-- Node1&#45;&gt;Node23 -->
<g id="edge66_Node000001_Node000023" class="edge">
<title>Node1&#45;&gt;Node23</title>
<g id="a_edge66_Node000001_Node000023"><a xlink:title=" ">
<path fill="none" stroke="#63b8ff" d="M390.62,-407.37C471.77,-398.02 605.13,-381.21 719,-360 818.26,-341.51 933.34,-312.42 993.49,-296.61"/>
<polygon fill="#63b8ff" stroke="#63b8ff" points="994.59,-299.94 1003.37,-294.01 992.8,-293.18 994.59,-299.94"/>
</a>
</g>
</g>
<!-- Node5&#45;&gt;Node2 -->
<g id="edge5_Node000005_Node000002" class="edge">
<title>Node5&#45;&gt;Node2</title>
<g id="a_edge5_Node000005_Node000002"><a xlink:title=" ">
<path fill="none" stroke="#63b8ff" d="M510.5,-220.32C438.4,-207.56 304.49,-179.04 200,-129 169.54,-114.41 136.54,-93.54 115.82,-79.76"/>
<polygon fill="#63b8ff" stroke="#63b8ff" points="117.73,-76.83 107.48,-74.15 113.83,-82.64 117.73,-76.83"/>
</a>
</g>
</g>
<!-- Node5&#45;&gt;Node3 -->
<g id="edge7_Node000005_Node000003" class="edge">
<title>Node5&#45;&gt;Node3</title>
<g id="a_edge7_Node000005_Node000003"><a xlink:title=" ">
<path fill="none" stroke="#63b8ff" d="M571.33,-219.89C593.05,-199.96 648.86,-149.34 698,-110 719.09,-93.11 734.8,-98.11 747,-74 750.81,-66.47 751.41,-62.2 747,-55 740.64,-44.6 714,-31.85 691.85,-22.67"/>
<polygon fill="#63b8ff" stroke="#63b8ff" points="692.98,-19.35 682.4,-18.85 690.35,-25.84 692.98,-19.35"/>
</a>
</g>
</g>
<!-- Node5&#45;&gt;Node4 -->
<g id="edge8_Node000005_Node000004" class="edge">
<title>Node5&#45;&gt;Node4</title>
<g id="a_edge8_Node000005_Node000004"><a xlink:title=" ">
<path fill="none" stroke="#63b8ff" d="M613.82,-226.23C730.57,-220.89 1023.04,-206.28 1267,-184 1279.12,-182.89 1292.36,-181.39 1304.09,-179.95"/>
<polygon fill="#63b8ff" stroke="#63b8ff" points="1304.88,-183.38 1314.37,-178.67 1304.01,-176.44 1304.88,-183.38"/>
</a>
</g>
</g>
<!-- Node6 -->
<g id="Node000006" class="node">
<title>Node6</title>
<g id="a_Node000006"><a xlink:title=" ">
<polygon fill="#e0e0e0" stroke="#999999" points="416,-184 360,-184 360,-165 416,-165 416,-184"/>
<text text-anchor="middle" x="388" y="-172" font-family="Helvetica,sans-Serif" font-size="10.00">optional</text>
</a>
</g>
</g>
<!-- Node5&#45;&gt;Node6 -->
<g id="edge6_Node000005_Node000006" class="edge">
<title>Node5&#45;&gt;Node6</title>
<g id="a_edge6_Node000005_Node000006"><a xlink:title=" ">
<path fill="none" stroke="#63b8ff" d="M534.04,-219.98C504.7,-211.05 458.4,-196.94 425.81,-187.02"/>
<polygon fill="#63b8ff" stroke="#63b8ff" points="426.76,-183.65 416.18,-184.08 424.72,-190.34 426.76,-183.65"/>
</a>
</g>
</g>
<!-- Node7 -->
<g id="Node000007" class="node">
<title>Node7</title>
<g id="a_Node000007"><a xlink:href="../../dc/df8/column_8h.html" target="_top" xlink:title=" ">
<polygon fill="white" stroke="#666666" points="573.5,-184 472.5,-184 472.5,-165 573.5,-165 573.5,-184"/>
<text text-anchor="middle" x="523" y="-172" font-family="Helvetica,sans-Serif" font-size="10.00">catalog/column.h</text>
</a>
</g>
</g>
<!-- Node5&#45;&gt;Node7 -->
<g id="edge9_Node000005_Node000007" class="edge">
<title>Node5&#45;&gt;Node7</title>
<g id="a_edge9_Node000005_Node000007"><a xlink:title=" ">
<path fill="none" stroke="#63b8ff" d="M555.56,-219.75C550.11,-212.34 542.14,-201.5 535.44,-192.41"/>
<polygon fill="#63b8ff" stroke="#63b8ff" points="538.07,-190.07 529.32,-184.09 532.43,-194.22 538.07,-190.07"/>
</a>
</g>
</g>
<!-- Node11 -->
<g id="Node000011" class="node">
<title>Node11</title>
<g id="a_Node000011"><a xlink:href="../../dd/d2d/exception_8h.html" target="_top" xlink:title=" ">
<polygon fill="white" stroke="#666666" points="371.5,-129 252.5,-129 252.5,-110 371.5,-110 371.5,-129"/>
<text text-anchor="middle" x="312" y="-117" font-family="Helvetica,sans-Serif" font-size="10.00">common/exception.h</text>
</a>
</g>
</g>
<!-- Node5&#45;&gt;Node11 -->
<g id="edge32_Node000005_Node000011" class="edge">
<title>Node5&#45;&gt;Node11</title>
<g id="a_edge32_Node000005_Node000011"><a xlink:title=" ">
<path fill="none" stroke="#63b8ff" d="M542.78,-219.96C522.96,-211.11 491.22,-196.81 464,-184 446.55,-175.79 442.65,-172.76 425,-165 398.27,-153.25 367.38,-141.18 344.67,-132.59"/>
<polygon fill="#63b8ff" stroke="#63b8ff" points="345.75,-129.26 335.16,-129.01 343.29,-135.81 345.75,-129.26"/>
</a>
</g>
</g>
<!-- Node17 -->
<g id="Node000017" class="node">
<title>Node17</title>
<g id="a_Node000017"><a xlink:href="../../df/def/type_8h.html" target="_top" xlink:title=" ">
<polygon fill="white" stroke="#666666" points="738,-74 666,-74 666,-55 738,-55 738,-74"/>
<text text-anchor="middle" x="702" y="-62" font-family="Helvetica,sans-Serif" font-size="10.00">type/type.h</text>
</a>
</g>
</g>
<!-- Node5&#45;&gt;Node17 -->
<g id="edge33_Node000005_Node000017" class="edge">
<title>Node5&#45;&gt;Node17</title>
<g id="a_edge33_Node000005_Node000017"><a xlink:title=" ">
<path fill="none" stroke="#63b8ff" d="M566.26,-219.99C579.15,-194.33 617.39,-118.91 626,-110 638.81,-96.74 656.42,-86.1 671.46,-78.55"/>
<polygon fill="#63b8ff" stroke="#63b8ff" points="673.38,-81.51 680.89,-74.04 670.36,-75.19 673.38,-81.51"/>
</a>
</g>
</g>
<!-- Node7&#45;&gt;Node2 -->
<g id="edge11_Node000007_Node000002" class="edge">
<title>Node7&#45;&gt;Node2</title>
<g id="a_edge11_Node000007_Node000002"><a xlink:title=" ">
<path fill="none" stroke="#63b8ff" d="M472.28,-169.24C415.72,-163.62 321.95,-151.66 244,-129 223.55,-123.05 219.58,-118.38 200,-110 174.7,-99.18 145.92,-86.99 124.9,-78.11"/>
<polygon fill="#63b8ff" stroke="#63b8ff" points="126.11,-74.82 115.54,-74.16 123.39,-81.27 126.11,-74.82"/>
</a>
</g>
</g>
<!-- Node7&#45;&gt;Node3 -->
<g id="edge12_Node000007_Node000003" class="edge">
<title>Node7&#45;&gt;Node3</title>
<g id="a_edge12_Node000007_Node000003"><a xlink:title=" ">
<path fill="none" stroke="#63b8ff" d="M475.15,-164.99C454.53,-158.7 432.36,-147.8 420,-129 401.94,-101.52 398.97,-80.29 420,-55 446.02,-23.71 568.07,-14.32 627.42,-11.59"/>
<polygon fill="#63b8ff" stroke="#63b8ff" points="627.89,-15.07 637.74,-11.15 627.6,-8.08 627.89,-15.07"/>
</a>
</g>
</g>
<!-- Node8 -->
<g id="Node000008" class="node">
<title>Node8</title>
<g id="a_Node000008"><a xlink:title=" ">
<polygon fill="#e0e0e0" stroke="#999999" points="1269,-19 1219,-19 1219,0 1269,0 1269,-19"/>
<text text-anchor="middle" x="1244" y="-7" font-family="Helvetica,sans-Serif" font-size="10.00">cstdint</text>
</a>
</g>
</g>
<!-- Node7&#45;&gt;Node8 -->
<g id="edge10_Node000007_Node000008" class="edge">
<title>Node7&#45;&gt;Node8</title>
<g id="a_edge10_Node000007_Node000008"><a xlink:title=" ">
<path fill="none" stroke="#63b8ff" d="M544.29,-164.89C576.98,-151.88 641.67,-126.93 698,-110 798.24,-79.88 824.16,-74.52 927,-55 1028.52,-35.73 1149.79,-20.98 1208.57,-14.35"/>
<polygon fill="#63b8ff" stroke="#63b8ff" points="1209.25,-17.79 1218.8,-13.2 1208.47,-10.83 1209.25,-17.79"/>
</a>
</g>
</g>
<!-- Node9 -->
<g id="Node000009" class="node">
<title>Node9</title>
<g id="a_Node000009"><a xlink:title=" ">
<polygon fill="#e0e0e0" stroke="#999999" points="751.5,-129 706.5,-129 706.5,-110 751.5,-110 751.5,-129"/>
<text text-anchor="middle" x="729" y="-117" font-family="Helvetica,sans-Serif" font-size="10.00">utility</text>
</a>
</g>
</g>
<!-- Node7&#45;&gt;Node9 -->
<g id="edge13_Node000007_Node000009" class="edge">
<title>Node7&#45;&gt;Node9</title>
<g id="a_edge13_Node000007_Node000009"><a xlink:title=" ">
<path fill="none" stroke="#63b8ff" d="M556.1,-164.98C594.67,-155.06 657.99,-138.77 696.36,-128.9"/>
<polygon fill="#63b8ff" stroke="#63b8ff" points="697.67,-132.17 706.48,-126.29 695.93,-125.4 697.67,-132.17"/>
</a>
</g>
</g>
<!-- Node10 -->
<g id="Node000010" class="node">
<title>Node10</title>
<g id="a_Node000010"><a xlink:title=" ">
<polygon fill="#e0e0e0" stroke="#999999" points="848.5,-129 769.5,-129 769.5,-110 848.5,-110 848.5,-129"/>
<text text-anchor="middle" x="809" y="-117" font-family="Helvetica,sans-Serif" font-size="10.00">fmt/format.h</text>
</a>
</g>
</g>
<!-- Node7&#45;&gt;Node10 -->
<g id="edge14_Node000007_Node000010" class="edge">
<title>Node7&#45;&gt;Node10</title>
<g id="a_edge14_Node000007_Node000010"><a xlink:title=" ">
<path fill="none" stroke="#63b8ff" d="M568.95,-164.98C621.02,-155.34 705.59,-139.66 759.2,-129.73"/>
<polygon fill="#63b8ff" stroke="#63b8ff" points="759.97,-133.15 769.16,-127.88 758.69,-126.26 759.97,-133.15"/>
</a>
</g>
</g>
<!-- Node7&#45;&gt;Node11 -->
<g id="edge15_Node000007_Node000011" class="edge">
<title>Node7&#45;&gt;Node11</title>
<g id="a_edge15_Node000007_Node000011"><a xlink:title=" ">
<path fill="none" stroke="#63b8ff" d="M489.1,-164.98C452.98,-155.91 395.68,-141.52 356.08,-131.57"/>
<polygon fill="#63b8ff" stroke="#63b8ff" points="356.72,-128.12 346.17,-129.08 355.01,-134.91 356.72,-128.12"/>
</a>
</g>
</g>
<!-- Node7&#45;&gt;Node17 -->
<g id="edge31_Node000007_Node000017" class="edge">
<title>Node7&#45;&gt;Node17</title>
<g id="a_edge31_Node000007_Node000017"><a xlink:title=" ">
<path fill="none" stroke="#63b8ff" d="M529.74,-164.99C540.7,-151.66 563.61,-125.74 588,-110 610.39,-95.55 638.21,-84.58 660.76,-77.14"/>
<polygon fill="#63b8ff" stroke="#63b8ff" points="661.93,-80.45 670.39,-74.08 659.8,-73.78 661.93,-80.45"/>
</a>
</g>
</g>
<!-- Node19 -->
<g id="Node000019" class="node">
<title>Node19</title>
<g id="a_Node000019"><a xlink:href="../../de/d3c/macros_8h.html" target="_top" xlink:title=" ">
<polygon fill="white" stroke="#666666" points="535.5,-129 428.5,-129 428.5,-110 535.5,-110 535.5,-129"/>
<text text-anchor="middle" x="482" y="-117" font-family="Helvetica,sans-Serif" font-size="10.00">common/macros.h</text>
</a>
</g>
</g>
<!-- Node7&#45;&gt;Node19 -->
<g id="edge27_Node000007_Node000019" class="edge">
<title>Node7&#45;&gt;Node19</title>
<g id="a_edge27_Node000007_Node000019"><a xlink:title=" ">
<path fill="none" stroke="#63b8ff" d="M516.23,-164.75C510.44,-157.26 501.94,-146.28 494.86,-137.13"/>
<polygon fill="#63b8ff" stroke="#63b8ff" points="497.53,-134.86 488.64,-129.09 491.99,-139.14 497.53,-134.86"/>
</a>
</g>
</g>
<!-- Node11&#45;&gt;Node2 -->
<g id="edge20_Node000011_Node000002" class="edge">
<title>Node11&#45;&gt;Node2</title>
<g id="a_edge20_Node000011_Node000002"><a xlink:title=" ">
<path fill="none" stroke="#63b8ff" d="M277.14,-109.98C238.04,-100.44 174.79,-84.99 134.05,-75.04"/>
<polygon fill="#63b8ff" stroke="#63b8ff" points="134.76,-71.61 124.21,-72.63 133.1,-78.41 134.76,-71.61"/>
</a>
</g>
</g>
<!-- Node11&#45;&gt;Node3 -->
<g id="edge22_Node000011_Node000003" class="edge">
<title>Node11&#45;&gt;Node3</title>
<g id="a_edge22_Node000011_Node000003"><a xlink:title=" ">
<path fill="none" stroke="#63b8ff" d="M319.17,-109.83C331.32,-95.78 357.45,-68.27 386,-55 467.16,-17.28 574.76,-10.87 627.73,-10.19"/>
<polygon fill="#63b8ff" stroke="#63b8ff" points="627.89,-13.69 637.87,-10.12 627.85,-6.69 627.89,-13.69"/>
</a>
</g>
</g>
<!-- Node12 -->
<g id="Node000012" class="node">
<title>Node12</title>
<g id="a_Node000012"><a xlink:title=" ">
<polygon fill="#e0e0e0" stroke="#999999" points="1216,-74 1166,-74 1166,-55 1216,-55 1216,-74"/>
<text text-anchor="middle" x="1191" y="-62" font-family="Helvetica,sans-Serif" font-size="10.00">atomic</text>
</a>
</g>
</g>
<!-- Node11&#45;&gt;Node12 -->
<g id="edge16_Node000011_Node000012" class="edge">
<title>Node11&#45;&gt;Node12</title>
<g id="a_edge16_Node000011_Node000012"><a xlink:title=" ">
<path fill="none" stroke="#63b8ff" d="M371.68,-113.51C387.39,-112.28 404.33,-111.02 420,-110 730.42,-89.79 809.03,-100.25 1119,-74 1130.91,-72.99 1143.88,-71.56 1155.5,-70.16"/>
<polygon fill="#63b8ff" stroke="#63b8ff" points="1156.22,-73.6 1165.72,-68.9 1155.36,-66.65 1156.22,-73.6"/>
</a>
</g>
</g>
<!-- Node13 -->
<g id="Node000013" class="node">
<title>Node13</title>
<g id="a_Node000013"><a xlink:title=" ">
<polygon fill="#e0e0e0" stroke="#999999" points="266,-74 220,-74 220,-55 266,-55 266,-74"/>
<text text-anchor="middle" x="243" y="-62" font-family="Helvetica,sans-Serif" font-size="10.00">cstdio</text>
</a>
</g>
</g>
<!-- Node11&#45;&gt;Node13 -->
<g id="edge17_Node000011_Node000013" class="edge">
<title>Node11&#45;&gt;Node13</title>
<g id="a_edge17_Node000011_Node000013"><a xlink:title=" ">
<path fill="none" stroke="#63b8ff" d="M300.91,-109.98C290.51,-102 274.74,-89.88 262.28,-80.31"/>
<polygon fill="#63b8ff" stroke="#63b8ff" points="264.35,-77.49 254.29,-74.17 260.09,-83.04 264.35,-77.49"/>
</a>
</g>
</g>
<!-- Node14 -->
<g id="Node000014" class="node">
<title>Node14</title>
<g id="a_Node000014"><a xlink:title=" ">
<polygon fill="#e0e0e0" stroke="#999999" points="333.5,-74 284.5,-74 284.5,-55 333.5,-55 333.5,-74"/>
<text text-anchor="middle" x="309" y="-62" font-family="Helvetica,sans-Serif" font-size="10.00">cstdlib</text>
</a>
</g>
</g>
<!-- Node11&#45;&gt;Node14 -->
<g id="edge18_Node000011_Node000014" class="edge">
<title>Node11&#45;&gt;Node14</title>
<g id="a_edge18_Node000011_Node000014"><a xlink:title=" ">
<path fill="none" stroke="#63b8ff" d="M311.5,-109.75C311.11,-102.8 310.55,-92.85 310.05,-84.13"/>
<polygon fill="#63b8ff" stroke="#63b8ff" points="313.55,-83.88 309.49,-74.09 306.56,-84.27 313.55,-83.88"/>
</a>
</g>
</g>
<!-- Node15 -->
<g id="Node000015" class="node">
<title>Node15</title>
<g id="a_Node000015"><a xlink:title=" ">
<polygon fill="#e0e0e0" stroke="#999999" points="202,-74 142,-74 142,-55 202,-55 202,-74"/>
<text text-anchor="middle" x="172" y="-62" font-family="Helvetica,sans-Serif" font-size="10.00">iostream</text>
</a>
</g>
</g>
<!-- Node11&#45;&gt;Node15 -->
<g id="edge19_Node000011_Node000015" class="edge">
<title>Node11&#45;&gt;Node15</title>
<g id="a_edge19_Node000011_Node000015"><a xlink:title=" ">
<path fill="none" stroke="#63b8ff" d="M289.51,-109.98C266.48,-101.27 230.46,-87.63 204.37,-77.75"/>
<polygon fill="#63b8ff" stroke="#63b8ff" points="205.49,-74.44 194.9,-74.17 203.02,-80.98 205.49,-74.44"/>
</a>
</g>
</g>
<!-- Node16 -->
<g id="Node000016" class="node">
<title>Node16</title>
<g id="a_Node000016"><a xlink:title=" ">
<polygon fill="#e0e0e0" stroke="#999999" points="493.5,-74 428.5,-74 428.5,-55 493.5,-55 493.5,-74"/>
<text text-anchor="middle" x="461" y="-62" font-family="Helvetica,sans-Serif" font-size="10.00">stdexcept</text>
</a>
</g>
</g>
<!-- Node11&#45;&gt;Node16 -->
<g id="edge21_Node000011_Node000016" class="edge">
<title>Node11&#45;&gt;Node16</title>
<g id="a_edge21_Node000011_Node000016"><a xlink:title=" ">
<path fill="none" stroke="#63b8ff" d="M335.94,-109.98C360.56,-101.23 399.12,-87.51 426.92,-77.62"/>
<polygon fill="#63b8ff" stroke="#63b8ff" points="428.38,-80.82 436.62,-74.17 426.03,-74.22 428.38,-80.82"/>
</a>
</g>
</g>
<!-- Node11&#45;&gt;Node17 -->
<g id="edge23_Node000011_Node000017" class="edge">
<title>Node11&#45;&gt;Node17</title>
<g id="a_edge23_Node000011_Node000017"><a xlink:title=" ">
<path fill="none" stroke="#63b8ff" d="M371.68,-111.88C438.42,-104.22 550,-90.72 655.49,-74.16"/>
<polygon fill="#63b8ff" stroke="#63b8ff" points="656.35,-77.57 665.68,-72.55 655.26,-70.65 656.35,-77.57"/>
</a>
</g>
</g>
<!-- Node17&#45;&gt;Node3 -->
<g id="edge25_Node000017_Node000003" class="edge">
<title>Node17&#45;&gt;Node3</title>
<g id="a_edge25_Node000017_Node000003"><a xlink:title=" ">
<path fill="none" stroke="#63b8ff" d="M695.06,-54.75C689.13,-47.26 680.43,-36.28 673.18,-27.13"/>
<polygon fill="#63b8ff" stroke="#63b8ff" points="675.76,-24.75 666.81,-19.09 670.27,-29.1 675.76,-24.75"/>
</a>
</g>
</g>
<!-- Node17&#45;&gt;Node8 -->
<g id="edge24_Node000017_Node000008" class="edge">
<title>Node17&#45;&gt;Node8</title>
<g id="a_edge24_Node000017_Node000008"><a xlink:title=" ">
<path fill="none" stroke="#63b8ff" d="M738.4,-59.94C837.46,-50.25 1110.98,-23.51 1208.71,-13.95"/>
<polygon fill="#63b8ff" stroke="#63b8ff" points="1209.33,-17.41 1218.94,-12.95 1208.65,-10.44 1209.33,-17.41"/>
</a>
</g>
</g>
<!-- Node18 -->
<g id="Node000018" class="node">
<title>Node18</title>
<g id="a_Node000018"><a xlink:href="../../dc/df2/type__id_8h.html" target="_top" xlink:title=" ">
<polygon fill="white" stroke="#666666" points="786,-19 700,-19 700,0 786,0 786,-19"/>
<text text-anchor="middle" x="743" y="-7" font-family="Helvetica,sans-Serif" font-size="10.00">type/type_id.h</text>
</a>
</g>
</g>
<!-- Node17&#45;&gt;Node18 -->
<g id="edge26_Node000017_Node000018" class="edge">
<title>Node17&#45;&gt;Node18</title>
<g id="a_edge26_Node000017_Node000018"><a xlink:title=" ">
<path fill="none" stroke="#63b8ff" d="M708.77,-54.75C714.56,-47.26 723.06,-36.28 730.14,-27.13"/>
<polygon fill="#63b8ff" stroke="#63b8ff" points="733.01,-29.14 736.36,-19.09 727.47,-24.86 733.01,-29.14"/>
</a>
</g>
</g>
<!-- Node19&#45;&gt;Node16 -->
<g id="edge30_Node000019_Node000016" class="edge">
<title>Node19&#45;&gt;Node16</title>
<g id="a_edge30_Node000019_Node000016"><a xlink:title=" ">
<path fill="none" stroke="#63b8ff" d="M478.53,-109.75C475.72,-102.65 471.66,-92.4 468.15,-83.56"/>
<polygon fill="#63b8ff" stroke="#63b8ff" points="471.34,-82.1 464.4,-74.09 464.83,-84.68 471.34,-82.1"/>
</a>
</g>
</g>
<!-- Node20 -->
<g id="Node000020" class="node">
<title>Node20</title>
<g id="a_Node000020"><a xlink:title=" ">
<polygon fill="#e0e0e0" stroke="#999999" points="564,-74 512,-74 512,-55 564,-55 564,-74"/>
<text text-anchor="middle" x="538" y="-62" font-family="Helvetica,sans-Serif" font-size="10.00">cassert</text>
</a>
</g>
</g>
<!-- Node19&#45;&gt;Node20 -->
<g id="edge28_Node000019_Node000020" class="edge">
<title>Node19&#45;&gt;Node20</title>
<g id="a_edge28_Node000019_Node000020"><a xlink:title=" ">
<path fill="none" stroke="#63b8ff" d="M491,-109.98C499.19,-102.23 511.51,-90.58 521.47,-81.14"/>
<polygon fill="#63b8ff" stroke="#63b8ff" points="523.98,-83.59 528.84,-74.17 519.17,-78.5 523.98,-83.59"/>
</a>
</g>
</g>
<!-- Node21 -->
<g id="Node000021" class="node">
<title>Node21</title>
<g id="a_Node000021"><a xlink:title=" ">
<polygon fill="#e0e0e0" stroke="#999999" points="647.5,-74 582.5,-74 582.5,-55 647.5,-55 647.5,-74"/>
<text text-anchor="middle" x="615" y="-62" font-family="Helvetica,sans-Serif" font-size="10.00">exception</text>
</a>
</g>
</g>
<!-- Node19&#45;&gt;Node21 -->
<g id="edge29_Node000019_Node000021" class="edge">
<title>Node19&#45;&gt;Node21</title>
<g id="a_edge29_Node000019_Node000021"><a xlink:title=" ">
<path fill="none" stroke="#63b8ff" d="M503.37,-109.98C525.15,-101.3 559.16,-87.75 583.92,-77.88"/>
<polygon fill="#63b8ff" stroke="#63b8ff" points="585.25,-81.12 593.24,-74.17 582.66,-74.62 585.25,-81.12"/>
</a>
</g>
</g>
<!-- Node22&#45;&gt;Node2 -->
<g id="edge35_Node000022_Node000002" class="edge">
<title>Node22&#45;&gt;Node2</title>
<g id="a_edge35_Node000022_Node000002"><a xlink:title=" ">
<path fill="none" stroke="#63b8ff" d="M601.38,-329.92C512.86,-300.79 310.77,-228.24 162,-129 141.91,-115.6 122.25,-95.96 109.48,-82.08"/>
<polygon fill="#63b8ff" stroke="#63b8ff" points="111.76,-79.39 102.48,-74.29 106.56,-84.07 111.76,-79.39"/>
</a>
</g>
</g>
<!-- Node22&#45;&gt;Node3 -->
<g id="edge36_Node000022_Node000003" class="edge">
<title>Node22&#45;&gt;Node3</title>
<g id="a_edge36_Node000022_Node000003"><a xlink:title=" ">
<path fill="none" stroke="#63b8ff" d="M582.31,-336.63C399.02,-313.14 -106.47,-230.98 57,-55 96.01,-13 507.45,-10.28 627.37,-10.38"/>
<polygon fill="#63b8ff" stroke="#63b8ff" points="627.73,-13.88 637.73,-10.4 627.74,-6.88 627.73,-13.88"/>
</a>
</g>
</g>
<!-- Node22&#45;&gt;Node4 -->
<g id="edge38_Node000022_Node000004" class="edge">
<title>Node22&#45;&gt;Node4</title>
<g id="a_edge38_Node000022_Node000004"><a xlink:title=" ">
<path fill="none" stroke="#63b8ff" d="M709.69,-340.27C798.43,-334.35 964.06,-320.62 1103,-294 1193.12,-276.73 1229.64,-295.43 1302,-239 1316.65,-227.57 1326.33,-208.4 1331.92,-194.11"/>
<polygon fill="#63b8ff" stroke="#63b8ff" points="1335.35,-194.94 1335.42,-184.34 1328.76,-192.58 1335.35,-194.94"/>
</a>
</g>
</g>
<!-- Node22&#45;&gt;Node5 -->
<g id="edge39_Node000022_Node000005" class="edge">
<title>Node22&#45;&gt;Node5</title>
<g id="a_edge39_Node000022_Node000005"><a xlink:title=" ">
<path fill="none" stroke="#63b8ff" d="M635.36,-329.63C619.84,-308.65 591.05,-269.75 574.52,-247.42"/>
<polygon fill="#63b8ff" stroke="#63b8ff" points="577.22,-245.19 568.46,-239.23 571.6,-249.35 577.22,-245.19"/>
</a>
</g>
</g>
<!-- Node22&#45;&gt;Node9 -->
<g id="edge37_Node000022_Node000009" class="edge">
<title>Node22&#45;&gt;Node9</title>
<g id="a_edge37_Node000022_Node000009"><a xlink:title=" ">
<path fill="none" stroke="#63b8ff" d="M651.32,-329.68C665.83,-290.6 706.1,-182.15 722.21,-138.78"/>
<polygon fill="#63b8ff" stroke="#63b8ff" points="725.56,-139.82 725.76,-129.23 718.99,-137.39 725.56,-139.82"/>
</a>
</g>
</g>
<!-- Node22&#45;&gt;Node10 -->
<g id="edge40_Node000022_Node000010" class="edge">
<title>Node22&#45;&gt;Node10</title>
<g id="a_edge40_Node000022_Node000010"><a xlink:title=" ">
<path fill="none" stroke="#63b8ff" d="M656.44,-329.68C685.25,-290.19 765.72,-179.85 796.66,-137.42"/>
<polygon fill="#63b8ff" stroke="#63b8ff" points="799.57,-139.37 802.63,-129.23 793.91,-135.25 799.57,-139.37"/>
</a>
</g>
</g>
<!-- Node22&#45;&gt;Node23 -->
<g id="edge41_Node000022_Node000023" class="edge">
<title>Node22&#45;&gt;Node23</title>
<g id="a_edge41_Node000022_Node000023"><a xlink:title=" ">
<path fill="none" stroke="#63b8ff" d="M709.8,-334.41C781.13,-323.68 896.11,-306.39 968.52,-295.5"/>
<polygon fill="#63b8ff" stroke="#63b8ff" points="969.07,-298.95 978.44,-294.01 968.03,-292.03 969.07,-298.95"/>
</a>
</g>
</g>
<!-- Node23&#45;&gt;Node3 -->
<g id="edge42_Node000023_Node000003" class="edge">
<title>Node23&#45;&gt;Node3</title>
<g id="a_edge42_Node000023_Node000003"><a xlink:title=" ">
<path fill="none" stroke="#63b8ff" d="M1043.81,-274.67C1077.34,-240.15 1191.45,-113.28 1119,-55 1046.96,2.96 801.02,-33.26 692.32,-18.7"/>
<polygon fill="#63b8ff" stroke="#63b8ff" points="692.66,-15.21 682.24,-17.12 691.58,-22.12 692.66,-15.21"/>
</a>
</g>
</g>
<!-- Node23&#45;&gt;Node4 -->
<g id="edge43_Node000023_Node000004" class="edge">
<title>Node23&#45;&gt;Node4</title>
<g id="a_edge43_Node000023_Node000004"><a xlink:title=" ">
<path fill="none" stroke="#63b8ff" d="M1094,-282.49C1144.92,-279.38 1219.03,-269.38 1276,-239 1296.94,-227.83 1315.13,-207.11 1326.29,-192.38"/>
<polygon fill="#63b8ff" stroke="#63b8ff" points="1329.25,-194.27 1332.3,-184.12 1323.59,-190.15 1329.25,-194.27"/>
</a>
</g>
</g>
<!-- Node23&#45;&gt;Node5 -->
<g id="edge44_Node000023_Node000005" class="edge">
<title>Node23&#45;&gt;Node5</title>
<g id="a_edge44_Node000023_Node000005"><a xlink:title=" ">
<path fill="none" stroke="#63b8ff" d="M975.57,-276.84C885.5,-266.75 715.26,-247.67 623.8,-237.42"/>
<polygon fill="#63b8ff" stroke="#63b8ff" points="623.91,-233.92 613.59,-236.28 623.13,-240.87 623.91,-233.92"/>
</a>
</g>
</g>
<!-- Node24 -->
<g id="Node000024" class="node">
<title>Node24</title>
<g id="a_Node000024"><a xlink:href="../../db/d16/config_8h.html" target="_top" xlink:title=" ">
<polygon fill="white" stroke="#666666" points="1449.5,-129 1348.5,-129 1348.5,-110 1449.5,-110 1449.5,-129"/>
<text text-anchor="middle" x="1399" y="-117" font-family="Helvetica,sans-Serif" font-size="10.00">common/config.h</text>
</a>
</g>
</g>
<!-- Node23&#45;&gt;Node24 -->
<g id="edge45_Node000023_Node000024" class="edge">
<title>Node23&#45;&gt;Node24</title>
<g id="a_edge45_Node000023_Node000024"><a xlink:title=" ">
<path fill="none" stroke="#63b8ff" d="M1073.31,-274.92C1103.98,-267.38 1147.73,-255.1 1184,-239 1241.96,-213.27 1250.22,-195.17 1306,-165 1327.18,-153.54 1351.79,-141.84 1370.37,-133.31"/>
<polygon fill="#63b8ff" stroke="#63b8ff" points="1371.83,-136.49 1379.48,-129.16 1368.93,-130.12 1371.83,-136.49"/>
</a>
</g>
</g>
<!-- Node26 -->
<g id="Node000026" class="node">
<title>Node26</title>
<g id="a_Node000026"><a xlink:href="../../d8/d5f/rid_8h.html" target="_top" xlink:title=" ">
<polygon fill="white" stroke="#666666" points="1258,-184 1174,-184 1174,-165 1258,-165 1258,-184"/>
<text text-anchor="middle" x="1216" y="-172" font-family="Helvetica,sans-Serif" font-size="10.00">common/rid.h</text>
</a>
</g>
</g>
<!-- Node23&#45;&gt;Node26 -->
<g id="edge49_Node000023_Node000026" class="edge">
<title>Node23&#45;&gt;Node26</title>
<g id="a_edge49_Node000023_Node000026"><a xlink:title=" ">
<path fill="none" stroke="#63b8ff" d="M1074.26,-274.98C1100.15,-268.11 1133.96,-256.63 1160,-239 1178.37,-226.56 1194.55,-206.72 1204.73,-192.52"/>
<polygon fill="#63b8ff" stroke="#63b8ff" points="1207.71,-194.36 1210.52,-184.15 1201.95,-190.38 1207.71,-194.36"/>
</a>
</g>
</g>
<!-- Node28 -->
<g id="Node000028" class="node">
<title>Node28</title>
<g id="a_Node000028"><a xlink:href="../../d4/d3f/value_8h.html" target="_top" xlink:title=" ">
<polygon fill="white" stroke="#666666" points="979.5,-184 902.5,-184 902.5,-165 979.5,-165 979.5,-184"/>
<text text-anchor="middle" x="941" y="-172" font-family="Helvetica,sans-Serif" font-size="10.00">type/value.h</text>
</a>
</g>
</g>
<!-- Node23&#45;&gt;Node28 -->
<g id="edge54_Node000023_Node000028" class="edge">
<title>Node23&#45;&gt;Node28</title>
<g id="a_edge54_Node000023_Node000028"><a xlink:title=" ">
<path fill="none" stroke="#63b8ff" d="M1027.31,-274.66C1011.53,-256.54 975.3,-214.91 955.16,-191.77"/>
<polygon fill="#63b8ff" stroke="#63b8ff" points="957.74,-189.4 948.54,-184.16 952.46,-194 957.74,-189.4"/>
</a>
</g>
</g>
<!-- Node24&#45;&gt;Node8 -->
<g id="edge48_Node000024_Node000008" class="edge">
<title>Node24&#45;&gt;Node8</title>
<g id="a_edge48_Node000024_Node000008"><a xlink:title=" ">
<path fill="none" stroke="#63b8ff" d="M1391.72,-109.81C1380.4,-96.69 1357.43,-71.6 1334,-55 1315.88,-42.16 1293.5,-31.08 1275.6,-23.19"/>
<polygon fill="#63b8ff" stroke="#63b8ff" points="1276.73,-19.86 1266.16,-19.14 1273.97,-26.3 1276.73,-19.86"/>
</a>
</g>
</g>
<!-- Node24&#45;&gt;Node12 -->
<g id="edge46_Node000024_Node000012" class="edge">
<title>Node24&#45;&gt;Node12</title>
<g id="a_edge46_Node000024_Node000012"><a xlink:title=" ">
<path fill="none" stroke="#63b8ff" d="M1365.58,-109.98C1327.31,-100.23 1264.91,-84.33 1225.99,-74.42"/>
<polygon fill="#63b8ff" stroke="#63b8ff" points="1226.71,-70.99 1216.16,-71.91 1224.99,-77.77 1226.71,-70.99"/>
</a>
</g>
</g>
<!-- Node25 -->
<g id="Node000025" class="node">
<title>Node25</title>
<g id="a_Node000025"><a xlink:title=" ">
<polygon fill="#e0e0e0" stroke="#999999" points="1436,-74 1386,-74 1386,-55 1436,-55 1436,-74"/>
<text text-anchor="middle" x="1411" y="-62" font-family="Helvetica,sans-Serif" font-size="10.00">chrono</text>
</a>
</g>
</g>
<!-- Node24&#45;&gt;Node25 -->
<g id="edge47_Node000024_Node000025" class="edge">
<title>Node24&#45;&gt;Node25</title>
<g id="a_edge47_Node000024_Node000025"><a xlink:title=" ">
<path fill="none" stroke="#63b8ff" d="M1400.98,-109.75C1402.57,-102.72 1404.86,-92.62 1406.85,-83.84"/>
<polygon fill="#63b8ff" stroke="#63b8ff" points="1410.26,-84.62 1409.06,-74.09 1403.43,-83.07 1410.26,-84.62"/>
</a>
</g>
</g>
<!-- Node26&#45;&gt;Node3 -->
<g id="edge52_Node000026_Node000003" class="edge">
<title>Node26&#45;&gt;Node3</title>
<g id="a_edge52_Node000026_Node000003"><a xlink:title=" ">
<path fill="none" stroke="#63b8ff" d="M1217.37,-164.91C1221.39,-139.01 1232.47,-62.99 1225,-55 1186.05,-13.34 784.64,-27.59 692.33,-18.47"/>
<polygon fill="#63b8ff" stroke="#63b8ff" points="692.6,-14.98 682.23,-17.17 691.7,-21.92 692.6,-14.98"/>
</a>
</g>
</g>
<!-- Node26&#45;&gt;Node8 -->
<g id="edge50_Node000026_Node000008" class="edge">
<title>Node26&#45;&gt;Node8</title>
<g id="a_edge50_Node000026_Node000008"><a xlink:title=" ">
<path fill="none" stroke="#63b8ff" d="M1250.22,-164.93C1268.71,-158.37 1289.96,-147.24 1301,-129 1308.44,-116.7 1310.2,-82.49 1296,-55 1289.69,-42.79 1278.48,-32.54 1268.07,-24.96"/>
<polygon fill="#63b8ff" stroke="#63b8ff" points="1269.89,-21.96 1259.65,-19.24 1265.95,-27.75 1269.89,-21.96"/>
</a>
</g>
</g>
<!-- Node26&#45;&gt;Node24 -->
<g id="edge53_Node000026_Node000024" class="edge">
<title>Node26&#45;&gt;Node24</title>
<g id="a_edge53_Node000026_Node000024"><a xlink:title=" ">
<path fill="none" stroke="#63b8ff" d="M1245.4,-164.98C1276.39,-156.01 1325.38,-141.82 1359.67,-131.89"/>
<polygon fill="#63b8ff" stroke="#63b8ff" points="1360.74,-135.23 1369.37,-129.08 1358.79,-128.5 1360.74,-135.23"/>
</a>
</g>
</g>
<!-- Node27 -->
<g id="Node000027" class="node">
<title>Node27</title>
<g id="a_Node000027"><a xlink:title=" ">
<polygon fill="#e0e0e0" stroke="#999999" points="1292,-129 1236,-129 1236,-110 1292,-110 1292,-129"/>
<text text-anchor="middle" x="1264" y="-117" font-family="Helvetica,sans-Serif" font-size="10.00">sstream</text>
</a>
</g>
</g>
<!-- Node26&#45;&gt;Node27 -->
<g id="edge51_Node000026_Node000027" class="edge">
<title>Node26&#45;&gt;Node27</title>
<g id="a_edge51_Node000026_Node000027"><a xlink:title=" ">
<path fill="none" stroke="#63b8ff" d="M1223.93,-164.75C1230.85,-157.11 1241.07,-145.82 1249.45,-136.56"/>
<polygon fill="#63b8ff" stroke="#63b8ff" points="1252.1,-138.85 1256.22,-129.09 1246.91,-134.15 1252.1,-138.85"/>
</a>
</g>
</g>
<!-- Node28&#45;&gt;Node2 -->
<g id="edge56_Node000028_Node000002" class="edge">
<title>Node28&#45;&gt;Node2</title>
<g id="a_edge56_Node000028_Node000002"><a xlink:title=" ">
<path fill="none" stroke="#63b8ff" d="M933.32,-164.92C919.78,-150.48 890.03,-121.74 858,-110 709.5,-55.57 308.91,-94.11 134.52,-73.87"/>
<polygon fill="#63b8ff" stroke="#63b8ff" points="134.73,-70.37 124.37,-72.59 133.85,-77.31 134.73,-70.37"/>
</a>
</g>
</g>
<!-- Node28&#45;&gt;Node3 -->
<g id="edge57_Node000028_Node000003" class="edge">
<title>Node28&#45;&gt;Node3</title>
<g id="a_edge57_Node000028_Node000003"><a xlink:title=" ">
<path fill="none" stroke="#63b8ff" d="M935.4,-164.73C926.6,-151.51 908.43,-126.29 888,-110 845.88,-76.42 829.34,-76.62 780,-55 750.67,-42.14 716.32,-29.66 691.91,-21.2"/>
<polygon fill="#63b8ff" stroke="#63b8ff" points="693.02,-17.88 682.42,-17.94 690.75,-24.5 693.02,-17.88"/>
</a>
</g>
</g>
<!-- Node28&#45;&gt;Node9 -->
<g id="edge58_Node000028_Node000009" class="edge">
<title>Node28&#45;&gt;Node9</title>
<g id="a_edge58_Node000028_Node000009"><a xlink:title=" ">
<path fill="none" stroke="#63b8ff" d="M905.77,-164.98C871.44,-156.64 817.51,-143.42 761.46,-129.08"/>
<polygon fill="#63b8ff" stroke="#63b8ff" points="762.27,-125.68 751.71,-126.58 760.53,-132.46 762.27,-125.68"/>
</a>
</g>
</g>
<!-- Node28&#45;&gt;Node10 -->
<g id="edge59_Node000028_Node000010" class="edge">
<title>Node28&#45;&gt;Node10</title>
<g id="a_edge59_Node000028_Node000010"><a xlink:title=" ">
<path fill="none" stroke="#63b8ff" d="M919.79,-164.98C898.27,-156.34 864.72,-142.87 840.17,-133.02"/>
<polygon fill="#63b8ff" stroke="#63b8ff" points="841.18,-129.65 830.59,-129.17 838.57,-136.14 841.18,-129.65"/>
</a>
</g>
</g>
<!-- Node28&#45;&gt;Node17 -->
<g id="edge65_Node000028_Node000017" class="edge">
<title>Node28&#45;&gt;Node17</title>
<g id="a_edge65_Node000028_Node000017"><a xlink:title=" ">
<path fill="none" stroke="#63b8ff" d="M959.89,-164.94C983.75,-153 1019.67,-130.49 1002,-110 969.81,-72.68 824.29,-66.15 748.39,-65.33"/>
<polygon fill="#63b8ff" stroke="#63b8ff" points="748.19,-61.83 738.16,-65.25 748.13,-68.83 748.19,-61.83"/>
</a>
</g>
</g>
<!-- Node29 -->
<g id="Node000029" class="node">
<title>Node29</title>
<g id="a_Node000029"><a xlink:title=" ">
<polygon fill="#e0e0e0" stroke="#999999" points="993,-129 943,-129 943,-110 993,-110 993,-129"/>
<text text-anchor="middle" x="968" y="-117" font-family="Helvetica,sans-Serif" font-size="10.00">cstring</text>
</a>
</g>
</g>
<!-- Node28&#45;&gt;Node29 -->
<g id="edge55_Node000028_Node000029" class="edge">
<title>Node28&#45;&gt;Node29</title>
<g id="a_edge55_Node000028_Node000029"><a xlink:title=" ">
<path fill="none" stroke="#63b8ff" d="M945.46,-164.75C949.12,-157.57 954.41,-147.18 958.95,-138.27"/>
<polygon fill="#63b8ff" stroke="#63b8ff" points="962.2,-139.59 963.62,-129.09 955.97,-136.41 962.2,-139.59"/>
</a>
</g>
</g>
<!-- Node30 -->
<g id="Node000030" class="node">
<title>Node30</title>
<g id="a_Node000030"><a xlink:href="../../d9/d86/limits_8h.html" target="_top" xlink:title=" ">
<polygon fill="white" stroke="#666666" points="1127,-129 1049,-129 1049,-110 1127,-110 1127,-129"/>
<text text-anchor="middle" x="1088" y="-117" font-family="Helvetica,sans-Serif" font-size="10.00">type/limits.h</text>
</a>
</g>
</g>
<!-- Node28&#45;&gt;Node30 -->
<g id="edge60_Node000028_Node000030" class="edge">
<title>Node28&#45;&gt;Node30</title>
<g id="a_edge60_Node000028_Node000030"><a xlink:title=" ">
<path fill="none" stroke="#63b8ff" d="M964.62,-164.98C988.9,-156.23 1026.95,-142.51 1054.37,-132.62"/>
<polygon fill="#63b8ff" stroke="#63b8ff" points="1055.73,-135.85 1063.95,-129.17 1053.36,-129.27 1055.73,-135.85"/>
</a>
</g>
</g>
<!-- Node30&#45;&gt;Node8 -->
<g id="edge63_Node000030_Node000008" class="edge">
<title>Node30&#45;&gt;Node8</title>
<g id="a_edge63_Node000030_Node000008"><a xlink:title=" ">
<path fill="none" stroke="#63b8ff" d="M1127.08,-115.51C1157.67,-111.14 1199.22,-100.39 1225,-74 1236.68,-62.05 1241.22,-43.23 1242.96,-29.18"/>
<polygon fill="#63b8ff" stroke="#63b8ff" points="1246.46,-29.42 1243.85,-19.15 1239.48,-28.8 1246.46,-29.42"/>
</a>
</g>
</g>
<!-- Node31 -->
<g id="Node000031" class="node">
<title>Node31</title>
<g id="a_Node000031"><a xlink:title=" ">
<polygon fill="#e0e0e0" stroke="#999999" points="980,-74 936,-74 936,-55 980,-55 980,-74"/>
<text text-anchor="middle" x="958" y="-62" font-family="Helvetica,sans-Serif" font-size="10.00">cfloat</text>
</a>
</g>
</g>
<!-- Node30&#45;&gt;Node31 -->
<g id="edge61_Node000030_Node000031" class="edge">
<title>Node30&#45;&gt;Node31</title>
<g id="a_edge61_Node000030_Node000031"><a xlink:title=" ">
<path fill="none" stroke="#63b8ff" d="M1067.11,-109.98C1045.92,-101.34 1012.87,-87.87 988.7,-78.02"/>
<polygon fill="#63b8ff" stroke="#63b8ff" points="989.85,-74.7 979.27,-74.17 987.21,-81.19 989.85,-74.7"/>
</a>
</g>
</g>
<!-- Node32 -->
<g id="Node000032" class="node">
<title>Node32</title>
<g id="a_Node000032"><a xlink:title=" ">
<polygon fill="#e0e0e0" stroke="#999999" points="1048,-74 998,-74 998,-55 1048,-55 1048,-74"/>
<text text-anchor="middle" x="1023" y="-62" font-family="Helvetica,sans-Serif" font-size="10.00">climits</text>
</a>
</g>
</g>
<!-- Node30&#45;&gt;Node32 -->
<g id="edge62_Node000030_Node000032" class="edge">
<title>Node30&#45;&gt;Node32</title>
<g id="a_edge62_Node000030_Node000032"><a xlink:title=" ">
<path fill="none" stroke="#63b8ff" d="M1077.56,-109.98C1067.85,-102.07 1053.18,-90.11 1041.5,-80.58"/>
<polygon fill="#63b8ff" stroke="#63b8ff" points="1043.6,-77.78 1033.63,-74.17 1039.17,-83.2 1043.6,-77.78"/>
</a>
</g>
</g>
<!-- Node33 -->
<g id="Node000033" class="node">
<title>Node33</title>
<g id="a_Node000033"><a xlink:title=" ">
<polygon fill="#e0e0e0" stroke="#999999" points="1110,-74 1066,-74 1066,-55 1110,-55 1110,-74"/>
<text text-anchor="middle" x="1088" y="-62" font-family="Helvetica,sans-Serif" font-size="10.00">limits</text>
</a>
</g>
</g>
<!-- Node30&#45;&gt;Node33 -->
<g id="edge64_Node000030_Node000033" class="edge">
<title>Node30&#45;&gt;Node33</title>
<g id="a_edge64_Node000030_Node000033"><a xlink:title=" ">
<path fill="none" stroke="#63b8ff" d="M1088,-109.75C1088,-102.8 1088,-92.85 1088,-84.13"/>
<polygon fill="#63b8ff" stroke="#63b8ff" points="1091.5,-84.09 1088,-74.09 1084.5,-84.09 1091.5,-84.09"/>
</a>
</g>
</g>
</g>
</svg>

<g id="navigator" transform="translate(0 0)" fill="#404254">
  <rect fill="#f2f5e9" fill-opacity="0.5" stroke="#606060" stroke-width=".5" x="0" y="0" width="60" height="60"/>
  <use id="zoomplus" xlink:href="#zoomPlus" x="17" y="9" onmousedown="handleZoom(evt,'in')"/>
  <use id="zoomminus" xlink:href="#zoomMin" x="42" y="9" onmousedown="handleZoom(evt,'out')"/>
  <use id="reset" xlink:href="#resetDef" x="30" y="36" onmousedown="handleReset()"/>
   <use id="arrowup" xlink:href="#arrowUp" x="0" y="0" onmousedown="handlePan(0,-1)"/>
  <use id="arrowright" xlink:href="#arrowRight" x="0" y="0" onmousedown="handlePan(1,0)"/>
  <use id="arrowdown" xlink:href="#arrowDown" x="0" y="0" onmousedown="handlePan(0,1)"/>
  <use id="arrowleft" xlink:href="#arrowLeft" x="0" y="0" onmousedown="handlePan(-1,0)"/>
</g>
<svg viewBox="0 0 15 15" width="100%" height="30px" preserveAspectRatio="xMaxYMin meet">
 <g id="arrow_out" transform="scale(0.3 0.3)">
  <a xlink:href="column__value__expression_8h__incl_org.svg" target="_base">
   <rect id="button" ry="5" rx="5" y="6" x="6" height="38" width="38"
        fill="#f2f5e9" fill-opacity="0.5" stroke="#606060" stroke-width="1.0"/>
   <path id="arrow"
     d="M 11.500037,31.436501 C 11.940474,20.09759 22.043105,11.32322 32.158766,21.979434 L 37.068811,17.246167 C 37.068811,17.246167 37.088388,32 37.088388,32 L 22.160133,31.978069 C 22.160133,31.978069 26.997745,27.140456 26.997745,27.140456 C 18.528582,18.264221 13.291696,25.230495 11.500037,31.436501 z"
     style="fill:#404040;"/>
  </a>
 </g>
</svg>

<style type='text/css'>
<![CDATA[
[data-mouse-over-selected='false'] { opacity: 0.7; }
[data-mouse-over-selected='true']  { opacity: 1.0; }
]]>
</style>
<script type="application/ecmascript"><![CDATA[
document.addEventListener('DOMContentLoaded', (event) => {
  highlightEdges();
  highlightAdjacentNodes();
});
]]></script>
</svg>
