<?xml version="1.0" encoding="UTF-8" standalone="no"?>
<!DOCTYPE svg PUBLIC "-//W3C//DTD SVG 1.1//EN"
 "http://www.w3.org/Graphics/SVG/1.1/DTD/svg11.dtd">
<!-- Generated by graphviz version 2.43.0 (0)
 -->
<!-- Title: src/include/binder/statement/select_statement.h Pages: 1 -->
<!--zoomable 170 -->

<svg id="main" version="1.1" xmlns="http://www.w3.org/2000/svg" xmlns:xlink="http://www.w3.org/1999/xlink" xml:space="preserve" onload="init(evt)">
<style type="text/css"><![CDATA[
.node, .edge {opacity: 0.7;}
.node.selected, .edge.selected {opacity: 1;}
.edge:hover path { stroke: red; }
.edge:hover polygon { stroke: red; fill: red; }
]]></style>

<defs>
  <circle id="rim" cx="0" cy="0" r="7"/>
  <circle id="rim2" cx="0" cy="0" r="3.5"/>
  <g id="zoomPlus">
    <use xlink:href="#rim" fill="#404040"><set attributeName="fill" to="#808080" begin="zoomplus.mouseover" end="zoomplus.mouseout"/></use>
    <path d="M-4,0h8M0,-4v8" fill="none" stroke="white" stroke-width="1.5" pointer-events="none"/>
  </g>
  <g id="zoomMin">
    <use xlink:href="#rim" fill="#404040"><set attributeName="fill" to="#808080" begin="zoomminus.mouseover" end="zoomminus.mouseout"/></use>
    <path d="M-4,0h8" fill="none" stroke="white" stroke-width="1.5" pointer-events="none"/>
  </g>
  <g id="arrowUp" transform="translate(30 24)">
    <use xlink:href="#rim"/>
    <path pointer-events="none" fill="none" stroke="white" stroke-width="1.5" d="M0,-3.0v7 M-2.5,-0.5L0,-3.0L2.5,-0.5"/>
  </g>
  <g id="arrowRight" transform="rotate(90) translate(36 -43)">
    <use xlink:href="#rim"/>
    <path pointer-events="none" fill="none" stroke="white" stroke-width="1.5" d="M0,-3.0v7 M-2.5,-0.5L0,-3.0L2.5,-0.5"/>
  </g>
  <g id="arrowDown" transform="rotate(180) translate(-30 -48)">
    <use xlink:href="#rim"/>
    <path pointer-events="none" fill="none" stroke="white" stroke-width="1.5" d="M0,-3.0v7 M-2.5,-0.5L0,-3.0L2.5,-0.5"/>
  </g>
  <g id="arrowLeft" transform="rotate(270) translate(-36 17)">
    <use xlink:href="#rim"/>
    <path pointer-events="none" fill="none" stroke="white" stroke-width="1.5" d="M0,-3.0v7 M-2.5,-0.5L0,-3.0L2.5,-0.5"/>
  </g>
  <g id="resetDef">
    <use xlink:href="#rim2" fill="#404040"><set attributeName="fill" to="#808080" begin="reset.mouseover" end="reset.mouseout"/></use>
  </g>
</defs>
<script type="application/ecmascript">
var viewWidth = 2749;
var viewHeight = 170;
var sectionId = 'dynsection-1';
</script>
<script type="application/ecmascript" xlink:href="../../svg.min.js"/>
<svg id="graph" class="graph">
<g id="viewport">
<title>src/include/binder/statement/select_statement.h</title>
<!-- Node1 -->
<g id="Node000001" class="node">
<title>Node1</title>
<g id="a_Node000001"><a xlink:title=" ">
<polygon fill="#999999" stroke="#666666" points="1167,-162 1000,-162 1000,-132 1167,-132 1167,-162"/>
<text text-anchor="start" x="1008" y="-150" font-family="Helvetica,sans-Serif" font-size="10.00">src/include/binder</text>
<text text-anchor="middle" x="1083.5" y="-139" font-family="Helvetica,sans-Serif" font-size="10.00">/statement/select_statement.h</text>
</a>
</g>
</g>
<!-- Node2 -->
<g id="Node000002" class="node">
<title>Node2</title>
<g id="a_Node000002"><a xlink:href="../../db/d4b/bind__create_8cpp.html" target="_top" xlink:title=" ">
<polygon fill="white" stroke="#666666" points="145,-24.5 0,-24.5 0,-5.5 145,-5.5 145,-24.5"/>
<text text-anchor="middle" x="72.5" y="-12.5" font-family="Helvetica,sans-Serif" font-size="10.00">src/binder/bind_create.cpp</text>
</a>
</g>
</g>
<!-- Node1&#45;&gt;Node2 -->
<g id="edge1_Node000001_Node000002" class="edge">
<title>Node1&#45;&gt;Node2</title>
<g id="a_edge1_Node000001_Node000002"><a xlink:title=" ">
<path fill="none" stroke="#63b8ff" d="M989.5,-143.77C858.59,-139.6 614.27,-127.91 408.5,-96 293.25,-78.13 159.17,-41.23 101.4,-24.54"/>
<polygon fill="#63b8ff" stroke="#63b8ff" points="989.78,-147.28 999.88,-144.1 989.99,-140.29 989.78,-147.28"/>
</a>
</g>
</g>
<!-- Node3 -->
<g id="Node000003" class="node">
<title>Node3</title>
<g id="a_Node000003"><a xlink:href="../../d9/d88/bind__insert_8cpp.html" target="_top" xlink:title=" ">
<polygon fill="white" stroke="#666666" points="305.5,-24.5 163.5,-24.5 163.5,-5.5 305.5,-5.5 305.5,-24.5"/>
<text text-anchor="middle" x="234.5" y="-12.5" font-family="Helvetica,sans-Serif" font-size="10.00">src/binder/bind_insert.cpp</text>
</a>
</g>
</g>
<!-- Node1&#45;&gt;Node3 -->
<g id="edge2_Node000001_Node000003" class="edge">
<title>Node1&#45;&gt;Node3</title>
<g id="a_edge2_Node000001_Node000003"><a xlink:title=" ">
<path fill="none" stroke="#63b8ff" d="M989.67,-142.17C880.39,-136.61 694.76,-123.76 537.5,-96 433.56,-77.65 313.15,-41.17 260.92,-24.58"/>
<polygon fill="#63b8ff" stroke="#63b8ff" points="989.51,-145.67 999.67,-142.67 989.86,-138.67 989.51,-145.67"/>
</a>
</g>
</g>
<!-- Node4 -->
<g id="Node000004" class="node">
<title>Node4</title>
<g id="a_Node000004"><a xlink:href="../../d7/d35/bind__select_8cpp.html" target="_top" xlink:title=" ">
<polygon fill="white" stroke="#666666" points="467,-24.5 324,-24.5 324,-5.5 467,-5.5 467,-24.5"/>
<text text-anchor="middle" x="395.5" y="-12.5" font-family="Helvetica,sans-Serif" font-size="10.00">src/binder/bind_select.cpp</text>
</a>
</g>
</g>
<!-- Node1&#45;&gt;Node4 -->
<g id="edge3_Node000001_Node000004" class="edge">
<title>Node1&#45;&gt;Node4</title>
<g id="a_edge3_Node000001_Node000004"><a xlink:title=" ">
<path fill="none" stroke="#63b8ff" d="M989.64,-140.69C900.16,-134.37 762.01,-121.31 644.5,-96 558.39,-77.45 459.79,-41.07 417.09,-24.54"/>
<polygon fill="#63b8ff" stroke="#63b8ff" points="989.55,-144.19 999.77,-141.39 990.04,-137.21 989.55,-144.19"/>
</a>
</g>
</g>
<!-- Node5 -->
<g id="Node000005" class="node">
<title>Node5</title>
<g id="a_Node000005"><a xlink:href="../../dc/de9/binder_8cpp.html" target="_top" xlink:title=" ">
<polygon fill="white" stroke="#666666" points="603.5,-24.5 485.5,-24.5 485.5,-5.5 603.5,-5.5 603.5,-24.5"/>
<text text-anchor="middle" x="544.5" y="-12.5" font-family="Helvetica,sans-Serif" font-size="10.00">src/binder/binder.cpp</text>
</a>
</g>
</g>
<!-- Node1&#45;&gt;Node5 -->
<g id="edge4_Node000001_Node000005" class="edge">
<title>Node1&#45;&gt;Node5</title>
<g id="a_edge4_Node000001_Node000005"><a xlink:title=" ">
<path fill="none" stroke="#63b8ff" d="M989.65,-140.14C916.34,-133.85 812.48,-121.14 724.5,-96 660.71,-77.77 590.23,-41.23 559.83,-24.6"/>
<polygon fill="#63b8ff" stroke="#63b8ff" points="989.54,-143.65 999.79,-140.99 990.12,-136.67 989.54,-143.65"/>
</a>
</g>
</g>
<!-- Node6 -->
<g id="Node000006" class="node">
<title>Node6</title>
<g id="a_Node000006"><a xlink:href="../../d9/d02/binder_2fmt__impl_8cpp.html" target="_top" xlink:title=" ">
<polygon fill="white" stroke="#666666" points="753.5,-24.5 621.5,-24.5 621.5,-5.5 753.5,-5.5 753.5,-24.5"/>
<text text-anchor="middle" x="687.5" y="-12.5" font-family="Helvetica,sans-Serif" font-size="10.00">src/binder/fmt_impl.cpp</text>
</a>
</g>
</g>
<!-- Node1&#45;&gt;Node6 -->
<g id="edge5_Node000001_Node000006" class="edge">
<title>Node1&#45;&gt;Node6</title>
<g id="a_edge5_Node000001_Node000006"><a xlink:title=" ">
<path fill="none" stroke="#63b8ff" d="M989.89,-137.63C911.11,-129.42 805.41,-115.31 767.5,-96 733.37,-78.61 704.82,-41.3 693.15,-24.5"/>
<polygon fill="#63b8ff" stroke="#63b8ff" points="989.54,-141.11 999.85,-138.65 990.26,-134.15 989.54,-141.11"/>
</a>
</g>
</g>
<!-- Node7 -->
<g id="Node000007" class="node">
<title>Node7</title>
<g id="a_Node000007"><a xlink:href="../../d1/d11/explain__statement_8cpp.html" target="_top" xlink:title=" ">
<polygon fill="white" stroke="#666666" points="903,-30 772,-30 772,0 903,0 903,-30"/>
<text text-anchor="start" x="780" y="-18" font-family="Helvetica,sans-Serif" font-size="10.00">src/binder/statement</text>
<text text-anchor="middle" x="837.5" y="-7" font-family="Helvetica,sans-Serif" font-size="10.00">/explain_statement.cpp</text>
</a>
</g>
</g>
<!-- Node1&#45;&gt;Node7 -->
<g id="edge6_Node000001_Node000007" class="edge">
<title>Node1&#45;&gt;Node7</title>
<g id="a_edge6_Node000001_Node000007"><a xlink:title=" ">
<path fill="none" stroke="#63b8ff" d="M989.57,-143.63C909.6,-139.4 803.5,-127.76 776.5,-96 757.61,-73.78 789.32,-46.51 813.66,-30.23"/>
<polygon fill="#63b8ff" stroke="#63b8ff" points="989.52,-147.13 999.68,-144.14 989.87,-140.14 989.52,-147.13"/>
</a>
</g>
</g>
<!-- Node8 -->
<g id="Node000008" class="node">
<title>Node8</title>
<g id="a_Node000008"><a xlink:href="../../d8/d89/insert__statement_8cpp.html" target="_top" xlink:title=" ">
<polygon fill="white" stroke="#666666" points="1145,-96 1022,-96 1022,-66 1145,-66 1145,-96"/>
<text text-anchor="start" x="1030" y="-84" font-family="Helvetica,sans-Serif" font-size="10.00">src/binder/statement</text>
<text text-anchor="middle" x="1083.5" y="-73" font-family="Helvetica,sans-Serif" font-size="10.00">/insert_statement.cpp</text>
</a>
</g>
</g>
<!-- Node1&#45;&gt;Node8 -->
<g id="edge7_Node000001_Node000008" class="edge">
<title>Node1&#45;&gt;Node8</title>
<g id="a_edge7_Node000001_Node000008"><a xlink:title=" ">
<path fill="none" stroke="#63b8ff" d="M1083.5,-121.54C1083.5,-112.96 1083.5,-103.61 1083.5,-96.16"/>
<polygon fill="#63b8ff" stroke="#63b8ff" points="1080,-121.8 1083.5,-131.8 1087,-121.8 1080,-121.8"/>
</a>
</g>
</g>
<!-- Node9 -->
<g id="Node000009" class="node">
<title>Node9</title>
<g id="a_Node000009"><a xlink:href="../../df/d6e/select__statement_8cpp.html" target="_top" xlink:title=" ">
<polygon fill="white" stroke="#666666" points="1288,-96 1163,-96 1163,-66 1288,-66 1288,-96"/>
<text text-anchor="start" x="1171" y="-84" font-family="Helvetica,sans-Serif" font-size="10.00">src/binder/statement</text>
<text text-anchor="middle" x="1225.5" y="-73" font-family="Helvetica,sans-Serif" font-size="10.00">/select_statement.cpp</text>
</a>
</g>
</g>
<!-- Node1&#45;&gt;Node9 -->
<g id="edge8_Node000001_Node000009" class="edge">
<title>Node1&#45;&gt;Node9</title>
<g id="a_edge8_Node000001_Node000009"><a xlink:title=" ">
<path fill="none" stroke="#63b8ff" d="M1123.92,-127.78C1146.3,-117.69 1173.71,-105.34 1194.41,-96.01"/>
<polygon fill="#63b8ff" stroke="#63b8ff" points="1122.34,-124.65 1114.66,-131.95 1125.22,-131.04 1122.34,-124.65"/>
</a>
</g>
</g>
<!-- Node10 -->
<g id="Node000010" class="node">
<title>Node10</title>
<g id="a_Node000010"><a xlink:href="../../df/d93/transformer_8cpp.html" target="_top" xlink:title=" ">
<polygon fill="white" stroke="#666666" points="1497,-24.5 1352,-24.5 1352,-5.5 1497,-5.5 1497,-24.5"/>
<text text-anchor="middle" x="1424.5" y="-12.5" font-family="Helvetica,sans-Serif" font-size="10.00">src/binder/transformer.cpp</text>
</a>
</g>
</g>
<!-- Node1&#45;&gt;Node10 -->
<g id="edge9_Node000001_Node000010" class="edge">
<title>Node1&#45;&gt;Node10</title>
<g id="a_edge9_Node000001_Node000010"><a xlink:title=" ">
<path fill="none" stroke="#63b8ff" d="M1004.64,-129.23C958.87,-116.01 915.03,-94.95 941.5,-66 971.76,-32.91 1299.03,-35.82 1343.5,-30 1355.1,-28.48 1367.58,-26.5 1379.19,-24.5"/>
<polygon fill="#63b8ff" stroke="#63b8ff" points="1003.84,-132.64 1014.41,-131.93 1005.71,-125.89 1003.84,-132.64"/>
</a>
</g>
</g>
<!-- Node11 -->
<g id="Node000011" class="node">
<title>Node11</title>
<g id="a_Node000011"><a xlink:href="../../dc/de0/bustub__ddl_8cpp.html" target="_top" xlink:title=" ">
<polygon fill="white" stroke="#666666" points="1668,-24.5 1515,-24.5 1515,-5.5 1668,-5.5 1668,-24.5"/>
<text text-anchor="middle" x="1591.5" y="-12.5" font-family="Helvetica,sans-Serif" font-size="10.00">src/common/bustub_ddl.cpp</text>
</a>
</g>
</g>
<!-- Node1&#45;&gt;Node11 -->
<g id="edge10_Node000001_Node000011" class="edge">
<title>Node1&#45;&gt;Node11</title>
<g id="a_edge10_Node000001_Node000011"><a xlink:title=" ">
<path fill="none" stroke="#63b8ff" d="M1030.47,-128.11C994.26,-113.18 956.66,-90.45 979.5,-66 1019.56,-23.11 1448.2,-36.78 1506.5,-30 1518.98,-28.55 1532.42,-26.54 1544.85,-24.5"/>
<polygon fill="#63b8ff" stroke="#63b8ff" points="1029.51,-131.5 1040.1,-131.92 1032.09,-124.99 1029.51,-131.5"/>
</a>
</g>
</g>
<!-- Node12 -->
<g id="Node000012" class="node">
<title>Node12</title>
<g id="a_Node000012"><a xlink:href="../../da/d08/bustub__instance_8cpp.html" target="_top" xlink:title=" ">
<polygon fill="white" stroke="#666666" points="1865,-24.5 1686,-24.5 1686,-5.5 1865,-5.5 1865,-24.5"/>
<text text-anchor="middle" x="1775.5" y="-12.5" font-family="Helvetica,sans-Serif" font-size="10.00">src/common/bustub_instance.cpp</text>
</a>
</g>
</g>
<!-- Node1&#45;&gt;Node12 -->
<g id="edge11_Node000001_Node000012" class="edge">
<title>Node1&#45;&gt;Node12</title>
<g id="a_edge11_Node000001_Node000012"><a xlink:title=" ">
<path fill="none" stroke="#63b8ff" d="M1047.66,-126.56C1021.78,-110.12 994.46,-86.1 1013.5,-66 1064.31,-12.36 1603.97,-37.23 1677.5,-30 1691.95,-28.58 1707.54,-26.57 1721.94,-24.52"/>
<polygon fill="#63b8ff" stroke="#63b8ff" points="1045.95,-129.62 1056.32,-131.83 1049.59,-123.64 1045.95,-129.62"/>
</a>
</g>
</g>
<!-- Node13 -->
<g id="Node000013" class="node">
<title>Node13</title>
<g id="a_Node000013"><a xlink:href="../../d3/d2f/binder_8h.html" target="_top" xlink:title=" ">
<polygon fill="white" stroke="#666666" points="889,-96 786,-96 786,-66 889,-66 889,-96"/>
<text text-anchor="start" x="794" y="-84" font-family="Helvetica,sans-Serif" font-size="10.00">src/include/binder</text>
<text text-anchor="middle" x="837.5" y="-73" font-family="Helvetica,sans-Serif" font-size="10.00">/binder.h</text>
</a>
</g>
</g>
<!-- Node1&#45;&gt;Node13 -->
<g id="edge12_Node000001_Node000013" class="edge">
<title>Node1&#45;&gt;Node13</title>
<g id="a_edge12_Node000001_Node000013"><a xlink:title=" ">
<path fill="none" stroke="#63b8ff" d="M1019.72,-129.41C979.14,-118.85 927.27,-105.35 889.25,-95.46"/>
<polygon fill="#63b8ff" stroke="#63b8ff" points="1018.96,-132.82 1029.51,-131.95 1020.72,-126.05 1018.96,-132.82"/>
</a>
</g>
</g>
<!-- Node17 -->
<g id="Node000017" class="node">
<title>Node17</title>
<g id="a_Node000017"><a xlink:href="../../df/dfb/expression__factory_8cpp.html" target="_top" xlink:title=" ">
<polygon fill="white" stroke="#666666" points="1433,-96 1306,-96 1306,-66 1433,-66 1433,-96"/>
<text text-anchor="start" x="1314" y="-84" font-family="Helvetica,sans-Serif" font-size="10.00">src/planner/expression</text>
<text text-anchor="middle" x="1369.5" y="-73" font-family="Helvetica,sans-Serif" font-size="10.00">_factory.cpp</text>
</a>
</g>
</g>
<!-- Node1&#45;&gt;Node17 -->
<g id="edge25_Node000001_Node000017" class="edge">
<title>Node1&#45;&gt;Node17</title>
<g id="a_edge25_Node000001_Node000017"><a xlink:title=" ">
<path fill="none" stroke="#63b8ff" d="M1156.28,-129.71C1202.79,-119.31 1262.49,-105.95 1306.88,-96.01"/>
<polygon fill="#63b8ff" stroke="#63b8ff" points="1155.26,-126.36 1146.26,-131.95 1156.79,-133.19 1155.26,-126.36"/>
</a>
</g>
</g>
<!-- Node18 -->
<g id="Node000018" class="node">
<title>Node18</title>
<g id="a_Node000018"><a xlink:href="../../da/de4/plan__aggregation_8cpp.html" target="_top" xlink:title=" ">
<polygon fill="white" stroke="#666666" points="1630,-90.5 1451,-90.5 1451,-71.5 1630,-71.5 1630,-90.5"/>
<text text-anchor="middle" x="1540.5" y="-78.5" font-family="Helvetica,sans-Serif" font-size="10.00">src/planner/plan_aggregation.cpp</text>
</a>
</g>
</g>
<!-- Node1&#45;&gt;Node18 -->
<g id="edge26_Node000001_Node000018" class="edge">
<title>Node1&#45;&gt;Node18</title>
<g id="a_edge26_Node000001_Node000018"><a xlink:title=" ">
<path fill="none" stroke="#63b8ff" d="M1177.31,-133.03C1249.75,-122.99 1352.49,-108.7 1442.5,-96 1455.01,-94.24 1468.41,-92.33 1481.17,-90.51"/>
<polygon fill="#63b8ff" stroke="#63b8ff" points="1176.72,-129.57 1167.29,-134.41 1177.68,-136.51 1176.72,-129.57"/>
</a>
</g>
</g>
<!-- Node19 -->
<g id="Node000019" class="node">
<title>Node19</title>
<g id="a_Node000019"><a xlink:href="../../d0/d29/plan__expression_8cpp.html" target="_top" xlink:title=" ">
<polygon fill="white" stroke="#666666" points="1821,-90.5 1648,-90.5 1648,-71.5 1821,-71.5 1821,-90.5"/>
<text text-anchor="middle" x="1734.5" y="-78.5" font-family="Helvetica,sans-Serif" font-size="10.00">src/planner/plan_expression.cpp</text>
</a>
</g>
</g>
<!-- Node1&#45;&gt;Node19 -->
<g id="edge27_Node000001_Node000019" class="edge">
<title>Node1&#45;&gt;Node19</title>
<g id="a_edge27_Node000001_Node000019"><a xlink:title=" ">
<path fill="none" stroke="#63b8ff" d="M1177.14,-139.21C1287.79,-130.8 1477.34,-115.22 1639.5,-96 1652.74,-94.43 1666.99,-92.47 1680.31,-90.53"/>
<polygon fill="#63b8ff" stroke="#63b8ff" points="1176.72,-135.73 1167.02,-139.97 1177.25,-142.71 1176.72,-135.73"/>
</a>
</g>
</g>
<!-- Node20 -->
<g id="Node000020" class="node">
<title>Node20</title>
<g id="a_Node000020"><a xlink:href="../../d6/da3/plan__func__call_8cpp.html" target="_top" xlink:title=" ">
<polygon fill="white" stroke="#666666" points="1960,-96 1839,-96 1839,-66 1960,-66 1960,-96"/>
<text text-anchor="start" x="1847" y="-84" font-family="Helvetica,sans-Serif" font-size="10.00">src/planner/plan_func</text>
<text text-anchor="middle" x="1899.5" y="-73" font-family="Helvetica,sans-Serif" font-size="10.00">_call.cpp</text>
</a>
</g>
</g>
<!-- Node1&#45;&gt;Node20 -->
<g id="edge28_Node000001_Node000020" class="edge">
<title>Node1&#45;&gt;Node20</title>
<g id="a_edge28_Node000001_Node000020"><a xlink:title=" ">
<path fill="none" stroke="#63b8ff" d="M1177.45,-143.73C1319.43,-139.39 1596.9,-127.37 1830.5,-96 1833.29,-95.63 1836.13,-95.21 1839,-94.75"/>
<polygon fill="#63b8ff" stroke="#63b8ff" points="1176.94,-140.24 1167.05,-144.04 1177.15,-147.24 1176.94,-140.24"/>
</a>
</g>
</g>
<!-- Node21 -->
<g id="Node000021" class="node">
<title>Node21</title>
<g id="a_Node000021"><a xlink:href="../../d2/dbb/plan__insert_8cpp.html" target="_top" xlink:title=" ">
<polygon fill="white" stroke="#666666" points="2126.5,-90.5 1978.5,-90.5 1978.5,-71.5 2126.5,-71.5 2126.5,-90.5"/>
<text text-anchor="middle" x="2052.5" y="-78.5" font-family="Helvetica,sans-Serif" font-size="10.00">src/planner/plan_insert.cpp</text>
</a>
</g>
</g>
<!-- Node1&#45;&gt;Node21 -->
<g id="edge29_Node000001_Node000021" class="edge">
<title>Node1&#45;&gt;Node21</title>
<g id="a_edge29_Node000001_Node000021"><a xlink:title=" ">
<path fill="none" stroke="#63b8ff" d="M1177.54,-144.11C1339.66,-140.09 1682.04,-128.25 1969.5,-96 1981.84,-94.61 1995.14,-92.61 2007.4,-90.54"/>
<polygon fill="#63b8ff" stroke="#63b8ff" points="1177.04,-140.62 1167.13,-144.36 1177.21,-147.62 1177.04,-140.62"/>
</a>
</g>
</g>
<!-- Node22 -->
<g id="Node000022" class="node">
<title>Node22</title>
<g id="a_Node000022"><a xlink:href="../../d9/df0/plan__select_8cpp.html" target="_top" xlink:title=" ">
<polygon fill="white" stroke="#666666" points="2294,-90.5 2145,-90.5 2145,-71.5 2294,-71.5 2294,-90.5"/>
<text text-anchor="middle" x="2219.5" y="-78.5" font-family="Helvetica,sans-Serif" font-size="10.00">src/planner/plan_select.cpp</text>
</a>
</g>
</g>
<!-- Node1&#45;&gt;Node22 -->
<g id="edge30_Node000001_Node000022" class="edge">
<title>Node1&#45;&gt;Node22</title>
<g id="a_edge30_Node000001_Node000022"><a xlink:title=" ">
<path fill="none" stroke="#63b8ff" d="M1177.48,-145.24C1361.76,-142.92 1783.31,-133.59 2135.5,-96 2148.14,-94.65 2161.77,-92.63 2174.3,-90.54"/>
<polygon fill="#63b8ff" stroke="#63b8ff" points="1177.24,-141.74 1167.28,-145.36 1177.33,-148.74 1177.24,-141.74"/>
</a>
</g>
</g>
<!-- Node23 -->
<g id="Node000023" class="node">
<title>Node23</title>
<g id="a_Node000023"><a xlink:href="../../d8/d40/plan__table__ref_8cpp.html" target="_top" xlink:title=" ">
<polygon fill="white" stroke="#666666" points="2437,-96 2312,-96 2312,-66 2437,-66 2437,-96"/>
<text text-anchor="start" x="2320" y="-84" font-family="Helvetica,sans-Serif" font-size="10.00">src/planner/plan_table</text>
<text text-anchor="middle" x="2374.5" y="-73" font-family="Helvetica,sans-Serif" font-size="10.00">_ref.cpp</text>
</a>
</g>
</g>
<!-- Node1&#45;&gt;Node23 -->
<g id="edge31_Node000001_Node000023" class="edge">
<title>Node1&#45;&gt;Node23</title>
<g id="a_edge31_Node000001_Node000023"><a xlink:title=" ">
<path fill="none" stroke="#63b8ff" d="M1177.39,-144.02C1423.97,-138.53 2085.87,-121.76 2303.5,-96 2306.24,-95.68 2309.04,-95.3 2311.86,-94.89"/>
<polygon fill="#63b8ff" stroke="#63b8ff" points="1177.3,-140.52 1167.38,-144.24 1177.46,-147.52 1177.3,-140.52"/>
</a>
</g>
</g>
<!-- Node24 -->
<g id="Node000024" class="node">
<title>Node24</title>
<g id="a_Node000024"><a xlink:href="../../d4/d79/plan__window__function_8cpp.html" target="_top" xlink:title=" ">
<polygon fill="white" stroke="#666666" points="2592,-96 2455,-96 2455,-66 2592,-66 2592,-96"/>
<text text-anchor="start" x="2463" y="-84" font-family="Helvetica,sans-Serif" font-size="10.00">src/planner/plan_window</text>
<text text-anchor="middle" x="2523.5" y="-73" font-family="Helvetica,sans-Serif" font-size="10.00">_function.cpp</text>
</a>
</g>
</g>
<!-- Node1&#45;&gt;Node24 -->
<g id="edge32_Node000001_Node000024" class="edge">
<title>Node1&#45;&gt;Node24</title>
<g id="a_edge32_Node000001_Node000024"><a xlink:title=" ">
<path fill="none" stroke="#63b8ff" d="M1177.45,-144.31C1443.7,-139.23 2199.85,-122.81 2446.5,-96 2449.2,-95.71 2451.95,-95.37 2454.72,-95.01"/>
<polygon fill="#63b8ff" stroke="#63b8ff" points="1177.36,-140.81 1167.43,-144.5 1177.49,-147.81 1177.36,-140.81"/>
</a>
</g>
</g>
<!-- Node25 -->
<g id="Node000025" class="node">
<title>Node25</title>
<g id="a_Node000025"><a xlink:href="../../de/d3d/planner_8cpp.html" target="_top" xlink:title=" ">
<polygon fill="white" stroke="#666666" points="2740.5,-90.5 2610.5,-90.5 2610.5,-71.5 2740.5,-71.5 2740.5,-90.5"/>
<text text-anchor="middle" x="2675.5" y="-78.5" font-family="Helvetica,sans-Serif" font-size="10.00">src/planner/planner.cpp</text>
</a>
</g>
</g>
<!-- Node1&#45;&gt;Node25 -->
<g id="edge33_Node000001_Node000025" class="edge">
<title>Node1&#45;&gt;Node25</title>
<g id="a_edge33_Node000001_Node000025"><a xlink:title=" ">
<path fill="none" stroke="#63b8ff" d="M1177.47,-144.8C1463.93,-140.85 2323.51,-126.69 2601.5,-96 2612.94,-94.74 2625.25,-92.69 2636.5,-90.54"/>
<polygon fill="#63b8ff" stroke="#63b8ff" points="1177.07,-141.31 1167.12,-144.94 1177.16,-148.31 1177.07,-141.31"/>
</a>
</g>
</g>
<!-- Node13&#45;&gt;Node2 -->
<g id="edge13_Node000013_Node000002" class="edge">
<title>Node13&#45;&gt;Node2</title>
<g id="a_edge13_Node000013_Node000002"><a xlink:title=" ">
<path fill="none" stroke="#63b8ff" d="M775.83,-77.47C655.84,-72.12 382.71,-57.77 154.5,-30 142.6,-28.55 129.8,-26.57 117.93,-24.56"/>
<polygon fill="#63b8ff" stroke="#63b8ff" points="775.78,-80.97 785.93,-77.92 776.09,-73.98 775.78,-80.97"/>
</a>
</g>
</g>
<!-- Node13&#45;&gt;Node3 -->
<g id="edge14_Node000013_Node000003" class="edge">
<title>Node13&#45;&gt;Node3</title>
<g id="a_edge14_Node000013_Node000003"><a xlink:title=" ">
<path fill="none" stroke="#63b8ff" d="M775.73,-75.66C677.7,-68.42 480.59,-52.44 314.5,-30 303.18,-28.47 291.02,-26.51 279.67,-24.54"/>
<polygon fill="#63b8ff" stroke="#63b8ff" points="775.53,-79.16 785.75,-76.4 776.04,-72.17 775.53,-79.16"/>
</a>
</g>
</g>
<!-- Node13&#45;&gt;Node4 -->
<g id="edge15_Node000013_Node000004" class="edge">
<title>Node13&#45;&gt;Node4</title>
<g id="a_edge15_Node000013_Node000004"><a xlink:title=" ">
<path fill="none" stroke="#63b8ff" d="M775.46,-72.05C703.47,-62.68 581.23,-46.3 476.5,-30 465.78,-28.33 454.29,-26.42 443.43,-24.56"/>
<polygon fill="#63b8ff" stroke="#63b8ff" points="775.34,-75.56 785.71,-73.38 776.24,-68.62 775.34,-75.56"/>
</a>
</g>
</g>
<!-- Node13&#45;&gt;Node5 -->
<g id="edge17_Node000013_Node000005" class="edge">
<title>Node13&#45;&gt;Node5</title>
<g id="a_edge17_Node000013_Node000005"><a xlink:title=" ">
<path fill="none" stroke="#63b8ff" d="M776.01,-66.57C717.98,-53.89 632.75,-35.28 583.52,-24.52"/>
<polygon fill="#63b8ff" stroke="#63b8ff" points="775.28,-69.99 785.79,-68.71 776.77,-63.15 775.28,-69.99"/>
</a>
</g>
</g>
<!-- Node13&#45;&gt;Node6 -->
<g id="edge18_Node000013_Node000006" class="edge">
<title>Node13&#45;&gt;Node6</title>
<g id="a_edge18_Node000013_Node000006"><a xlink:title=" ">
<path fill="none" stroke="#63b8ff" d="M795.17,-61.94C766.44,-49.68 729.74,-34.02 707.46,-24.52"/>
<polygon fill="#63b8ff" stroke="#63b8ff" points="794.01,-65.25 804.58,-65.95 796.76,-58.81 794.01,-65.25"/>
</a>
</g>
</g>
<!-- Node13&#45;&gt;Node7 -->
<g id="edge21_Node000013_Node000007" class="edge">
<title>Node13&#45;&gt;Node7</title>
<g id="a_edge21_Node000013_Node000007"><a xlink:title=" ">
<path fill="none" stroke="#63b8ff" d="M837.5,-55.54C837.5,-46.96 837.5,-37.61 837.5,-30.16"/>
<polygon fill="#63b8ff" stroke="#63b8ff" points="834,-55.8 837.5,-65.8 841,-55.8 834,-55.8"/>
</a>
</g>
</g>
<!-- Node13&#45;&gt;Node10 -->
<g id="edge22_Node000013_Node000010" class="edge">
<title>Node13&#45;&gt;Node10</title>
<g id="a_edge22_Node000013_Node000010"><a xlink:title=" ">
<path fill="none" stroke="#63b8ff" d="M899.55,-66.6C900.88,-66.39 902.2,-66.19 903.5,-66 1097.64,-37.59 1148.86,-54.73 1343.5,-30 1355.11,-28.52 1367.59,-26.56 1379.2,-24.57"/>
<polygon fill="#63b8ff" stroke="#63b8ff" points="898.53,-63.23 889.27,-68.37 899.72,-70.13 898.53,-63.23"/>
</a>
</g>
</g>
<!-- Node13&#45;&gt;Node11 -->
<g id="edge23_Node000013_Node000011" class="edge">
<title>Node13&#45;&gt;Node11</title>
<g id="a_edge23_Node000013_Node000011"><a xlink:title=" ">
<path fill="none" stroke="#63b8ff" d="M899.21,-70.97C913.1,-69.14 927.79,-67.36 941.5,-66 1191.9,-41.2 1256.5,-58.48 1506.5,-30 1518.98,-28.58 1532.42,-26.58 1544.85,-24.54"/>
<polygon fill="#63b8ff" stroke="#63b8ff" points="898.7,-67.5 889.26,-72.3 899.64,-74.44 898.7,-67.5"/>
</a>
</g>
</g>
<!-- Node13&#45;&gt;Node12 -->
<g id="edge24_Node000013_Node000012" class="edge">
<title>Node13&#45;&gt;Node12</title>
<g id="a_edge24_Node000013_Node000012"><a xlink:title=" ">
<path fill="none" stroke="#63b8ff" d="M899.1,-73.29C924.04,-70.74 953.12,-67.98 979.5,-66 1289.26,-42.75 1368.32,-60 1677.5,-30 1692.04,-28.59 1707.73,-26.57 1722.2,-24.51"/>
<polygon fill="#63b8ff" stroke="#63b8ff" points="898.64,-69.82 889.05,-74.33 899.36,-76.79 898.64,-69.82"/>
</a>
</g>
</g>
<!-- Node14 -->
<g id="Node000014" class="node">
<title>Node14</title>
<g id="a_Node000014"><a xlink:href="../../db/db0/bind__variable_8cpp.html" target="_top" xlink:title=" ">
<polygon fill="white" stroke="#666666" points="1075.5,-24.5 921.5,-24.5 921.5,-5.5 1075.5,-5.5 1075.5,-24.5"/>
<text text-anchor="middle" x="998.5" y="-12.5" font-family="Helvetica,sans-Serif" font-size="10.00">src/binder/bind_variable.cpp</text>
</a>
</g>
</g>
<!-- Node13&#45;&gt;Node14 -->
<g id="edge16_Node000013_Node000014" class="edge">
<title>Node13&#45;&gt;Node14</title>
<g id="a_edge16_Node000013_Node000014"><a xlink:title=" ">
<path fill="none" stroke="#63b8ff" d="M882.13,-62.26C913.09,-49.95 952.95,-34.11 977.07,-24.52"/>
<polygon fill="#63b8ff" stroke="#63b8ff" points="880.83,-59.01 872.83,-65.95 883.42,-65.51 880.83,-59.01"/>
</a>
</g>
</g>
<!-- Node15 -->
<g id="Node000015" class="node">
<title>Node15</title>
<g id="a_Node000015"><a xlink:href="../../d3/d6b/keyword__helper_8cpp.html" target="_top" xlink:title=" ">
<polygon fill="white" stroke="#666666" points="1203,-30 1094,-30 1094,0 1203,0 1203,-30"/>
<text text-anchor="start" x="1102" y="-18" font-family="Helvetica,sans-Serif" font-size="10.00">src/binder/keyword</text>
<text text-anchor="middle" x="1148.5" y="-7" font-family="Helvetica,sans-Serif" font-size="10.00">_helper.cpp</text>
</a>
</g>
</g>
<!-- Node13&#45;&gt;Node15 -->
<g id="edge19_Node000013_Node000015" class="edge">
<title>Node13&#45;&gt;Node15</title>
<g id="a_edge19_Node000013_Node000015"><a xlink:title=" ">
<path fill="none" stroke="#63b8ff" d="M899.04,-66.92C900.54,-66.61 902.03,-66.3 903.5,-66 983.84,-49.49 1004.21,-46.76 1084.5,-30 1087.51,-29.37 1090.59,-28.72 1093.7,-28.06"/>
<polygon fill="#63b8ff" stroke="#63b8ff" points="898.09,-63.54 889.01,-69.01 899.51,-70.4 898.09,-63.54"/>
</a>
</g>
</g>
<!-- Node16 -->
<g id="Node000016" class="node">
<title>Node16</title>
<g id="a_Node000016"><a xlink:href="../../d5/db7/node__tag__to__string_8cpp.html" target="_top" xlink:title=" ">
<polygon fill="white" stroke="#666666" points="1334,-30 1221,-30 1221,0 1334,0 1334,-30"/>
<text text-anchor="start" x="1229" y="-18" font-family="Helvetica,sans-Serif" font-size="10.00">src/binder/node_tag</text>
<text text-anchor="middle" x="1277.5" y="-7" font-family="Helvetica,sans-Serif" font-size="10.00">_to_string.cpp</text>
</a>
</g>
</g>
<!-- Node13&#45;&gt;Node16 -->
<g id="edge20_Node000013_Node000016" class="edge">
<title>Node13&#45;&gt;Node16</title>
<g id="a_edge20_Node000013_Node000016"><a xlink:title=" ">
<path fill="none" stroke="#63b8ff" d="M899.56,-66.66C900.89,-66.43 902.2,-66.21 903.5,-66 1039.94,-43.63 1076.09,-52.58 1212.5,-30 1215.23,-29.55 1218.03,-29.06 1220.84,-28.54"/>
<polygon fill="#63b8ff" stroke="#63b8ff" points="898.5,-63.3 889.29,-68.54 899.76,-70.19 898.5,-63.3"/>
</a>
</g>
</g>
</g>
</svg>

<g id="navigator" transform="translate(0 0)" fill="#404254">
  <rect fill="#f2f5e9" fill-opacity="0.5" stroke="#606060" stroke-width=".5" x="0" y="0" width="60" height="60"/>
  <use id="zoomplus" xlink:href="#zoomPlus" x="17" y="9" onmousedown="handleZoom(evt,'in')"/>
  <use id="zoomminus" xlink:href="#zoomMin" x="42" y="9" onmousedown="handleZoom(evt,'out')"/>
  <use id="reset" xlink:href="#resetDef" x="30" y="36" onmousedown="handleReset()"/>
   <use id="arrowup" xlink:href="#arrowUp" x="0" y="0" onmousedown="handlePan(0,-1)"/>
  <use id="arrowright" xlink:href="#arrowRight" x="0" y="0" onmousedown="handlePan(1,0)"/>
  <use id="arrowdown" xlink:href="#arrowDown" x="0" y="0" onmousedown="handlePan(0,1)"/>
  <use id="arrowleft" xlink:href="#arrowLeft" x="0" y="0" onmousedown="handlePan(-1,0)"/>
</g>
<svg viewBox="0 0 15 15" width="100%" height="30px" preserveAspectRatio="xMaxYMin meet">
 <g id="arrow_out" transform="scale(0.3 0.3)">
  <a xlink:href="select__statement_8h__dep__incl_org.svg" target="_base">
   <rect id="button" ry="5" rx="5" y="6" x="6" height="38" width="38"
        fill="#f2f5e9" fill-opacity="0.5" stroke="#606060" stroke-width="1.0"/>
   <path id="arrow"
     d="M 11.500037,31.436501 C 11.940474,20.09759 22.043105,11.32322 32.158766,21.979434 L 37.068811,17.246167 C 37.068811,17.246167 37.088388,32 37.088388,32 L 22.160133,31.978069 C 22.160133,31.978069 26.997745,27.140456 26.997745,27.140456 C 18.528582,18.264221 13.291696,25.230495 11.500037,31.436501 z"
     style="fill:#404040;"/>
  </a>
 </g>
</svg>

<style type='text/css'>
<![CDATA[
[data-mouse-over-selected='false'] { opacity: 0.7; }
[data-mouse-over-selected='true']  { opacity: 1.0; }
]]>
</style>
<script type="application/ecmascript"><![CDATA[
document.addEventListener('DOMContentLoaded', (event) => {
  highlightEdges();
  highlightAdjacentNodes();
});
]]></script>
</svg>
