<?xml version="1.0" encoding="UTF-8" standalone="no"?>
<!DOCTYPE svg PUBLIC "-//W3C//DTD SVG 1.1//EN"
 "http://www.w3.org/Graphics/SVG/1.1/DTD/svg11.dtd">
<!-- Generated by graphviz version 2.43.0 (0)
 -->
<!-- Title: bustub::DiskExtendibleHashTable&lt; K, V, KC &gt; Pages: 1 -->
<svg width="382pt" height="236pt"
 viewBox="0.00 0.00 381.50 236.00" xmlns="http://www.w3.org/2000/svg" xmlns:xlink="http://www.w3.org/1999/xlink">

<svg id="main" version="1.1" xmlns="http://www.w3.org/2000/svg" xmlns:xlink="http://www.w3.org/1999/xlink" xml:space="preserve" onload="init(evt)">
<style type="text/css"><![CDATA[
.node, .edge {opacity: 0.7;}
.node.selected, .edge.selected {opacity: 1;}
.edge:hover path { stroke: red; }
.edge:hover polygon { stroke: red; fill: red; }
]]></style>
<script type="application/ecmascript" xlink:href="../../svg.min.js"/>
<svg id="graph" class="graph">
<g id="graph0" class="graph" transform="scale(1 1) rotate(0) translate(4 232)">
<title>bustub::DiskExtendibleHashTable&lt; K, V, KC &gt;</title>
<!-- Node1 -->
<g id="Node000001" class="node">
<title>Node1</title>
<g id="a_Node000001"><a xlink:title=" ">
<polygon fill="#999999" stroke="#666666" points="333,-30 179,-30 179,0 333,0 333,-30"/>
<text text-anchor="start" x="187" y="-18" font-family="Helvetica,sans-Serif" font-size="10.00">bustub::DiskExtendibleHash</text>
<text text-anchor="middle" x="256" y="-7" font-family="Helvetica,sans-Serif" font-size="10.00">Table&lt; K, V, KC &gt;</text>
</a>
</g>
</g>
<!-- Node2 -->
<g id="Node000002" class="node">
<title>Node2</title>
<g id="a_Node000002"><a xlink:href="../../d6/d5d/classbustub_1_1BufferPoolManager.html" target="_top" xlink:title=" ">
<polygon fill="white" stroke="#666666" points="204.5,-96 55.5,-96 55.5,-77 204.5,-77 204.5,-96"/>
<text text-anchor="middle" x="130" y="-84" font-family="Helvetica,sans-Serif" font-size="10.00">bustub::BufferPoolManager</text>
</a>
</g>
</g>
<!-- Node2&#45;&gt;Node1 -->
<g id="edge1_Node000001_Node000002" class="edge">
<title>Node2&#45;&gt;Node1</title>
<g id="a_edge1_Node000001_Node000002"><a xlink:title=" ">
<path fill="none" stroke="#9a32cd" stroke-dasharray="5,2" d="M154.42,-72.03C176.26,-59.98 208.17,-42.38 230.37,-30.14"/>
<polygon fill="#9a32cd" stroke="#9a32cd" points="152.52,-69.08 145.45,-76.98 155.9,-75.21 152.52,-69.08"/>
</a>
</g>
<text text-anchor="middle" x="212.5" y="-51" font-family="Helvetica,sans-Serif" font-size="10.00" fill="grey"> bpm_</text>
</g>
<!-- Node3 -->
<g id="Node000003" class="node">
<title>Node3</title>
<g id="a_Node000003"><a xlink:href="../../d4/d87/classbustub_1_1Page.html" target="_top" xlink:title=" ">
<polygon fill="white" stroke="#666666" points="112.5,-162 33.5,-162 33.5,-143 112.5,-143 112.5,-162"/>
<text text-anchor="middle" x="73" y="-150" font-family="Helvetica,sans-Serif" font-size="10.00">bustub::Page</text>
</a>
</g>
</g>
<!-- Node3&#45;&gt;Node2 -->
<g id="edge2_Node000002_Node000003" class="edge">
<title>Node3&#45;&gt;Node2</title>
<g id="a_edge2_Node000002_Node000003"><a xlink:title=" ">
<path fill="none" stroke="#9a32cd" stroke-dasharray="5,2" d="M87.59,-135.12C98.56,-122.81 113.17,-106.39 122.07,-96.41"/>
<polygon fill="#9a32cd" stroke="#9a32cd" points="84.72,-133.07 80.69,-142.87 89.95,-137.73 84.72,-133.07"/>
</a>
</g>
<text text-anchor="middle" x="124" y="-117" font-family="Helvetica,sans-Serif" font-size="10.00" fill="grey"> pages_</text>
</g>
<!-- Node4 -->
<g id="Node000004" class="node">
<title>Node4</title>
<g id="a_Node000004"><a xlink:href="../../d8/dbd/classbustub_1_1ReaderWriterLatch.html" target="_top" xlink:title=" ">
<polygon fill="white" stroke="#666666" points="146,-228 0,-228 0,-209 146,-209 146,-228"/>
<text text-anchor="middle" x="73" y="-216" font-family="Helvetica,sans-Serif" font-size="10.00">bustub::ReaderWriterLatch</text>
</a>
</g>
</g>
<!-- Node4&#45;&gt;Node3 -->
<g id="edge3_Node000003_Node000004" class="edge">
<title>Node4&#45;&gt;Node3</title>
<g id="a_edge3_Node000003_Node000004"><a xlink:title=" ">
<path fill="none" stroke="#9a32cd" stroke-dasharray="5,2" d="M73,-198.58C73,-186.63 73,-171.72 73,-162.41"/>
<polygon fill="#9a32cd" stroke="#9a32cd" points="69.5,-198.87 73,-208.87 76.5,-198.87 69.5,-198.87"/>
</a>
</g>
<text text-anchor="middle" x="95.5" y="-183" font-family="Helvetica,sans-Serif" font-size="10.00" fill="grey"> rwlatch_</text>
</g>
<!-- Node5 -->
<g id="Node000005" class="node">
<title>Node5</title>
<g id="a_Node000005"><a xlink:href="../../d7/d4e/classbustub_1_1LogManager.html" target="_top" xlink:title=" ">
<polygon fill="white" stroke="#666666" points="246,-162 130,-162 130,-143 246,-143 246,-162"/>
<text text-anchor="middle" x="188" y="-150" font-family="Helvetica,sans-Serif" font-size="10.00">bustub::LogManager</text>
</a>
</g>
</g>
<!-- Node5&#45;&gt;Node2 -->
<g id="edge4_Node000002_Node000005" class="edge">
<title>Node5&#45;&gt;Node2</title>
<g id="a_edge4_Node000002_Node000005"><a xlink:title=" ">
<path fill="none" stroke="#9a32cd" stroke-dasharray="5,2" d="M173.16,-135.12C162,-122.81 147.12,-106.39 138.07,-96.41"/>
<polygon fill="#9a32cd" stroke="#9a32cd" points="170.87,-137.81 180.18,-142.87 176.06,-133.11 170.87,-137.81"/>
</a>
</g>
<text text-anchor="middle" x="199.5" y="-117" font-family="Helvetica,sans-Serif" font-size="10.00" fill="grey"> log_manager_</text>
</g>
<!-- Node6 -->
<g id="Node000006" class="node">
<title>Node6</title>
<g id="a_Node000006"><a xlink:href="../../dd/d14/classbustub_1_1HashFunction.html" target="_top" xlink:title=" ">
<polygon fill="white" stroke="#666666" points="373.5,-96 222.5,-96 222.5,-77 373.5,-77 373.5,-96"/>
<text text-anchor="middle" x="298" y="-84" font-family="Helvetica,sans-Serif" font-size="10.00">bustub::HashFunction&lt; K &gt;</text>
</a>
</g>
</g>
<!-- Node6&#45;&gt;Node1 -->
<g id="edge5_Node000001_Node000006" class="edge">
<title>Node6&#45;&gt;Node1</title>
<g id="a_edge5_Node000001_Node000006"><a xlink:title=" ">
<path fill="none" stroke="#9a32cd" stroke-dasharray="5,2" d="M287.51,-68.14C280.42,-56.41 271.18,-41.12 264.54,-30.14"/>
<polygon fill="#9a32cd" stroke="#9a32cd" points="284.68,-70.23 292.85,-76.98 290.67,-66.61 284.68,-70.23"/>
</a>
</g>
<text text-anchor="middle" x="303.5" y="-51" font-family="Helvetica,sans-Serif" font-size="10.00" fill="grey"> hash_fn_</text>
</g>
</g>
</svg>
</svg>

<style type='text/css'>
<![CDATA[
[data-mouse-over-selected='false'] { opacity: 0.7; }
[data-mouse-over-selected='true']  { opacity: 1.0; }
]]>
</style>
<script type="application/ecmascript"><![CDATA[
document.addEventListener('DOMContentLoaded', (event) => {
  highlightEdges();
  highlightAdjacentNodes();
});
]]></script>
</svg>
