<?xml version="1.0" encoding="UTF-8" standalone="no"?>
<!DOCTYPE svg PUBLIC "-//W3C//DTD SVG 1.1//EN"
 "http://www.w3.org/Graphics/SVG/1.1/DTD/svg11.dtd">
<!-- Generated by graphviz version 2.43.0 (0)
 -->
<!-- Title: src/primer/trie.cpp Pages: 1 -->
<svg width="1233pt" height="192pt"
 viewBox="0.00 0.00 1232.50 192.00" xmlns="http://www.w3.org/2000/svg" xmlns:xlink="http://www.w3.org/1999/xlink">
<g id="graph0" class="graph" transform="scale(1 1) rotate(0) translate(4 188)">
<title>src/primer/trie.cpp</title>
<!-- Node1 -->
<g id="Node000001" class="node">
<title>Node1</title>
<g id="a_Node000001"><a xlink:title=" ">
<polygon fill="#999999" stroke="#666666" points="749.5,-184 643.5,-184 643.5,-165 749.5,-165 749.5,-184"/>
<text text-anchor="middle" x="696.5" y="-172" font-family="Helvetica,sans-Serif" font-size="10.00">src/primer/trie.cpp</text>
</a>
</g>
</g>
<!-- Node2 -->
<g id="Node000002" class="node">
<title>Node2</title>
<g id="a_Node000002"><a xlink:href="../../d7/dc8/trie_8h.html" target="_top" xlink:title=" ">
<polygon fill="white" stroke="#666666" points="433,-129 356,-129 356,-110 433,-110 433,-129"/>
<text text-anchor="middle" x="394.5" y="-117" font-family="Helvetica,sans-Serif" font-size="10.00">primer/trie.h</text>
</a>
</g>
</g>
<!-- Node1&#45;&gt;Node2 -->
<g id="edge1_Node000001_Node000002" class="edge">
<title>Node1&#45;&gt;Node2</title>
<g id="a_edge1_Node000001_Node000002"><a xlink:title=" ">
<path fill="none" stroke="#63b8ff" d="M647.98,-164.98C591.78,-155.12 499.74,-138.97 443.39,-129.08"/>
<polygon fill="#63b8ff" stroke="#63b8ff" points="443.75,-125.59 433.3,-127.31 442.54,-132.49 443.75,-125.59"/>
</a>
</g>
</g>
<!-- Node4 -->
<g id="Node000004" class="node">
<title>Node4</title>
<g id="a_Node000004"><a xlink:title=" ">
<polygon fill="#e0e0e0" stroke="#999999" points="53,-74 0,-74 0,-55 53,-55 53,-74"/>
<text text-anchor="middle" x="26.5" y="-62" font-family="Helvetica,sans-Serif" font-size="10.00">cstddef</text>
</a>
</g>
</g>
<!-- Node1&#45;&gt;Node4 -->
<g id="edge14_Node000001_Node000004" class="edge">
<title>Node1&#45;&gt;Node4</title>
<g id="a_edge14_Node000001_Node000004"><a xlink:title=" ">
<path fill="none" stroke="#63b8ff" d="M643.28,-167.82C574.54,-160.24 451.28,-145.79 346.5,-129 222.78,-109.18 189.85,-101.4 63.29,-74.11"/>
<polygon fill="#63b8ff" stroke="#63b8ff" points="63.72,-70.62 53.21,-71.93 62.25,-77.46 63.72,-70.62"/>
</a>
</g>
</g>
<!-- Node7 -->
<g id="Node000007" class="node">
<title>Node7</title>
<g id="a_Node000007"><a xlink:title=" ">
<polygon fill="#e0e0e0" stroke="#999999" points="684.5,-74 626.5,-74 626.5,-55 684.5,-55 684.5,-74"/>
<text text-anchor="middle" x="655.5" y="-62" font-family="Helvetica,sans-Serif" font-size="10.00">memory</text>
</a>
</g>
</g>
<!-- Node1&#45;&gt;Node7 -->
<g id="edge15_Node000001_Node000007" class="edge">
<title>Node1&#45;&gt;Node7</title>
<g id="a_edge15_Node000001_Node000007"><a xlink:title=" ">
<path fill="none" stroke="#63b8ff" d="M693.14,-164.66C686.44,-147.01 671.29,-107.09 662.38,-83.64"/>
<polygon fill="#63b8ff" stroke="#63b8ff" points="665.61,-82.27 658.79,-74.16 659.06,-84.75 665.61,-82.27"/>
</a>
</g>
</g>
<!-- Node9 -->
<g id="Node000009" class="node">
<title>Node9</title>
<g id="a_Node000009"><a xlink:title=" ">
<polygon fill="#e0e0e0" stroke="#999999" points="768,-74 703,-74 703,-55 768,-55 768,-74"/>
<text text-anchor="middle" x="735.5" y="-62" font-family="Helvetica,sans-Serif" font-size="10.00">stdexcept</text>
</a>
</g>
</g>
<!-- Node1&#45;&gt;Node9 -->
<g id="edge16_Node000001_Node000009" class="edge">
<title>Node1&#45;&gt;Node9</title>
<g id="a_edge16_Node000001_Node000009"><a xlink:title=" ">
<path fill="none" stroke="#63b8ff" d="M699.69,-164.66C706.07,-147.01 720.48,-107.09 728.95,-83.64"/>
<polygon fill="#63b8ff" stroke="#63b8ff" points="732.27,-84.75 732.37,-74.16 725.68,-82.38 732.27,-84.75"/>
</a>
</g>
</g>
<!-- Node12 -->
<g id="Node000012" class="node">
<title>Node12</title>
<g id="a_Node000012"><a xlink:title=" ">
<polygon fill="#e0e0e0" stroke="#999999" points="608,-74 563,-74 563,-55 608,-55 608,-74"/>
<text text-anchor="middle" x="585.5" y="-62" font-family="Helvetica,sans-Serif" font-size="10.00">utility</text>
</a>
</g>
</g>
<!-- Node1&#45;&gt;Node12 -->
<g id="edge18_Node000001_Node000012" class="edge">
<title>Node1&#45;&gt;Node12</title>
<g id="a_edge18_Node000001_Node000012"><a xlink:title=" ">
<path fill="none" stroke="#63b8ff" d="M687.42,-164.66C668.62,-146.38 625.26,-104.18 601.6,-81.17"/>
<polygon fill="#63b8ff" stroke="#63b8ff" points="604.01,-78.62 594.4,-74.16 599.13,-83.64 604.01,-78.62"/>
</a>
</g>
</g>
<!-- Node14 -->
<g id="Node000014" class="node">
<title>Node14</title>
<g id="a_Node000014"><a xlink:title=" ">
<polygon fill="#e0e0e0" stroke="#999999" points="941.5,-129 889.5,-129 889.5,-110 941.5,-110 941.5,-129"/>
<text text-anchor="middle" x="915.5" y="-117" font-family="Helvetica,sans-Serif" font-size="10.00">cassert</text>
</a>
</g>
</g>
<!-- Node1&#45;&gt;Node14 -->
<g id="edge13_Node000001_Node000014" class="edge">
<title>Node1&#45;&gt;Node14</title>
<g id="a_edge13_Node000001_Node000014"><a xlink:title=" ">
<path fill="none" stroke="#63b8ff" d="M731.78,-164.98C766.79,-156.52 822.27,-143.11 879.23,-129.31"/>
<polygon fill="#63b8ff" stroke="#63b8ff" points="880.23,-132.66 889.13,-126.91 878.58,-125.86 880.23,-132.66"/>
</a>
</g>
</g>
<!-- Node15 -->
<g id="Node000015" class="node">
<title>Node15</title>
<g id="a_Node000015"><a xlink:title=" ">
<polygon fill="#e0e0e0" stroke="#999999" points="1033,-129 960,-129 960,-110 1033,-110 1033,-129"/>
<text text-anchor="middle" x="996.5" y="-117" font-family="Helvetica,sans-Serif" font-size="10.00">string_view</text>
</a>
</g>
</g>
<!-- Node1&#45;&gt;Node15 -->
<g id="edge17_Node000001_Node000015" class="edge">
<title>Node1&#45;&gt;Node15</title>
<g id="a_edge17_Node000001_Node000015"><a xlink:title=" ">
<path fill="none" stroke="#63b8ff" d="M746.17,-164.94C795.29,-156.44 872.87,-142.93 949.96,-129.08"/>
<polygon fill="#63b8ff" stroke="#63b8ff" points="950.63,-132.52 959.85,-127.3 949.39,-125.63 950.63,-132.52"/>
</a>
</g>
</g>
<!-- Node16 -->
<g id="Node000016" class="node">
<title>Node16</title>
<g id="a_Node000016"><a xlink:href="../../dd/d2d/exception_8h.html" target="_top" xlink:title=" ">
<polygon fill="white" stroke="#666666" points="871,-129 752,-129 752,-110 871,-110 871,-129"/>
<text text-anchor="middle" x="811.5" y="-117" font-family="Helvetica,sans-Serif" font-size="10.00">common/exception.h</text>
</a>
</g>
</g>
<!-- Node1&#45;&gt;Node16 -->
<g id="edge19_Node000001_Node000016" class="edge">
<title>Node1&#45;&gt;Node16</title>
<g id="a_edge19_Node000001_Node000016"><a xlink:title=" ">
<path fill="none" stroke="#63b8ff" d="M714.98,-164.98C733.48,-156.46 762.18,-143.23 783.48,-133.41"/>
<polygon fill="#63b8ff" stroke="#63b8ff" points="785.07,-136.53 792.69,-129.17 782.14,-130.18 785.07,-136.53"/>
</a>
</g>
</g>
<!-- Node3 -->
<g id="Node000003" class="node">
<title>Node3</title>
<g id="a_Node000003"><a xlink:title=" ">
<polygon fill="#e0e0e0" stroke="#999999" points="544.5,-74 480.5,-74 480.5,-55 544.5,-55 544.5,-74"/>
<text text-anchor="middle" x="512.5" y="-62" font-family="Helvetica,sans-Serif" font-size="10.00">algorithm</text>
</a>
</g>
</g>
<!-- Node2&#45;&gt;Node3 -->
<g id="edge2_Node000002_Node000003" class="edge">
<title>Node2&#45;&gt;Node3</title>
<g id="a_edge2_Node000002_Node000003"><a xlink:title=" ">
<path fill="none" stroke="#63b8ff" d="M413.46,-109.98C432.53,-101.42 462.16,-88.11 484.05,-78.28"/>
<polygon fill="#63b8ff" stroke="#63b8ff" points="485.51,-81.46 493.2,-74.17 482.64,-75.07 485.51,-81.46"/>
</a>
</g>
</g>
<!-- Node2&#45;&gt;Node4 -->
<g id="edge3_Node000002_Node000004" class="edge">
<title>Node2&#45;&gt;Node4</title>
<g id="a_edge3_Node000002_Node000004"><a xlink:title=" ">
<path fill="none" stroke="#63b8ff" d="M355.96,-114.58C295.7,-108.19 175.33,-94.32 63.29,-73.97"/>
<polygon fill="#63b8ff" stroke="#63b8ff" points="63.64,-70.47 53.17,-72.11 62.38,-77.36 63.64,-70.47"/>
</a>
</g>
</g>
<!-- Node5 -->
<g id="Node000005" class="node">
<title>Node5</title>
<g id="a_Node000005"><a xlink:title=" ">
<polygon fill="#e0e0e0" stroke="#999999" points="117.5,-74 71.5,-74 71.5,-55 117.5,-55 117.5,-74"/>
<text text-anchor="middle" x="94.5" y="-62" font-family="Helvetica,sans-Serif" font-size="10.00">future</text>
</a>
</g>
</g>
<!-- Node2&#45;&gt;Node5 -->
<g id="edge4_Node000002_Node000005" class="edge">
<title>Node2&#45;&gt;Node5</title>
<g id="a_edge4_Node000002_Node000005"><a xlink:title=" ">
<path fill="none" stroke="#63b8ff" d="M355.67,-113.24C305.29,-106.15 214.48,-92.49 127.54,-74.05"/>
<polygon fill="#63b8ff" stroke="#63b8ff" points="128.02,-70.57 117.51,-71.89 126.55,-77.41 128.02,-70.57"/>
</a>
</g>
</g>
<!-- Node6 -->
<g id="Node000006" class="node">
<title>Node6</title>
<g id="a_Node000006"><a xlink:title=" ">
<polygon fill="#e0e0e0" stroke="#999999" points="173.5,-74 135.5,-74 135.5,-55 173.5,-55 173.5,-74"/>
<text text-anchor="middle" x="154.5" y="-62" font-family="Helvetica,sans-Serif" font-size="10.00">map</text>
</a>
</g>
</g>
<!-- Node2&#45;&gt;Node6 -->
<g id="edge5_Node000002_Node000006" class="edge">
<title>Node2&#45;&gt;Node6</title>
<g id="a_edge5_Node000002_Node000006"><a xlink:title=" ">
<path fill="none" stroke="#63b8ff" d="M355.97,-111.47C315.3,-103.81 249.18,-90.7 183.41,-74.06"/>
<polygon fill="#63b8ff" stroke="#63b8ff" points="184.27,-70.66 173.72,-71.58 182.54,-77.45 184.27,-70.66"/>
</a>
</g>
</g>
<!-- Node2&#45;&gt;Node7 -->
<g id="edge6_Node000002_Node000007" class="edge">
<title>Node2&#45;&gt;Node7</title>
<g id="a_edge6_Node000002_Node000007"><a xlink:title=" ">
<path fill="none" stroke="#63b8ff" d="M433.04,-110.98C475.36,-102.67 545.58,-88.76 616.16,-74.04"/>
<polygon fill="#63b8ff" stroke="#63b8ff" points="617.05,-77.43 626.12,-71.96 615.62,-70.58 617.05,-77.43"/>
</a>
</g>
</g>
<!-- Node8 -->
<g id="Node000008" class="node">
<title>Node8</title>
<g id="a_Node000008"><a xlink:title=" ">
<polygon fill="#e0e0e0" stroke="#999999" points="247.5,-74 191.5,-74 191.5,-55 247.5,-55 247.5,-74"/>
<text text-anchor="middle" x="219.5" y="-62" font-family="Helvetica,sans-Serif" font-size="10.00">optional</text>
</a>
</g>
</g>
<!-- Node2&#45;&gt;Node8 -->
<g id="edge7_Node000002_Node000008" class="edge">
<title>Node2&#45;&gt;Node8</title>
<g id="a_edge7_Node000002_Node000008"><a xlink:title=" ">
<path fill="none" stroke="#63b8ff" d="M366.38,-109.98C336.79,-101.02 290.03,-86.86 257.24,-76.93"/>
<polygon fill="#63b8ff" stroke="#63b8ff" points="258.13,-73.54 247.55,-73.99 256.1,-80.24 258.13,-73.54"/>
</a>
</g>
</g>
<!-- Node2&#45;&gt;Node9 -->
<g id="edge8_Node000002_Node000009" class="edge">
<title>Node2&#45;&gt;Node9</title>
<g id="a_edge8_Node000002_Node000009"><a xlink:title=" ">
<path fill="none" stroke="#63b8ff" d="M433.31,-113.38C488.59,-105.94 593.42,-91.31 693.04,-74"/>
<polygon fill="#63b8ff" stroke="#63b8ff" points="693.73,-77.43 702.97,-72.26 692.52,-70.53 693.73,-77.43"/>
</a>
</g>
</g>
<!-- Node10 -->
<g id="Node000010" class="node">
<title>Node10</title>
<g id="a_Node000010"><a xlink:title=" ">
<polygon fill="#e0e0e0" stroke="#999999" points="886.5,-19 842.5,-19 842.5,0 886.5,0 886.5,-19"/>
<text text-anchor="middle" x="864.5" y="-7" font-family="Helvetica,sans-Serif" font-size="10.00">string</text>
</a>
</g>
</g>
<!-- Node2&#45;&gt;Node10 -->
<g id="edge9_Node000002_Node000010" class="edge">
<title>Node2&#45;&gt;Node10</title>
<g id="a_edge9_Node000002_Node000010"><a xlink:title=" ">
<path fill="none" stroke="#63b8ff" d="M358.19,-109.95C320.84,-99.55 271.18,-80.21 294.5,-55 331.15,-15.38 716.91,-10.96 832.16,-10.53"/>
<polygon fill="#63b8ff" stroke="#63b8ff" points="832.46,-14.03 842.45,-10.5 832.44,-7.03 832.46,-14.03"/>
</a>
</g>
</g>
<!-- Node11 -->
<g id="Node000011" class="node">
<title>Node11</title>
<g id="a_Node000011"><a xlink:title=" ">
<polygon fill="#e0e0e0" stroke="#999999" points="397,-74 304,-74 304,-55 397,-55 397,-74"/>
<text text-anchor="middle" x="350.5" y="-62" font-family="Helvetica,sans-Serif" font-size="10.00">unordered_map</text>
</a>
</g>
</g>
<!-- Node2&#45;&gt;Node11 -->
<g id="edge10_Node000002_Node000011" class="edge">
<title>Node2&#45;&gt;Node11</title>
<g id="a_edge10_Node000002_Node000011"><a xlink:title=" ">
<path fill="none" stroke="#63b8ff" d="M387.23,-109.75C380.96,-102.18 371.71,-91.05 364.07,-81.84"/>
<polygon fill="#63b8ff" stroke="#63b8ff" points="366.71,-79.55 357.63,-74.09 361.33,-84.02 366.71,-79.55"/>
</a>
</g>
</g>
<!-- Node2&#45;&gt;Node12 -->
<g id="edge11_Node000002_Node000012" class="edge">
<title>Node2&#45;&gt;Node12</title>
<g id="a_edge11_Node000002_Node000012"><a xlink:title=" ">
<path fill="none" stroke="#63b8ff" d="M425.19,-109.98C460.22,-100.26 517.28,-84.43 553.04,-74.51"/>
<polygon fill="#63b8ff" stroke="#63b8ff" points="554.26,-77.8 562.96,-71.75 552.39,-71.06 554.26,-77.8"/>
</a>
</g>
</g>
<!-- Node13 -->
<g id="Node000013" class="node">
<title>Node13</title>
<g id="a_Node000013"><a xlink:title=" ">
<polygon fill="#e0e0e0" stroke="#999999" points="462,-74 415,-74 415,-55 462,-55 462,-74"/>
<text text-anchor="middle" x="438.5" y="-62" font-family="Helvetica,sans-Serif" font-size="10.00">vector</text>
</a>
</g>
</g>
<!-- Node2&#45;&gt;Node13 -->
<g id="edge12_Node000002_Node000013" class="edge">
<title>Node2&#45;&gt;Node13</title>
<g id="a_edge12_Node000002_Node000013"><a xlink:title=" ">
<path fill="none" stroke="#63b8ff" d="M401.77,-109.75C408.04,-102.18 417.29,-91.05 424.93,-81.84"/>
<polygon fill="#63b8ff" stroke="#63b8ff" points="427.67,-84.02 431.37,-74.09 422.29,-79.55 427.67,-84.02"/>
</a>
</g>
</g>
<!-- Node16&#45;&gt;Node7 -->
<g id="edge24_Node000016_Node000007" class="edge">
<title>Node16&#45;&gt;Node7</title>
<g id="a_edge24_Node000016_Node000007"><a xlink:title=" ">
<path fill="none" stroke="#63b8ff" d="M786.44,-109.98C760.47,-101.16 719.69,-87.31 690.54,-77.41"/>
<polygon fill="#63b8ff" stroke="#63b8ff" points="691.35,-73.99 680.76,-74.08 689.1,-80.61 691.35,-73.99"/>
</a>
</g>
</g>
<!-- Node16&#45;&gt;Node9 -->
<g id="edge25_Node000016_Node000009" class="edge">
<title>Node16&#45;&gt;Node9</title>
<g id="a_edge25_Node000016_Node000009"><a xlink:title=" ">
<path fill="none" stroke="#63b8ff" d="M799.29,-109.98C787.72,-101.92 770.12,-89.65 756.34,-80.03"/>
<polygon fill="#63b8ff" stroke="#63b8ff" points="758.14,-77.02 747.93,-74.17 754.13,-82.76 758.14,-77.02"/>
</a>
</g>
</g>
<!-- Node16&#45;&gt;Node10 -->
<g id="edge26_Node000016_Node000010" class="edge">
<title>Node16&#45;&gt;Node10</title>
<g id="a_edge26_Node000016_Node000010"><a xlink:title=" ">
<path fill="none" stroke="#63b8ff" d="M819.56,-109.95C827.21,-101.43 838.52,-87.69 845.5,-74 852.78,-59.73 857.76,-42.2 860.79,-29.18"/>
<polygon fill="#63b8ff" stroke="#63b8ff" points="864.28,-29.6 862.96,-19.09 857.43,-28.13 864.28,-29.6"/>
</a>
</g>
</g>
<!-- Node17 -->
<g id="Node000017" class="node">
<title>Node17</title>
<g id="a_Node000017"><a xlink:title=" ">
<polygon fill="#e0e0e0" stroke="#999999" points="836.5,-74 786.5,-74 786.5,-55 836.5,-55 836.5,-74"/>
<text text-anchor="middle" x="811.5" y="-62" font-family="Helvetica,sans-Serif" font-size="10.00">atomic</text>
</a>
</g>
</g>
<!-- Node16&#45;&gt;Node17 -->
<g id="edge20_Node000016_Node000017" class="edge">
<title>Node16&#45;&gt;Node17</title>
<g id="a_edge20_Node000016_Node000017"><a xlink:title=" ">
<path fill="none" stroke="#63b8ff" d="M811.5,-109.75C811.5,-102.8 811.5,-92.85 811.5,-84.13"/>
<polygon fill="#63b8ff" stroke="#63b8ff" points="815,-84.09 811.5,-74.09 808,-84.09 815,-84.09"/>
</a>
</g>
</g>
<!-- Node18 -->
<g id="Node000018" class="node">
<title>Node18</title>
<g id="a_Node000018"><a xlink:title=" ">
<polygon fill="#e0e0e0" stroke="#999999" points="938.5,-74 892.5,-74 892.5,-55 938.5,-55 938.5,-74"/>
<text text-anchor="middle" x="915.5" y="-62" font-family="Helvetica,sans-Serif" font-size="10.00">cstdio</text>
</a>
</g>
</g>
<!-- Node16&#45;&gt;Node18 -->
<g id="edge21_Node000016_Node000018" class="edge">
<title>Node16&#45;&gt;Node18</title>
<g id="a_edge21_Node000016_Node000018"><a xlink:title=" ">
<path fill="none" stroke="#63b8ff" d="M828.21,-109.98C844.71,-101.57 870.2,-88.59 889.38,-78.81"/>
<polygon fill="#63b8ff" stroke="#63b8ff" points="891.17,-81.83 898.49,-74.17 887.99,-75.59 891.17,-81.83"/>
</a>
</g>
</g>
<!-- Node19 -->
<g id="Node000019" class="node">
<title>Node19</title>
<g id="a_Node000019"><a xlink:title=" ">
<polygon fill="#e0e0e0" stroke="#999999" points="1006,-74 957,-74 957,-55 1006,-55 1006,-74"/>
<text text-anchor="middle" x="981.5" y="-62" font-family="Helvetica,sans-Serif" font-size="10.00">cstdlib</text>
</a>
</g>
</g>
<!-- Node16&#45;&gt;Node19 -->
<g id="edge22_Node000016_Node000019" class="edge">
<title>Node16&#45;&gt;Node19</title>
<g id="a_edge22_Node000016_Node000019"><a xlink:title=" ">
<path fill="none" stroke="#63b8ff" d="M838.81,-109.98C868.2,-100.82 915.01,-86.23 946.94,-76.27"/>
<polygon fill="#63b8ff" stroke="#63b8ff" points="948.24,-79.54 956.74,-73.22 946.15,-72.85 948.24,-79.54"/>
</a>
</g>
</g>
<!-- Node20 -->
<g id="Node000020" class="node">
<title>Node20</title>
<g id="a_Node000020"><a xlink:title=" ">
<polygon fill="#e0e0e0" stroke="#999999" points="1084.5,-74 1024.5,-74 1024.5,-55 1084.5,-55 1084.5,-74"/>
<text text-anchor="middle" x="1054.5" y="-62" font-family="Helvetica,sans-Serif" font-size="10.00">iostream</text>
</a>
</g>
</g>
<!-- Node16&#45;&gt;Node20 -->
<g id="edge23_Node000016_Node000020" class="edge">
<title>Node16&#45;&gt;Node20</title>
<g id="a_edge23_Node000016_Node000020"><a xlink:title=" ">
<path fill="none" stroke="#63b8ff" d="M850.54,-109.98C895.57,-100.16 969.2,-84.1 1014.59,-74.2"/>
<polygon fill="#63b8ff" stroke="#63b8ff" points="1015.36,-77.62 1024.38,-72.07 1013.87,-70.78 1015.36,-77.62"/>
</a>
</g>
</g>
<!-- Node21 -->
<g id="Node000021" class="node">
<title>Node21</title>
<g id="a_Node000021"><a xlink:href="../../df/def/type_8h.html" target="_top" xlink:title=" ">
<polygon fill="white" stroke="#666666" points="1174.5,-74 1102.5,-74 1102.5,-55 1174.5,-55 1174.5,-74"/>
<text text-anchor="middle" x="1138.5" y="-62" font-family="Helvetica,sans-Serif" font-size="10.00">type/type.h</text>
</a>
</g>
</g>
<!-- Node16&#45;&gt;Node21 -->
<g id="edge27_Node000016_Node000021" class="edge">
<title>Node16&#45;&gt;Node21</title>
<g id="a_edge27_Node000016_Node000021"><a xlink:title=" ">
<path fill="none" stroke="#63b8ff" d="M868.83,-109.97C923.7,-101.69 1009.04,-88.51 1092.29,-74.17"/>
<polygon fill="#63b8ff" stroke="#63b8ff" points="1092.91,-77.61 1102.17,-72.46 1091.72,-70.72 1092.91,-77.61"/>
</a>
</g>
</g>
<!-- Node21&#45;&gt;Node10 -->
<g id="edge29_Node000021_Node000010" class="edge">
<title>Node21&#45;&gt;Node10</title>
<g id="a_edge29_Node000021_Node000010"><a xlink:title=" ">
<path fill="none" stroke="#63b8ff" d="M1102.4,-56.52C1048.56,-46.1 948.08,-26.67 896.64,-16.72"/>
<polygon fill="#63b8ff" stroke="#63b8ff" points="897.22,-13.26 886.74,-14.8 895.89,-20.14 897.22,-13.26"/>
</a>
</g>
</g>
<!-- Node22 -->
<g id="Node000022" class="node">
<title>Node22</title>
<g id="a_Node000022"><a xlink:title=" ">
<polygon fill="#e0e0e0" stroke="#999999" points="1120.5,-19 1070.5,-19 1070.5,0 1120.5,0 1120.5,-19"/>
<text text-anchor="middle" x="1095.5" y="-7" font-family="Helvetica,sans-Serif" font-size="10.00">cstdint</text>
</a>
</g>
</g>
<!-- Node21&#45;&gt;Node22 -->
<g id="edge28_Node000021_Node000022" class="edge">
<title>Node21&#45;&gt;Node22</title>
<g id="a_edge28_Node000021_Node000022"><a xlink:title=" ">
<path fill="none" stroke="#63b8ff" d="M1131.4,-54.75C1125.33,-47.26 1116.41,-36.28 1108.99,-27.13"/>
<polygon fill="#63b8ff" stroke="#63b8ff" points="1111.49,-24.65 1102.47,-19.09 1106.05,-29.06 1111.49,-24.65"/>
</a>
</g>
</g>
<!-- Node23 -->
<g id="Node000023" class="node">
<title>Node23</title>
<g id="a_Node000023"><a xlink:href="../../dc/df2/type__id_8h.html" target="_top" xlink:title=" ">
<polygon fill="white" stroke="#666666" points="1224.5,-19 1138.5,-19 1138.5,0 1224.5,0 1224.5,-19"/>
<text text-anchor="middle" x="1181.5" y="-7" font-family="Helvetica,sans-Serif" font-size="10.00">type/type_id.h</text>
</a>
</g>
</g>
<!-- Node21&#45;&gt;Node23 -->
<g id="edge30_Node000021_Node000023" class="edge">
<title>Node21&#45;&gt;Node23</title>
<g id="a_edge30_Node000021_Node000023"><a xlink:title=" ">
<path fill="none" stroke="#63b8ff" d="M1145.6,-54.75C1151.67,-47.26 1160.59,-36.28 1168.01,-27.13"/>
<polygon fill="#63b8ff" stroke="#63b8ff" points="1170.95,-29.06 1174.53,-19.09 1165.51,-24.65 1170.95,-29.06"/>
</a>
</g>
</g>
</g>
</svg>
